<?xml version="1.0" encoding="UTF-8"?>
<svg id="Calque_2" xmlns="http://www.w3.org/2000/svg" viewBox="0 0 67.55 195.69">
  <defs>
    <style>
      .cls-1 {
        fill: #bdcdcc;
      }

      .cls-2 {
        fill: #3b3735;
      }

      .cls-3 {
        fill: #db3236;
      }

      .cls-4 {
        fill: #6c6968;
      }

      .cls-5 {
        fill: #00656e;
      }

      .cls-6 {
        fill: #e4f2f3;
      }

      .cls-7 {
        fill: #fff;
      }

      .cls-8 {
        fill: #ecebec;
      }

      .cls-9 {
        fill: #474340;
      }

      .cls-10 {
        fill: #c58065;
      }
    </style>
  </defs>
  <g id="Calque_6">
    <g>
      <path class="cls-10" d="M48.25,88.46c-.18-.06-4.98,1.97-4.98,1.97l-.13,1.66c1.61,1.77,2.48,4.92,2.81,4.98,1.18.21-.95,1.5-.95,1.5,0,0,.16,1.12.77,1,0,0,1.76,1.57,2.86.95l1.37-1.05c1.1-1.05,2.67-4.05,2.09-4.95-.49-.75-3.65-6.01-3.84-6.08"/>
      <path class="cls-7" d="M49.59,97.55h-.03c-1.4,0-2.63.55-3.57,1.58-1.77,1.95-2.49,5.57-2.02,10.21l1.33-.14c-.42-4.19.19-7.53,1.68-9.17.69-.76,1.56-1.15,2.58-1.15h.02c3.05.02,6.44,6.03,7.11,12.62l1.33-.13c-.68-6.66-4.22-13.8-8.43-13.82"/>
      <polygon class="cls-3" points="57.54 112.53 58.97 158.55 67.55 154.26 64.97 110.81 57.54 112.53"/>
      <polygon class="cls-1" points="30.67 102.52 57.54 112.53 64.97 110.81 38.39 100.52 30.67 102.52"/>
      <polygon class="cls-6" points="38.24 105.45 57.54 112.53 64.97 110.81 38.39 100.52 38.24 105.45"/>
      <path class="cls-7" d="M46.01,97.93c-4.21-.74-7.31,2.87-8.51,9.86l1.32.23c1.06-6.16,3.6-9.37,6.97-8.78,2.95.51,4.57,7.21,3.38,14.05l1.32.23c1.2-6.95-.31-14.87-4.48-15.59"/>
      <polygon class="cls-3" points="30.67 102.52 29.81 142.83 58.97 158.55 57.54 112.53 30.67 102.52"/>
      <path class="cls-10" d="M43.22,90.79l-.37,4.85,1.82,4.29,3.73,2.27s-.09-.64-.73-1.68c-.35-.58-.72-1.46-.91-1.86,0,0,.87-1.54,4.5-.91.06.01-2.9-8.88-3.06-8.93-.19-.06-4.98,1.97-4.98,1.97"/>
      <path class="cls-9" d="M42.54,33.34c-3.01-4.43-10.4-5.11-10.4-5.11,0,0,5.13,15.33,1.84,15.59-.99.08-1.96.03-2.91-.09l1.52,21.96,9.98,26.22s4.54.05,6.12-3.56l-6.11-25s2.91-25.66-.04-30.01"/>
      <path class="cls-8" d="M41.34,88.99l1.23,2.92s4.67,0,6.25-3.61l-.74-2.97c-.08.09-2.28,3.43-6.74,3.66"/>
      <path class="cls-9" d="M15.92,164.9c-.12.12-3.73-7.27-3.73-7.27l-9.89-3.3-1.93,3.79c-.56,1.1-.48,2.41.2,3.43l5.12,5.27c.51.93,1.27,1.68,2.19,2.2,2.1,1.17,7.77,4.01,9.51,3.49,2.82-.85,4.64-3.86-1.48-7.61"/>
      <path class="cls-9" d="M43.49,186.51l-8.19-6.58-9.21,2.39-.4,4.5c.13,1.22.92,2.28,2.05,2.75l14.75,6.03s5.98.97,7.6-3.67l-.09-.29c-.57-1.93-4.94-3.88-6.5-5.15"/>
      <path class="cls-5" d="M21.96,123.79L1.68,153.71c3.17,8.13,10.65,5.17,10.65,5.17l22.85-26.1s3.95-19.02,4.7-25.46c1.05-8.98,1.11-22.89,1.11-22.89l-17.44,4.77-1.59,34.6Z"/>
      <path class="cls-5" d="M30.37,101.23v-15.45l-22.41,1.54s-.77,10.82,3.86,20.86c4.64,10.04,10.5,31.8,10.5,31.8l3.03,43.79s7.28,5.77,13.91,0l-1.54-45.54-7.36-37.01Z"/>
      <path class="cls-9" d="M42.96,35.24c-1.71-4.84-3.9-8.37-11.89-8.58h-5.73l-5.71,1-9.21,6.02c-4.41,2.4-6.66,6.06-6.39,11.08l4.46,28.58-.91,15.77s1.9,5.55,17.26,3.49c14.68-1.98,16.56-6.91,16.56-6.91l-.68-21.26s3.68-25.16,2.26-29.18"/>
      <path class="cls-10" d="M19.63,28.35c0,3.38,2.74,6.13,6.12,6.13s6.13-2.75,6.13-6.13v-10.02l-10.38-.34-1.87,10.36Z"/>
      <path class="cls-8" d="M19.92,25.06l-2.69,4.16c3.21,7.95,10.2,9.1,10.2,9.1l1.51-4.75c-8.62-1.26-9.02-8.51-9.02-8.51"/>
      <path class="cls-8" d="M28.95,33.57s2.98,2.09,3.73,3.34c0,0,1.6-7.5-.8-9.89,0,0,.71,4.2-2.93,6.55"/>
      <path class="cls-10" d="M19.68,18.51c-1.03,5.02,7.36,9.66,7.36,9.66,4.85,1,7.87-.7,8.93-5.82l2.66-12.87-18.04-.48-.91,9.51Z"/>
      <path class="cls-9" d="M37.51,3.86c-6.01-5.75-12.48-4.47-17.65-.14-2.52,2.11-2.2,7.49-2.1,10,.23,5.68,2.76,9.29,2.76,9.29l2.29-8.46.65,1.91,1.66-.76s.12-3.77.27-4.36c.53-2.04,12.81.18,12.81.18,0,0,5.85-1.39-.7-7.67"/>
      <path class="cls-10" d="M19.76,14.38c-.73,2.15.23,4.87,2.17,4.42l.88-4.26s-2.06-3.08-3.05-.17"/>
      <path class="cls-2" d="M54.68,60.47c-1.84-.16-2.96,1.04-2.96,1.04l-4.63,3.7,3.73,5.79s7.07-6.19,9.21-8.51c.04-.04-.78-1.48-.78-1.48,0,0-2.74-.38-4.57-.54"/>
      <path class="cls-4" d="M59.8,61.32c-.1-.3-.55-.31-.55-.31,0,0-2.73-.38-4.57-.54-1.84-.16-2.96,1.04-2.96,1.04l-4.63,3.7.55,1.3s4.57-3.83,4.76-3.94c.7-.42,1.69-.74,2.75-.67,1.38.09,3.52.4,4.44.44.46.02.22.36.22.36.4-.28.28-.57.28-.57,0,0-.29-.79-.3-.81"/>
      <path class="cls-10" d="M51.56,66.94c-2.29-.23-2.96-.91-2.96-.91-.22-.38-.29-1.2-.18-1.49.02-.06.58-.69.63-.74.4-.46,1.41-1.28,1.41-1.28l-3.27.11c-.47.02-.93.11-1.37.29l-3.38,1.33-4.85,1.89-1.06.24-.83,6.03,2.13-.35c3.31,1.89,7.57,2.13,7.57,2.13,1.66,0,3.07-1.3,3.07-1.3,1.58-.11,2.42-1.61,2.42-1.61,1.65-.47,1.88-1.93,1.88-1.93,2.8-.46,2.74-2.34,2.74-2.34,0,0-1.89.15-3.94-.06"/>
      <path class="cls-9" d="M12.77,65.47l-.55-.12,2.17-15.47s.08-14.43-4.16-14.64c-7.23-.35-7.74,11.65-7.74,11.65,0,0-1.45,8.59-.72,16.54,0,1.96.24,4.98.25,6.41.02,3.82,3.19,6.87,7.01,6.76l5.91-.17,23.47-3.77s-.44-3.52-.46-7.29l-25.18.11Z"/>
      <polygon class="cls-8" points="34.62 65.37 34.62 73.26 38.41 72.65 37.95 65.35 34.62 65.37"/>
    </g>
  </g>
</svg>