<?xml version="1.0" encoding="UTF-8"?>
<svg id="Calque_2" xmlns="http://www.w3.org/2000/svg" viewBox="0 0 305.67 253.1">
  <defs>
    <style>
      .cls-1 {
        fill: #3d2d22;
      }

      .cls-2 {
        fill: #fff;
      }

      .cls-3 {
        fill: #523e2f;
      }

      .cls-4 {
        fill: #b6b2b2;
      }

      .cls-5 {
        fill: #ebeaeb;
      }

      .cls-6 {
        fill: #e64942;
      }

      .cls-7 {
        fill: #7b604f;
      }

      .cls-8 {
        fill: #c12421;
      }

      .cls-9 {
        fill: #634b3b;
      }

      .cls-10 {
        fill: #da322d;
      }

      .cls-11 {
        fill: #d4d2d2;
      }

      .cls-12 {
        fill: #ea5a5b;
      }

      .cls-13 {
        fill: #e5ae00;
      }
    </style>
  </defs>
  <g id="Calque_6">
    <g>
      <path class="cls-2" d="M254.78,208.07l9.33-5.4-28.76-16.79-9.33,5.4,28.76,16.78ZM197.26,174.5l9.33-5.4-28.76-16.79-9.33,5.4,28.76,16.79ZM139.74,140.93l9.33-5.4-28.76-16.79-9.33,5.4,28.76,16.79ZM82.21,107.35l9.33-5.4-28.76-16.79-9.33,5.4,28.76,16.79Z"/>
      <path class="cls-6" d="M18.08,60.35L123.2,1.33c3.61-2.13,9.15-1.67,19.02,1.18,23.52,6.79,60.3,20.39,83.31,44.61,12.26,12.92,21.58,24.47,31.55,39.19,5.75,8.5,28.41,36.77,43.04,68.17,6.76,14.51,5.47,30.89,5.47,30.89.1,7.78-4.36,17.27-8.54,20.56-15.3,12.02-49.11,32.42-69.28,40.13-17.52,6.69-41.15,1.48-53.7-5.58,0,0,5.42-3.06,13.83-7.82L18.08,60.35Z"/>
      <path class="cls-8" d="M17.37,125.31c-8.93,2.4-10.77,11.05-11.48,19.06l1.12,2.22,27.76-16.26c-5.38-3.4-10.89-6.77-17.41-5.02"/>
      <path class="cls-1" d="M18.8,142.06c.01,12.42,7.58,26.84,16.9,32.2,9.31,5.37,16.86-.35,16.85-12.77-.01-12.42-7.58-26.84-16.9-32.2-9.32-5.37-16.86.35-16.85,12.77"/>
      <polygon class="cls-1" points="46.22 175.41 35.3 181.73 14.82 134.2 26.18 127.72 46.22 175.41"/>
      <path class="cls-3" d="M7.85,148.4c.01,12.42,7.58,26.84,16.9,32.2,9.31,5.37,16.86-.35,16.85-12.77-.01-12.42-7.58-26.84-16.89-32.2-9.32-5.37-16.87.35-16.85,12.77"/>
      <path class="cls-2" d="M12.6,151.13c0,8.93,5.45,19.29,12.15,23.15,6.7,3.86,12.12-.25,12.11-9.17,0-8.93-5.45-19.29-12.14-23.15-6.7-3.86-12.12.25-12.12,9.17"/>
      <path class="cls-11" d="M15.34,162.91l8-4.15,3.63,5.86-5.2,7.43s-4.7-4.22-6.42-9.15"/>
      <path class="cls-11" d="M12.75,153.74s-1-6.28,1.45-9.72c4.18,3.53,8.02,7.37,8.02,7.37l-.28,3.34-9.19-.98Z"/>
      <path class="cls-11" d="M29.62,165.42c.52.61,3.76,9.01,3.76,9.01,0,0,2.29-1.27,3.02-5.2.49-2.64.45-4.12.45-4.12l-5.63-2.74-1.6,3.06Z"/>
      <path class="cls-11" d="M24.11,151.16l-2.95-10.55s2.05-.03,4.58,1.96c2.2,1.72,3.37,3.01,3.37,3.01l-2.94,7.19-2.05-1.6Z"/>
      <path class="cls-11" d="M28.34,154.35s1.77-1.43,4.7-3.19c.71,1.36,2.16,3.98,2.63,6.31-3.31.64-5.75.64-5.75.64l-1.58-3.76Z"/>
      <path class="cls-3" d="M19.96,154.55c0,4.56,2.78,9.86,6.2,11.83,3.42,1.97,6.19-.13,6.19-4.69,0-4.56-2.78-9.86-6.2-11.83-3.42-1.97-6.19.13-6.19,4.69"/>
      <path class="cls-2" d="M21.83,156.58c0,2.65,1.62,5.72,3.6,6.87,1.99,1.14,3.6-.07,3.59-2.72,0-2.65-1.62-5.72-3.6-6.87-1.99-1.15-3.6.07-3.59,2.72"/>
      <path class="cls-8" d="M141.74,195.79c-8.93,2.4-10.77,11.05-11.48,19.06l1.12,2.22,27.76-16.26c-5.38-3.4-10.89-6.77-17.41-5.02"/>
      <path class="cls-1" d="M143.17,212.55c.01,12.42,7.58,26.84,16.89,32.2,9.32,5.37,16.87-.35,16.85-12.77-.01-12.42-7.58-26.84-16.9-32.2-9.32-5.37-16.86.35-16.85,12.77"/>
      <polygon class="cls-1" points="170.59 245.89 159.67 252.21 139.19 204.69 150.55 198.2 170.59 245.89"/>
      <path class="cls-3" d="M132.22,218.88c.01,12.42,7.58,26.84,16.9,32.2,9.31,5.37,16.86-.35,16.85-12.77-.01-12.42-7.58-26.84-16.9-32.2-9.32-5.37-16.86.35-16.85,12.77"/>
      <path class="cls-2" d="M136.97,221.61c0,8.93,5.45,19.29,12.15,23.15,6.7,3.86,12.12-.25,12.11-9.17,0-8.93-5.45-19.29-12.14-23.15-6.7-3.86-12.12.25-12.12,9.17"/>
      <path class="cls-11" d="M139.71,233.4l8-4.15,3.63,5.86-5.2,7.43s-4.7-4.22-6.42-9.15"/>
      <path class="cls-11" d="M137.12,224.23s-1-6.28,1.45-9.72c4.18,3.53,8.02,7.37,8.02,7.37l-.28,3.34-9.19-.98Z"/>
      <path class="cls-11" d="M153.99,235.9c.52.61,3.76,9.01,3.76,9.01,0,0,2.29-1.27,3.02-5.2.49-2.64.46-4.12.46-4.12l-5.64-2.74-1.6,3.06Z"/>
      <path class="cls-11" d="M148.48,221.65l-2.95-10.55s2.04-.04,4.58,1.96c2.19,1.72,3.37,3.01,3.37,3.01l-2.94,7.19-2.05-1.6Z"/>
      <path class="cls-11" d="M152.71,224.83s1.77-1.43,4.7-3.19c.72,1.37,2.17,3.98,2.63,6.31-3.32.64-5.75.64-5.75.64l-1.58-3.76Z"/>
      <path class="cls-3" d="M144.33,225.03c0,4.56,2.78,9.86,6.2,11.83,3.42,1.97,6.19-.13,6.19-4.69,0-4.56-2.78-9.86-6.21-11.83-3.42-1.97-6.19.13-6.19,4.69"/>
      <path class="cls-2" d="M146.19,227.06c0,2.65,1.61,5.72,3.6,6.87,1.99,1.15,3.6-.07,3.59-2.72,0-2.65-1.62-5.72-3.6-6.87-1.99-1.15-3.59.07-3.59,2.72"/>
      <path class="cls-10" d="M.65,142.93s1.88,1.06,5.27,2.97c-.44-11.99,6.37-18.11,8.91-18.18,14.28-.41,18.84,4.73,21.19,8.37,5.13,7.98,13.92,24.78,12.52,33.82,23.27,13.11,55.52,31.76,80.51,45.81,2.09-18.62,13.06-21.09,16.49-19.16,10.57,5.94,17.19,8.91,24.04,23.05,1.86,3.85,3.36,19.28,4.5,20.88,1.36.76.66.93,1.98,1.55,12.99,6.11,25.67,6.37,25.67,6.37,0,0,1.35-21.63-5.02-33.98-15.86-30.79-37.7-59.46-43.45-67.96-9.97-14.73-20.38-27.5-32.64-40.42-23-24.22-59.79-37.81-83.31-44.61-17.12-4.95-21.25-2.73-24.79,7.78-2.59,7.7-2.29,18.74-7.67,27.16C-.13,104.14.71,110.75.18,121.14c-.6,11.83.46,21.79.46,21.79"/>
      <path class="cls-6" d="M33.24,121.4c7.26,14.44,18.5,31.37,44.53,49.78,19.24,13.61,53.74,33,53.74,33l-1.68,6.81-79.8-46.59-8.42-21.3s-6.82-11.22-18.14-15.82c-.82-.33-8.64-1.03-15.82,3.73-4.22-4.44-.97-21.02.22-22.85,5.43,2.56,18.31,9.77,25.39,13.24"/>
      <path class="cls-8" d="M66.84,114.9s-5.35,9.24-5.35,23.95v38.37l-1.69-.93v-40.84c0-12.35,5.2-21.41,5.2-21.41l1.84.86Z"/>
      <path class="cls-8" d="M117.67,143.95s-5.35,9.24-5.35,23.95v38.37l-1.69-.93v-40.84c0-12.35,5.2-21.41,5.2-21.41l1.84.86Z"/>
      <path class="cls-10" d="M115.27,5.78l-2.11,1.18c.63-.49,1.34-.88,2.11-1.18"/>
      <path class="cls-3" d="M226.66,191.68c.43-.09.85-.18,1.29-.29,9.57-2.24,17.09-3.64,28.9-10.85,12.47-7.61,18.33-13.55,23.49-18.92.55-.57,1.04-1.17,1.52-1.79.31,1.64.69,3.24,1.17,4.73-.24.28-.44.58-.69.85-5.15,5.37-11.02,11.31-23.49,18.92-11.61,7.09-19.09,8.56-28.42,10.74-1.12-1.31-2.39-2.43-3.76-3.41"/>
      <path class="cls-3" d="M284.42,168.76c.08-.09.15-.18.23-.27.4.76.8,1.54,1.25,2.37-1.39,2.77-2.92,5.12-4.55,6.86-8.23,8.87-27.27,19.45-43.01,23.74-1.24.34-2.47.66-3.71.98-.54-1.11-1.09-2.26-1.69-3.53-.09-.18-.21-.33-.3-.51,9.27-2.16,16.73-3.66,28.27-10.71,12.47-7.61,18.33-13.55,23.49-18.92"/>
      <path class="cls-3" d="M254.76,177.21c-11.81,7.21-19.33,8.61-28.9,10.85-1.37.32-2.68.59-4.01.88-1.79-.8-3.57-1.44-5.22-1.92,2.23-.46,4.53-.96,6.88-1.51,9.57-2.24,17.09-3.64,28.9-10.85,12.47-7.61,18.33-13.55,23.49-18.92,1.96-2.04,3.53-4.43,4.81-6.8.06,1.65.19,3.64.41,5.73-.86,1.27-1.79,2.49-2.87,3.61-5.16,5.37-11.02,11.31-23.49,18.92"/>
      <path class="cls-9" d="M282.33,165.42c.26-.26.45-.58.69-.85.37,1.16.78,2.27,1.27,3.24.11.21.24.45.35.67-.08.09-.15.19-.23.28-5.16,5.37-11.02,11.31-23.49,18.92-11.55,7.05-19.01,8.55-28.27,10.7-.63-1.21-1.39-2.3-2.25-3.3,9.34-2.18,16.82-3.65,28.43-10.74,12.47-7.61,18.33-13.55,23.49-18.92"/>
      <path class="cls-9" d="M256.85,180.54c-11.81,7.21-19.33,8.61-28.9,10.85-.44.1-.87.19-1.29.28-1.53-1.09-3.16-2-4.8-2.74,1.33-.29,2.64-.56,4.01-.88,9.57-2.25,17.09-3.64,28.9-10.85,12.47-7.61,18.33-13.55,23.49-18.92,1.07-1.12,2.01-2.34,2.87-3.61.17,1.68.41,3.42.74,5.16-.48.62-.97,1.22-1.52,1.79-5.16,5.37-11.02,11.31-23.49,18.92"/>
      <path class="cls-2" d="M212.79,187.79c10.93,3.89,12.96,12.23,14.17,16.38-8.92,1.72-17.87,2.07-27.33-1.46-4.64-6.19-6.96-11.73-6.96-11.73,0,0,8.64-.98,20.12-3.19"/>
      <path class="cls-4" d="M212.79,187.79c1.25-.24,2.54-.5,3.85-.76,5.69,1.63,13.08,5,16.32,11.87.6,1.27,1.15,2.42,1.69,3.53-2.57.66-5.13,1.25-7.69,1.75-1.21-4.15-3.24-12.5-14.17-16.38"/>
      <path class="cls-2" d="M283.02,143.85c1.51-3.91,2.13-6.94,2.13-6.94,0,0,3.42,5.25,6.84,11.69-.69,6.4-2.06,12.08-3.81,16.89-5.15-9.43-5.14-21.65-5.14-21.65h0Z"/>
      <path class="cls-11" d="M290.1,150.55c-.07,2.78-1.83,5.73-3.93,6.57-2.1.84-3.75-.73-3.67-3.51.07-2.78,1.83-5.72,3.93-6.57,2.1-.84,3.75.73,3.67,3.51"/>
      <path class="cls-5" d="M288.91,151.12c-.05,1.91-1.26,3.94-2.71,4.52-1.44.58-2.58-.5-2.52-2.41.05-1.92,1.26-3.94,2.7-4.52,1.45-.58,2.58.5,2.53,2.41"/>
      <path class="cls-4" d="M284.3,167.81c-2.66-5.24-3.4-13.66-3.6-18.87.95-1.76,1.7-3.49,2.32-5.1h0s0,10.83,5.14,21.65c-.7,1.92-1.45,3.74-2.26,5.36-.58-1.06-1.13-2.09-1.6-3.04"/>
      <path class="cls-11" d="M218.1,195.42c-.07,2.78-1.83,5.73-3.93,6.57-2.1.84-3.75-.73-3.67-3.51.07-2.78,1.83-5.72,3.93-6.57,2.1-.85,3.75.73,3.67,3.51"/>
      <path class="cls-11" d="M207.36,195.88c-.05,2.11-1.38,4.33-2.98,4.97-1.59.64-2.83-.55-2.77-2.66.05-2.1,1.38-4.33,2.97-4.96,1.59-.64,2.83.55,2.78,2.65"/>
      <path class="cls-5" d="M216.91,195.99c-.05,1.91-1.26,3.94-2.7,4.52-1.45.58-2.58-.5-2.53-2.41.05-1.92,1.26-3.94,2.71-4.52,1.45-.58,2.58.5,2.53,2.41"/>
      <path class="cls-3" d="M222.99,235.06c11.72-1.98,30.53-10.64,43.95-18.49,12.22-7.15,21.47-15.16,28.24-23.66,1.74-2.19,2.17-5.1.55-7.38l-2.54-3.56c1.04-.51,2.34-.25,3.06.76l2.83,3.97c1.63,2.28,1.2,5.19-.54,7.38-6.77,8.5-15.91,17.38-28.12,24.53-13.43,7.86-32.03,18.74-43.92,18.85-3.11.03-4.49-.97-5-2.39.48.07.98.08,1.49,0"/>
      <path class="cls-9" d="M221.37,231.87l.95-5.68c.49-2.93,2.52-5.36,5.33-6.33,8.15-2.8,25.85-9.33,40.85-17.99,11.65-6.72,20.24-15.34,23.94-19.39.22-.24.48-.39.75-.52l2.54,3.56c1.62,2.28,1.2,5.19-.55,7.37-6.77,8.51-16.02,16.52-28.24,23.66-13.43,7.86-32.24,16.51-43.95,18.49-.51.09-1.01.07-1.49,0-.34-.94-.31-2.05-.12-3.2"/>
      <polygon class="cls-2" points="278.65 210.87 259.78 221.76 259.78 208.29 278.65 197.4 278.65 210.87"/>
      <path class="cls-1" d="M272.55,120.67s-14.13,21.5-35.29,33.8c-25.71,14.94-57.58,18.66-57.58,18.66-1.26-2.04-2.41-3.89-3.52-5.65l92.57-53.45c1.24,2.14,2.51,4.33,3.82,6.64"/>
      <path class="cls-1" d="M144.85,96.26c20.1-11.65,53.05-31.3,68.19-39.52,7.58-4.11,5.67-9.77,5.5-10.2,1,.97,2.01,1.93,2.97,2.93,3.21,3.38,6.11,6.41,8.87,9.39l-93.8,54.15c-2.85-3.19-5.86-6.44-9.18-9.93-.71-.75-1.48-1.46-2.22-2.19l-.05-.11s11.12.46,19.72-4.52"/>
      <path class="cls-1" d="M24.99,56.74c2.69-1.51,93.28-52.44,93.28-52.44l2.11-1.19c2.42-.95,5.66-.97,10.16-.12-.14.02-7.06,1.03-15.27,5.93-8.3,4.95-67.53,37.62-73.07,41.11-5.54,3.5-4.71,6.69-4.71,6.69-5.92-1.38-9.79-1.56-12.5.02"/>
      <path class="cls-3" d="M256.79,120.92l-80.64,46.56c-10.21-16.27-14.31-21.28-18.13-26.92-5.31-7.85-10.19-14.3-15.44-20.58,10.63-5.93,25.88-14.7,45.25-26.51,26.77-16.33,54,9.07,68.96,27.45"/>
      <path class="cls-9" d="M200.36,76.2l30.02-17.33c7.78,8.43,14.45,16.49,23.78,31.02,3.35,5.21,8.48,13.65,14.56,24.14l-6.75,3.9-11.51,6.65c-11.84-14.35-30.03-31.55-57.51-25.67-18.15,3.88-39.73,15.14-50.36,21.07-1.94-2.32-3.92-4.62-6-6.95l63.78-36.82Z"/>
      <path class="cls-7" d="M205.46,73.26l24.92-14.39c7.78,8.43,14.45,16.49,23.78,31.02,3.35,5.21,8.48,13.65,14.56,24.14l-6.75,3.9c-5.16-8.38-24.88-38.15-56.51-44.68"/>
      <path class="cls-3" d="M125.14,45.85c34.99,9.6,58.17,18.47,67.71,22.36-15.69,9.1-34.66,20.33-47.99,28.06-8.6,4.98-19.72,4.52-19.72,4.52l.05.11c-23.09-22.83-58.3-35.83-81.09-42.42-2.45-.71-4.65-1.3-6.61-1.76,0,0-.83-3.19,4.71-6.69,1.88-1.19,9.97-5.75,20.16-11.44,16.1-.51,38.49.58,62.78,7.25"/>
      <path class="cls-3" d="M130.54,2.99c2.23.42,4.74,1.03,7.67,1.88,22.54,6.51,57.24,19.3,80.34,41.68.16.43,2.07,6.09-5.5,10.2-5.1,2.77-12.23,6.84-20.2,11.46-9.54-3.89-32.72-12.76-67.71-22.36-24.3-6.67-46.68-7.76-62.78-7.25,19.77-11.06,47.44-26.4,52.91-29.67,8.21-4.91,15.13-5.92,15.27-5.93"/>
      <path class="cls-7" d="M130.54,2.99c2.23.42,4.74,1.03,7.67,1.88,22.54,6.51,57.24,19.3,80.34,41.68.16.43,2.07,6.09-5.5,10.2-5.1,2.77-12.23,6.84-20.2,11.46-9.54-3.89-32.72-12.76-67.71-22.36-24.3-6.67-46.68-7.76-62.78-7.25,19.77-11.06,47.44-26.4,52.91-29.67,8.21-4.91,15.13-5.92,15.27-5.93"/>
      <path class="cls-1" d="M90.36,87.02c16.86,10.09,27.5,19.27,36.24,31.95,8.74,12.69,13.34,19.02,17.71,27.4,4.37,8.39,3.35,14.73-11.95,8.1-12.46-5.39-82.83-48.45-93.04-55-10.2-6.56-12.76-15.66-14.22-23.68-1.46-8.02.73-15.3,16.79-10.04,14.02,4.59,36.7,14.22,48.46,21.26"/>
      <path class="cls-3" d="M118.61,114.03c2.66,4.58,10.16,14.77,16.18,23.17,4.95,6.91,10.09,15.72,7.83,16.96-2.94,1.63-18.73-6.45-24.01-10.58v-29.55Z"/>
      <path class="cls-9" d="M115.14,110.72v31.14s-23.25-14.44-29.73-17.78c-6.38-3.28-16.58-10.2-16.58-10.2v-34.43s14.53,5.82,25.37,13.35c13.12,9.11,20.94,17.93,20.94,17.93"/>
      <path class="cls-3" d="M65,77.98v33.34s-19.86-11.48-24.6-14.21c-4.74-2.73-12.02-14.03-12.57-22.05-.55-8.02,2.79-7.79,5.83-8.02,3.83-.29,22.78,6.85,31.34,10.93"/>
      <path class="cls-13" d="M68.57,130.13c0,2.46,1.5,5.32,3.35,6.39,1.85,1.06,3.35-.07,3.35-2.53s-1.5-5.33-3.35-6.39c-1.85-1.07-3.35.07-3.35,2.53"/>
      <path class="cls-6" d="M67.43,131.5l9,5.2c.73.42,1.33-.03,1.33-1s-.6-2.11-1.33-2.54l-9-5.2c-.73-.42-1.33.03-1.33,1.01s.6,2.11,1.33,2.54"/>
      <path class="cls-13" d="M23.21,104c0,2.46,1.5,5.32,3.35,6.39,1.85,1.06,3.35-.07,3.35-2.53s-1.5-5.33-3.35-6.39c-1.85-1.07-3.35.07-3.35,2.53"/>
      <path class="cls-6" d="M22.08,105.36l9,5.2c.73.42,1.33-.03,1.33-1s-.6-2.11-1.33-2.54l-9-5.2c-.73-.42-1.33.03-1.33,1.01s.6,2.11,1.33,2.54"/>
      <path class="cls-6" d="M121.02,155.58s4.09,5.07,7.2,6.89c3.11,1.82,3.28,3.13,3.28,6.34s-2.58,3.08-5.24-.03c-2.66-3.11-7.65-10.67-7.65-10.67l2.41-2.53Z"/>
      <path class="cls-6" d="M120.6,154.38c3.73-2.77,6.38-3.89,8.17-4.35.15.72.25,1.5.26,2.34.07,3.92-1.57,9.57-8.96,12.38-2.84,1.08-5.74,1.61-7.95,1.45.17-3.42,2.4-7.31,8.48-11.82"/>
      <path class="cls-12" d="M109.84,159.51c2.86-4.14,8.87-9.63,13.3-11.84,3.48-1.74,5.06-.25,5.63,2.36-1.79.45-4.44,1.59-8.17,4.35-6.08,4.51-8.31,8.4-8.48,11.82-3.54-.25-5.33-2.28-2.28-6.69"/>
      <path class="cls-6" d="M151.65,196.66c13.35,7.69,25.4,27.4,24.39,45.37-.62-.35-3.23-.76-4.63-1.57,0-.17,0-.6,0-.77-.01-14.74-8.99-31.86-20.05-38.23-11.06-6.37-20.02.41-20.01,15.15,0,.15.02.31.02.47-1.28-.74-2.61-1.51-3.93-2.27.07-17.7,10.87-25.83,24.2-18.14"/>
      <path class="cls-6" d="M27.28,126.18c13.35,7.69,25.4,27.4,24.39,45.37-.62-.35-3.22-1.53-4.62-2.34,0-.18,0,.18,0,0-.01-14.74-8.99-31.86-20.05-38.23-11.06-6.37-20.02.41-20.01,15.15,0,.15.02.31.02.47-1.28-.74-2.61-1.51-3.93-2.27.07-17.7,10.87-25.83,24.2-18.14"/>
    </g>
  </g>
</svg>