<?xml version="1.0" encoding="UTF-8"?>
<svg id="Calque_2" xmlns="http://www.w3.org/2000/svg" viewBox="0 0 153.4 113">
  <defs>
    <style>
      .cls-1 {
        fill: #afabab;
      }
    </style>
  </defs>
  <g id="Calque_7">
    <path id="Exclusion_2" class="cls-1" d="M143.51,113c-1.71-.06-3.38-.57-4.84-1.48-2.69-1.65-4.97-3.87-6.68-6.52H7.76v-52.63h0c-1.92-1.24-3.69-2.7-5.27-4.34-.14-.14-.26-.3-.38-.46-1.26-1.32-2.01-3.05-2.11-4.87v-.22c.02-.75.14-1.49.36-2.2-.04-3.14.38-6.28,1.25-9.3.14-.47,3.42-3.42,6.14-5.82v27.2h0c6,4.17,14.72,8.96,18.67,10.26,0,0,.2.07.53.17,1.54.54,3.16.85,4.8.91.24,0,.48,0,.71-.03,1.11.03,2.2-.29,3.11-.93.05.11.11.22.18.32.88,1.18,2.15,2.03,3.58,2.39.24.07.5.11.75.11.52,0,1.03-.15,1.47-.44l.83-.53c2.93-1.9,4.85-5.01,5.26-8.47l.64.35,27.15-17.7s0-.01,0-.02c0-.04.02-.15.04-.32.05-.39.14-1.04.3-1.85l.02.03v.02c.89,1.18,2.14,2.03,3.57,2.39.25.07.51.11.77.11.52,0,1.03-.16,1.47-.44l.83-.53c2.93-1.9,4.85-5.01,5.26-8.47l.64.35c.78-2.2,1.18-4.53,1.16-6.87,0-1.07-.08-2.13-.25-3.18-.3-1.84-2.68-5.23-4.24-6.42-1.06-.81-10.62-8.03-18.55-11.58h58.28c5.31-.01,10.4,2.09,14.14,5.86,3.76,3.74,5.87,8.84,5.86,14.15v63.98c-.67-.55-1.38-1.04-2.13-1.47-.69-.4-1.42-.74-2.17-1,.22-.18.41-.39.58-.62h.01v-.03c.25-.31.37-.69.36-1.08l.03-.09-.02.02h0v-.02l-.33-.19-.02.02s-.15.16-.29.32c-.09.01-.18.02-.28.02-.37,0-.74-.06-1.11-.15-.46-.09-.92-.14-1.39-.13-.18,0-.37,0-.55.02l-.62-1.47-.68.11.46-.08-2.38-5.65c.36-.46.66-.96.88-1.49.09.05.18.09.28.12.09.05.2.08.31.08.18,0,.36-.06.52-.16.68-.44,1.11-1.18,1.16-1.99.02-.27-.09-.54-.3-.71v-.02s0,.01,0,.01c-.49-.26-1.03-.4-1.58-.4-.07,0-.15,0-.22.01-.1-.19-.24-.36-.42-.48h-.01s-.01-.02-.01-.02h-.02c-.05-.04-.11-.08-.17-.1-.9-.49-1.9-.78-2.93-.83l-.43-1.01,1.82-1.05c1.95-1.14,3.13-3.24,3.09-5.5l-.02-.91c-.02-.36.16-.7.46-.9l.2-.14c.07.03.15.04.23.04h.03c.19.01.37-.08.46-.24l3.61-4.25c.07-.17.04-.36-.08-.5-.22-.44-.63-.74-1.11-.83h-.03c-.18,0-.36.08-.46.23l-3.54,4.16s-.04.04-.06.07l-.02.03h0s-.02.04-.02.06l-.1.07c-.74.49-1.18,1.33-1.16,2.22l.02.91c.03,1.69-.85,3.26-2.31,4.11l-4.77,2.75c-.12-.53-.28-1.05-.49-1.55h0c-.94-2.28-4.59-4.07-7.55-4.61-1.03-.19-2.07-.28-3.12-.28-1.64-.01-3.28.24-4.84.74-.75.29-1.46.67-2.11,1.14l-.8-.31-2.23-.16-4.25-2.83-4.02-3.66-1.79-2.24v-.02s-.09-.02-.09-.02c-.21-.06-.42-.09-.63-.1-.1,0-.2.01-.29.05-.44.11-.86.26-1.27.45-1.07-.83-2.25-1.52-3.5-2.04-1.32-.58-2.75-.9-4.19-.94h-.09c-.09,0-.18,0-.29.01-.27.01-.55.04-.82.09-.45.07-.88.15-1.03.19-.07.02-6.79,2.16-7.86,5.54h.01s0,0,0,0l.23.17c.34.22.73.34,1.14.35.14,0,.28-.02.42-.04-.16.18-.3.37-.43.57-.99,1.58-1.48,3.43-1.4,5.29,0,6.81,4.83,15.15,10.77,18.59,1.45.91,3.12,1.42,4.84,1.48.55,0,1.09-.07,1.61-.22h.02c2.35-.67,4.5-1.88,6.29-3.54.44-.37.82-.81,1.13-1.3l.19.08.76.31.6,1.5,1.09,2.7-1.35-.78c-.19-.11-.4-.17-.62-.17-.43,0-.83.22-1.05.58-.19.3-.24.67-.14,1.02.1.35.35.63.67.78l3.78,1.74c.26.65.43,1.05.44,1.09.03.06,2.24,1.27,6.58,3.58l-4.44,2.56h0c-.13.11-.2.26-.18.42.03.45.27.86.64,1.11.09.06.19.09.29.09.09,0,.18-.03.24-.1l5.34-3.08c3.55,1.88,6.91,3.65,6.94,3.67h0s4.31-1.35,5.07-2.93c.12-.25.32-.62.54-1.01.04,0,.09,0,.13,0h.01c.11-.01.22-.03.32-.07.44-.17.97-.86,1.58-2.06-.31,1.06-.46,2.17-.45,3.27.18,4.33,1.6,8.52,4.1,12.07h10.51c-.11-.05-.21-.11-.32-.17-.33-.19-.64-.4-.95-.62.18.03.35.05.53.05.78.02,1.51-.37,1.92-1.03.37-.02.74-.13,1.05-.32v2.1h-2.24c.81.46,1.73.71,2.66.75.47-.92.7-1.94.66-2.97,0-.4-.03-.79-.07-1.19-.18.54-.53,1-1.01,1.31v-16.92c2.57,2.15,4.67,4.81,6.17,7.8,1.53,2.87,2.38,6.06,2.47,9.31,0,2.67-.73,4.79-2.11,6.13h0c-1.77,1.82-4.02,3.08-6.48,3.64h-.01c-.42.09-.85.14-1.28.14ZM136.36,93.25h0l-.71-1.67c.1-.46.27-.9.49-1.31,1.06.05,2.08.36,2.98.92.33.19.64.4.95.62-.18-.03-.35-.05-.53-.05-.78-.02-1.51.37-1.92,1.03-.46.02-.89.18-1.25.46h0ZM130.23,84.69h0c.08-.28.15-.57.2-.86.05-.41.03-.82-.05-1.23l.16-.34.34.81-.22.03.42.99c-.28.19-.57.39-.85.6h0ZM132.37,83.32h0c-.67-1.4-1.81-3.64-2.72-5.44l-.13-.3.37-1.88.35-.02c.28.21.61.34.95.39h.05c.13.03.25.05.38.05.43-.02.84-.14,1.21-.37.27-.15.51-.34.74-.54l2.14,5.08-.22.03.61,1.45c-.21.04-.42.1-.62.17l-.21.08c-.99.37-1.96.8-2.9,1.3h0ZM131.63,82.95h0l.14-.02-1.04-2.46c.49.97.9,1.79,1.21,2.43l-.32.05ZM130.37,81.85l-.24-.26c-.24-.76-.57-1.49-.98-2.18l.06-.31,1.16,2.75h0ZM90.32,79.27c-1.17-.04-2.3-.39-3.29-1.01-4.33-2.81-7.06-7.52-7.35-12.68-.06-1.3.29-2.58,1-3.67.02.41.06.83.12,1.26-.37.74-.57,1.56-.57,2.39,0,4.78,4.2,10.42,8.12,12.68.57.33,1.19.54,1.84.63.18.13.38.26.58.39-.15.02-.29.03-.43.03h0ZM128.09,77.95h0c-.14-.15-.3-.29-.46-.42-.14-.19-.29-.37-.42-.53l-.04-.05c0-.22-.02-.45-.03-.67v-.04c.25.29.58.51.94.64.07.03.14.05.22.06v.02s-.21,1.01-.21,1.01h0ZM103.95,77.16h0l-2-1.16c.03-.11.05-.24.08-.39.78.32,1.54.63,2.26.93-.15.18-.26.4-.33.62h0ZM94,76.18c-1.07-.04-2.11-.36-3.02-.92-.83-.49-1.59-1.08-2.27-1.77.95.43,2.9,1.26,5.49,2.35-.03.12-.05.23-.09.34h-.11ZM105.08,76.03h0c-.89-.36-1.85-.75-2.95-1.2.03-.26.04-.53.05-.81l1.33.79,1.8,1.08-.23.14h0ZM94.32,75.07h0c-3.34-1.4-5.42-2.31-5.86-2.56-.8-.5-1.5-1.16-2.03-1.95l7.92,4.19c0,.12-.02.23-.03.32h0ZM111.75,74.05h0c-.19-.07-.39-.14-.57-.21l.59-.28c0,.13,0,.28-.01.49h0ZM107.43,73.58h0l-1.7-.99-.38-.8,1.14.68.05.03,1.4.84-.34.16c-.06.01-.12.04-.17.08h0ZM108.79,72.94h0l-1.56-.94-.05-.03-1.27-.76c.54-.06.96-.11.96-.11.04,0,4.02-.1,4.52-.5.05-.04.09-.11.09-.18.03-.33-.36-.89-.7-1.3.73.52,1.51.98,2.32,1.37.15.07.3.15.44.22l-.5.28s-.06,0-.09-.01c-.02,0-.05,0-.07,0l-4.08,1.96h0ZM104.55,71.75h0l-.84-.41h.2c.13,0,.27,0,.44-.01l.21.41h0ZM94.07,71.46h0c-1.15-.5-1.86-.82-2.1-.96-1.59-.98-2.7-2.59-3.04-4.43l1.59.96.06.4,2.62,1.38c.37.86.66,1.75.87,2.66h0ZM89.92,69.76l-4.56-2.22h0s.13.88.13.88c-.1-.44-.15-.89-.15-1.34,0-.91.22-1.51.66-1.77.2-.1.41-.15.63-.14.52.03,1.02.17,1.47.41.13,1.56.77,3.03,1.82,4.18h0ZM129.77,68.86h0l-.59-.17,1.33-.77.27.63c-.35.06-.68.16-1,.31h0ZM106.8,67.74l-.92-.03c-.77-.02-1.5-.04-2.02-.05-.1,0-.19-.01-.29-.03.69.02,1.38-.02,2.07-.12,0,0,0-.02,0-.03.09-.09.19-.18.29-.25.32.19.6.36.87.51h0ZM84.62,66.35c-.23-.88-.35-1.78-.36-2.69-.04-1.09.22-2.17.75-3.12.71.19,1.38.47,2.01.84.67.39,1.3.85,1.89,1.37-.54.51-.84,1.22-.82,1.96-.46-.2-.96-.32-1.46-.33-.35,0-.7.08-1.01.25-.58.39-.95,1.02-1,1.72h0ZM90.38,66.01h0l-.8-.48-.07-.04-.65-.39v-.05c0-.91.22-1.5.64-1.76.6.6,1.16,1.24,1.66,1.93l-.96-.47h0s.18,1.27.18,1.27h0ZM7.76,25.15v-3.15c-.01-5.31,2.09-10.4,5.86-14.14,3.74-3.76,8.83-5.87,14.14-5.86h7.95c-1.9,1.04-8.26,4.55-10.4,5.9-2.35,1.47-8.22,5.79-8.47,5.97-.6.38-1.11.9-1.49,1.51v-.02s-4.19,6.85-4.19,6.85c-.81.7-2.06,1.78-3.39,2.95v-.02ZM66.47,2h-30.77l.89-.49c.91-.3,1.85-.46,2.8-.49.18,0,.35,0,.51.02h-.02s-.04-.02-.04-.02l8.76.12s.43.11,1.08.32l9.85-1.46c2.41.24,4.76.91,6.93,2h0Z"/>
  </g>
</svg>