<?xml version="1.0" encoding="UTF-8"?>
<svg id="uuid-bad32839-86ef-4d4d-9af3-775ae5387408" data-name="Calque_2" xmlns="http://www.w3.org/2000/svg" viewBox="0 0 22.41 63.7">
  <defs>
    <style>
      .uuid-7f2f02ff-8f09-4cf6-b113-512a5e9bddd2 {
        fill: #fff;
      }

      .uuid-8215ac8a-3ff7-4e21-8c50-4fb25c1b403f {
        fill: #3c4898;
      }

      .uuid-5d9a0311-bcbb-475f-b7bf-0d28f4a539d8, .uuid-d2b5c7f8-c187-4fe4-a5bc-f3b107c1011c {
        stroke-width: .22px;
      }

      .uuid-5d9a0311-bcbb-475f-b7bf-0d28f4a539d8, .uuid-d2b5c7f8-c187-4fe4-a5bc-f3b107c1011c, .uuid-8510ecdc-84af-42d8-a6e0-5065864127f7 {
        fill: none;
        stroke: #fff;
        stroke-miterlimit: 10;
      }

      .uuid-d2b5c7f8-c187-4fe4-a5bc-f3b107c1011c, .uuid-8510ecdc-84af-42d8-a6e0-5065864127f7 {
        stroke-linecap: round;
      }

      .uuid-8510ecdc-84af-42d8-a6e0-5065864127f7 {
        stroke-width: 1.67px;
      }
    </style>
  </defs>
  <g id="uuid-0b5267de-72aa-4417-a703-0009b36d3462" data-name="Éléments_Route">
    <g id="uuid-5b950a10-f164-4326-a4ce-ca81ed9dbdfb" data-name="Route_x5F_VoieDouble">
      <line class="uuid-8510ecdc-84af-42d8-a6e0-5065864127f7" x1="11.21" y1="62.86" x2="11.21" y2="20.01"/>
      <path class="uuid-7f2f02ff-8f09-4cf6-b113-512a5e9bddd2" d="M.06,13.9C.04,9.64.02,5.38,0,1.11,0,.68.12.36.37.15.53.01.72-.02.93.01c.56.1,1.13.3,1.69.47,6.15,1.79,12.3,3.58,18.45,5.38.34.1.66.32.92.71.18.28.26.59.27.9.1,8.63.1,17.23.15,25.84,0,.76-.33,1.19-1,1.09-.15-.02-.31-.07-.46-.11-6.52-1.9-13.03-3.8-19.55-5.7-.32-.09-.62-.25-.87-.59-.25-.34-.4-.72-.4-1.13-.03-4.33-.04-8.65-.07-12.98,0,0,0,0,0,0M21.47,20.21c-.02-4.31-.04-8.63-.06-12.94,0-.16-.03-.2-.15-.24C14.52,5.07,7.77,3.1,1.03,1.13c-.13-.04-.15,0-.15.15.04,8.58.09,17.15.13,25.73,0,.08,0,.16,0,.23,0,.09.03.12.09.14.17.04.35.1.52.15,6.59,1.92,13.18,3.85,19.76,5.77.12.04.15.01.15-.15-.03-4.32-.04-8.63-.07-12.95"/>
      <path class="uuid-8215ac8a-3ff7-4e21-8c50-4fb25c1b403f" d="M21.47,20.21c.02,4.32.04,8.63.07,12.95,0,.16-.03.18-.15.15-6.59-1.93-13.17-3.85-19.76-5.77-.17-.05-.35-.1-.53-.15-.07-.02-.1-.04-.09-.14,0-.07,0-.15,0-.23-.04-8.58-.08-17.15-.13-25.73,0-.15.02-.19.15-.15,6.74,1.97,13.49,3.94,20.23,5.9.12.03.15.08.15.24.02,4.31.04,8.63.06,12.94M16.13,20.65h0c0,.48,0,.96,0,1.44.01,2.75.03,5.49.04,8.24,0,.18.07.32.24.37.12.04.25.04.38.09.25.08.51.15.76.21.15.04.19,0,.2-.19,0-.04,0-.07,0-.11-.03-5.47-.05-10.94-.08-16.41,0-.95,0-1.91-.01-2.86,0-.12.01-.19.13-.15.18.06.36.1.54.16.23.08.33-.02.2-.36,0,0,0,0,0-.01-.3-.83-.61-1.65-.91-2.48-.18-.5-.37-1-.56-1.5-.04-.11-.09-.2-.19-.22-.08-.02-.12.05-.16.12-.06.13-.12.27-.18.4-.43.93-.86,1.87-1.29,2.81-.08.17-.01.35.16.4.19.07.39.12.59.17.07.02.1.06.1.15,0,.12,0,.24,0,.36.02,3.13.03,6.26.05,9.39M6.71,13.29c-.05.16-.1.3-.15.44-.14.4-.3.78-.43,1.19-.04.11-.08.13-.16.08-.25-.17-.5-.25-.75-.28-.39-.04-.72.09-.98.38-.36.41-.53.98-.43,1.72.08.6.3,1.13.66,1.58.4.5.84.82,1.35.82.42,0,.77-.15,1.04-.5.26-.34.37-.79.35-1.34-.02-.45-.12-.88-.32-1.3-.15-.31-.34-.57-.56-.79-.06-.06-.1-.1-.06-.2.15-.4.29-.8.43-1.2.01-.03-.01-.09.04-.09.05,0,.07.07.09.11.33.67.65,1.35.98,2.02.05.11.15.24.12.34-.05.16,0,.15.09.23.2-.09.24.31.3.46.04.11.09.32.06.38-.07.13-.1.17-.08.35.05.54.28.83.67.79.02,0,.05,0,.07,0,.05.03.1.31.1.37,0,.08-.06.05-.1.03-.06-.03-.06.02-.06.08,0,.07.01.12.07.14.18.05.37.1.55.15.05.01.07-.01.07-.08,0-.06-.02-.11-.07-.13-.04-.01-.07-.02-.11-.03-.12-.03-.16-.16-.22-.28-.05-.12-.18-.31-.14-.36.06-.08.13-.18.14-.31,0-.11.24.05.31.07.2.06.4.12.6.18.06.02.09.04.09.13,0,.4.11.79.28,1.16.39.83.92,1.38,1.61,1.48.7.1,1.2-.23,1.44-1.04.12-.41.12-.87.03-1.34-.08-.4-.25-.77-.47-1.11-.3-.45-.66-.74-1.07-.9-.33-.14-.64-.12-.94-.02-.06.02-.1.01-.14-.08-.24-.58-.49-1.16-.74-1.74-.03-.07-.04-.14-.01-.18.04-.06.06-.16.1-.22.06-.08.06-.24.15-.27.09-.03.18.1.27.15.1.05.19.07.25-.05.11-.22-.02-.53-.26-.6-.37-.11-.74-.22-1.11-.32-.06-.02-.12-.05-.14.04-.02.09.05.15.11.19.21.14.42.28.64.41.06.04.08.07.05.13-.04.11-.1.22-.14.34-.04.12-.11.14-.22.1-.97-.29-1.94-.57-2.91-.85-.06-.02-.11-.03-.17-.04-.08,0-.09-.05-.07-.13.03-.1.06-.19.1-.28.05-.11,0-.13-.08-.16-.12-.04-.24-.05-.37-.12-.12-.07-.22-.22-.23-.37-.01-.16.07-.27.2-.28.12-.01.25.06.38.08.05,0,.09.04.09-.06,0-.08-.03-.12-.09-.13-.11-.03-.21-.06-.32-.09-.19-.06-.35.06-.39.28-.04.22.05.49.2.65.13.14.27.13.42.2M9.53,23.03s0,0,0,0c0-.43,0-.86,0-1.3,0-.11-.02-.15-.11-.17-.42-.12-.85-.25-1.27-.37-.21-.06-.21-.06-.19.21,0,.01,0,.03,0,.05,0,.82,0,1.64.02,2.46,0,.1-.03.1-.09.08-.16-.05-.32-.09-.48-.14-.32-.09-.39.05-.24.45.26.69.52,1.38.77,2.07.23.62.45,1.24.68,1.86.09.23.23.28.34.12.05-.09.09-.19.14-.29.3-.65.6-1.3.89-1.96.15-.34.34-.66.45-1.04.05-.16.01-.25-.14-.34-.22-.12-.44-.15-.65-.22-.09-.03-.12-.06-.12-.18,0-.43,0-.86,0-1.3M7.89,7.81s0,0,0,0c0,1.1.01,2.21.02,3.31,0,.09-.01.17.1.2.45.12.9.24,1.34.38.09.03.1-.01.1-.11,0-1.16-.01-2.31-.02-3.47,0-1.03,0-2.06-.02-3.09,0-.3-.06-.35-.24-.41-.35-.12-.7-.21-1.05-.31-.2-.06-.25,0-.25.26,0,1.08.01,2.17.02,3.25"/>
      <path class="uuid-7f2f02ff-8f09-4cf6-b113-512a5e9bddd2" d="M16.13,20.65c-.02-3.13-.03-6.26-.05-9.39,0-.12,0-.24,0-.36,0-.1-.03-.13-.1-.15-.2-.05-.39-.11-.59-.17-.17-.06-.24-.23-.16-.41.43-.93.86-1.87,1.28-2.8.06-.13.12-.27.18-.4.03-.07.07-.14.16-.12.1.02.15.12.19.22.19.5.37,1,.56,1.5.3.83.61,1.65.91,2.48,0,0,0,0,0,.02.13.34.03.44-.2.36-.18-.06-.36-.1-.54-.16-.12-.04-.13.03-.13.15,0,.95.01,1.91.02,2.86.03,5.47.05,10.94.08,16.41,0,.04,0,.07,0,.11,0,.19-.04.23-.2.19-.25-.07-.51-.13-.76-.21-.13-.04-.25-.05-.38-.09-.17-.05-.23-.19-.24-.37,0-2.74-.02-5.49-.04-8.24,0-.48,0-.96,0-1.44h0"/>
      <path class="uuid-7f2f02ff-8f09-4cf6-b113-512a5e9bddd2" d="M9.53,23.03c0,.43,0,.87,0,1.3,0,.12.04.16.12.18.22.07.44.09.65.22.15.08.18.17.14.33-.12.38-.3.7-.45,1.04-.29.66-.59,1.31-.89,1.96-.04.1-.08.2-.13.29-.1.17-.25.12-.34-.12-.23-.62-.45-1.24-.68-1.86-.26-.69-.51-1.38-.77-2.07-.15-.4-.08-.54.24-.45.16.05.32.09.48.14.06.02.09.01.09-.08,0-.82-.01-1.64-.02-2.46,0-.01,0-.03,0-.05-.02-.27-.02-.27.19-.21.42.12.85.25,1.27.37.09.02.11.06.11.17,0,.43,0,.86,0,1.3,0,0,0,0,0,0"/>
      <path class="uuid-7f2f02ff-8f09-4cf6-b113-512a5e9bddd2" d="M7.89,7.81c0-1.08-.01-2.17-.02-3.25,0-.26.05-.32.25-.26.35.1.7.19,1.05.31.18.06.24.11.24.41.01,1.03.01,2.06.02,3.09,0,1.16.01,2.31.02,3.47,0,.1-.01.14-.1.11-.45-.13-.9-.26-1.34-.38-.11-.03-.1-.11-.1-.2,0-1.1-.01-2.21-.02-3.31,0,0,0,0,0,0"/>
      <path class="uuid-7f2f02ff-8f09-4cf6-b113-512a5e9bddd2" d="M6.7,13.29c-.15-.07-.29-.06-.41-.2-.15-.16-.24-.43-.2-.65.04-.22.2-.34.39-.28.11.03.21.06.32.09.06.01.09.05.09.13,0,.1-.04.07-.09.06-.12-.03-.25-.1-.38-.08-.13.01-.21.12-.2.28,0,.15.11.3.23.37.12.06.24.08.37.12.08.03.13.05.08.16-.04.09-.07.19-.1.28-.02.07-.01.12.07.13.05,0,.11.02.17.04.97.28,1.94.56,2.91.85.11.03.18.02.22-.1.04-.12.09-.23.14-.34.02-.06,0-.09-.05-.13-.21-.13-.43-.27-.64-.41-.06-.04-.12-.1-.11-.19.02-.08.08-.05.14-.04.37.11.74.21,1.11.33.23.07.36.38.26.6-.06.12-.15.1-.25.05-.09-.05-.18-.18-.27-.15-.09.03-.09.18-.15.27-.04.06-.05.15-.1.22-.03.04-.02.11.01.18.25.58.5,1.16.74,1.74.04.1.07.1.14.08.3-.09.61-.11.94.02.4.16.76.45,1.07.9.23.34.4.71.47,1.11.09.47.1.93-.03,1.34-.24.8-.74,1.14-1.44,1.04-.69-.1-1.22-.64-1.61-1.47-.17-.37-.28-.76-.28-1.16,0-.09-.03-.11-.09-.13-.2-.06-.4-.12-.6-.18-.08-.02-.37-.13-.38-.02-.01.13,0,.08-.07.16-.04.05.08.35.14.46.05.12.1.25.22.28.04.01.07.02.11.03.05.02.07.07.07.13,0,.07-.02.09-.07.08-.18-.05-.37-.1-.55-.15-.06-.02-.07-.07-.07-.14,0-.06,0-.1.06-.08.04.02.11.04.1-.03,0-.07-.14-.39-.19-.42-.02-.01.07,0,.05,0-.38.04-.62-.13-.67-.67-.01-.18-.04-.24.03-.37.03-.07-.03-.33-.07-.44-.06-.15-.14-.52-.32-.51-.08-.06-.08-.03-.04-.19.03-.1-.07-.23-.12-.34-.32-.68-.65-1.35-.98-2.02-.02-.05-.03-.11-.09-.11-.05,0-.03.06-.04.09-.14.4-.28.8-.43,1.2-.04.1,0,.15.06.21.22.22.41.48.56.79.21.42.31.85.32,1.3.02.55-.09,1-.35,1.34-.27.35-.61.5-1.04.5-.51,0-.95-.32-1.35-.82-.36-.45-.58-.98-.66-1.58-.1-.74.07-1.31.43-1.72.25-.29.59-.42.98-.38.25.03.5.1.75.28.08.06.12.04.16-.08.13-.41.29-.79.43-1.19.05-.14.1-.28.15-.44M5.53,18.81c.06,0,.16.06.25.06.39.02.7-.14.92-.49.16-.25.25-.56.26-.92,0-.31-.05-.62-.15-.93-.12-.37-.3-.69-.55-.95-.08-.08-.14-.12-.18.01-.1.33-.22.64-.34.96-.04.1-.03.16.03.26.1.18.08.36-.02.49-.08.11-.26.1-.4-.01-.11-.09-.2-.31-.19-.48.01-.17.12-.29.26-.28.07,0,.14,0,.15-.1.01-.08.05-.13.07-.2.09-.25.18-.49.27-.74.04-.12.02-.18-.1-.25-.35-.21-.68-.27-1-.14-.52.22-.94.88-.76,1.83.16.82.74,1.72,1.45,1.87M11.08,18.59c-.16-.05-.31-.09-.46-.14-.07-.02-.09,0-.09.09,0,.25.06.48.15.73.23.68.85,1.42,1.48,1.48.39.03.72-.05.96-.38.39-.52.43-1.34.11-2.11-.38-.93-1.26-1.54-1.94-1.26-.06.02-.07.06-.03.15.12.32.28.63.4.96.08.23.19.33.36.36.15.02.26.21.29.46.02.15-.07.32-.18.35-.19.05-.39-.1-.47-.38-.03-.12-.07-.15-.15-.17-.15-.04-.29-.08-.44-.13M7.02,13.94s0,.04.01.06c.36.75.73,1.5,1.09,2.26.03.07.07.08.11.09.1.03.21.06.31.12.04.03.08.06.08.12,0,.05-.03.05-.07.05-.02,0-.04.01-.05.01-.07,0-.09.08-.04.16.03.05.08.07.12.08.1.03.21.03.3.09.11.08.15.02.19-.07.21-.47.42-.94.63-1.42.1-.23.21-.44.28-.69-1-.29-1.98-.58-2.98-.87M9.88,18.02h0c.11.03.21.06.32.09.06.02.09,0,.09-.08,0-.04,0-.08.01-.12.08-.45.27-.79.55-1.03.06-.05.08-.11.03-.22-.13-.31-.26-.62-.4-.92-.1-.22-.19-.45-.29-.67-.03-.07-.07-.12-.09-.05-.1.28-.23.53-.34.79-.16.36-.3.74-.47,1.08-.04.08-.09.17-.1.28,0,.08.1.16.14.24.02.04.04.08.05.12.05.38.25.46.48.49,0,0,.02,0,.02,0M11.07,18.36h0c.16.05.32.09.48.14.09.03.11-.04.07-.13-.16-.39-.33-.77-.49-1.15-.03-.08-.07-.11-.12-.05-.24.22-.39.53-.47.91-.02.1,0,.13.08.15.15.04.3.09.45.13"/>
      <path class="uuid-8215ac8a-3ff7-4e21-8c50-4fb25c1b403f" d="M5.53,18.8c-.7-.15-1.29-1.05-1.45-1.87-.18-.95.24-1.61.76-1.83.32-.13.65-.07,1,.14.12.07.14.14.09.25-.09.24-.18.49-.27.74-.02.07-.06.12-.07.2-.01.1-.08.1-.15.1-.14-.01-.25.11-.26.28-.01.17.07.39.19.48.14.11.32.12.4.01.1-.13.11-.32.02-.49-.05-.1-.06-.17-.03-.26.12-.31.23-.63.34-.96.04-.14.1-.1.18-.01.25.26.43.59.55.95.1.31.16.62.14.93-.01.37-.1.67-.26.92-.22.35-.53.5-.92.48-.1,0-.2-.05-.25-.06"/>
      <path class="uuid-8215ac8a-3ff7-4e21-8c50-4fb25c1b403f" d="M11.08,18.59c.15.04.29.09.44.13.08.02.12.05.15.17.08.28.27.43.47.38.11-.03.2-.2.18-.35-.03-.25-.14-.43-.29-.46-.18-.03-.28-.13-.36-.36-.12-.32-.27-.63-.4-.96-.03-.09-.03-.12.04-.15.68-.28,1.56.33,1.94,1.26.32.77.27,1.59-.11,2.11-.25.33-.58.42-.96.38-.63-.06-1.25-.8-1.48-1.48-.08-.24-.15-.48-.15-.73,0-.08.02-.11.09-.09.16.05.31.09.46.14"/>
      <path class="uuid-8215ac8a-3ff7-4e21-8c50-4fb25c1b403f" d="M7.02,13.94c.99.29,1.98.58,2.98.87-.07.26-.18.47-.28.69-.21.47-.42.94-.63,1.42-.04.09-.17.43-.28.35-.09-.06-.13-.04-.23-.07-.05-.01-.08-.16-.13-.33-.04-.15-.13-.29-.05-.3.02,0,.15.06.17.06.03,0,.07,0,.07-.05,0-.06-.04-.09-.09-.12-.1-.06-.21-.09-.31-.12-.04-.01-.08-.03-.11-.09-.36-.75-.73-1.5-1.09-2.26,0-.01,0-.03-.01-.06"/>
      <path class="uuid-8215ac8a-3ff7-4e21-8c50-4fb25c1b403f" d="M9.88,18.02s-.02,0-.02,0c-.23-.03-.72-.17-.77-.45,0-.04.02,0,0-.04-.04-.09.1-.27.1-.36,0-.1.06-.19.1-.28.18-.34.32-.72.47-1.08.11-.26.24-.51.34-.79.03-.07.06-.02.09.05.09.22.19.45.29.67.13.31.26.62.4.92.05.11.03.17-.03.22-.28.24-.47.58-.55,1.03,0,.04-.01.08-.01.12,0,.08-.03.1-.09.08-.11-.03-.21-.06-.32-.09h0Z"/>
      <path class="uuid-8215ac8a-3ff7-4e21-8c50-4fb25c1b403f" d="M11.07,18.36c-.15-.04-.3-.09-.45-.13-.08-.02-.1-.06-.08-.15.08-.38.23-.69.47-.91.06-.05.09-.03.12.05.17.38.33.76.49,1.15.04.09.02.16-.07.13-.16-.05-.32-.09-.48-.14h0Z"/>
      <line class="uuid-d2b5c7f8-c187-4fe4-a5bc-f3b107c1011c" x1="7.88" y1="16.35" x2="8.58" y2="16.56"/>
      <line class="uuid-d2b5c7f8-c187-4fe4-a5bc-f3b107c1011c" x1="8.92" y1="18.96" x2="9.62" y2="19.16"/>
      <path class="uuid-7f2f02ff-8f09-4cf6-b113-512a5e9bddd2" d="M9.36,18c0-.41-.26-.82-.59-.91-.32-.09-.58.16-.58.57s.26.82.59.92c.32.09.58-.16.58-.58"/>
      <path class="uuid-7f2f02ff-8f09-4cf6-b113-512a5e9bddd2" d="M5.87,17.05c0-.26-.17-.52-.37-.58-.2-.06-.37.1-.37.37,0,.26.17.52.37.58.21.06.37-.1.37-.37"/>
      <path class="uuid-7f2f02ff-8f09-4cf6-b113-512a5e9bddd2" d="M12.31,18.93c0-.26-.17-.52-.37-.58-.2-.06-.37.1-.37.37,0,.26.17.52.37.58.21.06.37-.1.37-.37"/>
      <line class="uuid-5d9a0311-bcbb-475f-b7bf-0d28f4a539d8" x1="10.51" y1="13.96" x2="9.03" y2="17.35"/>
    </g>
  </g>
</svg>