<?xml version="1.0" encoding="UTF-8"?>
<svg id="uuid-8053db1e-bda9-4a03-ba8a-e231bc9c2b96" data-name="Calque_2" xmlns="http://www.w3.org/2000/svg" viewBox="0 0 56.98 32.47">
  <defs>
    <style>
      .uuid-8d6fee5d-3be2-4e9a-a02f-22ef4a4d5738 {
        fill: #bcb9b9;
      }

      .uuid-07e9c584-a675-4aae-afab-d83675f0601d {
        fill: #f3f2f3;
      }
    </style>
  </defs>
  <g id="uuid-5d58e446-b9d1-431a-9a60-1f49e56e9055" data-name="Éléments_Route">
    <g id="uuid-cb004ea0-fbad-4bd5-871f-975ab63b52b1" data-name="Route_x5F_Aveugle_x5F_HD">
      <polygon class="uuid-8d6fee5d-3be2-4e9a-a02f-22ef4a4d5738" points="0 5.29 9.9 0 56.98 26.43 45.48 32.47 0 5.29"/>
      <path class="uuid-07e9c584-a675-4aae-afab-d83675f0601d" d="M29.78,12.96c.15.01.28.05.37.1.3.17.15.48-.31.69-.31.14-.7.21-1,.18-.15-.01-.28-.05-.37-.1-.29-.17-.16-.48.31-.69.31-.14.69-.21,1-.18"/>
      <path class="uuid-07e9c584-a675-4aae-afab-d83675f0601d" d="M32.02,14.24c.15.01.28.05.37.1.29.17.15.48-.31.69-.31.14-.7.21-1,.18-.15-.01-.28-.05-.37-.1-.3-.17-.16-.48.3-.69.31-.14.7-.21,1-.18"/>
      <path class="uuid-07e9c584-a675-4aae-afab-d83675f0601d" d="M34.27,15.53c.15.01.28.05.37.1.29.17.16.48-.31.69-.31.14-.69.21-1,.18-.15-.01-.28-.05-.37-.1-.29-.17-.16-.48.31-.69.31-.14.7-.21,1-.18"/>
      <path class="uuid-07e9c584-a675-4aae-afab-d83675f0601d" d="M36.52,16.82c.14.01.27.05.37.1.29.17.16.48-.31.69-.31.15-.7.21-1,.18-.15-.01-.27-.05-.37-.1-.29-.17-.16-.48.3-.69.32-.14.7-.21,1.01-.18"/>
      <path class="uuid-07e9c584-a675-4aae-afab-d83675f0601d" d="M38.76,18.11c.15.01.28.05.37.1.3.17.16.48-.31.69-.31.14-.7.21-1,.18-.15-.01-.28-.05-.37-.1-.29-.17-.16-.48.31-.69.31-.14.69-.21,1-.18"/>
      <path class="uuid-07e9c584-a675-4aae-afab-d83675f0601d" d="M41.01,19.4c.15.01.28.05.37.1.29.17.16.48-.31.69-.31.14-.69.21-1,.18-.15-.01-.28-.05-.37-.1-.29-.17-.16-.48.31-.69.31-.14.69-.21,1-.18"/>
      <path class="uuid-07e9c584-a675-4aae-afab-d83675f0601d" d="M43.25,20.68c.15.01.28.05.37.1.29.17.16.48-.31.69-.31.14-.7.21-1,.18-.15-.01-.28-.05-.37-.1-.29-.17-.16-.48.31-.69.31-.14.69-.21,1-.18"/>
      <path class="uuid-07e9c584-a675-4aae-afab-d83675f0601d" d="M45.5,21.97c.15.01.28.05.37.1.29.17.16.48-.31.69-.31.15-.7.21-1,.18-.15-.01-.28-.05-.37-.1-.3-.17-.16-.48.31-.69.31-.14.69-.21,1-.18"/>
      <path class="uuid-07e9c584-a675-4aae-afab-d83675f0601d" d="M47.74,23.26c.15.01.28.05.37.1.29.17.16.48-.31.69-.31.14-.7.21-1,.18-.15-.01-.28-.05-.37-.1-.3-.17-.16-.48.31-.69.31-.14.69-.21,1-.18"/>
      <path class="uuid-07e9c584-a675-4aae-afab-d83675f0601d" d="M49.99,24.55c.15.01.28.05.37.1.29.17.16.48-.31.69-.31.14-.7.21-1,.18-.15-.01-.28-.05-.37-.1-.29-.17-.16-.48.31-.69.31-.14.69-.21,1-.18"/>
      <path class="uuid-07e9c584-a675-4aae-afab-d83675f0601d" d="M28.46,14.79c.14.01.27.05.37.1.29.17.16.48-.31.69-.31.14-.7.21-1,.18-.15-.01-.28-.05-.37-.1-.29-.17-.16-.48.31-.69.31-.14.7-.21,1.01-.18"/>
      <path class="uuid-07e9c584-a675-4aae-afab-d83675f0601d" d="M30.7,16.08c.15.01.28.05.37.1.29.17.16.48-.31.69-.31.14-.7.21-1,.18-.15-.01-.28-.05-.37-.1-.29-.17-.16-.48.31-.69.31-.14.69-.21,1-.18"/>
      <path class="uuid-07e9c584-a675-4aae-afab-d83675f0601d" d="M32.95,17.37c.15.01.28.05.37.1.29.17.16.48-.31.69-.31.14-.69.21-1,.18-.15-.01-.28-.05-.37-.1-.29-.17-.16-.48.31-.69.31-.14.69-.21,1-.18"/>
      <path class="uuid-07e9c584-a675-4aae-afab-d83675f0601d" d="M35.19,18.66c.15.01.28.05.37.1.29.17.16.48-.3.69-.31.14-.7.21-1,.18-.15-.01-.28-.05-.37-.1-.29-.17-.16-.48.31-.69.31-.14.69-.21,1-.18"/>
      <path class="uuid-07e9c584-a675-4aae-afab-d83675f0601d" d="M37.43,19.95c.15.01.28.05.37.1.3.17.16.48-.3.69-.31.14-.7.21-1,.18-.15-.01-.28-.05-.37-.1-.29-.17-.16-.48.31-.69.31-.14.69-.21,1-.18"/>
      <path class="uuid-07e9c584-a675-4aae-afab-d83675f0601d" d="M39.68,21.23c.15.01.28.05.37.1.29.17.16.48-.31.69-.31.14-.7.21-1,.18-.15-.01-.28-.05-.37-.1-.29-.17-.16-.48.31-.69.31-.14.7-.21,1-.18"/>
      <path class="uuid-07e9c584-a675-4aae-afab-d83675f0601d" d="M41.93,22.52c.15.01.28.05.37.1.29.17.16.48-.31.69-.32.14-.7.21-1.01.18-.15-.01-.27-.05-.37-.1-.29-.17-.15-.48.31-.69.31-.14.7-.21,1-.18"/>
      <path class="uuid-07e9c584-a675-4aae-afab-d83675f0601d" d="M44.17,23.81c.15.01.28.05.37.1.29.17.16.48-.3.69-.31.14-.7.21-1,.18-.15-.01-.28-.05-.37-.1-.29-.17-.15-.48.31-.69.31-.14.69-.21,1-.18"/>
      <path class="uuid-07e9c584-a675-4aae-afab-d83675f0601d" d="M46.42,25.1c.15.01.28.05.37.1.29.17.16.48-.31.69-.31.14-.7.21-1,.18-.15-.01-.27-.05-.37-.1-.29-.17-.16-.48.31-.69.31-.14.7-.21,1-.18"/>
      <path class="uuid-07e9c584-a675-4aae-afab-d83675f0601d" d="M48.67,26.39c.14.01.27.05.37.1.29.17.16.48-.31.69-.31.14-.7.21-1,.18-.15-.01-.28-.05-.37-.1-.3-.17-.16-.48.3-.69.32-.14.7-.21,1.01-.18"/>
      <path class="uuid-07e9c584-a675-4aae-afab-d83675f0601d" d="M26.94,16.58c.15.01.28.05.37.1.29.17.16.48-.31.69-.31.14-.7.21-1,.18-.15-.01-.28-.05-.37-.1-.29-.17-.16-.48.31-.69.31-.14.69-.21,1-.18"/>
      <path class="uuid-07e9c584-a675-4aae-afab-d83675f0601d" d="M29.19,17.86c.15.01.28.05.37.1.29.17.16.48-.31.69-.31.14-.7.21-1,.18-.15-.01-.28-.05-.37-.1-.29-.17-.16-.48.31-.69.31-.14.69-.21,1-.18"/>
      <path class="uuid-07e9c584-a675-4aae-afab-d83675f0601d" d="M31.43,19.15c.15.01.28.05.37.1.29.17.16.48-.31.69-.32.14-.7.21-1.01.18-.14-.01-.27-.05-.37-.1-.3-.17-.16-.48.31-.69.31-.14.69-.21,1-.18"/>
      <path class="uuid-07e9c584-a675-4aae-afab-d83675f0601d" d="M33.68,20.44c.15.01.28.05.37.1.29.17.16.48-.31.69-.31.14-.7.21-1,.18-.15-.01-.28-.05-.37-.1-.29-.17-.16-.48.31-.69.31-.14.69-.21,1-.18"/>
      <path class="uuid-07e9c584-a675-4aae-afab-d83675f0601d" d="M35.92,21.73c.15.01.28.05.37.1.29.17.16.48-.31.69-.31.14-.7.21-1,.18-.15-.01-.28-.05-.37-.1-.29-.17-.16-.48.31-.69.32-.15.7-.21,1-.18"/>
      <path class="uuid-07e9c584-a675-4aae-afab-d83675f0601d" d="M38.17,23.02c.14.01.27.05.37.1.29.17.16.48-.31.69-.31.14-.7.21-1,.18-.15-.01-.28-.05-.37-.1-.3-.17-.16-.48.31-.69.31-.14.7-.21,1.01-.18"/>
      <path class="uuid-07e9c584-a675-4aae-afab-d83675f0601d" d="M40.41,24.3c.15.01.28.05.37.1.29.17.16.48-.3.69-.31.14-.7.21-1,.18-.15-.01-.28-.05-.37-.1-.29-.17-.16-.48.31-.69.31-.14.69-.21,1-.18"/>
      <path class="uuid-07e9c584-a675-4aae-afab-d83675f0601d" d="M42.66,25.59c.15.01.28.05.37.1.29.17.16.48-.31.69-.32.14-.7.21-1.01.18-.14-.01-.27-.05-.37-.1-.29-.17-.16-.48.31-.69.31-.14.69-.21,1-.18"/>
      <path class="uuid-07e9c584-a675-4aae-afab-d83675f0601d" d="M44.91,26.88c.14.01.27.05.36.1.3.17.16.48-.3.69-.31.14-.7.21-1,.18-.15-.01-.28-.05-.37-.1-.29-.17-.15-.48.31-.69.32-.14.7-.21,1.01-.18"/>
      <path class="uuid-07e9c584-a675-4aae-afab-d83675f0601d" d="M47.15,28.17c.15.01.28.05.37.1.29.17.16.48-.31.69-.31.14-.7.21-1,.18-.15-.01-.28-.05-.37-.1-.29-.17-.15-.48.31-.69.31-.14.69-.21,1-.18"/>
      <path class="uuid-07e9c584-a675-4aae-afab-d83675f0601d" d="M11.44,2.54c.15.01.28.05.37.1.29.17.16.48-.31.69-.31.14-.69.21-1,.18-.15-.01-.28-.05-.37-.1-.29-.17-.16-.48.31-.69.31-.14.7-.21,1-.18"/>
      <path class="uuid-07e9c584-a675-4aae-afab-d83675f0601d" d="M13.69,3.82c.14.01.27.05.37.1.29.17.16.48-.31.69-.31.15-.7.21-1,.18-.15-.01-.27-.05-.37-.1-.29-.17-.16-.48.3-.69.32-.14.7-.21,1.01-.18"/>
      <path class="uuid-07e9c584-a675-4aae-afab-d83675f0601d" d="M15.93,5.11c.15.01.28.05.37.1.3.17.16.48-.31.69-.31.14-.7.21-1,.18-.15-.01-.28-.05-.37-.1-.29-.17-.16-.48.31-.69.31-.14.69-.21,1-.18"/>
      <path class="uuid-07e9c584-a675-4aae-afab-d83675f0601d" d="M18.17,6.4c.15.01.28.05.37.1.29.17.16.48-.31.69-.31.14-.69.21-1,.18-.15-.01-.28-.05-.37-.1-.29-.17-.16-.48.31-.69.31-.14.69-.21,1-.18"/>
      <path class="uuid-07e9c584-a675-4aae-afab-d83675f0601d" d="M20.42,7.69c.15.01.28.05.37.1.29.17.16.48-.31.69-.31.14-.7.21-1,.18-.15-.01-.28-.05-.37-.1-.29-.17-.16-.48.31-.69.31-.14.69-.21,1-.18"/>
      <path class="uuid-07e9c584-a675-4aae-afab-d83675f0601d" d="M22.66,8.98c.15.01.28.05.37.1.29.17.16.48-.31.69-.31.14-.7.21-1,.18-.15-.01-.28-.05-.37-.1-.29-.17-.16-.48.31-.69.31-.14.69-.21,1-.18"/>
      <path class="uuid-07e9c584-a675-4aae-afab-d83675f0601d" d="M24.91,10.26c.15.01.28.05.37.1.29.17.16.48-.31.69-.31.14-.7.21-1,.18-.15-.01-.28-.05-.37-.1-.3-.17-.16-.48.31-.69.31-.14.69-.21,1-.18"/>
      <path class="uuid-07e9c584-a675-4aae-afab-d83675f0601d" d="M27.15,11.55c.15.01.28.05.37.1.29.17.16.48-.31.69-.31.14-.7.21-1,.18-.15-.01-.28-.05-.37-.1-.29-.17-.16-.48.31-.69.31-.14.69-.21,1-.18"/>
      <path class="uuid-07e9c584-a675-4aae-afab-d83675f0601d" d="M7.87,3.09c.15.01.28.05.37.1.29.17.16.48-.31.69-.31.14-.7.21-1,.18-.15-.01-.28-.05-.37-.1-.29-.17-.16-.48.31-.69.31-.14.69-.21,1-.18"/>
      <path class="uuid-07e9c584-a675-4aae-afab-d83675f0601d" d="M10.11,4.37c.15.01.28.05.37.1.29.17.16.48-.31.69-.31.14-.69.21-1,.18-.15-.01-.28-.05-.37-.1-.29-.17-.16-.48.31-.69.31-.14.69-.21,1-.18"/>
      <path class="uuid-07e9c584-a675-4aae-afab-d83675f0601d" d="M12.36,5.66c.15.01.28.05.37.1.29.17.16.48-.3.69-.31.14-.7.21-1,.18-.15-.01-.28-.05-.37-.1-.29-.17-.16-.48.31-.69.31-.14.69-.21,1-.18"/>
      <path class="uuid-07e9c584-a675-4aae-afab-d83675f0601d" d="M14.6,6.95c.15.01.28.05.37.1.3.17.16.48-.3.69-.31.14-.7.21-1,.18-.15-.01-.28-.05-.37-.1-.29-.17-.16-.48.31-.69.31-.14.69-.21,1-.18"/>
      <path class="uuid-07e9c584-a675-4aae-afab-d83675f0601d" d="M16.85,8.24c.15.01.28.05.37.1.29.17.16.48-.31.69-.32.14-.7.21-1,.18-.15-.01-.28-.05-.37-.1-.29-.17-.16-.48.31-.69.31-.14.69-.21,1-.18"/>
      <path class="uuid-07e9c584-a675-4aae-afab-d83675f0601d" d="M19.09,9.53c.15.01.28.05.37.1.29.17.16.48-.31.69-.32.14-.7.21-1.01.18-.15-.01-.27-.05-.37-.1-.29-.17-.15-.48.31-.69.31-.14.7-.21,1-.18"/>
      <path class="uuid-07e9c584-a675-4aae-afab-d83675f0601d" d="M21.34,10.81c.15.01.28.05.37.1.29.17.16.48-.3.69-.31.14-.7.21-1,.18-.15-.01-.28-.05-.37-.1-.29-.17-.15-.48.31-.69.31-.14.69-.21,1-.18"/>
      <path class="uuid-07e9c584-a675-4aae-afab-d83675f0601d" d="M23.59,12.1c.15.01.28.05.37.1.29.17.16.48-.31.69-.31.14-.7.21-1,.18-.15-.01-.27-.05-.37-.1-.29-.17-.16-.48.31-.69.31-.14.7-.21,1-.18"/>
      <path class="uuid-07e9c584-a675-4aae-afab-d83675f0601d" d="M25.83,13.39c.14.01.27.05.37.1.29.17.16.48-.31.69-.31.14-.7.21-1,.18-.15-.01-.28-.05-.37-.1-.3-.17-.16-.48.3-.69.32-.14.7-.21,1.01-.18"/>
      <path class="uuid-07e9c584-a675-4aae-afab-d83675f0601d" d="M6.35,4.87c.15.01.28.05.37.1.29.17.16.48-.31.69-.31.14-.7.21-1,.18-.15-.01-.28-.05-.37-.1-.29-.17-.16-.48.31-.69.31-.14.69-.21,1-.18"/>
      <path class="uuid-07e9c584-a675-4aae-afab-d83675f0601d" d="M8.6,6.16c.15.01.28.05.37.1.29.17.16.48-.31.69-.32.14-.7.21-1.01.18-.14-.01-.27-.05-.37-.1-.3-.17-.16-.48.31-.69.31-.14.69-.21,1-.18"/>
      <path class="uuid-07e9c584-a675-4aae-afab-d83675f0601d" d="M10.85,7.44c.15.01.28.05.37.1.29.17.16.48-.31.69-.31.14-.7.21-1,.18-.15-.01-.28-.05-.37-.1-.29-.17-.16-.48.31-.69.31-.14.69-.21,1-.18"/>
      <path class="uuid-07e9c584-a675-4aae-afab-d83675f0601d" d="M13.09,8.73c.15.01.28.05.37.1.29.17.16.48-.31.69-.31.14-.7.21-1,.18-.15-.01-.28-.05-.37-.1-.29-.17-.16-.48.31-.69.32-.15.7-.21,1-.18"/>
      <path class="uuid-07e9c584-a675-4aae-afab-d83675f0601d" d="M15.34,10.02c.14.01.27.05.37.1.29.17.16.48-.31.69-.31.14-.7.21-1,.18-.15-.01-.28-.05-.37-.1-.3-.17-.16-.48.31-.69.31-.14.7-.21,1.01-.18"/>
      <path class="uuid-07e9c584-a675-4aae-afab-d83675f0601d" d="M17.58,11.31c.15.01.28.05.37.1.29.17.16.48-.3.69-.31.14-.7.21-1,.18-.15-.01-.28-.05-.37-.1-.29-.17-.16-.48.31-.69.31-.14.69-.21,1-.18"/>
      <path class="uuid-07e9c584-a675-4aae-afab-d83675f0601d" d="M19.83,12.59c.15.01.28.05.37.1.29.17.16.48-.31.69-.32.14-.7.21-1.01.18-.14-.01-.27-.05-.37-.1-.29-.17-.16-.48.31-.69.31-.14.69-.21,1-.18"/>
      <path class="uuid-07e9c584-a675-4aae-afab-d83675f0601d" d="M22.08,13.88c.14.01.27.05.36.1.3.17.16.48-.3.69-.31.14-.7.21-1,.18-.15-.01-.28-.05-.37-.1-.29-.17-.15-.48.31-.69.32-.14.7-.21,1.01-.18"/>
      <path class="uuid-07e9c584-a675-4aae-afab-d83675f0601d" d="M24.32,15.17c.15.01.28.05.37.1.29.17.16.48-.31.69-.31.14-.7.21-1,.18-.15-.01-.28-.05-.37-.1-.29-.17-.15-.48.31-.69.31-.14.69-.21,1-.18"/>
    </g>
  </g>
</svg>