<?xml version="1.0" encoding="UTF-8"?>
<svg id="uuid-c3e9ec0e-ce66-4644-a550-61ec38852f5c" data-name="Calque_2" xmlns="http://www.w3.org/2000/svg" viewBox="0 0 32.9 24.94">
  <defs>
    <style>
      .uuid-cfb742dc-47c8-44f6-bd63-3dc8d9f0911a {
        fill: #325ca5;
      }

      .uuid-5d92b3fb-3713-4b89-8982-0fb03907ac59 {
        fill: #fff;
      }
    </style>
  </defs>
  <g id="uuid-87ad9944-0110-42b0-acfd-d140608290c8" data-name="Éléments_Route">
    <g id="uuid-c8ee847c-ac81-414f-a94d-99f2fe680e8d" data-name="Route_x5F_PeintureVoiture">
      <path class="uuid-5d92b3fb-3713-4b89-8982-0fb03907ac59" d="M12.39,4.38c-.91.37-1.52.61-1.55.63-.29.21-.38.55-.34.95l-.04-.03c-.52-.41-1.36-.47-2.06-.19-.14-.62-.07-1.17.35-1.48.05-.02.97-.39,2.28-.93l1.35,1.06Z"/>
      <path class="uuid-cfb742dc-47c8-44f6-bd63-3dc8d9f0911a" d="M10.5,5.96c.37.31.48.74.36,1.15-.19-.39-.33-.79-.36-1.15"/>
      <path class="uuid-5d92b3fb-3713-4b89-8982-0fb03907ac59" d="M27.81,8.9c1.04.81.9,2.19-.3,3.08-1.2.89-3.02.95-4.06.14-1.04-.81-.9-2.19.3-3.08,1.2-.89,3.02-.95,4.06-.14"/>
      <path class="uuid-5d92b3fb-3713-4b89-8982-0fb03907ac59" d="M23.3,16.84c-.37.06-.73.2-1.04.42-.18.13-.32.28-.43.44-.4-.19-.73-.39-.94-.56l-10.52-8.22c-.22-.17-.46-.42-.71-.73.21-.07.42-.18.6-.31.3-.22.5-.5.58-.78.36.75.91,1.47,1.34,1.8l8.78,6.86c.42.33,1.35.77,2.33,1.07"/>
      <path class="uuid-cfb742dc-47c8-44f6-bd63-3dc8d9f0911a" d="M24.8,17.14c-.47-.04-.99-.15-1.5-.3.55-.08,1.1.02,1.5.3"/>
      <path class="uuid-5d92b3fb-3713-4b89-8982-0fb03907ac59" d="M26.94,15.76c-.51.68-.86,1.13-.87,1.16-.29.21-.74.27-1.26.23-.4-.29-.96-.39-1.5-.3-.98-.3-1.91-.74-2.33-1.07l-8.78-6.86c-.42-.33-.98-1.05-1.34-1.8.12-.41,0-.84-.36-1.15-.04-.4.05-.74.34-.95.03-.01.64-.26,1.55-.63l14.55,11.38Z"/>
      <path class="uuid-5d92b3fb-3713-4b89-8982-0fb03907ac59" d="M32.3,8.73c1.06.83.54,2.04-.3,3.16-.54.72-2.42,3.21-3.71,4.92l-1.35-1.06c1.07-1.42,2.81-3.73,3.29-4.37.71-.94,1.14-1.95.26-2.64L21.71,1.88c-.89-.69-2.14-.44-3.48.12-.91.38-3.96,1.61-5.84,2.38l-1.35-1.06c2.27-.92,5.55-2.25,6.58-2.68,1.6-.66,3.11-.97,4.17-.14l10.52,8.22Z"/>
      <path class="uuid-5d92b3fb-3713-4b89-8982-0fb03907ac59" d="M28.29,16.81c-.74.98-1.26,1.67-1.29,1.71-.42.31-1.15.35-1.96.22.38-.53.33-1.16-.2-1.57l-.04-.03c.52.04.97-.02,1.26-.23.02-.02.36-.48.87-1.16l1.35,1.06Z"/>
      <path class="uuid-5d92b3fb-3713-4b89-8982-0fb03907ac59" d="M23.74,22.44c-.72.53-1.81.57-2.43.08l-.43-.34c.73-.54.81-1.37.19-1.85l-.48-.38c-.62-.49-1.72-.45-2.43.08L6.49,10.94c.73-.54.81-1.37.19-1.86l-.48-.38c-.62-.48-1.72-.45-2.43.08l-.17-.12c-.62-.48-.54-1.32.18-1.85l4.73-3.5c.72-.53,1.81-.57,2.43-.08l.1.08c-1.31.53-2.23.91-2.28.93-.42.31-.49.86-.35,1.48-.19.07-.36.17-.52.28-.77.56-.85,1.44-.19,1.96.51.4,1.29.46,1.98.22.24.3.49.56.71.73l10.52,8.22c.21.17.54.36.94.56-.34.52-.27,1.12.24,1.52.66.52,1.82.48,2.58-.09.16-.12.29-.25.39-.39.81.13,1.54.09,1.96-.22.03-.04.55-.73,1.29-1.71l.37.29c.62.48.54,1.31-.18,1.85l-4.73,3.49"/>
      <path class="uuid-5d92b3fb-3713-4b89-8982-0fb03907ac59" d="M6.68,9.08c.62.49.54,1.32-.18,1.85h-.01s-2.74-2.13-2.74-2.13h.01c.72-.54,1.81-.58,2.43-.09l.48.38Z"/>
      <path class="uuid-5d92b3fb-3713-4b89-8982-0fb03907ac59" d="M6.49,10.94l-3.16,2.33c-.72.53-1.81.57-2.43.08l-.48-.38c-.62-.49-.54-1.32.18-1.85l3.16-2.33,2.74,2.14Z"/>
      <path class="uuid-5d92b3fb-3713-4b89-8982-0fb03907ac59" d="M20.87,22.18l-3.16,2.33c-.72.53-1.81.57-2.43.08l-.48-.38c-.62-.49-.54-1.32.18-1.85l3.16-2.33,2.74,2.14Z"/>
      <path class="uuid-5d92b3fb-3713-4b89-8982-0fb03907ac59" d="M21.07,20.33c.62.48.54,1.32-.18,1.85h-.01s-2.74-2.13-2.74-2.13h.01c.72-.54,1.81-.58,2.43-.09l.48.38Z"/>
    </g>
  </g>
</svg>