<?xml version="1.0" encoding="UTF-8"?>
<svg id="uuid-395ffc57-4cc6-43f0-8706-3d87152c2e90" data-name="Calque_2" xmlns="http://www.w3.org/2000/svg" viewBox="0 0 51.62 35.2">
  <defs>
    <style>
      .uuid-7145f4ec-801c-4483-912c-f8beeb91fd60 {
        fill: #fff;
      }
    </style>
  </defs>
  <g id="uuid-085aa9ce-958d-431c-a17c-461d5c5515d3" data-name="Éléments_Route">
    <path id="uuid-e1ec8fde-5dd1-4415-8958-c45e65a6b79d" data-name="Route_x5F_PeinturePieton" class="uuid-7145f4ec-801c-4483-912c-f8beeb91fd60" d="M50.45.95c1.73,1.35,1.51,3.65-.5,5.13-1.61,1.18-3.87,1.49-5.59.86-.35.21-.89.56-1.36.87.31.66-.34,3.43-1.28,4.88-.44.68-1.52,2.88-1.58,2.99l1.56,6.01s.03.09.04.14c.09.47-.14.99-.66,1.37-.82.6-2.05.64-2.75.09-.23-.18-.37-.39-.43-.62l-2.35-6.8,2.18-3.79-6.83,4.06-1.61,2.69-7.49,14.68c-.22.41-.48.7-.83.96-1.22.9-3.07.97-4.12.14-.68-.53-.86-1.3-.59-2.01.07-.18.16-.34.27-.49,1.43-2.6,8.08-14.71,8.24-14.93.09-.13.04-.31-.11-.42-.13-.1-.32-.16-.55-.1-.44.11-16.87,4.45-20.43,5.39-.22.08-.44.14-.67.18-.86.14-1.74-.02-2.34-.49-.98-.77-.86-2.08.28-2.92.27-.2.58-.36.9-.47.14-.05.28-.09.42-.12l24.17-6.68,6.87-3.89-4.59.18-9.11,3.69c-.77.33-1.7.28-2.28-.17-.7-.55-.61-1.48.2-2.08.25-.18.75-.41,1.05-.49.43-.19,8.53-3.78,8.8-3.9.17-.07.7-.14.92-.18.21-.04,10.09-.33,10.64-.32.37,0,.68.18.91.31.34.19.8.51.82.52l1.38-.84c-.13-1.1.43-2.3,1.64-3.2,2.01-1.48,5.03-1.58,6.76-.23"/>
  </g>
</svg>