<?xml version="1.0" encoding="UTF-8"?>
<svg id="uuid-b8ed76db-5c34-491f-a959-11c798a675d0" data-name="Calque_2" xmlns="http://www.w3.org/2000/svg" viewBox="0 0 105.45 60.05">
  <defs>
    <style>
      .uuid-2cc7a9b4-28ec-45cc-867b-21c7c88d4baa {
        fill: #fdfdff;
      }

      .uuid-adfba527-0859-4943-93d2-5cae54bef233 {
        font-family: AauxProBlack, AauxProBlack;
        font-size: 11.94px;
      }

      .uuid-adfba527-0859-4943-93d2-5cae54bef233, .uuid-ad23fa0d-23a8-4350-b409-eab85b782374 {
        fill: #fff;
      }
    </style>
  </defs>
  <g id="uuid-dca7506d-1238-45a1-a488-eca3e3a5994e" data-name="Éléments_Route">
    <g id="uuid-c2d81147-44c6-4176-b0b6-7af751cb4939" data-name="Route_x5F_ParkingMoto">
      <polyline class="uuid-2cc7a9b4-28ec-45cc-867b-21c7c88d4baa" points="49.18 1.15 8.8 24.74 6.77 23.61 47.17 0"/>
      <polyline class="uuid-2cc7a9b4-28ec-45cc-867b-21c7c88d4baa" points="86.31 22.41 46.07 45.93 44.04 44.8 84.31 21.26"/>
      <polygon class="uuid-2cc7a9b4-28ec-45cc-867b-21c7c88d4baa" points="49.4 47.85 40.72 42.88 38.7 44.03 47.39 49 49.4 47.85"/>
      <polyline class="uuid-2cc7a9b4-28ec-45cc-867b-21c7c88d4baa" points="105.45 33.46 65.21 56.98 63.18 55.85 103.45 32.32"/>
      <polygon class="uuid-2cc7a9b4-28ec-45cc-867b-21c7c88d4baa" points="68.54 58.9 59.85 53.93 57.84 55.08 66.52 60.05 68.54 58.9"/>
      <polyline class="uuid-2cc7a9b4-28ec-45cc-867b-21c7c88d4baa" points="67.38 11.72 27.14 35.24 25.11 34.11 65.38 10.57"/>
      <polygon class="uuid-2cc7a9b4-28ec-45cc-867b-21c7c88d4baa" points="30.47 37.16 21.79 32.19 19.77 33.34 28.45 38.31 30.47 37.16"/>
      <polygon class="uuid-2cc7a9b4-28ec-45cc-867b-21c7c88d4baa" points="12.51 26.51 3.83 21.54 1.81 22.69 10.5 27.66 12.51 26.51"/>
      <polygon class="uuid-ad23fa0d-23a8-4350-b409-eab85b782374" points="14.99 38.28 12.9 39.11 10.24 37.66 10.95 39.89 9.66 40.41 5.08 39.72 7.73 41.18 5.64 42.02 0 38.92 1.97 38.13 8.42 39.12 7.4 35.95 9.34 35.18 14.99 38.28"/>
      <text class="uuid-adfba527-0859-4943-93d2-5cae54bef233" transform="translate(6.53 42.89) rotate(28.79) scale(.77 1.01) skewX(-47.06)"><tspan x="0" y="0"> </tspan></text>
      <path class="uuid-ad23fa0d-23a8-4350-b409-eab85b782374" d="M19.26,41.96c1.15.02,2.15.26,2.98.71.83.46,1.17.95,1.03,1.49-.16.62-.95,1.22-2.38,1.79-1.43.57-2.81.85-4.15.82-1.15-.02-2.15-.26-2.98-.71-.83-.46-1.17-.95-1.03-1.49.16-.62.95-1.22,2.38-1.79,1.43-.57,2.81-.85,4.15-.82h0ZM19.75,45.33c1.43-.57,1.56-1.18.4-1.82-1.16-.64-2.46-.67-3.89-.1-1.43.57-1.56,1.18-.4,1.82,1.16.64,2.46.67,3.89.1h0Z"/>
      <text class="uuid-adfba527-0859-4943-93d2-5cae54bef233" transform="translate(17.04 48.66) rotate(28.79) scale(.77 1.01) skewX(-47.06)"><tspan x="0" y="0"> </tspan></text>
      <polygon class="uuid-ad23fa0d-23a8-4350-b409-eab85b782374" points="30.71 47.67 27.87 48.81 32.37 51.28 30.3 52.12 25.8 49.64 22.95 50.78 21.81 50.15 29.57 47.05 30.71 47.67"/>
      <text class="uuid-adfba527-0859-4943-93d2-5cae54bef233" transform="translate(27.55 54.44) rotate(28.79) scale(.77 1.01) skewX(-47.06)"><tspan x="0" y="0"> </tspan></text>
      <path class="uuid-ad23fa0d-23a8-4350-b409-eab85b782374" d="M40.28,53.52c1.15.02,2.15.26,2.98.71.83.46,1.17.95,1.03,1.49-.16.62-.95,1.22-2.38,1.79-1.43.57-2.81.85-4.15.82-1.15-.02-2.15-.26-2.98-.71-.83-.46-1.17-.95-1.03-1.49.16-.62.95-1.22,2.38-1.79,1.43-.57,2.81-.85,4.15-.82h0ZM40.77,56.89c1.43-.57,1.56-1.18.4-1.82-1.16-.64-2.46-.67-3.89-.1-1.43.57-1.56,1.18-.4,1.82,1.16.64,2.46.67,3.89.1h0Z"/>
    </g>
  </g>
</svg>