<?xml version="1.0" encoding="UTF-8"?>
<svg id="uuid-bf2f0533-357f-4c6f-9ec4-5d0756ef2091" data-name="Calque_2" xmlns="http://www.w3.org/2000/svg" viewBox="0 0 12.47 34.88">
  <defs>
    <style>
      .uuid-b0432aea-620c-41b3-8e15-c00ea9f36f98 {
        fill: #b0b0b2;
      }

      .uuid-486d40a5-2a93-47df-84b7-6af920c42b65 {
        fill: #fff;
      }

      .uuid-c8fc73b0-e3a0-417c-9874-c344691f654b {
        fill: #55bbb5;
      }

      .uuid-360865af-ad69-44ab-a255-3305ac640287 {
        fill: #007d71;
      }

      .uuid-b767b6d1-ec70-4e95-b17f-b7e000dc2d83 {
        fill: #9b9a9b;
      }

      .uuid-923bb5f4-cbf6-48a5-a3f4-44dadeaf1381 {
        fill: #1f1c1a;
      }

      .uuid-5cc132a6-738b-49f3-918f-6423f0c90c54 {
        fill: #2b5983;
      }

      .uuid-5c665ad1-35a2-457c-9e09-bf2eaff3d535 {
        fill: #ededef;
      }

      .uuid-0e8afba9-ce38-4f3a-929c-80cd26f838f2 {
        fill: #59555a;
      }

      .uuid-055eb5f8-cbc3-4968-ad0e-4c3c95f20529 {
        fill: #383435;
      }

      .uuid-18e3dbb3-8e8e-498f-af20-11e4a798c9d7 {
        fill: #c6c5c6;
      }
    </style>
  </defs>
  <g id="uuid-9bcd13ad-02b7-4b8c-9d09-a738d89f9860" data-name="Éléments_Route">
    <g id="uuid-d1d4d1e9-e627-442f-af60-8c065d9c585d" data-name="Route_x5F_BorneElec">
      <polygon class="uuid-18e3dbb3-8e8e-498f-af20-11e4a798c9d7" points="0 30.07 7.31 25.85 12.47 28.83 5.15 33.05 0 30.07"/>
      <polygon class="uuid-b0432aea-620c-41b3-8e15-c00ea9f36f98" points="5.15 34.88 12.47 30.65 12.47 28.83 5.15 33.05 5.15 34.88"/>
      <polygon class="uuid-b767b6d1-ec70-4e95-b17f-b7e000dc2d83" points="5.15 34.88 5.15 33.05 0 30.07 0 31.9 5.15 34.88"/>
      <polygon class="uuid-b0432aea-620c-41b3-8e15-c00ea9f36f98" points="5.15 32.48 11.48 28.83 11.48 2.41 5.15 6.06 5.15 32.48"/>
      <polygon class="uuid-18e3dbb3-8e8e-498f-af20-11e4a798c9d7" points="5.15 6.06 11.48 2.41 7.31 0 .99 3.65 5.15 6.06"/>
      <polygon class="uuid-b767b6d1-ec70-4e95-b17f-b7e000dc2d83" points="5.15 32.48 5.15 6.06 .99 3.65 .99 30.07 5.15 32.48"/>
      <polygon class="uuid-055eb5f8-cbc3-4968-ad0e-4c3c95f20529" points="6.13 26.19 12.45 22.54 12.45 2.97 6.13 6.62 6.13 26.19"/>
      <polygon class="uuid-923bb5f4-cbf6-48a5-a3f4-44dadeaf1381" points="10.44 14.17 11.74 14.36 11.74 4.37 10.9 4.85 10.44 7.09 10.44 14.17"/>
      <polygon class="uuid-18e3dbb3-8e8e-498f-af20-11e4a798c9d7" points="6.84 22.96 11.74 20.13 11.74 14.36 11.37 14.17 10.88 13.35 10.9 12.88 10.9 4.85 6.84 7.2 6.84 16.19 6.84 17.19 6.84 22.96"/>
      <path class="uuid-b767b6d1-ec70-4e95-b17f-b7e000dc2d83" d="M6.84,7.54c.08-.07.16-.13.24-.18l2.3-1.33c.58-.33,1.05-.06,1.05.6v4.87c0,.66-.47,1.48-1.05,1.81l-2.3,1.33c-.08.05-.17.08-.24.11v-7.22Z"/>
      <polygon class="uuid-055eb5f8-cbc3-4968-ad0e-4c3c95f20529" points="6.84 13.55 6.84 13.65 10.15 11.74 10.15 6.75 10.06 6.8 10.06 11.69 6.84 13.55"/>
      <polygon class="uuid-c8fc73b0-e3a0-417c-9874-c344691f654b" points="6.84 8.66 6.84 13.55 10.06 11.69 10.06 6.8 6.84 8.66"/>
      <path class="uuid-360865af-ad69-44ab-a255-3305ac640287" d="M8.07,8.44l1.54-.89c.14-.08.25-.02.25.15s-.11.36-.25.44l-1.54.89c-.14.08-.25.01-.25-.15s.11-.36.25-.44"/>
      <path class="uuid-360865af-ad69-44ab-a255-3305ac640287" d="M8.07,9.33l1.54-.89c.14-.08.25-.02.25.15s-.11.36-.25.44l-1.54.89c-.14.08-.25.01-.25-.15s.11-.36.25-.44"/>
      <path class="uuid-360865af-ad69-44ab-a255-3305ac640287" d="M8.07,10.23l1.54-.89c.14-.08.25-.02.25.15s-.11.36-.25.44l-1.54.89c-.14.08-.25.02-.25-.15s.11-.36.25-.44"/>
      <path class="uuid-360865af-ad69-44ab-a255-3305ac640287" d="M8.07,12.03l1.54-.89c.14-.08.25-.02.25.15s-.11.36-.25.44l-1.54.89c-.14.08-.25.01-.25-.15s.11-.36.25-.44"/>
      <polygon class="uuid-5c665ad1-35a2-457c-9e09-bf2eaff3d535" points="6.84 17.19 11.74 14.36 10.9 12.88 6.84 15.22 6.84 17.19"/>
      <polygon class="uuid-0e8afba9-ce38-4f3a-929c-80cd26f838f2" points="6.13 6.62 12.45 2.97 11.48 2.41 5.15 6.06 6.13 6.62"/>
      <polygon class="uuid-923bb5f4-cbf6-48a5-a3f4-44dadeaf1381" points="6.13 26.19 6.13 6.62 5.15 6.06 5.16 25.63 6.13 26.19"/>
      <polygon class="uuid-5cc132a6-738b-49f3-918f-6423f0c90c54" points="4.65 7.07 4.65 11.47 1.42 9.6 1.42 5.21 4.65 7.07"/>
      <path class="uuid-486d40a5-2a93-47df-84b7-6af920c42b65" d="M2.02,5.98l1.05.61c.67.39,1.21.98,1.21,1.83s-.55.88-1.19.51l-.38-.22v1.19l-.69-.4v-3.52ZM3.04,8.27c.38.22.56.13.56-.24s-.21-.62-.58-.84l-.32-.18v1.06l.34.19Z"/>
      <polygon class="uuid-923bb5f4-cbf6-48a5-a3f4-44dadeaf1381" points="8.4 20.12 8.55 20.21 10.34 16.15 10.19 16.07 8.4 17.1 8.4 20.12"/>
      <polygon class="uuid-055eb5f8-cbc3-4968-ad0e-4c3c95f20529" points="8.55 20.21 10.34 19.18 10.34 16.15 8.55 17.19 8.55 20.21"/>
      <polygon class="uuid-c8fc73b0-e3a0-417c-9874-c344691f654b" points="8.65 17.93 10.23 17.02 10.23 16.86 8.65 17.77 8.65 17.93"/>
      <polygon class="uuid-923bb5f4-cbf6-48a5-a3f4-44dadeaf1381" points="8.65 19.48 8.65 19.59 10.24 18.67 10.24 17.18 10.14 17.24 10.14 18.62 8.65 19.48"/>
      <polygon class="uuid-0e8afba9-ce38-4f3a-929c-80cd26f838f2" points="8.65 18.1 8.65 19.48 10.14 18.62 10.14 17.24 8.65 18.1"/>
      <polygon class="uuid-5c665ad1-35a2-457c-9e09-bf2eaff3d535" points="9.53 17.74 10.05 17.44 10.05 17.95 9.53 18.25 9.53 17.74"/>
      <polygon class="uuid-923bb5f4-cbf6-48a5-a3f4-44dadeaf1381" points="8.65 19.17 10.05 18.36 10.05 18.14 8.65 18.94 8.65 19.17"/>
    </g>
  </g>
</svg>