<?xml version="1.0" encoding="UTF-8"?>
<svg id="uuid-7482cbd4-ef3a-4796-ac59-391c7119b986" data-name="Calque_2" xmlns="http://www.w3.org/2000/svg" viewBox="0 0 28.5 24.31">
  <defs>
    <style>
      .uuid-3294254a-f2bb-4190-afaf-0eedc8a47b2e {
        fill: #fff;
      }
    </style>
  </defs>
  <g id="uuid-bcbbdbe3-9ded-4ba3-ab64-6b828eacc55d" data-name="Éléments_Route">
    <g id="uuid-7f3dac84-902f-414b-b7dd-4b38006910cc" data-name="Route_x5F_PeintureVelo">
      <path class="uuid-3294254a-f2bb-4190-afaf-0eedc8a47b2e" d="M11.28,5.47c2.32,1.81,2.02,4.89-.67,6.87-2.68,1.98-6.74,2.12-9.05.31-2.32-1.81-2.02-4.88.67-6.86,2.68-1.98,6.74-2.12,9.05-.31"/>
      <path class="uuid-3294254a-f2bb-4190-afaf-0eedc8a47b2e" d="M24.57,15.87c2.32,1.81,2.02,4.89-.67,6.87-2.68,1.98-6.74,2.12-9.05.31-2.32-1.81-2.02-4.88.67-6.86,2.68-1.98,6.74-2.12,9.05-.31"/>
      <path class="uuid-3294254a-f2bb-4190-afaf-0eedc8a47b2e" d="M27.91.48c.86.68.75,1.83-.25,2.57-.3.22-.65.38-1.01.48-.02.24-.11.43-.02.5.09.07.38.3.31.5-.07.21-2.6,7.51-2.75,7.71-.14.19-.85.94-1.49,1.1-.64.17-6.63.73-6.94.76l-3.72,2.74c-.55.41-1.39.44-1.86.06-.48-.37-.42-1,.14-1.41l4.14-3.24,2.86-.71-1.83-1.43-.18.65c-.02.29-.11.61-.43.84-.53.39-1.32.42-1.78.06-.19-.15-.36-.34-.3-.55l.68-2.61c.02-.26.17-.52.44-.72.53-.39,1.33-.42,1.8-.07l4.08,2.44s.1.04.15.03c.08-.01.2-.06.25-.21.04-.11,1.36-3.82,1.41-3.96.04-.1.02-.18-.04-.22-.05-.04-.12-.06-.22-.07-.18-.01-5.2.05-6.86.07-.35.08-.73.03-.98-.17-.38-.29-.33-.79.11-1.12.18-.13.4-.22.62-.24.11-.01.21-.02.31,0,1.64-.04,9.39-.23,9.61-.23.25,0,.48-.5.55-.54.01,0,.06-.01.13-.03-.2-.08-.39-.18-.55-.31-.87-.68-.75-1.82.25-2.56,1-.74,2.52-.79,3.38-.12"/>
    </g>
  </g>
</svg>