<?xml version="1.0" encoding="UTF-8"?>
<svg id="uuid-55b4bbb3-85ec-4629-b468-6620d89833bb" data-name="Calque_2" xmlns="http://www.w3.org/2000/svg" viewBox="0 0 75.85 45.87">
  <defs>
    <style>
      .uuid-8a641592-1be7-4ae4-a3df-2a78bd483129 {
        fill: #fff;
      }
    </style>
  </defs>
  <g id="uuid-461e6add-4e4b-46d0-bbcb-f23c2fad41d7" data-name="Éléments_Route">
    <g id="uuid-7ad44a4d-9cd8-4f00-9bbe-d7063de67070" data-name="Route_x5F_ParkingPayant">
      <polyline class="uuid-8a641592-1be7-4ae4-a3df-2a78bd483129" points="48.9 14.62 51.4 16.63 59.55 11.76 57.05 9.75 48.9 14.62"/>
      <polygon class="uuid-8a641592-1be7-4ae4-a3df-2a78bd483129" points="32.6 24.37 35.1 26.38 43.25 21.51 40.75 19.49 32.6 24.37"/>
      <polygon class="uuid-8a641592-1be7-4ae4-a3df-2a78bd483129" points="16.3 34.11 18.8 36.13 26.95 31.25 24.45 29.24 16.3 34.11"/>
      <polygon class="uuid-8a641592-1be7-4ae4-a3df-2a78bd483129" points="0 43.86 2.5 45.87 10.65 41 8.15 38.99 0 43.86"/>
      <polyline class="uuid-8a641592-1be7-4ae4-a3df-2a78bd483129" points="73.35 0 65.2 4.87 67.7 6.89 75.85 2.01"/>
      <path class="uuid-8a641592-1be7-4ae4-a3df-2a78bd483129" d="M33.36,30.36l.8-.47,2.39,2.09-.8.47-.81-.71-2.99,1.76-.76-.67,2.99-1.76-.81-.71ZM42.06,28.74l-3.8,2.23-.67-.58,1.11-2.06-2.07,1.22-.76-.67,3.8-2.23.69.6-1.1,2.02,2.04-1.2.76.67ZM43.94,26.61l-.99-.87-1.14.28-.82-.72,4.96-1.21.83.73-2.64,3.24-.81-.71.6-.74ZM43.95,25.46l.59.52.94-1-1.53.49ZM47.68,23.11l1.71-1,.86-2.3.91.8-.68,1.42,2.09-.19.91.79-3.34.16-1.69.99-.77-.67ZM54.94,20.13l-.99-.87-1.14.28-.82-.72,4.96-1.21.83.73-2.64,3.24-.81-.71.6-.74ZM54.95,18.98l.59.52.94-1-1.53.49ZM58.01,16.04l3.8-2.23,1.3,1.14c.74.65.45,1.32-.19,1.69-.64.38-1.6.44-2.34-.2l-.54-.47-1.27.74-.76-.67ZM61.77,14.95l-.93.55.5.44c.25.22.59.16.81.02s.37-.35.12-.57l-.5-.44Z"/>
    </g>
  </g>
</svg>