<?xml version="1.0" encoding="UTF-8"?>
<svg id="uuid-02d06fdc-693f-48c6-9da9-5ed31fffab63" data-name="Calque_2" xmlns="http://www.w3.org/2000/svg" viewBox="0 0 49.5 20.56">
  <defs>
    <style>
      .uuid-7ab3191a-1f93-45ec-b776-a3d07889d106 {
        fill: #2b2423;
      }
    </style>
  </defs>
  <g id="uuid-db215811-b8db-4656-9fd3-2eda233ab29f" data-name="Éléments_Mise_en_page">
    <g id="uuid-aa05863f-0c78-43cb-8ae2-ea994ff207ef" data-name="Icon_x5F_Voiture">
      <path class="uuid-7ab3191a-1f93-45ec-b776-a3d07889d106" d="M9.02,16.41c0-1.6,1.3-2.9,2.9-2.9s2.9,1.3,2.9,2.9-1.3,2.91-2.9,2.91-2.9-1.3-2.9-2.91M16.08,16.41c0-2.29-1.86-4.16-4.16-4.16s-4.15,1.86-4.15,4.16,1.86,4.16,4.15,4.16,4.16-1.86,4.16-4.16"/>
      <path class="uuid-7ab3191a-1f93-45ec-b776-a3d07889d106" d="M13.43,16.41c0-.83-.67-1.5-1.51-1.5s-1.51.67-1.51,1.5.67,1.51,1.51,1.51,1.51-.67,1.51-1.51"/>
      <path class="uuid-7ab3191a-1f93-45ec-b776-a3d07889d106" d="M36.05,16.41c0-1.6,1.3-2.9,2.9-2.9s2.9,1.3,2.9,2.9-1.3,2.91-2.9,2.91-2.9-1.3-2.9-2.91M43.11,16.41c0-2.29-1.86-4.16-4.16-4.16s-4.15,1.86-4.15,4.16,1.86,4.16,4.15,4.16,4.16-1.86,4.16-4.16"/>
      <path class="uuid-7ab3191a-1f93-45ec-b776-a3d07889d106" d="M40.46,16.41c0-.83-.67-1.5-1.51-1.5s-1.51.67-1.51,1.5.67,1.51,1.51,1.51,1.51-.67,1.51-1.51"/>
      <rect class="uuid-7ab3191a-1f93-45ec-b776-a3d07889d106" x="15.89" y="7.11" width="2.55" height=".8"/>
      <rect class="uuid-7ab3191a-1f93-45ec-b776-a3d07889d106" x="25.54" y="7.11" width="2.55" height=".8"/>
      <path class="uuid-7ab3191a-1f93-45ec-b776-a3d07889d106" d="M46.86,14.25h-2.11c-.89-2.39-3.21-4.02-5.79-4.02-3.4,0-6.16,2.75-6.18,6.14h-14.66c-.02-3.39-2.79-6.14-6.18-6.14-2.57,0-4.88,1.62-5.78,3.99h-3.7l-1.13-4.23h46.67l-1.13,4.26ZM2.91,7.08h5.77c.14,0,.28-.05.39-.14l7.17-5.69h12.87l4.8,5.02c.1.11.24.18.39.19l11.97,1.13,1.27,1.15H1.96l.95-1.66ZM46.95,6.52c-.1-.09-.23-.15-.36-.16l-11.95-1.13L29.82.19c-.12-.12-.28-.19-.45-.19h-13.35c-.14,0-.28.05-.39.14l-7.17,5.69H2.54c-.23,0-.43.12-.54.32L.08,9.5c-.08.14-.1.31-.06.47l1.34,5.03c.07.27.32.46.61.46h4.63c.28,0,.52-.18.6-.45.61-2.09,2.56-3.54,4.73-3.54,2.72,0,4.93,2.21,4.93,4.93,0,.17,0,.35-.03.52-.02.18.04.35.16.48.12.13.29.21.47.21h15.97c.35,0,.62-.28.62-.62,0-.04,0-.08,0-.11-.02-.16-.02-.32-.02-.48,0-2.72,2.21-4.93,4.93-4.93,2.19,0,4.13,1.47,4.74,3.57.08.27.32.45.6.45h3.05c.28,0,.53-.19.61-.46l1.53-5.77c.06-.23-.01-.47-.18-.62l-2.34-2.12Z"/>
      <polygon class="uuid-7ab3191a-1f93-45ec-b776-a3d07889d106" points="23.14 2.21 23.14 6.08 31.78 6.08 28.5 2.21 23.14 2.21"/>
      <polygon class="uuid-7ab3191a-1f93-45ec-b776-a3d07889d106" points="12.4 6.08 22.01 6.08 22.01 2.21 16.73 2.21 12.4 6.08"/>
    </g>
  </g>
</svg>