<?xml version="1.0" encoding="UTF-8"?>
<svg id="uuid-98a10922-02c3-4e07-b1ac-11cacf27ddee" data-name="Calque_2" xmlns="http://www.w3.org/2000/svg" viewBox="0 0 37.24 23.35">
  <defs>
    <style>
      .uuid-651b28ae-13b5-46c4-a3a7-c6a916b56086 {
        fill: #1d1d1b;
      }
    </style>
  </defs>
  <g id="uuid-8dcad21e-f51e-4ab0-b850-8cb98285990f" data-name="Éléments_Mise_en_page">
    <path id="uuid-d4880807-8e25-400c-b85e-aee7c50ca3c3" data-name="IconeVelo" class="uuid-651b28ae-13b5-46c4-a3a7-c6a916b56086" d="M19.31,14.8l-4.88-8.53h9.83l-4.95,8.53ZM14.22,15.5c-.04-.37-.11-.74-.2-1.11-.43-1.62-1.4-3.01-2.75-3.97l1.94-3.39,4.85,8.47h-3.84ZM8.36,15.5l2.19-3.83c1.02.76,1.75,1.83,2.08,3.08.07.25.11.5.14.74h-4.41ZM36.75,13.63c-1.34-3.44-5.08-5.25-8.57-4.27l-2.84-7.22h4.77c.57,0,1.03.46,1.03,1.03s-.46,1.03-1.03,1.03c-.4,0-.72.32-.72.72s.32.72.72.72c1.36,0,2.46-1.1,2.46-2.46s-1.1-2.46-2.46-2.46h-5.83c-.24,0-.46.12-.59.31-.13.2-.16.45-.07.66l1.24,3.15h-11.22l-2.01-3.4h2.86V0h-6.4v1.43h1.87l2.44,4.13-5.89,10.3c-.13.22-.13.49,0,.71.13.22.36.36.62.36h5.65c-.09.74-.34,1.47-.72,2.14-.76,1.32-1.99,2.26-3.46,2.65-1.47.39-3,.18-4.32-.58-1.32-.76-2.26-1.99-2.65-3.46-.39-1.47-.18-3,.58-4.32,1.02-1.75,2.9-2.83,4.93-2.83h.03v-1.43s-.03,0-.03,0c-2.54,0-4.9,1.36-6.17,3.55C.01,14.29-.25,16.21.24,18.05c.49,1.84,1.66,3.38,3.31,4.33,1.12.65,2.35.96,3.56.96,2.46,0,4.85-1.27,6.17-3.55.52-.89.83-1.86.93-2.86h5.07v-.72h0s0,.72,0,.72c.26,0,.49-.14.62-.36l5.69-9.8,3.82,9.71,1.33-.53-2.07-5.25c2.74-.7,5.65.74,6.7,3.45.55,1.42.52,2.96-.09,4.36-.61,1.39-1.73,2.46-3.15,3.02-1.42.55-2.96.52-4.36-.09-1.39-.61-2.46-1.73-3.01-3.15-.74-1.89-.4-4.06.88-5.64l-1.11-.9c-1.6,1.99-2.02,4.69-1.1,7.07.69,1.77,2.03,3.17,3.77,3.94.92.4,1.89.6,2.86.6.87,0,1.75-.16,2.59-.49,1.77-.69,3.17-2.03,3.94-3.77.77-1.74.81-3.68.12-5.45"/>
  </g>
</svg>