<?xml version="1.0" encoding="UTF-8"?>
<svg id="uuid-ecd792b2-ad29-4658-bf36-485146309e3c" data-name="Calque_2" xmlns="http://www.w3.org/2000/svg" viewBox="0 0 32.53 18.45">
  <defs>
    <style>
      .uuid-2b9df5aa-2bb9-4bc0-88a4-efded0a9599e {
        fill: #2b2423;
      }
    </style>
  </defs>
  <g id="uuid-c36fb1de-b6da-41df-be33-c445e9a95689" data-name="Éléments_Mise_en_page">
    <g id="uuid-0a913038-9be4-4c89-a039-f50cdb78189e" data-name="Icon_x5F_Moto">
      <path class="uuid-2b9df5aa-2bb9-4bc0-88a4-efded0a9599e" d="M4.87,9.65c2.13,0,3.86,1.73,3.86,3.86s-1.73,3.86-3.86,3.86-3.86-1.73-3.86-3.86,1.73-3.86,3.86-3.86M4.87,18.38c2.68,0,4.87-2.18,4.87-4.87s-2.18-4.87-4.87-4.87S0,10.82,0,13.51s2.18,4.87,4.87,4.87"/>
      <path class="uuid-2b9df5aa-2bb9-4bc0-88a4-efded0a9599e" d="M4.87,14.78c.7,0,1.28-.57,1.28-1.28s-.57-1.28-1.28-1.28-1.28.57-1.28,1.28.57,1.28,1.28,1.28"/>
      <path class="uuid-2b9df5aa-2bb9-4bc0-88a4-efded0a9599e" d="M25.73,10.24l.93,2.55c-.17.22-.28.49-.28.79,0,.71.57,1.28,1.28,1.28s1.28-.57,1.28-1.28-.57-1.28-1.28-1.28c-.03,0-.07,0-.1,0l-.9-2.46c.32-.09.65-.13,1-.13,2.13,0,3.86,1.73,3.86,3.86s-1.73,3.86-3.86,3.86-3.86-1.73-3.86-3.86c0-1.43.78-2.67,1.93-3.34M22.09,8.49l-12.62-.07c-.19-.17-.4-.35-.61-.53-1.63-1.36-3.22-2.4-3.29-2.44l-.08-.05-3.64-.75v-.84c1.92.15,8.2.66,9,.66.56,0,1.73.61,2.33.99l.29.18.28-.2c2.09-1.5,4.44-1.93,6.99-1.3,1.37.34,2.44.92,2.95,1.23-.49,1.24-1.04,2.27-1.58,3.12M18.8,12.06h-6.55c-.18-.76-.75-1.62-1.71-2.62l10.87.06c-1.21,1.61-2.28,2.36-2.61,2.56M22.79,13.58c0,2.68,2.18,4.87,4.87,4.87s4.87-2.18,4.87-4.87-2.18-4.87-4.87-4.87c-.47,0-.92.07-1.34.19l-1.5-4.1c.83-.34,1.4-1.15,1.4-2.06,0-1.23-1.02-2.23-2.27-2.23-.36,0-.7.08-1.02.24-.67-.53-1.89-1.01-4.04-.58l.2.99c2.95-.58,3.58.76,3.64.89l.3.77.48,1.31c-.62-.32-1.47-.69-2.49-.95-2.71-.69-5.32-.25-7.58,1.26-.56-.33-1.76-.97-2.58-.97-.71,0-6.5-.46-9.46-.7l-.55-.04v2.75s4.27.88,4.27.88c2.42,1.58,6.17,4.61,6.2,6.22v.5h7.76l.11-.06c.13-.07,2.99-1.63,5.16-6.6l1.05,2.87c-1.54.82-2.59,2.44-2.59,4.3"/>
    </g>
  </g>
</svg>