<?xml version="1.0" encoding="UTF-8"?>
<svg id="uuid-094a4ce3-71f3-4365-aea8-08c3b8fc0ad6" data-name="Calque_2" xmlns="http://www.w3.org/2000/svg" viewBox="0 0 45.74 44.6">
  <defs>
    <style>
      .uuid-268581a6-cdd0-4b3b-a0f6-09441136ca65 {
        fill: #1b1a19;
      }

      .uuid-a227df8f-e2f1-4af1-9071-671127d38af6 {
        fill: #e11518;
      }

      .uuid-cf8e0885-57b7-4fb2-8bbb-48a720494e9d {
        fill: #fff;
      }

      .uuid-dc5c09b9-a7d8-4c92-993a-a45f972fd4a1 {
        stroke: #1b1a19;
        stroke-width: .55px;
      }

      .uuid-dc5c09b9-a7d8-4c92-993a-a45f972fd4a1, .uuid-9a51d598-7180-4055-b98e-312051ba938f {
        fill: none;
        stroke-miterlimit: 10;
      }

      .uuid-a7343a62-e3d0-43ec-a6b6-508f3d073491 {
        fill: #c6c6c7;
      }

      .uuid-a6e85bd8-29bd-4c6a-957f-99695c743b11 {
        fill: #335aa5;
      }

      .uuid-9a51d598-7180-4055-b98e-312051ba938f {
        stroke: #fff;
        stroke-width: .23px;
      }
    </style>
  </defs>
  <g id="uuid-edf25f40-8ec4-4da2-9d60-985c92e5cbd2" data-name="Éléments_Mise_en_page">
    <g id="uuid-b0093437-4758-4ed1-9719-6e463e22c50f" data-name="Icon_x5F_SortieZone20">
      <path class="uuid-cf8e0885-57b7-4fb2-8bbb-48a720494e9d" d="M45.47,42.49c0,1.01-.84,1.84-1.88,1.84H2.16c-1.04,0-1.88-.82-1.88-1.84V2.11C.27,1.09,1.12.27,2.16.27h41.43c1.04,0,1.88.82,1.88,1.84v40.38Z"/>
      <path class="uuid-dc5c09b9-a7d8-4c92-993a-a45f972fd4a1" d="M45.47,42.49c0,1.01-.84,1.84-1.88,1.84H2.16c-1.04,0-1.88-.82-1.88-1.84V2.11C.27,1.09,1.12.27,2.16.27h41.43c1.04,0,1.88.82,1.88,1.84v40.38Z"/>
      <path class="uuid-a6e85bd8-29bd-4c6a-957f-99695c743b11" d="M42.79,40.84q0,.87-1.16.87H4.11q-1.17,0-1.17-.87V3.76q0-.87,1.17-.87h37.52q1.16,0,1.16.87v37.08Z"/>
      <path class="uuid-a7343a62-e3d0-43ec-a6b6-508f3d073491" d="M33.98,25.07c4.38,0,7.95,3.57,7.95,7.95s-3.57,7.95-7.95,7.95-7.95-3.57-7.95-7.95,3.57-7.95,7.95-7.95"/>
      <path class="uuid-9a51d598-7180-4055-b98e-312051ba938f" d="M33.98,25.07c4.38,0,7.95,3.57,7.95,7.95s-3.57,7.95-7.95,7.95-7.95-3.57-7.95-7.95,3.57-7.95,7.95-7.95"/>
      <path class="uuid-cf8e0885-57b7-4fb2-8bbb-48a720494e9d" d="M33.98,27.25c3.18,0,5.77,2.59,5.77,5.77s-2.59,5.77-5.77,5.77-5.77-2.59-5.77-5.77,2.59-5.77,5.77-5.77"/>
      <path class="uuid-268581a6-cdd0-4b3b-a0f6-09441136ca65" d="M29.95,34.42c.16-.39.55-.8,1.16-1.23.53-.38.87-.65,1.02-.81.24-.26.36-.53.36-.84,0-.25-.07-.45-.21-.62-.14-.16-.33-.24-.58-.24-.35,0-.59.13-.71.39-.07.15-.11.39-.13.71h-1.11c.02-.5.11-.9.27-1.2.31-.58.85-.87,1.63-.87.62,0,1.11.17,1.47.51.36.34.55.79.55,1.36,0,.43-.13.81-.39,1.15-.17.22-.45.47-.83.74l-.46.32c-.29.2-.48.35-.59.44-.1.09-.2.2-.27.32h2.54v1.01h-3.99c.01-.42.1-.8.27-1.15"/>
      <path class="uuid-268581a6-cdd0-4b3b-a0f6-09441136ca65" d="M37.83,30.49c.3.52.45,1.26.45,2.23s-.15,1.7-.45,2.22c-.3.52-.82.78-1.56.78s-1.26-.26-1.56-.78c-.3-.52-.45-1.26-.45-2.22s.15-1.7.45-2.23.82-.78,1.56-.78,1.26.26,1.56.78M35.59,34.25c.11.36.33.53.67.53s.56-.18.67-.53c.11-.35.16-.87.16-1.54s-.05-1.22-.16-1.56c-.11-.34-.33-.51-.67-.51s-.56.17-.67.51c-.11.34-.17.86-.17,1.56s.05,1.18.17,1.54"/>
      <path class="uuid-cf8e0885-57b7-4fb2-8bbb-48a720494e9d" d="M22.73,9.62h-4.47c-.45,0-1.64-.37-1.64-.82,0,0,.68-2.08.82-2.54.15-.46.37-.82.82-.82h4.47c.45,0,.68.39.82.82.14.43.82,2.54.82,2.54,0,.45-1.19.82-1.64.82"/>
      <path class="uuid-a6e85bd8-29bd-4c6a-957f-99695c743b11" d="M22.36,9.27h-3.73c-.38,0-1.37-.31-1.37-.68,0,0,.56-1.73.68-2.12s.31-.68.69-.68h3.73c.38,0,.57.32.68.68.12.36.69,2.12.69,2.12,0,.38-.99.68-1.37.68"/>
      <path class="uuid-cf8e0885-57b7-4fb2-8bbb-48a720494e9d" d="M24.32,10.84h-7.53c-.26,0-.48-.21-.48-.48v-1.74c0-.26.22-.48.48-.48h7.53c.26,0,.48.21.48.48v1.74c0,.26-.21.48-.48.48"/>
      <path class="uuid-cf8e0885-57b7-4fb2-8bbb-48a720494e9d" d="M17.54,10.35h-.21c-.26,0-.48.22-.48.48v1.17c0,.26.22.48.48.48h.21c.26,0,.48-.22.48-.48v-1.17c0-.26-.21-.48-.48-.48"/>
      <path class="uuid-cf8e0885-57b7-4fb2-8bbb-48a720494e9d" d="M23.66,10.35h-.21c-.26,0-.48.22-.48.48v1.17c0,.26.22.48.48.48h.21c.26,0,.48-.22.48-.48v-1.17c0-.26-.21-.48-.48-.48"/>
      <path class="uuid-a6e85bd8-29bd-4c6a-957f-99695c743b11" d="M24.06,9.38c0,.28-.23.51-.51.51s-.51-.23-.51-.51.23-.51.51-.51.51.23.51.51"/>
      <path class="uuid-a6e85bd8-29bd-4c6a-957f-99695c743b11" d="M17.95,9.38c0,.28-.23.51-.51.51s-.51-.23-.51-.51.23-.51.51-.51.51.23.51.51"/>
      <path class="uuid-cf8e0885-57b7-4fb2-8bbb-48a720494e9d" d="M22.66,7.12c0,.44-.36.8-.8.8s-.8-.36-.8-.8.36-.8.8-.8.8.36.8.8"/>
      <path class="uuid-cf8e0885-57b7-4fb2-8bbb-48a720494e9d" d="M29.32,20.03c0,1.54-1.25,2.79-2.79,2.79s-2.79-1.25-2.79-2.79,1.25-2.79,2.79-2.79,2.79,1.25,2.79,2.79"/>
      <path class="uuid-cf8e0885-57b7-4fb2-8bbb-48a720494e9d" d="M38.16,20.03c0,1.54-1.25,2.79-2.79,2.79s-2.79-1.25-2.79-2.79,1.25-2.79,2.79-2.79,2.79,1.25,2.79,2.79"/>
      <path class="uuid-cf8e0885-57b7-4fb2-8bbb-48a720494e9d" d="M33.66,15.98c-.04-.12-2.42-3.62-2.48-3.72-.07-.1-.26-.1-.32-.1s-.12-.1-.21-.19c.07-.14.12-.3.12-.48,0-.58-.47-1.04-1.04-1.04s-1.04.47-1.04,1.04.47,1.04,1.04,1.04c.11,0,.21-.02.31-.05-.02.02-.03.04-.03.05,0,.04.14.29.06.37-.07.07-2.49,2.43-3,2.93-.04.03-.07.06-.1.09h0c-.06.08-.09.17-.09.27,0,.25.2.45.45.45.17,0,.31-.09.39-.23.53-.5,2.12-2.01,2.18-2.05.08-.06.15-.06.21.03.04.07,1.24,1.86,1.28,1.91.05.07.03.12.01.15-.01.02-.04.03-.06.04l-2.39.28h0c-.3,0-.55.25-.55.56,0,.16.07.3.17.4l.92,1.18c.08.1.21.12.34.12.3,0,.55-.25.55-.55,0-.18-.11-.33-.23-.45l-.23-.3h1.22l-.61,1.11.08,2.44c0,.32.26.57.57.57s.57-.26.57-.57v-2.13s1.77-2.08,1.91-2.34c.14-.25.04-.74,0-.86"/>
      <path class="uuid-cf8e0885-57b7-4fb2-8bbb-48a720494e9d" d="M20.77,26.62h0s-.05-.03-.07-.04l-3.13-1.81s-.64-1.21-.8-1.6c-.33-.82-1.33-2.07-1.72-2.22.02-.26.04-.55.06-.73.83-.27,1.43-1.06,1.43-1.98,0-1.15-.93-2.08-2.08-2.08s-2.08.93-2.08,2.08c0,.7.34,1.31.87,1.69l-.08.73s-.3.02-.49.05c-.13.02-.3.05-.43.15-.18.16-3.24,3.18-3.29,3.26s-.19.26-.22.34c-.04.12-1.14,4.07-1.14,4.07-.06.12-.13.35-.13.5,0,.47.38.85.85.85.38,0,.71-.26.81-.61l1.32-4.08,1.41-1.42-.52,3.5-4.88,9.66c-.03.05-.06.11-.08.16h0c-.05.14-.09.29-.09.45,0,.65.53,1.18,1.18,1.18.4,0,.75-.2.97-.5,0,0,0,0,0,0,.06-.08.1-.17.14-.26.74-1.4,4.15-7.89,4.24-8.07.1-.19.39-.14.44,0,.05.13,3.19,6.67,3.87,8.07.03.09.07.18.12.26,0,0,0,0,0,0h0c.23.35.62.59,1.07.59.7,0,1.27-.57,1.27-1.27,0-.2-.05-.39-.13-.56h0s-.02-.04-.02-.04c0,0,0,0,0,0l-4-7.75-.66-1.49.43-3.55.95,2.08,3.73,1.87c.12.07.26.11.41.11.47,0,.85-.38.85-.85,0-.3-.15-.56-.39-.71"/>
      <path class="uuid-a227df8f-e2f1-4af1-9071-671127d38af6" d="M42.79,6.42v-2.66q0-.87-1.16-.87h-3.4L2.95,38.17v2.67q0,.87,1.17.87h3.4L42.79,6.42Z"/>
    </g>
  </g>
</svg>