<?xml version="1.0" encoding="UTF-8"?>
<svg id="uuid-97737eff-a6cf-4f2a-8f15-4daed85984ab" data-name="Calque_2" xmlns="http://www.w3.org/2000/svg" viewBox="0 0 49.97 45.16">
  <defs>
    <style>
      .uuid-9ea90342-8470-4072-947a-ab9933062ed2 {
        fill: #fff;
      }

      .uuid-9a676b70-529e-4c61-894c-a234379bcd4c, .uuid-d34bd6a3-ca45-4a13-992a-2dfbad81e61e {
        fill: none;
      }

      .uuid-152487ef-bb59-41cc-85ac-77c2fcfe5d0a {
        fill: #ffe40b;
        fill-rule: evenodd;
      }

      .uuid-5cedfac1-8fa9-4d05-b111-69f129d5c387 {
        fill: #e20613;
      }

      .uuid-d34bd6a3-ca45-4a13-992a-2dfbad81e61e {
        stroke: #1d1d1b;
        stroke-miterlimit: 22.93;
        stroke-width: .1px;
      }
    </style>
  </defs>
  <g id="uuid-b5147585-f0f9-45d1-92d2-96d6a9f7179a" data-name="Éléments_Mise_en_page">
    <g id="uuid-3e0cb6ad-2a79-436f-be97-1f532be05588" data-name="Icon_x5F_VeloDirection">
      <path class="uuid-5cedfac1-8fa9-4d05-b111-69f129d5c387" d="M24.97,45.11c-2.5,0-4.83-1.34-6.08-3.51L.94,10.52c-.61-1.06-.94-2.28-.94-3.51C0,3.15,3.15,0,7.01,0h35.9c1.23,0,2.44.33,3.51.94,3.35,1.93,4.5,6.23,2.57,9.58l-17.95,31.09c-.61,1.07-1.5,1.95-2.57,2.57-1.07.61-2.28.94-3.5.94"/>
      <path class="uuid-9ea90342-8470-4072-947a-ab9933062ed2" d="M24.97,40.34c-.81,0-1.54-.42-1.94-1.12L5.08,8.13c-.2-.34-.3-.73-.3-1.12,0-1.23,1-2.23,2.23-2.23h35.9c.39,0,.78.1,1.12.3,1.07.62,1.43,1.99.82,3.05l-17.95,31.09c-.2.34-.48.62-.82.82-.35.2-.72.3-1.11.3"/>
      <path class="uuid-152487ef-bb59-41cc-85ac-77c2fcfe5d0a" d="M31.52,13.39c2.35,0,4.25,1.9,4.25,4.25s-1.9,4.25-4.25,4.25-4.25-1.9-4.25-4.25c0-1.62.91-3.03,2.24-3.75l-.8-2.06-6.18,4.79c.04.15.07.31.09.47.21-.43.64-.73,1.15-.73.71,0,1.28.57,1.28,1.28s-.57,1.28-1.28,1.28c-.51,0-.95-.3-1.15-.73-.27,2.09-2.05,3.7-4.22,3.7-2.35,0-4.25-1.9-4.25-4.25s1.9-4.25,4.25-4.25c1.54,0,2.88.82,3.63,2.04l.28-1.35-1.71-3.58-.19-.36h-1.09c-.39,0-.81-.15-.81-.62,0-.42.28-.64.81-.62h2.72c.07,0,.85-.03.85.62,0,.7-.67.61-.85.62h-.23l1.92,3.97,5.12-3.97.26.04c.57.08,2.14.13,2.14-.75s-1.77-.76-2.31-.68l-.62.1-.19-1.23.62-.1c1.42-.22,3.74,0,3.74,1.91,0,1.47-1.34,1.98-2.6,2.03l.78,2.01c.27-.05.55-.08.83-.08"/>
      <path class="uuid-d34bd6a3-ca45-4a13-992a-2dfbad81e61e" d="M31.52,13.39c2.35,0,4.25,1.9,4.25,4.25s-1.9,4.25-4.25,4.25-4.25-1.9-4.25-4.25c0-1.62.91-3.03,2.24-3.75l-.8-2.06-6.18,4.79c.04.15.07.31.09.47.21-.43.64-.73,1.15-.73.71,0,1.28.57,1.28,1.28s-.57,1.28-1.28,1.28c-.51,0-.95-.3-1.15-.73-.27,2.09-2.05,3.7-4.22,3.7-2.35,0-4.25-1.9-4.25-4.25s1.9-4.25,4.25-4.25c1.54,0,2.88.82,3.63,2.04l.28-1.35-1.71-3.58-.19-.36h-1.09c-.39,0-.81-.15-.81-.62,0-.42.28-.64.81-.62h2.72c.07,0,.85-.03.85.62,0,.7-.67.61-.85.62h-.23l1.92,3.97,5.12-3.97.26.04c.57.08,2.14.13,2.14-.75s-1.77-.76-2.31-.68l-.62.1-.19-1.23.62-.1c1.42-.22,3.74,0,3.74,1.91,0,1.47-1.34,1.98-2.6,2.03l.78,2.01c.27-.05.55-.08.83-.08Z"/>
      <path class="uuid-152487ef-bb59-41cc-85ac-77c2fcfe5d0a" d="M28.23,27.36l-.69-.73-1.88-1.98h0s-.11-.07-.18-.07c-.14,0-.26.12-.26.26,0,.03,0,.06.02.09l.47,2.18v.27h-5.27v2.45h5.27v.27l-.47,2.18s-.02.06-.02.09c0,.14.12.26.26.26.07,0,.13-.03.18-.07h0s1.88-1.98,1.88-1.98l.69-.73,1.26-1.24-1.26-1.25Z"/>
      <path class="uuid-d34bd6a3-ca45-4a13-992a-2dfbad81e61e" d="M28.23,27.36l-.69-.73-1.88-1.98h0s-.11-.07-.18-.07c-.14,0-.26.12-.26.26,0,.03,0,.06.02.09l.47,2.18v.27h-5.27v2.45h5.27v.27l-.47,2.18s-.02.06-.02.09c0,.14.12.26.26.26.07,0,.13-.03.18-.07h0s1.88-1.98,1.88-1.98l.69-.73,1.26-1.24-1.26-1.25Z"/>
      <polyline class="uuid-9a676b70-529e-4c61-894c-a234379bcd4c" points="49.97 0 0 0 0 45.16"/>
      <path class="uuid-5cedfac1-8fa9-4d05-b111-69f129d5c387" d="M24.97,45.11c-2.5,0-4.83-1.34-6.08-3.51L.94,10.52c-.61-1.06-.94-2.28-.94-3.51C0,3.15,3.15,0,7.01,0h35.9c1.23,0,2.44.33,3.51.94,3.35,1.93,4.5,6.23,2.57,9.58l-17.95,31.09c-.61,1.07-1.5,1.95-2.57,2.57-1.07.61-2.28.94-3.5.94"/>
      <path class="uuid-9ea90342-8470-4072-947a-ab9933062ed2" d="M24.97,40.34c-.81,0-1.54-.42-1.94-1.12L5.08,8.13c-.2-.34-.3-.73-.3-1.12,0-1.23,1-2.23,2.23-2.23h35.9c.39,0,.78.1,1.12.3,1.07.62,1.43,1.99.82,3.05l-17.95,31.09c-.2.34-.48.62-.82.82-.35.2-.72.3-1.11.3"/>
      <path class="uuid-152487ef-bb59-41cc-85ac-77c2fcfe5d0a" d="M31.52,13.39c2.35,0,4.25,1.9,4.25,4.25s-1.9,4.25-4.25,4.25-4.25-1.9-4.25-4.25c0-1.62.91-3.03,2.24-3.75l-.8-2.06-6.18,4.79c.04.15.07.31.09.47.21-.43.64-.73,1.15-.73.71,0,1.28.57,1.28,1.28s-.57,1.28-1.28,1.28c-.51,0-.95-.3-1.15-.73-.27,2.09-2.05,3.7-4.22,3.7-2.35,0-4.25-1.9-4.25-4.25s1.9-4.25,4.25-4.25c1.54,0,2.88.82,3.63,2.04l.28-1.35-1.71-3.58-.19-.36h-1.09c-.39,0-.81-.15-.81-.62,0-.42.28-.64.81-.62h2.72c.07,0,.85-.03.85.62,0,.7-.67.61-.85.62h-.23l1.92,3.97,5.12-3.97.26.04c.57.08,2.14.13,2.14-.75s-1.77-.76-2.31-.68l-.62.1-.19-1.23.62-.1c1.42-.22,3.74,0,3.74,1.91,0,1.47-1.34,1.98-2.6,2.03l.78,2.01c.27-.05.55-.08.83-.08"/>
      <path class="uuid-d34bd6a3-ca45-4a13-992a-2dfbad81e61e" d="M31.52,13.39c2.35,0,4.25,1.9,4.25,4.25s-1.9,4.25-4.25,4.25-4.25-1.9-4.25-4.25c0-1.62.91-3.03,2.24-3.75l-.8-2.06-6.18,4.79c.04.15.07.31.09.47.21-.43.64-.73,1.15-.73.71,0,1.28.57,1.28,1.28s-.57,1.28-1.28,1.28c-.51,0-.95-.3-1.15-.73-.27,2.09-2.05,3.7-4.22,3.7-2.35,0-4.25-1.9-4.25-4.25s1.9-4.25,4.25-4.25c1.54,0,2.88.82,3.63,2.04l.28-1.35-1.71-3.58-.19-.36h-1.09c-.39,0-.81-.15-.81-.62,0-.42.28-.64.81-.62h2.72c.07,0,.85-.03.85.62,0,.7-.67.61-.85.62h-.23l1.92,3.97,5.12-3.97.26.04c.57.08,2.14.13,2.14-.75s-1.77-.76-2.31-.68l-.62.1-.19-1.23.62-.1c1.42-.22,3.74,0,3.74,1.91,0,1.47-1.34,1.98-2.6,2.03l.78,2.01c.27-.05.55-.08.83-.08Z"/>
      <path class="uuid-152487ef-bb59-41cc-85ac-77c2fcfe5d0a" d="M28.23,27.36l-.69-.73-1.88-1.98h0s-.11-.07-.18-.07c-.14,0-.26.12-.26.26,0,.03,0,.06.02.09l.47,2.18v.27h-5.27v2.45h5.27v.27l-.47,2.18s-.02.06-.02.09c0,.14.12.26.26.26.07,0,.13-.03.18-.07h0s1.88-1.98,1.88-1.98l.69-.73,1.26-1.24-1.26-1.25Z"/>
      <path class="uuid-d34bd6a3-ca45-4a13-992a-2dfbad81e61e" d="M28.23,27.36l-.69-.73-1.88-1.98h0s-.11-.07-.18-.07c-.14,0-.26.12-.26.26,0,.03,0,.06.02.09l.47,2.18v.27h-5.27v2.45h5.27v.27l-.47,2.18s-.02.06-.02.09c0,.14.12.26.26.26.07,0,.13-.03.18-.07h0s1.88-1.98,1.88-1.98l.69-.73,1.26-1.24-1.26-1.25Z"/>
    </g>
  </g>
</svg>