<?xml version="1.0" encoding="UTF-8"?>
<svg id="uuid-daa09c9f-4340-46b4-935c-fa0fabca2bde" data-name="Calque_2" xmlns="http://www.w3.org/2000/svg" viewBox="0 0 44.29 60.01">
  <defs>
    <style>
      .uuid-04925493-20a3-41b4-9a0f-805198667553 {
        fill: #fff;
      }

      .uuid-e8c787d9-c0a4-4ef5-8216-60a55dca1e74 {
        fill: #1d1719;
      }

      .uuid-1ab72292-c70a-4ce1-86ed-f0281fa07659 {
        fill: #010000;
      }

      .uuid-c4a97735-cf2c-47c9-b414-7424901fbbf9 {
        fill: #e21617;
      }
    </style>
  </defs>
  <g id="uuid-3b35e9b4-33f6-4002-9037-9481cc1e38c7" data-name="Éléments_Mise_en_page">
    <g id="uuid-79d00e39-b9c5-43ec-b670-d3fff3433d58" data-name="Icon_x5F_Zone30">
      <path class="uuid-04925493-20a3-41b4-9a0f-805198667553" d="M7.98,58.92c-3.77,0-6.84-3.12-6.84-6.95V7.94C1.14,4.11,4.21.99,7.98.99h28.52c3.77,0,6.84,3.12,6.84,6.95v44.03c0,3.83-3.07,6.95-6.84,6.95H7.98Z"/>
      <path class="uuid-c4a97735-cf2c-47c9-b414-7424901fbbf9" d="M7.88,0C3.54,0,0,3.59,0,7.99v44.03c0,4.41,3.54,7.99,7.88,7.99h28.52c4.35,0,7.89-3.59,7.89-7.99V7.99c0-4.41-3.54-7.99-7.89-7.99"/>
      <path class="uuid-04925493-20a3-41b4-9a0f-805198667553" d="M36.4,2.08c3.2,0,5.8,2.65,5.8,5.91v44.03c0,3.26-2.6,5.91-5.8,5.91H7.88c-3.2,0-5.8-2.65-5.8-5.91V7.99c0-3.26,2.6-5.91,5.8-5.91h28.52Z"/>
      <path class="uuid-c4a97735-cf2c-47c9-b414-7424901fbbf9" d="M22.14,23.52c8.01,0,14.55,6.54,14.55,14.55s-6.54,14.55-14.55,14.55-14.55-6.54-14.55-14.55,6.54-14.55,14.55-14.55"/>
      <path class="uuid-04925493-20a3-41b4-9a0f-805198667553" d="M22.14,27.52c5.82,0,10.56,4.74,10.56,10.56s-4.74,10.56-10.56,10.56-10.56-4.74-10.56-10.56,4.74-10.56,10.56-10.56"/>
      <path class="uuid-e8c787d9-c0a4-4ef5-8216-60a55dca1e74" d="M16.24,40.06c0,.43.07.79.21,1.07.26.52.72.78,1.4.78.42,0,.78-.14,1.09-.43.31-.29.46-.69.46-1.23,0-.71-.29-1.18-.86-1.42-.33-.13-.84-.2-1.54-.2v-1.51c.68-.01,1.16-.08,1.43-.2.47-.21.7-.63.7-1.26,0-.41-.12-.74-.36-1-.24-.26-.58-.39-1.01-.39-.5,0-.86.16-1.1.48-.23.32-.35.74-.34,1.27h-1.97c.02-.54.11-1.04.27-1.52.17-.42.44-.81.82-1.17.28-.25.61-.45.99-.58.38-.13.85-.2,1.4-.2,1.03,0,1.86.27,2.49.8.63.53.94,1.25.94,2.14,0,.64-.19,1.17-.56,1.6-.24.27-.49.46-.74.56.19,0,.47.17.83.5.54.5.81,1.19.81,2.05,0,.91-.32,1.71-.95,2.4-.63.69-1.56,1.04-2.8,1.04-1.52,0-2.58-.5-3.18-1.49-.31-.53-.49-1.22-.52-2.08h2.08Z"/>
      <path class="uuid-e8c787d9-c0a4-4ef5-8216-60a55dca1e74" d="M25.16,40.92c.2.65.62.98,1.25.98s1.04-.33,1.24-.98c.2-.66.29-1.6.29-2.84,0-1.3-.1-2.26-.29-2.88-.19-.62-.61-.94-1.24-.94s-1.04.31-1.25.94c-.2.62-.31,1.58-.31,2.88s.1,2.18.31,2.84M29.3,33.97c.55.97.83,2.34.83,4.12s-.28,3.14-.83,4.1c-.55.96-1.51,1.44-2.89,1.44s-2.33-.48-2.88-1.44c-.55-.96-.83-2.33-.83-4.1s.28-3.15.83-4.12c.55-.97,1.51-1.45,2.88-1.45s2.33.48,2.89,1.45"/>
      <polygon class="uuid-1ab72292-c70a-4ce1-86ed-f0281fa07659" points="9.33 15.67 12.89 10.76 9.42 10.76 9.42 9.42 14.7 9.42 14.7 10.69 11.09 15.67 14.71 15.67 14.71 17 9.33 17 9.33 15.67"/>
      <path class="uuid-1ab72292-c70a-4ce1-86ed-f0281fa07659" d="M20.18,15.18c.34-.46.51-1.12.51-1.98s-.17-1.51-.51-1.98c-.34-.46-.79-.7-1.37-.7s-1.04.23-1.38.7c-.34.46-.51,1.12-.51,1.98s.17,1.51.51,1.98c.34.46.8.69,1.38.69s1.03-.23,1.37-.69M21.09,16.33c-.52.59-1.29.89-2.28.89s-1.76-.29-2.28-.89c-.71-.72-1.06-1.77-1.06-3.13s.35-2.43,1.06-3.13c.53-.59,1.29-.89,2.28-.89s1.76.29,2.28.89c.7.7,1.05,1.74,1.05,3.13s-.35,2.4-1.05,3.13"/>
      <polygon class="uuid-1ab72292-c70a-4ce1-86ed-f0281fa07659" points="23.23 9.42 24.76 9.42 27.52 14.71 27.52 9.42 28.88 9.42 28.88 17 27.42 17 24.59 11.62 24.59 17 23.23 17 23.23 9.42"/>
      <polygon class="uuid-1ab72292-c70a-4ce1-86ed-f0281fa07659" points="35.39 10.76 31.71 10.76 31.71 12.37 35.09 12.37 35.09 13.69 31.71 13.69 31.71 15.64 35.56 15.64 35.56 17 30.28 17 30.28 9.42 35.39 9.42 35.39 10.76"/>
    </g>
  </g>
</svg>