<?xml version="1.0" encoding="UTF-8"?>
<svg id="uuid-4a658012-4bb0-423d-9537-250392b6a822" data-name="Calque_2" xmlns="http://www.w3.org/2000/svg" viewBox="0 0 32.46 25.1">
  <defs>
    <style>
      .uuid-3cf9bddc-88eb-4b17-abb2-3f9078ea3339 {
        fill: #1d1c24;
      }
    </style>
  </defs>
  <g id="uuid-efeb6b8b-8afb-4475-9863-5e1cdb7dc00c" data-name="Éléments_Mise_en_page">
    <g id="uuid-d02d7d8a-60a7-40d5-9b54-137cb55ab9d7" data-name="Icon_x5F_Couronne">
      <path class="uuid-3cf9bddc-88eb-4b17-abb2-3f9078ea3339" d="M20.67,25.1c-.09,0-.19,0-.28,0-2.34-.04-4.15-.48-4.23-.5-.17-.04-.27-.21-.23-.38.04-.17.21-.27.38-.23.02,0,1.83.45,4.1.48.09,0,.18,0,.27,0,3.58,0,5.59-1.05,6.65-1.94,1.1-.92,2.64-2.76,3.7-6.28.48-1.58.69-2.95.77-3.54-.9-.04-3.52-.08-6.16.62-.17.04-.34-.06-.38-.22-.04-.17.05-.34.22-.38,3.35-.89,6.56-.63,6.69-.62.08,0,.16.05.21.11.05.06.08.15.07.23,0,.07-.17,1.81-.83,3.99-.61,2.02-1.79,4.8-3.9,6.57-1.63,1.37-4.07,2.09-7.06,2.09"/>
      <path class="uuid-3cf9bddc-88eb-4b17-abb2-3f9078ea3339" d="M18.02,24.75c-1.06,0-1.8-.13-1.85-.14-.17-.03-.28-.19-.25-.36.03-.17.19-.28.36-.25.02,0,1.6.29,3.42,0,2.39-.37,4.03-1.49,4.89-3.33.61-1.3,1.22-3.61.7-7.24-.23-1.64-.62-2.97-.8-3.55-.76.32-2.85,1.25-4.82,2.76-.14.11-.33.08-.44-.06-.11-.14-.08-.33.06-.44,2.52-1.94,5.17-2.93,5.28-2.97.08-.03.16-.03.24.01.08.03.13.1.16.18.02.07.61,1.71.93,3.96.3,2.09.41,5.11-.75,7.6-.94,2.02-2.8,3.3-5.38,3.69-.63.1-1.24.13-1.76.13"/>
      <path class="uuid-3cf9bddc-88eb-4b17-abb2-3f9078ea3339" d="M11.79,25.1c-2.99,0-5.43-.72-7.06-2.09-2.11-1.77-3.28-4.55-3.9-6.57C.17,14.27,0,12.53,0,12.46c0-.08.02-.17.07-.23.05-.06.13-.1.21-.11.14-.01,3.35-.26,6.69.62.17.04.27.22.22.38-.04.17-.21.27-.38.22-2.64-.7-5.27-.66-6.16-.62.08.6.29,1.97.78,3.55.59,1.94,1.71,4.59,3.7,6.26,3.81,3.2,10.95,1.48,11.02,1.46.17-.04.34.06.38.23.04.17-.06.34-.23.38-.08.02-1.89.46-4.23.5-.1,0-.19,0-.28,0"/>
      <path class="uuid-3cf9bddc-88eb-4b17-abb2-3f9078ea3339" d="M14.44,24.75c-.52,0-1.12-.03-1.76-.13-2.58-.39-4.44-1.67-5.38-3.69-1.16-2.5-1.05-5.51-.75-7.6.32-2.25.9-3.9.93-3.96.03-.08.09-.14.16-.18.08-.04.16-.04.24-.01.11.04,2.76,1.03,5.28,2.97.14.1.16.3.06.44-.1.14-.3.16-.44.06-1.96-1.51-4.05-2.45-4.82-2.76-.18.58-.57,1.91-.8,3.55-.28,2-.39,4.89.7,7.24.86,1.85,2.51,2.97,4.91,3.34,1.82.28,3.38,0,3.4,0,.17-.03.33.08.36.25.03.17-.08.33-.25.36-.05,0-.79.14-1.85.14"/>
      <path class="uuid-3cf9bddc-88eb-4b17-abb2-3f9078ea3339" d="M16.23,8.39c-.41.45-1.32,1.49-2.23,2.88-1.1,1.7-2.42,4.26-2.42,6.86,0,2.05.79,3.65,2.35,4.78,1.02.74,2.04,1.01,2.3,1.08.26-.06,1.29-.35,2.31-1.09,1.55-1.13,2.33-2.73,2.33-4.77,0-1.43-.42-3.79-2.42-6.86-.9-1.39-1.82-2.43-2.22-2.88M16.23,24.62s-.04,0-.06,0c-.05-.01-1.32-.27-2.6-1.2-1.19-.86-2.61-2.47-2.61-5.29s1.38-5.44,2.53-7.21c1.24-1.9,2.47-3.15,2.52-3.2.06-.06.14-.09.22-.09s.16.03.22.09c.05.05,1.28,1.3,2.52,3.2,1.15,1.77,2.53,4.46,2.53,7.21s-1.42,4.43-2.61,5.29c-1.28.92-2.55,1.18-2.6,1.2-.02,0-.04,0-.06,0"/>
      <path class="uuid-3cf9bddc-88eb-4b17-abb2-3f9078ea3339" d="M16.23,0c-1.79,0-3.25,1.46-3.25,3.24s1.46,3.24,3.25,3.24,3.24-1.46,3.24-3.24-1.46-3.24-3.24-3.24M16.23,5.87c-1.45,0-2.62-1.18-2.62-2.62s1.18-2.62,2.62-2.62,2.62,1.18,2.62,2.62-1.18,2.62-2.62,2.62"/>
    </g>
  </g>
</svg>