<?xml version="1.0" encoding="UTF-8"?>
<svg id="uuid-9c9fbd59-f59d-4f00-a0e3-b0e71780ecd1" data-name="Calque_2" xmlns="http://www.w3.org/2000/svg" viewBox="0 0 45.74 89.19">
  <defs>
    <style>
      .uuid-42b613fc-ac5a-485a-ba8f-14cb66f5e1c0 {
        fill: #1b1a19;
      }

      .uuid-d2fa3661-b842-432e-b3c1-c7a1594eb062 {
        fill: #e11518;
      }

      .uuid-c70ae6b7-5dfd-4a27-8021-756606b402a5 {
        fill: #fff;
      }

      .uuid-1615d0dd-6a59-4918-9a4c-2586bc5e3f7a {
        stroke: #1b1a19;
        stroke-width: .55px;
      }

      .uuid-1615d0dd-6a59-4918-9a4c-2586bc5e3f7a, .uuid-535ef30e-00ad-40c8-8f66-5b4251851755 {
        fill: none;
        stroke-miterlimit: 10;
      }

      .uuid-2c2cc3f6-cd9a-4601-8aab-47821d2d7c59 {
        fill: #335aa5;
      }

      .uuid-535ef30e-00ad-40c8-8f66-5b4251851755 {
        stroke: #fff;
        stroke-width: .23px;
      }
    </style>
  </defs>
  <g id="uuid-7c8841d8-bc02-4864-87a7-a6a5d29f0e17" data-name="Éléments_Mise_en_page">
    <g id="uuid-5dd7edaf-2d3e-41ba-9bdc-4a3760bfb105" data-name="Icon_x5F_EntreeZone20">
      <polygon class="uuid-c70ae6b7-5dfd-4a27-8021-756606b402a5" points="27.46 5.7 27.46 5.74 25.96 7 42.68 16.93 42.68 14.72 27.46 5.7"/>
      <path class="uuid-c70ae6b7-5dfd-4a27-8021-756606b402a5" d="M45.47,42.49c0,1.01-.84,1.84-1.88,1.84H2.16c-1.04,0-1.88-.82-1.88-1.84V2.11C.27,1.09,1.12.27,2.16.27h41.43c1.04,0,1.88.82,1.88,1.83v40.38Z"/>
      <path class="uuid-1615d0dd-6a59-4918-9a4c-2586bc5e3f7a" d="M45.47,42.49c0,1.01-.84,1.84-1.88,1.84H2.16c-1.04,0-1.88-.82-1.88-1.84V2.11C.27,1.09,1.12.27,2.16.27h41.43c1.04,0,1.88.82,1.88,1.83v40.38Z"/>
      <path class="uuid-2c2cc3f6-cd9a-4601-8aab-47821d2d7c59" d="M42.77,40.86q0,.87-1.16.87H4.09q-1.17,0-1.17-.87V3.78q0-.87,1.17-.87h37.51q1.16,0,1.16.87v37.08Z"/>
      <path class="uuid-c70ae6b7-5dfd-4a27-8021-756606b402a5" d="M22.68,10.03h-4.47c-.45,0-1.64-.37-1.64-.82,0,0,.68-2.08.82-2.54.15-.46.37-.82.82-.82h4.47c.45,0,.68.39.82.82.14.43.82,2.54.82,2.54,0,.45-1.19.82-1.64.82"/>
      <path class="uuid-2c2cc3f6-cd9a-4601-8aab-47821d2d7c59" d="M22.31,9.68h-3.73c-.38,0-1.37-.31-1.37-.68,0,0,.56-1.73.68-2.12.12-.39.31-.68.69-.68h3.73c.38,0,.57.32.68.68.12.36.69,2.12.69,2.12,0,.38-.99.68-1.37.68"/>
      <path class="uuid-c70ae6b7-5dfd-4a27-8021-756606b402a5" d="M24.27,11.25h-7.53c-.26,0-.48-.21-.48-.48v-1.74c0-.26.22-.48.48-.48h7.53c.26,0,.48.22.48.48v1.74c0,.26-.21.48-.48.48"/>
      <path class="uuid-c70ae6b7-5dfd-4a27-8021-756606b402a5" d="M17.49,10.77h-.21c-.26,0-.48.22-.48.48v1.17c0,.26.22.48.48.48h.21c.26,0,.48-.22.48-.48v-1.17c0-.26-.21-.48-.48-.48"/>
      <path class="uuid-c70ae6b7-5dfd-4a27-8021-756606b402a5" d="M23.61,10.77h-.21c-.26,0-.48.22-.48.48v1.17c0,.26.22.48.48.48h.21c.26,0,.48-.22.48-.48v-1.17c0-.26-.21-.48-.48-.48"/>
      <path class="uuid-2c2cc3f6-cd9a-4601-8aab-47821d2d7c59" d="M24.01,9.8c0,.28-.23.51-.51.51s-.51-.23-.51-.51.23-.51.51-.51.51.23.51.51"/>
      <path class="uuid-2c2cc3f6-cd9a-4601-8aab-47821d2d7c59" d="M17.9,9.8c0,.28-.23.51-.51.51s-.51-.23-.51-.51.23-.51.51-.51.51.23.51.51"/>
      <path class="uuid-c70ae6b7-5dfd-4a27-8021-756606b402a5" d="M22.6,7.53c0,.44-.36.8-.8.8s-.8-.36-.8-.8.36-.8.8-.8.8.36.8.8"/>
      <path class="uuid-c70ae6b7-5dfd-4a27-8021-756606b402a5" d="M22.68,10.03h-4.47c-.45,0-1.64-.37-1.64-.82,0,0,.68-2.08.82-2.54.15-.46.37-.82.82-.82h4.47c.45,0,.68.39.82.82.14.43.82,2.54.82,2.54,0,.45-1.19.82-1.64.82"/>
      <path class="uuid-2c2cc3f6-cd9a-4601-8aab-47821d2d7c59" d="M22.31,9.68h-3.73c-.38,0-1.37-.31-1.37-.68,0,0,.56-1.73.68-2.12.12-.39.31-.68.69-.68h3.73c.38,0,.57.32.68.68.12.36.69,2.12.69,2.12,0,.38-.99.68-1.37.68"/>
      <path class="uuid-c70ae6b7-5dfd-4a27-8021-756606b402a5" d="M24.27,11.25h-7.53c-.26,0-.48-.21-.48-.48v-1.74c0-.26.22-.48.48-.48h7.53c.26,0,.48.22.48.48v1.74c0,.26-.21.48-.48.48"/>
      <path class="uuid-c70ae6b7-5dfd-4a27-8021-756606b402a5" d="M17.49,10.77h-.21c-.26,0-.48.22-.48.48v1.17c0,.26.22.48.48.48h.21c.26,0,.48-.22.48-.48v-1.17c0-.26-.21-.48-.48-.48"/>
      <path class="uuid-c70ae6b7-5dfd-4a27-8021-756606b402a5" d="M23.61,10.77h-.21c-.26,0-.48.22-.48.48v1.17c0,.26.22.48.48.48h.21c.26,0,.48-.22.48-.48v-1.17c0-.26-.21-.48-.48-.48"/>
      <path class="uuid-2c2cc3f6-cd9a-4601-8aab-47821d2d7c59" d="M24.01,9.8c0,.28-.23.51-.51.51s-.51-.23-.51-.51.23-.51.51-.51.51.23.51.51"/>
      <path class="uuid-2c2cc3f6-cd9a-4601-8aab-47821d2d7c59" d="M17.9,9.8c0,.28-.23.51-.51.51s-.51-.23-.51-.51.23-.51.51-.51.51.23.51.51"/>
      <path class="uuid-c70ae6b7-5dfd-4a27-8021-756606b402a5" d="M22.6,7.53c0,.44-.36.8-.8.8s-.8-.36-.8-.8.36-.8.8-.8.8.36.8.8"/>
      <path class="uuid-d2fa3661-b842-432e-b3c1-c7a1594eb062" d="M34.09,25.48c4.38,0,7.95,3.57,7.95,7.95s-3.57,7.95-7.95,7.95-7.95-3.57-7.95-7.95,3.57-7.95,7.95-7.95"/>
      <path class="uuid-535ef30e-00ad-40c8-8f66-5b4251851755" d="M34.09,25.48c4.38,0,7.95,3.57,7.95,7.95s-3.57,7.95-7.95,7.95-7.95-3.57-7.95-7.95,3.57-7.95,7.95-7.95"/>
      <path class="uuid-c70ae6b7-5dfd-4a27-8021-756606b402a5" d="M34.09,27.66c3.18,0,5.77,2.59,5.77,5.77s-2.59,5.77-5.77,5.77-5.77-2.59-5.77-5.77,2.59-5.77,5.77-5.77"/>
      <path class="uuid-42b613fc-ac5a-485a-ba8f-14cb66f5e1c0" d="M30.06,34.84c.16-.39.55-.8,1.16-1.23.53-.38.87-.65,1.02-.81.24-.25.36-.53.36-.84,0-.25-.07-.45-.2-.61-.14-.16-.33-.25-.59-.25-.35,0-.59.13-.71.39-.07.15-.12.39-.13.72h-1.11c.02-.5.11-.9.27-1.2.31-.58.85-.87,1.63-.87.62,0,1.11.17,1.47.51.36.34.55.79.55,1.36,0,.43-.13.81-.39,1.15-.17.22-.45.47-.83.74l-.46.32c-.29.2-.48.35-.59.44-.1.09-.19.2-.27.32h2.54v1.01h-3.99c.01-.42.1-.8.27-1.15"/>
      <path class="uuid-42b613fc-ac5a-485a-ba8f-14cb66f5e1c0" d="M37.94,30.9c.3.52.45,1.26.45,2.22s-.15,1.7-.45,2.22c-.3.52-.82.78-1.56.78s-1.26-.26-1.56-.78c-.3-.52-.45-1.26-.45-2.22s.15-1.7.45-2.22c.3-.52.82-.78,1.56-.78s1.26.26,1.56.78M35.7,34.66c.11.36.33.53.67.53s.56-.18.67-.53c.1-.35.16-.87.16-1.54s-.05-1.22-.16-1.56c-.11-.34-.33-.51-.67-.51s-.56.17-.67.51c-.11.34-.17.86-.17,1.56s.06,1.18.17,1.54"/>
      <path class="uuid-c70ae6b7-5dfd-4a27-8021-756606b402a5" d="M29.27,20.45c0,1.54-1.25,2.79-2.79,2.79s-2.79-1.25-2.79-2.79,1.25-2.79,2.79-2.79,2.79,1.25,2.79,2.79"/>
      <path class="uuid-c70ae6b7-5dfd-4a27-8021-756606b402a5" d="M38.11,20.45c0,1.54-1.25,2.79-2.79,2.79s-2.79-1.25-2.79-2.79,1.25-2.79,2.79-2.79,2.79,1.25,2.79,2.79"/>
      <path class="uuid-c70ae6b7-5dfd-4a27-8021-756606b402a5" d="M33.61,16.4c-.04-.12-2.42-3.62-2.48-3.72-.07-.1-.26-.1-.32-.1s-.12-.1-.21-.19c.07-.14.12-.3.12-.48,0-.58-.47-1.04-1.04-1.04s-1.04.47-1.04,1.04.47,1.04,1.04,1.04c.11,0,.21-.02.31-.05-.02.02-.03.04-.03.05,0,.04.14.29.06.37-.07.07-2.49,2.43-3,2.93-.04.03-.07.06-.1.09h0c-.06.08-.09.17-.09.28,0,.25.2.45.45.45.17,0,.31-.09.39-.22.53-.5,2.12-2.01,2.18-2.05.08-.06.15-.06.21.03.04.07,1.24,1.86,1.28,1.91.05.07.03.12,0,.15-.01.02-.04.03-.06.04l-2.38.28h0c-.3,0-.55.25-.55.56,0,.16.07.3.17.4l.92,1.19c.08.1.21.12.34.12.3,0,.55-.25.55-.55,0-.18-.11-.33-.23-.45l-.23-.3h1.22l-.61,1.11.08,2.44c0,.32.26.57.57.57s.57-.26.57-.57v-2.13s1.77-2.09,1.91-2.34c.14-.25.04-.74,0-.86"/>
      <path class="uuid-c70ae6b7-5dfd-4a27-8021-756606b402a5" d="M20.72,27.03h0s-.05-.03-.07-.04l-3.13-1.81s-.64-1.21-.8-1.6c-.33-.82-1.33-2.06-1.72-2.22.02-.26.04-.55.06-.73.83-.27,1.43-1.06,1.43-1.98,0-1.15-.93-2.08-2.08-2.08s-2.08.93-2.08,2.08c0,.7.34,1.31.87,1.69l-.08.72s-.3.02-.49.05c-.13.02-.31.05-.43.15-.18.16-3.24,3.18-3.29,3.26-.05.08-.19.26-.22.34-.04.12-1.14,4.07-1.14,4.07-.06.12-.13.35-.13.5,0,.47.38.85.85.85.38,0,.71-.26.81-.61l1.32-4.08,1.41-1.42-.52,3.5-4.88,9.66c-.03.05-.06.11-.08.16h0c-.05.14-.09.29-.09.45,0,.65.53,1.18,1.18,1.18.4,0,.75-.2.97-.5,0,0,0,0,0,0,.06-.08.1-.17.14-.26.74-1.4,4.15-7.89,4.24-8.06.1-.19.39-.14.44,0,.05.13,3.19,6.66,3.87,8.07.03.09.07.18.12.26,0,0,0,0,0,0h0c.23.35.62.59,1.07.59.7,0,1.27-.57,1.27-1.27,0-.2-.05-.39-.13-.56h0s-.02-.04-.02-.04c0,0,0,0,0,0l-4-7.75-.66-1.49.43-3.55.95,2.08,3.73,1.87c.12.07.26.11.41.11.47,0,.85-.38.85-.85,0-.3-.15-.56-.39-.71"/>
      <path class="uuid-c70ae6b7-5dfd-4a27-8021-756606b402a5" d="M45.47,87.08c0,1.01-.84,1.84-1.88,1.84H2.16c-1.04,0-1.88-.82-1.88-1.84v-40.38c0-1.01.84-1.83,1.88-1.83h41.43c1.04,0,1.88.82,1.88,1.83v40.38Z"/>
      <path class="uuid-1615d0dd-6a59-4918-9a4c-2586bc5e3f7a" d="M45.47,87.08c0,1.01-.84,1.84-1.88,1.84H2.16c-1.04,0-1.88-.82-1.88-1.84v-40.38c0-1.01.84-1.83,1.88-1.83h41.43c1.04,0,1.88.82,1.88,1.83v40.38Z"/>
      <path class="uuid-2c2cc3f6-cd9a-4601-8aab-47821d2d7c59" d="M42.79,85.43q0,.87-1.16.87H4.11q-1.17,0-1.17-.87v-37.08q0-.87,1.17-.87h37.51q1.16,0,1.16.87v37.08Z"/>
      <rect class="uuid-c70ae6b7-5dfd-4a27-8021-756606b402a5" x="28.23" y="54.05" width="2.92" height="29.92"/>
      <polygon class="uuid-c70ae6b7-5dfd-4a27-8021-756606b402a5" points="29.64 49.14 26.13 55.22 33.26 55.22 29.64 49.14"/>
      <rect class="uuid-c70ae6b7-5dfd-4a27-8021-756606b402a5" x="14.69" y="72.17" width="2.74" height="6.73"/>
      <rect class="uuid-c70ae6b7-5dfd-4a27-8021-756606b402a5" x="14.69" y="54.78" width="2.74" height="5.97"/>
      <polygon class="uuid-c70ae6b7-5dfd-4a27-8021-756606b402a5" points="16 83.81 12.49 77.74 19.62 77.74 16 83.81"/>
      <rect class="uuid-c70ae6b7-5dfd-4a27-8021-756606b402a5" x="16.45" y="70.56" width=".87" height=".26" transform="translate(-8.22 2.48) rotate(-6.77)"/>
      <path class="uuid-c70ae6b7-5dfd-4a27-8021-756606b402a5" d="M20.77,68.11l-2.37-3.25-1.22,3.64-.35-.3,1.23-3.88h-4.82s-.21.53-.21.53l3,3.32-.3.3-2.85-3.12-.22.63c.82.56,1.37,1.49,1.37,2.54,0,1.69-1.38,3.07-3.06,3.07s-3.05-1.38-3.05-3.07,1.37-3.06,3.05-3.06c.45,0,.9.11,1.29.29l.68-2.19c.06-.1-.91-.15-.9-.86.02-.84,1.07-.67,1.95-.65.27.01.26.48,0,.48-.65.03-1.46-.17-1.43.16.03.34.56.36,1.07.6l-.22.57h4.82s.13-.44.13-.44l-.84-.39s-.51-.35,0-.51l1.83-.03c.21-.01.46.04.47.27,0,0,.02.13-.02.27-.04.13,0,0,0,0-.13.31-.96.47-.96.47l-.2.67,2.4,3.86-.26.1ZM11.25,67.95c.25,0,.86-1.79.86-1.79l-.09-.03c-.33-.14-.7-.22-1.06-.22-1.42,0-2.59,1.17-2.59,2.6s1.17,2.59,2.59,2.59,2.57-1.17,2.57-2.59c0-.87-.36-1.62-1.04-2.08,0,0-.35.88-.5,1.31-.14.43-.54.57-.54.57"/>
      <path class="uuid-c70ae6b7-5dfd-4a27-8021-756606b402a5" d="M11.49,68.32c0,.29-.24.53-.53.53s-.53-.24-.53-.53.24-.53.53-.53.53.24.53.53"/>
      <path class="uuid-c70ae6b7-5dfd-4a27-8021-756606b402a5" d="M21.59,68.41c0,.28-.22.5-.5.5s-.5-.22-.5-.5.22-.5.5-.5.5.22.5.5"/>
      <path class="uuid-c70ae6b7-5dfd-4a27-8021-756606b402a5" d="M17.36,68.9c0,.48-.39.87-.87.87s-.87-.39-.87-.87.39-.87.87-.87.87.39.87.87"/>
      <path class="uuid-c70ae6b7-5dfd-4a27-8021-756606b402a5" d="M21.07,70.98c-1.4,0-2.54-1.14-2.54-2.54s1.14-2.54,2.54-2.54,2.54,1.14,2.54,2.54-1.14,2.54-2.54,2.54M21.07,65.46c-1.65,0-2.98,1.34-2.98,2.98s1.33,2.98,2.98,2.98,2.98-1.33,2.98-2.98-1.33-2.98-2.98-2.98"/>
      <polygon class="uuid-c70ae6b7-5dfd-4a27-8021-756606b402a5" points="17.16 68.61 17.2 69.09 20.95 68.69 20.69 68.37 17.16 68.61"/>
      <rect class="uuid-c70ae6b7-5dfd-4a27-8021-756606b402a5" x="15.73" y="66.91" width=".87" height=".26" transform="translate(-7.79 2.37) rotate(-6.77)"/>
      <polygon class="uuid-c70ae6b7-5dfd-4a27-8021-756606b402a5" points="17.04 70.57 16.67 70.63 16.03 67.11 16.39 67.04 17.04 70.57"/>
    </g>
  </g>
</svg>