<?xml version="1.0" encoding="UTF-8"?>
<svg id="Calque_2" xmlns="http://www.w3.org/2000/svg" viewBox="0 0 92.3 166.49">
  <defs>
    <style>
      .cls-1 {
        fill: #ce5117;
      }

      .cls-2 {
        fill: #fff;
      }

      .cls-3 {
        fill: #f18b6a;
      }

      .cls-4 {
        fill: #356893;
      }

      .cls-5 {
        fill: #56adad;
      }
    </style>
  </defs>
  <g id="Calque_6">
    <g>
      <path class="cls-4" d="M64.51,159.58c-1.15-3.05,2.46-4.39,5.12-3.37,3.27,1.26,4.87,4.31,6.94,6.7.41.48.82,1.05,1.09,1.62.47,1.05-.58,2.19-1.78,1.92-3.23-.7-6.29-2.07-8.86-3.99-1.06-.79-2.07-1.71-2.51-2.89"/>
      <path class="cls-4" d="M22.33,146.42c-.03.09-.04.17-.06.26.06.02.12.06.17.09l-.11-.35Z"/>
      <path class="cls-4" d="M15.98,152.22c.98,2.32,2.4,4.37,4.13,5.97.84.77,2.23,1.34,2.9.27.33-.52.3-1.2.22-1.81-.22-1.85-.74-3.7-1.02-5.55-.05-.35-.09-.69-.13-1.05-.1-1.13-.08-2.26.19-3.38-1.39-.73-3.04-.88-4.57-.42-.03,0-.04.01-.07.02-.31.09-.62.23-.91.4-.28.16-.53.37-.73.64-1.05,1.32-.66,3.38-.01,4.91"/>
      <path class="cls-4" d="M84.78,106.01c-.07-4.79-1.17-9.52-2.43-14.17-2.5-9.2-7.03-17.37-10.13-26.05-2.09-5.88-.18-9.61-9.07-8.87-6.81.57-13.5,1.5-20.56,1.87-28.76,1.5-4.75,43.18,1.68,54.46-3.09,2.69-7.12,5.13-9.61,8.3-2.57,3.1-4.92,6.34-7.22,9.62-1.08,1.55-2.18,3.09-3.23,4.67-.15.21-.29.42-.43.64-.25.37-.5.75-.75,1.13h0c.01.14.02.27.03.39.11.6.2,1.19.35,1.79.17.7.41,1.38.65,2.06.04.08.07.16.11.24.15.31.32.61.49.92.17.28.37.55.55.83.03.04.07.08.11.12.16.18.34.34.52.5.22.07.45.13.68.19.49-.04.68.02.62.06.5.01,1,0,1.5-.05.57-.04,1.13.04,1.64.22.18-.13.37-.26.55-.4.16-.12.33-.24.49-.36,3.23-2.33,6.32-4.74,9.39-7.56,5.05-4.66,9.49-9.84,14.23-14.77,1.65-1.73,2.79-2.73,3.61-5.04,2.12-5.96,1.22-13.1.53-19.19-.16-1.38-.32-2.79-.5-4.21,4.98,6.12,10.1,12.63,10.61,15.08.7,3.4-1.71,13.42-2.5,16.68-1.47,6.14-2.73,12.45-2.76,18.75,0,.32,0,.66,0,1.03,1.1.63,1.97,1.66,2.32,2.83.01.05.04.11.05.16,2.87.07,5.71.45,8.57.69.2-.67.39-1.34.58-2,2.45-8.49,4.8-17.28,6.89-25.36.82-3.18,1.61-6.38,2.06-9.62.27-.65.35-1.4.41-2.23.09-1.13.11-2.24-.04-3.35"/>
      <path class="cls-3" d="M63.93,144.92c-.05,3.77-.06,9.91.92,12.95,1.6,1.72,5.76,2.97,7.02.6.03-.05.03-.11.06-.16,1.19-3.77,2.39-7.72,3.54-11.73-1.8,1.11-4.23,1.51-6.42,1.2-1.81-.25-3.49-2.07-5.11-2.87"/>
      <path class="cls-3" d="M16.53,148.86c.6,1.85,3.11,2.71,5.18,2.33.17-.03.34-.07.5-.11,0-.03-.01-.06-.01-.09-.08-.54.26-1.05.79-1.28,1.04-.44,1.99-1.11,2.91-1.75,1.7-1.17,3.34-2.32,4.93-3.48.16-.12.33-.24.49-.36-2.62-.35-7.1-1.9-7.11-8.29-.15.21-.29.42-.43.64-.7,1.04-1.39,2.1-2.05,3.16-.83,1.35-2.92,3.95-3.89,6.13-.08.16-.15.32-.21.48-.31.09-.62.22-.91.4-.29.84-.38,1.6-.19,2.2"/>
      <path class="cls-3" d="M55.14,26.72l-3.46-.09c-1.84-.05-3.29-1.58-3.25-3.42l.28-10.53,10.13.27-.27,10.53c-.05,1.84-1.58,3.29-3.42,3.25"/>
      <path class="cls-3" d="M54.12,12.4c-1.83.45-3.63,1.09-5.35,1.86l5.35-1.86Z"/>
      <path class="cls-3" d="M50.35,13.63c-.11.29-.21.59-.31.89.01-.09.02-.17.03-.26.07-.21.2-.42.28-.64"/>
      <path class="cls-3" d="M53.96,13.61c.29-.93.49-1.85.61-2.71.47-3.37-1.57-6.9-4.51-8.13-2.94-1.23-6.49-.18-8.58,2.35-3.37,4.08-1.17,5.46-.21,8.74.33,1.13,1.7,8.47,2.48,8.85.4.2.87.25,1.33.27,4.06.23,7.45-4.72,8.87-9.37"/>
      <path class="cls-5" d="M90.5,42.14c.17-.63.32-1.27.46-1.91.07-.32.11-.64.19-.96,0-.01,0-.02,0-.03.07-.7.13-1.39.13-2.09,0-.32,0-.64-.02-.95,0-.09-.06-.5-.08-.67-.01-.07-.03-.14-.04-.2-.71-.68-1.52-1.27-2.31-1.83-2.71-3.13-8.49-6.34-11.14-8.22-6.65-4.72-11.93-7.2-20.23-6.74-5.84.33-13.13,2.18-18.72,4.28-2.8,1.05-5.52,3.23-7.59,5.48-.28.31-.56.66-.82,1.05-1.24,1.32-2.38,2.66-3.39,3.83-.65.74-1.4,1.57-2.2,2.44-.05.01-.09.02-.15.03.03.01.06.02.09.03-3.78,4.14-8.53,9.54-7.71,14.67.18,1.87.89,3.67,2.2,5,3.12,3.17,5.75,5.67,9.76-3.45-.09,3.49-2.43,16.69.2,19.71,2.13,2.44,13.47.77,16.51.77,7.09,0,14.33-.97,20.84-3.89,2.42-1.08,4.26-2.31,5.68-3.7l1.22-26.08s13.06,8.9,16.52,5.45c.2-.67.39-1.34.57-2.01"/>
      <path class="cls-3" d="M23.74,58.93c3.53-1.19,4.21-10.84.94-14.81-2.96-3.6-4.69-8.64-7.43-12.54-2.79-3.98-5.88-7.74-9.13-11.35-.89-.99-2.25-2.05-3.41-1.41-.12.07-.22.14-.32.23-.82.77-.58,2.28-.2,3.44,1.98,6.07,4.45,11.46,6.98,17.3,2.22,5.1,4.05,11.73,7.43,16.14,2.08,2.71,3.81,3.46,5.14,3.02"/>
      <path class="cls-1" d="M56.01,7.88c-.29-3.15-1.59-6.42-4.9-7.5-2.26-.74-4.79-.33-6.92.71-1.81.89-3.41,2.26-4.28,4.05-1.06,2.2-.23,4.29-.23,6.5,0,2.69-.4,5.55-.63,8.24-.16,1.85-.41,3.78.24,5.52.65,1.75,2.59,3.2,4.38,2.61,1.54-.5,2.3-2.21,2.63-3.78.48-2.31.41-4.73-.2-7.01-.88-3.32-.75-10.82,4.35-12.35,2.7-.81,2.63,2.32,3.02,4.95.24,1.62-.08,3.36-.33,4.96-.44,2.81-1.33,5.92-.38,8.74.55,1.63,2.02,3.09,3.77,3.07,1.9-.01,3.42-1.78,3.7-3.63.29-1.84-.39-3.7-1.23-5.37-.84-1.67-1.87-3.27-2.37-5.07-.42-1.49-.48-3.09-.62-4.66"/>
      <path class="cls-3" d="M85.27,19.63c-1-1.69-2.04-3.35-3.15-4.97-2.44-3.58-9.73-11.84-14.35-7.22-.61.62-.94,1.81-.52,2.61.69,1.34,2.32.45,3.59.53,11.99.68,5.83,27.67,14.39,32.51,9.65,5.45,7.22-8.44,5.35-12.87-1.54-3.65-3.31-7.19-5.31-10.59"/>
      <path class="cls-2" d="M34.25,74.26c2.91.4,6.29.79,7.63-1.47,1.22-2.04,2.43-4.06,3.79-6.05,3.3-4.83,6.44-9.49,8.71-14.76.98-2.29,2.56-4.37,3.81-6.56,1.46-2.56,2.43-5.23,3.85-7.79,3.29-5.89,6.01-11.24,6.4-17.89.04-.7.99-.36.96.24-.48,8.47-5.12,15.36-8.64,23.05-1.57,3.41-4.25,6.42-5.66,9.86-1.45,3.53-3.31,7.05-5.62,10.23-1.35,1.86-2.66,3.74-3.94,5.64-1.21,1.8-2.09,3.81-3.36,5.57-.17.24-.36.44-.56.62.19.12.34.24.41.34.64.84.68,1.98.66,2.94-.05,2.85-1.37,5.55-1.33,8.4.07,5.43-.4,9.91-7.82,8.19-.91-.21-1.83-.48-2.57-1.02-1.34-.98-1.83-2.65-2.14-4.21-.86-4.39-.92-8.9-.17-13.3.13-.78.35-1.64,1.06-2.07.56-.33,1.27-.31,1.93-.27.76.04,1.66.17,2.6.3"/>
      <path class="cls-3" d="M7.68,19.6c2,.59,2.02,3.27.29,4.21-1.6.88-5.34-.4-6.54-1.41-1.39-1.19-2.55-3.67.44-4,2.07-.23,3.92.65,5.81,1.2"/>
    </g>
  </g>
</svg>