<?xml version="1.0" encoding="UTF-8"?>
<svg id="Calque_2" xmlns="http://www.w3.org/2000/svg" viewBox="0 0 22.89 38.7">
  <defs>
    <style>
      .cls-1 {
        fill: #236;
      }

      .cls-2 {
        fill: #fff;
      }

      .cls-3 {
        fill: #f1c202;
      }

      .cls-4 {
        fill: #f18b6a;
      }

      .cls-5 {
        fill: #265ba4;
      }

      .cls-6 {
        fill: #fcc840;
      }

      .cls-7 {
        fill: #da5913;
      }

      .cls-8 {
        fill: #f6a105;
      }

      .cls-9 {
        fill: #009d4a;
      }

      .cls-10 {
        fill: #e75212;
      }

      .cls-11 {
        fill: #1797d5;
      }

      .cls-12 {
        fill: #d5d4d3;
      }

      .cls-13 {
        fill: #e53d15;
      }

      .cls-14 {
        fill: #f4c903;
      }

      .cls-15 {
        fill: #56adad;
      }

      .cls-16 {
        fill: #e1f2fd;
      }
    </style>
  </defs>
  <g id="Calque_1-2" data-name="Calque_1">
    <g>
      <g>
        <path class="cls-12" d="M22.73,11.06c0-.21-.15-.46-.32-.56-.18-.1-.32-.02-.32.19,0,.21.15.46.32.56s.32.02.32-.19"/>
        <path class="cls-12" d="M21.82,10.47c.09-.13.04-.39-.12-.58-.16-.19-.35-.25-.44-.12-.09.13-.04.39.12.58.16.19.35.24.44.12"/>
        <path class="cls-12" d="M21.06,9.45c.15-.01.21-.21.12-.44-.09-.23-.29-.41-.44-.39-.16.01-.21.21-.12.44.09.23.29.41.44.39"/>
        <polygon class="cls-6" points="15.55 3.06 17.03 3.92 17.32 3.75 15.84 2.87 15.55 3.06"/>
        <polygon class="cls-8" points="15.55 3.06 15.55 4.23 17.03 5.1 17.03 3.92 15.55 3.06 15.55 3.06"/>
        <polygon class="cls-7" points="17.03 3.92 17.03 5.1 17.32 4.92 17.32 3.75 17.03 3.92"/>
        <path class="cls-4" d="M11.04,5.81c-.04.49-.44.51-.93.48-.49-.04-.86-.47-.82-.96.04-.49.47-.86.96-.82.49.04.84.81.8,1.31"/>
        <path class="cls-4" d="M9.89,5.62c.29-.21.7-.14.9.12.21.24.42.48.63.72.66.69,1.67,1.69,2.27,2.28.28-.81.79-2.49,1.36-3.32.61-.88,2.81-1.78,2.43.27,0,.06-.02.11-.03.17-.23,1-.78,1.87-1.28,2.77-.52.93-.72,1.91-1.61,2.62-.32.26-.67.46-.95.43-.44-.03-.89-.57-1.19-1.01-.02-.04-.05-.09-.07-.12-.07-.1-.13-.2-.2-.3l-.06-.12-2.33-3.77c-.16-.25-.11-.58.13-.75"/>
        <path class="cls-14" d="M14.47,21.12s-.07,0-.11,0c.05,0,.08,0,.11,0"/>
        <path class="cls-4" d="M15.97,34.95c0,.09,0,.17-.02.26-.03.26-.14.46-.37.52-.49.13-3.42-.36-2.81-.87.05-.05.41-.13.76-.19.37-.07.73-.11.74-.07-.32-.94-1.96-5.81-2.47-7.28,0,0,0,0,0,0-.54-1.46-.86-3-.92-4.56l-.07-1.99c.97-.08,1.93-.2,2.9-.26.15,0,.3-.02.44-.03.05,0,.27,0,.32,0,0,0,.01,0,.01,0,.18,0,.37,0,.55.02l-.4,4.37c.13,1.12.3,2.52.43,3.53.12.89.24,1.77.37,2.65.02.14.04.27.06.41.1.65.2,1.29.3,1.94.05.31.2.98.18,1.56"/>
        <path class="cls-4" d="M22.54,32.38c-.19.33-.73,1.73-1.21,1.55-.22-.08-.25-.35-.2-.64.04-.28.14-.57.16-.72.12-.73-.14-.97-.6-1.52-.39-.45-.78-.9-1.17-1.34-.3-.34-.59-.68-.89-1.02-.83-.96-1.24-1.28-2.27-2.43-.84-.94-1.81-2.22-2.75-3.54.08-.11.17-.21.26-.32.01-.02.03-.04.04-.06.08-.09.15-.17.23-.26.16-.18.31-.36.47-.54.64-.43,1.28-.88,1.9-1.34.42.76.84,1.52,1.26,2.27.58,1.03,1.41,2.5,2.01,3.51.45.78.91,1.54,1.37,2.3.07.12.14.24.21.35.41.67.83,1.33,1.25,1.98.05.07.09.14.14.21.31.48.06,1.09-.2,1.54"/>
        <path class="cls-15" d="M20.42,20.98c-.02-.39-.1-.77-.22-1.13v-.03s-2.18-8.76-2.18-8.76c-1.83.3-3.73.13-5.64-.25-.74-.15-1.4.38-1.46,1.18l-.84,10.5c0,.29-.4,3.09,5.34,3.09,1.14,0,2.07-.24,2.81-.65h0s.01,0,.01,0c.21-.11.41-.24.58-.38l1-.65c.62-.4.92-1.19.77-2l-.17-.92Z"/>
        <path class="cls-14" d="M13.39,5.53v-.15c-.07.04-.15.1-.22.16h-.01s-.05.08-.05.08c.09-.03.19-.06.29-.09"/>
        <path class="cls-16" d="M13.08,12.88l2.11.16,2,.15c-.46-.58-.77-1.29-.85-2.02-.06-.56-.01-1.15-.2-1.68-.03-.09-.07-.18-.12-.27-.62,1.27-1.56,2.7-2.94,3.67"/>
        <path class="cls-14" d="M13.35.25s0,.01,0,.02c0,0,.01-.01.02-.02h0Z"/>
        <path class="cls-4" d="M13.89,5.71c.21-.11.42-.2.65-.27-.48-1.3-.6-2.81-.66-4.22l-1.28-.19c-.04.27-.1.62-.15.96-.13.78.37,1.53,1.14,1.72l.28,1.85.02.15Z"/>
        <path class="cls-15" d="M18.61,5.36c-1-1.44-3.32-1.09-4.61-.4-.97.51-2.52,1.43-2.78,2.59-.14.62-.08.93.21,1.46,0,.6.01,1.19.02,1.79.01,1.05-.33,2.17.74,2.71.6.3,1.26.37,1.94.42,1.36.1,3.45.19,4.48-.87.55-.57.37-1.63.27-2.34-.12-.89.03-1.64.2-2.53.17-.91.07-2.05-.47-2.83"/>
        <path class="cls-3" d="M20.95,8.15c-.74-.52-1.62-.91-2.15-1.65-.32-.44-.48-.96-.67-1.47-.46-1.16-1.12-2.23-1.77-3.29-.37-.6-.77-1.22-1.41-1.54-.61-.3-1.72-.35-2.12.3-.61,1.01.64,1.7.69,2.61.04.79-.13,1.56-.02,2.36.04.32.11.63.2.93.14.48.36.93.66,1.35.33.46.76.86,1.02,1.36.04.08.08.17.12.26.18.51.14,1.07.2,1.61.08.71.38,1.38.82,1.94.14.17.29.33.45.48.72.66,1.67,1.06,2.65,1.01,1.92-.11,3.55-2.11,3.08-3.96-.24-.95-.94-1.74-1.75-2.31"/>
        <path class="cls-13" d="M22.54,32.38c-.19.33-.73,1.73-1.21,1.55-.22-.08-.25-.35-.2-.64.1-.09.21-.18.32-.29.54-.59.33-1.9,1.2-2.25-.13-.03-.03.02-.04-.12,0,0,0,0,0,0,.05.07.09.14.14.21.31.48.06,1.09-.2,1.54"/>
        <path class="cls-13" d="M15.97,34.95c0,.09,0,.17-.02.26-.03.26-.14.46-.37.52-.49.13-3.42-.36-2.81-.87.05-.05.41-.13.76-.19-.3.28.63.41.85.41.69.01,1.2-.04,1.59-.13"/>
        <path class="cls-5" d="M16.09,34.22c-.12.01-.18.02-.13,0,.04,0,.09,0,.13,0"/>
        <path class="cls-11" d="M10.34,5.62l-1.46.74c-.09.05-.2,0-.23-.1l-.84-2.62c-.02-.08,0-.16.08-.2l1.46-.74c.09-.05.2,0,.23.1l.84,2.62c.02.08-.01.16-.08.2"/>
        <path class="cls-1" d="M9.89,5.13l-.96.48c-.1.05-.22,0-.25-.11l-.51-1.6c-.03-.08.01-.18.09-.22l.96-.48c.1-.05.22,0,.25.11l.51,1.6c.03.08-.01.18-.09.22"/>
        <path class="cls-10" d="M9.62,5.63c-.03-.08-.1-.11-.18-.08-.07.04-.11.13-.08.21s.1.11.18.08c.07-.04.11-.13.08-.21"/>
        <path class="cls-4" d="M10.67,5.45h0c-.06.16-.23.24-.39.18l-.83-.31c-.16-.06-.24-.23-.18-.39.06-.16.23-.24.39-.18l.83.31c.16.06.24.23.18.39"/>
        <path class="cls-4" d="M13,8.42c-1.38-.66-1.55-.12-1.55-.12l-.3.24c-.11.64-.13,1.3-.17,1.96-.02.39-.05.78-.11,1.16-.29,1.87-1.97,1.52-3.02,3.02-.31.24-.34.7-.05.99.21.21.53.24.79.1,1.21-1.19,3.17-.9,3.71-2.35.3-.81.58-1.58.81-2.37.16-.57.31-1.15.42-1.76h0c.06-.32-.08-.64-.36-.8-.05-.03-.1-.06-.16-.08"/>
      </g>
      <path class="cls-4" d="M2.97,31.1c.11-.23.19-.46.25-.7.37.05.75.08,1.13.08l.54.02c.07.16.14.32.22.48.02.06.04.13.06.19-.24.74-.56,1.53-.59,2.26-.02.64-.1,1.28-.1,1.92,0,.36-.02.71-.07,1.06-.03.21-.05.51-.12.72-.31.07-.63.05-.89-.11-.1-.56-.14-1.16-.16-1.71-.02-.65-.04-1.3-.01-1.96,0-.04.01-.08.02-.12-.06-.71-.21-1.42-.28-2.13"/>
      <path class="cls-9" d="M4.32,36.87c-.34.01-.65-.07-.93-.19-.01.08-.03.18-.03.27-.86-.21-.87.07-.29.44.18.11.55.3.77.28.27-.02.4-.25.44-.45.03-.09.04-.21.04-.35"/>
      <path class="cls-4" d="M.88,34.25c-.06-.71-.21-1.42-.28-2.13.24-.49.35-1.04.36-1.58l.91.03c.46.01.92-.04,1.35-.14-.07.41-.16.82-.27,1.23-.22.88-.71,1.87-.74,2.78-.02.64-.1,1.28-.1,1.92,0,.36-.02.71-.07,1.06-.03.21-.05.51-.12.72-.31.07-.63.05-.89-.11-.1-.56-.14-1.16-.16-1.71-.02-.65-.04-1.3-.01-1.96,0-.04.01-.08.02-.12"/>
      <path class="cls-9" d="M1.96,37.9c-.34.01-.65-.07-.93-.19-.01.08-.03.18-.03.27-.86-.21-.87.07-.29.44.18.11.55.3.77.28.27-.02.4-.25.44-.45.03-.09.04-.21.04-.35"/>
      <path class="cls-13" d="M.59,32.05c0-.28.02-.51.09-.64.42-.77,1.45-1.06,1.92-1.33.5-.29,1-.6,1.5-.94.11-.08.22-.15.33-.2.25-.44.66-.74.72-.26,0,0,0,.02,0,.03.03,0,.05.03.07.05.04.22.04.44.06.68,0,.1.09.18-.03.2,0,.01,0,.03,0,.04l.22.55-.09,2.68s-.46,1.65-2.22,1.28l-.08-2.55c-.05.04-.14.09-.14.14l-.07,2.14s-.46,1.65-2.23,1.28l-.11-3.12.07-.03Z"/>
      <path class="cls-4" d="M2.15,20.15c.08-.36.42-.55.51-.28,0,0,.01,0,.02,0,.24.04.42.33.55.63l.06-.07.63,2.28c.12.42-.04,1.03-.35,1.36-.31.33-.65.26-.77-.16l-.11-.39-.17-.61-.1-.35c-.14-.03-.26-.13-.36-.29-.3-.49-.1-1.38.07-2.11"/>
      <path class="cls-2" d="M3.48,23.05c1.01-.4,2.2-.61,2.42.67.24,1.46-.19,2.96-.1,4.43.03.6-.06,1.26-.16,1.76-.1.48-.46.87-.96,1.04-1.09.36-3.03.93-3.54.64-.82-.46-.47-1.64-.46-2.45,0-.92-.56-.76-.54-.84-.25.18.03-.85.04-1.17.05-1.65.88-2.91,2.44-3.68.25-.12.55-.27.87-.4"/>
      <path class="cls-3" d="M1.69,20.07s-.02-.07-.03-.12c.54-.22,1.6-.41,2,.08.36.45.76,1.4.46,1.96-.23.45-.75.67-1.09.19-.17-.25.07-1.2-.54-.73-.02.04-.01.04,0,0,.07-.91-.6-.76-.82-1.39"/>
      <path class="cls-4" d="M1.23,28.21c.04.72-.06,1.48-.12,2.19-.02.26-.28,3.46-.61,3.41-.49-.08-.3-1.5-.31-1.86,0-.3-.02-.63-.04-.96-.06-.98-.29-2.04-.02-3.01.35.16.73.25,1.1.23"/>
      <path class="cls-4" d="M8.65,15.04c-.71,2.76-1.56,5.32-2.79,7.85-.22.44-.56,1.33-1.11,1.02-.56-.31-.16-1.59.04-2.05.54-1.23,1.55-2.23,2.01-3.45.47-1.25.5-2.69,1.51-3.67"/>
      <path class="cls-2" d="M3.01,23.23c.37-.27.7-.59,1.03-.92.27-.19.64-.47,1.16-.91,1.67.88.41,2.26.12,3.7.02-.05.03.02-.03.14,0,.04-.01.08-.02.13,0-.04,0-.08,0-.11,0,0,0,0,0,.01-.73-.56-1.74-1.28-2.26-2.04"/>
    </g>
  </g>
</svg>