<?xml version="1.0" encoding="UTF-8"?>
<svg id="Calque_2" xmlns="http://www.w3.org/2000/svg" viewBox="0 0 26.19 39.75">
  <defs>
    <style>
      .cls-1 {
        fill: #236;
      }

      .cls-2 {
        fill: #fff;
      }

      .cls-3 {
        fill: #f1c202;
      }

      .cls-4 {
        fill: #f18b6a;
      }

      .cls-5 {
        fill: #fcc840;
      }

      .cls-6 {
        fill: #da5913;
      }

      .cls-7 {
        fill: #f6a105;
      }

      .cls-8 {
        fill: #009d4a;
      }

      .cls-9 {
        fill: #e75212;
      }

      .cls-10 {
        fill: #1797d5;
      }

      .cls-11 {
        fill: #d5d4d3;
      }

      .cls-12 {
        fill: #e53d15;
      }

      .cls-13 {
        fill: #f4c903;
      }

      .cls-14 {
        fill: #56adad;
      }

      .cls-15 {
        fill: #e1f2fd;
      }
    </style>
  </defs>
  <g id="Calque_1-2" data-name="Calque_1">
    <g>
      <path class="cls-4" d="M.05,7.45s-.03-.04-.05-.06l.04-.35c.01.14.02.27.01.4"/>
      <g>
        <path class="cls-11" d="M26.14,11.37c0-.21-.15-.47-.33-.58-.18-.11-.33-.02-.33.19,0,.21.15.47.33.58s.33.02.33-.19"/>
        <path class="cls-11" d="M25.2,10.77c.09-.13.04-.4-.12-.6-.16-.2-.36-.25-.45-.12-.09.13-.04.4.12.6.16.2.36.25.46.12"/>
        <path class="cls-11" d="M24.42,9.72c.16-.01.21-.22.12-.45-.09-.24-.3-.42-.45-.4-.16.01-.21.22-.12.46.09.24.3.42.46.4"/>
        <polygon class="cls-5" points="18.75 3.14 20.27 4.04 20.58 3.85 19.05 2.96 18.75 3.14"/>
        <polygon class="cls-7" points="18.75 3.14 18.75 4.36 20.27 5.25 20.27 4.04 18.75 3.14 18.75 3.14"/>
        <polygon class="cls-6" points="20.27 4.04 20.27 5.25 20.58 5.07 20.58 3.85 20.27 4.04"/>
        <path class="cls-4" d="M14.11,5.97c-.04.51-.45.53-.96.49-.51-.04-.89-.48-.85-.99.04-.51.48-.89.99-.85.51.04.86.84.82,1.34"/>
        <path class="cls-4" d="M12.93,5.78c.29-.21.72-.15.93.12.22.25.43.49.65.74.68.71,1.72,1.74,2.34,2.35.29-.83.81-2.57,1.4-3.41.62-.9,2.89-1.83,2.5.28-.01.06-.02.11-.04.17-.23,1.03-.8,1.93-1.32,2.85-.54.96-.74,1.97-1.66,2.69-.33.26-.69.47-.97.45-.45-.03-.92-.59-1.22-1.03-.02-.04-.05-.09-.07-.12-.07-.1-.14-.2-.21-.31l-.06-.13-2.4-3.88c-.17-.26-.12-.59.14-.77"/>
        <path class="cls-13" d="M17.64,21.72s-.07,0-.11,0c.05,0,.08,0,.11,0"/>
        <g>
          <path class="cls-12" d="M16.22,36.31c.03.29.05.59.06.88,0,.21,0,.44-.11.6-.11.16-.38.21-.54.05-.06-.06-.1-.15-.16-.21-.16-.16-.41-.09-.6-.03-.29.1-.59.16-.91.18-.22.02-.55-.1-.52-.32.01-.09.09-.15.17-.19.53-.33,1.08-.65,1.63-.95.16-.09.33-.17.52-.16.19.01.41.16.44.35l.02-.2Z"/>
          <path class="cls-12" d="M21,34.72c.03.25.04.5.05.75,0,.19,0,.4-.1.56-.1.16-.35.25-.5.12-.54-.47-1.35-.16-2.03-.48-.15-.07-.3-.28-.17-.38.23-.16,1.1-.15,1.47-.34.42-.21.91-.8,1.24-.11.02-.02.01-.14.02-.13"/>
          <path class="cls-4" d="M21,34.69c-.02.08-.04.13-.05.18-.19.1-.39.22-.58.27-.03,0-.07-.01-.1-.02-.09-.03-.18-.08-.27-.13-.04-.12-.07-.26-.1-.45-.25-2.3-.24-4.63-.25-6.95,0-.48.28-.91.7-1.09.18-.08.31-.11.43-.1l1.02-.05c.63,1.9.02,2.76-.12,4.77-.07.99-.41,2.64-.68,3.59"/>
          <path class="cls-4" d="M16.08,36.89c-.18.16-.43.14-.69.05-.27-.1-.46-.34-.52-.62-.38-1.67-.25-4.74-.25-5.49-.01-1.07-.06-2.33.52-3.25.47-.75,1.39-.46,1.61.34.47,1.72.38,3.52.1,5.26-.09.52-.33,2.69-.76,3.7"/>
          <path class="cls-4" d="M19.65,23.3c-.09,1.02-.05,2.01.08,3.01.04.3.07.6.2.87.12.27.34.52.63.6.37.1.77-.1,1.02-.4.24-.3.36-.68.47-1.05.43-1.46.77-2.94,1.06-4.43"/>
          <path class="cls-4" d="M14.87,23.5c-.03,1.04-.17,2.06-.18,3.1,0,.7-.19,2.85.56,3.25.87.47,1.51-.71,1.78-1.29.41-.91.73-1.92.93-2.9.09-.45.24-.95.38-1.46"/>
        </g>
        <path class="cls-14" d="M23.76,21.58c-.02-.4-.1-.79-.23-1.16v-.03s-2.24-9.01-2.24-9.01c-1.88.31-3.84.14-5.8-.26-.76-.15-1.44.39-1.5,1.21l-.86,10.8c0,.3-.41,3.18,5.49,3.18,1.17,0,2.13-.25,2.89-.66h0s.01,0,.01,0c.22-.12.42-.25.6-.39l1.02-.67c.63-.41.95-1.22.79-2.05l-.18-.94Z"/>
        <path class="cls-13" d="M16.54,5.69v-.15c-.07.05-.15.1-.23.16h-.01s-.06.08-.06.08c.1-.03.2-.06.3-.09"/>
        <path class="cls-15" d="M16.22,13.25l2.17.16,2.06.15c-.47-.6-.79-1.32-.87-2.08-.06-.58-.01-1.18-.21-1.73-.03-.1-.08-.19-.12-.28-.64,1.3-1.61,2.78-3.02,3.77"/>
        <path class="cls-13" d="M16.5.25s0,.01,0,.02c0,0,.01-.01.02-.02h-.01Z"/>
        <path class="cls-4" d="M17.05,5.87c.21-.11.44-.2.67-.28-.5-1.34-.61-2.89-.68-4.35l-1.31-.2c-.04.28-.1.64-.16.99-.13.81.38,1.58,1.17,1.77l.29,1.9.02.15Z"/>
        <path class="cls-14" d="M21.91,5.52c-1.02-1.48-3.41-1.12-4.75-.41-1,.53-2.59,1.47-2.86,2.66-.14.64-.08.96.22,1.51,0,.61.01,1.23.02,1.84.01,1.08-.34,2.23.76,2.79.61.31,1.29.38,1.99.43,1.4.1,3.55.19,4.6-.9.57-.59.38-1.68.28-2.41-.12-.91.03-1.69.21-2.6.18-.94.07-2.11-.48-2.91"/>
        <path class="cls-3" d="M24.31,8.39c-.77-.54-1.67-.94-2.21-1.7-.32-.45-.49-.99-.69-1.51-.47-1.19-1.15-2.29-1.82-3.38-.38-.61-.8-1.26-1.45-1.58-.63-.31-1.77-.36-2.18.31-.63,1.04.66,1.75.71,2.68.05.81-.13,1.6-.02,2.42.04.33.11.65.2.96.15.49.37.95.68,1.38.34.47.79.89,1.05,1.4.05.09.09.18.12.27.19.53.14,1.1.2,1.66.08.73.39,1.42.85,2,.14.18.3.34.46.5.74.68,1.72,1.09,2.73,1.04,1.98-.11,3.65-2.17,3.17-4.08-.25-.98-.96-1.79-1.8-2.37"/>
        <path class="cls-10" d="M13.4,5.79l-1.5.76c-.09.05-.21,0-.24-.1l-.87-2.7c-.03-.08.01-.17.08-.2l1.5-.76c.09-.05.21,0,.24.1l.87,2.7c.03.08-.01.17-.08.2"/>
        <path class="cls-1" d="M12.93,5.27l-.98.5c-.1.05-.22,0-.26-.11l-.53-1.64c-.03-.09.01-.18.09-.22l.98-.5c.1-.05.23,0,.26.11l.53,1.64c.03.09-.01.18-.09.22"/>
        <path class="cls-9" d="M12.65,5.79c-.03-.08-.11-.12-.18-.08-.07.04-.11.13-.09.21s.11.12.18.08c.07-.04.11-.13.09-.21"/>
        <path class="cls-4" d="M13.74,5.61h0c-.06.16-.24.24-.4.18l-.86-.32c-.16-.06-.24-.24-.18-.4.06-.16.24-.24.4-.18l.86.32c.16.06.24.24.18.4"/>
        <path class="cls-4" d="M16.13,8.66c-1.42-.67-1.6-.12-1.6-.12l-.31.24c-.11.66-.14,1.34-.18,2.02-.02.4-.06.81-.12,1.2-.3,1.93-2.02,1.56-3.11,3.11-.31.25-.35.72-.05,1.02.21.21.55.24.82.1,1.24-1.23,3.26-.93,3.82-2.41.31-.83.59-1.62.83-2.44.17-.58.32-1.18.43-1.81h0c.06-.33-.09-.66-.37-.82-.05-.03-.11-.06-.16-.08"/>
      </g>
      <path class="cls-4" d="M8.07,32.17c.11-.23.19-.46.25-.7.37.05.74.08,1.13.08l.54.02c.07.16.14.32.22.48.02.06.04.13.06.19-.24.74-.56,1.52-.58,2.26-.02.64-.1,1.27-.1,1.91,0,.36-.02.71-.07,1.06-.03.21-.05.51-.12.72-.31.07-.62.05-.89-.11-.1-.55-.14-1.16-.16-1.71-.02-.65-.04-1.3-.01-1.95,0-.04.01-.08.02-.12-.06-.71-.21-1.42-.27-2.12"/>
      <path class="cls-8" d="M9.42,37.93c-.34.01-.65-.07-.93-.19-.01.08-.03.18-.03.27-.86-.21-.87.07-.29.43.18.11.55.3.77.28.27-.02.4-.25.44-.44.03-.09.04-.21.04-.35"/>
      <path class="cls-4" d="M5.98,35.32c-.06-.71-.21-1.42-.27-2.12.24-.49.35-1.03.36-1.58l.9.03c.46.01.91-.04,1.34-.14-.07.41-.16.82-.27,1.23-.22.88-.7,1.87-.73,2.77-.02.64-.1,1.27-.1,1.91,0,.35-.02.71-.07,1.06-.03.21-.05.51-.12.72-.31.07-.62.05-.89-.11-.1-.55-.14-1.16-.16-1.71-.02-.65-.04-1.3-.01-1.95,0-.04.01-.08.02-.12"/>
      <path class="cls-8" d="M7.06,38.96c-.34.01-.65-.07-.93-.19-.01.08-.03.18-.03.27-.86-.21-.87.07-.29.43.18.11.55.3.77.28.27-.02.4-.25.44-.44.03-.09.04-.21.04-.35"/>
      <path class="cls-12" d="M5.69,33.12c0-.27.02-.5.09-.64.42-.77,1.45-1.06,1.92-1.33.5-.29.99-.6,1.5-.94.11-.07.22-.15.32-.2.25-.44.66-.73.71-.26,0,0,0,.02,0,.03.03,0,.05.03.07.05.04.22.04.44.06.67,0,.1.09.18-.03.2,0,.01,0,.03,0,.04l.22.55-.09,2.67s-.46,1.65-2.22,1.28l-.08-2.54c-.05.04-.14.09-.14.14l-.07,2.14s-.46,1.65-2.22,1.28l-.11-3.11.07-.03Z"/>
      <path class="cls-4" d="M7.26,21.25c.08-.36.42-.55.51-.28,0,0,.01,0,.02,0,.24.04.42.33.55.63l.06-.07.63,2.27c.12.42-.04,1.02-.35,1.35-.31.33-.65.26-.77-.16l-.11-.39-.17-.61-.1-.35c-.14-.03-.26-.13-.36-.29-.3-.49-.1-1.37.07-2.1"/>
      <path class="cls-4" d="M9.95,26.15c.16-.17.31-.35.45-.53.21-.26-.07-1.16-.09-.84-.05.78,1.25,0,.66,2.53-.77,3.32-.4,1.55-.27,1.44.05-.04-.09.11-.15.18-.2.2-.51.39-.74.21-.2-.16.04-1.12.05-1.33.03-.55.06-1.11.09-1.66"/>
      <path class="cls-2" d="M8.58,24.14c1.01-.4,2.2-.61,2.41.67.24,1.46-.18,2.96-.1,4.42.03.6-.06,1.26-.16,1.75-.1.48-.46.87-.95,1.03-1.09.36-3.02.93-3.54.64-.82-.46-.47-1.63-.46-2.45,0-.92-.56-.76-.54-.84-.25.18.03-.85.04-1.16.05-1.65.87-2.9,2.43-3.67.25-.12.55-.27.87-.4"/>
      <path class="cls-3" d="M6.8,21.18s-.02-.07-.03-.12c.54-.22,1.6-.41,2,.08.36.45.75,1.39.46,1.96-.23.45-.75.67-1.08.19-.17-.25.07-1.2-.54-.72-.02.04-.01.04,0,0,.07-.91-.6-.76-.81-1.39"/>
      <path class="cls-4" d="M6.34,29.29c.04.72-.06,1.48-.12,2.19-.02.26-.28,3.45-.61,3.4-.49-.08-.3-1.5-.31-1.86,0-.3-.02-.63-.04-.96-.06-.98-.29-2.03-.02-3,.35.16.73.25,1.1.23"/>
    </g>
  </g>
</svg>