<?xml version="1.0" encoding="UTF-8"?>
<svg id="Calque_2" xmlns="http://www.w3.org/2000/svg" viewBox="0 0 20.04 40.03">
  <defs>
    <style>
      .cls-1 {
        fill: #fff;
      }

      .cls-2 {
        fill: #f1c202;
      }

      .cls-3 {
        fill: #f18b6a;
      }

      .cls-4 {
        fill: #009d4a;
      }

      .cls-5 {
        fill: #e53d15;
      }

      .cls-6 {
        fill: #56adad;
      }
    </style>
  </defs>
  <g id="Calque_1-2" data-name="Calque_1">
    <g>
      <path class="cls-5" d="M11.39,34.75c.03.29.05.57.06.86,0,.21,0,.43-.11.59-.11.16-.37.21-.53.05-.06-.06-.1-.15-.16-.21-.16-.16-.4-.09-.59-.03-.28.1-.58.16-.89.18-.22.02-.54-.1-.51-.32.01-.09.09-.14.16-.19.52-.33,1.06-.64,1.6-.93.15-.08.32-.17.51-.16.19.01.4.16.43.35l.02-.19Z"/>
      <path class="cls-3" d="M2.9,32.59c.11-.22.19-.45.24-.69.36.05.73.08,1.11.07l.53.02c.06.16.14.31.21.47.02.06.04.12.06.19-.23.72-.55,1.5-.57,2.21-.02.63-.09,1.25-.1,1.88,0,.35-.02.7-.07,1.04-.03.2-.05.5-.12.71-.3.06-.61.05-.87-.11-.1-.54-.14-1.14-.16-1.67-.02-.64-.04-1.28-.01-1.91,0-.04.01-.08.02-.12-.06-.69-.21-1.39-.27-2.08"/>
      <path class="cls-4" d="M4.23,38.24c-.34.01-.64-.07-.91-.18-.01.08-.03.17-.03.26-.85-.2-.85.07-.28.43.17.11.54.3.76.28.26-.02.39-.24.43-.44.03-.09.04-.2.04-.35"/>
      <path class="cls-3" d="M.86,35.68c-.06-.69-.2-1.39-.27-2.08.23-.48.34-1.01.35-1.55l.89.03c.45.01.9-.04,1.32-.14-.07.4-.16.81-.26,1.2-.22.86-.69,1.83-.72,2.72-.02.63-.09,1.25-.1,1.88,0,.35-.02.7-.07,1.04-.03.2-.05.5-.12.71-.3.06-.61.05-.87-.11-.1-.54-.14-1.14-.16-1.67-.02-.64-.04-1.28-.01-1.91,0-.04.01-.08.02-.12"/>
      <path class="cls-4" d="M1.92,39.24c-.34.01-.64-.07-.91-.18-.01.08-.03.17-.03.26-.85-.2-.85.07-.28.43.17.11.54.3.76.28.26-.02.39-.24.43-.44.03-.09.04-.2.04-.35"/>
      <path class="cls-5" d="M.57,33.52c0-.27.02-.49.09-.63.42-.75,1.42-1.04,1.88-1.3.49-.28.98-.59,1.47-.92.11-.07.22-.15.32-.2.24-.43.65-.72.7-.25,0,0,0,.02,0,.03.03,0,.05.03.07.04.04.21.04.43.06.66,0,.1.08.18-.03.19,0,.01,0,.02,0,.04l.21.54-.09,2.62s-.45,1.62-2.18,1.25l-.08-2.49c-.05.04-.14.09-.14.14l-.07,2.1s-.45,1.62-2.18,1.25l-.11-3.05.07-.03Z"/>
      <path class="cls-3" d="M2.11,21.88c.08-.35.41-.54.5-.28,0,0,.01,0,.02,0,.23.04.41.32.54.62l.06-.07.62,2.23c.11.41-.04,1.01-.34,1.33-.3.32-.64.25-.75-.16l-.11-.38-.17-.6-.09-.34c-.14-.03-.26-.13-.35-.29-.29-.48-.1-1.35.06-2.06"/>
      <path class="cls-1" d="M3.41,24.71c.99-.39,2.16-.6,2.37.65.24,1.43-.18,2.9-.1,4.34.03.59-.06,1.24-.16,1.72-.09.47-.45.85-.93,1.01-1.07.35-2.96.91-3.47.63-.8-.45-.46-1.6-.45-2.4,0-.9-.55-.75-.53-.82-.25.18.03-.83.04-1.14.05-1.61.86-2.85,2.39-3.6.24-.12.54-.26.86-.39"/>
      <path class="cls-2" d="M1.65,21.8s-.02-.07-.03-.11c.53-.22,1.57-.4,1.96.08.36.44.74,1.37.45,1.92-.23.44-.73.66-1.06.19-.17-.24.07-1.18-.53-.71-.02.04-.01.04,0,0,.07-.89-.59-.75-.8-1.36"/>
      <path class="cls-5" d="M16.09,33.2c.03.25.04.49.05.74,0,.19,0,.39-.1.55-.1.16-.34.24-.49.12-.52-.46-1.33-.15-1.99-.47-.15-.07-.3-.27-.16-.37.23-.16,1.08-.15,1.44-.33.42-.21.89-.78,1.22-.11.02-.02.01-.14.02-.13"/>
      <path class="cls-3" d="M13.74.59c.07-.22.32-.34.54-.33.58.04.64.75.66,1.19.02.45.1,1.09-.1,1.52-.06.13-.15.22-.26.27-.08.18-.25.33-.5.33-.67-.01-.79-.59-.75-1.14.05-.61.21-1.26.4-1.84"/>
      <path class="cls-3" d="M15.87,3.22c-.07-.22-.17-.39-.33-.5-.24-.16-.57-.19-.84-.06-.89.41-.47,1.17-.4,1.82.03.23.05.46.07.69.02.2.19.32.39.35.32.29.99.23,1.09-.29.09-.46.21-1.39.02-2.01"/>
      <path class="cls-3" d="M16.08,33.17c-.02.07-.04.13-.05.17-.18.1-.38.21-.57.27-.03,0-.07-.01-.1-.02-.09-.03-.18-.08-.26-.13-.04-.11-.07-.26-.09-.45-.25-2.26-.23-4.54-.24-6.81,0-.48.28-.89.69-1.07.17-.08.31-.11.42-.1l1-.05c.62,1.86.02,2.7-.12,4.67-.07.97-.41,2.59-.67,3.52"/>
      <path class="cls-3" d="M11.25,35.33c-.18.15-.42.14-.67.05-.26-.1-.45-.33-.51-.6-.37-1.64-.24-4.65-.25-5.38-.01-1.05-.05-2.28.51-3.19.46-.73,1.36-.46,1.57.34.46,1.68.37,3.45.09,5.16-.08.51-.32,2.64-.74,3.63"/>
      <path class="cls-3" d="M17.22,18.18c-.37-.1-.7-.06-.99.08l-.38-.27c-.17.36-.33.73-.46,1.11-.48.8-.7,1.95-.63,2.9-.09,1-.05,1.97.08,2.96.04.29.07.59.19.86.12.27.33.51.62.59.37.1.76-.1,1-.39.24-.29.36-.66.46-1.03.42-1.43.76-2.88,1.04-4.35.19-1.01.33-2.1-.92-2.45"/>
      <path class="cls-3" d="M13.48,22.89c.28-1,.53-2.07.29-2.98-.29-1.12-1.87-1.84-2.91-1.17-1.11.72-.75,2.34-.78,3.46-.03,1.02-.17,2.02-.18,3.04,0,.68-.19,2.79.55,3.19.85.46,1.49-.69,1.74-1.26.41-.89.72-1.89.92-2.85.09-.44.24-.93.37-1.43"/>
      <path class="cls-3" d="M20.03,8.74s-.03-.04-.05-.06l.04-.34c.01.14.02.27.01.4"/>
      <path class="cls-3" d="M18.95,10.01c.16-.17.3-.35.44-.52.2-.25.4-.51.58-.78.02.81-.04,1.63-.02,2.44.01.44,0,1.03-.27,1.42-.03.05-.09.11-.15.17-.2.19-.5.38-.73.2-.2-.16.04-1.1.05-1.31.03-.54.06-1.08.09-1.63"/>
      <path class="cls-6" d="M9.43,21.77c.07-1.32.46-2.94.56-3.75.21-1.83.48-3.65.83-5.46.11-.6.24-1.15.38-1.74,0,0-.98-.67-1.06-.81-.22-.39-.06-.68.07-1.12.29-.92.64-1.86,1.3-2.58.82-.9,2-1.36,3.15-1.73,1.56-.5,3.2.09,4.22,1.34.48.58.99,1.49,1.14,2.23.16.87-.62,1.22-.83,1.94-.16.57-.08,1.41-.13,2.01-.1,1.09-.19,2.19-.29,3.28,0,.02-.02.04-.02.06-.11.3-.11.83-.12,1.05-.07,1.67.13,3.34.3,5.01-.11.91-1.44,2.9-4.94,3.19-4.79.4-4.56-2.29-4.56-2.81,0-.04,0-.08,0-.12"/>
      <path class="cls-2" d="M13.44.34C13.78.07,14.33,0,14.71,0c1.48.03,1.99,1.86,2.3,3.02.19.73.19,1.44.36,2.16.23.98.81,1.84.81,2.87,0,.71-.54,2.15-1.22,2.53-.97.54-1.87-1.51-2.24-2.27-.6-1.24-.38-2.15-.21-3.38.12-.85.06-1.92-.4-2.68-.35-.57-1.58-1.21-.68-1.91"/>
      <path class="cls-3" d="M1.21,29.76c.04.71-.06,1.45-.12,2.15-.02.26-.27,3.39-.6,3.33-.48-.08-.3-1.47-.3-1.82,0-.3-.02-.61-.04-.94-.06-.96-.29-1.99-.02-2.94.34.16.71.24,1.08.23"/>
      <path class="cls-3" d="M10.06,9.18c.25.71,1.34.84,2.08.36-.27,1.17-.75,2.64-1.33,3.69-.54.97-1.5.84-1.49-.3.02-1.16.48-2.61.74-3.76"/>
      <path class="cls-3" d="M9.02,13.53c-.3.78-.5,1.66-.66,2.03-.34.74-.54,1.41-.78,2.15-.07.2-.7.17-.68.75.02.52.46.87.97.55.36-.23.44-.95.68-1.28.4-.54.93-.89,1.27-1.51.33-.59.04.02.33-.59.34-.69,1.33-2.9.47-3.39-.75-.42-1.24.36-1.6,1.29"/>
      <path class="cls-3" d="M8.46,16.87c-.7,2.7-1.52,5.21-2.73,7.69-.21.43-.55,1.3-1.09,1-.55-.3-.16-1.55.04-2.01.53-1.2,1.52-2.18,1.97-3.38.46-1.22.49-2.63,1.47-3.59.23.24.25.54.34.29"/>
      <path class="cls-1" d="M2.95,24.89c.36-.27.68-.58,1.01-.9.26-.19.62-.46,1.13-.89,1.64.86.4,2.21.12,3.62.02-.05.03.02-.02.14,0,.04-.01.08-.02.12,0-.04,0-.08,0-.11,0,0,0,0,0,.01-.71-.55-1.7-1.25-2.22-2"/>
    </g>
  </g>
</svg>