<?xml version="1.0" encoding="UTF-8"?>
<svg id="Calque_2" xmlns="http://www.w3.org/2000/svg" viewBox="0 0 23.53 41.06">
  <defs>
    <style>
      .cls-1 {
        fill: #fff;
      }
    </style>
  </defs>
  <g id="Calque_7">
    <path class="cls-1" d="M6.71,23.9v-2.4c0-4.79,7.87-6.9,7.87-10.55,0-1.77-1.83-3.36-4.28-3.36-3.99,0-5.08,3.59-6.5,2.34L.32,6.5c-.46-.4-.4-1.08,0-1.48C.32,5.02,4.54,0,11.9,0c6.05,0,11.63,4.22,11.63,9.98,0,7.53-8.55,7.76-8.55,13.91,0,.63-.51,1.08-1.08,1.08h-6.1c-.57,0-1.08-.46-1.08-1.08ZM10.81,30.23c2.97,0,5.47,2.51,5.47,5.47s-2.51,5.36-5.47,5.36-5.36-2.45-5.36-5.36,2.45-5.47,5.36-5.47Z"/>
  </g>
</svg>