<?xml version="1.0" encoding="UTF-8"?>
<svg id="Calque_2" xmlns="http://www.w3.org/2000/svg" viewBox="0 0 44.7 41">
  <defs>
    <style>
      .cls-1 {
        fill: #44b3c2;
      }
    </style>
  </defs>
  <g id="Calque_7">
    <path id="Icone_Puzzle" class="cls-1" d="M39.76,19.86c2,0,3.78.85,4.94,2.17v-11.01c0-.52-.46-.94-1.03-.94h-11.75c1.3-1.06,2.12-2.6,2.12-4.31,0-3.19-2.83-5.77-6.32-5.77s-6.32,2.58-6.32,5.77c0,1.71.82,3.25,2.12,4.31h-11.64c-.57,0-1.03.42-1.03.94v10.74c-1.15-1.08-2.75-1.75-4.53-1.75-3.49,0-6.32,2.58-6.32,5.77s2.83,5.77,6.32,5.77c1.78,0,3.38-.67,4.53-1.75v10.26c0,.52.46.94,1.03.94h11.65c-1.34-1.13-2.14-2.78-2.02-4.6.19-2.87,2.76-5.22,5.9-5.39,3.67-.21,6.72,2.45,6.72,5.76,0,1.68-.78,3.19-2.03,4.24h11.57c.57,0,1.03-.42,1.03-.94v-10.83c-1.16,1.32-2.94,2.17-4.94,2.17-3.49,0-6.32-2.58-6.32-5.77s2.83-5.77,6.32-5.77Z"/>
  </g>
</svg>