<?xml version="1.0" encoding="UTF-8"?>
<svg id="Calque_2" xmlns="http://www.w3.org/2000/svg" viewBox="0 0 20.38 53.2">
  <defs>
    <style>
      .cls-1 {
        fill: #f08c8e;
      }

      .cls-2 {
        fill: #9fc5e9;
      }

      .cls-3 {
        fill: #292724;
      }

      .cls-4 {
        fill: #656da4;
      }

      .cls-5 {
        fill: #6b3750;
      }

      .cls-6 {
        fill: #efb871;
      }

      .cls-7 {
        fill: #f3a5a8;
      }

      .cls-8 {
        fill: #e2e4f4;
      }

      .cls-9 {
        fill: #7990c8;
      }
    </style>
  </defs>
  <g id="_Éléments_Mise_en_page" data-name="Éléments_Mise_en_page">
    <g>
      <path class="cls-1" d="M4.36,49.92c.39-.08,1-.19,1.18-.28.08-.04.2-.1.35-.17-.17.24-.35.47-.65.61.08-.08.07-.16.12-.33,0,0-.66.12-1,.17"/>
      <path class="cls-1" d="M6.84,48.73s.04.1.05.15c-.04,0-.08-.02-.11-.04.03-.04.05-.08.06-.12"/>
      <path class="cls-1" d="M7.05,47.43s-.02.06-.03.09l-.14.34.04.08c-.05.25-.09.49-.07.72,0,.02,0,.05,0,.07-.01.04-.03.08-.06.12-.3.42-.89.49-1.27.83-.18.16-.26.36-.45.5-.25.18-.61.22-.89.31-.3.02-.59-.05-.88-.21-.11-.06-.23-.19-.15-.28.05-.05.12-.08.21-.1.02,0,.04,0,.06,0,.08-.05.16-.09.23-.13,0,0,0,0,0,0,.76-.37,1.31-1.08,1.51-1.9.23-.98.33-2.08.46-2.83.59-3.61.75-6.73,1.29-10.33.07-.48.16-1,.55-1.39.38-.38.96-.54,1.49-.62.25-.04.51-.06.73.03.15.06.26.17.35.29.34.46.36,1.06.37,1.64.02,1.06.17,2.08-.02,3.16-.22,1.26-.56,2.51-1.02,3.74l-1.53,4.1-.68,1.58c-.04.06-.08.13-.1.21"/>
      <path class="cls-5" d="M2.33,49.87s.09-.08.15-.11c.02,0,.04-.02.05-.02.28,0,.55.08.82.16-.09.01-.16.04-.21.1-.08.09.04.22.15.28.8.46,1.47-.05,2.16-.57.16-.12,1.21-.91,1.33-.86.04.02.08.03.12.04,0,0,0,0,.02,0,0,.01.01.02.02.04.19.34.15.84.02,1.2-.01.04-.03.07-.05.1v1.32c0,.09-.08.17-.17.17h-.08c-.09,0-.17-.08-.17-.17v-.9c-.08.06-.16.12-.25.19,0,0-.02.02-.02.02-.36.31-.68.58-1.09.67-.05.01-.11.02-.17.02-.14.01-.3,0-.47-.04-.04,0-.07-.02-.11-.03-.56-.14-1.11-.43-1.59-.73-.31-.2-.8-.54-.46-.9"/>
      <path class="cls-7" d="M7.04,22.55c.18-2.47.06-4.05,2.84-2.77.58.27,1.1.69,1.56,1.2.72.8,1.26,1.8,1.57,2.72.04.12.08.24.11.37l-1.13,13.32c.93.88,1.72,1.9,2.33,3.03l3.67,6.62c.23.42.53.79.88,1.11l.11.1.14.4.28-.19c.08.03.16.05.23.09-.06.61-.16,1.23-.18,1.85,0,0,0,.01,0,.02-.2.51-.82.88-1.31.63-.15-.08-.34-1.02-.45-1.15-4.13-5.41-5.56-5.72-7.85-9.37-.62-.98-1.59-1.74-1.87-2.82-.41-1.58-.42-3.39-.58-5.01-.32-3.35-.6-6.77-.36-10.13"/>
      <path class="cls-7" d="M18.19,48.06c-.55.12-.92.71-.95,1.27-.04.57.16,1.29.38,1.8.17.38.36.61.28,1.02-.03.17-.1.4.04.5.39-.13.51-.63.51-1.04.02-1.12-.32-2.26-.08-3.36.01-.04.02-.1-.02-.12-.03-.03-.1.03-.06.05l-.11-.12Z"/>
      <path class="cls-5" d="M17.89,52.18c.2-.76.15-.94.03-2.56-.04-.5.02-.85.13-1.09.29-.64,1.22-.61,1.5.03.03.08.06.16.09.24,0,.02.01.05.02.07.21.77.18,1.67.31,2.47.04.24.08.5,0,.73-.07.21-.23.37-.4.5-.43.34-.95.55-1.48.62-.23.03-.47.03-.71,0-.09-.08-.11-.2-.1-.32.29-.17.55-.4.62-.68"/>
      <path class="cls-1" d="M8.59,1.03l.08,1.05.25,3.35.04.6.09,1.14h0l.07.99s.12.05.34.08c.2.03.49.05.86.01.77-.08,1.66-.75,1.67-.91,0-.16-.21-.74-.21-.74l-1.46-5.23c-.67-.13-1.01-.53-1.74-.36"/>
      <path class="cls-3" d="M18.8,51.08c-.05-.23-.1-.45-.15-.66-.14-.64.23-1.3.87-1.48.05-.01.09-.03.14-.04.03.12.05.23.06.33,0,.01,0,.03,0,.04,0,.01-.01.02-.02.04-.04.11-.02.24,0,.37l.26,1.66c.04.24.08.5,0,.72-.06.21-.2.36-.35.49-.37.32-.8.52-1.25.58-.02-.04-.01-.02-.03-.06-.02-.04.67-1.03.47-2"/>
      <path class="cls-5" d="M20.27,49.61l.11-.16s.01-.05,0-.08l-.11-.29s-.06-.09-.11-.11l-1.06-.51v.72s.79.35,1.05.45c.05.02.1.01.12-.02"/>
      <path class="cls-4" d="M14.54,14.62c-.82-1.77-1.57-3.65-2.04-5.55-.11-.44-.21-.9-.12-1.35.14-.71.89-1.16,1.59-.89.67.26,1.03,1.45,1.19,2.11.67,2.76,1.07,3.46,1.32,5.27.11.77-.06,1.75-1.06,1.56-.45-.09-.71-.79-.88-1.16"/>
      <path class="cls-4" d="M9.74,20.43s.03-.06.05-.08c.26-.4.51-.82.79-1.21.97-1.37,2.07-2.64,3.18-3.9.59-.66,1.7-2.17,2.61-1.06.93,1.14-1.18,2.77-1.88,3.44-.25.24-.5.48-.75.72-.94.91-1.87,1.79-2.88,2.63-.14.12-.29.24-.46.28-.51.14-.87-.38-.65-.83"/>
      <path class="cls-2" d="M5.16,34.61v-6.42s.03-.02.04-.03c0-.73,0-1.47,0-2.21,0-2.11.29-4.7,1.15-6.56l.54-.28s7.08,1.05,7.14,1.06c.4.06.83,2.22.91,2.55.32,1.28.49,2.6.51,3.93,0,.44,0,.89-.02,1.33h0c0,1.99-.02,3.97-.04,4.92,0,.46-.15.89-.41,1.23-.54.7-1.7,1.76-3.91,2.1-1.22.19-2.28.18-3.13.1-.03,0-.06,0-.09,0-.09,0-.18-.02-.27-.03-.63-.08-2.37-.14-2.45-1.18-.01-.16,0-.33,0-.49"/>
      <path class="cls-9" d="M14.92,21.77c-.04.06-.1.11-.16.16-1.83,1.29-4.36,1.37-6.59.78-.05-.01-.09-.02-.14-.04-.74-.21-1.45-.49-2.09-.83-.09-.05-.18-.1-.22-.18-.05-.1-.03-.22,0-.32.05-.24.11-.48.16-.72.23-1.04.43-2.08.69-3.11.2-.79.53-1.4.27-2.25-.15-.51-.42-.97-.63-1.46-.37-.86-.58-1.82-.38-2.73.02-.11.05-.23.09-.35,0-.03.02-.07.03-.1.02-.05.03-.1.05-.14.13-.36.3-.69.51-1,.12-.19.26-.37.41-.54,1-1.14,2.49-1.86,3.96-2.09.64-.1,2.87-.45,3.29.11.72.96.31,2.58.05,3.65-.4,1.63-.96,3.17-.87,4.87-.08.69.04,1.33.3,2.14.42,1.27.84,2.55,1.26,3.82.04.11.07.24.02.35"/>
      <path class="cls-4" d="M5.71,21.33c.05-.24.1-.48.16-.72.23-1.04.42-2.08.69-3.11.2-.8.53-1.4.27-2.25-.15-.51-.42-.97-.62-1.46-.37-.86-.58-1.82-.38-2.73.02-.11.05-.23.09-.35,0-.03.02-.07.03-.1.02-.05.03-.1.05-.15.12-.35.29-.7.51-1,.42-.58.56-.21,1.28.25.86-.7.6,2.91.94,5.94-.02.18-.27,2.79-.28,2.97-.06.57.13,2.96-.26,4.07-.05-.01-.09-.02-.14-.04-.74-.21-1.45-.49-2.09-.83-.09-.05-.18-.1-.22-.18-.05-.1-.03-.22,0-.33"/>
      <path class="cls-1" d="M8.34,1.08l.23,1.47s0,0,.02-.01c0,.05.01.1.03.15.04.11.08.21.14.3.07.16.14.32.22.48.04.09.11.15.18.2-.16.12-.3.19-.3.19l.34.57c.44.36.98.57,1.55.62-.57.26-1.14.52-1.71.77l-.06-.25c-1.02.17-1.41-.23-1.41-.23-1.02-2.09.79-4.24.79-4.24"/>
      <path class="cls-5" d="M8.08,2.4s.05.04.07.06c0,0,0,0,0,.01l-.08-.07Z"/>
      <path class="cls-6" d="M7.29.33c.4-.5,1.47-.34,2.05-.14.81.27,1.56.2,2.16.96.88,1.12-.21,2.27.03,3.43.05.22.15.44.09.64-.06.17-.23.29-.4.34-.4.12-.83-.02-1.16-.27-.33-.25-.57-.59-.81-.93-.26-.36-.8-.67-.8-1.14,0-.04,0-.08,0-.11-.07-.22-.15-.44-.29-.63l.39.35s.01-.02.02-.03c-.14-.11-.28-.22-.41-.34-.02-.03-.04-.05-.06-.08-.32-.38-.74-.58-.85-1.14-.06-.31-.15-.67.04-.91"/>
      <path class="cls-6" d="M10.44,8.31c.4.37.89.6,1.46.64.4.02.81-.04,1.21,0,1.16.08,2.12,1.04,2.17,2.16,0,.17,0,.36.07.51.07.15.27.26.44.18.09-.04.15-.13.2-.21.7-1.12.85-2.52.39-3.67-.33-.81-.95-1.49-1.74-1.9-1.24-.65-1.25-.69-1.52-2.15-.2-1.03-.33-2.32-1.04-2.99-.49-.47-1.14-.64-1.72-.45-.57.19-1.07.74-1.3,1.46-.54,1.66-.18,5.03,1.37,6.44"/>
      <path class="cls-1" d="M9.24,4.44c.28-.18.39-.52.26-.77-.14-.25-.48-.3-.76-.13-.28.18-.39.52-.26.77.14.25.48.3.76.13"/>
      <path class="cls-8" d="M7.98,30.59c-.05.02-.1,0-.12-.06-.51-1.43-1.62-3.07-2.6-3.34-.28-.08-.46-.05-.55.07-.2.26-.17,1.15-.13,1.9,0,.09-.04.19-.11.22-.07.03-.13-.02-.14-.12-.08-1.31-.02-1.92.23-2.24.23-.29.54-.25.79-.18,1.08.29,2.21,2.01,2.73,3.48.03.08,0,.19-.06.24-.01.01-.03.02-.04.03"/>
      <path class="cls-5" d="M1.09,28.64c.14.18.28.36.43.53.04.04.08.09.12.13.19.19.17.17-.06-.05.03.08.35.31.42.37.14.12.29.24.44.36.6.48,1.21.95,1.78,1.46.64.58,1.23,1.2,1.83,1.82.14.14.29.29.43.43.01.01.02.02.03.04,0,0,0,0,0,0,.25.21.49.43.76.61.08.06.13.09.17.12.08.03.18.06.25.08.01,0,.03,0,.05,0,.02,0,.03,0,.04,0,.08-.02.19-.05.29-.07.01,0,.03,0,.04-.01.08-.03.17-.1.26-.14.04-.03.08-.06.11-.08.09-.07.17-.16.26-.24.02-.03.05-.05.07-.08.09-.12.18-.24.26-.36,0-.01.02-.03.03-.05.05-.15.2-.5.26-.66,0-.04.01-.09.02-.13.02-.17.01-.72.04-.03-.02-.48.06-.93.23-1.33-.05-.12-.13-.23-.25-.3l-5.36-3.12-.71-.4c-.14-.08-.32-.04-.43.09l-.7.9s-.06.05-.1.04l-1.08-.22c-.05-.01-.1.01-.13.06.08.07.15.15.21.24"/>
      <path class="cls-9" d="M6.99,32.08l.11,10.34c.21,0,.42-.05.61-.16l2.65-1.49c.23-.14.36-.4.33-.67l-1.01-8.52-.05-.18c0-.07-.09-.08-.12-.02l-.72,1.4c-.08.15-.26.2-.41.12l-1.39-.81Z"/>
      <path class="cls-2" d="M0,37.9c-.01.27.12.52.34.67l6.22,3.69s.04.03.07.04c.02.01.05.02.07.03.02,0,.04.02.06.02.02,0,.04.02.06.02,0,0,0,0,0,0,.02,0,.04.01.06.02,0,0,0,0,0,0,.02,0,.04.01.07.01h0s.05,0,.07.01c.02,0,.05,0,.07,0,.01,0,.02,0,.04,0l-.11-10.3-5.91-3.65c-.11-.07-.25,0-.26.14L0,37.9Z"/>
      <path class="cls-8" d="M5.75,32.09c-.08.03-.12-.03-.11-.12.3-2.42.24-4.74-.54-4.94-.34-.09-.69.19-.91.45-.58.65-1.07,1.82-1.23,2.92-.01.09-.08.18-.14.2-.07.02-.11-.04-.1-.13.17-1.22.7-2.48,1.37-3.22.4-.44.8-.64,1.14-.55.87.23.97,2.6.64,5.19-.01.08-.06.17-.12.2"/>
      <path class="cls-7" d="M6.6,23.05s0,0-.01,0c.21-.8.4-1.54.47-1.81-.28-.07-.5.09-.78,0-.29-.09-1.04,0-1.33-.11.05.02.13-.08.11.06.04-1.04-.13.54-.43,2.38-.09.56-.11,1.13-.26,1.68-.2.74-.75,1.68-.49,2.47.14.44.29.41.66.57.12.05,1.2.47,1.2.34.02-.5.25-.97.4-1.43.1-.3.21-.24.16-.56-.1-.53-.44-.78-.3-1.39.16-.71.38-1.41.56-2.11,0-.02.02-.04.03-.07"/>
      <path class="cls-9" d="M5.72,22.13c.3.1.89.22,1.18.09.31-1.01.48-2.12.7-3.1.43-1.96.97-3.9,1.09-5.92.07-1.29.2-3.02-.75-3.99-1.08-1.1-1.97.69-2.17,1.73-.11.55-.09,1.11-.08,1.66v.14c.02.71.03,1.47.01,2.22-.02,1.09-.09,1.97-.23,2.79l-.07.82c-.03.43-.11.85-.23,1.26l-.31,1.71c.3.31.48.46.86.59"/>
    </g>
  </g>
</svg>