<?xml version="1.0" encoding="UTF-8"?>
<svg id="Calque_2" xmlns="http://www.w3.org/2000/svg" viewBox="0 0 14.59 47.26">
  <defs>
    <style>
      .cls-1 {
        fill: #1c5e9a;
      }

      .cls-2 {
        fill: #4489c8;
      }

      .cls-3 {
        fill: #72a8db;
      }

      .cls-4 {
        fill: #fff;
      }

      .cls-5 {
        fill: #f9b500;
      }

      .cls-6 {
        fill: #282b30;
      }

      .cls-7 {
        fill: #a0c6ea;
      }

      .cls-8 {
        fill: #e42524;
      }

      .cls-9 {
        fill: #2a2d3f;
      }

      .cls-10 {
        fill: #ffd93e;
      }

      .cls-11 {
        fill: #e5e4e4;
      }

      .cls-12 {
        fill: #f09c80;
      }

      .cls-13 {
        fill: #f6af90;
      }

      .cls-14 {
        fill: #f9c9b4;
      }

      .cls-15 {
        fill: #cac7c6;
      }

      .cls-16 {
        fill: #454759;
      }

      .cls-17 {
        fill: #ef9274;
      }

      .cls-18 {
        fill: #f39d7b;
      }

      .cls-19 {
        fill: #12110c;
      }
    </style>
  </defs>
  <g id="_Éléments_Mise_en_page" data-name="Éléments_Mise_en_page">
    <g>
      <polygon class="cls-8" points="8.35 12.96 9.29 14.66 10.22 14.12 9.28 12.42 8.35 12.96"/>
      <polygon class="cls-8" points="5.73 14.47 6.67 16.17 7.6 15.64 6.66 13.93 5.73 14.47"/>
      <polygon class="cls-8" points="3.11 15.98 4.05 17.69 4.98 17.15 4.04 15.44 3.11 15.98"/>
      <polygon class="cls-8" points=".49 17.49 1.43 19.2 2.36 18.66 1.42 16.96 .49 17.49"/>
      <path class="cls-13" d="M13.18,19h-1.3c-.24-.74-2.7-6.89-2.79-9.48-.03-.81-.41-3.38-.41-3.5,0-1.71,2.59-.33,2.68,1.48,0,0,.03,3.08.19,4.46.18.04,1.36,6.4,1.64,7.04"/>
      <path class="cls-1" d="M11.42,7.64c0,1.82-2.76.24-2.76-1.59s2.76-.24,2.76,1.59"/>
      <polygon class="cls-1" points="11.75 11.13 11.42 7.51 8.68 6.26 8.98 11.13 11.75 11.13"/>
      <path class="cls-18" d="M13.58,20.82s.1,2.18-.23,2.31c-.32.13-1.14-.99-1.27-1.59-.13-.61-.3-1.83-.3-1.83,0,0,1.54.38,1.79,1.11"/>
      <path class="cls-13" d="M13.81,21.58c-.23-.15-1.36-1.19-1.56-1.37-.39-.36-.58-.41-.43-.99l.06-.23h1.3s0,.01,0,.01c.02.04.34.64.43.86.21.48.76,1.52.94,1.73.18.21-.48.17-.75-.01"/>
      <path class="cls-11" d="M13.28,18.36h-1.7v.48s0,0,0,0v.02h0c0,.11.07.23.25.34.6.35,1.43.02,1.44-.35h0v-.49Z"/>
      <path class="cls-1" d="M13.03,18.02c.78.45-.4,1.14-1.18.68-.78-.45.4-1.14,1.18-.68"/>
      <polygon class="cls-1" points="13.28 18.36 11.76 11.65 10.59 15.46 11.59 18.36 13.28 18.36"/>
      <path class="cls-9" d="M11.98,40.38c.83.67,2.4,1.15,2.23,2.12,0,0-.68.71-1.5.35-.81-.36-1.77-.84-2.58-1.22-1.37-.64-2.79.67-1.76-2.43,3.85-.14,1.64-.4,3.61,1.19"/>
      <path class="cls-16" d="M14.37,42.08c.06,1.07-1.74,1.25-2.72.54-.5-.36-2.8-.99-3.35-1.33-.2-.13-.26-.38-.29-.57.05-.44.1-.98.29-1.33.02-.05.04-.07.06-.09,0,.02-.03.07-.05.16-.02.13-.03.33.05.57.15.44,1.29.85,1.72.43.62-.62,1.15-.93,1.29-.83.1.07.82.62,1.37,1.18.34.35,1.53.98,1.62,1.27"/>
      <path class="cls-9" d="M12.28,40.18h0s-.02-.03-.04-.04c-.04-.02-.42-.13-1.06.76-.03.04-.02.08.02.11.01.01.03.01.05.01.02,0,.05-.01.06-.03.56-.79.87-.71.87-.71.03.02.12.1.12.1.02-.1-.02-.21-.02-.21"/>
      <path class="cls-9" d="M12.73,40.6h0s-.02-.03-.04-.04c-.04-.02-.42-.13-1.06.76-.03.04-.02.08.02.11.01.01.03.01.04.01.02,0,.05-.01.06-.03.56-.79.87-.71.87-.71.03.02.12.1.12.1.02-.1-.02-.21-.02-.21"/>
      <path class="cls-9" d="M11.8,39.77h0s-.02-.03-.04-.04c-.04-.02-.42-.13-1.06.76-.03.04-.02.08.02.11.01.01.03.01.04.01.02,0,.05-.01.06-.03.56-.79.86-.7.86-.7.03.01.13.1.13.1.02-.1-.02-.21-.02-.21"/>
      <path class="cls-9" d="M14.37,42.76c-.18.28-.51.51-1.43.53-.93.03-2.17-.68-2.88-1.18-.71-.49-1.88-.52-2-.7-.11-.18-.05-.68-.04-.71,0,0,0,0,0,0,.02.13.11.24.23.29.21.1.63.26,1.28.4,1.04.21,1.6.78,2.06,1.06.78.48,2.76.72,2.79-.39.04.29,0,.69,0,.69"/>
      <path class="cls-17" d="M8.37,39.15h2.52s-.32-2.43.15-6.27c.39-3.11.98-3.88.31-12.79h-5.29c1.16,6.67,2.44,9.09,1.83,11.46-.37,1.43.73,5.42.47,7.6"/>
      <path class="cls-17" d="M10.53,38.64c1.17.68-.6,1.72-1.79,1.03-1.18-.68.6-1.72,1.79-1.03"/>
      <path class="cls-1" d="M11.41,39.15c.1.68-1.24,1.45-2.63.96-.58-.21-.86-.55-.85-.89,0-.09-.01-.5-.03-1.08,0-.3-.02-.64-.03-1.01-.06-2.18-.14-5.31-.07-5.58.41-1.6-.22-3.79-.22-3.79-1.13-4.69-1.51-7.7-1.51-7.7l2.26-.09h0l3.19-.13c.09,6.15.57,6.69-.17,11.54-.09,1.63-.05,4.19,0,5.92,0,.3.02.58.03.83.02.62.03,1.01.03,1.01"/>
      <path class="cls-18" d="M4.83,41.87c1.18.68-.6,1.72-1.79,1.03-1.18-.68.6-1.72,1.79-1.03"/>
      <path class="cls-18" d="M8.91,21.28c.07,3.61-1.45,2.95-1.49,3.96-.52,11.9-2.41,5.9-2.23,17.14h-2.52c.09-2.84-.72-6.36-.32-8.38.39-1.96.67-2.9.56-5.28-.11-2.37-.35-7.37-.02-8.63l6.03,1.19Z"/>
      <path class="cls-9" d="M5.27,42.39s.14.25.72,1.17c.55.87,2.14,2.45,2.34,2.86,0,0-.6.74-2.48.25-.86-.22-1.36-.81-1.97-1.46-.95-1.02-1.81-.8-1.08-2.85l2.46.02Z"/>
      <path class="cls-16" d="M8.38,46.37s0,.04-.01.05c-.1.38-.85.63-2.19.4-1.34-.24-1.97-1.15-2.35-1.56-.38-.41-1.32-1.25-1.41-1.56,0,0,0-.02,0-.02.05-.45.21-1.08.27-1.28.04-.17.15-.26.22-.3.04-.02.07-.03.07-.03-.41.73.77,1.79,1.55,1.46.28-.12,1.07-.94,1.35-.51.28.43,2.11,2.79,2.28,2.98.1.11.19.22.23.37"/>
      <path class="cls-9" d="M4.95,44.09s-.06-.02-.07-.04c-.02-.04,0-.08.04-.1.07-.03.18-.11.3-.2.33-.25.97-.68,1.1-.28.03.09-.03.15-.03.15,0,0-.03-.03-.05-.07-.03-.05-.07-.08-.12-.08-.33-.06-.85.5-1.14.62,0,0-.02,0-.03,0"/>
      <path class="cls-9" d="M5.4,44.68s-.06-.02-.07-.04c-.02-.04,0-.08.04-.1.07-.03.18-.11.3-.2.33-.25.97-.68,1.1-.28.03.09-.03.15-.03.15,0,0-.03-.03-.05-.07-.03-.05-.07-.08-.12-.09-.33-.06-.85.5-1.14.62,0,0-.02,0-.03,0"/>
      <path class="cls-9" d="M5.84,45.27s-.06-.02-.07-.04c-.02-.04,0-.08.04-.1.07-.03.18-.11.3-.2.33-.25.97-.68,1.1-.28.03.09-.03.15-.03.15,0,0-.03-.04-.05-.07-.04-.05-.07-.07-.13-.08-.33-.06-.85.5-1.14.62,0,0-.02,0-.03,0"/>
      <path class="cls-9" d="M6.18,47.17c-1.34-.24-1.97-1.15-2.36-1.56-1.3-1.4-1.49-1.26-1.42-1.93,0,0,0,.01,0,.02.09.31,1.03,1.15,1.41,1.56.38.41,1.01,1.33,2.36,1.56,1.34.23,2.09-.01,2.19-.4,0-.02,0-.04.01-.05.27.96-1.2.97-2.21.8"/>
      <path class="cls-2" d="M9.11,20.84c-.03.92-.05,1.56-.11,2.06-.11.99-.35,1.35-.98,1.97-.08.08-.16.16-.25.24-.13.13-.25.32-.26.6-.05,1.18-.58,6.36-1.17,7.68-.22.48-.34.99-.39,1.51-.13,1.6-.2,4.07-.24,5.72,0,.42-.02.79-.02,1.07,0,.41,0,.66,0,.66-.03,1.32-3.53,1.29-3.48-.04,0-.2-.01-.41-.02-.63,0-.33,0-.7-.01-1.07v-.04c0-2.51.08-5.55.08-5.55h0c.05-1.94.61-2.65.49-5.95,0-.09,0-.17-.01-.26-.07-1.37-.1-3.63-.08-5.54v-.2c0-1.31.04-2.44.09-2.97l6.31.75h.08Z"/>
      <path class="cls-3" d="M11.31,7.9c-.58-1.54-2.01-2.65-2.01-2.65-2.9.34-6.21,2.45-8.37,4.46,0,0,1.33.46,1.68,2.11.35,1.65.12,8.3.12,8.3,0,.65.43,1.31,1.3,1.81,2.7,1.56,7.56.52,7.56-1.81h0c-.06-1.05-.22-2.74-.34-3.8-.25-2.18.51-3.75.51-4.66,0-.92.13-2.21-.45-3.75"/>
      <path class="cls-14" d="M2.23,25.54c.61.35-.31.89-.93.53-.61-.35.31-.89.93-.53"/>
      <path class="cls-14" d="M3.46,11.93c0,1.82-2.76.24-2.76-1.59s2.76-.24,2.76,1.59"/>
      <path class="cls-13" d="M2.42,25.8s.94.76,1.24,1.26c.3.5,1.16,1.38.98,1.55s-.59-.04-.76-.23c-.17-.19-.66-.88-.77-.58-.12.3.05,1.73.44,2.4,0,0-.01.32-.37,0-.36-.32-1.65-1.79-1.76-2.23-.1-.44-.3-2.17-.3-2.17h1.31Z"/>
      <path class="cls-13" d="M8.22,7.87s-.18.33-.2.38c-.19.25-.4.33-.4.33l-.17.02c-.25.03-.48.03-.69.02-1.79-.13-2.14-1.65-2.14-1.65,0,0,.35-.54.37-1.8,1.16.21.81.02,1.56.77h0c.41-.17.82-.31,1.25-.43.04.08.07.15.1.22.02.05.05.11.07.16.25.59.45,1.39.24,1.99"/>
      <path class="cls-19" d="M9.27,2.98s-.03,1.03-.21,1.24c-.18.21-.15-1.5-.15-1.5l.36.27Z"/>
      <path class="cls-12" d="M8.22,7.87c-.14.1-.25.16-.33.17-.31.04-1.1-.25-1.68-.67-.58-.43-.92-1.38-.92-1.38,0,0,2.9.98,3.01,1.02.04.36,0,.66-.07.86"/>
      <path class="cls-13" d="M6.66.88s-2.29-.35-2.66,2.74c.96,1.33.59,1.58,1.03,1.87,0,0,.62,1.42,1.25,1.72.63.29,1.31.68,1.5.55,1.19-.82,1.08-2.64,1.36-3.37,0,0,.23-3.39-2.48-3.49"/>
      <path class="cls-6" d="M9.29,2.88c-.3-.18-.49.16-.74.34-.81.57-1.81-.51-2.68-.11-.3.21-.18.88-.26,1.28-.06.31-.05.48-.05.48l-.37-.22-.29,1.54s-.93-2.2-1.02-2.69c-.09-.49.09-1.55.82-2.24,1.22-1.16,4.32-.96,4.59,1.62"/>
      <path class="cls-13" d="M4.77,4.01c-.6.05-.13,1.36.07,1.49.2.13.52-.39.52-.39-.11,0,.13-1.16-.59-1.1"/>
      <path class="cls-7" d="M3.46,11.93c0,1.82-2.76.24-2.76-1.59s2.76-.24,2.76,1.59"/>
      <path class="cls-11" d="M2.36,25.46c.78.45-.4,1.14-1.18.68-.78-.45.4-1.14,1.18-.68"/>
      <path class="cls-11" d="M7.63,8.58l-.17.02c-.25.03-.48.04-.69.02l.29-.46.56.42Z"/>
      <path class="cls-11" d="M7.63,8.58l.31-.69.19.15s-.08.32-.5.53"/>
      <path class="cls-4" d="M7.94,7.9l.37-.69.16-.26.11-.24s.15,1.38.09,1.98l-.74-.8Z"/>
      <polygon class="cls-11" points="2.17 25.91 2.62 25.8 2.62 25.31 .93 25.33 .92 25.8 2.17 25.91"/>
      <path class="cls-7" d="M2.36,24.96c.78.45-.4,1.14-1.18.68-.78-.45.4-1.14,1.18-.68"/>
      <path class="cls-7" d="M3.45,12.06s-2.71-2.08-2.72-2c-.02.07-.69,6.25-.72,8.91,0,1.95.89,6.02.93,6.36h1.69c0-.43.02-4.21.01-5.85,0-.53.03-1.06.09-1.59l.73-5.82Z"/>
      <path class="cls-11" d="M11.77,10.59c-.48.74-5.79,3.58-6.85,3.67-1.05.1-1.71-.3-1.71-.3l-.11.86s.76.43,1.81.33c1.05-.09,6.37-2.93,6.85-3.67v-.89Z"/>
      <path class="cls-2" d="M7.63,8.58c.34.47.59,1.01.79,1.56.2.55.34,1.11.42,1.69.17,1.15.03,2.33.05,3.49,0,1.17.04,2.34.09,3.51.04,1.17.1,2.33.18,3.5l-.11-3.5c-.03-1.17-.05-2.34-.05-3.5-.03-1.16.1-2.34-.09-3.51-.18-1.16-.58-2.3-1.28-3.24"/>
      <path class="cls-11" d="M5.71,40.61c0,.17,0,.38,0,.6,0,0,0,.01,0,.01,0,.15,0,.29,0,.42-.12.52-.85.81-1.59.85-.03,0-.05,0-.08,0h-.08c-.85,0-1.71-.32-1.77-.94,0-.13,0-.28,0-.42,0,0,0,0,0-.01,0-.2,0-.38,0-.52.01.65.9.99,1.77.99s1.76-.33,1.77-.99"/>
      <path class="cls-11" d="M11.38,38.13c-.14.5-.85.77-1.58.81-.02,0-.05,0-.08,0h-.08c-.78,0-1.57-.27-1.74-.8,0-.3-.02-.64-.03-1.02.08.6.93.91,1.76.91.74,0,1.51-.25,1.72-.73,0,.3.02.58.03.83"/>
      <path class="cls-10" d="M9.79,3.59c-.93.29-2.2.86-3.19.8,0,0-.02,0-.03,0-.16-.01-.31-.04-.46-.09-.31-.1-.62-.22-1.31-.68-.13-.09-.24-.12-.33-.11-.08.04-.14.07-.18.11-.33.33-.37,1.13-.37,1.13,0,0-.18-.02-.22-.12-.04-.1-.03-.27-.03-1.56,0-.13,0-.26.02-.38,0-.01,0-.03,0-.04.1-1.16.93-2.15,2.05-2.48.02,0,.05-.01.07-.02.53-.14,1.16-.2,1.79-.02,1.36.4,1.83,2.12,1.93,2.56.07.16.15.31.25.44.14.18.24.39,0,.47"/>
      <path class="cls-5" d="M6.57,4.38c-.16-.01-.31-.04-.46-.09-.31-.1-.62-.22-1.31-.68-.13-.09-.24-.12-.33-.11-.08.03-.14.07-.18.11-.33.33-.37,1.13-.37,1.13,0,0-.18-.02-.22-.12-.04-.1-.03-.27-.03-1.56,0-.13,0-.25.02-.38,0-.01,0-.03,0-.04.1-1.16.93-2.15,2.05-2.48-.25.2-.45.44-.58.76-.36.92.05,1.85.49,2.55.23.38.52.69.91.91"/>
      <path class="cls-15" d="M4.75,6.29s.1-.09.15-.11l-.07.3-.08-.19Z"/>
      <path class="cls-4" d="M4.75,6.29s.74,1.48,2.31,1.88l-.34,1.15s-1.78-.93-2.1-2.34l.12-.69Z"/>
    </g>
  </g>
</svg>