<?xml version="1.0" encoding="UTF-8"?>
<svg id="uuid-4166086f-1af6-435c-9dd1-f501e0f93e5d" data-name="Calque_2" xmlns="http://www.w3.org/2000/svg" xmlns:xlink="http://www.w3.org/1999/xlink" viewBox="0 0 38.42 48.44">
  <defs>
    <style>
      .uuid-f2197683-dba9-42ea-958b-32f52d4eb9a4 {
        fill: #332d27;
      }

      .uuid-8ebf1383-f605-4cd2-9a3d-78869a5ca1db {
        fill: url(#uuid-adde9ac8-432d-476b-88b5-fd99b8786fdd);
      }

      .uuid-16462399-d1eb-4fa6-8e02-23750ee06251 {
        clip-path: url(#uuid-67072495-91ec-4d86-857e-4a1feb75e193);
      }

      .uuid-3e522902-ef60-4305-91d5-c856feb8f3ae {
        fill: #fff;
      }

      .uuid-23f3f4df-6195-4a82-bbf1-347e38ad2191 {
        fill: #625c68;
      }

      .uuid-0184f1f7-34e5-4d0c-945d-d927b93a148d {
        fill: none;
      }

      .uuid-55c4c302-4e86-4aa7-9e0b-371a333a8f0d {
        fill: #d0a76c;
      }

      .uuid-ae989cdd-42dc-4b04-9aed-823f424b968a {
        fill: #9991a4;
      }

      .uuid-817ec165-6f71-4447-869e-145d30403bb1 {
        fill: #32261c;
      }

      .uuid-7c010a84-8bf7-4b2d-b301-d40b1204ff4f {
        fill: #784436;
      }

      .uuid-d522a19d-b433-4f55-aac2-470f240b3dd2 {
        clip-path: url(#uuid-4c7995aa-dd07-4257-a418-1e15cb9684de);
      }

      .uuid-e2264f16-a626-4f95-b63b-4429d67a2869 {
        opacity: .9;
      }

      .uuid-812e9b4a-56e1-46ca-b9e4-848329062319 {
        fill: #231e1d;
      }

      .uuid-2b082739-ef24-4894-b872-34ae7e559a21 {
        fill: #2a2124;
      }

      .uuid-017a8ac3-cb10-459e-9047-64e5414a3a09 {
        clip-path: url(#uuid-2717f380-7eae-4bba-ad2c-ef337cbc9b63);
      }

      .uuid-d047e058-bfa5-4def-b392-3953fdf4dca4 {
        fill: #80798b;
      }

      .uuid-1747dd48-2190-4b35-a8bb-56f43141b98e {
        clip-path: url(#uuid-d26a0afb-6d0c-4239-b742-fad77bc2dee4);
      }

      .uuid-e6d01f95-8c32-4d1d-bd4e-378457a81a1e {
        fill: #e58c19;
      }

      .uuid-5988f3fa-cd14-4b6b-8afc-e4cc77f2e7b1 {
        fill: #d32624;
      }
    </style>
    <linearGradient id="uuid-adde9ac8-432d-476b-88b5-fd99b8786fdd" data-name="Dégradé sans nom 158" x1="-445.76" y1="429.4" x2="-444.76" y2="429.4" gradientTransform="translate(3156.15 7661.36) rotate(111.71) scale(13.35)" gradientUnits="userSpaceOnUse">
      <stop offset="0" stop-color="#cfa76b"/>
      <stop offset=".64" stop-color="#dcb375"/>
      <stop offset="1" stop-color="#e6bc7d"/>
    </linearGradient>
    <clipPath id="uuid-67072495-91ec-4d86-857e-4a1feb75e193">
      <rect class="uuid-0184f1f7-34e5-4d0c-945d-d927b93a148d" x="21.41" y="3.94" width="1.4" height="1.47"/>
    </clipPath>
    <clipPath id="uuid-2717f380-7eae-4bba-ad2c-ef337cbc9b63">
      <rect class="uuid-0184f1f7-34e5-4d0c-945d-d927b93a148d" x="21.41" y="3.94" width="1.4" height="1.47"/>
    </clipPath>
    <clipPath id="uuid-4c7995aa-dd07-4257-a418-1e15cb9684de">
      <rect class="uuid-0184f1f7-34e5-4d0c-945d-d927b93a148d" x="23.18" y="4.73" width="1.4" height="1.47"/>
    </clipPath>
    <clipPath id="uuid-d26a0afb-6d0c-4239-b742-fad77bc2dee4">
      <rect class="uuid-0184f1f7-34e5-4d0c-945d-d927b93a148d" x="23.18" y="4.73" width="1.4" height="1.47"/>
    </clipPath>
  </defs>
  <g id="uuid-a493f62e-ee1c-462a-bd57-0cc27d735100" data-name="Les_personnages">
    <g id="uuid-8a383414-5cd2-4245-a650-cfac30d43a8d" data-name="Chara_x5F_Aveugle_x5F_BD">
      <path class="uuid-e6d01f95-8c32-4d1d-bd4e-378457a81a1e" d="M32.62,35.92c.17.31.15.54,0,.86-.54,1.17-1.1,1.47-1.85,2.53-.17.24-.83,1.04-1.12,1.37-.85.94-2.78.52-2.22-1,.39-1.05,1.34-1.56,1.92-2.51.32-.53.6-1.09.99-1.57.37-.46.92-.66,1.36-.51.49.17.78.57.93.84"/>
      <path class="uuid-812e9b4a-56e1-46ca-b9e4-848329062319" d="M32.49,35.96c-.05.73-1.28,2.1-1.86,2.79-.19.23-1.09,1.33-1.43,1.61-1,.84-2.34.61-1.77-.92.39-1.06,1.01-1.6,1.6-2.56.33-.53.6-1.1,1-1.58.9-1.1,2.55,0,2.46.66"/>
      <path class="uuid-23f3f4df-6195-4a82-bbf1-347e38ad2191" d="M29.11,36.83c.26-.76-.1-1.24-.46-1.89,0,0,0-.01-.01-.02.51-.6,1.06-1.16,1.65-1.67.01.03.02.07.03.1.81,2.38,1.92,1.21.29,3.37-.02.03-.05.06-.07.09-.2.24-.54.33-.82.21-.38-.17-.61-.18-.61-.18"/>
      <path class="uuid-e6d01f95-8c32-4d1d-bd4e-378457a81a1e" d="M24.37,45.66c-.03.21-.07.46-.11.72-.14.89-1.62.73-2.22.46-.77-.34-.56-.99-.35-1.82.02-.07,1.79.48,2.68.63"/>
      <path class="uuid-7c010a84-8bf7-4b2d-b301-d40b1204ff4f" d="M16.08,22.2c.02-.16.08-.52.14-1,.02-.19.06-.52.12-.71.07-.2.19-.37.32-.54.18-.24.36-.48.54-.73.04-.06.09-.12.1-.19,0-.03,0-.07,0-.1.11,0,.22,0,.33,0,.36-.03.8.01,1.19-.02.06.15.11.3.12.46.01.21-.04.43-.1.63-.15.58-.33,1.15-.53,1.71-.06.18-.19.4-.38.37-.23-.04-.23-.37-.13-.58.37-.76.12-.73-.45-.06,0,0-.23.5-.55,1.28-.06.14-.21.26-.36.26-.15,0-.26-.26-.11-.31-.1.02-.13,0-.2-.05-.13-.1-.08-.22-.05-.43"/>
      <path class="uuid-55c4c302-4e86-4aa7-9e0b-371a333a8f0d" d="M17.11,18.9c.15-.41,2.05-5.43,2.05-5.43.21-1.01.46-2.47.5-2.66.75-3.44,1.12-4.74,2.07-5.17.25-.11.26.11.28.38l-.33,8.64c-.29.71-1.94,3.86-2.56,5.11-.35.7-2.24-.27-2.01-.87"/>
      <path class="uuid-812e9b4a-56e1-46ca-b9e4-848329062319" d="M24.36,45.74c-.17,1.03-1.61.86-2.2.6-.77-.34-.62-.91-.34-1.75.26-.78.63-1.84.8-2.24.09-.22.2-.5.4-.63.47-.28,1.73-.12,1.67.77-.04.63-.11,1.25-.18,1.86-.09.69-.03.7-.15,1.39"/>
      <path class="uuid-23f3f4df-6195-4a82-bbf1-347e38ad2191" d="M23.31,42.87c-.2-.01-.4,0-.59.05,0-.01,0-.02,0-.03.08-.5.24-.99.33-1.49.07-.41.09-.84.11-1.26.02-.5.03-1,.05-1.49.87.22,1.74.45,2.63.58-.2.46-.42.92-.64,1.38-.8,1.72-.68,1.9-.77,2.58-.3-.22-.78-.29-1.12-.31"/>
      <path class="uuid-d047e058-bfa5-4def-b392-3953fdf4dca4" d="M27.18,27.7c2.87,1.6,3.69,5.45,4.35,6.82.6,1.06-2.11,3.03-2.62,2.28l-3.11-4.98,1.37-4.12Z"/>
      <path class="uuid-ae989cdd-42dc-4b04-9aed-823f424b968a" d="M22.83,27.65c-.55-1.29-1.03-2.46-1.36-3.31-.28-.73-.45-2.07-.47-2.48-.05-.99-.05-1.82,0-2.48.04-.63.59-1.11,1.22-1.05,3.79.32,5.2.7,6.99,1.29.47.5.52,1.3.49,1.91-.14,2.54-1.15,5.45-2.51,10.48-.32,1.2-.5,2.44-.54,3.69-.12,3.55-1.51,6.62-1.55,6.8-.15.65-2.79.35-2.74-.56.02-.41.02-3.4.6-7.19.11-.74.17-1.5.14-2.26-.08-2.4-.25-4.85-.25-4.85"/>
      <path class="uuid-55c4c302-4e86-4aa7-9e0b-371a333a8f0d" d="M21.24,16.99c.17-1.49.2-2.99.13-4.49-.02-.45-.05-.92-.08-1.4-.13-1.92-.45-3.92-.02-4.97.41-.94,2.12-.74,2.12-.74,2.56.08,4.67.95,4.67.95,0,0,2.85,1.21,3.66,2.02.16.3.25.55.2.79l-1.4,3.52-.68,2.11c-.12.37-.22.74-.3,1.12-.23,1.06-.35,1.89-.24,2.64.12.8.17,1.06.31,1.82.36,1.93-8.92,2.03-8.64-1.18.02.01.12-.92.27-2.2"/>
      <path class="uuid-7c010a84-8bf7-4b2d-b301-d40b1204ff4f" d="M24.54,9.68c-1.32-1.24-.8-3.19-.4-3.51.72-.56,4.73.12,4.07,1.46-.97,1.96-2.81,2.86-3.67,2.05"/>
      <path class="uuid-2b082739-ef24-4894-b872-34ae7e559a21" d="M20.13,28.1l4.28-4.44c.14-.15.14-.39-.01-.53-.15-.14-.39-.14-.53,0l-4.28,4.44c-.18.21.39.68.54.52"/>
      <path class="uuid-3e522902-ef60-4305-91d5-c856feb8f3ae" d="M7.44,41.08l12.53-13.01c.1-.1-.26-.44-.36-.34l-12.53,13.01c-.1.1.24.46.36.34"/>
      <path class="uuid-5988f3fa-cd14-4b6b-8afc-e4cc77f2e7b1" d="M.5,48.12s.1-.02.14-.06l6.71-6.97c.07-.07-.2-.34-.27-.26L.37,47.8c-.07.08-.07.19,0,.27.04.03.08.05.13.05"/>
      <path class="uuid-3e522902-ef60-4305-91d5-c856feb8f3ae" d="M.5,48.44c.13,0,.26-.05.36-.15l.28-.29c.19-.2.19-.52-.01-.71-.2-.19-.52-.19-.71.01l-.28.29c-.19.2-.19.52.01.71.1.09.22.14.35.14"/>
      <path class="uuid-23f3f4df-6195-4a82-bbf1-347e38ad2191" d="M24.04,22.68l.36.1c-.44,1.54-.51,3.19-.22,4.77.07.38.17.81.38,1.2.19.35.49.54.77.5.34-.04.62-.38.75-.88.17-.68.02-1.06-.4-2.1-.19-.47-.42-1.05-.7-1.84-.1-.3-.23-.66-.17-1.03l.37.06c-.05.28.06.58.15.85.27.78.51,1.36.69,1.82.44,1.09.62,1.54.42,2.33-.17.66-.57,1.1-1.07,1.16-.04,0-.08,0-.12,0-.4,0-.78-.26-1.03-.7-.24-.43-.35-.91-.42-1.31-.3-1.63-.22-3.34.23-4.94"/>
      <path class="uuid-7c010a84-8bf7-4b2d-b301-d40b1204ff4f" d="M22.15,24.86c.09-.19.85-1.13.86-1.14-.14.03-.27-.07-.24-.29.02-.18.15-.82.48-1.14.19-.2.74-.57.96-.76.48-.44.55-.56,1.01-1,.16-.15,1.56.81,1.48,1.07-.46.5-.69,1.07-.85,1.43-.25.57-.49,1.16-1.01,1.49-.09.06-.23.05-.33.08-.1.03-.17.08-.27.08-.09,0-.27,0-.37,0-.23.12-.38.16-.51.09-.11-.06-.03-.3.03-.5-.22.22-.73.71-.78.75-.08.07-.16.12-.29.12-.07,0-.15-.03-.18-.09-.03-.06-.01-.13.02-.19"/>
      <polyline class="uuid-8ebf1383-f605-4cd2-9a3d-78869a5ca1db" points="38.42 9.98 25.65 4.9 19.34 20.74 32.12 25.82 38.42 9.98"/>
      <path class="uuid-0184f1f7-34e5-4d0c-945d-d927b93a148d" d="M28.79,10.24c-.06.93-.37,4.32-.43,6.18,0,0-2.91,3.5-3.57,4.35-.35.6,1.23,1.99,1.65,1.52.11-.12,4.28-4.43,4.28-4.43,0,0,2.62-6.33,1.2-9.27-.2-.42-.64-.64-1.13-.64-.87,0-1.89.71-1.98,2.28"/>
      <path class="uuid-7c010a84-8bf7-4b2d-b301-d40b1204ff4f" d="M26.84,3.91c.15,1.12.33,2.16.64,2.72.14.24.18.52.06.77-.07.15-.18.33-.33.54-.76,1-1.54,1.11-2.03,1.04-.32-.04-.59-.27-.69-.58l-.1-.3,2.45-4.19Z"/>
      <polygon class="uuid-f2197683-dba9-42ea-958b-32f52d4eb9a4" points="21.41 4.25 22.72 3.33 22.83 3.12 21.42 4.14 21.41 4.25"/>
      <path class="uuid-7c010a84-8bf7-4b2d-b301-d40b1204ff4f" d="M25.73.41c1.17.46,2.04,1.29,1.76,3.54-.21,1.73-1.67,3.48-2.96,4.41-.32.23-1.3.48-1.62-.26-.27-.63-.9-2.48-.92-4.09-.01-1.29.04-2.4,1.03-3.2.68-.54,1.48-.87,2.71-.39"/>
      <path class="uuid-817ec165-6f71-4447-869e-145d30403bb1" d="M25.48,4.79c-.12-.34-.15-.62-.5-.8-.65-.33-2.22-.07-2.97-.82-.2-.68.09-1.75,1.01-2.51.67-.56,1.58-.91,2.81-.43,1.17.46,2.1,1.38,1.76,3.72-.03.17-.29,1.53-.61,1.53-.2-.05-.05-.77-.08-.97-.05-.33-.42-.51-.66-.25-.11.11-.18.26-.21.41-.06.38-.39.57-.55.12"/>
      <polygon class="uuid-f2197683-dba9-42ea-958b-32f52d4eb9a4" points="24.58 5.68 26.03 4.69 26.08 4.51 24.57 5.58 24.58 5.68"/>
      <path class="uuid-f2197683-dba9-42ea-958b-32f52d4eb9a4" d="M22.8,4.81c.11-.06.29-.01.39.14v.11c-.05-.06-.2-.26-.38-.16v-.09Z"/>
      <g class="uuid-e2264f16-a626-4f95-b63b-4429d67a2869">
        <g class="uuid-16462399-d1eb-4fa6-8e02-23750ee06251">
          <g class="uuid-017a8ac3-cb10-459e-9047-64e5414a3a09">
            <path class="uuid-f2197683-dba9-42ea-958b-32f52d4eb9a4" d="M22.1,5.33c.39.19.7.02.71-.37v-.06c0-.25-.19-.55-.44-.67l-.51-.25c-.25-.12-.45-.01-.45.24v.06c0,.39.3.86.69,1.05"/>
          </g>
        </g>
      </g>
      <g class="uuid-e2264f16-a626-4f95-b63b-4429d67a2869">
        <g class="uuid-d522a19d-b433-4f55-aac2-470f240b3dd2">
          <g class="uuid-1747dd48-2190-4b35-a8bb-56f43141b98e">
            <path class="uuid-f2197683-dba9-42ea-958b-32f52d4eb9a4" d="M23.87,6.13c.39.19.7.02.71-.37v-.06c0-.25-.19-.55-.44-.67l-.51-.25c-.25-.12-.45-.01-.45.24v.06c0,.39.3.86.69,1.05"/>
          </g>
        </g>
      </g>
      <path class="uuid-f2197683-dba9-42ea-958b-32f52d4eb9a4" d="M21.4,4.28c0,.4.31.87.7,1.06.13.06.25.09.36.07.06,0,.12-.03.17-.06.12-.08.19-.22.2-.4v-.06c0-.25-.2-.56-.45-.68l-.51-.25c-.13-.06-.25-.07-.34-.01-.08.05-.12.14-.13.26v.06ZM21.42,4.28v-.06c0-.11.04-.19.12-.24.03-.02.06-.03.1-.03.07,0,.14,0,.22.05l.51.25c.24.12.43.41.43.65v.06c0,.17-.07.31-.18.38-.13.08-.32.07-.51-.02-.38-.18-.69-.65-.68-1.04"/>
      <path class="uuid-f2197683-dba9-42ea-958b-32f52d4eb9a4" d="M23.17,5.02v.06c0,.4.3.87.69,1.06.12.06.25.09.36.07.06,0,.12-.03.17-.06.12-.08.19-.22.2-.4v-.06c0-.25-.2-.56-.45-.68l-.51-.25c-.13-.06-.25-.07-.34-.01-.08.05-.13.14-.13.26M23.2,5.08v-.06c0-.11.04-.19.11-.24.03-.02.06-.03.1-.03.07,0,.14,0,.22.05l.51.25c.24.12.43.41.43.65v.06c0,.17-.07.31-.18.38-.13.08-.32.07-.51-.02-.38-.18-.68-.65-.68-1.04"/>
    </g>
  </g>
</svg>