<?xml version="1.0" encoding="UTF-8"?>
<svg id="Calque_2" xmlns="http://www.w3.org/2000/svg" viewBox="0 0 24.62 48.2">
  <defs>
    <style>
      .cls-1 {
        fill: #9fc5e9;
      }

      .cls-2 {
        fill-rule: evenodd;
      }

      .cls-2, .cls-3 {
        fill: #f08c8d;
      }

      .cls-4 {
        fill: #d95f61;
      }

      .cls-5 {
        fill: #656da4;
      }

      .cls-6 {
        fill: #f4ab9d;
      }

      .cls-7 {
        fill: #6b3750;
      }

      .cls-8 {
        fill: #f4a79b;
      }

      .cls-9 {
        fill: #e2e4f4;
      }

      .cls-10 {
        fill: #f0888c;
      }

      .cls-11 {
        fill: #7f8ec6;
      }

      .cls-12 {
        fill: #7990c8;
      }
    </style>
  </defs>
  <g id="_Éléments_Mise_en_page" data-name="Éléments_Mise_en_page">
    <g>
      <path class="cls-5" d="M10.16,10.06s0,0,0-.01c0-.04.02-.07.02-.07h0c.07-.25.25-.48.25-.48,0,0,.26,1.43,1.12,1.93.82.48,1.24.59,1.61.38.18.19.6.64.5.83-.05.1-.21.13-.36.15l-.04.06s-1.49.11-2.39-1.47c-.02-.01-.03-.02-.05-.04h0c0,.39.03.63.03.91-.07.14-.19.12-.29.03-.08-.3-.02-.59-.23-1.13-.22-.58-.2-.94-.17-1.09"/>
      <path class="cls-3" d="M8.98,12.85c.69-1.46,1.33-3,1.75-4.59.1-.37.13-.7.07-1.09-.09-.62-.52-1.37-1.08-1.19-.53.17-.94,1.41-1.08,1.96-.6,2.31-.93,2.88-1.17,4.41-.1.65,0,1.51.79,1.43.36-.04.58-.61.72-.92"/>
      <path class="cls-2" d="M3.93,18.83c.3-.41.88-.91,1.41-.88.58.04.42.52.36.9-.02.11-.34,1.13-.28,1.14l-.25-.03-.6.19-.38-.18-.25-.04c-.03-.12-.04-.22-.04-.31-.06.05-.14.07-.23.05l.03-.47c.01-.2.08-.2.22-.39"/>
      <path class="cls-2" d="M4.44,18.39c.38.02.95.27,1.17.42.44-.73,1.89-2.87,2.63-4.39.43-.88.58-1.65.05-2-.49-.33-.82.09-1.27.73-.98,1.39-1.45,3.27-2.58,5.25"/>
      <path class="cls-9" d="M2.21,22.21s.08,0,.1-.05c.41-1.16,1.32-2.5,2.12-2.72.22-.06.37-.04.45.06.16.21.14.94.1,1.55,0,.07.04.15.09.18.06.02.1-.02.11-.09.07-1.06.02-1.56-.18-1.82-.18-.24-.44-.2-.65-.15-.88.24-1.8,1.63-2.22,2.83-.02.06,0,.15.05.2.01,0,.02.02.03.02"/>
      <path class="cls-7" d="M3.86,23.83c-.07.07-.14.14-.21.21-.08.03-.13.08-.17.11-.1.09-.21.21-.29.27-.07.05-.13.09-.2.14-.05.03-.34.27-.09.06.24-.19-.02,0-.11.03-.07.03-.14.05-.21.07-.01,0-.03,0-.04,0-.01,0-.02,0-.04,0-.02,0-.03,0-.04,0-.13-.02-.26-.07-.39-.09.12.02.2.04.25.04.08.02.11.02,0,0-.08-.02-.2-.05-.28-.08-.31-.12-.61-.26-.9-.41,0,0,0,0,0,0,0,0,0,0,0,0,0,0,0,0-.01-.01.04-.43-.07-.89-.29-1.27.03-.13.11-.24.22-.3l4.36-2.53.58-.32c.12-.07.26-.04.35.07l.57.73s.05.04.08.03l.88-.18c.06-.01.12.03.12.09v.06c-.02.12-.04.24-.04.36-1.59.25-3.02,1.82-4.09,2.92"/>
      <path class="cls-7" d="M.5,28.95c-.09-.05-.19-.1-.28-.14.38.16.38.18.28.14"/>
      <path class="cls-11" d="M3.01,23.43l-.09,8.41c-.17,0-.34-.04-.5-.13l-2.15-1.21c-.18-.12-.29-.33-.27-.54l.82-6.93.04-.15c0-.05.08-.07.1-.02l.59,1.14c.06.12.21.16.33.1l1.13-.66Z"/>
      <path class="cls-1" d="M8.69,28.16c.01.22-.1.43-.28.54l-5.05,3s-.04.02-.05.03c-.02,0-.04.02-.06.03-.02,0-.03.01-.05.02s-.03.01-.05.02c0,0,0,0,0,0-.02,0-.03,0-.05.01,0,0,0,0,0,0-.02,0-.04,0-.05.01h0s-.04,0-.06,0c-.02,0-.04,0-.06,0,0,0-.02,0-.03,0l.09-8.37,4.81-2.97c.09-.06.21,0,.21.11l.69,7.55Z"/>
      <path class="cls-9" d="M4.02,23.43c.07.02.1-.02.09-.09-.25-1.97-.2-3.85.44-4.02.28-.07.56.16.74.37.47.53.87,1.48,1,2.37.01.07.06.14.11.16.05.02.09-.03.08-.1-.14-.99-.57-2.02-1.11-2.62-.32-.36-.65-.52-.93-.45-.71.18-.79,2.11-.52,4.22,0,.07.05.14.1.16"/>
      <path class="cls-6" d="M5.39,19.91c.33-.11.2-.68-.06-.83-.35-.2-.52.1-.68.32-.12.16-.45.56-.22.71.2.14.99.02,1.02-.19-.03,0-.06,0-.09,0h.03Z"/>
      <path class="cls-7" d="M17.41,37.32c.19-.42.54-.83.71-1.15.12-.21.21-.37.26-.45.15-.25.52-1.23.63-1.49.23-.54.9-.02,1.05.34.05.13.06.3.03.48-.05.36-.05.52-.05.77,0,.14-.01.39-.01.39l-.3.36s-.15-.06-.15-.06c-.43.95-1.11,1.7-2.29,1.54-.05-.23.01-.49.13-.74"/>
      <path class="cls-3" d="M18.67,36.99c-.3.2-.88.43-.77.04.11-.38.26-.82.41-1.08.25-.41.42-.83.43-1.32.01-.24-.22-1.38.47-1.01.09,0,.17.18.22.24.11.12.24.21.36.32.12.11.19.25.21.42,0,.03,0,.06,0,.09-.03.49-.47,1.2-.7,1.63-.09.17-.36.48-.64.67"/>
      <path class="cls-3" d="M14.17,26.43c.33.16.66.4.97.64.83.63,1.57,1.39,2.13,2.27.75,1.16,1.88,3.58,2.5,4.81.24.46-.18.04-.45.4-.23.07.17.43-.05.53-.04.02.28.42.25.43-.98-.43-6.94-7.07-7.26-7.95-.42-1.15,1.64.03,1.91-1.14"/>
      <path class="cls-3" d="M8.33,21.4c-.14-1.05-.24-2.15.34-3.01.08-.12.09-.25.05-.37.12-.15.25-.28.4-.38.48-.31,1.92-.08,2.37.27.99.76,2.87,6.49.36,9-.88.88-2.74-3.06-3.4-4.93,0-.02-.11-.57-.11-.59"/>
      <path class="cls-7" d="M7.65,48.11c-.19.17-.5.09-.57-.16-.12-.41.03-.91.13-1.39.18-.84.49-1.91.78-2.73.55-1.57,1.72-1.47,1.67.32-.03,1.44-.94,2.99-2,3.96"/>
      <path class="cls-6" d="M7.56,45.41c.03-.15.07-.32.09-.47.03-.19.07-.36.12-.52l.12-.4c.17-.56.31-1.04.3-1.71,0-.55.06-1.12.12-1.67.03-.27.06-.56.08-.83v-.16c.17-1.9.32-3.81.47-5.71.02-.27.04-.55.06-.82.06-.78.12-1.59.21-2.4.02-.17.06-.34.11-.5.12-.74.41-2.15,1.02-5.21.28-1.38.62-3.1,1.05-5.26.15-.76.4-1.56,1.11-1.82.35-.12.72-.07,1.01,0,.62.13,1.21.37,1.76.69-.28,1.75-.36,3.51.34,5.14-.61,1.94-1.58,4.29-3.04,6.16l-.62,1.44c.08.82.16,1.66.02,2.54-.04.52-.09,1.08-.18,1.64-.29,1.9-.9,3.79-1.49,5.62-.18.55-.36,1.13-.54,1.69-.09.29-.19.61-.21.93-.01.11-.02.22-.04.32-.11.74-.37,1.16-.72,1.73-.09.15-.18.3-.29.47-.09.14-.19.32-.36.44-.1.07-.21.11-.33.11,0,0,0,0-.01,0-.09,0-.18-.04-.25-.1-.07-.07-.11-.17-.11-.27.01-.36.09-.72.16-1.06"/>
      <path class="cls-4" d="M11.52,6.4c-.46-.26-.87-.57-1.16-.88-1.3-1.4-1.22-5.06,1.01-5.48.72-.14,1.49.07,2.05.54.96.81,1.98,2.66,3.55,2.22.49-.14.83-.7,1.37-.85.64-.18,1.26.05,1.89-.25.56-.27.96-.82,1.49-1.09.51-.26,1.23-.53,1.21.36-.01.48-.46.7-.74,1.07-.82,1.09-.3,2.47-1.74,3.07-.62.26-1.17.11-1.82.19-1.22.15-2.21.83-3.19,1.47-1.07.7-2.71.32-3.94-.37"/>
      <path class="cls-12" d="M8.78,24.42c.2.66.58,1.84.84,2.42.08.18.19.33.33.45.03,0,.06.02.07.02.16.04.32.08.48.11.61.12,1.23.2,1.86.24.07,0,.15,0,.23.01.51-.06.99-.14,1.38-.17.05,0,.09,0,.14-.01.26-.02.55-.05.75-.23.14-.13.22-.31.3-.49.04-.1.08-.19.12-.29l.1-.26c.24-.6.46-1.24.65-1.87.17-.57.33-1.15.45-1.72.2-.94.06-2.15.05-3.13-.02-1.9-1.12-3.67-1.43-5.52,0-.06-.02-.12-.03-.17-.04-.27-.05-.53-.02-.79,0,0,0,0,0-.01,0-.07.01-.13.02-.2.15-1.09.76-2.08,1.1-3.18,0-.03.02-.06.03-.09.17-.59.33-1.29-.07-1.83-.03-.04-.07-.08-.1-.11-.22-.23-.46-.41-.72-.55-.35-.2-.73-.35-1.13-.5-.04-.01-.07-.03-.11-.04-.1-.04-.19-.07-.28-.1-.1-.03-.19-.06-.29-.09-.66-.2-1.34-.32-2.04-.46-.02,0-.04,0-.06-.01-.04,0-.08-.01-.12-.02-.07-.01-.14-.02-.22-.03-.6-.05-1.23.14-1.59.61-.18.24-.27.52-.35.81-.3,1.06-.55,2.23-.31,3.39.33,1.55.71,2.71.36,4.34-.17.77-.52,2.48-.73,3.38-.51,2.18-.26,3.91.37,6.06"/>
      <path class="cls-10" d="M10.87,6.05c-.29.15-.44.47-.37.79.14.62.24,1.3.79,1.45.97.27,1.93-1.06,2.21-1.91,0-.01,0-.02-.02-.03-.66-.2-1.36-.33-2.06-.46-.03,0-.09,0-.12,0-.16.04-.3.1-.44.17"/>
      <path class="cls-5" d="M16.14,9.64c-.34,1.1-.94,2.09-1.1,3.18,0,.07-.02.13-.02.2,0,0,0,0,0,.01-.02.26-.02.52.02.79,0,.06.02.12.03.17.32,1.86,1.42,3.63,1.43,5.52,0,.97.15,2.18-.05,3.13-.12.57-.27,1.14-.45,1.72-.2.63-.41,1.25-.65,1.87l-.1.26c-.04.1-.08.19-.12.29-.08.18-.15.36-.3.49-.2.18-.48.21-.75.23-.04,0-.09,0-.14.01.63-.06.78-6.21.78-6.98,0-1.95-.35-5.5-2.1-6.78-.74-.54-1.97-.46-2.36-1.29,1.38.54,3.09.04,3.96-1.16.89-1.22.57-2.96,1.04-4.23.26.15.5.33.72.56.03.03.07.07.1.11l.05,1.91Z"/>
      <polygon class="cls-10" points="12.7 3.23 12.7 6.72 10.77 6.72 11.08 3.23 12.7 3.23"/>
      <path class="cls-8" d="M12.04,3.15c.29-.08.57-.22.81-.41,0,.21,0,.41,0,.43,0,1.12-.73,2.48-1.81,2.22-.77-.19-1.07-1.1-1.07-2.22v-.11c.64.28,1.41.26,2.07.09"/>
      <path class="cls-8" d="M11.85,2.12v1.33h-.51l-.04-.17c.12-.03.43-1.1.55-1.16"/>
      <path class="cls-6" d="M19.33,19.61s-.03-.04-.04-.06c-.19-.33-.39-.65-.56-.99-.6-1.16-1.08-2.37-1.54-3.57-.24-.64-.89-1.94.3-2.04,1.22-.1,1.53,1.87,1.74,2.58.07.25.15.5.22.76.28.96.54,1.89.73,2.86.03.13.05.27.02.4-.11.38-.64.38-.87.05"/>
      <path class="cls-6" d="M16.79,13.75c-.84-1.37-1.65-2.84-2.24-4.38-.14-.36-.2-.68-.19-1.07.02-.63.37-1.42.95-1.3.55.11,1.09,1.3,1.29,1.83.84,2.24,1.23,2.76,1.64,4.26.17.64.16,1.5-.64,1.5-.36,0-.64-.55-.82-.84"/>
      <path class="cls-9" d="M17.92,23.72s.09,0,.1-.05c.43-1.2,1.36-2.58,2.18-2.8.23-.06.38-.04.46.06.17.22.15.97.1,1.6,0,.08.04.16.1.18s.11-.02.11-.1c.07-1.1.02-1.61-.19-1.88-.19-.25-.46-.21-.67-.15-.9.25-1.86,1.69-2.29,2.92-.02.07,0,.16.05.21.01,0,.02.02.03.02"/>
      <path class="cls-7" d="M23.9,22.06v-.12c0-.06-.07-.11-.13-.1l-.91.19s-.07,0-.08-.03l-.59-.75c-.08-.11-.24-.14-.36-.07l-.6.33-4.5,2.62c-.14.08-.23.22-.24.38v.05s-.02.13-.02.13c.14.66.29,1.31.34,1.99.01.17.02.33.03.5.22.79.44,1.59.61,2.4.15.71.28,1.46.33,2.21.18.64.36,1.28.67,1.86.06.01.12.02.18.02,0,0,.02,0,.03,0,.02,0,.04,0,.06,0,.02,0,.04,0,.06,0h0s.04,0,.06-.01c0,0,0,0,0,0,.02,0,.04,0,.05-.01,0,0,0,0,0,0,.02,0,.04-.01.05-.02.02,0,.03-.01.05-.02.02,0,.04-.02.06-.03.02,0,.04-.02.06-.03l5.22-3.1c.19-.12.3-.33.29-.56l-.71-7.8Z"/>
      <path class="cls-11" d="M18.75,24.98l-.09,8.68c-.18,0-.36-.04-.51-.14l-2.22-1.25c-.19-.12-.3-.34-.28-.56l.84-7.15.04-.15c0-.05.08-.07.1-.02l.6,1.18c.07.12.22.17.34.1l1.17-.68Z"/>
      <path class="cls-1" d="M24.62,29.86c.01.23-.1.44-.29.56l-5.22,3.1s-.04.02-.05.03c-.02.01-.04.02-.06.03-.02,0-.03.01-.05.02-.02,0-.04.01-.05.02,0,0,0,0,0,0-.02,0-.03,0-.05.01,0,0,0,0,0,0-.02,0-.04,0-.06.01h0s-.04,0-.06,0c-.02,0-.04,0-.06,0,0,0-.02,0-.03,0l.09-8.64,4.96-3.07c.09-.06.21,0,.22.12l.72,7.8Z"/>
      <path class="cls-9" d="M19.79,24.98c.07.02.1-.02.09-.1-.26-2.04-.2-3.98.45-4.15.29-.07.58.16.77.38.49.54.9,1.53,1.03,2.45.01.08.07.15.12.17.05.02.09-.03.08-.11-.14-1.02-.59-2.08-1.15-2.7-.33-.37-.67-.53-.95-.46-.73.19-.82,2.18-.54,4.36,0,.07.05.14.1.16"/>
      <path class="cls-6" d="M20.7,21.59c-.1.03-.19.06-.29.08-.01,0-.02,0-.03,0-.12.02-.23.04-.35.06l-.37-.74.12.77s-.09.01-.14.02c-.06-.13-.12-.3-.21-.5-.37-.86-.27-1.73-.27-1.73l.05-.1c.13-.28.47-.4.71-.26.4.25.73.61.93,1.06l.21.46c.1.22.13.46.09.71-.15.06-.3.11-.45.16"/>
    </g>
  </g>
</svg>