<?xml version="1.0" encoding="UTF-8"?>
<svg xmlns="http://www.w3.org/2000/svg" xmlns:xlink="http://www.w3.org/1999/xlink" viewBox="0 0 19.53 41.27">
  <defs>
    <style>
      .cls-1 {
        fill: #d8ddee;
      }

      .cls-2 {
        mix-blend-mode: multiply;
        opacity: .71;
      }

      .cls-3 {
        fill: #2b3086;
      }

      .cls-4 {
        fill: none;
      }

      .cls-5 {
        clip-path: url(#clippath-1);
      }

      .cls-6 {
        isolation: isolate;
      }

      .cls-7 {
        fill: #d3e4f6;
      }

      .cls-8 {
        fill: #466cb2;
      }

      .cls-9 {
        fill: #f3f8fc;
      }

      .cls-10 {
        fill: #ef7f55;
      }

      .cls-11 {
        clip-path: url(#clippath);
      }

      .cls-12 {
        fill: #e9edf6;
      }
    </style>
    <clipPath id="clippath">
      <rect class="cls-4" x="4.82" y="5.26" width="2.06" height="2.84"/>
    </clipPath>
    <clipPath id="clippath-1">
      <rect class="cls-4" x="4.82" y="5.26" width="2.06" height="2.84"/>
    </clipPath>
  </defs>
  <g class="cls-6">
    <g id="Calque_2">
      <g id="_Éléments_Mise_en_page" data-name="Éléments_Mise_en_page">
        <g>
          <path class="cls-10" d="M13.88,21c.32,0,.64-.15.85-.43.34-.47.24-1.12-.23-1.46l-4.48-3.26c-.47-.34-1.12-.24-1.46.23-.34.47-.24,1.12.23,1.46l4.48,3.26c.19.14.4.2.62.2"/>
          <path class="cls-10" d="M9.82,18.14c.07,0,.14,0,.21-.02.67-.12,1.11-.75.99-1.42l-1.24-7.09c-.12-.67-.75-1.11-1.42-.99-.67.12-1.11.75-.99,1.41l1.24,7.09c.1.59.62,1.01,1.2,1.01"/>
          <path class="cls-1" d="M7.38,9.97l1.04,5.66c.2.41.63.67,1.11.67.07,0,.14,0,.21-.02.01,0,.03,0,.04,0,.64-.13,1.07-.72.95-1.33l-1.05-5.66c-.23-.46-.76-.75-1.32-.65-.66.11-1.11.71-.99,1.34"/>
          <path class="cls-1" d="M8.27,15.7v-.02s-1.06-5.68-1.06-5.68c-.06-.34.01-.69.21-.97.21-.31.54-.51.92-.57.62-.1,1.24.21,1.51.75v.02s1.06,5.69,1.06,5.69c.13.7-.36,1.39-1.09,1.53-.02,0-.04,0-.05.01-.09.01-.16.02-.24.02-.54,0-1.04-.3-1.27-.77M8.4,8.8c-.29.05-.53.2-.69.43-.15.21-.2.46-.16.71l1.04,5.64c.17.34.54.55.94.55.06,0,.12,0,.19-.02h.03c.56-.11.91-.61.82-1.13l-1.04-5.64c-.21-.39-.67-.61-1.13-.54"/>
          <path class="cls-3" d="M15.05,35.54c-.27,0-.51.21-.62.46-.1.25-.11.53-.11.8,0,.24.01.5.18.67.11.11.27.15.41.19.28.07.56.15.85.18.33.03.66,0,.98.04.21.03.41.1.61.15.57.13,1.18.12,1.75-.04.13-.04.26-.09.34-.19.14-.17.09-.43-.05-.6s-.34-.26-.54-.36c-.6-.27-1.19-.55-1.79-.82-.58-.27-1.19-.54-1.83-.56-.21,0-.48.09-.46.29l.27-.21Z"/>
          <path class="cls-1" d="M15.51,36.55h-.06c-.39-.04-.69-.38-.66-.78l.1-1.21c.03-.4.38-.69.77-.66h.06c.39.04.69.38.66.78l-.1,1.21c-.03.4-.38.69-.77.66"/>
          <path class="cls-3" d="M15,38.19c.1.23.21.46.31.69.1.24.21.47.28.72.11.37.32,1.09.06,1.43-.39.51-1.04.07-1.36-.29-.48-.53-.92-1.11-1.33-1.73-.17-.26-.35-.55-.4-.88-.16-1.02.33-2.46,1.35-2.12.38.12.54.44.62.86.1.46.27.89.46,1.31"/>
          <path class="cls-1" d="M13.64,37.62h-.06c-.4,0-.72-.32-.72-.72v-1.21c0-.4.32-.72.72-.72h.06c.4,0,.72.32.72.72v1.21c0,.4-.32.72-.72.72"/>
          <path class="cls-3" d="M7.22,19.46l2.37-.66.62,1.25,7.21,3.54c.61.25.97.89.86,1.54l-.11.7h0s-1.31,8.96-1.31,8.96c-.06.41-.39.72-.8.75l-.44.03c-.53.04-.97-.39-.94-.92l.37-7.72-.05.02-6.37-3.34-.03.11.18.15-.2-.08v.04c1.38.98,3.13,2.42,4.66,3.63.28.22.48.53.56.88.05.21.11.43.09.54l.9,7.21c-.04.47-.43.83-.9.83h-.62c-.5,0-.9-.4-.9-.9l-1.45-5.74-8.8-4.92c-.65-.4-1.06-1.08-1.11-1.84l-.11-3.11,6.33-.91Z"/>
          <path class="cls-12" d="M.97,22.69c.58.53,1.67.54,2.8.32,1.22-.24,2.48-.76,3.2-1.2.16-.1,2.08-.98,2.89-1.47.22-.13.3-.41.2-.64-.99-2.37-1.65-5.27-.85-7.67.15-.46.29-.92.38-1.37v-.29.26c.26-1.33.07-2.56-1.42-3.43-.28-.16-.67-.24-1.11-.24-.2,0-.4,0-.62.04-2.85.52-4.36,1.44-5.21,2.85-.58.94-.86,2.1-1.07,3.51-.3,2.1-.26,8.36.81,9.34"/>
          <path class="cls-12" d="M9.62,11.46s-.02.05-.03.07v-.88s0-.02,0-.04l.02.85Z"/>
          <path class="cls-12" d="M3.42,8.58c.46.52,1.14,1.28,1.54,1.73.18.2.49.18.65-.03l.9-1.24,1.29.23c.16.03.3-.09.3-.25v-.4c0-.88-.62-1.65-1.48-1.83-.28-.06-.59-.09-.9-.09-.85,0-1.62.24-2.16.63-.42.29-.47.89-.13,1.27"/>
          <path class="cls-12" d="M.97,22.69c.58.53,1.67.54,2.8.32-.04-.4-.16-.79-.34-1.15-.95-1.54-1.07-1.98-.88-3.79.07-.72.15-1.46-.04-2.16-.18-.66-.6-1.3-.47-1.98.06-.31.22-.58.35-.86.26-.6.34-1.28.21-1.92-.07-.35-.2-.71-.46-.96-.24-.24-.58-.35-.91-.35-.58.94-.86,2.1-1.07,3.51-.3,2.1-.26,8.36.81,9.34"/>
          <path class="cls-3" d="M4.46,7.64c0,.2.09.39.24.54.24.24.64.4,1.09.4s.83-.15,1.08-.38c.17-.16.26-.35.26-.56s-.1-.4-.26-.56c-.02-.01-.03-.03-.05-.04,0,0,0,0,0,0-.19-.16-.45-.27-.74-.31-.05,0-.09-.01-.14-.02-.05,0-.09,0-.14,0-.45,0-.85.16-1.09.4-.15.15-.24.34-.24.54"/>
          <path class="cls-10" d="M4.71,4.79v3.4c.24.24.64.4,1.09.4s.83-.15,1.07-.38v-3.42h-2.17Z"/>
          <g class="cls-2">
            <g class="cls-11">
              <g class="cls-5">
                <path class="cls-10" d="M6.79,8.1l-.71-1.02-.13-.19-.95-1.35-.19-.28h.16s.85.06.85.06c.36.36.74.71,1.04,1.11l-.08,1.67Z"/>
              </g>
            </g>
          </g>
          <path class="cls-10" d="M4.17,4.43c0,.13.16.23.31.33.05.04.1.07.15.11,0,0,0,0,.01,0,.04.03.07.06.1.09.04.04.07.08.07.13.04.17.09.32.15.47.21.49.56.89.98,1.16.1.06.19.11.29.15.2.09.41.15.63.17.08,0,.17.01.25,0,.53,0,1.06-.24,1.51-.76.24-.27.38-.61.45-.97.04-.21.07-.43.07-.65,0-.25,0-.5,0-.74-.02-.39-.03-.77-.04-1.16,0-.16-.01-.31-.02-.47.01-.07.01-.14,0-.21-.04-.19-.19-.37-.37-.46-.27-.14-.61-.14-.91-.1-.63.07-1.26.21-1.81.53-.55.31-1.01.81-1.19,1.42-.09.28-.65.67-.63.96"/>
          <path class="cls-3" d="M3.54,2.34c.04-.58.24-1.07.57-1.44.3-.34.7-.59,1.2-.75.31-.1.63-.17.95-.15.45.03.87.25,1.31.37.45.13.93.15,1.37.31.44.16.86.51.91.98.05.48-.32.92-.77,1.11-.44.19-.94.19-1.42.18-.33,0-1.01-.14-1.31.01-.45.23-.28.92-.5,1.28-.06.11-.19.19-.31.18-.3-.02-.4-.44-.68-.54-.19-.07-.42.05-.51.24-.08.19-.03.42.09.58.13.18.39.19.51.33.1.11.06.31.02.5-.04.16-.14.32-.29.37-1.17.4-1.19-3.03-1.15-3.58"/>
          <path class="cls-7" d="M5.25,24.59l6.38-3.48,5.99,3.59-6.92,3.96-5.59-3.35c-.08-.05-.14-.14-.14-.24,0-.2.11-.38.28-.48"/>
          <path class="cls-9" d="M10.95,28.33l6.92-3.96-5.7-3.41c-.18-.11-.4-.11-.59,0l-6.36,3.64c-.12.07-.12.24,0,.31l5.73,3.43Z"/>
          <polygon class="cls-1" points="14.13 22.51 8.55 25.52 10.84 27.06 16.24 23.96 14.13 22.51"/>
          <polygon class="cls-1" points="7.92 23.63 10.58 22 11.96 22.79 9.25 24.49 7.92 23.63"/>
          <path class="cls-7" d="M10.33,27.96l.82-6.14c.02-.14.11-.27.24-.35,0,0,3.27-1.87,3.28-1.87l3.08-1.81c.08-.05.17-.06.24-.06h0s0,0,0,0c.08,0,.61.31.61.31l-.35.18-.8,5.86c-.02.14-.11.27-.24.35l-6.11,3.9c-.28.16-.74-.21-.77-.37"/>
          <path class="cls-8" d="M18.18,18.03l-3.08,1.81s-3.28,1.87-3.28,1.87c-.13.08-.22.21-.24.35l-.82,5.97c-.04.3.25.48.53.32l6.35-3.67c.13-.08.22-.21.24-.35l.82-5.97c.04-.3-.25-.48-.53-.32"/>
          <path class="cls-10" d="M.47,11.4v6.81c0,.9.43,1.76,1.16,2.29l4.83,3.54c.22.16.48.24.74.24.39,0,.77-.18,1.01-.51.41-.56.29-1.34-.27-1.75l-4.83-3.54c-.09-.06-.14-.17-.14-.27v-6.81c0-.69-.56-1.25-1.25-1.25s-1.25.56-1.25,1.25"/>
          <path class="cls-12" d="M1.73,18.83c-.64.08-1.12-.09-1.52-.75v-6.5c0-.96.62-1.74,1.4-1.74s1.4.78,1.4,1.74v6.73c-.43.27-.9.47-1.27.52"/>
          <path class="cls-10" d="M8.09,25.38h0c-.22,0-.4-.18-.4-.4v-1.66c0-.22.18-.4.4-.4s.4.18.4.4v1.66c0,.22-.18.4-.4.4"/>
          <path class="cls-10" d="M15.7,20.76c0,.91-.69,1.64-1.55,1.64s-1.55-.73-1.55-1.64.69-1.64,1.55-1.64,1.55.73,1.55,1.64"/>
          <path class="cls-7" d="M10.33,27.96l.82-6.14c.02-.14.11-.27.24-.35,0,0,3.27-1.87,3.28-1.87l3.08-1.81c.08-.05.17-.06.24-.06h0s0,0,0,0c.08,0,.61.31.61.31l-.35.18-.8,5.86c-.02.14-.11.27-.24.35l-6.11,3.9c-.28.16-.74-.21-.77-.37"/>
          <path class="cls-8" d="M18.18,18.03l-3.08,1.81s-3.28,1.87-3.28,1.87c-.13.07-.22.21-.24.35l-.82,5.97c-.04.3.25.48.53.32l6.35-3.67c.13-.08.22-.21.24-.35l.82-5.97c.04-.3-.25-.48-.53-.32"/>
        </g>
      </g>
    </g>
  </g>
</svg>