<?xml version="1.0" encoding="UTF-8"?>
<svg id="uuid-87b034f1-18f8-4148-a1e1-2f499daa9962" data-name="Calque_2" xmlns="http://www.w3.org/2000/svg" viewBox="0 0 390.58 331.32">
  <defs>
    <style>
      .uuid-0ccf41d1-d995-4c4b-a7e7-71fe12f59d4d {
        fill: #ebd88e;
      }

      .uuid-f3cad7e4-be77-4b87-87c0-9f57d376c5bc {
        fill: #fff3b9;
      }

      .uuid-e06a0ca7-e86a-47ee-ba44-2109f1e589f7 {
        fill: #d2b279;
      }

      .uuid-6ded4a6f-8138-40e9-892a-f43617de159e {
        fill: #e2e0e0;
      }
    </style>
  </defs>
  <g id="uuid-710640e0-f9fc-47ea-abf4-018e342634f1" data-name="Les_personnages">
    <g id="uuid-8fb7ab98-dc81-4691-8576-741ecaa21247" data-name="Chara_x5F_Chieng_x5F_BG">
      <path class="uuid-f3cad7e4-be77-4b87-87c0-9f57d376c5bc" d="M387.22,72.06c-4.87,8.27-11.63,16.13-19.47,21.67-4.24,3.02-8.95,5.39-13.72,7.46-2.39,1.02-4.82,1.99-7.26,2.93-1.86.68-4.86,2.51-6.8,2.51,2.35.03,4.68.03,7.01.05-14.56,8.22-32.49,6.91-49.03,4.42-7.85-1.13-15.05-2.74-22.07-6.39-3.06-1.6-6.59-2.51-10.21-3.19-3.85-.74-7.81-1.2-11.46-1.94-4.56-.94-9.24-1.86-13.72-3.11-3.47-1-6.55-1.05-10.03-1.79-5.84-1.26-6.78-9.01-5.99-14.11.78-5.02,4.16-9.18,5.91-13.92,1.02-2.65,1.62-5.66,3.79-7.44,2.16-1.75,5.16-1.8,7.86-1.54,9.61.86,16.25,7.19,23.72,12.15,2.31,1.65,4.74,3.08,7.33,4.22,11.46,4.94,28.95-2.91,40.03-7.36-.4.18-.94,3.66-1.05,4.16,11.18-4.16,20.47-11.05,24.89-22.64-.09,1.69-.2,3.48.5,4.99.81,1.54,2.66,2.65,4.23,1.94.76-.37,1.26-1.08,1.73-1.79,1-1.38,1.88-2.85,2.72-4.37.48-.81.97-1.65,1.36-2.57.63-1.17,1.19-2.4,1.68-3.68,1.2-2.78,2.17-5.76,2.85-8.72.26-.89.45-1.8.63-2.67.23-1.12.4-2.25.57-3.37.11-.94.22-1.88.29-2.82.03-.22.08-.51.08-.76.03-.4.08-.79.08-1.23.03-.31.03-.66,0-.97,0-2.25-.23-5.47-.16-8.78,0-.49.03-.97.03-1.46.19-5.39,1.34-10.58,5.58-11.8,1.12-.31,2.17-.14,3.22.34.97.46,1.88,1.09,2.72,1.83,1.02.89,1.91,1.97,2.57,3.11,1.11,1.99,2.78,3.38,4.22,5.21,2.48,3.17,4.37,6.73,6.55,10.06,1.94,3,3.89,6.02,5.65,9.13,3.88,6.91,5.96,14.86,5.76,22.78-.08,4.11-.82,8.3-3.06,11.78,1.46-.71,2.74-1.8,3.71-3.08.37,3.79-1.34,7.48-3.25,10.75"/>
      <path class="uuid-0ccf41d1-d995-4c4b-a7e7-71fe12f59d4d" d="M387.29,71.98c-4.87,8.27-11.63,16.13-19.47,21.67-4.24,3.02-8.95,5.39-13.72,7.46-2.39,1.02-4.82,1.99-7.26,2.93-1.86.68-4.86,2.51-6.8,2.51,2.35.03,4.68.03,7.01.05-14.56,8.22-32.49,6.91-49.03,4.42-7.85-1.13-15.05-2.74-22.07-6.39-3.04-1.6-6.59-2.51-10.21-3.19-.71-1.31-1.15-2.77-1.11-4.35,0-.52.14-1.06.08-1.57l11.15.45c21.15,3.11,43.33,3.93,63.35-3.56,20.05-7.53,37.46-24.92,39.77-46.18,1.26-11.64-2.05-23.45-7.87-33.56-1.99-3.45-4.3-6.88-5.98-10.44,1.02.89,1.91,1.97,2.57,3.11,1.11,1.99,2.8,3.38,4.22,5.21,2.48,3.17,4.37,6.73,6.55,10.07,1.95,2.99,3.89,6,5.65,9.12,3.88,6.91,5.96,14.86,5.76,22.78-.08,4.11-.82,8.3-3.04,11.78,1.45-.71,2.73-1.8,3.7-3.08.37,3.79-1.34,7.48-3.25,10.75"/>
      <path class="uuid-f3cad7e4-be77-4b87-87c0-9f57d376c5bc" d="M115.75,170.45c.03,2.25,0,4.53-.03,6.81-.15,11.49-1.11,22.5-2.06,33.87-.08.89-.14,1.8-.19,2.69-.89,11.79-1.17,23.69-1.77,35.5-.29,5.79-1.21,11.57-1.36,17.3-.11,5.38-2.46,10.45-2.42,15.87.03,5.62,2.91,10.41-.91,15.42-1,1.35-2.32,2.37-3.68,3.34-5.62,4.04-14.08,6.89-18.9,1.91-5.13-5.31-1.28-13.89,1.39-20.76.23-.6.46-1.2.65-1.83,3.6-10.32,4.05-21.55,4.45-32.52.49-13.5.63-28.06-4.72-40.04-1.46-3.25-3.32-6.32-5.7-9.12-1.88-2.22-3.88-4.27-5.79-6.33-.03-.03-.03-.05-.03-.05-3.79-4.05-7.33-8.12-9.39-13.58-3.36-8.83-4.33-19.53,1.23-27.13,2.72-3.71,6.7-6.3,10.86-8.24,8.67-4.05,19.47-5.47,27.38-.11,5.13,3.47,8.26,9.32,9.69,15.34.91,3.82,1.23,7.72,1.31,11.65"/>
      <path class="uuid-0ccf41d1-d995-4c4b-a7e7-71fe12f59d4d" d="M113.47,213.82c-.89,11.81-1.17,23.69-1.77,35.5-.27,5.79-1.22,11.57-1.37,17.3-.11,5.39-2.44,10.47-2.42,15.89.03,5.61,2.91,10.4-.91,15.42-1,1.34-2.32,2.36-3.68,3.33-5.61,4.05-14.08,6.91-18.9,1.91-5.13-5.3-1.28-13.88,1.41-20.76.22-.59.45-1.19.65-1.82,3.38-1.17,7.15-.81,10.6-1.77,4.35-1.23,5.7-7.55,6.65-11.46,2.31-9.51,3.44-19.27,3.44-29.04,0-2.59-.08-5.2-.76-7.71-.97-3.49-3.03-6.58-5.16-9.48-1.69-2.31-3.45-4.53-5.57-6.41-2.76-2.43-6.07-4.16-9.03-6.33-.14-.11-.31-.23-.45-.34-4.87-3.74-8.27-9.81-11.26-15.05-.1-.15-.15-.26-.23-.4-.03-.03-.03-.07-.03-.07-.75-1.34-1.38-2.78-1.09-4.27,2.25-.86,4.89-.2,6.85,1.17,4.72,3.22,5.81,8.78,11.18,11.15,5.87,2.59,11.74,5.32,16.96,9.12,1.71,1.26,3.36,2.65,4.9,4.13"/>
      <path class="uuid-f3cad7e4-be77-4b87-87c0-9f57d376c5bc" d="M262.26,153.75c-.4,23.21-4.3,46.59-1.57,69.6,1.15,9.72,1.88,20.18-2.91,28.75-1.23,2.22-2.96,4.37-5.42,5.02-1.83.52-3.79.08-5.68.29-3.28.34-6.18,2.48-9.48,2.85-3.77.4-7.67-1.83-9.24-5.28-3.45-7.57,3.93-19.01,7.01-25.6.16-.37.34-.76.48-1.16,4.31-9.81,5.23-20.88,4.22-31.54-1.02-11.1-4.01-21.92-7.07-32.62-3.33-11.8-10.69-17.91-22.46-20.29-13.14-2.69-26.94-4.39-38.4-11.38-7.78-4.76-9.13-8.49-5.3-17.13,6.29-14.23,14.19-28.14,26-38.29,19.06-16.39,36.92,22.9,45.39,33.95,7.96,10.44,16.9,21.9,23.15,33.33,1.34,2.46,1.34,5.36,1.31,8.16,0,.45,0,.89-.03,1.34"/>
      <path class="uuid-0ccf41d1-d995-4c4b-a7e7-71fe12f59d4d" d="M260.69,223.34c1.13,9.72,1.88,20.18-2.91,28.77-1.23,2.22-2.96,4.37-5.42,5.02-1.83.5-3.79.08-5.68.27-3.28.35-6.18,2.48-9.48,2.85-3.77.41-7.67-1.82-9.24-5.27-3.45-7.59,3.93-19.02,7.01-25.6.16-.37.34-.78.48-1.17,3.28-.85,6.84-.63,10.26-.91,4.19-.37,8.82-1.91,10.58-5.73.91-2.05.86-4.41.78-6.66-.52-12.15-1.04-24.44-4.34-36.12-1.02-3.6-2.33-7.16-4.39-10.24-2.13-3.22-5.01-5.85-7.86-8.45-2.43-2.18-4.76-4.64-7.51-6.39-2.96-1.84-5.84-3.75-8.17-6.41-2.43-2.7-4.16-6.13-4.39-9.74-.16-3.34,5.25-3.06,7.7-2.77,3.71.44,7.14,2.14,10.44,3.93,8.01,4.31,15.74,9.18,23.09,14.58.19.15.42.31.63.45-.4,23.21-4.31,46.59-1.57,69.6"/>
      <path class="uuid-f3cad7e4-be77-4b87-87c0-9f57d376c5bc" d="M265.48,121.3c-5.94,4.95-12.98,8.43-19.65,12.41-1.16.68-2.31,1.39-3.44,2.13-2.43,1.54-4.79,3.14-7.1,4.82-7.74,5.57-14.89,11.93-21.41,18.87-6.22,6.65-11.81,13.84-16.65,21.51-1.52,2.31-2.95,4.72-4.34,7.12-.16.29-.31.57-.55.86-.79,1.34-1.57,2.68-2.39,3.99-1,1.68-2.02,3.34-3.11,4.97-.71,1.05-1.45,2.1-2.2,3.17-.08.14-.16.25-.29.37-.08.16-.16.29-.29.45-2.16,2.96-4.53,5.84-7.26,8.35-1.94,1.83-3.97,3.4-6.1,4.76-2.4,1.57-4.91,2.88-7.51,3.93-8.58,3.63-18.12,4.82-27.65,4.99h-.83c-.87.03-1.79.03-2.67.03-1.15,0-3.56,0-6.36-.16-3.88-.23-8.41-.72-10.97-1.86-.89-.44-1.51-.89-1.83-1.41.86,1.54,1.71,3.06,2.59,4.57-11.75-3.71-21.99-11.96-28.14-22.61-.29,1.99-.57,3.96-.85,5.96-7.87-8.24-14-18.19-17.82-28.92-1.31,1.09-1.62,3.17-.74,4.65-1.04-1.49-4.83-10.04-9.27-20.7-.46-1.05-.89-2.14-1.35-3.3-.63-1.51-1.21-3-1.82-4.57-.57-1.36-1.15-2.73-1.67-4.12-.61-1.46-1.19-2.92-1.79-4.39-6.44-16.57-11.98-32.51-10.26-33.35,4.56-2.25,9.01-4.63,13.43-7.25,1.73-1,3.54-2.09,5.3-3.17,5.8-3.59,10.55-8.09,16.23-11.72,1.02-.66,2.2-1.31,3.48-1.13.94.11,1.73.66,2.57,1.17,1.23.82,2.48,1.56,3.77,2.25.6.34,1.19.66,1.82.97.46.25.91.48,1.41.71,1.11.5,2.25,1.02,3.41,1.51.6.25,1.2.45,1.8.68.29.11.6.22.91.34.31.11.6.19.91.29.68.22,1.34.45,2.02.68,1.02.31,2.12.6,3.17.87,4.59,1.17,9.29,1.8,14,1.91.68.04,1.36.04,2.05.04,1.88,0,3.74-.1,5.6-.23,1.11-.08,2.22-.23,3.33-.37.66-.1,1.31-.18,1.97-.31.71-.12,1.43-.23,2.14-.41.71-.11,1.42-.27,2.14-.45.71-.18,1.42-.34,2.13-.55.94-.25,1.86-.53,2.77-.82,1.49-.49,2.93-1,4.39-1.6.6-.2,1.19-.46,1.76-.72.57-.25,1.17-.51,1.75-.76,1.16-.51,2.33-1.05,3.47-1.65.57-.29,1.15-.6,1.72-.89.4-.19.82-.42,1.23-.66.71-.4,1.45-.79,2.16-1.2.72-.4,1.43-.79,2.11-1.21,2.12-1.23,4.19-2.51,6.28-3.82,1.11-.7,2.22-1.41,3.33-2.12,2.2-1.42,4.39-2.85,6.59-4.27,5.47-3.56,10.92-7.01,16.45-9.92,16.91-8.93,36.36-15.26,55.05-11.3,11.33,2.4,24.21,10.04,31.2,19.87,9.95,14.03,2.02,32.48-10.13,42.72"/>
      <path class="uuid-0ccf41d1-d995-4c4b-a7e7-71fe12f59d4d" d="M99.37,121.43c-.29,3.28-1.06,6.55-1.98,9.69-1.38,4.75-3.52,9.32-6.73,13.07-.11-1.3-.4-2.58-.86-3.79-1.05,2.48-1.91,4.79-3.4,7.07-.72,1.11-1.49,2.18-2.29,3.22-.42.53-2.55,2.42-2.55,3.02.11-.78.2-1.57.31-2.35-3.6,2.61-7.34,5.08-11.45,6.78-2.57,1.05-10.3,3.94-12.75,1.72-1.21-1.09-1.87-4.61-2.5-6.15-.87-2.17-1.73-4.35-2.61-6.54.08-.25.12-.49.2-.74,2.61-9.66,3.55-19.79,2.77-29.78-.2-2.93-.61-5.88-.12-8.82.08-.41.16-.86.29-1.27,1.76-1.01,3.55-2.07,5.31-3.18,5.79-3.59,10.56-8.08,16.24-11.71,1.01-.66,2.2-1.3,3.47-1.13.93.11,1.75.64,2.57,1.17,1.23.82,2.48,1.56,3.75,2.25,2.69,1.5,5.55,2.81,8.45,3.88l-.29,1.71c2.51,5.01,3.19,10.13,4.01,15.56.31,2.09.34,4.2.15,6.32"/>
      <path class="uuid-0ccf41d1-d995-4c4b-a7e7-71fe12f59d4d" d="M134.73,224c-.89.03-1.8.03-2.68.03-1.15,0-3.58,0-6.36-.16-3.88-.23-8.42-.72-10.99-1.86-.87-.44-1.5-.89-1.82-1.41.85,1.54,1.71,3.06,2.59,4.57-11.75-3.71-21.99-11.96-28.14-22.61-.29,1.99-.57,3.96-.86,5.96-7.86-8.24-14-18.19-17.81-28.92-1.32,1.09-1.64,3.17-.75,4.65-1.02-1.49-4.82-10.04-9.27-20.7-.45-1.05-.89-2.14-1.34-3.3-.63-1.51-1.23-3-1.83-4.57-.56-1.36-1.13-2.73-1.65-4.12.55-.52,1.12-1.01,1.77-1.38,2.33-1.39,5.69-1.45,7.55.57l-.4,6.47c7.44,9.16,8.84,22.3,16.94,30.86,2.36,2.47,5.19,4.45,7.98,6.41,11.15,7.81,22.46,15.74,35.39,19.98,2.67.89,5.5,1.65,7.7,3.4,2.02,1.6,3.25,3.7,3.96,6.13"/>
      <path class="uuid-f3cad7e4-be77-4b87-87c0-9f57d376c5bc" d="M171.14,195.94c.05,1.83.03,3.67,0,5.47.03.45,0,.89,0,1.34-.05,4.16-.2,8.24-.42,12.32-.41,7.18-1.04,14.32-1.62,21.55-.6,11.29-1.17,22.56-1.75,33.82-.52,9.89-.11,20.61-2.62,30.24-.57,2.17-1.34,4.37-1.26,6.62.16,5.84,3.04,10.73-1.05,16.13-1,1.32-2.35,2.35-3.69,3.32-5.61,4.04-14.08,6.89-18.9,1.94-5.13-5.31-1.28-13.88,1.36-20.78.75-1.88,1.34-3.79,1.86-5.7,2.54-9.24,2.93-19.01,3.28-28.62.63-17.17.68-36.1-10.43-49.18-.12-.14-.23-.29-.34-.4-5.47-6.39-11.78-11.44-14.89-19.57-3.33-8.83-4.33-19.49,1.26-27.13,2.72-3.71,6.7-6.28,10.86-8.24,8.64-4.05,19.47-5.47,27.38-.11,5.13,3.47,8.23,9.32,9.69,15.34.91,3.82,1.23,7.72,1.28,11.65"/>
      <path class="uuid-0ccf41d1-d995-4c4b-a7e7-71fe12f59d4d" d="M235.29,140.66c-7.72,5.55-14.88,11.91-21.41,18.87-6.21,6.65-11.8,13.82-16.65,21.49-1.52,2.31-2.93,4.74-4.33,7.12-.18.29-.33.57-.55.86-.8,1.34-1.57,2.69-2.4,4-1,1.68-2.02,3.33-3.1,4.95-.72,1.05-1.46,2.12-2.2,3.17-.1.15-.18.26-.29.37-.08.18-.18.29-.29.46-2.17,2.96-4.53,5.84-7.27,8.35-1.94,1.82-3.96,3.38-6.1,4.76-.4,7.18-1.02,14.3-1.62,21.55-.6,11.29-1.17,22.55-1.73,33.82-.52,9.89-.12,20.61-2.62,30.24-.57,2.17-1.35,4.37-1.26,6.62.16,5.84,3.04,10.71-1.06,16.13-1,1.32-2.33,2.35-3.67,3.32-5.62,4.04-14.08,6.89-18.9,1.94-5.13-5.31-1.28-13.89,1.36-20.78.74-1.88,1.34-3.79,1.86-5.7,3.75-1.51,8.12-1.91,11.23-4.53,4.3-3.59,4.71-9.92,4.79-15.52.11-8.38.22-16.76.34-25.11.16-12.61.42-25.78,3.79-38.03.97-3.62,2.25-7.19,3.85-10.6,1.16-2.48,2.57-4.79,4.07-6.99,3.26-4.74,7.11-9.01,10.67-13.66,5.87-7.64,11.15-15.71,16.44-23.77,11.75-17.88,23.5-35.76,35.24-53.66-3.59,5.47-2.02,13.37-.22,20.96.76,3.28,1.6,6.47,2.02,9.38"/>
      <path class="uuid-0ccf41d1-d995-4c4b-a7e7-71fe12f59d4d" d="M55.01,82.79l-1.94-5.36c-10.84-2.44-22.45,1.72-30.83,8.99-5.69,4.95-8.73,10.45-10.43,17.89-1.67,7.31-1.54,15.03.22,22.31,1.31,5.46,3.73,11,8.28,14.28,1.56,1.12,3.4,1.96,5.31,1.9,1.2-.04,2.35-.42,3.45-.89,3.38-1.45,6.4-3.74,8.71-6.62,1.16-1.45,2.14-3.04,3.49-4.33,2.03-1.94,4.95-2.13,7.21-3.77,2.32-1.69,3.34-4.18,4.27-6.82,1.39-3.94,2.35-8.12,3.15-12.23,1.65-8.37,2.27-17.26-.9-25.36"/>
      <path class="uuid-f3cad7e4-be77-4b87-87c0-9f57d376c5bc" d="M91.35,140.35c.57-2.52-.49-5.31-2.61-6.77-2.01,4.45-4.61,8.61-7.71,12.32-.74-.61-.98-1.72-.65-2.58-2.93,5.19-7.79,9.43-13.55,10.95-2.03.52-3.83,1.38-5.99,1.34-9.06-.29-18.27-2.16-26.02-6.81-4.94-2.93-9.23-7.06-12.12-12.04-2.78-4.74-3.83-10.4-4.74-15.71-1.39-7.83.29-15.83,3.79-22.85,1.91-3.79,4.33-7.38,7.26-10.52,4.04-4.37,9.02-7.79,14.73-9.43,5.23-1.47,10.78-1.35,16.12-.57.49.08.94.12,1.39.2,4.52.74,9.05,1.92,12.96,4.16,17.51,10,23.99,40.52,17.14,58.3"/>
      <path class="uuid-0ccf41d1-d995-4c4b-a7e7-71fe12f59d4d" d="M106.42,92.82c-6.69-7.46-18.44-12.3-26.65-12.54-12.75-.37-1.6,8.78.9,14.97,3.15,7.83,2.85,16.64,1.73,25.02-.97,7.23-2.76,14.52-2.89,21.85-.15,7.23,3.62,5.02,8.49,2.01,8.19-5.08,18.33-15.01,22.87-23.45,5.09-9.43,2.48-20.12-4.45-27.85"/>
      <path class="uuid-f3cad7e4-be77-4b87-87c0-9f57d376c5bc" d="M333,179.61c-.03,2.8-.11,5.55-.26,8.35-.03,1.39-.11,2.82-.19,4.22,0,.23,0,.46-.04.72-.25,4.75-.59,9.51-.94,14.27-.05.83-.11,1.62-.16,2.46-.08,1.08-.14,2.17-.2,3.25-.14,1.94-.25,3.9-.34,5.84-.03.37-.05.72-.05,1.09-.11,2.13-.2,4.24-.26,6.36-.08,2.18-.11,4.38-.11,6.58,0,5.94.29,11.86.97,17.8,1.17,9.72,1.88,20.18-2.88,28.77-1.23,2.21-2.99,4.35-5.45,5.01-1.83.52-3.77.1-5.65.29-3.3.34-6.21,2.48-9.48,2.85-3.77.4-7.7-1.83-9.27-5.27-.49-1.06-.78-2.17-.86-3.32-.08-1.13-.05-2.31.11-3.53.23-1.6.7-3.22,1.26-4.87.15-.4.29-.83.46-1.23.45-1.2.97-2.36,1.47-3.48.04-.05.05-.11.1-.16,1.11-2.37,2.31-4.65,3.33-6.65.4-.86.81-1.62,1.15-2.36.14-.34.3-.66.42-1,4.33-9.84,5.31-20.99,4.3-31.72-1.02-11.08-4.01-21.92-7.07-32.62-2.7-9.46-7.98-15.27-16.02-18.38-1.96-.83-4.13-1.43-6.44-1.91-13.17-2.67-26.97-4.39-38.43-11.38-17.45-10.66-18.33-26.97-12.28-43.1.97-2.66,2.16-5.28,3.47-7.9,2.06-4.03,4.31-7.98,7.25-11.38,4.03-4.64,9.47-8.17,15.48-9.4.26-.05.52-.08.78-.14,6.33-1.09,13.17.61,17.88,4.98,2.42,2.31,4.22,5.19,5.81,8.16,4.33,7.98,11.18,13.8,16.25,21.52,3.56,5.42,7.49,10.6,11.46,15.79,1.45,1.91,2.93,3.88,4.46,5.85,6.67,8.8,13.61,18.15,18.68,27.47,1.34,2.46,1.36,5.36,1.31,8.16"/>
      <path class="uuid-f3cad7e4-be77-4b87-87c0-9f57d376c5bc" d="M59.69,148.18c.08,5.75-12.41,5.51-16.85,8.12-6.85,4.08-13.54,11.26-22.19,10.89-2.36-.08-6.61-.53-10.65-1.66-.16-.04-.37-.1-.53-.16-.65-.16-1.31-.37-2.01-.61-4.23-1.6-7.71-4.04-7.45-7.87.11-1.72,1.95-3.22,2.98-4.45,3.71-4.45,6.85-9.31,10.28-14.04,3.63-5.05,7.46-9.95,11.18-14.97.7-.97,1.39-1.91,2.33-2.65,1.67-1.27,3.88-1.72,5.95-1.76,8.65-.15,14.11,8.53,13.95,16.77-.04.2-.04.41-.04.61,3.11.57,6.25,1.64,8.73,3.63,1.06.82,2.01,1.88,2.69,3.02,1.02,1.56,1.6,3.32,1.64,5.14"/>
      <path class="uuid-e06a0ca7-e86a-47ee-ba44-2109f1e589f7" d="M12.84,159.33c-.55,1.38-1.47,2.51-2.61,3.49-.83.72-1.76,1.36-2.74,1.91-4.27-1.57-7.71-4.03-7.46-7.86.04-1.32,2.11-3.59,3.93-5.45,1.82-.15,3.82.38,5.89,1.51,1.02.59,2.06,1.23,2.65,2.21.78,1.23.83,2.85.34,4.18"/>
      <path class="uuid-0ccf41d1-d995-4c4b-a7e7-71fe12f59d4d" d="M59.69,148.18c.08,5.75-12.41,5.51-16.85,8.12-6.85,4.08-13.54,11.26-22.19,10.89-2.36-.08-6.61-.53-10.65-1.66-.16-.04-.37-.1-.53-.16,1.15-.82,2.36-1.47,3.59-2.13,5.88-3.14,11.71-6.24,17.59-9.38,3.71-1.97,7.51-4,10.56-6.91,3.06-2.93,5.34-6.89,5.34-11.1l.12-.08c-.04.2-.04.41-.04.61,3.11.57,6.25,1.64,8.73,3.63,1.06.82,2.01,1.88,2.69,3.02,1.02,1.56,1.6,3.32,1.64,5.14"/>
      <path class="uuid-0ccf41d1-d995-4c4b-a7e7-71fe12f59d4d" d="M333,179.61c-.03,2.8-.11,5.55-.26,8.35-.08.63-.14,1.28-.14,1.96,0,.74-.03,1.49-.05,2.25,0,.23,0,.46-.04.72-.14,4.75-.56,9.54-.94,14.27-.05.83-.11,1.62-.16,2.46-.08,1.08-.14,2.17-.2,3.25-.14,1.94-.25,3.9-.34,5.84-.03.37-.05.72-.05,1.09-.11,2.13-.2,4.24-.26,6.36-.08,2.18-.11,4.38-.11,6.58,0,5.94.29,11.86.97,17.8,1.17,9.72,1.88,20.18-2.88,28.77-1.23,2.21-2.99,4.35-5.45,5.01-1.83.52-3.77.1-5.65.29-3.3.34-6.21,2.48-9.48,2.85-3.77.4-7.7-1.83-9.27-5.27-.49-1.06-.78-2.17-.86-3.32-.14-1.16-.11-2.33.11-3.53.2-1.65.65-3.28,1.26-4.87.15-.4.29-.83.46-1.23.45-1.2.97-2.36,1.47-3.48.04-.05.05-.11.1-.16,1.11-2.37,2.31-4.65,3.33-6.65.4-.86.81-1.62,1.15-2.36.14-.34.3-.66.42-1,.79-.78,1.83-1.38,3.14-1.86,7.55-2.77,11.34-4.91,12.86-13.55,2.91-16.73,4.16-33.07,1.45-49.98-1.21-7.64-2.87-15.28-5.92-22.38-3.25-7.52-7.96-14.34-12.88-20.87-9.68-12.83-20.23-24.97-31.17-36.72-6.44-6.92-13.2-14.03-17.22-22.44.26-.05.52-.08.78-.14,6.33-1.09,13.17.61,17.88,4.98,2.42,2.31,4.22,5.19,5.81,8.16,4.33,7.98,11.18,13.8,16.25,21.52,3.56,5.42,7.49,10.6,11.46,15.79,1.45,1.91,2.93,3.88,4.46,5.85,6.67,8.8,13.61,18.15,18.68,27.47,1.34,2.46,1.36,5.36,1.31,8.16"/>
      <path class="uuid-6ded4a6f-8138-40e9-892a-f43617de159e" d="M82.15,195.74l-.52-1.62c-.04.61.16,1.15.52,1.62"/>
    </g>
  </g>
</svg>