<?xml version="1.0" encoding="UTF-8"?>
<svg id="Calque_2" xmlns="http://www.w3.org/2000/svg" viewBox="0 0 15.44 47.35">
  <defs>
    <style>
      .cls-1 {
        fill: #3b3735;
      }

      .cls-2 {
        fill: #383432;
      }

      .cls-3 {
        fill: #6c6968;
      }

      .cls-4 {
        fill: #474340;
      }

      .cls-5 {
        fill: #009283;
      }

      .cls-6 {
        fill: #006c6c;
      }

      .cls-7 {
        fill: #c88265;
      }
    </style>
  </defs>
  <g id="_Éléments_Mise_en_page" data-name="Éléments_Mise_en_page">
    <g>
      <path class="cls-7" d="M12.41,21.67s-1.13.45-1.13.45l-.08,1.1.27,1.12.24.6s.32-.03.28-.48c-.04-.45-.03-.71.01-.85.04-.14.4.53.4.53l.22.95s.13.26.26.24c0,0,.14.24.39.1l.36-1.58s-.42-1.24-.66-1.61c-.11-.17-.53-.56-.57-.57"/>
      <path class="cls-5" d="M11.14,8.16c-.74-1.08-2.54-1.25-2.54-1.25,0,0,1.26,3.75.45,3.82-.24.02-.48,0-.71-.02l.37,5.37,2.44,6.42s1.11.01,1.5-.87l-1.49-6.12s.71-6.28-.01-7.34"/>
      <path class="cls-2" d="M3.47,40.06s-1.29-1.74-1.29-1.74l-1.47-.79-.63,1.05c-.12.24-.11.52.04.75,0,0,1.39,1.52,1.6,1.63.46.26,1.69.87,2.07.76.61-.18,1.01-.84-.32-1.66"/>
      <path class="cls-2" d="M10.93,45.41l-1.73-1.39h-1.58l-.45,1.46c.03.26.19.48.43.58l3.11,1.27s1.26.2,1.61-.78l-.02-.06c-.12-.41-1.05-.82-1.37-1.09"/>
      <path class="cls-6" d="M6.1,30.28l-5.54,7.47c.23,1.41,1.88.85,1.88.85l6.89-6.13s.97-4.65,1.15-6.23c.26-2.2.27-5.6.27-5.6l-4.27,1.17-.39,8.47Z"/>
      <path class="cls-6" d="M8.16,24.77v-3.78l-5.48.38s-.19,2.65.95,5.1c1.13,2.46,2.57,7.78,2.57,7.78l1.15,10.38s1.77.86,2.24-.43c0,0,.3-7.93.08-10.61-.18-2.3-1.51-8.82-1.51-8.82"/>
      <path class="cls-5" d="M11.24,8.62c-.42-1.18-.95-2.05-2.91-2.1h-1.4l-1.4.24-2.25,1.47c-1.08.59-1.63,1.48-1.56,2.71l1.09,6.99-.22,3.86s.47,1.36,4.22.85c3.59-.48,4.05-1.69,4.05-1.69l-.17-5.2s.9-6.16.55-7.14"/>
      <path class="cls-7" d="M5.53,6.94c0,.83.67,1.5,1.5,1.5s1.5-.67,1.5-1.5v-2.45l-2.54-.08-.46,2.53Z"/>
      <path class="cls-7" d="M5.55,4.53c-.25,1.23,1.8,2.36,1.8,2.36,1.19.24,1.93-.17,2.18-1.42l.65-3.15-4.41-.12-.22,2.33Z"/>
      <path class="cls-4" d="M9.91.95c-1.47-1.41-3.05-1.09-4.32-.03-.62.52-.54,1.83-.51,2.45.06,1.39.67,2.27.67,2.27l.56-2.07.16.47.41-.18s.03-.92.07-1.07c.13-.5,3.13.04,3.13.04,0,0,1.43-.34-.17-1.88"/>
      <path class="cls-7" d="M5.57,3.52c-.18.53.05,1.19.53,1.08l.21-1.04s-.51-.75-.75-.04"/>
      <path class="cls-1" d="M14.11,14.79c-.45-.04-.72.25-.72.25l-1.13.91.91,1.42s1.73-1.51,2.25-2.08c0-.01-.19-.36-.19-.36,0,0-.67-.09-1.12-.13"/>
      <path class="cls-3" d="M15.36,15c-.03-.07-.13-.07-.13-.07,0,0-.67-.09-1.12-.13-.45-.04-.72.25-.72.25l-1.13.91.13.32s1.12-.94,1.17-.96c.17-.1.41-.18.67-.16.34.02.86.1,1.09.11.11,0,.05.09.05.09.1-.07.07-.14.07-.14,0,0-.07-.19-.07-.2"/>
      <path class="cls-7" d="M13.35,16.38c-.56-.06-.73-.22-.73-.22-.05-.09-.07-.29-.04-.36,0-.02.14-.17.15-.18.1-.11.35-.31.35-.31l-.8.03c-.12,0-.23.03-.34.07l-.83.33-1.19.46-.26.06-.2,1.47.52-.09c.81.46,1.85.52,1.85.52.4,0,.75-.32.75-.32.39-.03.59-.39.59-.39.4-.11.46-.47.46-.47.68-.11.67-.57.67-.57,0,0-.46.04-.96-.01"/>
      <path class="cls-5" d="M3.86,16.02l-.14-.03.53-3.78s.02-3.53-1.02-3.58c-1.77-.08-1.89,2.85-1.89,2.85,0,0-.35,2.1-.17,4.04,0,.48.06,1.22.06,1.57,0,.94.78,1.68,1.72,1.65l1.45-.04,5.74-.92s-.11-.86-.11-1.79l-6.16.03Z"/>
    </g>
  </g>
</svg>