<?xml version="1.0" encoding="UTF-8"?>
<svg id="Calque_2" xmlns="http://www.w3.org/2000/svg" viewBox="0 0 20.06 44.53">
  <defs>
    <style>
      .cls-1 {
        fill: #353b3c;
      }

      .cls-2 {
        fill: #5f7482;
      }

      .cls-3 {
        fill: #34383d;
      }

      .cls-4 {
        fill: #e1e0f1;
      }

      .cls-5 {
        fill: #ed704d;
      }

      .cls-6 {
        fill: #404b53;
      }

      .cls-7 {
        fill: #83c3ec;
      }

      .cls-8 {
        fill: #5697d1;
      }

      .cls-9 {
        fill: #bdb9dd;
      }

      .cls-10 {
        fill: #434897;
      }

      .cls-11 {
        fill: #907062;
      }

      .cls-12 {
        fill: #615ca4;
      }

      .cls-13 {
        fill: #edb199;
      }
    </style>
  </defs>
  <g id="_Éléments_Mise_en_page" data-name="Éléments_Mise_en_page">
    <g>
      <path class="cls-10" d="M4.84,18.26s-1.35,6.99-1.22,8.81c.02.24-.05.47-.2.67-.69.92-2.2,2.95-2.88,6.87-.11.65,1.12,1.17,2.05.73.93-.44,3.41-4.86,3.99-6.25.58-1.39,1.9-8.19,1.9-8.19l-3.66-2.64Z"/>
      <path class="cls-2" d="M17.14,32.92l.74.43c-.26-.15-.62-.13-1.02.1l-.74-.43c.4-.23.76-.25,1.02-.1"/>
      <path class="cls-2" d="M15.85,36.82l-.74-.43c-.26-.15-.42-.47-.42-.92,0-.9.63-2,1.42-2.46l.74.43c-.79.46-1.42,1.56-1.42,2.46,0,.45.16.77.42.92"/>
      <path class="cls-3" d="M16.86,33.45c.78-.45,1.43-.09,1.43.81,0,.91-.64,2.01-1.42,2.46-.79.46-1.43.09-1.43-.82,0-.9.63-2.01,1.42-2.46"/>
      <path class="cls-6" d="M17.96,34.46c0,.14-.18.36-.41.49-.22.13-.41.12-.41-.02s.18-.36.41-.49c.23-.13.41-.12.41.02"/>
      <path class="cls-6" d="M16.86,33.83c.12-.07.22.08.22.35s-.1.53-.22.6c-.12.07-.22-.08-.22-.34s.1-.53.22-.6"/>
      <path class="cls-6" d="M15.77,35.72c0-.14.18-.36.41-.49.23-.13.41-.12.41.02s-.18.36-.41.49c-.23.13-.41.12-.41-.02"/>
      <path class="cls-6" d="M16.86,36.35c-.12.07-.22-.08-.22-.34s.1-.53.22-.6c.12-.07.22.08.22.34s-.1.53-.22.6"/>
      <path class="cls-6" d="M17.38,29.46v3.59c0,.12-.09.26-.26.35-.35.2-.9.2-1.25,0-.17-.1-.26-.23-.26-.35v-3.59h1.76Z"/>
      <path class="cls-2" d="M17.12,29.82c-.34.2-.9.2-1.24,0-.34-.2-.34-.52,0-.72.34-.2.9-.2,1.24,0,.34.2.34.52,0,.72"/>
      <path class="cls-6" d="M17.18,14.9v14.54c0,.1-.07.2-.2.28-.27.16-.7.16-.97,0-.13-.07-.2-.18-.2-.28v-14.54h1.37Z"/>
      <path class="cls-2" d="M16.98,15.18c-.27.15-.7.15-.97,0-.27-.15-.27-.4,0-.56s.7-.15.97,0c.27.15.27.4,0,.56"/>
      <path class="cls-2" d="M13.61,12.58l6.33,3.68c-.07-.04-.17-.04-.29.03l-6.33-3.68c.11-.06.21-.07.29-.03"/>
      <path class="cls-2" d="M19.38,17.23l-6.33-3.68c-.07-.04-.12-.13-.12-.26,0-.25.18-.56.4-.69l6.33,3.68c-.22.13-.4.43-.4.69,0,.13.05.22.12.26"/>
      <path class="cls-3" d="M19.66,16.29c.22-.13.4-.03.4.23,0,.26-.18.56-.4.69-.22.13-.4.03-.4-.23,0-.25.18-.56.4-.69"/>
      <polygon class="cls-2" points="15.49 32.44 14.94 32.12 15.64 31.72 16.18 32.03 15.49 32.44"/>
      <polygon class="cls-6" points="14.84 35.22 13.13 34.23 14.94 32.12 15.49 32.43 14.84 35.22"/>
      <polygon class="cls-6" points="5.21 41.51 3.5 40.52 3.5 40.2 5.2 41.19 5.21 41.51"/>
      <polygon class="cls-2" points="5.52 40.6 3.81 39.61 13.13 34.23 14.84 35.22 5.52 40.6"/>
      <path class="cls-6" d="M3.18,39.5l1.71.99c.2.11.32.35.32.7l-1.71-.99c0-.34-.12-.58-.32-.7"/>
      <path class="cls-2" d="M4.02,40.53l.74.43c-.26-.15-.62-.13-1.02.1l-.74-.43c.4-.23.76-.25,1.02-.1"/>
      <path class="cls-2" d="M2.73,44.43l-.74-.43c-.26-.15-.42-.47-.42-.92,0-.9.63-2,1.42-2.46l.74.43c-.79.46-1.42,1.56-1.42,2.46,0,.45.16.77.42.92"/>
      <path class="cls-3" d="M3.74,41.06c.78-.45,1.43-.09,1.43.81,0,.91-.64,2.01-1.42,2.46-.79.46-1.43.09-1.43-.82,0-.9.63-2.01,1.42-2.46"/>
      <path class="cls-6" d="M4.84,42.06c0,.14-.18.36-.41.49-.22.13-.41.12-.41-.02s.18-.36.41-.49c.23-.13.41-.12.41.02"/>
      <path class="cls-6" d="M3.74,41.43c.12-.07.22.08.22.35s-.1.53-.22.6c-.12.07-.22-.08-.22-.34s.1-.53.22-.6"/>
      <path class="cls-6" d="M2.65,43.33c0-.14.18-.36.41-.49.22-.13.41-.12.41.02s-.18.36-.41.49c-.23.13-.41.12-.41-.02"/>
      <path class="cls-6" d="M3.74,43.96c-.12.07-.22-.08-.22-.34s.1-.53.22-.6c.12-.07.22.08.22.34s-.1.53-.22.6"/>
      <path class="cls-2" d="M3.43,39.06l1.71.99c-.26-.15-.63-.13-1.03.1-.8.47-1.45,1.59-1.45,2.51l-1.71-.99c0-.92.65-2.04,1.45-2.51.4-.23.77-.25,1.03-.1"/>
      <path class="cls-3" d="M15.49,32.44l.7-.4-.65,2.79v.73s-10.33,5.97-10.33,5.97v-.32c0-.69-.49-.97-1.09-.62-.6.35-1.09,1.19-1.09,1.88l-.36.21c0-.92.64-2.05,1.45-2.51.68-.39,1.25-.18,1.41.45l9.32-5.38.65-2.79Z"/>
      <path class="cls-4" d="M8.81,35.96c.09.32-.38,1.66,0,2.15.38.49,1.51.28,1.84-.36.34-.64,1.94-.57,2.16-1.36.22-.79-1.52-.5-2.12-.99-.6-.48-1.88.54-1.88.54"/>
      <path class="cls-12" d="M12.04,19.4s-.47,7.08-.55,9c-.08,1.92,0,6.55-.55,7.55-.55,1-1.77,1.22-2.2.29-.39-.87-1.27-5.63-.62-7.81.08-.29.08-.59-.02-.87-.5-1.32-1.77-5.2-.49-7.66,1.56-3,4.16-1.38,4.44-.5"/>
      <path class="cls-13" d="M11.55,2.5c.16,1.11-.07,2.86-.84,3.95-.77,1.09-3.27.19-3.85-1.83-.58-2.01.3-3.24,1.6-3.76,1.3-.52,2.93.5,3.09,1.63"/>
      <path class="cls-7" d="M12.03,17.95c.1.82.15,1.63.04,2.22-.4,2.12-7.07,2.13-7.31-1.75-.09-1.52.68-4.35.65-6.09-.04-1.74-.5-4.57-.15-5.42.17-.41.52-.68.97-.82.21-.07.45-.11.7-.13.58-.04,1.21.06,1.79.25.75.25,1.74.82,2.51,1.56.12.11.23.22.34.34.46.51.8,1.09.89,1.7.25,1.68-.78,3.84-.78,5.08,0,.63.16,1.59.3,2.59.02.15.04.31.06.46"/>
      <path class="cls-4" d="M11.57,8.12c-2.25.34-2.74,2.45-2.74,2.45l-.33-.34s.49-2.1,2.73-2.46c.12.11.23.22.34.34"/>
      <path class="cls-4" d="M5.96,9.03l-.44-.16s-.35-1.53.7-2.78c.21-.07.45-.11.7-.13-1.37,1.3-.97,3.07-.97,3.07"/>
      <path class="cls-4" d="M12.03,17.95c-.79.16-1.83.08-2.94-.81l-.07-.46c1.11.89,2.15.97,2.95.81.02.15.04.31.06.46"/>
      <path class="cls-11" d="M11.47,1.68c.34.27.78-.13.69.78-.09.91-.43,1.24-1.14,1.44-.7.19.27.67-.55,1.11-.82.43-1,1.42-2.29,1.42s-1.75-1.93-1.6-3.26c.15-1.33,1.73-3.98,4.89-1.48"/>
      <path class="cls-13" d="M17.23,15.5s.5-.77.79-.74c.28.03-.1.33.09.49.19.16.68-.5.74-.21.05.29.36.05.36.35,0,.3.34.06.3.31-.03.25.3.04.24.33-.06.29-1.45.96-2.12.76-.67-.21-.49-1.05-.39-1.28"/>
      <path class="cls-8" d="M9.82,11.24c.09.68.51,4.89,1.32,5.9.8,1.01,6.24.08,6.58-.22.34-.3.55-.97-.3-1.42-.66-.36-3.07-.41-4.09-.41-.26,0-.46-.21-.45-.46.03-1.3.03-4.91-.71-5.24-.91-.41-2.59,0-2.35,1.86"/>
      <path class="cls-13" d="M15.19,13.76s.77-.2.68-.46c-.09-.27-.42.03-.56-.19-.13-.23.15-.58-.18-.55-.34.03-.17-.22-.47-.13s-.1-.23-.39-.18c-.3.05-.13-.18-.43-.1s-.85.85-.6,1.26c.25.41.89.64,1.14.61.25-.03.81-.25.81-.25"/>
      <path class="cls-8" d="M11.88,13.06s1.05-.34,1.52-.12c.47.22.64.78.61,1.17-.03.39-1.92.79-1.92.79l-.32-.99.11-.86Z"/>
      <path class="cls-4" d="M3.76,38.04c-.06.06-.15.1-.29.13-.82.2-1.51-.97-2.16-1.27-.65-.31-1.15.03-1.3-.7-.02-.08-.02-.15-.01-.22.04-.65.85-1.28.89-1.64,0,0,1.34-.2,1.69.32.35.53.23.72.21,1.42-.01.62,1.45,1.56.97,1.95"/>
      <path class="cls-9" d="M3.76,38.04c-.06.06-.15.1-.29.13-.82.2-1.51-.97-2.16-1.27-.65-.31-1.15.03-1.3-.7-.02-.08-.02-.15-.01-.22.23-.11.56-.2.95-.13.73.13.14.33.63.7.44.33,1.91.65,2.18,1.49"/>
      <polygon class="cls-1" points="9.97 5.85 10.7 6.23 10.81 6.55 11.06 6.46 10.96 6.15 11.4 4.47 11.18 4.47 10.76 6.02 10.05 5.63 9.97 5.85"/>
      <path class="cls-5" d="M7.59.26c.76-.37,4.27-.83,4.73,2.26,0,0-.13.25-.46.53-.32.28-.17,1.22-.4,1.43-.48.45-.76-.04-.97.37-.2.41-.19,1.17-1.01,1.33-.82.16-1.65.35-2.77-.52,0,0-.15-.8-.42-1.45-.34-.79-.7-2.99,1.3-3.95"/>
      <path class="cls-4" d="M9.57,11.97s.73-3.1-1.63-3.94c-2.36-.84-4.59.75-4.06,3.32.52,2.57-.32,4.44.29,5.5.79,1.36,2.2,2.41,4.88,1.36,2.68-1.05,1.1-2.05.79-3.83-.26-1.46-.26-1.52-.26-2.41"/>
    </g>
  </g>
</svg>