<?xml version="1.0" encoding="UTF-8"?>
<svg id="uuid-5af912df-457c-4add-8e36-4598c3d95cba" data-name="Calque_2" xmlns="http://www.w3.org/2000/svg" viewBox="0 0 33.67 69.13">
  <defs>
    <style>
      .uuid-20a872dc-64a8-4a98-9669-c92c9e29261a {
        fill: #ec6788;
      }

      .uuid-8e0b68d1-f0bd-4dba-8fa0-6314bff7fd5a {
        fill: #ebeef8;
      }

      .uuid-3a40224f-2c7c-4e1f-a420-81e14d75c139 {
        fill: #88cef2;
      }

      .uuid-0f5f4426-3abf-42fc-af6f-cadabd39d93d {
        fill: #702470;
      }
    </style>
  </defs>
  <g id="uuid-a9d0010c-962d-4d2d-925b-05da43171384" data-name="Les_personnages">
    <g id="uuid-10374cf9-f521-4191-860b-2f1bf4e10b0e" data-name="Chara_x5F_FemmeSalut_x5F_BG">
      <path class="uuid-20a872dc-64a8-4a98-9669-c92c9e29261a" d="M15.87,11.1c.02,2.28,2.23,3.71,0,4.18-3.07.64-11.3,2.12-13.96,2.33-1.62.12-2.54-1.83-1.39-2.99L11.85,2.37c.32-.33.82-.42,1.24-.24.65.28.88,1.08.49,1.66l-6.08,8.07,4.72-2.82c1.09-.65,2.42.33,2.13,1.56l1.53.51Z"/>
      <path class="uuid-3a40224f-2c7c-4e1f-a420-81e14d75c139" d="M32.57,62.92s-.04-.06-.06-.1l-8.26-12.47,2.11-16.25c.13-.99-.01-2-.41-2.93l-2.38-5.57c-1.78.24-3.55.26-5.15.06-2.5-.32-5.07-1.2-7.15-2.64v.23s-.06.09-.08.13c-2.56,3.93-4.1,8.37-4.49,12.97l-.61,7.13c-.26,2.99-.03,5.99.68,8.91l3.02,12.54-1.79,2.38c-.26.63.24,1.31.96,1.31.34,0,.65-.15.85-.41l2.59-1.91c.61-.45.99-1.1,1.08-1.81.02-.12.03-.24.02-.36l-.97-14.82,2.91-12.49c.27.14.54.28.8.42l1.7,15.26c.08.82.45,1.59,1.06,2.18l10.74,9.97-.37,3.57c-.03.37.2.71.57.85.1.04.21.06.32.06.32,0,.63-.16.79-.44l1.55-3.38c.43-.75.42-1.65-.03-2.39"/>
      <path class="uuid-8e0b68d1-f0bd-4dba-8fa0-6314bff7fd5a" d="M25.85,12.12c-.58-.67-1.35-1.06-2.18-1.48-.46-.23-.96-.4-1.44-.59-1.54-.62-2.55-1.39-4.28-1.73-1.27-.25-2.74-.51-4.08-.39-1.47.12-2.13,1.04-2.79,2.13-.85,1.42-1.38,2.9-1.02,4.51.26,1.16,1.19,2.2,1.33,3.37.08.64-.04,1.37-.04,2.02v3.53s-.05.08-.08.12c.84.44,1.4,1.22,2.35,1.62,1.14.47,2.43.64,3.65.8,1.91.26,4.11.22,5.94-.45l-.16-.36c1.5,2.14,1.47-5.59,1.88-6.5.13-.29.32-.57.51-.85.13-.19.26-.38.38-.56,1.13-1.79,1.54-3.46.02-5.19"/>
      <path class="uuid-20a872dc-64a8-4a98-9669-c92c9e29261a" d="M24.4,15.73l4.24,8.55-1.69,13.05c-.1.74.38,1.4,1.01,1.4.41,0,.79-.3.94-.76l3.56-10.6c.66-1.96.56-4.17-.26-6.03l-3.7-8.36c-.72-1.63-2.54-2-3.67-.74-.81.9-.99,2.36-.42,3.49"/>
      <path class="uuid-0f5f4426-3abf-42fc-af6f-cadabd39d93d" d="M33.66,14.13c-.16-2.13-1.91-4.06-4.02-4.36-.49-.07-1.11-.15-1.25-.62-.08-.3.08-.6.2-.88C30.61,3.6,21.21.11,18.79,3.63c-.31.44-.71,1.16-.61,1.73.18,1.06.85.61,1.3,1.21,1.01,1.36.31,3.08,2.5,3.74.79.24,1.93.45,1.87,1.27-.02.29-.22.54-.39.78-1.18,1.77-.53,4.34,1.04,5.77,1.58,1.45,4,1.92,5.97,1.09,1.97-.83,3.34-2.97,3.17-5.1"/>
      <path class="uuid-0f5f4426-3abf-42fc-af6f-cadabd39d93d" d="M24.42,3.11c.49,2.13-.63,3.46-2.67,3.93-.81.19-1.87.4-2.59.08-1.08-.49-1.81-1.03-2.11-2.31-.49-2.14.76-4.25,2.79-4.71.08-.02.16-.03.24-.05,1.96-.32,3.86,1.01,4.34,3.07"/>
      <path class="uuid-20a872dc-64a8-4a98-9669-c92c9e29261a" d="M22.59,2.71c-.86,1.55-2.53,2.36-4.16,2.36-.1,0-.19,0-.28-.02.23,1.15.9,2.05,1.75,2.49.56.29,1.21.38,1.85.2,1.42-.38,2.37-1.9,2.31-3.57-.58-.32-1.08-.84-1.47-1.47"/>
      <path class="uuid-0f5f4426-3abf-42fc-af6f-cadabd39d93d" d="M18.54,6.58c.2,0,.41,0,.61.04.17.01.33.04.49.07-.27-.41-.6-.84-.58-1.15.11-1.71,1.13-2.94,2.47-3.65.14-.11.27-.23.41-.33l.52-.82s0-.02,0-.02c-.01,0-.22.3-.19.2-.03,0,.25-.51.21-.51-.35.06-.74.07-1.14.08-.13.11-.3.19-.5.24-.13.03-.26.04-.38.03l-1.9.68c-.9.8-1.25,2.19-.96,3.45.04.16.44.99.92,1.68"/>
      <path class="uuid-20a872dc-64a8-4a98-9669-c92c9e29261a" d="M19.7,4.36c.54.41.74,1.06.45,1.45-.29.38-.97.36-1.51-.06-.54-.41-.74-1.06-.45-1.45.29-.38.97-.36,1.51.06"/>
      <path class="uuid-20a872dc-64a8-4a98-9669-c92c9e29261a" d="M18.86,10.63h0c-1.06-.31-1.66-1.42-1.35-2.48l.94-3.18,3.83,1.13-.94,3.18c-.31,1.06-1.42,1.66-2.48,1.35"/>
      <path class="uuid-0f5f4426-3abf-42fc-af6f-cadabd39d93d" d="M32.6,65.31l-1.55,3.38c-.16.28-.47.44-.79.44-.11,0-.22-.02-.32-.06-.37-.13-.6-.48-.57-.85l.37-3.57s1.9,1.14,2.83-1.73c.45.73.46,1.64.03,2.39"/>
      <path class="uuid-0f5f4426-3abf-42fc-af6f-cadabd39d93d" d="M13.49,64.5c-.09.71-.48,1.37-1.08,1.81l-2.59,1.91c-.19.26-.51.41-.85.41-.72,0-1.22-.68-.97-1.31l1.79-2.38s1.7,1.28,3.7-.44"/>
    </g>
  </g>
</svg>