<?xml version="1.0" encoding="UTF-8"?>
<svg xmlns="http://www.w3.org/2000/svg" xmlns:xlink="http://www.w3.org/1999/xlink" viewBox="0 0 43.69 56.61">
  <defs>
    <style>
      .uuid-57686d73-bf0d-4ca6-9d65-ec8660f25751 {
        clip-path: url(#uuid-854e1dbf-1e0f-42df-b0d1-aa6c5a15165d);
      }

      .uuid-7d8286f6-0bb8-45f2-b710-ada83c3445a2 {
        clip-path: url(#uuid-30ef7a6d-3604-4ba4-8dec-c0e346ffa74f);
      }

      .uuid-8eaa7fcc-257a-46b8-be90-a8c6e72c5591 {
        fill: #c0823a;
      }

      .uuid-4b846532-e587-490b-a842-94ec647b701b {
        fill: #627fbe;
      }

      .uuid-546e7610-8c64-4feb-b157-21dac41052e1 {
        fill: #446ab1;
      }

      .uuid-2220eac4-7bd4-4dce-83e4-37a5fa0be78c {
        fill: #635f5b;
      }

      .uuid-c5a11b3a-94d2-4602-8eeb-169ee4b68115 {
        fill: #7a92ca;
      }

      .uuid-a2f207a7-0ac7-4232-b942-17e303a0f04f {
        fill: #6c4e42;
      }

      .uuid-5c77c756-346b-4bf8-a6cc-e4dd85eb381d {
        fill: url(#uuid-056f145c-71c3-4c84-8e8d-0fa79bbc731b);
      }

      .uuid-3fd1cdf0-f2e1-4940-bbc2-6d8ff8ff88e1 {
        fill: #556fb3;
      }

      .uuid-78f520b9-c8ed-4263-bd17-33a04cb0c4c8 {
        fill: url(#uuid-f429b656-1259-41a6-8159-97eee7f951d1);
      }

      .uuid-f50e65ed-76e1-4033-83d6-277e3b6da961 {
        fill: #4e4a49;
      }

      .uuid-fa5ad02f-05e6-46a7-942e-90303ec756aa {
        fill: url(#uuid-cf099a4a-3bfc-4241-8ae4-8307752e8c4f);
      }

      .uuid-4d1102dc-0fca-480d-b5a0-902c6c5c032c {
        fill: #e1e2e9;
      }

      .uuid-ca762e8c-0277-4474-8131-6d32f675a11d {
        fill: #797672;
      }

      .uuid-a9cf6960-833b-4149-b6d2-5953dd18b444 {
        fill: none;
      }

      .uuid-15c59cea-672b-4e8d-92f2-7c76e1b02a54 {
        fill: #464550;
      }

      .uuid-a16eafe9-fcdf-494e-9bee-832025408d1e {
        fill: #90ccb5;
      }

      .uuid-68f2c942-a7b8-41db-8574-34cc06a82a85 {
        fill: #534c57;
      }

      .uuid-6a4742c1-bb48-4877-85af-21f980c55182 {
        clip-path: url(#uuid-6b97a508-6ef2-4ce8-9169-25b91d2c4046);
      }

      .uuid-6f5f91ec-414c-4b3a-bcf7-bd072d4e4765 {
        clip-path: url(#uuid-21e64f70-d220-45c9-83bb-5d82bc41c3bd);
      }

      .uuid-4fa95105-da3a-460b-a4d0-f24f91b50717 {
        fill: #c3b9c6;
      }

      .uuid-a3be3ffa-f016-4de5-b490-aafca32257c3 {
        clip-path: url(#uuid-4483beb0-0277-4721-b719-86d17d4166c2);
      }

      .uuid-4b8e81b7-82bf-4243-9ded-a155b9355ec8 {
        isolation: isolate;
      }

      .uuid-bf646c40-aa0b-49a3-b36b-7e807f26cb91 {
        fill: #dac3b2;
      }

      .uuid-c813cbec-64b0-4706-85d7-fb4f72a898e9 {
        fill: #342d38;
      }

      .uuid-c503fdf7-f302-4872-b25b-a44d985656ed {
        clip-path: url(#uuid-099ee438-bf16-4a9d-b880-31087715ec7b);
      }

      .uuid-a273eb8a-fc42-44e4-b0a9-64abfbd7a57e {
        fill: #f6bec0;
      }

      .uuid-faa38840-781b-4e2a-8b91-0a8fba5f4a89 {
        fill: #a397a8;
      }

      .uuid-e4b858a3-44c4-40b9-9fc0-efae083234e7 {
        fill: #f3952d;
      }

      .uuid-bbc580c5-d2dd-4412-9f1a-714a7df1bf2d {
        fill: #7e4b41;
      }

      .uuid-e9b3c60a-f47b-4eff-b2d5-eab50356f9eb {
        clip-path: url(#uuid-e42878ce-9471-43a8-aa0c-235f4f808cf7);
      }

      .uuid-47a4e086-e20b-476e-b650-3e764b37cd20 {
        fill: #595963;
      }

      .uuid-56a2eea0-2c88-4bfb-b82f-b94d4253125c {
        clip-path: url(#uuid-cec26c72-3442-4a44-8e59-ebdcf3bdea0a);
      }

      .uuid-0af77952-2736-4208-9a55-2b7320ff81f0 {
        fill: #79554b;
      }

      .uuid-7307a0b9-660e-491c-afa0-3c327c6ae633 {
        fill: #6dbea0;
      }

      .uuid-d1a6924e-0933-4a18-b577-3643e3623665 {
        mix-blend-mode: multiply;
      }

      .uuid-ccafd9aa-2ccb-4af4-a504-2c5aecb854de {
        fill: #4a424d;
      }

      .uuid-655ee22e-8e49-4870-859e-e7a9dd7f0f80 {
        fill: #da582a;
      }

      .uuid-98c83030-a215-4daf-bfcb-345ead7a4553 {
        fill: #404249;
      }

      .uuid-d30beeca-b2ad-4273-9981-304723a57ef9 {
        fill: #54504e;
      }

      .uuid-b2576528-cac0-4a96-988d-35b3e9ca5346 {
        clip-path: url(#uuid-71d6bc95-da07-438d-90c8-2cc59856a381);
      }

      .uuid-036140bd-35d1-4ac2-a130-54c034200d80 {
        fill: #4071b6;
      }

      .uuid-10a6d87c-591b-4f3a-bdd8-c65be325beac {
        clip-path: url(#uuid-1ea6d312-8a7c-497d-b114-0a808861d38e);
      }

      .uuid-6b73ee3a-a3ee-4ea3-bdd6-855fd0b4ddf2 {
        fill: #484b4f;
      }

      .uuid-71aecc3a-7870-4b64-8398-2cc776247998 {
        fill: #4c4847;
      }

      .uuid-f09dda50-dfb4-4080-9a59-5480c45820a5 {
        fill: #96928f;
      }

      .uuid-430645bd-e542-4119-a5c0-c00f00c72001 {
        fill: #4c6cb2;
      }

      .uuid-80d8ee51-a9d6-4f0f-95f6-a82ff2a1140f {
        fill: #585453;
      }

      .uuid-79b68be9-b9c6-460c-8d71-130996bd0cd4 {
        fill: #5476b8;
      }

      .uuid-32978422-a750-4956-8702-c12dbbb4c7b4 {
        clip-path: url(#uuid-a075df5c-d7d0-4e17-9916-38c11a14168f);
      }

      .uuid-4baf641b-8b15-4e37-935a-c8b5989ad657 {
        fill: #507ebf;
      }

      .uuid-b4d096c6-827b-46fc-984f-4fa700a3ae7f {
        fill: #706c6b;
      }
    </style>
    <clipPath id="uuid-099ee438-bf16-4a9d-b880-31087715ec7b">
      <rect class="uuid-a9cf6960-833b-4149-b6d2-5953dd18b444" x="15.82" y="25.52" width="3.78" height="9.27"/>
    </clipPath>
    <clipPath id="uuid-1ea6d312-8a7c-497d-b114-0a808861d38e">
      <rect class="uuid-a9cf6960-833b-4149-b6d2-5953dd18b444" x="15.82" y="25.52" width="3.78" height="9.27"/>
    </clipPath>
    <clipPath id="uuid-e42878ce-9471-43a8-aa0c-235f4f808cf7">
      <path class="uuid-a9cf6960-833b-4149-b6d2-5953dd18b444" d="M25.16,3.67c.05.69-.11,1.62-.24,1.77-.08.09-.25.27-.37.43-.07.09-.13.17-.15.24-.08.18,2.38,1.94,2.55,1.93.18,0,.32-.16.32-.16,0,0,.34.2.79-.17l.11-.09c.41-.33.8-.68,1.21-1.66.43-1.06.84-1.69.84-1.69,0,0,.66-1.41.45-1.79-.21-.38-2.79-.8-2.79-.8l-2.7,1.98Z"/>
    </clipPath>
    <linearGradient id="uuid-056f145c-71c3-4c84-8e8d-0fa79bbc731b" data-name="Dégradé sans nom 9" x1="-247.2" y1="802.24" x2="-246.2" y2="802.24" gradientTransform="translate(-4618.3 1433.46) rotate(90) scale(5.79 -5.79)" gradientUnits="userSpaceOnUse">
      <stop offset="0" stop-color="#f6bec0"/>
      <stop offset=".05" stop-color="#f6bec0"/>
      <stop offset=".99" stop-color="#f4a8ab"/>
      <stop offset="1" stop-color="#f4a8ab"/>
    </linearGradient>
    <clipPath id="uuid-854e1dbf-1e0f-42df-b0d1-aa6c5a15165d">
      <path class="uuid-a9cf6960-833b-4149-b6d2-5953dd18b444" d="M29.33,4.61s0,0,0-.02c0,0,0,.01,0,.02M29.26,4.24s-.08.04-.11.07c-.21.2-.38.44-.49.7-.14.3-.18.54-.09.85.02,0,.04,0,.05,0,.04,0,.08-.01.11-.05.09-.11.12-.25.18-.37.13-.28.28-.55.42-.82h0s0,0,0,0c0,0,0,0,0,0,.02-.06.05-.15.06-.24,0-.04,0-.07-.01-.1-.02-.03-.05-.04-.08-.04-.01,0-.02,0-.03,0"/>
    </clipPath>
    <linearGradient id="uuid-f429b656-1259-41a6-8159-97eee7f951d1" data-name="Dégradé sans nom 9" x1="-539.78" y1="1379.79" x2="-538.78" y2="1379.79" gradientTransform="translate(-948.41 387.05) rotate(90) scale(.71 -.71)" xlink:href="#uuid-056f145c-71c3-4c84-8e8d-0fa79bbc731b"/>
    <clipPath id="uuid-cec26c72-3442-4a44-8e59-ebdcf3bdea0a">
      <rect class="uuid-a9cf6960-833b-4149-b6d2-5953dd18b444" x="24.39" y="5.87" width="3.77" height="2.17"/>
    </clipPath>
    <clipPath id="uuid-21e64f70-d220-45c9-83bb-5d82bc41c3bd">
      <rect class="uuid-a9cf6960-833b-4149-b6d2-5953dd18b444" x="24.39" y="5.87" width="3.77" height="2.16"/>
    </clipPath>
    <clipPath id="uuid-71d6bc95-da07-438d-90c8-2cc59856a381">
      <rect class="uuid-a9cf6960-833b-4149-b6d2-5953dd18b444" x="21.15" y="12.64" width="6.37" height="8.04"/>
    </clipPath>
    <clipPath id="uuid-6b97a508-6ef2-4ce8-9169-25b91d2c4046">
      <rect class="uuid-a9cf6960-833b-4149-b6d2-5953dd18b444" x="21.15" y="12.64" width="6.37" height="8.04"/>
    </clipPath>
    <clipPath id="uuid-4483beb0-0277-4721-b719-86d17d4166c2">
      <path class="uuid-a9cf6960-833b-4149-b6d2-5953dd18b444" d="M29.4,12.68l-.16.25s1.12.92,1.54,1.14c.42.22,1.18.78,1.67,1.05.49.27,1.64.79,2.39,1.07.74.28,1.37.49,1.37.49,0,0,.22.14.47.32.25.18.41.11.41.11,0,0,.03,0,.44.14.38.05.78-.29.78-.29,0,0,0,.06.05.09.03.03.12.06.21.06.04,0,.07-.01.11-.03.11-.06.35-.19.37-.26.02-.07.01-.72-.05-.82-.06-.1-.36-.36-.45-.41-.08-.06-.25-.22-.31-.27-.06-.05-.44-.04-.47-.05-.04,0-.15-.09-.34-.05-.2.04-.33.39-.33.39,0,0-.08.08-.29,0-.21-.09-1.73-1.63-2.5-2.4-.76-.77-1.59-.88-1.96-.99-.38-.11-1.45-1.04-1.75-1.37l-1.18,1.82Z"/>
    </clipPath>
    <linearGradient id="uuid-cf099a4a-3bfc-4241-8ae4-8307752e8c4f" data-name="Dégradé sans nom 9" x1="-229.51" y1="767.32" x2="-228.51" y2="767.32" gradientTransform="translate(-7814.71 2356.74) rotate(90) scale(10.23 -10.23)" xlink:href="#uuid-056f145c-71c3-4c84-8e8d-0fa79bbc731b"/>
    <clipPath id="uuid-30ef7a6d-3604-4ba4-8dec-c0e346ffa74f">
      <rect class="uuid-a9cf6960-833b-4149-b6d2-5953dd18b444" x="29.25" y="12.68" width="9.71" height="4.58"/>
    </clipPath>
    <clipPath id="uuid-a075df5c-d7d0-4e17-9916-38c11a14168f">
      <rect class="uuid-a9cf6960-833b-4149-b6d2-5953dd18b444" x="29.25" y="12.68" width="9.71" height="4.58"/>
    </clipPath>
  </defs>
  <g class="uuid-4b8e81b7-82bf-4243-9ded-a155b9355ec8">
    <g id="uuid-c9fcd3a1-9628-4110-ad4b-aaa2c4f0fd52" data-name="Calque_2">
      <g id="uuid-47062177-ad06-4d3e-b2aa-043b60a49b04" data-name="Les_personnages">
        <g id="uuid-768981e2-7a0f-4213-ae59-d065ca46761c" data-name="Chara_x5F_HommeVelo_x5F_HD">
          <polygon class="uuid-47a4e086-e20b-476e-b650-3e764b37cd20" points="20.81 39.89 18.32 42.47 15.48 40.82 15.48 39.68 17.96 38.25 20.81 39.89"/>
          <polygon class="uuid-15c59cea-672b-4e8d-92f2-7c76e1b02a54" points="20.81 41.03 18.32 42.47 18.32 41.33 20.81 39.89 20.81 41.03"/>
          <path class="uuid-98c83030-a215-4daf-bfcb-345ead7a4553" d="M20.43,38.25c.15-.01.56.11.61.18.04.08.02.34,0,.43-.02.1-.4.54-.9.69-.5.15-.7.25-.98.22-.28-.03-.45.09-.45.09,0,0-2.06.63-2.45.65-.39.01-.79-.15-1.05-.28-.26-.13-.37-.34-.38-.44,0-.1.14-.57.26-.74.12-.17.97-.51.97-.51l4.37-.3Z"/>
          <path class="uuid-4d1102dc-0fca-480d-b5a0-902c6c5c032c" d="M16.14,36.17c-.34,1.09-.86,2.51-.87,2.81,0,.3.47.72,1.01.78.54.06.88.27,1.43.06.55-.21,1.06-.27,1.35-.37.29-.09.88-.13,1.25-.29.38-.16.64-.36.68-.51.04-.15-.08-.47-.26-.58-.17-.11-1.51-.25-1.88-.25-.37,0-1.25-.6-1.25-.6l-1.48-1.06Z"/>
          <path class="uuid-3fd1cdf0-f2e1-4940-bbc2-6d8ff8ff88e1" d="M18.87,37.84c-.98.56-2.91-.1-3.07-.22-.02-.02-.01-.17,0-.42.05-.54.18-1.53.33-2.67.37-2.65.89-6.04.89-6.04l-1.22-2.85-.34-.79,2.83-1.92,2.01,6.67s-.47,7.67-1.45,8.24"/>
          <g class="uuid-d1a6924e-0933-4a18-b577-3643e3623665">
            <g class="uuid-c503fdf7-f302-4872-b25b-a44d985656ed">
              <g class="uuid-10a6d87c-591b-4f3a-bdd8-c65be325beac">
                <path class="uuid-bf646c40-aa0b-49a3-b36b-7e807f26cb91" d="M19.23,32.49c-.62.11-1.16.27-1.57.79-.32.4-.48.92-.74,1.36-.03.05-.06.1-.11.13-.06.03-.12.02-.19,0-.22-.04-.37-.12-.47-.25.37-2.65.89-6.04.89-6.04l-1.22-2.85c.1-.09.22-.14.35-.12.35.05.51.55.67.8.22.36.49.69.77,1,.53.58,1.13,1.11,1.57,1.76.13.19.25.38.31.6.14.43.08.89.06,1.33-.01.36.05.72.05,1.08,0,.32-.05.35-.36.4"/>
              </g>
            </g>
          </g>
          <rect class="uuid-80d8ee51-a9d6-4f0f-95f6-a82ff2a1140f" x="13.86" y="24.81" width=".75" height="4.11" transform="translate(-6.07 4.24) rotate(-13.99)"/>
          <path class="uuid-a2f207a7-0ac7-4232-b942-17e303a0f04f" d="M8.51,24.18s-.67,1.21.2,1.86c.87.65,2.86,1.49,4.07,1.52,1.21.03,1.91-1.63,2.07-1.91s1.09-2.18,2.04-2.89c.95-.72-.23-1.43-1.24-1.06s-3.06,1.13-4.41,1.52c-1.35.39-2.18.47-2.72.95"/>
          <path class="uuid-7307a0b9-660e-491c-afa0-3c327c6ae633" d="M30.16,22.93c-.2.1-.44.25-.57.38-.07.06-.1.13-.09.11,0,0,0,0,0-.02,0,0-.01-.03,0,0l.02.05.04.09c.22.5.51,1.04.78,1.55.55,1.04,1.12,2.08,1.7,3.12l-.04-.06,1.74,2.12-.48.42-1.85-2.03-.02-.02-.02-.04c-.63-1.01-1.25-2.02-1.86-3.05-.3-.52-.6-1.02-.89-1.59l-.05-.11-.06-.16s-.04-.14-.05-.21c-.01-.08,0-.16,0-.24.05-.31.2-.5.33-.66.28-.3.54-.48.86-.66l.5,1Z"/>
          <path class="uuid-a16eafe9-fcdf-494e-9bee-832025408d1e" d="M29.66,23.34s-1.16-3.06-1.25-3.28c-.13-.34-.26-.69-.39-1.03-.06-.16-.13-.33-.19-.49-.12-.31.05-.79.42-.8.07,0,.53.15.54.18.21.59.44,1.17.66,1.75.09.23,1.25,3.28,1.25,3.28-.01,0-1.02.39-1.04.4"/>
          <path class="uuid-a16eafe9-fcdf-494e-9bee-832025408d1e" d="M19.11,42.58l-.99-.53s.11-.21.12-.22c.38-.71.75-1.41,1.13-2.12.66-1.24,1.32-2.48,1.98-3.72.8-1.5,1.6-3,2.4-4.5l2.38-4.46c.64-1.2,1.28-2.4,1.92-3.6.22-.41.43-.82.65-1.22.18-.34.44-1.09.89-.57.49.56.13,1.03-.15,1.56-.23.42-.45.85-.68,1.27-.71,1.34-1.42,2.67-2.14,4.01-.84,1.59-1.69,3.17-2.53,4.76-.81,1.52-1.62,3.04-2.43,4.56-.61,1.14-1.22,2.29-1.83,3.43-.24.45-.48.9-.72,1.35"/>
          <polygon class="uuid-2220eac4-7bd4-4dce-83e4-37a5fa0be78c" points="19.01 45.18 19.93 41.03 18.99 40.69 18.08 44.85 19.01 45.18"/>
          <path class="uuid-a16eafe9-fcdf-494e-9bee-832025408d1e" d="M29.1,20.5c-.04.21-.19.4-.38.53-1.09.76-2.18,1.51-3.27,2.27-1.49,1.03-2.97,2.07-4.46,3.1l-3.94,2.74c-.57.39-1.13.79-1.69,1.18l-.65-.91s.14-.1.15-.11c.82-.58,1.63-1.17,2.45-1.75,1.39-1,2.79-2,4.18-3,1.42-1.01,2.83-2.03,4.25-3.04.54-.39,1.08-.78,1.62-1.16.2-.14.4-.28.6-.43.11-.08.24-.23.36-.25.26-.04.61.25.72.46.07.14.09.27.06.39"/>
          <rect class="uuid-a16eafe9-fcdf-494e-9bee-832025408d1e" x="16.11" y="28.52" width="1.12" height="14.07" transform="translate(-9.17 5.98) rotate(-16.02)"/>
          <path class="uuid-7307a0b9-660e-491c-afa0-3c327c6ae633" d="M14.92,30.73s0,.06,0,.09c.01.54-.77.94-1.13,1.24-.27.22-.54.44-.8.66l.17-.23-4.95,12.62-.55-.54,1.56-.65c.52-.21,1.06-.37,1.59-.56l3.19-1.1h.03s.05-.02.05-.02l3.63-.6.16-.03.15.07.67.29-.45,1.02-.67-.29.31.04-3.64.52.08-.02-3.2,1c-.53.17-1.07.32-1.6.51l-1.56.6-.88.34.33-.88,4.69-12.71.05-.14.12-.1c.37-.31.74-.61,1.12-.92.28-.23.56-.47.85-.69.16-.13.29-.23.46-.06.12.12.2.35.22.54"/>
          <path class="uuid-68f2c942-a7b8-41db-8574-34cc06a82a85" d="M8.36,35.73C3.74,38.39,0,44.85,0,50.14s3.74,7.43,8.36,4.76c4.61-2.66,8.36-9.12,8.36-14.41s-3.74-7.43-8.36-4.76M8.36,54.36c-4.35,2.51-7.88.5-7.88-4.49s3.53-11.07,7.88-13.59c4.35-2.51,7.88-.5,7.88,4.49s-3.53,11.07-7.88,13.59"/>
          <path class="uuid-68f2c942-a7b8-41db-8574-34cc06a82a85" d="M6.95,54.87c2.32-.75,4.83-2.52,6.27-4.87l1.89-3.53s.02-.05.03-.07c.72-2.05.96-3.93.96-3.93,0,0,0-2.66-.1-3.05-.1-.4-.72-1.64-.72-1.64l-1.29-1.59s.76-.16,1.26.33c.5.49,1.65,1.75,1.74,4.02.09,2.27-.68,9.02-6.77,13.53-6.08,4.52-8.58-.91-8.58-.91,0,0,2.61,2.59,5.32,1.71"/>
          <path class="uuid-faa38840-781b-4e2a-8b91-0a8fba5f4a89" d="M8.74,36.89c-4.17,2.4-7.54,8.23-7.54,13.01s3.5,6.84,7.67,4.43c4.17-2.4,7.71-8.17,7.71-12.95s-3.67-6.89-7.84-4.49M8.74,53.87c-4.01,2.31-7.26.46-7.26-4.14s3.25-10.2,7.26-12.52c4.01-2.31,7.26-.46,7.26,4.14s-3.25,10.2-7.26,12.52"/>
          <path class="uuid-4fa95105-da3a-460b-a4d0-f24f91b50717" d="M9.13,37.11c-4.17,2.4-7.54,8.23-7.54,13.01s3.38,6.71,7.54,4.3c4.16-2.4,7.54-8.23,7.54-13.01s-3.38-6.71-7.54-4.3M9.13,54.09c-4.01,2.31-7.26.46-7.26-4.14s3.25-10.2,7.26-12.52c4.01-2.31,7.26-.46,7.26,4.14s-3.25,10.2-7.26,12.52"/>
          <path class="uuid-68f2c942-a7b8-41db-8574-34cc06a82a85" d="M3.46,56.09s-.88-.4-1.4-.83c-.52-.43-2.27-3.67-1.69-6.64.58-2.97,1.79-7.11,4.57-9.8,2.78-2.69,5.23-3.96,7.05-3.89,1.82.07,2.46.31,2.46.31,0,0,.88.35,1.42.91-.11.2-2.51-.87-3.77-.64-1.27.23-4.62,1.64-7.03,4.91-2.4,3.27-3.65,6.7-3.7,8.65s.6,4.42,1.59,5.44c.98,1.02.5,1.58.5,1.58"/>
          <path class="uuid-ccafd9aa-2ccb-4af4-a504-2c5aecb854de" d="M9.32,36.84c-4.35,2.51-7.88,8.59-7.88,13.59s3.53,7,7.88,4.49c4.35-2.51,7.88-8.59,7.88-13.59s-3.53-7-7.88-4.49M9.32,54.53c-4.17,2.41-7.54.48-7.54-4.3s3.38-10.6,7.54-13.01c4.16-2.4,7.54-.48,7.54,4.3s-3.38,10.6-7.54,13.01"/>
          <path class="uuid-c813cbec-64b0-4706-85d7-fb4f72a898e9" d="M9.32,36.29c-4.62,2.66-8.36,9.12-8.36,14.41s3.74,7.43,8.36,4.76c4.61-2.66,8.36-9.12,8.36-14.41s-3.74-7.43-8.36-4.76M9.32,54.91c-4.35,2.51-7.88.5-7.88-4.49s3.53-11.07,7.88-13.59c4.35-2.51,7.88-.5,7.88,4.49s-3.53,11.07-7.88,13.59"/>
          <path class="uuid-68f2c942-a7b8-41db-8574-34cc06a82a85" d="M34.37,20.71c-4.62,2.66-8.36,9.12-8.36,14.41s3.74,7.43,8.36,4.76c4.61-2.66,8.36-9.12,8.36-14.41s-3.74-7.43-8.36-4.76M34.37,39.34c-4.35,2.51-7.88.5-7.88-4.49s3.53-11.07,7.88-13.59c4.35-2.51,7.88-.5,7.88,4.49s-3.53,11.07-7.88,13.59"/>
          <path class="uuid-68f2c942-a7b8-41db-8574-34cc06a82a85" d="M32.96,39.85c2.32-.75,4.83-2.52,6.27-4.87l1.89-3.53s.02-.05.03-.07c.72-2.05.96-3.93.96-3.93,0,0,0-2.66-.1-3.05-.1-.4-.72-1.64-.72-1.64l-1.29-1.59s.76-.16,1.26.33c.5.49,1.65,1.75,1.74,4.02.09,2.27-.68,9.02-6.77,13.53-6.09,4.52-8.58-.91-8.58-.91,0,0,2.61,2.59,5.32,1.71"/>
          <path class="uuid-faa38840-781b-4e2a-8b91-0a8fba5f4a89" d="M34.76,21.87c-4.17,2.4-7.54,8.23-7.54,13.01s3.5,6.84,7.67,4.43c4.17-2.4,7.71-8.17,7.71-12.95s-3.67-6.89-7.84-4.49M34.76,38.85c-4.01,2.31-7.26.46-7.26-4.14s3.25-10.2,7.26-12.52c4.01-2.31,7.26-.46,7.26,4.14s-3.25,10.2-7.26,12.52"/>
          <path class="uuid-4fa95105-da3a-460b-a4d0-f24f91b50717" d="M35.14,22.09c-4.17,2.4-7.54,8.23-7.54,13.01s3.38,6.71,7.54,4.3c4.16-2.4,7.54-8.23,7.54-13.01s-3.38-6.71-7.54-4.3M35.14,39.07c-4.01,2.31-7.26.46-7.26-4.14s3.25-10.2,7.26-12.52c4.01-2.31,7.26-.46,7.26,4.14s-3.25,10.2-7.26,12.52"/>
          <path class="uuid-68f2c942-a7b8-41db-8574-34cc06a82a85" d="M29.48,41.07s-.88-.4-1.4-.83c-.52-.43-2.27-3.67-1.69-6.64.58-2.97,1.79-7.11,4.57-9.8,2.78-2.69,5.23-3.96,7.05-3.89,1.82.07,2.46.31,2.46.31,0,0,.88.35,1.42.91-.11.2-2.51-.87-3.77-.64-1.27.23-4.62,1.64-7.03,4.91-2.4,3.27-3.65,6.7-3.7,8.65s.6,4.42,1.59,5.44c.98,1.02.5,1.58.5,1.58"/>
          <path class="uuid-ccafd9aa-2ccb-4af4-a504-2c5aecb854de" d="M35.34,21.82c-4.35,2.51-7.88,8.59-7.88,13.59s3.53,7,7.88,4.49c4.35-2.51,7.88-8.59,7.88-13.59s-3.53-7-7.88-4.49M35.34,39.51c-4.17,2.41-7.54.48-7.54-4.3s3.38-10.6,7.54-13.01c4.16-2.4,7.54-.48,7.54,4.3s-3.38,10.6-7.54,13.01"/>
          <path class="uuid-c813cbec-64b0-4706-85d7-fb4f72a898e9" d="M35.34,21.27c-4.62,2.66-8.36,9.12-8.36,14.41s3.74,7.43,8.36,4.76c4.61-2.66,8.36-9.12,8.36-14.41s-3.74-7.43-8.36-4.76M35.34,39.9c-4.35,2.51-7.88.5-7.88-4.49s3.53-11.07,7.88-13.59c4.35-2.51,7.88-.5,7.88,4.49s-3.53,11.07-7.88,13.59"/>
          <path class="uuid-a16eafe9-fcdf-494e-9bee-832025408d1e" d="M30.39,22.28c.42.39.82.76,1.22,1.21.1.12.19.21.32.44.07.16.11.27.16.4l.3.78,1.21,3.1-.04-.07,1.8,2.72-.51.35-1.93-2.62-.02-.03-.02-.05-1.35-3.01-.34-.75c-.05-.12-.12-.27-.16-.36-.01-.01-.1-.13-.19-.21-.35-.36-.78-.72-1.19-1.06l.73-.85Z"/>
          <path class="uuid-d30beeca-b2ad-4273-9981-304723a57ef9" d="M38.64,17.66c-.26-.47-1.02-1.13-1.44-1.46-.59.2-2.21.7-2.98.5-.84-.21-8.32-4.32-9.18-4.79l-.06-.03-.04-.05c-.25-.29-1.4-1.68-1.62-2.58-1.43-.84-3.44-.97-3.46-.97l.05-.75c.1,0,2.35.16,3.95,1.18l.16.1v.19c.04.45.85,1.59,1.44,2.29,3.19,1.75,8.39,4.54,8.94,4.69.51.13,1.95-.27,2.74-.55l.19-.07.16.12c.14.1,1.37,1.05,1.8,1.82l-.65.36Z"/>
          <path class="uuid-f50e65ed-76e1-4033-83d6-277e3b6da961" d="M39.53,18.24l.35-.93-2.6-1.62c-.07-.03-.17,0-.26.08-.18.16-.3.4-.25.63.02.12.08.19.16.21h0s0,0,0,0h0l2.59,1.62Z"/>
          <path class="uuid-b4d096c6-827b-46fc-984f-4fa700a3ae7f" d="M39.37,18.03c.05.23.24.29.41.13.18-.16.3-.4.25-.63-.05-.23-.24-.29-.41-.13-.18.16-.3.4-.25.63"/>
          <path class="uuid-80d8ee51-a9d6-4f0f-95f6-a82ff2a1140f" d="M29.73,14.38c.1-.1.26-.26.42-.16.06.04.1.1.13.16.06.09.1.19.13.3.01.05,0,.06-.02.1-.02.02-.04.04-.05.06-.04.04-.09.09-.13.14l-.31.33c-.24.26-.49.51-.73.77-.21.23-.43.45-.64.68-.09.1-.18.19-.28.29,0,0-.54-.51-.53-.52.11-.12.23-.24.34-.36.22-.24.45-.47.67-.7.24-.25.48-.51.72-.76.1-.1.2-.21.29-.31"/>
          <path class="uuid-71aecc3a-7870-4b64-8398-2cc776247998" d="M27.62,16.07c.1-.04.21-.03.32-.01.02,0,.05,0,.07.02.08.05.11.27.14.36.05.13.09.26.14.39.1.26.19.53.29.8.06.16.15.34.03.5-.1.13-.34.19-.49.13-.07-.03-.13-.09-.17-.18-.1-.22-.17-.45-.25-.68-.07-.18-.14-.37-.2-.55-.1-.26-.21-.63.12-.76"/>
          <path class="uuid-a16eafe9-fcdf-494e-9bee-832025408d1e" d="M15.75,31.1c.02.49-.14,1.09-.19,1.5-.05.43-.11.86-.16,1.29v.1s-.05.08-.05.08l-6.23,12.27-.34-.42,2.19-.59h-.03s6.59-2.46,6.59-2.46l-.25.17.9-1.08.86.72-.9,1.08-.11.13-.14.04-6.71,2.09s-.03,0-.03,0l-2.22.47-.59.12.25-.54,5.76-12.49-.05.18c.12-.42.11-.93.17-1.37.04-.32.08-.64.12-.97.05-.36-.02-.62.25-.9.11-.12.23-.24.39-.24.2,0,.35.19.43.37.06.13.09.29.1.45"/>
          <polygon class="uuid-47a4e086-e20b-476e-b650-3e764b37cd20" points="21.14 44.49 18.66 47.06 15.81 45.42 15.81 44.28 18.3 42.84 21.14 44.49"/>
          <polygon class="uuid-15c59cea-672b-4e8d-92f2-7c76e1b02a54" points="21.14 45.63 18.66 47.06 18.66 45.92 21.14 44.49 21.14 45.63"/>
          <path class="uuid-ca762e8c-0277-4474-8131-6d32f675a11d" d="M17.66,42.35c0,1.28.9,1.79,2.02,1.15,1.12-.64,2.02-2.2,2.02-3.48s-.9-1.8-2.02-1.15c-1.11.64-2.02,2.2-2.02,3.48"/>
          <polygon class="uuid-ca762e8c-0277-4474-8131-6d32f675a11d" points="18.21 43.62 18.67 43.89 21.57 38.99 21.14 38.75 18.21 43.62"/>
          <path class="uuid-f09dda50-dfb4-4080-9a59-5480c45820a5" d="M18.07,42.59c0,1.28.9,1.79,2.02,1.15,1.12-.64,2.02-2.2,2.02-3.48s-.9-1.8-2.02-1.15c-1.11.64-2.02,2.2-2.02,3.48"/>
          <path class="uuid-98c83030-a215-4daf-bfcb-345ead7a4553" d="M16.72,43.04s-.37.25-.43.6c-.06.35-.11.61-.1.72,0,.11.55.85,1.52.73.97-.12,1.4-.53,1.4-.53l.07-.29s.77-.14.83-.12c.05.02.19.12.19.12,0,0,1.04-.11,1.49-.27.46-.16.88-.61,1.04-.81.16-.2.22-.33.22-.33,0,0-.03-.5-.19-.63-.16-.13-1.98.22-1.98.22l-4.06.59Z"/>
          <path class="uuid-4d1102dc-0fca-480d-b5a0-902c6c5c032c" d="M19.73,41.16c.29.22.93.36.93.36,0,0,1.3.05,1.66.32.36.27.48.43.42.77-.07.33-.18.52-.35.63-.17.12-.89.6-1.84.64-.95.04-1.51.16-1.72.27-.21.11-.71.36-1.55.21-.84-.15-.88-.51-.91-.74-.03-.23.46-1.65.53-1.75.07-.11,1.06-.73,1.06-.73h1.76Z"/>
          <path class="uuid-3fd1cdf0-f2e1-4940-bbc2-6d8ff8ff88e1" d="M15.06,16.79c-.47.34-.94,1.38-1.06,1.55-.12.17-.84.99-.92,2.21-.08,1.22.94,2.46,1.25,2.93.32.47.9,1.22,1.67,1.84.77.62,2.01,2.57,2.08,2.9.06.33.98.27,1.34-2.23.36-2.5.67-7.25-.08-8.11-.74-.86-4.29-1.09-4.29-1.09"/>
          <path class="uuid-3fd1cdf0-f2e1-4940-bbc2-6d8ff8ff88e1" d="M15.55,18.02c-.29.72-1.25,2.73-1.03,3.97.22,1.24.99,1.57,1.67,2.78.67,1.21,2.1,4.31,2.27,4.67.16.36.96,2.41.79,3.16-.17.75-.95,4.26-1.21,5.34-.27,1.08-1.09,3.72-1.13,4.29-.04.57,1.56.74,2.12.65.56-.1.98-.57,1.08-.85.1-.28.65-2.3.7-2.68.05-.37,2.01-5.92,2.11-6.85.1-.93-.23-4.25-.35-5.6-.12-1.35-.37-2.34-.57-4.28-.2-1.94,0-2.66,0-2.66,0,0-1.21-.78-2.84-1.13-1.64-.35-3.59-.79-3.59-.79"/>
          <path class="uuid-0af77952-2736-4208-9a55-2b7320ff81f0" d="M14,18.34c.23.15.25.48,3.07,1.23,2.82.75,4.04,1.02,4.82,1.59.06-1.05.09-1.21.09-1.21l.04-1.17-7.4-1.49-.61,1.05Z"/>
          <rect class="uuid-3fd1cdf0-f2e1-4940-bbc2-6d8ff8ff88e1" x="14.3" y="18.36" width="2.06" height=".52" transform="translate(-7.77 25.54) rotate(-67.21)"/>
          <path class="uuid-3fd1cdf0-f2e1-4940-bbc2-6d8ff8ff88e1" d="M20.87,21.23l-.49-.17c.24-.68.39-1.38.45-2.1l.52.04c-.06.76-.22,1.51-.47,2.23"/>
          <path class="uuid-4b846532-e587-490b-a842-94ec647b701b" d="M21.74,32.66c-.42-.76-1.63-.94-2.2-.24-.35.42-.44,1.2-.53,1.72-.11.63-.18,1.27-.32,1.9-.33,1.42-.61,2.85-.96,4.27.01-.06.02-.11.03-.17-.09.54-.63,1.15.07,1.52.37.19.8.26,1.21.19.12-.02.23-.05.33-.11.3-.19.35-.6.43-.95.12-.52.39-1,.61-1.49.54-1.16.89-2.4,1.04-3.67.04-.31.04-.63.07-.94.03-.24.11-.35.22-.58.22-.45.25-1.01,0-1.46"/>
          <path class="uuid-c5a11b3a-94d2-4602-8eeb-169ee4b68115" d="M19.73,42.79l-.25-.07c.03-.09,2.72-8.89,2.92-9.86.12-.63-.12-2.04-.31-3.17-.11-.61-.2-1.13-.21-1.42-.01-.34-.09-.87-.18-1.49-.12-.82-.28-1.85-.33-2.82-.02-.29-.13-3.5.08-3.61l.07-.04.07.05-.08.1.12.04c-.03.14-.1,1.85,0,3.43.06.96.21,1.98.33,2.8.09.62.17,1.17.19,1.52.01.27.1.79.2,1.39.2,1.16.44,2.59.31,3.27-.2.99-2.81,9.52-2.92,9.89M21.51,20.46l-.08.1.08-.1Z"/>
          <path class="uuid-c5a11b3a-94d2-4602-8eeb-169ee4b68115" d="M17.85,26.51l-.05-.04c-.46-.38-1.55-1.29-1.63-1.44-.08-.15-.34-2.09-.46-2.91l-.02-.17,4.72.79-.46,3.42-2.11.36ZM16,22.26c.14,1.02.35,2.52.41,2.66.07.1.91.82,1.52,1.32l1.8-.31.4-2.98-4.13-.69Z"/>
          <path class="uuid-c5a11b3a-94d2-4602-8eeb-169ee4b68115" d="M14.23,23.66c-.07-.22-.54-2.04-.63-2.4-.15-.08-.54-.29-.64-.55l.24-.1c.06.16.38.35.56.44l.06.02.02.06s.57,2.21.64,2.45l-.25.08Z"/>
          <path class="uuid-8eaa7fcc-257a-46b8-be90-a8c6e72c5591" d="M18.04,18.48s-.43,1.48-.39,1.45c.04-.03,2.31.62,2.31.62l.36-1.49-2.28-.58Z"/>
          <g class="uuid-e9b3c60a-f47b-4eff-b2d5-eab50356f9eb">
            <rect class="uuid-5c77c756-346b-4bf8-a6cc-e4dd85eb381d" x="23.99" y="1.21" width="7.2" height="7.34" transform="translate(19.06 31.56) rotate(-82.3)"/>
          </g>
          <path class="uuid-bbc580c5-d2dd-4412-9f1a-714a7df1bf2d" d="M26.44,5.83c.34.08.69-.08,1.04-.42.35-.34,1.09-.86,1.33-.86s.41.21.41.21l-.24.64h.32s.32-.69.41-.79c.09-.1.34-.39.51-.38.17,0,.52-.52.56-.77.05-.26.42-1.42-.78-2.59s-2.7-.52-3.27-.34c-.72.34-1.67,1.58-1.78,2.15-.11.57-.05.82-.08,1.25-.03.43.18,1.12.14,1.24-.03.12,1.41.68,1.41.68"/>
          <path class="uuid-6b73ee3a-a3ee-4ea3-bdd6-855fd0b4ddf2" d="M28.33,5.22c-.02.59-1.41,2.41-1.41,2.41l.35.24s.87-1.09,1.06-1.35c.46-.24.95-.68.99-.86.04-.18.43-.91.43-.91l-.53.3s-.22.67-.36.8c-.14.13-.52.34-.52.34,0,0,.36-.8.37-1.02s-.37.05-.37.05"/>
          <g class="uuid-57686d73-bf0d-4ca6-9d65-ec8660f25751">
            <rect class="uuid-78f520b9-c8ed-4263-bd17-33a04cb0c4c8" x="28.06" y="4.49" width="1.74" height="1.12" transform="translate(20.05 33.05) rotate(-82.3)"/>
          </g>
          <g class="uuid-d1a6924e-0933-4a18-b577-3643e3623665">
            <g class="uuid-56a2eea0-2c88-4bfb-b82f-b94d4253125c">
              <g class="uuid-6f5f91ec-414c-4b3a-bcf7-bd072d4e4765">
                <path class="uuid-bf646c40-aa0b-49a3-b36b-7e807f26cb91" d="M28.16,7.62l-.11.09c-.45.36-.79.16-.79.16,0,0-.14.16-.32.16-.17.01-2.63-1.74-2.55-1.93.03-.06.08-.15.15-.24.03,0,.06,0,.1,0,.4.04.79.17,1.17.32.27.11.55.23.7.48.11.18.14.39.26.56.13.19.35.29.57.37.04.01.07.02.11.02.05,0,.09-.05.13-.09.1-.09.24-.12.37-.09.09.03.17.1.21.18"/>
              </g>
            </g>
          </g>
          <path class="uuid-4baf641b-8b15-4e37-935a-c8b5989ad657" d="M29.37,9.91c-.07.39-1.09,1.98-1.85,3.14-.24.36-.45.68-.6.91-.63.97-3.17,3.76-3.38,4.25-.21.49-1.52,2.52-1.72,2.47-.09-.02-.3-.24-.68-.51-.48-.34-1.22-.77-2.29-1-1.91-.41-4.29-1.42-4.34-1.79-.05-.38.85-1.15,1.28-1.54.43-.39,1.41-1.84,2.22-3.34.81-1.5,1.32-3.4,2-5,.68-1.6,1-1.62,1.53-1.68.53-.06,1.99.04,1.99.04,0,0,.45-.08.96.05.52.14,1.71.92,2.14,1.2,0,0,.17.24.23.3.06.06.3.39.74.57.44.18,1.11.62,1.4.75.3.14.44.67.35,1.18"/>
          <g class="uuid-d1a6924e-0933-4a18-b577-3643e3623665">
            <g class="uuid-b2576528-cac0-4a96-988d-35b3e9ca5346">
              <g class="uuid-6a4742c1-bb48-4877-85af-21f980c55182">
                <path class="uuid-bf646c40-aa0b-49a3-b36b-7e807f26cb91" d="M27.52,13.05c-.24.36-.45.68-.6.91-.63.97-3.17,3.76-3.38,4.25-.21.49-1.52,2.52-1.72,2.47-.09-.02-.3-.24-.68-.51.1-.13.22-.25.34-.37.53-.49,1.07-.98,1.53-1.54.35-.42.65-.89.99-1.31.32-.4.69-.76.99-1.18.66-.92.99-2.06,1.69-2.94.06-.08.13-.16.23-.18.23-.06.4.21.57.38,0,0,.02.01.02.02"/>
              </g>
            </g>
          </g>
          <path class="uuid-79b68be9-b9c6-460c-8d71-130996bd0cd4" d="M22.57,6.2c-.27-.06-.51-.19-.83-.14-.64.1-1.02.75-1.28,1.35-.61,1.42-1,2.92-1.39,4.41-.06.24-.12.49-.08.73.04.17.12.32.23.45.61.76,1.72.89,2.5,1.47.33.25.61.58.98.75.65.29,1.44,0,1.98-.48.54-.47.91-1.1,1.38-1.64.69-.81,1.59-1.42,2.31-2.21.24-.27.47-.57.52-.92.1-.61-.35-1.19-.85-1.54-.48-.33-1.02-.54-1.48-.9-.62-.48-1.35-1.49-2.2-1.54-.12,0-.24.01-.36.03-.39.06-.87.23-1.26.19-.06,0-.11-.01-.16-.03"/>
          <g class="uuid-a3be3ffa-f016-4de5-b490-aafca32257c3">
            <rect class="uuid-fa5ad02f-05e6-46a7-942e-90303ec756aa" x="30.3" y="8.79" width="7.7" height="10.58" transform="translate(15.61 46.04) rotate(-82.3)"/>
          </g>
          <g class="uuid-d1a6924e-0933-4a18-b577-3643e3623665">
            <g class="uuid-7d8286f6-0bb8-45f2-b710-ada83c3445a2">
              <g class="uuid-32978422-a750-4956-8702-c12dbbb4c7b4">
                <path class="uuid-bf646c40-aa0b-49a3-b36b-7e807f26cb91" d="M38.95,16.59c-.18.11-.32.3-.38.5,0,0,0,.02,0,.03-.09,0-.18-.03-.21-.05-.05-.04-.05-.09-.05-.09,0,0-.39.34-.78.29-.42-.14-.45-.14-.45-.14,0,0-.16.07-.41-.11-.25-.18-.47-.32-.47-.32,0,0-.62-.21-1.37-.49-.74-.28-1.9-.81-2.39-1.07-.48-.27-1.25-.83-1.67-1.05-.42-.22-1.54-1.14-1.54-1.14l.16-.25c.23.11.43.28.66.4.35.18.71.38,1.05.57.22.12.4.27.65.3.26.04.51.11.76.18.1-.02.19-.04.28-.07.13-.03.26-.06.36-.15-.21.22-.45.38-.69.57.07.23.4.41.59.53.29.18.6.35.91.49.34.15.71.23,1.02.44.65.44,1.52.43,2.15.94.08.06.15.13.24.18.21.1.46.04.68-.04.31-.12.61-.26.89-.45"/>
              </g>
            </g>
          </g>
          <path class="uuid-f50e65ed-76e1-4033-83d6-277e3b6da961" d="M39.34,16.97c-.08-.05-.16-.12-.25-.16-.07-.03-.17-.03-.24-.03-.05,0-.11,0-.16.01-.09.01-.19.03-.28.05-.09.02-.16.06-.24.1-.06.04-.13.07-.19.1-.13.07-.11.15,0,.21.12.07.25.15.37.23.12.07.24.15.36.22.21-.25.42-.5.63-.75"/>
          <path class="uuid-a273eb8a-fc42-44e4-b0a9-64abfbd7a57e" d="M33.17,12.67c.14.04.24.04.23.2-.01.11-.1.22-.17.3-.1.11-.4.4-.55.42-.14.02-.29.03-.43.03-.11,0-.23,0-.34-.04-.16-.04-.3-.13-.43-.22-.7-.46-1.3-1.08-1.74-1.8-.07-.11-.14-.24-.14-.37,0-.04,0-.09.04-.12.02-.02.05-.02.08-.02.28-.04.56.04.82.15.29.13.62.26.88.45.1.07.21.15.29.24.06.06.11.13.17.19.17.18.41.25.64.31.23.06.42.22.66.28"/>
          <path class="uuid-a273eb8a-fc42-44e4-b0a9-64abfbd7a57e" d="M36.99,16.21c-.13.09-.3.1-.45.08-.35-.05-.67-.2-.98-.36-.36-.18-.73-.36-1.09-.54-.24-.12-.48-.25-.69-.42-.29-.24-.52-.62-.47-.99,0-.06.02-.13,0-.19-.02-.06-.06-.1-.09-.14-.14-.16-.29-.32-.43-.48-.03-.03-.05-.06-.06-.1,0-.08.09-.14.17-.16.19-.05.4-.07.6-.06.08,0,.16.02.23.06.07.05.12.12.17.19.16.21.38.35.58.52.46.38.79.89,1.24,1.28.22.18.46.33.7.48.21.13,1.05.5.58.85"/>
          <path class="uuid-546e7610-8c64-4feb-b157-21dac41052e1" d="M31.76,11.67c-.02.29-.27,1.05-.71,1.63-.44.58-1.25,1.08-1.34,1.21-.08.13-.95-.1-.95-.1,0,0-1.82-.6-2.09-.75-.27-.15-.1-1.9.92-3.2,1.02-1.3,1.4-1.69,1.59-1.6.19.09,1.43,1.94,1.66,2.13.24.18.92.68.92.68"/>
          <path class="uuid-655ee22e-8e49-4870-859e-e7a9dd7f0f80" d="M40,30.15c-.29.1-.44-.34-.34-.97.11-.63.43-1.22.73-1.32.29-.1.44.34.34.97-.11.63-.43,1.22-.72,1.32"/>
          <path class="uuid-e4b858a3-44c4-40b9-9fc0-efae083234e7" d="M40.12,30.22c-.29.1-.44-.34-.34-.97.11-.63.43-1.22.73-1.32.29-.1.44.34.34.97-.11.63-.43,1.22-.72,1.32"/>
          <path class="uuid-655ee22e-8e49-4870-859e-e7a9dd7f0f80" d="M3.26,48.51c-.29.1-.44-.34-.34-.97.11-.63.43-1.22.73-1.32.29-.1.44.34.34.97-.11.63-.43,1.22-.72,1.32"/>
          <path class="uuid-e4b858a3-44c4-40b9-9fc0-efae083234e7" d="M3.37,48.58c-.29.1-.44-.34-.34-.97.11-.63.43-1.22.73-1.32.29-.1.44.34.34.97-.11.63-.43,1.22-.72,1.32"/>
          <path class="uuid-036140bd-35d1-4ac2-a130-54c034200d80" d="M25.6,3.56c-.63.69-1.47.77-1.58.93-.23.35-.05.88.04.96.33.32.98.54,2.09.66,1.11.12,1.62.23,2.96-.26,1.34-.49,1.58-.76,2.02-1.3.55-.66.61-1.43.61-1.61,0-.18-.14-1.17-.48-1.3-.34-.13-5.65,1.91-5.65,1.91"/>
          <path class="uuid-430645bd-e542-4119-a5c0-c00f00c72001" d="M31.33,1.82s0,0,0,0c0-.01,0-.02,0-.02h0c-.18-.58-.87-1.07-1.34-1.32-.99-.54-2.11-.83-3.7.28-.5.35-.88.86-1.09,1.16-.83,1.02-1.9,2.82-.63,3.26,1.34.46,2.88.93,5.52-.42,1.81-.93,1.32-2.7,1.25-2.93"/>
          <path class="uuid-036140bd-35d1-4ac2-a130-54c034200d80" d="M28.99,3.01s-.81.9-.89,1.4c-.08.5,1.25.07,1.89-.38.64-.46.86-.56.89-1.09.03-.53-.75-.34-.75-.34l-1.14.41Z"/>
          <path class="uuid-6b73ee3a-a3ee-4ea3-bdd6-855fd0b4ddf2" d="M30.69,2.86c-.1-.53-1.06-.14-1.43,0-.67.26-1.13,1.31-1.1,1.48.03.18,2.67-.69,2.53-1.48"/>
          <path class="uuid-036140bd-35d1-4ac2-a130-54c034200d80" d="M25.78,2.75c-.11-.23-.24-.44.32-1.17.56-.74,1.56-1.37,2.21-1.41.65-.04,1.25.32.93.58-.32.26-2.39.5-3.45,2"/>
          <path class="uuid-6b73ee3a-a3ee-4ea3-bdd6-855fd0b4ddf2" d="M25.82,2.8c.5.21,1.36-1.28,2.84-1.69.31-.09.85-.38.43-.59-.42-.21-.87-.37-1.75.18-.88.55-1.82,1.97-1.52,2.1"/>
        </g>
      </g>
    </g>
  </g>
</svg>