<?xml version="1.0" encoding="UTF-8"?>
<svg id="Calque_2" xmlns="http://www.w3.org/2000/svg" viewBox="0 0 20.74 45.67">
  <defs>
    <style>
      .cls-1 {
        fill: #fbc800;
      }

      .cls-2 {
        fill: #4bb0c1;
      }

      .cls-3 {
        fill: #f8c4aa;
      }

      .cls-4 {
        fill: #c3a159;
      }

      .cls-5 {
        fill: #e73b59;
      }

      .cls-6 {
        fill: #292f3b;
      }

      .cls-7 {
        fill: #dedf5f;
      }

      .cls-8 {
        fill: #ebbc7d;
      }

      .cls-9 {
        fill: #e1ab60;
      }

      .cls-10 {
        fill: #f3f8fd;
      }

      .cls-11 {
        fill: #f3af87;
      }

      .cls-12 {
        fill: #d6b366;
      }

      .cls-13 {
        fill: #484a53;
      }

      .cls-14 {
        fill: #ef9f76;
      }

      .cls-15 {
        fill: #baca37;
      }

      .cls-16 {
        fill: #fab700;
      }
    </style>
  </defs>
  <g id="_Éléments_Mise_en_page" data-name="Éléments_Mise_en_page">
    <g>
      <path class="cls-14" d="M10.45,35.18c-.21.11-.74-.24-.94-.16-.07.03-.86.52-.91.51-.21-.03-.08-.73-.08-.73l-.19-.4-1.24.25c.05.42.05.86.01,1.28-.02.19-.08.38-.03.56.05.2.2.37.39.45.11.05.23.06.35.07.16.01.32.01.47-.03.2-.06.38-.2.57-.29.2-.1.41-.17.61-.29.38-.23.62-.51.62-.91,0-.25.38-.07.38-.32"/>
      <path class="cls-6" d="M7.07,36.16c.28.41.51.75,1.33.49.19-.06,1.54-.98,1.44-1.21-.2-.45-.67-.23-.67-.23,0,0,.61-.36.83-.45.19-.08.4-.14.6-.08.28.09.4.38.32.64-.08.25-.23.47-.41.66-.27.27-.61.47-.94.66-.43.25-.81.53-1.19.83-.07.05-.13.1-.21.14-.28.15-.65.09-.89-.11-.17-.14-.28-.35-.32-.56-.05-.22.03-.42.08-.64,0-.04.02-.1.02-.15"/>
      <path class="cls-14" d="M8.48,35.63c.03.47-.13.16-.29.3-.37.32-.69-.27-.95-.54-.14-.17-.11-.43-.14-.63-.12-.94-.3-1.2-.46-1.74-.21-.72-.22-1.48-.13-2.22.09-.74.29-1.46.5-2.18.05-.18.12-.37.12-.56,0-.12-.05-.24-.05-.36,0-.39.22-.76.27-1.14.03-.25.04-.52.19-.73.27-.37.85-.39,1.25-.16.31.18.59.45.77.76.17.3.16.72.16,1.06,0,.42-.03.83-.09,1.25-.13.99-.4,1.95-.62,2.93-.09.39-.16.77-.22,1.17-.1.59-.36,2.24-.32,2.8"/>
      <path class="cls-15" d="M3.47,10.32c-.2-.8-.26-1.63-.2-2.45.05-.63-.04-1.58.72-1.86.41-.15.96,0,1.3.24.11.08.55.34.66.39.62.33,1.22.69,1.82,1.06.87.54,1.59.85,2.36,1.5,1.11.94,1.7,2.5.86,4.06-.09.17-.21.31-.28.48-.08.18-.15.37-.2.57-.11.38-.16.77-.2,1.16-.06.69-.04,1.39.06,2.08.02.12.04.25-.03.35-.07.12-.22.15-.36.16-.55.05-.84,1.05-1.36.87-.91-.32-1.97-.13-2.79-.63-.59-.36-1.59.29-1.4-.56.07-.28.05-.63-.02-.91-.07-.3-.17-.58-.06-.89.05-.13.13-.25.18-.37.14-.31.14-.66.11-1-.04-.37-.11-.74-.2-1.1-.1-.43-.22-.85-.36-1.26-.18-.53-.39-1.04-.54-1.58-.03-.1-.05-.19-.08-.29"/>
      <path class="cls-3" d="M9.06,26.34l-2.16-1.3-2.16-1.3s-.05.09-.05.26c0,.67.2,2.49.31,3.75.03.33.05.62.06.84,0,.08,0,.14,0,.2,0,.06,0,.11,0,.15,0,.01,0,.03,0,.04,0,.05-.01.08-.02.09-.44.39-.9,1.12-1.19,1.64-.02.04-.05.09-.07.13-.1.17-.19.35-.27.51-.62,1.22-.58,1.4-1.37,3.7-.15.45-.56,1.7-1.28,2.21-.53.38-1.05.91-.56,1.51.43.53.81.41,1.13.61.27.17.45.42.7.61.44.33,1.89.38,1.74-.24-.06-.25-.31-.33-.57-.43-.22-.09-.45-.19-.57-.47-.38-.9-.1-1.45.34-2.21.04-.04,2.56-3.15,2.55-3.2.8-1.1,1.03-1.95,1.73-2.89.04-.06.08-.11.11-.17.22-.4-.02-.08.56-1.07.01-.02.15-.42.16-.44.05-.15.12-.34.19-.53,0-.02.02-.04.02-.07.03-.09.06-.18.09-.27.12-.35.25-.7.35-1,.01-.04.03-.08.04-.12.01-.04.03-.07.04-.11.1-.28.17-.46.18-.46"/>
      <path class="cls-6" d="M3.33,39.7c-.3.22-1.96-.59-2.58-1.57-.21-.29-.16-.58,0-.81-.2.14-.42.28-.56.48-.12.17-.19.39-.2.6,0,.07,0,.15.03.22.02.06.06.12.11.17.14.18.33.32.54.41.22.1.45.11.66.24.26.17.44.44.69.63.27.2.7.2,1.03.2.22,0,.45-.02.66-.12.15-.08.3-.24.26-.4-.06-.27-.42-.34-.64-.41-.02,0-.04-.01-.06-.02.09.15.19.28.05.38"/>
      <path class="cls-5" d="M3.11,18.87c-.23,1.3-.27,2.57-.07,3.89.16,1.09.55,2.15.6,3.25.02.52-.03,1.04-.1,1.55-.12.85.73,1.3,1.45,1.44.55.11,1.11.11,1.66.24.56.14,1.07.41,1.59.66.37.18.76.36,1.17.41.38.05.46.04.54-.3.07-.28.12-.56.2-.83.15-.53.33-1.05.48-1.57.43-1.48.62-3.03.57-4.58-.04-1.4-.39-2.76-.61-4.14-.09-.59-.25-1.49-.25-1.49-.39.09-.76.32-1.17.37-.94.11-1.89-.05-2.8-.3-1.49-.42-1.91-1.79-1.91-1.79-.28.09-1.26,2.64-1.35,3.17"/>
      <path class="cls-3" d="M5.56,5.37c-.04.94-.03.77-.13,1.01-.08.19-.47.64.14,1.31.61.66,1.67,1,2.36.62.76-.42-.2-1.22.67-2.1l-3.04-.83Z"/>
      <path class="cls-3" d="M9.48,1.82c.16.2.29.42.34.68.08.49-.09.98-.03,1.47.05.43-.2.96-.31,1.38-.07.26-.17.56-.41.69-.15.08-.32.08-.46.17-.09.05-.15.13-.23.2-.24.18-.67.09-.94.05-.27-.04-.57-.08-.82-.2-.48-.22-.8-.68-1.09-1.12C3.17,1.51,7.89-.06,9.48,1.82"/>
      <path class="cls-12" d="M5.05,1.34c.04-.1.09-.2.16-.3.3-.39.73-.69,1.19-.86.58-.21,1.21-.23,1.81-.1.12.02.24.06.35.11.22.1.4.26.58.42.19.18.46.34.59.57.13.23.24.49.23.76,0,.12-.07.21-.13.32-.04.08-.1.14-.16.21-.18.23-.25.55-.36.82-.04.11-.09.24-.2.3-.2.13-.47,0-.7.08-.13.04-.24.15-.3.27-.07.12-.1.26-.14.39-.05.21-.06.39-.08.6-.02.21-.08.44-.23.6-.33.37-.97.35-1.41.26-.16-.03-.32-.07-.46-.13-.76-.35-1.21-1.39-1.3-2.18-.02-.18-.03-.36-.02-.53,0-.19.01-.38.06-.56.07-.28.22-.52.37-.76.06-.09.1-.19.14-.29"/>
      <path class="cls-10" d="M4.41,3.02c.11-.16.24-.31.42-.4.34-.18.76-.11,1.13,0,.3.09.62.21.85.43.32.31.19.54.11.94,0,0,0,0,0,0-.37-.91-1.61-1.23-2.51-.98"/>
      <path class="cls-3" d="M8.16,3.49c-.44,0-.51.56-.18.96.1.12.26.21.39.3.84.61.98-.13.72-.34-.62-.49-.36-.93-.92-.92"/>
      <path class="cls-11" d="M8.36,4.31c-.05-.04-.58-.3-.25-.53.09-.06.2.01.22.11.01.05,0,.11.01.16,0,.03.02.06.04.08.05.07.21.13.19.24-.02.1-.18-.04-.21-.06"/>
      <path class="cls-4" d="M6.92,6.52c.08.34.21.66.31.98.31.93.49,1.91.54,2.89.01.3.01.6-.08.88-.19.57-.77.94-1.36,1.04-.59.09-1.19-.05-1.75-.26-.33-.12-.67-.28-.87-.57-.19-.27-.23-.62-.25-.95-.15-1.97-.06-3.95.27-5.89.03-.18.06-.36.12-.54.09-.29.25-.55.4-.8.16-.26.33-.54.6-.68.34-.18.76-.11,1.13,0,.3.09.62.21.85.43.32.31.19.54.11.94-.16.83-.21,1.7,0,2.53"/>
      <path class="cls-16" d="M12.61,20.73c.07.15.11.27.12.31.16.53.33.92.34,1.5.01.71-.03,1.47-.47,2.02-.62.78-1.99.99-2.93,1.03-.43.02-.92.02-1.24-.27-.28-.26-.35-.67-.39-1.05-.06-.65-.17-1.31-.14-1.97.03-.48-.11-1.21.33-1.54.24-.18.56-.17.86-.14.46.04.92.1,1.37.06.46-.04.92-.19,1.25-.51.11-.1.21-.23.36-.26.27-.04.44.65.52.83"/>
      <path class="cls-1" d="M10.93,24.3c1.3-.43,1.89-1.26,2.08-2.25-.07-.34-.18-.65-.29-1.02-.01-.04-.06-.15-.12-.31-.08-.18-.26-.87-.52-.83-.15.02-.25.15-.36.26-.33.32-.79.47-1.25.51-.46.04-.92-.02-1.37-.06-.29-.03-.62-.03-.85.14-.45.33-.31,1.06-.34,1.54,0,.13,0,.26,0,.39.52,1.16,1.77,1.9,3.03,1.62"/>
      <path class="cls-1" d="M9.2,9.37c-.89.86-1.18,2.77-1.27,3.45-.19,1.43-.1,2.9-.09,4.33,0,1.51-.08,3.06.12,4.56.01.09.42.16.43.07.14-1.13-.2-5.83-.2-6.99,0-1.12.06-2.24.4-3.32.15-.49.33-1,.58-1.46.12-.22.29-.4.49-.55.1-.08.21-.14.33-.19.03-.01.07-.02.1-.03.02,0,.03,0,.05-.01.02,0,.01-.02,0-.03,0,0-.01-.02-.02-.03-.03-.04-.06-.07-.09-.1-.02-.02-.05-.04-.08-.05-.03-.01-.06-.01-.09-.01-.07,0-.13.03-.19.06,0,0,0,0,0,0-.17.08-.33.18-.46.31"/>
      <path class="cls-13" d="M9.17,24.4s0,.03,0,.05c0,.04.01.08.04.12.03.03.07.05.11.05.03,0,.1,0,.13-.02.03-.02.03-.08.03-.11,0-.23.02-.46.02-.7,0-.05,0-.11-.06-.13-.02,0-.04,0-.06,0-.04,0-.07,0-.11,0-.03,0-.07.02-.09.05-.03.04-.04.09-.04.13,0,.19,0,.38.02.57"/>
      <path class="cls-13" d="M12.22,23.8c.01.08.03.17.1.2.08.03.17-.03.2-.11.03-.08.01-.17,0-.25-.03-.14-.06-.28-.09-.43,0-.04-.01-.11-.05-.14-.04-.03-.09-.01-.13,0-.03.01-.07.03-.09.05-.07.07-.02.18,0,.27.03.14.05.27.07.4"/>
      <path class="cls-1" d="M12.33,19.37c.02-1.08-.04-2.16-.18-3.23-.13-1-.3-1.99-.51-2.97-.21-1.01-.54-2.01-.71-3.03-.01-.06-.1-.05-.12,0-.12.38-.03.74.06,1.12.12.48.23.96.33,1.45.22,1.05.41,2.11.55,3.18.27,2.08.25,4.15.12,6.24,0,.08.13.12.16.04.39-.87.27-1.76.28-2.8"/>
      <path class="cls-11" d="M12.04,19.76c-.04-.11-.29.74-.42.8-.11.05-.18.16-.19.28-.04.32-.02.6.08.9.1.32.25.62.45.89.05.06.12.13.19.1.05-.02.08-.07.13-.08.1-.02.14.12.21.19.11.11.34,0,.31-.16.09.1.18.19.31.21.13.01.27-.11.22-.23.05.13.23.2.35.14.13-.06.19-.23.12-.36-.05-.09-.15-.15-.22-.23-.28-.28-.2-.77-.39-1.13-.13-.25-.33-.43-.61-.43-.2,0-.47-.58-.57-.88"/>
      <path class="cls-11" d="M12.82,20.72c.39.14.89.55,1.06.92.03.06.05.12.05.19,0,.07-.04.13-.1.16-.06.02-.13,0-.17-.05-.05-.04-.08-.1-.1-.16,0-.01-.01-.04,0-.04-.24-.11-.48-.22-.71-.33v-.69Z"/>
      <path class="cls-7" d="M12.55,20.31c-.47-1.12-1.34-2.69-1.7-3.8-.28-.86-.39-1.43-.79-1.34-1.02.24-1.7.96-1.32,1.64.29.53.74,1.68,1.72,3.21.14.22.51.9.77,1.25.27-.02,1.24-.79,1.32-.96"/>
      <path class="cls-7" d="M8.51,12.16c.02-1.08.78-2.83,1.57-2.84.62-.01.92.64,1.06,1.08.18.57-.4,5.3-.39,5.78,0,.06-2.04.6-2.08.49-.34-.96-.18-3.42-.16-4.5"/>
      <path class="cls-5" d="M17.28,44.39c.2,0,.39-.07.6-.08.21,0,.42.08.55.25.09.13.17.35.05.48-.11.13-.26.22-.42.28-.32.12-.64.09-.97.18-.21.06-.41.15-.62.17-.19.02-.37-.04-.5-.18-.12-.12-.14-.28-.13-.45,0-.29.2-.43.45-.54.51-.24.64-.09.99-.1"/>
      <path class="cls-3" d="M12.77,33.32c.06-.16.17-.32.33-.38.16-.05.35-.05.5.03.7.36.7,1.28,1.1,2.78.1.36.41,1.26.12,1.58-.13.14-.42.27-.62.25-.81-.09-1.43-2.86-1.47-3.67,0-.2-.03-.39.05-.58"/>
      <path class="cls-3" d="M14.49,30.72c.61.44,0,1.32-.34,2.66-.08.32-.22,1.17-.59,1.25-.17.04-.47,0-.61-.13-.54-.52.05-2.48.23-3.27.07-.29.57-1.03,1.32-.5"/>
      <path class="cls-5" d="M13.96,42.3c.55-.34.94-.85,1.46-.47.18.14.17.37.09.55-.27.6-.86.89-1.24,1.18-.59.45-1.22-.15-.73-.86.13-.19.23-.27.43-.4"/>
      <path class="cls-3" d="M13.8,38.72c-.09.1-.21.39-.36,2.12-.02.25-.12,1.76.28,2.1.09.08.22.09.3.09.23.01.36-.29.39-.5.13-.77.35-1.57.41-2.19.04-.44-.93-1.73-1.03-1.62"/>
      <path class="cls-3" d="M17.51,40.28c.18,1.3-.42,4.28-.76,4.64-.24.25-.77.1-.73-.15.1-.6-.23-1.72-.2-2.51.04-1.03.24-1.73.25-1.75.08-.31,1.42-.39,1.44-.22"/>
      <path class="cls-5" d="M13.73,34.49c-.06-.55-.17-1.1-.25-1.65-.07-.54-.14-1.14,0-1.67.04-.15.1-.31.21-.42.18-.19.46-.24.71-.2.25.04.49.16.71.28.3.15.57.32.89.4.3.07.63.29.86.49.8.72.8,1.27.8,2.5,0,.67.02,1.33.06,1.99.05.85.14,1.24.26,2.09.13.87.26,1.84-.6,2.38-1.02.64-2.72.24-3.82-.61-.67-.51-.48-.44-.46-1.28.04-2.06.74-3.06.62-4.29"/>
      <path class="cls-3" d="M16.77,30.37c.19-.18-2.09-1.4-2.08-1,.05,1.15-.12,1.15-.13,1.57,0,.39.28.78,1.42.67.8-.08.12-.6.78-1.23"/>
      <path class="cls-3" d="M17.45,27.69c.1.14.18.3.19.48.03.4-.16.8-.1,1.2.06.39-.17,1.24-.94,1.41-.39.08-1.13-.1-1.36-.23-.31-.18-.5-.51-.67-.82-1.39-2.6,1.91-3.4,2.88-2.03"/>
      <path class="cls-8" d="M14.46,27.12c.29-.61,2.48-.83,3.08.63.05.11.06.24.09.35.03.1,0,.19-.07.26-.08.09-.11.15-.15.27-.07.26-.09.54-.07.82.01.14.02.31-.1.37-.08.04-.18.02-.27.01-.15,0-.3.08-.41.19-.13.14-.17.34-.31.47-.14.13-.31.21-.5.23-.22.03-.41-.03-.62-.05-.12-.01-.24-.03-.36-.08-.26-.1-.43-.34-.58-.56-.33-.47-.36-.6-.41-.99-.25-1.79.55-1.66.68-1.93"/>
      <path class="cls-3" d="M16.86,29.53c-.3-.06-.43.3-.26.61.05.09.14.18.21.26.1.11.33.03.38-.25.02-.09-.02-.14-.04-.23-.02-.06-.03-.12-.05-.18-.03-.12-.11-.19-.24-.21"/>
      <path class="cls-3" d="M16.25,32.38c.06-.16.17-.32.33-.38.16-.05.35-.05.5.03.7.36,1,2.5,1.09,3.29.02.19-.28.72-.64.76-.34.04-.74-.41-.77-.5-.03-.08-.53-2.07-.56-2.62-.01-.2-.03-.39.05-.58"/>
      <path class="cls-3" d="M17.81,34.96c.37.04.4.68,1.32,1.88.17.22.33.48.59.59.11.04.23.06.32.13.36.26.56.65.58.76.09.38.15.42.1.53-.13.27-.25.02-.32.04-.08.01-.05.08-.21.21-.13.11-.14-.03-.2-.02-.05,0-.05.07-.11.06-.02,0-.03-.02-.06-.03-.06,0-.04.05-.19.02-.15-.03.05-.35-.18-.58-.11-.12-.22-.37-.45-.52-1.57-1.04-2.23-2.43-2.23-2.43,0,0,.59.21.73.11.16-.11.12-.76.31-.74"/>
      <path class="cls-2" d="M16.76,31.55s-.38-.2-.8.13c-.41.33-.38,1.73-.38,1.73l.6.04s-.33-1.73.97-1.54l-.38-.37Z"/>
      <path class="cls-2" d="M14.03,32.72l2.01.31c.13.02.22.13.23.26l.03,1.29c.03,1.28-1.52,1.94-2.42,1.04-.01-.01-.03-.03-.04-.04,0,0-.52-.46-.11-2.64.03-.14.16-.24.3-.22"/>
      <path class="cls-9" d="M13.32,32.78c-.02-.22.03-.45.09-.67.09-.32.22-.64.25-.98.04-.43-.08-.85-.18-1.26-.1-.42-.18-.85-.07-1.27.1-.36.38-.69.76-.77.24-.05.45-.07.61.14.25.33.3.96.19,1.35-.08.27-.2.53-.28.81-.04.16-.06.33-.04.49.02.14.07.26.08.4,0,.33-.17.6-.32.88-.17.3-.19.61-.14.95.05.33.16.67.14,1s-.19.7-.52.8c.16-.3.07-.67-.11-.94-.13-.2-.3-.38-.39-.6-.04-.1-.07-.21-.07-.33"/>
      <path class="cls-2" d="M16.13,34.53s.28.47.51.62l.13.34s-.57-.07-.84-.31l.2-.65Z"/>
    </g>
  </g>
</svg>