<?xml version="1.0" encoding="UTF-8"?>
<svg id="Calque_2" xmlns="http://www.w3.org/2000/svg" viewBox="0 0 24.73 46.03">
  <defs>
    <style>
      .cls-1 {
        fill: #4bb0c1;
      }

      .cls-2 {
        fill: #b9bda8;
      }

      .cls-3 {
        fill: #db3236;
      }

      .cls-4 {
        fill: #f4c900;
      }

      .cls-5 {
        fill: #e1e2e9;
      }

      .cls-6 {
        fill: #5e6265;
      }

      .cls-7 {
        fill: #496164;
      }

      .cls-8 {
        fill: #d9e4f5;
      }

      .cls-9 {
        fill: #e6e8e1;
      }

      .cls-10 {
        fill: #7d7978;
      }

      .cls-11 {
        fill: #7e4b41;
      }

      .cls-12 {
        fill: #506165;
      }

      .cls-13 {
        fill: #404249;
      }

      .cls-14 {
        fill: #f7f7f8;
      }

      .cls-15 {
        fill: #723c32;
      }

      .cls-16 {
        fill: #484b4f;
      }

      .cls-17 {
        fill: #1e6975;
      }

      .cls-18 {
        fill: #7ac3d0;
      }

      .cls-19 {
        fill: #708082;
      }
    </style>
  </defs>
  <g id="_Éléments_Mise_en_page" data-name="Éléments_Mise_en_page">
    <g>
      <path class="cls-4" d="M7.27,10.01s-1.47,5.55-1.67,5.82c-.2.28-3.73,2.21-3.73,2.21,0,0,.62.54.82.58.2.04,3.16-.81,3.71-.97.56-.16,2.19-3.43,2.19-3.43l-1.33-4.22Z"/>
      <polygon class="cls-17" points="21.45 30.98 20.08 31.47 18.22 32.54 18.22 31.28 19.77 30.58 21.45 30.03 21.45 30.98"/>
      <path class="cls-16" d="M19.38,32.75c0,1.41.99,1.97,2.22,1.26,1.22-.71,2.22-2.42,2.22-3.82s-.99-1.97-2.22-1.26c-1.22.71-2.22,2.42-2.22,3.82"/>
      <path class="cls-16" d="M20.3,33.28c0,1.41.99,1.97,2.22,1.26,1.22-.71,2.22-2.42,2.22-3.82s-.99-1.97-2.22-1.26c-1.22.71-2.22,2.42-2.22,3.82"/>
      <path class="cls-10" d="M24.63,30c-.17-.44-.24-.62-.43-.82-.06-.07-.13-.13-.21-.19-.01,0-.02-.02-.03-.03-.4-.32-1.17-.35-1.44-.34,0,0,0,0,0,0-.28.02-.59.11-.91.3-1.22.71-2.22,2.42-2.22,3.82,0,.31.05.57.14.8,0,0,0,0,0,0,.16.44.63,1.06,1.18,1.25,0,0,0,0,0,0,.03,0,.05.02.08.03.03,0,.06.01.09.02,0,0,.01,0,.02,0,.55.11,1.11-.08,1.2-.11.01,0,.07-.09.17-.22,1.29-.77,2.33-2.58,2.33-4.07,0-.03,0-.05,0-.08.05-.17.07-.3.04-.37"/>
      <path class="cls-10" d="M20.3,33.28c0,1.41.99,1.97,2.22,1.26,1.22-.71,2.22-2.42,2.22-3.82s-.99-1.97-2.22-1.26c-1.22.71-2.22,2.42-2.22,3.82"/>
      <path class="cls-16" d="M21.19,32.76c0,.84.59,1.18,1.32.75.73-.42,1.32-1.44,1.32-2.28s-.59-1.18-1.32-.75c-.73.42-1.32,1.44-1.32,2.28"/>
      <polygon class="cls-17" points="22.79 31.94 21.98 32.82 20.12 33.89 20.12 32.64 21.67 31.94 22.79 30.99 22.79 31.94"/>
      <polygon class="cls-17" points="3.3 40.55 6.36 42.32 21.29 32.64 18.23 30.87 3.3 39.49 3.3 40.55"/>
      <polygon class="cls-17" points="2.8 38.92 2.23 43.2 2.85 42.92 3.46 38.61 2.8 38.92"/>
      <polygon class="cls-18" points="3.01 39.03 2.44 43.31 3.06 43.04 3.67 38.73 3.01 39.03"/>
      <polygon class="cls-1" points="3.3 39.49 6.36 41.26 21.29 32.64 18.23 30.87 3.3 39.49"/>
      <polygon class="cls-17" points="6.36 42.32 21.29 33.69 21.29 32.64 6.36 41.26 6.36 42.32"/>
      <path class="cls-16" d="M0,43.89c0,1.41.99,1.97,2.22,1.26,1.22-.71,2.22-2.42,2.22-3.82s-.99-1.97-2.22-1.26C.99,40.78,0,42.49,0,43.89"/>
      <path class="cls-16" d="M.92,44.42c0,1.41.99,1.97,2.22,1.26,1.22-.71,2.22-2.42,2.22-3.82s-.99-1.97-2.22-1.26c-1.22.71-2.22,2.42-2.22,3.82"/>
      <path class="cls-10" d="M5.25,41.15c-.17-.44-.24-.62-.43-.82-.06-.07-.13-.13-.21-.19-.01,0-.02-.02-.03-.03-.4-.32-1.17-.35-1.44-.34,0,0,0,0,0,0-.28.02-.59.11-.91.3-1.22.71-2.22,2.42-2.22,3.82,0,.31.05.57.14.8,0,0,0,0,0,0,.16.44.63,1.06,1.18,1.25,0,0,0,0,0,0,.03,0,.05.02.08.03.03,0,.06.01.09.02,0,0,.01,0,.02,0,.55.11,1.11-.08,1.2-.11.01,0,.07-.09.17-.22,1.29-.78,2.33-2.58,2.33-4.07,0-.03,0-.05,0-.08.05-.17.07-.3.04-.37"/>
      <path class="cls-10" d="M.92,44.42c0,1.41.99,1.97,2.22,1.26,1.22-.71,2.22-2.42,2.22-3.82s-.99-1.97-2.22-1.26c-1.22.71-2.22,2.42-2.22,3.82"/>
      <path class="cls-16" d="M1.81,43.91c0,.84.59,1.18,1.32.75.73-.42,1.32-1.44,1.32-2.28s-.59-1.18-1.32-.75c-.73.42-1.32,1.44-1.32,2.28"/>
      <polygon class="cls-17" points="3.56 39.36 3 43.64 3.21 43.76 4.23 39.06 3.56 39.36"/>
      <path class="cls-17" d="M4.17,25.31l1.56-.18-1.34,14.12c-.03.59-1.54.51-1.54,0l1.32-13.95Z"/>
      <path class="cls-9" d="M5.76,25.31c.02-.48-.97-.46-1.34-.29-.39.18-.33.48-.33.48,0,0,.04.35.75.35.78,0,.91-.26.93-.54"/>
      <polygon class="cls-9" points="4.09 25.45 4.11 25.13 5.78 24.97 5.76 25.31 5.27 25.62 4.09 25.45"/>
      <path class="cls-2" d="M5.78,24.98c.02-.48-.97-.46-1.34-.29-.39.18-.33.48-.33.48,0,0,.04.35.75.35.78,0,.91-.26.93-.54"/>
      <path class="cls-10" d="M4.63,25.09s.02.21.44.12c.2-.04.21-.19.21-.19l.45-4.42-.67.29-.42,4.2Z"/>
      <path class="cls-15" d="M14.39,4.42c-.11.86-.26,1.94.42,2.63.35.36.87.54,1.36.47-.34.68-.72,1.42-1.4,1.75-.64.32-1.4.21-2.1.07-.63-.12-1.27-.27-1.8-.63-.8-.54-1.25-1.52-1.31-2.49-.12-1.97.91-3.42,2.28-4.69.19-.18.38-.36.62-.46.73-.3,1.58.27,1.86,1.01.29.73.17,1.55.07,2.33"/>
      <path class="cls-19" d="M8.27,8.18c-.19.03-.69.48-.84.68-.15.2-.63,1.28-.68,1.49-.05.21,1.04,1.05,1.19,1.42.14.36,1.01-2.78,1.01-2.78l-.67-.81Z"/>
      <path class="cls-7" d="M15.7,17.52c-.17.49-.93,1.29-2.17,1.84-1.24.55-2.67.42-3.38.24-.71-.18-1.38-1.17-1.47-1.31-.09-.14-.05-.77-.05-.77,0,0-.68-2.53-.98-2.87-.31-.34-.5-1-.48-1.31s.38-4.53.77-4.88c.38-.35.47-.38.99-.51.52-.13,2.58-.5,2.89-.48.31.01,1.3-.04,2.08.38.78.42,2.26,2,2.28,2.26.01.26-1.01,3.17-1.12,4.15-.1.98.65,3.27.65,3.27"/>
      <path class="cls-4" d="M13.66,8.29c-.14.28-.48.8-1.02,1.41-.54.61-1.05.77-1.84.57-.79-.2-1-.65-.88-1.35.05-.29.05-.54.01-.77-.06-.33-.23-.61-.52-.85l.15-.62.46-1.94s2.15-1.43,2.41-1.3c.26.13.1,1.58.03,2.37-.07.79.02.92.16,1.26.14.34.72.54.93.66.21.13.25.26.11.54"/>
      <path class="cls-4" d="M11.56,7.2c-.19.21-.44.37-.72.44-.19.04-.42.07-.49.24-.06.15.03.31.12.44.15.22.3.44.38.69.09.25.1.53-.02.77-.07-.2-.16-.39-.27-.57-.07-.12-.16-.23-.21-.36-.08-.17-.1-.37-.22-.52-.05-.07-.12-.12-.2-.17-.06-.33-.23-.61-.52-.86l.15-.62c.06-.05.12-.09.19-.13.5-.28,1.11-.31,1.68-.3.61.01.42.62.14.95"/>
      <path class="cls-12" d="M9.24,13.8c.46-.72.76-2.04.21-2.8-.23-.32-.49-.65-.76-.94-.17-.18-.39-.35-.63-.32-.17.02-.31.15-.39.31-.08.15-.11.33-.13.5-.08.62-.07,1.25-.06,1.88,0,.33,0,.67.1.99.09.32.28.63.58.79.12.06.25.1.38.1.3-.02.54-.26.7-.51"/>
      <path class="cls-12" d="M11.04,11.26s.04,0,.02-.02c-.02-.01-.04,0-.06,0-.41.24-.92.34-1.27.67-.33.32-.45.81-.55,1.26-.02.11-.05.23-.03.35.02.11.08.22.15.31.27.37.7.61,1.14.73.44.12.91.13,1.37.12.18,0,.36-.01.53-.06.25-.07.46-.22.65-.39.61-.53,1.07-1.24,1.3-2.02.14-.46.19-.95.09-1.42-.04-.16-.1-.33-.21-.45-.3-.3-.95-.26-1.31-.09-.62.29-1.22.66-1.82.99"/>
      <path class="cls-4" d="M12.27,4.32c-.18.91-.27,2.25-.49,2.47-.22.22-2.02,1.04-2.37,1.06-.35.02-.52-.02-.63-.17-.11-.15-.65-1.47-.7-2.14-.04-.67-.05-1.28.05-1.81.1-.54.15-.82.37-1.09.22-.27,1.28-.82,1.95-.52.67.29,1.81,2.21,1.81,2.21"/>
      <path class="cls-11" d="M11.8,5.42s.03-.43-.07-.54c-.1-.1-.58-.82-.66-1.16-.08-.34-.45-.71-.58-.76-.13-.05-.61-.18-.73-.32-.34.09-.8.16-.91.15-.11,0-.4.03-.4.03l-.26.62s0-.37.04-.57c.04-.2.13-.73,1.22-1.27,1.09-.54,1.71-.59,2.39-.22.91.17,1.36,1.03,1.39,1.62.03.59-.01,1.67-.27,2.13-.26.47-.35.48-.35.48,0,0,.3-1.14-.04-1.11-.34.03-.47.57-.47.57l-.14.03-.15.32Z"/>
      <path class="cls-16" d="M12.7,3.67c0,.34-.22,1.71-.42,2.04-.2.32-.6.65-.6.65,0,0-.29.69-.11.58.18-.11.54-.5.83-.94.29-.44.46-1.32.54-1.93.08-.61.04-.83.04-.83l-.29.42Z"/>
      <path class="cls-16" d="M11.36,4.01c.18.39-.08,2.89-.32,3.23.23-.13.5-.21.55-.27.05-.06.12-.74.24-1.74.02-1.49-.09-1.84-.09-1.84l-.37.62Z"/>
      <path class="cls-4" d="M12.31,4.54c.07-.06.16-.1.24-.07.04.01.08.05.11.08.08.1.11.24.11.37,0,.13-.04.26-.09.38-.05.12-.11.24-.2.33-.09.09-.21.16-.34.17-.08,0-.16-.03-.19-.1,0-.02-.01-.05,0-.07,0-.12.09-.23.13-.35.05-.13.03-.25.03-.38,0-.14.09-.28.2-.37"/>
      <path class="cls-19" d="M15.25,9.97c-.67.23-.97.34-1.38,1.32-.19.46-.62,2.55-.62,2.55,0,0,1.89-.17,2.19-.17.29,0,.86.23.86.23,0,0,.21-2.68.15-3.28-.06-.6-.49-.9-1.19-.66"/>
      <polygon class="cls-17" points="3.77 39.48 3.21 43.76 3.82 43.48 4.44 39.17 3.77 39.48"/>
      <path class="cls-3" d="M12.84,3.82c-1.33,1.02-2.88,1.16-4.08.78-1.2-.38-1.58-1.14-.25-2.16,1.33-1.02,3.86-1.91,5.06-1.53,1.2.38.6,1.89-.73,2.91"/>
      <path class="cls-3" d="M12.78,3.41c-1.33,1.02-2.88,1.16-4.08.78-1.2-.38-1.58-1.14-.25-2.16,1.33-1.02,3.86-1.91,5.06-1.53,1.2.38.6,1.89-.73,2.91"/>
      <path class="cls-3" d="M12.57,3.35c-1.26.97-2.73,1.1-3.86.74-1.13-.36-1.5-1.08-.24-2.05,1.26-.97,3.66-1.81,4.79-1.45,1.13.36.57,1.8-.69,2.76"/>
      <path class="cls-3" d="M12.98,2.99c-1,1.1-5.29.23-5.29.23,0,0-.06-1.52.9-2.27C10.45-.49,12.21.05,13.28.39c1.07.34,1.02,1.15-.29,2.6"/>
      <path class="cls-16" d="M12.9,1.53c-.33-.11-1,.16-1.4,1.23-.39,1.07.85-.08,1.23-.4s.39-.75.17-.83"/>
      <path class="cls-16" d="M11.75.32c-.83-.29-3.1.95-2.55,1.19.62.13.71.02,1.13-.21.52-.29.93-.67,1.53-.74.59-.07-.11-.24-.11-.24"/>
      <path class="cls-13" d="M16.95,39.11c-.12.38-.17.49-.1.62.07.14.54.29,1.34.06.8-.23,1.38-.67,1.6-1.01.23-.33.57-1.25.57-1.25l.25-.34s.22-.55.08-.84c-.14-.29-.35-.64-.35-.64l-3.39,3.39Z"/>
      <path class="cls-5" d="M18.84,35.3s-.48.81-.48.81c0,0-.69,1.33-.93,1.72-.24.39-.56,1-.64,1.32-.08.33.15.48.15.48,0,0,.74.28,1.68-.13.95-.41,1.18-.9,1.33-1.31.15-.41.32-.85.45-1.02.12-.17.24-.51.2-.8-.03-.29-.14-.97-.45-1.18-.31-.21-1.31.1-1.31.1"/>
      <path class="cls-4" d="M18.57,35.01s.06.92-.06,1.2c-.12.28-.48.91-.47,1,.02.09.56.46,1.11.24.54-.22.9-.35,1.12-.85.22-.5.25-.72.13-.88-.12-.16-.13-1.67-.13-1.67l-1.69.96Z"/>
      <path class="cls-8" d="M10.4,19.57c.15,1.04.84,3.11,1.45,3.93.61.82-.1-.54.09-.38.19.16,2.84,3.91,3.37,4.87.54.95,1.4,2.74,1.73,3.37.33.63.82,1.7.92,2.01.1.31.52,1.88.59,2.07.07.18.92.2,1.48.02.56-.18.83-.53.81-.78-.02-.25-.44-3.3-.84-4.41-.51-1.41-.87-2.4-.9-2.57-.11-.5-.45-3.76-.56-4.74-.1-.98-1.15-3.12-1.65-3.98-.5-.86-2.21-1.94-2.33-2.08s-4.17,2.69-4.17,2.69"/>
      <path class="cls-14" d="M20.39,35.33l-.23.03s-.15-1.04-.28-2c-.11-.79-.26-1.75-.47-2.06-.23-.33-.54-1.17-.69-1.75-.05-.19-.15-.79-.3-1.62-.31-1.77-.78-4.44-1.18-5.77-.58-1.91-1.55-2.83-1.56-2.84l.16-.17s1.02.97,1.62,2.94c.41,1.35.88,4.03,1.19,5.8.14.79.25,1.42.3,1.6.15.57.46,1.38.66,1.68.19.28.34.91.51,2.16.13.96.28,2,.28,2"/>
      <path class="cls-14" d="M14.95,21.77c-1.06.2-1.68-.51-1.71-.54l.17-.15s.57.64,1.5.46c.01,0,.02,0,.03,0,.98-.2,1.68-1,1.69-1.01l.17.15s-.76.87-1.82,1.08c-.01,0-.03,0-.04,0"/>
      <path class="cls-13" d="M13.06,35.62s.22.13.22.26.06.33,0,.44c-.06.12-.72.57-.84.6-.12.03-.34,0-.34,0,0,0-.45.43-.61.63-.16.2-.33.46-.89.85-.57.39-.84.58-1.37.45-.53-.13-.62-.29-.77-.41-.15-.12.03-.64.14-.79.1-.14,4.47-2.04,4.47-2.04"/>
      <path class="cls-5" d="M10.69,35.56s-.47.35-.95.68c-.48.33-1.17,1.2-1.24,1.45-.08.26-.04.47.02.61.06.14.71.69,1.47.34.77-.34,1.2-.91,1.39-1.18.19-.27.55-.64.83-.82.29-.18.98-.59,1.02-.83.04-.24-.14-1.02-.39-1.3-.24-.27-2.15,1.04-2.15,1.04"/>
      <path class="cls-4" d="M11.2,34.27c-.11.37-.18.58-.31.77-.13.19-.63,1.05-.62,1.13.01.08.83.37,1.7,0,.87-.37,1.04-.68.96-1.08-.06-.28-.27-.99-.27-.99l-.03-.32-1.43.49Z"/>
      <path class="cls-8" d="M8.69,18.29s-.03,2.33.02,2.49c.05.15-1.22,5.21-1.53,6.18-.31.97-.87,1.89.36,3.42,1.22,1.53,3.33,3.18,3.48,4.2l1.88-.64s.02-3.94-1.92-5.58c0,0,1.62-3.57,2.18-4.59.56-1.02.38-4.4.38-4.4,0,0-4-.45-4.85-1.07"/>
      <path class="cls-4" d="M7.99,20.97c.92.32,4.31-2.68,4.31-2.68l1.35-4.57,2.34-.07s-1.22,5.12-1.5,5.6c-.28.48-5.31,2.73-5.31,2.73"/>
      <polygon class="cls-14" points="12.98 24.13 11.39 21.67 11.15 21.77 13.22 24.87 12.98 24.13"/>
      <path class="cls-16" d="M1.15,18.68c0,.26.18.36.4.23.22-.13.4-.44.4-.7s-.18-.36-.4-.23c-.22.13-.4.44-.4.69"/>
      <polygon class="cls-16" points="1.32 18.94 3.46 20.17 4.01 19.26 1.88 18.03 1.32 18.94"/>
      <path class="cls-6" d="M3.32,19.89c0,.26.18.36.4.23.22-.13.4-.44.4-.7s-.18-.36-.4-.23c-.22.13-.4.44-.4.69"/>
      <path class="cls-16" d="M3.47,19.88c0,.2.14.28.31.18.17-.1.32-.34.32-.54s-.14-.28-.32-.18c-.17.1-.31.34-.31.54"/>
      <polygon class="cls-16" points="3.56 20.08 4.88 20.84 5.32 20.07 4.01 19.31 3.56 20.08"/>
      <path class="cls-6" d="M4.78,20.64c0,.2.14.28.31.18.17-.1.32-.34.32-.54s-.14-.28-.32-.18c-.17.1-.31.34-.31.54"/>
      <path class="cls-16" d="M4.59,20.64c0,.26.18.36.4.23.22-.13.4-.44.4-.7s-.18-.36-.4-.23c-.22.13-.4.44-.4.69"/>
      <polygon class="cls-16" points="4.7 20.89 5.63 21.44 6.2 20.45 5.28 19.91 4.7 20.89"/>
      <path class="cls-6" d="M5.51,21.18c0,.26.18.36.4.23.22-.13.4-.44.4-.7s-.18-.36-.4-.23c-.22.13-.4.44-.4.69"/>
      <path class="cls-16" d="M5.71,21.19c0,.2.14.28.31.18.17-.1.32-.34.32-.54s-.14-.28-.32-.18c-.17.1-.31.34-.31.54"/>
      <rect class="cls-16" x="6.3" y="20.59" width=".89" height="1.65" transform="translate(-15.18 16.56) rotate(-60.04)"/>
      <path class="cls-6" d="M7.14,22.01c0,.2.14.28.31.18.17-.1.32-.34.32-.54s-.14-.28-.32-.18c-.17.1-.31.34-.31.54"/>
      <path class="cls-16" d="M6.82,21.94c0,.26.18.36.4.23.22-.13.4-.44.4-.7s-.18-.36-.4-.23c-.22.13-.4.44-.4.69"/>
      <polygon class="cls-16" points="6.94 22.2 9.08 23.43 9.64 22.44 7.51 21.21 6.94 22.2"/>
      <path class="cls-6" d="M8.96,23.17c0,.26.18.36.4.23.22-.13.4-.44.4-.7s-.18-.36-.4-.23c-.22.13-.4.44-.4.69"/>
      <path class="cls-4" d="M8.66,20.88s-.97,0-1.14.13c-.08.06-.73.67-.61,1.25.12.53.49.41.49.41l.15-.03s.05.14.21.24c.16.11.24-.05.24-.05,0,0,.1.18.19.1.26-.23.03-.7.33-.77.46-.11.51.2.86-.41"/>
      <path class="cls-4" d="M2.84,18.46s-.87.82-.67.95c.2.12.56.34.56.34,0,0-.84.12-.93,0,0,0-.43-.05-.41-.25,0,0-.39.02-.36-.3,0,0,.16-1.25,1.09-1.22l.72.49Z"/>
      <path class="cls-4" d="M2.21,18.65s.94.14,1.13.22c.15.07-.05-.55-.18-.56-.13-.02-.95.34-.95.34"/>
      <path class="cls-14" d="M10.47,23.26s-1.44,5.27-1.44,5.48,2.45,3.62,2.69,5.24l.03.27.19-.02s-.22-1.22-.63-1.94c-.41-.72-2.09-3.45-2.09-3.51s1.3-5.2,1.3-5.2l-.06-.3Z"/>
    </g>
  </g>
</svg>