<?xml version="1.0" encoding="UTF-8"?>
<svg id="uuid-3d711fca-0028-47b4-b3b9-ef4f47669c6c" data-name="Calque_2" xmlns="http://www.w3.org/2000/svg" viewBox="0 0 36.1 75.72">
  <defs>
    <style>
      .uuid-20189186-ce57-45e0-bd92-0316e5c0467c {
        fill: #fff;
      }

      .uuid-c0e1801a-7cc8-45d2-aadd-49d6c80b950a {
        fill: #ebeef8;
      }

      .uuid-5f8e2cd2-854f-4256-b707-8a1f1fde669f {
        fill: #f3aac6;
      }

      .uuid-1c0b4f84-dd81-440a-8052-8c29b6e6e85e {
        fill: #302879;
      }

      .uuid-96a69d4a-a161-4f86-ad9e-d5a3ab13ce70 {
        fill: #356893;
      }

      .uuid-d36ecfe6-d9ec-48f9-810e-9dc1fcc1e0da {
        fill: #e53b11;
      }
    </style>
  </defs>
  <g id="uuid-45d4aeff-ff0e-452a-afaf-7b1fa25846e4" data-name="Les_personnages">
    <g id="uuid-d879fce3-c3aa-4b9f-9a79-60ace27d0af7" data-name="CharaSkateSansCasque_x5F_BG">
      <path class="uuid-d36ecfe6-d9ec-48f9-810e-9dc1fcc1e0da" d="M28.98,56.88c-.55-1.2-2.19-1.93-3.46-1.7-1.38.25-1.63,1.39-2.73,2.1-1.25.81-2.89.93-4.22,1.67-1.79,1.01-3.45,2.24-5.17,3.35-2.3,1.5-4.48,3.52-6.92,4.59-2.31,1.02-4.47,3.6-2.37,5.86,2.12,2.28,5.37,1.26,7.64-.17.62-.39,1.18-.85,1.73-1.33.28-.24.56-.47.86-.69.12-.09.62-.36.42-.35.65-.03,1.04-.43,1.16-.91.61-.41,1.23-.8,1.82-1.23,1.21-.9,2.46-1.61,3.71-2.43,1.25-.81,2.25-1.89,3.52-2.64,1.28-.75,2.4-1.7,3.31-2.88.9-1.17,1.12-2.34.7-3.27"/>
      <path class="uuid-1c0b4f84-dd81-440a-8052-8c29b6e6e85e" d="M10.58,73.74c-.26,0-.52.11-.7.29-.17.17-.3.45-.29.7.02.54.44.99.99.99.25,0,.52-.11.7-.29.17-.17.3-.45.29-.7-.02-.54-.44-.99-.99-.99"/>
      <path class="uuid-1c0b4f84-dd81-440a-8052-8c29b6e6e85e" d="M25.22,63.16c-.26,0-.52.11-.7.29-.17.17-.3.45-.29.7.02.54.44.99.99.99.25,0,.52-.11.7-.29.17-.17.3-.45.29-.7-.02-.54-.44-.99-.99-.99"/>
      <path class="uuid-20189186-ce57-45e0-bd92-0316e5c0467c" d="M15.37,59.95c-.01.23-.02.42-.03.57,0,.16-.03,1.39-.21,1.83-.32.81-1.38,1.47-1.84,2.24-.31.53-.38,1,.16,1.23,1.06-.62,2.78-1.64,4.18-2.52.09-.14.15-.27.19-.39.19-.57.25-1.24.28-1.93.03-.13.06-.26.1-.39.09-.33-.21-.63-.54-.55-.78.19-1.56.2-2.29-.09"/>
      <path class="uuid-20189186-ce57-45e0-bd92-0316e5c0467c" d="M33.26,47.89c-.43-.72-1.22-1.26-1.95-1.84-.27.57-.61,1.09-.92,1.64-.02.07-.04.13-.06.2-.04.19-.11.37-.19.54.52.12,1.02.3,1.4.77.33.41.19,1.32.25,1.85.07.56.15,1.37.84.9.6-.41.74-1.69.88-2.34.15-.7.02-1.25-.26-1.72"/>
      <path class="uuid-96a69d4a-a161-4f86-ad9e-d5a3ab13ce70" d="M31.34,45.92c-.58-.48-2.56-2.11-3.78-3.03-1.74-1.32-2.99-2.21-4.35-2.53-.54-.12-.2-4.4.71-9.14l.04-.23-3.32-1.74v-1.77c-1.48,1.03-5.56-5.76-5.99-3.84-.11.48,1.23,9.55,1.23,10.04,0,1.32,0,2.64.15,3.92.19,1.55.75,2.84,1.56,3.95.08-.01.16,0,.23.08.23.24.48.47.72.69.1-.11.28-.15.42-.02,1.75,1.6,4,2.94,6.13,3.97,1.02.5,2.18.92,3.18,1.54.55.21,1.08.41,1.58.62.07.03.14.04.21.04.09,0,.18-.02.26-.07l.19-.1c.51-.27.87-.8.98-1.41l.06-.34c.04-.25-.04-.49-.23-.64"/>
      <path class="uuid-96a69d4a-a161-4f86-ad9e-d5a3ab13ce70" d="M28.82,31.36l-4.9.44c-1.87.36-3.77,1.12-4.1,1.26l-.12.05-.04.12c-.16.46-4.66,10.28-4.72,12.65-.05,2.11.41,11.93.32,13.85-.01.31.17.59.45.7.31.13.64.19.97.19s.63-.06.93-.17l.1-.04c.24-.09.41-.3.45-.56.02-.1.04-.22.07-.37.28-.56,1.36-3.26,1.55-4.71.67-5.21.12-7.98.12-7.98l6.79-8.71c1.42-2.22,2.12-4,2.13-6.72"/>
      <path class="uuid-5f8e2cd2-854f-4256-b707-8a1f1fde669f" d="M32.01,16.88c-.05-.09-.09-.18-.14-.27-.6-1.13-1.32-2.29-2.14-3.36-.39-.17-.76-.36-1.1-.58-1.65-1.05-3.3-2.23-5.01-3.23-.1-.02-.2-.04-.3-.06-.03,0-.06-.01-.09-.02l.34.05s-.06-.03-.1-.05c-1.33-.34-2.55-.92-3.61-1.75-.47.26-.83.71-1.01,1.34-.23.84-.03,1.67.36,2.43.43.82,1.1,1.57,1.69,2.18,1.23,1.27,2.64,2.33,3.97,3.48,1.16,1.01,2.12,2.1,3.03,3.24.12.15.25.31.37.46.18.21.35.43.52.65.42.54.85,1.1,1.29,1.65.97,1.19,2.96,2.22,3.79.23.74-1.81-.85-4.31-1.62-5.89-.08-.17-.17-.33-.25-.5"/>
      <path class="uuid-5f8e2cd2-854f-4256-b707-8a1f1fde669f" d="M1.66,28.65c.33-.58.94-1.19,1.21-1.4,1.08-.85,2.05-1.89,3.03-2.85.73-.71,2.12-2.63,3.09-2.74.51-1.45-.49-4.97.02-6.42.65-1.82,3.16-.94,4.25,1.17.67,1.3.48,3.08.23,4.47-.54,3.01-2.1,4.81-4.79,6.26-1.74.94-4.26,2.64-6.31,2.7-1.13.04-1.1-.56-.73-1.2"/>
      <path class="uuid-5f8e2cd2-854f-4256-b707-8a1f1fde669f" d="M0,30.5c-.03-.6.47-1.15.88-1.53.19-.17.41-.37.63-.5.35-.21.97-.29,1.23.13.53.85-.2,1.27-.62,1.76-.01.01-.04.05-.05.06-.05.07-.09.13-.13.2,0,0,0,0,0,.01,0,.01,0,.03-.02.05-.05.12-.1.24-.17.36-.22.36-.68.53-1.08.41-.42-.13-.65-.52-.67-.94"/>
      <path class="uuid-5f8e2cd2-854f-4256-b707-8a1f1fde669f" d="M33.9,31.95c-.74-3.2-2.75-6.61-3.49-9.75-.45-1.91,1.09-3.82,2.9-2.06,2.39,2.32,2.51,8.24,2.59,11.2.04,1.35-1.68,2-2,.61"/>
      <path class="uuid-5f8e2cd2-854f-4256-b707-8a1f1fde669f" d="M33.9,31.95c-.11-.89.91-1.31,1.56-.76.6.51.75,2.21.56,2.84-.22.74-.97,1.59-1.6.44-.44-.8-.41-1.67-.52-2.52"/>
      <path class="uuid-c0e1801a-7cc8-45d2-aadd-49d6c80b950a" d="M31.93,16.81c-.79-2.35-2.93-4.84-4.85-6.33-1.05-.81-2.62-2.13-4.17-2.57-4.23-1.19-9.39-2.12-12.3,2.29-1.46,2.21-1.73,4.18-1.73,6.77,0,0-.03,1.3-.03,1.3,0,.01,0,.02,0,.04-.04.3.02.61.19.86.02.03.03.05.03.05.28.34,4.1,2.42,3.99,1.33l.19,1.82c.1.74.31,1.47.31,2.21.19,1.22.46,2.43.75,3.61.08.33.19.64.27.94-.08-.3-.16-.62-.24-.94-.3-1.18-.53-2.39-.73-3.61l.97,4.55c.13.52.49,2.24.8,2.65.13.9.12.53,1.3,1.21,1.91,1.1,4.88,1.34,7.03,1.02,1.63-.24,4.1-1.26,5.11-2.65.67-.91.12-2.03.1-3.04-.02-1.06.13-2.19.11-3.28-.02-1.18-.1-2.41-.24-3.64-.03-.26-.06-.52-.1-.78.55-.23,1.09-.5,1.6-.81.71-.43,1.92-2.16,1.64-2.99"/>
      <path class="uuid-5f8e2cd2-854f-4256-b707-8a1f1fde669f" d="M13.68,2.88c.37-.4.75-.78,1.15-1.14.33.18.64.47,1.01.53.21.04.4.14.53.34.15.23,1.07.41,1.17.65.76,1.86,2.78,5.47.14,6.11-1.37.33-2.16-.91-2.07-2.4-.21.09-.44.09-.66.03-.25-.07-.48-.22-.67-.42-.35-.38-.54-.9-.68-1.42-.13-.48-.3-1.18-.33-1.84.14-.16.28-.31.41-.46"/>
      <path class="uuid-1c0b4f84-dd81-440a-8052-8c29b6e6e85e" d="M18.85,2.52c-.06-.5-.26-.99-.67-1.18-.24-.11-.46-.13-.66-.09.03-.35-.05-.68-.31-.91-.32-.3-.81-.41-1.27-.3-.15.04-.3.1-.44.17-1.01.52-1.52,1.61-2.55,2.08-.49.23-1.01.17-1.25.69-.97,2.07,3.75,1.13,4.53.81.02,0,1.4,2.63,2.38,1.94.6-.42.31-2.61.23-3.22"/>
      <path class="uuid-5f8e2cd2-854f-4256-b707-8a1f1fde669f" d="M16.93,4.55s.08-.08.12-.11c.83-.61,1.07.8.26,1.12-.77.3-.75-.58-.38-1.01"/>
    </g>
  </g>
</svg>