<?xml version="1.0" encoding="UTF-8"?>
<svg id="Calque_2" xmlns="http://www.w3.org/2000/svg" viewBox="0 0 32.31 55.5">
  <defs>
    <style>
      .cls-1 {
        fill: #f1c200;
      }

      .cls-2 {
        fill: #12100b;
      }

      .cls-3 {
        fill: #ce5117;
      }

      .cls-4 {
        fill: #009d4a;
      }

      .cls-5 {
        fill: #352142;
      }

      .cls-6 {
        fill: #f3aac6;
      }

      .cls-7 {
        fill: #302879;
      }

      .cls-8 {
        fill: #356893;
      }

      .cls-9 {
        fill: #ce5216;
      }
    </style>
  </defs>
  <g id="_Éléments_Mise_en_page" data-name="Éléments_Mise_en_page">
    <g>
      <path class="cls-2" d="M22.94,27.56s.7-1.02,3-.63c2.29.39,3.28,1.3,3.67,1.83.39.53.49,3.49.49,3.49l-7.15-4.69Z"/>
      <path class="cls-6" d="M21.13,27.78c-.57.48-1.21,1.05-1.79,1.67-.33-1.04-1.56-5.57-3.08-5.39-.53.06-.81.75-.68,1.26.12.46.9.77.82.48.44,1.52.79,2.87,1.45,4.33.14.3.29.58.46.82-.05.74.86,1.37,1.56.8,1.22-.99,2.35-2.64,2.71-3.87-.47-.19-1.01-.24-1.44-.11"/>
      <path class="cls-7" d="M25.19,50.83s-.08-.07-.13-.09c-.04-.01-.12-.04-.15-.04-.05,0-.1,0-.16,0-.01,0-.03,0-.05,0-.24-.02-.66.03-.81.22-.01.01-.02.03-.03.04,0,0,.22,0,.22,0-.08.03-.17.03-.26.03-.06.39.21.78.15,1.18-.04.34-.32.59-.43.89-.47,1.27,1.12,0,1.45-.26.24-.19.37-.47.32-.75l-.05-1.05-.04-.04s-.02-.11-.05-.15"/>
      <path class="cls-7" d="M23.83,50.96s.02.01.03.02c0,0,0-.01,0-.02h-.04Z"/>
      <path class="cls-7" d="M28.74,52.33s.02.01.03.02c0,0,0-.01,0-.02h-.04Z"/>
      <path class="cls-7" d="M30.15,52.34s-.02-.11-.05-.15c-.03-.04-.08-.07-.13-.09-.04-.01-.12-.04-.15-.04-.05,0-.1,0-.15,0-.01,0-.03,0-.05,0-.3-.03-.63.03-.83.26.06,0,.15,0,.22,0-.66.17-.07,1.19-.28,1.67-.14.31-.78.75-.5,1.15.6.84,2.04-1.14,2.01-1.73l-.04-1.05-.05-.04Z"/>
      <path class="cls-6" d="M30.49,38.42c-1.61.2-3.2.21-4.83.26-1.06.04-2.12.03-3.18.06-.87.03-.55.45-.49,1.01.15,1.43-.4,2.87-.24,4.31.14,1.27-.18,2.63.84,4.64l.86,1.89c.09.21.16.41.23.62.09.13.22.23.4.27.42.09,1.01-.1,1.18-.43,0-.02.02-.03.03-.05,0-.06-.37-3.39-.44-4.06-.01-.1-.02-.2-.03-.31.04-.74.38-2.29.63-3.9l.95.32c-.08.53-.07,1.98-.06,2.5.02.9.31,1.66.79,2.76h0s1.24,3.63,1.24,3.63c.08.21.16.41.23.62.09.13.21.23.4.27.42.09,1.01-.1,1.18-.43,0-.02.02-.03.03-.05,0-.06-.37-3.39-.44-4.06-.01-.1-.03-1.13-.04-1.23.07-1.29,1.07-4.11.87-6.39l.02-.16s-.07-1.54-.1-2.11"/>
      <path class="cls-7" d="M30.29,39.78c-1.41-1.39-5.8-.27-8.07-.5-.33,1.66-.53,3.67-.41,5.31.08.11-.04-.15,0,0,.27,1.06,2.52,1.2,2.9,1.06.9-.34.76-1.96,1.07-2.9.11-.02.16.11.3.14-.02,1.24-.64,2.69.54,3.28.64.32,1.7.49,2.58.14.62-.25,1.1-1.27,1.22-1.93.27-1.55.71-3.76-.13-4.59"/>
      <path class="cls-6" d="M29.7,35.77c.05,1.09.33,2.21.55,3.28.08.39,1.02,5.15,1.6,5,.84-.22.29-2.32.25-2.86-.04-.46-.06-.95-.08-1.46-.05-1.48.2-3.12-.43-4.53-.58.31-1.23.51-1.88.56"/>
      <path class="cls-4" d="M31.63,34.74c0-2.76-1.75-5.26-4.5-6.64-.44-.22-.97-.48-1.54-.71-1.61-.65-3.56-.42-5,.48-.58.37-.76,1.12-.44,1.73.23.44.23,1.06.18,1.61-.02.26.26.43.48.29.15-.1.3-.19.45-.28.24,1.42.66,2.83.52,4.31-.1,1.01-.15,2.83,0,3.66.14.81.32,1.02,1.2,1.32,1.93.66,3.43,1.99,6.3,1.27,2.44-.61.94-2.71.97-4.07.04-1.54,1.04-1.25,1.02-1.37.44.31.36-1.06.36-1.6"/>
      <path class="cls-6" d="M25.41,28.84h0c-.61,0-1.1-.49-1.1-1.1v-1.61c0-.61.49-1.1,1.1-1.1s1.1.49,1.1,1.1v1.61c0,.61-.49,1.1-1.1,1.1"/>
      <path class="cls-6" d="M24.01,24.12c-.61.48-.97,1.24-.57,1.92.42.72,1.91.47,2.57.2,1.03-.42.94-1.72.17-2.34-.6-.49-1.52-.29-2.16.22"/>
      <path class="cls-7" d="M27.6,24.13c-.15-.46-.44-.87-.85-1.08-.63-.33-1.27,0-1.86-.16-.54-.14-1.12-.43-1.25.33-.26,1.48,1.57,1.39,2.41,1.62.02,0,.15,1.26.31,1.43.51.53.9-.06,1.16-.54.24-.45.26-1.06.08-1.6"/>
      <path class="cls-6" d="M25.89,25.69c-.05-.16.08-.33.24-.36.16-.03.33.08.4.22.07.15.06.32,0,.48-.02.06-.05.11-.1.15-.14.12-.36.04-.47-.1-.11-.15-.13-.33-.14-.51l.07.12Z"/>
      <path class="cls-3" d="M23.71,19.23c-.7.46-3.63-1.33-1.81-1.76.43-.1.86.09,1.2.35.31.24,1.11.87.67,1.35-.02.02-.04.04-.06.05"/>
      <path class="cls-3" d="M18.53,17.74c-.69.04-1.48.07-2.16-.08-.38-.09-.8-.48-1.18-.45-.1-1.81,0-3.81-.61-5.47-.31-.84-1.21-2.04-2.04-2.44-1.53-.74-2.54.98-2.23,2.44.45,2.15,1.62,7.35,4.08,8.04,2.05.57,3.95.08,6.01-.45.45-.12,1.85-.35,2.21-.87.11-.17.12-.36-.04-.59-.54-.76-3.1-.17-4.03-.12"/>
      <path class="cls-3" d="M11.59,4.81c-.71-1.41-2.58-.32-3.08.77-.36.78.05,1.51.61,1.96.68.55,1.84,1.13,2.43.15.46-.75.43-2.1.04-2.88"/>
      <path class="cls-3" d="M7.83,9.99s.08.07.11.11c.07.07.15.13.23.19.42.04.84.1,1.27.16.29.04.59,0,.83-.16.14-.09.25-.2.3-.34.1-.23,0-.53-.02-.77-.01-.38.01-.77,0-1.15,0-.42,0-.82-.02-1.24,0-.16.01-.36-.09-.5-.26-.36-1.03-.21-1.38-.15-.37.06-1.21.04-1.39.47-.09.2-.02.47,0,.68.06.89.1,1.79.16,2.71"/>
      <path class="cls-5" d="M11.19,4.05c-.31-.37-.66-.67-.93-.78-.7-.29-1.55-.25-2.26-.03-.92.29-.9.47-1.12,1.27-.24.88-.49,2.21.25,2.94,1.24,1.22,1.11-.82,2.09-1.17.9-.32,1.76.94,2.54.07.51-.56.04-1.58-.56-2.31"/>
      <path class="cls-3" d="M8.51,6.55c.23.34.21.76-.04.94-.26.18-.66.05-.89-.29-.23-.34-.21-.76.04-.94.26-.18.66-.05.89.29"/>
      <path class="cls-5" d="M7.74,4.32c-1.05,0-2.38.32-2.83-.89-.25-.68-.43-2.27.09-2.85,2.15-2.39,4.42,3.29,2.74,3.74"/>
      <path class="cls-8" d="M0,53.34c-.04.49.06,1.07.2,1.52.49.05.74-.22.75-.72-.02.76.95,1.3,1.61,1.35,1.13.09.48-.54.13-1.1-.38-.61-.65-1.58-1.34-1.91-.95-.45-1.3.11-1.36.86"/>
      <path class="cls-8" d="M9.11,50.55c-.04.49.06,1.07.2,1.52.49.05.74-.22.75-.72-.02.76.95,1.3,1.61,1.35,1.13.09.48-.54.13-1.1-.38-.61-.65-1.58-1.34-1.91-.95-.45-1.3.11-1.36.86"/>
      <path class="cls-9" d="M7.83,37.87v-.12s-.33.03-.33.03l.31-.05-.04-.42-.39.15c-1.13.43-2.29.85-3.4,1.25l-.78.28.07.29c.21.86.54,1.64.87,2.46.44,1.1.43.84-.08,1.75-1.51,2.71-2.58,4.73-3.36,7.73-.21.78-.87,2.9.72,2.04.75-.41,1.51-2.13,1.97-2.85.77-1.17,1.6-2.32,2.28-3.54,1.68-2.99,2.57-5.52,2.16-8.99"/>
      <path class="cls-9" d="M9.67,39.14c.04.23.04,1.03-.41,3.85-.15.97-.32,1.99-.41,3.14v.02s0,.02,0,.02c0,.01,0,.02,0,.03.05.42.16,2.66.52,3.98.47.29.66.62,1.27.17.03-.02.06-.04.1-.06.26-.9.83-2.61.98-3.41.36-1.94.73-4.06,1.14-6.47.21-1.25.4-2.47.4-3.62,0-.34-.02-.69-.05-1.06l-.05-.51-.47.21c-1.23.55-2.55,1.09-4.04,1.65l-.53.2.4.41c1,1.03,1.13,1.37,1.14,1.45"/>
      <path class="cls-1" d="M15.78,31.87s-.02-.04-.02-.06c-1.47-3.7-2.34-7.62-2.47-11.6-.01-.41-.03-.8-.05-1.16.08-.36.15-.71.24-1.07.17-1.06.36-2.13.46-3.2-.1-.65-.26-1.28-.49-1.9-.46-1.24-1.18-2.34-2.05-3.31-1.62.96-3.36,1.64-5.15,2.26-.45.44-.87.9-1.28,1.33-.37.38-.52.76-.88,1.13-.36.91-.54,1.85-.76,3.04-.21,1.09-.22,2.17-.22,3.31,0,3.89-.97,7.96-1.45,11.83-.22,1.75-.8,3.45-.77,5.23.05,2.56,1.67,2.92,3.82,3.77.8.04,1.61.04,2.41.02.72.24,1.43.48,2.26.6,2.31.32,4.31-.93,6.01-2.35.52-.43,1.29-1.03,1.49-1.73.48-1.73-.47-4.55-1.09-6.13"/>
      <path class="cls-3" d="M11.25,8.76c-1.53-.27-3.49.81-4.61,1.55-1.39.92-3.26,2.65-3.37,4.48-.17,2.85,2.73.67,3.76.02,1.57-.98,7.79-2.12,5.67-5.13-.38-.54-.89-.82-1.45-.92"/>
      <path class="cls-3" d="M10.28,27.91c-.81.2-2.97-2.47-1.12-2.26.44.05.78.38,1.01.74.21.33.76,1.19.18,1.5-.02.01-.05.02-.07.03"/>
      <path class="cls-3" d="M6.26,23.52c-.71-.47-1.35-1-1.92-1.58-.53-.55.95-3.41,1.16-3.99.48-1.31,1.83-3.88.87-5.14-.99-1.29-2.69-.04-3.16.99-.92,1.99-3.08,6.87-1.51,8.89,1.31,1.69,3.12,2.42,5.1,3.22.43.18,1.69.82,2.29.62.19-.07.31-.22.32-.5.02-.93-2.39-1.99-3.16-2.5"/>
      <path class="cls-2" d="M22.07,26.95l1.29-.16s-.45,7.43-1.58,8.73l-.18-2.59.47-5.98Z"/>
      <path class="cls-2" d="M27.22,27.91s-.79,7.86,2.99,10.17l.21-1.26s-2.25-3.92-2.04-8.33l-1.16-.58Z"/>
    </g>
  </g>
</svg>