<?xml version="1.0" encoding="UTF-8"?>
<svg id="uuid-df246f63-9d33-49f5-a836-1e80d2622668" data-name="Calque_2" xmlns="http://www.w3.org/2000/svg" viewBox="0 0 40.71 54.99">
  <defs>
    <style>
      .uuid-33464f98-c1e6-4e34-ba96-11a25dc79f69 {
        fill: #f1c200;
      }

      .uuid-1aed84b0-1a08-41d5-92c8-1d16bcab7d5b {
        fill: #009d4a;
      }

      .uuid-763d1a10-9a27-4e54-ab54-0fe0d8c93c19 {
        fill: #f3aac6;
      }

      .uuid-c74a3131-ce06-4e16-b9f8-e143ba7e9d84 {
        fill: #302879;
      }

      .uuid-23c86bb7-6ab6-4ea2-9da1-8497ca06385b {
        fill: #56adad;
      }
    </style>
  </defs>
  <g id="uuid-3d3238ce-3987-49f0-bade-266e802afefa" data-name="Les_personnages">
    <g id="uuid-36ed6308-50e2-446e-b563-98578d0f10b4" data-name="Chara_x5F_FemmeEnfant_x5F_BD">
      <path class="uuid-763d1a10-9a27-4e54-ab54-0fe0d8c93c19" d="M18.29,30.8c-.37-.06-.73.19-1.04.54-.89.94-1.87,1.85-2.7,2.85-1.27,1.54-1.34-1.63-2.42-2.37-.79-.54-.63,2.41-.61,2.94.07,1.67,1.37,3.06,2.89,1.93,1.2-.89,1.9-2.39,2.67-3.63.22-.35.51-.65.87-.83.37-.19,1.34-1.24.34-1.41"/>
      <path class="uuid-763d1a10-9a27-4e54-ab54-0fe0d8c93c19" d="M31.42,32.33c-.02.22-.04.44-.06.65-.35,3.39-1.26,6.53-3.38,9.19-1.39,1.74-2.73,3.79-4.33,5.33-.36.35-.7.75-.78,1.16-.04.2-.03.39.07.58,0,.01.01.02.02.04.19.4.56,1.48.56,1.48-.03.05-.07.09-.11.12-.86.74-2.65-2.5-2.44-3.26.02-.08.06-.15.11-.22.03-.05.07-.1.12-.15.05-.05.1-.12.15-.21.54-.85,1.34-3.09,1.63-3.75.46-1.03.28-.33.76-1.34.8-1.68,3.03-3.47,3.11-5.32.15-3.49-1.88-6.03-.69-9.55.66-1.94,2.75-5.32,4.67-2.46,1.35,2.01.79,5.38.6,7.69"/>
      <path class="uuid-763d1a10-9a27-4e54-ab54-0fe0d8c93c19" d="M40.7,53.66c-.05.31-.48.32-.78.23-.72-.21-2.63-.79-2.96-1.55-.06-.13-.07-.28-.06-.43,0-.11,0-.23,0-.34-.04-1.48-.63-2.79-.86-4.24-.25-1.54-.3-3.28-.29-4.84,0-1.66.16-3.23-.13-4.82-.49-2.73-1.09-5.54-.57-8.34.27-1.42.85-3.65,2.38-4.15,1.44-.47,1.73.77,1.93,1.97.32,1.88.3,3.94.3,5.85,0,3.69-.12,7.29-.47,10.98-.23,2.42,0,4.87-.33,7.28,0,0-.04.64-.04.64.02.03.04.07.06.09.02.03.04.05.06.07.01.01.02.02.04.03.03.03.06.05.1.06.02.01.04.02.07.03.43.21.82.48,1.16.81.08.07.15.15.22.23.1.12.21.26.18.42"/>
      <path class="uuid-23c86bb7-6ab6-4ea2-9da1-8497ca06385b" d="M22.33,50.1s-.02.06-.02.09l.08-.09h-.06Z"/>
      <path class="uuid-c74a3131-ce06-4e16-b9f8-e143ba7e9d84" d="M11.51,53.09c.62.28,1.35.75,1.62,1.41.18.45-.08.53-.51.48-.31-.04-.6-.18-.88-.3-.26-.11-.53-.19-.78-.34-.37-.21-.66-.4-.48-.77.17-.35.64-.65,1.04-.48"/>
      <path class="uuid-c74a3131-ce06-4e16-b9f8-e143ba7e9d84" d="M.03,48.34c.12-.84.94-.82,1.13-.01.16.71,0,1.58-.03,2.28-.02.39-.38.63-.59.35-.26-.34-.37-.67-.44-1.17-.07-.47-.13-.99-.07-1.46"/>
      <path class="uuid-763d1a10-9a27-4e54-ab54-0fe0d8c93c19" d="M5.12,45.28c.03-.95-.3-2.22.7-2.78.43-.24.98-.13,1.28.26.17.22.28.55.34.87.26.13.48.35.54.66.02.1.04.21.05.31h0c.11.78.03,1.66-.21,2.38-.52,1.57-2.54,1.38-2.75-.28-.06-.47.02-.94.04-1.41"/>
      <path class="uuid-763d1a10-9a27-4e54-ab54-0fe0d8c93c19" d="M.81,48.8c.54.3,1.4.22,1.99.2.07,0,.14,0,.2-.01,1.41-.22,3.38-.16,4.39-1.26.37-.4-.36-1.34-.83-1.5-1.2-.39-2.52.38-3.65.85-.64.27-1.62.38-2.24.83-.18.34-.23.68.15.89"/>
      <path class="uuid-763d1a10-9a27-4e54-ab54-0fe0d8c93c19" d="M9.94,44.48c.34-.18.5-.21.89-.16.53.07.85.6.9,1.08.19,1.5-.04,3.02,0,4.53.03.98.12,1.98.07,2.96-.02.46.07.77-.49.81-.3.02-.72-.23-.91-.46-.46-.55-.58-1.67-.7-2.35-.31-1.78-.25-3.59-.3-5.39-.01-.38.17-.84.53-1.03"/>
      <path class="uuid-c74a3131-ce06-4e16-b9f8-e143ba7e9d84" d="M12.1,45.67c.09-.91-.25-1.83-.28-2.75-.01-.46.06-1.76-.19-2.34-1.7.88-4.27,1.63-5.9,1.12-.32-.04-.66-.09-.99-.16-.01,1.32-.21,4.52,0,5.21,0,0,.29,2.09,2.12,2.09,1.52,0,1.39-3.01,1.39-3.01,0-.63-.05-1.29.03-1.91,0,0,.48,2.84,1.12,3.12s2.62.12,2.71-.92c.05-.07-.02-.36-.02-.45"/>
      <path class="uuid-763d1a10-9a27-4e54-ab54-0fe0d8c93c19" d="M40.31,21.45c-.17-1.35-.27-2.67-.12-4.05.13-1.15.07-2.29-.02-3.44-.04-.5.27-1.95.09-2.35-.71-1.52-1.53,1.2-1.63,1.69-.31,1.46-.22,3.08-.3,4.57-.11,2.01-.29,3.98-.1,6,.16,1.65.46,3.16.71,4.79.06.38.44,2.9,1.16,1.7.47-.79.23-1,.32-1.94.16-1.67.15-4.98-.07-6.62-.02-.12-.03-.24-.05-.37"/>
      <path class="uuid-763d1a10-9a27-4e54-ab54-0fe0d8c93c19" d="M21.98,23.29c.02-.06.03-.13.05-.19.76-.86,1.72-2.85,2.17-3.92.74-1.74,1.3-2.53,1.92-4.32.18-.51-.54-2.58-1.05-2.8-2.33-1.01-4.35,6.16-5.42,11.29-.39.95-.74,1.8-.95,2.91-.24,1.23-.44,2.8-1.08,3.88-.28.48-1.65,1.79-.29,1.99,1.41.2,2.28-2.43,2.68-3.36.76-1.78,1.5-3.58,1.98-5.47"/>
      <path class="uuid-763d1a10-9a27-4e54-ab54-0fe0d8c93c19" d="M3.24,39.02s.02-.07.03-.1c.47-.45,1.06-1.51,1.34-2.08.45-.92.8-1.34,1.19-2.29.11-.27-.33-1.37-.65-1.49-1.44-.54-2.69,3.27-3.35,5.98-.24.5-.46.95-.59,1.54-.18.8-.4,1.47-.68,2.21-.17.45.7.69.92.26.64-1.27,1.41-2.7,1.8-4.04"/>
      <path class="uuid-33464f98-c1e6-4e34-ba96-11a25dc79f69" d="M39.33,27.52c-.06-.44-.12-.88-.15-1.32-.03-.39-.06-.79-.09-1.18-.16-2.01-.31-4.02-.34-6.04-.02-1.01-.33-2.06-.36-3.09-.02-.68.1-1.36.5-2.03.26-.43.63-.77.99-1.09.43-.38.63-.96.52-1.52-.42-2.17-1.44-4.09-3.55-4.65-3.5-.94-7.18.42-10.2,2.09-1.33.74-2.61,2.37-3.61,3.51-.83.95-1.71,4.14-1.71,4.14.43,1.3,2.61,2.19,3.7,2.51v.09s-1.29,14.79-1.29,14.79c-.09.63-.05,1.25.24,1.84.74,1.48,2.36,2.75,3.85,3.46,2.34,1.11,2.49,1.04,4.95,1.15.98.04,3.74-.94,4.57-1.49.63-.42,1.8-.83,2.3-1.27.68-.61.66-1.97.65-2.82-.03-2.38-.64-4.71-.97-7.07"/>
      <path class="uuid-1aed84b0-1a08-41d5-92c8-1d16bcab7d5b" d="M7.85,30.71c-.09-.04-.22-.04-.37.01-1.82.62-4.68,2.92-4.7,5.65,0,.33,1.29.01,1.55-.14.02.83.06,1.47.09,1.97h0s.15,4.17.15,4.17c.01.33.27.53.6.46l1.38-.26c.14,0,.28-.03.43-.08,1.53-.52,4.84-.65,4.63-2.51,0,0,.04-1.62.07-3.19.03-1.4.05-2.75.03-2.84.36,0,1.19-.95,1.19-.95.02-2.26-2.94-3.08-5.07-2.3"/>
      <path class="uuid-33464f98-c1e6-4e34-ba96-11a25dc79f69" d="M9.14,25.31c0-.28-.23-.51-.51-.51h-.22c-.27,0-.52.23-.51.51.01.45-.82.56-1.15.7-.49.21-.84.49-1.07.98-.5,1.04-.09,2.1.82,2.66.1.1.21.16.34.18h0s.05.02.08.03c.11.26.4.45.72.26.03-.02.05-.04.07-.05.24-.02.46-.18.46-.49,0-.17,0-.35-.02-.52.02-.48-.07-1.02-.12-1.46.04-.26.13-.5.31-.71.44-.51.8-.86.79-1.57"/>
      <path class="uuid-763d1a10-9a27-4e54-ab54-0fe0d8c93c19" d="M8.61,26.33c-.27-.29-.83-.1-.87.29,0,0-.02.01-.03.02-.33.32-.48.84-.55,1.31h-.12v2.8c0,.58.47,1.06,1.06,1.06s1.06-.47,1.06-1.06v-1.51c.19-.2.33-.45.4-.72.24-.87-.41-1.59-.95-2.19"/>
      <path class="uuid-c74a3131-ce06-4e16-b9f8-e143ba7e9d84" d="M34.03.35c-.3-.25-.72-.39-1.28-.34-.84.07-1.05.31-1.62.81-.98.87-1.5,2.08-2.44,2.96-1.8,1.68-3.27,3.25-4.23,5.57-.18.45-.62,1.37-.43,1.85.39.96,1.33.37,2.18.28,1.87-.2,3.29-.78,4.09-2.7.76-1.8,2.68-2.92,3.72-4.54.7-1.1.96-3.09.02-3.89"/>
      <path class="uuid-763d1a10-9a27-4e54-ab54-0fe0d8c93c19" d="M33.97,2.71c-.12.07-.24.14-.37.19-.45.38-1,.66-1.59.83-.18.08-.37.14-.57.19-.01.02-.03.04-.04.06-.34.47-.18.93.17,1.2-.06.1-.1.22-.12.35-.03.08-.06.17-.06.27,0,.12,0,.25-.01.37-.1.68-.29.84-.07,1.42,0,.1.02.19.06.27.26.76,1.5.91,1.78,0,.27-.91.08-1.26.09-2.21.45-.03.84-.37,1.04-.78.2-.4.26-.86.32-1.32.05-.42.1-.87.02-1.28-.2.18-.42.32-.65.43"/>
      <path class="uuid-1aed84b0-1a08-41d5-92c8-1d16bcab7d5b" d="M2.42,36.42s.62,1.45,2.63,1.45c2.01,0,2.8-3.89,2.8-3.89l-1.68-.84c-1.07-.53-2.36-.05-2.82,1.05l-.93,2.22Z"/>
      <path class="uuid-763d1a10-9a27-4e54-ab54-0fe0d8c93c19" d="M7.31,28.43c0,.31-.25.56-.56.56s-.55-.25-.55-.56.25-.55.55-.55.56.25.56.55"/>
      <path class="uuid-c74a3131-ce06-4e16-b9f8-e143ba7e9d84" d="M40.7,53.66c-.05.31-.48.32-.78.23-.72-.21-2.63-.79-2.96-1.55-.06-.13-.07-.28-.06-.43,0-.11,0-.23,0-.34.64.46,1.59.93,1.98.43.02-.02.04-.05.05-.08-.02.05,0,.1.01.15,0,.02.01.03.02.04,0,0,.01,0,.02-.01.03.03.06.05.1.06.02.01.04.02.07.03.43.21.82.48,1.16.81.08.07.15.15.22.23.1.12.21.26.18.42"/>
      <path class="uuid-c74a3131-ce06-4e16-b9f8-e143ba7e9d84" d="M23.51,50.77c-.03.05-.07.09-.11.12-.86.74-2.65-2.49-2.44-3.25.02-.08.06-.15.11-.22.03-.05.08-.1.12-.15.05-.05.1-.12.15-.21.1.79.84,1.18,1.53,1.61-.04.19-.03.39.07.58,0,.01.01.02.02.04.19.4.56,1.48.56,1.48"/>
    </g>
  </g>
</svg>