<?xml version="1.0" encoding="UTF-8"?>
<svg id="Calque_2" xmlns="http://www.w3.org/2000/svg" viewBox="0 0 17.37 50.31">
  <defs>
    <style>
      .cls-1 {
        fill: #bdcdcc;
      }

      .cls-2 {
        fill: #3b3735;
      }

      .cls-3 {
        fill: #db3236;
      }

      .cls-4 {
        fill: #6c6968;
      }

      .cls-5 {
        fill: #00656e;
      }

      .cls-6 {
        fill: #e4f2f3;
      }

      .cls-7 {
        fill: #fff;
      }

      .cls-8 {
        fill: #ecebec;
      }

      .cls-9 {
        fill: #474340;
      }

      .cls-10 {
        fill: #c58065;
      }
    </style>
  </defs>
  <g id="_Éléments_Mise_en_page" data-name="Éléments_Mise_en_page">
    <g>
      <path class="cls-10" d="M12.4,22.74s-1.28.51-1.28.51l-.03.43c.41.46.64,1.27.72,1.28.3.05-.25.39-.25.39,0,0,.04.29.2.26,0,0,.45.4.74.24l.35-.27c.28-.27.69-1.04.54-1.27-.12-.19-.94-1.55-.99-1.56"/>
      <path class="cls-7" d="M12.75,25.08h0c-.36,0-.68.14-.92.41-.46.5-.64,1.43-.52,2.62l.34-.04c-.11-1.08.05-1.94.43-2.36.18-.2.4-.3.66-.3h0c.79,0,1.66,1.55,1.83,3.24l.34-.03c-.17-1.71-1.09-3.55-2.17-3.55"/>
      <polygon class="cls-3" points="14.79 28.93 15.16 40.76 17.37 39.66 16.7 28.49 14.79 28.93"/>
      <polygon class="cls-1" points="7.88 26.36 14.79 28.93 16.7 28.49 9.87 25.84 7.88 26.36"/>
      <polygon class="cls-6" points="9.83 27.11 14.79 28.93 16.7 28.49 9.87 25.84 9.83 27.11"/>
      <path class="cls-7" d="M11.83,25.18c-1.08-.19-1.88.74-2.19,2.54l.34.06c.27-1.58.93-2.41,1.79-2.26.76.13,1.17,1.85.87,3.61l.34.06c.31-1.79-.08-3.82-1.15-4.01"/>
      <polygon class="cls-3" points="7.88 26.36 7.66 36.72 15.16 40.76 14.79 28.93 7.88 26.36"/>
      <path class="cls-10" d="M11.11,23.34l-.1,1.25.47,1.1.96.58s-.02-.16-.19-.43c-.09-.15-.18-.38-.23-.48,0,0,.22-.4,1.16-.23.02,0-.74-2.28-.79-2.3-.05-.02-1.28.51-1.28.51"/>
      <path class="cls-9" d="M10.94,8.57c-.77-1.14-2.67-1.31-2.67-1.31,0,0,1.32,3.94.47,4.01-.25.02-.5,0-.75-.02l.39,5.65,2.57,6.74s1.17.01,1.57-.91l-1.57-6.43s.75-6.6-.01-7.72"/>
      <path class="cls-8" d="M10.63,22.88l.32.75s1.2,0,1.61-.93l-.19-.76s-.59.88-1.73.94"/>
      <path class="cls-9" d="M4.09,42.39s-.96-1.87-.96-1.87l-2.54-.85-.5.98c-.14.28-.12.62.05.88l1.32,1.36c.13.24.33.43.56.57.54.3,2,1.03,2.44.9.72-.22,1.19-.99-.38-1.96"/>
      <path class="cls-9" d="M11.18,47.95l-2.11-1.69-2.37.61-.1,1.16c.03.31.24.59.53.71l3.79,1.55s1.54.25,1.95-.94l-.02-.07c-.15-.5-1.27-1-1.67-1.32"/>
      <path class="cls-5" d="M5.65,31.82L.43,39.52c.82,2.09,2.74,1.33,2.74,1.33l5.87-6.71s1.02-4.89,1.21-6.55c.27-2.31.29-5.89.29-5.89l-4.48,1.23-.41,8.89Z"/>
      <path class="cls-5" d="M7.81,26.02v-3.97l-5.76.4s-.2,2.78.99,5.36c1.19,2.58,2.7,8.17,2.7,8.17l.78,11.26s1.87,1.48,3.58,0l-.39-11.71-1.89-9.51Z"/>
      <path class="cls-9" d="M11.05,9.06c-.44-1.24-1-2.15-3.06-2.2h-1.47l-1.47.26-2.37,1.55c-1.13.62-1.71,1.56-1.64,2.85l1.15,7.35-.24,4.05s.49,1.43,4.44.9c3.77-.51,4.26-1.78,4.26-1.78l-.18-5.47s.95-6.47.58-7.5"/>
      <path class="cls-10" d="M5.05,7.29c0,.87.7,1.58,1.57,1.58s1.58-.71,1.58-1.58v-2.58l-2.67-.09-.48,2.66Z"/>
      <path class="cls-8" d="M5.12,6.44l-.69,1.07c.82,2.04,2.62,2.34,2.62,2.34l.39-1.22c-2.22-.32-2.32-2.19-2.32-2.19"/>
      <path class="cls-8" d="M7.44,8.63s.77.54.96.86c0,0,.41-1.93-.2-2.54,0,0,.18,1.08-.75,1.68"/>
      <path class="cls-10" d="M5.06,4.76c-.27,1.29,1.89,2.48,1.89,2.48,1.25.26,2.02-.18,2.3-1.49l.68-3.31-4.64-.12-.23,2.44Z"/>
      <path class="cls-9" d="M9.64.99c-1.54-1.48-3.21-1.15-4.54-.03-.65.54-.57,1.92-.54,2.57.06,1.46.71,2.39.71,2.39l.59-2.17.17.49.43-.2s.03-.97.07-1.12c.14-.52,3.29.05,3.29.05,0,0,1.5-.36-.18-1.97"/>
      <path class="cls-10" d="M5.08,3.7c-.19.55.06,1.25.56,1.14l.23-1.09s-.53-.79-.78-.04"/>
      <path class="cls-2" d="M14.06,15.54c-.47-.04-.76.27-.76.27l-1.19.95.96,1.49s1.82-1.59,2.37-2.19c.01-.01-.2-.38-.2-.38,0,0-.7-.1-1.18-.14"/>
      <path class="cls-4" d="M15.37,15.76c-.03-.08-.14-.08-.14-.08,0,0-.7-.1-1.17-.14-.47-.04-.76.27-.76.27l-1.19.95.14.34s1.18-.98,1.22-1.01c.18-.11.43-.19.71-.17.35.02.9.1,1.14.11.12,0,.06.09.06.09.1-.07.07-.15.07-.15,0,0-.07-.2-.08-.21"/>
      <path class="cls-10" d="M13.26,17.21c-.59-.06-.76-.23-.76-.23-.06-.1-.07-.31-.05-.38,0-.02.15-.18.16-.19.1-.12.36-.33.36-.33l-.84.03c-.12,0-.24.03-.35.07l-.87.34-1.25.49-.27.06-.21,1.55.55-.09c.85.49,1.95.55,1.95.55.43,0,.79-.34.79-.34.41-.03.62-.41.62-.41.43-.12.48-.5.48-.5.72-.12.7-.6.7-.6,0,0-.48.04-1.01-.02"/>
      <path class="cls-9" d="M3.28,16.83l-.14-.03.56-3.98s.02-3.71-1.07-3.76c-1.86-.09-1.99,3-1.99,3,0,0-.37,2.21-.18,4.25,0,.51.06,1.28.06,1.65,0,.98.82,1.77,1.8,1.74l1.52-.04,6.03-.97s-.11-.91-.12-1.88l-6.47.03Z"/>
      <polygon class="cls-8" points="8.9 16.81 8.9 18.83 9.87 18.68 9.76 16.8 8.9 16.81"/>
    </g>
  </g>
</svg>