<?xml version="1.0" encoding="UTF-8"?>
<svg id="Calque_2" xmlns="http://www.w3.org/2000/svg" viewBox="0 0 46.07 53.44">
  <defs>
    <style>
      .cls-1 {
        fill: #db3236;
      }

      .cls-2 {
        fill: #00656e;
      }

      .cls-3 {
        fill: #fff;
      }

      .cls-4 {
        fill: #06ac8a;
      }

      .cls-5 {
        fill: #009283;
      }

      .cls-6 {
        fill: #89504f;
      }

      .cls-7 {
        fill: #7c4d3d;
      }

      .cls-8 {
        fill: #f7f7f8;
      }

      .cls-9 {
        fill: #e9998f;
      }

      .cls-10 {
        fill: #f7b900;
      }

      .cls-11 {
        fill: #393533;
      }

      .cls-12 {
        fill: #eeb492;
      }
    </style>
  </defs>
  <g id="_Éléments_Mise_en_page" data-name="Éléments_Mise_en_page">
    <g>
      <path class="cls-3" d="M10.65,17.11c.9-.62,1.14-1.7.54-2.4-.6-.7-1.81-.77-2.71-.14-.9.62-1.14,1.7-.54,2.4.6.7,1.81.77,2.71.14"/>
      <path class="cls-7" d="M39.84,32.87l-.57,3.29-1.8,2.98-.7.52-.31.8s.08.05.18.01c-.02.02-.03.04-.03.04v.57s.13.06.23-.06l.13.26c.19.03.22-.12.21-.24l.09.18c.32.05.18-.39.18-.39l.04-.07.11.34c.24.09.18-.25.18-.25l.04-.28.05-.14c.18-.18.4-.58.35-.82.54-.49,2.33-2.2,2.73-3.41.48-1.43.95-3.81.95-3.81-1.22-1.86-2.07.46-2.07.46"/>
      <path class="cls-8" d="M45.37,50.75c-.03-.11-.13-.19-.25-.18l-.97.09c-.18.01-.34.13-.41.29l-.55,1.23c-.59.47-.74.86-.53,1.12.19.23,1.4.16,1.77-.1.35-.25,1.23-1.02,1.17-1.37-.05-.25-.17-.79-.23-1.08"/>
      <path class="cls-5" d="M45.54,51.53c-.05.11-.12.21-.2.31-.06.07-.12.14-.18.21-.23.32-.53.59-.87.81-.1.09-.23.16-.37.2-.43.11-.89.16-1.31.02-.01,0-.02,0-.03,0,0,.09.03.16.09.23.19.23,1.4.16,1.76-.1.35-.25,1.23-1.02,1.17-1.37-.01-.08-.04-.19-.06-.31"/>
      <path class="cls-8" d="M39.64,49.9l-1.13-.07c-.06,0-.12.03-.15.09-.32.64-.74.98-1.18,1.29-.46.33-.57.48-.57.48-.02.17.11.27.11.27.1.11.84.32,1.31.14.47-.17.21-.2.88-.31.69-.11.86-.31.86-.31.16-.54.06-1.18.01-1.44-.01-.07-.07-.12-.14-.13"/>
      <path class="cls-5" d="M39.35,51.31c-.2.03-.42.03-.62.1-.17.05-.32.18-.49.24-.03,0-.05.02-.08.02-.07.04-.15.07-.22.09-.27.09-.57.09-.86.01-.13-.04-.26-.11-.36-.2-.08.08-.11.11-.11.11-.02.17.11.27.11.27.1.11.84.32,1.31.14.47-.17.21-.2.88-.31.69-.11.86-.31.86-.31.04-.16.07-.32.08-.48-.12.17-.29.29-.5.32"/>
      <path class="cls-4" d="M39.84,32.87l-.69,2.35c.12.05.57.24.69.28.27.1,1.14.18,1.28.26.42-1.43.8-3.35.8-3.35-1.22-1.86-2.07.46-2.07.46"/>
      <path class="cls-7" d="M38.42,45.19l.08,4.69c.47.56,1.14.09,1.14.09l.55-2.35c.09-.4.12-.81.07-1.21l-.09-.74,1.74-3.19v-2.49l-2.11-.47-1.38,5.67Z"/>
      <path class="cls-10" d="M38.53,43.98c.81.89,2.13,1.04,2.41.94l1.06-2.53v-2.49l-2.11-.47-1.36,4.54Z"/>
      <path class="cls-7" d="M44.47,47l-.58-1s.33-1.87.49-2.72c.26-1.36-.28-3.51-.28-3.51l-2.96.33.56,3.07s.34,2.76.47,3.41c.13.65,1.82,4.26,1.82,4.26.28.17.59.2.8.14.3-.09.45-.34.45-.34l-.58-3.16c-.02-.11-.12-.39-.17-.49"/>
      <path class="cls-10" d="M44.09,39.77l-2.96.33s.19,3.8.56,5.29c.02,0,2.19.33,2.75-.36,0,0-.16-1.3-.07-1.75.26-1.36-.28-3.51-.28-3.51"/>
      <path class="cls-7" d="M46.01,36.96c-.19-1.04-.62-2.5-.86-3.27-.13-.43-.51-.76-.97-.78-1.05-.03-.79,1.66-.79,1.66l1.18,2.98.07,3.57-.67.94-.08.9s.1.16.29-.15l.1-.44.15.54-.08.35-.04.13c-.05.13.14.16.25.06.03-.03.25-.19.25-.19l.46-.21.27-.43-.05-1.19c.16-.63.77-3.19.53-4.48"/>
      <path class="cls-4" d="M44.77,33.09c-.71-.81-2.13-1.25-2.23-1.29-1.28-.48-2.74.57-2.72,1.93l-.4,6.61c2.46,2.47,5.12.56,5.12.56,0,0-.48-1.85-.28-3.48.26-2.12.91-3.88.5-4.34"/>
      <path class="cls-4" d="M44.18,32.92c-1.05-.03-.79,1.66-.79,1.66l.64,1.95c.61-.02,1.42-.19,1.85-.58-.21-.85-.56-1.71-.73-2.26-.13-.43-.51-.76-.97-.78"/>
      <path class="cls-7" d="M42.3,31.64c-1.08.27-1.23,1.1-1.12,1.27.11.17.45.53,1.32.2,1.04-.39,1.01-.95,1.01-.95,0,0-.52-.69-1.22-.52"/>
      <path class="cls-7" d="M43.13,30.97l-1.8-.09s-.15,1.04.41,1.86l1.78-.58s-.43-.67-.39-1.19"/>
      <path class="cls-7" d="M40.52,30.53c.06.98.32,1.68,1.39,1.67,0,0,1.32-.09,1.66-1.18l.32-2.23h-3.38l.02,1.74Z"/>
      <path class="cls-11" d="M43.28,27.29s-.61-.79-1.93,0c-1.27.76-1.17,1.75-1.17,1.75,0,0,1.03.36,1.4.38.32.02,1.43-.06,1.43-.06.02.11.25.7.25.7l.15,1.36s2.1-1.32.96-3.46c-.3-.57-1.1-.67-1.1-.67"/>
      <path class="cls-7" d="M43.23,30.14l.08.68c.3.1.49-.32.4-.67-.12-.47-.48-.02-.48-.02"/>
      <path class="cls-5" d="M43.48,51.54s.35.01.74.3l.06-.15s-.23-.24-.74-.29l-.06.14Z"/>
      <path class="cls-5" d="M43.35,51.83s.26.05.67.26l.08-.12s-.33-.24-.69-.25l-.05.12Z"/>
      <path class="cls-5" d="M43.2,52.18s.35.01.62.2l.11-.16s-.37-.21-.65-.21l-.08.17Z"/>
      <path class="cls-5" d="M37.86,50.65l-.09.09s.29.07.51.31l.14-.12s-.2-.24-.56-.28"/>
      <path class="cls-5" d="M37.57,50.92c.14.04.42.29.42.29l.12-.08c-.24-.25-.44-.3-.44-.3l-.11.09Z"/>
      <path class="cls-5" d="M37.47,51l-.12.09s.19.07.3.25l.16-.07s-.1-.15-.34-.27"/>
      <path class="cls-3" d="M21.65,46.04c-.22.95-1.73,2.13-2.27,2.54-.53.41-.65.59-.65.59-.02.2.14.31.14.31.13.13,1,.33,1.56.11.55-.23,1.1-.82,1.88-.98.8-.17,1-.41,1-.41.2-.83-.16-2.07-.16-2.07l-1.5-.08Z"/>
      <path class="cls-1" d="M19.34,48.61c-.49.38-.61.56-.61.56-.02.2.14.31.14.31.13.13,1,.33,1.55.11.11-.04.22-.11.33-.17,0,0,0-.01,0-.02-.07-.45-.8-.67-1.41-.79"/>
      <path class="cls-1" d="M22.44,48.58c.7-.16.88-.38.88-.38.14-.55.02-1.29-.07-1.71-.36.67-.63,1.36-.81,2.09"/>
      <path class="cls-11" d="M21.93,48.4c-.47.23-.87.6-1.36.81-.61.27-1.27.33-1.8-.08-.02.03-.04.04-.04.04-.02.21.14.31.14.31.13.13,1,.33,1.56.11.55-.23,1.1-.82,1.88-.98.8-.17,1-.41,1-.41.03-.12.05-.26.05-.4-.01.01-.02.02-.04.03-.43.31-.93.34-1.4.57"/>
      <path class="cls-1" d="M20.91,47.23l-.11.12c.42.06.75.39.75.39l.12-.08c-.36-.46-.76-.42-.76-.42"/>
      <path class="cls-1" d="M20.66,47.49l-.11.11c.42.06.75.4.75.4l.12-.08c-.36-.46-.76-.42-.76-.42"/>
      <path class="cls-1" d="M20.39,47.74l-.11.11c.42.06.75.4.75.4l.12-.08c-.36-.46-.76-.42-.76-.42"/>
      <path class="cls-3" d="M32.35,43.93l-1.23.83.18,2.91c-.24.79-.46,1.05-.14,1.24.44.27,1.45-.09,1.9-1.07.2-.43.69-2.9.42-3.18s-1.13-.73-1.13-.73"/>
      <path class="cls-1" d="M32.45,43.98c.04.54.26,1,.65,1.4.12.13.27.23.41.34.06-.52.07-.96-.03-1.07-.21-.22-.79-.55-1.03-.67"/>
      <path class="cls-1" d="M32.63,47.88c-.4-.18-.89-.17-1.37-.11-.23.71-.41.96-.11,1.14.43.26,1.43-.09,1.89-1.05-.12.07-.26.09-.41.02"/>
      <path class="cls-11" d="M33.3,44.51c-.08,1.69-.05,2.74-.8,3.61-.36.42-.78.46-1.35.55-.05,0-.11,0-.16,0,0,.1.05.17.15.23.44.27,1.45-.09,1.9-1.07.2-.43.69-2.9.42-3.18-.04-.04-.1-.09-.17-.14"/>
      <path class="cls-2" d="M30.28,40.01c-.5-1.13-1.12-1.97-1.54-2.48l.78-7.32s.25-1.73.26-2.34c.02-2.79-.74-2.42-.74-2.42l-5.33.86-1.12-1.98c-1.26,6.34-1.74,9.03-1.98,10.91-.03.24-.01.51.05.77.07.67.18,1.65.26,2.29.79,6.46.64,7.85.64,7.85,0,0,.14.29.92.24.57-.03.72-.29.72-.29,0,0,.4-3.96.41-5.25,0-1.11-.38-3.61-.45-4.25l2-5.89c.08.69.45,4.79.8,7.12.03.39.16.89.35,1.12,1.9,2.35,4.84,6.06,4.84,6.06,0,0,.19.28.88,0,.6-.25.47-.93.47-.93,0,0-1.16-1.69-2.21-4.06"/>
      <path class="cls-12" d="M22.89,11.77c-.11.37-1.84,7.77-1.84,7.77l-2.11,5.17-1.06,1.07-.32,1.49s.09.08.22,0c-.02.05-.03.08-.03.08l-.03,1.04s.15.1.28-.13l.14.46c.23.03.27-.24.26-.46l.1.32c.38.05.24-.73.24-.73l.05-.12.11.6c.28.13.23-.48.23-.48v-.59s.07-.26.07-.26c.23-.36.76-1.02.66-1.6l2.95-4.87s1.2-4.61,1.91-6.62c.71-2.01.83-2.6.83-2.6-1.34-1.09-2.49-.09-2.67.48"/>
      <path class="cls-1" d="M30.28,13.45c-1.42-2.69-4.66-2.84-5.96-2.74-.36.03-.47.1-.47.1,0,0-.42.09-.6.78-.08.3-.02.9-.12,1.35l-.59,1.51-.59,1.71c-.36,1.4.59,2.1.59,2.1l-1.15,2.46c-.64,1.75-.13,3.35.73,5l.12.45s3.33,3.13,7.53-.15l-.85-3.88c-.03-.15-.04-.3-.04-.45.26-4.01,1.96-7.21,1.42-8.25"/>
      <path class="cls-12" d="M26.28,10.56c-1.45.28-1.71,1.37-1.58,1.6.13.23.55.74,1.74.36,1.41-.45,1.42-1.19,1.42-1.19,0,0-.64-.95-1.58-.77"/>
      <path class="cls-12" d="M27.43,9.73l-2.38-.26s-.07,1.82.04,2.69l2.76-.83s-.53-.92-.42-1.6"/>
      <path class="cls-9" d="M27.43,9.73l-2.38-.26s-.04.87-.02,1.69c.63.6,1.89-.09,2.41-.92-.03-.18-.04-.35-.02-.52"/>
      <path class="cls-12" d="M23.95,8.7c0,1.31.55,2.57,1.81,2.23,0,0,2.15-.64,2.43-2.01l.35-2.41-4.45-.79-.14,2.99Z"/>
      <path class="cls-6" d="M26.41,3.94c-3.19,0-2.67,2.65-2.67,2.65,1.7,1.32,3.81.98,3.81.98l-.1,2.58c0,.42.37,1.11.37,1.11l1.91,1.33s-.14-4.75-.17-5.37c-.04-.71-.27-3.28-3.14-3.28"/>
      <path class="cls-12" d="M32.38,27.94c.02-1.68.06-5.48.04-5.89-.03-.52-.05-1.02-.05-1.02,0,0-.66-3.21-1.27-5.26-.35-1.17-.63-1.91-.82-2.32-.14-.33-.49-.53-.84-.47-1.2.19-1.3,1.84-1.23,2.17.09.38,2.24,6.44,2.24,6.44.32,1.63.73,6.1.73,6.1l-.58,1.71.15,1.67s.14.08.29-.46l.02-.66s.01,0,.01,0l.28.78v.6s-.02.23-.02.23c-.03.22.21.24.31.05.03-.05.25-.36.25-.36l.5-.43.22-.76-.24-2.12v.02Z"/>
      <path class="cls-1" d="M31.2,46.06v.21s.52.09.82,0v-.21s-.59.09-.82,0"/>
      <path class="cls-1" d="M31.23,46.46v.15s.35.08.79,0v-.15s-.32.08-.79,0"/>
      <path class="cls-1" d="M31.25,46.83v.2s.3.11.77,0v-.2s-.32.1-.77,0"/>
      <path class="cls-11" d="M7.26.23c-2.1,0-3,1.25-3,3.35s1.4,3.97,2.75,3.97c2.1,0,4-1.7,4-3.79S9.35.23,7.26.23"/>
      <path class="cls-7" d="M5.34,11.55c-.24.14-.53.18-.77.31-.36.19-.38.25-.65.61-.33.44-.8.52-1.2.39,0,1.75-.14,4.12-.14,4.12l-1.52,5.3-.9,1.84-.17,1.62s.19.05.35-.08c.05.9.33,1.52.33,1.52,0,0,.27.09.38-.15l.08.16c.55-.02.27-.67.27-.67v-.49s.16.61.16.61c.39.14.38-.36.38-.36l-.09-.76.16-.76.1-.48c.05-.24.04-.59-.04-.89l3.4-6.47.75-5.96c-.09,0-.18,0-.28,0-.16.24-.38.43-.63.58"/>
      <path class="cls-10" d="M2.43,14.68c.29.19.82.27,1.09.45.45-1.23,1.07-2.81,1.51-4.06.17-1.13,1.55-3.02,1.55-3.02,0,0-2.91,1.18-3.37,1.62-.74.7-.59,3.08-.78,5"/>
      <path class="cls-3" d="M12.32,39.29l-1.86.97s-.86,1.75-.88,1.73c-1.45.89-1.02,1.61-.35,1.81.32.1,1.19-.28,1.8-.59.29-.14.55-.33.77-.56l.2-.2,1.22-1.25c.16-.24.18-.55.05-.81l-.94-1.08Z"/>
      <path class="cls-11" d="M12.52,39.52c.08.74.1,1.42.31,2.07l.39-.4c.16-.24.18-.55.05-.81l-.75-.86Z"/>
      <path class="cls-11" d="M10.26,42.71c-.27-.22-.59-.4-.89-.59-1.2.83-.78,1.48-.15,1.67.27.08.95-.18,1.53-.46-.06-.23-.22-.41-.48-.62"/>
      <path class="cls-11" d="M13.19,40.28c-.05.15-.12.3-.23.44-.7.89-1.48,1.66-2.44,2.27-.57.36-1.39.53-1.9.21.04.28.3.49.61.59.34.1,1.33-.35,1.94-.66.2-.1.39-.24.55-.4l.29-.29,1.22-1.25c.16-.24.18-.55.05-.81l-.08-.09Z"/>
      <path class="cls-3" d="M4.6,45.8l-1.89,1.52c-.36.29-1.37.74-1.5,1.19l-.02.07c0,1.13,1.88.8,1.88.8l3.09-1.26c.26-.11.6-.55.63-.83l-.35-1.22-1.84-.26Z"/>
      <path class="cls-11" d="M6.01,46c-.11.73-.17,1.46.04,2.16l.11-.04c.26-.11.6-.55.64-.83l-.35-1.22-.44-.06Z"/>
      <path class="cls-5" d="M7.53,23.36l-4.31-1.18s.02,3.44.27,5.66c.19,1.59,1.16,6.3,1.16,6.3l5.65,6.46s1.53.89,2.32-1.12l-4.7-7.55-.39-8.56Z"/>
      <path class="cls-5" d="M5.84,22.51v3.82l-1.82,9.15.17,10.66c1.64,1.43,2.51.34,2.51.34l1.12-10.57s1.45-5.38,2.6-7.86c1.15-2.49.96-5.16.96-5.16l-5.54-.38Z"/>
      <path class="cls-10" d="M11.93,9.79l-3.27-1.84-.99-.2-1.21.21c-.53-.02-2.74,1.25-2.9,1.61-.42.97-.36,8.14-.36,8.14l-.08,4.51s.43,1.23,4.05,1.83c3.78.62,4.29-.74,4.29-.74l-.38-4.58.06-6.52c.1-1.24.79-2.41.79-2.41"/>
      <path class="cls-1" d="M3.32,11.54c-.06.98-.08,2.17-.1,3.24,2.6.63,5.2,1.16,7.89,1.3l.03-3.27c-2.65.33-5.33-.3-7.82-1.27"/>
      <path class="cls-7" d="M14.13,18.72l-.96-6.1s-.64-2.87-2.37-2.49c-1.7.37-.78,3.41-.78,3.41l1.78,5.43.79,5.59s.02,0,.02,0l-.34,1.58.32,2.07s.45,0,.37-.64l-.11-.72.02.09h0s.3.82.3.82l.04.78-.02.25c-.02.24.31.35.43.13.03-.06.32-.62.32-.62l.56-.51.2-.86-.6-2.25.03-6Z"/>
      <path class="cls-10" d="M11.05,9.71c-1.75.38-1.29,3.31-1.29,3.31l.94,2.91c1.59.22,2.98-.71,3.06-.75l-.65-3.21s-.27-2.65-2.06-2.26"/>
      <path class="cls-7" d="M6.31,5.36l-.61,2.4c-.21.81.33,1.35,1.14,1.56.81.21,1.64-.29,1.84-1.1l-.09-1.06.23-1.25-2.51-.55Z"/>
      <path class="cls-7" d="M5.05,6.18c0,1.29.83,2.06,1.87,1.85.14-.03,2.27-.71,2.27-1.98l.25-2.35-4.4-.78v3.25Z"/>
      <path class="cls-11" d="M5.59,1.62c-1.9,1.2-.55,1.82-.55,1.82,0,0,3.09.07,3.11.59,0,.15-.03,1.16-.03,1.16l.24.18.25-.34-.03,2.12s.96-.8,1.3-2.17c.15-.6.5-1.89-.01-2.53-1.04-1.31-2.54-1.94-4.28-.84"/>
      <path class="cls-11" d="M5.65,1.32c-1.98,1.25-.39,1.91-.39,1.91,0,0,3.03.07,3.06.61,0,.16-.03,1.21-.03,1.21l.25.18.26-.36-.22,2.29s1.18-.91,1.54-2.33c.15-.63.52-1.97-.01-2.64-1.08-1.36-2.65-2.02-4.47-.88"/>
      <path class="cls-11" d="M5.66.47c-.26,0-.47.21-.47.47s.21.47.47.47.47-.21.47-.47-.21-.47-.47-.47"/>
      <path class="cls-11" d="M5.12.75c-.26,0-.47.21-.47.47s.21.47.47.47.47-.21.47-.47-.21-.47-.47-.47"/>
      <path class="cls-11" d="M4.65,1.85c-.26,0-.47.21-.47.47s.21.47.47.47.47-.21.47-.47-.21-.47-.47-.47"/>
      <path class="cls-11" d="M4.58,2.46c-.26,0-.47.21-.47.47s.21.47.47.47.47-.21.47-.47-.21-.47-.47-.47"/>
      <path class="cls-11" d="M4.51,3.22c-.26,0-.47.21-.47.47s.21.47.47.47.47-.21.47-.47-.21-.47-.47-.47"/>
      <path class="cls-11" d="M4.58,3.79c-.26,0-.47.21-.47.47s.21.47.47.47.47-.21.47-.47-.21-.47-.47-.47"/>
      <path class="cls-11" d="M4.65,4.52c-.22,0-.4.18-.4.4s.18.4.4.4.4-.18.4-.4-.18-.4-.4-.4"/>
      <path class="cls-11" d="M4.78,5.19c-.15,0-.27.12-.27.27s.12.27.27.27.27-.12.27-.27-.12-.27-.27-.27"/>
      <path class="cls-11" d="M4.79,1.22c-.26,0-.47.21-.47.47s.21.47.47.47.47-.21.47-.47-.21-.47-.47-.47"/>
      <path class="cls-11" d="M6.25.19c-.26,0-.47.21-.47.47s.21.47.47.47.47-.21.47-.47-.21-.47-.47-.47"/>
      <path class="cls-11" d="M6.99,0c-.26,0-.47.21-.47.47s.21.47.47.47.47-.21.47-.47-.21-.47-.47-.47"/>
      <path class="cls-11" d="M7.73,0c-.26,0-.47.21-.47.47s.21.47.47.47.47-.21.47-.47-.21-.47-.47-.47"/>
      <path class="cls-11" d="M8.5.19c-.26,0-.47.21-.47.47s.21.47.47.47.47-.21.47-.47-.21-.47-.47-.47"/>
      <path class="cls-11" d="M9.37.52c-.22-.13-.51-.05-.64.17-.13.22-.05.51.17.64.22.13.51.05.64-.17.13-.22.05-.51-.17-.64"/>
      <path class="cls-11" d="M10,.99c-.22-.13-.51-.05-.64.17-.13.22-.05.51.17.64.22.13.51.05.64-.17.13-.22.05-.51-.17-.64"/>
      <path class="cls-11" d="M10.53,1.55c-.22-.13-.51-.05-.64.17-.13.22-.05.51.17.64s.51.05.64-.17c.13-.22.05-.51-.17-.64"/>
      <path class="cls-11" d="M10.91,2.19c-.22-.13-.51-.05-.64.17-.13.22-.05.51.17.64.22.13.51.05.64-.17.13-.22.05-.51-.17-.64"/>
      <path class="cls-11" d="M11.11,2.98c-.22-.13-.51-.05-.64.17-.13.22-.05.51.17.64.22.13.51.05.64-.17.13-.22.05-.51-.17-.64"/>
      <path class="cls-11" d="M11,3.71c-.22-.13-.51-.05-.64.17-.13.22-.05.51.17.64.22.13.51.05.64-.17.13-.22.05-.51-.17-.64"/>
      <path class="cls-11" d="M10.82,4.47c-.19-.11-.42-.04-.53.14-.11.19-.04.42.14.53.19.11.42.04.53-.14.11-.19.04-.42-.14-.53"/>
      <path class="cls-11" d="M10.65,5.17c-.16-.09-.37-.04-.46.12-.09.16-.04.37.12.46.16.09.37.04.46-.12.09-.16.04-.37-.12-.46"/>
      <path class="cls-11" d="M10.28,5.63c-.19-.11-.42-.04-.53.14-.11.19-.04.42.14.53.19.11.42.04.53-.14.11-.19.04-.42-.14-.53"/>
      <path class="cls-11" d="M9.85,6c-.19-.11-.43-.04-.53.14-.11.19-.04.42.14.53.19.11.42.04.53-.14.11-.19.04-.42-.14-.53"/>
      <path class="cls-11" d="M9.3,6.41c-.16-.09-.36-.04-.45.12s-.04.36.12.45c.16.09.36.04.45-.12.09-.16.04-.36-.12-.45"/>
      <path class="cls-7" d="M8.5,5.2l.03.91c.36.22.82-.52.75-.96-.13-.79-.78.06-.78.06"/>
      <path class="cls-11" d="M10.02,41.12s.39.11.63.24l.09-.14s-.22-.14-.66-.22l-.06.12Z"/>
      <path class="cls-11" d="M9.91,41.36c.27.05.6.22.6.22l.09-.12c-.28-.17-.62-.24-.62-.24l-.07.14Z"/>
      <path class="cls-11" d="M9.76,41.64c.27.03.57.17.57.17l.09-.12c-.22-.13-.57-.22-.57-.22l-.09.17Z"/>
      <path class="cls-11" d="M2.36,47.55c-.44.27-1.06.62-1.16.96l-.02.07c0,.76.84.86,1.4.84.27,0,.53-.07.78-.17l.26-.11c-.22-.68-.59-1.34-1.27-1.59"/>
      <path class="cls-11" d="M3.72,46.5l-.16.13c.4.21.64.57.64.57l.21-.14c-.19-.5-.69-.56-.69-.56"/>
      <path class="cls-11" d="M3.4,46.76l-.18.15c.28.15.59.49.59.49l.17-.1c-.24-.39-.58-.54-.58-.54"/>
      <path class="cls-11" d="M3.1,47.01l-.15.12c.17.07.51.42.51.42l.15-.08c-.32-.39-.51-.46-.51-.46"/>
      <path class="cls-11" d="M6.6,47c-.55.8-1.39,1.11-2.28,1.4-.53.18-1.09.4-1.65.47-.44.13-.9.11-1.33-.2-.06-.04-.11-.09-.15-.14v.04c-.01.57.46.77.93.82.47.06.94-.03,1.37-.2l2.65-1.09c.26-.11.61-.55.64-.83l-.11-.4s-.04.08-.07.12"/>
    </g>
  </g>
</svg>