<?xml version="1.0" encoding="UTF-8"?>
<svg xmlns="http://www.w3.org/2000/svg" xmlns:xlink="http://www.w3.org/1999/xlink" viewBox="0 0 38.93 66.29">
  <defs>
    <style>
      .cls-1 {
        fill: #f9f9fa;
      }

      .cls-2 {
        fill: #223b51;
      }

      .cls-3 {
        clip-path: url(#clippath-6);
      }

      .cls-4 {
        clip-path: url(#clippath-7);
      }

      .cls-5 {
        clip-path: url(#clippath-4);
      }

      .cls-6 {
        clip-path: url(#clippath-9);
      }

      .cls-7 {
        clip-path: url(#clippath-10);
      }

      .cls-8 {
        fill: #fff1e2;
      }

      .cls-9 {
        fill: #fbd4bb;
      }

      .cls-10 {
        clip-path: url(#clippath-11);
      }

      .cls-11 {
        fill: none;
      }

      .cls-12 {
        fill: #21858b;
      }

      .cls-13 {
        fill: #f9c3a0;
      }

      .cls-14 {
        clip-path: url(#clippath-1);
      }

      .cls-15 {
        isolation: isolate;
      }

      .cls-16 {
        clip-path: url(#clippath-5);
      }

      .cls-17 {
        clip-path: url(#clippath-8);
      }

      .cls-18 {
        clip-path: url(#clippath-3);
      }

      .cls-19 {
        fill: #a1d1e1;
      }

      .cls-20 {
        clip-path: url(#clippath-12);
      }

      .cls-21 {
        fill: #fcebe0;
      }

      .cls-22 {
        fill: #905085;
      }

      .cls-23 {
        fill: #fcfcfd;
      }

      .cls-24 {
        mix-blend-mode: multiply;
      }

      .cls-25 {
        fill: #3ab5df;
      }

      .cls-26 {
        fill: #fffbf7;
      }

      .cls-27 {
        clip-path: url(#clippath-2);
      }

      .cls-28 {
        fill: #faeb54;
      }

      .cls-29 {
        fill: #31a8b2;
      }

      .cls-30 {
        clip-path: url(#clippath-13);
      }

      .cls-31 {
        fill: #e2e0e0;
      }

      .cls-32 {
        fill: #93575a;
      }

      .cls-33 {
        clip-path: url(#clippath);
      }
    </style>
    <clipPath id="clippath">
      <rect class="cls-11" x="4.67" y="52.52" width="4.52" height="3.17"/>
    </clipPath>
    <clipPath id="clippath-1">
      <rect class="cls-11" x="4.67" y="52.52" width="4.52" height="3.17"/>
    </clipPath>
    <clipPath id="clippath-2">
      <rect class="cls-11" x="8.35" y="48.64" width="4.95" height="5.61"/>
    </clipPath>
    <clipPath id="clippath-3">
      <rect class="cls-11" x="8.35" y="48.64" width="4.95" height="5.61"/>
    </clipPath>
    <clipPath id="clippath-4">
      <rect class="cls-11" x="11.38" y="41.87" width="2.23" height="1.64"/>
    </clipPath>
    <clipPath id="clippath-5">
      <rect class="cls-11" x="11.38" y="41.87" width="2.23" height="1.64"/>
    </clipPath>
    <clipPath id="clippath-6">
      <rect class="cls-11" x="8.51" y="54.26" width="4.8" height="3.42"/>
    </clipPath>
    <clipPath id="clippath-7">
      <rect class="cls-11" x="8.51" y="54.26" width="4.8" height="3.42"/>
    </clipPath>
    <clipPath id="clippath-8">
      <rect class="cls-11" x="12.17" y="47.71" width="6.42" height="8.27"/>
    </clipPath>
    <clipPath id="clippath-9">
      <rect class="cls-11" x="12.17" y="47.72" width="6.42" height="8.27"/>
    </clipPath>
    <clipPath id="clippath-10">
      <rect class="cls-11" x="14.94" y="43.43" width="4.18" height="5.33"/>
    </clipPath>
    <clipPath id="clippath-11">
      <rect class="cls-11" x="14.94" y="43.43" width="4.18" height="5.32"/>
    </clipPath>
    <clipPath id="clippath-12">
      <rect class="cls-11" x="18.82" y="42.89" width="1.35" height="2.96"/>
    </clipPath>
    <clipPath id="clippath-13">
      <rect class="cls-11" x="18.82" y="42.88" width="1.35" height="2.96"/>
    </clipPath>
  </defs>
  <g class="cls-15">
    <g id="Calque_2">
      <g id="_Éléments_Mise_en_page" data-name="Éléments_Mise_en_page">
        <g>
          <path class="cls-9" d="M28.18,18.83c-.1.22-.21.44-.36.64-.05.06-.1.13-.18.14-.07.02-.15-.02-.2-.07,0,.02-.99.83-1.09.9-.39.28-.78.55-1.19.8-.55.34-1.12.65-1.7.95-.29.15-.58.29-.87.43-.11.06-.26.1-.35.19-.12.12-.04.23,0,.36.03.08.04.18.03.27-.04.23-.23.4-.31.62,0,.02-.01.04-.02.06-.03.12-.04.25-.09.36-.05.14-.16.27-.31.27-.04,0-.08-.01-.13,0-.04,0-.07.03-.1.05-.1.05-.22.06-.33.06-.02,0-.05,0-.07,0-.02,0-.04.03-.06.04-.09.07-.23.05-.33,0-.05-.02-.09-.05-.13-.08-.05-.04-.11-.07-.17-.1,0,0-.01,0-.01,0-.04-.02-.09-.03-.14-.01-.03.01-.05.02-.08.03-.09.03-.2,0-.28-.06-.07-.06-.12-.15-.17-.24-.09-.19-.16-.39-.17-.6-.02-.21.02-.43.12-.6.07-.12.17-.22.27-.31.29-.27.63-.49.96-.7.08-.05,2.55-2.52,3.05-2.98.01,0,.02-.02.03-.03.76-.69,1.51-1.38,2.27-2.08.17-.16.35-.32.5-.51.12-.16.15-.35.2-.55.07-.34.15-.68.22-1.02.02-.08.03-.16.05-.24.07-.32.04-.79.3-1.03.17-.15.39-.15.59-.06.27.12.47.36.6.62.13.26.19.56.22.85.15,1.23-.08,2.49-.59,3.61"/>
          <path class="cls-9" d="M28.18,18.83c-.1.22-.21.44-.36.64-.05.06-.1.13-.18.14-.07.02-.15-.02-.2-.07,0,.02-.99.83-1.09.9-.39.28-.78.55-1.19.8-.55.34-1.12.65-1.7.95-.29.15-.58.29-.87.43-.11.06-.26.1-.35.19-.12.12-.04.23,0,.36.03.08.04.18.03.27-.04.23-.23.4-.31.62,0,.02-.01.04-.02.06-.54.19-1.06.41-1.55.7-.11.06-.22.13-.33.2.05-.1.09-.2.14-.31.48-.98,1.02-1.95,1.84-2.65.96-.81,2.21-1.19,3.26-1.87.51-.32.98-.74,1.25-1.27.42-.84.3-1.84.48-2.76.05-.26.14-.54.09-.8-.02-.11-.07-.21-.13-.3.02-.08.03-.16.05-.24.07-.32.04-.79.3-1.03.17-.15.39-.15.59-.06.27.12.47.36.6.62.13.26.19.56.22.85.15,1.23-.08,2.49-.59,3.61"/>
          <path class="cls-28" d="M30.02,7.72c-.26.54-.54,1.2-.56,1.81-.02.57-.18,1.12-.32,1.68-.17.69-.31,1.38-.41,2.09-.05.35-.09.71-.12,1.07,0,.07-.02.16-.03.25-.04.18-.11.36-.26.44-.09.04-.19.06-.29.06-.27,0-.54-.08-.76-.25-.18-.13-.31-.31-.4-.52-.08-.19-.02-.38.01-.57.02-.12.05-.25.07-.38.02-.09.04-.18.06-.27.09-.44.2-.88.32-1.32.23-.86.46-1.8.89-2.6.36-.68,1.11-1.22,1.81-1.5"/>
          <path class="cls-32" d="M28.57,14.62c-.04.18-.11.36-.26.44-.09.04-.19.06-.29.06-.27,0-.54-.08-.76-.25-.18-.13-.31-.31-.39-.52-.08-.19-.02-.37.01-.57.02-.12.05-.25.07-.37,0,0,0,0,0,.01.1.24.27.44.47.61.24.21.53.35.84.46.1.03.2.07.3.12,0,0,.01,0,.02,0"/>
          <path class="cls-22" d="M38.51,45.66c-.11.32-.33.52-.6.7-.53.36-.76.99-1.23,1.43-.65.61-1.53.97-2.42.98-.1,0-.21,0-.31-.01-.23-.03-.46-.09-.64-.23-.21-.15-.38-.39-.3-.65.16-.54.57-1.02.94-1.43.35-.38.72-.75,1.05-1.16.25-.32.47-.66.67-1.01.07-.12.12-.23.18-.34.02-.04.03-.08.05-.12.05-.13.13-.26.27-.32.3-.14.72-.06,1.04-.05.22,0,.45,0,.65.11.38.19.59.71.69,1.1,0,0,0,.02,0,.03.08.32.07.66-.04.98"/>
          <path class="cls-22" d="M38.51,45.66c-.11.32-.33.52-.6.7-.53.36-.76.99-1.23,1.43-.65.61-1.53.97-2.42.98-.1,0-.21,0-.31-.01.32-.13.64-.29.95-.46.59-.32,1.19-.7,1.54-1.27.25-.39.36-.86.56-1.27.14-.29.34-.62.21-.92-.13-.28-.48-.36-.78-.42-.31-.06-.5-.15-.58-.47.02-.04.03-.08.05-.12.05-.13.13-.26.27-.32.3-.14.72-.06,1.04-.05.22,0,.45,0,.65.11.38.19.59.71.69,1.1,0,0,0,.02,0,.03.08.32.07.66-.04.98"/>
          <path class="cls-22" d="M29.62,46.08c-.1.44-.38.77-.76,1.01-.19.12-.42.17-.62.28-.2.12-.39.27-.54.46-.13.17-.22.36-.34.54-.15.22-.34.41-.54.6-.33.31-.69.6-1.1.79-.35.16-.73.26-1.11.24-.07,0-.15,0-.22-.02-.33-.06-.66-.24-.8-.55-.26-.56.08-1.19.46-1.59.62-.64,1.46-1.01,2.12-1.61.25-.23.47-.47.66-.75.1-.14.17-.29.25-.44t0,0c.09-.17.19-.33.33-.46.25-.23.55-.36.9-.27.25.07.41.24.6.4.42.39.83.75.68,1.38"/>
          <path class="cls-22" d="M29.62,46.08c-.1.44-.38.77-.76,1.01-.19.12-.42.17-.62.28-.2.12-.39.27-.54.46-.13.17-.22.36-.34.54-.15.22-.34.41-.54.6-.33.31-.69.6-1.1.79-.35.16-.73.26-1.11.24.93-.38,1.73-1.1,2.18-2,.16-.32.28-.66.48-.95.14-.19.3-.36.46-.53.12-.14.34-.29.21-.49-.05-.07-.12-.12-.19-.17-.05-.03-.11-.06-.17-.09-.04-.02-.08-.04-.12-.05-.07-.03-.14-.06-.2-.1-.12-.08-.19-.23-.19-.37,0-.06,0-.13.02-.2t0,0c.09-.17.19-.33.33-.46.25-.23.55-.36.9-.27.25.07.41.24.6.4.42.39.83.75.68,1.38"/>
          <path class="cls-23" d="M31.36,34.77c-.34,1.3-.6,2.62-.79,3.95-.16,1.1-.36,2.2-.59,3.29-.14.66-.52,2.56-.54,2.87,0,.03,0,.06-.01.08-.01.03-.04.06-.07.09-.18.17-.41.28-.65.34-.12.03-.25.06-.37.08-.26.04-.54.08-.8.02-.21-.05-.43-.18-.54-.39-.05-.1-.03-.23-.03-.34,0-.14-.04-1.65-.06-2.25-.06-1.45-.15-2.9-.23-4.35-.02-.45-.04-.9-.02-1.35,0-.11,0-.23,0-.34.04-1.72.27-3.46.42-5.18.11-1.2.22-2.4.34-3.6.05-.59.11-1.17.17-1.76.02-.23.07-.61.35-.65.21-.02.59.15.76.27.31.2.52.51.72.82.72,1.09,1.37,2.22,1.95,3.39.2.42.4.84.49,1.3.22,1.17-.22,2.57-.52,3.7"/>
          <path class="cls-23" d="M31.36,34.77c-.34,1.3-.6,2.62-.79,3.95-.16,1.1-.36,2.2-.59,3.29-.14.66-.52,2.56-.54,2.87,0,.03,0,.06-.01.08-.01.03-.04.06-.07.09-.18.17-.41.28-.65.34.09-.5.2-1.01.28-1.5.18-1.14.92-8,1.01-10.3.03-.9.05-1.79.07-2.69,0-.76.01-1.29-.67-1.76-.57-.4-1.48-.83-1.96-1.45.05-.59.11-1.17.17-1.76.02-.23.07-.61.35-.65.21-.02.59.15.76.27.31.2.52.51.72.82.72,1.09,1.37,2.22,1.95,3.39.2.42.4.84.49,1.3.22,1.17-.22,2.57-.52,3.7"/>
          <path class="cls-23" d="M38.43,41.4c-.07.52-.16,1.04-.23,1.55-.02.15-.04.29-.05.43-.01.1,0,.27-.04.35-.09.17-.47.27-.63.31-.03,0-.05.01-.08.02-.21.05-.42.08-.63.07-.24,0-.51-.04-.73-.13-.22-.1-.15-.28-.15-.49,0-.2-.62-2.33-.86-2.86-.48-1.01-.96-2.03-1.39-3.06-.39-.95-.72-1.96-1-2.95-.21-.75-.42-1.51-.63-2.27-.1-.33-.19-.67-.3-.99-.24-.68-.51-1.36-.75-2.04-.18-.5-.34-1-.47-1.51-.07-.28-.13-.56-.17-.85-.05-.3-.11-.81.11-1.07.25-.29.88-.34,1.23-.36.21-.01.42-.01.64,0,.26,0,.53.02.79.01.97-.02,1.95-.27,2.91-.1.36.06.73.2.97.48.25.29.31.69.36,1.07.18,1.55.16,3.13.04,4.69-.09,1.3-.56,2.98.06,4.21.53,1.04.95,2.16,1.09,3.33.09.71.03,1.44-.07,2.15"/>
          <path class="cls-23" d="M38.43,41.4c-.07.52-.16,1.04-.23,1.55-.02.15-.04.29-.05.43-.01.1,0,.27-.04.35-.09.17-.47.27-.63.31-.03,0-.05.01-.08.02.01-2.4-.36-4.8-1.1-7.08-.29-.91-.65-1.81-.72-2.77-.06-.77.08-1.55,0-2.32-.07-.77-.41-1.59-1.12-1.91-.5-.23-1.08-.17-1.63-.18-.63-.02-1.41-.07-1.9-.46-.18-.5-.34-1-.47-1.51.07-.58.35-1.14.75-1.54.3-.31.66-.55,1.06-.73.26,0,.53.02.79.01.97-.02,1.95-.27,2.91-.1.36.06.73.2.97.48.25.29.31.69.36,1.07.18,1.55.16,3.13.04,4.69-.09,1.3-.56,2.98.06,4.21.53,1.04.95,2.16,1.09,3.33.09.71.03,1.44-.07,2.15"/>
          <path class="cls-28" d="M38.37,12.93c-.04.54-.09,1.1-.18,1.64-.41,2.6-.67,5.22-.78,7.84-.06,1.39-.07,2.77-.05,4.17,0,.2,0,.42-.09.61-.08.15-.21.25-.35.35-1,.72-2.22,1.04-3.47,1.1-.57.03-1.15,0-1.71-.08-1.09-.15-2.17-.45-3.09-1.05-.41-.27-.81-.63-.98-1.1-.1-.28-.12-.58-.13-.87-.15-2.83-.29-5.65-.2-8.48.04-1.33.14-2.66.3-3.98.16-1.23.3-2.61.87-3.73,0,0,0-.01,0-.02.51-1,1.46-1.6,2.55-1.68.13,0,.26,0,.39,0,1.21.05,2.3.7,3.36,1.28.04.02.08.04.11.06.98.54,2,1.04,2.86,1.75.17.14.29.31.37.51.12.3.17.62.19.94.01.25,0,.5-.01.75"/>
          <path class="cls-28" d="M37.38,26.57c0,.21,0,.43-.09.61-.08.14-.21.25-.35.35-1,.72-2.22,1.05-3.47,1.1-.02-1.04-.04-2.08-.06-3.12-.03-2.27-.04-4.54.24-6.79.17-1.29.43-2.56.83-3.79.2-.6.86-3.18,1.78-2.66.2.11.33.3.42.5.25.52.28,1.1.3,1.67.11,2.66.09,5.33.43,7.97-.06,1.38-.07,2.77-.05,4.16"/>
          <path class="cls-32" d="M34.78,9.52c-.09.16-.23.29-.35.4-.57.5-1.25.87-1.96,1.07-.04.01-.09.03-.14.04-.26.07-.48.1-.7.1-.22,0-.42-.04-.6-.12-.25-.1-.42-.29-.47-.51-.05-.22.04-.49.1-.7.07-.21.16-.41.28-.6.23-.38.54-.7.91-.95.11-.08.23-.14.36-.2.2-.09.41-.15.63-.13.11,0,.22.08.32.12.12.05.23.1.35.16.46.22.9.47,1.34.71.05.19.05.38-.07.6"/>
          <path class="cls-9" d="M34.63,9.44c-.07.14-.19.25-.31.35-.55.48-1.2.83-1.9,1.03-.04.02-.09.03-.14.04-.39.1-.82.16-1.19,0-.17-.07-.33-.2-.37-.38-.05-.25.12-.47.11-.71,0-.01,0-.03,0-.04-.03-.21-.06-.47-.22-.64-.06-.06-.13-.09-.15-.18-.03-.12,0-.27.05-.37.07-.16.18-.29.3-.42.43-.43.96-.73,1.44-1.09.2-.15.4-.32.58-.5.2-.18.38-.38.55-.59.17-.2.32-.42.46-.64,0,.14.02.27.03.4.05.62.12,1.23.28,1.83.09.36.21.71.37,1.04.14.29.28.55.11.86"/>
          <path class="cls-9" d="M34.63,9.44c-.07.14-.19.25-.31.35-.55.48-1.2.83-1.9,1.03.19-.24.35-.5.48-.77.25-.53.35-1.14.25-1.72-.1-.56-.55-1.09-.36-1.69.01-.04.03-.08.05-.11.06-.12.15-.24.25-.34.09-.09.19-.18.3-.25.15-.1.32-.19.5-.24.05.62.12,1.23.28,1.83.09.36.21.71.37,1.04.14.29.28.55.11.86"/>
          <path class="cls-9" d="M34.75,4.99c-.02.29-.05.59-.18.85-.07.15-.19.3-.33.4-.14.09-.29.11-.44.19-.02.01-.28.1-.28.08-.01.3-.03.61-.1.91-.08.29-.22.58-.46.77-.13.11-.29.18-.44.25-.63.3-1.26.59-1.93.77-.21.05-.44.09-.63.02-.06-.02-.11-.05-.16-.09-.15-.11-.21-.3-.24-.49-.02-.17-.01-.36-.09-.51-.04-.07-.09-.13-.12-.21-.03-.1-.03-.2-.06-.29-.04-.09-.12-.16-.16-.25-.09-.19,0-.44-.13-.6-.06-.07-.16-.11-.22-.19-.09-.12-.06-.28-.03-.43.05-.24.11-.48.16-.72.04-.21-.01-.4-.1-.59-.05-.1-.11-.19-.13-.3-.02-.09-.01-.2,0-.29.08-.79.11-1.88.74-2.46.26-.24.6-.4.94-.5.49-.15,1.03-.17,1.52-.02.01,0,.02,0,.03,0,.48.16.9.51,1.09.97.18.44.11,1,.6,1.23.16.07.33.12.47.21.16.09.28.24.4.38.11.13.23.27.28.43.04.15.03.3.02.45"/>
          <path class="cls-9" d="M34.75,4.99c-.02.29-.05.59-.18.85-.07.15-.19.3-.33.4-.14.09-.29.11-.44.19-.02.01-.28.1-.28.08-.01.3-.03.61-.1.91-.08.29-.22.58-.46.77-.13.11-.29.18-.44.25-.63.3-1.26.59-1.93.77-.21.05-.44.09-.63.02.47-.32.89-.71,1.25-1.14.33-.39.61-.85.7-1.35.13-.79-.27-1.56-.63-2.28-.15-.3-.3-.61-.4-.93-.14-.41-.26-.98-.09-1.4.15-.36.57-.71.95-.79.05-.01.1-.02.15-.02.48.16.9.51,1.09.97.18.44.11,1,.6,1.23.16.07.33.12.47.21.16.09.28.24.4.38.11.13.23.27.28.43.04.15.03.3.02.45"/>
          <path class="cls-32" d="M35.12,4.58c-.05.25-.11.49-.2.73-.02.06-.29.63-.36.53-.01-.01,0-.03,0-.05.04-.19.08-.38.08-.58,0-.16-.04-.33-.12-.46-.27-.44-.81-.34-1.12-.02-.28.29-.31.71-.55,1.01-.03.04-.06.07-.11.07-.06,0-.11-.06-.13-.12-.04-.1-.06-.19-.08-.29-.07-.28-.15-.55-.25-.81-.08-.22-.23-.39-.42-.52-.12-.09-.26-.16-.35-.29-.22-.33.06-.79-.08-1.16-.1-.25-.37-.38-.65-.38-.09,0-.19,0-.28.03-.58.17-.94.84-1.58.84-.24,0-.49-.14-.57-.36-.02-.05-.03-.11-.03-.17,0-.02,0-.04,0-.07,0-.42.22-.75.46-1.08.29-.38.67-.68,1.09-.91,1.3-.73,2.72-.65,3.97.12,0,0,0,0,.01,0,.61.37,1.06.96,1.3,1.64.27.76.16,1.54,0,2.31"/>
          <path class="cls-8" d="M10.28,65.31l-.75-.43c-.25-.14-.4-.44-.4-.88,0-.29.07-.59.18-.89.24-.6.68-1.17,1.18-1.46.03-.02.07-.04.1-.05.36-.18.68-.17.91-.01l.7.4-.14.24c.02.1.04.21.04.34,0,.23-.04.48-.12.73-.22.66-.69,1.31-1.24,1.63,0,0,0,0-.01,0-.1.06-.2.1-.29.13l-.15.26Z"/>
          <path class="cls-26" d="M9.89,64.44c0-.87.61-1.92,1.37-2.36.76-.44,1.37-.09,1.37.78s-.61,1.92-1.37,2.36c-.75.44-1.37.09-1.37-.78"/>
          <path class="cls-19" d="M10.64,65.19c-.34,0-.54-.28-.54-.75,0-.78.58-1.78,1.26-2.17.18-.1.36-.16.51-.16.34,0,.54.28.54.75,0,.78-.58,1.78-1.26,2.17-.18.1-.36.16-.51.16"/>
          <path class="cls-8" d="M1.15,60.04l-.75-.43c-.25-.14-.4-.44-.4-.88,0-.29.07-.59.18-.89.24-.6.68-1.17,1.18-1.46.03-.02.07-.04.1-.05.36-.18.68-.17.91-.01l.7.4-.14.24c.02.1.04.21.04.34,0,.23-.04.48-.12.73-.22.66-.69,1.31-1.24,1.63,0,0,0,0-.01,0-.1.06-.2.1-.29.13l-.15.26Z"/>
          <path class="cls-26" d="M.76,59.17c0-.87.61-1.92,1.37-2.36.75-.44,1.37-.09,1.37.78s-.61,1.92-1.37,2.36c-.75.44-1.37.09-1.37-.78"/>
          <path class="cls-19" d="M1.51,59.92c-.34,0-.54-.28-.54-.75,0-.78.58-1.78,1.26-2.17.18-.1.36-.16.51-.16.34,0,.54.28.54.75,0,.78-.58,1.78-1.26,2.17-.18.1-.36.16-.51.16"/>
          <path class="cls-8" d="M19.56,25.67l3.45-1.94c.1-.06.16-.18.16-.36,0-.12-.03-.24-.07-.36-.1-.24-.28-.48-.48-.59-.01,0-.03-.02-.04-.02-.15-.07-.28-.07-.37,0l-3.43,1.93.06.1s-.02.09-.02.14c0,.1.02.2.05.29.09.27.28.53.5.66,0,0,0,0,0,0,.04.02.08.04.12.05l.06.1Z"/>
          <path class="cls-9" d="M20.17,25.26s-.03.06-.05.09c-.02.02-.04.05-.03.07,0,.02.03.04.05.04.13.05.28.04.41-.03.05-.03.11-.09.17-.1.06,0,.12,0,.18,0,.13-.02.26-.06.35-.15.02-.02.03-.03.05-.04.02-.01.05-.01.07-.02.16-.03.29-.16.31-.32,0-.02,0-.04.02-.05.01-.02.03-.02.05-.03.08-.03.17-.07.22-.14.07-.08.09-.19.07-.3-.01-.1-.05-.2-.1-.3-.07-.16-.18-.32-.35-.35-.13-.02-.26.04-.35.14-.1-.08-.25-.05-.34.03-.09.08-.13.21-.15.33-.17,0-.35.08-.46.21.01-.06-.04-.13-.1-.13-.03,0-.05,0-.08.02-.09.05-.1.18-.07.28.03.09.08.17.11.26.03.09.05.2.05.3,0,.07,0,.14-.03.2"/>
          <path class="cls-26" d="M19.72,25.31c0-.35-.25-.78-.55-.95-.3-.18-.55-.04-.55.32s.25.78.55.95c.31.18.55.04.55-.32"/>
          <path class="cls-2" d="M2.31,59.65l-.78-.37L17.69,25.37l1.05-.6c.21-.12.47-.04.59.16s.04.47-.16.59l-.82.46L2.31,59.65Z"/>
          <rect class="cls-2" x="8.5" y="51.9" width=".86" height="10.5" transform="translate(-45.02 36.29) rotate(-59.98)"/>
          <rect class="cls-2" x="13.97" y="39.09" width=".86" height="13.34" transform="translate(-19.94 12.26) rotate(-28.24)"/>
          <path class="cls-19" d="M25.09,35.81l-2.31,12.69c-.51,2.78-2.21,5.19-4.65,6.61l-3.24,1.87-9.36-5.42,3.24-1.87c2.45-1.41,4.15-3.83,4.66-6.61l2.31-12.68,9.36,5.42Z"/>
          <polygon class="cls-8" points="16.49 56.05 15.49 56.63 6.11 51.22 7.11 50.64 16.49 56.05"/>
          <path class="cls-8" d="M20.26,53.44c-.24.25-.5.49-.76.71l-9.37-5.41c.27-.22.53-.46.76-.71l9.37,5.41Z"/>
          <path class="cls-8" d="M22.42,49.88c-.11.32-.23.63-.37.94l-9.37-5.41c.14-.3.27-.62.38-.94l9.36,5.41Z"/>
          <polygon class="cls-8" points="23.31 45.6 23.12 46.64 13.76 41.24 13.95 40.19 23.31 45.6"/>
          <polygon class="cls-8" points="24.1 41.25 23.91 42.3 14.55 36.89 14.74 35.85 24.1 41.25"/>
          <polygon class="cls-8" points="24.89 36.91 24.7 37.96 15.34 32.55 15.53 31.51 24.89 36.91"/>
          <path class="cls-25" d="M18.52,54.87c-.12.08-.25.16-.39.24l-.1.06-9.38-5.42.12-.07c.12-.07.25-.15.37-.23l9.37,5.41Z"/>
          <path class="cls-25" d="M21.51,51.83c-.09.14-.18.28-.27.42l-9.37-5.41c.1-.14.19-.27.28-.42l9.37,5.41Z"/>
          <polygon class="cls-25" points="22.9 47.87 22.81 48.39 13.44 42.99 13.54 42.46 22.9 47.87"/>
          <polygon class="cls-25" points="23.68 43.56 23.59 44.08 14.23 38.67 14.32 38.15 23.68 43.56"/>
          <polygon class="cls-25" points="24.47 39.24 24.37 39.77 15.01 34.36 15.11 33.84 24.47 39.24"/>
          <path class="cls-2" d="M25.09,35.81l-2.31,12.69c-.51,2.78-2.21,5.19-4.65,6.61l-3.24,1.87s6.27-5.97,10.2-21.17"/>
          <path class="cls-2" d="M15.73,30.39l-2.31,12.69c-.51,2.78-2.21,5.19-4.65,6.61l-3.24,1.87s6.27-5.97,10.2-21.17"/>
          <path class="cls-8" d="M24.93,57.24l-.75-.43c-.25-.14-.4-.44-.4-.88,0-.29.07-.59.18-.89.24-.6.68-1.17,1.18-1.46.03-.02.07-.04.1-.05.36-.18.68-.17.91-.01l.7.4-.14.24c.02.1.04.21.04.34,0,.23-.04.48-.12.73-.22.66-.69,1.31-1.24,1.63,0,0,0,0-.01,0-.1.06-.2.1-.29.13l-.15.26Z"/>
          <path class="cls-26" d="M24.54,56.37c0-.87.61-1.92,1.37-2.36.75-.44,1.37-.09,1.37.78s-.61,1.92-1.37,2.36c-.75.44-1.37.09-1.37-.78"/>
          <path class="cls-19" d="M25.29,57.12c-.34,0-.54-.28-.54-.75,0-.78.58-1.78,1.26-2.17.18-.1.36-.16.51-.16.34,0,.54.28.54.75,0,.78-.58,1.78-1.26,2.17-.18.1-.36.16-.51.16"/>
          <path class="cls-8" d="M28.86,31.03l3.45-1.94c.1-.06.16-.18.16-.36,0-.12-.03-.24-.08-.36-.1-.24-.27-.48-.48-.59-.01,0-.03-.02-.04-.02-.15-.07-.28-.07-.37,0l-3.43,1.93.06.1s-.02.09-.01.14c0,.1.02.2.05.29.09.27.28.53.5.66,0,0,0,0,0,0,.04.02.08.04.12.05l.06.1Z"/>
          <path class="cls-26" d="M29.02,30.68c0-.35-.25-.78-.55-.95-.31-.18-.55-.04-.55.32s.25.78.55.95c.31.18.55.04.55-.32"/>
          <path class="cls-1" d="M15,49.75c-.1.25-.28.42-.43.63-.12.18-.24.28-.45.38-.53.25-1.19.34-1.76.3-.52-.04-1.06.09-1.5.37-.47.29-.83.74-1.15,1.2-.21.29-.37.6-.52.91-.12.25-.22.5-.32.76-.13.33-.01.68-.25.96-.2.24-.53.41-.84.43-.43,0-.75-.33-1.14-.46-.35-.11-.73-.06-1.1-.12-.02,0-.04,0-.07-.02-.15-.02-.3-.07-.44-.15-.03-.02-.05-.03-.08-.05-.1-.06-.2-.13-.28-.21-.1-.1-.19-.22-.23-.36-.14-.41.08-.89.43-1.14.4-.29.93-.33,1.4-.24.03,0,.06,0,.09.02.08.02.16.03.23,0,.01,0,.02,0,.03,0,.02,0,.04-.02.05-.03.04-.03.06-.08.09-.12.47-.73.86-1.52,1.26-2.28.09-.19.19-.37.27-.55.07-.17.2-.29.32-.43.29-.33.59-.66.9-.98.17-.18.34-.35.53-.49.14-.1.29-.19.44-.28.28-.18.56-.34.83-.54.3-.21.61-.42.97-.5.5-.12,1.15.06,1.54.38.18.13.27.31.41.48.13.14.32.25.45.4.13.15.24.31.32.48.03.07.06.15.08.23.08.34.06.71-.08,1.02"/>
          <g class="cls-24">
            <g class="cls-33">
              <g class="cls-14">
                <path class="cls-31" d="M9.19,53.54c-.12.25-.22.5-.32.76-.13.33-.01.68-.25.96-.2.24-.53.41-.84.43-.43.01-.75-.33-1.14-.46-.35-.11-.73-.06-1.1-.12-.02,0-.04,0-.07-.02-.15-.02-.3-.07-.44-.14-.03-.02-.05-.03-.08-.05-.1-.06-.2-.13-.28-.21.21.09.44.15.67.16.46.03.92-.09,1.38-.04.21.02.41.08.62.1.21.02.43-.02.59-.16.2-.18.24-.49.15-.74-.09-.25-.28-.46-.49-.62-.12-.09-.24-.18-.36-.27-.09-.07-.2-.15-.22-.27-.04-.29.34-.34.54-.33.29.01.59.06.86.19.34.18.62.48.78.83"/>
              </g>
            </g>
          </g>
          <path class="cls-29" d="M13.29,50.78c-.03.11-.12.18-.22.23-.48.28-1.08.24-1.61.39-.51.15-.96.49-1.3.9-.35.41-.61.88-.85,1.36-.05.11-.1.23-.17.33-.03.05-.14.35-.26.24-.03-.03-.04-.13-.06-.16-.05-.11-.11-.21-.19-.31-.08-.11-.18-.2-.29-.29-.08-.06-.16-.12-.25-.18-.25-.16-.52-.28-.81-.33-.16-.03-.33-.03-.49-.07-.16-.04-.08-.2-.02-.31.6-1.36,1.36-2.71,2.36-3.81.07-.08.14-.15.22-.23.47-.46,1.02-.82,1.57-1.18.56-.36,1.12-.73,1.7-1.06-.04.29.1.47.2.72.1.25.14.56.19.82.04.26.07.53.09.79,0,.03,0,.07,0,.1.04.6.04,1.2.16,1.78.02.08.04.18.01.26"/>
          <g class="cls-24">
            <g class="cls-27">
              <g class="cls-18">
                <path class="cls-29" d="M13.29,50.78c-.03.11-.12.18-.22.23-.48.28-1.08.24-1.61.39-.51.15-.96.49-1.3.9-.35.41-.61.88-.85,1.36-.05.11-.1.23-.17.33-.03.05-.14.35-.26.24-.03-.03-.04-.13-.06-.16-.05-.11-.11-.21-.19-.31-.08-.11-.18-.2-.29-.29.28-.77.64-1.51,1.16-2.13.84-1.01,2.02-1.66,3.13-2.37.16-.1.32-.21.47-.32,0,.03,0,.07,0,.1.04.6.04,1.2.16,1.78.02.08.04.18.01.26"/>
              </g>
            </g>
          </g>
          <path class="cls-9" d="M14.56,41.7c-.07.17-.15.35-.23.52,0,0,0,0,0,.01-.05.1-.08.21-.15.31-.19.25-.45.43-.73.58-.46.25-.94.34-1.42.29-.26-.03-.53-.1-.79-.21-.34-.15-.65-.35-.93-.59-.13-.11-.22-.25-.28-.39-.12-.31-.1-.66,0-.99.08-.29.2-.57.3-.85.09-.26.16-.53.2-.8.03-.15.12-.26.21-.38.07-.09.15-.12.27-.15.09-.02.19-.03.28-.01.13.02.25.07.36.15.13.09.2.2.25.33.09.21.1.45.12.67.02.17.02.33.02.51,0,.1-.06.35.02.42.02.02.06.03.09.04h0s.04,0,.07,0c.03,0,.06,0,.1,0h0c.26,0,.52-.05.79-.07.34-.03.68-.03,1.02,0,.14.01.28.03.4.09.04.02.08.04.1.07.07.12,0,.33-.06.44"/>
          <path class="cls-13" d="M12.52,42.48c-.12.31-.29.61-.47.88-.01.01-.02.03-.03.04-.26-.03-.53-.1-.79-.21-.34-.15-.65-.35-.93-.59-.13-.12-.22-.25-.28-.39.08.03.16.06.24.08.33.09.73.02.96-.24.12-.14.19-.31.29-.46.11-.16.26-.28.43-.37.07-.04.13-.06.2-.07h0s.1,0,.17,0h0s.06.01.1.03c.05.01.1.04.14.07.06.06.08.15.1.23.05.33,0,.67-.12.99"/>
          <path class="cls-29" d="M14.67,41.15c-.03.23-.03.47-.08.69-.04.22-.12.43-.23.62-.1.17-.21.34-.33.51-.09.13-.25.19-.4.24-.16.06-.31.11-.48.15-.29.08-.59.14-.89.15-.22,0-.47,0-.68-.06-.19-.05-.17-.26-.19-.43-.02-.19-.02-.39.02-.58,0-.01,0-.02,0-.04.02-.09.04-.18.06-.26.09-.28.23-.54.4-.77.07-.09.15-.19.24-.27.04-.03.08-.06.12-.08.03-.01.07-.01.1-.02.75-.05,1.5-.02,2.25.08.02,0,.05,0,.06.03,0,.01,0,.03,0,.04"/>
          <g class="cls-24">
            <g class="cls-5">
              <g class="cls-16">
                <path class="cls-29" d="M13.61,41.87c-.15.5-.3.99-.46,1.49-.29.08-.59.13-.89.15-.22,0-.47,0-.68-.06-.19-.05-.17-.26-.19-.43-.02-.19-.02-.39.02-.58,0-.01,0-.02,0-.04.02,0,.04,0,.06,0,.27.02.53,0,.8-.06.46-.09.94-.2,1.33-.47"/>
              </g>
            </g>
          </g>
          <path class="cls-9" d="M10.43,40.57c.05.06.11.12.19.14.05,0,.1,0,.16,0,.13,0,.25.08.37.14.12.07.26.12.38.07.07-.03.11-.08.16-.14.08-.1.16-.2.21-.31.04-.1.05-.21.06-.31.02-.2.05-.4.02-.6-.01-.06-.03-.13-.06-.18-.04-.05-.1-.09-.16-.09,0-.09-.02-.19-.09-.26-.06-.07-.16-.11-.25-.1-.02,0-.05,0-.07,0-.01,0-.02-.02-.03-.04-.05-.09-.14-.17-.23-.15-.05.01-.1.05-.15.06-.05,0-.1-.01-.15-.01-.11,0-.21.07-.29.15-.03.04-.06.08-.1.1-.03.02-.06.03-.08.05-.12.08-.18.23-.19.37,0,.11.02.22.05.32.03.09.01.17.02.26.03.2.1.38.22.54"/>
          <path class="cls-21" d="M11.57,39.75c-.02.08,0,.16-.02.24-.01.13-.09.25-.12.37-.02.08-.03.16.02.23.04.05.1.07.17.07.06,0,.12-.04.16-.09.06-.07.09-.16.11-.25.01-.09,0-.18,0-.27,0-.07-.01-.15-.02-.22,0-.08-.04-.17-.12-.2-.08-.02-.15.06-.17.13"/>
          <path class="cls-21" d="M10.21,39.85c.06.05.17.04.2-.03.07.09.21.11.3.04.07-.06.1-.16.12-.25.05.08.17.09.23.02.02-.02.03-.04.05-.05.03-.02.06-.02.1-.03.03,0,.07-.02.09-.04.03-.03.03-.06.07-.07.03,0,.07,0,.09.03.03.02.05.05.08.06s.07.02.1,0c.03-.01.04-.05.05-.08.03-.11.06-.28.02-.39-.02-.07-.09-.14-.17-.13-.03,0-.05,0-.07,0-.06,0-.09-.07-.13-.11-.06-.07-.16-.12-.25-.12-.09,0-.19.05-.25.12-.08-.07-.2-.08-.3-.04-.1.04-.17.13-.18.24,0,.03,0,.06-.02.08-.01.02-.04.02-.06.03-.09.04-.15.13-.17.22-.03.14-.03.39.1.48"/>
          <path class="cls-1" d="M17.03,52.44c-.29.21-.65.42-.98.54-.3.1-.56.26-.83.44-.56.4-1.07.86-1.51,1.39-.14.18-.28.35-.4.55-.13.21-.25.42-.33.65-.07.2-.12.41-.14.63-.02.22-.03.43-.18.61-.2.24-.53.41-.84.43-.43,0-.75-.33-1.14-.46-.35-.11-.73-.06-1.1-.12-.02,0-.05,0-.07-.02-.15-.02-.3-.07-.44-.15-.03-.02-.05-.03-.08-.05-.21-.12-.39-.29-.49-.51,0-.02-.02-.04-.03-.06-.14-.42.08-.89.44-1.14.4-.28.93-.33,1.4-.23.03,0,.06,0,.09.02.09.03.17.01.25-.02.11-.06.2-.16.25-.27.06-.12.12-.24.19-.35.09-.16.17-.31.25-.46.33-.59.65-1.19.96-1.8.07-.12.12-.24.19-.37.13-.24.28-.48.46-.68.03-.02.05-.06.08-.09.24-.27.52-.51.82-.73.11-.07.22-.14.33-.21.29-.18.58-.34.86-.52.37-.25.72-.55,1.15-.68.42-.13.85-.18,1.28-.27.5-.1.86,0,.97.54.28,1.31-.35,2.64-1.43,3.39"/>
          <g class="cls-24">
            <g class="cls-3">
              <g class="cls-4">
                <path class="cls-31" d="M13.31,55.36c-.13.21-.25.42-.33.65-.07.2-.12.42-.15.63-.02.22-.03.43-.17.61-.2.24-.53.41-.84.43-.43,0-.74-.33-1.14-.46-.35-.11-.73-.06-1.1-.12-.02,0-.05,0-.07-.02-.15-.02-.3-.07-.44-.15-.03-.02-.05-.03-.08-.05-.21-.12-.39-.29-.49-.51.34.27.81.33,1.24.26.28-.04.57-.14.84-.06.1.03.2.08.3.11.17.05.36.03.53-.03.11-.04.22-.1.3-.19.1-.12.13-.3.13-.46,0-.43-.19-.68-.59-.8-.04-.01-.09-.02-.14-.03-.1-.02-.21-.04-.31-.09-.07-.03-.13-.08-.16-.15.11-.06.2-.16.25-.27.06-.12.12-.24.19-.35.06-.02.13-.03.19-.04.47-.06.96.04,1.35.3.29.19.53.47.67.79"/>
              </g>
            </g>
          </g>
          <path class="cls-29" d="M18.57,50.13c-.07.52-.26,1.04-.56,1.48-.39.58-.95,1.03-1.53,1.39-.66.41-1.37.76-1.97,1.26-.28.23-.54.49-.77.77-.12.14-.23.29-.33.44-.1.15-.17.32-.27.47-.01.02-.03.04-.06.04-.03,0-.04-.03-.06-.05-.08-.14-.22-.24-.35-.34-.16-.12-.32-.24-.49-.35-.21-.13-.43-.24-.67-.3-.2-.05-.39-.06-.6-.07-.04,0-.12,0-.13-.05-.02-.06.04-.13.07-.18.04-.08.08-.17.12-.26.11-.23.24-.46.36-.7.18-.35.35-.7.55-1.04.21-.36.42-.73.66-1.07-.03,0-.05-.02-.08-.03-.2-.12-.25-.38-.23-.6.03-.37.2-.72.3-1.08.11-.37.17-.81.09-1.18-.13-.53-.52-.92-.82-1.35-.09-.13-.07-.18.02-.31.23-.33.41-.7.54-1.08-.07.19.17.58.3.71.22.22.56.33.83.48.44.24.9.44,1.37.63.15.06.32.13.48.19.36.18.84.29,1.24.34.15.02.33.06.48.05.13-.01.26-.06.39-.1.09-.03.17-.06.25-.08.12-.03.31,0,.39-.1.07-.1.14-.22.2-.33.09.29.16.58.2.88.04.3.1.57.12.85.02.22.02.45-.01.68"/>
          <g class="cls-24">
            <g class="cls-17">
              <g class="cls-6">
                <path class="cls-29" d="M18.57,50.13c-.07.52-.26,1.04-.56,1.48-.39.58-.95,1.03-1.53,1.39-.66.41-1.37.76-1.97,1.26-.28.23-.54.49-.77.77-.12.14-.23.29-.33.44-.1.15-.17.32-.27.47-.01.02-.03.04-.06.04-.03,0-.04-.03-.06-.05-.08-.14-.22-.24-.35-.34-.16-.12-.32-.24-.49-.35.12-.29.26-.56.44-.82,1.01-1.49,2.87-2.2,3.93-3.65.2-.27.37-.56.5-.87.22-.5.34-1.04.38-1.59,0-.03,0-.06,0-.09.09-.03.17-.06.25-.08.12-.03.31,0,.39-.1.07-.1.14-.22.2-.33.09.29.16.58.2.88.04.3.1.57.12.85.02.22.02.45-.01.68"/>
              </g>
            </g>
          </g>
          <path class="cls-12" d="M19.23,45c-.04.07-.08.14-.12.21-.21.38-.4.76-.53,1.18-.11.38-.15.76-.16,1.15-.01.32.14.66-.17.86-.28.18-.61.25-.93.29-.68.1-1.38.1-2.06,0-.11-.02-.22-.03-.33-.05-.47-.09-.93-.24-1.35-.45-.52-.27-.99-.65-1.32-1.14-.14-.2-.1-.39-.08-.62.03-.33.08-.64.11-.96.09-.93.29-1.85.5-2.76.16-.69.28-1.42,1.1-1.6.24-.05.49-.04.74-.01.74.07,1.47.21,2.18.41.56.15,1.11.35,1.6.65.4.24,1.07.72,1.22,1.21,0,.02.01.05.02.07.1.52-.17,1.14-.43,1.58"/>
          <g class="cls-24">
            <g class="cls-7">
              <g class="cls-10">
                <path class="cls-29" d="M19.11,45.21c-.21.38-.4.76-.53,1.18-.11.37-.15.76-.16,1.15,0,.32.14.66-.17.86-.28.18-.61.25-.93.29-.68.1-1.38.1-2.06,0-.11-.02-.22-.03-.33-.05.07-.39.17-.78.29-1.17.15-.54.33-1.07.59-1.56.16-.3.36-.59.58-.86.4-.49.87-.91,1.36-1.31.18-.15.37-.36.63-.29.31.09.49.38.59.66.12.35.15.73.13,1.1"/>
              </g>
            </g>
          </g>
          <path class="cls-9" d="M17.97,42.12c-.01.07-.05.14-.09.2-.08.12-.19.23-.32.29-.21.11-.45.15-.68.17-.27.02-.54,0-.8-.03-.05,0-.1-.02-.16-.03-.4-.08-.8-.24-1.08-.54-.02-.02-.04-.04-.06-.06-.11-.13-.19-.31-.15-.47.02-.08.05-.17.09-.25.03-.06.06-.12.09-.17.05-.11.07-.26.18-.32.18-.11.37,0,.53.08.23.12.46.23.7.31.37.12.75.18,1.13.17.21,0,.42-.04.58-.16-.03.19-.07.39-.02.58.02.08.06.16.05.24"/>
          <path class="cls-13" d="M17.97,42.12c-.01.07-.05.14-.09.2-.08.12-.19.23-.32.29-.21.11-.45.15-.68.17-.27.02-.54,0-.8-.03-.05,0-.1-.02-.16-.03.03-.04.06-.09.07-.14.03-.18-.12-.33-.28-.42-.23-.13-.5-.2-.71-.37-.11-.1-.22-.24-.28-.39.03-.06.06-.12.09-.17.05-.11.07-.26.18-.32.18-.11.37,0,.53.08.23.12.46.23.7.31.37.12.75.18,1.13.17.21,0,.42-.04.58-.16-.03.19-.07.39-.02.58.02.08.06.16.05.24"/>
          <path class="cls-9" d="M19.49,39.09c-.04.12-.07.25-.11.36-.09.27-.16.53-.27.78-.04.09-.08.18-.07.28,0,.05.01.1.02.15.02.2-.08.38-.2.54-.04.05-.09.11-.15.13-.06.03-.14.04-.19,0,0-.01-.02-.03-.04-.03-.02,0-.04.02-.05.03-.11.21-.22.38-.41.51-.18.12-.37.21-.58.27-.35.1-.71.13-1.08.1-.06,0-.12-.01-.19-.02-.22-.03-.43-.09-.62-.2-.16-.1-.3-.23-.42-.36-.12-.14-.24-.29-.32-.46-.23-.51-.26-1.2-.02-1.7.14-.28.14-.65.2-.95.06-.31.13-.63.26-.92.09-.21.24-.4.39-.56.21-.22.46-.4.73-.53.24-.11.49-.19.75-.24.34-.05.69-.05,1.03.04.05.01.11.03.16.05.47.14.83.48,1.05.93.27.56.31,1.21.12,1.8"/>
          <path class="cls-9" d="M19.49,39.09c-.04.12-.07.25-.11.36-.09.27-.16.53-.27.78-.04.09-.08.18-.07.28,0,.05.01.1.02.15.02.2-.08.38-.2.54-.04.05-.09.11-.15.13-.06.03-.14.04-.19,0,0-.01-.02-.03-.04-.03-.02,0-.04.02-.05.03-.11.21-.22.38-.41.51-.18.12-.37.21-.58.27-.35.1-.71.13-1.08.1.87-.56,1.46-1.54,1.7-2.56.15-.68.16-1.41-.14-2.04-.12-.25-.29-.47-.49-.65-.18-.15-.39-.28-.61-.35-.13-.04-.3-.03-.42-.1.24-.11.49-.19.75-.24.34-.05.69-.05,1.03.04.05.01.11.03.16.05.47.14.83.48,1.05.93.27.56.31,1.21.12,1.8"/>
          <path class="cls-2" d="M11.59,64.99l-.78-.37L26.97,30.71l1.14-.62c.21-.12.47-.04.59.16s.04.47-.16.59l-.9.49-16.04,33.67Z"/>
          <path class="cls-21" d="M14.06,48.81c-.06.05-.13.08-.21.08-.07,0-.14-.05-.22-.06-.14-.01-.3,0-.41-.09-.07-.07-.09-.18-.05-.27.04-.09.14-.14.24-.13.05,0,.1.03.15.03.12.01.21-.07.32-.08.11,0,.22-.02.33-.01.03,0,.07,0,.09.03.04.03.05.08.04.13,0,.05-.03.09-.06.13-.06.09-.14.18-.22.25"/>
          <rect class="cls-2" x="12.56" y="42.96" width=".86" height="11.23" transform="translate(-35.56 35.48) rotate(-59.93)"/>
          <path class="cls-9" d="M20.02,44.79c-.02.28-.07.56-.14.84,0,.03-.01.05-.02.08-.12.46-.33.9-.6,1.29-.26.36-.54.65-.89.93-.73.57-1.55,1.02-2.39,1.39-.2.08-.43.14-.61.27-.15.11-.2.31-.23.48-.01.08-.03.17-.1.22-.05.03-.11.03-.16.02-.08-.01-.16-.02-.23-.05-.04,0-.07-.02-.11-.03-.09-.04-.18-.1-.27-.13-.04,0-.08,0-.11,0-.2,0-.4-.12-.48-.31-.01-.02-.02-.05-.04-.06-.02-.02-.05-.03-.08-.03-.09-.02-.2-.04-.26-.12-.12-.17.03-.43.13-.57.28-.38.68-.65,1.1-.88.37-.2.7-.48,1.04-.73l.9-.68c.26-.2.46-.42.67-.68.12-.15.24-.31.35-.48.21-.31.38-.64.51-.99.02-.06.04-.12.06-.18.09-.29.09-.61.24-.88.14-.25.43-.49.72-.54.53-.09.87.41.96.87.03.16.05.32.06.48,0,.16,0,.32-.01.49"/>
          <path class="cls-9" d="M20.02,44.79c-.02.28-.07.56-.14.84,0,.03-.01.05-.02.08-.12.46-.33.9-.6,1.29-.26.36-.54.65-.89.93-.73.57-1.55,1.02-2.39,1.39-.2.08-.43.14-.61.27-.15.11-.2.31-.23.48-.01.08-.03.17-.1.22-.05.03-.11.03-.16.02-.08-.01-.16-.02-.23-.05,0-.05,0-.11.01-.16.03-.28.08-.56.23-.81.13-.22.33-.39.53-.53.48-.34,1.03-.57,1.54-.86.51-.29,1.01-.65,1.29-1.17.08-.15.15-.35.04-.5-.16-.22-.5-.28-.68-.49-.06-.06-.09-.13-.12-.2.21-.31.38-.64.51-.99.38-.23.86-.2,1.28-.09.27.07.53.17.75.33"/>
          <path class="cls-29" d="M20.11,44.96c-.03.19,0,.44-.15.59-.07.07-.16.11-.25.15-.28.11-.59.17-.9.15-.08,0-.17-.01-.25-.03-.07-.01-.14-.03-.2-.05-.31-.09-.59-.25-.82-.48-.04-.04-.07-.07-.08-.12,0-.04,0-.08,0-.11.03-.16.08-.31.11-.47.05-.35.18-.68.36-.99.12-.21.28-.4.49-.53.08-.05.17-.08.27-.12.1-.03.2-.06.31-.07,0,0,.02,0,.02,0,.3-.01.6.14.8.38.2.23.3.54.33.84.03.28.01.57-.04.85"/>
          <g class="cls-24">
            <g class="cls-20">
              <g class="cls-30">
                <path class="cls-29" d="M20.11,44.96c-.03.19,0,.44-.15.59-.07.07-.16.11-.25.15-.28.11-.59.17-.9.15.42-.71.51-1.59.36-2.41-.03-.19-.1-.34-.17-.52,0-.01,0-.02-.01-.03,0,0,.02,0,.02,0,.3-.01.6.14.8.38.2.23.3.54.33.84.03.28.01.57-.04.85"/>
              </g>
            </g>
          </g>
          <rect class="cls-2" x="23.25" y="44.43" width=".86" height="13.34" transform="translate(-21.36 17.29) rotate(-28.24)"/>
          <path class="cls-8" d="M11.8,66.2l-.75-.43c-.25-.14-.4-.44-.4-.88,0-.29.07-.59.18-.89.24-.6.68-1.17,1.18-1.47.03-.02.07-.04.1-.05.36-.18.68-.17.91-.01l.7.4-.14.24c.02.1.04.21.04.34,0,.23-.04.48-.12.73-.22.66-.69,1.31-1.24,1.63,0,0,0,0-.01,0-.1.06-.2.1-.29.13l-.15.26Z"/>
          <path class="cls-26" d="M11.41,65.32c0-.87.61-1.92,1.37-2.36.76-.44,1.37-.09,1.37.78s-.61,1.92-1.37,2.36c-.75.44-1.37.09-1.37-.78"/>
          <path class="cls-19" d="M12.16,66.08c-.34,0-.54-.28-.54-.75,0-.78.58-1.78,1.26-2.17.18-.1.36-.16.51-.16.34,0,.54.28.54.75,0,.78-.58,1.78-1.26,2.17-.18.1-.36.16-.51.16"/>
          <path class="cls-8" d="M26.46,58.12l-.75-.43c-.25-.14-.4-.44-.4-.88,0-.29.07-.59.18-.89.24-.6.68-1.17,1.18-1.46.03-.02.07-.04.1-.05.36-.18.68-.17.91-.01l.7.4-.14.24c.02.1.04.22.04.34,0,.23-.04.48-.12.73-.22.66-.69,1.31-1.24,1.63,0,0,0,0-.01,0-.1.06-.2.1-.29.13l-.15.26Z"/>
          <path class="cls-26" d="M26.06,57.25c0-.87.61-1.92,1.37-2.36.75-.44,1.37-.09,1.37.78s-.61,1.92-1.37,2.36c-.75.44-1.37.09-1.37-.78"/>
          <path class="cls-19" d="M26.82,58c-.34,0-.54-.28-.54-.75,0-.78.58-1.78,1.26-2.17.18-.1.36-.16.51-.16.34,0,.54.28.54.75,0,.78-.58,1.78-1.26,2.17-.18.1-.36.16-.51.16"/>
          <path class="cls-8" d="M2.68,60.92l-.75-.43c-.25-.14-.4-.44-.4-.88,0-.29.07-.59.18-.89.24-.6.68-1.17,1.18-1.46.03-.02.07-.04.1-.05.36-.18.68-.17.91-.01l.7.4-.14.24c.02.1.04.22.04.34,0,.23-.04.48-.12.73-.22.66-.69,1.31-1.24,1.63,0,0,0,0-.01,0-.1.06-.2.1-.29.13l-.15.26Z"/>
          <path class="cls-26" d="M2.28,60.05c0-.87.61-1.92,1.37-2.36.75-.44,1.37-.09,1.37.78s-.61,1.92-1.37,2.36c-.75.43-1.37.09-1.37-.78"/>
          <path class="cls-19" d="M3.04,60.8c-.34,0-.54-.28-.54-.75,0-.78.58-1.78,1.26-2.17.18-.1.36-.16.51-.16.34,0,.54.28.54.75,0,.78-.58,1.78-1.26,2.17-.18.1-.36.16-.51.16"/>
          <path class="cls-8" d="M19.04,37.14l5.02-.41c.26-.02.49-.17.61-.4l1.83-3.3-7.89,1.33.42,2.79Z"/>
          <path class="cls-25" d="M16.99,27.55l-7.12,4.01c-.18.1-.18.35,0,.45l8.73,5.03c.24.14.53.14.76,0l7.14-4.02-9.51-5.48Z"/>
          <path class="cls-9" d="M37.97,21.72c-.12.58-.3,1.1-.66,1.58-.42.55-3,3.66-3.39,4.06-.21.22-.41.45-.59.69-.16.22-.36.45-.49.68-.14.25-.29.51-.35.79-.06.25-.2.54-.39.71-.09.08-.2.15-.31.21-.53.27-1.13.4-1.72.36-.17-.01-.35-.03-.52-.07-.02,0-.05-.01-.06-.03,0-.02,0-.04.01-.06.1-.17.24-.31.36-.47.2-.26.34-.53.36-.86,0-.03,0-.07,0-.1-.01-.04-.03-.08-.05-.11-.07-.11-.23-.21-.37-.22-.16-.01-.38.14-.51.21-.08.05-.37.23-.46.14-.05-.06,0-.21.01-.27.04-.13.12-.25.2-.36.2-.3.57-.53.88-.7.6-.33,1.27-.52,1.89-.82.23-.11.45-.24.6-.45.08-.11.16-.25.23-.38.12-.22.25-.45.38-.67.37-.68.75-1.36,1.12-2.04.3-.54.59-1.08.89-1.61.03-.05.06-.11.09-.16.14-.25.3-.48.29-.78-.04-.76-.08-1.51-.15-2.27-.02-.25-.04-.5-.06-.75-.03-.54-.02-1.07.08-1.6,0-.03.01-.06.02-.08t0,0s.03-.06.06-.07c.01,0,.02-.01.04-.01.03,0,.07,0,.1.03.14.08.24.2.41.19.13,0,.22-.09.34-.15.29-.14.63-.2.96-.16.26.03.52.12.72.3.35.32.42.83.45,1.3.06,1.35-.15,2.69-.41,4.02"/>
          <path class="cls-9" d="M37.97,21.72c-.12.58-.3,1.1-.66,1.58-.42.55-3,3.66-3.39,4.06-.21.22-.41.45-.59.69-.16.22-.36.45-.49.68-.14.25-.29.51-.35.79-.06.25-.2.54-.39.71-.09.08-.2.15-.31.21-.53.27-1.13.4-1.72.36.6-.22,1.15-.53,1.57-1,.34-.4.56-.88.81-1.35.95-1.72,2.4-3.08,3.48-4.7.16-.23.31-.48.44-.72.22-.39.4-1-.12-1.23-.13-.06-.43-.07-.48-.24-.09-.34.77-.04.91-.02.12.02.24.02.35-.02.19-.08.2-.23.22-.41.03-.25.08-.5.11-.75.06-.49.11-.98.14-1.47.01-.23.01-.49-.16-.65-.17-.16-.45-.12-.68-.1-.46.03-1.02,0-1.46-.17-.03-.54-.02-1.07.08-1.6,0-.03.01-.06.02-.08t0,0s.03-.05.06-.07c.01,0,.02-.01.04-.01.03,0,.07,0,.1.03.14.08.24.2.41.19.13,0,.22-.09.34-.15.29-.14.63-.2.96-.16.26.03.52.12.72.3.35.32.42.83.45,1.3.06,1.35-.15,2.69-.41,4.02"/>
          <path class="cls-28" d="M38.87,16.25s0,.03,0,.04c0,.11,0,.22-.02.33-.01.1.01.24-.03.34-.02.04-.05.08-.08.11-.27.27-.6.48-.95.62-.13.05-.27.1-.4.13-.51.12-1.04.14-1.56.08-.17-.02-.36-.05-.5-.15-.21-.15-.21-.35-.23-.58,0-.06,0-.12-.02-.19-.01-.18-.03-.36-.04-.54-.09-1.35-.05-2.76.46-4.03.21-.51.5-.99.92-1.34.24-.2.65-.45.98-.39,0,0,.02,0,.02,0,.33.06.65.19.87.45.51.59.54,1.41.59,2.15.07.98.07,1.98,0,2.96"/>
          <path class="cls-32" d="M38.87,16.25s0,.03,0,.04c0,.11,0,.22-.02.33-.01.1.01.24-.03.34-.02.04-.05.08-.08.11-.37.37-.85.62-1.36.75-.51.12-1.04.14-1.56.08-.17-.02-.36-.05-.5-.15-.21-.15-.21-.35-.23-.58,0-.06,0-.12-.02-.19,0,0,0,0,0,0,.14.09.34.11.5.14.43.07.87.06,1.29-.01.25-.05.48-.11.72-.19.46-.16.89-.39,1.29-.66"/>
          <path class="cls-9" d="M20.07,23.29c-.02.07-.03.15-.04.23-.02.23-.01.46.02.69.01.09.03.19.08.26.05.08.14.14.23.12.05,0,.1-.04.14-.08.06-.06.11-.15.12-.23.02-.1,0-.2.04-.29.03-.08.1-.15.16-.2.11-.08.23-.15.34-.24.11-.09.2-.2.24-.33.04-.13.01-.27-.03-.39-.03-.09-.08-.18-.15-.24-.11-.1-.29-.13-.43-.09-.1.03-.15.11-.22.18-.18.2-.43.35-.52.62"/>
        </g>
      </g>
    </g>
  </g>
</svg>