<?xml version="1.0" encoding="UTF-8"?>
<svg id="uuid-739488f1-a266-48a7-88f3-e7c68222861e" data-name="Calque_2" xmlns="http://www.w3.org/2000/svg" viewBox="0 0 49.84 80.7">
  <defs>
    <style>
      .uuid-e52ac180-1c26-43bc-b785-8c4aa30f8172 {
        fill: #f1c200;
      }

      .uuid-4baa567e-88ac-4812-80ef-e4dd8979a5cf {
        fill: #f3aac6;
      }

      .uuid-3ed1afd8-c0e4-4939-9420-531122cbbbf9 {
        fill: #f18b6a;
      }

      .uuid-cd1a6c46-1a26-4bcf-bd1a-c3c9ed8827f2 {
        fill: #302879;
      }

      .uuid-e5e206e2-08c1-4c78-89a3-9f2752ceb7e3 {
        fill: #56adad;
      }

      .uuid-9e36f75d-cf65-4ed3-8aae-0584b03b8b1b {
        fill: #e53b11;
      }

      .uuid-f5ed0619-8cae-4c28-9482-a0c87d05a0a7 {
        fill: #1d1a30;
      }
    </style>
  </defs>
  <g id="uuid-99849d06-295a-4003-a664-969108975d9a" data-name="Les_personnages">
    <g id="uuid-3b7f50f6-0454-4d2a-abfe-1e7053dbede9" data-name="Chara_x5F_Couple_x5F_HD">
      <path class="uuid-4baa567e-88ac-4812-80ef-e4dd8979a5cf" d="M5.27,25.53c-.18-1.31-1.33-3.67-3.04-3.28,0-.05-.02-.1-.03-.15-.17-.91-1.73-.58-1.84.19-.6,4.28.62,8.57,1.92,12.72.76,2.41.68,7.65,4.13,8.77.5-5.93-.35-12.34-1.15-18.26"/>
      <path class="uuid-f5ed0619-8cae-4c28-9482-a0c87d05a0a7" d="M2.11,22.98s.01-.04.02-.06c.04-.11.11-.2.18-.28.06-.2.11-.4.15-.6.06-.3.42-.52.72-.55.31-.03.68.11.82.39.21.42.27.8.3,1.25.04.47-.19.85-.64,1.06-.52.24-1.01.06-1.39-.28-.26-.23-.28-.66-.17-.95"/>
      <path class="uuid-4baa567e-88ac-4812-80ef-e4dd8979a5cf" d="M10.38,5.27c.13-1.51,1.3-2.94,2.93-2.34,1.83.67,3.23,4.92.48,5.22-2.61.28-3.54-1.34-3.41-2.88"/>
      <path class="uuid-4baa567e-88ac-4812-80ef-e4dd8979a5cf" d="M12.1,6.23c.16.06.3.16.42.29.31.08.6.27.77.57.46.13.85.53.89,1.13.07.94.22,2.51-.32,3.45-.06.57-.66.91-1.2.89-.19.06-.4.07-.59.02-.03.01-.07.02-.11.04-.68.63-1.99.18-2.05-.92-.08-1.52.14-3.06-.05-4.57-.18-1.4,1.63-2.07,2.24-.9"/>
      <path class="uuid-cd1a6c46-1a26-4bcf-bd1a-c3c9ed8827f2" d="M15.95,7.49c-.19-.59-.37-1.16-.6-1.72-.63.38-1.44.46-2.14.25-.1-.03-.2-.04-.29-.04.12-.27.22-.53.29-.75.25-.79.21-1.17.68-1.81.55-.76,2.44-2.39.87-3.24-1.3-.71-2.29,1-3.22,1.56-.54.33-1.23.56-1.73.92-1.68,1.2-1.39,3.03-.96,4.75.71,2.89,2.26,1.62,3.33-.05.38.27.71.58,1.09.88.61.48,1.22.84,1.88.95.35-.13.64-.39.72-.77.15-.26.21-.58.1-.93M13.14,3.72h-.09s0,0,0,0c.03,0,.06,0,.09,0"/>
      <path class="uuid-cd1a6c46-1a26-4bcf-bd1a-c3c9ed8827f2" d="M2.76,72.46c1.15.09,2.26-.19,3.27-.59-.02.29-.03.67-.1,1.01,3.08-.67,2.89.39.65,1.67-.69.39-2.09,1.07-2.83.97-.89-.12-1.17-.98-1.14-1.73-.03-.35.01-.78.15-1.33"/>
      <path class="uuid-4baa567e-88ac-4812-80ef-e4dd8979a5cf" d="M35.09,51.83c-.23-.71-.4-1.46-1.18-1.7-.66-.2-2.93-1.44-3.49-1.11s-.92-1.29-1.25-.76c-.58.91.68,7.16.55,8.22-.16,1.27-.13,3.08-.06,6.26.03,1.47.86,2.55-.38,3.47-1.09.8-2.26,1.76-3.16,2.79-.69.79-2.68,2.69-3.78,4.38.33,0,.66.14.9.37.29.28.47.67.57,1.07.09.34.13.69.13,1.04.15-.34-.05.4,0,0,.15-1.1,1.87-1.89,2.34-2.18,2.13-1.3,3.84-2.8,5.66-4.44,1.1-1,1.8-2.04,2.12-3.39.01-.04.02-.08.03-.13.32-1.47.86-2.72,1.19-4.19.34-1.55.35-8.12-.16-9.7"/>
      <path class="uuid-cd1a6c46-1a26-4bcf-bd1a-c3c9ed8827f2" d="M23.66,73.54c-.53-1.12-1.84-.1-1.92.93-.04.57,0,1.15.12,1.72.11.56.27,1.11.46,1.65.13.37.37.8.76.76.38-.03.54-.48.62-.85.24-1.16.39-2.79.06-3.95-.03-.1-.06-.19-.1-.27"/>
      <path class="uuid-4baa567e-88ac-4812-80ef-e4dd8979a5cf" d="M38.56,71.15c.4,1.73.98,3.36,1.83,4.92.4.74.84,1.47,1.24,2.21.15.28.41.82.7,1.31.04.07.08.13.11.19.81-.03,1.56-.59,2.03-1.35-.02.01-.04.02-.06.03,0-.01,0-.02,0-.03,0,.01,0,.03,0,.04-1.31-6.17-2.01-12.5-2.1-18.78-.02-1.08-.01-2.17-.32-3.22-.31-1.05-.96-2.06-2.01-2.63-2.28-1.24-4.25.24-4.41,2.29-.15,1.98,1.93,5.55,2.51,7.44.55,1.82.05,5.7.48,7.58"/>
      <path class="uuid-cd1a6c46-1a26-4bcf-bd1a-c3c9ed8827f2" d="M46.45,78.01c-.3-.04-.47-.02-.77.06-.02,0-.05.01-.07.02-.12.02-.25.05-.37.08-.21.04-.41.08-.59.15-.54.21-.87.72-1.41.8-.2.11-.38.22-.63.29-.11.03-.21.04-.32.05.02.05.04.09.08.13-.01.04-.02.08-.02.11.04.57.33.85.74.89.03.02.06.04.09.05.46.21,1.04-.25,1.4-.48.42-.27,1.02-.65,1.45-1.1.2-.15.38-.32.54-.52.13-.16.12-.49-.14-.53"/>
      <path class="uuid-4baa567e-88ac-4812-80ef-e4dd8979a5cf" d="M35.94,56.73c-1.29-.25,1.09,2.1,0,.01,0,0,0,0,0-.01h0"/>
      <path class="uuid-9e36f75d-cf65-4ed3-8aae-0584b03b8b1b" d="M41.68,37.68c-.14-.69-.26-1.37-.32-2.02-.34-3.34.47-7.78-1.21-10.78-.86-1.54-2.88-3.63-4.9-3.84-1.37-1.09-3.05-1.72-4.51-.78-2.09,1.34-2.35,4.16-2.42,6.4-.09,2.82-.05,5.51-.43,8.33-.31,2.29,0,4.56-.19,6.83-.26,3.07-.8,6.28-1.35,9.32-.37,2.04-1.29,4.87.2,6.56,3.58,4.07,11.94,5.71,16.77,3.24,2.74-1.4,1.84-6.98,1.49-9.35-.29-2.01-.76-3.85-1.38-5.79-.88-2.73-1.19-5.36-1.76-8.12"/>
      <path class="uuid-4baa567e-88ac-4812-80ef-e4dd8979a5cf" d="M41.03,32.1c-.01-.53-.02-1.06-.02-1.61-.02-1.76-.21-4.41-2.34-4.88-3.69-.82-.1,10.54.19,11.79.26,1.12-.01,3.53,1.31,4.06,2.17.87,1.62-2.93,1.4-3.94-.42-1.86-.51-3.61-.54-5.43"/>
      <path class="uuid-cd1a6c46-1a26-4bcf-bd1a-c3c9ed8827f2" d="M48.39,47.07c-1.11-1.08-1.82-.08-2.97,1.27-1.58,1.29-3.49,2.97-4.18,4.8-.85.94.78,2.63,1.19,3.57,1.44,3.37,3.22-.3,4.66-1.97.66-.63,1.31-1.26,1.97-1.89,1.28-1.22.84-3.81-.09-5.1-.2-.29-.39-.51-.57-.68"/>
      <path class="uuid-4baa567e-88ac-4812-80ef-e4dd8979a5cf" d="M45.32,48.13c-.19-.45-.4-.86-.62-1.25-.96-2.46-2.15-4.88-2.73-7.48-.24-1.07-1.62-3.21-2.71-1.48-.86,1.36.74,4.28,1.37,5.48,1.17,2.23,2.46,4.35,3.84,6.1.46.58,1.26-.38.85-1.37"/>
      <path class="uuid-4baa567e-88ac-4812-80ef-e4dd8979a5cf" d="M44.17,47.74c-.19.54-.08,1.47.09,1.98.59,1.73,2.45,2.68,2.27.08-.06-.95-.31-1.59-1.08-2.15-.74-.55-1.12-.36-1.29.1"/>
      <path class="uuid-3ed1afd8-c0e4-4939-9420-531122cbbbf9" d="M36.47,12.57c-.18-.41-.67-.6-1.09-.53-1.09.17-1.1,1.53-1.06,2.37.03.86,0,2.1.45,2.87.13.23.32.39.55.48.18.34.53.59,1,.54,1.27-.14,1.41-1.26,1.23-2.3-.21-1.15-.61-2.36-1.07-3.43"/>
      <path class="uuid-3ed1afd8-c0e4-4939-9420-531122cbbbf9" d="M32.86,17.94c.09-.42.26-.78.54-1.01.44-.35,1.06-.45,1.58-.26,1.76.64,1.09,2.15,1.07,3.39,0,.44-.01.88-.01,1.32,0,.39-.31.64-.68.74-.56.6-1.84.6-2.12-.37-.25-.86-.64-2.61-.38-3.82"/>
      <path class="uuid-e52ac180-1c26-43bc-b785-8c4aa30f8172" d="M35.21,11.7c-.8.2-1.68.72-2.26,1.47-1.43,1.85-1.94,4.29-3.26,6.21-1.95,2.84-4.5,6.75-3.74,10.44.25,1.22,1.06,4.03,2.31,4.62,3.87,1.82,6.35-7.63,6.93-9.75.59-2.16-.34-4.36.25-6.51.37-1.36,3.56-7.42-.23-6.48"/>
      <path class="uuid-4baa567e-88ac-4812-80ef-e4dd8979a5cf" d="M35.85,34.14c-1.12.08-2.18,1.51-1.08,2.31.7.51,2.32.81,2.81-.14.63-1.22-.57-2.25-1.73-2.17"/>
      <path class="uuid-cd1a6c46-1a26-4bcf-bd1a-c3c9ed8827f2" d="M1.92,25.32c.48.22.99.41,1.54.55l.66,11.3v.11s.02.17.02.17l.13,2.3c1.91.93,4.26.94,6.32,1.18,3.12.37,6.26.62,9.4.77.42-.28.88-.36,1.31-.28.12-.02.23-.03.34-.03,0-.79.04-1.59.11-2.38.15-1.74.4-3.48.42-5.23,0-.32.07-.61.17-.85.08-2.08.1-4.24-.06-6.04-.02-.2.16-.37.35-.42.57-.12,1.14-.32,1.7-.51.86-.29,1.28-1.18.96-1.98-.77-1.97-.97-4.09-1.84-6.06-.67-1.51-1.77-2.83-3.03-3.98-2-1.82-4.47-3.24-7.2-3.79-6.07-1.22-11.39,1.5-12.48,7.05-.06.32-.56,3.08-.61,3.39-.09.61-.25,2.2.03,3.22l-.16.13s.16,1.08,1.92,1.38"/>
      <path class="uuid-4baa567e-88ac-4812-80ef-e4dd8979a5cf" d="M36.94,34.46c-2.6-.13-5.84.06-8.06-1.43-2.37-1.58-2.8-5.77-3.48-8.46-.65,1.15-2.35,1.85-3.98,2.01-.05.05-1.2-.18-1.25-.12.36,2.58.18,7.09,2.37,8.94,2.99,2.53,9.19,1.72,12.8,1.47,1.02-.07,1.79-.98,1.67-2-.02-.16-.04-.3-.07-.41"/>
      <path class="uuid-e5e206e2-08c1-4c78-89a3-9f2752ceb7e3" d="M3.88,37.25c-.13-.11-.27-.23-.4-.35.21.14.37.24.51.32-.04.01-.08.02-.11.03"/>
      <path class="uuid-e5e206e2-08c1-4c78-89a3-9f2752ceb7e3" d="M4.12,37.28s-.08-.04-.13-.07c.04-.01.08-.02.12-.03.07-.02.14-.04.21-.07.22.19.29.42-.2.17"/>
      <path class="uuid-9e36f75d-cf65-4ed3-8aae-0584b03b8b1b" d="M21.81,57.44c.06.47-1.02,3.3-1.14,3.57-1.16,2.48-2.67,4.76-4.03,7.12-.97,1.67-2.55,3.76-2.18,5.77,0,.04-.07.07-.06.11,0,.02-.06.05-.06.07h0c0,.28.25.56.4.83.27.49,1.04.79.68,1.3-1.18,1.65-3.66-1.82-4.08-2.75-.09-.21-.21-.48-.21-.7,0-.13.03-.28.03-.4,0-.18.01-.35.07-.52.11-.33.26-.89.54-1.21,0-.01,0-.02,0-.03.03-.42.12-.86.25-1.31,1.14-3.73,2.09-7.27,4.19-10.65h0c-.42-1.28-2.09-7.73-3.03-12.16l-.95-.59c-.33,2.51-1.6,10.88-3.07,13.03,0,.15,0,.3-.03.47-.39,2.45-.94,4.9-1.51,7.35-.48,2.07-1.08,4.33-1.84,6.41-1.02.57-2.11.58-3.09.3-.06-.75.08-1.82.14-2.59.1-1.33.28-2.67.54-4,.47-2.47.7-4.92,1.12-7.38.58-3.42-.31-7.2-.39-10.54-.05-2.16-.05-4.33.15-6.52.04-.5.04-1.19.12-1.84-.04-.03-.07-.05-.07-.05l-.18-3.04c3.76,3.04,8.12,3.26,12.73,2.63,1.36-.19,2.67-.62,4.03-.86.16-.03.49-.13.85-.2-.11,1.27-.16,2.54-.04,3.82.01.11.03.22.05.33.06,4.14.15,11.45.05,14.28"/>
      <path class="uuid-cd1a6c46-1a26-4bcf-bd1a-c3c9ed8827f2" d="M6.13,73.26s0-.01,0-.02c0,0,0,.02,0,.02Z"/>
      <path class="uuid-cd1a6c46-1a26-4bcf-bd1a-c3c9ed8827f2" d="M14.74,74.89c-.15-.27-.4-.55-.4-.83h0s.09-.05.07-.07c0-.03,0-.07,0-.11-.29-.23-.52-.5-.74-.85-.45-.7-.55-1.66-1.27-2.21-.19-.14-.39-.22-.61-.26,0,.01,0,.02,0,.03-.28.31-.42.88-.54,1.21-.06.17-.06.34-.07.52,0,.13-.03.27-.03.4,0,.23.13.49.22.7.41.93,2.85,4.4,4.03,2.75.36-.51-.38-.81-.65-1.3"/>
    </g>
  </g>
</svg>