<?xml version="1.0" encoding="UTF-8"?>
<svg xmlns="http://www.w3.org/2000/svg" xmlns:xlink="http://www.w3.org/1999/xlink" viewBox="0 0 53.75 67.31">
  <defs>
    <style>
      .uuid-1192a035-58fd-45c1-97cc-cb5ae22ff918 {
        fill: #9c9897;
      }

      .uuid-e5d1380e-5a1f-4139-a9d4-b50b9187a3a6 {
        fill: #c7a858;
      }

      .uuid-8a4efa8f-5b9b-402c-afe0-c57ad6c06757 {
        fill: #2b2523;
      }

      .uuid-36eb984e-2ba3-4a48-9997-52785d6659f3 {
        fill: #0071bc;
      }

      .uuid-d8ab11a3-8041-45e1-8c64-f531ae90f9fb {
        fill: #9fa0aa;
      }

      .uuid-60aa955f-603d-44e0-ac45-9344868dd7e3 {
        fill: #a9a6a5;
      }

      .uuid-6685f0d1-f169-4c82-9b26-bc8869775ec8 {
        fill: #aebcc7;
      }

      .uuid-a5e3528c-56cd-495a-836f-fc397d21cadb {
        fill: #818188;
      }

      .uuid-d456cca6-ac6d-4b26-86ba-e4c14083b416 {
        fill: #3d4393;
      }

      .uuid-4a83cdb6-7751-4264-9e08-b9b9a8911ada {
        clip-path: url(#uuid-2f006cfc-417d-4d4d-976c-35088811d899);
      }

      .uuid-fde18dc6-bf45-4826-9ffa-20f1bb24bd94 {
        fill: none;
      }

      .uuid-6a279432-68fa-4f6d-a247-1cd00714d503 {
        fill: #f8c2a4;
      }

      .uuid-e7d1f714-a223-4ea4-9fa5-e35d828a2494 {
        clip-path: url(#uuid-f3da04e2-2a89-410a-b15e-bad429acf95e);
      }

      .uuid-1508e98c-90d8-471d-a813-e9d7651eaeff {
        isolation: isolate;
      }

      .uuid-f7eb1631-cd33-4ca6-b970-7ad65ed6bd97 {
        clip-path: url(#uuid-32517b42-7104-4a12-a40a-8564afa9ab5b);
      }

      .uuid-915abb4b-8bd7-4642-8e93-5c19d8ec16d0 {
        fill: #302927;
      }

      .uuid-5471a69d-470e-4e75-80e4-0db85f9847e9 {
        fill: url(#uuid-8d8615aa-6806-4df2-b765-c18cb2747e4b);
      }

      .uuid-97860fc2-e968-4152-81b4-6e846f75a37c {
        fill: #3d3331;
      }

      .uuid-06212915-807d-4388-8c17-9be13b4f036d {
        fill: #a7a8ae;
      }

      .uuid-69dbc27f-c22f-418f-9915-0f4c018c568b {
        clip-path: url(#uuid-36d970bd-ed43-4c2f-9c6a-843def832d00);
      }

      .uuid-1e7140d9-d97c-42b7-9279-038ea7a97d3c {
        fill: #f8c3a6;
      }

      .uuid-ac56f455-9244-4056-a2d0-e4c5ed19eda7 {
        clip-path: url(#uuid-b2916bb0-c83c-4334-8b07-17a01f3641fd);
      }

      .uuid-7cb17d33-e830-4a2f-aef0-99691bb30c28 {
        fill: #c5c3c2;
      }

      .uuid-f7294b03-3992-4c97-a7ff-33d4287968e7 {
        fill: #f3af87;
      }

      .uuid-d3fe9a9f-4027-460f-b0cc-ee0ab313f9d6 {
        fill: #5c595c;
      }

      .uuid-2ab2d2d7-7448-4eaf-a067-4d82f0c0e9c2 {
        mix-blend-mode: multiply;
        opacity: .4;
      }

      .uuid-38a8224f-950a-4a6f-b407-64a7a6e89b7a {
        fill: #453b39;
      }

      .uuid-be9e3de9-9f41-43d3-b91f-6ee4f73dd9e8 {
        fill: #806e65;
      }

      .uuid-6881a137-33b8-4324-89cc-4bd8ea1fcd15 {
        opacity: .5;
      }

      .uuid-2cdb4e30-3ba7-45de-a105-4d1cd609c9ef {
        fill: #dcdadb;
      }

      .uuid-c5b05aeb-580d-41fa-88af-be303e86d7bc {
        fill: #95969d;
      }

      .uuid-0c3f697b-3273-413a-ab4b-e1f9e7194f5f {
        clip-path: url(#uuid-1f95bc9b-9f49-4ebd-adda-9d1d308c1185);
      }
    </style>
    <clipPath id="uuid-1f95bc9b-9f49-4ebd-adda-9d1d308c1185">
      <path class="uuid-fde18dc6-bf45-4826-9ffa-20f1bb24bd94" d="M29.21,28.26l-15.49,9,16.35,12.61,15.49-8.99c.47-.27.71-.92.72-1.62v-.09c-.01-.79-.3-1.63-.87-2.11-1.13-.94-13.96-7.83-15.73-8.76-.09-.05-.19-.08-.27-.08-.07,0-.13.02-.19.05"/>
    </clipPath>
    <linearGradient id="uuid-8d8615aa-6806-4df2-b765-c18cb2747e4b" data-name="Dégradé sans nom 658" x1="-450.39" y1="284.36" x2="-448.67" y2="284.36" gradientTransform="translate(-795.08 1350.14) rotate(90) scale(2.9 -2.9)" gradientUnits="userSpaceOnUse">
      <stop offset="0" stop-color="#6b78b8"/>
      <stop offset=".3" stop-color="#6b78b8"/>
      <stop offset=".54" stop-color="#606db1"/>
      <stop offset="1" stop-color="#515ea7"/>
    </linearGradient>
    <clipPath id="uuid-36d970bd-ed43-4c2f-9c6a-843def832d00">
      <rect class="uuid-fde18dc6-bf45-4826-9ffa-20f1bb24bd94" x="18.68" y="53.87" width="8.54" height="10.98"/>
    </clipPath>
    <clipPath id="uuid-f3da04e2-2a89-410a-b15e-bad429acf95e">
      <rect class="uuid-fde18dc6-bf45-4826-9ffa-20f1bb24bd94" x="18.68" y="53.87" width="8.54" height="10.98"/>
    </clipPath>
    <clipPath id="uuid-2f006cfc-417d-4d4d-976c-35088811d899">
      <path class="uuid-fde18dc6-bf45-4826-9ffa-20f1bb24bd94" d="M19.07,56.83c-.06,2.47,1.64,5.52,3.78,6.81,2.14,1.29,3.93.34,3.98-2.13.05-2.47-1.64-5.52-3.78-6.81-.65-.39-1.26-.57-1.81-.57-1.26,0-2.13.99-2.17,2.71"/>
    </clipPath>
    <clipPath id="uuid-b2916bb0-c83c-4334-8b07-17a01f3641fd">
      <rect class="uuid-fde18dc6-bf45-4826-9ffa-20f1bb24bd94" x="30.77" y="39.15" width="1.63" height=".94"/>
    </clipPath>
    <clipPath id="uuid-32517b42-7104-4a12-a40a-8564afa9ab5b">
      <rect class="uuid-fde18dc6-bf45-4826-9ffa-20f1bb24bd94" x="30.77" y="39.15" width="1.63" height=".94"/>
    </clipPath>
  </defs>
  <g class="uuid-1508e98c-90d8-471d-a813-e9d7651eaeff">
    <g id="uuid-407ee959-684f-4d59-b527-b05bdd77e1d9" data-name="Calque_2">
      <g id="uuid-39393b9f-54ab-4dd2-815b-2a173e03c2b0" data-name="Les_personnages">
        <g id="uuid-70a0e766-04c8-45a6-a804-c20a63c17017" data-name="Chara_x5F_Handi_x5F_BD">
          <polygon class="uuid-60aa955f-603d-44e0-ac45-9344868dd7e3" points="39.94 37.23 34.62 34.16 34.62 32.51 39.94 35.58 39.94 37.23"/>
          <polygon class="uuid-7cb17d33-e830-4a2f-aef0-99691bb30c28" points="39.94 35.58 39.94 37.23 41.23 36.48 41.23 34.83 39.94 35.58"/>
          <polygon class="uuid-2cdb4e30-3ba7-45de-a105-4d1cd609c9ef" points="39.94 35.58 34.62 32.51 35.92 31.76 41.23 34.83 39.94 35.58"/>
          <path class="uuid-7cb17d33-e830-4a2f-aef0-99691bb30c28" d="M35.39,23.98v8.51c0,.41,1.12.43,1.12-.02v-7.55l-1.12-.94Z"/>
          <path class="uuid-7cb17d33-e830-4a2f-aef0-99691bb30c28" d="M34.87,22.43c.52-.3,1.37-.42,2.13-.06.04.02,5.69,3.31,7.94,4.61.33.19.57.48.62.86.02.15,0,.37.01.27,0,.96-1.57,1.69-2.88.98,0,0-7.84-4.56-7.84-4.56-.83-.49-.89-1.54.01-2.1"/>
          <path class="uuid-97860fc2-e968-4152-81b4-6e846f75a37c" d="M34.58,21.38c.55-.31,1.45-.44,2.27-.06.04.02,6,3.49,8.39,4.88.35.21.61.51.66.91.02.16,0,.39.01.28,0,1.02-1.67,1.8-3.07,1.04,0,0-8.28-4.82-8.28-4.82-.89-.52-.95-1.64.01-2.23"/>
          <path class="uuid-38a8224f-950a-4a6f-b407-64a7a6e89b7a" d="M43.81,27.73l-8.92-5.15c-.25-.15-.06-.52.21-.36l8.92,5.15c.25.15.06.52-.21.36"/>
          <path class="uuid-6a279432-68fa-4f6d-a247-1cd00714d503" d="M46.1,25.88c-.09-.1-1.44-.57-2.3-.87-.48-.16-.92-.42-1.3-.75-1.19-1.05-3.67-3.23-4.78-4.18-.15-.12-.24-.29-.28-.48-.33-2.08-.59-5.01-.96-7.33-1.4,1.12-2.74,2.33-4.21,3.32.68,1.96,1.27,4.17,1.74,5.76.13.43.42.79.81,1.01,1.6.89,5.67,3.24,6.72,3.85.2.11.32.32.34.55.02.4-.01.77-.03.97-.04.34-.25.73.13.81.24.05.46-.13.59-.31.21-.31.25-1.01.45-1.15.25-.16,1.03.23,1.1.35.17.29-.03,1.55.23,1.81.16.16.44.16.49-.02.18.27.64.2.7-.03.33.08.55-.25.51-.43.23-.12.27-.21.29-.45.01-.08.32-1.83-.25-2.43"/>
          <path class="uuid-c5b05aeb-580d-41fa-88af-be303e86d7bc" d="M49.58,45.74c-.56-1.27-1.33-2.49-2.24-3.52-.76-.87-1.62-1.6-2.53-2.12-1.61-.93-3.06-1.01-4.11-.4l-2.65,1.54,8.19,14.08,2.65-1.54c1.04-.6,1.68-1.88,1.69-3.71,0-1.39-.36-2.89-1-4.33"/>
          <path class="uuid-a5e3528c-56cd-495a-836f-fc397d21cadb" d="M42.17,41.64c-1.32-.76-2.54-.96-3.51-.66-1.38.42-2.28,1.81-2.28,3.96-.01,3.67,2.57,8.13,5.76,9.97,1.95,1.13,3.69,1.01,4.73-.09.66-.7,1.06-1.79,1.06-3.21.01-3.66-2.57-8.13-5.76-9.97"/>
          <path class="uuid-8a4efa8f-5b9b-402c-afe0-c57ad6c06757" d="M42.25,43.29c2.3,1.39,4.12,4.66,4.06,7.31-.06,2.65-1.97,3.68-4.27,2.29-2.3-1.39-4.12-4.66-4.06-7.31.06-2.65,1.97-3.68,4.27-2.29"/>
          <path class="uuid-d8ab11a3-8041-45e1-8c64-f531ae90f9fb" d="M47.94,50.64c-.05-.52-.15-1.06-.3-1.6-.29-1.09-.75-2.21-1.36-3.25-.31-.51-.65-1.02-1.02-1.48-.36-.47-.76-.9-1.17-1.29-.4-.39-.83-.73-1.25-1.03-.43-.29-.85-.54-1.27-.72-.82-.38-1.6-.47-2.12-.44-.53.03-.81.15-.81.15,0,0,.29-.1.81-.11.52-.01,1.26.13,2.07.51.4.18.81.44,1.23.73.41.3.83.64,1.22,1.04.39.39.78.82,1.13,1.29.36.46.68.96.98,1.47.61,1.01,1.08,2.11,1.39,3.18.15.53.26,1.06.32,1.56.06.5.08.99.06,1.43-.05.89-.27,1.61-.52,2.07-.24.46-.46.67-.46.67,0,0,.23-.2.5-.65.27-.45.55-1.17.61-2.08.03-.45.02-.94-.03-1.45"/>
          <polygon class="uuid-915abb4b-8bd7-4642-8e93-5c19d8ec16d0" points="4.44 46.32 23.21 57.16 39.34 42.85 4.44 41.32 4.44 46.32"/>
          <polygon class="uuid-38a8224f-950a-4a6f-b407-64a7a6e89b7a" points="23.21 52.15 4.44 41.31 20.81 31.86 39.58 42.7 23.21 52.15"/>
          <polygon class="uuid-915abb4b-8bd7-4642-8e93-5c19d8ec16d0" points="8.63 48.74 29.54 60.81 45.66 43.58 10.77 42.05 8.63 48.74"/>
          <path class="uuid-97860fc2-e968-4152-81b4-6e846f75a37c" d="M44.29,52.3l-14.75,8.52v-7.92l16.37-9.45v6.05c0,1.16-.62,2.23-1.62,2.81"/>
          <polygon class="uuid-38a8224f-950a-4a6f-b407-64a7a6e89b7a" points="29.54 52.89 10.77 42.05 27.14 32.6 45.91 43.44 29.54 52.89"/>
          <polygon class="uuid-915abb4b-8bd7-4642-8e93-5c19d8ec16d0" points="5.66 46.57 7.8 51.04 22.97 59.79 25.37 58.03 5.66 46.57"/>
          <path class="uuid-c5b05aeb-580d-41fa-88af-be303e86d7bc" d="M5.39,44.25c-1.96-1.1-3.19-.45-3.6-.24l-.23.13c-.28.18-1.03.66-1.37,1.81-1.17,3.93,3.52,10.38,7.3,8.39l.23-.13c2.91-1.86,1.58-7.54-2.33-9.96"/>
          <path class="uuid-97860fc2-e968-4152-81b4-6e846f75a37c" d="M3.61,46.98c1.34.77,2.43,2.66,2.43,4.2,0,1.55-1.1,2.18-2.44,1.4-1.35-.78-2.44-2.66-2.44-4.22,0-1.54,1.1-2.17,2.45-1.39"/>
          <path class="uuid-06212915-807d-4388-8c17-9be13b4f036d" d="M8.22,48.39c-.41-.92-.97-1.8-1.62-2.55-.55-.63-1.17-1.16-1.82-1.54-1.17-.67-2.22-.74-2.99-.29l-.23.13c.76-.44,1.82-.38,2.99.29.65.38,1.27.91,1.82,1.54.65.75,1.21,1.62,1.62,2.55.46,1.04.73,2.13.72,3.13,0,1.32-.47,2.25-1.22,2.69l.23-.13c.75-.44,1.22-1.37,1.22-2.69,0-1.01-.26-2.1-.72-3.13"/>
          <polygon class="uuid-7cb17d33-e830-4a2f-aef0-99691bb30c28" points="43.99 40.53 43.98 43.28 29.62 51.61 28.01 47.89 43.99 40.53"/>
          <polygon class="uuid-1192a035-58fd-45c1-97cc-cb5ae22ff918" points="29.63 48.85 29.62 51.61 15.4 43.39 15.41 40.64 29.63 48.85"/>
          <g class="uuid-0c3f697b-3273-413a-ab4b-e1f9e7194f5f">
            <rect class="uuid-5471a69d-470e-4e75-80e4-0db85f9847e9" x="10.49" y="21.52" width="39.01" height="35.03" transform="translate(-15.5 20.23) rotate(-30)"/>
          </g>
          <path class="uuid-36eb984e-2ba3-4a48-9997-52785d6659f3" d="M28.4,4.15c-.13,0-.24.03-.34.09l-15.52,9.01,4.03,25.3,15.54-8.96c-1.7-9.97-.89-21.1-1.49-23.33-.04-.15-.09-.3-.16-.45-.13-.3-.31-.58-.52-.82-.21-.24-.45-.44-.7-.58-.28-.16-.56-.26-.8-.26h-.03Z"/>
          <path class="uuid-36eb984e-2ba3-4a48-9997-52785d6659f3" d="M12.65,13.93l.2,1.29L30.13,5.24c-.06-.08-.12-.17-.19-.25-.21-.24-.45-.44-.7-.58-.02-.01-.04-.02-.06-.03L12.65,13.93Z"/>
          <path class="uuid-d456cca6-ac6d-4b26-86ba-e4c14083b416" d="M30.19,47.47c-.27-.85-.85-1.55-1.59-2.04-2.29-1.51-8.34-4.87-12.03-6.88-1.86-13.06-.87-21.05-1.46-23.27-.21-.79-.74-1.48-1.39-1.86-.73-.42-1.41-.39-1.52.52-.46,3.7.39,18.14.83,22.2,0,0,.14,2.12.4,3.45.21,1.08.9,2,1.85,2.54,3.48,1.97,13.4,7.6,13.4,7.6,1.76,1.01,1.99-.72,1.51-2.26"/>
          <path class="uuid-c5b05aeb-580d-41fa-88af-be303e86d7bc" d="M30.38,56.82c-.56-1.27-1.33-2.49-2.24-3.52-.76-.87-1.62-1.6-2.53-2.12-1.61-.93-3.06-1.01-4.11-.4l-2.65,1.54,8.19,14.08,2.65-1.54c1.04-.6,1.68-1.88,1.69-3.71,0-1.39-.36-2.89-1-4.33"/>
          <path class="uuid-a5e3528c-56cd-495a-836f-fc397d21cadb" d="M22.97,52.72c-1.32-.76-2.54-.96-3.51-.66-1.38.42-2.28,1.81-2.28,3.96-.01,3.67,2.57,8.13,5.76,9.97,1.95,1.13,3.69,1.01,4.73-.09.66-.7,1.06-1.79,1.06-3.21.01-3.66-2.57-8.13-5.76-9.97"/>
          <g class="uuid-2ab2d2d7-7448-4eaf-a067-4d82f0c0e9c2">
            <g class="uuid-69dbc27f-c22f-418f-9915-0f4c018c568b">
              <g class="uuid-e7d1f714-a223-4ea4-9fa5-e35d828a2494">
                <path class="uuid-a5e3528c-56cd-495a-836f-fc397d21cadb" d="M22.97,54.45c-2.36-1.36-4.28-.27-4.28,2.44,0,2.71,1.9,6.01,4.26,7.37s4.28.27,4.28-2.44c0-2.71-1.9-6.01-4.26-7.37"/>
              </g>
            </g>
          </g>
          <g class="uuid-4a83cdb6-7751-4264-9e08-b9b9a8911ada">
            <path class="uuid-915abb4b-8bd7-4642-8e93-5c19d8ec16d0" d="M21.09,54.34h.16s1.05.11,1.05.11c0,0,.23.03.07.07-.76.2-1.26.94-1.28,2.1-.04,1.96,1.3,4.39,3.01,5.42,1.03.62,1.96.59,2.54.03.12-.11-.07.27-.07.27l-.34.61c-.61,1.09-1.9,1.33-3.37.44-2.02-1.22-3.61-4.09-3.56-6.42.04-1.66.57-2.67,1.8-2.63"/>
            <path class="uuid-8a4efa8f-5b9b-402c-afe0-c57ad6c06757" d="M23.91,54.89c1.83,1.13,3.25,3.77,3.18,5.89-.07,2.12-1.61,2.92-3.44,1.79-1.83-1.13-3.25-3.77-3.18-5.89.07-2.12,1.61-2.92,3.44-1.79"/>
            <path class="uuid-915abb4b-8bd7-4642-8e93-5c19d8ec16d0" d="M23.83,57.4c.63.39,1.13,1.31,1.1,2.04-.02.73-.56,1.01-1.19.62-.64-.39-1.13-1.31-1.1-2.04.02-.73.56-1.01,1.19-.62"/>
          </g>
          <path class="uuid-97860fc2-e968-4152-81b4-6e846f75a37c" d="M23.05,54.37c2.3,1.39,4.12,4.66,4.06,7.31-.06,2.65-1.97,3.68-4.27,2.29-2.3-1.39-4.12-4.66-4.06-7.31.06-2.65,1.97-3.68,4.27-2.29M23.04,54.96c-2.02-1.22-3.7-.32-3.75,2.01-.05,2.33,1.54,5.2,3.56,6.41s3.7.32,3.75-2.01c.05-2.33-1.54-5.2-3.56-6.41"/>
          <path class="uuid-d8ab11a3-8041-45e1-8c64-f531ae90f9fb" d="M28.75,61.72c-.05-.52-.15-1.06-.3-1.6-.29-1.09-.75-2.21-1.36-3.25-.31-.51-.65-1.02-1.02-1.48-.36-.47-.76-.9-1.17-1.29-.4-.39-.83-.73-1.25-1.03-.43-.29-.85-.54-1.27-.72-.82-.38-1.6-.47-2.12-.44-.53.03-.81.15-.81.15,0,0,.29-.1.81-.11.52-.01,1.26.13,2.07.51.4.18.81.44,1.23.73.41.3.83.64,1.22,1.04.39.39.78.82,1.13,1.29.36.46.68.96.98,1.47.61,1.01,1.08,2.11,1.39,3.18.16.53.26,1.06.32,1.56.06.5.08.99.06,1.43-.05.89-.27,1.61-.52,2.07-.24.46-.46.67-.46.67,0,0,.23-.2.5-.65.27-.45.55-1.17.61-2.08.03-.45.02-.94-.03-1.45"/>
          <polygon class="uuid-1192a035-58fd-45c1-97cc-cb5ae22ff918" points="12.44 43.89 11.87 45.68 18.19 49.33 18.19 47.21 12.44 43.89"/>
          <path class="uuid-1192a035-58fd-45c1-97cc-cb5ae22ff918" d="M29.41,48.77c-.35.4-1.12.16-1.72-.53-.6-.7-.81-1.58-.46-1.98.35-.4,1.12-.16,1.72.53.6.69.81,1.58.46,1.98"/>
          <polygon class="uuid-97860fc2-e968-4152-81b4-6e846f75a37c" points="49.52 55.04 42.91 58.86 42.91 59.42 47.13 61.86 53.75 58.04 53.75 57.48 49.52 55.04"/>
          <path class="uuid-7cb17d33-e830-4a2f-aef0-99691bb30c28" d="M45.74,44.57c-.12-.14-.34-.15-.48-.03-.14.12-.15.34-.03.48l3.99,4.47v5.96c0,.3.68.33.68,0v-6.08c0-.08-.03-.16-.09-.22l-4.08-4.57Z"/>
          <path class="uuid-38a8224f-950a-4a6f-b407-64a7a6e89b7a" d="M51.93,58.12l-4.25,2.45c-.35.2-.92.2-1.27,0l-2.23-1.29c-.35-.2-.35-.53,0-.73l4.24-2.45c.35-.2.92-.2,1.27,0l2.23,1.29c.35.2.35.53,0,.73"/>
          <polygon class="uuid-97860fc2-e968-4152-81b4-6e846f75a37c" points="40.09 60.48 33.47 64.3 33.47 64.87 37.7 67.31 44.32 63.49 44.32 62.92 40.09 60.48"/>
          <path class="uuid-7cb17d33-e830-4a2f-aef0-99691bb30c28" d="M30.59,53.32c-.13-.14-.34-.15-.48-.03-.14.12-.15.34-.03.48l3.99,4.47v5.96c0,.3.68.33.68,0v-6.08c0-.08-.03-.16-.09-.22l-4.08-4.57Z"/>
          <path class="uuid-38a8224f-950a-4a6f-b407-64a7a6e89b7a" d="M42.99,63.27l-4.25,2.45c-.35.2-.92.2-1.27,0l-2.23-1.28c-.35-.2-.35-.53,0-.73l4.24-2.45c.35-.2.92-.2,1.27,0l2.23,1.29c.35.2.35.53,0,.73"/>
          <path class="uuid-915abb4b-8bd7-4642-8e93-5c19d8ec16d0" d="M53.26,57.57c-.34-.56-1.56-.85-2.82-1.35-1.28-.51-3.09-1.38-3.17-1.56l-3.94.17c.02.3.04,1.62.04,2.18,0,.38,5.68,2.34,6.49,2.55.83.21,2.99.6,3.49-.49.21-.46.18-1.05-.08-1.48"/>
          <path class="uuid-e5d1380e-5a1f-4139-a9d4-b50b9187a3a6" d="M53.35,58.55c-.29.64-1.13.78-1.97.76-.87-.02-1.73-.21-2.54-.51l-5.49-1.96c-.05.59.02.66.08.77l5.51,1.85c.66.23,1.35.39,2.05.44.97.07,2.08,0,2.42-.75.13-.29.16-.64.06-.98-.02.12-.08.28-.12.38"/>
          <path class="uuid-915abb4b-8bd7-4642-8e93-5c19d8ec16d0" d="M39.79,66.5c1.34.62,2.91-.03,3.35-.69.52-.78-.98-2.89-1.93-5.36-.27-.69-.69-1.73-.69-1.73-1.03-.29-3.42-.11-3.83.82-.15.34.19,1.38.27,1.73.49,2.2.92,4.35,2.83,5.24"/>
          <path class="uuid-e5d1380e-5a1f-4139-a9d4-b50b9187a3a6" d="M43.11,65.17c-.43.66-2,1.31-3.35.69-1.26-.59-1.88-1.72-2.29-3.06-.21-.69-.73-2.81-.81-3.17-.12.37.25,1.43.32,1.77.49,2.2.92,4.35,2.83,5.24,1.34.62,2.91-.03,3.35-.69.16-.25.15-.59.03-.96-.02.05-.05.14-.08.18"/>
          <path class="uuid-d3fe9a9f-4027-460f-b0cc-ee0ab313f9d6" d="M45.63,36.63c-2.46-1.67-8.88-4.66-12.91-7.23l-12.14,1.79c-.54,4.8.14,6.73,1.09,8.11.78,1.12,2.24,1.91,3.44,2.56l6.19,3.69c.59.32,1.04.86,1.24,1.51.73,2.31,2.57,8.14,3.86,12.5.23,1.43,4.57.64,4.37-.9,0,0-1.35-11.49-1.79-15.04-.06-.48-.28-.92-.62-1.26l-2.21-2.2c1.63.69,3.2,1.35,4.45,1.98.39.19.66.55.72.98.18,1.27.65,4.58,1.74,11.71.23,1.51,5.16,1.12,4.9-.42-.16-3.42-.76-12.4-1.22-15.98-.09-.73-.5-1.38-1.12-1.8"/>
          <path class="uuid-6685f0d1-f169-4c82-9b26-bc8869775ec8" d="M32.76,18.15s4.48-.2,4.84-1.76c-.43-2.86-1.09-9.23-3.93-8.81-3.62.53-1.67,5.77-.91,10.58"/>
          <path class="uuid-6685f0d1-f169-4c82-9b26-bc8869775ec8" d="M34.85,16.54c.11-.84,1.39-4.45.76-6.72-.37-1.34-1.73-2.16-3.11-2.02-1.97.2-3.35.47-5.62,1.64-1.24.7-5.07,2.73-5.63,3.75-.35.64-.84,2.19-.85,2.91-.02,2.67.46,8.25.08,16.28,1.8,1.69,5.45,2.04,7.85,1.62,3.58-.62,5.23-1.82,5.32-4.03.18-5.88.58-8.7,1.21-13.43"/>
          <path class="uuid-1e7140d9-d97c-42b7-9279-038ea7a97d3c" d="M32.73,10.17c-.13-.42-.29-.73-.47-1.03-.4-.65-1.1-.9-1.85-.77-1.75.29-4.17,1.58-4.73,2.15-.19.19-.26.41-.12.65.95,1.67,2.82,3.59,5.27,2.83,1.85-.77,2.39-2.26,1.91-3.83"/>
          <path class="uuid-f7294b03-3992-4c97-a7ff-33d4287968e7" d="M28.39,5.8c-.46,1.67-.96,2.91-1.63,4.18-.03.06-.03.13-.01.19.06.24.27.86.97,1.52,1.4,1.31,2.61,1.26,3.33,1.03.47-.15.81-.57.88-1.06l.07-.48-3.61-5.39Z"/>
          <path class="uuid-1e7140d9-d97c-42b7-9279-038ea7a97d3c" d="M29.87.65c-1.79.7-3.12,1.97-2.69,5.41.32,2.64,2.55,5.31,4.53,6.75.49.35,1.99.74,2.48-.4.34-.8.82-3.05,1.26-5.19.2-.97.3-1.97.22-2.96-.09-1.25-.41-2.32-1.47-3.17-1.03-.83-2.45-1.16-4.33-.43"/>
          <path class="uuid-be9e3de9-9f41-43d3-b91f-6ee4f73dd9e8" d="M30.3,7.35c.03-.79-.01-1.29-.04-1.77-.07-1.2-1.84-1.69-1.73-2.96-.05-2.44,6.69-3.78,7.13,1.61-.02-.61-.06-1.17-.3-1.76-.67-1.63-2.81-3.2-5.63-2.11-1.79.7-3.2,2.11-2.7,5.7.04.26.44,2.33.92,2.33.31-.07.08-1.17.13-1.48.08-.51.66-.8,1.01-.38.25.29.23.38.27,1.25.02.42.48.87.76.44.16-.24.17-.56.19-.87"/>
          <polygon class="uuid-60aa955f-603d-44e0-ac45-9344868dd7e3" points="22.71 47.18 17.39 44.11 17.39 42.46 22.71 45.53 22.71 47.18"/>
          <polygon class="uuid-7cb17d33-e830-4a2f-aef0-99691bb30c28" points="24 46.43 22.71 47.18 22.71 45.53 24 44.78 24 46.43"/>
          <polygon class="uuid-2cdb4e30-3ba7-45de-a105-4d1cd609c9ef" points="22.71 45.53 17.39 42.46 18.69 41.71 24 44.78 22.71 45.53"/>
          <path class="uuid-7cb17d33-e830-4a2f-aef0-99691bb30c28" d="M18.15,33.92v8.51c0,.41,1.12.43,1.12-.02v-7.55l-1.12-.94Z"/>
          <path class="uuid-97860fc2-e968-4152-81b4-6e846f75a37c" d="M31.22,41.77v1.85l-4.37-2.52s-.05-.05-.05-.08v-4.5h-.71v4.5c0,.29.15.55.4.69l4.55,2.62c.09.05.19.08.29.08s.2-.03.29-.08c.18-.1.3-.3.3-.51v-2.04h-.71Z"/>
          <path class="uuid-7cb17d33-e830-4a2f-aef0-99691bb30c28" d="M17.64,32.38c.52-.3,1.37-.42,2.13-.06.04.02,5.69,3.31,7.94,4.61.33.19.57.48.62.86.02.15,0,.37.01.27,0,.96-1.57,1.69-2.88.98,0,0-7.83-4.56-7.83-4.56-.83-.49-.89-1.54.01-2.1"/>
          <path class="uuid-97860fc2-e968-4152-81b4-6e846f75a37c" d="M17.35,31.32c.55-.31,1.45-.44,2.27-.06.04.02,6,3.49,8.39,4.88.35.21.61.5.66.91.02.16,0,.39.01.28,0,1.02-1.67,1.8-3.07,1.04,0,0-8.28-4.82-8.28-4.82-.89-.52-.95-1.64.01-2.23"/>
          <path class="uuid-38a8224f-950a-4a6f-b407-64a7a6e89b7a" d="M26.58,37.68l-8.92-5.15c-.25-.15-.06-.52.21-.36l8.92,5.15c.25.15.06.52-.21.36"/>
          <polygon class="uuid-915abb4b-8bd7-4642-8e93-5c19d8ec16d0" points="29.14 39.63 29.14 40.8 31.57 42.2 33.87 39.7 29.14 39.63"/>
          <polygon class="uuid-97860fc2-e968-4152-81b4-6e846f75a37c" points="34.01 40.79 31.57 42.2 31.57 41.03 34.01 39.62 34.01 40.79"/>
          <polygon class="uuid-38a8224f-950a-4a6f-b407-64a7a6e89b7a" points="31.57 41.03 29.14 39.63 31.58 38.22 34.01 39.62 31.57 41.03"/>
          <path class="uuid-915abb4b-8bd7-4642-8e93-5c19d8ec16d0" d="M32.55,39.07c.53.31.53.8,0,1.11-.53.31-1.39.31-1.92,0-.53-.31-.53-.81,0-1.11.53-.31,1.39-.31,1.92,0"/>
          <g class="uuid-6881a137-33b8-4324-89cc-4bd8ea1fcd15">
            <g class="uuid-ac56f455-9244-4056-a2d0-e4c5ed19eda7">
              <g class="uuid-f7eb1631-cd33-4ca6-b970-7ad65ed6bd97">
                <path class="uuid-97860fc2-e968-4152-81b4-6e846f75a37c" d="M32.16,39.29c.32.18.32.48,0,.67-.32.18-.83.18-1.15,0-.32-.18-.32-.48,0-.67.32-.18.84-.18,1.15,0"/>
              </g>
            </g>
          </g>
          <path class="uuid-97860fc2-e968-4152-81b4-6e846f75a37c" d="M31.22,37.61v1.99c0,.05.03.1.1.14.14.08.36.08.5,0,.07-.04.1-.09.1-.14v-1.99h-.7Z"/>
          <path class="uuid-38a8224f-950a-4a6f-b407-64a7a6e89b7a" d="M32.29,37.5c0,.4-.32.72-.72.72s-.72-.32-.72-.72.32-.72.72-.72.72.32.72.72"/>
          <path class="uuid-6a279432-68fa-4f6d-a247-1cd00714d503" d="M33.26,35.71c-.31-1.01-2.11-1.33-3.17-1.93l-4.82-6.94c-.11-.16-.16-.35-.14-.54.12-1.22.6-5.92.86-8.44l-5.03.76c.05,2.89.55,7.72.74,9.14.03.23.13.45.27.63,1.33,1.71,5.49,5.95,6.5,7.08.17.19.36.38.55.55.34.29.77.66.92.94.05.1.09.2.13.3.16.43-.01,1.11.33,1.45.25.26.36.08.66.1.25.01.64.11.86.13.2.02.49-.15.59-.19.38-.18.77-.22.79-.67.02-.4.06-2.03-.04-2.38"/>
          <path class="uuid-6685f0d1-f169-4c82-9b26-bc8869775ec8" d="M19.97,21.77c0,1.24,6.49,1.5,6.49.14,0-2.32-.12-10.05-2.99-9.89-4.48.23-3.51,8.01-3.51,9.75"/>
        </g>
      </g>
    </g>
  </g>
</svg>