<?xml version="1.0" encoding="UTF-8"?>
<svg id="Calque_2" xmlns="http://www.w3.org/2000/svg" viewBox="0 0 63.18 58.45">
  <defs>
    <style>
      .cls-1 {
        fill: #f4c900;
      }

      .cls-2 {
        fill: #ed704d;
      }

      .cls-3 {
        fill: #ebeef8;
      }

      .cls-4 {
        fill: #23397f;
      }

      .cls-5 {
        fill: #e84f0e;
      }

      .cls-6 {
        fill: #1397d5;
      }

      .cls-7 {
        fill: #235aa3;
      }
    </style>
  </defs>
  <g id="_Éléments_Mise_en_page" data-name="Éléments_Mise_en_page">
    <g>
      <path class="cls-7" d="M58.75,26.56c-4.37.87-10.15-1.43-13.97-2.95l-.28-.11c-1.45-.58-2.89-1.24-4.29-1.88-.87-.4-1.78-.82-2.67-1.21-1.06-.46-2.19-.93-3.35-1.17-1.11-.23-1.66.5-2.01,1.17-.64,1.19-.64,2.54-.64,3.83v1.94c0,.11.09.19.2.19h0c.1,0,.18-.09.18-.19v-1.94c0-1.25,0-2.55.59-3.65.45-.83.91-1.11,1.6-.97,1.13.23,2.24.69,3.28,1.14.89.39,1.8.8,2.67,1.21,1.4.64,2.84,1.31,4.31,1.89l.28.11c3.87,1.54,9.71,3.86,14.19,2.97.1-.02.17-.12.15-.23-.02-.1-.12-.17-.23-.15"/>
      <path class="cls-2" d="M48.18,32.89c.02.53.02,1.1-.57,1.26-.4.11-1.11.18-.8.9.12.27.21.25.43.2.1-.02.08-.23.19-.26.13-.04.21.04.32.04.64,0,1.07.28,1.6-.3.35-.39.38-.93.28-1.43-.08-.42-.42-1.57-1.03-1.48-.47.07-.44.56-.42,1.07"/>
      <path class="cls-2" d="M57.17,24.05c-.78.57-2.36-.07-2.85.99-.63,1.36,2.33.52,2.79.08.63-.6.18-1.83.06-1.07"/>
      <path class="cls-1" d="M57.38,25.97s-1.32,1.83-2.94,2.65c-1.63.81-5.79-.67-6.4,1.97-.61,2.65,1.01,4.41,4.67,3.98,2.32-.27,4.48-1.91,5.76-3.08.74-.68,1.27-1.57,1.51-2.55l.42-1.72-3.02-1.26Z"/>
      <path class="cls-1" d="M48.86,31.21c-1.45.11-2.47-2.69-1.48-2.64.73.04.16,1.04.35,1.47.28.63,1.29.44,1.21,1.16-.13.02-.26,0-.4,0h.31Z"/>
      <path class="cls-1" d="M57.15,26.61c-.42-.81-.33-2.02.13-2.81.4-.69,1.32-.83,2.07-.77.65.06,1.39.03,2.01-.26.27-.13.45-.33.7-.49,1.03-.64,1.32.6.99,1.41-.29.69-1.01,1.09-1.35,1.75-.35.67-.46,1.47-1.02,2.04-.96.96-2.05.48-2.94-.19-.26-.19-.45-.43-.58-.69"/>
      <path class="cls-7" d="M62.92,22.19c-.06-.34-.49-.59-.79-.17-.42.59.25,1.07.67.56.11-.13.14-.27.12-.39"/>
      <path class="cls-1" d="M49.66,34.05c.57.95.64,1.26.72,2.29.03.36.67,1.89,1.23,1.15.2-.27-.3-.51-.37-.76-.07-.26.08-.5.19-.72.25-.48.78-.96.59-1.56-.3-.99-1.97-1.32-2.26-.31l-.1-.1Z"/>
      <path class="cls-1" d="M58.65,29.99c.64-.09,1.14.6,1.22,1.14.1.64-.23,1.2-.2,1.85.07.02.12.05.19.07.1.55-.59.45-.75.14-.19-.37.02-.91-.18-1.29-.21-.4-.64-.42-.74-.84-.09-.41.35-1.2.76-.78-.02.07-.08.07-.31-.28"/>
      <path class="cls-7" d="M59.41,28.9h-.03c-1.16-.01-3.03-.81-3.39-2.21-.07-.26.09-.53.35-.59.26-.07.53.09.59.35.16.63.97,1.13,1.71,1.34.61.18,1.04.13,1.13.06.08-.25.34-.39.6-.32.26.07.41.34.34.6-.06.23-.32.76-1.3.76"/>
      <path class="cls-2" d="M59.5,25.2c.77.97-1.32,3.85,0,4.56.82.44,1.35-.87,1.45-1.43.13-.8.13-1.85-.32-2.57-.13-.22-.34-.51-.59-.59-.24-.08-.75.06-.54.04"/>
      <path class="cls-1" d="M1.18,56.48c.59.84.93.92,1.13.58.43-.74.03-3.06.05-4.25,0-.29.03-.51.1-.62.02-.04,1.19-1.85,1.19-1.85.46-.84.91-1.68,1.38-2.51.4-.72.8-1.44,1.2-2.16.3-.54.56-.98.8-1.39.14-.23.27-.44.41-.66.22-.35.44-.7.68-1.1.06-.1.12-.2.19-.31.07-.11.13-.22.2-.33.14-.23.28-.47.44-.74.08-.13.16-.27.24-.42,1.32-2.32,2.8-5.59,4.09-8.74.55-1.35,1.07-2.67,1.53-3.89,0-.51-.03-1.02-.11-1.52,0-.02-.01-.03-.02-.05-.41-1.28-1.18-2.49-2.2-3.31-.05-.04-.11-.08-.16-.12-.13-.1-.26-.19-.4-.27-.81-.24-2.08-.25-3.06.05-.11.03-.22.07-.32.11l-1.44-.55v5.21c-.62,2.78-1.3,5.94-1.68,7.18-.08.24-.15.5-.24.77-.04.13-.08.27-.13.41-.02.07-.04.14-.07.21-.09.28-.18.57-.27.86-.07.22-.14.44-.21.66-.05.15-.09.3-.14.44-.38,1.19-.75,2.37-1.07,3.34-.45,1.39-.92,2.78-1.39,4.15-.03.09-.06.17-.09.25-.59,1.7-1.33,3.55-1.65,5.4,0,.06-.02.11-.03.17-.3,1.87-.15,3.32,1.05,5.01"/>
      <path class="cls-1" d="M14.37,50.19c0,.12,0,.25,0,.37,0,.07,0,.14,0,.21.03,1.06.06,2.12.09,3.19.02.95,0,0,.02.95,0,.13,0,1,.01,1.67,0,.4,0,.73.01.81,0,.12.02.24.03.37,0,.06,0,.12.02.19.5.71,1.53.55,2.48.19l1.41-.75c1.91-1.15,1.22-1.79,1.22-1.79-.87-.41-2.08.04-2.49.22-.03.01-.05.02-.07.03,0,0,0,0,0,0-.05.02-.07.03-.07.03l.95-5.5s0,0,0,0c.02,0,.04,0,.06-.01.01-.08.02-.16.04-.24h0s-.04,0-.05.01c-.9.21-1.87.16-2.81.12-.2,0-.39,0-.59-.02-.1,0-.18-.03-.27-.05"/>
      <path class="cls-4" d="M3.3,41.5c.63-1.93,1.51-4.73,2.11-6.69,0-.02.01-.04.02-.07,0-.02,0-.03.01-.05.21-.88.51-3.74.84-6.56.26-2.26.54-4.5.81-5.7.08-.29.17-.56.26-.81.95-2.69,2.4-3.2,5.4-2.88.75.08,1.48.22,2.22.36.38.07.76.13,1.14.18.57.07,2.11-.19,2.54.13.65.48.4-.66.45.78.03.56.53.61.56.9.13,1.09.44.23.43,4.77,0,.14-.06,2.57-.01,2.69,0,0,0,.02,0,.03.04,4.35-.15,10.04-.72,13.8-.08.56-.16,1.03-.24,1.46l-.04.25c-.27,1.46-.48,2.35-.71,3.98-.03.18-.05.36-.08.54-.08.59-.17,1.18-.25,1.78-.02,0-.04,0-.06.01,0,0-.24.5-1.93.6-.49.03-.92-.06-1.29-.2-.13,0-.27,0-.41,0,0-.05,0-.11,0-.18,0-.24-.01-.56-.02-.75-.01-.41-.02-.82-.04-1.23-.04-1.13-.09-2.27-.15-3.41-.1-2.03-.28-4.96-.42-7,0-.13-.02-.26-.03-.38,0-.06,0-.11-.01-.17-.14-1.72-.31-2.69-.45-4.57-1.29,3.15-2.74,5.31-4.06,7.62-1.33,2.34-1.91,3.03-2.96,4.95-.4.72-.8,1.44-1.19,2.16-.45-1.09-1.07-1.45-2.07-1.94-.34-.17-.7-.23-1.06-.23.48-1.37.94-2.76,1.4-4.15"/>
      <path class="cls-1" d="M18,50.38s.04,0,.06-.01c.09-.59.17-1.18.25-1.78l-.31,1.79Z"/>
      <path class="cls-6" d="M5.51,10.89c.49-3.02,4.15-2.85,6.77-2.94,2.42.71,4.86,2.04,6.42,4.05.28.36.61.54.96.61.08.3.14.61.17.93.2,2.4.45,4.82.52,7.24-.01.06-.03.11-.04.18-.2,1.27-.62,2.37-1.12,3.45-1.42,1.71-3.8,2.24-5.9,2.14-1.35-.07-2.7-.36-3.94-.9-.58-.25-1.23-.59-1.82-1.02-.51-.37-.8-1-.8-1.65,0-.56,0-1.12-.03-1.67-.09-2.2-.46-9.22-1.32-9.67.07-.76,0,0,.12-.73"/>
      <path class="cls-3" d="M14.5,56.58c0,.4,0,.73,0,.81,0,.12.02.24.03.37,0,.06,0,.12.02.19.5.71,1.53.55,2.48.19l1.41-.75c1.91-1.15,1.22-1.79,1.22-1.79-.87-.41-2.08.04-2.49.22-.08.6-.71.95-1.27,1.1-.73.19-1.01.06-1.41-.34"/>
      <path class="cls-6" d="M2.36,53.03s0,.02.01.06v-.03s-.01-.03-.01-.03"/>
      <path class="cls-3" d="M1.18,56.48c.59.84.93.92,1.13.58.43-.74.03-3.06.05-4.25-.15-1.1-1.07-2.79-2.19-1.51,0,.06-.02.11-.03.17-.3,1.87-.15,3.32,1.05,5.01"/>
      <path class="cls-6" d="M16.76,11.3c.56-.41,1.34-.33,1.8.2l5,5.84c.5.25,1.03.45,1.58.58.03,0,4.75,1.12,5.97,1.41.07.32.08.63.03.93-.12.73-.48,1.16-.97,1.51-.56,0-1.13-.03-1.7-.07-1.38-.09-2.81-.06-4.17-.27-2.47-.37-3.88-1.62-5.81-3-1.28-.92-3.9-2.49-4.12-4.24-.19-1.55,1.13-2.87,2.4-2.9"/>
      <path class="cls-1" d="M31.13,20.27c.05-.29.04-.61-.03-.93.18.04.29.07.29.07,0,0,2.27.5,2.27.51.51.11,1.14.55,1.03,1.16-.12.65-.66.53-1.2.58-1.13.1-2.22.14-3.33.13.49-.35.85-.78.97-1.51"/>
      <path class="cls-6" d="M10.89,10.16c-.3,2.19-1.94,4.02-3.43,5.38-1.25,1.14-2.27,2.65-2.65,4.35,0,.04-1.4,6.28-1.4,6.28,0,0-.02.11-.06.28-.49.15-1.03.16-1.48.04-.34-.1-.61-.24-.83-.43-.03-.92-.02-1.84.03-2.79.07-1.38.03-2.81.21-4.18.35-2.57,2.72-6.62,4.11-8.68,1.07-1.59.03-4.24,2.31-4.35,1.85-.09,3.38,2.65,3.18,4.1"/>
      <path class="cls-1" d="M1.87,26.49c.45.13.99.11,1.48-.04-.13.61-.42,2-.42,2-.11.51-.54,1.14-1.15,1.04-.65-.11-.54-.66-.59-1.19-.08-.76-.13-1.5-.15-2.24.22.18.49.33.83.42"/>
      <path class="cls-1" d="M15.45,3.43c-.47-.34-1.56-.21-2.08-.16-.62.06-1.99-.02-2.4.56-.19.28-.14.66-.17.95-.14,1.37-.3,2.75-.42,4.17.54.31,1.15.51,1.78.6.22,0,.44.08.65.2.81.44,1.82-.02,1.96-.93.27-1.72.54-3.81.78-5.11-.04-.09-.07-.19-.11-.28"/>
      <path class="cls-1" d="M11.98,5.92h0c.24.15.52.25.82.32.25.06.55.11.85.14.05,0,.1,0,.15.01.45.03.93,0,1.35-.11.11-.03.21-.07.32-.11.38-.17.68-.44.86-.85.26-.6.18-1.26-.09-1.85h0c-.09-.21-.21-.41-.34-.59-.05-.07-.1-.13-.15-.2-.2-.25-.43-.46-.68-.64-.06-.04-.1,0-.12.06-.45-.26-1.18.05-1.63.29-.46.25-.93.58-1.31.98-.15.15-.28.32-.39.49h0c-.13.2-.23.4-.29.62-.18.66.13,1.14.65,1.45"/>
      <path class="cls-5" d="M11.85.11c-1.3.36-2.17,1.52-2.22,2.8-2.6-.03-5.81,2.63-4.4,5.15.07.12.12.25.12.39.02.54-.58.64-1.03.72-1.75.31-3.15,1.98-3.21,3.76-.07,1.78,1.13,3.52,2.8,4.15,1.67.63,3.67.16,4.94-1.09,1.3-1.29,1.75-3.54.58-4.98-.1-.13-.19-.27-.23-.43-.16-.74.83-.96,1.51-1.19,1.41-.49,1.96-1.92,1.86-3.32.3,0,.61-.03.91-.11,1.66-.47,2.61-2.22,2.06-3.88-.5-1.52-2.15-2.39-3.69-1.97"/>
    </g>
  </g>
</svg>