<?xml version="1.0" encoding="UTF-8"?>
<svg id="Calque_2" xmlns="http://www.w3.org/2000/svg" viewBox="0 0 14.52 47.46">
  <defs>
    <style>
      .cls-1 {
        fill: #ec6e2c;
      }

      .cls-2 {
        fill: #4489c8;
      }

      .cls-3 {
        fill: #be3318;
      }

      .cls-4 {
        fill: #72a8db;
      }

      .cls-5 {
        fill: #f9b500;
      }

      .cls-6 {
        fill: #a0c6ea;
      }

      .cls-7 {
        fill: #ffd533;
      }

      .cls-8 {
        fill: #2a2d3f;
      }

      .cls-9 {
        fill: #ffd93e;
      }

      .cls-10 {
        fill: #e5e4e4;
      }

      .cls-11 {
        fill: #f09c80;
      }

      .cls-12 {
        fill: none;
        stroke: #d12334;
        stroke-miterlimit: 10;
        stroke-width: .9px;
      }

      .cls-13 {
        fill: #f6af90;
      }

      .cls-14 {
        fill: #f9c9b4;
      }

      .cls-15 {
        fill: #e33e12;
      }

      .cls-16 {
        fill: #454759;
      }

      .cls-17 {
        fill: #ef9274;
      }

      .cls-18 {
        fill: #f39d7b;
      }

      .cls-19 {
        fill: #12110c;
      }
    </style>
  </defs>
  <g id="_Éléments_Mise_en_page" data-name="Éléments_Mise_en_page">
    <g>
      <line class="cls-12" x1="8.08" y1="16.38" x2="4.7" y2="19.93"/>
      <path class="cls-13" d="M1.41,19.47h1.3c.24-.74,2.7-6.89,2.79-9.48.03-.81.41-3.38.41-3.5,0-1.71-2.47-.33-2.55,1.47,0,0-.15,3.08-.31,4.47-.18.04-1.36,6.4-1.64,7.04"/>
      <path class="cls-2" d="M3.3,7.84c0,1.82,2.76.24,2.76-1.59s-2.76-.24-2.76,1.59"/>
      <path class="cls-2" d="M3.33,11.06c-1.29.74.65,1.88,1.96,1.13,1.29-.74-.65-1.88-1.96-1.13"/>
      <polygon class="cls-2" points="2.91 11.62 3.36 7.37 6.05 6.46 5.09 11.28 2.91 11.62"/>
      <path class="cls-17" d="M2.75,40.58c-.83.67-2.41,1.15-2.23,2.12,0,0,.68.71,1.5.35.81-.36,1.77-.84,2.58-1.22,1.36-.64,2.79.67,1.76-2.43-3.85-.14-1.64-.4-3.6,1.19"/>
      <path class="cls-16" d="M.36,42.28c-.06,1.07,1.74,1.25,2.72.54.51-.36,2.81-.99,3.35-1.33.2-.13.26-.38.29-.57-.05-.44-.1-.98-.29-1.33-.02-.05-.04-.07-.06-.09,0,.02.03.07.05.16.02.13.03.33-.05.57-.15.44-1.29.85-1.72.43-.62-.62-1.15-.93-1.29-.83-.1.07-.82.62-1.37,1.18-.34.35-1.53.98-1.62,1.27"/>
      <path class="cls-8" d="M2.45,40.38h0s.02-.03.04-.04c.04-.02.42-.13,1.06.76.02.04.02.08-.02.11-.01.01-.03.01-.05.01-.02,0-.05-.01-.06-.03-.56-.79-.87-.71-.87-.71-.03.02-.12.1-.12.1-.02-.1.02-.21.02-.21"/>
      <path class="cls-8" d="M1.99,40.8h0s.02-.03.04-.04c.04-.02.42-.13,1.06.76.02.04.02.08-.02.11-.01.01-.03.01-.04.01-.02,0-.05-.01-.06-.03-.56-.79-.87-.71-.87-.71-.03.02-.12.1-.12.1-.02-.1.02-.21.02-.21"/>
      <path class="cls-8" d="M2.92,39.97h0s.02-.03.04-.04c.04-.02.42-.13,1.06.76.02.04.02.08-.02.11-.01.01-.03.01-.04.01-.02,0-.05-.01-.06-.03-.56-.79-.86-.7-.86-.7-.03.01-.13.1-.13.1-.02-.1.02-.21.02-.21"/>
      <path class="cls-8" d="M.36,42.96c.18.28.51.51,1.43.53.93.03,2.17-.68,2.88-1.18.71-.49,1.88-.52,2-.7.11-.18.05-.68.04-.71,0,0,0,0,0,0-.02.13-.11.24-.23.29-.21.1-.63.26-1.28.4-1.04.21-1.6.78-2.06,1.06-.78.48-2.76.72-2.79-.39-.04.29,0,.69,0,.69"/>
      <path class="cls-17" d="M6.35,39.35h-2.52s.32-2.43-.15-6.27c-.39-3.11-.98-3.88-.31-12.79h5.29c-1.16,6.67-2.44,9.09-1.83,11.46.37,1.43-.73,5.42-.46,7.6"/>
      <path class="cls-17" d="M4.2,38.84c-1.17.68.6,1.72,1.78,1.03,1.18-.68-.6-1.72-1.78-1.03"/>
      <path class="cls-3" d="M3.37,31.58c-.74-4.85-.25-5.38-.17-11.54l5.45.22s-.38,3.01-1.51,7.7c0,0-.63,2.18-.22,3.79.1.4-.12,7.25-.13,7.67,0,.34-.27.68-.85.89-1.38.49-2.73-.28-2.63-.96,0,0,.21-5.12.06-7.77"/>
      <path class="cls-18" d="M9.89,42.07c-1.18.68.6,1.72,1.78,1.03,1.18-.68-.6-1.72-1.78-1.03"/>
      <path class="cls-18" d="M5.81,21.48c-.07,3.61,1.45,2.95,1.49,3.96.52,11.9,2.41,5.9,2.23,17.14h2.52c-.09-2.84.72-6.36.32-8.38-.39-1.96-.67-2.9-.56-5.28.11-2.37.35-7.37.02-8.63l-6.03,1.19Z"/>
      <path class="cls-13" d="M9.45,42.59s-.14.25-.72,1.17c-.55.87-2.14,2.45-2.34,2.86,0,0,.61.74,2.48.25.86-.22,1.36-.81,1.97-1.46.95-1.02,1.81-.8,1.08-2.85l-2.46.02Z"/>
      <path class="cls-16" d="M6.34,46.57s0,.04.01.05c.1.38.85.63,2.19.4,1.34-.24,1.97-1.15,2.35-1.56.38-.41,1.32-1.25,1.41-1.56,0,0,0-.02,0-.02-.05-.45-.21-1.08-.27-1.28-.04-.17-.15-.26-.22-.3-.04-.02-.07-.03-.07-.03.41.73-.77,1.79-1.55,1.46-.28-.12-1.07-.94-1.35-.51-.28.43-2.11,2.79-2.28,2.98-.1.11-.19.22-.23.36"/>
      <path class="cls-8" d="M9.77,44.29s.06-.02.07-.04c.02-.04,0-.08-.04-.1-.07-.03-.18-.11-.3-.2-.33-.25-.97-.68-1.1-.28-.03.09.03.15.03.15,0,0,.03-.03.05-.07.03-.05.07-.08.12-.08.33-.06.85.5,1.14.62.01,0,.02,0,.03,0"/>
      <path class="cls-8" d="M9.33,44.88s.06-.02.07-.04c.02-.04,0-.08-.04-.1-.07-.03-.18-.11-.3-.2-.33-.25-.97-.68-1.1-.28-.03.09.03.15.03.15,0,0,.03-.03.05-.07.03-.05.07-.08.12-.09.33-.06.85.5,1.14.62,0,0,.02,0,.03,0"/>
      <path class="cls-8" d="M8.88,45.47s.06-.02.07-.04c.02-.04,0-.08-.04-.1-.07-.03-.18-.11-.3-.2-.33-.25-.97-.68-1.1-.28-.03.09.03.15.03.15,0,0,.03-.04.05-.07.04-.05.07-.07.13-.08.33-.06.85.5,1.14.62,0,0,.02,0,.03,0"/>
      <path class="cls-8" d="M8.55,47.37c1.34-.24,1.97-1.15,2.35-1.56,1.3-1.4,1.49-1.26,1.42-1.93,0,0,0,.02,0,.02-.09.31-1.03,1.15-1.41,1.56-.38.41-1.01,1.33-2.35,1.56-1.34.23-2.09-.01-2.19-.4,0-.02,0-.04-.01-.05-.27.96,1.2.97,2.21.8"/>
      <path class="cls-15" d="M12,20.29c.12,1.34-.07,6.24-.18,8.61-.17,3.53.6,4.33.66,6.31,0,0,.13,4.78.05,7.29.04,1.33-3.45,1.36-3.48.03,0,0-.06-4.86-.27-7.44-.04-.52-.17-1.03-.39-1.51-.59-1.32-1.11-6.5-1.17-7.68-.01-.27-.13-.46-.26-.59-1.18-1.14-1.24-1.3-1.34-4.27l6.38-.76Z"/>
      <path class="cls-13" d="M3.42,8.1c.58-1.54,2.05-2.67,2.05-2.67,2.9.34,6.17,2.47,8.33,4.47,0,0-1.33.46-1.68,2.11-.35,1.65-.12,8.3-.12,8.3,0,.65-.43,1.31-1.3,1.81-2.7,1.56-7.56.52-7.56-1.81h0c.06-1.05.22-2.74.34-3.8.25-2.18-.51-3.75-.51-4.66,0-.92-.13-2.21.45-3.75"/>
      <path class="cls-4" d="M2.97,11.86c0,.92.76,2.48.5,4.66-.07.53-.13,1.21-.2,1.9-.06.69-.12,1.38-.14,1.9,0,1.5,2.02,2.46,4.18,2.54,1.19.04,2.42-.18,3.38-.73.87-.5,1.3-1.15,1.3-1.81,0,0-.23-6.64.12-8.3.34-1.65,1.68-2.11,1.68-2.11-.36-.33-.75-.67-1.16-1-2.09-1.66-4.75-3.2-7.17-3.48,0,0-1.46,1.13-2.04,2.67-.59,1.54-.45,2.83-.45,3.75"/>
      <path class="cls-1" d="M12.64,8.91c-.12-.1-.26-.2-.39-.3.46.41.93.81,1.41,1.18-.32-.3-.66-.59-1.02-.88"/>
      <path class="cls-7" d="M2.97,11.86c0,.92.76,2.48.5,4.66-.07.53-.13,1.21-.2,1.9-.06.69-.24,2.85-.26,3.37,0,.81.58,1.46,1.46,1.89,0,0,.17-3.39.23-4.07.07-.69.13-1.38.2-1.9.26-2.17-.51-3.74-.51-4.66,0-.92-.13-2.21.45-3.75.48-1.27,2.01-2.87,2.54-3.38-.66-.23-1.28-.4-1.92-.47,0,0-1.46,1.13-2.04,2.67-.59,1.54-.45,2.83-.45,3.75"/>
      <path class="cls-7" d="M7.14,14.43c0,.92.76,2.48.5,4.66-.06.53-.12,1.22-.19,1.9-.07.67-.09,3.05-.12,3.57,1.19.04,2.43-.18,3.38-.73.87-.5,1.3-1.15,1.3-1.81,0,0-.26-8.35.09-10,.34-1.65,1.68-2.11,1.68-2.11-.36-.33-.75-.67-1.16-1-.88-.66-1.57-1.23-2.54-1.74,0,0-.18.81-.88,1.76-.42.57-1.4,1.16-1.61,1.74-.59,1.54-.45,2.83-.45,3.75"/>
      <path class="cls-14" d="M12.49,25.74c-.61.35.31.89.92.53.61-.35-.31-.89-.92-.53"/>
      <path class="cls-14" d="M11.27,12.13c0,1.82,2.76.24,2.76-1.59s-2.76-.24-2.76,1.59"/>
      <path class="cls-13" d="M14.03,10.54c.17,10.18.39,9.34-.42,15.47h-1.31c-.14-3.47-.47-5.38-.25-7.08.21-1.64-.2-4.79-.5-5.58-.26-.69-.28-1.08-.28-1.08l1.21-2.13,1.54.4Z"/>
      <path class="cls-13" d="M12.3,26s-.94.76-1.24,1.26c-.3.5-1.16,1.38-.98,1.55s.59-.04.76-.23c.17-.19.66-.88.77-.58.12.3-.05,1.73-.44,2.4,0,0,.01.32.37,0,.36-.32,1.65-1.79,1.76-2.23.1-.44.3-2.17.3-2.17h-1.31Z"/>
      <path class="cls-13" d="M6.5,8.07s.17.33.2.38c.19.25.4.33.4.33,2.54.37,3-1.61,3-1.61,0,0-.35-.55-.37-1.8-1.16.21-.81.02-1.56.76h0c-.41-.17-.82-.31-1.25-.43-.04.08-.07.15-.1.22-.02.05-.05.11-.07.16-.24.59-.45,1.38-.23,1.99"/>
      <path class="cls-19" d="M5.45,3.19s.03,1.03.21,1.24c.18.21.15-1.5.15-1.5l-.36.27Z"/>
      <path class="cls-11" d="M6.5,8.07c.14.1.25.16.33.17.31.04,1.1-.25,1.68-.67.58-.43.92-1.38.92-1.38,0,0-2.9.98-3.01,1.02-.04.36,0,.66.07.86"/>
      <path class="cls-13" d="M8.06,1.08s2.29-.35,2.66,2.74c-.96,1.33-.59,1.58-1.03,1.87,0,0-.62,1.42-1.25,1.72-.63.29-1.31.68-1.5.55-1.19-.82-1.08-2.64-1.36-3.37,0,0-.23-3.39,2.49-3.49"/>
      <path class="cls-19" d="M5.45,3.19c.3-.18.49.16.74.34.81.57,1.81-.51,2.68-.11.3.21.18.88.26,1.28.06.31.05.48.05.48l.37-.22.31,1.55s.91-2.21,1-2.7c.09-.49-.09-1.55-.82-2.24-1.22-1.16-4.32-.96-4.59,1.62"/>
      <path class="cls-13" d="M9.95,4.21c.6.05.13,1.36-.07,1.49-.2.13-.52-.39-.52-.39.11,0-.13-1.16.59-1.1"/>
      <path class="cls-10" d="M8.98,39.6c0,.17.02.92.02,1.05.12.52.86.81,1.6.85.03,0,.05,0,.08,0h.08c.85,0,1.72-.33,1.77-.94,0-.13,0-.81,0-.95-.01.65-.91.99-1.77.99s-1.78-.35-1.79-1"/>
      <path class="cls-10" d="M3.35,37.76c.14.5.85.77,1.58.81.02,0,.05,0,.08,0h.08c.78,0,1.57-.27,1.74-.8,0-.3.02-.64.03-1.02-.08.6-.93.91-1.76.91-.74,0-1.51-.25-1.72-.73,0,.3-.02.58-.03.83"/>
      <path class="cls-6" d="M11.27,12.13c0,1.82,2.76.24,2.76-1.59s-2.76-.24-2.76,1.59"/>
      <path class="cls-6" d="M12.14,14.91c-1.29.74.65,1.88,1.96,1.13,1.29-.74-.65-1.88-1.96-1.13"/>
      <path class="cls-6" d="M11.74,15.48l-.47-3.21s2.71-2.08,2.72-2c.02.07.48,2.55.51,5.21h-2.77Z"/>
      <path class="cls-9" d="M4.93,3.59c.93.29,2.2.86,3.19.8,0,0,.02,0,.03,0,.16-.01.31-.04.46-.09.31-.1.62-.22,1.31-.68.13-.09.24-.12.33-.11.08.04.14.07.18.11.33.33.37,1.13.37,1.13,0,0,.18-.02.22-.12.04-.1.03-.27.03-1.56,0-.13,0-.25-.02-.38,0-.01,0-.03,0-.04-.1-1.17-.93-2.15-2.05-2.48-.02,0-.05-.01-.07-.02-.53-.14-1.16-.2-1.79-.02-1.36.4-1.83,2.12-1.93,2.56-.07.16-.14.31-.25.44-.14.18-.24.39,0,.47"/>
      <path class="cls-5" d="M8.16,4.38c.16-.01.31-.04.46-.09.31-.1.62-.22,1.31-.68.13-.09.24-.12.33-.11.08.03.14.07.18.11.33.33.37,1.13.37,1.13,0,0,.18-.02.22-.12.04-.1.03-.27.03-1.56,0-.13,0-.25-.02-.38,0-.01,0-.03,0-.04-.1-1.16-.93-2.15-2.05-2.48.25.2.45.44.58.76.36.92-.05,1.85-.49,2.55-.23.38-.52.69-.91.91"/>
      <path class="cls-18" d="M1,21.29s-.1,2.18.23,2.31c.32.13,1.14-.99,1.27-1.59.13-.61.3-1.83.3-1.83,0,0-1.54.38-1.79,1.11"/>
      <path class="cls-13" d="M.78,22.05c.23-.15,1.36-1.19,1.56-1.37.39-.36.58-.41.43-.99l-.06-.23h-1.3s0,.01,0,.01c-.02.04-.34.64-.43.86-.21.48-.76,1.52-.94,1.73-.18.21.48.17.75-.01"/>
    </g>
  </g>
</svg>