<?xml version="1.0" encoding="UTF-8"?>
<svg id="uuid-8c8cce39-5507-4d35-9000-4bb2b6a6ae6b" data-name="Calque_2" xmlns="http://www.w3.org/2000/svg" viewBox="0 0 26.33 59.53">
  <defs>
    <style>
      .uuid-bf848597-8079-4371-94fa-fe9841ca2b3b {
        fill: #f3aac6;
      }

      .uuid-deb90834-0b1d-48a3-9e5b-472a7e2cb8e3 {
        fill: #302879;
      }

      .uuid-fec5abdf-8c5c-45c8-b9e4-5c1c70f175fe {
        fill: #56adad;
      }

      .uuid-9fd6806e-16e1-4438-9414-53aec87694ea {
        fill: #e53b11;
      }

      .uuid-80fdb4f8-7da0-47d5-b442-b183b864575b {
        fill: #1d1a30;
      }
    </style>
  </defs>
  <g id="uuid-7d9d44a8-90b1-4913-abda-dc132f59ada9" data-name="Les_personnages">
    <g id="uuid-d36b702b-44c1-4155-9e5a-a3a8f26e0c6c" data-name="Chara_x5F_FemmeTelephone_x5F_BG">
      <path class="uuid-bf848597-8079-4371-94fa-fe9841ca2b3b" d="M6.93,59.53c.89-.52,2.33-1.38,3.49-2.11.07-.12.13-.23.16-.33.05-.14.09-.28.11-.44.01-.07.03-.15.04-.22.05-.3.07-.63.08-.95.69-2.85,1.93-5.62,2.31-8.51.08-1.93-.33-3.42-.39-3.78-.07-.48.28-1.14.77-1.69l1.28-2.81.11.15c.45.61,1.06,1.09,1.76,1.38,1.37.57,3.04,1.63,3.89,1.96,1.33.51,3.06,1.27,3.44,2.77.04.14.06.3.07.45.19,3.03,1.54,0,1.7-1.44.05-.45-.03-.83-.2-1.17-.11-.22-.26-.41-.43-.6-.17-.19-.36-.36-.57-.53-.46-.38-.97-.73-1.39-1.13-.64-.61-1.3-1.22-1.93-1.85,0,0-.01,0-.02-.01-1.4-.98-2.49-1.7-3.57-2.12,1.41-2.06,2.72-4.82,2.7-6.85,0-.5-.21-.89-.59-1.14-.46-.31-1.15-.38-1.93-.32-.16-.18-.22-.26-.38-.44l.04-.21-3.76-1.8-3.74,2.05-.02.13s-.48,3.32.91,7.29c-.92,2.86-1.83,5.97-1.86,7.07-.05,1.95-.46,10.94-.54,12.72,0,.14-.03,1.16-.17,1.53-.03.06-.05.12-.09.18-.09.16-.21.31-.35.46-.37.41-.85.8-1.11,1.23-.26.45-.32.83.13,1.03"/>
      <path class="uuid-bf848597-8079-4371-94fa-fe9841ca2b3b" d="M1.82,8.19c.61-.01,1.22.89,1.48,1.3.59.92.81,1.15,1.23,2.15.34.81.88,1.91,1.32,2.64.89-2.15,1.15-5.34,3.32-6.65.55-.33,1.93-.6,2.49-.32,1.03.52.15,1.29-.32,1.94-1.77,2.46-2.43,5.51-3.5,8.33-.16.41-.32.84-.72,1.14-.4.3-1.09.45-1.68.22-.55-.21-.82-.67-1.03-1.08-.47-.93-4.04-9.31-2.74-9.64.04-.01.09-.02.13-.02"/>
      <path class="uuid-bf848597-8079-4371-94fa-fe9841ca2b3b" d="M3.14,9.36c-.41-.81-1.21-1.41-2.11-1.56,0,.14-.01.29-.02.43-.35.06-.73-.48-.96-.21-.12.14-.02.36.09.51.58.78,1.36,1.41,2.24,1.8.22.1.47.18.7.09.3-.13.39-.53.27-.83-.11-.3-.37-.52-.62-.73l.41.5Z"/>
      <path class="uuid-9fd6806e-16e1-4438-9414-53aec87694ea" d="M10.91,2.65c.35-1.81,2.61-3.16,4.27-2.46,1.19.5,1.17,1.97,2.12,2.53.77.46,1.74.07,2.48-.21,1.52-.57,3.45-1.99,4.62-.07.93,1.54-.41,2.16-1.56,2.92-1.32.86-2.05,2.26-3.44,2.96-2.3,1.15-3.9.05-5.79-1.13-1.75-1.09-2.94-1.95-2.74-4.28,0-.09.02-.18.04-.27"/>
      <path class="uuid-bf848597-8079-4371-94fa-fe9841ca2b3b" d="M12.17,2.14c.76.74,1.75,1.14,2.83,1.05-.41,1.54-1.28,3.2-2.64,2.38-.88-.53-1.17-1.61-1.06-2.7.33-.2.62-.44.87-.74"/>
      <path class="uuid-fec5abdf-8c5c-45c8-b9e4-5c1c70f175fe" d="M6.26,36.73c.09.39.23.75.46,1.06,1.05,1.43,4.62,2.96,6.35,3.12,1.65.15,5.29-.31,6.7-1.15,2.28-1.35,4.58-2.95,6-5.22,1.47-2.35-.29-3.44-1.38-5.69-.79-1.64-1.56-3.31-2.58-4.83-1.11-1.65-2.86-4.01-2.98-6.05-.13-2.23,1.17-5,.91-7.18-.18-1.49-1.19-2.58-2.57-3.05-.16-.05-.32-.11-.49-.18-1.09-.42-2.41-1.03-3.49-1.13-1.1-.1-2.4.21-3.43.85-.99.62-1.74,1.54-1.86,2.71-.29,2.87.93,5.89.67,8.81-.37,4.21-1.47,8.32-1.86,12.52-.14,1.46-.84,3.73-.46,5.4"/>
      <path class="uuid-deb90834-0b1d-48a3-9e5b-472a7e2cb8e3" d="M22.46,26.85s-.01,0-.02.01c-.88.57-2.04.49-2.86-.18-.54-.44-1.07-.9-1.55-1.4-.59-.6-.77-1.49-.45-2.27h0c1.72-.86,3.96-1.45,5.6-2.46.3.18.12.34.3.76.76,1.71.79,4.36-1.02,5.54"/>
      <path class="uuid-80fdb4f8-7da0-47d5-b442-b183b864575b" d="M16.27,2.03c.3,0,.6-.02.9-.04.17-.01.27.13.26.36-.07,1.18-.59,2.58-1.01,3.81-.22.63-.64.99-1,1.06-.32.17-.63.14-.72-.2-.05-.18-.07-.38-.08-.57,0-.08.01-.17.04-.26.39-1.17.73-2.35,1-3.51.08-.34.36-.65.61-.65"/>
      <path class="uuid-bf848597-8079-4371-94fa-fe9841ca2b3b" d="M16.75,6.69c.27-.64.48-1.28.63-1.91.03-.13.06-.27,0-.33-.1-.13-.34.08-.53.21-.73.48-1.28-.26-2,.3-.11.64.08,1.14.4,1.43.32.29.75.4,1.17.52.07.02.15.04.24-.01.09-.05.19-.2.16-.28l-.08.09Z"/>
      <path class="uuid-bf848597-8079-4371-94fa-fe9841ca2b3b" d="M12.78,3.81s.06-.03.09-.04c.64-.26,1.16,0,1.51.5-.03,1.25-.19,2.48-.4,3.71-.02.11-.09.22-.19.28h0c-3,1.77-1.99-3.99-1.02-4.44"/>
      <path class="uuid-bf848597-8079-4371-94fa-fe9841ca2b3b" d="M19.52,8.35c-.44-.82.27.48,0,0"/>
      <path class="uuid-bf848597-8079-4371-94fa-fe9841ca2b3b" d="M19.37,9.58c.43.78,1.23,2.42,1.33,3.14.23,1.76.71,5.01-1.12,6.32-1.24.89-1.85-2.36-2.02-3-.31-1.15-.51-2.36-.51-3.56,0-1.02.1-3.73,1.69-3.34.58.14.35-.07.63.45"/>
      <path class="uuid-9fd6806e-16e1-4438-9414-53aec87694ea" d="M6.93,59.53c.89-.52,2.33-1.38,3.49-2.11.07-.12.13-.23.16-.33.05-.14.09-.28.11-.44.01-.07.03-.15.04-.22-.67.18-1.23.77-1.82,1.18-.36.25-.87.1-1.01-.32,0,0,0-.02,0-.03-.37.41-.85.8-1.11,1.23-.26.45-.32.83.13,1.03"/>
      <path class="uuid-9fd6806e-16e1-4438-9414-53aec87694ea" d="M24,44.95c.04.14.06.3.07.45.19,3.03,1.54,0,1.7-1.44.05-.45-.03-.83-.2-1.17-.11-.22-.26-.42-.42-.6.04.83-.2,3.06-1.14,2.75"/>
      <path class="uuid-deb90834-0b1d-48a3-9e5b-472a7e2cb8e3" d="M17.95,19.11c-.16-1.37-.07-2.78.85-3.48.72-.55,1.51.02,2.11.83.43.57.87,1.26,1.19,1.93.34.72.33,1.97.8,2.55.23.28-.04.71-.28.42-.68-.83-.54-2.03-1.07-3-.61-1.13-1.73-3.09-2.71-1.93-.81.96-.47,2.51-.29,3.88.19,1.46.36,2.93.53,4.34.07.6-.39.6-.46,0-.22-1.8-.48-3.67-.7-5.53"/>
      <path class="uuid-bf848597-8079-4371-94fa-fe9841ca2b3b" d="M15.9,6.43c.1-.28.48-.32.65-.08.89,1.27,1.68,2.67,2.42,4.15.38.76.76,1.6,1.1,2.39.32.73.54,1.57.67,2.35.21,1.24.29,2.35-.39,3.42-1.66,2.62-3.22-3.39-3.58-4.39-.37-1.05-.6-2.16-.81-3.25-.29-1.6-.66-3.02-.08-4.59"/>
    </g>
  </g>
</svg>