<?xml version="1.0" encoding="UTF-8"?>
<svg id="Calque_2" xmlns="http://www.w3.org/2000/svg" viewBox="0 0 41.65 55.44">
  <defs>
    <style>
      .cls-1 {
        fill: #d8ddee;
      }

      .cls-2 {
        fill: #b4d5f1;
      }

      .cls-3 {
        fill: #fdf9ed;
      }

      .cls-4 {
        fill: #2b3086;
      }

      .cls-5 {
        fill: none;
        stroke: #fff;
        stroke-miterlimit: 10;
        stroke-width: .36px;
      }

      .cls-6 {
        fill: #e84f0e;
      }

      .cls-7 {
        fill: #466cb2;
      }

      .cls-8 {
        fill: #ef7f55;
      }

      .cls-9 {
        fill: #e9edf6;
      }
    </style>
  </defs>
  <g id="_Éléments_Mise_en_page" data-name="Éléments_Mise_en_page">
    <g>
      <path class="cls-9" d="M31.76,39.32c-.43,0-.86-.06-1.27-.2-1.74-.56-3-2.23-3.54-4.72-1.09-5.01,1.1-11.91,4.9-15.36,1.88-1.71,3.88-2.35,5.62-1.8,1.74.56,3,2.23,3.54,4.72,1.09,5.01-1.11,11.91-4.9,15.36-1.44,1.31-2.95,1.99-4.35,1.99M36.2,17.58c-1.27,0-2.66.63-4,1.85-3.67,3.34-5.8,10-4.74,14.85.5,2.29,1.63,3.83,3.18,4.33,1.55.49,3.36-.1,5.1-1.68,3.67-3.34,5.8-10,4.74-14.85-.5-2.29-1.63-3.83-3.18-4.33-.36-.11-.72-.17-1.1-.17"/>
      <path class="cls-3" d="M31.76,39.32c-.43,0-.86-.06-1.27-.2-1.74-.56-3-2.23-3.54-4.72-1.09-5.02,1.11-11.91,4.9-15.37,1.88-1.71,3.88-2.35,5.62-1.79,1.74.56,3,2.23,3.55,4.72,1.09,5.02-1.11,11.91-4.9,15.37-1.44,1.31-2.95,1.99-4.35,1.99M36.2,17.58c-1.28,0-2.66.63-4,1.85-3.67,3.34-5.8,10.01-4.74,14.86.5,2.29,1.63,3.83,3.19,4.33,1.55.5,3.36-.1,5.1-1.68,3.67-3.34,5.8-10.01,4.74-14.86-.5-2.29-1.63-3.83-3.18-4.33-.36-.11-.73-.17-1.11-.17"/>
      <path class="cls-4" d="M31.65,39.86c-.46,0-.9-.07-1.33-.21-1.83-.58-3.15-2.34-3.72-4.94-1.15-5.27,1.16-12.51,5.15-16.13,1.97-1.79,4.06-2.46,5.89-1.88,1.83.58,3.15,2.34,3.72,4.94,1.15,5.27-1.16,12.51-5.15,16.13-1.51,1.37-3.08,2.08-4.56,2.08M32.11,18.98c-3.86,3.52-6.1,10.52-4.99,15.63.53,2.41,1.72,4.03,3.36,4.55s3.55-.1,5.37-1.76c3.68-3.35,6.05-10.76,4.98-15.63-.53-2.41-1.72-4.03-3.36-4.55-1.64-.52-3.55.1-5.37,1.76"/>
      <path class="cls-9" d="M5.45,54.9c-.43,0-.86-.06-1.27-.2-1.74-.56-3-2.23-3.54-4.72-1.09-5.01,1.1-11.91,4.9-15.36,1.88-1.71,3.88-2.35,5.62-1.8,1.74.56,3,2.23,3.54,4.72,1.09,5.01-1.11,11.91-4.9,15.36-1.44,1.31-2.95,1.99-4.35,1.99M9.9,33.16c-1.27,0-2.66.63-4,1.85-3.67,3.34-5.8,10-4.74,14.85.5,2.29,1.63,3.83,3.18,4.33,1.55.49,3.36-.1,5.1-1.68,3.67-3.34,5.8-10,4.74-14.85-.5-2.29-1.63-3.83-3.18-4.33-.36-.11-.72-.17-1.1-.17"/>
      <path class="cls-3" d="M5.45,54.9c-.43,0-.86-.07-1.27-.2-1.74-.56-3-2.23-3.54-4.72-1.09-5.02,1.11-11.91,4.9-15.37,1.88-1.71,3.88-2.35,5.62-1.79,1.74.56,3,2.23,3.54,4.72,1.1,5.02-1.1,11.91-4.9,15.37-1.44,1.31-2.95,1.99-4.35,1.99M9.9,33.16c-1.28,0-2.66.63-4,1.85-3.67,3.34-5.8,10.01-4.74,14.86.5,2.29,1.63,3.83,3.19,4.33,1.55.49,3.36-.1,5.1-1.68,3.67-3.34,5.8-10.01,4.74-14.86-.5-2.29-1.63-3.83-3.18-4.33-.36-.11-.73-.17-1.11-.17"/>
      <path class="cls-4" d="M5.35,55.44c-.46,0-.9-.07-1.33-.21-1.83-.58-3.15-2.34-3.72-4.94-1.15-5.27,1.16-12.51,5.15-16.14,1.97-1.79,4.06-2.46,5.89-1.88,1.83.58,3.15,2.34,3.72,4.94,1.15,5.27-1.16,12.51-5.15,16.13-1.51,1.37-3.08,2.08-4.56,2.08M5.8,34.55c-3.86,3.51-6.1,10.52-4.99,15.63.53,2.41,1.72,4.03,3.36,4.55s3.55-.1,5.37-1.76c3.86-3.51,6.1-10.52,4.98-15.63-.53-2.41-1.72-4.03-3.36-4.55-1.64-.52-3.55.1-5.37,1.76"/>
      <path class="cls-8" d="M30.41,17.56c-.58-.85-2.42-1.64-2.96-1.99-.29-.15-.64-.13-.9.06l-3.98,2.72.34.2-.41.28,3.13,1.81c1.24-.53,3.97-1.1,4.8-2.13.25-.31.2-.63-.01-.94"/>
      <path class="cls-1" d="M20.48,40.14c-.11,0-.22-.04-.31-.12-.18-.17-.18-.45-.01-.63l2.48-2.59c.17-.18.45-.18.63-.01.18.17.18.45.01.63l-2.48,2.59c-.09.09-.2.14-.32.14"/>
      <path class="cls-7" d="M17.18,42.21c-.14,0-.28-.07-.37-.19-.14-.2-.08-.48.12-.62l2.72-1.85c.2-.14.48-.08.62.12.14.2.09.48-.12.62l-2.72,1.85c-.08.05-.16.08-.25.08"/>
      <path class="cls-7" d="M26.25,38.22c-.14,0-.28-.07-.37-.19-.14-.2-.08-.48.12-.62l2.72-1.85c.2-.14.48-.08.62.12.14.2.09.48-.12.62l-2.72,1.85c-.08.05-.16.08-.25.08"/>
      <path class="cls-2" d="M22.65,36.08s-.06,0-.08,0c-.19-.05-.31-.24-.26-.43l3.88-16.15c.05-.19.24-.31.43-.26.19.05.31.24.26.43l-3.88,16.15c-.04.16-.18.27-.34.27"/>
      <path class="cls-2" d="M6.14,44.09c-.15,0-.29-.09-.34-.24-.06-.19.03-.39.22-.45.18-.06.3-.1.39-.12.19-.05.24-.07.61-.34.46-2.42,1.22-5.21,1.95-7.92.71-2.63,1.45-5.36,1.9-7.68,0-.03.01-.06.02-.08.02-.12.11-.22.22-.26.11-.04.24-.03.34.04h0c.16.12,11.25,8.28,11.41,8.4.16.12.19.34.08.5-.12.16-.34.19-.5.08-.14-.1-8.86-6.52-10.96-8.07-.45,2.24-1.15,4.79-1.82,7.26-.74,2.74-1.52,5.58-1.96,8-.02.09-.07.17-.14.22-.53.4-.64.45-.96.54-.09.02-.19.05-.35.11-.04.01-.08.02-.12.02"/>
      <path class="cls-1" d="M19.72,9.12l-2.48,5.66c-.33.74-.86,1.36-1.54,1.79l-4.04,2.55-.46.29-.98,1.14c-.21.25-.51.37-.81.37-.25,0-.49-.08-.7-.26-.45-.38-.5-1.06-.11-1.5l1.09-1.26s.06-.07.1-.1c.04-.04.09-.08.14-.11l4.64-2.93c.32-.2.57-.49.73-.84l2.48-5.66c.24-.54.87-.79,1.41-.55.54.24.79.87.55,1.4"/>
      <path class="cls-4" d="M17.58,38.92c-.12.16-.24.32-.35.48-.12.16-.23.33-.33.51-.14.26-.59.76-.38,1.04.31.42,1.13.2,1.45-.03.48-.34.94-.72,1.37-1.13.18-.18.37-.37.45-.61.25-.74-.04-1.89-1-1.76-.35.05-.53.27-.65.57-.14.34-.34.64-.55.93"/>
      <path class="cls-8" d="M17.99,34.05l-.03-1.53c.75.21,1.5.41,2.25.57l-.03.44s-.32,4.39-.32,4.41c-.05.62-.62,1.35-1.06,1.75-.33.3-.76.51-1.21.49-.1,0-.2-.03-.25-.11-.03-.05-.03-.11-.02-.17.05-.78.79-1.38.76-2.13l-.08-3.7Z"/>
      <polyline class="cls-8" points="20.29 36.36 20.29 36.34 20.29 36.35 20.29 36.36"/>
      <path class="cls-4" d="M23.06,20.42c.4-1.41,1.01-2.78,1.52-4.15-2.23-.61-3.18-1.16-4.42,1.15-1.11,2.09-1.7,4.46-1.92,6.8-.41,4.45-.3,6.56-.25,10.84,0,.13,0,.27.1.36.07.07.17.08.26.1.58.07,1.43.14,1.84-.32.21-.23.3-.56.38-.87.69-2.6.6-4.39.91-7.15.16-1.44.94-4.52,1.58-6.77"/>
      <path class="cls-1" d="M17.41,12.63l.02.05s-.01,0-.02,0c0-.02,0-.03,0-.05"/>
      <path class="cls-2" d="M22.76,36.06c-.3,0-.57-.17-.79-.3-.08-.05-.16-.1-.24-.14-.02-.01-.05-.03-.07-.04-1.36-1.12-2.79-2.12-4.16-3.08-1.66-1.16-3.38-2.36-5-3.79-.15-.13-.16-.36-.03-.5s.36-.16.5-.03c1.58,1.4,3.28,2.59,4.93,3.74,1.38.96,2.8,1.96,4.18,3.09.09.05.17.1.26.15.2.12.35.21.43.19,2.66-2.03,9.08-6.21,10.66-7.23l-6.67-7.31c-1.9,1.01-4.67,2.14-7.36,3.24-2.99,1.23-6.08,2.49-8.01,3.59-.17.1-.39.04-.49-.13-.1-.17-.04-.39.13-.48,1.96-1.12,5.08-2.4,8.09-3.63,2.78-1.14,5.66-2.32,7.53-3.34.14-.08.32-.05.43.07l7.14,7.83c.07.08.1.18.09.29-.01.1-.07.2-.16.25-.08.05-8.03,5.18-11.01,7.46-.02.01-.04.02-.06.04-.12.06-.24.09-.36.09"/>
      <path class="cls-7" d="M27.26,33.06s.07.05.11.07l-.19-.25s.02.09.04.13c0,.01.01.02.02.03,0,0,.01,0,.02.01,0,0,0,0,0,0"/>
      <path class="cls-4" d="M26.84,33.45c.15.76.23,1.74-.22,2.4-.17.25-.35.5-.37.8-.02.3.18.63.48.63.16,0,.3-.09.42-.18.78-.56,1.33-1.42,1.55-2.35.24-1.01.23-1.53-.66-2.02-.04-.06-.1-.12-.16-.17l.1.13s-.08-.05-.11-.08c-.04-.04-.08-.08-.11-.13-.15-.08-.33-.13-.5-.11-.13.01-.25.06-.34.15-.23.23-.15.61-.09.92"/>
      <path class="cls-8" d="M26.78,32.66l.6.19c-.17-.15-.38-.2-.6-.19"/>
      <path class="cls-8" d="M26.77,32.66s0,0,.01,0h-.03s.01,0,.02,0"/>
      <path class="cls-8" d="M27.19,31.22c-.57.39-1.15.77-1.74,1.14l.88,1.26c.37.51.26,1.22.39,1.85-.01.04-.02.08-.04.12-.07.21-.16.41-.24.62.04.03.08.06.13.08.23.1.5.01.69-.15.05-.05.1-.1.15-.15.36-.25.6-.66.71-1.08.16-.62.25-1.61-.07-2.19,0,0-.39-.69-.85-1.5"/>
      <path class="cls-4" d="M25.06,23.73c.13-.6.48-1.1,1.04-1.67,1.59-1.61,2.91-3.14,2.3-5.55-.15-.59-.38-1.3-.78-1.78,0,.04,0,.11,0,.16-.85-.57-1.73-.96-2.78-.83,0,0,0,0,0,0-.77.1-1.61.34-2.4.72,0,0,0,.02,0,.03-1.08.48-1.79,1.27-1.79,2.16,0,.6.32,1.15.86,1.59.06.21.13.42.21.63.12.31.08.64,0,.95.73.11.88.18.7.93-.19.78-.4,1.56-.58,2.35-.16.71-.3,1.43-.18,2.14.1.58.37,1.11.64,1.63.58,1.08,1.22,2.14,1.9,3.15.57.85.85,1.71,1.61,2.44.1.1.21.19.34.22.12.02.23-.01.34-.06,1.77-.71,1-2.76.42-4.04-.56-1.24-1.43-2.38-1.77-3.72-.14-.57-.17-1.05-.08-1.47"/>
      <path class="cls-1" d="M25.91,9.3l.35,1.35,1.32,4.07c.07.28,0,.52-.21.68-.55.41-2.24.81-4.8.34-.4-.07-.79-.3-1.05-.61l-2.36-2.82-.05-.06c-.37-.44-.56-.92-.55-1.36l.04-1.37-.39-.67c-.47-.8.03-1.49.99-1.38l.34.05.54.07,2.38.32.7.09,1.35.18c.64.09,1.26.58,1.4,1.11"/>
      <path class="cls-9" d="M24.73,9.3c0,.34-.06.72-.07,1.16-.02.79-.09,1.7-.72,2.18-1.02.78-3.2.02-4.31-.23-.15-.03-.31-.07-.47-.11l-.05-.06c-.37-.44-.56-.92-.55-1.36l.04-1.37-.39-.67c-.47-.8.03-1.49.99-1.38l.34.05.54.07,2.38.32c.42.06,1.24.01,1.59.18.58.27.69.68.68,1.21"/>
      <path class="cls-8" d="M23.15,8.01c-.05.44-.25.84-.48,1.21-.17.28-.38.55-.71.71-.33.17-.81.21-1.27.03-.37-.15-.67-.42-.85-.7-.18-.28-.26-.58-.3-.86-.04-.3-.05-.59-.01-.87l.54.07,2.38.32.7.09Z"/>
      <path class="cls-7" d="M23.68,4c0-1.18-.53-2.38-1.46-2.99-.84-.55-1.73-.67-2.55-.49-1.84.41-3.26,2.36-2.67,4.51.72,2.63,4.21,3.17,5.97,1.03.47-.58.7-1.32.7-2.07"/>
      <path class="cls-4" d="M19.31,6.59s0,0,.01,0c0-.02,0-.04,0-.05,0,.02,0,.03-.01.05"/>
      <polygon class="cls-8" points="23.36 8.44 20.63 9.41 20.2 8.76 18.78 6.62 18.75 6.57 21.57 6.57 21.54 5.77 23.36 8.44"/>
      <path class="cls-4" d="M21.39,5.29s0,0,.01,0c0-.02,0-.04,0-.05,0,.02,0,.03-.01.05"/>
      <polygon class="cls-8" points="21.55 5.96 20.2 8.76 18.78 6.62 18.88 6.57 21.57 6.57 21.55 5.96"/>
      <path class="cls-7" d="M20.73,5.62c-1.26-.63-2.16-1.76-2.14-2.98l-.19.65c-.35-.6.11-1.37.81-1.76.71-.38,1.58-.47,2.41-.51"/>
      <path class="cls-8" d="M21.47,5.12c-.45-.2-.87-.46-1.3-.8-.32-.25-.61-.54-.9-.84-.61.22-1.23.39-1.87.49-.23.04-.41.24-.42.47h0c0,.3-.02.6,0,.9.03.72.15,1.43.55,1.96.45.59,1.18.82,1.86.84.38,0,.77-.27,1.11-.47.64-.39.93-1.02,1.09-1.82.01-.05.02-.11.03-.17-.02-.02-.04-.05-.05-.09-.03-.16-.07-.32-.12-.48"/>
      <path class="cls-8" d="M20.98,6.02c.05.04.11.04.16.02,0-.02,0-.04.01-.06l-.17.04Z"/>
      <path class="cls-8" d="M22.12,4.85c-.26-.09-.51.2-.62.53-.06.16-.09.35-.17.49-.05.08-.11.14-.19.17-.07.26.08.58.28.64.22.07.45-.07.62-.25.19-.2.36-.47.4-.8.04-.33-.09-.7-.32-.79"/>
      <path class="cls-4" d="M12.02,27.7s-.08,0-.12-.01c-.29-.07-.47-.36-.4-.64l1.21-5.16c.07-.29.36-.46.64-.4.29.07.46.35.4.64l-1.21,5.16c-.06.25-.28.41-.52.41"/>
      <path class="cls-4" d="M17.52,26.45s-.02,0-.03,0c-.2-.02-.34-.19-.32-.39l.11-1.13c.03-.35-.14-.68-.44-.86l-7.5-4.35c-.27-.15-.59-.16-.86-.02-.27.14-.45.41-.47.72v.04c-.02.2-.19.34-.39.33-.2-.01-.34-.19-.33-.38v-.04c.04-.55.36-1.04.86-1.3.49-.26,1.07-.25,1.55.03l7.5,4.35c.54.31.85.92.79,1.54l-.1,1.13c-.02.19-.17.32-.35.32"/>
      <path class="cls-1" d="M25.75,9.6l-2.2,7.61c-.22.75-.65,1.4-1.25,1.88l-4.35,3.5-.37.29-.77,1.19c-.2.32-.55.49-.9.49-.2,0-.4-.05-.58-.17-.49-.32-.64-.98-.32-1.48l.87-1.34c.06-.09.14-.18.23-.25l.28-.22,4.57-3.68c.26-.21.45-.49.54-.81l2.2-7.61c.16-.57.76-.89,1.32-.73.57.16.89.76.73,1.32"/>
      <path class="cls-9" d="M24.81,35.69c-.13-.61-.44-1.01-.86-1.15-.42-.13-.9.02-1.36.44-.94.86-1.48,2.56-1.21,3.8.13.61.44,1.01.85,1.15.1.03.2.05.3.05.34,0,.71-.17,1.06-.49.94-.85,1.48-2.56,1.21-3.8"/>
      <path class="cls-1" d="M26.25,38.22s-.05,0-.07,0l-2.83-.45c-.24-.04-.41-.27-.37-.51.04-.24.27-.41.51-.37l2.83.45c.24.04.41.27.37.51-.03.22-.22.38-.44.38"/>
      <path class="cls-8" d="M11.66,19.12l-.46.29-.98,1.14c-.21.25-.51.37-.81.37-.25,0-.49-.08-.7-.26-.45-.38-.5-1.06-.11-1.5l1.09-1.26s.06-.07.1-.1c.81-.02,1.63.54,1.88,1.32"/>
      <path class="cls-8" d="M17.94,22.59l-.37.29-.77,1.19c-.2.32-.55.49-.9.49-.2,0-.4-.06-.58-.17-.49-.32-.64-.98-.32-1.48l.87-1.34c.06-.09.14-.18.23-.25l.28-.22c.74.14,1.42.73,1.56,1.49"/>
      <path class="cls-2" d="M7.26,44.88c-.15,0-.29-.09-.34-.24-.06-.19.03-.39.22-.45.18-.06.3-.1.39-.12.19-.05.24-.07.61-.34.46-2.42,1.22-5.21,1.95-7.92.71-2.63,1.45-5.36,1.9-7.68,0-.03,0-.06.02-.08,0,0,0,0,0,0,.02-.08.06-.15.12-.2h0s.03-.02.05-.03c.07-.04.15-.05.23-.04,0,0,.02,0,.02,0,.05.01.1.04.14.07.27.21.18.63.09.8-.02.04-.04.07-.07.1-.45,2.24-1.15,4.79-1.82,7.26-.75,2.74-1.52,5.58-1.96,8-.02.09-.07.17-.14.22-.53.4-.64.45-.95.54-.09.02-.19.05-.35.11-.04.01-.08.02-.12.02"/>
      <path class="cls-7" d="M19.28,3.48s.77,1.78,2.23,1.9l1.59-2.11-3.82.21Z"/>
      <path class="cls-6" d="M23.81,3.12s.38-2.26-3.13-3.05c-2.45-.55-4.54,2.34-4.54,3.7l5.47.54s1.09.07,1.15.54-.2,1.83-.2,1.83l.9-.78.36-2.77Z"/>
      <polyline class="cls-5" points="21.25 4.12 21.19 6.92 22.79 6.15"/>
      <path class="cls-5" d="M19.09,8.13s1,.28,2.1-1.21"/>
    </g>
  </g>
</svg>