<?xml version="1.0" encoding="UTF-8"?>
<svg id="uuid-3d289b9e-670d-493c-a9eb-265bb8558369" data-name="Calque_2" xmlns="http://www.w3.org/2000/svg" viewBox="0 0 218.93 191.3">
  <defs>
    <style>
      .uuid-fcadb9e9-51ee-4795-8b1f-de9f8d8938e8 {
        fill: #322527;
      }

      .uuid-926f0d07-8f97-454c-8fc3-89f20d9e8a7a {
        fill: #423134;
      }

      .uuid-2a0c617a-8041-4cef-95b1-6da9048ab057 {
        fill: #4e3a3e;
      }
    </style>
  </defs>
  <g id="uuid-b3b497eb-cc87-4630-8450-c1b39a9eafdb" data-name="Les_personnages">
    <g id="uuid-932aa146-fde9-4b34-b068-79d8c73f76a1" data-name="Chara_x5F_ChienMoche_x5F_BG">
      <path class="uuid-fcadb9e9-51ee-4795-8b1f-de9f8d8938e8" d="M179.4,6.03s13.82-3.5,23.78,9.99c9.96,13.48,5.15,32.45,7.71,37.26,2.57,4.83,8.04,6.3,8.04,6.3,0,0-3.61,3.75-4.99,3.7,1.65,2.25,3.71.73,3.62,12.45-.08,10.09-8.27,11.61-8.27,11.61,0,0,.96-11.61-5.79-17.35-4.03-3.43-12.5-9.96-13.96-17.03-1.46-7.07-10.14-46.93-10.14-46.93"/>
      <path class="uuid-fcadb9e9-51ee-4795-8b1f-de9f8d8938e8" d="M131.04,76.99s13.5,18.07,26.51,19.03c13.02.96,17.38-1.81,17.38-1.81,0,0,7.39,10.74,7.13,11.9-.24,1.15-3.85,7.35-5.58,10.85-1.73,3.48-.27,7.77,5.58,9.17,5.86,1.38,11.32-9.4,13.57-11.72,2.25-2.32,1.6-11.14.96-13.64-.64-2.5-20.12-39.06-20.12-39.06l-45.43,15.28Z"/>
      <path class="uuid-fcadb9e9-51ee-4795-8b1f-de9f8d8938e8" d="M60.27,83.02c0-2.97-2.97,3.93-5.13,15.38-2.82,14.8-5.25,38.56-8.14,45.24-2.57,5.94-4.11,12.68-6.65,16.11-2.52,3.42-7.93,4.58-9.86,5.37-3.85,1.58-6.63,7.15-6.63,12.84s14.92,7.91,22.64,4.56c7.71-3.37,11-10.04,13.56-14.91,1.36-2.57,12.02-19.45,17.35-30.4-1.7-1.28-3.69-3.47-3-4.97,0,0,1.06.74,4.07.42.44-5.57,3.79-17.86,3.52-21.62-.78-10.97-21.73-28.03-21.73-28.03"/>
      <path class="uuid-926f0d07-8f97-454c-8fc3-89f20d9e8a7a" d="M67.13,35.44s36.07-5.52,47.6-13.01C126.25,14.93,154.57-2.67,165.47.34c10.91,3.02,23.46,9.48,31.32,20.39,7.86,10.91,1.14,39.91,0,44.69-1.13,4.78-30.8,9.5-41.89,15.93-11.09,6.43-22.65,22.55-37.44,38.12-3.71,3.92-8.13,8.57-17.99,6.43q-.36,2.01-1.28,3.65c-3.27.2-9.34-1.61-13.93-2.37q-.32,2.11-.67,4.11c-4.23-.88-8.66-2.92-13.25-6.47-2.79-2.14-4.93-7.57-5.79-8.35-.64,1.72-1.7,3.43-3,4.49-4.52-5.53-2.87-14.94-4.56-21.15-4.52-16.69-4.94-34.4-4.94-34.4l15.07-29.98Z"/>
      <path class="uuid-926f0d07-8f97-454c-8fc3-89f20d9e8a7a" d="M95.95,101.48s6.45,24.88,11.04,43.42c3.35,13.64,5.93,25.38-.13,26.78-6.04,1.41-16.01,11.51-7.81,16.74,8.2,5.24,14.7,2.54,23.61-1.74,4.72-2.25,7.64-4.89,9.39-12.57,2.24-9.94.64-18.41.93-30.11.11-3.94,2.92-40.23,4.12-46.48,1.5-7.73-5.28-12.63-5.28-12.63l-35.88,16.6Z"/>
      <path class="uuid-926f0d07-8f97-454c-8fc3-89f20d9e8a7a" d="M147.89,43.83s9.39,33.03,17.59,40.38c8.76,7.85,22.1,11.06,22.1,11.06,0,0-.12,5.93,0,15.1.08,5.74-.92,10.6-2.6,13.39-1.19,1.98-11.87,5.24-13.23,7.53-3.5,5.86-2.88,10.58,3.98,13.82,4.05,1.91,15.49-.04,22.82-7.02,4.37-4.17,10.9-44.4,8.89-53.22-1.06-4.6-13.97-10.97-9.33-25.52,4.94-15.52,4.97-32.78-1.31-38.62-13.15-12.23-48.92,23.1-48.92,23.1"/>
      <path class="uuid-2a0c617a-8041-4cef-95b1-6da9048ab057" d="M18.86,46.71c0,2.82,1.49,8.36.65,10.99-1.97,6.31-11.46,13.95-17.06,20.17-5.61,6.22.44,7.13,9.4,11.61,8.96,4.48,24.2-1.09,28.68-2.68,4.48-1.6,10.53.06,17.59,2.68,4.21,1.56,8.57,12,8.57,12,0,0,2.36-3,2.36-9.42,4.92,6.35,13.24,9.36,18.85,9.42,5.6.06,12.22-4.07,12.22-4.07,0,0-7.85-4.43-12-10.92,3.85-.7,7.82-2.28,15.85,1.5,2.19-3.84-.37-13.83-3.8-20.59,3.18-.13,5.83.6,9.8.45,0-10.07-11.96-17.26-11.96-17.26,0,0,4.25-1.59,11.96-.73-.62-1.69-8.78-9.95-18.45-11.24,2.18-3.29,2.09-4.61,1.24-8.31-13.64,1.13-33.14-8.09-45.78-4.65-12.63,3.43-28.12,18.25-28.12,21.06"/>
      <path class="uuid-fcadb9e9-51ee-4795-8b1f-de9f8d8938e8" d="M28.35,60.13c1.52-.86,3.21-1.28,6.43.22,4.73,2.2,5.35,2.82,5.35,2.82,0,0-4.28,4.76-9,2.25-4.71-2.51-4.3-4.43-2.78-5.29"/>
      <path class="uuid-fcadb9e9-51ee-4795-8b1f-de9f8d8938e8" d="M2.45,77.86s3.83,2.19,5.54,3.48c1.72,1.28-.67,6.01-.67,6.01,0,0-5.75-1.15-7.04-4.33-1.29-3.19,2.16-5.16,2.16-5.16"/>
      <path class="uuid-fcadb9e9-51ee-4795-8b1f-de9f8d8938e8" d="M52.06,49.85c1.98,3.27,4.57,6.58,4.99,14.46.44,7.88,3.65,13.2,6.21,15.55,2.57,2.34,6.86,3.16,6.86,3.16,0,0-3.53-4.67-2.68-10.46,1.6,5.31,4.81,6.67,9.53,8.68,4.71,2,6.33,6.75,6.33,6.75,0,0,4.6-6.43,2.24-17.35-.99-4.62-1.6-6.33-2.33-8.57,3.32,2.45,6.57,8.63,6.57,8.63,0,0,1.47-6.2-1.55-11.35-3.03-5.13-6.54-16.62-13.39-21.53-6.85-4.9-8.57-1.24-13.28,2.07-4.71,3.3-12.61,4.83-9.5,9.95"/>
    </g>
  </g>
</svg>