<?xml version="1.0" encoding="UTF-8"?>
<svg id="Calque_2" xmlns="http://www.w3.org/2000/svg" xmlns:xlink="http://www.w3.org/1999/xlink" viewBox="0 0 26.98 59.6">
  <defs>
    <style>
      .cls-1 {
        fill: #eeeeef;
      }

      .cls-2 {
        fill: #dfdede;
      }

      .cls-3 {
        clip-path: url(#clippath-4);
      }

      .cls-4 {
        fill: #797675;
      }

      .cls-5 {
        fill: #adaaa9;
      }

      .cls-6 {
        fill: #302c28;
      }

      .cls-7 {
        fill: url(#Dégradé_sans_nom_496-2);
      }

      .cls-8 {
        fill: none;
      }

      .cls-9 {
        fill: #3d3935;
      }

      .cls-10 {
        fill: #2b2723;
      }

      .cls-11 {
        clip-path: url(#clippath-1);
      }

      .cls-12 {
        clip-path: url(#clippath-5);
      }

      .cls-13 {
        fill: url(#Dégradé_sans_nom_496);
      }

      .cls-14 {
        clip-path: url(#clippath-3);
      }

      .cls-15 {
        fill: #3d2e22;
      }

      .cls-16 {
        fill: #f5c29d;
      }

      .cls-17 {
        fill: #c89651;
      }

      .cls-18 {
        fill: #bebcbb;
      }

      .cls-19 {
        fill: url(#Dégradé_sans_nom_441);
      }

      .cls-20 {
        fill: #4071b6;
      }

      .cls-21 {
        fill: #e3e2e2;
      }

      .cls-22 {
        fill: #484b4f;
      }

      .cls-23 {
        fill: #403a36;
      }

      .cls-24 {
        fill: #f4c19c;
      }

      .cls-25 {
        clip-path: url(#clippath-2);
      }

      .cls-26 {
        fill: #f6f6f7;
      }

      .cls-27 {
        fill: #cbc8c7;
      }

      .cls-28 {
        fill: #37302d;
      }

      .cls-29 {
        fill: #4c6cb2;
      }

      .cls-30 {
        clip-path: url(#clippath);
      }
    </style>
    <clipPath id="clippath">
      <path class="cls-8" d="M15.57,15.3l-3.55,2.05c.08-.04.18-.04.29.03.23.13.41.45.41.71,0,.13-.04.22-.12.26l3.55-2.05c.07-.04.12-.14.12-.26,0-.26-.18-.58-.41-.71-.07-.04-.13-.06-.18-.06-.04,0-.08,0-.11.03"/>
    </clipPath>
    <clipPath id="clippath-1">
      <rect class="cls-8" x="11.54" y="14.42" width="5.22" height="4.79" transform="translate(-6.51 9.33) rotate(-30.01)"/>
    </clipPath>
    <linearGradient id="Dégradé_sans_nom_496" data-name="Dégradé sans nom 496" x1="399.77" y1="-1283.24" x2="400.77" y2="-1283.24" gradientTransform="translate(1507.49 -449.02) rotate(90) scale(1.16 -1.16)" gradientUnits="userSpaceOnUse">
      <stop offset="0" stop-color="#534c48"/>
      <stop offset=".51" stop-color="#47413e"/>
      <stop offset=".97" stop-color="#403a36"/>
      <stop offset="1" stop-color="#403a36"/>
    </linearGradient>
    <clipPath id="clippath-2">
      <path class="cls-8" d="M7.81,19.78l-3.55,2.05c.08-.04.18-.04.29.03.23.13.41.45.41.71,0,.13-.05.22-.12.26l3.55-2.05c.07-.04.12-.14.12-.26,0-.26-.18-.58-.41-.71-.07-.04-.13-.06-.18-.06-.04,0-.08,0-.11.03"/>
    </clipPath>
    <clipPath id="clippath-3">
      <rect class="cls-8" x="3.78" y="18.9" width="5.22" height="4.8" transform="translate(-9.79 6.05) rotate(-29.99)"/>
    </clipPath>
    <linearGradient id="Dégradé_sans_nom_496-2" data-name="Dégradé sans nom 496" x1="399.85" y1="-1283.15" x2="400.85" y2="-1283.15" gradientTransform="translate(1499.69 -444.65) rotate(90) scale(1.16 -1.16)" xlink:href="#Dégradé_sans_nom_496"/>
    <clipPath id="clippath-4">
      <path class="cls-8" d="M11.51,25.65c-.6,2.9-1.54,12.75-1.33,14.45.49,5.54,1.51,10.03,1.66,10.52.29,1.01,3.28,1.16,3.29.11,0-.8-.01-10.94-.01-10.94.14-.96.75-4.78,1.16-7.41.14,1.35.52,4.98.54,5.19l2.54,9c.22,1.03,2.92,1.07,2.95.07.05-2.52-.71-7.88-.84-10.14-.17-4.95-.43-10.01-.68-12.06l-9.26,1.2Z"/>
    </clipPath>
    <clipPath id="clippath-5">
      <rect class="cls-8" x="9.04" y="24.05" width="14.24" height="28.12" transform="translate(-2.59 1.2) rotate(-3.95)"/>
    </clipPath>
    <linearGradient id="Dégradé_sans_nom_441" data-name="Dégradé sans nom 441" x1="1992.48" y1="848.26" x2="1993.48" y2="848.26" gradientTransform="translate(-31516.51 13457.83) scale(15.82 -15.82)" gradientUnits="userSpaceOnUse">
      <stop offset="0" stop-color="#613627"/>
      <stop offset=".48" stop-color="#6c3b2a"/>
      <stop offset="1" stop-color="#743f2d"/>
    </linearGradient>
  </defs>
  <g id="_Éléments_Mise_en_page" data-name="Éléments_Mise_en_page">
    <g>
      <path class="cls-9" d="M26.28,44.47c-.39-.89-.93-1.74-1.57-2.46-.53-.61-1.13-1.12-1.77-1.49-1.13-.65-2.15-.71-2.88-.28l-1.84,1.07,5.73,9.86,1.84-1.07c.73-.42,1.18-1.32,1.18-2.6,0-.97-.26-2.03-.7-3.03"/>
      <path class="cls-10" d="M21.1,41.59c-2.24-1.29-4.05-.25-4.06,2.31,0,2.57,1.8,5.7,4.04,6.99,2.23,1.29,4.05.26,4.06-2.31,0-2.57-1.8-5.69-4.03-6.98"/>
      <path class="cls-1" d="M25.74,44.81c-.4-.91-.95-1.78-1.6-2.51-.54-.62-1.16-1.15-1.8-1.52-1.15-.66-2.19-.72-2.94-.29l-1.25.73s6.87,8.7,6.87,8.7l.64-.37c.43-.25.73-.69.77-1.18.02-.15.02-.3.02-.46,0-.99-.26-2.07-.71-3.09"/>
      <path class="cls-27" d="M25.02,49.91c.12-.37.18-.8.18-1.28,0-2.62-1.83-5.81-4.11-7.12-2.28-1.32-4.13-.26-4.14,2.36,0,.48.06.99.18,1.49l7.9,4.56Z"/>
      <polygon class="cls-6" points="12.38 56.49 5.78 52.68 5.78 51.27 12.38 55.08 12.38 56.49"/>
      <polygon class="cls-23" points="24.6 49.44 12.38 56.49 12.38 55.08 24.6 48.03 24.6 49.44"/>
      <polygon class="cls-1" points="12.38 55.08 5.78 51.27 18 44.22 24.6 48.03 12.38 55.08"/>
      <polygon class="cls-27" points="12.58 55.82 5.09 51.5 5.09 50.09 12.58 54.41 12.58 55.82"/>
      <polygon class="cls-21" points="24.8 48.76 12.58 55.82 12.58 54.41 24.8 47.35 24.8 48.76"/>
      <polygon class="cls-1" points="12.58 54.41 5.09 50.09 17.31 43.03 24.8 47.35 12.58 54.41"/>
      <path class="cls-4" d="M22.8,47.7l-2.02,1.16c-.46.27-1.22.27-1.68,0l-4.46-2.57c-.46-.27-.46-.7,0-.97l2.02-1.16c.46-.27,1.22-.27,1.68,0l4.46,2.57c.46.27.46.7,0,.97"/>
      <path class="cls-4" d="M15.42,51.96l-2.02,1.16c-.46.27-1.22.27-1.68,0l-4.46-2.57c-.46-.27-.46-.7,0-.97l2.02-1.16c.46-.27,1.22-.27,1.68,0l4.46,2.57c.46.27.46.7,0,.97"/>
      <polygon class="cls-1" points="10.02 45.6 12.61 44.1 17.55 46.95 14.96 48.45 10.02 45.6"/>
      <polygon class="cls-26" points="14.96 48.45 17.55 46.95 20.09 50.06 17.51 51.57 14.96 48.45"/>
      <polygon class="cls-27" points="14.96 48.45 17.51 51.57 10.02 47.24 10.02 45.6 14.96 48.45"/>
      <polygon class="cls-2" points="13.92 44.56 12.7 45.9 13.33 45.54 14.55 44.2 13.92 44.56"/>
      <path class="cls-21" d="M14.92,36.99l-.63.36c.2.9.3,1.7.3,2.45v2.71c-.01.87-.24,1.57-.67,2.04l.63-.36c.43-.47.66-1.18.66-2.04v-2.71c.01-.75-.08-1.56-.29-2.46"/>
      <polygon class="cls-26" points="11.2 24.72 10.57 25.08 14.3 37.35 14.92 36.99 11.2 24.72"/>
      <path class="cls-21" d="M11.11,23.88v-5.41s-.63.36-.63.36v5.42c0,.27.03.55.1.84l.63-.36c-.06-.29-.1-.57-.09-.84"/>
      <path class="cls-27" d="M14.3,37.35l-3.72-12.27c-.07-.29-.1-.57-.09-.84v-5.42s-.95-.55-.95-.55v5.42c0,.38.05.79.17,1.28l3.72,12.27c.16.7.23,1.38.23,2.02v2.71c-.01.65-.18,1.18-.5,1.53l-1.59,1.74,1.15.66,1.22-1.34c.43-.47.66-1.18.66-2.04v-2.71c.01-.75-.08-1.56-.29-2.46"/>
      <polygon class="cls-1" points="10.15 17.91 9.53 18.28 10.48 18.83 11.1 18.46 10.15 17.91"/>
      <path class="cls-6" d="M12.73,18.09c0,.26-.18.37-.41.24-.23-.13-.41-.45-.41-.71s.18-.37.41-.24c.23.13.41.45.41.71"/>
      <path class="cls-27" d="M12.52,17.97c0,.13-.09.18-.21.12-.11-.07-.21-.22-.21-.35s.09-.18.21-.12c.11.07.21.22.21.35"/>
      <g class="cls-30">
        <g class="cls-11">
          <rect class="cls-13" x="9.46" y="12.15" width="9.38" height="9.32" transform="translate(-6.51 9.33) rotate(-30)"/>
        </g>
      </g>
      <g>
        <polygon class="cls-27" points="8.76 21.23 7.57 20.54 7.57 19.17 8.76 19.86 8.76 21.23"/>
        <polygon class="cls-21" points="12.99 18.78 8.76 21.23 8.76 19.86 12.99 17.41 12.99 18.78"/>
        <polygon class="cls-1" points="8.76 19.86 7.57 19.17 11.81 16.73 12.99 17.41 8.76 19.86"/>
        <polygon class="cls-10" points="9.69 18.97 9.11 18.63 10.94 17.58 11.52 17.91 9.69 18.97"/>
        <path class="cls-6" d="M4.97,22.57c0,.26-.18.37-.41.24-.23-.13-.41-.45-.41-.71s.18-.37.41-.24c.23.13.41.45.41.71"/>
        <path class="cls-27" d="M4.76,22.45c0,.13-.09.18-.21.12-.11-.07-.21-.22-.21-.35s.09-.18.21-.12c.11.07.21.22.21.35"/>
      </g>
      <g class="cls-25">
        <g class="cls-14">
          <rect class="cls-7" x="1.7" y="16.63" width="9.38" height="9.32" transform="translate(-9.79 6.05) rotate(-30)"/>
        </g>
      </g>
      <g>
        <path class="cls-17" d="M17.67,46.67c-.5-.48-.31-2.04,1.01-2.06.96-.01,2.45,1.87,3.59,2.6.04.53.06,1.01-.31,1.39-.39.39-1.04.36-1.58.24-.94-.21-2.12-1.61-2.7-2.17"/>
        <path class="cls-28" d="M17.67,46.1c-.34-.32-.32-1.47,1.22-1.54.96-.05,2.24,1.35,3.37,2.09.04.53.06,1.01-.31,1.39-.39.39-1.04.36-1.58.24-.94-.21-2.11-1.62-2.7-2.17"/>
        <path class="cls-17" d="M8.73,51.52c-.41-.31-.46-1.83,1.19-2.09,1.03-.16,3.86.86,5.17,1.52.1.57.18,1.09-.18,1.54-.38.47-1.08.51-1.68.44-1.04-.12-3.8-.88-4.5-1.41"/>
        <path class="cls-28" d="M8.85,51.07c-.4-.3-.5-1.52,1.12-1.77,1.01-.16,3.84.57,5.12,1.22.1.56.18,1.07-.17,1.51-.37.46-1.06.5-1.65.43-1.02-.12-3.73-.87-4.42-1.39"/>
        <path class="cls-16" d="M14.8,17.07c.33-.01.55.28.82.42.2.11.55.1.71.26.19.2.02.84,0,1.1-.06.56-.54.64-1.02.67-.43.04-.66-.18-.95-.45-.12-.11-.25-.24-.4-.3-.09-.03-.21,0-.3-.04-.64-.3.62-1.65,1.15-1.67"/>
        <path class="cls-28" d="M19.29,15.68l-3.62,1.54c-.48.21-.79.72-.68,1.23.12.55.46,1.11,1,1.16.27.03,4.58-1.28,5.7-2.06.16-.11.25-.29.26-.48.13-3.05.05-12.6-3.59-9.34-.08.07-.13.17-.17.27-.09.27-.12.56-.13.84-.03,1.1,1.22,6.84,1.22,6.84"/>
      </g>
      <g class="cls-3">
        <g class="cls-12">
          <rect class="cls-19" x="7.11" y="23.08" width="18.1" height="30.08" transform="translate(-2.58 1.2) rotate(-3.95)"/>
        </g>
      </g>
      <path class="cls-28" d="M20.86,25.32c.04-3.43.46-12.45-.32-16.17-.16-.75-.68-2.07-1.43-1.91-1.21.27-5.34,2.45-7.13,3.92-.3.24-.49.58-.56.96-.57,2.97-.06,14.3-.05,14.32,2.73,3.54,9.34,1.1,9.5-1.11"/>
      <path class="cls-16" d="M18.18,8.23c-.03-.38.03-1-.03-1.4-.05-.37-.52-.29-.81-.43-.48-.23-1.01-.31-1.53-.45-.09-.02-.18-.05-.26-.09-.11-.06-.2-.15-.32-.19-.09-.03-.19-.03-.28-.06-.04-.01-.67-.28-.67-.32.17.91.28,3.1.23,4.16-.43.34-.17.81.36.91,1.66.32,3.33-.59,3.54-1.34.11-.39-.22-.45-.24-.8"/>
      <path class="cls-24" d="M13.03,4.52c.06.66.13,1.33.21,1.99.08.62.22,1.23.29,1.85.01.12.03.25.09.36.07.13.19.22.3.31.59.41,1.12.29,1.79.22.56-.05,1.1-.23,1.61-.47.29-.14.59-.31.76-.59.15-.23.18-.52.19-.79.04-1.28-.51-2.51-1.05-3.67-.15-.32-.3-.65-.53-.91-.5-.59-1.31-.81-2.07-.96-.45-.09-.98-.13-1.32.18-.25.23-.32.59-.34.93-.04.52.02,1.04.06,1.56"/>
      <path class="cls-15" d="M16.32.55c-.48-.27-.59.13-1.06.11-.38-.01-.47-.32-.88-.2-.77.23-1.61.39-1.83,1.43-.06.31.25.6.21.91-.18,1.37.33,1.19.56,2.29.02.09.19,1.57.19,1.57.02.12.21.1.23.02,0,0,.03-.76.09-.94.1-.31.53-.51.85-.21.89.85-1.23,2.63,2.36,2.82.1,0,.2.01.3-.01.25-.06.42-.3.65-.39.13-.05.29-.05.4-.14.13-.11.14-.31.21-.47.12-.23.4-.36.45-.61.03-.17-.05-.34-.05-.52,0-.24.13-.46.16-.7.04-.28-.08-.54-.1-.82-.01-.3.13-.55.14-.83.02-.42-.26-.85-.34-1.27-.07-.36-.28.01-.62-.24-.19-.14-.34-.52-.53-.67-.18-.15-.22-.41-.42-.53-.36-.22-.61-.41-.98-.61"/>
      <path class="cls-16" d="M6.27,20.13c.32.05.49.38.73.57.18.14.52.2.65.39.15.23-.14.83-.22,1.07-.17.54-.65.52-1.13.46-.42-.04-.61-.3-.84-.62-.1-.13-.2-.29-.34-.37-.09-.05-.21-.04-.29-.09-.57-.41.93-1.5,1.44-1.42"/>
      <path class="cls-28" d="M10.66,19.54l-3.56.89c-.51.11-.91.56-.9,1.08.01.56.24,1.17.76,1.33.29.09,6.62-.47,6.8-1.14.7-2.68.65-13.95-2.43-9.84-.17.23-.22.53-.29.81-.24,1.07-.39,6.87-.39,6.87"/>
      <path class="cls-27" d="M11.54,57.69c.12-.37.18-.8.18-1.28,0-2.62-1.83-5.81-4.11-7.12-2.28-1.32-4.13-.26-4.14,2.36,0,.48.06.99.18,1.49l7.9,4.56Z"/>
      <path class="cls-9" d="M12.15,52.63c-.39-.89-.93-1.74-1.57-2.46-.53-.61-1.13-1.12-1.77-1.49-1.12-.65-2.15-.71-2.88-.28l-1.84,1.07,5.73,9.86,1.84-1.07c.73-.42,1.18-1.32,1.18-2.6,0-.97-.26-2.03-.7-3.03"/>
      <path class="cls-10" d="M6.97,49.75c-2.24-1.29-4.05-.25-4.06,2.31,0,2.57,1.8,5.7,4.04,6.99,2.23,1.29,4.05.26,4.06-2.31,0-2.57-1.8-5.69-4.03-6.98"/>
      <path class="cls-5" d="M5.49,50.46h.13s.82.09.82.09c0,0,.18.02.05.06-.59.16-.98.74-1.01,1.65-.03,1.54,1.02,3.45,2.36,4.25.81.49,1.54.46,1.99.02-.03.39-.33.84-.33.84-.48.86-1.53.97-2.68.28-1.58-.95-2.9-3.29-2.86-5.11.03-1.3.57-2.1,1.52-2.07"/>
      <path class="cls-27" d="M7.03,50.74c1.68,1.01,3.01,3.41,2.97,5.35-.04,1.94-1.44,2.69-3.12,1.67-1.68-1.01-3.01-3.41-2.97-5.35.04-1.94,1.44-2.69,3.12-1.67M7.02,50.95c-1.58-.95-2.9-.25-2.94,1.58-.04,1.83,1.21,4.08,2.79,5.04,1.58.95,2.9.25,2.94-1.58.04-1.83-1.21-4.08-2.79-5.04"/>
      <path class="cls-18" d="M7.02,50.95c-.42-.25-.83-.39-1.19-.42-.75.12-1.26.79-1.3,1.88-.06,1.75,1.12,3.93,2.63,4.86.96.59,1.82.54,2.34-.03.19-.32.31-.75.32-1.27.04-1.83-1.21-4.08-2.79-5.04"/>
      <path class="cls-5" d="M7.26,52.79c-.62-.36-1.12-.07-1.12.64,0,.71.5,1.57,1.11,1.93.62.36,1.12.07,1.12-.64,0-.71-.49-1.57-1.11-1.92M7.25,55.2c-.54-.31-.98-1.07-.98-1.7,0-.62.44-.87.99-.56.54.31.98,1.07.98,1.7,0,.62-.44.88-.99.56"/>
      <path class="cls-1" d="M12.26,52.59c-.4-.91-.95-1.78-1.6-2.51-.54-.62-1.16-1.15-1.8-1.52-1.15-.66-2.19-.72-2.94-.29l-1.25.73c.75-.43,1.79-.38,2.94.29,2.28,1.32,4.12,4.51,4.11,7.12,0,.06,0,.22.03.38.08.35.5.49.8.32l.22-.13c.12-.38.19-.81.19-1.29,0-.99-.26-2.07-.71-3.09"/>
      <path class="cls-22" d="M15.16,6.27c-.41.52-.57,3.07-.57,3.07l-.47-.05s.06-1.56.08-1.92c-.22-.54-.31-1.26-.21-1.45.1-.18.3-1.09.3-1.09l.23.64s-.31.72-.28.93c.03.21.19.67.19.67,0,0,.28-.94.43-1.13.15-.19.28.31.28.31"/>
      <path class="cls-20" d="M18.33,3.97c.7.77,1.65.86,1.77,1.04.26.39.05.98-.05,1.08-.37.36-1.1.6-2.33.74-1.24.13-1.8.26-3.31-.29-1.5-.55-1.76-.85-2.26-1.45-.62-.74-.68-1.6-.68-1.79,0-.2.16-1.31.54-1.45.38-.14,6.32,2.14,6.32,2.14"/>
      <path class="cls-29" d="M11.93,2.04s0,0,0,0c0-.01,0-.02,0-.02h0c.2-.65.98-1.2,1.49-1.48,1.11-.6,2.36-.93,4.14.31.56.39.98.97,1.22,1.3.92,1.14,2.12,3.16.7,3.64-1.5.51-3.21,1.04-6.16-.47-2.02-1.03-1.48-3.01-1.4-3.27"/>
      <path class="cls-20" d="M14.54,3.36s.9,1.01,1,1.57c.09.56-1.39.08-2.11-.43-.72-.51-.96-.62-.99-1.22-.03-.59.84-.38.84-.38l1.27.46Z"/>
      <path class="cls-22" d="M12.64,3.19c.11-.59,1.18-.16,1.6,0,.75.29,1.26,1.46,1.23,1.65-.03.2-2.99-.77-2.83-1.65"/>
      <path class="cls-20" d="M18.14,3.07c.13-.26.27-.49-.36-1.31s-1.74-1.53-2.47-1.57c-.72-.04-1.39.36-1.04.65.35.29,2.67.56,3.86,2.23"/>
      <path class="cls-22" d="M18.08,3.13c-.56.24-1.52-1.43-3.17-1.89-.35-.1-.95-.43-.48-.66.47-.23.97-.41,1.96.2.99.61,2.03,2.2,1.7,2.34"/>
    </g>
  </g>
</svg>