<?xml version="1.0" encoding="UTF-8"?>
<svg id="Calque_2" xmlns="http://www.w3.org/2000/svg" viewBox="0 0 21.7 50.36">
  <defs>
    <style>
      .cls-1 {
        fill: #f3aac6;
      }

      .cls-2 {
        fill: #f18b6a;
      }

      .cls-3 {
        fill: #302879;
      }

      .cls-4 {
        fill: #56adad;
      }
    </style>
  </defs>
  <g id="_Éléments_Mise_en_page" data-name="Éléments_Mise_en_page">
    <g>
      <path class="cls-2" d="M5.57,50.36c.73-.43,1.92-1.13,2.88-1.74.06-.1.11-.19.13-.27.04-.11.07-.24.09-.36.01-.06.02-.12.03-.18.04-.25.06-.52.07-.79.57-2.35,1.59-4.64,1.91-7.01.06-1.59-.28-2.82-.32-3.11-.06-.4.23-.94.64-1.39l1.06-2.32.09.13c.37.51.87.9,1.45,1.14,1.13.47,2.51,1.34,3.21,1.62,1.1.42,2.52,1.05,2.83,2.29.03.12.05.24.06.37.16,2.5,1.27,0,1.4-1.19.04-.37-.03-.69-.17-.96-.09-.18-.21-.34-.35-.5-.14-.15-.3-.3-.47-.43-.38-.31-.8-.6-1.15-.93-.53-.51-1.07-1.01-1.6-1.52,0,0-.01,0-.02,0-1.16-.81-2.05-1.4-2.94-1.75,1.16-1.69,2.25-3.98,2.23-5.65,0-.41-.17-.73-.48-.94-.38-.25-.95-.31-1.59-.26-.13-.15-.18-.21-.31-.36l.04-.17-3.1-1.48-3.08,1.69-.02.11s-.39,2.74.75,6.01c-.76,2.36-1.51,4.92-1.53,5.83-.04,1.61-.38,9.02-.45,10.49,0,.11-.02.96-.14,1.26-.02.05-.04.1-.07.15-.07.13-.18.26-.29.38-.3.34-.7.66-.91,1.01-.22.37-.26.69.11.85"/>
      <path class="cls-2" d="M1.5,6.75c.5-.01,1,.73,1.22,1.07.48.76.66.95,1.01,1.77.28.66.72,1.58,1.09,2.17.73-1.77.95-4.4,2.74-5.48.45-.27,1.6-.5,2.05-.27.85.43.12,1.06-.26,1.6-1.46,2.03-2,4.54-2.88,6.87-.13.34-.27.69-.59.94-.33.25-.9.37-1.38.18-.45-.18-.68-.55-.85-.89-.39-.77-3.33-7.68-2.25-7.95.04,0,.07-.01.11-.02"/>
      <path class="cls-2" d="M2.59,7.71c-.33-.67-1-1.16-1.74-1.28,0,.12-.01.24-.02.36-.29.04-.6-.39-.79-.17-.1.12-.02.29.07.42.48.64,1.12,1.16,1.85,1.49.18.08.39.15.57.07.24-.1.32-.44.22-.69-.09-.25-.31-.43-.51-.6l.34.41Z"/>
      <path class="cls-3" d="M8.99,2.18c.29-1.49,2.15-2.6,3.52-2.03.98.41.97,1.63,1.75,2.09.63.38,1.44.06,2.05-.17,1.26-.47,2.85-1.64,3.81-.06.77,1.27-.33,1.78-1.29,2.41-1.09.71-1.69,1.86-2.84,2.44-1.89.95-3.21.04-4.77-.93-1.44-.9-2.42-1.6-2.26-3.52,0-.07.02-.15.03-.22"/>
      <path class="cls-2" d="M10.03,1.76c.62.61,1.44.94,2.33.87-.34,1.26-1.06,2.64-2.17,1.96-.72-.44-.96-1.33-.88-2.22.27-.16.51-.37.72-.61"/>
      <path class="cls-1" d="M5.16,30.28c.07.32.19.62.38.88.86,1.18,3.81,2.44,5.23,2.57,1.36.13,4.36-.26,5.52-.94,1.88-1.11,3.78-2.43,4.95-4.3,1.21-1.94-.24-2.83-1.14-4.69-.65-1.36-1.29-2.73-2.13-3.98-.91-1.36-2.36-3.31-2.45-4.99-.1-1.84.96-4.12.75-5.92-.15-1.23-.98-2.13-2.12-2.52-.13-.04-.26-.09-.4-.15-.9-.35-1.99-.85-2.87-.93-.91-.08-1.98.17-2.83.7-.82.51-1.43,1.27-1.53,2.23-.24,2.37.77,4.85.55,7.26-.31,3.47-1.21,6.86-1.54,10.32-.11,1.2-.69,3.07-.38,4.45"/>
      <path class="cls-3" d="M18.52,22.13s-.01,0-.02.01c-.73.47-1.69.4-2.36-.14-.45-.36-.88-.74-1.28-1.15-.48-.5-.64-1.23-.37-1.88h0c1.42-.71,3.27-1.19,4.62-2.03.25.15.1.28.25.63.62,1.41.65,3.6-.84,4.57"/>
      <path class="cls-3" d="M13.41,1.67c.25,0,.49-.01.74-.03.14,0,.22.11.21.29-.06.97-.48,2.12-.83,3.14-.18.52-.53.81-.82.88-.27.14-.52.12-.59-.16-.04-.15-.06-.31-.07-.47,0-.07,0-.14.03-.22.32-.97.6-1.93.83-2.89.07-.28.3-.54.5-.54"/>
      <path class="cls-2" d="M13.81,5.51c.22-.53.4-1.06.52-1.57.02-.1.05-.22,0-.28-.08-.1-.28.07-.44.17-.6.39-1.05-.21-1.65.25-.09.53.07.94.33,1.18.26.24.62.33.97.43.06.02.13.03.2-.01.08-.04.16-.16.14-.23l-.06.07Z"/>
      <path class="cls-2" d="M10.54,3.14s.05-.02.07-.03c.53-.21.96,0,1.25.41-.02,1.03-.15,2.04-.33,3.05-.02.09-.07.18-.15.23h0c-2.48,1.46-1.64-3.29-.84-3.66"/>
      <path class="cls-2" d="M16.09,6.89c-.36-.68.23.39,0,0"/>
      <path class="cls-2" d="M15.97,7.9c.35.64,1.02,1.99,1.1,2.59.19,1.45.59,4.13-.92,5.21-1.02.73-1.53-1.95-1.67-2.47-.26-.95-.42-1.95-.42-2.94,0-.84.08-3.07,1.39-2.75.48.12.28-.06.52.37"/>
      <path class="cls-4" d="M5.57,50.36c.73-.43,1.92-1.13,2.88-1.74.06-.1.11-.19.13-.27.04-.11.07-.24.09-.36.01-.06.02-.12.03-.18-.55.15-1.01.63-1.5.97-.3.21-.71.08-.83-.26,0,0,0-.02,0-.02-.3.34-.7.66-.91,1.01-.22.37-.26.69.11.85"/>
      <path class="cls-4" d="M19.64,38.34c.03.12.05.24.06.37.16,2.5,1.27,0,1.4-1.19.04-.37-.03-.69-.17-.96-.09-.18-.21-.34-.35-.49.03.68-.16,2.52-.94,2.27"/>
      <path class="cls-3" d="M14.8,15.76c-.13-1.13-.06-2.29.7-2.87.59-.45,1.24.02,1.74.68.36.47.72,1.04.98,1.6.28.59.27,1.62.66,2.1.19.24-.03.59-.23.35-.56-.69-.45-1.67-.88-2.47-.51-.93-1.43-2.55-2.23-1.59-.67.79-.39,2.07-.24,3.19.16,1.21.3,2.42.44,3.58.06.5-.32.5-.38,0-.18-1.49-.39-3.02-.57-4.56"/>
      <path class="cls-2" d="M13.11,5.3c.08-.23.4-.27.54-.06.74,1.05,1.38,2.2,2,3.42.32.62.62,1.32.91,1.97.27.61.44,1.29.55,1.94.17,1.02.24,1.94-.32,2.82-1.37,2.16-2.66-2.79-2.95-3.62-.31-.87-.5-1.78-.67-2.68-.24-1.32-.54-2.49-.07-3.78"/>
    </g>
  </g>
</svg>