<?xml version="1.0" encoding="UTF-8"?>
<svg id="Calque_2" xmlns="http://www.w3.org/2000/svg" viewBox="0 0 34.13 54.86">
  <defs>
    <style>
      .cls-1 {
        fill: #db9356;
      }

      .cls-2 {
        fill: #eb666b;
      }

      .cls-3 {
        fill: #fff;
      }

      .cls-4 {
        fill: #eadfd6;
      }

      .cls-5 {
        fill: #e8435c;
      }

      .cls-6 {
        fill: #d52844;
      }

      .cls-7 {
        fill: #eaf6fd;
      }

      .cls-8 {
        fill: #bcdbe0;
      }

      .cls-9 {
        fill: #673933;
      }

      .cls-10 {
        fill: #322527;
      }

      .cls-11 {
        fill: #ef7f55;
      }

      .cls-12 {
        fill: #423134;
      }

      .cls-13 {
        fill: #eaad73;
      }
    </style>
  </defs>
  <g id="_Éléments_Mise_en_page" data-name="Éléments_Mise_en_page">
    <g>
      <path class="cls-11" d="M23.15,18.16s-.19,1.33.29,2.35c.48,1.02,1.57,1.02,1.57,1.02l.71-2.83-2.56-.53Z"/>
      <path class="cls-3" d="M26.49,7.56s-.67,1.74-.45,3.59c.21,1.86.45,2.25.45,2.25l2.89-4.98-2.89-.87Z"/>
      <path class="cls-1" d="M27.06,5.69s-.87-.66-1.93.47c-1.06,1.14-1.33,2.37-1.61,4.07-.23,1.36-.15,2.24-.25,3.96-.07,1.12-.09,3.38-.11,4.25.36.68,1.72.76,1.8.07.21-1.78.51-6.55.77-6.95,1.31-2.07,1.35-5.87,1.35-5.87"/>
      <path class="cls-9" d="M29.49,2.36s2.02.37,1.34,2.34c-.63,1.83-2.74.24-2.74.24l1.4-2.58Z"/>
      <path class="cls-11" d="M28.27,20.5c.04-.61-3.27.13-3.27.13,0,0,.4,2.55.64,3.7.35,1.73.62,2.53,1.78,4.65.51.94,1.91,4.67,2.23,6.03.47,1.99-.16,3.19-.32,3.77-.16.58,1.14.69,1.67-.24.53-.93.57-1.09.92-1.43.35-.35.05-.83-.3-1.93-.28-.85-.75-3.81-1.15-5.69-.57-2.66-1.15-2.55-1.5-3.87-.66-2.49-.73-4.72-.7-5.12"/>
      <path class="cls-10" d="M32.11,35.6s0,0,0-.01c-.02-.04-.04-.06-.04-.06h0c-.17-.23-.46-.39-.46-.39,0,0,.29,1.62-.44,2.54-.82,1.03-1.25,1.27-1.84,1.06,0,0-.14.44-.52,1.24-.2.43.15.69,1.03.36.46-.17,1.07-.62,1.31-1.21.25-.62.39-1.26.66-1.69.04-.07.08-.13.12-.19.15.41.22.68.33.97.13.11.25.04.33-.1-.04-.35-.21-.63-.2-1.3,0-.71-.16-1.08-.25-1.23"/>
      <path class="cls-10" d="M27.84,18.6c.44,2.63.62,4.81,1.22,6.54.49,1.45.94,2.37,1.89,5.15.48,1.42.9,4.98.9,4.98,0,0-1.05,1.44-2.22.97-.05-.2-.86-3.19-1.89-5.85-.62-1.61-1.58-2.91-2.03-3.93-1.05-2.38-1.08-8.49-1.08-8.49,0,0,2.77-1.99,3.21.64"/>
      <path class="cls-11" d="M30.64,24.12c.25-.56-3.14-.85-3.14-.85,0,0-.17,2.77-.33,3.92-.25,1.75-.26,2.59.11,4.98.16,1.06.22,5.04.07,6.43-.23,2.04-1.22,2.95-1.57,3.44-.35.49.84,1.03,1.65.34.81-.69.9-.83,1.35-1.04.45-.21.33-.77.37-1.92.03-.89.58-3.84.84-5.74.36-2.69-.23-2.78-.11-4.15.22-2.57.61-5.04.77-5.41"/>
      <path class="cls-10" d="M29.45,39.98s0,0,0-.01c0-.05-.02-.07-.02-.07h0c-.08-.27-.3-.52-.3-.52,0,0-.28,1.63-1.28,2.25-1.12.69-1.6.78-2.09.37,0,0-.28.37-.91.99-.34.33-.09.7.85.69.5,0,1.22-.22,1.64-.7.44-.5.79-1.05,1.19-1.37.06-.05.12-.09.17-.14,0,.43-.03.71-.02,1.03.08.15.22.12.34.02.08-.34.02-.66.25-1.29.24-.66.21-1.07.18-1.24"/>
      <path class="cls-12" d="M31.4,17.59s.28.65.27,1.66c0,.89-.28,2.06-.5,3.29-.47,2.62-1.04,4.74-1.06,6.57-.02,1.53.09,2.55.04,5.48-.03,1.5-.77,4.9-.77,4.9,0,0-1.47,1-2.42.16.02-.21.23-3.81.17-6.66-.04-1.73-.25-3.18-.32-4.29-.14-2.42-.2-9.95-.2-9.95l.87.26,3.92-1.42Z"/>
      <path class="cls-13" d="M25,13.72c.05,1.25-.37,2.81-.37,4.25,1.59,2.16,5.14,1.76,6.92-.16-.24-1.22-.6-2.91-.41-4.17.42-2.79.81-5.18.75-5.29-.4-.7-2.24-2.02-2.24-2.02h-.57l-1.64-.92s-.17-.04-.43-.09c-.38.42-1.17,1.5-1.53,2-.61.85-1.54,1.99-1.19,3.45.3,1.25.69,2.34.72,2.96"/>
      <path class="cls-1" d="M27.06,6.3s-.35.61-.57,1.25c-.22.64.07,1.72,1.34,1.1,1.27-.62,2.14-2.1,2.14-2.1,0,0-.83-.74-1.45-.98-.62-.24-1.46.72-1.46.72"/>
      <path class="cls-11" d="M27.3,5.57s-.21,1.32-.44,1.99c-.04.26-.11.69.28.8.33.09,1.01-.29,1.37-.67.86-.89,1.12-1.37,1.12-1.37,0,0-.24-.45-.26-.77-.04-.53,0-2.26,0-2.26l-2.08,2.28Z"/>
      <path class="cls-11" d="M28.99,1.09c-.79-.67-2.72-.97-3.54,1-.85,2.07.91,4.8,1.95,4.4.58-.22,1.76-.76,2.16-1.85.44-1.23.04-3.03-.57-3.55"/>
      <path class="cls-11" d="M28.52,4.27s.15-.22.33-.36c.15-.11.43-.15.51.28.11.59-.36.81-.36.81l-.48-.73Z"/>
      <path class="cls-10" d="M28.95.84s0,0,0,0c-.46-1.49-4.53-1.13-3.71,2.1.37.03,1.16-.14,1.88-.44.23.59.65,1.34,1.41,1.77,1.4.78,1.68-.18,1.68-.18,0,0,1.01-2.98-1.25-3.25"/>
      <path class="cls-1" d="M34.09,14.7c.15-.58-.2-1.34-.37-1.95-.33-1.21-.61-2.91-1.11-3.9-.48-.97-1.28-1.46-1.66-1.19-1.16.82-.6,2.7.19,5.23.42,1.35.72,1.81.88,2.22.85.7,1.64.52,2.07-.41"/>
      <path class="cls-12" d="M4.01,44.02c0,1.48-.9,3.19-2,3.83-1.11.64-2-.04-2-1.51s.9-3.19,2-3.83c1.11-.64,2,.04,2,1.51"/>
      <polygon class="cls-12" points=".69 47.95 1.38 48.35 1.38 47.76 .69 47.95"/>
      <polygon class="cls-12" points="3.28 42.37 4.01 42.8 3.69 42.95 3.16 42.45 3.28 42.37"/>
      <path class="cls-10" d="M4.67,44.4c0,1.48-.9,3.19-2,3.83-1.11.64-2-.04-2-1.51s.9-3.19,2-3.83c1.11-.64,2,.04,2,1.51"/>
      <path class="cls-3" d="M3.51,45.07c0,.62-.38,1.34-.84,1.61-.46.27-.84-.02-.84-.64s.38-1.34.84-1.61c.47-.27.84.02.84.64"/>
      <path class="cls-12" d="M17.26,36.37c0,1.48-.9,3.19-2,3.83-1.11.64-2-.04-2-1.51s.9-3.19,2-3.83c1.11-.64,2,.04,2,1.51"/>
      <polygon class="cls-12" points="13.94 40.3 14.64 40.7 14.64 40.12 13.94 40.3"/>
      <polygon class="cls-12" points="16.53 34.73 17.26 35.15 16.94 35.3 16.41 34.8 16.53 34.73"/>
      <path class="cls-10" d="M17.92,36.75c0,1.48-.9,3.19-2,3.83-1.11.64-2-.04-2-1.51s.9-3.19,2-3.83c1.11-.64,2,.04,2,1.51"/>
      <path class="cls-3" d="M16.76,37.42c0,.62-.38,1.34-.84,1.61-.47.27-.84-.02-.84-.64s.38-1.34.84-1.61c.47-.27.84.02.84.64"/>
      <polygon class="cls-3" points="3.21 46.12 2.84 45.49 17.44 36.96 26.68 42.25 26.53 43 17.44 37.8 3.21 46.12"/>
      <rect class="cls-3" x="10.74" y="41.23" width=".73" height="10.66" transform="translate(-34.89 33.29) rotate(-60.48)"/>
      <path class="cls-4" d="M6.68,43.77c0,.18-.11.38-.24.46-.13.08-.24,0-.24-.18s.11-.38.24-.46c.13-.08.24,0,.24.18"/>
      <rect class="cls-3" x="14.26" y="39.21" width=".72" height="10.66" transform="translate(-31.34 35.32) rotate(-60.48)"/>
      <path class="cls-4" d="M10.2,41.75c0,.18-.11.38-.24.46-.13.08-.24,0-.24-.18s.11-.38.24-.46c.13-.08.24,0,.24.18"/>
      <rect class="cls-3" x="17.42" y="37.25" width=".72" height="10.66" transform="translate(-28.04 37.07) rotate(-60.48)"/>
      <path class="cls-4" d="M13.35,39.79c0,.18-.11.38-.24.46-.13.08-.24,0-.24-.18s.11-.38.24-.46c.13-.08.24,0,.24.18"/>
      <path class="cls-7" d="M16.9,37.81l-.77.44c0-.97-.13-1.81-.5-2.08-.62-.47-1.95-.09-3.49.35-.63.18-1.28.36-1.99.52-3.86.88-6.66-1.31-6.77-1.4l.71-.39c.25.18,2.4,1.89,5.91,1.08.69-.16,1.33-.34,1.95-.52,1.8-.51,3.22-.91,4.13-.23.57.43.83.99.83,2.22"/>
      <path class="cls-3" d="M19.95,17.78c-1.01,1.24-3.54,4.52-4.24,6.87l-.11.37c-.75,2.54-1.61,5.42-2.77,7.33-1.53,2.51-3.78,4.12-5.76,5.54-1.31.94-2.44,1.74-3.2,2.68-1.43,1.75-1.22,5.33-1.21,5.47l.72-.42s-.2-3.06,1.05-4.59c.7-.86,1.8-1.64,3.06-2.55,2.04-1.46,4.36-3.11,5.96-5.75,1.21-1.98,2.08-4.92,2.84-7.5l.11-.37c.66-2.23,3.19-5.48,4.14-6.66-.19-.15-.39-.29-.6-.42"/>
      <path class="cls-3" d="M26.25,43.25l-.77.44c0-.97-.13-1.81-.5-2.08-.62-.47-1.95-.09-3.49.35-.63.18-1.28.36-1.99.52-3.86.88-6.66-1.31-6.77-1.4l.71-.39c.25.18,2.4,1.89,5.91,1.08.69-.16,1.33-.34,1.95-.52,1.8-.51,3.22-.91,4.13-.23.57.43.83.99.83,2.22"/>
      <rect class="cls-10" x="1.63" y="38.77" width=".48" height=".7"/>
      <rect class="cls-10" x="24.41" y="33.59" width=".48" height=".7"/>
      <path class="cls-10" d="M24.36,35.07l-14.14,8.17c-.78.45-2.15.39-3.05-.13l-4.79-2.77c-.9-.52-1-1.31-.22-1.76l14.14-8.17c.78-.45,2.15-.39,3.05.13l4.79,2.76c.9.52,1,1.31.22,1.76"/>
      <path class="cls-6" d="M25.33,33.82l-15.07,8.7c-.83.48-2.29.42-3.25-.13l-5.1-2.95c-.96-.55-1.06-1.4-.23-1.88l15.07-8.7c.83-.48,2.29-.42,3.25.13l5.1,2.95c.96.55,1.06,1.4.23,1.88"/>
      <rect class="cls-6" x="1.12" y="36.35" width="3.39" height="2.05"/>
      <rect class="cls-7" x="1.12" y="33.72" width="3.39" height="2.76"/>
      <rect class="cls-7" x="22.5" y="28.4" width="3.39" height="2.76"/>
      <rect class="cls-6" x="19.54" y="30.98" width="6.35" height="2.05"/>
      <path class="cls-7" d="M25.33,31.85l-15.07,8.7c-.83.48-2.29.42-3.25-.13l-5.1-2.95c-.96-.55-1.06-1.4-.23-1.88l15.07-8.7c.83-.48,2.29-.42,3.25.13l5.1,2.95c.96.55,1.06,1.4.23,1.88"/>
      <path class="cls-8" d="M25.1,27.41l-5.1-2.95c-.96-.55-2.42-.61-3.25-.14l-.58.33c.81,1.1,1.27,2.45,1.27,3.86v5.32l7.89-4.56c.83-.48.72-1.32-.23-1.88"/>
      <path class="cls-5" d="M19.49,32.66s2.43-.2,4.11-1.32c1.77-1.18,1.99-1.2,2.62-1.77.78-.71.49-1.52-2.25-3.54-2.74-2.02-4.55-3.27-6.18-2.41-1.11.58-5.41,2.63-5.41,2.63,0,0,3.78,6.13,5.05,6.42,1.27.29,2.05,0,2.05,0"/>
      <path class="cls-5" d="M13.83,31.69c-.26-1.68-1.08-3.21-2.29-4.35-.42-.4-.89-.75-1.4-1.05l-5.18-2.99s-1.17,1.66-2.21,3.37c-.85,1.39-1.62,2.8-1.62,3.37,0,.23,0,2.43,0,3.81h.01c0,.37.26.76.78,1.07l5.1,2.95c.96.55,2.42.61,3.25.13l4.17-2.4-.6-3.89Z"/>
      <path class="cls-2" d="M16.17,24.66c-.52-.71-1.19-1.32-1.98-1.77l-4.34-2.51c-.64-.37-1.44-.28-1.98.22l-2.91,2.69,5.18,2.99c.51.3.98.65,1.4,1.05,1.21,1.14,2.03,2.67,2.29,4.35l.6,3.89.72-.41,2.29-1.32v-5.32c0-1.41-.46-2.76-1.27-3.86"/>
      <path class="cls-10" d="M15.39,35.03l4.1-2.37s0,1.29-.81,1.76c-.99.57-1.71.98-2.23,1.29-.52.31-1.06-.68-1.06-.68"/>
      <path class="cls-6" d="M17.44,30.41v3.43l2.05-1.18s0-1.07-2.05-2.25"/>
      <path class="cls-10" d="M23.87,30.8l1.22-.83s.14.74-.43,1.14c-.57.39-.79-.31-.79-.31"/>
      <path class="cls-6" d="M19.49,29.32s1.96-.97,2.9-1.54c.94-.57,1.41-.27.73.3-.67.57-2.67,1.36-3.63,1.24"/>
      <path class="cls-6" d="M17.99,29.2s1.09-1.56,2.48-2.35c1.39-.79,2.08-.76,1.57-.19-.51.57-1.15.76-1.94,1.28-.71.47-2.11,1.25-2.11,1.25"/>
      <path class="cls-5" d="M13.79,29.97s.4,1.59.89,2.69c.48,1.1,1.09,1.56,1.09,1.56,0,0-.2-1.51-.73-2.43-.52-.93-1.25-1.81-1.25-1.81"/>
      <path class="cls-5" d="M16.01,27.57s-.08,1.85,0,3.23c.08,1.38.16,3.04.16,3.04,0,0,.49-1.4.41-3.24-.08-1.84-.56-3.03-.56-3.03"/>
      <path class="cls-6" d="M9.52,33.72s1.41.95,2.46,1.38c1.05.43,2.05.31,2.05.31,0,0-.54-.28-1.64-.97-1.1-.68-2.87-.72-2.87-.72"/>
      <path class="cls-6" d="M12.96,35.69s-2.02-.24-2.87.08c-.85.32-1.13.58-1.13.58,0,0,.97.3,2.05,0,1.09-.3,1.94-.66,1.94-.66"/>
      <polygon class="cls-10" points="29.28 23.49 19.98 18.12 20.94 17.56 30.24 22.93 29.28 23.49"/>
      <path class="cls-3" d="M29.16,23.4c-1.08,1.35-3.43,4.44-4.1,6.69l-.11.37c-.75,2.54-1.61,5.43-2.77,7.33-1.53,2.51-3.78,4.12-5.76,5.54-1.31.93-2.44,1.74-3.2,2.68-1.43,1.75-1.22,5.33-1.21,5.46l.72-.41s-.2-3.06,1.05-4.59c.7-.86,1.79-1.64,3.06-2.55,2.04-1.46,4.36-3.11,5.96-5.75,1.21-1.98,2.08-4.91,2.84-7.5l.11-.37c.64-2.17,3.05-5.3,4.06-6.55-.22-.12-.44-.23-.65-.35"/>
      <polygon class="cls-3" points="12.38 51.66 2.66 46.03 3.2 45.49 12.37 50.82 26.68 42.25 26.68 43.12 12.38 51.66"/>
      <path class="cls-12" d="M15.11,50.41c0,1.48-.9,3.19-2,3.83-1.11.64-2-.04-2-1.51s.9-3.19,2-3.83c1.11-.64,2,.04,2,1.51"/>
      <polygon class="cls-12" points="11.79 54.34 12.48 54.74 12.48 54.15 11.79 54.34"/>
      <polygon class="cls-12" points="14.38 48.77 15.11 49.19 14.79 49.34 14.26 48.84 14.38 48.77"/>
      <path class="cls-10" d="M15.77,50.79c0,1.48-.9,3.19-2,3.83-1.11.64-2-.04-2-1.51s.9-3.19,2-3.83c1.11-.64,2,.04,2,1.51"/>
      <path class="cls-3" d="M14.61,51.46c0,.62-.38,1.34-.84,1.61-.47.27-.84-.02-.84-.64s.38-1.34.84-1.61c.47-.27.84.02.84.64"/>
      <path class="cls-12" d="M28.36,42.76c0,1.48-.9,3.19-2,3.83-1.11.64-2-.04-2-1.51s.9-3.19,2-3.83c1.11-.64,2,.04,2,1.51"/>
      <polygon class="cls-12" points="25.04 46.69 25.73 47.09 25.73 46.51 25.04 46.69"/>
      <polygon class="cls-12" points="27.63 41.12 28.36 41.54 28.04 41.69 27.51 41.19 27.63 41.12"/>
      <path class="cls-10" d="M29.02,43.14c0,1.48-.9,3.19-2,3.83-1.11.64-2-.04-2-1.51s.9-3.19,2-3.83c1.11-.64,2,.04,2,1.51"/>
      <path class="cls-3" d="M27.86,43.81c0,.62-.38,1.34-.84,1.61-.46.27-.84-.02-.84-.64s.38-1.34.84-1.61c.47-.27.84.02.84.64"/>
      <path class="cls-10" d="M19.33,18.37l.76.51s.82-.9.93-1.06c.11-.15-.08-.27-.08-.27,0,0-.49-.49-.85-.07-.36.42-.76.88-.76.88"/>
      <path class="cls-10" d="M28.67,23.76l.76.51s.66-.71.77-.86c.11-.15.25-.42-.15-.59-.26-.11-.64-.06-.72.07-.32.45-.66.87-.66.87"/>
      <path class="cls-11" d="M28.22,19.39s-1.31.81-1.6.96c-.79.41-.66.77-.63,1.18.02.25.03.49.33.76.27.25.58.67.93.48.26-.14.25-.54.53-.68.76-.39,1.14-.98,1.29-1.55.2-.8-.85-1.14-.85-1.14"/>
      <path class="cls-1" d="M31.89,13.88c-.11.14-1.41,1.86-2.14,2.87-.94,1.3-1.97,2.78-1.97,2.78,0,0,.52.92,1.44,1.15.85-.89,1.2-1.42,2.44-2.7.87-.9,2.45-2.37,2.45-3.38-.95.23-2.21-.73-2.22-.73"/>
    </g>
  </g>
</svg>