<?xml version="1.0" encoding="UTF-8"?>
<svg id="Calque_2" xmlns="http://www.w3.org/2000/svg" viewBox="0 0 24.58 39.69">
  <defs>
    <style>
      .cls-1 {
        fill: #ebeef8;
      }

      .cls-2 {
        fill: #f4cf00;
      }

      .cls-3 {
        fill: #e84f0e;
      }

      .cls-4 {
        fill: #1397d5;
      }

      .cls-5 {
        fill: #235aa3;
      }
    </style>
  </defs>
  <g id="_Éléments_Mise_en_page" data-name="Éléments_Mise_en_page">
    <g>
      <path class="cls-3" d="M3.03,31.22s-.05,0-.07,0l-.22.73-.21.68-.95,3.14-.51.62-.48.59.07.04c.3.18.67.18.97.01l2.34-1.34s0,0,0,0h.02s0-.03,0-.04l1.77-3.35.59-1.11c-1.11.11-2.22.14-3.31.03"/>
      <path class="cls-3" d="M11.99,33.96c-.6.08-1.02-.02-1.39-.19l.07.25.17.84.15.65.16.92v.09s.1.53.1.53l.03.18-.47.65-.35.47.14.07c.36.16.69.11,1.01-.13l1.66-1.36v-3.41c-.16.21-.7.39-1.28.46"/>
      <path class="cls-1" d="M3.97,35.68s0,0,0,0h0Z"/>
      <path class="cls-1" d="M3.98,35.67h-.02s.02,0,.02,0"/>
      <path class="cls-5" d="M.66,37.02l-.07-.04-.35.42c-.15.14-.24.33-.24.48,0,.12.05.21.14.25.09.04.2.03.34-.03l2.36-1.11c.18-.09.28-.19.36-.31h0c.33-.27.63-.62.67-.99,0,0,.05,0,.05,0l-2.31,1.34c-.3.17-.65.17-.94-.01"/>
      <path class="cls-5" d="M10.6,38.39l-.14-.06-.42.58c-.13.15-.22.34-.22.5,0,.13.05.21.13.26.08.04.19.04.31-.03l2.18-1.15c.55-.29.83-.79.83-1.35v-.23l-1.66,1.36c-.32.25-.65.29-1.01.13"/>
      <path class="cls-4" d="M11.7,21.57l-5.94,10.72c-1.36.72-3.02-.36-3.02-.36l3.52-11.27c.34-1.09,1.63-1.56,2.59-.94l2.85,1.84Z"/>
      <path class="cls-4" d="M24.03,15.47c-.11-.1-.23-.21-.35-.31-.18-.16-.37-.32-.56-.47-.19-.15-.38-.3-.58-.43-.12-.08-.73-.43-.18-.14-.35-.18-.65-.4-.91-.64l-3.63.5-7.02,5.42,5.2,1.53-4.75,2.1c-1.33.68-2.03,2.31-2.03,3.58l1.39,7.39.06.03.05.03c.35.16.73.24,1.13.24.14,0,.28,0,.43-.03.43-.06.82-.17,1.18-.34v-6.6l4.94-2.21,3.49-1.67c2.17-1.11,2.82-2.92,2.63-7.48-.17-.16-.34-.32-.51-.48"/>
      <path class="cls-3" d="M13.56,7.71c-.33,2.04-.34,3.15.13,5.86l-5.47,4.61c-.3.26-.34.7-.08.99.23.26.63.33.94.16,1.28-.7,2.56-1.4,3.84-2.1.82-.45,1.64-.97,2.49-1.36,2.32-1.05,1.69-3.83,2.03-5.95.18-1.09,1.03-3.01.3-3.99-.7-.95-2.07-.8-2.95-.22-.45.29-1.16,1.49-1.24,1.99"/>
      <path class="cls-4" d="M7.27,19.8c.25.14,8.63-4.69,8.63-4.69l1.96,1.39-3.08,2.82-7.51.47Z"/>
      <path class="cls-3" d="M20.07,22.74l-5.22,3.01c-.21.12-.54.12-.75,0l-4.44-2.56h0s-4.44-2.56-4.44-2.56c-.21-.12-.21-.31,0-.43l5.22-3.01.41.24h0l4.4,2.54h0s4.3,2.48,4.3,2.48l.03.02h0l.48.28Z"/>
      <polygon class="cls-1" points="19.58 22.46 19.56 22.47 14.49 25.41 14.38 25.35 10.11 22.88 10.11 22.88 5.73 20.35 5.87 20.27 10.8 17.42 10.82 17.41 10.85 17.42 10.85 17.42 15.25 19.96 15.25 19.97 19.55 22.45 19.58 22.46"/>
      <path class="cls-1" d="M19.47,22.52s-.35-3.28-4.59-3.03c-.26-.81-1.18-2.48-4.27-2.08l3.72,2.13s-.04,0-.05,0l5.19,2.97Z"/>
      <path class="cls-2" d="M14.38,25.35l-4.27-2.47h0s-4.38-2.53-4.38-2.53l.14-.08c2.82-.24,3.68,1.33,3.94,2.11,3.9-.24,4.51,2.52,4.58,2.97"/>
      <path class="cls-1" d="M24.11,8.94c.51,1.24.69,6.3.09,7.6-.91,1.94-7.24.59-8.78-2-.77-1.3-1.66-3.07-1.83-4.43-.16-1.37.29-3.08,1.45-4.05.79-.67,1.67-.67,2.85-.67,1.42,0,5.35,1.44,6.22,3.55"/>
      <path class="cls-3" d="M20.81,10.73l.46,6.29-5.04,5.37c-.3.26-.33.72-.08,1.03.23.27.62.34.93.17l6.31-4.52c.62-.44.98-1.16.98-1.92l-.03-7.12c-.17-1.09-1.28-1.77-2.33-1.44-.9.29-1.42,1.22-1.2,2.14"/>
      <path class="cls-5" d="M16.09,1.24c.88-.78,2.55-1.4,3.17-1.21,2.05.65,1.61,4.24.45,5.46-.86.9-2,.82-2.47,1.97-.41,1-.06,2.19-.27,3.23,0,0,0,0,0,.01-.74,3.56-5.18,2.62-4.86-.82.16-1.68.91-2.93,2.21-3.98.41-.33,4.01-2.29,2.95-2.9-.44-.25-1.05.24-1.5-.34-.41-.54-.14-1.01.32-1.42"/>
      <path class="cls-3" d="M19.1,7.08h0c-.75.21-1.54-.22-1.75-.98l-.46-1.64c-.21-.75.22-1.54.98-1.75.75-.21,1.54.22,1.75.98l.46,1.64c.21.75-.22,1.54-.98,1.75"/>
      <path class="cls-3" d="M16.79,5h0s1.27.64,2.35-.6c-.03-.63-.07-1.26-.09-1.88l-.39-.69-2.24-.35c-.05.2-.21.85-.38,1.49-.21.82.12,1.71.75,2.04"/>
      <path class="cls-5" d="M15.01,2.19c0,.7,1,1.26,2.22,1.26s2.22-.57,2.22-1.26-1-1.26-2.22-1.26-2.22.57-2.22,1.26"/>
      <path class="cls-3" d="M18.34,3.95c.18.26.65.25,1.03-.02.38-.27.55-.7.36-.96s-.65-.25-1.03.02c-.38.27-.55.71-.36.96"/>
    </g>
  </g>
</svg>