<?xml version="1.0" encoding="UTF-8"?>
<svg id="Calque_2" xmlns="http://www.w3.org/2000/svg" viewBox="0 0 15.71 44.98">
  <defs>
    <style>
      .cls-1 {
        fill: #383432;
      }

      .cls-2 {
        fill: #eeeeef;
      }

      .cls-3 {
        fill: #db3236;
      }

      .cls-4 {
        fill: #00656e;
      }

      .cls-5 {
        fill: #d28940;
      }

      .cls-6 {
        fill: #e3c2a8;
      }

      .cls-7 {
        fill: #009469;
      }

      .cls-8 {
        fill: #eeb492;
      }
    </style>
  </defs>
  <g id="_Éléments_Mise_en_page" data-name="Éléments_Mise_en_page">
    <g>
      <polygon class="cls-7" points="11.26 13.8 11.56 17.02 11.97 17.1 11.56 13.8 11.26 13.8"/>
      <path class="cls-8" d="M5.24,7.59c-.11.36-1.8,7.64-1.8,7.64l-2.28,5.08-.9,1.08-.25,1.44s.09.07.21,0c-.02.05-.03.08-.03.08l-.03,1.03s.15.1.27-.13l.14.45c.22.03.26-.23.26-.45l.1.32c.37.05.24-.72.24-.72l.05-.12.11.59c.28.12.22-.47.22-.47v-.58s.01-.38.01-.38c.22-.36.67-1.15.5-1.62l3-5.01s1.28-4.14,1.98-6.12c.7-1.98.82-2.56.82-2.56-1.32-1.07-2.45-.09-2.62.47"/>
      <path class="cls-8" d="M4.93,20.04c-1.23,6.23-1.71,8.88-1.95,10.73-.03.24-.01.51.05.76.07.65.17,1.62.25,2.26.59,4.81.66,7.01.67,7.8-.35.9-1.68,1.94-2.17,2.32-.52.4-.64.58-.64.58-.02.2.14.3.14.3.12.13.99.33,1.53.11.54-.22,1.08-.81,1.85-.97.79-.16.98-.4.98-.4.2-.82-.18-2.29-.18-2.29.14-1.21.45-3.96.46-4.95,0-1.09-.37-3.55-.44-4.17l2.35-6.93-2.9-5.13Z"/>
      <path class="cls-1" d="M4.33,43.37c-.53.29-.97.62-1.6.59-.27-.01-.54-.08-.79-.18-.06.04-.11.09-.15.12-.52.4-.64.58-.64.58-.02.2.14.3.14.3.12.13.99.33,1.53.11.54-.22,1.08-.81,1.85-.97.79-.16.98-.4.98-.4.06-.25.07-.57.05-.88-.31.43-.92.49-1.36.73"/>
      <path class="cls-8" d="M14.45,39.39l-1.13.75.17,2.86c-.24.78-.45,1.03-.14,1.22.43.26,1.43-.09,1.87-1.05.2-.43.68-2.86.41-3.13-.27-.27-1.18-.64-1.18-.64"/>
      <path class="cls-1" d="M15.09,39.68c-.02.85-.05,1.94-.41,2.72-.24.53-.7.65-1.2.61-.24.76-.44,1.01-.13,1.2.43.26,1.42-.09,1.87-1.05.2-.43.68-2.86.41-3.13-.11-.11-.32-.24-.54-.35"/>
      <path class="cls-8" d="M12.49,35.47c-.49-1.11-1.1-1.94-1.52-2.44l.77-7.2s.25-1.7.25-2.31c.02-2.74-.73-2.38-.73-2.38l-5.5.89,1.66,4.18s.51,4.7.9,7.19c-.04.35.06.78.24,1.01,1.87,2.31,4.78,5.8,4.78,5.8,0,0,.17.44.85.16.59-.24.4-.85.4-.85,0,0-1.07-1.73-2.11-4.06"/>
      <path class="cls-2" d="M4.85,20.42l-1.76,6.63s1.9,1.66,5.46,1.99c1.94.18,4.05-.91,4.05-.91.22-4.14-1.1-7.62-1.1-7.62l-6.65-.09Z"/>
      <path class="cls-4" d="M12.5,9.35c-1.4-2.65-4.59-2.79-5.86-2.69-.36.03-.46.1-.46.1,0,0-.42.09-.59.77-.08.3-.02.88-.12,1.32l-.58,1.48-.58,1.69c-.35,1.38.58,2.07.58,2.07l.5,3.26-.89,3.55s4.3,2.25,7.3-.09l-.64-2.91c-.03-.15-.04-.3-.03-.45.26-3.94,1.93-7.08,1.39-8.09"/>
      <path class="cls-8" d="M8.56,6.51c-1.43.27-1.68,1.34-1.55,1.57.13.23.54.73,1.71.36,1.39-.44,1.39-1.17,1.39-1.17,0,0-.63-.94-1.55-.76"/>
      <path class="cls-8" d="M9.69,5.7l-2.33-.25s-.07,1.69.05,2.54l2.71-.71s-.52-.91-.42-1.58"/>
      <path class="cls-8" d="M6.26,4.68c0,1.29.54,2.53,1.77,2.2,0,0,2.12-.63,2.39-1.98l.35-2.38-4.38-.78-.14,2.94Z"/>
      <path class="cls-5" d="M8.68,0c-3.13,0-2.63,2.6-2.63,2.6,1.67,1.29,3.74.97,3.74.97l-.1,2.53c0,.41.36,1.1.36,1.1l1.88,1.31s-.14-4.67-.17-5.28c-.04-.7-.27-3.23-3.08-3.23"/>
      <path class="cls-8" d="M14.59,17.81c-.03-.51-.05-1.01-.05-1.01,0,0-.65-3.16-1.25-5.17-.34-1.15-.62-1.87-.8-2.28-.14-.32-.48-.52-.83-.46-1.17.19-1.28,1.81-1.21,2.13.09.37,2.2,6.33,2.2,6.33.31,1.6.72,6,.72,6l-.57,1.68.15,1.64s.14.08.29-.45v-.73s.31.85.31.85v.59s-.02.23-.02.23c-.03.21.2.24.31.05.03-.05.25-.36.25-.36l.49-.42.21-.75-.31-2.1s.12-5.23.1-5.75"/>
      <path class="cls-3" d="M8.11,19.08v1.6c0,.16.11.28.22.4.28.3.97.68.97.68l.06-2.61-1.18-.21-.08.13Z"/>
      <path class="cls-3" d="M9.14,19.23l.04,2.46c.85.61,3.33-1,3.48-1.36.16-.36,0-2.07,0-2.07l-3.52.97Z"/>
      <path class="cls-3" d="M12.25,17.25c-.22-.16-.59-.31-.83-.18l-3.01,1.74s-.44.23-.3.26c.35.09.85.64.85.64.89,1.31,3.93-.35,3.84-1.38-.05-.59-.26-.87-.55-1.08"/>
      <path class="cls-6" d="M11.48,19.59c-.21.1-.34.25-.3.34.04.09.24.09.45,0,.21-.1.34-.25.29-.34-.04-.09-.24-.09-.45,0"/>
      <polygon class="cls-3" points="8.47 19.35 8.65 19.42 9.64 11.12 9.41 11 8.47 19.35"/>
      <path class="cls-3" d="M9.41,11l.23.12c.8-3.23,2-2.92,2-2.92l-.3-.22c-1.35.17-1.93,3.02-1.93,3.02"/>
    </g>
  </g>
</svg>