<?xml version="1.0" encoding="UTF-8"?>
<svg id="Calque_2" xmlns="http://www.w3.org/2000/svg" viewBox="0 0 17.27 57.93">
  <defs>
    <style>
      .cls-1 {
        fill: #7f2f11;
      }

      .cls-2 {
        fill: #db3236;
      }

      .cls-3 {
        fill: #fff;
      }

      .cls-4 {
        fill: #009283;
      }

      .cls-5 {
        fill: #235aa3;
      }

      .cls-6 {
        fill: #393533;
      }
    </style>
  </defs>
  <g id="_Éléments_Mise_en_page" data-name="Éléments_Mise_en_page">
    <g>
      <path class="cls-6" d="M8.72.27c2.46,0,3.52,1.47,3.52,3.92s-1.64,4.66-3.22,4.66c-2.46,0-4.69-1.99-4.69-4.45S6.27.27,8.72.27"/>
      <path class="cls-1" d="M10.97,13.54c.29.16.62.21.9.36.43.23.45.29.76.71.38.51.93.61,1.41.46,0,2.05.16,4.82.16,4.82l1.78,6.21,1.05,2.15.2,1.9s-.23.06-.41-.09c-.06,1.05-.39,1.79-.39,1.79,0,0-.32.1-.45-.18l-.1.19c-.65-.02-.32-.78-.32-.78v-.58s-.18.71-.18.71c-.45.16-.45-.42-.45-.42l.1-.89-.19-.89-.12-.56c-.06-.28-.05-.7.04-1.04l-3.98-7.59-.88-6.98c.11,0,.21,0,.32,0,.19.27.44.51.74.68"/>
      <path class="cls-5" d="M14.38,17.21c-.34.22-.96.31-1.28.53-.52-1.44-1.25-3.3-1.76-4.76-.2-1.33-1.82-3.54-1.82-3.54,0,0,3.41,1.39,3.95,1.9.87.82.69,3.61.92,5.86"/>
      <path class="cls-3" d="M2.79,46.05l2.18,1.13s1,2.06,1.04,2.02c1.7,1.04,1.2,1.88.41,2.12-.37.11-1.4-.33-2.11-.69-.34-.17-.64-.39-.91-.66l-.23-.23-1.43-1.47c-.19-.28-.21-.65-.06-.95l1.11-1.27Z"/>
      <path class="cls-6" d="M2.56,46.32c-.09.87-.12,1.67-.37,2.42l-.45-.47c-.19-.29-.21-.65-.06-.95l.87-1Z"/>
      <path class="cls-6" d="M1.78,47.22c.06.18.15.35.27.51.82,1.04,1.74,1.95,2.86,2.66.66.42,1.62.62,2.23.25-.05.33-.35.58-.72.69-.4.12-1.56-.4-2.27-.77-.24-.12-.46-.28-.65-.47l-.34-.34-1.43-1.47c-.19-.28-.21-.65-.06-.95l.09-.1Z"/>
      <path class="cls-3" d="M11.84,53.69l2.22,1.78c.42.34,1.61.87,1.76,1.39l.02.08c0,1.33-2.2.93-2.2.93l-3.62-1.48c-.31-.13-.71-.64-.74-.97l.41-1.43,2.16-.3Z"/>
      <path class="cls-6" d="M10.19,53.92c.13.85.19,1.71-.05,2.53l-.12-.05c-.31-.13-.71-.64-.74-.97l.41-1.43.51-.07Z"/>
      <path class="cls-4" d="M8.4,27.38l5.06-1.38s-.02,4.04-.32,6.64c-.22,1.87-1.36,7.38-1.36,7.38l-6.62,7.57s-1.8,1.04-2.72-1.32l5.51-8.85.46-10.03Z"/>
      <path class="cls-4" d="M10.38,26.39v4.48l2.13,10.73-.2,12.49c-1.92,1.67-2.95.4-2.95.4l-1.32-12.39s-1.7-6.31-3.04-9.22c-1.35-2.91-1.12-6.05-1.12-6.05l6.5-.45Z"/>
      <path class="cls-5" d="M3.25,11.47l3.83-2.16,1.16-.24,1.42.25c.62-.02,3.21,1.46,3.39,1.89.5,1.13.42,9.54.42,9.54l.1,5.29s-.51,1.45-4.74,2.14c-4.43.73-5.03-.87-5.03-.87l.45-5.37-.07-7.64c-.12-1.45-.92-2.83-.92-2.83"/>
      <path class="cls-2" d="M13.34,13.53c.07,1.15.1,2.54.11,3.8-3.05.74-6.09,1.36-9.25,1.53l-.04-3.84c3.1.39,6.24-.35,9.17-1.49"/>
      <path class="cls-1" d="M.67,21.94l1.12-7.15s.75-3.36,2.78-2.91c1.99.44.92,4,.92,4l-2.08,6.37-.92,6.55s-.02,0-.03.01l.39,1.85-.38,2.42s-.52,0-.44-.74l.12-.84-.03.1h0s-.35.96-.35.96l-.04.92.02.3c.02.28-.37.41-.5.16-.04-.07-.38-.73-.38-.73l-.66-.6-.24-1,.7-2.64-.03-7.03Z"/>
      <path class="cls-5" d="M4.28,11.38c2.05.45,1.51,3.88,1.51,3.88l-1.1,3.42c-1.87.25-3.49-.83-3.58-.88l.76-3.76s.32-3.11,2.41-2.65"/>
      <path class="cls-1" d="M9.83,6.28l.71,2.82c.24.95-.38,1.58-1.33,1.83-.95.24-1.92-.33-2.16-1.29l.11-1.24-.27-1.47,2.94-.65Z"/>
      <path class="cls-1" d="M11.32,7.25c0,1.51-.97,2.42-2.2,2.17-.16-.03-2.66-.83-2.65-2.32l-.3-2.75,5.15-.91v3.81Z"/>
      <path class="cls-6" d="M10.68,1.9c2.23,1.4.64,2.14.64,2.14,0,0-3.62.08-3.65.69,0,.18.03,1.36.03,1.36l-.28.21-.3-.4.04,2.49s-1.12-.94-1.52-2.54c-.18-.71-.58-2.21.01-2.96,1.22-1.53,2.98-2.27,5.02-.99"/>
      <path class="cls-6" d="M10.61,1.54c2.32,1.46.46,2.24.46,2.24,0,0-3.56.08-3.59.72,0,.19.04,1.42.04,1.42l-.3.22-.31-.42.26,2.68s-1.39-1.06-1.8-2.73c-.18-.74-.61-2.31.01-3.09,1.27-1.6,3.11-2.37,5.24-1.03"/>
      <path class="cls-6" d="M10.6.55c.3,0,.55.25.55.55s-.25.55-.55.55-.55-.25-.55-.55.25-.55.55-.55"/>
      <path class="cls-6" d="M11.23.88c.3,0,.55.25.55.55s-.25.55-.55.55-.55-.25-.55-.55.25-.55.55-.55"/>
      <path class="cls-6" d="M11.78,2.16c.3,0,.55.25.55.55s-.25.55-.55.55-.55-.25-.55-.55.25-.55.55-.55"/>
      <path class="cls-6" d="M11.87,2.89c.3,0,.55.25.55.55s-.25.55-.55.55-.55-.25-.55-.55.25-.55.55-.55"/>
      <path class="cls-6" d="M11.95,3.77c.3,0,.55.25.55.55s-.25.55-.55.55-.55-.25-.55-.55.25-.55.55-.55"/>
      <path class="cls-6" d="M11.87,4.45c.3,0,.55.25.55.55s-.25.55-.55.55-.55-.25-.55-.55.25-.55.55-.55"/>
      <path class="cls-6" d="M11.78,5.3c.26,0,.47.21.47.47s-.21.47-.47.47-.47-.21-.47-.47.21-.47.47-.47"/>
      <path class="cls-6" d="M11.63,6.08c.17,0,.32.14.32.32s-.14.32-.32.32-.32-.14-.32-.32.14-.32.32-.32"/>
      <path class="cls-6" d="M11.62,1.43c.3,0,.55.25.55.55s-.25.55-.55.55-.55-.25-.55-.55.25-.55.55-.55"/>
      <path class="cls-6" d="M9.91.23c.3,0,.55.25.55.55s-.25.55-.55.55-.55-.25-.55-.55.25-.55.55-.55"/>
      <path class="cls-6" d="M9.04,0c.3,0,.55.25.55.55s-.25.55-.55.55-.55-.25-.55-.55.25-.55.55-.55"/>
      <path class="cls-6" d="M8.17,0c.3,0,.55.25.55.55s-.25.55-.55.55-.55-.25-.55-.55.25-.55.55-.55"/>
      <path class="cls-6" d="M7.27.23c.3,0,.55.25.55.55s-.25.55-.55.55-.55-.25-.55-.55.25-.55.55-.55"/>
      <path class="cls-6" d="M6.25.61c.26-.15.6-.06.75.2.15.26.06.6-.2.75s-.6.06-.75-.2c-.15-.26-.06-.6.2-.75"/>
      <path class="cls-6" d="M5.51,1.16c.26-.15.6-.06.75.2.15.26.06.6-.2.75s-.6.06-.75-.2c-.15-.26-.06-.6.2-.75"/>
      <path class="cls-6" d="M4.89,1.81c.26-.15.6-.06.75.2.15.26.06.6-.2.75s-.6.06-.75-.2c-.15-.26-.06-.6.2-.75"/>
      <path class="cls-6" d="M4.44,2.57c.26-.15.6-.06.75.2.15.26.06.6-.2.75s-.6.06-.75-.2c-.15-.26-.06-.6.2-.75"/>
      <path class="cls-6" d="M4.21,3.49c.26-.15.6-.06.75.2.15.26.06.6-.2.75-.26.15-.6.06-.75-.2-.15-.26-.06-.6.2-.75"/>
      <path class="cls-6" d="M4.34,4.34c.26-.15.6-.06.75.2.15.26.06.6-.2.75s-.6.06-.75-.2c-.15-.26-.06-.6.2-.75"/>
      <path class="cls-6" d="M4.55,5.24c.22-.13.5-.05.62.17.13.22.05.5-.17.62-.22.13-.5.05-.62-.17-.13-.22-.05-.5.17-.62"/>
      <path class="cls-6" d="M4.75,6.06c.19-.11.43-.04.54.14.11.19.04.43-.14.54-.19.11-.43.05-.54-.14-.11-.19-.04-.43.14-.54"/>
      <path class="cls-6" d="M5.19,6.59c.22-.13.5-.05.62.17.13.22.05.5-.17.62-.22.13-.5.05-.62-.17-.13-.22-.05-.5.17-.62"/>
      <path class="cls-6" d="M5.69,7.03c.22-.13.5-.05.62.17.13.22.05.5-.17.62-.22.13-.5.05-.62-.17-.13-.22-.05-.5.17-.62"/>
      <path class="cls-6" d="M6.33,7.52c.19-.11.42-.04.53.14.11.19.04.42-.14.53-.19.11-.42.04-.53-.14-.11-.19-.04-.42.14-.53"/>
      <path class="cls-1" d="M7.27,6.09l-.04,1.06c-.42.26-.96-.61-.88-1.13.16-.93.92.07.92.07"/>
      <path class="cls-6" d="M9.49,55.09c.64.94,1.63,1.3,2.67,1.64.62.21,1.27.47,1.93.55.52.15,1.05.12,1.56-.24.07-.05.12-.1.18-.16l.02.05c0,.66-.55.9-1.1.97-.55.07-1.1-.03-1.61-.24l-3.11-1.27c-.31-.13-.71-.64-.74-.97l.13-.47s.05.09.08.14"/>
      <path class="cls-1" d="M2.61,30.39s-.04,2.99-.18,3.12-.62,1.43-1.83-.49c-1.2-1.92,2.01-2.63,2.01-2.63"/>
      <path class="cls-1" d="M17.03,28.25s.43,1.47.12,2.27c-.31.8-.53,1.56-1.47,1.16-.94-.4-.62-.89-.62-1.96s1.98-1.47,1.98-1.47"/>
    </g>
  </g>
</svg>