<?xml version="1.0" encoding="UTF-8"?>
<svg id="uuid-759370f9-410b-4823-bfa0-eaa34770f3ed" data-name="Calque_2" xmlns="http://www.w3.org/2000/svg" viewBox="0 0 68.37 72.78">
  <defs>
    <style>
      .uuid-855b6ed2-3d94-478a-b45e-356900e78a51 {
        fill: #ec6788;
      }

      .uuid-363817de-5d41-4469-b5ae-61ea8390ffc9 {
        fill: #fff;
      }

      .uuid-fc5c150b-9e97-436d-a224-e071169b8267 {
        fill: #efb6d4;
      }

      .uuid-e1cb3a9b-af6b-47be-916f-67e97aae37d6 {
        fill: #ebeef8;
      }

      .uuid-0d8ab101-639c-42e4-92b1-6e9b2bc2662b {
        fill: #1f2f57;
      }

      .uuid-6af2b105-aeb8-49c3-bb71-1afbb0da3a46 {
        fill: #702470;
      }

      .uuid-8c64659a-10eb-43ca-9f9b-e7676c055d96 {
        fill: #235aa3;
      }
    </style>
  </defs>
  <g id="uuid-d1c06243-3bdd-46bf-8dfe-330a547e4788" data-name="Les_personnages">
    <g id="uuid-407f9078-124c-4238-aa07-9e26d8a2a7be" data-name="Chara_x5F_Couple_x5F_BG">
      <path class="uuid-fc5c150b-9e97-436d-a224-e071169b8267" d="M41.2,20.04l-7.79,16.14c-.18.37-.13.81.12,1.13.38.49,1.11.56,1.57.14l7.74-6.98c.98-.88,1.73-1.98,2.2-3.21l2.99-7.81-6.84.59Z"/>
      <path class="uuid-fc5c150b-9e97-436d-a224-e071169b8267" d="M24.69,26.22l-.2-.33s-.02,0-.03-.01c.03,0,.35.06,1.54.26.94.15.12.14-1.31.07"/>
      <path class="uuid-fc5c150b-9e97-436d-a224-e071169b8267" d="M32.46,67.17c-.12.19-.46.79-.73.81-.66.04-.48-1.42-.36-2.65.06-.67.11-1.26,0-1.53-.37-.86-1.43-1.67-2.03-2.42-.89-1.12-1.81-2.22-2.71-3.33-1.49-1.84-3.58-3.76-4.71-5.86-.51-.98-.92-1.97-1.17-2.98-.85-3.39-.46-7.35-.55-10.84l-.33-.8s-1.67,7.48-3.96,12.27c-.42,3.85-.71,7.99-1.48,11.97-.41,2.13-.96,4.22-1.74,6.18h0c-.16.4-.33.8-.51,1.2-.05.11-.1.22-.15.32-1.25,1-2.62,2.12-3.81,3.08-.25.21-.64-.01-.57-.34.16-.76.68-1.63,1.15-2.47h0c.42-.75.8-1.47.85-2.06.01-.16.02-.33.02-.51,0-2.03.08-4.12.13-6.2.1-4.3-.66-9.04.05-13.29.67-4.03,1.45-8.09,2.46-12.07.84-3.33,1.42-9.87,6.07-9.76,1.3.03,4.37.23,6.32.32l3.3,5.31c.32,1.03.64,3.82.55,4.89-.21,2.74-.57,5.48-.85,8.21-.15,1.44-.7,3.25-.63,4.65.08,1.76,1.56,3.42,2.37,4.9,1.18,2.17,2.27,4.34,3.21,6.63.1.24.19.5.27.75.58,1.84.6,3.94-.46,5.6"/>
      <path class="uuid-855b6ed2-3d94-478a-b45e-356900e78a51" d="M29.05,36.89c0-3.29-1.26-6.82-3.5-9.29-.83-.91-.39-.57-1.87-.58-2.56-.02-7.77-.87-9.46,1.71-1.76,2.69-3.06,7.05-3.64,10.15-.63,3.42,2.1,5.05,4.99,6.16,3.02,1.16,13.34,2.7,13.78-2.53.16-1.89-.32-3.73-.31-5.62"/>
      <path class="uuid-0d8ab101-639c-42e4-92b1-6e9b2bc2662b" d="M49.92,72.4c.3.63,1.13.35,1.65.14.93-.38,1.7-1.01,2.49-1.6.33-.09.59-.34.76-.66.12-.16.19-.33.18-.52.13-.65-.03-1.37-.56-1.68-1.76-1.05-3.1,1.37-3.92,2.45-.37.49-.93,1.2-.61,1.86"/>
      <path class="uuid-0d8ab101-639c-42e4-92b1-6e9b2bc2662b" d="M64.13,62.27c-.45-.16-1.03.03-1.64.77-.68.83-1.26,1.9-1.6,2.91-.14.41-.6,1.62-.13,1.89,1,.58,3.24-1.89,3.68-2.5.9-1.25.54-2.78-.32-3.08"/>
      <path class="uuid-8c64659a-10eb-43ca-9f9b-e7676c055d96" d="M53.27,33.12l1.4-2.13c.49-1.34,2.53-.35,4.02-.45,1.76-.13,3.32-1.09,4.25.36l-.18,16.81c-.12,2.21,1.07,8.38,1.36,10.56.06.45.23,1.28.36,2.18.21,1.45.32,3.08-.29,3.61-1.35,1.19-2.77-.42-3.21-1.36-1.87-3.95-3.91-7.77-5.07-11.96-.22-.81-.38-1.64-.5-2.47l-2.13-15.16Z"/>
      <path class="uuid-8c64659a-10eb-43ca-9f9b-e7676c055d96" d="M54.74,32.74c.17,1.33-.03,3.7.61,4.86.03.06.05.13.05.2l-.1,2.17-2,14.02,1.71,14.77c-1.43,1.06-3.18-.2-3.56-1.2-1.6-4.18-3.86-8.22-4.73-12.56-.17-.84-.27-1.69-.34-2.54-.62-4.68-1.23-12.11-1.14-16.9.13-6.56,4.04-2.05,9.51-2.82"/>
      <path class="uuid-363817de-5d41-4469-b5ae-61ea8390ffc9" d="M56.65,8.11c-1.1-.46-2.6-.39-3.61.3-.96.65-1.59,1.75-1.66,2.9,0,.16,0,.34.11.45.09.09.21.11.34.13.72.06,1.91-.88,2.41-.62.74.39.13,1.57,1.11,1.71.95.14,2.12-1.03,2.46-1.79.7-1.55-.02-2.6-1.16-3.08"/>
      <path class="uuid-fc5c150b-9e97-436d-a224-e071169b8267" d="M47.18,59.87s0,.02-.01.04c.01-.01.02-.02.03-.03h-.02Z"/>
      <path class="uuid-e1cb3a9b-af6b-47be-916f-67e97aae37d6" d="M65.13,19.23c-.33,2.03-1.3,3.74-1.18,5.79.08,1.39.07,2.8.1,4.2.01.58.19,6.17-.24,6.39-1.91.97-3.36,1.58-5.02,1.43-10.01-.92-13.68-4.81-13.79-4.92l.16-7.09c-.08.02-.15.03-.22.04-.63.11-1.19.1-1.69.01-1.76-.32-2.78-1.71-3.37-3.01.24-.23.42-.46.49-.66l.22-.64.42-1.07,3.16-8.73c.12-.31.28-.62.47-.91.3-.46.66-.89,1.07-1.26.42-.36.88-.69,1.35-.97.17-.11.35-.2.53-.3.42-.22.85-.39,1.28-.5,1.6-.41,3.37.5,4.94.85,3.4.77,9.25,1.54,10.86,5.46.75,1.84.81,3.95.5,5.89"/>
      <path class="uuid-8c64659a-10eb-43ca-9f9b-e7676c055d96" d="M22.01,8.32c-.14-.15-.33-.32-.58-.52-.87-.71-2.86-1.66-4.02-1.29-2.25.72-1.94,3.37-2.83,5-.92,1.68-2.92,2.41-3.34,4.44-.68,3.34,1.6,3.91,4.35,4,1.52.05,8.41-1.76,8.84-3.52.3-1.22-.74-1.84-1.28-2.75-.97-1.62-.71-1.8-.79-3.3-.06-1.09.39-1.3-.35-2.07"/>
      <path class="uuid-fc5c150b-9e97-436d-a224-e071169b8267" d="M2.29,18.66c.51-.42,1.28-.37,1.71.1.42.42.85.84,1.27,1.25,1.33,1.2,3.36,2.93,4.57,3.95.41-1.55,1.13-4.77,2.08-6.39,1.01-1.73,5-3.71,4.57.17-.01.1-.02.21-.04.32-.28,1.89-1.19,3.61-2.01,5.35-.85,1.81-1.08,3.68-2.64,5.12-.57.52-1.19.94-1.71.95-.83,0-1.75-.95-2.37-1.71-.05-.07-.1-.15-.15-.21-.14-.18-.28-.35-.42-.53l-.12-.23c-1.63-2.24-3.26-4.48-4.89-6.71-.34-.45-.29-1.06.14-1.43"/>
      <path class="uuid-855b6ed2-3d94-478a-b45e-356900e78a51" d="M24.6,28.28c.18-.11,2.03.7.52-.2,1.83-3.35,4.28-9.03,1.31-10.45-2.24-1.43-6.59-3.2-7.97-3.2-1.73,0-3.5.34-4.67,1.35-1.71,1.48-1.88,3.29-1.64,5.36.24,2.06,1.55,4.74,2.68,6.71.99,1.73,3.37,2.56,5.84,2.7,1.32-.74,2.65-1.47,3.94-2.27"/>
      <path class="uuid-e1cb3a9b-af6b-47be-916f-67e97aae37d6" d="M18.5,14.29c1.82-.27,3.96.75,3.42,2.87-.41,1.59-2.28,2.17-3.13.56-.31.19-.85.46-1.26.38-.76-.13-1.16-1.12-.9-2.2.24-.97,1.01-1.48,1.86-1.61"/>
      <path class="uuid-fc5c150b-9e97-436d-a224-e071169b8267" d="M22.12,10.78c-.24-.93-.48-1.88-.55-2.17l-3.27.52-.57,1.01c-.06,1.67-.21,3.35-.2,5.02,0,1.17.85,2.1,1.86,2.02.93-.06,1.65-.95,1.65-2.02v-1.39c.93-.49,1.4-1.78,1.09-2.99"/>
      <path class="uuid-fc5c150b-9e97-436d-a224-e071169b8267" d="M19.21,12.23c-.27.38-.95.36-1.51-.04-.56-.4-.8-1.03-.53-1.41.27-.38.95-.36,1.51.03.56.4.8,1.03.53,1.41"/>
      <path class="uuid-8c64659a-10eb-43ca-9f9b-e7676c055d96" d="M23.63,9.65c0,1.02-1.46,1.85-3.26,1.85s-3.25-.83-3.25-1.85,1.46-1.85,3.25-1.85,3.26.83,3.26,1.85"/>
      <path class="uuid-8c64659a-10eb-43ca-9f9b-e7676c055d96" d="M19.28,5.73c0,1.2-.97,2.17-2.17,2.17s-2.17-.97-2.17-2.17.97-2.17,2.17-2.17,2.17.97,2.17,2.17"/>
      <path class="uuid-fc5c150b-9e97-436d-a224-e071169b8267" d="M56.63,3.66c-.44.12-.95.38-1.2.47-.21.08-3.04,1.06-3.04,1,.15,1.09.3,2.19.45,3.28.21,1.52.56,2.06,2.39,1.75.82-.14,1.35-.44,1.68-.86.28-.35.38-.82.32-1.29l-.6-4.36Z"/>
      <path class="uuid-fc5c150b-9e97-436d-a224-e071169b8267" d="M50.63,5.39c.35,1.58,1.91,2.57,3.49,2.22.63-.14,1.16-.47,1.56-.92.1-.12.2-.24.28-.38.4-.62.55-1.41.38-2.19-.25-1.14-1.14-1.98-2.21-2.22-.17-.04-.35-.06-.54-.07h0c-.24,0-.48.01-.73.07-.06.01-.12.03-.18.05-.5.14-.93.41-1.27.76-.67.68-.99,1.68-.77,2.68"/>
      <path class="uuid-6af2b105-aeb8-49c3-bb71-1afbb0da3a46" d="M55.26.06c-1.18-.27-2.16.38-3.11,1.07-.75.55-2.16,1.51-2.17-.19-1.51.06-.9,1.6-.24,2.33,1.18,1.29,2.22.41,3.67.84.93.28,2.42,1.89,3.27,1.24.21-.16.34-.4.46-.64.29-.58.54-1.19.6-1.83.13-1.48-1.17-2.52-2.49-2.82"/>
      <path class="uuid-fc5c150b-9e97-436d-a224-e071169b8267" d="M55.22,5.28c.09.4.49.66.89.57.4-.09.66-.49.57-.89-.09-.4-.49-.66-.89-.57-.4.09-.66.49-.57.89"/>
      <path class="uuid-6af2b105-aeb8-49c3-bb71-1afbb0da3a46" d="M54.38,3.32c-.28.2-.33.58-.12.85l1.24,1.54-.19-1.96c-.04-.45-.56-.68-.93-.42"/>
      <path class="uuid-6af2b105-aeb8-49c3-bb71-1afbb0da3a46" d="M55.61,5.08c-.16-.16-.16-.39-.25-.6-.09-.22-.21-.42-.32-.63-.2-.39-.86-.37-.9.12-.03.36.09.61.2.94.11.32.12.61.36.87.5.56,1.42-.2.9-.71"/>
      <path class="uuid-fc5c150b-9e97-436d-a224-e071169b8267" d="M62.73,28.16c-.03.23-.07.46-.12.69-.56,2.6-1.68,5.04-2.49,7.57-.29.9-1.61,3.76-.86,4.62,1.56,1.82,5.66-6.42,6.61-8.2.04-.08.08-.15.11-.2.91-1.61,1.56-3.35,1.95-5.14-1.62.53-3.49.68-5.2.66"/>
      <path class="uuid-fc5c150b-9e97-436d-a224-e071169b8267" d="M27.25,24.06c-1.36-1.61-3.3-3.98-2.89-6.13.29-1.5,1.65-.57,2.58.14,2.49,1.9,4.45,4.43,5.74,7.21,1.67,3.58,1.92,6.59,2.6,10.18l.41,2.2c.11.6-.16,1.14-.69,1.38h-.02c-.24.12-.54.05-.76-.12l-.24-.04c-.3-.05-.57-.21-.76-.42-.38-.22-.71-.64-.81-1.12-.1-.45.01-.84.26-1.07l-2.95-9.3s-2.45-2.9-2.46-2.9"/>
      <path class="uuid-855b6ed2-3d94-478a-b45e-356900e78a51" d="M32.46,67.17c-.12.19-.46.79-.73.81-.66.04-.48-1.42-.36-2.65.11.13.26.23.47.3,1.06-.69.72-2.86,1.08-4.06.58,1.84.6,3.94-.46,5.6"/>
      <path class="uuid-855b6ed2-3d94-478a-b45e-356900e78a51" d="M12.69,67.99c-.16.4-.33.8-.51,1.19-.05.11-.1.22-.16.32-1.25,1-2.62,2.12-3.8,3.08-.25.21-.64-.01-.57-.34.16-.76.68-1.63,1.15-2.47-.05.18-.1.36-.14.53,1.08.45,2.83-1.98,4.03-2.33"/>
      <path class="uuid-fc5c150b-9e97-436d-a224-e071169b8267" d="M2.3,20.42c-.51-.37-1.83-.68-2.15-1.26-.68-1.24,1.2-.95,2.02-.99-.03-.46-.01-.96.16-1.37,1.98-.37,2.71,5.97-.26,3.27l.24.35Z"/>
      <path class="uuid-e1cb3a9b-af6b-47be-916f-67e97aae37d6" d="M67.99,27.23c-1.37,1.12-3.62,1.15-5.2.29.07-1.23-.12-2.42-.27-3.71-.31-2.58-.61-5.16-.92-7.73.24-1.1,1.26-1.95,2.38-2.16.26-.05-.75-2.34-.49-2.31,1.42.15,3.25,3.84,3.7,5.03,1.25,3.38,1.53,7.08.81,10.6"/>
    </g>
  </g>
</svg>