<?xml version="1.0" encoding="UTF-8"?>
<svg id="uuid-ef726d5a-6664-46b9-b8bc-c047a2fdbc0a" data-name="Calque_2" xmlns="http://www.w3.org/2000/svg" viewBox="0 0 25.91 43.93">
  <defs>
    <style>
      .uuid-532d4d17-bfea-4518-b272-e6d71f57a6dd {
        fill: #ec6788;
      }

      .uuid-a1692427-8714-4029-9226-978c4067b48f {
        fill: #efb6d4;
      }

      .uuid-4435601b-ea24-49f1-a4f1-138b34fb1d0d {
        fill: #ebeef8;
      }

      .uuid-7fe295db-3886-49f6-b1b1-4ca3d1837f1c {
        fill: #88cef2;
      }

      .uuid-59efd3f7-8aa2-4aff-9687-8224b1079953 {
        fill: #6277b8;
      }

      .uuid-4ee76d3a-488c-4262-99b8-f4fbd113d546 {
        fill: #702470;
      }
    </style>
  </defs>
  <g id="uuid-522fbda5-7e29-4648-b7e7-ecfb62d58f4c" data-name="Les_personnages">
    <g id="uuid-f1ccc8bc-e6f6-4876-bd98-fb9f0dc7a651" data-name="Chara_x5F_CoupleSelfie_x5F_HG">
      <line class="uuid-4435601b-ea24-49f1-a4f1-138b34fb1d0d" x1="20.18" y1="11.03" x2="25.17" y2="8.14"/>
      <path class="uuid-532d4d17-bfea-4518-b272-e6d71f57a6dd" d="M9.35,8.25c.09-.45.27-.98.54-1.35.11-.15.24-.21.39-.24.14-.02.3,0,.46.03.29.06.55.25.83.39.32.16.59.26.79.54l.55,4.03c-.26.78-.97,1.9-1.37,1.93-.21.01-.37-.16-.49-.43l-.58-.52-.2-2.84s-.06-.01-.09-.02c-.69-.17-.97-.84-.84-1.51"/>
      <path class="uuid-4ee76d3a-488c-4262-99b8-f4fbd113d546" d="M9.33,6.34c.05-.34.22-.64.52-.76.07-.03.16-.05.25-.06.55-.04.52.36.8.67.39.44,1.08.31,1.54.62.48.32.6.91.59,1.46-.01.32-.08,1.4-.35,1.6-.14.1-.68,0-.85,0-.44,0-1.28-.66-.63-.98.12-.12.14-.29.05-.43-.26-.4-.66,0-.93-.1-.3-.11-.56-.64-.7-.91-.17-.34-.35-.71-.29-1.11"/>
      <path class="uuid-4435601b-ea24-49f1-a4f1-138b34fb1d0d" d="M13.21,11.09l-.12-.62c-.04-.23-.48-.37-.68-.31l-1.97.58c-.17.05-.29.24-.27.44l.12,1.15,2.91-1.24Z"/>
      <path class="uuid-4ee76d3a-488c-4262-99b8-f4fbd113d546" d="M16.8,38.57s.01.05.02.08c.07.22.53.47.71.6.44.32,1.25.88,1.8.45.22-.17.32-.78.17-1.01-.16-.24-1.1-.26-1.41-.32-.29-.05-1.4-.4-1.29.2"/>
      <path class="uuid-532d4d17-bfea-4518-b272-e6d71f57a6dd" d="M15.91,25.29l2.08,13.34c.17.11.36.21.55.29.35.15.77.08,1.03-.19,0,0,0,0,0,0v-13.25l.49-.2c.05-.12.1-.24.15-.37-1.43.15-2.87.28-4.31.38"/>
      <path class="uuid-4ee76d3a-488c-4262-99b8-f4fbd113d546" d="M20.96,36.79s.01.05.02.08c.07.22.53.47.71.6.44.32,1.25.88,1.8.45.22-.17.32-.78.17-1.01-.16-.24-1.1-.26-1.41-.32-.29-.05-1.4-.4-1.29.2"/>
      <path class="uuid-532d4d17-bfea-4518-b272-e6d71f57a6dd" d="M20.28,24.91l1.86,11.94c.17.11.36.21.55.29.35.15.77.08,1.03-.19,0,0,0,0,0,0v-12.44c-1.15.14-2.3.28-3.45.4"/>
      <path class="uuid-a1692427-8714-4029-9226-978c4067b48f" d="M15.99,28.71c.64.18,1.34.28,2.03.32l.35.06c1.44.23,2.87.04,4.14-.55l1.18-.55c.23-.11.38-.34.38-.61v-1.51c.03-.15.04-.31.05-.47.06-1.2.04-2.3-.04-3.3-.18-2.35-.68-4.12-1.14-5.19.05.17.09.27.1.33-.83.4-1.93.58-2.85.76-1.11.23-2.2.23-3.34.2-.78,1.96-1.32,7-.87,10.5M23.06,17.3s0,.02,0,0"/>
      <path class="uuid-4435601b-ea24-49f1-a4f1-138b34fb1d0d" d="M24.26,10.53c.35-1.05-.16-1.73-1.03-1.39"/>
      <path class="uuid-4435601b-ea24-49f1-a4f1-138b34fb1d0d" d="M23.23,9.14l-2.55.96c-1.55.61-3.75,1.8-3.77,3.46l-.02,4.8.77.41c1.14.52,2.46.47,3.55-.13l1.84-1.02,1.21-7.1"/>
      <path class="uuid-532d4d17-bfea-4518-b272-e6d71f57a6dd" d="M17.81,7.94c-.17.91.33,1.76,1.12,1.91.79.15,1.57-.46,1.74-1.37.17-.91-.33-1.76-1.12-1.91-.79-.15-1.57.46-1.74,1.37"/>
      <path class="uuid-4ee76d3a-488c-4262-99b8-f4fbd113d546" d="M19.56,6.57c.82-.23,1.68.4,1.9,1.4.08.35.07.71-.01,1.03h0c-.16.65.05,1.36.52,1.77h0c.37.31.65.77.78,1.33.13.57.07,1.14-.13,1.61h0c-.25.6-.14,1.36.28,1.85h0c.2.23.35.52.42.86.22.97-.25,1.94-1.05,2.17-.8.23-1.62-.38-1.84-1.35-.08-.34-.07-.68,0-.98h0c.16-.65-.06-1.38-.54-1.77h0c-.38-.31-.67-.78-.8-1.35-.13-.56-.07-1.11.12-1.58h0c.24-.6.13-1.35-.29-1.83h0c-.21-.24-.37-.54-.45-.9-.23-1.01.26-2.01,1.08-2.24"/>
      <path class="uuid-532d4d17-bfea-4518-b272-e6d71f57a6dd" d="M18.3,8.37c.04-.24.24-.4.43-.36.2.04.32.26.27.49-.04.24-.24.4-.43.36-.19-.04-.32-.26-.27-.49"/>
      <path class="uuid-4ee76d3a-488c-4262-99b8-f4fbd113d546" d="M18.39,8.5c-.25.14-.17-.54-.22-.72-.07-.26-.21-.44-.25-.71-.07-.56.27-1.2.9-1.19.4,0,.85.45,1.25.57.41.12.88.23.74.78-.16.67-.74.68-1.31.59-.21-.03-.58-.19-.77-.06-.23.16-.08.6-.35.74"/>
      <path class="uuid-4ee76d3a-488c-4262-99b8-f4fbd113d546" d="M.48.65L1.38.04c.07-.05.17-.05.24,0l.06.03c.1.06.16.15.17.26l.29,2.81c.02.2-.08.44-.22.54l-1.06.72c-.14.1-.27.01-.29-.18L.26,1.19c-.02-.2.08-.44.22-.54"/>
      <path class="uuid-7fe295db-3886-49f6-b1b1-4ca3d1837f1c" d="M6.78,42.91c.03-.12.12-.19.25-.24l1.57-.27-.7-4.07c-.06-.73-.14-1.46-.26-2.17-.32-1.92-.13-3.93-.06-5.89,0-.04,0-.07,0-.11l.1-5.5.21-1.56,8.34-1.6c.08.31.13.58.16.76.15.95.02,1.8.04,2.61l-.82,6.21c-.04,1.91,0,3.97-.22,5.96-.11,1.07-.12,2.02-.34,3.02-.03.12-.06.25-.09.37l-.08.25c-.13.42-.63.61-1.02.38l-1.59-.99c-.17-.11-.23-.31-.15-.49.07-.16.24-.26.42-.23l1.06.12-.98-7.57.03-4.14v-.02c-.15.05-.29.1-.43.15l-1.67,5.32-.25,6.98-.04,1.22v.03c-.01.38-.03.76-.08,1.12-.04.32-.1.62-.2.89-.32.91-1.68.02-2.52.09-.31.03-.6-.13-.67-.45-.01-.05,0-.1,0-.17"/>
      <path class="uuid-4ee76d3a-488c-4262-99b8-f4fbd113d546" d="M10.17,42.54c-.04.32-.1.62-.2.89-.32.91-1.16.34-2.52.09-.3-.05-.6-.13-.67-.45-.01-.05,0-.11,0-.17.03-.12.12-.19.25-.24l1.57-.28s.59.7,1.56.16"/>
      <path class="uuid-4ee76d3a-488c-4262-99b8-f4fbd113d546" d="M15.05,40.05c-.03.12-.06.25-.09.37l-.08.25c-.13.42-.64.61-1.02.38l-1.59-.99c-.17-.11-.23-.31-.15-.49.07-.16.24-.25.42-.23l1.06.12s.05.52,1.46.59"/>
      <path class="uuid-59efd3f7-8aa2-4aff-9687-8224b1079953" d="M17.77,12.12c.22.45.39.93.54,1.41,0,.07.02.13.02.2-.3.54-.91,1.2-2.18,1.52l-1.64-4.92c1.44.03,2.61.48,3.25,1.78"/>
      <path class="uuid-7fe295db-3886-49f6-b1b1-4ca3d1837f1c" d="M1.11,3.32l.67-.46c.09-.06.15-.22.14-.34l-.2-1.92c-.01-.13-.1-.18-.19-.12l-.67.46c-.09.06-.15.22-.14.34l.2,1.92c.01.13.1.18.19.12"/>
      <path class="uuid-532d4d17-bfea-4518-b272-e6d71f57a6dd" d="M.88,5.16c.1-.69-.24-1.37-.4-2.04-.06-.25-.08-.35-.3-.25-.26.12-.18.43-.15.66.08.59.24,1.26.77,1.61.15-.17-.03-.12-.02-.2l.1.22Z"/>
      <path class="uuid-59efd3f7-8aa2-4aff-9687-8224b1079953" d="M2.68,6.91s.06-.01.08-.02l.09.18,1.06,2.19,4.55,2.94-1.28,4.2-4.47-5c-.28-.33-.48-.72-.58-1.14l-.72-2.35-.08-.25c.43-.29.87-.55,1.34-.76"/>
      <path class="uuid-532d4d17-bfea-4518-b272-e6d71f57a6dd" d="M1.3,4.37h0c.11-.04.16-.15.13-.26l-.23-.67c-.04-.11-.15-.16-.26-.13-.11.04-.16.15-.12.26l.23.67c.04.11.15.16.26.13"/>
      <polygon class="uuid-532d4d17-bfea-4518-b272-e6d71f57a6dd" points="1.19 3.86 .25 3.33 .95 4.86 1.19 3.86"/>
      <path class="uuid-59efd3f7-8aa2-4aff-9687-8224b1079953" d="M6.82,14.33c0-.1.01-.19.02-.29.11-.94.85-1.65,1.69-2.01,1.47-.63,3.14-.75,4.64-1.37,1.02-.42,2.01-.63,2.99.01.39.25.73.6,1.01,1.03.08.12.15.25.22.38.1.47.12.95.07,1.43-.21,1.99-.68,4.34-.78,6.79-.02.58-.03,1.55-.19,1.95,0,1.14.03,1.34-1.23,2.03-.63.34-2.25.96-3.74,1.36-1.05.28-2.17.2-3.16-.25-.2-.09-.41-.18-.65-.29-.33-1.18-.27-2.56-.36-3.77-.09-1.19-.15-2.38-.29-3.57-.07-.59-.15-1.18-.26-1.77-.11-.6.04-1.06,0-1.65"/>
      <path class="uuid-59efd3f7-8aa2-4aff-9687-8224b1079953" d="M17.01,11.13l2.79,3.4,2.96,1.28s0,.01,0,.02c.25.64.15,1.28-.14,1.86h-.02c-.08-.02-.16-.03-.24-.04-2.09-.35-4.44-1.23-6.16-2.72l-.35-.91c-.41-1.04,0-2.23.97-2.79l.19-.11Z"/>
      <path class="uuid-532d4d17-bfea-4518-b272-e6d71f57a6dd" d="M22.37,17.65c.7-.83.42-1.55.14-1.94.79.33,1.57.67,2.08.9.12,0,.23.01.35.02.03,0,.06,0,.09,0,.12.01.23.03.34.06.01,0,.03,0,.04.01.15.04.27.11.34.21.04.05.07.1.09.15.01.02.02.05.03.07.03.1.04.2.03.29,0,.04-.02.09-.03.13-.01.03-.02.06-.04.09-.02.03-.04.06-.06.09-.04.04-.08.09-.13.13-.02.02-.04.03-.07.05-.04.02-.07.05-.12.06-.04.02-.08.04-.12.05-.59.2-1.08-.17-1.69-.21-.23-.02-.48-.04-.72-.07-.02,0-.05,0-.07,0l-.26-.04c-.08-.01-.16-.02-.24-.04"/>
      <path class="uuid-532d4d17-bfea-4518-b272-e6d71f57a6dd" d="M.45,4.79l.97,3.14c.17-.14.34-.32.55-.46.29-.2.58-.36.89-.38l-1.66-3.42s-.04-.06-.06-.08c-.02.3-.19.57-.43.76l-.26.44Z"/>
    </g>
  </g>
</svg>