<?xml version="1.0" encoding="UTF-8"?>
<svg xmlns="http://www.w3.org/2000/svg" xmlns:xlink="http://www.w3.org/1999/xlink" viewBox="0 0 67.99 89.76">
  <defs>
    <style>
      .uuid-8ee086b8-930c-43fb-9a88-e6efadf0d1b2 {
        fill: #d8ddee;
      }

      .uuid-64949836-5c4b-4cba-bf8e-8be24ab41177 {
        fill: #b4d5f1;
      }

      .uuid-8f8ef441-4763-47d3-9fc4-e9ffe54fe70b {
        fill: #fdf9ed;
      }

      .uuid-b106dcf5-c7f2-4494-9eae-28b821c56844 {
        fill: #2b3086;
      }

      .uuid-4d66ffe1-0ad1-45ab-905c-5d3b63c2dc64 {
        fill: none;
      }

      .uuid-c0a52219-1c05-4d0b-aa1e-bb1e321f556e {
        mix-blend-mode: multiply;
        opacity: .2;
      }

      .uuid-5529e138-a6a1-47af-890c-ee5fb3796242 {
        clip-path: url(#uuid-ffbcd90f-8e3e-41e8-b767-01b2fd724bca);
      }

      .uuid-827692c2-2697-40a6-a36a-916fa143e2c0 {
        isolation: isolate;
      }

      .uuid-909188a2-a238-4856-9f9d-f5eb57dfd4dc {
        fill: url(#uuid-a476f9a3-9994-4da5-ba36-fd603c8bff2b);
      }

      .uuid-acae9207-a1a4-412f-979b-40a1dd3b95cd {
        clip-path: url(#uuid-6d14fc80-3ff4-42ef-b398-d90b17177b87);
      }

      .uuid-4cd802aa-1bdb-4d21-9a57-073f8f415232 {
        fill: #466cb2;
      }

      .uuid-9ba83b89-f5d6-460c-a6b4-300f4d7d51ed {
        fill: #ef7f55;
      }

      .uuid-2ede23cf-2ac6-460c-a183-e73847d32c13 {
        fill: #e9edf6;
      }
    </style>
    <clipPath id="uuid-ffbcd90f-8e3e-41e8-b767-01b2fd724bca">
      <rect class="uuid-4d66ffe1-0ad1-45ab-905c-5d3b63c2dc64" x="40.56" y="29.62" width="27.42" height="7.63"/>
    </clipPath>
    <clipPath id="uuid-6d14fc80-3ff4-42ef-b398-d90b17177b87">
      <polygon class="uuid-4d66ffe1-0ad1-45ab-905c-5d3b63c2dc64" points="40.56 29.62 40.56 29.62 40.56 37.25 40.57 37.25 67.98 37.25 67.98 29.62 40.56 29.62"/>
    </clipPath>
    <linearGradient id="uuid-a476f9a3-9994-4da5-ba36-fd603c8bff2b" data-name="Dégradé sans nom 362" x1="-232.26" y1="614.11" x2="-231.26" y2="614.11" gradientTransform="translate(16356.7 -6122.55) rotate(-90) scale(26.55 -26.55)" gradientUnits="userSpaceOnUse">
      <stop offset="0" stop-color="#fff"/>
      <stop offset=".1" stop-color="#efefef"/>
      <stop offset=".29" stop-color="#c8c7c6"/>
      <stop offset=".56" stop-color="#888784"/>
      <stop offset=".89" stop-color="#312f2b"/>
      <stop offset="1" stop-color="#12100b"/>
    </linearGradient>
  </defs>
  <g class="uuid-827692c2-2697-40a6-a36a-916fa143e2c0">
    <g id="uuid-120ba6a2-6bcb-46b9-bc85-b2346684283c" data-name="Calque_2">
      <g id="uuid-64870908-7c0b-4082-9b2a-f5df7721fb63" data-name="Les_personnages">
        <g id="uuid-ed61327c-494c-432e-a768-e9af8a82bc20" data-name="Chara_x5F_VeloSignelementDroite_x5F_BG">
          <g class="uuid-c0a52219-1c05-4d0b-aa1e-bb1e321f556e">
            <g class="uuid-5529e138-a6a1-47af-890c-ee5fb3796242">
              <g class="uuid-acae9207-a1a4-412f-979b-40a1dd3b95cd">
                <rect class="uuid-909188a2-a238-4856-9f9d-f5eb57dfd4dc" x="49.26" y="19.44" width="10.03" height="27.99" transform="translate(16.16 84.53) rotate(-84.92)"/>
              </g>
            </g>
          </g>
          <path class="uuid-8ee086b8-930c-43fb-9a88-e6efadf0d1b2" d="M31.13,12.47L15.72,2.54s-2.63.74-2.15,2.7l17.2,11.14.36-3.91Z"/>
          <path class="uuid-9ba83b89-f5d6-460c-a6b4-300f4d7d51ed" d="M15.77,2.54l-2.62-1.57s-2.59-1.32-2.39.16c.19,1.38,1.38,1.61,1.11,2.61-.13.48,1.95,1.68,1.95,1.68,0,0,0-2.16,1.95-2.89"/>
          <path class="uuid-2ede23cf-2ac6-460c-a183-e73847d32c13" d="M51.83,63.44c-.71,0-1.4-.11-2.07-.32-2.84-.91-4.9-3.64-5.78-7.7-1.79-8.19,1.8-19.43,8-25.08,3.07-2.8,6.33-3.84,9.18-2.93,2.84.91,4.9,3.64,5.78,7.7,1.79,8.19-1.8,19.43-8,25.08-2.35,2.14-4.81,3.25-7.11,3.25M59.09,27.96c-2.08,0-4.34,1.04-6.52,3.02-5.99,5.45-9.46,16.33-7.74,24.24.82,3.74,2.66,6.25,5.2,7.06,2.53.81,5.49-.17,8.32-2.75,5.99-5.45,9.46-16.33,7.74-24.25-.82-3.74-2.66-6.25-5.2-7.06-.58-.19-1.18-.28-1.8-.28"/>
          <path class="uuid-8f8ef441-4763-47d3-9fc4-e9ffe54fe70b" d="M51.83,63.45c-.71,0-1.4-.11-2.07-.32-2.85-.91-4.9-3.64-5.79-7.7-1.79-8.19,1.81-19.44,8-25.08,3.07-2.8,6.33-3.84,9.18-2.93,2.85.91,4.9,3.64,5.79,7.7,1.79,8.19-1.8,19.44-8,25.09-2.35,2.14-4.81,3.25-7.1,3.25M59.09,27.96c-2.08,0-4.34,1.03-6.52,3.02-5.99,5.46-9.47,16.34-7.74,24.26.82,3.74,2.66,6.25,5.2,7.06,2.54.81,5.49-.17,8.33-2.74,5.99-5.46,9.47-16.34,7.74-24.26-.82-3.74-2.66-6.25-5.2-7.06-.58-.18-1.19-.28-1.81-.28"/>
          <path class="uuid-b106dcf5-c7f2-4494-9eae-28b821c56844" d="M51.66,64.34c-.74,0-1.47-.11-2.18-.33-2.98-.95-5.14-3.82-6.07-8.07-1.88-8.6,1.89-20.41,8.4-26.33,3.22-2.93,6.63-4.02,9.62-3.07s5.14,3.82,6.07,8.07c1.88,8.6-1.89,20.41-8.4,26.33-2.46,2.24-5.03,3.4-7.44,3.4M52.41,30.24c-6.3,5.74-9.95,17.18-8.14,25.51.86,3.93,2.8,6.57,5.48,7.43,2.67.85,5.79-.17,8.77-2.88,6.01-5.47,9.87-17.57,8.14-25.51-.86-3.93-2.8-6.57-5.48-7.43-2.68-.85-5.79.17-8.77,2.88"/>
          <path class="uuid-2ede23cf-2ac6-460c-a183-e73847d32c13" d="M8.9,88.87c-.71,0-1.4-.11-2.07-.32-2.84-.91-4.9-3.64-5.78-7.7-1.79-8.19,1.8-19.43,8-25.08,3.07-2.8,6.33-3.84,9.18-2.93,2.84.91,4.9,3.64,5.78,7.7,1.79,8.19-1.8,19.44-8,25.08-2.35,2.14-4.81,3.25-7.11,3.25M16.16,53.39c-2.08,0-4.34,1.04-6.52,3.02C3.64,61.87.17,72.74,1.9,80.66c.82,3.75,2.66,6.25,5.2,7.06,2.53.81,5.49-.17,8.32-2.75,5.99-5.45,9.46-16.33,7.74-24.25-.82-3.74-2.66-6.25-5.2-7.06-.58-.18-1.18-.28-1.8-.28"/>
          <path class="uuid-8f8ef441-4763-47d3-9fc4-e9ffe54fe70b" d="M8.9,88.87c-.71,0-1.4-.1-2.07-.32-2.85-.91-4.9-3.64-5.79-7.7-1.79-8.19,1.81-19.44,8-25.09,3.07-2.8,6.33-3.84,9.18-2.93,2.85.91,4.9,3.64,5.79,7.7,1.79,8.19-1.8,19.44-8,25.09-2.35,2.14-4.81,3.25-7.1,3.25M16.15,53.39c-2.08,0-4.34,1.03-6.52,3.02C3.64,61.86.16,72.75,1.89,80.66c.82,3.74,2.66,6.25,5.2,7.06,2.54.81,5.49-.17,8.33-2.74,5.99-5.46,9.47-16.34,7.74-24.26-.82-3.74-2.66-6.25-5.2-7.06-.58-.19-1.19-.28-1.81-.28"/>
          <path class="uuid-b106dcf5-c7f2-4494-9eae-28b821c56844" d="M8.72,89.76c-.74,0-1.47-.11-2.18-.34-2.98-.95-5.14-3.82-6.07-8.07-1.88-8.6,1.89-20.41,8.4-26.33,3.22-2.93,6.63-4.02,9.62-3.07,2.98.95,5.14,3.82,6.07,8.07,1.88,8.6-1.89,20.41-8.4,26.33-2.46,2.24-5.03,3.4-7.44,3.4M9.47,55.67C3.17,61.4-.48,72.85,1.33,81.17c.86,3.93,2.8,6.57,5.48,7.43,2.67.85,5.79-.17,8.77-2.88,6.3-5.74,9.95-17.18,8.14-25.51-.86-3.93-2.8-6.57-5.48-7.43-2.67-.85-5.79.17-8.77,2.88"/>
          <path class="uuid-9ba83b89-f5d6-460c-a6b4-300f4d7d51ed" d="M49.63,27.94c-.95-1.39-3.95-2.68-4.83-3.25-.47-.24-1.04-.21-1.48.09l-6.5,4.43.56.32-.66.46,5.11,2.95c2.02-.86,6.47-1.8,7.83-3.47.4-.5.33-1.02-.02-1.53"/>
          <path class="uuid-8ee086b8-930c-43fb-9a88-e6efadf0d1b2" d="M33.43,64.79c-.18,0-.36-.07-.5-.2-.29-.28-.3-.74-.02-1.03l4.05-4.22c.28-.29.74-.3,1.03-.02.29.28.3.74.02,1.03l-4.05,4.22c-.14.15-.33.22-.52.22"/>
          <path class="uuid-4cd802aa-1bdb-4d21-9a57-073f8f415232" d="M28.04,68.17c-.23,0-.46-.11-.6-.32-.23-.33-.14-.78.19-1.01l4.44-3.02c.33-.23.78-.14,1.01.19.22.33.14.78-.19,1.01l-4.44,3.02c-.12.08-.27.12-.41.12"/>
          <path class="uuid-4cd802aa-1bdb-4d21-9a57-073f8f415232" d="M42.85,61.66c-.23,0-.46-.11-.6-.32-.23-.33-.14-.78.19-1.01l4.44-3.02c.33-.22.78-.14,1.01.19.22.33.14.78-.19,1.01l-4.44,3.02c-.12.08-.27.12-.41.12"/>
          <path class="uuid-64949836-5c4b-4cba-bf8e-8be24ab41177" d="M36.97,58.16s-.09,0-.14-.02c-.31-.07-.5-.39-.43-.7l6.34-26.37c.08-.31.39-.5.7-.43.31.08.5.39.43.7l-6.34,26.37c-.06.27-.3.44-.56.44"/>
          <path class="uuid-64949836-5c4b-4cba-bf8e-8be24ab41177" d="M10.02,71.24c-.24,0-.47-.15-.55-.39-.11-.3.06-.63.36-.74.29-.1.49-.16.64-.2.31-.09.39-.11.99-.55.74-3.94,1.98-8.51,3.18-12.93,1.17-4.3,2.37-8.74,3.1-12.53,0-.05.02-.09.03-.14.04-.2.17-.36.36-.43.18-.07.39-.05.55.07,0,0,0,0,0,0,.26.19,18.37,13.52,18.63,13.71.26.19.31.55.12.81-.19.26-.55.31-.81.12-.23-.17-14.46-10.64-17.89-13.17-.74,3.65-1.87,7.82-2.97,11.85-1.22,4.48-2.47,9.12-3.21,13.06-.03.14-.11.27-.22.36-.87.65-1.04.74-1.56.88-.14.04-.32.09-.57.18-.06.02-.13.03-.19.03"/>
          <path class="uuid-b106dcf5-c7f2-4494-9eae-28b821c56844" d="M28.7,62.8c-.19.26-.39.52-.58.79-.19.27-.38.54-.53.83-.22.43-.96,1.24-.62,1.69.51.69,1.84.32,2.37-.06.79-.56,1.53-1.17,2.23-1.84.3-.29.6-.6.73-.99.41-1.21-.06-3.08-1.63-2.88-.58.08-.87.44-1.07.93-.22.55-.55,1.04-.9,1.52"/>
          <path class="uuid-9ba83b89-f5d6-460c-a6b4-300f4d7d51ed" d="M29.36,54.85l-.06-2.5c1.23.35,2.45.67,3.68.93l-.05.72s-.52,7.17-.53,7.19c-.08,1.01-1.02,2.21-1.74,2.86-.54.49-1.24.83-1.97.8-.15,0-.33-.05-.4-.18-.05-.08-.04-.18-.04-.28.09-1.27,1.29-2.24,1.23-3.48l-.13-6.05Z"/>
          <path class="uuid-9ba83b89-f5d6-460c-a6b4-300f4d7d51ed" d="M33.12,58.61v-.02s0,0,0,0c0,0,0,.01,0,.01"/>
          <path class="uuid-b106dcf5-c7f2-4494-9eae-28b821c56844" d="M37.63,32.6c.65-2.3,1.65-4.54,2.48-6.78-3.63-1-5.19-1.89-7.21,1.88-1.82,3.41-2.78,7.27-3.13,11.11-.66,7.26-.48,10.71-.4,17.69,0,.21.02.44.16.59.11.11.27.14.43.16.94.12,2.34.23,3-.52.34-.38.49-.91.63-1.42,1.13-4.24.98-7.17,1.48-11.66.26-2.35,1.54-7.38,2.58-11.05"/>
          <path class="uuid-8ee086b8-930c-43fb-9a88-e6efadf0d1b2" d="M28.42,19.88l.04.08s-.02,0-.03,0c0-.03,0-.06,0-.09"/>
          <path class="uuid-4cd802aa-1bdb-4d21-9a57-073f8f415232" d="M37.43,6.88s5.23-.34,6.37,3.87c.81,3.01,2.67,4.62,3.67,5.3.24.16.16.53-.12.58-1.22.21-3.72.31-6.39-1.55-3.75-2.61-3.52-8.19-3.52-8.19"/>
          <path class="uuid-64949836-5c4b-4cba-bf8e-8be24ab41177" d="M37.15,58.12c-.49,0-.94-.28-1.29-.49-.14-.09-.27-.17-.39-.23-.04-.02-.08-.04-.11-.07-2.22-1.83-4.55-3.45-6.79-5.02-2.72-1.9-5.53-3.86-8.16-6.19-.24-.21-.26-.58-.05-.82.21-.24.58-.26.82-.05,2.58,2.29,5.36,4.23,8.05,6.1,2.25,1.57,4.58,3.19,6.82,5.04.15.08.29.17.42.25.32.2.57.35.71.31,4.34-3.31,14.83-10.13,17.4-11.8l-10.89-11.93c-3.11,1.65-7.63,3.5-12.01,5.29-4.88,2-9.93,4.07-13.07,5.86-.28.16-.63.06-.79-.22-.16-.28-.06-.63.22-.79,3.2-1.83,8.29-3.91,13.2-5.93,4.54-1.86,9.24-3.78,12.29-5.45.23-.13.53-.08.71.12l11.66,12.77c.11.13.17.3.15.47-.02.17-.12.32-.26.41-.13.08-13.1,8.45-17.96,12.17-.03.02-.06.04-.09.06-.2.1-.4.14-.59.14"/>
          <path class="uuid-4cd802aa-1bdb-4d21-9a57-073f8f415232" d="M44.5,53.23c.06.03.12.07.17.12l-.31-.41c.01.08.04.15.07.22,0,.02.02.04.03.05.01,0,.02.01.04.02,0,0,0,0,0,0"/>
          <path class="uuid-b106dcf5-c7f2-4494-9eae-28b821c56844" d="M43.8,53.87c.24,1.24.38,2.84-.35,3.91-.27.4-.56.82-.6,1.3-.04.48.29,1.03.78,1.03.25,0,.48-.14.69-.29,1.27-.92,2.17-2.32,2.53-3.83.39-1.65.37-2.5-1.07-3.31-.08-.1-.16-.2-.27-.28l.16.21c-.06-.04-.12-.08-.17-.13-.07-.06-.13-.13-.17-.21-.25-.14-.54-.21-.82-.17-.21.02-.41.1-.56.24-.38.37-.24.99-.14,1.51"/>
          <path class="uuid-9ba83b89-f5d6-460c-a6b4-300f4d7d51ed" d="M43.71,52.57l.98.31c-.27-.24-.62-.33-.98-.31"/>
          <path class="uuid-9ba83b89-f5d6-460c-a6b4-300f4d7d51ed" d="M43.69,52.58s.01,0,.02,0h-.05s.02,0,.03,0"/>
          <path class="uuid-9ba83b89-f5d6-460c-a6b4-300f4d7d51ed" d="M44.37,50.22c-.93.64-1.88,1.25-2.84,1.86l1.43,2.06c.61.84.42,1.99.64,3.02-.02.07-.04.13-.06.19-.12.33-.27.67-.4,1,.06.05.13.1.21.13.37.16.82.02,1.12-.24.09-.08.16-.16.24-.25.59-.41.97-1.07,1.16-1.77.27-1.01.41-2.63-.11-3.57,0,0-.64-1.13-1.39-2.45"/>
          <path class="uuid-b106dcf5-c7f2-4494-9eae-28b821c56844" d="M40.91,38c.21-.97.78-1.8,1.69-2.72,2.6-2.63,4.75-5.13,3.76-9.06-.24-.97-.61-2.13-1.27-2.9,0,.07,0,.17-.02.26-1.39-.92-2.83-1.57-4.54-1.35,0,0,0,0-.01,0-1.25.16-2.63.56-3.92,1.17,0,.02,0,.03-.01.05-1.77.79-2.93,2.07-2.93,3.52,0,.98.52,1.88,1.4,2.6.09.35.21.69.34,1.02.2.5.13,1.05,0,1.56,1.2.18,1.43.29,1.13,1.53-.31,1.28-.66,2.55-.94,3.83-.26,1.15-.49,2.34-.29,3.5.16.95.6,1.82,1.05,2.67.95,1.77,1.99,3.48,3.11,5.15.93,1.38,1.39,2.78,2.62,3.98.16.15.34.31.56.35.19.03.38-.02.56-.1,2.89-1.16,1.63-4.51.69-6.59-.92-2.03-2.34-3.89-2.88-6.07-.23-.94-.27-1.71-.13-2.4"/>
          <path class="uuid-8ee086b8-930c-43fb-9a88-e6efadf0d1b2" d="M42.29,14.45l.57,2.21,2.16,6.64c.12.45,0,.86-.34,1.11-.91.67-3.66,1.32-7.84.55-.65-.12-1.29-.49-1.71-.99l-3.85-4.61-.08-.09c-.6-.72-.92-1.5-.9-2.21l.06-2.23-.64-1.1c-.76-1.3.05-2.43,1.62-2.25l.55.07.88.12,3.89.53,1.14.15,2.21.3c1.05.14,2.06.95,2.29,1.81"/>
          <path class="uuid-2ede23cf-2ac6-460c-a183-e73847d32c13" d="M40.36,14.45c0,.55-.09,1.18-.11,1.9-.03,1.3-.14,2.77-1.18,3.57-1.66,1.27-5.23.04-7.04-.37-.25-.05-.51-.11-.76-.19l-.08-.09c-.6-.72-.92-1.5-.9-2.21l.06-2.23-.64-1.1c-.76-1.3.05-2.43,1.62-2.25l.55.07.88.12,3.89.53c.69.09,2.02.01,2.59.28.95.45,1.13,1.11,1.11,1.98"/>
          <path class="uuid-9ba83b89-f5d6-460c-a6b4-300f4d7d51ed" d="M37.79,12.34c-.09.72-.4,1.37-.78,1.98-.28.45-.62.9-1.16,1.17-.54.27-1.33.34-2.07.04-.6-.24-1.09-.68-1.39-1.15-.3-.46-.42-.94-.49-1.41-.07-.49-.08-.97-.02-1.43l.88.12,3.89.53,1.14.15Z"/>
          <path class="uuid-4cd802aa-1bdb-4d21-9a57-073f8f415232" d="M38.65,5.81c0-1.93-.86-3.88-2.38-4.88-1.37-.89-2.83-1.1-4.16-.8-2.99.67-5.32,3.86-4.35,7.37,1.18,4.3,6.88,5.18,9.75,1.68.77-.94,1.14-2.15,1.14-3.37"/>
          <path class="uuid-b106dcf5-c7f2-4494-9eae-28b821c56844" d="M31.53,10.02s.01,0,.02.01c0-.03,0-.06,0-.09,0,.03,0,.05-.02.07"/>
          <polygon class="uuid-9ba83b89-f5d6-460c-a6b4-300f4d7d51ed" points="37.71 12.46 33.67 14.63 32.97 13.56 30.66 10.07 30.61 10 35.21 10 35.17 8.69 37.71 12.46"/>
          <path class="uuid-b106dcf5-c7f2-4494-9eae-28b821c56844" d="M34.91,7.91s.01,0,.02.01c0-.03,0-.06,0-.09,0,.03,0,.05-.02.07"/>
          <polygon class="uuid-9ba83b89-f5d6-460c-a6b4-300f4d7d51ed" points="35.18 9 32.97 13.56 30.66 10.08 30.81 10 35.21 10 35.18 9"/>
          <path class="uuid-4cd802aa-1bdb-4d21-9a57-073f8f415232" d="M33.84,8.45c-2.06-1.02-3.53-2.88-3.49-4.87l-.3,1.06c-.58-.98.18-2.24,1.33-2.87,1.15-.62,2.58-.76,3.94-.84"/>
          <path class="uuid-9ba83b89-f5d6-460c-a6b4-300f4d7d51ed" d="M35.04,7.62c-.73-.33-1.43-.76-2.12-1.31-.53-.41-1-.88-1.46-1.37-.99.36-2.01.63-3.05.8-.38.06-.66.39-.68.77h0c-.01.49-.03.98-.01,1.47.04,1.18.24,2.34.9,3.2.73.96,1.92,1.34,3.04,1.37.62.02,1.26-.44,1.81-.77,1.04-.64,1.52-1.66,1.78-2.97.02-.09.03-.18.04-.27-.04-.04-.07-.08-.08-.14-.05-.26-.11-.52-.19-.79"/>
          <path class="uuid-9ba83b89-f5d6-460c-a6b4-300f4d7d51ed" d="M34.24,9.1c.08.06.18.06.27.03,0-.03,0-.07.02-.1l-.29.07Z"/>
          <path class="uuid-9ba83b89-f5d6-460c-a6b4-300f4d7d51ed" d="M36.11,7.19c-.42-.15-.83.33-1.02.86-.09.27-.15.57-.28.8-.08.13-.19.23-.3.27-.12.42.12.94.45,1.05.36.12.73-.11,1.02-.42.31-.32.59-.76.66-1.3.07-.53-.15-1.15-.53-1.28"/>
          <path class="uuid-b106dcf5-c7f2-4494-9eae-28b821c56844" d="M19.62,44.48c-.07,0-.13,0-.2-.02-.47-.11-.76-.58-.65-1.05l1.98-8.42c.11-.47.58-.76,1.05-.65.47.11.76.58.65,1.05l-1.98,8.42c-.09.4-.45.67-.85.67"/>
          <path class="uuid-b106dcf5-c7f2-4494-9eae-28b821c56844" d="M28.6,42.44s-.04,0-.05,0c-.32-.03-.55-.31-.53-.63l.17-1.85c.05-.56-.23-1.11-.72-1.4l-12.24-7.1c-.44-.25-.97-.26-1.41-.03-.45.24-.74.68-.77,1.18v.07c-.03.32-.31.56-.63.53-.32-.02-.56-.3-.53-.62v-.07c.07-.9.59-1.7,1.4-2.12.8-.42,1.75-.4,2.54.05l12.24,7.1c.88.51,1.39,1.49,1.29,2.51l-.17,1.85c-.03.3-.28.53-.58.53"/>
          <path class="uuid-8ee086b8-930c-43fb-9a88-e6efadf0d1b2" d="M42.03,14.93l-3.59,12.42c-.35,1.22-1.06,2.28-2.05,3.07l-7.1,5.71-.6.48-1.26,1.95c-.33.52-.89.8-1.46.8-.32,0-.65-.09-.94-.28-.81-.52-1.04-1.6-.51-2.41l1.41-2.18c.1-.15.23-.29.37-.41l.46-.37,7.46-6c.43-.34.73-.8.88-1.32l3.59-12.42c.27-.92,1.23-1.45,2.16-1.19.93.27,1.46,1.23,1.19,2.16"/>
          <path class="uuid-2ede23cf-2ac6-460c-a183-e73847d32c13" d="M40.5,57.52c-.22-.99-.71-1.65-1.4-1.87-.69-.22-1.47.04-2.22.72-1.53,1.4-2.42,4.18-1.98,6.2.21.99.71,1.65,1.39,1.87.16.05.33.08.49.08.56,0,1.16-.27,1.73-.8,1.53-1.39,2.42-4.17,1.98-6.2"/>
          <path class="uuid-8ee086b8-930c-43fb-9a88-e6efadf0d1b2" d="M42.85,61.66s-.08,0-.12,0l-4.61-.74c-.4-.06-.66-.44-.6-.83.06-.39.43-.66.83-.6l4.61.74c.4.06.67.44.6.83-.06.36-.37.61-.72.61"/>
          <path class="uuid-9ba83b89-f5d6-460c-a6b4-300f4d7d51ed" d="M29.29,36.13l-.6.48-1.26,1.95c-.33.52-.89.8-1.46.8-.32,0-.65-.09-.94-.28-.81-.52-1.04-1.6-.51-2.41l1.41-2.18c.1-.15.23-.29.37-.41l.46-.37c1.22.23,2.32,1.19,2.54,2.43"/>
          <path class="uuid-64949836-5c4b-4cba-bf8e-8be24ab41177" d="M11.85,72.53c-.24,0-.47-.15-.55-.39-.1-.3.06-.63.36-.74.29-.1.49-.16.64-.2.31-.09.39-.11.99-.55.74-3.94,1.98-8.51,3.18-12.93,1.17-4.3,2.37-8.74,3.1-12.53,0-.04.02-.09.02-.13,0,0,0-.01,0-.02.03-.13.1-.25.2-.33h0s.05-.04.08-.06c.11-.06.24-.09.38-.07.01,0,.03,0,.04,0,.09.02.17.06.23.11.44.35.29,1.02.15,1.3-.03.06-.07.11-.11.16-.74,3.65-1.87,7.82-2.97,11.86-1.22,4.48-2.47,9.12-3.21,13.06-.03.14-.11.27-.22.36-.87.65-1.04.74-1.56.88-.14.04-.31.09-.57.18-.06.02-.13.03-.19.03"/>
          <path class="uuid-4cd802aa-1bdb-4d21-9a57-073f8f415232" d="M31.46,4.95s1.26,2.91,3.63,3.1l2.6-3.45-6.23.35Z"/>
        </g>
      </g>
    </g>
  </g>
</svg>