<?xml version="1.0" encoding="UTF-8"?>
<svg id="Calque_2" xmlns="http://www.w3.org/2000/svg" viewBox="0 0 35.44 47.88">
  <defs>
    <style>
      .cls-1 {
        fill: #f1c200;
      }

      .cls-2 {
        fill: #009d4a;
      }

      .cls-3 {
        fill: #f3aac6;
      }

      .cls-4 {
        fill: #302879;
      }

      .cls-5 {
        fill: #56adad;
      }
    </style>
  </defs>
  <g id="_Éléments_Mise_en_page" data-name="Éléments_Mise_en_page">
    <g>
      <path class="cls-3" d="M15.93,26.81c-.32-.06-.63.16-.91.47-.78.82-1.63,1.61-2.35,2.48-1.11,1.34-1.17-1.42-2.1-2.07-.69-.47-.55,2.1-.53,2.56.07,1.45,1.19,2.66,2.52,1.68,1.04-.77,1.65-2.08,2.32-3.16.19-.3.44-.57.76-.73.32-.16,1.17-1.08.29-1.23"/>
      <path class="cls-3" d="M27.35,28.14c-.02.19-.03.38-.05.57-.31,2.95-1.09,5.69-2.94,8-1.21,1.51-2.38,3.3-3.77,4.64-.32.3-.61.65-.68,1.01-.04.17-.03.34.06.51,0,0,.01.02.01.03.16.35.49,1.29.49,1.29-.03.04-.06.08-.1.11-.75.64-2.31-2.17-2.12-2.83.02-.07.05-.13.09-.19.03-.04.07-.09.1-.13.04-.05.09-.11.13-.18.47-.74,1.16-2.69,1.42-3.26.4-.89.25-.29.67-1.17.7-1.47,2.64-3.03,2.7-4.63.13-3.04-1.64-5.25-.6-8.31.57-1.69,2.39-4.63,4.07-2.15,1.18,1.75.69,4.68.53,6.69"/>
      <path class="cls-3" d="M35.43,46.71c-.04.27-.42.28-.68.2-.62-.18-2.29-.68-2.58-1.35-.05-.12-.06-.25-.06-.37,0-.1,0-.2,0-.29-.03-1.29-.55-2.43-.75-3.69-.22-1.34-.26-2.85-.25-4.21,0-1.45.14-2.81-.11-4.2-.42-2.38-.95-4.82-.5-7.26.23-1.24.74-3.17,2.07-3.61,1.25-.41,1.51.67,1.68,1.72.28,1.64.26,3.43.26,5.09,0,3.21-.1,6.35-.41,9.56-.21,2.1,0,4.24-.29,6.34,0,0-.03.56-.03.56.01.03.03.06.05.08.02.02.03.04.05.06.01,0,.02.02.03.02.03.02.05.04.09.06.02.01.04.02.06.03.37.18.71.42,1.01.71.07.07.13.13.19.2.09.1.18.23.16.36"/>
      <path class="cls-5" d="M19.44,43.62s-.02.05-.02.08l.07-.08h-.05Z"/>
      <path class="cls-4" d="M10.02,46.22c.54.24,1.18.66,1.41,1.23.15.39-.07.46-.45.42-.27-.03-.52-.16-.77-.27-.23-.1-.46-.17-.68-.29-.33-.18-.57-.35-.42-.67.15-.31.56-.57.91-.42"/>
      <path class="cls-4" d="M.02,42.08c.11-.73.82-.71.98-.01.14.61,0,1.38-.03,1.99-.02.34-.33.55-.51.31-.23-.3-.32-.58-.38-1.01-.06-.41-.12-.86-.06-1.27"/>
      <path class="cls-3" d="M4.46,39.42c.03-.83-.26-1.93.61-2.42.38-.21.85-.12,1.12.23.15.19.24.48.29.76.23.12.42.31.47.57.02.09.03.18.05.27t0,0s0,0,0,0c.09.68.03,1.44-.18,2.06-.45,1.37-2.21,1.2-2.39-.24-.05-.41.02-.82.04-1.23"/>
      <path class="cls-3" d="M.7,42.48c.47.26,1.22.19,1.73.17.06,0,.12,0,.18,0,1.23-.19,2.94-.14,3.82-1.1.32-.35-.32-1.17-.72-1.3-1.04-.34-2.2.33-3.18.75-.55.23-1.41.33-1.95.72-.15.3-.2.59.13.77"/>
      <path class="cls-3" d="M8.65,38.72c.3-.16.43-.18.78-.14.46.06.74.53.79.94.16,1.3-.03,2.63,0,3.94.02.85.1,1.72.06,2.57-.02.4.06.67-.43.71-.26.02-.63-.2-.79-.4-.4-.48-.51-1.45-.61-2.04-.27-1.55-.22-3.13-.26-4.69,0-.33.15-.73.46-.9"/>
      <path class="cls-4" d="M10.53,39.76c.08-.79-.22-1.6-.25-2.39-.01-.4.05-1.53-.16-2.04-1.48.76-3.72,1.42-5.13.97-.28-.03-.57-.08-.86-.14,0,1.15-.18,3.94,0,4.54,0,0,.25,1.82,1.85,1.82,1.32,0,1.21-2.62,1.21-2.62,0-.55-.05-1.12.03-1.66,0,0,.41,2.47.97,2.71.56.24,2.28.11,2.36-.8.04-.06-.02-.31-.01-.39"/>
      <path class="cls-3" d="M35.09,18.67c-.15-1.18-.24-2.33-.1-3.52.11-1,.06-2-.02-2.99-.03-.43.24-1.7.07-2.04-.62-1.33-1.33,1.04-1.42,1.47-.27,1.27-.19,2.68-.26,3.98-.09,1.75-.25,3.46-.09,5.22.14,1.43.4,2.75.62,4.18.05.33.38,2.53,1.01,1.48.41-.69.2-.87.28-1.69.14-1.46.13-4.34-.06-5.76-.01-.11-.03-.21-.04-.32"/>
      <path class="cls-3" d="M19.14,20.27c.01-.06.03-.11.04-.17.66-.75,1.49-2.48,1.89-3.42.64-1.52,1.13-2.2,1.67-3.76.15-.44-.47-2.25-.91-2.44-2.03-.88-3.78,5.37-4.72,9.83-.34.83-.64,1.57-.83,2.53-.2,1.07-.38,2.43-.94,3.38-.24.42-1.44,1.56-.25,1.74,1.23.18,1.99-2.12,2.33-2.93.66-1.55,1.31-3.12,1.72-4.76"/>
      <path class="cls-3" d="M2.82,33.97s.02-.06.03-.09c.41-.39.92-1.32,1.17-1.81.4-.8.7-1.17,1.03-1.99.1-.24-.29-1.19-.56-1.29-1.26-.47-2.34,2.84-2.92,5.21-.21.44-.4.83-.51,1.34-.16.7-.35,1.28-.6,1.92-.15.39.61.6.8.23.56-1.11,1.22-2.35,1.57-3.52"/>
      <path class="cls-1" d="M34.24,23.96c-.06-.38-.1-.76-.13-1.15-.03-.34-.06-.69-.08-1.03-.14-1.75-.27-3.5-.3-5.26-.01-.88-.29-1.79-.31-2.69-.01-.59.08-1.18.44-1.77.23-.38.55-.67.86-.95.37-.33.55-.84.45-1.33-.37-1.89-1.25-3.56-3.09-4.05-3.05-.82-6.25.37-8.88,1.82-1.16.64-2.27,2.06-3.14,3.06-.72.83-1.49,3.61-1.49,3.61.37,1.13,2.27,1.9,3.22,2.19v.07l-1.12,12.87c-.07.55-.04,1.09.21,1.6.65,1.29,2.05,2.4,3.35,3.01,2.03.97,2.17.91,4.31,1,.86.04,3.26-.82,3.98-1.3.55-.36,1.57-.72,2-1.11.59-.53.58-1.72.57-2.45-.03-2.07-.56-4.11-.84-6.16"/>
      <path class="cls-2" d="M6.84,26.74c-.08-.03-.19-.04-.32,0-1.59.54-4.08,2.54-4.09,4.92,0,.29,1.13.01,1.35-.12.02.72.05,1.28.08,1.71h0s.13,3.63.13,3.63c.01.28.24.46.53.4l1.2-.22c.12,0,.24-.03.38-.07,1.33-.45,4.21-.57,4.03-2.19,0,0,.04-1.41.07-2.77.03-1.22.04-2.39.03-2.47.31,0,1.04-.82,1.04-.82.02-1.97-2.56-2.68-4.41-2"/>
      <path class="cls-1" d="M7.96,22.04c0-.24-.2-.44-.45-.44h-.19c-.24,0-.45.2-.44.44.01.39-.71.48-1,.61-.42.18-.73.43-.93.85-.43.91-.08,1.83.72,2.32.08.09.18.14.29.15h0s.04.02.07.02c.09.23.35.39.63.23.02-.01.04-.03.06-.05.21-.01.4-.15.4-.43,0-.15,0-.3-.02-.45.02-.42-.06-.89-.1-1.27.03-.23.11-.44.27-.62.38-.44.7-.75.69-1.37"/>
      <path class="cls-3" d="M7.5,22.92c-.23-.25-.73-.09-.75.25,0,0-.02.01-.03.02-.29.27-.42.73-.48,1.14h-.1v2.44c0,.51.41.92.92.92s.92-.41.92-.92v-1.31c.17-.17.28-.39.35-.63.21-.76-.35-1.39-.83-1.9"/>
      <path class="cls-4" d="M29.62.3c-.26-.22-.62-.34-1.11-.29-.73.06-.91.27-1.41.71-.85.76-1.31,1.81-2.13,2.58-1.56,1.46-2.84,2.83-3.68,4.85-.16.39-.54,1.19-.37,1.61.34.84,1.15.32,1.9.24,1.63-.18,2.86-.68,3.56-2.35.66-1.57,2.33-2.54,3.24-3.96.61-.96.84-2.69.01-3.39"/>
      <path class="cls-3" d="M29.57,2.36c-.11.06-.21.12-.32.17-.39.33-.87.58-1.38.72-.16.07-.32.12-.49.16-.01.02-.02.04-.03.05-.29.41-.15.81.15,1.05-.05.09-.09.19-.1.31-.03.07-.05.15-.05.23,0,.11,0,.21,0,.32-.09.59-.25.73-.06,1.24,0,.08.02.16.05.23.23.66,1.31.79,1.55,0,.24-.79.07-1.1.08-1.92.39-.02.73-.32.91-.68.18-.35.23-.75.28-1.15.04-.37.09-.75.02-1.11-.17.15-.36.28-.57.37"/>
      <path class="cls-2" d="M2.11,31.7s.54,1.26,2.29,1.26c1.75,0,2.44-3.38,2.44-3.38l-1.46-.73c-.93-.46-2.06-.04-2.46.92l-.81,1.94Z"/>
      <path class="cls-3" d="M6.36,24.75c0,.27-.22.48-.48.48s-.48-.22-.48-.48.22-.48.48-.48.48.22.48.48"/>
      <path class="cls-4" d="M35.43,46.71c-.04.27-.42.28-.68.2-.62-.18-2.29-.68-2.58-1.35-.05-.12-.06-.25-.06-.37,0-.1,0-.2,0-.29.55.4,1.39.81,1.72.37.01-.02.03-.04.04-.07-.02.05,0,.09,0,.13,0,.01.01.02.02.04,0,0,0,0,.02-.01.03.02.05.04.09.06.02.01.04.02.06.03.37.18.71.42,1.01.71.07.07.13.13.19.2.09.1.18.23.16.36"/>
      <path class="cls-4" d="M20.47,44.2s-.06.08-.1.11c-.75.64-2.31-2.17-2.12-2.83.02-.07.05-.13.09-.19.03-.04.07-.09.1-.13.04-.05.09-.11.13-.18.09.69.73,1.03,1.33,1.4-.04.17-.03.34.06.51,0,.01.01.02.01.03.16.35.49,1.29.49,1.29"/>
    </g>
  </g>
</svg>