<?xml version="1.0" encoding="UTF-8"?>
<svg id="Calque_2" xmlns="http://www.w3.org/2000/svg" viewBox="0 0 24.66 57.61">
  <defs>
    <style>
      .cls-1 {
        fill: #d5d3d3;
      }

      .cls-2 {
        fill: #f4c900;
      }

      .cls-3 {
        fill: #f5a000;
      }

      .cls-4 {
        fill: #ebeef8;
      }

      .cls-5 {
        fill: #e1f2fd;
      }

      .cls-6 {
        fill: #243268;
      }

      .cls-7 {
        fill: #e84f0e;
      }

      .cls-8 {
        fill: #fcc83f;
      }

      .cls-9 {
        fill: #da5813;
      }

      .cls-10 {
        fill: #1397d5;
      }

      .cls-11 {
        fill: #235aa3;
      }
    </style>
  </defs>
  <g id="_Éléments_Mise_en_page" data-name="Éléments_Mise_en_page">
    <g>
      <path class="cls-1" d="M24.4,17.82c0-.33-.23-.74-.52-.9-.29-.17-.52-.03-.52.3,0,.33.23.74.52.9s.52.03.52-.3"/>
      <path class="cls-1" d="M22.94,16.87c.14-.2.06-.62-.19-.93-.25-.31-.57-.4-.71-.19-.15.2-.06.62.19.93.25.31.57.39.71.19"/>
      <path class="cls-1" d="M21.71,15.23c.25-.02.33-.34.19-.71-.15-.37-.46-.65-.71-.63-.25.02-.34.34-.19.71.14.37.47.65.71.63"/>
      <polygon class="cls-8" points="12.83 4.92 15.21 6.32 15.69 6.04 13.3 4.63 12.83 4.92"/>
      <polygon class="cls-3" points="12.83 4.92 12.83 6.82 15.21 8.22 15.21 6.32 12.83 4.92 12.83 4.92"/>
      <polygon class="cls-9" points="15.21 6.33 15.21 8.23 15.69 7.94 15.69 6.04 15.21 6.33"/>
      <path class="cls-2" d="M5.56,9.36c-.06.79-.71.83-1.5.77-.79-.06-1.39-.75-1.33-1.54.06-.79.75-1.39,1.54-1.33.79.06,1.35,1.31,1.29,2.11"/>
      <path class="cls-2" d="M3.71,9.06c.46-.33,1.12-.23,1.46.19.34.39.67.77,1.01,1.16,1.06,1.12,2.69,2.73,3.67,3.68.45-1.3,1.28-4.02,2.19-5.35.98-1.42,4.53-2.86,3.91.44-.02.09-.03.18-.05.27-.36,1.61-1.26,3.02-2.07,4.46-.84,1.5-1.16,3.08-2.59,4.22-.52.41-1.08.73-1.52.7-.71-.05-1.44-.92-1.92-1.62-.04-.07-.07-.14-.11-.19-.11-.16-.21-.32-.32-.48l-.09-.2-3.76-6.07c-.26-.4-.18-.93.22-1.21"/>
      <path class="cls-2" d="M11.09,34.03c-.06,0-.11,0-.17,0,.08,0,.13,0,.17,0"/>
      <path class="cls-2" d="M13.51,56.32c0,.14-.02.28-.03.41-.06.42-.23.74-.6.84-.78.21-5.51-.57-4.53-1.4.09-.07.66-.2,1.22-.3.59-.11,1.17-.18,1.19-.11-.52-1.52-3.16-9.37-3.98-11.73,0,0,0,0,0,0-.87-2.36-1.39-4.83-1.48-7.35l-.12-3.21c1.56-.13,3.11-.32,4.67-.43.24-.02.48-.03.72-.04.09,0,.43,0,.51,0,.01,0,.02,0,.02,0,.3,0,.59.01.88.03l-.65,7.04c.21,1.8.48,4.06.7,5.68.19,1.43.38,2.86.6,4.28.03.22.07.44.1.66.16,1.04.32,2.08.49,3.12.08.49.32,1.58.29,2.52"/>
      <path class="cls-2" d="M24.1,52.18c-.31.54-1.17,2.78-1.96,2.5-.36-.13-.4-.56-.33-1.02.06-.45.22-.92.26-1.16.19-1.18-.22-1.57-.97-2.45-.62-.73-1.25-1.45-1.88-2.17-.48-.55-.96-1.09-1.43-1.64-1.34-1.54-1.99-2.06-3.66-3.92-1.35-1.51-2.92-3.57-4.43-5.7.14-.17.28-.34.42-.51.02-.03.05-.06.07-.09.12-.14.25-.28.37-.42.25-.29.5-.58.75-.87,1.04-.69,2.07-1.41,3.07-2.17.67,1.22,1.35,2.44,2.03,3.66.93,1.66,2.28,4.04,3.23,5.66.73,1.25,1.46,2.49,2.21,3.71.11.19.23.38.35.57.66,1.08,1.34,2.14,2.02,3.19.07.11.15.23.22.34.5.77.1,1.76-.33,2.49"/>
      <path class="cls-10" d="M20.68,33.81c-.04-.62-.16-1.23-.36-1.81v-.05s-3.51-14.12-3.51-14.12c-2.95.49-6.01.21-9.09-.41-1.19-.24-2.25.62-2.36,1.9l-1.35,16.92c.01.47-.64,4.98,8.61,4.98,1.84,0,3.34-.39,4.53-1.04h0s.02-.01.02-.01c.34-.18.65-.39.94-.61l1.6-1.05c.99-.65,1.48-1.92,1.24-3.22l-.28-1.48Z"/>
      <path class="cls-2" d="M9.35,8.91l.02-.24c-.13.07-.26.16-.38.26l-.02.02-.09.11c.15-.05.31-.1.46-.14"/>
      <path class="cls-5" d="M8.86,20.76l3.39.25,3.22.24c-.74-.94-1.24-2.07-1.37-3.26-.1-.91-.02-1.85-.32-2.71-.05-.15-.12-.3-.19-.44-1,2.04-2.52,4.35-4.73,5.91"/>
      <path class="cls-2" d="M9.29.4s0,.02-.01.03c0,0,.02-.02.03-.03h-.02Z"/>
      <path class="cls-2" d="M10.15,9.2c.33-.17.68-.32,1.04-.43-.78-2.1-.96-4.53-1.07-6.81l-2.06-.31c-.07.44-.16,1-.25,1.56-.2,1.26.6,2.47,1.84,2.78l.46,2.98.04.24Z"/>
      <path class="cls-4" d="M17.77,8.65c-1.6-2.32-5.35-1.75-7.44-.65-1.56.83-4.05,2.3-4.48,4.18-.23,1-.12,1.5.34,2.36.01.96.02,1.92.03,2.88.02,1.69-.54,3.49,1.19,4.37.96.49,2.03.6,3.12.68,2.19.16,5.57.3,7.21-1.41.89-.92.6-2.63.44-3.78-.19-1.43.05-2.65.32-4.07.28-1.47.11-3.31-.75-4.56"/>
      <path class="cls-7" d="M21.53,13.14c-1.2-.84-2.61-1.47-3.46-2.66-.51-.71-.77-1.55-1.09-2.36-.74-1.87-1.8-3.59-2.86-5.3-.6-.96-1.25-1.97-2.27-2.48-.98-.49-2.78-.56-3.41.48-.99,1.62,1.03,2.74,1.11,4.2.07,1.27-.2,2.51-.04,3.8.07.51.17,1.02.32,1.51.23.77.58,1.5,1.06,2.17.53.74,1.23,1.39,1.65,2.19.07.14.14.28.19.42.29.83.22,1.73.32,2.6.13,1.14.61,2.22,1.33,3.13.22.28.47.54.73.78,1.16,1.06,2.69,1.71,4.27,1.63,3.1-.17,5.72-3.41,4.97-6.39-.39-1.53-1.51-2.8-2.81-3.72"/>
      <path class="cls-11" d="M24.1,52.18c-.31.54-1.17,2.78-1.96,2.5-.36-.13-.4-.56-.33-1.02.16-.14.34-.28.51-.47.88-.95.53-3.07,1.93-3.63-.21-.04-.04.03-.06-.2,0,0,0,0,.01,0,.07.11.15.23.22.34.5.77.1,1.76-.33,2.49"/>
      <path class="cls-11" d="M13.51,56.32c0,.14-.02.28-.03.41-.06.42-.23.74-.6.84-.78.21-5.51-.57-4.53-1.4.09-.07.66-.2,1.22-.3-.48.46,1.01.66,1.38.67,1.11.02,1.93-.07,2.56-.22"/>
      <path class="cls-11" d="M13.71,55.14c-.19.02-.29.03-.21,0,.07-.01.14-.01.21,0"/>
      <path class="cls-10" d="M4.44,9.06l-2.35,1.19c-.15.07-.32,0-.37-.16L.35,5.87c-.04-.12.02-.26.13-.32l2.35-1.19c.15-.07.32,0,.37.16l1.36,4.22c.04.12-.02.26-.13.32"/>
      <path class="cls-6" d="M3.71,8.26l-1.54.78c-.16.08-.35,0-.41-.17l-.83-2.57c-.04-.14.02-.28.15-.35l1.54-.78c.16-.08.35,0,.41.17l.83,2.58c.04.13-.02.28-.14.35"/>
      <path class="cls-7" d="M3.27,9.07c-.04-.13-.17-.18-.28-.12-.11.06-.18.21-.14.33s.17.18.28.12c.11-.06.18-.21.14-.34"/>
      <path class="cls-2" d="M4.97,8.79h0c-.09.25-.37.38-.63.29l-1.34-.5c-.25-.09-.38-.37-.29-.62.09-.25.37-.38.63-.29l1.34.5c.25.09.38.38.29.63"/>
      <path class="cls-2" d="M8.72,13.57c-2.22-1.06-2.5-.19-2.5-.19l-.49.38c-.18,1.03-.22,2.1-.28,3.16-.04.63-.09,1.26-.18,1.87-.47,3.02-3.17,2.45-4.87,4.87-.49.39-.55,1.13-.08,1.6.33.33.86.38,1.28.16,1.95-1.92,5.1-1.45,5.98-3.78.49-1.3.93-2.54,1.31-3.82.26-.92.5-1.85.68-2.83h0c.09-.51-.14-1.03-.58-1.29-.08-.05-.17-.09-.26-.13"/>
    </g>
  </g>
</svg>