<?xml version="1.0" encoding="UTF-8"?>
<svg id="uuid-8432bd05-e16d-4543-af53-e95d2dec965d" data-name="Calque_2" xmlns="http://www.w3.org/2000/svg" viewBox="0 0 22.83 53.97">
  <defs>
    <style>
      .uuid-ba5b56cc-6a4f-46fb-aab5-3ed8671934da {
        fill: #dedddd;
      }

      .uuid-12cf4737-226c-4946-a8a0-7f8d258fb0e6 {
        fill: #f7bc80;
      }

      .uuid-288b1075-d9ee-4fa1-a8cb-62715fa5b24d {
        fill: #dca270;
      }

      .uuid-7bacde69-e3e2-4886-ac0c-d7ccf2620afa {
        fill: #fff;
      }

      .uuid-69d0e87b-7641-4f5d-a28f-0752ff6b3c2e {
        fill: #eca86f;
      }

      .uuid-b0da42a6-b1eb-4897-9144-50e220d931d8 {
        fill: #244680;
      }

      .uuid-1a9acc0c-df2d-41e0-96eb-c5749bb1cb1a {
        fill: #f3d480;
      }

      .uuid-b6f7dd3d-39d5-41dc-bfe1-4342262f4082 {
        fill: #2b2825;
      }

      .uuid-847ea1d2-1e31-40ce-8b74-3c1e947af8f3 {
        fill: #183c6b;
      }

      .uuid-c06efde9-5e51-4c8f-9d02-d180090b7e4d {
        fill: #ce1f17;
      }

      .uuid-0ebe43b9-99b7-4e64-9c13-1f35300f6ce2 {
        fill: #d8ebfa;
      }

      .uuid-f994555a-1bda-403d-9914-9030a799d93b {
        fill: #cac6c6;
      }

      .uuid-00402c26-c312-4605-8363-be680fb1727b {
        fill: #2d5099;
      }

      .uuid-b24f0b86-01e3-4f14-a9a6-c6f2d21a0239 {
        fill: #383431;
      }

      .uuid-260f1c7b-30ca-4977-baa4-de7570e03c98 {
        fill: #c4c1c2;
      }
    </style>
  </defs>
  <g id="uuid-8410844b-36b1-422d-9f55-e05de27991f7" data-name="Les_personnages">
    <g id="uuid-e36e8b35-7fc3-48ba-98cc-4cda22597fc3" data-name="Chara_x5F_SkateboarderCourt_x5F_BG">
      <path class="uuid-b6f7dd3d-39d5-41dc-bfe1-4342262f4082" d="M17.03,22.64l-1.27.22s.16,1.66.25,1.66,4.3-.73,4.3-.73l-.29-1.62-2.99.48Z"/>
      <path class="uuid-69d0e87b-7641-4f5d-a28f-0752ff6b3c2e" d="M5.52,18.04l-.58-6.82c-.09-.66-.14-2.2-.14-2.2-1.72.08-2.05,1.95-1.96,2.6l.44,6.35c.09.66,2.33.72,2.25.07"/>
      <path class="uuid-69d0e87b-7641-4f5d-a28f-0752ff6b3c2e" d="M2.24,22.32c0,.21.18.58.1.77-.11.27-.44.39-.51.67-.05.19-.38.62-.37,1.01.05,1.66-1.26.58-1.26.58-.36-.97-.17-1.19-.01-1.54.22-.51,1.04-1.43,1.04-1.43l.5-.54.33-.31c.04.15.09.31.13.46.03.12.05.22.05.32"/>
      <path class="uuid-69d0e87b-7641-4f5d-a28f-0752ff6b3c2e" d="M2.42,22.73l3.29-4.38c.55-1.84-2.08-.94-2.42-.3l-1.84,4.09c-.35.64.63,1.23.97.59"/>
      <path class="uuid-b0da42a6-b1eb-4897-9144-50e220d931d8" d="M4.8,9.02s-2.16-.14-2.22,2.62l.51,3.69s2.06.67,3.41-.17c0,0-.69-2.35-.72-3.03-.03-.68-.97-3.11-.97-3.11"/>
      <path class="uuid-b24f0b86-01e3-4f14-a9a6-c6f2d21a0239" d="M8.48,53.91c-.76-.47-1.07-.65-1.25-.75-.2-.1-.32-.34-.32-.67,0-.66.46-1.46,1.04-1.8.28-.16.53-.18.72-.08.2.1.76.44,1.23.74.55.36-.85,2.91-1.41,2.56"/>
      <path class="uuid-260f1c7b-30ca-4977-baa4-de7570e03c98" d="M9.18,53.82c-.57.33-1.04.06-1.04-.59,0-.66.46-1.46,1.04-1.79.57-.33,1.04-.06,1.04.59s-.47,1.47-1.04,1.8"/>
      <path class="uuid-b24f0b86-01e3-4f14-a9a6-c6f2d21a0239" d="M9.18,53.01c-.18.11-.33.02-.33-.19,0-.21.15-.47.33-.57.18-.11.33-.02.33.19s-.15.47-.33.57"/>
      <path class="uuid-b24f0b86-01e3-4f14-a9a6-c6f2d21a0239" d="M20.12,47.22c-.76-.47-1.07-.65-1.25-.75-.2-.1-.32-.34-.32-.67,0-.66.46-1.46,1.04-1.79.28-.16.53-.18.72-.08.2.1.76.44,1.23.74.55.36-.85,2.91-1.41,2.56"/>
      <path class="uuid-260f1c7b-30ca-4977-baa4-de7570e03c98" d="M20.82,47.13c-.57.33-1.04.06-1.04-.6,0-.66.46-1.46,1.04-1.79.57-.33,1.04-.06,1.04.59s-.47,1.47-1.04,1.8"/>
      <path class="uuid-b24f0b86-01e3-4f14-a9a6-c6f2d21a0239" d="M20.82,46.32c-.18.1-.33.02-.33-.19s.15-.47.33-.58c.18-.1.33-.02.33.19s-.15.47-.33.57"/>
      <path class="uuid-1a9acc0c-df2d-41e0-96eb-c5749bb1cb1a" d="M8.96,51.36c-2.35,1.36-5.69,1.67-7.41.68-1.72-.99-1.2-2.92,1.16-4.28l11.69-6.76c2.36-1.36,5.69-1.67,7.41-.69,1.72.98,1.2,2.91-1.16,4.27l-11.69,6.78Z"/>
      <path class="uuid-c06efde9-5e51-4c8f-9d02-d180090b7e4d" d="M8.96,51c-2.35,1.36-5.69,1.67-7.41.68-1.72-.99-1.2-2.92,1.16-4.28l11.69-6.76c2.36-1.36,5.69-1.67,7.41-.69,1.72.98,1.2,2.9-1.16,4.27l-11.69,6.78Z"/>
      <path class="uuid-7bacde69-e3e2-4886-ac0c-d7ccf2620afa" d="M20.79,40.01s.11,1.58,0,2.08c0,0-.97.36-1.84.14,0,0-1.49.2-3.18.07,0,0-.93-.09-1.08-.74-.15-.65.72-.69,1.48-.86.75-.17,1.7-.69,1.84-1.08l2.79.4Z"/>
      <path class="uuid-f994555a-1bda-403d-9914-9030a799d93b" d="M14.69,41.56c.15.65,1.08.74,1.08.74,1.68.12,3.18-.07,3.18-.07.88.22,1.84-.14,1.84-.14.02-.09.03-.21.04-.36-1.04.22-1.91.17-1.91.17-3.08.33-3.97-.23-4.22-.62-.02.08-.04.16-.01.27"/>
      <path class="uuid-ba5b56cc-6a4f-46fb-aab5-3ed8671934da" d="M15.7,40.8c-.48.1-.93.2-1.02.5.15.23.53.52,1.44.65.04-.69-.18-1-.42-1.15"/>
      <path class="uuid-ba5b56cc-6a4f-46fb-aab5-3ed8671934da" d="M16.67,41.11c-.06-.17-.14-.33-.24-.47-.08.02-.17.05-.25.07.12.18.23.38.24.52,0,0,.37.26.25-.11"/>
      <path class="uuid-ba5b56cc-6a4f-46fb-aab5-3ed8671934da" d="M17.12,41c-.06-.18-.16-.36-.27-.52-.08.03-.15.06-.23.09.13.19.25.4.26.54,0,0,.37.26.25-.11"/>
      <path class="uuid-ba5b56cc-6a4f-46fb-aab5-3ed8671934da" d="M17.59,40.88c-.07-.22-.2-.42-.33-.6-.07.04-.14.08-.21.11.14.2.29.44.29.6,0,0,.37.26.25-.11"/>
      <path class="uuid-ba5b56cc-6a4f-46fb-aab5-3ed8671934da" d="M18.07,40.7c-.09-.25-.24-.5-.4-.68-.06.05-.12.09-.19.13.15.2.33.49.34.66,0,0,.37.26.25-.11"/>
      <path class="uuid-ba5b56cc-6a4f-46fb-aab5-3ed8671934da" d="M18.6,40.46c-.11-.34-.35-.66-.55-.83h-.03s-.06.11-.1.16c.15.2.42.57.43.78,0,0,.37.26.25-.11"/>
      <path class="uuid-b0da42a6-b1eb-4897-9144-50e220d931d8" d="M6.9,21.43l.69,2.6s2.04,7.03,3.49,8.22c1.45,1.19,2.96-1.03,2.62-1.82,0,0-.37-9.21-2.62-11.51-2.26-2.3-3.76.34-3.76.34l-.42,2.16Z"/>
      <path class="uuid-b0da42a6-b1eb-4897-9144-50e220d931d8" d="M17.62,39.73c.54.62,2.2.84,3.36.15,0,0-5.4-9.56-7.27-9.44-1.3-.74-1.23-.64-1.85-.1l-.65.22c-1.14.56-.67,1.99,1.2,3.25,3.57,2.42,5.21,5.92,5.21,5.92"/>
      <path class="uuid-00402c26-c312-4605-8363-be680fb1727b" d="M7.71,20.91l1.22,2.73s-2.61,8.51-2.65,10.94c-.03,2.43,3.15,1.27,3.28.61.13-.65,8.99-12.59,2.76-16.59l-1.45-.88-3.17,3.19Z"/>
      <path class="uuid-0ebe43b9-99b7-4e64-9c13-1f35300f6ce2" d="M4.71,9.06s-1.45.67-1.31,3.18c.13,2.52,1.49,4.55,2.2,6.26,0,0,1.81,4.87,1.79,5.65,0,0,5.52.3,8.43-2.37,0,0-2.99-3.45-3.73-5.91-.8-2.66-.15-6.19-1.59-6.61-3.21-.93-5.78-.19-5.78-.19"/>
      <path class="uuid-288b1075-d9ee-4fa1-a8cb-62715fa5b24d" d="M8.2,8.84l-.66-3.03-.14-2.06-1.92,1.43-.36,2.74.34,1.89s-.46.83.2,1.14c.66.31,2.07-.09,2.53-2.1"/>
      <path class="uuid-12cf4737-226c-4946-a8a0-7f8d258fb0e6" d="M2.43,2.46s-.09,1.78-.01,2.77c.08.99,1.03,3.87,1.73,3.79,0,0,2.34-.2,2.55-2.55l1.34-.42s1.04-3.59-.71-4.56c-1.75-.97-3.49-1.25-4.9.97"/>
      <path class="uuid-12cf4737-226c-4946-a8a0-7f8d258fb0e6" d="M18.12,21.03c.2.29.22.51.46.76.51.54.09,1.07.48,1.31,1.66,1.04,0,1.33,0,1.33-1.19-.29-1.27-.62-1.51-.99-.35-.55-.89-2.01-.89-2.01l-.38-.98.57-.42c-.73-.23,1.34,1.1,1.29,1.01"/>
      <path class="uuid-12cf4737-226c-4946-a8a0-7f8d258fb0e6" d="M16.38,15.44c.42.5-1.69,1.61-2.11,1.1l-3.33-3.54s-1.87-1.86-1.71-2.47c.28-1.14.62-1.03.62-1.03.58-.48,1.53.05,1.95.55l4.58,5.38Z"/>
      <path class="uuid-12cf4737-226c-4946-a8a0-7f8d258fb0e6" d="M16.38,15.44l1.48,5.29c.2.45-1.17.76-1.37.31l-2.21-4.5c-.2-.45,1.9-1.56,2.11-1.1"/>
      <path class="uuid-7bacde69-e3e2-4886-ac0c-d7ccf2620afa" d="M9.25,44.57s.36,2.35.39,2.93c0,0-.35.52-1.45.77,0,0-1.01.75-2.94,1.56,0,0-1.08.42-1.62-.22-.54-.64.41-1.17,1.15-1.78.74-.61,2.01-2.39,1.94-2.91l2.52-.36Z"/>
      <path class="uuid-f994555a-1bda-403d-9914-9030a799d93b" d="M3.64,49.61c.54.64,1.62.21,1.62.21,1.93-.81,3.05-1.59,3.05-1.59,1.1-.24,1.33-.76,1.33-.76-.03-.11.02-.36-.05-.51-1.03.82-1.5.94-1.5.94-3.27,1.81-4.09,1.69-4.59,1.41.01.1.05.2.14.3"/>
      <path class="uuid-ba5b56cc-6a4f-46fb-aab5-3ed8671934da" d="M4.32,48.2c-.48.38-.92.74-.85,1.13.29.17.87.28,1.96-.09-.34-.78-.77-1.01-1.11-1.04"/>
      <path class="uuid-ba5b56cc-6a4f-46fb-aab5-3ed8671934da" d="M5.58,48c-.16-.15-.34-.28-.53-.39-.08.07-.16.15-.23.21.23.13.47.29.55.44,0,0,.55.08.21-.26"/>
      <path class="uuid-ba5b56cc-6a4f-46fb-aab5-3ed8671934da" d="M6.01,47.63c-.17-.17-.38-.31-.59-.43-.07.08-.13.16-.21.23.25.13.5.31.59.46,0,0,.55.08.21-.26"/>
      <path class="uuid-ba5b56cc-6a4f-46fb-aab5-3ed8671934da" d="M6.47,47.23c-.2-.2-.46-.36-.7-.48-.06.08-.11.16-.17.24.27.14.57.33.66.5,0,0,.55.08.21-.26"/>
      <path class="uuid-ba5b56cc-6a4f-46fb-aab5-3ed8671934da" d="M6.9,46.76c-.24-.23-.48-.42-.76-.53-.04.08-.15.17-.2.25.28.14.64.36.75.54,0,0,.55.08.21-.26"/>
      <path class="uuid-ba5b56cc-6a4f-46fb-aab5-3ed8671934da" d="M7.34,46.2c-.31-.31-.85-.54-.85-.54.01.07-.12.16-.14.24.28.13.66.33.78.56,0,0,.55.08.21-.26"/>
      <path class="uuid-00402c26-c312-4605-8363-be680fb1727b" d="M6.48,45.51c.16.81,3.04.43,3.37-.19.1-.6,2.07-8.21-.76-11.17-.43-.45-.56-.69-1.22-.66h-.29c-.81.17-1.76.62-1.06,2.36,1.22,3.03-.04,9.67-.04,9.67"/>
      <path class="uuid-b0da42a6-b1eb-4897-9144-50e220d931d8" d="M12.55,15l-3.01-3.23s-.97-1.1,0-2.23c0,0,1.07-.91,2.67.56,1.6,1.47,2.7,1.95,2.86,2.03,0,0-.19,2.27-2.51,2.87"/>
      <path class="uuid-847ea1d2-1e31-40ce-8b74-3c1e947af8f3" d="M2.39,3.31s-1.03-.71-.46-2.06c0,0,.06.47.24.68,0,0-.17-1.22.93-1.65,0,0-.42.76-.27,1.05,0,0,.35-1.12,1.04-1.33,0,0-.28.45-.17.77,0,0,1.46-.66,2.81-.11s2.84,1.85,2.35,4.23c0,0-.2,1.31.52,1.91,0,0-.46.02-.68-.07,0,0,.49.63.85.85,0,0-.96,0-1.07-.19,0,0,.32.47.76.79,0,0-.89.05-1.24-.35l-1.12-1.41s.56-.11.52-.83c-.05-.72-.45-.78-.8-.59,0,0-.27.31-.23.75,0,0-.49-.64-.42-1.19,0,0-.94.04-1.38-.75,0,0,.04.47.58,1,0,0-.99-.24-1.35-1.05,0,0-.07.57.32.91,0,0-.78-.33-.96-.98,0,0-.51-.17-.74-.37"/>
    </g>
  </g>
</svg>