<?xml version="1.0" encoding="UTF-8"?>
<svg id="Calque_2" xmlns="http://www.w3.org/2000/svg" viewBox="0 0 24.34 51.99">
  <defs>
    <style>
      .cls-1 {
        fill: #f08c8e;
      }

      .cls-2 {
        fill: #9fc5e9;
      }

      .cls-3 {
        fill: #fff;
      }

      .cls-4 {
        fill: #656da4;
      }

      .cls-5 {
        fill: #605a91;
      }

      .cls-6 {
        fill: #e9777f;
      }

      .cls-7 {
        fill: #bdc5e1;
      }

      .cls-8 {
        fill: #efb871;
      }

      .cls-9 {
        fill: #f3a5a8;
      }

      .cls-10 {
        fill: #6b7aba;
      }

      .cls-11 {
        fill: #bdc7e3;
      }

      .cls-12 {
        fill: #e2e4f4;
      }

      .cls-13 {
        fill: #7990c8;
      }
    </style>
  </defs>
  <g id="_Éléments_Mise_en_page" data-name="Éléments_Mise_en_page">
    <g>
      <path class="cls-12" d="M6.33,51.57c0,.11.04.22.13.31.11.11.28.14.42.09l3.37-1.19c.41-.14.68-.53.68-.96v-1.76l-2.32-.66v1.68s-2.17,2.2-2.17,2.2c-.06.06-.1.13-.11.21,0,.03,0,.05,0,.08"/>
      <path class="cls-4" d="M6.82,19.45l-1.06,15.31c-.03.42-.01.84.05,1.25l2.5,12.97s2.8.6,2.65-.96c0,0,.96-8.11-1.02-11.51l3.56-16.98-6.69-.08Z"/>
      <path class="cls-12" d="M19.71,42.5l1.45,1.18.39,3.17.03.23c.03.24.23.41.46.41.02,0,.04,0,.07,0,.17-.03.32-.14.37-.31l1.31-3.75c.11-.3.08-.62-.06-.89-.07-.14-.17-.26-.3-.36l-1.52-1.22-2.19,1.55Z"/>
      <path class="cls-10" d="M10.72,21.78s-.8,14.03,2.18,16.89l8.43,5.3s1.71-.74,1.29-2.62l-5.86-5.4-1.14-1.01.58-11.39c.03-.61-.41-1.14-1.02-1.22l-4.45-.56Z"/>
      <polygon class="cls-10" points="10.96 26.98 6.62 22.17 10.72 21.78 10.96 26.98"/>
      <path class="cls-7" d="M6.33,51.57c0,.11.04.22.13.31.11.11.28.14.42.09l3.37-1.19c.41-.14.68-.53.68-.96v-.53c-.77.75-.18.69-4.1,2.22-.15.06-.32.03-.5,0,0,.03,0,.05,0,.08"/>
      <path class="cls-7" d="M21.55,46.85l.03.23c.03.24.23.41.46.41.02,0,.04,0,.07,0,.17-.03.32-.14.37-.31l1.31-3.75c.11-.3.08-.62-.06-.9,0,.03,0,.06-.02.1-.25,1.14-.91,3-1.51,4.01-.2.34-.12.14-.45.36-.04.03-.16-.17-.2-.15"/>
      <path class="cls-11" d="M9.23,10.4c.16-.49.29-.98.34-1.51.1-1.14.43-2.39-.85-2.61-1.75-.3-2.45,2.43-2.68,3.27-.32,1.16-.59,2.34-.81,3.52-.11.59-.2,1.18-.41,1.74-.41,1.12-2.32,3.15-1.54,4.35.24.38.59.7.98.91,0,0,.01,0,.02,0,.77.42,1.73.06,2.1-.73.07-.15.12-.27.16-.36.35-.86,1.16-2.9,1.27-3.19.03-.08.06-.17.07-.26.26-1,.51-1.99.7-3,.14-.74.42-1.43.66-2.14"/>
      <path class="cls-12" d="M6.62,8.97v13.63l3.28,2.07c1.19.73,2.57,1.04,3.93.9.48-.05.95-.15,1.41-.32l1.01-.36-.37-14.88c-.02-.53-.23-1.03-.59-1.41-.13-.15-.29-.28-.47-.38l-.9-.57-.25-.16c-.68-.48-2-.97-3.19-1.11-.24-.03-.46-.05-.68-.05-.48,0-1.32-.23-1.62-.05-.96.56-1.55,1.58-1.55,2.7"/>
      <path class="cls-11" d="M15.88,10c-.02-.53-.23-1.03-.59-1.41-.2.02-.4.05-.59.1-.06.01-.12.04-.16.07-.28.08-.54.18-.73.38-.45.47-.34,1.23-.12,1.84.57,1.61.52,3.19.2,4.87-.07.39-.16.78-.2,1.17-.09,1.09.48,1.94.56,2.96.07.85-.4,1.42-.77,2.16-.54,1.08-.32,2.4.34,3.43.48-.05.95-.15,1.41-.32l1.01-.36-.37-14.89Z"/>
      <path class="cls-12" d="M12.51,7.6c.05.78-.92,1.54-2.08,1.54s-1.89-.83-1.94-1.61c-.05-.78.85-1.41,2.01-1.41s1.96.7,2.01,1.48"/>
      <path class="cls-3" d="M11.8,4.15c0,.2-.16.36-.36.36s-.36-.16-.36-.36.16-.36.36-.36.36.16.36.36"/>
      <path class="cls-3" d="M11.44,4.6c-.25,0-.45-.2-.45-.45s.2-.45.45-.45.45.2.45.45-.2.45-.45.45M11.44,3.89c-.15,0-.26.12-.26.26s.12.26.26.26.26-.12.26-.26-.12-.26-.26-.26"/>
      <path class="cls-1" d="M1.02,22.82l2.28-4.85c.88-.19,1.82.64,2.22,1.53l-3.65,4.79c-.25.4.08.15-.31-.12-.32-.22-.74-1.01-.54-1.34"/>
      <path class="cls-1" d="M2.68,23.13c.17.65-1.05,1.52-1.51,1.83-.29.2-.38.56-.61.81-.52.57-.58-.59-.54-.86.07-.51.18-1.31.65-1.61.37-.23.74-.53,1.15-.68.1-.04.21-.02.31.02.34.13.51.3.56.49"/>
      <path class="cls-6" d="M8.84,7.46c0,.7.71,1.27,1.6,1.27s1.6-.57,1.6-1.27-.72-1.27-1.6-1.27-1.6.57-1.6,1.27"/>
      <polygon class="cls-6" points="11.79 6.79 11.05 3.91 9.21 4.2 9.01 7.67 11.79 6.79"/>
      <path class="cls-8" d="M11.68,1.53c-.09,0-.18.02-.26.07.15-.47-.28-.97-.77-1.07-.43-.09-1.95.51-2.21.15-.08-.1-.05-.25-.08-.38-.08-.28-.47-.38-.72-.22-.24.16-.34.48-.32.77,0,.11.03.21.01.32-.02.11-.08.21-.13.31-.1.2-.16.43-.06.63.19.39,1.04.5,1.4.78.44.34.9.68,1.41.93.48.24,1.17.22,1.54.47.49-.46.79-1.13.81-1.8,0-.26-.03-.53-.2-.73-.1-.13-.27-.21-.43-.22"/>
      <path class="cls-1" d="M10.28,2.75c-.83.06-1.7-.17-2.3-.72-.41,2.75-.16,3.67.66,4.12.8.45,2.35-1.41,2.35-1.41l-.07-.58c-.53-.19-.66-.79-.63-1.41"/>
      <path class="cls-1" d="M10.62,4.67c.18.24.58.24.9,0,.32-.24.43-.63.26-.86-.18-.24-.58-.24-.9,0-.32.24-.43.63-.25.86"/>
      <path class="cls-9" d="M17.23,18.46l1.01,7.06c.05.36.35.64.72.67.44.03.82-.31.84-.76l.07-7.21c0-.64-.4-1.07-1.04-1.07h-.46c-.69,0-1.23.62-1.14,1.31"/>
      <path class="cls-12" d="M19.85,17.3c-.01-.15-.05-.3-.11-.44-.8-1.84-2.52-5.67-3.85-7.65-.36-.54-1.02-.78-1.55-.54-.39.18-1.02.38-1.04,1.34-.03,1.51.97,3.17,2.11,5.37.16.31,1.54,2.59,1.77,2.8l.24,1.99c.49.12,1,.1,1.5-.16.39-.2.71-.49,1-.82v-1.84s-.06-.06-.06-.06Z"/>
      <path class="cls-12" d="M16.02,31.38c.05.02.11,0,.13-.07.53-1.49,1.69-3.2,2.72-3.49.29-.08.48-.06.58.07.21.28.18,1.21.13,1.99,0,.1.05.2.12.23.07.03.14-.03.14-.12.09-1.37.02-2-.24-2.34-.24-.31-.57-.26-.83-.19-1.13.31-2.31,2.1-2.85,3.63-.03.08,0,.2.07.26.01.01.03.02.04.03"/>
      <path class="cls-5" d="M14.9,34.79s0,0,.01,0c.17.02.33.03.49.04.36.02.73.02,1.09,0,.1,0,.18,0,.23,0,.14-.02.29-.07.41-.09.2-.04.4-.1.61-.13.06-.02.1-.03.14-.04.2-.1.4-.2.6-.32.24-.15.53-.45.8-.54.09-.07.18-.13.27-.2.6-.44,1.2-.92,1.88-1.26.71-.36,1.46-.6,2.23-.71l-.21-2.24v-.15c-.01-.08-.08-.14-.16-.12l-1.12.23s-.08,0-.11-.04l-.73-.94c-.1-.14-.29-.18-.45-.09l-.74.41-5.6,3.25c-.17.1-.28.28-.3.47v.07s-.26,2.17-.26,2.17c.31.08.62.14.92.21"/>
      <path class="cls-5" d="M15.59,42.94c-.73-.29-1.45-.63-2.15-1.01.03.03.06.05.1.07l2.76,1.56c.18.11.39.17.6.17.01,0,.03,0,.04,0,.02,0,.05,0,.07,0,.02,0,.05,0,.07-.01h0s.05,0,.07-.01c0,0,0,0,0,0,.02,0,.04-.01.07-.02,0,0,0,0,0,0,.02,0,.04-.01.07-.02.02,0,.04-.02.06-.03.02-.01.05-.02.07-.03.02-.01.05-.03.07-.04l.03-.02c-.67-.15-1.32-.35-1.94-.6"/>
      <path class="cls-13" d="M17.05,32.94l-.11,10.79c-.22,0-.44-.05-.64-.17l-2.76-1.56c-.24-.15-.37-.42-.35-.7l1.05-8.89.05-.19c0-.07.1-.09.13-.03l.75,1.46c.08.15.27.21.42.12l1.46-.84Z"/>
      <path class="cls-2" d="M24.34,39.01c.01.28-.12.55-.36.7l-6.49,3.85s-.05.03-.07.04c-.02.01-.05.02-.07.03-.02,0-.04.02-.06.03-.02,0-.04.02-.07.02,0,0,0,0,0,0-.02,0-.04.01-.07.02,0,0,0,0,0,0-.02,0-.05.01-.07.01h0s-.05,0-.07,0c-.02,0-.05,0-.07,0-.01,0-.02,0-.04,0l.11-10.75,6.17-3.81c.11-.07.27,0,.27.14l.89,9.7Z"/>
      <path class="cls-12" d="M18.34,32.94c.08.03.13-.03.12-.12-.32-2.53-.25-4.94.56-5.16.36-.09.72.2.95.47.61.68,1.12,1.9,1.28,3.04.01.09.08.19.15.21.07.02.11-.04.1-.13-.17-1.27-.73-2.59-1.43-3.36-.41-.46-.84-.67-1.19-.57-.91.24-1.01,2.71-.67,5.42.01.09.07.17.13.2"/>
      <path class="cls-9" d="M17.82,27.99c.15-.16.27-1.99.44-2.37.74-1.67,2.33.62,2.18,1.64-.15,1.04-2.2,1.4-2.2,1.45,0,0,.05-.26.12-.46.06-.17.22-.51.22-.51-.02-.1-.09-.34-.23-.33,0,0-.18.19-.26.26-.11.11-.19.23-.28.32"/>
    </g>
  </g>
</svg>