<?xml version="1.0" encoding="UTF-8"?>
<svg id="Calque_2" xmlns="http://www.w3.org/2000/svg" xmlns:xlink="http://www.w3.org/1999/xlink" viewBox="0 0 18.72 31.86">
  <defs>
    <style>
      .cls-1 {
        opacity: .75;
      }

      .cls-2 {
        clip-path: url(#clippath-4);
      }

      .cls-3 {
        fill: #fff;
      }

      .cls-4 {
        fill: none;
      }

      .cls-5 {
        fill: #301d1a;
      }

      .cls-6 {
        fill: #e5e4e4;
      }

      .cls-7 {
        fill: #f29574;
      }

      .cls-8 {
        fill: #4c9f34;
      }

      .cls-9 {
        clip-path: url(#clippath-1);
      }

      .cls-10 {
        clip-path: url(#clippath-5);
      }

      .cls-11 {
        clip-path: url(#clippath-3);
      }

      .cls-12 {
        fill: #cecbcb;
      }

      .cls-13 {
        clip-path: url(#clippath-2);
      }

      .cls-14 {
        fill: #532d29;
      }

      .cls-15 {
        fill: #f7b699;
      }

      .cls-16 {
        fill: #f3f2f3;
      }

      .cls-17 {
        fill: #67a1d7;
      }

      .cls-18 {
        clip-path: url(#clippath);
      }

      .cls-19 {
        opacity: .5;
      }

      .cls-20 {
        fill: #91bf20;
      }
    </style>
    <clipPath id="clippath">
      <rect class="cls-4" x="15.44" y="12.26" width="3.28" height="6.94"/>
    </clipPath>
    <clipPath id="clippath-1">
      <rect class="cls-4" x="15.44" y="12.26" width="3.28" height="6.94"/>
    </clipPath>
    <clipPath id="clippath-2">
      <rect class="cls-4" x="15.61" y="15.59" width="2.94" height="3.43"/>
    </clipPath>
    <clipPath id="clippath-3">
      <rect class="cls-4" x="15.61" y="15.59" width="2.94" height="3.43"/>
    </clipPath>
    <clipPath id="clippath-4">
      <rect class="cls-4" x="16.99" y="16.23" width="1.43" height="2.76"/>
    </clipPath>
    <clipPath id="clippath-5">
      <rect class="cls-4" x="16.99" y="16.23" width="1.43" height="2.77"/>
    </clipPath>
  </defs>
  <g id="_Éléments_Mise_en_page" data-name="Éléments_Mise_en_page">
    <g>
      <path class="cls-14" d="M4.3,28.48s-.22.88-.18,1.22c.04.35.58.33,1.09.65.52.32,1.41.53,1.59.2.2-.37-.61-1.05-1.05-1.37-.44-.31-.46-.67-.46-.77,0-.1-.78-.73-.99.06"/>
      <path class="cls-8" d="M6.17,17.49s.2,1.88.24,3.4c.04,1.52-.98,7.81-.98,7.81,0,0-.52.38-1.21-.09,0,0,0-1.97,0-2.56,0-.58.13-2.01.13-2.01,0,0-.33-2.92-.41-3.92-.08-1-.23-3.03,2.24-2.64"/>
      <path class="cls-14" d="M2.72,29.75s-.18.63-.13.98c.05.35,1.14.89,1.52,1,.38.11,1.2.31,1.17-.26-.02-.45-.99-1.03-1.2-1.17-.21-.14-.42-.34-.41-.59.01-.25-.76-.56-.96.03"/>
      <path class="cls-20" d="M1.78,18.04s-.48,1.06-.25,2.21c.23,1.15.73,5.03.73,5.03l.3,4.61s.6.45,1.17-.04l.35-3.84.44-5.81s1.61-1.57,1.64-2.62c.03-1.05-3.95-.53-4.4.46"/>
      <path class="cls-8" d="M1.59,11.15s-.46.36-.66,1.36c-.19,1-.61,4.14.52,4.61,1.13.47,3.35-.94,3.35-.94l-3.21-5.03Z"/>
      <path class="cls-20" d="M1.43,11.83c-.13-.08-.17-.25-.09-.38.11-.16.31-.4.65-.66.64-.49,1.59-.89,2.03-.55.45.34.07,1.24-.92,1.72-.7.34-1.35.06-1.67-.14"/>
      <path class="cls-7" d="M8.18,14.17c-.42-.06-.63-.04-1.13-.4s-1.78-1.9-1.78-1.9c0,0-.32-.66-.17-.95.16-.29.28-.32.47-.2.19.12,2.58,2.66,2.68,2.81.1.15-.07.63-.07.63"/>
      <path class="cls-16" d="M4.94,10.24s.34-.13.67.16c.32.29,1.62,1.9,1.62,1.9,0,0-.21.73-.98.77,0,0-.84-.81-1.13-1.23-.3-.42-.57-1.38-.17-1.61"/>
      <path class="cls-6" d="M1.76,13.87l.1,2.13-.54,2.45s.12.55,1.07.69c.95.14,2.32.03,3-.33.77-.42.95-1.28.95-1.28l-.18-1.17s-.12-2.2-.1-3.19c.02-.99-.11-2.51-.88-2.79-.77-.28-2.85,1.14-3.28,1.69-.43.54-.14,1.8-.14,1.8"/>
      <path class="cls-15" d="M6.17,12.04c-.31-.05-.33.14-.13.23.2.1.48.28.48.28l.32-.23c-.08-.07-.37-.22-.67-.28"/>
      <path class="cls-8" d="M3.97,10.6s.27-.2.47-.25c.21-.04,1.65.67,1.93,2.25.16.87-.13,1.54-.13,1.54l-.15.97s-.33-.69-.28-1.22c.07-.65.17-.71.03-1.28-.16-.66-1.3-2.03-1.88-2"/>
      <path class="cls-7" d="M2.87,11.26l.43-1.29s1.42.52,1.57.9c0,0-.06.33-.17.66-.1.28-.03,1.05-1.83-.26"/>
      <path class="cls-15" d="M2.94,10.23s.76.75,1.19,1.04c.42.29.9.49,1.1.23.21-.25.52-.94.68-1.44.15-.5.22-1.03-.16-1.8-.39-.77-1.46-1.5-2.14-1.27-.68.23-1.1.71-1.15,1.5-.04.77.02,1.11.48,1.74"/>
      <path class="cls-14" d="M2.94,11.04s.13-.56-.22-.97c-.59-.69-.59-1.47-.47-1.88.12-.41.2-.98.76-1.19.55-.21.91-.31,1.28-.17.36.14.51.13.8.34.29.21.32.19.53.46.21.27.64.63.66.96.01.34-.41.84-1.08,1.05-.67.21-1.21.45-1.21.45,0,0-.47.19-.76.54-.29.35-.27.41-.27.41"/>
      <path class="cls-15" d="M3.48,10.74c.11-.1.18-.45-.06-.83-.22-.34-.51-.06-.37.35.14.4.32.58.43.48"/>
      <path class="cls-15" d="M8.5,13.58c-.17-.23-1.03-.77-1.13-.86-.11-.09-.44-.33-.52-.41l-.32.23c-.13.1-.62.07-.93.03-.31-.04-.35.12-.22.18.13.06.81.12.81.12,0,0-.51-.02-.71-.03-.2-.01-.25.12-.13.17.12.05.91.11.91.11,0,0-.52-.01-.7-.02-.18,0-.22.09-.11.15.11.06.91.12.91.12,0,0-.49,0-.71-.01-.22-.02-.25.12-.13.17.12.05.5.1,1.01.14.52.04.84-.23.84-.23,0,0,.16.27.57.62.41.35.74-.22.55-.48"/>
      <path class="cls-15" d="M4.52,13.66c-.08-.05-.53.04-.75.23l.36.28s.09-.18.26-.23c.17-.05.21-.23.12-.28"/>
      <path class="cls-8" d="M2.39,11.61s.2-.25.41-.3c0,0,.46.28.89.76.31.34,1.18,1.43.84,2.41-.19.55-2.17,1.43-2.66,1.53l-.05-.45s1.81-.27,2.27-1.07c.32-.54-.37-1.62-.74-2.07-.34-.42-.96-.8-.96-.8"/>
      <path class="cls-12" d="M.55,13.93s.21.74,1.36.86c0,0,.33-.83,0-1.2-.34-.37-.93-.12-1.35.34"/>
      <path class="cls-15" d="M5.23,14.03c-.12,0-.36.12-.6.19-.24.07-.5-.05-.5-.05l-.36-.28c-.22.19-.6.59-.6.59l-1.54.48s.3-.42.82-1.26c.52-.84.48-1.15.3-1.49-.18-.34-.62-.28-.77-.08-.14.2-1.39,2.21-1.39,2.21,0,0-.42.85-.55,1.14-.14.29.12.66.57.59.45-.07,2.64-.91,2.64-.91,0,0,.19.12.41.17.22.05,1.17-.08,1.4-.26.23-.17.05-.25.05-.25.25-.14.07-.24.07-.24.28-.11.11-.31.11-.31.13-.08.07-.24-.04-.24"/>
      <path class="cls-16" d="M.55,13.93s1.18-1.74,1.45-1.94c.27-.21.76-.1.95.36.24.6-.82,2.08-1.04,2.44,0,0-.27-.96-1.36-.86"/>
      <path class="cls-7" d="M17.22,11.85c-.19-.37-.62-.62-.62-.62,0,0-1.09-1.99-1.28-2.55-.19-.55-.32-2.31-.32-2.31-.25-.45-1.04.14-.98.69.06.56.18,1.93.41,2.36.23.44,1.8,1.99,1.8,1.99,0,0,.02.24.03.45.01.21.08.45.2.67.11.21.27.25.27.25l.61-.34s.21.13.2-.01c-.01-.14-.14-.22-.33-.59"/>
      <g class="cls-1">
        <g class="cls-18">
          <g class="cls-9">
            <path class="cls-17" d="M18.09,16.11c-.21-1.07-.15-1.46-.15-1.46,0,0,.17-1.33-.45-2.12-.15-.2-.29-.27-.4-.27-.34,0-.51.66-.51.66l-.16.71s-.2,1.02-.39,1.66c-.19.64-.66,1.54-.59,2.17.11.92.85,1.43,1.37,1.63.52.2,1.63.16,1.87-.5.2-.55-.42-1.6-.59-2.48M16.74,12.96c.05-.19.2-.54.36-.54.08,0,.17.08.28.21.41.52.42,1.24.39,1.6h-.19c-.37-.03-.7-.23-.89-.54l-.08-.12.13-.6Z"/>
          </g>
        </g>
      </g>
      <path class="cls-16" d="M13.64,5.77l.18,1.18s.32.18.8.09c.51-.1.6-.39.6-.39,0,0-.11-1.48-.13-1.88-.02-.4-.54-.86-1.27-.93-1.62-.16-.24,1.64-.19,1.93"/>
      <g class="cls-1">
        <g class="cls-13">
          <g class="cls-11">
            <path class="cls-14" d="M15.71,16.53c-.16.45-.11.95.1,1.38.1.2.22.41.37.57.4.41,1.05.68,1.7.46.65-.22.72-.54.65-.85-.07-.31-.59-1.26-.63-1.7-.04-.44-.32-.63-1.04-.79-.52-.11-.94.34-1.15.93"/>
          </g>
        </g>
      </g>
      <path class="cls-15" d="M16.44,12.47s.02.18.31.42c.14.11.22-.02.22-.02,0,0,.15-.01.15-.11,0,0,.11.05.14-.07,0,0,.16.01.13-.1-.03-.09-.14-.3-.19-.35-.06-.05-.16-.1-.15,0,0,0-.09-.09-.15-.03s-.04.11-.04.11c0,0-.15-.11-.19-.07-.04.04-.02.19-.02.19,0,0-.21-.13-.21.03"/>
      <path class="cls-17" d="M16.61,13.56s.86.07,1.16.67c0,0-.77.09-1.16-.67"/>
      <g class="cls-19">
        <g class="cls-2">
          <g class="cls-10">
            <path class="cls-3" d="M17.81,16.23c.15.28.28.56.39.85.11.29.22.6.22.94,0,.17-.03.34-.1.5-.08.16-.21.3-.37.38-.33.15-.67.09-.96,0,.31,0,.63-.02.86-.17.23-.15.32-.42.32-.71,0-.29-.08-.58-.15-.88-.08-.3-.15-.6-.21-.91"/>
          </g>
        </g>
      </g>
      <path class="cls-17" d="M13.34,22.28s-.22.88-.18,1.22c.04.35.58.33,1.09.65.52.32,1.41.53,1.59.2.2-.37-.61-1.05-1.05-1.37-.44-.31-.46-.67-.46-.77,0-.1-.78-.73-.99.06"/>
      <path class="cls-5" d="M15.21,11.29s.2,1.88.24,3.4c.04,1.52-.98,7.81-.98,7.81,0,0-.52.38-1.21-.09,0,0,0-1.97,0-2.56,0-.58.13-2.01.13-2.01,0,0-.33-2.92-.41-3.92-.08-1-.23-3.03,2.24-2.64"/>
      <path class="cls-17" d="M11.75,23.55s-.18.63-.13.98c.05.35,1.14.89,1.52,1,.38.11,1.2.31,1.17-.26-.02-.45-.99-1.03-1.2-1.17-.21-.14-.42-.34-.41-.59.01-.25-.76-.56-.96.03"/>
      <path class="cls-14" d="M10.82,11.84s-.48,1.06-.25,2.21c.22,1.15.73,5.03.73,5.03l.3,4.61s.6.45,1.17-.04l.35-3.84.44-5.81s1.61-1.57,1.64-2.62c.03-1.05-3.95-.53-4.4.46"/>
      <path class="cls-17" d="M10.46,12.72l.36-2.74s-.78-3.75-.66-4.18c.12-.43,2.02-1.85,2.69-2.03.68-.18,1.89.38,2.11,1.8.22,1.42.08,4.17.08,4.17l.3,2.13s-.46.79-1.7,1.06c-2.17.47-3.19-.21-3.19-.21"/>
      <path class="cls-7" d="M11.6,4.49s.16-.86.22-1.33c.06-.48,1.64.15,1.74.58s-.01,2.41-.01,2.41c0,0-.83-.44-1.94-1.66"/>
      <path class="cls-15" d="M11.6,3.44s.76.74,1.18,1.03c.42.29.89.48,1.1.23s.52-.94.67-1.44c.15-.5.22-1.02-.16-1.79C14.01.72,12.94,0,12.27.22c-.68.22-1.1.71-1.14,1.49-.04.77.02,1.11.47,1.73"/>
      <path class="cls-5" d="M11.64,4.24s.04-.62-.31-1.03c-.58-.68-.53-1.38-.41-1.79.12-.41.2-.97.75-1.18.55-.21.91-.31,1.27-.17.36.14.5.13.79.34.29.21.32.18.52.46.21.27.64.62.65.96.01.33-.64.88-1.84.79-.69-.05-.44.7-.44.7,0,0-.59-.03-.76.38-.06.15-.22.55-.22.55"/>
      <path class="cls-15" d="M12.15,3.95c.11-.1.18-.45-.06-.82-.21-.34-.5-.05-.37.34.14.4.32.57.43.48"/>
      <path class="cls-15" d="M10.92,8.25s-.19,1.03-.67,1.62c0,0,.38,1.32.6,1.85.22.53.49.91.49.91,0,0,.59.16.89.38.3.23.47.53.42.68-.05.15-.56-.29-.56-.29l.26.71s.31.25.41.34c.09.09.06.26-.13.25,0,0-.01.21-.25.1,0,0-.05.19-.27.04,0,0-.04.2-.26,0-.22-.2-.57-.58-.73-.91-.16-.33-.29-1-.29-1,0,0-1.36-2.34-1.52-2.73-.17-.39.02-1.62.29-2.15.26-.53,1.55-.57,1.33.19"/>
      <path class="cls-16" d="M9.38,8.14s.52-1.75.71-2.24c.19-.49.79-.76,1.27-.16.48.6.17,1.21.02,1.73-.15.52-.32,1.07-.32,1.07,0,0-.24.37-.87.15-.82-.29-.82-.55-.82-.55"/>
    </g>
  </g>
</svg>