<?xml version="1.0" encoding="UTF-8"?>
<svg id="uuid-a9f7c6b2-10bd-4e97-81e2-19bf45e0be24" data-name="Calque_2" xmlns="http://www.w3.org/2000/svg" viewBox="0 0 27.41 60.36">
  <defs>
    <style>
      .uuid-c5b29297-5cb2-40e6-a6d4-842625a4ed38 {
        fill: #009d4a;
      }

      .uuid-ccf1cd23-b015-48b6-a5c5-6ed9e7b66623 {
        fill: #ebeef8;
      }

      .uuid-cab62cb4-7c8a-4445-803e-3cde5e2f9c1b {
        fill: #f3aac6;
      }

      .uuid-2cb7e399-59cc-4ab3-92f7-49875905d575 {
        fill: #f18b6a;
      }

      .uuid-64a98577-d76a-42c6-b011-14a554616e44 {
        fill: #302879;
      }

      .uuid-fb65d8b8-4380-451a-bc7a-19d8f2d73ee4 {
        fill: #56adad;
      }

      .uuid-490ce59d-83bb-4991-843f-ce6db96179d7 {
        fill: #e53b11;
      }

      .uuid-6dc6d494-c001-468f-a29b-e35f7508e130 {
        fill: #1d1a30;
      }
    </style>
  </defs>
  <g id="uuid-cfaca2be-a50c-40aa-bb38-66fccbc2674c" data-name="Les_personnages">
    <g id="uuid-c74b9a82-6516-41dc-9360-6225c70f88c8" data-name="Chara_x5F_HommeBebe_x5F_BG">
      <path class="uuid-c5b29297-5cb2-40e6-a6d4-842625a4ed38" d="M21.04,10.93c0-.14,0-.28,0-.42,0-.13,0-.22-.04-.34-.05-.16-.02-.32-.05-.49-.02-.12-.03-.21-.03-.33,0-.13-.05-.25-.08-.38-.05-.19-.11-.38-.16-.57-.05-.19-.11-.39-.18-.58-.03-.08-.07-.15-.09-.23-.01-.04-.01-.08-.02-.11-.03-.12-.11-.23-.16-.35-.07-.19-.11-.38-.15-.58-.04-.24-.05-.48-.12-.71-.18-.58-.6-1.15-1.07-1.53-.81-.65-2.19-1.21-3.19-.65-.13.07-.24.16-.34.26-.56.58-.8,1.37-.89,2.16-.02.16,0,.35-.07.5-.02.04-.05.08-.06.12-.04.14-.06.31-.09.46-.04.2-.08.4-.12.6-.04.17-.07.35-.09.52-.02.16.02.33,0,.49-.02.13-.05.26-.07.39-.02.11-.03.22-.05.32-.06.32-.09.57-.32.79-.07.07-.12.13-.18.21-.09.11-.19.21-.27.33-.05.08-.08.19-.12.27-.07.15-.06.36,0,.52.07.2.14.42.35.51.2.08.32.27.5.39.1.07.22.11.34.16.05.02.1.04.15.07.18.09.38.19.58.23.19.05.37.12.56.16.14.03.29.08.44.11.43.11.89.06,1.32.14.32.06.67.03,1,.06.25.02.52,0,.77-.05.29-.07.59-.19.85-.32.14-.07.23-.17.35-.27.18-.14.39-.25.51-.44.11-.16.16-.38.2-.57.05-.2.11-.43.11-.64,0-.06,0-.12,0-.18"/>
      <path class="uuid-2cb7e399-59cc-4ab3-92f7-49875905d575" d="M10.05,19.76c-.09-.07-.21-.1-.32-.12-.58-.1-1.16-.21-1.74-.32-.01,0-.03,0-.04,0-.02.05-.05.11-.07.16l.1-.09c-.24.94-.48,1.87-.72,2.81-.34,1.32-.69,2.67-1.42,3.76-.42.63-.96,1.15-1.52,1.64-1.11.99-2.32,1.91-3.07,3.26.82.47,1.81.12,2.66-.28,1.57-.75,3.07-1.69,4.46-2.82.19-.15.38-.31.51-.52.14-.22.22-.47.29-.73.56-1.94,1.96-3.87,2.09-5.9.02-.27-1.04-.69-1.23-.85"/>
      <polyline class="uuid-6dc6d494-c001-468f-a29b-e35f7508e130" points="16.01 58.1 16.01 58.1 16.01 58.1"/>
      <path class="uuid-490ce59d-83bb-4991-843f-ce6db96179d7" d="M17.94,57.05s0,.04,0,.11c0,0,0-.06,0-.11"/>
      <path class="uuid-64a98577-d76a-42c6-b011-14a554616e44" d="M11.78,56.85c-.1.19-.22.34-.38.48-.35.31-1.32,1.42-.9,1.71.05.03.12.03.18.03.79-.05,1.49-.48,2.16-.9.47-.3.95-.74,1.08-1.3.03-.11.05-.24.03-.36-.03-.13-.08-.11-.16-.19-.14-.14-.14-.37-.28-.5-.15-.14-.3-.14-.5-.14-.33,0-.67.05-.88.35-.15.21-.19.48-.3.72-.02.04-.03.07-.05.1"/>
      <path class="uuid-c5b29297-5cb2-40e6-a6d4-842625a4ed38" d="M12.15,56.56s.04-.01.03-.03c0,.02-.01.03-.03.03"/>
      <path class="uuid-c5b29297-5cb2-40e6-a6d4-842625a4ed38" d="M17.94,56.58s0,0,0-.01c0,0,0,0,0,.01Z"/>
      <path class="uuid-c5b29297-5cb2-40e6-a6d4-842625a4ed38" d="M12.11,56.51s0,0,0,0c0,.03,0,.06,0,.06v-.05Z"/>
      <path class="uuid-c5b29297-5cb2-40e6-a6d4-842625a4ed38" d="M12.04,56.47s.05.02.06.03c0-.02,0-.03,0-.05-.01,0-.03,0-.04,0-.01.01,0,.01-.02.02"/>
      <path class="uuid-c5b29297-5cb2-40e6-a6d4-842625a4ed38" d="M12.1,56.42c0-.07-.01-.13-.01-.13-.06.02-.03.08.01.13"/>
      <path class="uuid-c5b29297-5cb2-40e6-a6d4-842625a4ed38" d="M12.1,56.45s0,0,0,0v-.02s0-.01-.01-.02c0,.01,0,.02,0,.03"/>
      <path class="uuid-64a98577-d76a-42c6-b011-14a554616e44" d="M17.93,56.25c.02.13-.07.21-.09.33-.02.11,0,.26,0,.37,0,.23,0,.42-.08.62-.12.33-.37.74-.58,1.01-.23.29-.44.58-.61.91-.19.38-.25,1.01.38.87.07-.02.15-.07.22-.11.08-.04.17-.04.25-.08.17-.07.33-.24.49-.33.14-.09.24-.17.37-.28.14-.12.31-.22.47-.33.28-.2.55-.37.8-.61.12-.12.27-.26.33-.41.04-.09.06-.19.09-.28.05-.12.09-.23.09-.36.02-.38.14-1.13-.32-1.23-.27-.06-.64,0-.91,0-.17,0-.25.05-.41.09-.13.03-.27-.04-.4.01,0,.03.01.07.02.1-.04-.04-.08-.08-.11-.28"/>
      <path class="uuid-c5b29297-5cb2-40e6-a6d4-842625a4ed38" d="M16.01,36.47l-.18.94c.07-.31.13-.63.18-.94"/>
      <path class="uuid-c5b29297-5cb2-40e6-a6d4-842625a4ed38" d="M23.71,30.54c.02.13.03.26.05.39.02,0,.04-.02.06-.03l-.1-.36Z"/>
      <path class="uuid-fb65d8b8-4380-451a-bc7a-19d8f2d73ee4" d="M21.39,31.36c-1.44.8-2.94,1.53-4.32,1.41-.22-.02-.44-.04-.66-.07-.97.09-1.96,0-2.96-.24-1.09-.27-2.34-1.84-3.37-2.28l.6,2.74c-.34,2.29-1.34,9.07-1.57,11.44-.08.32-.15.73-.08.94,0,0,1.98,8.51,3.09,11.05v.09s.06.06.07.08c0,0,0-.01,0-.02.15.32.28.52.39.55.87.25,1.2-.39,1.2-.39.52-7.78-1.2-10.31-1.2-10.31,0,0,2.41-4.69,3.43-9.88.4,0,.91-.22,1.3-.05-.21,1.54-.5,3.92-.73,5.46-.05.26-.09.51-.11.75-.13.9-.22,1.5-.22,1.5l.35,2.55-.06.91,1.31,9.37,2.21.61,1.1-13.89h0c.96-2.72,2.35-7.97,2.68-11.81.06-.7-.65-1.21-1.3-.93-.37.16-.75.31-1.14.43"/>
      <path class="uuid-ccf1cd23-b015-48b6-a5c5-6ed9e7b66623" d="M9.93,21.52c-.01.91-.02,1.91,0,2.73-.14,2.29.05,4.37.21,6.67,0,0,4.78,3.46,9.95,3.07,4.94-.37,3.75-1.41,3.82-3.97.17-1.6.13-3.14.14-4.75,0-.68.08.39,0-.68.1,0,.19-.01.28-.03.8-.12,3.03-.58,2.7-2.15,0-.04-.02-.08-.03-.12.62-2.73-.82-6.66-3-8.11q-1.29-.86-4.29-2.4c-.26-.13-.53-.22-.8-.33-.79-.31-1.6-.58-2.43-.7-4.95-.69-6.95,3.56-8.33,7.46-.12.11-.15.18-.07.21l-.19,1.06s-.07,1.81,2.04,2.03"/>
      <path class="uuid-2cb7e399-59cc-4ab3-92f7-49875905d575" d="M1.28,32.25c.44-.15,1.01-.54,1.17-1,.16-.44-.23-.99-.7-.98-.29,0-.54.18-.78.35-.36.26-.79.38-.97.81"/>
      <path class="uuid-cab62cb4-7c8a-4445-803e-3cde5e2f9c1b" d="M26.59,28.05s.01-.08.02-.12c0,.04-.01.08-.02.12"/>
      <path class="uuid-cab62cb4-7c8a-4445-803e-3cde5e2f9c1b" d="M15.65,1.51c.11-.32.38-.59.75-.66.38-.07.72.05,1.01.27.54.41.84,1.12.67,1.75-.02.06-.04.12-.07.17-.03.04-.09.09-.11.13-.05.1-.01.3,0,.41,0,.08-.03.13-.04.2-.01.08,0,.13-.04.21-.1.22-.34.33-.57.33-.13,0-.26.02-.37-.04-.09-.05-.18-.08-.23-.18-.05-.09-.1-.2-.1-.31,0-.07,0-.14,0-.21,0-.04-.04-.07-.04-.1,0-.02.01-.06,0-.07-.01-.06.03-.03-.05-.08-.06-.04-.14-.07-.2-.11-.12-.09-.23-.19-.31-.31-.27-.38-.45-.94-.29-1.38"/>
      <path class="uuid-64a98577-d76a-42c6-b011-14a554616e44" d="M19.24,2.72s-.04-.08-.05-.12c-.01-.06,0-.11,0-.16-.02-.08-.05-.16-.07-.24-.03-.07-.06-.16-.07-.24,0-.04,0-.09,0-.13,0-.04-.04-.06-.04-.1,0,0,0,0,0,0-.02-.08-.02-.17-.04-.25-.02-.06-.02-.12-.01-.18.05-.26,0-.38-.15-.62-.07-.11-.15-.21-.25-.3-.08-.08-.18-.12-.27-.19-.16-.12-.42-.2-.63-.15-.1.02-.21.08-.31.12-.07.03-.11.03-.18.04-.05,0-.07.03-.12.04-.07.02-.14-.01-.21,0-.06.01-.12.03-.18.05-.11.03-.21.06-.32.11-.14.06-.26.15-.38.23-.07.05-.08.08-.14.14-.03.03-.08.05-.11.09-.16.19-.3.45-.3.7,0,.11,0,.26.13.32.11.05.22-.02.32.03.15.06.27.12.44.13.26,0,.52-.07.75-.18.09-.04.13-.1.2-.18.14-.16.32-.03.44.09.13.13.12.34.12.53s-.02.37,0,.55c.01.15-.01.32.02.47.02.1.06.19.08.29.04.18.07.3.24.39.35.2.8-.1.98-.41.05-.08.07-.17.08-.26.01-.1.04-.18.04-.29,0-.09.02-.2,0-.29"/>
      <path class="uuid-cab62cb4-7c8a-4445-803e-3cde5e2f9c1b" d="M19.48,4.87c.45.56.8,1.31,1.17,1.99.35.66.76,1.44.45,2.19-.1.25-.51.34-.65.04-.05-.12-.11-.23-.17-.35-.21-.24-.39-.55-.57-.83-.4-.65-.8-1.31-1.08-2.08-.33-.91.34-1.58.85-.95"/>
      <path class="uuid-2cb7e399-59cc-4ab3-92f7-49875905d575" d="M27.03,22.41s1.08,5.5-.97,6.07c-2.05.57-2.07-5.66-2.07-5.66l3.03-.41Z"/>
      <path class="uuid-cab62cb4-7c8a-4445-803e-3cde5e2f9c1b" d="M13.86,10.6c-.25.27-.43.48-.45.5-.46.77.24,4.51.24,4.51l-.51,1.11c-.04.16.05.33.23.4.18.08.39.04.52-.09l.83-.82c.19-.19.31-.43.32-.69l.26-3.87.08-.04c.2-.11.37-.25.49-.42-.62-.47-1.3-.61-2.01-.59"/>
      <path class="uuid-2cb7e399-59cc-4ab3-92f7-49875905d575" d="M24,22.12s.51.45,1.82.35c1.95-.15,1.21-.76,1.21-.76,0,0,1.47,7.74-1.38,7.5-2.85-.24-1.66-7.09-1.66-7.09"/>
      <path class="uuid-2cb7e399-59cc-4ab3-92f7-49875905d575" d="M26.83,26.43c-.03-.35-.09-.68-.23-1.01-.22-.5-.35-1.03-.65-1.5-.26-.41-.47-.84-.76-1.22-.36-.48-.67-.96-1.05-1.43-.17-.21-.27-.45-.46-.65-.21-.22-.36-.44-.55-.68-.2-.27-.46-.48-.66-.74-.09-.11-.12-.21-.18-.33-.09-.17-.22-.28-.33-.44-.18-.26-.38-.5-.56-.76-.13-.18-.32-.31-.47-.48-.2-.22-.31-.5-.7-.24-.02.01-.04.03-.06.05-.05.01-.1.03-.15.05-.32.16-.35.55-.32.87.03.43.2.8.35,1.2.11.29.17.61.29.89.16.34.34.66.5,1,.31.67.59,1.34.9,2.01.35.74.6,1.49.95,2.23.3.63.59,1.23.89,1.85.15.32.31.57.51.85.09.12.09.22.21.33.4.37.75.69,1.35.64.42-.04.69-.35.89-.69.11-.18.16-.33.21-.53.06-.27.09-.48.1-.76,0-.18,0-.35-.01-.52M22.32,18.81c-.14-.2-.28-.4-.42-.61.15.19.29.4.42.61M26.55,27.5c0-.27-.03-.55-.07-.79-.1-.59-.28-1.2-.47-1.76,0-.02-.02-.05-.03-.07.41.83.78,1.66.57,2.62"/>
      <path class="uuid-2cb7e399-59cc-4ab3-92f7-49875905d575" d="M17.01,8.39c-.1.05-.19.13-.26.24-.03.04-.17.08-.21.11-.1.08-.15.17-.23.27-.11.13-.26.21-.38.33-.07.07-.13.14-.18.22-.08.12-.13.24-.15.38-.06.44-.02.91-.02,1.35,0,.06,0,.12,0,.18,0,.07.03.09.04.14.03.11.01.25.01.37,0,.22-.04.49,0,.71.08.4.29.84.67,1.04.22.12.46.14.68.25.09.04.16.07.25.05.22-.04.29-.19.49-.25.06-.02.08-.02.13-.04.05-.02.09-.06.14-.09.2-.12.26-.21.31-.43.02-.07.04-.1.04-.18,0-.05,0-.1,0-.15,0-.05.04-.07.05-.13,0-.06,0-.12,0-.18,0-.26.03-.48.05-.73,0-.13.05-.24.05-.38,0-.13,0-.23.02-.35.03-.23-.04-.5-.04-.73v-.81c0-.13.02-.27.03-.4.02-.16.1-.29.06-.45-.06-.24-.08-.48-.23-.68-.16-.2-.45-.33-.68-.21-.28.14-.52.26-.65.57"/>
      <path class="uuid-cab62cb4-7c8a-4445-803e-3cde5e2f9c1b" d="M18.34,11.29c-.36.39-.66.73-.68.77-.46.78.24,4.57.24,4.57l-.51,1.12c-.04.16.05.33.23.41.17.08.39.04.52-.09l.83-.83c.19-.19.31-.44.32-.69l.26-3.92.08-.04c.17-.09.32-.22.43-.35-.47-.57-1.02-.85-1.72-.93"/>
      <path class="uuid-2cb7e399-59cc-4ab3-92f7-49875905d575" d="M20.84,16.36c-.07-.25-1.15-2.08-1.45-1.63-.08.12.05.39-.02.47-.08.09-.49-.09-.64-.09-.32.02-.63.12-.6.49.02.22.14.39.23.57.15.31.26.54.48.82.21.26.48.49.79.63,0,.02,0,.04.02.07.19.32.7.24.95.06.42-.3.36-.95.24-1.39"/>
      <path class="uuid-cab62cb4-7c8a-4445-803e-3cde5e2f9c1b" d="M17.64,2.27s.02,0,.03,0c0-.01,0-.03,0-.04l-.03.05Z"/>
      <path class="uuid-cab62cb4-7c8a-4445-803e-3cde5e2f9c1b" d="M18.25,1.82c-.06-.05-.25-.07-.32-.03-.11.05-.17.2-.22.33,0,0-.01,0-.03,0,0,.03-.02.07-.02.11l.02-.04s-.01.05-.02.07c0,0,0,0,0,0,0,.08,0,.18.01.23.03.14.16.11.27.06.15-.08.34-.27.38-.43.03-.11,0-.24-.08-.3"/>
      <path class="uuid-c5b29297-5cb2-40e6-a6d4-842625a4ed38" d="M13.05,11.19c.08,0,.14,0,.21-.03.05-.02.08-.06.13-.08.13-.05.27-.09.4-.12.06-.02.12-.02.18-.03.07-.02.14-.04.2-.06.13-.03.28,0,.41-.02.26-.06.55,0,.8.09.1.04.22.08.3.16.03.03.07.06.1.09.02.02.04.02.06.04.02.02.01.05.04.07,0-.1-.02-.21,0-.3.01-.11.04-.2.04-.31,0-.24.04-.45.04-.69,0-.08.02-.19-.02-.26-.03-.05-.14-.12-.2-.13-.1-.03-.24-.05-.34-.05-.1,0-.22-.01-.32,0-.29.05-.58.26-.79.45-.09.08-.16.17-.25.24-.09.08-.21.15-.29.25-.14.17-.24.34-.41.48-.06.05-.13.08-.2.12-.06.03-.15.04-.19.09.12,0,.14.02.11,0"/>
      <path class="uuid-c5b29297-5cb2-40e6-a6d4-842625a4ed38" d="M20.88,11.08c-.09-.24-.37-.38-.54-.55-.09-.09-.19-.2-.26-.3-.07-.1-.13-.15-.24-.22-.07-.05-.12-.12-.2-.15-.07-.03-.16-.07-.24-.09-.06-.02-.1-.02-.14-.02-.05.14-.1.27-.16.41,0,.1,0,.17-.05.27-.1.2-.23.38-.36.56-.1.17-.2.35-.3.52-.07.11-.14.19-.23.26,0,0,.02,0,.03,0,.12.03.25.07.37.11.14.05.25.08.36.15.1.07.21.11.31.18.11.08.23.17.34.24.05.03.09.09.15.12.08.05.19.03.29.03.17,0,.37.02.53-.02.08-.02.14-.03.2-.09.08-.08.07-.17.09-.26.04-.17.08-.32.08-.5,0-.19.05-.46-.01-.63"/>
      <path class="uuid-2cb7e399-59cc-4ab3-92f7-49875905d575" d="M18.51,8.48c-.42.87-1.31,1.41-2.16,1.86-.16.08-.32.17-.47.24,0,0,0,0,0,0-.03.02-.06.03-.08.04-.12.06-.25.1-.39.12-.06,0-.13.01-.19,0-.27-.01-.53-.13-.68-.39-.16-.15-.27-.36-.27-.63,0-.42,0-.83.04-1.24,0-.03,0-.07,0-.1.04-.49.13-.98.3-1.45.02-.14.08-.26.15-.35.02-.03.03-.07.05-.1.34-.66,1.1-.6,1.52-.2.23-.05.48-.05.76.02.3.07.51.26.62.5.05.1.08.2.1.32.17.02.34.1.47.21.31.26.45.72.24,1.15"/>
      <path class="uuid-64a98577-d76a-42c6-b011-14a554616e44" d="M16.45,5.37c-.41.21-.78.55-1.23.65-.24.05-.49.03-.73.11-.22.07-.4.23-.57.39-.24.23-.47.47-.61.77-.14.29-.17.65,0,.9.19.3.58.4.95.36.6-.08,1.09-.56,1.6-.61.58-.05.93.21,1.5-.26.64-.53,1.16-1.62.5-2.21-.27-.24-.67-.34-1.04-.25-.13.03-.24.08-.36.14"/>
      <path class="uuid-64a98577-d76a-42c6-b011-14a554616e44" d="M19.21,7.28c-.05-.41-.21-.82-.55-.97-.42-.19-.83.08-1.07.49-.1.17-.05.38.07.51-.17.71,0,1.42.17,2.19.07.33.46.46.67.26.58-.53.82-1.64.71-2.48"/>
      <path class="uuid-2cb7e399-59cc-4ab3-92f7-49875905d575" d="M17.46,8.78c-.06-.19.1-.41.3-.44.2-.03.4.1.49.28.09.18.08.4,0,.59-.03.07-.07.14-.13.19-.17.14-.45.05-.58-.13-.13-.18-.16-.41-.18-.63l.09.15Z"/>
      <path class="uuid-cab62cb4-7c8a-4445-803e-3cde5e2f9c1b" d="M19.17,4.86s0-.04-.01-.06c-.02-.07,0-.11-.06-.15-.06-.05-.14-.06-.22-.05-.13.02-.23.09-.33.16-.08.05-.11.24-.15.33-.04.09-.06.22-.07.33-.01.19.03.34.19.45.13.09.31.05.41-.08.08-.11.13-.29.18-.42.06-.16.09-.34.07-.5M18.65,4.74s-.02.03-.03.05l.03-.05Z"/>
      <path class="uuid-cab62cb4-7c8a-4445-803e-3cde5e2f9c1b" d="M15.01,5.55c-.06-.12-.15-.16-.29-.23-.03-.01-.06-.03-.08-.04-.04-.07-.07-.17-.13-.2-.15-.08-.25.11-.3.18-.05.08-.12.18-.14.25-.01.04-.03.14,0,.18.03.03.11.04.15.05.06.02.13.04.18.07.04.03.05.07.1.1.07.05.15.13.25.15.38.07.36-.36.27-.52"/>
    </g>
  </g>
</svg>