<?xml version="1.0" encoding="UTF-8"?>
<svg id="Calque_2" xmlns="http://www.w3.org/2000/svg" viewBox="0 0 22.7 43.35">
  <defs>
    <style>
      .cls-1 {
        fill: #12100b;
      }

      .cls-2 {
        fill: #ebeef8;
      }

      .cls-3 {
        fill: #243268;
      }

      .cls-4 {
        fill: #523814;
      }

      .cls-5 {
        fill: #1397d5;
      }
    </style>
  </defs>
  <g id="_Éléments_Mise_en_page" data-name="Éléments_Mise_en_page">
    <g>
      <path class="cls-4" d="M12.78,39.97l-.39.24c-.35.21-.76.28-1.14.21-.13-.04-.26-.07-.37-.11-.12-.05-.23-.12-.33-.2-.03-.49-.08-1.1-.14-1.7.81.19,1.8-1.68,2.64-1.57,0,.13-.15,2.19-.15,2.32l-.11.81Z"/>
      <path class="cls-2" d="M9.49,42.44l.97-1.1.02-1.27s.04.03.06.04c.1.08.22.15.33.2.12.05.25.09.37.11.39.07.79,0,1.14-.21l.39-.24-.28,1.97c-.11.26-.32.48-.59.59l-1.79.77c-.17.07-.36.06-.51-.04-.28-.18-.33-.57-.11-.82"/>
      <path class="cls-4" d="M.39,19.44l3.28-2.24c.42-.29.73-.71.88-1.2.1-.35.19-.72.26-1.1.32-1.67.46-3.55,1.17-5.08.88.54,2.52.59,3.2,1.39-.32,1.46,0-.87-1.88,5.05-.24.76-.46,1.88-1.06,2.44-.18.17-.4.32-.63.42l-4.33,1.88c-.36.16-.8.08-1.06-.21-.36-.42-.26-1.03.17-1.33"/>
      <path class="cls-2" d="M21.78,31.03c-.31-.61-1.03-1-1.57-1.49-.06.1-.11.2-.17.29,0,.6-1.45.6-1.63,1.11.53.29,2.04.31,2.09,2.23.02.88.17,1.28.83.43.4-.51.52-1.13.59-1.77.04-.31-.02-.58-.14-.81"/>
      <path class="cls-3" d="M20.67,30.13l-.04.23c-.08.41-.34.76-.72.94l-.14.07c-.06.03-.13.05-.19.05-.05,0-.1,0-.15-.03-.38-.14-.77-.28-1.19-.42-3.58-1.24-8.36-2.7-8.92-6.81-.11-.86-.11-1.74-.11-2.62,0-.33-.08-.8,0-1.13.31-1.28,2.4-2.33,3.48-3.02v1.18s2.43,1.16,2.43,1.16l-.03.15c-.67,3.17-.91,6.02-.52,6.1.99.21,1.9.81,3.18,1.69.51.35,1.2.86,1.77,1.28.44.33.81.6.99.74.13.1.2.27.17.43"/>
      <path class="cls-3" d="M16.41,19.6c-1.25.24-2.52.75-2.74.84l-.08.03-.03.08c-.11.31-3.47,8.42-3.51,10,.01.71.03,1.42.05,2.13.05,1.27.09,3.96.15,5.57,0,.24.13.46.34.6l.06.04c.65.43,1.49.43,2.14,0,.13-.08.22-.23.23-.38.1-1.29.22-3.37.34-4.23.52-4,2.5-7.28,4.37-10.78.95-1.48,1.24-5.95,1.24-7.76l-2.54,3.86Z"/>
      <path class="cls-5" d="M19.57,17.89c.14-2.01-.42-4.33-.61-5.98-.37-1.08-.78-2.14-1.2-3.19-.73-.9-1.65-1.66-2.89-2.34-1.98-1.1-6.25-3.07-7.71-.26-.66,1.27-.06,3.91.06,5.65.17.12.29.31.31.56.22,2.12.28,2.19.83,4.36.04.02.54,3.27.58,3.29-.08.86-.06.81,1.08,1.47,2.11,1.22,5.53,1.22,7.64,0,1.31-.76,1.8-2.07,1.9-3.55"/>
      <path class="cls-5" d="M9.33,4.76v.13c.08,0,.17-.01.26-.01-.09-.04-.18-.07-.26-.12"/>
      <path class="cls-4" d="M12.66,7.08h0c-.69.23-1.44-.14-1.67-.83l-1.01-3.01,2.51-.84,1.01,3.01c.23.69-.14,1.44-.83,1.67"/>
      <path class="cls-4" d="M13.4,2.92c-.38.77-1.17,1.26-1.93,1.66-.14.07-.29.15-.42.22,0,0,0,0,0,0-.03.02-.05.03-.08.04-.1.06-.22.09-.35.1-.06,0-.11,0-.17,0-.24-.01-.48-.12-.6-.34-.14-.13-.24-.32-.24-.56,0-.37,0-.74.03-1.11,0-.03,0-.06,0-.09.04-.44.11-.87.27-1.29.02-.12.07-.23.14-.31.01-.03.03-.06.04-.09.3-.59.98-.54,1.35-.18.2-.04.43-.05.68.02.26.06.45.23.56.45.05.09.07.18.08.28.16.02.3.09.42.18.28.23.4.64.22,1.02"/>
      <path class="cls-1" d="M11.57,0c-.07,0-.14,0-.21.01-.62.06-1.49.75-1.83,1.31-1.02,1.68,1,1.97,2.17,1.38C13.11,1.99,13.54-.05,11.57,0"/>
      <path class="cls-1" d="M14.02,1.85c-.05-.36-.19-.73-.49-.86-1.29-.58-1.91,2.09-.91,2.8,1.14.81,1.52-.96,1.4-1.94"/>
      <path class="cls-4" d="M12.32,3.56c-.07-.2.12-.43.35-.47.23-.04.47.1.57.29.1.19.09.42,0,.62-.03.07-.08.15-.15.2-.2.15-.52.05-.67-.14-.15-.19-.18-.43-.21-.67l.11.16Z"/>
      <path class="cls-1" d="M12.18,3.85h0c-.19,0-.34-.15-.34-.33v-1.16c0-.18.15-.33.34-.33s.33.15.33.33v1.16c0,.18-.15.33-.33.33"/>
      <path class="cls-5" d="M7.54,5.32s-1.62,1.27-2.24,6.67c0,0,0,1.9,2.98,2.21,3.19.33,2.1-6.9,2.1-6.9l-2.84-1.99Z"/>
      <path class="cls-4" d="M19.72,10.91c.11-.06.21-.11.28-.14.03-.01.06-.03.1-.04.8,1.09,1.4,2.3,1.81,3.57.36,1.15.57,2.34.6,3.56l.05,1.82.13,4.32c-.05.39-.38.69-.77.7-.46.01-.84-.37-.82-.83l-.99-4.11-1-4.11-.77-1.24-.17-.26c.61-1.02,1.1-2.13,1.55-3.24"/>
      <path class="cls-5" d="M19.33,9.77c-.63-.7-1.33-1.31-2.11-1.73-.23.35-.55.63-.95.77-.18.06-.35.15-.52.22,0,0-.02.02-.03.02-.01.04-.03.08-.05.11-.02.12-.04.29-.05.43,0,.02,0,.04,0,.06,0,.07.02.14.02.21.02.12.03.24.05.35.03.15.06.3.09.44l2.52,3.98.8,1.01c1.78.39,2.8-1.35,2.8-1.35-.53-1.67-1.4-3.22-2.58-4.53"/>
      <path class="cls-4" d="M20.67,30.13l-.04.23c-.08.41-.34.76-.72.94l-.14.07c-.06.03-.13.05-.19.05-.05,0-.1,0-.15-.03-.38-.14-.77-.28-1.19-.42.43-.24,1.06-.79,1.28-2,.44.33.81.6.99.74.13.1.2.27.17.43"/>
    </g>
  </g>
</svg>