<?xml version="1.0" encoding="UTF-8"?>
<svg id="uuid-0ece7fd3-a964-48be-b2da-85547950834c" data-name="Calque_2" xmlns="http://www.w3.org/2000/svg" viewBox="0 0 62.04 83.53">
  <defs>
    <style>
      .uuid-89f80b0c-3f28-4011-be96-ed4cd47bc907 {
        fill: #ceab9a;
      }

      .uuid-2daf7f15-b0cd-4c52-a9d8-c9d0eee5228c {
        fill: #c7c4c3;
      }

      .uuid-587b2efc-d4fb-4620-be26-1f74a42c1578 {
        fill: #f2cebd;
      }

      .uuid-2e5d2cae-e4b5-4bcb-be34-771331ba9970 {
        fill: #403c3a;
      }

      .uuid-db21d8ef-a59c-41cd-9649-a50bf0312b54 {
        fill: #bfcbe1;
      }

      .uuid-f7a7aaf2-1646-440b-9ed5-f831851e01ae {
        fill: #fff;
      }

      .uuid-67303605-394d-471a-8a85-396d38dc162f {
        fill: #878482;
      }

      .uuid-b662285a-3c21-4344-a037-09233fffe8cb {
        fill: #4e4a49;
      }

      .uuid-61994e9c-34d7-4a24-8838-6c94c3b2dfb0 {
        fill: #d52f16;
      }

      .uuid-13c37f4b-0a2c-4408-abcd-2027e1fd4f1f {
        fill: #39bbd7;
      }

      .uuid-6e101292-ba2e-4edd-833b-54b0c622bf26 {
        fill: #15130f;
      }

      .uuid-454be0a6-1a81-4379-a6a8-58f3fadb14bc {
        fill: #b7b3b3;
      }

      .uuid-5ead6655-ee34-430f-bdf9-2c28949f33ee {
        fill: #e65239;
      }

      .uuid-8386f0d5-28a8-468b-bd5d-77dfa9bdea10 {
        fill: #ef8028;
      }

      .uuid-6c63832a-e8e8-480c-a71e-9370968a8a71 {
        fill: #fcc84c;
      }

      .uuid-e61a0dda-0ac8-4746-890b-3207654244ea {
        fill: #ffec74;
      }

      .uuid-292f4141-b4cf-4463-af4d-637675c2da7f {
        fill: #f4a612;
      }

      .uuid-2d6f0e72-e821-46cb-ad60-b5af4ae5556f {
        fill: #2c2926;
      }

      .uuid-cf04027b-6b1b-49fa-9b18-b1cb0f39e3b0 {
        fill: #1e6975;
      }
    </style>
  </defs>
  <g id="uuid-9199d192-fde2-4308-9016-27edccb86561" data-name="Les_personnages">
    <g id="uuid-d22db1ab-ae15-44af-8d49-3c5d390f12c4" data-name="Chara_x5F_FemmeScooter_x5F_BD">
      <path class="uuid-2d6f0e72-e821-46cb-ad60-b5af4ae5556f" d="M7.95,42.64h0s.02-.01.02-.01c0,0-.01,0-.02.01"/>
      <path class="uuid-2d6f0e72-e821-46cb-ad60-b5af4ae5556f" d="M19.41,62.52h0s.04-.02.05-.03l-.05.03Z"/>
      <path class="uuid-6e101292-ba2e-4edd-833b-54b0c622bf26" d="M12.61,39.94l.06-.03h0c1.46-.8,3.46-.67,5.66.6,4.49,2.58,8.12,8.88,8.12,14.05,0,2.7-.99,4.55-2.57,5.35l-4.41,2.57-11.47-19.88,4.56-2.64s.03-.02.05-.03"/>
      <path class="uuid-2e5d2cae-e4b5-4bcb-be34-771331ba9970" d="M13.72,43.18c4.49,2.58,8.12,8.88,8.12,14.06s-3.63,7.28-8.12,4.7c-4.49-2.59-8.12-8.88-8.12-14.06s3.64-7.28,8.12-4.7"/>
      <path class="uuid-67303605-394d-471a-8a85-396d38dc162f" d="M17.06,57.88c-.82.6-2.01.58-3.34-.19-2.46-1.41-4.45-4.87-4.45-7.7,0-1.53.58-2.57,1.5-2.99-.7.51-1.12,1.46-1.12,2.77,0,2.84,2,6.29,4.45,7.7,1.14.66,2.17.76,2.96.41"/>
      <path class="uuid-454be0a6-1a81-4379-a6a8-58f3fadb14bc" d="M18.17,55.12c0,1.3-.42,2.25-1.11,2.76-.79.36-1.82.25-2.96-.41-2.45-1.42-4.45-4.86-4.45-7.7,0-1.31.42-2.26,1.12-2.77.79-.35,1.82-.24,2.95.41,2.46,1.42,4.45,4.86,4.45,7.7"/>
      <path class="uuid-f7a7aaf2-1646-440b-9ed5-f831851e01ae" d="M14.1,51.33c.48.28.87.95.87,1.51s-.39.78-.87.5c-.48-.28-.87-.95-.87-1.51s.39-.78.87-.5"/>
      <path class="uuid-454be0a6-1a81-4379-a6a8-58f3fadb14bc" d="M22.5,32.18c-2.54-1.46-4.84-1.63-6.54-.72h-.02c-.06.05-.13.08-.19.12l-3.75,2.16,1.22,2.1c-.09.55-.14,1.14-.14,1.78,0,.81,14.77,15.31,14.77,15.31l3.83-2.21c.14-.67.22-1.42.22-2.23,0-6-4.21-13.3-9.41-16.3"/>
      <path class="uuid-67303605-394d-471a-8a85-396d38dc162f" d="M9.47,42.31c-.14-.84-.22-1.68-.22-2.48,0-6,4.22-8.43,9.42-5.43,5.2,3,9.41,10.3,9.41,16.3,0,.81-.08,1.55-.22,2.23l-18.38-10.61Z"/>
      <polygon class="uuid-e61a0dda-0ac8-4746-890b-3207654244ea" points="32.86 65.45 21.36 58.81 22.44 56.05 27.61 53.06 32.26 52.52 43.76 59.16 32.86 65.45"/>
      <path class="uuid-292f4141-b4cf-4463-af4d-637675c2da7f" d="M33,40.91c-1.23-.71-15.14-8.74-15.14-8.74,0,0-3.27-1.89-6.12-.18l-5.46,3.16,17.05,19.81,4.37,2.6,5.3-1v-2.07l-.08-.09c-.78-.92-7.06-5.56.08-13.49"/>
      <path class="uuid-6c63832a-e8e8-480c-a71e-9370968a8a71" d="M12.56,35.23s13.9,8.03,15.14,8.74c-7.59,8.44,0,13.58,0,13.58v1.68C4.55,45.87,5.73,46.56,2.31,44.58c0-7.87,1.84-8.04,3.97-9.43,2.88-1.88,6.28.08,6.28.08"/>
      <path class="uuid-6e101292-ba2e-4edd-833b-54b0c622bf26" d="M32.56,38.31l-14.7-9.56c-.25-.17-.49-.21-.66-.13l-5.36,3.09,16.11,12.05,5.27-3.04c.17-.1.28-.31.28-.61v-.07c0-.6-.43-1.38-.95-1.73"/>
      <path class="uuid-2e5d2cae-e4b5-4bcb-be34-771331ba9970" d="M11.61,32.28c0-.6.43-.81.95-.47l14.7,9.56c.52.35.95,1.12.95,1.73v.07c0,.6-.43.85-.95.55l-14.69-8.49c-.52-.3-.95-1.04-.95-1.64v-1.31Z"/>
      <path class="uuid-f7a7aaf2-1646-440b-9ed5-f831851e01ae" d="M38.99,53.87c.89,1.97,3.98,4.32,4.08,4.8.1.48-.26,1.51-1.13,1.41-1.9-.2-3.74-2.22-4.52-2.96-.7-.67-2-.83-2.67-1.78-.73-1.02.67-2.7.67-2.7,0,0,3.45.79,3.57,1.22"/>
      <path class="uuid-61994e9c-34d7-4a24-8838-6c94c3b2dfb0" d="M26.44,35.93c7.37,4.62,10.79,5.84,11.92,6.72-1.71,3.06-1.63,6.3-3.15,10.11-.79,1.68,3.31,3.12,3.76,1.21,1.38-6.04,4.53-10.69,4.53-11.71,0-.61-.81-2.35-1.4-2.8-5.34-4.05-9.06-9.86-14.02-11.75-1.05-.43-2.26.88-2.26.88l-2.8,4.88s3.28,2.13,3.44,2.47"/>
      <polygon class="uuid-6c63832a-e8e8-480c-a71e-9370968a8a71" points="27.7 57.56 30.87 59.39 35.67 63.84 27.7 59.23 26.99 57.82 27.7 57.56"/>
      <polygon class="uuid-292f4141-b4cf-4463-af4d-637675c2da7f" points="40.97 60.78 35.66 63.84 30.87 59.39 36.17 56.33 40.97 60.78"/>
      <polygon class="uuid-e61a0dda-0ac8-4746-890b-3207654244ea" points="30.87 59.39 27.7 57.56 33 54.5 36.17 56.33 30.87 59.39"/>
      <polygon class="uuid-8386f0d5-28a8-468b-bd5d-77dfa9bdea10" points="33.3 66.69 44.2 60.4 53.17 51.3 52.48 50.32 42.27 57.59 36.71 62.05 33.3 66.69"/>
      <path class="uuid-454be0a6-1a81-4379-a6a8-58f3fadb14bc" d="M13.25,37.52c-2.54-1.47-4.84-1.64-6.54-.73h-.02c-.07.05-.13.08-.19.12l-3.75,2.16,1.22,2.1c-.09.55-.14,1.14-.14,1.78,0,.81,14.77,15.31,14.77,15.31l3.83-2.21c.14-.68.22-1.42.22-2.23,0-6-4.22-13.3-9.41-16.3"/>
      <path class="uuid-67303605-394d-471a-8a85-396d38dc162f" d="M.22,47.65c-.14-.84-.22-1.68-.22-2.48,0-6,4.21-8.43,9.42-5.43,5.2,3,9.41,10.3,9.41,16.3,0,.81-.08,1.55-.22,2.23L.22,47.65Z"/>
      <path class="uuid-6e101292-ba2e-4edd-833b-54b0c622bf26" d="M46.28,42.13h0c0,.17-.11.34-.33.46-.44.26-1.17.26-1.61,0-.23-.13-.34-.31-.33-.49v-6.59s2.27,0,2.27,0v6.6h0Z"/>
      <path class="uuid-2e5d2cae-e4b5-4bcb-be34-771331ba9970" d="M45.95,35.99c-.44.26-1.17.26-1.61,0-.45-.26-.45-.67,0-.93.44-.26,1.17-.26,1.61,0,.44.26.45.67,0,.93"/>
      <path class="uuid-6e101292-ba2e-4edd-833b-54b0c622bf26" d="M54.76,29.58c0-.3-.21-.65-.46-.79-.13-.08-.25-.08-.33-.03l-3.89,2.22.65,1.13,3.82-2.2h0c.13-.02.21-.14.21-.33"/>
      <path class="uuid-b662285a-3c21-4344-a037-09233fffe8cb" d="M50.88,31.81c0,.29-.2.41-.46.27-.25-.14-.46-.5-.46-.8s.21-.41.46-.26c.25.14.46.5.46.79"/>
      <path class="uuid-454be0a6-1a81-4379-a6a8-58f3fadb14bc" d="M50.88,31.81c0-.29-.21-.65-.46-.79-.13-.08-.25-.08-.33-.03l-2.35,1.36.64,1.11,2.35-1.35s0,0,0,0h0c.08-.06.13-.16.13-.3"/>
      <path class="uuid-2daf7f15-b0cd-4c52-a9d8-c9d0eee5228c" d="M48.54,33.16c0,.29-.21.41-.46.27-.25-.14-.46-.5-.46-.8s.21-.41.46-.26c.25.15.46.5.46.79"/>
      <path class="uuid-292f4141-b4cf-4463-af4d-637675c2da7f" d="M47.14,31.44h0c.21-.12.51-.1.83.08.66.38,1.19,1.3,1.19,2.06,0,.4-.14.67-.38.78l-6.77,3.91-1.68-2.91,6.79-3.92s0,0,0,0"/>
      <path class="uuid-6c63832a-e8e8-480c-a71e-9370968a8a71" d="M41.18,35.45c.66.38,1.19,1.3,1.19,2.06s-.53,1.07-1.19.69c-.66-.38-1.19-1.3-1.19-2.06s.53-1.07,1.19-.69"/>
      <path class="uuid-2e5d2cae-e4b5-4bcb-be34-771331ba9970" d="M51.83,37.56l.16-.14-.85-.49c-.69-.37-1.61-.3-2.63.29l-3.31,1.91c-2.09,1.21-3.8,4.16-3.8,6.58v11.4l.86.5,10.04-18.18c0-.77-.18-1.39-.48-1.85"/>
      <path class="uuid-292f4141-b4cf-4463-af4d-637675c2da7f" d="M53.17,51.3l-10.9,6.29v-11.4c0-2.41,1.71-5.37,3.8-6.57l3.31-1.91c2.09-1.2,3.8-.22,3.8,2.19v11.4Z"/>
      <path class="uuid-6c63832a-e8e8-480c-a71e-9370968a8a71" d="M46.51,33.65c-1.42,0-2.57,1.16-2.57,2.58s1.15,2.58,2.57,2.58,2.58-1.16,2.58-2.58-1.16-2.58-2.58-2.58"/>
      <path class="uuid-292f4141-b4cf-4463-af4d-637675c2da7f" d="M48.17,34.93c-1.15.66-2.07,2.26-2.07,3.59s.92,1.85,2.07,1.2c1.15-.66,2.07-2.28,2.07-3.59s-.93-1.86-2.07-1.2"/>
      <path class="uuid-e61a0dda-0ac8-4746-890b-3207654244ea" d="M47.36,34.46c-1.14.65-2.07,2.27-2.07,3.59,0,.7.25,1.18.67,1.37l.75.43c-.37-.21-.6-.68-.6-1.34,0-1.33.92-2.93,2.07-3.59.54-.31,1.03-.35,1.4-.18l-.75-.43c-.37-.22-.89-.18-1.47.15"/>
      <path class="uuid-e61a0dda-0ac8-4746-890b-3207654244ea" d="M49.3,35.26c.23.2.38.54.38.99,0,1.06-.75,2.35-1.67,2.87-.43.25-.82.29-1.11.14.3.26.76.26,1.28-.04.91-.53,1.66-1.81,1.66-2.86,0-.56-.21-.94-.54-1.1"/>
      <path class="uuid-db21d8ef-a59c-41cd-9649-a50bf0312b54" d="M48.17,35.4c-.92.52-1.66,1.81-1.66,2.87,0,.46.15.79.38.99.3.15.69.11,1.11-.14.92-.53,1.67-1.81,1.67-2.87,0-.45-.15-.8-.38-.99-.3-.14-.69-.11-1.12.14"/>
      <path class="uuid-454be0a6-1a81-4379-a6a8-58f3fadb14bc" d="M41.66,37.13c0-.29-.21-.65-.46-.79-.13-.08-.25-.08-.33-.02h0s-2.12,1.23-2.12,1.23l.59,1.15,2.18-1.26s0,0,0,0h0c.08-.05.13-.15.13-.3"/>
      <path class="uuid-6e101292-ba2e-4edd-833b-54b0c622bf26" d="M39.55,38.37c0-.29-.2-.65-.46-.79-.13-.08-.25-.08-.34-.03l-3.88,2.22.65,1.12,3.82-2.2h0c.12-.02.21-.14.21-.33"/>
      <path class="uuid-2e5d2cae-e4b5-4bcb-be34-771331ba9970" d="M35.67,40.59c0,.29-.21.41-.46.26-.25-.14-.46-.5-.46-.79s.21-.41.46-.27c.25.15.46.5.46.8"/>
      <path class="uuid-587b2efc-d4fb-4620-be26-1f74a42c1578" d="M40.03,22.28c-.33-.38-6.07-8.59-7.03-9.61-1.28-1.35-3.05-.88-3.05-.88l-.66,4.18,2.3,1.87s5.25,5.76,6.03,6.29c2.34,2.4,6.92,2.73,10.38,4.67,0,0,1.8-.27,1.61-1.43-4.39-1.99-6.95-3.94-9.57-5.08"/>
      <path class="uuid-587b2efc-d4fb-4620-be26-1f74a42c1578" d="M47.99,28.79s.35,1.16.55,1.51c.25.43,1.04,1,1.04,1l.83-.48c.58.09.78,1.07.14,1.42.03.03.67.43,1.28.02,1.07-.74,2.05-2.48,1.31-3.26-.3-.46-3.39-1.54-3.54-1.63-.72-.31-1.07.49-1.07.49l-.55.94Z"/>
      <path class="uuid-89f80b0c-3f28-4011-be96-ed4cd47bc907" d="M30.73,14.04s.89-.02,1.07-.52c.22-.66.22-1.4.22-1.4h-.89l-1.17,1.29.77.63Z"/>
      <path class="uuid-f7a7aaf2-1646-440b-9ed5-f831851e01ae" d="M30.18,58.85s.57,1.65,4.32,4.31c.34.26.16,1.36.16,1.36,0,0-1.5,1.34-3.33.39-1.79-.92-5.12-3.48-5.16-4.02-.04-.53.05-1.52.25-2.57.28.1,3.77.52,3.77.52"/>
      <path class="uuid-5ead6655-ee34-430f-bdf9-2c28949f33ee" d="M15.29,29.46s-.78,4.5,2.48,7.73c2.76,2.73,11.11,9.42,11.54,9.83-1.28,2.54-1.51,8.98-2.87,11.25-.69,1.22,3.4,2.76,3.74.59,1.79-8.33,4.14-9.02,4.28-10.28.14-1.26.08-2.25-.42-3.01-1.81-2.77-3.7-6.22-9.31-12.76.72-1.01.64-2.76.64-2.76.43-.35-10.08-.58-10.08-.58"/>
      <path class="uuid-f7a7aaf2-1646-440b-9ed5-f831851e01ae" d="M16.98,27.02c-.53.63-1.22,1.16-1.61,2.13-.39.97.34,3.09,3.46,3.58,7.44.67,9.46-4.44,9.38-4.84-.14-.71,0-1.03,0-1.03,0,0-10.76.12-11.22.16"/>
      <path class="uuid-89f80b0c-3f28-4011-be96-ed4cd47bc907" d="M24.68,10.36c.08.63-.25,1.22-.25,1.22l-.97,1.14.09,1.27.56,1.24,1.71.64,1.47.13,1.28-.76.49-1.43-.08-1.62-1.76-1.48-1.43-.66s-.94.13-1.11.31"/>
      <path class="uuid-f7a7aaf2-1646-440b-9ed5-f831851e01ae" d="M24.43,11.58s-.28,1.74.22,2.59c.5.85,2.93,1.14,2.93,1.14,0,0,.97-1.06,1.28-2.11.05-.15,1.24.39,1.24.39l-.49,3.31-2.66.71-4.29-3.01.91-2.25.87-.77Z"/>
      <path class="uuid-13c37f4b-0a2c-4408-abcd-2027e1fd4f1f" d="M29.07,13.18c.04,1.44-1.37,2.89-1.37,2.89,0,0-2.94-.37-3.62-1.58-.68-1.21.35-2.92.35-2.92,0,0-3.9,2.15-5.6,4.76.08.37-.29,1.38-.55,2.03-.59,2.73.25,4.66-1.22,8.32-.42,1.05.6,3.89,4.23,4.07,3.63.18,6.91-3.89,6.91-3.89l1.19-2.48s2.4-1.26,3-2.98c.55-1.59-1.38-5.57-1.58-6.56-.2-.98,0-1.89,0-1.89,0,0-1.78-1.22-1.74.22"/>
      <path class="uuid-587b2efc-d4fb-4620-be26-1f74a42c1578" d="M31.58,4.53s1.07,1.86.68,3.85c.46,2.39-.4,4.06-.57,4.74-.17.68-.69,1.01-1.51.94-.82-.08-2.7-.66-3.74-1.58-.39-.52-.59-1.73-.59-1.73,0,0-.95.15-1.45-.78-.29-.23-1.73-1.2-1.31-2.64.42-1.45,4.55-3.66,4.55-3.66l3.95.86Z"/>
      <path class="uuid-6c63832a-e8e8-480c-a71e-9370968a8a71" d="M25.06,2.82c0,.82-.65,1.49-1.46,1.49s-1.46-.67-1.46-1.49.65-1.49,1.46-1.49,1.46.67,1.46,1.49"/>
      <path class="uuid-8386f0d5-28a8-468b-bd5d-77dfa9bdea10" d="M24.39,9.97s-.72-1.37.12-1.48c.85-.1,1.39,1.76,1.74,1.15.86-1.47,1.34-.92,1.97-2.82.18-.55,3.24-.14,3.36-2.19.12-2.05-4.81-5.01-8.05-2.08-3.24,2.93-1.79,5.88-1.27,6.47,1.01,1.14,2.13.94,2.13.94"/>
      <path class="uuid-587b2efc-d4fb-4620-be26-1f74a42c1578" d="M22.75,17.75c1.25,2.31,5.24,8.92,5.13,10.39,2.12,1.67,3.61,4.44,7.25,7.78.51.25,2.94.24,3.36.41.41.17,1.27,1.15,1.37,1.44.1.29.03,1.36-.44,1.66-.47.31-2.39,1.44-2.59.73-.05-.16.39-.36-.04-.83-.46-.5-.86-.17-.86-.17,0,0-1.4-.13-1.84-1.25-3.22-2.62-8-4.96-8.71-7.88-.53-.96-5.66-7.53-6.74-10.34-.85-2.2-.18-3.25.6-3.65,1.83-.93,2.99.73,3.51,1.7"/>
      <polygon class="uuid-2e5d2cae-e4b5-4bcb-be34-771331ba9970" points="41.58 56.61 32.86 65.45 21.36 58.81 21.36 59.8 33.3 66.69 42.27 57.59 41.58 56.61"/>
      <path class="uuid-2d6f0e72-e821-46cb-ad60-b5af4ae5556f" d="M43.45,63.14h0s.02-.01.02-.01c0,0-.01,0-.02.01"/>
      <path class="uuid-2d6f0e72-e821-46cb-ad60-b5af4ae5556f" d="M54.91,83.02h0s.04-.02.05-.03l-.05.03Z"/>
      <path class="uuid-6e101292-ba2e-4edd-833b-54b0c622bf26" d="M48.11,60.44l.05-.03h0c1.46-.8,3.46-.66,5.66.6,4.49,2.58,8.12,8.88,8.12,14.05,0,2.7-.99,4.55-2.56,5.35l-4.41,2.57-11.48-19.88,4.56-2.64s.03-.02.05-.03"/>
      <path class="uuid-2e5d2cae-e4b5-4bcb-be34-771331ba9970" d="M49.23,63.68c4.49,2.58,8.12,8.88,8.12,14.06s-3.63,7.28-8.12,4.7c-4.49-2.58-8.12-8.88-8.12-14.06s3.64-7.28,8.12-4.7"/>
      <path class="uuid-67303605-394d-471a-8a85-396d38dc162f" d="M52.57,78.38c-.82.6-2.01.58-3.34-.19-2.46-1.41-4.45-4.87-4.45-7.7,0-1.53.58-2.57,1.5-2.98-.7.5-1.12,1.46-1.12,2.76,0,2.84,2,6.29,4.45,7.7,1.14.66,2.17.76,2.96.41"/>
      <path class="uuid-454be0a6-1a81-4379-a6a8-58f3fadb14bc" d="M53.68,75.62c0,1.3-.42,2.25-1.11,2.76-.79.36-1.82.25-2.96-.41-2.45-1.41-4.45-4.86-4.45-7.7,0-1.31.42-2.26,1.12-2.76.78-.35,1.82-.24,2.95.41,2.46,1.42,4.45,4.86,4.45,7.7"/>
      <path class="uuid-f7a7aaf2-1646-440b-9ed5-f831851e01ae" d="M49.6,71.83c.48.28.87.95.87,1.51s-.39.78-.87.5c-.48-.28-.87-.95-.87-1.51s.39-.78.87-.5"/>
      <path class="uuid-e61a0dda-0ac8-4746-890b-3207654244ea" d="M62.04,71.17c-1.22-4.08-4.37-8.6-7.93-10.65-2.91-1.68-4.87-1.66-6.18-.9l-4.72,2.72,14.15,11.53,4.68-2.7Z"/>
      <path class="uuid-6c63832a-e8e8-480c-a71e-9370968a8a71" d="M40.56,68.04s.32-9.75,8.87-4.82c3.56,2.06,6.7,6.57,7.93,10.65-13.2-7.62-4.53,1.25-16.8-5.83"/>
      <path class="uuid-292f4141-b4cf-4463-af4d-637675c2da7f" d="M49.81,61.71l1.69-.97c-2.07-3.82-2.85-14.88-2.85-14.88l-1.69.97s.46,7.93.46,8.32c.25,4.47,2.39,6.56,2.39,6.56"/>
      <path class="uuid-6c63832a-e8e8-480c-a71e-9370968a8a71" d="M43.21,62.35l1.44-.83h0c1.14-.73,2.78-.9,5.16.19-2.07-3.82-2.85-14.88-2.85-14.88v8.06l-4.97,5.04.15,3.37c.3-.37.65-.69,1.07-.94"/>
      <path class="uuid-13c37f4b-0a2c-4408-abcd-2027e1fd4f1f" d="M45.9,28.82l1.75-2.97-5.74-3.59s-3.46-1.86-7.18-7.89c0,0-7.09-1.6-3.81,3.28,3.67,5.45,12.01,11.07,14.98,11.17"/>
      <path class="uuid-cf04027b-6b1b-49fa-9b18-b1cb0f39e3b0" d="M22.97,11.83s-4.94-3.71-1.19-9.32c3.75-5.61,11.05-.32,11.05,1.41l.43,2.38-7.3.67.04,6.04-3.04-1.18Z"/>
      <path class="uuid-cf04027b-6b1b-49fa-9b18-b1cb0f39e3b0" d="M32.51,36.92l1.69-1.8.93.81s2.86.1,3.36.41c.5.31,1.21.92,1.37,1.44.16.52.09,1.39-.44,1.66-.53.27-1.43.98-2.22.98s-.15-.68-.41-1.07c-.26-.39-1.05-.04-1.05-.04,0,0-1.73-.43-1.87-1.27,0,0-1.21-1.15-1.36-1.11"/>
      <path class="uuid-cf04027b-6b1b-49fa-9b18-b1cb0f39e3b0" d="M48.01,26.4l-1.14,2.03,1.12.35s0,1.93,1.4,2.52l1.04-.29s.44.47,0,1.06c0,0,.13.37.83.4.71.03,1.92-.92,2.09-2.33.16-1.41-.27-1.41-1.33-1.87-1.06-.46-3.55-1.35-4.01-1.87"/>
      <path class="uuid-8386f0d5-28a8-468b-bd5d-77dfa9bdea10" d="M20.77,8.86s-3.54,1.5-3.54,3.17,2.45,1.67,2.45,1.67c0,0-.99,1.91-.44,2.35.55.44,3.45-.57,5.56-3.57,0,0-2.47-.29-4.04-3.61"/>
      <path class="uuid-13c37f4b-0a2c-4408-abcd-2027e1fd4f1f" d="M30.65,36l2.48-2.39-4.61-5.5s-3.72-8.24-6.21-12.23c0,0-5.9-1.94-3.99,4.34,1.91,6.29,9.48,14.89,12.32,15.78"/>
      <path class="uuid-13c37f4b-0a2c-4408-abcd-2027e1fd4f1f" d="M32.12,11.71s1.69,1,2.61,2.66l-4.07.29.05-.62s1.01.14,1.41-2.32"/>
    </g>
  </g>
</svg>