<?xml version="1.0" encoding="UTF-8"?>
<svg id="uuid-156173c6-4300-4e54-a080-ea358dabe6e6" data-name="Calque_2" xmlns="http://www.w3.org/2000/svg" xmlns:xlink="http://www.w3.org/1999/xlink" viewBox="0 0 77.13 74.17">
  <defs>
    <style>
      .uuid-e751f93d-6e94-43ef-959a-e39f87f26439 {
        fill: #527fa4;
      }

      .uuid-8b480721-f5c8-4625-89b7-fa731e1b44d5 {
        fill: #c7c4c3;
      }

      .uuid-064c5ffb-10f0-4986-8a1a-520791ed9d30 {
        fill: #403c3a;
      }

      .uuid-daf1192c-5b0b-49bf-9bb6-69600b472f37 {
        fill: #942615;
      }

      .uuid-34ca092e-12bd-4993-8ea2-a1ec857e220d {
        fill: #fff;
      }

      .uuid-aa67a046-3402-4c41-aff8-8295ba1e38a0 {
        fill: #f4c900;
      }

      .uuid-a56fe644-2775-44d9-93b9-cf5909d8e700 {
        fill: #878482;
      }

      .uuid-d0a42546-7ebc-4403-8127-18c536dba532 {
        fill: #4e4a49;
      }

      .uuid-b3d080d2-c7a1-418d-a23d-31f6f998eaed {
        fill: none;
      }

      .uuid-bcd8d572-85e7-4b6d-8697-53685d458dff {
        fill: #d52f16;
      }

      .uuid-d8abfc82-a7a9-4a8f-b87d-1bdab2709ba1 {
        opacity: .7;
      }

      .uuid-35c3c478-1302-4910-9502-c81d0eed1ca7 {
        fill: #c26b27;
      }

      .uuid-332ed697-4807-4120-8194-259f59de689b {
        fill: #15130f;
      }

      .uuid-6b1788f5-6942-455c-9d02-0ed4eab01119 {
        fill: #5d5958;
      }

      .uuid-fadcfb06-cdaa-4575-963b-25167c542396 {
        fill: #e84f0e;
      }

      .uuid-75ca1536-e8dc-45ad-9a63-d26650dd6cbd {
        fill: #b7b3b3;
      }

      .uuid-ce5be62c-4646-44f4-b903-8764078bcfd0 {
        fill: #e65239;
      }

      .uuid-6af31134-d39d-4397-ae5c-23044c469dfd {
        clip-path: url(#uuid-2192c461-2dc8-4106-a332-4cf2757dd091);
      }

      .uuid-998e7e93-7621-45a2-bf6e-6a31465d6c95 {
        clip-path: url(#uuid-1a6c24dc-a4c7-477c-bef3-1796639fc291);
      }

      .uuid-066c9568-30c8-4907-be0c-901af1e4838f {
        fill: #ffec74;
      }

      .uuid-836a79ec-6f25-451f-b0c1-c39dc2638dd3 {
        fill: #2c2926;
      }

      .uuid-5cbb56ec-a865-412b-86cd-34f31845be03 {
        fill: #e2e1e1;
      }

      .uuid-9e8b285f-7bf7-42e0-926d-eb31fccc882b {
        fill: #ef806f;
      }
    </style>
    <clipPath id="uuid-2192c461-2dc8-4106-a332-4cf2757dd091">
      <rect class="uuid-b3d080d2-c7a1-418d-a23d-31f6f998eaed" x="62.26" y="4.59" width="9.86" height="7.7"/>
    </clipPath>
    <clipPath id="uuid-1a6c24dc-a4c7-477c-bef3-1796639fc291">
      <rect class="uuid-b3d080d2-c7a1-418d-a23d-31f6f998eaed" x="62.26" y="4.59" width="9.86" height="7.7"/>
    </clipPath>
  </defs>
  <g id="uuid-cd703c77-857a-4b75-848b-6a403f2f8147" data-name="Les_personnages">
    <g id="uuid-59be6c14-6726-4cf5-be19-5b5f0769fb29" data-name="Chara_x5F_ScooterTourne_x5F_HG">
      <path class="uuid-836a79ec-6f25-451f-b0c1-c39dc2638dd3" d="M69.46,55.22h0s-.01-.02-.01-.02c0,0,0,.01.01.02"/>
      <path class="uuid-836a79ec-6f25-451f-b0c1-c39dc2638dd3" d="M48.63,69.12h0s-.03-.03-.04-.05l.03.05Z"/>
      <path class="uuid-332ed697-4807-4120-8194-259f59de689b" d="M66.21,50.33l-.04-.06h0c-1.04-1.49-3.06-2.32-5.82-2.15-5.64.36-12.24,4.75-14.74,9.81-1.3,2.63-1.24,4.92-.08,6.47l3.07,4.65,20.84-13.89-3.18-4.79s-.02-.03-.03-.05"/>
      <path class="uuid-064c5ffb-10f0-4986-8a1a-520791ed9d30" d="M63.56,52.95c-5.64.35-12.24,4.75-14.74,9.81-2.51,5.06.03,8.88,5.67,8.53,5.64-.36,12.24-4.75,14.74-9.82,2.51-5.06-.03-8.88-5.67-8.52"/>
      <path class="uuid-a56fe644-2775-44d9-93b9-cf5909d8e700" d="M53.17,65.71c.51.98,1.69,1.54,3.36,1.43,3.09-.19,6.71-2.61,8.08-5.38.74-1.5.68-2.8-.02-3.65.44.83.39,1.97-.24,3.25-1.38,2.78-5,5.19-8.08,5.38-1.43.09-2.49-.31-3.09-1.04"/>
      <path class="uuid-75ca1536-e8dc-45ad-9a63-d26650dd6cbd" d="M53.42,62.47c-.63,1.28-.68,2.41-.25,3.24.6.73,1.66,1.12,3.1,1.03,3.08-.2,6.7-2.6,8.08-5.38.63-1.28.68-2.41.24-3.24-.6-.72-1.66-1.12-3.08-1.03-3.09.19-6.71,2.6-8.08,5.38"/>
      <path class="uuid-34ca092e-12bd-4993-8ea2-a1ec857e220d" d="M59.24,60.74c-.6.04-1.31.51-1.58,1.05-.27.54,0,.95.61.92.6-.04,1.31-.51,1.58-1.06.27-.55,0-.95-.61-.91"/>
      <path class="uuid-75ca1536-e8dc-45ad-9a63-d26650dd6cbd" d="M60.3,37.95c3.19-.2,5.53.75,6.74,2.45v.02c.06.06.1.13.15.2l2.62,3.93-2.21,1.46c-.18.58-.42,1.19-.73,1.81-.39.79-21.85,7.82-21.85,7.82l-2.68-4.02c.19-.73.47-1.5.86-2.29,2.91-5.87,10.56-10.97,17.09-11.39"/>
      <path class="uuid-a56fe644-2775-44d9-93b9-cf5909d8e700" d="M68.13,54.16c.55-.75,1.03-1.53,1.42-2.32,2.9-5.87-.04-10.29-6.57-9.87-6.53.42-14.19,5.52-17.09,11.38-.39.79-.68,1.55-.86,2.29l23.11-1.48Z"/>
      <polygon class="uuid-9e8b285f-7bf7-42e0-926d-eb31fccc882b" points="34.06 65.47 48.52 64.55 48.8 61.32 45.19 55.9 40.91 53.12 26.45 54.04 34.06 65.47"/>
      <path class="uuid-34ca092e-12bd-4993-8ea2-a1ec857e220d" d="M29.67,53.31c-.42.33-.98,1.89-.85,2.02,1.05,1.02,2.58.76,3.84.66,1.23-.1,1.74-.44,2.91-.51,1.05-.07,2.97.77,4.37.34.27-.08.41-.53.48-1.06l-10.76-1.44Z"/>
      <path class="uuid-35c3c478-1302-4910-9502-c81d0eed1ca7" d="M35.49,51.23c-2.13,1.02-5.53,1.29-5.95,1.63-.42.33-.68,2.01-.57,2.15.7.93,2.4.74,3.63.68,1.23-.07,1.96-.45,3.13-.53,1.05-.07,2.97.77,4.37.34.71-.22,1-2.93,1-2.93,0,0-5.2-1.62-5.6-1.34"/>
      <path class="uuid-bcd8d572-85e7-4b6d-8697-53685d458dff" d="M45.8,41.41c1.55-.1,19.03-1.22,19.03-1.22,0,0,4.12-.26,6.07,2.78l3.81,5.73-26.25,11.12-5.54.42-4.7-3.54,1-2.02.12-.05c1.21-.53,9.59-2.02,6.45-13.23"/>
      <path class="uuid-ce5be62c-4646-44f4-b903-8764078bcfd0" d="M68.54,45.75s-17.48,1.12-19.03,1.22c3.34,11.93-6.57,13.28-6.57,13.28l-.81,1.64c29.1-1.86,27.61-1.77,31.92-2.05,3.81-7.7,2.09-8.76.68-11.14-1.91-3.23-6.18-2.96-6.18-2.96"/>
      <path class="uuid-332ed697-4807-4120-8194-259f59de689b" d="M47.49,39.08l19-2.24c.33-.04.57.03.7.19l3.74,5.62-21.58,3.98-3.68-5.52h0c-.12-.18-.12-.44.02-.74l.03-.07c.29-.59,1.08-1.14,1.76-1.23"/>
      <path class="uuid-064c5ffb-10f0-4986-8a1a-520791ed9d30" d="M70.9,43.32c.29-.59-.02-1-.7-.92l-19,2.24c-.68.09-1.47.64-1.76,1.23l-.03.07c-.29.59,0,1.04.66,1l18.48-1.18c.66-.04,1.43-.56,1.72-1.15l.63-1.28Z"/>
      <path class="uuid-6b1788f5-6942-455c-9d02-0ed4eab01119" d="M61.79,36.55c-3.85,1.49-19.17,4.2-20.5,4.55.36,4.09.33,7.4.46,11.12-.56,3.12-6.62.8-6.53-1.26.22-4.99-1.54-13.36-1-14.45.63-1.28,15.27-8.3,26.19-9.19.66.96,1.37,9.23,1.37,9.23"/>
      <polygon class="uuid-ce5be62c-4646-44f4-b903-8764078bcfd0" points="42.93 60.25 38.94 60.5 32.1 62.53 42.12 61.89 43.5 60.85 42.93 60.25"/>
      <polygon class="uuid-bcd8d572-85e7-4b6d-8697-53685d458dff" points="28.4 56.97 32.1 62.53 38.94 60.5 35.24 54.95 28.4 56.97"/>
      <polygon class="uuid-9e8b285f-7bf7-42e0-926d-eb31fccc882b" points="38.94 60.5 42.93 60.25 39.23 54.69 35.24 54.95 38.94 60.5"/>
      <polygon class="uuid-daf1192c-5b0b-49bf-9bb6-69600b472f37" points="33.03 66.47 25.42 55.04 21.05 41.8 22.2 41.18 28.67 53.23 31.94 60.28 33.03 66.47"/>
      <path class="uuid-75ca1536-e8dc-45ad-9a63-d26650dd6cbd" d="M66.76,47.65c3.19-.2,5.53.75,6.74,2.45h0s.01.02.01.02c.04.07.09.13.13.2l2.62,3.93-2.21,1.46c-.18.58-.42,1.19-.72,1.81-.39.79-21.85,7.82-21.85,7.82l-2.68-4.02c.19-.73.47-1.49.86-2.29,2.9-5.87,10.56-10.97,17.09-11.39"/>
      <path class="uuid-a56fe644-2775-44d9-93b9-cf5909d8e700" d="M74.59,63.86c.55-.75,1.03-1.53,1.42-2.32,2.9-5.87-.04-10.29-6.57-9.87-6.53.42-14.19,5.52-17.09,11.38-.39.79-.68,1.56-.86,2.29l23.11-1.48Z"/>
      <polygon class="uuid-064c5ffb-10f0-4986-8a1a-520791ed9d30" points="29.81 52.61 34.06 65.47 48.52 64.55 48.05 65.51 33.03 66.47 28.66 53.23 29.81 52.61"/>
      <path class="uuid-836a79ec-6f25-451f-b0c1-c39dc2638dd3" d="M24.82,58.08h0s-.01-.02-.01-.02c0,0,.01.01.01.02"/>
      <path class="uuid-836a79ec-6f25-451f-b0c1-c39dc2638dd3" d="M3.99,71.98h0s-.03-.03-.04-.05l.03.05Z"/>
      <path class="uuid-332ed697-4807-4120-8194-259f59de689b" d="M21.57,53.19l-.04-.06h0c-1.04-1.49-3.06-2.32-5.82-2.15-5.64.35-12.24,4.75-14.74,9.81-1.3,2.63-1.24,4.92-.08,6.47l3.06,4.65,20.84-13.89-3.18-4.79s-.02-.03-.03-.05"/>
      <path class="uuid-064c5ffb-10f0-4986-8a1a-520791ed9d30" d="M18.92,55.81c-5.64.35-12.24,4.75-14.74,9.81-2.51,5.06.03,8.88,5.67,8.53,5.64-.36,12.24-4.75,14.74-9.82,2.5-5.06-.03-8.88-5.67-8.52"/>
      <path class="uuid-a56fe644-2775-44d9-93b9-cf5909d8e700" d="M8.54,68.57c.51.98,1.68,1.54,3.36,1.43,3.09-.19,6.71-2.61,8.08-5.38.74-1.5.68-2.8-.02-3.65.44.83.39,1.97-.24,3.25-1.37,2.78-4.99,5.19-8.08,5.38-1.43.09-2.5-.3-3.09-1.03"/>
      <path class="uuid-75ca1536-e8dc-45ad-9a63-d26650dd6cbd" d="M8.78,65.34c-.63,1.28-.68,2.41-.25,3.24.6.73,1.66,1.13,3.09,1.03,3.08-.19,6.7-2.6,8.08-5.38.63-1.28.68-2.41.24-3.25-.6-.72-1.66-1.11-3.08-1.03-3.09.2-6.71,2.6-8.08,5.38"/>
      <path class="uuid-34ca092e-12bd-4993-8ea2-a1ec857e220d" d="M14.6,63.6c-.61.04-1.31.51-1.58,1.05s0,.95.61.92c.6-.04,1.31-.51,1.58-1.05.27-.55,0-.95-.61-.92"/>
      <path class="uuid-9e8b285f-7bf7-42e0-926d-eb31fccc882b" d="M2.76,56.94c3.17-3.4,8.43-6.29,12.91-6.58,3.66-.23,5.56.73,6.48,2.11l3.3,4.95-19.42,4.42-3.27-4.91Z"/>
      <path class="uuid-ce5be62c-4646-44f4-b903-8764078bcfd0" d="M25.28,64.27s4.41-9.69-6.34-9c-4.47.28-9.74,3.18-12.91,6.58,16.6-1.06,3.83,3.41,19.25,2.43"/>
      <path class="uuid-332ed697-4807-4120-8194-259f59de689b" d="M32.22,36.17h0s0,0,0,0c-.08.16-.05.38.11.61.31.47,1.01.81,1.57.78.29-.02.48-.14.56-.32l3.19-6.44-2.23-1.1-3.2,6.46s0,0,0,0"/>
      <path class="uuid-064c5ffb-10f0-4986-8a1a-520791ed9d30" d="M35.53,30.32c.31.47,1.02.82,1.58.78.56-.04.76-.44.45-.91-.31-.47-1.01-.82-1.57-.78s-.76.44-.45.91"/>
      <path class="uuid-332ed697-4807-4120-8194-259f59de689b" d="M30,19.8c.14-.29.51-.53.83-.55.16-.01.28.04.34.14l2.72,4.06-1.18.79-2.67-4h0c-.12-.08-.14-.24-.05-.42"/>
      <path class="uuid-d0a42546-7ebc-4403-8127-18c536dba532" d="M32.72,23.85c-.14.28,0,.5.32.48.32-.02.69-.27.84-.56.14-.29,0-.5-.32-.48-.32.02-.69.27-.83.56"/>
      <path class="uuid-75ca1536-e8dc-45ad-9a63-d26650dd6cbd" d="M32.72,23.85c.14-.28.51-.53.83-.55.16-.01.28.04.34.13l1.64,2.46-1.17.78-1.65-2.46s0,0,0,0h0c-.05-.1-.05-.22.02-.36"/>
      <path class="uuid-8b480721-f5c8-4625-89b7-fa731e1b44d5" d="M34.36,26.31c-.14.29,0,.5.32.48.32-.02.69-.27.84-.56.14-.28,0-.5-.32-.48-.32.02-.69.27-.83.56"/>
      <path class="uuid-bcd8d572-85e7-4b6d-8697-53685d458dff" d="M36.56,25.3h0c-.15-.23-.45-.35-.85-.32-.82.05-1.79.7-2.16,1.44-.19.39-.18.72-.01.95l4.73,7.1,3.05-2.04-4.74-7.12s0,0,0,0"/>
      <path class="uuid-ce5be62c-4646-44f4-b903-8764078bcfd0" d="M40.44,32.11c-.82.05-1.79.7-2.16,1.44-.37.74,0,1.3.83,1.25.83-.05,1.79-.7,2.16-1.44.37-.74,0-1.3-.83-1.25"/>
      <path class="uuid-064c5ffb-10f0-4986-8a1a-520791ed9d30" d="M29.01,29.01l-.09-.22,1.06-.07c.84-.03,1.72.49,2.43,1.55l2.31,3.47c1.46,2.19,1.7,5.91.53,8.27l-5.52,11.14-1.08.07-1.02-22.64c.37-.75.84-1.28,1.36-1.57"/>
      <path class="uuid-bcd8d572-85e7-4b6d-8697-53685d458dff" d="M21.05,41.8l7.61,11.43,5.52-11.15c1.17-2.36.93-6.08-.53-8.27l-2.31-3.47c-1.46-2.19-3.61-2.05-4.77.31l-5.52,11.14Z"/>
      <path class="uuid-ce5be62c-4646-44f4-b903-8764078bcfd0" d="M36.1,27.77c1.39.69,1.96,2.38,1.27,3.77-.69,1.39-2.38,1.97-3.77,1.28-1.39-.69-1.96-2.38-1.27-3.77.69-1.39,2.38-1.96,3.77-1.28"/>
      <path class="uuid-bcd8d572-85e7-4b6d-8697-53685d458dff" d="M33.86,28.21c.8,1.2.93,3.21.29,4.51-.64,1.3-1.8,1.37-2.6.17-.8-1.2-.93-3.23-.29-4.51.64-1.3,1.81-1.37,2.61-.17"/>
      <path class="uuid-9e8b285f-7bf7-42e0-926d-eb31fccc882b" d="M34.88,28.15c.8,1.19.93,3.22.29,4.51-.34.68-.82,1.03-1.32,1.02l-.94.06c.47-.03.92-.38,1.23-1.02.64-1.3.51-3.31-.29-4.51-.38-.57-.83-.84-1.28-.86l.94-.06c.47-.03.96.25,1.36.86"/>
      <path class="uuid-9e8b285f-7bf7-42e0-926d-eb31fccc882b" d="M32.6,27.99c-.32.08-.64.34-.85.79-.51,1.04-.41,2.66.24,3.62.3.45.66.68,1.02.68-.42.1-.87-.12-1.23-.66-.64-.96-.75-2.57-.24-3.6.27-.55.66-.82,1.06-.82"/>
      <path class="uuid-066c9568-30c8-4907-be0c-901af1e4838f" d="M33.63,28.68c.65.95.75,2.57.23,3.61-.22.45-.53.7-.85.78-.36,0-.72-.22-1.02-.68-.65-.96-.76-2.58-.24-3.62.22-.44.53-.71.85-.79.36,0,.72.23,1.03.68"/>
      <path class="uuid-75ca1536-e8dc-45ad-9a63-d26650dd6cbd" d="M39.16,33.52c.14-.28.51-.53.84-.55.16-.01.28.04.33.14h0s1.47,2.23,1.47,2.23l-1.13.84-1.52-2.29s0,0,0-.01h0c-.05-.09-.05-.21.02-.35"/>
      <path class="uuid-332ed697-4807-4120-8194-259f59de689b" d="M40.63,35.75c.14-.28.51-.53.83-.55.17-.01.28.04.34.14l2.72,4.06-1.18.78-2.67-4h0c-.11-.08-.14-.23-.04-.42"/>
      <path class="uuid-064c5ffb-10f0-4986-8a1a-520791ed9d30" d="M43.34,39.8c-.14.28,0,.5.32.48.32-.02.69-.27.83-.55.14-.29,0-.5-.32-.48-.32.02-.69.27-.83.56"/>
      <path class="uuid-064c5ffb-10f0-4986-8a1a-520791ed9d30" d="M38.51,21.67s-1.07,1.47-1.59,1.85c-.65.48-2.23,1.11-2.23,1.11l-.67-1.01c-.91-.25-1.34.66-.63,1.59-.07.02-1.43.54-1.85-.48-.82-2.42-.91-3.65.57-5.44.39-.39,4.67-.31,4.95-.34,1.27.02,2.06.75,2.06.75l-.59,1.97Z"/>
      <path class="uuid-bcd8d572-85e7-4b6d-8697-53685d458dff" d="M19.3,53.61l-1.18-1.77c3.87-2.73,9.99-13.17,9.99-13.17l1.18,1.77s-4.29,7.52-4.48,7.91c-2.42,4.25-5.51,5.26-5.51,5.26"/>
      <path class="uuid-ce5be62c-4646-44f4-b903-8764078bcfd0" d="M25.45,57.43l-1.01-1.51h0c-.75-1.26-2.28-2.23-5.13-2.31,3.87-2.73,9.99-13.17,9.99-13.17l-3.9,7.88,2.42,7.33-1.78,3.22c-.11-.5-.3-.99-.59-1.44"/>
      <path class="uuid-aa67a046-3402-4c41-aff8-8295ba1e38a0" d="M71.4,12.17c-.31.56-.39.95-.39.95l.57,1.48-.68,1.93-2.87,1.24-3.62-1.05-1.52-2.06-.31-2.27,1.65-1.94,3.17-1.74,4.41,2.08s-.11.82-.42,1.39"/>
      <path class="uuid-34ca092e-12bd-4993-8ea2-a1ec857e220d" d="M35.59,61.41c-.47.08-1.07,1.26-1.07,1.26,0,0,.59,2.31,3.34,2.54,2.75.23,6.99-.64,7.29-1.14.07-.12.15-.36.23-.65l-9.8-2Z"/>
      <path class="uuid-35c3c478-1302-4910-9502-c81d0eed1ca7" d="M40.76,59.8s-1.28.67-5.21,1.29c-.48.08-.9,1.31-.9,1.31,0,0,.59,2.31,3.34,2.54,2.75.23,6.99-.65,7.29-1.15.3-.5,1.33-2.68,1.33-2.68l-5.86-1.31Z"/>
      <path class="uuid-a56fe644-2775-44d9-93b9-cf5909d8e700" d="M71.01,36.95s-2.35,5.19-6.21,6.68c-3.85,1.49-15.4,4.96-16.74,5.3.36,4.09-.57,8.06-1.18,11.47-.55,3.12-6.94.76-6.53-1.26,1.22-5.96.58-12.98,1.31-14.18.63-1.27,17.77-9.59,17.77-9.59,0,0-.88-2.75.03-5.47l11.55,7.03Z"/>
      <path class="uuid-e751f93d-6e94-43ef-959a-e39f87f26439" d="M50.24,13.76c3-1.05,6.8-5.07,9.65-6.08,5.86-2.06,6.48,1.36,6.48,1.36l-3.07,4.81c-2.68.39-7.73,3.26-11.05,4.18-6.07,2.91-7.86,2.07-13.74,3.63.26-.39-.52-2.39-1.47-2.72,5.32-2.6,7.85-4.43,13.19-5.19"/>
      <path class="uuid-34ca092e-12bd-4993-8ea2-a1ec857e220d" d="M64.8,12.18c-.8,1.9-.26,3.32-.26,3.32,0,0,2.72,1.61,4.9.42,1.47-.79,1.74-1.9,1.56-2.8,2.81,3.2,3.59,6.37,3.59,6.37l-1.34,2.71s.9,2.78.91,3.29c-.67,1.36-1.56,4.11-2.06,5.47-.51,1.36-.7,4.46-.98,5.76-.28,1.29-4.5,1.28-7.87-.39-3.8-1.88-5.16-5.9-4.91-7.2.81-4.15-.55-7.48.45-11.81s4.02-6.87,4.02-6.87c0,0,2.07,1.39,1.99,1.73"/>
      <path class="uuid-aa67a046-3402-4c41-aff8-8295ba1e38a0" d="M65.67,3.64s-.91,1.64-.85,2.39c-1.17.94-2.31,5.38-2.29,5.68.03.3.72,1.3,1.03,1.48.31.18,4.3.31,4.98-.07.68-.38,1.34-1.18,1.34-1.18,0,0,.55.22,1.21.08,2.93-.56,3.01-2.62,3.01-2.62l-.41-2.66-5.74-4.15-2.29,1.06Z"/>
      <path class="uuid-e751f93d-6e94-43ef-959a-e39f87f26439" d="M60.08,29.1c2.29-1.45,4.89-6.15,6.63-7.36,5.6-3.67,7.89-2.26,7.89-2.26,0,0,3.28,4.94-3.16,7.88-2.56.95-7.9,5.94-9.33,6.53-4.47,2.57-12.67,2.85-14.78,3.09-.08-.36-.38-1.8-1.26-2.73,3.21-.08,9.44-4.7,14.02-5.16"/>
      <path class="uuid-064c5ffb-10f0-4986-8a1a-520791ed9d30" d="M46.06,34.26c-.72-.16-3.7-.96-4.41-.87-.71.09-1.82,1.76-1.98,2.14-.16.38-.2.84.32,1.57.46.63,2.15,3.13,2.99,2.54,0,0-.57-1.55,1.64-1.29.28,0,1.04-.04,2.71-1.35.62-.53-.13-2.72-1.26-2.73"/>
      <path class="uuid-064c5ffb-10f0-4986-8a1a-520791ed9d30" d="M71.09,12.01c.07-.21,2.54-1.27,1.59-1.96-1.26-.91-2.02.97-2.12.24-.22-1.72-1.49-2.12-1.05-4.18-.89-.63-1.45.05-1.13.95-1.36-.64-4.01-2.58-2.22-4.36,4.59-4.54,9.67.53,9.08,1.61,2.84,2.1-1.68,9.34-4.15,7.69"/>
      <path class="uuid-fadcfb06-cdaa-4575-963b-25167c542396" d="M64.56,3.81s.94,2.21,5.47,4.45c3.1,1.22,6.14.54,6.14.54.93-2,.97-4.69-1.92-6.91-1.46-1.11-5.05-2.64-6.73-1.46-1.02.72-2.43,2.21-2.96,3.39"/>
      <path class="uuid-fadcfb06-cdaa-4575-963b-25167c542396" d="M72.11,14.58s3.91-2.57,4.4-6.97c0,0-4.19,1.74-5.61.91,0,0,.28,1.17-.32,2.7-.6,1.53-4.94,1.16-8.79.78,0,0-.42,2.18.65,2.5,3,.91,7.6,1.03,9.66.07"/>
      <g class="uuid-d8abfc82-a7a9-4a8f-b87d-1bdab2709ba1">
        <g class="uuid-6af31134-d39d-4397-ae5c-23044c469dfd">
          <g class="uuid-998e7e93-7621-45a2-bf6e-6a31465d6c95">
            <path class="uuid-5cbb56ec-a865-412b-86cd-34f31845be03" d="M65.75,4.61s-1.18-.21-1.56.63c-.38.84-2.48,5.36-1.81,6.3.67.93,7.83.73,7.83.73l1.9-3.89-6.37-3.77Z"/>
          </g>
        </g>
      </g>
    </g>
  </g>
</svg>