<?xml version="1.0" encoding="UTF-8"?>
<svg id="Calque_2" xmlns="http://www.w3.org/2000/svg" viewBox="0 0 55.42 57.81">
  <defs>
    <style>
      .cls-1 {
        fill: #f8ad00;
      }

      .cls-2 {
        fill: #f8c4aa;
      }

      .cls-3 {
        fill: #a11f24;
      }

      .cls-4 {
        fill: #ffde00;
      }

      .cls-5 {
        fill: #243777;
      }

      .cls-6 {
        fill: #fff;
      }

      .cls-7 {
        fill: #f3ac86;
      }

      .cls-8 {
        fill: #e73b59;
      }

      .cls-9 {
        fill: #7366aa;
      }

      .cls-10 {
        fill: #301d1a;
      }

      .cls-11 {
        fill: #e5e4e4;
      }

      .cls-12 {
        fill: #f29574;
      }

      .cls-13 {
        fill: #4c9f34;
      }

      .cls-14 {
        fill: #23201d;
      }

      .cls-15 {
        fill: #c57972;
      }

      .cls-16 {
        fill: #e38b65;
      }

      .cls-17 {
        fill: #fdd583;
      }

      .cls-18 {
        fill: #594d46;
      }

      .cls-19 {
        fill: #e6b365;
      }

      .cls-20 {
        fill: #532d29;
      }

      .cls-21 {
        fill: #f7b699;
      }

      .cls-22 {
        fill: #f3f8fd;
      }

      .cls-23 {
        fill: #f3f2f3;
      }

      .cls-24 {
        fill: #ffd500;
      }

      .cls-25 {
        fill: #67a1d7;
      }

      .cls-26 {
        fill: #1e6975;
      }

      .cls-27 {
        fill: #91bf20;
      }
    </style>
  </defs>
  <g id="_Éléments_Mise_en_page" data-name="Éléments_Mise_en_page">
    <g>
      <path class="cls-20" d="M9.53,25.89s-.26,1.06-.22,1.48c.05.42.7.4,1.32.79.62.39,1.7.64,1.92.24.24-.45-.74-1.27-1.27-1.65-.53-.38-.56-.8-.56-.92,0-.12-.94-.88-1.19.07"/>
      <path class="cls-10" d="M11.79,12.64s.24,2.27.29,4.1c.04,1.83-1.18,9.42-1.18,9.42,0,0-.63.46-1.46-.1,0,0,0-2.38,0-3.09,0-.7.16-2.42.16-2.42,0,0-.4-3.52-.49-4.73-.09-1.21-.28-3.65,2.7-3.18"/>
      <path class="cls-20" d="M7.62,27.42s-.21.76-.15,1.19c.06.43,1.37,1.07,1.83,1.21.46.13,1.44.37,1.41-.31-.02-.54-1.19-1.24-1.44-1.41-.25-.17-.51-.42-.49-.72.01-.3-.92-.67-1.15.04"/>
      <path class="cls-20" d="M6.49,13.3s-.57,1.28-.3,2.67c.27,1.39.89,6.07.89,6.07l.37,5.56s.72.54,1.41-.05l.43-4.64.53-7s1.94-1.89,1.98-3.16c.04-1.27-4.76-.64-5.3.56"/>
      <path class="cls-10" d="M6.26,4.99s-.56.44-.79,1.64c-.23,1.2-.74,4.99.62,5.56,1.36.57,4.04-1.14,4.04-1.14l-3.88-6.07Z"/>
      <path class="cls-20" d="M6.07,5.81c-.16-.1-.21-.3-.1-.46.13-.2.37-.48.78-.8.77-.59,1.91-1.07,2.45-.66.54.41.08,1.49-1.11,2.08-.84.42-1.63.07-2.02-.16"/>
      <path class="cls-12" d="M14.21,8.63c-.5-.07-.76-.05-1.36-.48-.6-.43-2.14-2.29-2.14-2.29,0,0-.39-.79-.2-1.14.19-.35.33-.39.57-.24.23.14,3.1,3.21,3.23,3.39s-.09.76-.09.76"/>
      <path class="cls-23" d="M10.3,3.89s.41-.15.8.2c.39.35,1.96,2.29,1.96,2.29,0,0-.25.88-1.19.93,0,0-1.01-.97-1.37-1.48-.36-.51-.69-1.66-.21-1.95"/>
      <path class="cls-25" d="M6.47,8.27l.13,2.57-.65,2.95s.14.66,1.28.83c1.14.17,2.8.04,3.62-.4.93-.5,1.14-1.55,1.14-1.55l-.21-1.41s-.14-2.66-.12-3.85c.02-1.19-.13-3.03-1.06-3.36-.93-.33-3.44,1.38-3.96,2.03-.52.65-.17,2.18-.17,2.18"/>
      <path class="cls-21" d="M11.79,6.06c-.37-.07-.4.16-.15.28.24.12.58.33.58.33l.39-.28c-.1-.09-.44-.27-.81-.33"/>
      <path class="cls-10" d="M9.13,4.32s.32-.24.57-.3c.25-.05,1.99.81,2.33,2.71.19,1.05-.15,1.86-.15,1.86l-.18,1.17s-.4-.83-.34-1.48c.08-.79.21-.86.04-1.55-.19-.79-1.57-2.45-2.27-2.42"/>
      <path class="cls-21" d="M7.81,5.12l.51-1.56s1.71-.63,1.9-.17c0,0-.07,1.65-.21,2.05-.12.33-.04,1.26-2.2-.32"/>
      <path class="cls-21" d="M14.6,7.91c-.2-.28-1.24-.93-1.37-1.03-.13-.11-.54-.4-.63-.49l-.39.28c-.16.13-.75.09-1.12.03-.37-.05-.42.14-.26.21.16.07.97.15.97.15,0,0-.62-.02-.86-.04-.24-.01-.3.14-.16.21.14.06,1.1.13,1.1.13,0,0-.63-.01-.84-.02-.21-.01-.27.11-.13.18.13.07,1.09.14,1.09.14,0,0-.59,0-.86-.02-.26-.02-.3.15-.15.21.15.06.6.12,1.22.17.62.05,1.01-.28,1.01-.28,0,0,.2.33.69.75.5.42.9-.27.67-.58"/>
      <path class="cls-21" d="M9.8,8.02c-.1-.06-.64.04-.9.27l.44.34s.11-.22.32-.28c.2-.06.25-.28.15-.34"/>
      <path class="cls-10" d="M7.23,5.54s.25-.31.5-.36c0,0,.55.34,1.07.91.38.41,1.42,1.72,1.02,2.9-.23.67-2.62,1.73-3.21,1.84l-.06-.54s2.18-.32,2.74-1.29c.38-.66-.45-1.95-.89-2.5-.41-.51-1.16-.97-1.16-.97"/>
      <path class="cls-3" d="M5.01,8.34s.25.89,1.64,1.03c0,0,.4-1,0-1.45-.41-.44-1.13-.15-1.63.41"/>
      <path class="cls-21" d="M10.66,8.47c-.14,0-.43.14-.72.23-.29.08-.6-.06-.6-.06l-.44-.34c-.26.23-.73.71-.73.71l-1.86.58s.36-.51.99-1.52c.62-1.01.58-1.38.36-1.79-.22-.41-.75-.34-.92-.1-.17.24-1.68,2.66-1.68,2.66,0,0-.51,1.02-.67,1.37-.16.35.14.79.68.72.54-.08,3.18-1.1,3.18-1.1,0,0,.23.15.5.21.27.07,1.41-.1,1.69-.31.28-.21.06-.3.06-.3.3-.17.08-.29.08-.29.33-.13.13-.37.13-.37.15-.1.08-.29-.05-.29"/>
      <path class="cls-23" d="M5.01,8.34s1.43-2.1,1.75-2.35c.32-.25.92-.13,1.14.43.29.72-.99,2.5-1.25,2.95,0,0-.33-1.16-1.64-1.03"/>
      <path class="cls-21" d="M7.24,2.77c.06.57.46,1.05.58,1.26.12.21.61.66,1,.85.35.16,1.43.16,1.96.16.59,0,.87-2.92.7-3.52s-.68-1.35-2.39-1.38c-1.7-.02-2.06.65-1.85,2.62"/>
      <path class="cls-10" d="M7.59,4.67s-.08-.86-.41-1.29c-.32-.43-.34-1.6.06-2.39C7.66.2,8.11,0,8.9,0c.79,0,1.46.08,2.21.73.74.65.76,1.06.65,1.59-.1.47-1.06.11-1.29.36-.66.71-.68,1.02-.68,1.02,0,0-1.06-.49-1.31.18-.18.5-.27,1.13-.88.79"/>
      <path class="cls-21" d="M9.32,3.77c-.08-.33-.51-.56-.75-.2-.24.35.03.89.46.98.43.09.45-.15.29-.78"/>
      <path class="cls-7" d="M8.83,42.19c0-.08,0-.17,0-.25,0,0,0,0,0-.01.02-.17.08-.36.24-.43.07-.03.16-.03.24-.02.1.02.2.07.28.12.08.05.11.14.15.22.12.21.24.42.37.62.23.37.48.73.64,1.14.07.19.12.41.04.61-.07.16-.22.27-.4.29-.43.05-.53-.27-.57-.32-.25-.34-.43-.72-.62-1.1-.08-.15-.16-.31-.25-.46-.08-.13-.12-.27-.13-.42"/>
      <path class="cls-6" d="M8.26,42.11c.09.1.05.03.6.58.11.11.2.29.38.28.13-.01.59-.21.78-.41.32-.35.03-.6-.26-.99-.3-.4-.72-.94-1.23-.82-.17.04-.32.14-.42.27-.26.35-.13.79.14,1.09"/>
      <path class="cls-7" d="M8.72,45.85c.31-.24.49-.32.81-.55.74-.53,1.3-.67,1.3-1.37,0-.25-.2-.47-.39-.48-.64-.02-.82.62-1.94,1.56-.13.11-.27.23-.43.29-.28.11.51.67.65.56"/>
      <path class="cls-8" d="M5.73,51.39c-.3-.31-.77-.74-1.17-.39-.41.35.07,1,.56,1.3.43.27.38.51.63.65.22.11.52-.05.64-.18.11-.13.12-.32.08-.49-.04-.14-.14-.31-.25-.4-.11-.09-.21-.2-.32-.3-.06-.05-.1-.12-.15-.18"/>
      <path class="cls-16" d="M8.79,47.74c.19.36.12.32-.29.94-.07.11-.15.22-.22.33,0,.01-1.23,3.21-2.24,3.38-.43.07-.44-.35-.38-.61.11-.45,1.8-4.44,1.82-4.46.26-.29.85-.43,1.3.42"/>
      <path class="cls-7" d="M7.22,47.08c.21-.17.46-.25.71-.2.14.03.27.1.38.18.09.07.27.18.31.3.02.04,0,.09,0,.13,0,.09.03.18.05.26.04.18.08.36.11.54.15.72.27,1.45.38,2.18.01.1.03.2.04.31.06.44-.22,1.04-.58,1.28-.62.4-1.14-1.26-1.19-1.38-.06-.13-.11-.27-.17-.4-.25-.56-.58-1.1-.58-1.75,0-.41.07-.84.29-1.17.07-.1.15-.2.25-.28"/>
      <path class="cls-8" d="M9.83,45.97c-.03-.12-.05-.25-.08-.37-.1-.46-.29-.92-.36-1.39-.21-1.42.08-3.04-.44-3.54-.35-.34-1.2.05-1.55.18-.92.34-.81.28-1.46.99-.32.35-.48.6-.34,1.43.87,4.98.09,5.12.87,5.69.56.41,1.49.13,2.07-.09.39-.15.77-.34,1.09-.6.38-.29.45-.59.39-1.06-.05-.42-.11-.83-.19-1.25"/>
      <path class="cls-2" d="M6.02,40.5c-.14-.16,1.48-1.3,1.55-1,.19.9.35.85.45,1.17.09.3-.1.8-1.11.88-.76.06-.36-.45-.89-1.06"/>
      <path class="cls-2" d="M5.22,38.42c-.07.13-.11.28-.1.43.01.18.06.36.07.55.02.2.04.4.09.6.13.49.53.9,1.06.93.34.02.94-.23,1.12-.38.24-.19.36-.5.46-.79.84-2.39-2.07-2.63-2.71-1.34"/>
      <path class="cls-19" d="M7.38,37.19s-.01,0-.02-.02c-.05-.05-.1-.08-.16-.11-.39-.18-.91-.08-1.29.08-.5.21-.9.61-.99,1.16-.02.1,0,.21,0,.31-.02.3.45.12.53.87.07.67.17.54.47.82.36.35.99.55,1.49.43.31-.07.57-.26.8-.47.11-.11.22-.23.3-.37.1-.19.15-.4.16-.61.04-.41-.02-.83-.19-1.21-.15-.32-.4-.59-.71-.75-.13-.07-.26-.04-.37-.14"/>
      <path class="cls-2" d="M5.67,39.66c.23-.11.41.17.34.46-.03.14-.1.3-.26.24-.06-.02-.12-.04-.18-.07-.13-.05-.06-.25-.06-.37,0-.13.04-.21.16-.26"/>
      <path class="cls-2" d="M4.83,42.06c-.37.11-1.51.29-1.92.56-.16.1-.17.11-.19.3-.01.2.05.6.2.67.15.06,1.18.06,2.09-.27l-.18-1.26Z"/>
      <path class="cls-6" d="M4.91,41.89c-.2.09-.43.13-.53.23-.14.14-.09.35-.03.66.08.42.18.61.34.66.26.09,2.24-.25,2.09-1.25-.07-.49-.68-.87-1.88-.32"/>
      <path class="cls-2" d="M11.65,49.71c.35-.31-.16-.99-.36-.87-1.17.74-2.34.94-2.87,1.76-.38.6-.31,1.55.04,1.51.35-.03,1.95-1.32,3.18-2.41"/>
      <path class="cls-8" d="M11.42,49.75c.15.24.3.46.47.68.09.12.18.24.3.32s.26.13.4.1c.15-.04.28-.18.33-.34.07-.24,0-.43-.13-.61-.14-.2-.34-.35-.5-.53-.05-.06-.07-.13-.1-.2-.03-.07-.06-.13-.09-.19-.07-.15-.15-.29-.27-.39-.07-.05-.15-.09-.23-.11-.08-.02-.16-.03-.24,0-.19.05-.35.26-.35.48,0,.11.1.26.15.35.08.15.17.3.26.44"/>
      <path class="cls-2" d="M3.41,43c-.08-.31-1.25-1.28-1.53-1.46-.14-.09-.12-.04-.1-.24.04-.35-.03-.34-.08-.59-.02-.1-.03-.24-.12-.31-.03-.02-.06-.04-.09-.02-.15.08.21.63-.2.5-.29-.09-.38-.3-.49-.44-.1-.13-.38-.38-.38-.21,0,.2.29.43.32.49.03.05.03.11,0,.15,0,0,0,0-.01,0-.04.01-.39-.3-.44-.35-.03-.03-.07-.07-.11-.09-.04-.02-.1,0-.12.03-.03.07.07.23.11.29.06.08.37.26.38.35,0,.02-.01.04-.03.04-.04,0-.53-.46-.52-.26,0,.24.42.38.46.47.05.13-.35-.11-.4-.08,0,0-.01.01-.01.02-.01.05,0,.1.04.14s.08.06.13.08c.34.18.39.36.9.46.05,0,.11.02.14.06.27.31,1.49,1.64,1.72,1.55.25-.1.48-.37.43-.59"/>
      <path class="cls-26" d="M6.07,41.43l.3-.11.64,1.66,1.74-.51-.4-2.03.61.24s.78.89.73,3.38c-.06,2.49-2.34,1.38-2.61.76-.15-.34-.47-1.48-1.01-3.39"/>
      <path class="cls-26" d="M5.58,43.33s.99,1.41,1.54,1.36l.67.51s-1.47.25-2.15-1.21l-.06-.67Z"/>
      <path class="cls-17" d="M9.23,39.26c.15.5.15,1.05.12,1.56-.03.52-.27.99-.25,1.51.02.49.2.98.53,1.35.05.05.1.11.12.18.02.07,0,.16-.06.19-.02,0-.05.01-.07.01-.29.01-.57-.11-.79-.3-.22-.19-.38-.44-.51-.7-.06-.11-.11-.23-.13-.36-.02-.13-.01-.27,0-.4.04-.43.11-.87.08-1.3-.03-.43-.17-.88-.47-1.19-.15-.15-.33-.27-.45-.43-.38-.51.18-1.3.77-1.2.51.09.97.59,1.12,1.07"/>
      <path class="cls-8" d="M8.21,38.21s-.06-.02-.09-.03c-.6-.1-1.16.69-.78,1.2.02.03.05.06.08.09.02-.54.31-1.07.79-1.26"/>
      <path class="cls-8" d="M22.95,53.65c-.04.29-.07.57-.1.86-.04.32-.18.98.25,1.1.2.06.41-.03.55-.18.49-.49.31-.9.45-1.81.05-.28.46-.59,0-1.07-.09-.09-.22-.21-.35-.21-.16,0-.42.19-.49.26-.19.21-.28.78-.32,1.05"/>
      <path class="cls-1" d="M18.53,47.8c-.25.41.02,2,.19,2.4.25.58,1.17,2.45,1.44,2.79.17.21,1.19.09,1.29-.12.16-.36-.34-2.8-.43-3.17-.25-1.04-.92-1.56-1.33-1.59-.46-.03-.94-.67-1.16-.31"/>
      <path class="cls-1" d="M22.99,52.12c-.52-.14-1.04-.26-1.57-.33-.22-.03-.44-.05-.65,0-.32.08-.68.53-.71.91-.01.16.12.32.27.39.84.41,2.32.56,2.54.56.31,0,.76.04.95-.27.06-.1.08-.21.1-.32.02-.17.02-.35-.07-.51-.09-.15-.22-.21-.37-.26-.17-.06-.32-.14-.49-.19"/>
      <path class="cls-7" d="M17.89,43.9c.97-1.17,3.12-.75.87,1.16-.25.21-.91.85-1.47,1.29-.3.24-.91-.5-.55-.96.22-.28.75-1.02,1.15-1.5"/>
      <path class="cls-22" d="M18.09,43.64c-.26.29-.63.6-.83.81-.08.35.48,1.12,1.06,1.23.29-.24,2.08-1.28,1.79-2.16-.21-.63-1.31-.68-2.02.11"/>
      <path class="cls-7" d="M16.85,45.28c.12-.05.71.86.71.86,0,0-1.19,1.14-1.34,1.74,0,0-.68-.18-.62-.31.06-.12.38-.94.73-1.56.22-.4.52-.73.52-.73"/>
      <path class="cls-8" d="M20.29,55.33c-.47.39-.89.83-1.32,1.28-.12.13-.86.55-.37,1.01.18.17.45.23.69.18.36-.07.59-.38.85-.61.74-.63.82-.7.77-1.2-.04-.39-.63-.66-.63-.66"/>
      <path class="cls-4" d="M20.52,53.35c-.05-.22-.11-.45-.23-.64-.19-.29-.52-.47-.85-.46-.3.01-.53.12-.64.41-.31.8.2,1.95.45,2.74.1.31.22.76.58.84.21.05.61-.03.79-.24.11-.14.12-.28.12-.45,0-.04.08-.8-.22-2.2"/>
      <path class="cls-4" d="M22.12,48.36c-.14-.24-.15-.19-.45-.16-1.73.2-2.27.08-2.32.86-.06.9-.7,3.91-.65,4.12.14.54,1.56.4,1.77,0,.38-.71,2.58-3.16,1.64-4.81"/>
      <path class="cls-5" d="M21.71,45.81c0-.4.25-.88.07-1.28-.04-.09-.11-.16-.17-.24-.49-.48-1.25-.62-1.89-.79-.38-.1-1.48-.07-1.58-.03-.24.1-.38.47-.43.7-.15.62-.08,1.23,0,1.85.06.55.14,1.09.24,1.64.19,1.1-.05,1.81,1.84,2.01,1.51.16,2.04-.38,2.11-.88.05-.34-.21-1.1-.18-1.68.02-.43-.04-.88,0-1.31"/>
      <path class="cls-7" d="M19.22,43.54s0-.06,0-.09c0-.18.02-.34.05-.51.03-.15.11-.2.24-.26.22-.1.46-.05.67-.15.14-.07.27-.15.44-.13.12.01.21-.03.25.11.05.16.09.31.07.48-.02.21,0,.45.03.66.03.19.05.35-.07.52-.1.14-.25.24-.42.3-.16.05-.34.07-.51.06-.16,0-.33-.03-.48-.11-.33-.18-.27-.55-.27-.87"/>
      <path class="cls-2" d="M22.93,45.48c-.5-1.47-2.71-1.85-1.26.79.16.29.43,1.02.81,1.66.2.34.86.07.96-.06.2-.25.26-.35.08-.92-.11-.35-.38-.87-.58-1.47"/>
      <path class="cls-22" d="M22.86,45.12c.17.35.33.83.44,1.08-.05.34-.81.84-1.37.74-.18-.31-1.41-1.85-.86-2.53.4-.49,1.34-.2,1.79.71"/>
      <path class="cls-2" d="M23.59,47.63c.06-.15-1.11-.43-1.23-.25-.07.1-.28.45-.34.55-.13.25-.61,1.22-.72,1.45-.35.68-.57.27-.85,1.18-.01.04-.05.09-.02.13.03.04.17.1.24-.05.19-.42.31-.26.14.02-.2.32-.73.66-.02.69.19,0,.25.07.48-.15.5-.48.1-.75.71-1.39.14-.15,1.3-1.47,1.6-2.2"/>
      <path class="cls-7" d="M14.96,48.48c-.03.16-.06.32-.06.49,0,.09,0,.38.06.44.09.1.1-.1.17-.06.05.02.11.25.19.1.11-.21.01-.44.09-.47.06-.03.05.37.18.33.13-.05-.05-.7.11-.73.14-.03.02.33.18.39.16.06.05-.49.11-.7.04-.14.17-.23.24-.35.09-.16.05-.49-.15-.56-.17-.06-.43.15-.56.26-.42.33-.48.55-.54.89"/>
      <path class="cls-2" d="M15.25,48.13c-.03.09-.01.19-.13.59-.03.1-.07.22,0,.31.02.04.06.06.1.05.05-.01.07-.07.08-.11.04-.11.09-.29.27-.49.21-.24.46-.28.47-.59,0-.09-.01-.14-.12-.18-.16-.06-.27-.05-.42.04-.18.1-.19.23-.24.38"/>
      <polygon class="cls-8" points="18.05 43.43 17.72 46.41 17.81 47.01 18.62 44.15 18.73 43.38 18.05 43.43"/>
      <path class="cls-8" d="M21.03,43.86s-.75,1.01-.76,1.51c0,.5,1.49,2.15,1.49,2.15v-.43s-.83-1.7-.83-1.88.55-1.09.55-1.09c0,0-.33-.25-.45-.26"/>
      <path class="cls-2" d="M18.45,40.9c-.35.61-.38,1.39-.22,2.08.1.45.33.91.74,1.11.25.12.53.12.79.05s.5-.22.7-.4c.31-.26.62-.63.75-1.02.05-.15.06-.31.09-.46.05-.24.1-.49.08-.74-.02-.23,0-.44-.08-.66-.08-.2-.21-.39-.37-.53-.29-.24-.68-.35-1.05-.3-.13.02-.26.05-.38.09-.28.08-.55.19-.76.4,0,0,0,0-.01.01-.11.12-.21.25-.29.38"/>
      <path class="cls-15" d="M19.71,41.26c-.05.05-.03.14.03.19.06.04.13.05.2.05.05,0,.11-.01.13-.06-.07.06-.08.16-.05.24.03.08.11.14.19.16.04.01.1,0,.11-.03-.04-.01-.07.03-.08.07-.03.07-.05.16-.02.23s.12.13.19.09c-.06.03-.08.11-.08.17,0,.1,0,.21.06.28.02.03.06.07.09.08.04.02.09.02.13.05.05.05.05.12.06.19.02.1.09.19.19.22.07.02.15.01.22.03.08.01.15.02.23-.02.08-.04.14-.14.12-.24.04.02.09.02.13,0,.04-.02.07-.06.09-.1.03-.06.04-.12.04-.19.06.01.12-.03.15-.08.03-.05.04-.11.04-.17,0-.07-.02-.17.03-.22.05-.06.11-.09.13-.18.01-.04.01-.08,0-.13,0-.03-.04-.08-.04-.11,0-.06.07-.12.07-.18,0-.09-.03-.18-.03-.27,0-.06.03-.13.05-.18.02-.05.03-.05,0-.11-.02-.04-.04-.07-.06-.1-.04-.07-.08-.14-.09-.22-.02-.1-.01-.19-.08-.28-.05-.07-.15-.11-.22-.07-.01-.16-.18-.29-.34-.26,0-.08-.03-.17-.1-.21-.07-.05-.17-.01-.23-.07-.08-.07-.11-.14-.22-.17-.12-.04-.24-.02-.35.04-.13-.13-.37-.14-.51-.02,0,0-.01.01-.02.01-.01,0-.03,0-.04-.02-.08-.05-.18-.07-.27-.04-.08.02-.13.11-.2.13-.03,0-.07-.01-.1-.02-.06,0-.11,0-.16.03-.15.06-.28.16-.38.29-.01.01-.02.03-.04.04-.04.03-.09.03-.13.03-.18.02-.32.21-.3.4-.13.03-.24.15-.27.28-.02.09.02.14.03.22.01.08-.02.15.02.24.03.07.09.14.17.16.08.02.17,0,.22-.07.04.09.14.16.24.16.1,0,.2-.06.24-.15.07.07.17.1.27.08.1-.02.18-.11.18-.21,0,.07.05.12.11.14.1.03.22-.02.27-.12"/>
      <path class="cls-2" d="M20.88,42.44c.27-.03.36.29.18.55-.05.07-.15.15-.22.21-.47.42-.62,0-.47-.15.35-.33.16-.57.5-.61"/>
      <g>
        <path class="cls-9" d="M34.19,31.39s1.32-.36,2.08-.32c.76.04,1.16,1.96,1.08,2.6-.08.64.15,2.15-.94,2.53l-2.21-4.81Z"/>
        <path class="cls-10" d="M31.52,48.27s.35.46.4.67c.05.22.07.54-.4.71-.48.17-.73.25-.98.42s-.59.33-1.1.37c-.51.04-.31-.63-.09-.9.22-.27.7-.72.87-.89.17-.17.27-.33.35-.55.08-.22.77-.21.95.17"/>
        <path class="cls-13" d="M32.48,37.38s-.59,1.24-1.22,2.49c-.5.99-1.01,2.81-1.2,3.5-.05.18-.07.37-.05.56l.41,4.43s.39.52,1.27.04l.18-4.26s3.03-4.86,3.33-5.62c.3-.76-2.1-2.64-2.73-1.14"/>
        <path class="cls-10" d="M40.31,40.48s.11-.54.26-.73c.16-.19.57-.19.86.22.29.41.22,1.21.17,1.75-.05.54-.29.85-.65.76-.35-.09-.68-.69-.45-.87.04-.03.31-.18.31-.52s-.22-.62-.5-.61"/>
        <path class="cls-27" d="M32.57,38.08s0,1.04.44,1.47c.44.43,2.63,4.09,3.32,4.51s1.39-.16,1.85-.62c.46-.45,2.66-2.08,2.66-2.08,0,0,.28-.84-.54-1.1l-2.85,1.51s-.12-2.53-.82-3.25c-.7-.72-4.35-2-4.06-.44"/>
        <path class="cls-21" d="M31.66,33.04l-.93,1.56-1.93,1.44s-.24-.1-.36-.09c-.11,0-.38.12-.46.2-.08.08-.04.2.04.2,0,0-.2-.05-.42.14-.22.19-.28.25-.31.33-.03.08-.01.16.04.18,0,0-.13.12-.05.25,0,0-.09.12,0,.19,0,0-.07.12.04.17s.3-.22.3-.22c0,0,.41-.03.53-.07.11-.04.43-.31.68-.69,0,0,2.01-.86,2.56-1.13.55-.27,1.18-1.97,1.18-1.97,0,0-.48-1.38-.91-.5"/>
        <path class="cls-13" d="M31.93,35.26l1.53-2.53s1.2-1.41.49-1.66c-.71-.25-1.27-.1-1.48.17-.21.27-1.96,3.26-1.96,3.26l-1.72,1.46s.29.29.24.74l2.45-1.06c.19-.08.34-.22.45-.39"/>
        <path class="cls-11" d="M36.87,38.64l-.47-2.43s.84-3.01.08-3.68c-.76-.66-1.87-1.35-2.53-1.46-.66-.11-1.57.71-1.55,3l.03,2.29-.35,1.47s.27,1.2,1.95,1.44c1.67.24,2.84-.63,2.84-.63"/>
        <path class="cls-12" d="M35.67,30.69l.12,1.29s-.62.76-1.44.88c-.82.12-.84-.53-.79-.81.05-.28.09-1.21.09-1.53s.13-1.06,1.01-1.14c.89-.08.93.51,1.01,1.31"/>
        <path class="cls-21" d="M38.33,33.42s1.05.35,1.33.63c.28.28.35.48.49.88.13.4.68,2.02.68,2.02,0,0,.33.19.45.55.12.37.26,1.14.16,1.32-.1.18-.17.05-.17.05,0,0-.03.24-.22.18,0,0-.07.25-.22.18,0,0-.06.2-.2.09-.14-.1-.04-.5-.04-.5l-.28-.64s-.12.09-.09.31c.03.22-.2.42-.29.2-.09-.21-.09-.43.03-.75.12-.32.27-.75.27-.75l-1.17-2.25s-1.07-.22-1.39-.56c-.32-.35-.35-1.08.64-.96"/>
        <path class="cls-13" d="M36.16,34.11c-.91-.29-.61-1.82.33-1.59.64.16,2.16.79,2.97,1.14.34.14.59.43.7.77l.7,2.2s-.34.34-.99.3l-.9-1.82s-2.36-.87-2.8-1.01"/>
        <path class="cls-9" d="M35.95,31.83s-1.68,1.12-1.4,1.84c.28.72,2.04,2.72,2.04,2.72l.16-1.12s-1.32-1.08-1.12-1.92c.2-.84.68-.92.68-.92l-.36-.6Z"/>
        <path class="cls-9" d="M32.31,34.63s-.08-2.68.84-3.56h.8s-1.2,4.08-1.56,4.52l-.08-.96Z"/>
        <path class="cls-12" d="M36.16,29.69c-.05.47-.38.88-.49,1.05-.1.18-.51.55-.84.71-.29.13-1.19.13-1.64.13-.49,0-.72-2.44-.58-2.93.14-.49.57-1.13,1.99-1.15,1.42-.02,1.72.55,1.55,2.19"/>
        <path class="cls-10" d="M35.87,31.28s.07-.72.34-1.08c.27-.36.29-1.33-.05-1.99-.34-.66-.72-.82-1.38-.83-.66,0-1.22.07-1.84.61-.62.54-.63.88-.54,1.32.08.39.88.1,1.08.3.55.59.57.85.57.85,0,0,.88-.41,1.09.15.15.41.23.94.74.66"/>
        <path class="cls-12" d="M34.43,30.52c.07-.28.43-.47.63-.17.2.3-.02.74-.38.82-.36.08-.38-.12-.24-.65"/>
        <path class="cls-24" d="M50.07,12.13s1.02-.29,1.81.04c.8.33.78,2.2.75,2.55-.02.35.06,2.28-1.1,2.06l-1.47-4.65Z"/>
        <path class="cls-21" d="M52.23,21.76s.18-.13.53,0c.35.13,1,.29,1.56.33,0,0,.77.02.77.48s-.63.33-.63.33l-2.43.09s-.91-.97.19-1.24"/>
        <path class="cls-25" d="M53.92,22.94s-.24.93-.05,1.53c.18.6.6.6.78.22.18-.38.34-1.22.59-1.62.26-.4.46-1.51-.92-.98,0,0,.38.1.34.44-.04.34-.23.4-.73.42"/>
        <path class="cls-14" d="M47.5,18.6s.78,1.95,1.3,2.71c.52.77,1.19,1.68,1.33,1.8.13.11,2.1,0,2.1,0,0,0,.24-.1.29-.71.06-.61-.21-.8-.21-.8l-1.34-.19s-.16-1.55-.53-2.26c-.37-.71-2.89-1.75-2.94-.54"/>
        <path class="cls-21" d="M47.16,26.22l1.4,2.08.06.69s1.09-.26.7-1.06c-.39-.8-.41-.71-.52-1.21-.11-.51-.14-.79-.49-1.06-.35-.27-1.78-.42-1.15.56"/>
        <path class="cls-25" d="M48.57,28.3s-.94,1-1.21,1.36c-.27.36.1.8.68.62.58-.17,1.07-.85,1.43-1.2.36-.35.23-.72-.24-1.34,0,0,.09.16.06.33-.04.24-.55.51-.72.24"/>
        <path class="cls-18" d="M52.09,19.32s.17.3,0,.92c-.17.62-.3.91-.53,1.27-.22.37-3.31,3.78-3.31,3.78l.39.58s-.18.49-.67.68c-.49.19-.76,0-.76,0,0,0-.68-.92-.74-1.29-.05-.37.88-2.23,1.23-2.79.35-.56,1.21-1.8,1.21-1.8,0,0-1.12-1.2-1.24-1.71-.12-.51.39-2.03,1.37-2.05.99-.03,2.68,1.07,3.04,2.43"/>
        <path class="cls-21" d="M46.9,13.63l-.8,1.63-2,1.55s-.17-.21-.29-.2c-.11,0-.38.12-.46.2-.08.08-.04.2.03.2,0,0-.2-.05-.42.14-.22.19-.28.25-.31.33-.03.08-.01.16.04.17,0,0-.13.12-.05.25,0,0-.09.12,0,.2,0,0-.07.12.04.17.12.05.3-.22.3-.22,0,0,.41-.03.53-.07.11-.04.43-.31.68-.69,0,0,2.01-.86,2.56-1.13.55-.27,1.18-1.97,1.18-1.97,0,0-.61-1.45-1.04-.57"/>
        <path class="cls-23" d="M48.83,13.38l-1.05,1.35s-.33-.07-.69-.35c-.36-.28-.41-.49-.41-.49,0,0,.95-1.73,1.16-2,.21-.27.77-.42,1.48-.17.71.25-.49,1.66-.49,1.66"/>
        <path class="cls-25" d="M52.31,19.63l-.4-2.74s.7-3.05-.06-3.71c-.76-.66-1.87-1.35-2.53-1.46-.66-.11-1.57.71-1.55,3,.02,1.58-.08,2.42-.08,2.42l-.24,1.34s.27,1.2,1.95,1.44c1.67.24,2.9-.29,2.9-.29"/>
        <path class="cls-12" d="M51.04,11.35l.12,1.29s-.62.76-1.44.88c-.82.12-.84-.53-.79-.81.05-.28.09-1.21.09-1.53s.13-1.06,1.01-1.14c.89-.08.93.51,1.01,1.31"/>
        <path class="cls-21" d="M53.52,14.76s.9.64,1.09.99c.19.35.2.57.21.98.01.42.08,2.13.08,2.13,0,0,.26.28.27.66.01.39-.08,1.17-.23,1.31-.15.15-.17,0-.17,0,0,0-.09.23-.26.11,0,0-.13.22-.26.11,0,0-.11.17-.22.03-.11-.14.11-.48.11-.48l-.08-.69s-.15.05-.18.27c-.03.22-.31.34-.33.11-.03-.23.04-.44.25-.71.21-.27.47-.64.47-.64l-.47-2.5s-.95-.37-1.16-.79c-.21-.42-.03-1.28.88-.88"/>
        <path class="cls-23" d="M52.8,15.89s-1.18-.82-1.56-1.08c-.79-.54-.06-1.92.77-1.43.79.46,1.71,1.43,1.71,1.43,0,0-.14,1.03-.92,1.08"/>
        <path class="cls-24" d="M51.19,12.5s-1.43.88-1.41,2.37c.02,1.49,2.24,2.63,2.24,2.63l.16-1.22s-1.55-.47-1.2-2.12c.35-1.65.98-.9.98-.9l-.77-.76Z"/>
        <path class="cls-24" d="M48.5,11.66s-.65,3-.8,3.34v1.33s1.08-1.57,1.49-4.42l-.69-.25Z"/>
        <path class="cls-12" d="M51.53,10.35c-.05.47-.38.88-.49,1.05-.1.18-.68.77-1.01.93-.63.3-1.47.34-1.8-.02-.33-.36-.58-2.19-.43-2.68.14-.49.76-1.45,2.19-1.47,1.42-.02,1.72.55,1.55,2.19"/>
        <path class="cls-10" d="M51.24,11.93s.07-.72.34-1.08c.27-.36.37-1.5.03-2.16-.34-.66-.74-.77-1.4-.77-.66,0-1.34.13-1.96.67-.62.54-.85,1.01-.67,1.37.18.36.48.68,1.28.6.8-.08.67.9.67.9,0,0,.77-.76.97-.19.15.41.23.94.74.66"/>
        <path class="cls-12" d="M49.8,11.18c.07-.28.43-.47.63-.17.2.3-.02.74-.38.82-.36.08-.38-.12-.24-.65"/>
      </g>
    </g>
  </g>
</svg>