<?xml version="1.0" encoding="UTF-8"?>
<svg id="Calque_2" xmlns="http://www.w3.org/2000/svg" viewBox="0 0 56.95 36.51">
  <defs>
    <style>
      .cls-1 {
        fill: #fff;
      }

      .cls-2 {
        fill: #e73c4a;
      }

      .cls-3 {
        fill: #301d1a;
      }

      .cls-4 {
        fill: #e5e4e4;
      }

      .cls-5 {
        fill: #f29574;
      }

      .cls-6 {
        fill: #0e8d95;
      }

      .cls-7 {
        fill: #144a5b;
      }

      .cls-8 {
        fill: #532d29;
      }

      .cls-9 {
        fill: #f7b699;
      }

      .cls-10 {
        fill: #f3f2f3;
      }

      .cls-11 {
        fill: #ffd500;
      }

      .cls-12 {
        fill: #cd1518;
      }
    </style>
  </defs>
  <g id="_Éléments_Mise_en_page" data-name="Éléments_Mise_en_page">
    <g>
      <path class="cls-7" d="M54.78,8.09s.49.38.69,1.44c.2,1.06.65,4.39-.55,4.89-1.2.5-3.56-1-3.56-1l3.41-5.34Z"/>
      <path class="cls-6" d="M54.95,8.81c.14-.08.18-.27.09-.4-.12-.17-.33-.42-.69-.7-.68-.52-1.68-.94-2.16-.58-.48.36-.07,1.31.98,1.83.74.36,1.43.06,1.78-.15"/>
      <path class="cls-9" d="M54.15,20.36s.27.05.51.73c.24.68.74,1.58.74,1.58,0,0,.14.56-.16.83-.3.27-.65-.28-.84-.55-.19-.27-1.17-1.44-1.48-1.82-.31-.38.07-.83.45-.83.38,0,.79.06.79.06"/>
      <path class="cls-8" d="M55.29,22.47s.18.09.54.46c.36.36.36.44.24.64-.12.21-.83.69-1,.96-.17.28-.72.94-1.01,1.05-.29.11-.73-.07-.46-.86.27-.79.51-.61.74-1.85,0,0,.24.37.69.14.34-.18.27-.55.27-.55"/>
      <path class="cls-7" d="M49.61,15.35s.46,1.77,1.22,2.86c.75,1.09,1.89,2.96,1.89,2.96,0,0,.48.42,1.22-.17.42-.33.42-.61.42-.61l-1.35-1.82s.41-1.36.59-1.9c.18-.54-.91-1.95-2.3-1.85-1.39.1-1.7.52-1.7.52"/>
      <path class="cls-9" d="M51.69,24.14s-.01.66-.11,1.13c-.09.46-.22,1.37-.22,2.29,0,0,.02.6-.35.74-.37.14-.69-.04-.71-.58-.02-.53-.22-3.83-.22-3.83,0,0,.19-.83.8-.82.61.01.77.69.81,1.07"/>
      <path class="cls-6" d="M54.5,15.85s.01.75-.08,1.67c-.1.92-2.61,5.3-2.61,5.3l.08,1.4c0,.09-.02.17-.08.24-.12.14-.41.34-.96.26-.83-.13-.89-.52-.89-.52,0,0-.06-1.02-.02-1.39s1.29-5.19,1.29-5.19c0,0-1.46-1.38-1.61-2.26s2.78-1.8,3.7-.99c.92.8,1.18,1.49,1.18,1.49"/>
      <path class="cls-8" d="M50.31,27.72s-.34.47-.99.89c-.66.43-.79.76-.59.94.2.18.99.15,1.52-.14.53-.28,1.16-.49,1.26-.91.09-.42-.13-.96-.13-.96,0,0-.12.42-.51.44-.42.01-.55-.27-.55-.27"/>
      <path class="cls-5" d="M48.85,9.88s-.37.83-.61,1.42c-.25.59-1.48,3.75-1.48,3.75,0,0-.48.25-.71.64-.23.39-.38.46-.4.62-.02.15.11.1.11.1,0,0-.2.37-.26.58-.06.21-.06.41.04.41,0,0,.02.19.17.15,0,0,.16.18.24.02,0,0,.2.13.23-.05.03-.18.14-.49.14-.49,0,0,.37-.31.51-.54.14-.22.23-.48.26-.71.03-.23.07-.49.07-.49,0,0,1.51-2.23,1.79-2.69.28-.46.83-1.3.93-1.9.1-.6-.72-1.29-1.02-.83"/>
      <path class="cls-10" d="M50.62,9.61l-.74,1.18s-.37,0-.8-.33c-.42-.33-.43-.65-.43-.65,0,0,.74-1.44.93-1.83.19-.39.6-.79,1.39-.63.78.15-.18,1.98-.35,2.26"/>
      <path class="cls-10" d="M54.28,11.09l-.11,2.26.57,2.6s-.13.58-1.13.73c-1.01.15-2.53.14-3.18-.36s-1.01-1.36-1.01-1.36l.34-1.27s-.02-2.31-.04-3.35c-.02-1.05.11-2.66.93-2.96.82-.29,3.03,1.21,3.49,1.79.46.58.15,1.92.15,1.92"/>
      <path class="cls-9" d="M54.6,12.08s.54,1.01,1.24,1.45c0,0,.05,1.49,0,2.12-.05.63-.19,1.11-.19,1.11,0,0-.56.36-.79.7-.23.33-.31.7-.2.85.1.14.48-.49.48-.49l-.03.83s-.24.37-.3.49c-.06.12.03.29.22.21,0,0,.09.21.3.02,0,0,.12.18.29-.05,0,0,.11.2.27-.08.16-.28.39-.8.45-1.19.05-.39-.04-1.13-.04-1.13,0,0,.61-2.89.66-3.35.04-.46-.57-1.68-1.03-2.14-.45-.46-1.8-.07-1.32.65"/>
      <path class="cls-10" d="M56.16,11.45s-1.13-1.64-1.5-2.08c-.37-.44-1.08-.52-1.37.26-.3.78.24,1.31.56,1.8.33.49.69,1,.69,1,0,0,.37.31.95-.14.75-.58.66-.85.66-.85"/>
      <path class="cls-11" d="M49.28,14.96s2.56,1.82,5.49.85c0,0-.56-2-.53-2.23.03-.23,0-1.49,0-1.49,0,0-1.04-.67-1.38-1.38-.34-.72-.39-1.68.77-2.01l-.19-.17-.24-.17s-.68.25-1.47,1.43l-.61,1.12s-.11-2.46.02-3l-.47-.21s-.78.83-.84,3.38l-.16,1.93c0,.21-.08.84-.14,1.05l-.24.93Z"/>
      <path class="cls-6" d="M51.85,7.69s-.28-.22-.5-.26c-.22-.05-.96.25-1.12,1.18-.16.93-.31,2.47-.5,3.28l-.03.58s.41-.49.55-1.03c.15-.55.23-2.01.38-2.62.17-.7.6-1.16,1.22-1.13"/>
      <path class="cls-9" d="M53.1,8.32l-.45-1.38s-1.5.55-1.67.95c0,0,.06.35.18.7.1.29.72.84,1.94-.28"/>
      <path class="cls-9" d="M53.03,7.22s-.81.79-1.26,1.1c-.45.31-.95.52-1.17.25-.22-.27-.55-1-.72-1.53-.16-.53-.24-1.09.17-1.91.41-.82,1.54-1.59,2.27-1.35.72.24,1.17.76,1.22,1.59.05.82-.02,1.18-.51,1.85"/>
      <path class="cls-3" d="M53.02,8.08s-.14-.59.23-1.03c.62-.73.63-1.56.5-2-.12-.44-.22-1.04-.8-1.26-.59-.22-.97-.33-1.35-.18-.39.15-.54.14-.85.36-.31.22-.34.2-.56.49-.22.29-.68.67-.7,1.02-.01.36.68.94,1.96.85.74-.05.47.75.47.75,0,0,.51.2.81.57.3.37.28.43.28.43"/>
      <path class="cls-9" d="M52.45,7.76c-.12-.1-.19-.48.06-.88.23-.36.54-.06.39.37-.14.42-.34.61-.45.51"/>
      <path class="cls-6" d="M53.63,8.7s-.2-.28-.43-.32c0,0-.65.33-.91.95-.17.42-.32,1.37.29,2.87.23.57,1.15,1.27,1.67,1.37,0,0,0-.2,0-.37,0-.17-.03-.27-.03-.27,0,0-.63-.05-1.12-.91-.34-.58-.57-1.84-.4-2.39.23-.77.92-.93.92-.93"/>
      <rect class="cls-10" x="50.02" y="12.87" width=".4" height="1.11" transform="translate(30.26 61.42) rotate(-82.38)"/>
      <rect class="cls-10" x="49.93" y="13.78" width=".4" height="1.11" transform="translate(29.27 62.13) rotate(-82.38)"/>
      <rect class="cls-10" x="51.72" y="13.46" width="2.54" height=".4"/>
      <rect class="cls-10" x="51.83" y="14.34" width="2.54" height=".4"/>
      <path class="cls-12" d="M41.82,11.07s.49.38.69,1.44c.2,1.06.65,4.39-.55,4.89-1.2.5-3.56-1-3.56-1l3.41-5.34Z"/>
      <path class="cls-1" d="M41.98,11.79c.14-.08.18-.27.09-.4-.12-.17-.33-.42-.69-.7-.68-.52-1.68-.95-2.16-.58-.48.36-.07,1.31.98,1.83.74.36,1.43.06,1.78-.15"/>
      <path class="cls-5" d="M38.39,11.12s-1.11,1.72-1.6,2.4c-.48.68-.76.8-1.65,1.32-.89.52-1.6.9-1.6.9,0,0-.34.44-.76.7-.42.26-.62.25-.62.25,0,0-.31.29-.39.37-.08.08-.15-.01-.13-.07,0,0-.14-.01-.13-.1,0,0-.15.02-.14-.14,0,0-.15-.05-.08-.22.07-.17.64-.64.64-.64,0,0-.13-.02-.09-.13.04-.11.47-.31.8-.46.32-.15.53-.09.53-.09l2.54-2.01s.74-.95,1.1-1.51c.36-.55.94-1.35,1.63-1.64s-.05,1.06-.05,1.06"/>
      <path class="cls-9" d="M39.12,20.69s-.72,2.44-1.09,3.09c0,0,.02.89-.04,1.91-.06,1.03-.09,2.92-.09,2.92,0,0-.01.51-.33.6-.32.09-.59-.08-.61-.55-.02-.47-.16-2.61-.41-3.53-.25-.92-.42-1.39-.17-2.72.24-1.33.66-2.92.81-3.43.15-.51,1.03-1.1,1.59-.43.55.67.55,1.53.36,2.13"/>
      <path class="cls-2" d="M37.89,28.62s-.41.57-.94.06c0,0-.54.61-.96,1.01-.42.4-.61.69-.47.94.13.24.58.29.84.12.27-.17,1.26-.68,1.57-.9.31-.23.45-.42.3-.7-.15-.28-.34-.52-.34-.52"/>
      <path class="cls-9" d="M40.45,19.32c-.22.1-.35.34-.32.58.09.81.37,2.8.89,3.56.66.96,2.67,2.34,2.67,2.34,0,0,.3.45.58.43.28-.01.54-.1.16-.74-.39-.64-.91-1.45-1.17-1.94s-.8-1.04-.8-1.04c0,0-.53-3.85-2.01-3.2"/>
      <path class="cls-2" d="M43.69,25.8s-.14.53-.4.97c-.26.43-.59.78-.3,1.22.28.45.93-.17,1.27-.63.33-.45.84-1,.88-1.24.05-.24-.11-.51-.36-.61-.25-.1-.33-.13-.47-.21,0,0,.16.34-.06.59-.22.26-.56-.09-.56-.09"/>
      <path class="cls-2" d="M39.64,10.13s1.03.53,1.78,1.23c.75.69.46,2.02.38,2.67-.05.5-.19,1.5-.04,2.13.95,3.82,1.49,5.69,1.62,6.14.02.07,0,.15-.03.21-.1.15-.33.43-.63.56-.72.3-1.55.21-2.21-.21-.44-.28-1.1-.61-1.7-.55-1.21.12-2.43-.71-2.88-1.05-.11-.08-.15-.22-.11-.35.19-.6.76-2.37,1.18-3.46.51-1.34.55-2.07.59-3.17.03-1.1.04-2.6.26-3.37.22-.77.83-1.26,1.78-.75"/>
      <path class="cls-9" d="M44.41,12.79c-.6-.22-2.37-1.11-2.85-1.3-.78-.31-1.18,1.11-.4,1.39.77.28,3.21.97,3.21.97,0,0,.56.9.99,1.49l.43.59s-.2.42-.26.73c-.06.31,0,.51.14.66s.22-.02.2-.15c-.02-.13-.08-.33.06-.36.14-.02.28.43.28.43,0,0-.04.39.1.47.13.08.2-.16.2-.16,0,0,.18.08.22-.14,0,0,.14.09.22-.15,0,0,.21.06.18-.25-.03-.31-.05-.61-.31-.99-.26-.38-.53-.76-.72-1.12-.19-.36-.88-1.52-.99-1.7-.1-.17-.52-.34-.7-.41"/>
      <path class="cls-8" d="M37.42,7.81s-.25.37-.23.83c.01.46.33,1.51.38,1.94.05.42-.26,1.33-.27,1.72,0,.39-.02.95.31,1.55,0,0,.36,0,.42-.5s-.08-.94-.06-1.45c.02-.5.2-1.05.28-1.44.08-.39-.02-1.7-.12-2.05-.1-.36-.28-1.09-.72-.6"/>
      <path class="cls-11" d="M36.64,17.88s2.88,1.47,5.81.5c0,0-.75-2.33-.72-2.56.03-.23.15-1.84.15-1.84,0,0-.78-.35-1.13-1.07-.34-.72-.4-1.67.77-2.01l-.19-.17-.21-.13s-.7.05-1.5,1.39l-.61,1.11s-.11-2.46.01-2.99l-.47-.21s-.78.82-.84,3.38l-.17,1.93c0,.21-.15.81-.21,1.01l-.69,1.66Z"/>
      <path class="cls-12" d="M41.12,11.26s-.22-.27-.44-.31c0,0-.54.24-.8.87-.17.42-.42,1.46.18,2.95.23.57,1.21,1.22,1.73,1.32l-.02-.59s-.68-.06-1.18-.91c-.33-.58-.51-1.96-.34-2.51.17-.55.87-.83.87-.83"/>
      <path class="cls-12" d="M39.69,10.36s-.28-.22-.5-.26c-.22-.05-.96.25-1.12,1.18-.16.93-.3,2.49-.49,3.3l-.04.57s.4-.49.55-1.04c.15-.55.23-2.01.38-2.62.17-.7.6-1.16,1.22-1.13"/>
      <path class="cls-9" d="M40.53,10.86c0,.08-.14.14-.18.21-.11.14-.24.42-.55.54-.45.17-.89-.2-.92-.49-.03-.3-.05-1.08.05-1.36.1-.28,1.66-.4,1.6,1.11"/>
      <path class="cls-9" d="M40.3,10.01s-.31.58-.98.9c-.66.31-1.07.34-1.19.12-.12-.22-.43-.77-.54-1.33-.12-.56-.34-.98-.03-1.65.31-.66,1.14-1.89,2.34-1.24,1.21.64.65,2.57.41,3.2"/>
      <path class="cls-8" d="M42.63,11.99l-1.08-1.62s-.04-.9.11-1.7c.15-.8.13-1.75-.43-2.3-.57-.54-1.65-.79-2.31-.32-.66.47-1.4,1.32-1.54,1.86-.13.54,0,1.02,0,1.02,0,0-.04-.46.23-.42.27.04,1.09.48,1.2.72.19.4.78.98,1.05,1.21.27.24.82.44,1.22.89.37.42,1.54.65,1.54.65"/>
      <rect class="cls-10" x="39.31" y="16.22" width="2.5" height=".4"/>
      <rect class="cls-10" x="39.49" y="17.1" width="2.5" height=".4"/>
      <rect class="cls-10" x="38.02" y="15.47" width=".4" height="1.55" transform="translate(13.16 49.37) rotate(-75.92)"/>
      <rect class="cls-10" x="37.77" y="16.28" width=".4" height="1.55" transform="translate(12.19 49.74) rotate(-75.92)"/>
      <path class="cls-3" d="M27.55,7.61s.49.38.69,1.44c.2,1.06.65,4.39-.55,4.89-1.2.5-3.56-1-3.56-1l3.41-5.34Z"/>
      <path class="cls-8" d="M27.72,8.33c.14-.08.18-.27.09-.4-.12-.17-.33-.42-.69-.7-.68-.52-1.68-.95-2.16-.58-.48.36-.07,1.31.98,1.83.74.36,1.43.06,1.78-.15"/>
      <path class="cls-9" d="M22.68,22.33s.15,1.01,0,1.94c-.15.93-1.33,5.61-1.33,5.61,0,0-.04.41-.46.5-.42.09-.61-.06-.54-.68.07-.62.61-5.5.61-5.5,0,0-.13-1.19.06-1.81.19-.62,1.6-.7,1.66-.07"/>
      <path class="cls-3" d="M21.39,29.75s-.52.51-1.03-.05c0,0-1.92,1.18-1.76,1.59.16.42,1.03.24,1.6.08.58-.15.61-.2,1.08-.28.45-.08.46-.44.36-.71-.1-.27-.24-.63-.24-.63"/>
      <path class="cls-3" d="M20.91,22.17s.43-3.48.73-4.51c.26-.92.5-1.74.65-2.11l2.42,2.49s-.82,2.07-1.01,3.15c-.2,1.08-.47,1.42-.47,1.42,0,0-.21.45-1.35.23-1.14-.22-.96-.68-.96-.68"/>
      <path class="cls-5" d="M23.04,10.2s-.45,1.22-.74,1.9c-.3.71-.49,1.26-.79,1.5-.3.23-2.33,2.1-2.33,2.1,0,0,0,.27-.23.55-.23.29-.37.47-.57.51-.2.03-.34.27-.39.39-.04.12-.24.13-.24-.03,0,0-.17,0-.11-.2,0,0-.17-.05-.11-.26,0,0-.16-.13-.01-.35.15-.22.47-.62.47-.62,0,0-.14-.04-.05-.23.08-.18.34-.29.53-.28.18,0,.31.03.5-.17.19-.2,2.09-2.34,2.09-2.34,0,0,.84-2.58,1.07-3.14.23-.56,1.32-.23.92.65"/>
      <path class="cls-7" d="M23.62,9.02l-.43,1.4c-.03.09-.13.14-.21.1-.2-.1-.54-.27-.73-.4-.15-.1-.25-.2-.32-.27-.06-.06-.07-.14-.05-.22.16-.41.68-1.74.94-2.08.31-.4.76-.65,1.13-.67.36-.03-.22,1.6-.33,2.15"/>
      <path class="cls-9" d="M28.68,20.51l.15.52s.3.17.54.83c.24.66,1.43,3,1.43,3,0,0,.16.42,0,.74-.16.32-.62.2-.78-.35,0,0-.12-.41-1.02-1.39-.89-.99-1.74-1.81-1.8-2.32-.05-.51,1.03-1.88,1.48-1.03"/>
      <path class="cls-3" d="M30.7,24.68s.23.06.33.33c.14.33.24.47.05.84s-.33.46-.51.67c-.18.21-.66.71-1.06.81-.4.1-.79-.05-.69-.39.1-.33.53-.81.7-1.03.17-.23.43-.79.43-.79,0,0,0,.19.33.22.33.03.54-.31.41-.66"/>
      <path class="cls-8" d="M25.3,15.46c.86.22,1.69.25,2.14.85,0,0,1.58,3.74,1.6,4.23,0,0,0,.77-.94,1.19-.59.26-.96-.02-.96-.02,0,0-1.31-1.87-1.57-2.34-.26-.47-2.77-2.53-2.77-2.53l-.51-1.18c.16-.37,2.15-.42,3.01-.21"/>
      <path class="cls-6" d="M27.34,10.2s-.2,2.12-.41,2.87c-.21.74.88,3.15.69,3.65-.19.51-1.4,1.22-2.93.82-1.53-.41-2.44-.73-2.54-1.74,0,0,.43-1.38.53-2.24.09-.87,0-4.8,0-5.35,0-.54.51-1.24,1.26-1.34.75-.1,2.02.93,2.02.93,0,0,1.54.78,1.38,2.41"/>
      <path class="cls-9" d="M28.05,11s2.12.97,2.52,1.15l1.3,2.92s-.17.5-.27.71c-.1.21-.16.29-.14.59s.06.38.2.39c.14,0,.16-.09.17-.22,0-.12-.02-.37.17-.4,0,0,.15.1.17.45.01.34-.07.61.05.68.12.07.21-.05.22-.17,0,0,.19.13.24-.15,0,0,.24.12.24-.22,0,0,.23.18.23-.16,0-.34-.03-.76-.13-1.03-.1-.27-.48-.67-.48-.67,0,0-.87-2.54-1.04-2.98-.17-.43-.35-.45-.85-.73-.49-.28-1.68-.95-1.68-.95,0,0-1.9.21-.91.79"/>
      <path class="cls-7" d="M29.26,10.38c0-.06-.02-.13-.07-.17-.36-.28-1.83-1.43-2.23-1.71-.46-.32-1.04-.12-1.28.4-.24.52-.02.94.15,1.13.15.17,1.9,1.19,2.34,1.44.06.04.14.04.2,0,.24-.14.8-.52.9-1.1"/>
      <path class="cls-11" d="M22.17,15.3s2.41,1.44,5.34.46c0,0-.59-2.43-.56-2.66.03-.23.36-1.82.36-1.82,0,0-1.23-.37-1.58-1.09-.34-.72-.4-1.67.77-2.01l-.19-.17-.21-.13s-.7.05-1.5,1.39l-.61,1.11s-.11-2.46.02-2.99l-.47-.21s-.78.83-.84,3.38v1.62c0,.21,0,1.14-.05,1.35l-.46,1.78Z"/>
      <path class="cls-8" d="M24.8,7.3s-.28-.22-.5-.26c-.22-.05-.96.25-1.12,1.18-.16.93-.29,2.51-.47,3.32v.51s.35-.45.5-1c.15-.55.23-2.01.38-2.62.17-.7.6-1.16,1.22-1.13"/>
      <path class="cls-8" d="M26.46,8.14s-.22-.26-.44-.31c0,0-.65.33-.91.95-.17.42-.32,1.37.29,2.87.23.58,1.05,1.19,1.57,1.29,0,0,.07-.09.1-.25.03-.16,0-.26,0-.26,0,0-.64-.1-1.14-.95-.34-.58-.57-1.84-.4-2.39.17-.55.94-.95.94-.95"/>
      <path class="cls-9" d="M25.42,6.75l.54,1.05s-.72.63-1.31.71c-.59.08-.59-1.17-.59-1.17,0,0,1-.86,1.36-.59"/>
      <path class="cls-9" d="M26.08,6.62s-1.2.96-1.76,1.23c-.55.26-.96.28-1.27-.62-.3-.9-.42-1.99-.36-2.46.06-.47,1.01-1.71,2.38-1.57,1.37.14,1.96,1.94,1.01,3.42"/>
      <path class="cls-3" d="M25.5,6.89s-1.04-.68-.8-1.25c0,0-.95.51-2.01-.05-.09-.05-.14-.15-.15-.25-.03-.23-.05-.7.14-1.1.26-.56,1.56-1.46,2.23-1.47.67-.01,1.58.13,1.83,1.16.24,1.03.14,1.7-.11,2.16-.25.46-.96.87-.81,1.43l-.32-.63Z"/>
      <path class="cls-9" d="M25.34,6.92s-.08-.4.23-.51c.31-.11.4.15.29.38-.1.23-.35.48-.48.44-.14-.04-.05-.17-.04-.31"/>
      <rect class="cls-10" x="24.26" y="13.02" width="2.71" height=".4"/>
      <rect class="cls-10" x="24.34" y="13.94" width="2.71" height=".4"/>
      <rect class="cls-10" x="23.11" y="12.56" width=".4" height="1.11" transform="translate(7.23 34.49) rotate(-82.38)"/>
      <rect class="cls-10" x="23.03" y="13.47" width=".4" height="1.11" transform="translate(6.25 35.19) rotate(-82.38)"/>
      <path class="cls-9" d="M.01,16.93c-.09-.45.24-.98.54-1.46.3-.48.67-.68.67-.68,0,0,1.95-1.66,2.55-2.17.6-.51,1.31-1.02,1.31-1.02l-.5-2.15c-.24-.77.71-1.41,1.11-1.22.4.2.69.93.69.93,0,0,.23,1.43.31,1.83.06.31.12.99.14,1.41,0,.18-.07.34-.21.45-.38.3-.97.73-1.17.84-.26.14-3.72,2.14-3.72,2.14.06.37-.11,1.23-.47,1.39-.36.16-1.17.08-1.24-.3"/>
      <path class="cls-5" d="M.52,16.83s.16-.36.23-.43c.06-.07.26-.08.22.11,0,0,.16-.22.28,0,0,0,.14-.23.25,0,0,0,.12-.11.17,0,.06.12.05.66.04.74-.01.08-.18.16-.28.07,0,0-.12.2-.32.07,0,0-.13.1-.24.08-.12-.01-.2-.17-.2-.17,0,0-.04.03-.14.02-.1-.01-.18-.17-.01-.52"/>
      <path class="cls-9" d="M1.33,15.5c.07.22.03.42-.2.61-.23.18-.55.24-.55.24,0,0,.14.37.18.5.05.16.06.56-.15.49-.14-.04-.25-.3-.36-.63-.09-.29-.22-.58-.14-.73.08-.15.47-.66.6-.75.13-.09.47-.17.61.26"/>
      <path class="cls-10" d="M4.66,5.73c-.28,0-.54.17-.68.42-.16.27-.34.67-.27,1.04.12.65.77,2.29.77,2.29,0,0,.46.08.95-.02.64-.13.95-.29.95-.29,0,0-.42-1.9-.54-2.53-.1-.49-.61-.91-1.18-.91"/>
      <path class="cls-9" d="M3.66,34.37c.47-.11,1.08-.57,1.37-.9.27-.32.26-.65.29-1.12-.57-.82.14-3.4.23-4.24.09-.83-.7-2.08-.7-2.08l.47-2.8c.64-2.55-3.09-1.5-3.11-1.04-.02.46.18,3.64.17,4.01s.12,1.66.28,2.21c.15.55,1.04,2.54,1.12,3.95.03.5-.27.94-.68,1.34,0,0,0,0,0,0-.08.29.08.78.56.66"/>
      <path class="cls-8" d="M5.03,33.47c-.29.34-.9.79-1.37.9-.47.12-.64-.38-.56-.66,0,0,0,0,0,0-.33.32-.73.62-1.1.92-.83.66-.65,1.82-.05,1.89.6.08,1.75-1.08,2.02-1.47.27-.39.58-.54,1.24-.84.65-.3.73-.97.11-1.85-.04.47-.02.8-.29,1.12"/>
      <path class="cls-9" d="M13.2,32.15c.48-.41.67-.99.66-1.58,0-.48-.11-.62-.27-.93h0c-.53-.43-1.09-1.83-1.36-2.28-.3-.5-.85-1.1-1.65-1.22-.8-.12-.95-.61-.95-.84s-2.53-.29-2.4,1.5c0,0-.01.6,1.18,1.25,1.19.64,3.73,2.21,3.84,2.82.05.28-.03.67-.14,1.05h0c.04.35.47.74,1.09.22"/>
      <path class="cls-8" d="M13.78,29.75c-.06-.02-.12-.06-.18-.11,0,0,0,0,0,0,.16.31.26.44.27.93,0,.59-.18,1.17-.66,1.58-.61.52-1.04.13-1.09-.21,0,0,0,0,0,0-.14.46-.35.9-.48,1.11-.25.38-.61,1.02-.18,1.29.58.36,1.51.23,1.91-.3.4-.52,1.25-2.87,1.28-3.3.04-.44-.29-.79-.86-.98"/>
      <path class="cls-12" d="M13.73,29.91s0,0,0,0c0,0,0,0,0,0,0,.02.02.04.03.06-.01-.02-.02-.04-.03-.06"/>
      <path class="cls-8" d="M3.3,14.72s-1.44,3.78-1.44,6.33c0,2.55.06,3.05.15,4.46.12,1.96,2.29,1.57,4.22,1.94,3.12.6,4.17-.45,4.36-1.3,0,0-.59-2.07-.12-5.18.33-2.12.21-3.88-1.19-5.68,0,0-3.95,1.75-5.98-.57"/>
      <path class="cls-4" d="M6.11,5.46s-1.16-.41-1.74,1.21c-.58,1.62-1.57,2.93-1.57,3.62s.27,1.18.73,1.29c0,0-.2,2.74-.22,3.14-.02.4.38,1.64,2.02,1.94,1.47.27,3.83-.16,3.97-1.38,0,0-.34-1.48.15-2.96.49-1.48,2.26-3.58.84-4.94-1.42-1.36-4.17-1.93-4.17-1.93"/>
      <path class="cls-9" d="M19.02,18.02s-.12,0-.39-.11c-.27-.11-.41-.16-.45-.28-.03-.12.13-.71.36-.79.24-.08.74.13.74.13l-.27,1.05Z"/>
      <path class="cls-9" d="M17.74,15.98s.07.97.14,1.14c.07.18.15.47.15.59,0,.12.1.4.32.42.23.02.13-.51.09-.65-.03-.11-.13-.38-.13-.38,0,0-.09-.44-.19-.81s-.38-.32-.38-.32"/>
      <path class="cls-9" d="M10.37,9.77s-.71-.1-1.11-.48c-.4-.38-.87-1.18-.06-1.74.81-.57,2.64.66,3.02.89.38.23,2.68,1.43,2.93,1.56.24.13.68.51,1.21,1.39.53.88,2.25,3.65,2.25,3.65,0,0,1,1.02,1.12,1.18.12.16-.02.28-.02.28,0,0,.16.17.11.28-.06.12-.1.2-.1.2,0,0,.02.22-.1.38,0,0-.05.29-.12.38-.07.09-.2.15-.26.13,0,0-.06.11-.21.15-.14.04-.29-.21-.15-.34,0,0-.27-.4-.49-.6-.22-.2-.45-.65-.63-1.1-.18-.45-.64-1.22-1.1-1.78-.45-.56-2.32-2.8-2.32-2.8,0,0-2.61-.99-3.07-1.18-.46-.18-.89-.46-.89-.46"/>
      <path class="cls-10" d="M13.1,8.69s.05,1.15-.61,2.05c0,0-2.73-.82-3.15-1.01-.62-.29-.93-1.25-.55-1.96.38-.72,1.18-.61,1.75-.44.57.18,2.56,1.35,2.56,1.35"/>
      <path class="cls-11" d="M3.15,14.58s3.22,2.05,6.26.09c0,0,.22-2.91.71-3.79,0,0-1.52-.66-1.62-1.75-.1-1.09.6-2.34.99-2.47l-.68-.33-3.48,4.05.4-4.56-.4-.33-1.45,2.33s-1.52,1.84-1.14,2.96c.22.65.53,1.37.54,1.61.02,1.24-.14,2.19-.14,2.19"/>
      <path class="cls-9" d="M5.86,4.72s-.25,1.35-.21,1.87c.04.51.65.75,1.18.76.53.01,1.68-.28,1.64-.95,0,0-.33-2.39-.36-3.13s-2.16.3-2.26,1.46"/>
      <path class="cls-5" d="M5.76,6.02s-.01.4.03.51c.09.26,1,.15,1.8-.67.43-.44.56-1.09.56-1.09,0,0-.66-.2-1.08-.03-.42.16-1.3,1.28-1.3,1.28"/>
      <path class="cls-9" d="M5.77,1.16c-.57.47-.94,1.14-1.02,1.87-.01.09-.02.18-.02.25,0,.42.24,2.01.33,2.38.09.36.24.71.94.56.71-.16,1.65-.66,1.9-.98.25-.32.67-1.09.86-1.73.2-.64.3-1.76-.16-2.4-.36-.49-1.08-.67-1.84-.51-.31.07-.68.31-1,.57"/>
      <path class="cls-8" d="M4.78,2.83s.38.56,1.23.97l-.29-.63s.69.93,1.05,1.26c.95.86,1.79.84,1.79.84l-.16-.36s.44.36.94.2l.25-.5s.09.11.17.2c0,0,.12-.73.28-1.29.16-.55-.02-1.78-.56-2.43C8.94.43,7.93.04,7.32,0c-.44-.03-.6.16-.6.16,0,0-.45-.1-.78.06-.22.11-.41.37-.41.37,0,0-.62.35-.93.88-.25.43-.18.93-.31,1.49,0,0,.21.08.48-.14"/>
      <rect class="cls-10" x="5.75" y="12.98" width="3.56" height=".4"/>
      <rect class="cls-10" x="5.67" y="13.9" width="3.56" height=".4"/>
      <rect class="cls-10" x="3.93" y="12.17" width=".4" height="1.59" transform="translate(-9.43 14.12) rotate(-77.18)"/>
      <rect class="cls-10" x="3.87" y="13.02" width=".4" height="1.59" transform="translate(-10.3 14.72) rotate(-77.18)"/>
    </g>
  </g>
</svg>