<?xml version="1.0" encoding="UTF-8"?>
<svg id="uuid-421550cd-5336-4526-a37f-8a7d29c40e08" data-name="Calque_2" xmlns="http://www.w3.org/2000/svg" viewBox="0 0 49.48 52.67">
  <defs>
    <style>
      .uuid-2fb72f16-8eae-4993-a818-d1852ddf10d9 {
        fill: #fff;
      }

      .uuid-50de5f0a-ef49-43f6-94f8-b60e026b19c9 {
        fill: #f4c900;
      }

      .uuid-85984576-e289-4324-b11c-82ee17d22f8a {
        fill: #ebeef8;
      }

      .uuid-5cefe46b-6c7e-4925-8a7a-14f4eff614bc {
        fill: #f3aac6;
      }

      .uuid-cc7e135c-71a1-4f10-bafe-9a9eb36f2d4c {
        fill: #243268;
      }

      .uuid-af078215-2ba4-4b51-9c03-3aada591db0c {
        fill: #e84f0e;
      }

      .uuid-84200ff9-f9a1-4383-a487-33f38103fe9c {
        fill: #1f2f57;
      }

      .uuid-f367badd-6dbf-4798-a9b5-cd3a69bd6634 {
        fill: #235aa3;
      }
    </style>
  </defs>
  <g id="uuid-b007b7ce-ce65-4c4c-9f99-cab0f63cff9f" data-name="Les_personnages">
    <g id="uuid-3039bd21-3d33-48a7-8698-7e3fe43b5b6b" data-name="Chara_x5F_Couple_x5F_BD">
      <path class="uuid-5cefe46b-6c7e-4925-8a7a-14f4eff614bc" d="M19.66,14.5l5.63,11.68c.13.27.1.59-.09.82-.28.36-.8.4-1.14.1l-5.6-5.05c-.71-.64-1.26-1.43-1.6-2.32l-2.17-5.65,4.95.43Z"/>
      <path class="uuid-50de5f0a-ef49-43f6-94f8-b60e026b19c9" d="M31.61,18.98l.14-.23s.02,0,.02,0c-.02,0-.25.05-1.12.19-.68.11-.08.1.95.05"/>
      <path class="uuid-5cefe46b-6c7e-4925-8a7a-14f4eff614bc" d="M25.99,48.61c.08.14.33.57.53.58.48.03.35-1.03.26-1.92-.05-.48-.08-.91,0-1.1.27-.62,1.04-1.21,1.46-1.75.65-.81,1.31-1.6,1.96-2.41,1.08-1.33,2.59-2.72,3.41-4.24.37-.71.66-1.43.85-2.16.61-2.45.33-5.32.4-7.85l.24-.58s1.21,5.41,2.87,8.88c.31,2.78.52,5.78,1.07,8.66.29,1.54.69,3.05,1.26,4.47h0c.11.29.24.58.37.87.04.08.07.16.11.23.9.72,1.9,1.53,2.75,2.23.18.15.46-.01.41-.24-.12-.55-.49-1.18-.83-1.78h0c-.3-.54-.58-1.06-.61-1.49,0-.12-.01-.24-.01-.37,0-1.47-.06-2.98-.09-4.49-.07-3.12.47-6.54-.04-9.61-.49-2.91-1.05-5.85-1.78-8.74-.6-2.41-1.03-7.14-4.39-7.06-.94.02-3.16.17-4.57.23l-2.39,3.84c-.23.75-.46,2.76-.4,3.54.15,1.99.41,3.97.62,5.94.11,1.04.5,2.35.46,3.36-.06,1.27-1.13,2.47-1.72,3.55-.85,1.57-1.65,3.14-2.32,4.8-.07.18-.14.36-.2.55-.42,1.33-.43,2.85.33,4.05"/>
      <path class="uuid-af078215-2ba4-4b51-9c03-3aada591db0c" d="M28.45,26.7c0-2.38.91-4.94,2.53-6.72.6-.66.28-.41,1.35-.42,1.85-.01,5.62-.63,6.84,1.24,1.27,1.94,2.22,5.1,2.63,7.34.46,2.47-1.52,3.65-3.61,4.46-2.19.84-9.65,1.95-9.97-1.83-.12-1.37.23-2.7.23-4.07"/>
      <path class="uuid-84200ff9-f9a1-4383-a487-33f38103fe9c" d="M12.91,51.04c-.59-.78-1.56-2.53-2.83-1.77-.38.23-.5.75-.4,1.22,0,.14.05.26.13.38.12.23.31.41.55.48.58.42,1.13.88,1.8,1.15.38.15.97.35,1.19-.1.23-.48-.17-.99-.44-1.35"/>
      <path class="uuid-84200ff9-f9a1-4383-a487-33f38103fe9c" d="M3.07,45.06c.32-.11.75.02,1.19.56.49.6.91,1.38,1.16,2.11.1.3.43,1.17.09,1.37-.73.42-2.35-1.37-2.66-1.81-.65-.91-.39-2.01.23-2.23"/>
      <path class="uuid-f367badd-6dbf-4798-a9b5-cd3a69bd6634" d="M10.93,23.97l-1.01-1.54c-.36-.97-1.84-.25-2.91-.33-1.28-.09-2.4-.79-3.07.26l.13,12.17c.08,1.6-.78,6.06-.98,7.64-.04.32-.16.92-.26,1.57-.15,1.05-.23,2.23.21,2.62.98.86,2-.3,2.32-.99,1.35-2.86,2.83-5.62,3.67-8.65.16-.59.28-1.18.36-1.78l1.55-10.97Z"/>
      <path class="uuid-f367badd-6dbf-4798-a9b5-cd3a69bd6634" d="M9.87,23.69c-.12.96.02,2.68-.44,3.52-.02.04-.04.1-.03.15l.07,1.57,1.45,10.14-1.24,10.69c1.04.77,2.3-.15,2.58-.87,1.16-3.03,2.79-5.95,3.42-9.09.12-.61.2-1.22.24-1.84.45-3.39.89-8.77.82-12.23-.09-4.75-2.93-1.49-6.88-2.04"/>
      <path class="uuid-2fb72f16-8eae-4993-a818-d1852ddf10d9" d="M8.48,5.87c.8-.33,1.88-.28,2.61.21.69.47,1.15,1.27,1.2,2.1,0,.12,0,.25-.08.33-.06.06-.15.08-.24.09-.53.05-1.38-.64-1.74-.44-.54.29-.09,1.13-.81,1.24-.68.1-1.53-.74-1.78-1.3-.5-1.12.01-1.88.84-2.23"/>
      <path class="uuid-50de5f0a-ef49-43f6-94f8-b60e026b19c9" d="M15.34,43.33s0,.02,0,.03c0,0-.01-.02-.02-.02h.02Z"/>
      <path class="uuid-85984576-e289-4324-b11c-82ee17d22f8a" d="M2.35,13.91c.23,1.47.94,2.71.86,4.19-.06,1.01-.05,2.03-.07,3.04-.01.42-.14,4.47.17,4.63,1.38.7,2.43,1.14,3.64,1.03,7.25-.66,9.9-3.48,9.98-3.56l-.11-5.14c.05.01.11.02.16.03.46.08.86.08,1.22,0,1.27-.23,2.01-1.24,2.44-2.18-.17-.17-.31-.33-.36-.48l-.16-.46-.31-.78-2.28-6.32c-.09-.22-.2-.45-.34-.66-.21-.33-.48-.64-.77-.91-.31-.26-.64-.5-.97-.7-.13-.08-.25-.15-.38-.21-.31-.16-.62-.28-.92-.36-1.16-.3-2.44.36-3.57.61-2.46.56-6.69,1.12-7.86,3.95-.55,1.33-.59,2.86-.36,4.26"/>
      <path class="uuid-f367badd-6dbf-4798-a9b5-cd3a69bd6634" d="M33.55,6.02c.1-.11.24-.23.42-.38.63-.51,2.07-1.2,2.91-.93,1.63.52,1.41,2.44,2.05,3.62.67,1.22,2.11,1.74,2.41,3.21.49,2.41-1.15,2.83-3.15,2.9-1.1.04-6.08-1.28-6.4-2.55-.22-.88.54-1.33.93-1.99.7-1.17.51-1.3.57-2.39.04-.79-.29-.94.26-1.49"/>
      <path class="uuid-5cefe46b-6c7e-4925-8a7a-14f4eff614bc" d="M47.82,13.5c-.37-.31-.93-.26-1.24.07-.31.3-.61.6-.92.91-.96.87-2.43,2.12-3.31,2.86-.3-1.12-.82-3.45-1.5-4.62-.73-1.25-3.62-2.69-3.31.12,0,.07.02.15.03.23.21,1.37.86,2.61,1.45,3.87.61,1.31.78,2.66,1.91,3.7.41.38.86.68,1.24.68.6,0,1.27-.68,1.71-1.24.04-.06.07-.11.11-.15.1-.13.2-.25.3-.38l.09-.16c1.18-1.62,2.36-3.24,3.54-4.86.24-.32.21-.77-.1-1.03"/>
      <path class="uuid-af078215-2ba4-4b51-9c03-3aada591db0c" d="M31.68,20.47c-.13-.08-1.47.51-.38-.14-1.33-2.43-3.09-6.54-.94-7.56,1.62-1.04,4.77-2.31,5.77-2.31,1.25,0,2.54.25,3.38.98,1.24,1.07,1.36,2.38,1.19,3.88-.17,1.49-1.12,3.43-1.94,4.86-.72,1.25-2.44,1.85-4.22,1.95-.96-.53-1.92-1.07-2.85-1.65"/>
      <path class="uuid-85984576-e289-4324-b11c-82ee17d22f8a" d="M36.09,10.34c-1.32-.2-2.87.55-2.48,2.08.29,1.15,1.65,1.57,2.26.41.22.13.61.33.91.28.55-.1.84-.81.65-1.6-.17-.7-.73-1.07-1.35-1.17"/>
      <path class="uuid-5cefe46b-6c7e-4925-8a7a-14f4eff614bc" d="M33.47,7.8c.17-.68.35-1.36.4-1.57l2.37.37.42.73c.04,1.21.15,2.42.14,3.63,0,.85-.61,1.52-1.34,1.47-.67-.05-1.19-.69-1.19-1.46v-1.01c-.67-.35-1.01-1.29-.79-2.16"/>
      <path class="uuid-5cefe46b-6c7e-4925-8a7a-14f4eff614bc" d="M35.58,8.85c.2.28.68.26,1.09-.03.41-.29.58-.75.38-1.02-.2-.28-.69-.26-1.09.03-.41.29-.58.75-.38,1.02"/>
      <path class="uuid-f367badd-6dbf-4798-a9b5-cd3a69bd6634" d="M32.38,6.98c0,.74,1.05,1.34,2.36,1.34s2.36-.6,2.36-1.34-1.06-1.34-2.36-1.34-2.36.6-2.36,1.34"/>
      <path class="uuid-f367badd-6dbf-4798-a9b5-cd3a69bd6634" d="M35.52,4.15c0,.87.7,1.57,1.57,1.57s1.57-.7,1.57-1.57-.7-1.57-1.57-1.57-1.57.7-1.57,1.57"/>
      <path class="uuid-5cefe46b-6c7e-4925-8a7a-14f4eff614bc" d="M8.5,2.65c.32.09.68.28.86.34.15.06,2.2.76,2.2.72-.11.79-.22,1.58-.32,2.37-.15,1.1-.4,1.49-1.72,1.27-.6-.1-.98-.32-1.22-.62-.2-.25-.28-.6-.23-.93l.43-3.15Z"/>
      <path class="uuid-5cefe46b-6c7e-4925-8a7a-14f4eff614bc" d="M12.84,3.9c-.25,1.14-1.38,1.86-2.52,1.61-.45-.1-.84-.34-1.13-.66-.08-.08-.14-.18-.2-.28-.29-.45-.4-1.02-.27-1.58.18-.83.83-1.43,1.6-1.61.13-.03.26-.04.39-.05h0c.17,0,.35.01.53.05.04.01.09.02.13.03.36.1.67.3.92.55.48.49.72,1.21.56,1.94"/>
      <path class="uuid-cc7e135c-71a1-4f10-bafe-9a9eb36f2d4c" d="M9.49.05c.85-.2,1.57.28,2.25.77.54.4,1.56,1.09,1.57-.14,1.09.05.65,1.16.17,1.68-.85.93-1.61.3-2.66.61-.68.2-1.75,1.37-2.36.9-.15-.12-.25-.29-.33-.46-.21-.42-.39-.86-.43-1.32-.09-1.07.84-1.82,1.8-2.04"/>
      <path class="uuid-5cefe46b-6c7e-4925-8a7a-14f4eff614bc" d="M9.52,3.82c-.07.29-.36.48-.65.41-.29-.07-.48-.35-.41-.65.07-.29.35-.48.65-.41.29.07.48.35.41.65"/>
      <path class="uuid-cc7e135c-71a1-4f10-bafe-9a9eb36f2d4c" d="M10.12,2.4c.2.14.24.42.08.61l-.9,1.11.14-1.42c.03-.32.4-.49.67-.31"/>
      <path class="uuid-cc7e135c-71a1-4f10-bafe-9a9eb36f2d4c" d="M9.23,3.68c.12-.12.12-.28.18-.43.07-.16.15-.31.23-.46.14-.28.62-.27.65.09.02.26-.07.44-.15.68-.08.23-.09.44-.26.63-.36.4-1.03-.14-.65-.51"/>
      <path class="uuid-5cefe46b-6c7e-4925-8a7a-14f4eff614bc" d="M4.08,20.38c.02.17.05.33.08.5.41,1.88,1.21,3.65,1.8,5.48.21.65,1.17,2.72.62,3.35-1.13,1.32-4.09-4.65-4.78-5.94-.03-.06-.06-.1-.08-.14-.66-1.17-1.13-2.42-1.41-3.72,1.17.38,2.52.49,3.76.48"/>
      <path class="uuid-5cefe46b-6c7e-4925-8a7a-14f4eff614bc" d="M29.76,17.41c.99-1.16,2.39-2.88,2.09-4.44-.21-1.09-1.19-.41-1.87.1-1.8,1.38-3.22,3.21-4.16,5.22-1.2,2.59-1.39,4.77-1.88,7.36l-.3,1.59c-.08.44.11.83.5,1h.02c.17.09.39.04.55-.09l.18-.03c.22-.04.41-.15.55-.31.28-.16.51-.46.59-.81.07-.32,0-.61-.19-.77l2.14-6.73s1.78-2.1,1.78-2.1"/>
      <path class="uuid-af078215-2ba4-4b51-9c03-3aada591db0c" d="M25.99,48.61c.08.14.33.57.53.58.48.03.35-1.03.26-1.92-.08.09-.19.17-.34.22-.76-.5-.52-2.07-.78-2.93-.42,1.33-.43,2.85.33,4.05"/>
      <path class="uuid-af078215-2ba4-4b51-9c03-3aada591db0c" d="M40.3,49.2c.11.29.24.58.37.86.04.08.07.16.11.23.9.73,1.9,1.53,2.75,2.23.18.15.46-.01.41-.24-.12-.55-.49-1.18-.83-1.78.04.13.07.26.1.39-.78.33-2.05-1.43-2.91-1.69"/>
      <path class="uuid-5cefe46b-6c7e-4925-8a7a-14f4eff614bc" d="M47.82,14.77c.37-.27,1.32-.49,1.56-.91.49-.9-.87-.69-1.46-.72.02-.33,0-.7-.11-1-1.43-.27-1.96,4.32.19,2.37l-.17.26Z"/>
      <path class="uuid-85984576-e289-4324-b11c-82ee17d22f8a" d="M.28,19.71c.99.81,2.62.83,3.76.21-.05-.89.09-1.75.2-2.69.22-1.86.44-3.73.67-5.59-.17-.79-.91-1.41-1.72-1.56-.19-.04.54-1.69.35-1.67-1.03.11-2.35,2.78-2.67,3.64C-.04,14.48-.24,17.16.28,19.71"/>
    </g>
  </g>
</svg>