<?xml version="1.0" encoding="UTF-8"?>
<svg xmlns="http://www.w3.org/2000/svg" xmlns:xlink="http://www.w3.org/1999/xlink" viewBox="0 0 28.85 58.11">
  <defs>
    <style>
      .cls-1 {
        fill: #4bb0c1;
      }

      .cls-2 {
        fill: #b9bda8;
      }

      .cls-3 {
        fill: #db3236;
      }

      .cls-4 {
        fill: #f4c900;
      }

      .cls-5 {
        fill: #e1e2e9;
      }

      .cls-6 {
        fill: #5e6265;
      }

      .cls-7 {
        fill: #496164;
      }

      .cls-8 {
        fill: none;
      }

      .cls-9 {
        fill: #d9e4f5;
      }

      .cls-10 {
        fill: #e6e8e1;
      }

      .cls-11 {
        clip-path: url(#clippath-1);
      }

      .cls-12 {
        isolation: isolate;
      }

      .cls-13 {
        fill: #dac3b2;
      }

      .cls-14 {
        fill: #7d7978;
      }

      .cls-15 {
        fill: #7e4b41;
      }

      .cls-16 {
        fill: #e5ebf6;
      }

      .cls-17 {
        mix-blend-mode: multiply;
      }

      .cls-18 {
        fill: #506165;
      }

      .cls-19 {
        fill: #404249;
      }

      .cls-20 {
        fill: #f7f7f8;
      }

      .cls-21 {
        fill: #723c32;
      }

      .cls-22 {
        fill: #484b4f;
      }

      .cls-23 {
        fill: #1e6975;
      }

      .cls-24 {
        fill: #7ac3d0;
      }

      .cls-25 {
        clip-path: url(#clippath);
      }

      .cls-26 {
        fill: #708082;
      }
    </style>
    <clipPath id="clippath">
      <rect class="cls-8" x="13.12" y="24.55" width="2.97" height="19.31"/>
    </clipPath>
    <clipPath id="clippath-1">
      <rect class="cls-8" x="13.12" y="24.55" width="2.97" height="19.31"/>
    </clipPath>
  </defs>
  <g class="cls-12">
    <g id="Calque_2">
      <g id="_Éléments_Mise_en_page" data-name="Éléments_Mise_en_page">
        <g>
          <polygon class="cls-23" points="3.82 40.55 5.43 41.12 7.59 42.37 7.59 40.9 5.78 40.09 3.82 39.44 3.82 40.55"/>
          <path class="cls-22" d="M6.24,42.62c0,1.64-1.16,2.3-2.59,1.47-1.43-.82-2.58-2.82-2.58-4.46s1.16-2.3,2.58-1.47c1.43.82,2.59,2.82,2.59,4.46"/>
          <path class="cls-22" d="M5.17,43.23c0,1.64-1.16,2.3-2.59,1.47-1.43-.82-2.58-2.82-2.58-4.46s1.16-2.3,2.58-1.47c1.43.82,2.59,2.82,2.59,4.46"/>
          <path class="cls-14" d="M.12,39.41c.19-.51.28-.72.5-.96.07-.09.16-.16.24-.22.01,0,.02-.02.04-.03.46-.38,1.36-.41,1.68-.4,0,0,0,0,0,0,.32.02.68.13,1.07.35,1.43.83,2.58,2.82,2.58,4.46,0,.36-.06.67-.16.93,0,0,0,0,0,0-.19.52-.73,1.23-1.38,1.46,0,0,0,0,0,0-.03.01-.06.02-.09.03-.03,0-.07.02-.1.02,0,0-.02,0-.03,0-.65.13-1.3-.09-1.4-.13-.02,0-.09-.1-.2-.26-1.51-.9-2.72-3.01-2.72-4.75,0-.03,0-.06,0-.09-.06-.2-.08-.35-.05-.43"/>
          <path class="cls-14" d="M5.17,43.23c0,1.64-1.16,2.3-2.59,1.47-1.43-.82-2.58-2.82-2.58-4.46s1.16-2.3,2.58-1.47c1.43.82,2.59,2.82,2.59,4.46"/>
          <path class="cls-22" d="M4.13,42.63c0,.98-.69,1.37-1.54.88-.85-.49-1.54-1.68-1.54-2.66s.69-1.37,1.54-.88c.85.49,1.54,1.68,1.54,2.66"/>
          <polygon class="cls-23" points="2.27 41.67 3.21 42.7 5.38 43.95 5.38 42.48 3.57 41.67 2.27 40.56 2.27 41.67"/>
          <polygon class="cls-23" points="25.01 51.71 21.43 53.77 4.01 42.48 7.59 40.42 25.01 50.48 25.01 51.71"/>
          <polygon class="cls-23" points="25.59 49.81 26.25 54.8 25.53 54.48 24.82 49.45 25.59 49.81"/>
          <polygon class="cls-24" points="25.35 49.95 26.01 54.94 25.29 54.62 24.57 49.59 25.35 49.95"/>
          <polygon class="cls-1" points="25.01 50.48 21.43 52.54 4.01 42.48 7.59 40.42 25.01 50.48"/>
          <polygon class="cls-23" points="21.43 53.77 4.01 43.72 4.01 42.48 21.43 52.54 21.43 53.77"/>
          <path class="cls-22" d="M28.85,55.61c0,1.64-1.16,2.3-2.59,1.47-1.43-.82-2.58-2.82-2.58-4.46s1.16-2.3,2.58-1.47c1.43.83,2.59,2.82,2.59,4.46"/>
          <path class="cls-22" d="M27.78,56.23c0,1.64-1.16,2.3-2.59,1.47-1.43-.82-2.58-2.82-2.58-4.46s1.16-2.3,2.58-1.47c1.43.83,2.59,2.82,2.59,4.46"/>
          <path class="cls-14" d="M22.74,52.41c.19-.51.28-.72.5-.96.07-.09.16-.16.24-.22.01-.01.02-.02.04-.03.46-.38,1.36-.41,1.68-.4,0,0,0,0,0,0,.32.02.68.13,1.07.35,1.43.83,2.58,2.82,2.58,4.46,0,.36-.06.67-.16.93,0,0,0,0,0,0-.19.52-.73,1.23-1.38,1.46,0,0,0,0,0,0-.03.01-.06.02-.09.03-.03,0-.07.02-.1.02,0,0-.02,0-.03,0-.65.13-1.3-.09-1.4-.13-.02,0-.09-.1-.2-.26-1.51-.9-2.72-3.01-2.72-4.75,0-.03,0-.06,0-.09-.06-.2-.08-.35-.05-.43"/>
          <path class="cls-14" d="M27.78,56.23c0,1.64-1.16,2.3-2.59,1.47-1.43-.82-2.58-2.82-2.58-4.46s1.16-2.3,2.58-1.47c1.43.83,2.59,2.82,2.59,4.46"/>
          <path class="cls-22" d="M26.74,55.63c0,.98-.69,1.37-1.54.88-.85-.49-1.54-1.68-1.54-2.66s.69-1.37,1.54-.88c.85.49,1.54,1.68,1.54,2.66"/>
          <polygon class="cls-23" points="24.7 50.33 25.36 55.32 25.11 55.45 23.92 49.97 24.7 50.33"/>
          <path class="cls-23" d="M23.99,33.93l-1.82-.21,1.57,16.48c.03.69,1.8.59,1.8,0l-1.54-16.27Z"/>
          <path class="cls-10" d="M22.13,33.94c-.02-.55,1.13-.54,1.56-.34.45.22.39.56.39.56,0,0-.05.41-.87.41-.91,0-1.07-.31-1.08-.64"/>
          <polygon class="cls-10" points="24.09 34.1 24.06 33.73 22.11 33.53 22.13 33.94 22.71 34.3 24.09 34.1"/>
          <path class="cls-2" d="M22.11,33.55c-.02-.55,1.13-.54,1.56-.34.45.22.39.56.39.56,0,0-.05.41-.87.41-.91,0-1.07-.31-1.08-.64"/>
          <path class="cls-14" d="M23.45,33.67s-.02.24-.52.14c-.23-.05-.24-.22-.24-.22l-.52-5.16.78.34.5,4.9Z"/>
          <path class="cls-19" d="M13.62,45.96s-.25.16-.25.3-.07.38,0,.51c.07.13.84.67.98.7.15.03.39,0,.39,0,0,0,.53.5.71.74.19.24.38.54,1.04.99.66.46.98.68,1.6.53.61-.16.73-.33.9-.48.17-.15-.04-.75-.16-.92-.12-.17-5.21-2.38-5.21-2.38"/>
          <path class="cls-5" d="M16.38,45.9s.55.4,1.11.79c.56.39,1.36,1.4,1.45,1.7.09.3.04.55-.02.71-.07.17-.83.81-1.72.4-.89-.4-1.4-1.06-1.62-1.37-.22-.31-.64-.75-.97-.96-.34-.21-1.14-.69-1.18-.97-.04-.28.17-1.19.45-1.51.28-.32,2.51,1.21,2.51,1.21"/>
          <path class="cls-4" d="M15.95,43.61c-.02.61.06,1.49.21,1.71.15.22.74,1.23.73,1.32-.01.09-.97.43-1.99,0-1.02-.44-1.43-1.01-1.23-1.27.2-.27.27-1.18.27-1.18l-.06-1.75,2.07,1.17Z"/>
          <path class="cls-9" d="M13.16,37.38c-.01.56.31,5.94.33,6.14.01.1.08.22.26.34.16.11.42.22.8.3.79.17,1.67-.41,1.67-.41,0,0,.54-4.75.74-6.34.2-1.59.41-2.66.75-4.19.34-1.53.89-3.12,1.27-5.42.38-2.3.27-2.9.19-4.7-.08-1.8-.15-1.9-.57-3.21,0,0-3.67.93-4.22,1.49-.35.36-.51,2.7-.58,4.35-.04.93-.05,1.64-.05,1.64,0,0-.29,4.14-.5,5.92-.21,1.78-.07,3.54-.08,4.1"/>
          <path class="cls-20" d="M14.69,44.1l.27-.02c-.07-.79-.19-1.87-.32-3.01-.22-1.97-.48-4.21-.43-4.74.04-.56.26-2.75.42-4.35.09-.85.16-1.55.18-1.79.07-.72-.2-4.32-.21-4.47l-.27.02s.28,3.73.21,4.42c-.02.25-.09.95-.18,1.79-.16,1.6-.38,3.79-.42,4.35-.04.56.2,2.71.43,4.79.13,1.14.25,2.22.32,3.01"/>
          <path class="cls-16" d="M16.11,26.55c.41-.87.85-1.78,1.63-2.34.08-.06.17-.12.28-.12.22-.01.38.2.46.4.18.45.04.72-.03,1.16-.09.56-.15,1.12-.22,1.68-.15,1.12-.3,2.24-.44,3.36,0-.07.02-.13.03-.2.16.81-.38,1.57-.61,2.36-.12.4-.16.81-.27,1.21-.11.4-.32.79-.68,1-.37.22-.83.2-1.26.13-.11-.02-.23-.04-.32-.11-.17-.13-.18-.38-.17-.59.02-.43.08-.87.14-1.3.17-1.27.35-2.53.52-3.8.05-.4.06-.82.2-1.21.2-.56.5-1.1.75-1.63"/>
          <g class="cls-17">
            <g class="cls-25">
              <g class="cls-11">
                <path class="cls-13" d="M13.16,37.38c-.01.56.31,5.94.33,6.14.01.1.08.22.26.34-.04-2.23-.05-3.59-.09-5.82,0-.28,0-.56-.01-.84-.01-.66-.02-1.31-.03-1.97,0-.56-.11-1.21.03-1.76.31-1.19.57-2.4.83-3.6.09-.39.17-.78.33-1.14.17-.4.42-.76.73-1.06.16-.15.33-.29.43-.48.07-.15.09-.32.1-.49.04-.59.06-1.31-.25-1.84-.28-.47-.51-.33-.83,0-.33.34-.73.6-1.14.84-.02.01-.04.02-.07.04-.04.93-.05,1.64-.05,1.64,0,0-.29,4.14-.5,5.92-.21,1.78-.07,3.54-.08,4.1"/>
              </g>
            </g>
          </g>
          <path class="cls-19" d="M13.92,45.31c.22.42.29.52.24.69-.05.17-.56.45-1.53.36-.97-.09-1.72-.48-2.05-.82-.34-.34-.92-1.32-.92-1.32l-.36-.34s-.37-.58-.27-.95c.1-.37.27-.8.27-.8l4.61,3.17Z"/>
          <path class="cls-5" d="M10.93,41.34c.06.01.73.83.73.83,0,0,1.07,1.38,1.44,1.77.36.39.85,1.03,1.01,1.39.16.36-.07.58-.07.58,0,0-.79.48-1.96.21-1.17-.27-1.54-.78-1.8-1.22-.26-.44-.55-.9-.73-1.07-.18-.17-.38-.54-.4-.87-.02-.34-.04-1.14.27-1.45.31-.31,1.52-.17,1.52-.17"/>
          <path class="cls-4" d="M11.18,40.95c0,.06.12,1.07.32,1.36.2.29.75.94.75,1.05s-.55.65-1.22.51-1.11-.21-1.46-.74c-.36-.53-.44-.77-.34-.98.1-.21-.2-1.94-.2-1.94l2.14.74Z"/>
          <path class="cls-9" d="M17.07,22.19c.04,1.23-.2,3.33-.73,4.4-.53,1.07-1.39,1.04-1.58,1.26-.19.22-.93,3.14-1.34,4.34-.41,1.21-1.03,3.44-1.27,4.23-.25.79-.58,2.12-.63,2.5-.04.38-.19,2.27-.24,2.49-.04.22-1.02.43-1.7.33-.68-.09-1.06-.43-1.09-.73-.03-.29-.2-3.88.03-5.24.28-1.73.48-2.94.49-3.14.02-.59-.38-4.05-.47-5.21-.09-1.15.53-4.02.92-5.12.39-1.09,1.97-2.96,2.08-3.14.11-.18,5.53,2.99,5.53,2.99"/>
          <path class="cls-20" d="M9.17,41.71h.27s-.05-1.24-.11-2.37c-.05-.93-.08-2.06.1-2.46.19-.43.37-1.45.42-2.15.02-.23.01-.93,0-1.92-.02-2.09-.05-5.26.13-6.87.26-2.31,1.17-3.58,1.18-3.59l-.22-.16c-.04.05-.96,1.33-1.23,3.72-.18,1.63-.15,4.81-.13,6.91,0,.94.02,1.68,0,1.89-.05.69-.23,1.68-.4,2.07-.16.36-.2,1.11-.12,2.58.05,1.13.11,2.35.11,2.35"/>
          <path class="cls-16" d="M13.03,25.26c.22,0,.44,0,.65.07.21.06.41.19.5.39.08.18.05.38.02.58-.05.36-.11.73-.16,1.09-.07.49-.15.98-.3,1.45-.13.4-.32.78-.46,1.17-.19.53-.3,1.08-.4,1.63l-.44,2.23c-.11.55-.27,1.19-.78,1.44-.2.1-.43.12-.66.12-.42,0-.9-.1-1.1-.46-.09-.16-.11-.34-.13-.52-.33-3.01-.34-6.06-.04-9.08.03-.25.02-.71.29-.84.26-.12.64.18.87.27.68.27,1.41.43,2.14.46"/>
          <path class="cls-20" d="M12.53,25c1.26,0,1.82-.94,1.85-.98l-.23-.14s-.51.85-1.62.85h-.04c-1.17-.02-2.14-.79-2.15-.8l-.17.21s1.05.83,2.31.86h.05"/>
          <path class="cls-22" d="M27.47,26.18c0,.3-.21.42-.47.27-.26-.15-.47-.51-.47-.81s.21-.42.47-.27c.26.15.47.51.47.81"/>
          <path class="cls-4" d="M24.74,25.7c.09-.05.2-.06.31-.06.04,0,.07.15.11.17.08.04.04.26.04.35,0,.19-.11.39-.04.57.04.1.13.17.21.24.25.18.52.34.73.57.04.04.07.08.08.14,0,.05-.02.12-.08.12-.03,0-.06,0-.08-.02-.38-.18-.76-.35-1.12-.57-.07-.04-.14-.08-.19-.14-.04-.04-.08-.09-.11-.14-.02-.03-.04-.06-.06-.09-.02-.06-.03-.13-.03-.19,0-.12-.02-.24-.02-.36,0-.15.12-.49.25-.56"/>
          <polygon class="cls-22" points="27.33 26.48 24.84 27.92 24.18 26.77 26.67 25.34 27.33 26.48"/>
          <path class="cls-6" d="M24.98,27.62c0,.3-.21.42-.47.27-.26-.15-.47-.51-.47-.81s.21-.42.47-.27c.26.15.47.51.47.81"/>
          <path class="cls-22" d="M24.81,27.6c0,.23-.17.33-.37.21-.2-.12-.37-.4-.37-.63s.16-.33.37-.21c.2.12.37.4.37.63"/>
          <rect class="cls-22" x="22.79" y="27.31" width="1.77" height="1.04" transform="translate(-10.73 15.53) rotate(-29.94)"/>
          <path class="cls-6" d="M23.28,28.48c0,.23-.17.33-.37.21-.2-.12-.37-.4-.37-.63s.16-.33.37-.21c.2.12.37.4.37.63"/>
          <path class="cls-22" d="M23.5,28.48c0,.3-.21.42-.47.27-.26-.15-.47-.51-.47-.81s.21-.42.47-.27c.26.15.47.51.47.81"/>
          <polygon class="cls-22" points="23.37 28.78 22.28 29.42 21.62 28.27 22.7 27.64 23.37 28.78"/>
          <path class="cls-6" d="M22.43,29.11c0,.3-.21.42-.47.27-.26-.15-.47-.51-.47-.81s.21-.42.47-.27c.26.15.47.51.47.81"/>
          <path class="cls-22" d="M22.19,29.13c0,.23-.17.33-.37.21-.2-.12-.37-.4-.37-.63s.16-.33.37-.21c.2.12.37.4.37.63"/>
          <rect class="cls-22" x="20.03" y="28.88" width="1.93" height="1.04" transform="translate(-11.88 14.41) rotate(-29.96)"/>
          <path class="cls-6" d="M20.52,30.09c0,.23-.17.33-.37.21-.2-.12-.37-.4-.37-.63s.16-.33.37-.21c.2.12.37.4.37.63"/>
          <path class="cls-22" d="M20.89,30c0,.3-.21.42-.47.27-.26-.15-.47-.51-.47-.81s.21-.42.47-.27c.26.15.47.51.47.81"/>
          <polygon class="cls-22" points="20.76 30.3 18.26 31.74 17.6 30.59 20.09 29.16 20.76 30.3"/>
          <path class="cls-6" d="M18.4,31.44c0,.3-.21.42-.47.27-.26-.15-.47-.51-.47-.81s.21-.42.47-.27c.26.15.47.51.47.81"/>
          <path class="cls-4" d="M18.98,12.22c.06-.21.41-.35.79-.43.47-.1.97-.13.97-.13,0,0,.68,2.2.92,2.69.23.49.86,2.17,1.11,2.43.24.27.72.96,1.02,1.85.29.89,1.94,5.46,2.08,5.82.13.36.28.51.28.51,0,0,.9.1,1.05.15.16.06.26.29.26.29,0,0,0,1-.02,1.09-.01.04-.05.07-.1.1-.07.04-.14.06-.14.06,0,0-.02.04-.04.09-.03.06-.06.12-.09.14-.02,0-.04.02-.05.02-.03,0-.05,0-.05,0,0,0-.03.11-.1.18-.02.02-.05.04-.08.05,0,0,0,0,0,0-.09.02-.15.04-.17.04-.01,0-.02,0-.02,0,0,0-.09.13-.18.17-.01,0-.04,0-.08.01-.21.01-.75-.02-.92-.12-.01,0-.02-.01-.03-.02-.02-.02-.04-.04-.07-.07-.09-.1-.22-.28-.33-.44.05-.01.1-.02.14-.04.2-.07.43-.28.24-.49,0,0,0,0,0,0,0-.01-.15,0-.17,0-.15-.14-.27-.25-.47-.25,0,0-.01,0-.02,0-.04-.27-.09-.58-.12-.72-.06-.22-.58-1.27-.78-1.67-.21-.4-1.34-2.08-1.78-2.86-.44-.77-1.03-1.58-1.24-2.24-.2-.66-.83-1.96-.89-2.2-.06-.24-1.04-3.57-.91-4.05"/>
          <path class="cls-4" d="M25.19,26.07c.07.4.14.8.21,1.19.17.09.71.13.92.12-.25-.04-.46-.27-.59-.51-.16-.28-.27-.61-.54-.8"/>
          <path class="cls-4" d="M21.32,14.26c.39,1.07,1.16,1.98,1.41,3.08.03.15.06.31,0,.45-.03.1-.09.18-.16.25-.16.16-.37.29-.6.3-.23.02-.47-.08-.6-.27-.09-.13-.12-.28-.16-.43-.09-.42-.19-.85-.3-1.27l-.27-1.14c-.15-.63-.3-1.25-.5-1.87-.13-.39-.28-.77-.38-1.17-.05-.18-.08-.37,0-.54.09-.21.34-.31.55-.24.2.07.2.22.26.39.18.52.37,1.01.5,1.54.08.3.15.6.26.9"/>
          <path class="cls-4" d="M19.89,16.26c.06.23.69,1.53.89,2.2.21.66.8,1.47,1.24,2.24.44.78,1.57,2.46,1.78,2.86.2.4.72,1.45.78,1.67.04.15.09.53.14.82.04-.17.08-.33.06-.5-.02-.17-.1-.32-.18-.48-.23-.46-.42-.93-.58-1.42-.14-.43-.37-.79-.57-1.2-.16-.35-.33-.7-.55-1.01-.16-.22-.35-.42-.51-.65-.15-.22-.28-.45-.4-.69-.12-.23-.24-.47-.36-.7-.16-.3-.32-.61-.45-.93-.81-2.01-.38-4.34-1.13-6.37-.04-.12-.15-.23-.28-.31-.38.08-.73.22-.79.43-.13.48.85,3.81.91,4.05"/>
          <path class="cls-22" d="M24.53,26.62l1.07-.53c.67.35.52,1.04.52,1.04l-.96.62c-.16-.4-.37-.78-.62-1.13"/>
          <path class="cls-4" d="M27.24,25.7c-.03.35-.06.71-.08,1.06.02-.05.04-.09.04-.09,0,0,.07-.03.14-.06.02-.31.03-.62-.09-.9"/>
          <path class="cls-4" d="M26.76,25.63c0,.49.04.99.1,1.48.08-.07.11-.18.11-.18,0,0,.02,0,.05,0-.09-.43-.17-.85-.26-1.28"/>
          <path class="cls-4" d="M26.27,26.04c.15.37.26.76.33,1.15.03,0,.08-.01.17-.04-.17-.37-.33-.74-.5-1.12"/>
          <path class="cls-4" d="M21.8,19.53c-.18-.32-.23-.63-.34-.96-.11-.31-.23-.55-.21-.9,0-.19.05-.38.15-.53.1-.15.24-.26.41-.31.29-.1.62,0,.87.19.52.41.69,1.08.92,1.67l.84,2.21s-.02-.06-.03-.08c.07.24.21.47.3.71.08.23.15.47.26.69.22.46.3,1.03.43,1.53-.02-.01.01-.04.03-.03.02.01.02.04.03.06.03.24.1.48.22.7.01.03.03.06.03.09,0,.04-.05.07-.08.09-.17.1-.36.16-.56.18-.12.01-.25,0-.33-.08-.05-.05-.09-.12-.11-.18-.23-.54-.43-1.1-.76-1.6-.35-.54-.62-1.14-.93-1.71-.33-.61-.77-1.12-1.11-1.71"/>
          <path class="cls-21" d="M12.13,5.15c.13,1.01.3,2.26-.49,3.07-.41.42-1.02.62-1.59.55.39.8.84,1.65,1.64,2.05.75.37,1.64.24,2.45.09.73-.14,1.48-.32,2.1-.74.94-.63,1.46-1.77,1.53-2.9.14-2.3-1.06-3.99-2.66-5.47-.22-.21-.45-.41-.72-.53-.85-.35-1.84.32-2.17,1.17-.33.85-.2,1.81-.08,2.72"/>
          <path class="cls-26" d="M19.26,9.55c.22.03.8.56.98.79.18.24.74,1.5.79,1.74.06.25-1.22,1.23-1.39,1.65-.17.43-1.17-3.24-1.17-3.24l.79-.95Z"/>
          <path class="cls-7" d="M10.59,20.44c.2.57,1.08,1.51,2.53,2.15,1.44.64,3.11.49,3.95.28.83-.21,1.61-1.37,1.71-1.53s.06-.9.06-.9c0,0,.79-2.95,1.15-3.35.36-.4.58-1.16.57-1.53-.02-.37-.45-5.29-.89-5.69-.45-.4-.55-.45-1.16-.6s-3.01-.58-3.36-.57c-.36.01-1.52-.05-2.43.45-.91.49-2.64,2.33-2.66,2.63-.02.3,1.18,3.7,1.3,4.84.12,1.15-.75,3.81-.75,3.81"/>
          <path class="cls-4" d="M12.98,9.67c.16.33.56.93,1.19,1.65.63.72,1.23.9,2.15.67.92-.23,1.16-.76,1.02-1.57-.06-.33-.07-.63-.01-.9.08-.38.27-.71.61-1l-.17-.72-.53-2.26s-2.51-1.67-2.81-1.51c-.31.16-.11,1.85-.03,2.77.08.92-.02,1.08-.19,1.47-.16.39-.84.63-1.09.77-.25.15-.29.3-.12.62"/>
          <path class="cls-4" d="M15.42,8.4c.22.25.51.44.84.51.22.05.49.08.57.28.07.17-.04.36-.14.51-.17.25-.35.51-.45.8-.1.29-.11.62.03.89.08-.23.18-.46.31-.66.09-.14.18-.27.24-.42.09-.2.12-.44.25-.61.06-.08.15-.15.23-.2.07-.38.27-.71.61-1l-.17-.72c-.07-.06-.14-.11-.22-.15-.59-.33-1.3-.37-1.96-.35-.71.02-.49.73-.16,1.11"/>
          <path class="cls-18" d="M18.14,16.1c-.54-.84-.88-2.38-.25-3.27.27-.38.57-.76.89-1.09.2-.21.45-.41.73-.37.2.03.37.18.46.36.09.18.13.38.15.58.09.73.08,1.46.07,2.19,0,.39-.01.79-.12,1.16-.11.38-.33.73-.67.92-.14.07-.29.12-.44.11-.35-.02-.63-.3-.82-.59"/>
          <path class="cls-18" d="M16.03,13.13s-.04,0-.03-.02c.02-.02.05,0,.07,0,.48.28,1.07.4,1.48.79.39.38.52.94.64,1.47.03.13.06.27.04.4-.02.13-.09.25-.17.36-.32.43-.81.71-1.33.85-.52.14-1.06.15-1.6.14-.21,0-.42-.01-.62-.07-.29-.08-.54-.26-.76-.45-.72-.62-1.25-1.45-1.52-2.36-.16-.54-.22-1.11-.1-1.66.04-.19.11-.38.25-.52.35-.35,1.1-.3,1.53-.1.73.34,1.42.77,2.13,1.15"/>
          <path class="cls-4" d="M14.6,5.04c.21,1.06.31,2.63.57,2.88.25.25,2.35,1.21,2.76,1.23.41.02.61-.02.74-.2.13-.18.76-1.72.81-2.5s.06-1.49-.06-2.12c-.12-.62-.18-.95-.43-1.27-.25-.32-1.5-.95-2.28-.61-.78.34-2.11,2.58-2.11,2.58"/>
          <path class="cls-15" d="M15.14,6.32s-.03-.51.08-.62c.11-.12.67-.95.77-1.36.1-.4.52-.83.68-.89.16-.05.72-.21.85-.37.4.1.94.19,1.06.18.13,0,.47.04.47.04l.3.72s0-.43-.04-.67c-.04-.24-.16-.86-1.42-1.48-1.26-.62-1.99-.69-2.78-.26-1.06.19-1.59,1.2-1.62,1.89-.04.69.01,1.94.31,2.49.3.54.41.56.41.56,0,0-.35-1.32.05-1.29.39.03.55.67.55.67l.16.03.18.37Z"/>
          <path class="cls-22" d="M14.1,4.28c-.01.39.26,2,.49,2.38s.7.76.7.76c0,0,.34.8.13.68-.21-.12-.63-.59-.97-1.1-.34-.51-.53-1.54-.63-2.25-.1-.71-.05-.96-.05-.96l.34.5Z"/>
          <path class="cls-22" d="M15.66,4.67c-.22.46.09,3.38.38,3.76-.27-.15-.58-.25-.64-.32-.05-.07-.15-.86-.28-2.03-.03-1.74.11-2.14.11-2.14l.43.73Z"/>
          <path class="cls-4" d="M14.55,5.3c-.08-.07-.18-.12-.28-.09-.05.02-.09.06-.12.1-.09.12-.13.28-.13.43,0,.15.05.3.11.45.06.14.12.28.23.39.1.11.24.19.39.2.09,0,.19-.03.22-.11.01-.03.01-.05.01-.08,0-.15-.11-.27-.16-.41-.05-.15-.03-.29-.04-.44,0-.17-.11-.32-.23-.43"/>
          <path class="cls-4" d="M10.71,17.54c.36,1.13.83,2.17,1.01,2.6.17.42,1.04,2.29,1.4,2.85.36.56.29.62.59,1.29.3.67.94,1.9,1.49,2.71.55.81,1.95,2.68,1.95,2.68,0,0,.23.53.31.6.08.07.69.24.69.24l.3.41s.07.06.16.12c.12.08.28.18.39.19.13.02.31-.02.4-.05.04-.01.06-.02.06-.02,0,0,.02,0,.05,0,.02,0,.05,0,.09,0,.05,0,.14-.04.22-.07.06-.02.1-.04.12-.05,0,0,0,0,0,0,0,0,.27.05.4.02.04,0,.08-.03.12-.06.1-.07.2-.16.2-.16l.26-.13.08-.04s.15-.25.05-.49c-.1-.24-.47-1.25-.56-1.29-.1-.04-.73-.01-1.29-.03-.56-.02-.69-.2-.73-.22-.04-.03-.12-.09-.99-1.77-.87-1.68-1.86-4.12-2.12-4.62-.26-.5-.22-.53-.3-.96-.08-.43-1.26-3.3-1.62-4.69-.36-1.39-.75-1.53-.83-1.59l-1.06-.26h-.81s-.61,0-.61,0c0,0,.25,1.64.61,2.77"/>
          <path class="cls-4" d="M11.95,15.8c.13.04.25.09.36.17.11.09.18.21.24.33.91,1.65,1.73,4.08,2.2,5.91.01.06.03.12,0,.17-.03.07-.12.09-.19.09-.38.02-.75-.16-1.04-.41s-.51-.57-.76-.86c-.25-.3-.52-.59-.73-.93-.41-.69-.5-1.53-.79-2.28-.11-.29-.58-1.14-.68-1.44-.05-.14-.13-.33-.12-.48.06-.6,1.16-.38,1.51-.27"/>
          <path class="cls-4" d="M15.84,23.8c.39,1.08.82,2.14,1.39,3.14.09.15.17.3.26.44.19.31.41.63.43.99,0,.04,0,.09-.02.12-.03.05-.08.08-.13.09-.3.1-.62-.09-.83-.32-.26-.28-.44-.63-.63-.96-.45-.78-1-1.5-1.48-2.26-.47-.75-.88-1.54-1.29-2.33-.1-.2-.2-.39-.27-.6-.06-.19-.1-.4-.01-.58.11-.23.51-.43.77-.4.32.04.63.44.82.68.47.58.74,1.29,1,1.98"/>
          <path class="cls-4" d="M20.44,30.14c.02.17.03.34.04.51,0-.01,0-.03,0-.04.02.11.01.26-.02.4.1-.07.2-.16.2-.16l.26-.13c-.05-.02-.12-.03-.18-.01-.03-.17-.06-.33-.11-.5-.03-.11-.04-.23-.08-.35-.03-.06-.1-.25-.15-.14-.04.08.03.33.04.42"/>
          <path class="cls-4" d="M19.84,30.12c.02.33.01.65-.02.98.06-.02.1-.04.12-.05,0-.25-.01-.5-.03-.75,0-.07-.02-.14-.07-.18"/>
          <path class="cls-4" d="M19.35,30.32c.02.26.05.51.06.77,0,.03,0,.06,0,.09.04-.01.06-.02.06-.02,0,0,.02,0,.05,0-.03-.29-.08-.57-.16-.85"/>
          <path class="cls-4" d="M10.71,17.54c.36,1.13.83,2.17,1.01,2.6.17.42,1.04,2.29,1.4,2.85.36.56.29.62.59,1.29.3.67.94,1.9,1.49,2.71.55.81,1.95,2.68,1.95,2.68,0,0,.23.53.31.6.08.07.69.24.69.24l.3.41s.07.06.16.12c.01-.01.02-.03.03-.04.05-.08.04-.18,0-.27-.04-.08-.11-.15-.18-.22-.26-.22-.58-.36-.91-.4-.03,0-.06,0-.08-.02-.03-.01-.04-.04-.06-.07-.14-.27-.25-.55-.42-.81-.17-.26-.34-.55-.55-.78-.17-.18-.3-.34-.42-.56-.34-.63-.8-1.14-1.17-1.75-.44-.73-.69-1.54-1.1-2.28-.34-.62-.66-1.24-.96-1.88-.19-.4-.36-.8-.57-1.18-.11-.2-.23-.38-.36-.57-.11-.17-.17-.37-.25-.55-.37-.88-1.01-2.36-1.25-3.28-.08-.32-.16-.67-.02-.96.09-.18.25-.33.33-.52.02-.04.03-.09.03-.13h-.61s.25,1.64.61,2.77"/>
          <path class="cls-26" d="M11.12,11.63c.78.27,1.13.4,1.61,1.54.23.54.73,2.97.73,2.97,0,0-2.21-.2-2.55-.19-.34,0-1.01.27-1.01.27,0,0-.25-3.13-.18-3.82.08-.7.57-1.05,1.4-.77"/>
          <polygon class="cls-23" points="24.45 50.46 25.11 55.45 24.39 55.13 23.68 50.1 24.45 50.46"/>
          <path class="cls-3" d="M13.94,4.45c1.55,1.19,3.36,1.35,4.75.91,1.4-.45,1.85-1.33.3-2.52-1.55-1.19-4.51-2.23-5.9-1.79-1.4.45-.7,2.21.85,3.4"/>
          <path class="cls-3" d="M14,3.98c1.55,1.19,3.36,1.35,4.75.91,1.4-.45,1.85-1.33.3-2.52-1.55-1.19-4.51-2.23-5.9-1.79-1.4.45-.7,2.21.85,3.4"/>
          <path class="cls-3" d="M14.25,3.9c1.47,1.13,3.18,1.28,4.51.86,1.32-.42,1.75-1.26.28-2.39-1.47-1.13-4.27-2.12-5.59-1.69-1.32.42-.66,2.09.81,3.22"/>
          <path class="cls-3" d="M13.77,3.49c1.16,1.28,6.17.27,6.17.27,0,0,.07-1.78-1.05-2.65C16.72-.58,14.67.06,13.42.45c-1.25.4-1.19,1.34.34,3.03"/>
          <path class="cls-22" d="M13.86,1.79c.38-.13,1.17.19,1.63,1.44.46,1.24-.99-.1-1.44-.47-.45-.37-.45-.88-.19-.97"/>
          <path class="cls-22" d="M15.21.37c.97-.34,3.61,1.11,2.97,1.39-.72.15-.83.02-1.32-.25-.61-.34-1.09-.78-1.78-.86s.13-.28.13-.28"/>
        </g>
      </g>
    </g>
  </g>
</svg>