<?xml version="1.0" encoding="UTF-8"?>
<svg id="uuid-b50cf5fc-1403-42d1-8e95-507d116ccb27" data-name="Calque_2" xmlns="http://www.w3.org/2000/svg" viewBox="0 0 41.48 57.68">
  <defs>
    <style>
      .uuid-5109bf9c-516b-4d03-95f3-ef8bfa4879f9 {
        fill: #496164;
      }

      .uuid-f59c26aa-f21e-4c3e-a89f-ca199c5689b2 {
        fill: #f4cf00;
      }

      .uuid-a649b9d2-62cd-4e46-9594-11a73cc6eefa {
        fill: #f3aac6;
      }

      .uuid-3e659613-cf07-445b-917c-4c1f93e601db {
        fill: #243268;
      }

      .uuid-e49c2071-bea3-4884-aea3-7ff0a377ea29 {
        fill: #e84f0e;
      }

      .uuid-4a089c0b-0436-4c5e-a90f-6bf5f232d844 {
        fill: #1f2f57;
      }

      .uuid-d491ffd4-469a-4ae4-81ce-58edd090c3a9 {
        fill: #ef7f55;
      }

      .uuid-ef10e932-11bd-4c81-8f04-43bbb9036880 {
        fill: #235aa3;
      }
    </style>
  </defs>
  <g id="uuid-a3fe50f0-fb5c-4937-a798-fc362318becb" data-name="Les_personnages">
    <g id="uuid-20341dd2-9246-4cf6-ad62-16db62b746c0" data-name="Chara_x5F_Famille_x5F_HG">
      <path class="uuid-a649b9d2-62cd-4e46-9594-11a73cc6eefa" d="M38.11,56.38c-.43.63-.69.7-.84.44-.41-.68-.05-3.66-.32-4.11-.02-.03-.75-1.22-.75-1.22-.35-.62-.7-1.24-1.05-1.86-.31-.54-.61-1.07-.91-1.6-.81-1.43-1.25-1.93-2.26-3.67-1.01-1.72-2.15-4.15-3.14-6.49-.43-1-.83-1.98-1.18-2.89,0-.38.01-.76.07-1.14.31-1.03.92-2,1.74-2.63.1-.08.19-.14.3-.21.67-.21,1.77-.21,2.53.09l1.07-.43.05,3.89c.49,2.08,1.03,4.42,1.33,5.35.47,1.45,1.15,3.54,1.65,4.98.35,1.04.71,2.07,1.08,3.09.02.06.04.12.07.19.47,1.3,1.07,2.72,1.31,4.14.24,1.4.15,2.79-.73,4.07"/>
      <path class="uuid-a649b9d2-62cd-4e46-9594-11a73cc6eefa" d="M29.55,32.18c-.25,1.49-.56,3.23-.59,3.67-.04.59-.08,1.18-.12,1.77,0,.08-.01.16-.02.24-.1,1.55-.2,3.11-.28,4.66-.09,1.53-.19,3.72-.25,5.24-.04,1.16-.08,2.32-.1,3.47,0,.18,0,.36,0,.53-.01.85-.02,1.69-.03,2.54,0,.71.03,1.39.02,2.1,0,.15,0,.31-.02.46,0,.09-.01.18-.02.28,0,.05,0,.09,0,.14-.37.53-1.14.43-1.85.16l-1.65-.85c-.29-.19-.56-.4-.79-.64-.02-.12,0-.25.07-.36,0,0,0,0,0-.01.09-.12.26-.19.49-.23.44-.08,1.07-.03,1.51-.01,0,0,0,0,0,0,.02-.12.02-.25,0-.38-.01-.12-.03-.24-.05-.35,0,0,0,0,0,0-.13-.99-.28-1.97-.44-2.95-.09-.58-.18-1.15-.27-1.73-.24-1.62-.47-2.26-.8-4.24-.46-2.8-.66-7.05-.68-10.31.13-.36.28-3.87.47-4.2.73-.95,2.2-.95,3.33-1.17.04,0,.08,0,.12,0,.85-.02,1.57.48,1.85,1.19.11.29.15.62.1.97"/>
      <path class="uuid-4a089c0b-0436-4c5e-a90f-6bf5f232d844" d="M38.11,56.38c-.43.63-.69.7-.84.44,0-.03.01-.05.02-.08.32-1.27.39-3.6,1.55-4.43.24,1.4.15,2.79-.73,4.07"/>
      <path class="uuid-4a089c0b-0436-4c5e-a90f-6bf5f232d844" d="M23.91,55.6s0,0,0,.01c-.07.11-.09.24-.07.36.23.24.5.45.79.64l1.65.85c.71.26,1.49.37,1.85-.16,0-.05,0-.1,0-.14,0-.09.01-.19.02-.28-1.52.06-2.91-.54-4.24-1.27"/>
      <rect class="uuid-a649b9d2-62cd-4e46-9594-11a73cc6eefa" x="29" y="14.74" width="3.47" height="4.51" transform="translate(-.22 .41) rotate(-.76)"/>
      <path class="uuid-a649b9d2-62cd-4e46-9594-11a73cc6eefa" d="M27.85,14.54c.01,1.15.96,2.08,2.12,2.06.46,0,.88-.16,1.22-.42.52-.39.85-1.01.84-1.7-.01-1.15-.96-2.08-2.12-2.06-.04,0-.09,0-.13,0-1.09.08-1.94,1-1.93,2.11"/>
      <path class="uuid-a649b9d2-62cd-4e46-9594-11a73cc6eefa" d="M35.08,23.65c-.07.56-.12,1.12-.18,1.67-.28-.52-.65-.93-1.19-1.25-.35-.21-.91-.35-1.43-.36-.1-.07-.2-.13-.3-.19-1.09-.65-2.34-1.02-3.46-1.62-.29-.15-.57-.32-.85-.49,0,0,0,0-.01-.01-.11-.1-.23-.19-.35-.29-.09-.08-.17-.18-.26-.26-.13-.28-.48-.89-.22-.28-.27-.66-.67-1.22-1.21-1.58.39-.25.84-.46,1.34-.63,1.94-.66,4.14-.7,6.09-.31.53.11,1.02.24,1.43.41.11.04.21.09.3.14.89.46,1.65,1.2,2.4,2.06,1.61,1.85,2.15,5.67,2.18,8.29l-.28,4.6c-.06.38-.36.67-.74.72-.03,0-.06,0-.09,0-.49,0-.89-.41-.86-.9l-.13-1.73-.43-4.77s-1.43-2.63-1.71-3.15c-.03-.06-.05-.09-.05-.09"/>
      <path class="uuid-e49c2071-bea3-4884-aea3-7ff0a377ea29" d="M35.12,23.74v-5.13c-.09-.05-.19-.1-.3-.14-.42-.17-.9-.31-1.43-.41,0,0,.09,2.02-.4,2.76-.51.76-2.27,1.8-3.92.76-1.14-.29-1.98-1.98-2.11-3.2-.72.25-1.36.58-1.85,1.01-.1.09-.21.18-.3.28-.34,1.93-1.08,4.56-1.81,7.44-.66,4.59-1.05,9.25-1.03,13.88,0,.58.3,1.11.78,1.43.72.49,1.45,1,2.22,1.4,1.07.55,2.48.89,3.66,1.14,2.57.54,5.07.33,7.35-.53,1.97-5.67-.67-15.87-.84-20.69"/>
      <path class="uuid-ef10e932-11bd-4c81-8f04-43bbb9036880" d="M29.91,11.03c1.1-.01,2.05.69,2.38,1.68,1.99-.61,5.04.65,4.68,2.88-.03.21-.09.43.01.62.17.29.6.24.93.2,1.45-.16,2.93.82,3.4,2.2.47,1.38-.08,3.03-1.24,3.91-1.16.88-2.85.98-4.13.29-1.28-.69-2.14-2.27-1.66-3.64.07-.19.16-.38.12-.58-.1-.55-.89-.5-1.45-.53-1.22-.05-1.99-1.06-2.23-2.18-.23.08-.48.12-.74.12-1.37.02-2.5-1.08-2.52-2.45-.02-1.37,1.08-2.5,2.45-2.52"/>
      <path class="uuid-a649b9d2-62cd-4e46-9594-11a73cc6eefa" d="M16.74,28.86c2-1.69,4.19-.6,5.28-3.09.88-2.03,1.18-4.48,2.78-6.12.09-.1.19-.19.3-.28.31-.27.68-.5,1.09-.7,1.14,1.28,1.07,3.32.38,4.79-.4.85-1.69,2.27-1.7,3.23,0,.19-1.32,1.79-1.51,2.05-1.28,1.81-3.88.69-5.99,1.9-.41.09-.85-.07-1.06-.43-.3-.51-.08-1.13.43-1.35"/>
      <path class="uuid-d491ffd4-469a-4ae4-81ce-58edd090c3a9" d="M11.86,24.32c-.02.52-.76.09-1.03-.03-.29-.13-.65-.28-.8-.56,0,0-.01,0-.02,0,0-.02,0-.03,0-.05,0,0,0-.02-.01-.02-.01,0-.02,0-.03,0,0-.05-.01-.11-.02-.16-.02-.15-.04-.3-.06-.45,0-.04,0-.07-.01-.11h0s0,0,0,0c-.05-.39-.11-.79-.17-1.18-.09-.58-.19-1.16-.29-1.74-.14-.76-.28-1.52-.43-2.28-.16-.81-.33-1.63-.5-2.44-.04-.2-.08-.4-.13-.6,0-.81,0-1.61-.02-2.42.09,0,.19-.01.28-.02.01,0,.2.01.2,0,.16.02.31.05.46.09.02,0,.03,0,.04,0,0,0,.02,0,.04.02.06.03.13.05.2.08.4.18.79.38,1.18.58,0,.03,0,.07,0,.1.01.14.06.31.15.46,0,.04,0,.07.01.11,0,.07.02.13.02.2.03.23.05.47.08.71.02.21.04.43.06.64,0,.04,0,.08,0,.12.02.19.03.37.04.56,0,.02,0,.04,0,.07.02.34.04.69.05,1.03,0,.1,0,.2.01.3h0c.02.57.04,1.14.04,1.7,0,.81,0,1.63,0,2.44,0,.59,0,1.18,0,1.77v.05s.02.04.03.05c.14.26.66.69.65.99"/>
      <path class="uuid-d491ffd4-469a-4ae4-81ce-58edd090c3a9" d="M7.11,13.7c-.04.13-.04.31,0,.47,0,.04-.01.07-.02.11-.01.06-.03.13-.04.19-.05.22-.11.45-.16.67-.05.2-.11.4-.16.61,0,.04-.02.08-.03.12-.05.18-.1.35-.15.53,0,.02-.01.04-.02.06-.1.32-.2.64-.3.95-.03.09-.06.19-.1.28-.17.52-.36,1.05-.55,1.56-.27.74-.55,1.48-.84,2.22-.22.58-.69,1.27-.84,1.91,0,0,0,0,0,0-.03.15-.05.3-.04.44.02.37.51,1.45-.4,1.04-.34-.15-1.12-1.34-.8-1.71.01-.07.03-.14.05-.2.01-.05.02-.1.03-.14.12-.56.24-1.12.34-1.69.11-.56.2-1.13.3-1.69.12-.74.23-1.49.34-2.24.11-.8.22-1.61.33-2.41.04-.29.07-.58.11-.87.07-.54.14-1.08.21-1.62.04-.14.08-.28.12-.42.13.03.26.06.38.1.12.04.24.07.36.11.02,0,.2.09.2.09.16.08.3.17.45.26.01,0,.03.01.03.02,0,0,.02.02.03.03.06.05.12.1.17.15.36.32.69.66,1.02.99-.01.03-.02.06-.03.09"/>
      <path class="uuid-f59c26aa-f21e-4c3e-a89f-ca199c5689b2" d="M11.86,24.32c-.02.52-.76.09-1.03-.03-.29-.13-.65-.28-.8-.56,0,0-.01,0-.02,0,0-.02,0-.03,0-.05,0,0,0-.02-.01-.02-.01,0-.02,0-.03,0,0-.05-.01-.11-.02-.16-.02-.15-.04-.3-.06-.45.29.21.63.36.99.32.14-.01.24-.06.31-.12v.05s.02.04.03.05c.14.26.66.69.65.99"/>
      <path class="uuid-f59c26aa-f21e-4c3e-a89f-ca199c5689b2" d="M3.45,24.87c-.34-.15-1.12-1.34-.8-1.71.01-.07.03-.14.05-.2.32.55.81,1.34,1.19.43-.03.15-.05.29-.04.44.02.37.51,1.45-.39,1.04"/>
      <path class="uuid-d491ffd4-469a-4ae4-81ce-58edd090c3a9" d="M13.88.26l-.02.75-.09,2.81c-.01.32-.21.65-.53.89,0,0-3.13,2.42-3.25,2.59,0,0-.01,0-.02,0h0c-.07.02-.14.05-.2.06-.06.02-.15.03-.2.04-.07,0-.15,0-.21.01-.03,0-.05,0-.08-.01,0,0,0,0,0,0,.02,0,0-.02-.09-.03-.07-.04-.15-.08-.22-.12,0,0-.01,0-.02-.01-.06-.06-.07-.07-.07-.06,0,0-.02-.01-.03-.02-.08-.08-.16-.15-.24-.24-.21-.23-.4-.47-.58-.72l3.67-2.24c.25-.15.46-.38.56-.62l.69-2.44.17-.59c.05-.15.21-.29.39-.32,0,0,0,0,0,0,.21-.04.37.08.36.25"/>
      <path class="uuid-3e659613-cf07-445b-917c-4c1f93e601db" d="M6.3,4.73l-.62,2.09c-.34,1.15-1.55,1.81-2.7,1.47l.62-2.09c.34-1.15,1.55-1.81,2.7-1.47"/>
      <path class="uuid-5109bf9c-516b-4d03-95f3-ef8bfa4879f9" d="M12.43,15.11c-.44-2.33-1.02-4.57-1.67-6.87-.02-.05-.03-.11-.05-.16-.21-.75-.33-1.59-.75-2.26-.56-.89-1.6-.51-2.4-.11-1.18.59-3.11.24-3.38,1.71l-.02,1.31-1.31,6.83c-.15.23-.24.48-.24.74,0,1.34,2.22,2.42,4.96,2.42,1.33,0,3-.17,4.08-1.08.68-.58.97-1.45.81-2.32-.01-.07-.03-.14-.04-.21"/>
      <path class="uuid-d491ffd4-469a-4ae4-81ce-58edd090c3a9" d="M7.63,6.69h0c.55.04,1.03-.38,1.07-.93l.24-3.58-2-.14-.24,3.58c-.04.55.38,1.03.93,1.07"/>
      <path class="uuid-d491ffd4-469a-4ae4-81ce-58edd090c3a9" d="M8.39,5.05s-.01,0-.02,0c-.83.25-1.67-.36-1.77-1.24l-.13-1.2s2.98-1.05,3.01-1.06c-.02-.42.18,2.03.14,2.17-.17.79-.65,1.14-1.24,1.32"/>
      <path class="uuid-3e659613-cf07-445b-917c-4c1f93e601db" d="M9.95,1.2c-.02-.13-.06-.25-.12-.35-.38-.68-.71-.32-1.38-.04-1.57.65-2.86,1.08-2.65,3.01.06.53.45.99.94,1.15.31-.1.34-.46.33-.8-.08-.28-.12-.56-.01-.9.18-.56.65-.97,1.2-1.16.52-.17.85-.05,1.22.37.37-.27.54-.81.46-1.28"/>
      <path class="uuid-d491ffd4-469a-4ae4-81ce-58edd090c3a9" d="M7.41,3.67c.04.33-.21.64-.54.67-.33.04-.63-.2-.67-.54-.04-.34.2-.64.54-.67.33-.04.64.2.67.54"/>
      <path class="uuid-d491ffd4-469a-4ae4-81ce-58edd090c3a9" d="M.36,1.19l.02.75.09,2.81c.01.32.21.65.53.89,0,0,3.13,2.42,3.25,2.59,0,0,.01,0,.02,0h0c.07.02.14.05.2.06.06.02.15.03.2.04.07,0,.15,0,.21.01.03,0,.05,0,.08-.01,0,0,0,0,0,0-.02,0,0-.02.09-.03.07-.04.15-.08.22-.12,0,0,.01,0,.02-.01.06-.06.08-.07.07-.06,0,0,.02-.01.03-.02.09-.08.16-.15.24-.24.1-.1.19-.28.27-.46.16-.33.03-.73-.3-.9l-3.06-1.6c-.25-.15-.46-.38-.56-.62l-.69-2.44-.17-.59c-.05-.15-.21-.29-.39-.32,0,0,0,0,0,0-.21-.04-.37.08-.36.25"/>
      <path class="uuid-d491ffd4-469a-4ae4-81ce-58edd090c3a9" d="M0,1.84c.02.22.11.43.26.55.75.59.99-1.22.35-1.32C.16,1-.03,1.44,0,1.84"/>
    </g>
  </g>
</svg>