<?xml version="1.0" encoding="UTF-8"?>
<svg xmlns="http://www.w3.org/2000/svg" xmlns:xlink="http://www.w3.org/1999/xlink" viewBox="0 0 46 56.9">
  <defs>
    <style>
      .cls-1 {
        fill: #cacfdf;
      }

      .cls-2 {
        fill: #d8ddee;
      }

      .cls-3 {
        fill: #e6effa;
      }

      .cls-4 {
        fill: #f4c900;
      }

      .cls-5 {
        fill: #2b3086;
      }

      .cls-6, .cls-7 {
        fill: none;
      }

      .cls-8 {
        clip-path: url(#clippath-1);
      }

      .cls-9 {
        isolation: isolate;
      }

      .cls-10 {
        mix-blend-mode: multiply;
      }

      .cls-11 {
        fill: #f7f8fc;
      }

      .cls-12 {
        fill: #466cb2;
      }

      .cls-13 {
        fill: #ef7f55;
      }

      .cls-14 {
        clip-path: url(#clippath);
      }

      .cls-7 {
        stroke: #f7f8fc;
        stroke-miterlimit: 10;
        stroke-width: .21px;
      }
    </style>
    <clipPath id="clippath">
      <rect class="cls-6" x="25.66" y="6.74" width="1.61" height="1.87"/>
    </clipPath>
    <clipPath id="clippath-1">
      <rect class="cls-6" x="25.66" y="6.74" width="1.61" height="1.87"/>
    </clipPath>
  </defs>
  <g class="cls-9">
    <g id="Calque_2">
      <g id="_Éléments_Mise_en_page" data-name="Éléments_Mise_en_page">
        <g>
          <path class="cls-5" d="M12.56,20.99c.17,0,.31-.14.31-.31v-1.27c0-.47.26-.91.67-1.14l11.63-6.54c.39-.22.84-.23,1.24-.02.4.2.65.57.71,1.01l.04.34c.02.17.17.29.34.27.17-.02.29-.17.27-.34l-.04-.34c-.08-.64-.46-1.2-1.04-1.49-.57-.29-1.25-.28-1.82.04l-11.63,6.54c-.6.34-.98.98-.98,1.68v1.27c0,.17.14.31.31.31"/>
          <path class="cls-2" d="M28.03,40.73c0,5.49,3.87,12.19,8.62,14.94,1.41.82,2.79,1.23,4.05,1.23.91,0,1.76-.22,2.51-.65,1.8-1.04,2.78-3.16,2.78-5.98,0-5.49-3.87-12.19-8.62-14.94-2.44-1.41-4.77-1.62-6.57-.58-1.8,1.04-2.78,3.16-2.78,5.98M37.46,54.07c-4.22-2.43-7.65-8.38-7.65-13.24,0-1.08.17-2.02.5-2.77.33-.75.8-1.33,1.42-1.69.49-.28,1.05-.42,1.66-.42.95,0,2.03.33,3.16.99,4.22,2.44,7.65,8.38,7.65,13.24,0,2.16-.68,3.75-1.92,4.46-1.24.71-2.95.51-4.82-.57"/>
          <path class="cls-5" d="M28.03,40.73c0,5.49,3.87,12.19,8.62,14.94,1.42.82,2.79,1.23,4.05,1.23.91,0,1.76-.22,2.51-.65,1.8-1.04,2.78-3.16,2.78-5.98,0-5.49-3.87-12.19-8.62-14.93-2.44-1.41-4.77-1.62-6.57-.58-1.8,1.04-2.78,3.16-2.78,5.98M29.08,40.48c0-2.4.77-4.16,2.17-4.97.55-.32,1.19-.48,1.89-.48,1.06,0,2.25.36,3.5,1.09,4.59,2.65,8.32,9.11,8.32,14.4,0,2.4-.77,4.16-2.17,4.97-1.4.81-3.31.59-5.39-.61-4.58-2.65-8.31-9.11-8.31-14.4"/>
          <path class="cls-2" d="M0,24.13C0,29.62,3.87,36.32,8.62,39.07c1.41.82,2.79,1.23,4.05,1.23.91,0,1.76-.22,2.51-.65,1.8-1.04,2.78-3.16,2.78-5.98,0-5.49-3.87-12.19-8.62-14.94-2.44-1.41-4.77-1.62-6.57-.58C.99,19.19,0,21.32,0,24.13M9.44,37.47c-4.22-2.43-7.65-8.38-7.65-13.24,0-1.08.17-2.02.5-2.77.33-.75.8-1.33,1.42-1.69.49-.28,1.05-.42,1.66-.42.95,0,2.03.33,3.16.99,4.22,2.44,7.65,8.38,7.65,13.24,0,2.16-.68,3.75-1.92,4.46-1.24.71-2.95.51-4.82-.57"/>
          <path class="cls-5" d="M0,24.13c0,5.49,3.87,12.19,8.62,14.94,1.42.82,2.79,1.23,4.05,1.23.91,0,1.76-.22,2.51-.65,1.8-1.04,2.78-3.16,2.78-5.98,0-5.49-3.87-12.19-8.62-14.93-2.44-1.41-4.77-1.62-6.57-.58-1.8,1.04-2.78,3.16-2.78,5.98M1.05,23.88c0-2.4.77-4.16,2.17-4.97.55-.32,1.19-.48,1.89-.48,1.06,0,2.25.36,3.5,1.09,4.59,2.65,8.32,9.11,8.32,14.4,0,2.4-.77,4.16-2.17,4.97-1.4.81-3.31.59-5.39-.61-4.59-2.65-8.32-9.11-8.32-14.4"/>
          <path class="cls-2" d="M24.61,14.38s1.14,3.32,1.14,3.32c.02.07.04.14.06.21,0,.03.02.06.04.09.26.51,1.06.84,1.76,1.04.31.09.6.16.82.21.05,0,.09.02.14.03,1.19.23,2.3,0,3.2-.41.31-.14.6-.31.86-.51.13-.1.17-.28.08-.47-.16-.37-.29-.73-.39-1.09-.38-1.26-.5-2.5-.62-3.73-.18-1.73-.72-5.25-2.87-5.6-1.02-.16-2.05.26-2.96.75-.64.35-1.4.71-1.99,1.2,0,0,0,0,0,0-.08.07-.16.14-.24.22-.37.38-.62.83-.66,1.4-.11,1.44,1.22,2.13,1.62,3.32"/>
          <path class="cls-5" d="M25.29,6.37s0,0,.01,0c0-.02,0-.04,0-.06,0,.02,0,.04-.02.05"/>
          <g class="cls-10">
            <g class="cls-14">
              <g class="cls-8">
                <polygon class="cls-13" points="27.27 6.75 26.04 8.61 25.96 8.61 25.66 6.79 27.27 6.75"/>
              </g>
            </g>
          </g>
          <path class="cls-13" d="M25.47,5.78s.1.03.16.01c0-.01,0-.03.01-.04l-.17.03Z"/>
          <path class="cls-13" d="M29.43,8.31c-.39.57-1.68.36-2.92-.45.34-.1.68-.18.98-.24.54-.11,1.27-.17,1.97-.07.1.3.09.57-.04.77"/>
          <path class="cls-5" d="M25.36,5.58s0,0,.01,0c0-.02,0-.04,0-.06,0,.02,0,.04-.02.05"/>
          <path class="cls-13" d="M25.55,5s.1.03.16.01c0-.01,0-.03.01-.04l-.17.03Z"/>
          <path class="cls-5" d="M25,5.97s0,0,.01,0c0-.02,0-.04,0-.05,0,.01,0,.03-.01.04"/>
          <path class="cls-13" d="M23.41,5.33c.02.62.14,1.23.53,1.68.43.51,1.12.71,1.77.72.36,0,.73-.04,1.06-.22.61-.34.89-1.06,1.04-1.75.05-.26.1-.53.11-.79.01-.3,0-.61-.1-.9-.18-.63-.65-1.14-1.21-1.47-.56-.33-1.2-.47-1.84-.54-.31-.04-.64-.04-.92.1-.19.1-.33.28-.37.48-.02.07-.02.15,0,.22-.02.56-.04,1.12-.06,1.68,0,.25-.02.51,0,.77"/>
          <path class="cls-13" d="M25.17,5.48s.09.02.14.01c0-.01,0-.02.01-.03l-.15.02Z"/>
          <path class="cls-13" d="M25.6,5.47c.01.21-.1.4-.22.58-.08.11-.16.22-.28.3s-.26.12-.4.09c-.43-.1-.39-.68-.25-.97.1-.22.32-.4.57-.43.29-.03.56.16.58.44"/>
          <path class="cls-13" d="M36.9,45.38s.05,0,.08-.01c.16-.04.26-.21.22-.38l-4.2-15.52c-.02-.08-.07-.15-.14-.19l-15.6-9.01c-.13-.07-.29-.04-.39.07l-5.86,6.96c-.7.83-1.71,1.3-2.79,1.3-.17,0-.31.14-.31.31s.14.31.31.31c1.26,0,2.45-.55,3.27-1.52l5.7-6.76,15.27,8.82,4.17,15.4c.04.14.16.23.3.23"/>
          <polygon class="cls-13" points="23.03 37.61 34.81 28.07 34.42 27.59 22.92 36.91 21.97 36.52 17.8 20.11 18.03 16.02 17.42 15.98 17.18 20.17 17.19 20.21 21.46 36.97 23.03 37.61"/>
          <path class="cls-5" d="M34.63,28.72l1.18-.68c.92-.53.92-1.39,0-1.92l-1.18-.68c-.92-.53-2.42-.53-3.33,0l-1.18.68c-.92.53-.92,1.4,0,1.92l1.18.68c.92.53,2.42.53,3.33,0"/>
          <path class="cls-5" d="M34.63,27.83l1.18-.68c.92-.53.92-1.39,0-1.92l-1.18-.68c-.92-.53-2.42-.53-3.33,0l-1.18.68c-.92.53-.92,1.4,0,1.92l1.18.68c.92.53,2.42.53,3.33,0"/>
          <path class="cls-5" d="M24.24,44.16l.13.15s0-.02,0-.03c-.04-.04-.09-.08-.13-.11"/>
          <path class="cls-4" d="M15.69,15.69c-.7.04-1.42.08-2.04.4-.62.32-1.13.97-1.04,1.66,0,.07.02.14.07.19.06.07.16.1.25.12.64.08,1.21-.41,1.83-.57.26-.06.53-.07.78-.14.26-.07.51-.24.58-.5.03-.1.02-.22,0-.32-.08-.4-.41-.73-.8-.82l.36-.03Z"/>
          <path class="cls-12" d="M19.73,35.83c0,1.58,1.11,3.49,2.47,4.28,1.37.79,2.47.15,2.47-1.43s-1.11-3.49-2.47-4.28c-1.36-.79-2.47-.15-2.47,1.43"/>
          <path class="cls-4" d="M18.83,43.86c1.09.8,2.45,1.23,3.8,1.21.15,0,.31-.01.43-.11.11-.1.15-.25.18-.4.01-.06.02-.12.03-.17,0,0,0,0,0-.01,0,0,0-.02,0-.03.66-3.4,1.2-6.83,1.61-10.26.11-.26.18-.54.21-.82.06-.53-.07-1.12-.48-1.44-.61-.47-1.56-.14-2,.49-.45.62-.53,1.43-.59,2.2-.23,2.71-.46,5.42-.68,8.13-.56-.1-1.13-.12-1.69-.08-.48.04-.96.12-1.42.26-.11.42.25.81.6,1.06"/>
          <path class="cls-5" d="M18.83,43.86c1.09.8,2.45,1.23,3.8,1.21.15,0,.31-.01.43-.11.11-.1.15-.25.18-.4.01-.06.02-.12.03-.17-1.26-.06-2.51-.44-3.59-1.09-.11-.06-.22-.13-.27-.24-.06-.11-.05-.27.05-.33.07-.05.2-.07.2-.16,0,0,0,0,0-.01-.48.04-.96.12-1.42.26-.11.42.25.81.6,1.06"/>
          <path class="cls-1" d="M24.89,10.02s.01,0,.02.01c.03,0,.06.02.09.04l-.11-.05Z"/>
          <path class="cls-1" d="M24.5,9.85l.38.16c-.11-.08-.24-.13-.37-.17-.02,0-.04-.01-.06-.02l.06.02Z"/>
          <path class="cls-1" d="M24.61,14.38s1.14,3.32,1.14,3.32c.02.07.04.14.06.21,0,.03.02.06.04.09.26.51,1.06.84,1.76,1.04.14-.81-.32-1.66-.71-2.41-.77-1.48-1.31-3.08-1.6-4.72-.09-.51-.16-1.02-.37-1.49-.14-.31-.36-.61-.64-.8-.21-.07-.43-.04-.64.04-.37.38-.62.83-.66,1.4-.11,1.44,1.22,2.13,1.62,3.32"/>
          <path class="cls-4" d="M21.97,16.58c-.12-.22-.27-.44-.43-.66-.33-.19-.63-.36-.64-.38h-6.29c-.25-.03-.5.04-.7.19-.04.03-.07.06-.1.09-.14.14-.23.33-.26.53-.07.51.29.99.8,1.06l6.65.68s.01,0,.02,0c.8.07,1.35-.81.96-1.51"/>
          <path class="cls-2" d="M20.49,17.56s.01,0,.02.01c.64.45,1.53.21,1.92-.47l3.4-6c.38-.67.14-1.52-.53-1.9-.67-.38-1.53-.14-1.9.53l-1.34,2.37-1.32,2.33c-.61,1.12-1.52,2.21-.24,3.14"/>
          <path class="cls-12" d="M23.63,33.57c2,1.01,5.59.57,6.54-1.69.45-1.07.51-2.29,1.1-3.28.31-.53.76-.96,1.24-1.35,1.07-.87,2.35-1.58,2.92-2.82.11-.24.18-.48.23-.73.19-.43.3-.9.32-1.37.03-.76-.14-1.5-.45-2.18-.35-.76-.88-1.46-1.51-2.02-.09-.08-.18-.16-.26-.25-.15-.27-.3-.45-.47-.56-.07.05-.15.09-.24.13-.66.3-1.53.73-2.42,1.09-.6.24-1.21.45-1.76.56-1.07.22-1.95-.17-2.18.2l.59,2.67-1.37,2.93c-.09.24-.19.48-.29.72-.08.18-.21.42-.36.69l-.23.5-2.1,4.49c-.21,1.01-.09,1.85.72,2.26"/>
          <path class="cls-12" d="M25,26.81c2.23.88,5.07,1.02,7.5.43.91-.22,1.76-.55,2.51-.98,2.91-1.68,3.07-4.34.51-6.13-.16-.11-.33-.22-.51-.32-1.24-.71-2.79-1.15-4.39-1.28-.6.24-1.21.45-1.76.56-1.07.22-1.95-.17-2.18.2l.59,2.67-1.37,2.93c-.09.24-.19.48-.29.72-.08.18-.21.41-.36.69l-.23.5Z"/>
          <path class="cls-5" d="M23.17,4.38c-.02-.12-.05-.23-.08-.35-.26-.98-.8-1.97-.15-2.87.45-.62,1.34-.82,2.17-.94.91-.12,1.87-.18,2.77.12,1.7.57,2.41,2.69,2.45,4.14.01.61.08,1.2.18,1.76.3.87.99,1.21,2.1,1.18.81-.03,1.61.29,2.22.97.28.31.5.68.65,1.07.47,1.19.7,1.5,2.32,1.65.97.08,1.92.53,2.66,1.35,1.76,1.95,1.74,5.26-.05,7.41-1.79,2.14-4.67,2.3-6.43.35-.74-.82-1.17-1.89-1.28-3-.18-1.85-.46-2.12-1.51-2.6,0,0,0,0,0,0-.35-.16-.67-.4-.95-.71-.61-.68-.92-1.58-.93-2.51-.01-1.28-.33-2.05-1.1-2.37-.49-.1-1-.15-1.53-.15-.86.01-1.7-.34-2.35-1.05-.94-1.04-.9-2.24-1.14-3.42"/>
          <rect class="cls-3" x="17.91" y="39.68" width="5.66" height=".61" transform="translate(-23.3 49.48) rotate(-74.75)"/>
          <path class="cls-11" d="M30.33,4.48S30.63-.07,26.43,0c-4.2.07-3.91,1.95-3.91,1.95l.04.66,1.84,1.4s.52,1.03.37,1.99c-.15.96,6.06,1.59,5.56-1.53"/>
          <polyline class="cls-7" points="25.18 5.64 23.41 5.97 24.26 3.43"/>
        </g>
      </g>
    </g>
  </g>
</svg>