<?xml version="1.0" encoding="UTF-8"?>
<svg id="uuid-886d1ac7-4544-4406-82b7-ba8b5eb54b5d" data-name="Calque_2" xmlns="http://www.w3.org/2000/svg" viewBox="0 0 16.78 56.28">
  <defs>
    <style>
      .uuid-be2fcc13-ca2d-4613-bfe1-2a5212330810 {
        fill: #db3236;
      }

      .uuid-e5ed945b-8e63-4946-aa04-d505edf8ce11 {
        fill: #fff;
      }

      .uuid-08262b2a-fea6-476a-b119-5abca9bb0432 {
        fill: #783e14;
      }

      .uuid-7a44e1bc-a862-44be-b3ec-0a0b7dca14ef {
        fill: #009283;
      }

      .uuid-f1ea98e8-bf80-4b5d-9bf9-093ddfc1298e {
        fill: #235aa3;
      }

      .uuid-08ddb8a6-aa73-474d-b65c-99c817bf7def {
        fill: #393533;
      }
    </style>
  </defs>
  <g id="uuid-4e48e1cc-678d-4051-bb80-cfc770e64a7c" data-name="Les_personnages">
    <g id="uuid-18c7aff1-fb65-49a1-a0d7-f90c70736892" data-name="Chara_x5F_Homme_x5F_BG">
      <path class="uuid-08ddb8a6-aa73-474d-b65c-99c817bf7def" d="M8.3.26c-2.39,0-3.42,1.42-3.42,3.81s1.6,4.53,3.13,4.53c2.39,0,4.56-1.94,4.56-4.32S10.69.26,8.3.26"/>
      <path class="uuid-08262b2a-fea6-476a-b119-5abca9bb0432" d="M6.12,13.16c-.28.16-.6.2-.88.35-.41.22-.43.29-.74.69-.37.5-.91.59-1.37.44,0,1.99-.16,4.69-.16,4.69l-1.73,6.03-1.02,2.09-.19,1.85s.22.06.4-.09c.06,1.02.38,1.74.38,1.74,0,0,.31.1.44-.17l.09.19c.63-.02.31-.76.31-.76v-.56s.18.69.18.69c.44.16.44-.4.44-.4l-.1-.87.19-.86.11-.54c.06-.27.05-.68-.04-1.01l3.87-7.37.85-6.78c-.1,0-.21,0-.31,0-.19.27-.43.49-.72.66"/>
      <path class="uuid-f1ea98e8-bf80-4b5d-9bf9-093ddfc1298e" d="M2.81,16.72c.33.21.93.3,1.25.51.51-1.4,1.21-3.21,1.71-4.62.2-1.29,1.77-3.44,1.77-3.44,0,0-3.31,1.35-3.84,1.84-.84.8-.67,3.51-.89,5.7"/>
      <path class="uuid-e5ed945b-8e63-4946-aa04-d505edf8ce11" d="M14.06,44.74l-2.12,1.1s-.97,2-1.01,1.97c-1.66,1.01-1.16,1.83-.4,2.06.36.11,1.36-.32,2.05-.67.33-.16.62-.38.88-.64l.23-.23,1.39-1.43c.18-.28.21-.63.05-.93l-1.08-1.23Z"/>
      <path class="uuid-08ddb8a6-aa73-474d-b65c-99c817bf7def" d="M14.29,45c.09.84.11,1.62.35,2.35l.44-.45c.18-.28.21-.63.05-.93l-.85-.97Z"/>
      <path class="uuid-08ddb8a6-aa73-474d-b65c-99c817bf7def" d="M15.05,45.88c-.06.18-.14.34-.26.5-.8,1.01-1.69,1.9-2.78,2.59-.64.41-1.58.61-2.17.24.05.32.34.56.7.67.39.12,1.52-.39,2.21-.75.23-.12.44-.28.63-.46l.33-.33,1.39-1.43c.18-.28.2-.63.05-.93l-.09-.1Z"/>
      <path class="uuid-e5ed945b-8e63-4946-aa04-d505edf8ce11" d="M5.27,52.16l-2.16,1.73c-.41.33-1.56.85-1.71,1.35l-.02.07c0,1.29,2.14.91,2.14.91l3.52-1.44c.3-.13.69-.62.72-.94l-.4-1.39-2.1-.29Z"/>
      <path class="uuid-08ddb8a6-aa73-474d-b65c-99c817bf7def" d="M6.87,52.39c-.13.83-.19,1.66.05,2.45l.12-.05c.3-.13.69-.62.72-.94l-.4-1.39-.5-.07Z"/>
      <path class="uuid-7a44e1bc-a862-44be-b3ec-0a0b7dca14ef" d="M8.61,26.6l-4.91-1.34s.02,3.92.31,6.45c.21,1.81,1.33,7.17,1.33,7.17l6.44,7.35s1.75,1.01,2.64-1.28l-5.36-8.6-.45-9.75Z"/>
      <path class="uuid-7a44e1bc-a862-44be-b3ec-0a0b7dca14ef" d="M6.69,25.64v4.35l-2.07,10.43.2,12.14c1.87,1.63,2.86.38,2.86.38l1.28-12.03s1.65-6.13,2.96-8.96c1.31-2.83,1.09-5.88,1.09-5.88l-6.31-.44Z"/>
      <path class="uuid-f1ea98e8-bf80-4b5d-9bf9-093ddfc1298e" d="M13.62,11.15l-3.72-2.1-1.12-.23-1.38.24c-.6-.02-3.12,1.42-3.3,1.84-.48,1.1-.41,9.27-.41,9.27l-.1,5.14s.49,1.4,4.61,2.08c4.31.71,4.89-.84,4.89-.84l-.43-5.22.07-7.42c.11-1.41.9-2.75.9-2.75"/>
      <path class="uuid-be2fcc13-ca2d-4613-bfe1-2a5212330810" d="M3.81,13.15c-.06,1.12-.1,2.47-.11,3.69,2.97.72,5.92,1.32,8.99,1.49l.03-3.73c-3.02.38-6.07-.34-8.91-1.45"/>
      <path class="uuid-08262b2a-fea6-476a-b119-5abca9bb0432" d="M16.12,21.32l-1.09-6.95s-.73-3.26-2.7-2.83c-1.93.42-.9,3.89-.9,3.89l2.02,6.19.9,6.37s.02,0,.03,0l-.38,1.8.37,2.35s.51,0,.43-.72l-.12-.82.03.1h0s.34.93.34.93l.04.89-.02.29c-.02.28.36.4.49.15.04-.07.36-.71.36-.71l.64-.58.23-.98-.68-2.57.03-6.83Z"/>
      <path class="uuid-f1ea98e8-bf80-4b5d-9bf9-093ddfc1298e" d="M12.62,11.06c-1.99.44-1.47,3.77-1.47,3.77l1.07,3.32c1.81.25,3.4-.81,3.48-.85l-.74-3.65s-.31-3.02-2.34-2.57"/>
      <path class="uuid-08262b2a-fea6-476a-b119-5abca9bb0432" d="M7.22,6.1l-.7,2.74c-.24.92.37,1.54,1.29,1.77.92.23,1.86-.33,2.1-1.25l-.1-1.21.26-1.42-2.86-.63Z"/>
      <path class="uuid-08262b2a-fea6-476a-b119-5abca9bb0432" d="M5.78,7.04c0,1.47.94,2.35,2.13,2.11.16-.03,2.58-.8,2.58-2.25l.29-2.68-5.01-.89v3.7Z"/>
      <path class="uuid-08ddb8a6-aa73-474d-b65c-99c817bf7def" d="M6.4,1.85c-2.16,1.36-.63,2.08-.63,2.08,0,0,3.52.08,3.55.67,0,.17-.03,1.32-.03,1.32l.28.2.29-.39-.04,2.42s1.09-.91,1.48-2.47c.17-.69.56-2.15-.01-2.88-1.18-1.49-2.9-2.21-4.88-.96"/>
      <path class="uuid-08ddb8a6-aa73-474d-b65c-99c817bf7def" d="M6.47,1.5c-2.26,1.42-.45,2.17-.45,2.17,0,0,3.46.08,3.49.7,0,.18-.04,1.38-.04,1.38l.29.21.3-.4-.25,2.61s1.35-1.03,1.75-2.65c.18-.72.59-2.24-.01-3-1.23-1.55-3.02-2.3-5.09-1"/>
      <path class="uuid-08ddb8a6-aa73-474d-b65c-99c817bf7def" d="M6.48.53c-.3,0-.53.24-.53.53s.24.53.53.53.53-.24.53-.53-.24-.53-.53-.53"/>
      <path class="uuid-08ddb8a6-aa73-474d-b65c-99c817bf7def" d="M5.87.85c-.3,0-.53.24-.53.53s.24.53.53.53.53-.24.53-.53-.24-.53-.53-.53"/>
      <path class="uuid-08ddb8a6-aa73-474d-b65c-99c817bf7def" d="M5.33,2.1c-.3,0-.53.24-.53.53s.24.53.53.53.53-.24.53-.53-.24-.53-.53-.53"/>
      <path class="uuid-08ddb8a6-aa73-474d-b65c-99c817bf7def" d="M5.25,2.81c-.3,0-.53.24-.53.53s.24.53.53.53.53-.24.53-.53-.24-.53-.53-.53"/>
      <path class="uuid-08ddb8a6-aa73-474d-b65c-99c817bf7def" d="M5.17,3.66c-.3,0-.53.24-.53.53s.24.53.53.53.53-.24.53-.53-.24-.53-.53-.53"/>
      <path class="uuid-08ddb8a6-aa73-474d-b65c-99c817bf7def" d="M5.25,4.32c-.3,0-.53.24-.53.53s.24.53.53.53.53-.24.53-.53-.24-.53-.53-.53"/>
      <path class="uuid-08ddb8a6-aa73-474d-b65c-99c817bf7def" d="M5.33,5.15c-.25,0-.46.2-.46.46s.2.46.46.46.45-.2.45-.46-.2-.46-.45-.46"/>
      <path class="uuid-08ddb8a6-aa73-474d-b65c-99c817bf7def" d="M5.48,5.91c-.17,0-.31.14-.31.31s.14.31.31.31.31-.14.31-.31-.14-.31-.31-.31"/>
      <path class="uuid-08ddb8a6-aa73-474d-b65c-99c817bf7def" d="M5.49,1.39c-.3,0-.53.24-.53.53s.24.53.53.53.53-.24.53-.53-.24-.53-.53-.53"/>
      <path class="uuid-08ddb8a6-aa73-474d-b65c-99c817bf7def" d="M7.15.22c-.3,0-.53.24-.53.53s.24.53.53.53.53-.24.53-.53-.24-.53-.53-.53"/>
      <path class="uuid-08ddb8a6-aa73-474d-b65c-99c817bf7def" d="M8,0c-.3,0-.53.24-.53.53s.24.53.53.53.53-.24.53-.53-.24-.53-.53-.53"/>
      <path class="uuid-08ddb8a6-aa73-474d-b65c-99c817bf7def" d="M8.83,0c-.3,0-.53.24-.53.53s.24.53.53.53.53-.24.53-.53-.24-.53-.53-.53"/>
      <path class="uuid-08ddb8a6-aa73-474d-b65c-99c817bf7def" d="M9.71.22c-.3,0-.53.24-.53.53s.24.53.53.53.53-.24.53-.53-.24-.53-.53-.53"/>
      <path class="uuid-08ddb8a6-aa73-474d-b65c-99c817bf7def" d="M10.71.59c-.26-.15-.58-.06-.73.2-.15.26-.06.58.19.73.26.15.58.06.73-.2.15-.25.06-.58-.19-.73"/>
      <path class="uuid-08ddb8a6-aa73-474d-b65c-99c817bf7def" d="M11.42,1.13c-.26-.15-.58-.06-.73.2-.15.26-.06.58.2.73.26.15.58.06.73-.2.15-.25.06-.58-.19-.73"/>
      <path class="uuid-08ddb8a6-aa73-474d-b65c-99c817bf7def" d="M12.03,1.76c-.26-.15-.58-.06-.73.2-.15.26-.06.58.2.73.26.15.58.06.73-.2.15-.25.06-.58-.19-.73"/>
      <path class="uuid-08ddb8a6-aa73-474d-b65c-99c817bf7def" d="M12.46,2.5c-.26-.15-.58-.06-.73.2-.15.26-.06.58.19.73.26.15.58.06.73-.2.15-.25.06-.58-.19-.73"/>
      <path class="uuid-08ddb8a6-aa73-474d-b65c-99c817bf7def" d="M12.69,3.39c-.26-.15-.58-.06-.73.2-.15.26-.06.58.2.73.26.15.58.06.73-.2.15-.25.06-.58-.19-.73"/>
      <path class="uuid-08ddb8a6-aa73-474d-b65c-99c817bf7def" d="M12.56,4.22c-.26-.15-.58-.06-.73.2-.15.26-.06.58.2.73.26.15.58.06.73-.2.15-.25.06-.58-.19-.73"/>
      <path class="uuid-08ddb8a6-aa73-474d-b65c-99c817bf7def" d="M12.35,5.09c-.21-.12-.48-.05-.61.16-.12.21-.05.48.16.61.21.12.48.05.61-.16.12-.21.05-.48-.16-.61"/>
      <path class="uuid-08ddb8a6-aa73-474d-b65c-99c817bf7def" d="M12.16,5.89c-.18-.11-.42-.04-.52.14-.11.18-.04.42.14.52.18.11.42.04.52-.14.11-.18.04-.42-.14-.52"/>
      <path class="uuid-08ddb8a6-aa73-474d-b65c-99c817bf7def" d="M11.74,6.41c-.21-.12-.48-.05-.61.16s-.05.48.16.61c.21.12.48.05.61-.16.12-.21.05-.48-.16-.61"/>
      <path class="uuid-08ddb8a6-aa73-474d-b65c-99c817bf7def" d="M11.25,6.83c-.21-.12-.48-.05-.61.16-.12.21-.05.48.16.61.21.12.48.05.61-.16.12-.21.05-.48-.16-.61"/>
      <path class="uuid-08ddb8a6-aa73-474d-b65c-99c817bf7def" d="M10.63,7.31c-.18-.1-.41-.04-.52.14-.1.18-.04.41.14.52.18.1.41.04.52-.14.1-.18.04-.41-.14-.52"/>
      <path class="uuid-08262b2a-fea6-476a-b119-5abca9bb0432" d="M9.71,5.92l.04,1.03c.41.25.94-.6.85-1.1-.15-.9-.89.06-.89.06"/>
      <path class="uuid-08ddb8a6-aa73-474d-b65c-99c817bf7def" d="M7.56,53.53c-.63.91-1.58,1.26-2.59,1.6-.6.2-1.24.46-1.88.54-.5.15-1.02.12-1.52-.23-.06-.05-.12-.1-.17-.15l-.02.05c0,.64.54.87,1.07.94.53.07,1.07-.03,1.56-.23l3.02-1.24c.3-.13.69-.62.72-.94l-.13-.46s-.05.09-.08.13"/>
      <path class="uuid-08262b2a-fea6-476a-b119-5abca9bb0432" d="M14.24,29.53s.04,2.9.17,3.03c.13.13.61,1.39,1.78-.48,1.17-1.86-1.95-2.56-1.95-2.56"/>
      <path class="uuid-08262b2a-fea6-476a-b119-5abca9bb0432" d="M.23,27.45s-.42,1.43-.12,2.21c.3.78.52,1.52,1.43,1.13.91-.39.61-.87.61-1.91s-1.92-1.43-1.92-1.43"/>
    </g>
  </g>
</svg>