<?xml version="1.0" encoding="UTF-8"?>
<svg id="Calque_2" xmlns="http://www.w3.org/2000/svg" viewBox="0 0 23.1 62.53">
  <defs>
    <style>
      .cls-1, .cls-2 {
        fill: #f08c8e;
      }

      .cls-3 {
        fill: #f2f1f3;
      }

      .cls-4, .cls-5 {
        fill: #9fc5e9;
      }

      .cls-6 {
        fill: #d95f61;
      }

      .cls-6, .cls-7, .cls-8, .cls-9, .cls-10, .cls-2, .cls-11, .cls-12, .cls-5, .cls-13, .cls-14, .cls-15, .cls-16, .cls-17 {
        fill-rule: evenodd;
      }

      .cls-18 {
        fill: #6d374f;
      }

      .cls-19 {
        fill: #12100b;
      }

      .cls-20 {
        fill: #f3a3a7;
      }

      .cls-21 {
        fill: #fff;
      }

      .cls-7 {
        fill: #efc979;
      }

      .cls-22 {
        fill: #2b2422;
      }

      .cls-23, .cls-17 {
        fill: #656da4;
      }

      .cls-24 {
        fill: #6a374f;
      }

      .cls-8 {
        fill: #e88a56;
      }

      .cls-25 {
        fill: #dadbed;
      }

      .cls-26 {
        fill: #f3a4a5;
      }

      .cls-27 {
        fill: #f4ab9d;
      }

      .cls-28 {
        fill: #bdc5e1;
      }

      .cls-9, .cls-29 {
        fill: #e2e4f4;
      }

      .cls-30 {
        fill: #401e2e;
      }

      .cls-31 {
        fill: #6b3750;
      }

      .cls-10 {
        fill: #b79743;
      }

      .cls-32 {
        fill: #f3a5a8;
      }

      .cls-33 {
        fill: #bdc7e3;
      }

      .cls-11 {
        fill: #e7b9b1;
      }

      .cls-34 {
        fill: #f0888c;
      }

      .cls-35 {
        fill: #d71b5b;
      }

      .cls-12 {
        fill: #ddb559;
      }

      .cls-13 {
        fill: #e88b57;
      }

      .cls-14, .cls-36 {
        fill: #7f8ec6;
      }

      .cls-15 {
        fill: #efb871;
      }

      .cls-16 {
        fill: #d2b35f;
      }

      .cls-37 {
        fill: #e9edf6;
      }
    </style>
  </defs>
  <g id="_Éléments_Mise_en_page" data-name="Éléments_Mise_en_page">
    <g>
      <polygon class="cls-21" points="2.37 17.76 2.37 17.8 .53 19.1 17.49 29.02 17.49 26.77 2.37 17.76"/>
      <path class="cls-31" d="M2.43,50.72c-.07.38-.17.74-.38,1.08-.52.86-1.9,1.66-1.71,2.79.2.11-.02-.04.2.01.74.19,3.57-1.46,4.09-2.46.05-.1.09-.2.12-.31.06-.19.1-.39.13-.58,0-.01,0-.03,0-.04-.85-.01-1.69-.14-2.46-.48"/>
      <path class="cls-32" d="M3.23,16.19l-1.42,6.83c-.07.35.11.71.44.85.4.18.86-.01,1.02-.42l2.55-6.49c.22-.59-.09-1.24-.68-1.45l-.42-.15c-.64-.23-1.33.16-1.48.82"/>
      <path class="cls-19" d="M13.55,47.66c-.21.04-.37-.04-.38-.37,0-.19.04-.3.12-.46.37-.72.42-1.57.55-2.35.03-.18-.03-.31-.14-.4-.04-.33-.17-.66-.37-.98-.28-.44-.9-.98-.96-1.55l1.65-1.17-.02.25c.35.22,1.38,1.48,1.93,2.31.21.32.26.71.14,1.07-.07.2-.14.4-.22.6-.3.79-.66,1.6-1.19,2.27-.15.19-.72.7-1.11.78"/>
      <path class="cls-36" d="M15.61,42.31c-1.66-4.96-4.95-7.03-6.49-10.14l-.58-7.21-4.16-4.07c-.12.65-.2,1.31-.25,1.97.19,2.42.53,6.11.9,8.25.34,1.92,1.3,3.65,1.3,3.65,2.71,3.5,4.24,4.6,7.12,8.97.83,1.12,2.3.09,2.16-1.42"/>
      <path class="cls-4" d="M3.37,40.08c.11-.68.22-1.35.35-1.98l3.4-11.69c-2.43-1.89-2.71-2.65-2.83-4.52l.1.68,4.74,1.42h0s4.4-1.52,4.4-1.52c-.22,3.65-1.24,7.2-2.99,10.4-.8,1.48-1.77,3.15-2.88,4.85l-.2.14c-.2.94-.02,5.44-2.23,12.07-.11.34-.16,1-.47,1.15-1.15.54-1.92-.02-2.33-.46l.95-10.54Z"/>
      <path class="cls-29" d="M12.57,34.14c.06.02.12-.02.13-.1.32-1.76,1.3-3.88,2.39-4.38.31-.14.52-.15.65-.02.29.27.42,1.31.51,2.19.01.11.09.21.17.23.09.02.15-.05.14-.16-.15-1.54-.34-2.23-.69-2.56-.32-.3-.68-.19-.96-.06-1.2.55-2.19,2.76-2.52,4.56-.02.1.04.22.12.27.02.01.03.02.05.02"/>
      <polygon class="cls-35" points="12.58 49.8 23.1 42.03 20.31 29.63 11.17 36.14 12.58 49.8"/>
      <polygon class="cls-24" points="20.31 29.63 19.24 29.15 10.11 35.65 11.18 36.14 20.31 29.63"/>
      <polygon class="cls-1" points="10.11 35.65 10.06 48.91 12.55 49.93 11.17 36.14 10.11 35.65"/>
      <path class="cls-29" d="M14.32,35.71c.1,0,.15-.07.13-.18-.58-2.98-.35-5.14.61-5.66.42-.22.87.02,1.18.27.78.63,1.49,1.95,1.77,3.29.02.11.11.2.19.21.08,0,.13-.08.11-.19-.31-1.49-1.08-2.92-1.97-3.63-.53-.43-1.05-.54-1.47-.32-1.07.58-1.34,2.82-.72,6.01.02.1.09.19.17.21"/>
      <path class="cls-26" d="M15.65,27.78s-.03-.02-.04-.03c-1.13-.71-1.71,1.45-1.45,2.22l.32-.25s.03-.02.04-.03l.14-.11v.12c.05.04.07.11.08.17.02.13,0,.26-.02.38v.07c.16-.02,1.06.05,1.45-.39.2-.75.03-1.59-.52-2.14"/>
      <path class="cls-28" d="M6.15,6.39c-1.18.36-1.83,1.94-2.23,3.48-.08,2.04-.05,4.11-.62,6.07,0,.06,0,.13,0,.19.36.46.92.78,1.49.83.84.07,1.37-1.9,1.62-2.56.47-1.23.78-2.52.92-3.84.12-1.14.46-5-1.21-4.16"/>
      <path class="cls-37" d="M8.99,25.74c1.04.31,2.22.41,3.26.04.7-.25,1.29-.67,1.77-1.21.03-.18.03-.37.02-.55-.01-.15-.07-.27-.11-.42-.04-.15,0-.3.02-.46.1-.78.17-1.57.21-2.35,0-.15.02-.3.02-.46,0-.05,0-.09,0-.14.04-.86.05-1.73.05-2.55v-.02c0-1.42-.07-2.69-.17-3.48,0-.07-.02-.15-.03-.22-.16-1.32-.39-2.45-.77-3.42-.09-.23-.19-.46-.3-.67-.88-1.73-2.43-2.86-5.37-3.49-.22-.05-.43-.05-.64-.05-.45,0-.85.09-1.14.29-1.54,1.07-1.73,2.58-1.47,4.21v-.32s0,.36,0,.36c.09.55.23,1.12.39,1.69.83,2.95.15,6.51-.87,9.42-.09.27-.02.54.13.79,1.46,1.29,3.1,2.46,4.98,3.01"/>
      <path class="cls-25" d="M11.75,23.41c-.1.88-.02,1.84-.28,2.56.27-.04.53-.1.78-.19.48-.17.91-.43,1.29-.75.33-.9.52-2.5.61-4.24,0-.15.02-.31.02-.46,0-.05,0-.09,0-.14.04-.85.06-1.7.05-2.55v-.02c0-.5-.03-.99-.08-1.48-.02-.18-.04-1.14-.12-2.22-.11-1.41-.32-3.04-.77-3.42-.13-.11-.29-.12-.46.02-.53.41-.7,1.22-.84,1.96-.66,3.56.2,7.32-.22,10.93"/>
      <polygon class="cls-3" points="9.5 6.28 9.82 6.81 9.53 7.16 8.85 6.59 8.65 5.95 9.5 6.28"/>
      <path class="cls-1" d="M9.8,6.96c-.01-.1-.07-.19-.14-.26-.34-.32-.58-.96-.86-2.07-.09-.35-.67-.38-.94-.15-.33.28-.62.65-.87,1.04-.07.99-.02,2-.23,2.96.1.18.2.33.27.42.29.38.59.41.84.46.76.15,2.14-.9,1.93-2.4"/>
      <path class="cls-21" d="M7.54,9.23l-.97.08c-.39.03-.69-.33-.59-.71.16-.55.46-1.33,1.04-2.12-.25,1.98.52,2.76.52,2.76"/>
      <path class="cls-21" d="M7.32,9.17l1.02.78c.44.34,1.08.26,1.42-.19.27-.35.53-.84.62-1.43.09-.58.02-1.12-.16-1.39-.25-.38-.71-.66-.71-.66,0,0,.55.88-.27,2.04-.31.44-1.04.98-1.92.85"/>
      <path class="cls-31" d="M10.06,1.5c-.21-.15-.53-.14-.66.07.04-.48-.26-.95-.67-1.16-.93-.49-2.28-.22-2.82.77-.73,1.32-.34,1.63.66,2.35.79.56,1.58,1.41,2.61,1.4,1.23-.02,1.47-1.63,1.26-2.65-.05-.27-.14-.56-.34-.73-.01-.01-.02-.02-.04-.03"/>
      <path class="cls-32" d="M8.39,3.14c-.98.07-2.01-.19-2.72-.79-.49,3.03-.19,4.03.78,4.53.95.49,2.78-1.55,2.78-1.55l-.08-.64c-.63-.21-.79-.87-.75-1.55"/>
      <path class="cls-31" d="M9.42,1.61c.02.08.03.16.03.24-.01.13-.08.24-.16.35-.27.35-1.02.89-1.42,1.1-.7.37-1.64.59-2.4.28-.6-.25-1.27-.99-.64-1.59.06-.06.13-.11.17-.18.07-.12.03-.27.01-.4-.04-.45.26-.91.69-1.05.07-.02.14-.04.2,0,.05.03.08.09.13.13.12.1.3.02.41-.09.1-.11.18-.26.31-.34.21-.12.48-.02.67.12.2.14.38.32.61.37.2.04.42-.02.62.03.37.09.57.49.71.85.02.06.05.12.06.18"/>
      <path class="cls-30" d="M7.16,5.82c-.29,0-.6-.26-.72-.62-.08-.23-.07-.46.03-.63.07-.12.17-.19.3-.22.31-.06.67.21.81.61.08.23.07.46-.03.63-.07.12-.17.19-.3.22-.03,0-.06,0-.09,0M6.86,4.46s-.05,0-.07,0c-.09.02-.17.07-.22.16-.08.14-.09.34-.02.54.12.35.42.59.68.54.09-.02.17-.07.22-.16.08-.14.09-.34.02-.54-.11-.32-.37-.54-.61-.54"/>
      <path class="cls-30" d="M7.51,4.87s.03.05.04.07l2.19-.9-.04-.07-2.19.9Z"/>
      <path class="cls-30" d="M5.62,5.13s-.01,0-.01,0c-.11,0-.22-.06-.32-.15h0c-.12-.11-.22-.27-.28-.44-.08-.24-.07-.47.01-.62.05-.09.12-.14.21-.16.12-.03.27.03.4.15.11.1.2.24.26.4v.04s.02,0,.02,0c0,0,0,0,0,0l.02.05h0c.06.22.05.43-.03.57-.05.08-.12.14-.21.15-.02,0-.04,0-.06,0M5.36,4.89c.08.08.17.12.25.12.02,0,.04,0,.05,0,.06-.01.11-.05.14-.1.07-.12.07-.33,0-.54h.03s-.03,0-.03,0c-.05-.16-.14-.3-.25-.4-.1-.1-.21-.14-.3-.12-.06.01-.1.05-.14.1-.07.12-.07.33,0,.53.05.16.14.3.25.4"/>
      <path class="cls-22" d="M6.45,4.64c-.3-.27-.53-.18-.54-.18l-.04-.1s.3-.13.66.2l-.07.08Z"/>
      <path class="cls-32" d="M8.61,5.17c.2.26.64.26.99,0,.35-.26.48-.69.28-.95-.2-.26-.64-.26-.99,0-.35.26-.48.69-.28.95"/>
      <path class="cls-31" d="M8.77,4.03s0-.01,0-.02c.05-.13.04-.29.04-.44,0-.08-.1-.09-.13-.04,0-.01-.01-.02-.02-.03-.01-.02-.03-.05-.04-.08,0-.01-.01-.02-.02-.03-.02-.04-.05-.08-.08-.11,0,0,0-.01-.01-.02,0-.07,0-.13,0-.2,0-.25.18-.48-.01-.69-.06-.07-.17.03-.1.1.1.11,0,.33-.03.47,0-.02-.01-.03-.02-.05-.02-.05-.1-.08-.13-.02-.03.07-.05.14-.07.21-.24.28-.09,1.43.28,1.6.09.09.19.13.3.04.16-.14.08-.53.05-.71"/>
      <path class="cls-37" d="M11.71,12.42c.25,2.05.41,4.13.86,6.21.13.58.1,1.06.24,1.53.76.5,2,.51,2.5-.17,0-.53-.02-1.04-.02-1.34,0-1.5-.15-3.05-.45-4.6-.28-1.46-1.82-5.97-2.99-3.53-.21.43-.25,1.03-.17,1.63.01.09.02.18.03.27"/>
      <path class="cls-26" d="M12.88,20.29l1.42,8.34,1.38-.21-.5-8.46c-.71.38-1.62.68-2.3.34"/>
      <path class="cls-26" d="M3.08,22.29c-.14-.14-.51-.22-.7-.17-.08.03-.3.26-.34.34-.05.1-.11.32-.14.44-.02.09-.03.18-.04.27-.12.17-.18.48-.25.67-.13.32-.26.64-.44.92-.12.18-.24.35-.3.57-.07.24-.1.47-.16.71-.05.18-.02.39-.02.57,0,.19-.05.41.09.55.37.37.56-.2.62-.48.04-.15.06-.35.16-.48.1-.14.26-.21.4-.32.11-.09.2-.19.31-.26.1-.06.15-.12.22-.21.07-.09.17-.17.22-.26.42-.63.54-1.36.54-2.13,0-.24.03-.54-.16-.72M1.94,23.26s-.01,0-.02,0c.01-.02.03-.05.04-.07-.01.03-.02.05-.02.08"/>
      <path class="cls-1" d="M15.21,53.2c-1.43-2.74-4.29-8.09-5.32-8.93-.32-4.27.24-6.18.18-6.14l-1.94,2.53v-.21s-1.26-1.56-1.26-1.56c-.03.87-.09,2.39-.15,3.76.07.62.18,1.25.28,1.88.11.71.36,1.38.76,1.98,1.13,1.7,2.49,3.2,3.85,4.74.15.17.14.37.05.53l1.86,1.95c.64.53,1.33,1.67,1.59,2.25.2.44.17.92.27,1.39.02.07.05.22.09.37.37-.02.85-.87.77-1.63-.1-1.04-.16-1.19-.08-1.67.08-.47-.08-.55-.95-1.24"/>
      <path class="cls-18" d="M16.61,54.08c-.42-.57-.78-.77-.95-.83h-.02s-.07-.03-.07-.03h0c-.11-.03-.22-.04-.33-.05.06.19.12.39.19.58.32.44.68,1.07.62,1.72-.09,1.1-.27,1.58-.73,1.81.07.29.12,1.03.37,1.04.25.01.64-.52.73-.67.22-.42.38-.82.34-1.28,0-.08-.07-.26-.04-.32-.12-.41-.25-.8-.26-1.15,0-.08,0-.15-.01-.22h0c.38.24.59.42.86.59.18.02.24-.11.23-.26-.24-.26-.56-.38-.95-.92"/>
      <path class="cls-28" d="M9.1,23.43c-1.2,2.41-1.34,3.17-2.26,4.63-.39.62-1.11,1.24-1.72.49-.28-.34-.03-1,.07-1.38.49-1.79,1.09-3.61,1.91-5.28.19-.39.4-.78.74-1.05.53-.43,1.35-.3,1.7.33.33.6-.14,1.69-.42,2.25"/>
      <path class="cls-26" d="M6.84,28.06c-.39.62-1.11,1.24-1.72.49-.28-.34-.03-1,.07-1.38,0,0,1.24-.16,1.66.89"/>
      <path class="cls-20" d="M14.06,40.35l-4.15-2.82c-.45,2.78-1.82,4.57-1.78,6.77.04,2.95.59,3.54,1.18,7.18.24,1.5.39,4.85.3,6.35-.08,1.36-.78,2.56-1.42,3.72-.04.07-.08.14-.07.22.02.14.17.22.3.25.46.1.95-.03,1.28-.36.49-.48.72-.95,1.34-1.27.02,0,.03-.02.04-.03.35-.15.54-.56.44-.96l-.24-.97c2.41-8.67.09-13.26.09-13.26,0,0,2.64-4.4,2.69-4.84"/>
      <path class="cls-1" d="M10.81,16.99l.82,3.34s.18.52.17.66c0,.14-.71.74-1.32.81-.29.03-.52.02-.68,0-.18-.03-.27-.07-.27-.07l-.06-.89h0l-.07-1.02-.03-.54-.03-.43c.66-.39,1.18-1.08,1.48-1.85"/>
      <path class="cls-31" d="M9.53,16.07c.02-.77.34-1.32.79-1.56.47-.25,1.1-.16,1.72.37.45.38.78.88,1.06,1.39.47.85.81,1.77,1.02,2.73-.09.46-.27.89-.6,1.25-.39.42-.92.67-1.47.83-.9-.51-.8-1.9-.93-2.81,0-.05-.02-.09-.04-.13.08-.05.15-.1.22-.15.15-.12.2-.33.12-.52-.08-.17-.29-.33-.48-.28-.16.04-.3.09-.44.15,0,0,0,0,0,0-.25-.26-.57-.39-.91-.45-.05-.29-.07-.57-.06-.81"/>
      <path class="cls-27" d="M8.35,16.7c-.03-.56.31-.98.75-1.3.05.05.11.1.17.17.42.47.93.83,1.48,1.07.21.09.43.17.6.33.12.12.21.28.28.44.2.51.28.77-.04,1.16-.53.65-1.86,1.89-2.65,1.33-.64-.46-.78-1.95-.73-2.86.09-.08.15-.19.14-.34"/>
      <path class="cls-31" d="M11.88,17.58c-.04-.39-.19-.73-.46-1.02-.19-.21-.47-.18-.64-.04-.31-.15-.63-.27-.92-.35-.45-.14-1.15-.31-1.63-.08.11-.44.31-.84.66-1.15.1-.09.21-.17.32-.24.07,0,.14-.02.21-.06.38-.22.83-.33,1.28-.35.2.05.4.13.59.25.08.06.15.13.22.2.18.19.33.42.45.67.03.07.06.13.09.2.02.07.03.14.05.21.21.98.96,2.3.79,3.3-.09.53-.7,1.4-1.28,1.04-.61-.37-.39-1.45-.36-2.14.26.15.67-.1.64-.43"/>
      <path class="cls-31" d="M7.86,16.58c.02-.48.29-1.04.53-1.34.38-.49.94-.84,1.55-.97.75-.17,1.66.04,2.02.72.23.43.18.93.38,1.37.24.52.03,1.29-.62,1.65-.82.46-.9-.69-1.06-1.48-.32.7-2.23,1.59-2.72.52-.06-.14-.08-.3-.07-.46"/>
      <path class="cls-27" d="M11.65,18.78l.17-.23c.14-.19.1-.46-.08-.6-.19-.14-.46-.1-.6.08l-.17.23c-.14.19-.1.46.08.6.19.14.46.1.6-.08"/>
      <path class="cls-31" d="M11.31,17.98s-1.04.62-1.18-1.13c-.14-1.75,1.04-1.56,1.04-1.56l.57,1.28s.09.57-.05.66c-.14.1-.38.75-.38.75"/>
      <path class="cls-23" d="M12.62,31.41c-.82-.03-1.65.01-2.48.04-.6.09-1.2.19-1.79.2-.48.35-.96.69-1.48.96-.42,2.65-.93,6.93-.55,10.21,1.2.98,3.32,2.1,4.96,1.99,1.39-.09,1.47-.23,2.07-.66.47-1.93,1.46-5.35,1.45-7.5-.01-1.73-.63-4.25-1.31-5.02,0,0-.3-.12-.86-.21"/>
      <path class="cls-29" d="M6.71,33.21c.71.93,1.74,1.55,2.89,1.71.26.04.47.07.56.08.09,0,.18.02.26.03.37-.02.74-.06,1.1-.11.37-.08.74-.19,1.09-.34.19-.08.37-.17.55-.27.12-.07.23-.13.34-.21.29-.18.55-.39.81-.63-.26-.9-.52-1.8-.77-2.71-.22-.78-.33-1.4-.27-2.06.03-.37.11-.76.25-1.19.36-1.08.85-2.06,1.15-3.11.14-.48.27-1.02.13-1.5-.05-.2-.15-.38-.31-.55-.54-.57-1.21-.83-1.92-1.11-.04-.01-.07-.03-.11-.04-.1-.04-.2-.07-.29-.1-.77-.26-1.59-.42-2.42-.58-.06-.01-.12-.02-.19-.04-.08-.01-.15-.02-.23-.03-.63-.05-1.28.14-1.65.65-.18.25-.28.55-.36.86-.22.79-.41,1.63-.42,2.48,0,.37.03.74.1,1.1.34,1.64.74,2.86.37,4.58-.22,1.01-.43,2.03-.66,3.07"/>
      <path class="cls-34" d="M9.04,24.86c-.01.15.18.2.28.07.43-.58.86-1.15,1.28-1.72.32-.43.64-.86.96-1.29.13-.18.47-.52.61-.82-.77-.26-1.59-.42-2.42-.58-.06-.01-.12-.02-.19-.03-.08-.01-.15-.02-.23-.03-.07.36-.02.83-.05,1.17-.04.47-.07.95-.11,1.42-.05.6-.09,1.21-.14,1.81"/>
      <path class="cls-33" d="M10.18,27.99c.14.1.28.21.42.32.84.68,1.15.51,1.54,1.16.18.3.79,3.08,1.02,4.84.12-.07.23-.13.34-.21.28-.18.55-.4.8-.63-.26-.9-.51-1.8-.77-2.71-.22-.78-.33-1.4-.27-2.06.03-.37.11-.76.26-1.19.35-1.08.85-2.06,1.15-3.11.14-.48.27-1.02.13-1.5-.8.53-1.27,1.68-1.63,2.54-.31.74-.66,1.59-1.21,2.12-.44.42-1.01.63-1.78.42"/>
      <path class="cls-20" d="M9.69,32.89s.04-.04.06-.06c.31-.28.61-.58.93-.85,1.12-.94,2.33-1.77,3.54-2.58.64-.43,1.91-1.46,2.45-.25.54,1.23-1.61,2.11-2.35,2.51-.26.15-.53.29-.79.44-1,.55-1.98,1.08-3.02,1.55-.14.07-.3.13-.46.13-.47,0-.66-.56-.37-.89"/>
      <path class="cls-20" d="M1.52,33.37s.02-.05.03-.07c.17-.37.33-.74.51-1.11.65-1.26,1.42-2.44,2.2-3.62.41-.62,1.16-2.01,2.08-1.13.94.9-.64,2.47-1.15,3.11-.18.23-.36.46-.54.68-.68.87-1.36,1.7-2.11,2.51-.1.11-.21.23-.36.29-.42.17-.79-.25-.66-.66"/>
      <path class="cls-26" d="M15.27,29.23c-.88-1.56-1.7-3.22-2.27-4.93-.13-.4-.25-.81-.21-1.22.07-.66.73-1.12,1.4-.93.63.19,1.05,1.26,1.24,1.84.81,2.48,1.23,3.09,1.59,4.72.15.69.08,1.61-.85,1.51-.42-.04-.7-.67-.89-.99"/>
      <path class="cls-26" d="M.55,35.15s.28-.2.82-.36c.69-.21,1.32-.79,1.2-1.23-.13-.09-.26-.19-.4-.27-.18-.07-.38-.12-.57-.17-.45.04-.91.27-1.16.57-.45.55-.48,1.16-.42,1.58.03.2.28.25.39.09l.14-.2Z"/>
      <path class="cls-18" d="M11.68,59.03s0,0,0-.01c-.01-.05-.02-.07-.02-.07h0c-.1-.28-.33-.53-.33-.53,0,0-.17,1.68-1.13,2.34-.91.63-1.39.79-1.83.58-.19.23-.64.8-.5,1,.07.11.25.14.43.14l.05.06s1.73,0,2.64-1.91c.02-.02.03-.03.05-.05.03.45.02.73.04,1.06.09.15.23.12.34.01.06-.35-.02-.69.17-1.34.2-.69.14-1.11.1-1.28"/>
      <path class="cls-29" d="M14.19,22.15s.99-.74,2.43,5.23c0,0-.56,1.12-1.94.72l-2.07-3.22v-2.3l.58-.51c.29-.26.74-.22.99.08"/>
      <polygon class="cls-16" points="9.95 27.42 4.68 24.39 4.7 33.79 9.96 36.82 9.95 27.42"/>
      <polygon class="cls-10" points=".14 27.02 .33 36.37 4.87 33.72 4.85 24.33 .14 27.02"/>
      <path class="cls-14" d="M3.14,28.08c-.2-1.06-.72-2.14-1.12-3.13.34-.27.67-.56,1.02-.83.37-.29,3.54-.6,3.54-.57.27.52-.18,3.09.11,3.6.41.72-.48-.95-.18-.18.13.32.16.48-.14.66-.57.33-1.4.55-2.03.71-.23.06-.78.19-1.02.08-.16-.07-.22-.31-.28-.46.03.03.01.04.11.13"/>
      <polygon class="cls-5" points="2.01 24.95 3.93 25.86 6.74 23.87 4.59 23.1 2.01 24.95"/>
      <path class="cls-6" d="M8.67,26.05s-.02-.01-.03-.02l-.09-.05s-.03-.01-.04-.02c0,0,0,0-.01,0-.02,0-.04-.02-.06-.03l-.04-.02s-.02,0-.02,0h-.02s-.01-.01-.01-.01h0s-.06-.02-.09-.03c-.34-.09-.68-.1-1.03,0-.01,0-.03,0-.04.01h-.02s0,0,0,0l-.06.02h0s0,0,0,0h0s-.07.03-.1.04c-.57.27-1.01.77-1.02,1.52h0c0,2.18-.02,4.35-.02,6.52.01.46.5.75.9.88.62.21,1.42.19,2.02-.1.05-.02.09-.05.14-.07.33-.2.49-.45.49-.71l.02-6.51c-.02-.6-.3-1.14-.83-1.44"/>
      <polygon class="cls-11" points="8.33 25.9 8.33 25.9 8.31 25.89 8.33 25.9"/>
      <path class="cls-11" d="M5.95,27.45s0,.01,0,.02h0s0-.02,0-.02Z"/>
      <path class="cls-6" d="M8.05,26.55s0,0,0,0c-.02,0-.05.02-.07.02,0,0-.01,0-.02,0,0,0-.01,0-.02,0,0,0-.02,0-.03,0-.02,0-.04,0-.06.01,0,0,0,0-.01,0,0,0,0,0-.01,0-.01,0-.02,0-.04,0-.02,0-.04,0-.06,0h-.06s-.04,0-.06,0h0s-.05,0-.07,0c0,0-.01,0-.02,0-.02,0-.03,0-.05-.01-.01,0-.03,0-.04,0,0,0,0,0-.01,0-.04-.01-.08-.03-.11-.05-.01,0-.02-.01-.03-.02-.01,0-.02-.01-.03-.02,0,0-.02-.01-.03-.02,0,0,0,0,0,0-.01-.01-.02-.03-.03-.04,0,0,0,0,0,0,0,0,0,0,0,0,0,0-.01-.02-.02-.02,0,0-.01-.02-.02-.03h0s0,0,0,0c0,0,0-.02,0-.03,0-.01,0-.02,0-.03h0s0-1.34,0-1.34c0,.02,0,.04.01.06,0,0,0,0,0,0,0,.02.02.04.03.06,0,0,0,0,0,0,.01.02.03.03.05.05,0,0,.02.01.03.02.02.01.03.03.06.04.04.02.08.04.12.05.02,0,.03,0,.05.01.02,0,.03,0,.05.01.03,0,.06.01.09.01h0s.07,0,.1,0h.01s.07,0,.1,0h.01s.06,0,.09-.02c0,0,.01,0,.02,0,.03,0,.06-.02.09-.03.03-.01.07-.03.09-.04.11-.07.16-.15.16-.23v1.33c0,.09-.23.27-.26.28"/>
      <path class="cls-13" d="M7.14,23.9s0,0,0,0c0,.02.02.04.03.06,0,0,0,0,0,0,.01.02.03.03.05.05.01.01.03.02.04.03.01,0,.02.02.04.03.04.02.08.04.12.05.01,0,.03,0,.04.01.02,0,.04.01.06.01.02,0,.05,0,.07.01,0,0,.01,0,.02,0,.03,0,.07,0,.1,0h.02s.07,0,.1,0c0,0,0,0,.01,0,.03,0,.06-.01.09-.02,0,0,.01,0,.02,0,.03,0,.05-.01.08-.03,0,0,.01,0,.02,0,.03-.01.06-.03.09-.04.12-.07.17-.16.17-.24v1.79c0,.09-.05.18-.17.24-.03.01-.05.03-.09.04,0,0,0,0,0,0,0,0-.01,0-.02,0-.02,0-.03.01-.05.02,0,0-.02,0-.03,0,0,0-.01,0-.02,0,0,0-.01,0-.02,0-.02,0-.04,0-.06,0,0,0-.01,0-.02,0,0,0-.01,0-.02,0,0,0-.01,0-.02,0-.02,0-.04,0-.06,0h-.06s-.04,0-.07,0h0s-.01,0-.02,0c-.02,0-.03,0-.05,0,0,0-.01,0-.02,0-.02,0-.04,0-.06-.01,0,0-.02,0-.03,0,0,0,0,0-.01,0-.04-.01-.08-.03-.12-.05,0,0,0,0,0,0-.01,0-.02-.01-.03-.02-.01,0-.03-.02-.04-.03,0,0,0,0,0,0-.01-.01-.03-.03-.04-.04,0,0,0,0,0,0,0,0,0,0,0,0,0,0,0-.01-.01-.02,0-.01-.01-.02-.02-.03,0,0,0,0,0,0,0,0,0,0,0,0,0,0,0-.01,0-.02,0-.01,0-.02,0-.03h0s0-1.8,0-1.8c0,.02,0,.04.01.06"/>
      <path class="cls-7" d="M7.01,23.63s0,0,0,0c0,.02.02.05.04.07,0,0,0,0,0,.01.02.02.03.04.06.06.01.01.03.03.05.04.02.01.03.02.05.03.04.02.09.04.14.06.02,0,.04.01.05.02.02,0,.05.01.07.02.03,0,.06.01.09.01,0,0,.01,0,.02,0,.04,0,.08,0,.12,0h.02s.08,0,.12,0c0,0,.01,0,.02,0,.04,0,.08-.01.12-.02,0,0,.01,0,.02,0,.03,0,.07-.02.1-.03,0,0,.01,0,.02,0,.04-.01.08-.03.11-.05.14-.08.21-.19.21-.3v.58c0,.11-.07.22-.21.3-.03.02-.07.04-.1.05,0,0,0,0,0,0,0,0-.01,0-.02,0-.02,0-.04.01-.06.02-.01,0-.02,0-.04,0,0,0-.01,0-.02,0,0,0-.01,0-.02,0-.02,0-.05.01-.07.01,0,0-.02,0-.03,0,0,0-.01,0-.02,0,0,0-.02,0-.03,0-.02,0-.05,0-.07,0h-.04s-.02,0-.03,0c-.03,0-.05,0-.08,0,0,0,0,0-.01,0,0,0-.01,0-.02,0-.02,0-.04,0-.06,0,0,0-.02,0-.03,0-.02,0-.05-.01-.07-.02-.01,0-.03,0-.04-.01,0,0-.01,0-.02,0-.05-.02-.1-.04-.14-.06,0,0,0,0,0,0-.01,0-.03-.02-.04-.03-.02-.01-.04-.02-.05-.04,0,0,0,0,0,0-.02-.01-.03-.03-.04-.05,0,0,0,0,0-.01,0,0,0,0,0-.01,0,0,0-.01-.01-.02,0-.01-.01-.03-.02-.04,0,0,0,0,0,0,0,0,0,0,0,0,0,0,0-.02,0-.03,0-.01,0-.03,0-.04h0s0-.59,0-.59c0,.02,0,.05.01.07"/>
      <path class="cls-12" d="M7.21,23.27c.28-.16.75-.16,1.03,0,.28.16.28.43,0,.59-.29.16-.75.16-1.03,0-.28-.16-.28-.43,0-.59"/>
      <path class="cls-9" d="M3.59,34.59c.29-1.84-.02-4.78-.11-5.66-.33-3.36-3.7-4.99-2.83-.52.43,2.18.89,4.36,1.34,6.53,0-.02,0-.03,0-.05,0,.02,0,.03,0,.05,0,.02.01.06.02.08,0,0,0,.02,0,.03.02.05.04.11.07.17.01.03.03.06.06.09,0,0,0,0,0,.01h0s0,.01.01.02c.12.18.29.3.47.37-.14-.05-.27.26-.15.38.62.15.94-.51,1.09-1.5M3.99,34.4s0,.01.01.01c0,0,0,.01,0,.02,0,0,0,0,0,0,0-.01-.01-.02-.02-.04M4.02,34.46h0s0,0,0,0c0,0,0,0,0,0h0"/>
      <polyline class="cls-9" points=".74 26.19 .74 26.19 .75 26.19 .74 26.19"/>
      <path class="cls-9" d="M.44,26.64h0s0-.02,0-.02c0,0,0,.01,0,.02"/>
      <polyline class="cls-9" points="2.21 26.29 2.2 26.29 2.2 26.29 2.21 26.29"/>
      <path class="cls-9" d="M1.76,25.99s-.02,0-.03,0c0,0,.02,0,.03,0h0"/>
      <path class="cls-9" d="M1.93,26.07s.01,0,.02.01c0,0,0,0,0,0,0,0,0,0-.01,0"/>
      <polygon class="cls-9" points="2.09 26.18 2.09 26.18 2.07 26.16 2.09 26.18"/>
      <path class="cls-5" d="M7.57,27.76c.11-.44.16-.88,0-1.17-.15.29-.48.75-.8.81.05-.86.75-1.76.43-2.65-.44.68-.96,1.42-1.24,2.18.02-.32.1-.66.13-1,.04-.42.26-1.73-.09-1.97-.33.53-.48,1.19-.62,1.79-.19.81-.32,1.62-.54,2.42-.12.45-.46,1.22-.22,1.68.24.47,1.2.53,1.65.39.59-.18.79-.85.96-1.38.09-.29.25-.7.36-1.11M6.34,25.41s-.03.02-.05.03c.02-.01.03-.02.05-.03M6.28,25.45s-.04.03-.05.05c.02-.02.03-.03.05-.05M6.21,25.51s-.04.04-.05.06c.02-.02.04-.04.05-.06M6.15,25.58s-.04.05-.06.07c.02-.03.04-.05.06-.07M6.51,25.23s.04.02.06.03c-.02-.01-.04-.02-.06-.03M6.37,25.18s0,0,0,0c0,0,.01,0,.02,0,0,0-.01,0-.02,0M6.28,25.17h0,0M6.2,25.02s-.02.02-.04.03c.01-.01.02-.02.04-.03M6.27,24.97s-.03.02-.04.03c.01,0,.03-.02.04-.03M6.27,24.8s0,0,0,0h0s0,0,0,0M6.32,24.81s0,0,.01,0h0s0,0-.01,0M6.21,24.8h0,0,0M4.89,25.2s0,0,0,0c0,0,0,0,0,0h0M6.08,25.15s-.04.05-.05.07c.02-.03.03-.05.05-.07M6.14,25.08s-.02.03-.03.04c.01-.01.02-.03.03-.04M6.14,24.52h0s.02,0,.03,0c-.01,0-.02,0-.03,0M4.98,24.39s0,0,0,0c0,0,0,0,0,0,0,0,0,0,0,0M4.88,24.3h0s-.01-.01-.02-.02h0s.02.01.02.02M4.63,24.71s.01,0,.02,0c0,0-.01,0-.02,0h0ZM4.79,25.13s-.04-.02-.06-.03c.02,0,.04.02.06.03M4.55,25.04s.02,0,.03,0c-.01,0-.02,0-.04,0h0"/>
      <path class="cls-17" d="M4.83,27.59c-1.53-.72-4.46.92-3.03,3,.29.42.74.75,1.24.87.07.02.14.03.2.04,1.84.27,2.92-1.65,2.29-3.17-.15-.35-.4-.6-.71-.74M3.43,27.49s0,0,.01.01h0s0,0,0-.01"/>
      <polygon class="cls-15" points="5.4 30.07 5.25 30.94 5.42 39.47 9.96 36.82 9.95 27.42 5.4 30.07"/>
      <polygon class="cls-8" points="5.41 30.07 .14 27.04 .16 36.44 5.42 39.47 5.41 30.07"/>
      <path class="cls-2" d="M10.25,33.02c0-.32-.03-.63-.12-.94-.02-.06-.08-.09-.14-.07-.52.13-1.54.92-1.49,1.99.03.54.99.2,1.59.12.05,0,.09-.05.1-.1.03-.33.07-.66.07-.99"/>
    </g>
  </g>
</svg>