<?xml version="1.0" encoding="UTF-8"?>
<svg id="uuid-65705043-f423-4041-985e-eb7292652286" data-name="Calque_2" xmlns="http://www.w3.org/2000/svg" viewBox="0 0 53.23 59.75">
  <defs>
    <style>
      .uuid-ddce88a8-90d9-4152-86c4-c5feafc22744 {
        fill: #d8ddee;
      }

      .uuid-c68c1a1b-0de4-466a-aa5a-23fdd5a49b80 {
        fill: #b4d5f1;
      }

      .uuid-b1811afb-e05b-4317-8058-d3370fdf2ade {
        fill: #f9dccc;
      }

      .uuid-0ca396f0-5188-4fc2-b9d1-7c385068cc3d {
        fill: #f4c900;
      }

      .uuid-c4d8cbd6-e7e2-4f37-a38c-0057ad7f1bac {
        fill: #ebeef8;
      }

      .uuid-ecc5d7be-37cf-4242-b7ea-3dea27fc42c3 {
        fill: #243268;
      }

      .uuid-eebc79af-19a0-4f76-8b7a-c80ad33ad31c {
        fill: #e84f0e;
      }

      .uuid-b8ca9d84-4add-4c11-b9e8-c227c0742afd {
        fill: #1397d5;
      }
    </style>
  </defs>
  <g id="uuid-c2e65334-4eee-45de-a337-e1fce89744c1" data-name="Les_personnages">
    <g id="uuid-f4181066-d845-4e5e-a0a4-23ce1616f6cb" data-name="Chara_x5F_FemmeChien_x5F_BG">
      <path class="uuid-eebc79af-19a0-4f76-8b7a-c80ad33ad31c" d="M28.5,31.49c.13.02.26-.09.27-.24.14-1.28.19-2.58.15-3.86,0-.15-.01-.41-.17-.61-.11-.14-.28-.2-.44-.17-.14.03-.26.12-.31.26l.45.21s-.05.06-.06.06c.04.05.04.19.05.26.04,1.26-.01,2.53-.15,3.78-.02.15.08.28.21.3"/>
      <path class="uuid-b1811afb-e05b-4317-8058-d3370fdf2ade" d="M50.98,48.68c.1-.29.24-.56.39-.78-.05-.45-.14-.9-.28-1.34-.06-.21-.14-.41-.22-.6-.75-1.82-1.63-3.56-2.57-5.3-.64-1.19-1.83-2.51-1.89-3.92-.05-1.12.38-2.56.5-3.72.19-1.77.41-3.55.58-5.33-1.85,1.07-4.04,1.49-6.22,1.65-.11,0-.22.01-.33.02,0,2.43-.14,5.04.43,7.32.2.81.53,1.6.94,2.38.9,1.68,2.57,3.21,3.76,4.68.72.89,1.45,1.77,2.16,2.66.48.6,1.32,1.24,1.62,1.93.09.21.06.69,0,1.22,0,.09-.02.17-.02.26.38.41.75,0,1.15-1.15"/>
      <path class="uuid-ecc5d7be-37cf-4242-b7ea-3dea27fc42c3" d="M51.37,47.9c-.15.22-.29.49-.39.78-.4,1.14-.77,1.56-1.15,1.15-.09.92-.17,1.89.31,1.86.21-.01.49-.49.58-.64.6-.94.77-2.05.65-3.14"/>
      <path class="uuid-b1811afb-e05b-4317-8058-d3370fdf2ade" d="M34.35,28.92c-.48,2.19-.88,4.39-1.25,6.58-.57,3.4.04,7.18-.04,10.62-.04,1.67-.11,3.33-.1,4.96,0,.14,0,.28-.01.4-.04.48-.34,1.05-.67,1.65h0c-.38.67-.8,1.37-.92,1.97-.06.26.25.43.46.27.94-.77,2.04-1.66,3.04-2.46.04-.09.09-.17.12-.26.14-.32.28-.63.41-.95h0c.62-1.57,1.06-3.24,1.39-4.95.61-3.18.52-5.99.86-9.06,1.15-2.41,2.44-6.19,2.99-8.28-2.03.11-4.31.1-6.26-.49"/>
      <path class="uuid-ecc5d7be-37cf-4242-b7ea-3dea27fc42c3" d="M35.37,51.7c-.13.32-.26.64-.41.95-.04.09-.08.17-.12.26-1,.8-2.1,1.69-3.04,2.46-.2.17-.51-.01-.45-.27.13-.6.54-1.3.92-1.97-.04.15-.08.29-.12.43.86.36,2.26-1.58,3.22-1.87"/>
      <path class="uuid-b1811afb-e05b-4317-8058-d3370fdf2ade" d="M38.13,12.49c-.35-.36-.83-.61-1.37-.67-1.18-.14-2.27.64-2.52,1.81l-1.43,6.76c-1.03,1.01-2.07,2.02-3.1,3.03-.49.48-.99,1.12-1.55,1.52-.63.44-1.92,1.28-1.68,2.31.11.48.65.67,1.1.55.26-.07.37-.22.47-.38.07-.12.14-.25.27-.37.27-.25.65-.39.97-.59,1.35-.85,2.92-1.75,4.37-2.73,1.41-.96,2.42-2.41,2.8-4.07l1.67-7.17Z"/>
      <path class="uuid-0ca396f0-5188-4fc2-b9d1-7c385068cc3d" d="M46.41,32.4s0-.02,0-.03c.02.03.02.04,0,.03"/>
      <path class="uuid-0ca396f0-5188-4fc2-b9d1-7c385068cc3d" d="M46.41,32.4s0-.02,0-.03c.02.03.02.04,0,.03"/>
      <path class="uuid-c4d8cbd6-e7e2-4f37-a38c-0057ad7f1bac" d="M48.2,29.17l-1.12-5.17c-.26-1.14-2.71-4.34-4.47-3.24-.03.02-.07.04-.11.05-3.29.93-2.41.45-5.73-.48,0,0-.19,0-.19,0-.83,1.76-1.27,3.92-1.96,6.2,0,.02-.01.04-.02.06,0,0,0,0,0,0l-.96,2.6c-.22.58-.05,1.24.42,1.65,1.15,1.02,3.49,2.63,5.95,1.81.08-.31.17-.72.26-1.08.13.02.25.1.31.24l.19.43c.06.14.19.24.35.25,1.41.14,5.1.18,7.04-3.01.06-.09.07-.2.05-.31"/>
      <path class="uuid-b8ca9d84-4add-4c11-b9e8-c227c0742afd" d="M44.21,24.08c-1.52.66-2.76.61-4.4.25-1.15-.25-3.36-.52-4.06-1.55-.74-1.09.22-2.85-.21-4.08-.42-1.2-1.32-2.07-1.55-3.39-.16-.91-.13-1.9.28-2.75.84-1.74,2.47-1.56,4.09-1.4,1.04.1,1.83.25,2.85.62,1.17.43,2.31.93,3.02,1.99,1.16,1.73.56,3.75,1,5.68.21.9.54,1.66.65,2.32.16.91-.1,1.63-1.67,2.31"/>
      <polygon class="uuid-b1811afb-e05b-4317-8058-d3370fdf2ade" points="35.86 9.03 37.18 12.4 40.31 11.82 38.46 8.3 35.86 9.03"/>
      <path class="uuid-ecc5d7be-37cf-4242-b7ea-3dea27fc42c3" d="M46.09.16c-.6.2-1.08.54-1.44.97-.27.32-.66.52-1.08.55-.4.03-.81.14-1.19.34-.4.21-.74.48-1,.81-.25.3-.61.49-1,.51-.42.03-.84.14-1.24.34-.32.16-.6.38-.84.62-.3.31-.7.51-1.13.57-.75.1-1.48.51-1.97,1.2-1.11,1.56-.26,4.06,1.87,3.83.92-.1,1.54-.75,2.36-.93.8-.17,1.44.2,2.3-.24.4-.21.74-.48,1-.81.25-.3.61-.49,1-.51.42-.02.84-.14,1.24-.34.4-.21.74-.48,1-.81.25-.3.61-.49,1-.51.42-.03.84-.14,1.24-.34,1.58-.81,2.19-2.75,1.22-4.19-.7-1.04-2.09-1.48-3.35-1.07"/>
      <path class="uuid-b1811afb-e05b-4317-8058-d3370fdf2ade" d="M35.63,6.97c-.21.19-.38.42-.49.71-.34.85-.02,1.86.74,2.33.4.25.84.32,1.26.24.55-.1,1.05-.47,1.31-1.04.01-.02.02-.04.03-.06-1.21-.34-2.24-1.04-2.84-2.19"/>
      <path class="uuid-b1811afb-e05b-4317-8058-d3370fdf2ade" d="M39.12,9c.05-.1.08-.21.08-.31.02-.12.02-.23-.01-.35-.02-.07-.1-.13-.18-.14-.7-.14-1.25.67-1.36,1.1-.06.23-.02.54.32.61.16.03.3,0,.42-.07.1-.04.19-.1.27-.16.06-.04.11-.08.15-.12.12-.12.17-.25.24-.39.02-.03.03-.07.05-.1,0,0,0-.02.01-.03,0-.01.01-.03.02-.04"/>
      <path class="uuid-b1811afb-e05b-4317-8058-d3370fdf2ade" d="M53.19,26.44l-.41-1.5h0c-.67-2.44-1.24-4.76-2.39-7.09-.79-1.59-3.7-3.55-5.82-4.74-.3-.17-.85-.44-1.22-.46-.59-.03-1.15.3-1.42.82-.91,1.74.29,2.82.71,3.12l.19.12,5.38,3.37,2.97,5.67.15.28s0,0,0,0l.06.14v.75c0,.21.21.36.41.29l.16-.05.18.31c.14.24.46.29.67.12h.01c.32-.29.46-.72.35-1.13"/>
      <path class="uuid-b1811afb-e05b-4317-8058-d3370fdf2ade" d="M40.75,12.01c0,.73-1.08,1.33-2.42,1.33s-2.42-.59-2.42-1.33,1.08-1.33,2.42-1.33,2.42.59,2.42,1.33"/>
      <path class="uuid-eebc79af-19a0-4f76-8b7a-c80ad33ad31c" d="M5.18,53.35l-.25-.33,22.19-25.67c.14-.16.39-.15.52.02L5.18,53.35Z"/>
      <path class="uuid-0ca396f0-5188-4fc2-b9d1-7c385068cc3d" d="M4.06,56.05c.05.13.1.25.18.36.41.61,1.21.82,1.61,1.47.37.59.42,1.31.93.09.45-1.09-.28-1.96-1.34-1.97-.2-.67-.5-1.3-.99-1.8-.14-.14-.31-.28-.51-.26-.1.01-.19.1-.22.2.18.6.13,1.33.34,1.92M4.08,55.34s0,.03.01.04c-.02,0-.04-.02-.06-.02l.04-.02Z"/>
      <path class="uuid-eebc79af-19a0-4f76-8b7a-c80ad33ad31c" d="M11.18,53.92c.07.44.15.88.22,1.32.02.11.04.23,0,.33-.08.24-.36.32-.6.37-.17.04-.35.07-.52,0-.16-.06-.28-.27-.19-.42.09-.16.34-.15.47-.29.17-.19.01-.47-.12-.68-.14-.22-.26-.47-.28-.73-.02-.26.07-.54.28-.7s.55-.14.71.06c.1.13.12.32.11.49,0,.17-.03.33-.07.49v-.26Z"/>
      <path class="uuid-0ca396f0-5188-4fc2-b9d1-7c385068cc3d" d="M3.34,48.58c-.13-.29-.58-.32-.84-.13-.26.19-.38.52-.46.84-.09.34-.16.68-.2,1.02.7-.3.84-1.32,1.53-1.66l-.02-.06Z"/>
      <path class="uuid-0ca396f0-5188-4fc2-b9d1-7c385068cc3d" d="M.39,51.84c.03.29.23.57.51.76.65.45,1.23.21,1.88-.03.89-.33.77.07.86.94.13,1.19.32,2.21,1.67,2.67.28.1.58.14.88.16.87.04,1.75-.17,2.51-.58.66-.36,1.22-1.31,1.91-1.49.49-.13,1.39.14,1.65.57.52.85-.36.98-.45,1.59-.12.76,1.22.34,1.48.2.07-.03.13-.07.17-.13.07-.11.05-.25.04-.38-.05-.46.04-.92.02-1.37-.03-.52-.45-.8-.52-1.22-.08-.42.07-.82.11-1.23.16-1.66-1.09-2.32-2.59-2.15-.74.09-1.47.32-2.14.65-.74.36-1.75.84-2.34-.13-.2-.33-.2-.76-.43-1.06l-.2.04c-.23-.68-.9-1.19-1.62-1.22-.64-.03-1.31.34-1.63.89-.29.5-.4,1.09-.82,1.49-.12.11-.3.22-.47.34-.07.04-.13.09-.19.13-.23.17-.3.38-.28.6"/>
      <path class="uuid-0ca396f0-5188-4fc2-b9d1-7c385068cc3d" d="M11.47,50.06c.27.03.56.06.8-.08.27-.16.39-.49.44-.79.04-.21.05-.43,0-.64-.06-.21-.2-.4-.4-.47.16-.2.48-.21.7-.07.22.14.34.38.42.63.12.39.14.81.01,1.2-.13.38-.43.72-.82.84-.39.12-.85,0-1.1-.32-.04-.05-.07-.11-.06-.17.01-.09.12-.13.2-.12.09.01.16.07.23.12l-.42-.13Z"/>
      <path class="uuid-ddce88a8-90d9-4152-86c4-c5feafc22744" d="M10.22,53.54s-.02.01-.02.02c0,.01.02.03.03.04,0-.02,0-.04,0-.06"/>
      <path class="uuid-0ca396f0-5188-4fc2-b9d1-7c385068cc3d" d="M8.23,55.22c-.7,1.28-.88,2.78-1.48,4.1-.05.11-.11.23-.2.31-.18.15-.45.13-.69.1-.28-.03-.63-.15-.63-.43,0-.16.14-.29.3-.34.15-.04.32-.02.48,0-.06-1.01.04-2.02.28-3,.08-.3.17-.61.35-.86.18-.25.48-.45.79-.44.43.01.79.46.71.89l.09-.33Z"/>
      <path class="uuid-c68c1a1b-0de4-466a-aa5a-23fdd5a49b80" d="M10.19,53.22c-.03.06-.06.11-.09.17.09-.08.18-.15.27-.23l-.18.05Z"/>
      <path class="uuid-ecc5d7be-37cf-4242-b7ea-3dea27fc42c3" d="M4.21,53.29c.54,0,1.09-.17,1.52-.5.04-.03.08-.06.11-.09.22-.13.43-.29.6-.52.31-.43.35-.99.09-1.38-.07-.1-.19-.15-.31-.12-.12.03-.2.14-.21.26-.04.59-.19,1-.5,1.28-.09.05-.19.1-.31.15-.56.24-.88.35-1.37.14-.15-.06-.32,0-.38.15-.03.08-.03.16,0,.23-.03.15.07.3.22.34.18.04.36.06.54.06"/>
      <path class="uuid-eebc79af-19a0-4f76-8b7a-c80ad33ad31c" d="M5.62,50.56c-.18-.1-.37-.22-.56-.34-.73-.45-1.52-.84-.5-1.42.87-.5,1.14.18,1.89.46.62.23,1.57,0,.89.98-.55.8-1.11.66-1.72.32"/>
      <path class="uuid-ecc5d7be-37cf-4242-b7ea-3dea27fc42c3" d="M.82,51.76c.01-.06.01-.12,0-.18-.07-.22-.27-.32-.49-.28,0,0-.02,0-.03,0-.18.03-.28.22-.29.38,0,.09,0,.2.04.29.09.22.31.36.55.26.2-.08.28-.29.23-.48M.79,51.67s0,0,0,0c0,0,0-.01,0-.02,0,0,0,0,0,.01"/>
    </g>
  </g>
</svg>