<?xml version="1.0" encoding="UTF-8"?>
<svg id="Calque_2" xmlns="http://www.w3.org/2000/svg" viewBox="0 0 25.41 45.84">
  <defs>
    <style>
      .cls-1 {
        fill: #ce5117;
      }

      .cls-2 {
        fill: #fff;
      }

      .cls-3 {
        fill: #f18b6a;
      }

      .cls-4 {
        fill: #302879;
      }

      .cls-5 {
        fill: #356893;
      }

      .cls-6 {
        fill: #56adad;
      }
    </style>
  </defs>
  <g id="_Éléments_Mise_en_page" data-name="Éléments_Mise_en_page">
    <g>
      <path class="cls-5" d="M17.76,43.94c-.32-.84.68-1.21,1.41-.93.9.35,1.34,1.19,1.91,1.85.11.13.23.29.3.45.13.29-.16.6-.49.53-.89-.19-1.73-.57-2.44-1.1-.29-.22-.57-.47-.69-.8"/>
      <path class="cls-5" d="M6.15,40.32s-.01.05-.02.07c.02,0,.03.02.05.02l-.03-.1Z"/>
      <path class="cls-5" d="M4.4,41.91c.27.64.66,1.2,1.14,1.64.23.21.61.37.8.08.09-.14.08-.33.06-.5-.06-.51-.2-1.02-.28-1.53-.01-.1-.03-.19-.04-.29-.03-.31-.02-.62.05-.93-.38-.2-.84-.24-1.26-.12,0,0-.01,0-.02,0-.09.03-.17.06-.25.11-.08.05-.14.1-.2.17-.29.36-.18.93,0,1.35"/>
      <path class="cls-5" d="M23.34,29.19c-.02-1.32-.32-2.62-.67-3.9-.69-2.53-1.94-4.78-2.79-7.17-.58-1.62-.05-2.65-2.5-2.44-1.87.16-3.72.41-5.66.52-7.92.41-1.31,11.89.46,14.99-.85.74-1.96,1.41-2.65,2.29-.71.85-1.35,1.75-1.99,2.65-.3.43-.6.85-.89,1.29-.04.06-.08.12-.12.18-.07.1-.14.21-.21.31h0s0,.07,0,.11c.03.16.05.33.1.49.05.19.11.38.18.57.01.02.02.04.03.07.04.08.09.17.14.25.05.08.1.15.15.23,0,0,.02.02.03.03.04.05.09.09.14.14.06.02.12.04.19.05.14-.01.19,0,.17.02.14,0,.28,0,.41-.01.16-.01.31.01.45.06.05-.04.1-.07.15-.11.04-.03.09-.07.14-.1.89-.64,1.74-1.3,2.59-2.08,1.39-1.28,2.61-2.71,3.92-4.07.45-.48.77-.75.99-1.39.58-1.64.34-3.61.15-5.28-.04-.38-.09-.77-.14-1.16,1.37,1.69,2.78,3.48,2.92,4.15.19.94-.47,3.69-.69,4.59-.41,1.69-.75,3.43-.76,5.16,0,.09,0,.18,0,.28.3.17.54.46.64.78,0,.01.01.03.01.04.79.02,1.57.12,2.36.19.05-.18.11-.37.16-.55.67-2.34,1.32-4.76,1.9-6.98.23-.88.44-1.76.57-2.65.07-.18.1-.39.11-.62.02-.31.03-.62-.01-.92"/>
      <path class="cls-3" d="M17.6,39.9c-.02,1.04-.02,2.73.25,3.57.44.47,1.59.82,1.93.17,0-.01,0-.03.02-.04.33-1.04.66-2.13.97-3.23-.49.31-1.16.42-1.77.33-.5-.07-.96-.57-1.41-.79"/>
      <path class="cls-3" d="M4.55,40.99c.17.51.85.75,1.42.64.05,0,.09-.02.14-.03,0,0,0-.02,0-.02-.02-.15.07-.29.22-.35.29-.12.55-.31.8-.48.47-.32.92-.64,1.36-.96.04-.03.09-.07.14-.1-.72-.1-1.96-.52-1.96-2.28-.04.06-.08.12-.12.18-.19.29-.38.58-.57.87-.23.37-.8,1.09-1.07,1.69-.02.05-.04.09-.06.13-.09.03-.17.06-.25.11-.08.23-.1.44-.05.61"/>
      <path class="cls-3" d="M15.18,7.36l-.95-.02c-.51-.01-.91-.43-.89-.94l.08-2.9,2.79.07-.08,2.9c-.01.51-.43.91-.94.89"/>
      <path class="cls-3" d="M14.9,3.41c-.51.12-1,.3-1.47.51l1.47-.51Z"/>
      <path class="cls-3" d="M13.86,3.75c-.03.08-.06.16-.09.25,0-.02,0-.05,0-.07.02-.06.05-.12.08-.18"/>
      <path class="cls-3" d="M14.86,3.75c.08-.26.14-.51.17-.75.13-.93-.43-1.9-1.24-2.24-.81-.34-1.79-.05-2.36.65-.93,1.12-.32,1.5-.06,2.41.09.31.47,2.33.68,2.44.11.06.24.07.37.08,1.12.06,2.05-1.3,2.44-2.58"/>
      <path class="cls-6" d="M24.92,11.6c.05-.17.09-.35.13-.53.02-.09.03-.18.05-.26,0,0,0,0,0,0,.02-.19.04-.38.04-.58,0-.09,0-.17,0-.26,0-.02-.02-.14-.02-.18,0-.02,0-.04-.01-.05-.2-.19-.42-.35-.64-.51-.74-.86-2.34-1.75-3.07-2.26-1.83-1.3-3.29-1.98-5.57-1.86-1.61.09-3.61.6-5.15,1.18-.77.29-1.52.89-2.09,1.51-.08.09-.15.18-.23.29-.34.36-.65.73-.93,1.06-.18.2-.39.43-.6.67-.01,0-.03,0-.04,0,0,0,.02,0,.03,0-1.04,1.14-2.35,2.63-2.12,4.04.05.51.25,1.01.6,1.38.86.87,1.58,1.56,2.69-.95-.02.96-.67,4.6.05,5.43.59.67,3.71.21,4.55.21,1.95,0,3.95-.27,5.74-1.07.67-.3,1.17-.64,1.56-1.02l.34-7.18s3.6,2.45,4.55,1.5c.05-.18.11-.37.16-.55"/>
      <path class="cls-3" d="M6.54,16.23c.97-.33,1.16-2.98.26-4.08-.82-.99-1.29-2.38-2.04-3.45-.77-1.1-1.62-2.13-2.52-3.13-.24-.27-.62-.56-.94-.39-.03.02-.06.04-.09.06-.23.21-.16.63-.06.95.54,1.67,1.22,3.16,1.92,4.76.61,1.4,1.11,3.23,2.05,4.44.57.75,1.05.95,1.42.83"/>
      <path class="cls-1" d="M15.42,2.17c-.08-.87-.44-1.77-1.35-2.06-.62-.2-1.32-.09-1.9.2-.5.24-.94.62-1.18,1.12-.29.61-.06,1.18-.06,1.79,0,.74-.11,1.53-.17,2.27-.04.51-.11,1.04.07,1.52.18.48.71.88,1.21.72.42-.14.63-.61.72-1.04.13-.64.11-1.3-.05-1.93-.24-.91-.21-2.98,1.2-3.4.74-.22.72.64.83,1.36.07.45-.02.93-.09,1.37-.12.77-.37,1.63-.11,2.41.15.45.56.85,1.04.85.52,0,.94-.49,1.02-1,.08-.51-.11-1.02-.34-1.48-.23-.46-.51-.9-.65-1.39-.12-.41-.13-.85-.17-1.28"/>
      <path class="cls-4" d="M18.83.9c0-.3-.17-.42-.43-.27l-2.94,1.71c-.26.15-.45.51-.45.81v2c0,.3.22.42.47.27l2.92-1.71c.26-.15.43-.51.43-.81V.9Z"/>
      <path class="cls-3" d="M23.48,5.41c-.27-.47-.56-.92-.87-1.37-.67-.99-2.68-3.26-3.95-1.99-.17.17-.26.5-.14.72.19.37.64.12.99.14,3.3.19,1.6,7.62,3.96,8.95,2.66,1.5,1.99-2.33,1.47-3.54-.42-1-.91-1.98-1.46-2.92"/>
      <path class="cls-2" d="M9.43,20.45c.8.11,1.73.22,2.1-.4.34-.56.67-1.12,1.04-1.66.91-1.33,1.77-2.61,2.4-4.07.27-.63.71-1.2,1.05-1.81.4-.7.67-1.44,1.06-2.15.91-1.62,1.66-3.09,1.76-4.92.01-.19.27-.1.26.07-.13,2.33-1.41,4.23-2.38,6.35-.43.94-1.17,1.77-1.56,2.72-.4.97-.91,1.94-1.55,2.82-.37.51-.73,1.03-1.08,1.55-.33.5-.58,1.05-.92,1.53-.05.07-.1.12-.15.17.05.03.09.07.11.09.17.23.19.55.18.81-.01.79-.38,1.53-.37,2.31.02,1.5-.11,2.73-2.15,2.26-.25-.06-.5-.13-.71-.28-.37-.27-.51-.73-.59-1.16-.24-1.21-.25-2.45-.05-3.66.04-.21.1-.45.29-.57.15-.09.35-.09.53-.07.21.01.46.05.72.08"/>
      <path class="cls-3" d="M2.11,5.4c.55.16.56.9.08,1.16-.44.24-1.47-.11-1.8-.39-.38-.33-.7-1.01.12-1.1.57-.06,1.08.18,1.6.33"/>
      <path class="cls-5" d="M15.7,2.99s-.02,0-.03,0c-.01,0-.05.01,0,0-.09.01-.16.07-.14.17.01.09.1.14.18.12.08-.01.16-.08.22-.14.06-.07.08-.19,0-.25-.08-.07-.19-.09-.29-.03-.07.04-.11.12-.13.19-.04.11.07.26.19.25.05,0,.1-.01.14-.04.04-.03.08-.06.1-.11.04-.06.04-.14,0-.21-.03-.06-.11-.11-.17-.1,0,0-.01,0-.02,0-.08,0-.15.04-.18.12-.03.06-.02.17.04.21,0,0,0,0,.01.01-.01-.08-.02-.16-.03-.25-.02.03.03-.02,0,0-.01.01,0,0,.03-.01.03-.02.04-.02.02-.01l.24.24s0-.01,0-.02c0-.03-.03.05,0,.01,0,0,0-.01.01-.02-.02.04-.09.08-.15.07-.03-.09-.07-.17-.11-.26,0,.01-.01.02-.02.03,0,0-.03.04-.02.03s-.01.02-.02.02c-.01.01-.02.02-.03.03.08.02.16.04.25.07,0-.03-.02-.06-.04-.09-.01-.03-.05-.04-.07-.03"/>
    </g>
  </g>
</svg>