<?xml version="1.0" encoding="UTF-8"?>
<svg id="uuid-5e8479c5-09ff-47bf-8221-5998328efcf4" data-name="Calque_2" xmlns="http://www.w3.org/2000/svg" viewBox="0 0 82.55 91.53">
  <defs>
    <style>
      .uuid-d34f434a-6418-4e74-aa48-608d30c7da0b {
        fill: #ec6788;
      }

      .uuid-799b451c-3405-41a7-89f0-b358cd8ebf4c {
        fill: #efb6d4;
      }

      .uuid-4b0331ed-81eb-4aff-a35b-302de7600892 {
        fill: #67c2c9;
      }

      .uuid-65c8d130-d766-4780-af75-87195858f591 {
        fill: #ebeef8;
      }

      .uuid-4af04c56-75eb-452d-9379-54dbbede13ac {
        fill: #88cef2;
      }

      .uuid-0d45fdeb-9a03-4e56-b3c8-497ab4d6793a {
        fill: #702470;
      }

      .uuid-ca60e187-f8ad-40d3-a436-c88241e6e0a4 {
        fill: #235aa3;
      }
    </style>
  </defs>
  <g id="uuid-05de80d9-5355-48dc-a17c-14ab216ff6ea" data-name="Les_personnages">
    <g id="uuid-47779ad3-a5d8-4c77-8eec-170c3a96fb87" data-name="Chara_x5F_CoupleFou_x5F_BD">
      <path class="uuid-d34f434a-6418-4e74-aa48-608d30c7da0b" d="M32.78,8.54l-.53,1.14-4.24,9.1c-.64,1.32-1.57,2.48-2.72,3.39l-1.35,1.07-2.46-3.44.03-.05.64-1,.78-1.22-.22,1.07,5.91-8.22,1.42-2.5.42-.74c.15.08.3.16.44.24.64.36,1.27.75,1.88,1.15"/>
      <path class="uuid-799b451c-3405-41a7-89f0-b358cd8ebf4c" d="M36.01,1.68l-.86,1.76-2.38,5.1-.53,1.14-.2-.45c-.36-.81-1.15-1.32-2.01-1.35l.42-.74L34.4.21c.31-.25.76-.28,1.14-.04.13.08.24.18.33.3.26.35.33.83.14,1.22"/>
      <path class="uuid-d34f434a-6418-4e74-aa48-608d30c7da0b" d="M30.73,57.92c.68.49,1.18.96,1.61,1.69.37.62.33,1.24-.56,1.08-.69-.13-1.26-.54-1.8-.98-.44-.35-.95-.63-.99-1.2-.04-.55.07-.64.6-.77.79-.2.99-.14,1.13.18"/>
      <path class="uuid-65c8d130-d766-4780-af75-87195858f591" d="M3.95,40.35c.03.1.11.2.23.26.15.08.34.08.49,0l1.51-.93.16-.1.12-.07.03-.02.04.04h0s.13.13.13.13l6.74,6.36.74.7s0,0,0,0c0,0,.02.02.05.05,0,0,0,0,.01,0,.05.05.14.12.25.23.13.11.29.25.47.42.04.03.08.07.11.1.06.06.12.11.19.17,0,0,0,0,0,0,0,0,0,0,0,0h0c.34.29.78.35,1.16.21.14.05.29.08.46.07,2.26-.13,3.43-7.13,3.93-11.32l1.03-.44.21.45-.02-.26,4.28,9.47,2.49,12.28c.06.08.13.16.2.22.25.23.59.36.95.36.03,0,.06,0,.09,0,.45-.03.78-.26.97-.61.13-.23.2-.51.2-.82l.17-10.78c.02-1.4-.19-2.79-.62-4.12l-4.36-13.45-.92.92h-.38s-8.61.14-8.61.14c-.49.8-.88,1.65-1.16,2.54-.28.89-.46,1.81-.52,2.74l-.07,1.04-.32,5.78-.29-.18-6.52-4.08-.06-.04h0s-.06-.04-.06-.04l-.08-.05-.06-.04-.69-.43c-.41-.26-.96-.13-1.21.29l-1.46,2.45c-.06.1-.07.22-.04.32"/>
      <path class="uuid-d34f434a-6418-4e74-aa48-608d30c7da0b" d="M3.95,40.35c.03.1.11.2.23.26.15.08.34.08.49,0l1.51-.93.16-.1c.27-.62.63-1.28,1.06-1.83l-.06-.04-.69-.43c-.41-.26-.96-.13-1.21.29l-1.46,2.45c-.06.1-.07.22-.04.32"/>
      <polygon class="uuid-4b0331ed-81eb-4aff-a35b-302de7600892" points="16.09 31.36 16.09 31.23 15.98 31.19 16.09 31.36"/>
      <path class="uuid-d34f434a-6418-4e74-aa48-608d30c7da0b" d="M26.99,23.02c-.1-1.01-.09-2.46-1.06-3.56-1.05-1.2-2.14-3.56-4.11-2.76-1.22.5-2.39,1.16-3.57,1.73-1.51.73-3.28.77-3.16,2.85.07,1.16.59,2.15.8,3.27.15.79.09,1.65.1,2.45.01.69.52,3.54.08,4.06l-.11.13s.04.01.11.04l2.14.72c.67.22,1.36.32,2.06.28.02,0,.04,0,.05,0,2.64.47,6.63-1.37,6.63-1.37v-4.66c0-1.24.12-2.24.02-3.2"/>
      <path class="uuid-d34f434a-6418-4e74-aa48-608d30c7da0b" d="M21.97,19.28l-3.77,3.98-.62-.44-1.82-1.28-8.12-5.92-.92-.67h0c.8-.63,1.23-1.47,1.33-2.4l1.46.91h0s9.33,4.12,9.33,4.12l2.03,1.1,1.05.57.06.03Z"/>
      <path class="uuid-799b451c-3405-41a7-89f0-b358cd8ebf4c" d="M9.51,13.47c0,.83-.51,1.57-1.28,1.9l-.6.25-.92-.67-4.64-3.38-1.6-1.13c-.36-.25-.53-.7-.46-1.14.02-.14.07-.29.14-.42.27-.48.83-.66,1.3-.42l6.59,4.09,1.46.91h0Z"/>
      <path class="uuid-0d45fdeb-9a03-4e56-b3c8-497ab4d6793a" d="M18.62,11.76c-.47-.94,0-1.7-.08-2.87-.17-2.45-2.98-1.46-4.64-2.1-1.11-.43-1.59-2.22-.85-3.38.28-.44.72-.8,1.18-1.08,1.23-.75,2.7-.96,3.96-.7,1.26.26,2.31.97,3.06,1.9.68.84,1.14,1.91.99,3.07-.18,1.37-1.39,2.76-1.28,4.15.04.55,1.67,2.53.33,2.71-1.1.16-1.99-.66-2.5-1.39-.07-.11-.13-.21-.19-.31"/>
      <path class="uuid-0d45fdeb-9a03-4e56-b3c8-497ab4d6793a" d="M24.79,14.22c.37,1.61-.48,2.6-2.01,2.96-.61.14-1.41.3-1.95.06-.81-.37-1.36-.77-1.59-1.74-.37-1.61.57-3.2,2.1-3.55.06-.01.12-.02.18-.03,1.47-.24,2.91.76,3.26,2.31"/>
      <path class="uuid-799b451c-3405-41a7-89f0-b358cd8ebf4c" d="M23.41,13.92c-.65,1.17-1.91,1.78-3.13,1.78-.07,0-.14,0-.21-.01.17.87.68,1.54,1.32,1.87.42.22.91.28,1.39.15,1.07-.29,1.78-1.43,1.74-2.69-.44-.24-.81-.63-1.11-1.1"/>
      <path class="uuid-0d45fdeb-9a03-4e56-b3c8-497ab4d6793a" d="M20.36,16.83c.15,0,.31,0,.46.03.13.01.25.03.37.06-.21-.31-.45-.63-.43-.87.09-1.29.85-2.21,1.86-2.75.1-.09.21-.17.31-.25l.39-.61s0-.01,0-.01c0,0-.16.23-.14.15-.03,0,.18-.39.16-.38-.26.04-.56.05-.86.06-.1.08-.22.14-.38.18-.1.02-.2.03-.29.02l-1.43.51c-.68.61-.94,1.64-.72,2.59.03.12.33.75.7,1.27"/>
      <path class="uuid-799b451c-3405-41a7-89f0-b358cd8ebf4c" d="M21.23,15.16c.41.31.56.8.34,1.09-.22.29-.73.27-1.14-.04s-.56-.8-.34-1.09c.22-.29.73-.27,1.14.04"/>
      <path class="uuid-799b451c-3405-41a7-89f0-b358cd8ebf4c" d="M21.04,19.75h0c-.72-.21-1.13-.97-.91-1.68l.64-2.16,2.6.77-.64,2.16c-.21.72-.97,1.13-1.68.91"/>
      <path class="uuid-d34f434a-6418-4e74-aa48-608d30c7da0b" d="M50.63,44.31c.3.08.49.07.61.12l.16-.02,1.13,2.66c.56-.27,1.14-.44,1.69-.44.06,0,.12,0,.17,0,.12-.05.25-.11.37-.17.22-.13.43-.27.65-.4.09-.06.18-.11.26-.16-.42-1.44-.99-3.21-1.1-3.7-.06-.28-.18-.57-.32-.83-.31-.56-.75-.73-1.31-1.02-.42-.22-.81-.52-1.26-.63-.25-.06-.5-.09-.72-.07-.24.03-.45.13-.62.34-.44.54-.76,1.33-.92,2-.24,1,.16,2.03,1.22,2.32"/>
      <path class="uuid-799b451c-3405-41a7-89f0-b358cd8ebf4c" d="M49.18,38.76c.1-.51.37-.96.84-1.12.12-.04.24-.07.38-.07.83-.02.77.57,1.18,1.06.57.68,1.62.52,2.31,1.01.98.71,1.5,3.47.23,4.12-.76.39-2.35,0-2.62-.89.11-.05.29-.09.38-.17.18-.17.23-.42.1-.64-.37-.62-1-.04-1.42-.21-.45-.18-.82-.99-1.01-1.41-.24-.52-.5-1.09-.38-1.68"/>
      <path class="uuid-ca60e187-f8ad-40d3-a436-c88241e6e0a4" d="M73.33,34.3l.74-.83c-.94-.4-1.85-.91-2.7-1.45l-.74.65-12.54,11.05-2.51.96-3.2,1.23-3.79,1.45-14.95-.9-.3-.02c-.02.07-.04.13-.06.2,0,.02-.01.05-.02.07-.15.95-.2,1.92-.27,2.88l.83.14,13.75,2.59,5.55,10.66h.04s1.33,3.06,1.33,3.06c4.37,1.38,10.98-4.65,10.98-4.65l-.41-1.78-2.13-13.52,10.42-11.77Z"/>
      <path class="uuid-0d45fdeb-9a03-4e56-b3c8-497ab4d6793a" d="M54.88,89.17s.02.09.04.14c.12.4.97.86,1.31,1.11.81.58,2.3,1.61,3.3.83.4-.32.59-1.43.31-1.86-.29-.44-2.01-.48-2.59-.58-.54-.09-2.57-.73-2.37.37"/>
      <path class="uuid-4af04c56-75eb-452d-9379-54dbbede13ac" d="M82.55,60.41c0,.15-.07.3-.2.41-.14.11-.32.15-.49.11l-1.62-.36-.42-.09-7,10.49s0,.01-.01.02c-.64.91-1.97,1.12-2.91.49l-8.02-5.38-1.88.76v22.71s0,0,0,0c-.44.46-1.17.58-1.77.32-.33-.14-.65-.32-.94-.5l-3.97-25.43-.12.02c1.88.74,4.01.66,5.81-.24l6.15-3.06,5.36,5.5,7.38-7.64.18-.19c.42-.46,1.16-.51,1.64-.1l2.65,1.79c.12.11.19.25.19.39"/>
      <path class="uuid-0d45fdeb-9a03-4e56-b3c8-497ab4d6793a" d="M82.55,60.41c0,.15-.07.3-.2.41-.14.11-.32.15-.49.11l-1.62-.36c-1.29-.55-1.99-1.3-2.35-2.05l.18-.19c.42-.46,1.16-.51,1.64-.1l2.65,1.79c.12.11.19.25.19.39"/>
      <path class="uuid-d34f434a-6418-4e74-aa48-608d30c7da0b" d="M75.56,31.28c0,.31-.11.63-.33.88l-1.9,2.14c-.62-.96-1.58-1.42-2.7-1.63l2.7-2.38c.53-.46,1.32-.45,1.83.04.27.26.4.6.4.94"/>
      <path class="uuid-d34f434a-6418-4e74-aa48-608d30c7da0b" d="M33.79,49.62l-5.25-.91c-.64-.12-1.09-.67-1.09-1.31,0-.74.61-1.34,1.35-1.34.02,0,.05,0,.08,0l4.76.28c-.14,1.07-.08,2.2.15,3.28"/>
    </g>
  </g>
</svg>