<?xml version="1.0" encoding="UTF-8"?>
<svg xmlns="http://www.w3.org/2000/svg" xmlns:xlink="http://www.w3.org/1999/xlink" viewBox="0 0 22.26 33.99">
  <defs>
    <style>
      .cls-1 {
        clip-path: url(#clippath-6);
      }

      .cls-2 {
        clip-path: url(#clippath-7);
      }

      .cls-3 {
        fill: #12100b;
      }

      .cls-4 {
        clip-path: url(#clippath-4);
      }

      .cls-5 {
        fill: #bcb9b9;
      }

      .cls-6 {
        fill: none;
      }

      .cls-7 {
        fill: #301d1a;
      }

      .cls-8 {
        fill: #f29574;
      }

      .cls-9 {
        fill: #4c9f34;
      }

      .cls-10 {
        clip-path: url(#clippath-1);
      }

      .cls-11 {
        fill: #3d6389;
      }

      .cls-12 {
        opacity: .15;
      }

      .cls-13 {
        isolation: isolate;
      }

      .cls-14 {
        clip-path: url(#clippath-5);
      }

      .cls-15 {
        fill: #f9be7f;
      }

      .cls-16 {
        clip-path: url(#clippath-3);
      }

      .cls-17 {
        fill: #cecbcb;
      }

      .cls-18 {
        fill: #d4a958;
      }

      .cls-19 {
        clip-path: url(#clippath-2);
      }

      .cls-20 {
        fill: #532d29;
      }

      .cls-21 {
        fill: #f7b699;
      }

      .cls-22 {
        fill: #4580c1;
      }

      .cls-23 {
        mix-blend-mode: multiply;
        opacity: .3;
      }

      .cls-24 {
        fill: #e2e1e1;
      }

      .cls-25 {
        clip-path: url(#clippath);
      }

      .cls-26 {
        fill: #6198d1;
      }

      .cls-27 {
        fill: #26231e;
      }

      .cls-28 {
        fill: #91bf20;
      }
    </style>
    <clipPath id="clippath">
      <rect class="cls-6" x="11.71" y="13.02" width="6.88" height="11.66"/>
    </clipPath>
    <clipPath id="clippath-1">
      <rect class="cls-6" x="11.71" y="13.02" width="6.88" height="11.66"/>
    </clipPath>
    <clipPath id="clippath-2">
      <rect class="cls-6" x="8.68" y="12.05" width="5.89" height="14.85"/>
    </clipPath>
    <clipPath id="clippath-3">
      <rect class="cls-6" x="8.68" y="12.05" width="5.89" height="14.85"/>
    </clipPath>
    <clipPath id="clippath-4">
      <rect class="cls-6" x="8.86" y="7.79" width="2.59" height="5.9"/>
    </clipPath>
    <clipPath id="clippath-5">
      <rect class="cls-6" x="8.86" y="7.79" width="2.59" height="5.9"/>
    </clipPath>
    <clipPath id="clippath-6">
      <rect class="cls-6" x="13.17" y="4.65" width="2.34" height="3.13"/>
    </clipPath>
    <clipPath id="clippath-7">
      <rect class="cls-6" x="13.17" y="4.65" width="2.34" height="3.13"/>
    </clipPath>
  </defs>
  <g class="cls-13">
    <g id="Calque_2">
      <g id="_Éléments_Mise_en_page" data-name="Éléments_Mise_en_page">
        <g>
          <polygon class="cls-5" points="20.82 24.47 14.29 28.23 13.08 27.54 19.61 23.77 20.82 24.47"/>
          <path class="cls-24" d="M14.09,4.4l1.41-1.67c.93-1.46,2.59.22,1.91,2.1l-1.03,2.39-2.3-2.82Z"/>
          <path class="cls-3" d="M10.12,8.77c-.17.13-.33.28-.47.46-.52.64-.81,1.57-.82,2.69,0,.75.1,1.58.35,2.47.02.06.04.13.06.19.04.14.08.27.13.41.49,1.45,1.28,2.82,2.21,3.94.09.11.19.22.28.33.72.8,1.51,1.46,2.31,1.9.6.33,1.2.55,1.79.63.34.05.65.04.95,0,.22-.04.42-.09.61-.18,1.62-.69,2.27-3,1.46-5.91-1.04-3.72-4.08-7.04-6.78-7.4-.83-.11-1.53.07-2.08.48M11.92,19.15l.28-.57c-.1-.11-.19-.22-.29-.33l-.28.58c-1-1.13-1.73-2.49-2.14-3.83l.65.08c-.05-.14-.09-.27-.14-.41l-.63-.08c-.34-1.33-.34-2.59.08-3.54l.31.34c.02-.11.05-.21.08-.31l-.26-.29c.27-.5.66-.83,1.12-1.01.31-.24.66-.39,1.06-.44.09-.01.18-.02.28-.02.13,0,.26,0,.4.02,1.08.12,2.32.82,3.46,2.07.06.07.13.14.19.21,0,0,.01.01.02.02.85.99,1.51,2.15,1.92,3.31,0,0,0,0,0,.01.59,1.63.68,3.27.17,4.41-.02.03-.03.07-.05.1-.07.15-.16.28-.24.4-.05.08-.11.15-.17.21-.22.24-.48.42-.77.53-.45.36-1.01.5-1.64.45l-.12-.42c-.1-.03-.21-.06-.31-.1l.13.48c-.97-.17-2.07-.8-3.1-1.87"/>
          <polygon class="cls-24" points="11.67 9.07 11.97 9.11 12.01 9.23 12.03 9.32 12.13 9.67 13.28 13.79 13.54 14.72 13.58 14.88 13.66 15.16 13.69 15.28 13.74 15.45 13.78 15.57 13.86 15.86 13.9 16 14.16 16.93 15.19 20.64 15.31 21.05 15.43 21.48 15.47 21.63 15.17 21.59 15.13 21.45 15.01 21.02 14.88 20.54 13.86 16.89 13.6 15.96 13.56 15.82 13.48 15.54 13.45 15.42 13.4 15.25 13.37 15.12 13.29 14.84 13.24 14.68 12.98 13.75 11.83 9.63 11.75 9.34 11.71 9.19 11.67 9.07"/>
          <polygon class="cls-24" points="15.41 11.19 15.7 11.51 15.65 11.6 15.52 11.87 14.21 14.51 13.92 15.09 13.87 15.19 13.78 15.38 13.74 15.45 13.69 15.56 13.65 15.64 13.56 15.82 13.51 15.91 13.22 16.51 12.2 18.58 11.92 19.15 11.86 19.25 11.78 19.42 11.74 19.51 11.45 19.19 11.49 19.1 11.58 18.92 11.63 18.83 11.91 18.26 12.93 16.19 13.22 15.6 13.27 15.51 13.36 15.32 13.4 15.25 13.45 15.14 13.49 15.06 13.58 14.88 13.63 14.77 13.92 14.19 15.23 11.55 15.36 11.28 15.41 11.19"/>
          <polygon class="cls-24" points="8.96 14.54 9.06 14.55 9.24 14.58 9.37 14.59 10 14.68 12.37 14.99 13.05 15.08 13.16 15.1 13.37 15.12 13.45 15.14 13.57 15.15 13.66 15.16 13.87 15.19 13.98 15.21 14.65 15.3 17.64 15.69 17.96 15.74 18.06 15.75 18.18 16.16 18.07 16.15 17.76 16.1 14.76 15.7 14.09 15.62 13.99 15.6 13.78 15.57 13.69 15.56 13.57 15.55 13.48 15.53 13.27 15.51 13.17 15.49 12.48 15.4 10.13 15.09 9.48 15 9.37 14.99 9.17 14.96 9.08 14.95 8.96 14.54"/>
          <polygon class="cls-24" points="9.18 10.36 9.27 10.46 9.57 10.79 9.84 11.08 12.51 13.99 13.17 14.71 13.29 14.84 13.49 15.06 13.57 15.15 13.69 15.28 13.78 15.38 13.99 15.6 14.09 15.71 14.74 16.42 17.68 19.63 17.89 19.86 17.98 19.95 18.09 20.08 17.96 20.34 17.85 20.22 17.72 20.07 17.55 19.89 14.61 16.68 13.96 15.97 13.86 15.86 13.65 15.64 13.57 15.55 13.45 15.42 13.36 15.32 13.16 15.1 13.05 14.98 12.38 14.25 9.76 11.39 9.44 11.05 9.14 10.72 9.05 10.62 9.18 10.36"/>
          <path class="cls-24" d="M9.65,9.23c-.32.24-.58.57-.79.99-1.15,2.33.02,6.52,2.61,9.35,1.87,2.04,3.98,2.82,5.44,2.22.56-.24,1.03-.67,1.35-1.32.69-1.4.54-3.47-.24-5.51,0,0,0-.01,0-.02-.45-1.15-1.1-2.3-1.92-3.31,0,0-.01-.01-.02-.02-.14-.17-.28-.33-.42-.49-2.13-2.32-4.56-3.01-6-1.89M15.23,11.55s.09.1.14.15c.05.06.1.11.15.17.99,1.13,1.72,2.5,2.13,3.82.04.14.08.27.11.41.33,1.32.33,2.58-.08,3.52-.02.04-.04.09-.06.13-.02.04-.04.09-.07.13-.16.29-.37.53-.6.72-.45.36-1.01.5-1.64.45-.1,0-.2-.02-.3-.04-.97-.17-2.07-.8-3.1-1.87-.05-.06-.1-.11-.16-.17-.04-.05-.09-.1-.13-.15-1-1.13-1.73-2.49-2.14-3.83-.04-.14-.08-.27-.12-.41-.34-1.33-.34-2.6.08-3.54.02-.05.04-.09.06-.13.02-.04.04-.09.07-.13.28-.5.66-.83,1.12-1.01.34-.14.73-.19,1.14-.15.09,0,.2.02.3.04.98.18,2.08.82,3.1,1.89"/>
          <path class="cls-3" d="M8.66,14.69c1.04,3.73,4.08,7.04,6.78,7.4.83.11,1.53-.07,2.08-.48,1.23-.93,1.66-3.03.94-5.61-1.04-3.72-4.08-7.04-6.79-7.4-.59-.08-1.11-.01-1.55.18-1.62.69-2.27,2.99-1.46,5.92M11.71,9.19s.09,0,.14.01c.05,0,.11.02.16.03.14.02.28.06.42.1,1,.3,2.02.99,2.93,1.95.1.1.2.21.29.32,1,1.14,1.84,2.6,2.3,4.14.02.06.04.13.06.19.02.07.04.15.06.22.31,1.23.33,2.33.11,3.21-.05.21-.12.41-.21.6-.04.09-.08.18-.13.26-.48.88-1.32,1.36-2.42,1.27-.05,0-.1,0-.16-.01-.05,0-.09-.01-.14-.02-.32-.05-.64-.15-.95-.29-.82-.35-1.65-.96-2.4-1.74-.1-.1-.19-.21-.29-.32-1.01-1.14-1.85-2.6-2.32-4.14-.02-.07-.04-.14-.06-.21-.02-.07-.04-.13-.05-.2-.25-.98-.32-1.87-.23-2.64.05-.44.16-.84.31-1.19.04-.09.08-.18.13-.26.49-.88,1.33-1.37,2.44-1.27"/>
          <path class="cls-24" d="M10.69,9.78c-.27.21-.49.49-.67.84-.07.15-.14.3-.19.46l-.26-.29c.27-.5.66-.83,1.12-1.01"/>
          <path class="cls-24" d="M9.44,11.05l.31.34c-.21.95-.12,2.11.24,3.29l-.63-.08c-.34-1.33-.34-2.6.08-3.54"/>
          <path class="cls-24" d="M9.48,15l.65.09c.39,1.1.99,2.21,1.78,3.17l-.28.58c-1-1.13-1.73-2.49-2.14-3.83"/>
          <path class="cls-24" d="M15.19,20.64c.64.18,1.24.17,1.76-.03-.45.36-1.01.5-1.64.45l-.12-.42Z"/>
          <path class="cls-24" d="M12.2,18.58s.05.07.08.1c.85.92,1.75,1.55,2.6,1.86l.13.48c-.98-.17-2.07-.8-3.1-1.87l.28-.57Z"/>
          <path class="cls-24" d="M13.06,16.35c-.62-.68-.9-1.68-.62-2.23.28-.56,1-.46,1.62.22.62.68.9,1.68.62,2.23-.28.56-1,.46-1.62-.22"/>
          <path class="cls-3" d="M13.35,15.78c-.6-.77-.24-1.51.44-.89.6.78.24,1.51-.44.89"/>
          <path class="cls-3" d="M.67,4.21c0-.21-.15-.3-.34-.19-.18.11-.33.37-.33.58s.15.3.33.19c.18-.11.34-.37.34-.58"/>
          <rect class="cls-3" x="1.1" y="3.69" width=".95" height="2.86" transform="translate(-3.64 3.92) rotate(-59.99)"/>
          <path class="cls-3" d="M3.15,5.64c0-.21-.15-.3-.33-.19-.18.11-.33.37-.33.58s.15.3.33.19c.18-.11.33-.37.33-.58"/>
          <path class="cls-3" d="M.67,4.21c0-.21-.15-.3-.34-.19-.18.11-.33.37-.33.58s.15.3.33.19c.18-.11.34-.37.34-.58"/>
          <rect class="cls-3" x="1.1" y="3.69" width=".95" height="2.86" transform="translate(-3.64 3.92) rotate(-59.99)"/>
          <path class="cls-3" d="M3.15,5.64c0-.21-.15-.3-.33-.19-.18.11-.33.37-.33.58s.15.3.33.19c.18-.11.33-.37.33-.58"/>
          <path class="cls-3" d="M7.48.24c0-.21-.15-.3-.33-.19-.18.11-.33.37-.33.58s.15.3.33.19c.18-.11.33-.37.33-.58"/>
          <rect class="cls-3" x="7.91" y="-.28" width=".95" height="2.86" transform="translate(3.2 7.83) rotate(-59.99)"/>
          <path class="cls-3" d="M9.95,1.67c0-.21-.15-.3-.33-.19-.18.11-.33.37-.33.58s.15.3.33.19c.18-.11.33-.37.33-.58"/>
          <path class="cls-3" d="M7.48.24c0-.21-.15-.3-.33-.19-.18.11-.33.37-.33.58s.15.3.33.19c.18-.11.33-.37.33-.58"/>
          <rect class="cls-3" x="7.91" y="-.28" width=".95" height="2.86" transform="translate(3.2 7.83) rotate(-59.99)"/>
          <path class="cls-3" d="M9.95,1.67c0-.21-.15-.3-.33-.19-.18.11-.33.37-.33.58s.15.3.33.19c.18-.11.33-.37.33-.58"/>
          <path class="cls-3" d="M19.23,20.99c-.14.12-.25.28-.31.49-.05.16-.08.34-.08.54,0,.41.11.85.29,1.27.31.7.83,1.35,1.42,1.69.24.14.46.21.67.23.15.01.29,0,.42-.05.08-.03.16-.08.23-.13.24-.2.39-.55.39-1.03,0-.54-.19-1.15-.5-1.68-.08-.13-.16-.26-.25-.39-.27-.37-.6-.68-.96-.89-.53-.31-1.01-.3-1.32-.04"/>
          <path class="cls-24" d="M18.54,22.29c0-1.04.73-1.46,1.63-.94.9.52,1.63,1.78,1.63,2.82s-.73,1.46-1.63.94c-.9-.52-1.63-1.78-1.63-2.82"/>
          <path class="cls-3" d="M20.17,24.65c-.68-.39-1.23-1.35-1.23-2.13s.55-1.1,1.23-.71c.68.39,1.23,1.35,1.23,2.13s-.55,1.1-1.23.71M20.17,25.21c.94.55,1.71.1,1.71-.99s-.77-2.42-1.71-2.96c-.94-.55-1.71-.1-1.71.99s.77,2.42,1.71,2.96"/>
          <path class="cls-3" d="M19.78,23.45c-.43-.9.21-1.26.77-.44.43.9-.21,1.26-.77.44"/>
          <path class="cls-24" d="M20.08,23.28c.06.03.12,0,.12-.07v-5.93s-7.32-4.3-7.32-4.3v3.57l.42.31v-3.08l6.48,3.74v5.24c0,.21.11.41.3.51"/>
          <path class="cls-24" d="M12.96,13.46l.14.08v-.49l-.14-.08c-.32-.19-.59-.62-.63-1.01l-.79-8.15c.04-.73-.49-1.48-1.11-1.79l-.56-.33c-.28-.2-.47.19-.28.32l.85.49c.36.21.66.69.7,1.12l.79,8.14c.06.65.51,1.37,1.05,1.68"/>
          <path class="cls-24" d="M6.11,17.47l.14.08v-.49l-.14-.08c-.32-.19-.59-.62-.63-1.01l-.79-8.15c.03-.73-.49-1.48-1.11-1.79l-.56-.33c-.28-.2-.47.19-.28.32l.85.49c.36.21.66.69.7,1.12l.79,8.14c.06.65.51,1.37,1.05,1.68"/>
          <polygon class="cls-24" points="12.94 28.46 13.36 28.7 13.36 21.23 6.04 16.93 6.68 20.18 7.1 20.49 6.46 17.73 12.94 21.47 12.94 28.46"/>
          <path class="cls-3" d="M19.71,16.02l-5.84-3.44c-.28-.16-.52-.55-.55-.89l-.6-6.76c-.05-.56-.47-1.18-.93-1.38l-.28-.12-6.84,3.95.78,8.5c.05.51.4,1.07.82,1.31l7.78,4.49,5.94-3.51c1.13-.53.32-1.8-.28-2.15"/>
          <path class="cls-3" d="M17.8,24.17v.55c.34.32.67.61.94.59.46,1.03,1.12,1.58,1.92,1.73.87.03,1.21-.32,1.21-.83-.07-.78-1.24-1.37-1.44-2.22l-2.63.18Z"/>
          <path class="cls-11" d="M18.92,24.92c-.27-.06-.5-.14-.69-.25-.46-.25-.73-.65-.82-1.2-.31-2.72-.36-3.86.03-5.4-1.84-1.7-5.07-1.63-5.69-4.04-.01-.06-.02-.12-.03-.18-.04-.32,0-.54.07-.83.06-.22.14-.48.24-.86l2.46-.09.62-.02c1.19.48,1.84.91,4.52,3.59.14.14.28.28.42.42.41.52.3.93.28,1.28,0,0-.08,2.5,0,3.89.07,1.39.19,2.7.19,2.7.1.84-.72,1.01-1.61.99"/>
          <g class="cls-23">
            <g class="cls-25">
              <g class="cls-10">
                <path class="cls-11" d="M18.23,24.67c-.46-.25-.73-.65-.82-1.2-.31-2.72-.36-3.86.03-5.4-1.84-1.7-5.07-1.63-5.69-4.04-.01-.06-.02-.12-.03-.18-.04-.32,0-.54.07-.83.21.33.77.85,1.5,1.4.16.12,1.09.02,1.49-.67-.06.78-.08,1.32.22,1.51,1.3.83,2.44,1.69,3.58,1.89-1.04,1.84-.94,4.71-.36,7.52"/>
              </g>
            </g>
          </g>
          <path class="cls-3" d="M13.86,26.2v.63c.14.28.47.64.75.77.52,1,1.23,1.52,2.12,1.61.79.07,1.28-.2,1.34-.69-.08-1.08-1.51-1.43-1.68-2.31h-2.53Z"/>
          <path class="cls-11" d="M15.26,27.22c-.19-.04-.37-.1-.54-.18-.09-.04-.17-.09-.26-.14-.44-.28-.77-.7-.85-1.21-.31-2.72-.46-4.81-.07-6.36-1.83-1.7-4.21-2.28-4.82-4.69-.1-.52-.02-1.17.14-1.89.05-.23.11-.46.17-.7l.56.02,3.11.12h.07s.48.41.48.41l-.07,1.25,1.29,1.51,1.72,2.26c.19.3.28.64.26.99,0,0-.07,2.5,0,3.89.07,1.39.36,3.54.36,3.54.1.84-.65,1.2-1.54,1.18"/>
          <g class="cls-23">
            <g class="cls-19">
              <g class="cls-16">
                <path class="cls-11" d="M14.57,26.9h-.11c-.44-.28-.77-.7-.85-1.21-.31-2.72-.46-4.81-.07-6.36-1.84-1.7-4.21-2.28-4.82-4.69-.1-.52-.02-1.17.14-1.89.05-.23.11-.46.17-.7l.56.02c-.25,1.12-.09,2.16.57,3.1.85,1.52,2.64,2.71,4.27,3.76-.31,2.47-.42,5.13.14,7.97"/>
              </g>
            </g>
          </g>
          <path class="cls-24" d="M16.82,6.11c0,3.09-1.63,4.94-1.7,5.93-1.63,1.26-4.16,2.5-5.53,1.64-.31-.2-.57-.5-.73-.94-.02-2.59.36-4,.8-4.96.36-.78.77-1.26,1.02-1.81,1.07-.76,2.27-1.1,3.39-1.52,1.45-.31,1.09-.41,1.93-.31.53.47.82,1.14.81,1.96"/>
          <g class="cls-12">
            <g class="cls-4">
              <g class="cls-14">
                <path class="cls-27" d="M9.6,13.69c-.31-.2-.57-.5-.73-.94-.02-2.59.36-4,.8-4.96h1.78c-1.36,1.66-1.98,3.63-1.85,5.9"/>
              </g>
            </g>
          </g>
          <path class="cls-15" d="M12.42,5.73l.82-1.69,2.27,1.13-.48,1.27c-.41,1.54-2.85.59-2.6-.71"/>
          <g class="cls-23">
            <g class="cls-1">
              <g class="cls-2">
                <path class="cls-18" d="M15.5,5.89c-.1.6-.24,1.72-1.05,1.9-.7,0-1.5-1.74-1.24-2.38v-.76s2.29,1.23,2.29,1.23Z"/>
              </g>
            </g>
          </g>
          <path class="cls-15" d="M14.31,1.42c-1.11.01-1.74.55-1.78,1.74.03,1.25.45,2.27,1.42,2.95.47.4.99.55,1.55.47.67.03.79-1.65.89-2.85-.07-1.27-.84-1.98-2.08-2.31"/>
          <path class="cls-3" d="M16.39,3.25c-.25.61-1.34,1.05-2.44.76l-.12.99-.48-.25-.44.49-.16-.24c-.82-1.68-.58-2.92.68-3.59,1.65-.65,3.3.93,2.96,1.83"/>
          <path class="cls-15" d="M13.2,5.19c-.11-.09-.21-.2-.27-.32-.06-.13-.07-.28,0-.41.07-.12.22-.2.36-.15.09.03.16.12.19.21s.04.19.05.29c0,.09.01.18.02.27,0,.06,0,.13-.04.17-.04.04-.1.05-.16.03-.05-.02-.1-.05-.14-.09"/>
          <path class="cls-3" d="M12.44,24.88c-.14.12-.25.28-.31.49-.05.16-.08.34-.08.54,0,.41.11.85.29,1.27.31.7.83,1.35,1.42,1.69.24.14.46.21.67.23.15.01.29,0,.42-.05.08-.03.16-.08.23-.13.24-.2.39-.55.39-1.03,0-.54-.19-1.15-.5-1.68-.08-.13-.16-.26-.25-.39-.27-.37-.6-.68-.96-.89-.53-.31-1.01-.3-1.32-.04"/>
          <path class="cls-24" d="M11.75,26.18c0-1.04.73-1.46,1.63-.94.9.52,1.63,1.78,1.63,2.82s-.73,1.46-1.63.94c-.9-.52-1.63-1.78-1.63-2.82"/>
          <path class="cls-3" d="M13.38,28.54c-.68-.39-1.23-1.35-1.23-2.13s.55-1.1,1.23-.71c.68.39,1.23,1.35,1.23,2.13s-.55,1.1-1.23.71M13.38,29.09c.94.55,1.71.1,1.71-.99s-.77-2.42-1.71-2.96c-.94-.55-1.71-.1-1.71.99s.77,2.42,1.71,2.96"/>
          <path class="cls-3" d="M12.99,27.34c-.43-.9.21-1.26.77-.44.43.9-.21,1.26-.77.44"/>
          <path class="cls-3" d="M3.33,12.66c-.17.13-.33.28-.47.46-.52.64-.81,1.57-.82,2.69,0,.75.1,1.58.35,2.47.02.06.04.13.06.19.04.14.08.27.13.41.49,1.45,1.28,2.82,2.21,3.94.09.11.19.22.28.33.72.8,1.51,1.46,2.31,1.9.6.33,1.2.55,1.79.63.34.05.65.04.95,0,.22-.04.42-.09.61-.18,1.62-.69,2.27-3,1.46-5.91-1.04-3.72-4.08-7.04-6.79-7.4-.83-.11-1.53.07-2.08.48M5.13,23.04l.28-.57c-.1-.11-.19-.22-.29-.33l-.28.58c-1-1.13-1.73-2.49-2.14-3.83l.65.08c-.05-.14-.09-.27-.13-.41l-.63-.08c-.34-1.33-.34-2.6.08-3.54l.31.34c.02-.11.05-.21.08-.31l-.26-.29c.27-.5.66-.83,1.12-1.01.31-.24.66-.39,1.06-.44.09-.01.18-.02.28-.02.13,0,.26,0,.4.02,1.08.12,2.32.82,3.46,2.07.06.07.13.14.19.21,0,0,.01.01.02.02.85.99,1.51,2.15,1.92,3.31,0,0,0,0,0,.01.59,1.63.68,3.27.17,4.41-.02.03-.03.07-.05.1-.07.15-.16.28-.24.4-.05.08-.11.15-.17.21-.22.24-.48.42-.77.53-.45.36-1.01.5-1.64.45l-.12-.42c-.1-.03-.21-.06-.31-.1l.13.48c-.97-.17-2.07-.8-3.1-1.87"/>
          <polygon class="cls-24" points="4.89 12.95 5.18 12.99 5.22 13.12 5.24 13.2 5.34 13.55 6.49 17.68 6.75 18.6 6.79 18.76 6.88 19.05 6.91 19.17 6.96 19.34 6.99 19.46 7.07 19.75 7.11 19.89 7.37 20.81 8.4 24.52 8.52 24.94 8.64 25.37 8.68 25.52 8.39 25.48 8.35 25.33 8.23 24.9 8.09 24.42 7.07 20.77 6.81 19.85 6.78 19.71 6.69 19.42 6.66 19.3 6.61 19.13 6.58 19.01 6.5 18.72 6.45 18.56 6.19 17.64 5.04 13.51 4.96 13.22 4.92 13.08 4.89 12.95"/>
          <polygon class="cls-24" points="8.62 15.08 8.91 15.39 8.87 15.49 8.73 15.76 7.42 18.4 7.14 18.98 7.09 19.08 6.99 19.27 6.96 19.34 6.9 19.45 6.86 19.53 6.77 19.71 6.73 19.8 6.43 20.4 5.41 22.47 5.13 23.04 5.08 23.14 4.99 23.31 4.95 23.4 4.66 23.08 4.71 22.99 4.79 22.81 4.84 22.72 5.12 22.14 6.14 20.08 6.44 19.49 6.48 19.39 6.57 19.21 6.61 19.13 6.67 19.02 6.7 18.95 6.79 18.76 6.85 18.66 7.14 18.07 8.44 15.44 8.58 15.17 8.62 15.08"/>
          <polygon class="cls-24" points="2.18 18.43 2.27 18.44 2.45 18.46 2.58 18.48 3.21 18.56 5.58 18.88 6.26 18.97 6.37 18.99 6.58 19.01 6.67 19.02 6.79 19.04 6.88 19.05 7.09 19.08 7.2 19.09 7.86 19.18 10.86 19.58 11.17 19.62 11.28 19.64 11.39 20.05 11.29 20.03 10.97 19.99 7.97 19.59 7.31 19.5 7.2 19.49 6.99 19.46 6.9 19.45 6.78 19.43 6.69 19.42 6.48 19.39 6.38 19.38 5.7 19.29 3.35 18.97 2.7 18.89 2.58 18.88 2.39 18.85 2.29 18.84 2.18 18.43"/>
          <polygon class="cls-24" points="2.4 14.25 2.49 14.34 2.79 14.68 3.05 14.97 5.72 17.88 6.38 18.6 6.5 18.72 6.71 18.95 6.79 19.04 6.91 19.17 6.99 19.27 7.2 19.49 7.3 19.6 7.95 20.31 10.89 23.51 11.1 23.75 11.19 23.84 11.3 23.96 11.17 24.22 11.06 24.1 10.93 23.96 10.76 23.77 7.82 20.57 7.17 19.86 7.07 19.75 6.86 19.53 6.78 19.43 6.66 19.3 6.57 19.21 6.37 18.98 6.26 18.87 5.59 18.14 2.97 15.28 2.66 14.94 2.35 14.61 2.26 14.51 2.4 14.25"/>
          <path class="cls-24" d="M2.86,13.11c-.32.24-.58.57-.79.99-1.15,2.33.02,6.52,2.61,9.35,1.87,2.04,3.98,2.82,5.44,2.22.56-.24,1.03-.67,1.35-1.32.69-1.4.54-3.47-.24-5.51,0,0,0,0,0-.01-.45-1.15-1.1-2.3-1.92-3.31,0,0-.01-.01-.02-.02-.14-.17-.28-.33-.42-.49-2.13-2.32-4.56-3.01-6-1.89M8.44,15.44s.09.1.14.15c.05.06.1.11.15.17.99,1.13,1.72,2.5,2.13,3.82.04.14.08.27.11.41.33,1.32.33,2.58-.08,3.52-.02.04-.04.09-.06.13-.02.04-.04.09-.07.13-.16.29-.37.53-.6.72-.45.36-1.01.5-1.64.45-.1,0-.2-.02-.3-.04-.97-.17-2.07-.8-3.1-1.87-.05-.06-.1-.11-.16-.17-.04-.05-.09-.1-.13-.15-1-1.13-1.73-2.49-2.14-3.83-.04-.14-.08-.27-.12-.41-.34-1.33-.34-2.6.08-3.54.02-.05.04-.09.06-.13.02-.05.04-.09.07-.13.28-.5.66-.83,1.12-1.01.34-.14.73-.19,1.14-.15.09,0,.2.02.3.04.98.18,2.08.82,3.1,1.89"/>
          <path class="cls-3" d="M1.87,18.57c1.04,3.73,4.08,7.04,6.78,7.4.83.11,1.53-.07,2.08-.48,1.23-.93,1.66-3.03.94-5.61-1.04-3.72-4.08-7.04-6.79-7.4-.59-.08-1.11-.01-1.55.18-1.62.69-2.27,2.99-1.46,5.92M4.92,13.08s.09,0,.14.01c.05,0,.11.02.16.03.14.02.28.06.42.1,1,.3,2.02.99,2.93,1.95.1.1.2.21.29.32,1,1.14,1.84,2.6,2.3,4.14.02.06.04.13.06.19.02.07.04.15.06.22.31,1.23.33,2.33.11,3.21-.05.21-.12.41-.21.6-.04.09-.08.18-.13.26-.48.88-1.32,1.36-2.42,1.27-.05,0-.1,0-.16-.01-.05,0-.09-.01-.14-.02-.32-.05-.64-.15-.95-.29-.82-.35-1.65-.96-2.4-1.74-.1-.1-.19-.21-.29-.32-1.01-1.14-1.85-2.6-2.32-4.14-.02-.07-.04-.14-.06-.21-.02-.07-.04-.13-.05-.2-.25-.98-.32-1.87-.23-2.64.05-.44.16-.84.31-1.19.04-.09.09-.18.13-.26.49-.88,1.33-1.37,2.44-1.27"/>
          <path class="cls-5" d="M3.9,13.66c-.27.21-.49.49-.67.84-.07.15-.14.3-.19.46l-.26-.29c.27-.5.66-.83,1.12-1.01"/>
          <path class="cls-5" d="M2.66,14.94l.31.34c-.21.95-.11,2.11.24,3.29l-.63-.08c-.34-1.33-.34-2.6.08-3.54"/>
          <path class="cls-5" d="M2.7,18.89l.65.09c.39,1.1.99,2.21,1.78,3.17l-.28.58c-1-1.13-1.73-2.49-2.14-3.83"/>
          <path class="cls-5" d="M8.4,24.52c.64.18,1.24.17,1.76-.03-.45.36-1.01.5-1.64.45l-.12-.42Z"/>
          <path class="cls-5" d="M5.41,22.47s.05.07.08.1c.85.92,1.75,1.55,2.6,1.86l.13.48c-.98-.17-2.07-.8-3.1-1.87l.28-.57Z"/>
          <path class="cls-24" d="M6.27,20.23c-.62-.68-.9-1.68-.62-2.23.28-.56,1-.46,1.62.22.62.68.9,1.68.62,2.23-.28.56-1,.46-1.62-.22"/>
          <path class="cls-3" d="M6.56,19.67c-.6-.77-.24-1.51.44-.89.6.78.24,1.51-.44.89"/>
          <path class="cls-15" d="M5.67,11.88c-.25.27-.34.63-.41.98l.06.74c.01.13.08.26.19.33.38.26.75.48,1.16.54l.43-.16-.34-.21v-.74c.2-.24.41-.39.67-.41l.23.15c.02-.22-.06-.46-.19-.57l-.34-.39-.26-.62-1.11-.16-.11.52Z"/>
          <path class="cls-24" d="M11.23,5.64c-1.83.03-3.75.49-5.14,1.28-.24.14-.4.38-.43.66-.17,1.55-.18,2.97-.05,4.3,0,.77,1.3.71,1.54.27l.52-3.16c.85.32,2.59-.24,4.25-.72l-.68-2.63Z"/>
          <path class="cls-9" d="M5.17,14.5s-.45.35-.63,1.31c-.18.96-.59,3.99.5,4.44,1.09.46,3.23-.91,3.23-.91l-3.1-4.85Z"/>
          <path class="cls-28" d="M5.01,15.15c-.13-.08-.17-.24-.08-.36.11-.16.3-.39.62-.64.61-.48,1.53-.86,1.96-.53.43.33.06,1.19-.89,1.66-.67.33-1.3.06-1.61-.13"/>
          <path class="cls-8" d="M11.52,17.41c-.4-.06-.61-.04-1.09-.38-.48-.35-1.71-1.83-1.71-1.83,0,0-.31-.63-.16-.91.15-.28.27-.31.45-.19.18.11,2.48,2.57,2.58,2.71.1.14-.07.61-.07.61"/>
          <path class="cls-26" d="M8.39,13.62s.33-.12.64.16c.31.28,1.56,1.83,1.56,1.83,0,0-.2.7-.95.75,0,0-.81-.78-1.09-1.18-.28-.41-.55-1.33-.17-1.56"/>
          <path class="cls-20" d="M5.65,25.55s-.25.05-.47.67c-.22.62-.77,1.24-.77,1.24,0,0-.23.69.05.93.28.24.59-.25.77-.49.18-.24,1.06-1.31,1.35-1.65.29-.34-.07-.75-.41-.76-.34,0-.52.06-.52.06"/>
          <path class="cls-20" d="M4.41,27.46s-.17.09-.49.41c-.32.33-.33.4-.22.58.11.19.76.62.91.88.15.25.66.86.92.95.26.1.66-.06.42-.78-.25-.72-.46-.55-.67-1.68,0,0-.22.33-.62.13-.31-.16-.24-.5-.24-.5"/>
          <path class="cls-9" d="M9.57,20.99s-.42,1.61-1.11,2.6c-.68.99-2.97,4.22-2.97,4.22,0,0-.4.18-.76-.11-.27-.21-.35-.49-.35-.49l1.89-2.8s-.16-1.71-.33-2.21c-.16-.5.82-1.77,2.09-1.68,1.26.09,1.54.47,1.54.47"/>
          <path class="cls-20" d="M7.68,28.97s0,.6.09,1.02c.09.42.2,1.25.2,2.08,0,0-.02.54.32.67.34.13.63-.04.65-.52.02-.48.2-3.48.2-3.48,0,0-.18-.76-.73-.75-.56,0-.7.63-.73.97"/>
          <path class="cls-20" d="M8.94,32.23s.3.43.9.81c.6.39.72.69.54.85-.18.16-.9.13-1.38-.12-.48-.26-1.06-.44-1.14-.82-.08-.38.12-.87.12-.87,0,0,.1.39.46.4.38.01.5-.25.5-.25"/>
          <path class="cls-28" d="M5.13,21.45s-.27.35.08,1.52c.24.81,2.37,4.81,2.37,4.81l.26,4.23c.05.07.23.24.71.21.45-.02.66-.21.66-.21,0,0,.11-3.91.07-4.25-.03-.33-1.17-4.72-1.17-4.72,0,0,1.32-1.25,1.46-2.05.14-.8-2.52-1.63-3.36-.9s-1.07,1.36-1.07,1.36"/>
          <path class="cls-22" d="M5.33,17.12l.1,2.05-.52,2.36s.11.53,1.03.66c.91.13,2.24.03,2.89-.32.74-.4.91-1.24.91-1.24l-.17-1.12s-.11-2.12-.1-3.07c.02-.95-.1-2.42-.84-2.68-.74-.27-2.75,1.1-3.17,1.62-.42.52-.13,1.74-.13,1.74"/>
          <path class="cls-21" d="M9.58,15.35c-.3-.05-.32.13-.12.22.2.09.46.27.46.27l.31-.22c-.08-.07-.35-.21-.65-.27"/>
          <path class="cls-7" d="M7.46,13.97s.26-.2.46-.24c.2-.04,1.59.65,1.86,2.17.15.84-.12,1.48-.12,1.48l-.14.94s-.32-.67-.27-1.18c.06-.63.16-.68.03-1.24-.15-.63-1.25-1.96-1.82-1.93"/>
          <path class="cls-8" d="M6.4,14.61l.41-1.25s1.36.5,1.52.86c0,0-.05.32-.17.64-.09.27-.03,1.01-1.76-.25"/>
          <path class="cls-21" d="M6.46,13.61s.74.72,1.15,1c.41.28.86.47,1.06.23.2-.24.5-.91.65-1.39.15-.48.21-.99-.16-1.73-.37-.74-1.4-1.44-2.06-1.23-.66.22-1.06.69-1.11,1.45-.04.74.02,1.07.46,1.68"/>
          <path class="cls-20" d="M6.47,14.39s.13-.54-.21-.94c-.56-.66-.57-1.41-.46-1.81.11-.4.2-.94.73-1.15.53-.2.88-.3,1.23-.17s.49.13.77.33c.28.2.31.18.51.44.2.26.62.6.63.93.01.32-.4.81-1.04,1.01-.64.2-1.17.44-1.17.44,0,0-.46.18-.73.52-.28.34-.26.39-.26.39"/>
          <path class="cls-21" d="M6.99,14.1c.11-.09.17-.43-.06-.8-.21-.33-.49-.05-.36.33s.31.56.41.46"/>
          <path class="cls-21" d="M11.83,16.84c-.16-.22-.99-.74-1.09-.83-.1-.08-.43-.32-.51-.39l-.31.23c-.13.1-.6.07-.9.03-.3-.04-.34.11-.21.17.13.06.78.12.78.12,0,0-.49-.02-.69-.03-.2-.01-.24.11-.13.16.11.05.88.11.88.11,0,0-.51,0-.68-.02-.17,0-.21.09-.1.15.11.06.87.11.87.11,0,0-.48,0-.68-.01-.21-.02-.24.12-.12.17.12.05.48.09.98.13.5.04.81-.22.81-.22,0,0,.16.26.55.6.4.34.71-.21.53-.47"/>
          <path class="cls-21" d="M7.99,16.92c-.08-.05-.51.03-.72.22l.35.27s.09-.17.25-.22c.16-.05.2-.22.12-.27"/>
          <path class="cls-7" d="M5.93,14.94s.2-.24.4-.28c0,0,.44.27.85.73.3.33,1.14,1.38.81,2.32-.18.53-2.09,1.38-2.57,1.47l-.05-.43s1.74-.26,2.19-1.04c.3-.52-.36-1.56-.71-1.99-.33-.4-.93-.78-.93-.78"/>
          <path class="cls-17" d="M4.16,17.18s.2.71,1.31.83c0,0,.32-.8,0-1.15-.33-.36-.9-.12-1.3.33"/>
          <path class="cls-21" d="M8.68,17.28c-.11,0-.35.12-.57.18-.23.07-.48-.05-.48-.05l-.35-.27c-.21.18-.58.57-.58.57l-1.48.46s.29-.4.79-1.21c.5-.81.46-1.1.29-1.43s-.6-.27-.74-.08c-.14.19-1.34,2.13-1.34,2.13,0,0-.4.82-.53,1.1s.11.63.55.57,2.55-.88,2.55-.88c0,0,.18.12.4.17.22.05,1.12-.08,1.35-.25.23-.17.04-.24.04-.24.24-.13.06-.23.06-.23.27-.11.1-.3.1-.3.12-.08.07-.23-.04-.23"/>
          <path class="cls-26" d="M4.16,17.18s1.14-1.68,1.4-1.88c.26-.2.73-.1.91.35.23.57-.79,2-1,2.36,0,0-.26-.92-1.31-.83"/>
        </g>
      </g>
    </g>
  </g>
</svg>