<?xml version="1.0" encoding="UTF-8"?>
<svg id="Calque_2" xmlns="http://www.w3.org/2000/svg" viewBox="0 0 16.33 46.32">
  <defs>
    <style>
      .cls-1 {
        fill: #e4e3e3;
      }

      .cls-2 {
        fill: #db3236;
      }

      .cls-3 {
        fill: #474340;
      }

      .cls-4 {
        fill: #89504f;
      }

      .cls-5 {
        fill: #ecb0a6;
      }

      .cls-6 {
        fill: #f7b900;
      }

      .cls-7 {
        fill: #eeb492;
      }
    </style>
  </defs>
  <g id="_Éléments_Mise_en_page" data-name="Éléments_Mise_en_page">
    <g>
      <path class="cls-1" d="M2.93,40.74l-1.47-1s-1.03.54-1.36.88c-.33.33.26,3.31.5,3.83.54,1.18,1.76,1.61,2.29,1.29.38-.23.12-.55-.17-1.5l.21-3.5Z"/>
      <path class="cls-2" d="M.06,41.9c.17-.13.34-.26.49-.41.47-.48.74-1.03.79-1.68-.28.15-.98.55-1.24.81-.13.13-.11.66-.04,1.28"/>
      <path class="cls-2" d="M1.11,44.5c-.18.08-.35.06-.49-.02.55,1.15,1.75,1.58,2.27,1.26.36-.22.14-.52-.13-1.37-.57-.07-1.17-.08-1.65.14"/>
      <path class="cls-3" d="M2.88,45.46c-.68-.11-1.19-.16-1.62-.66-.9-1.05-.87-2.31-.96-4.35-.08.06-.15.12-.21.17-.33.33.26,3.31.5,3.83.54,1.18,1.76,1.61,2.29,1.29.13-.08.18-.16.18-.28-.06,0-.12,0-.19,0"/>
      <path class="cls-2" d="M1.85,42.31v.25c.35.11.97,0,.97,0l.02-.25c-.28.11-.98,0-.98,0"/>
      <path class="cls-2" d="M1.85,42.79v.18c.54.1.94,0,.94,0v-.18c-.56.09-.94,0-.94,0"/>
      <path class="cls-2" d="M1.85,43.24v.24c.56.14.91,0,.91,0l.02-.24c-.55.12-.93,0-.93,0"/>
      <path class="cls-7" d="M15.09,21.28l-.69.41c-.24.27-.29.9-.21,1.26l.1.47.17.75-.08.76s0,.49.38.35l.15-.61v.49s-.26.65.29.66l.08-.16c.11.23.38.15.38.15,0,0,.27-.63.31-1.51.16.13.35.07.35.07l-.19-1.6-1.05-1.47Z"/>
      <path class="cls-7" d="M12.71,7.86c-.55-.82-3.15-1.19-3.15-1.19.05.07,1.76,9.52,1.76,9.52l2.88,6.31s1.19-.03,1.32-.57l-1.59-6.14s-.13-6.32-1.22-7.93"/>
      <path class="cls-6" d="M9.56,6.67c.04.06,1.36,6.16,1.68,7.95.11-.05,2.14-.33,2.91-.51-.05-1.47-.52-4.89-1.44-6.24-.55-.82-3.15-1.19-3.15-1.19"/>
      <path class="cls-1" d="M15.41,45.05c-.61-.47-2.33-1.81-2.59-2.9l-1.71.09s-.42,1.42-.18,2.37c0,0,.23.28,1.15.47.89.18,1.52.86,2.15,1.12.63.26,1.63.02,1.78-.12,0,0,.19-.12.16-.35,0,0-.14-.21-.75-.68"/>
      <path class="cls-2" d="M15.46,45.09c-.7.12-1.53.38-1.61.9,0,0,0,.01,0,.02.13.08.25.15.38.2.63.26,1.63.02,1.78-.12,0,0,.19-.12.16-.35,0,0-.14-.2-.7-.64"/>
      <path class="cls-2" d="M10.92,44.62s.21.25,1,.43c-.21-.83-.51-1.62-.92-2.39-.11.49-.24,1.32-.08,1.96"/>
      <path class="cls-3" d="M14.05,45.77c-.56-.24-1.01-.65-1.55-.92-.54-.26-1.11-.3-1.6-.65-.02-.01-.03-.03-.04-.04,0,.16.03.31.06.45,0,0,.23.28,1.14.47.9.18,1.52.86,2.15,1.12.63.26,1.63.02,1.78-.12,0,0,.19-.12.16-.35,0,0-.01-.02-.04-.05-.61.47-1.36.4-2.06.09"/>
      <path class="cls-2" d="M12.8,44l.14.1s.38-.38.86-.45l-.12-.13s-.46-.05-.87.48"/>
      <path class="cls-2" d="M13.08,44.29l.14.1s.38-.39.86-.46l-.12-.12s-.46-.05-.87.48"/>
      <path class="cls-2" d="M13.4,44.58l.14.1s.38-.39.86-.46l-.12-.12s-.46-.05-.87.48"/>
      <path class="cls-2" d="M11.71,18.58l-1.23,2.17-5.95-1.61s.11.95-.31,3.26c-.12.67-.09,2.62-.09,2.62l-.25,8.01c-.47.55-.86,1.48-1.41,2.71-1.15,2.59-1.6,4.16-1.6,4.16,0,0,.14.75.79,1.02.76.31,1.23.29,1.23.29,0,0,1.86-4.07,3.93-6.64.2-.25.35-.8.38-1.23.39-2.54,1.62-7.03,1.7-7.78l1.91,6.44c-.08.7-.23,3.43-.22,4.64.01,1.42.17,5.75.17,5.75,0,0,.44.28,1.07.32.85.05,1.28-.26,1.28-.26,0,0,.01-1.41.69-8.59.07-.71.21-1.78.28-2.51.07-.28.09-.57.06-.84-.26-2.05-1.07-5-2.45-11.93"/>
      <path class="cls-6" d="M11.49,6.92c-2.32-.65-3.07-1.09-4.46-.64-1.75.57-3.44,1.71-3.44,1.71l.8,3.42.38,5.05-.53,4.48c2.89,2.52,7.99.19,7.99.19,0,0-.06-3.75-.11-5.16-.02-.59.18-2.14.18-2.14.64-2.19.6-3.28.65-4.78.04-1.25-.6-1.88-1.45-2.12"/>
      <path class="cls-7" d="M1.71,22.87l-.57,2.37.22.86.58.5s.3.55.34.62c.12.22.45.1.43-.14l-.03-.26.02-.79s.28-.83.28-.83h0s.02-.1.02-.1l-.09.72c-.06.63.39.63.39.63l.27-2.09-.38-1.61-1.48.1Z"/>
      <path class="cls-7" d="M7.03,6.28c-.03.81.59,1.49,1.4,1.52.81.03,1.49-.6,1.52-1.4l.1-2.39-2.71-.11-.31,2.38Z"/>
      <path class="cls-5" d="M7.28,4.4c.03.13.04.27.03.42-.07,1.09.97,2.67,2.21,1.95.32-.19.46-.56.47-1.11,0,0,0,0,0,0l.07-1.65-2.71-.11-.07.5Z"/>
      <path class="cls-7" d="M6.97,4.22c-.05,1.22,1.22,1.91,1.93,2.04.86.15,1.83-.47,1.88-1.71l.13-3.14-4.27.58.33,2.23Z"/>
      <path class="cls-4" d="M6.68.79c-.58.53-.33,2.06-.21,2.64.27,1.33.69,1.86.69,1.86l.21-2.08.23.42.36-.24s-.12-.89-.11-1.04c.05-.5,3.03-.45,3.03-.45,0,0,.43-.47.35-.88,0,0-2.43-2.14-4.55-.23"/>
      <path class="cls-7" d="M6.77,3.31c-.09.53.12,1.12.56.94l.04-1.04s-.48-.62-.6.1"/>
      <path class="cls-7" d="M4.68,7.66c-1.77-.24-2.15,2.69-2.15,2.69l-1.02,6.28.18,6.33s.19.39,1.53-.18l.66-5.66,1.67-6.06s.17-3.27-.87-3.42"/>
      <path class="cls-6" d="M4.68,7.66c-1.77-.24-2.15,2.69-2.15,2.69l-1.02,3.05s1.93,1.21,2.76,1.25c.09,0,.18.02.26.05l1.02-3.63s.17-3.27-.87-3.42"/>
      <path class="cls-4" d="M9.85,5.29c-.14-.01-.41-.12-.6-.22-.2-.1-.44-.14-.88-.58-.2-.2-.37-.56-.43-1.27l-.35.17s-.08,1.61.61,2.33c.3.32.83.88,1.56.72.39-.09.87-.5,1-1.64.03-.3.03-1.05.03-1.05,0,0-.16.96-.51,1.32-.1.1-.24.24-.44.22"/>
      <path class="cls-4" d="M8.54,5.01s1.19-.04,1.31-.16.25-.31.18-.37c-.65-.62-1.49.53-1.49.53"/>
      <path class="cls-4" d="M9.85,4.49c-.06.07-.03.25.1.36.13.11.96.04.96.04,0,0-.47-1.04-1.05-.4"/>
    </g>
  </g>
</svg>