<?xml version="1.0" encoding="UTF-8"?>
<svg id="Calque_2" xmlns="http://www.w3.org/2000/svg" viewBox="0 0 29.1 59.11">
  <defs>
    <style>
      .cls-1 {
        fill: #f9cdbe;
      }

      .cls-2 {
        fill: #e4292a;
      }

      .cls-3 {
        fill: #e8dfdf;
      }

      .cls-4 {
        fill: #c9c6c6;
      }

      .cls-5 {
        fill: #5254a0;
      }

      .cls-6 {
        fill: #e8464a;
      }

      .cls-7 {
        fill: #7c3913;
      }

      .cls-8 {
        fill: #4e2722;
      }

      .cls-9 {
        fill: #8a8dc4;
      }

      .cls-10 {
        fill: #757fbc;
      }

      .cls-11 {
        fill: #6e2f11;
      }

      .cls-12 {
        fill: #b8b5b5;
      }

      .cls-13 {
        fill: #6868ad;
      }
    </style>
  </defs>
  <g id="_Éléments_Mise_en_page" data-name="Éléments_Mise_en_page">
    <g>
      <path class="cls-3" d="M11.62,51.98s-.42-.03-.56.6c-.12.53-.08.61-.07.96,0,.25.69.75,1.72,1,.82.2,2.24.17,3.15-.5.94-.7,1.85-1.66,2.04-2.01.36-.09,1.13-.28,1.34-.44.15-.11.25-.35.3-.61.05-.27-.01-.42-.13-.46-.27-.1-.4.35-.98.56-.58.21-1.41.61-2.22,1.49-.81.88-1.92,1.17-2.51,1.17-.59,0-2.15-.63-2.15-.63,0,0-.32-.6.08-1.12"/>
      <path class="cls-8" d="M16.34,45.11s.02.22.02.59c0,.74-.14,1.95-.35,2.59-.31.95-.64,1.81-1.53,1.95-.9.15-2.16.48-2.93,1.64-.78,1.15-.07,1.89,1.22,2.16,1.3.27,2.3.06,3.24-.81.57-.52,1.74-1.6,1.74-1.6,0,0,1.55-.39,1.64-.8.17-.74-.27-1.59-.1-2.73.18-1.14.32-2.24.32-2.24,0,0-.21-.27-1.15-.31-.22,0-.57.04-.91.22-.01-.24-.76-1.08-1.22-.65"/>
      <path class="cls-3" d="M14.21,50.3s.48.22.81.52c.43.4.51.61.73.68.11.04.37-.04,0-.48s-.84-.88-1.06-.83c-.22.06-.48.1-.48.1"/>
      <path class="cls-3" d="M15.09,49.99s.63.34.89.6c.31.31.43.45.6.31.17-.14,0-.33-.35-.62-.36-.29-.88-.54-.88-.54l-.25.26Z"/>
      <path class="cls-3" d="M15.58,49.38s.43.16.75.35c.24.14.78.45.89.39.12-.06.23-.18-.12-.38-.31-.18-.7-.39-.88-.48-.18-.1-.5-.22-.5-.22l-.15.34Z"/>
      <path class="cls-3" d="M15.91,48.6s.1-.31.1-.31c0,0,.42.13.89.29.57.19.85.27.82.44-.03.17-.21.17-.39.11-.21-.07-.44-.17-.79-.29-.27-.09-.63-.25-.63-.25"/>
      <path class="cls-3" d="M16.12,47.88l.08-.37s.59.16.99.27c.4.11.7.14.67.38-.04.24-.45.12-.82.02-.33-.09-.92-.29-.92-.29"/>
      <path class="cls-3" d="M16.25,47.08l.05-.35s.62.15,1.02.26c.4.11.71.11.67.35-.04.24-.43.09-.8-.01-.33-.09-.93-.24-.93-.24"/>
      <path class="cls-3" d="M16.34,46.29l.02-.35s.68.15,1.09.26c.4.11.7.14.67.38s-.45.12-.82.02c-.33-.1-.95-.3-.95-.3"/>
      <path class="cls-3" d="M19.26,56.44s-.42-.03-.56.6c-.12.53-.08.61-.07.96,0,.25.68.75,1.72,1,.82.2,2.24.17,3.15-.5.95-.7,1.85-1.66,2.04-2.01.36-.09,1.13-.28,1.34-.44.15-.11.25-.35.3-.61.05-.27-.01-.42-.13-.46-.27-.1-.4.35-.98.56-.58.21-1.41.61-2.22,1.49-.81.88-1.92,1.17-2.51,1.17-.59,0-2.15-.63-2.15-.63,0,0-.32-.6.08-1.12"/>
      <path class="cls-8" d="M23.98,49.57s.02.22.02.59c0,.74-.14,1.95-.35,2.59-.31.95-.64,1.81-1.53,1.95-.9.15-2.16.48-2.93,1.64-.78,1.15-.07,1.89,1.22,2.16,1.3.27,2.3.06,3.24-.81.57-.52,1.74-1.6,1.74-1.6,0,0,1.55-.39,1.64-.8.17-.74-.27-1.59-.1-2.73.18-1.14.32-2.24.32-2.24,0,0-.21-.27-1.15-.31-.22,0-.57.04-.91.22-.01-.24-.76-1.08-1.22-.65"/>
      <path class="cls-3" d="M21.86,54.75s.48.22.81.52c.43.4.51.61.73.68.11.04.37-.04,0-.48-.37-.44-.84-.88-1.06-.83-.22.06-.48.1-.48.1"/>
      <path class="cls-3" d="M22.73,54.44s.63.34.89.6c.31.31.43.45.6.31.17-.14,0-.33-.35-.62-.36-.29-.88-.54-.88-.54l-.25.26Z"/>
      <path class="cls-3" d="M23.22,53.84s.43.16.75.35c.24.14.78.45.89.39.12-.06.23-.18-.12-.38-.31-.18-.7-.39-.88-.48-.18-.09-.49-.22-.49-.22l-.15.34Z"/>
      <path class="cls-3" d="M23.55,53.06s.1-.31.1-.31c0,0,.42.13.89.29.57.19.85.27.82.44-.03.17-.21.17-.39.11-.21-.07-.44-.17-.79-.29-.27-.09-.63-.25-.63-.25"/>
      <path class="cls-3" d="M23.77,52.34l.08-.37s.59.16.99.27c.4.11.7.14.67.38-.04.24-.45.12-.82.02-.32-.09-.92-.29-.92-.29"/>
      <path class="cls-3" d="M23.89,51.54l.05-.35s.62.15,1.02.26c.4.11.71.11.67.35-.04.24-.43.09-.8-.01-.33-.1-.93-.25-.93-.25"/>
      <path class="cls-3" d="M23.98,50.75l.02-.35s.68.15,1.09.26c.4.11.7.14.67.38s-.45.12-.82.02c-.33-.1-.95-.3-.95-.3"/>
      <path class="cls-5" d="M13.54,9.38s0,0,0,0c.16-.79.7-.57,1.12-.2.79-.74,3.08-.67,4.22-.85,2.04-1.91,4.05-.85,4.05-.85,0,0-1.82,4.08-4.53,5.81-1.15.73-2.91.71-4.25.56-.18.03-.39.04-.6.05v-4.52Z"/>
      <path class="cls-11" d="M19.64,48.88c-.86,1.23-3.31.87-4.31-.18-.24-4.6-.43-8.07-.74-10.65-.56-4.72,1.12-11.27,2.73-15.77.02-.06,3.14,1.22,4.31,1.98.72.48.89.96.89,1.83,0,2.66-2.18,8.71-3.23,11.16,1.12,3.55.56,9.04.35,11.63"/>
      <path class="cls-7" d="M19.4,23.91c.04-.07.13-.13.21-.12,2.16.21,4.32.29,6.49.22.24,0,.3.27.18.42.04,0,.07,0,.1.04,1.15,1.76,1.31,4.39.97,6.25.69,2.61-.48,6.81-.83,9.25.61,1.93,1.07,3.87,1.16,6.42.04,1.14.13,5.9.11,7.05-.59,1.43-3.66.83-4.6-.23-.48-2.18-1.11-9.1-1.68-11.6-.51-2.25-.98-7.84-1.41-10.71-1.39-1.42-1.61-5.32-.7-6.99"/>
      <path class="cls-11" d="M23.61,26.27s.48,1.04,1.58,2.24c1.1,1.19,2.27,1.42,2.27,1.42v-.89s-.62-.36-1.39-.94c-.77-.58-1.84-2.07-1.84-2.07l-.61.25Z"/>
      <path class="cls-5" d="M24.84,9.39s2.82,2.14,3.36,2.8c1.04,1.25.84,2.52.66,4.02-.18,1.5-.84,2.69-1.49,4.43-.49,1.3.37,2.71.42,3.72.04.83-.7,1.67-.7,1.67,0,0-.72.47-2.34.68-1.22.16-3.27.07-4.43-.26-2.71-.77-3.24-1.84-3.68-2.93-.2-.48-.7-.95.3-1.59-.3-.43-.28-.76-.23-1.2.19-1.71.8-3.9.77-5.4-.08-3.95,2.63-6.9,4.28-6.94,1.66-.04,3.1.99,3.1.99"/>
      <path class="cls-9" d="M19.37,9.27c-.55.44-.55.8-.31,1.41.17.43-.21.83.31,1.61.17.26.93,1.18.93,1.18,0,0,2.63.17,3.88-.69,1.25-.85,2.77-1.73,2.77-1.73l1.03.9s.71-1.38.43-2.31c-.28-.93-.56-1.99-1.73-2.33-1.17-.33-1.73-.18-2.87,0s-3.9,1.51-4.45,1.95"/>
      <path class="cls-10" d="M20.8,12.04s-.88-.66-.65-1.74c.23-1.08.74-1.94,1.4-2.2.66-.25,1.24.55,1.24.55l-1.99,3.38Z"/>
      <path class="cls-1" d="M24.91,6.13s-3.25,1-3.34,1.33c0,.02-.02.04-.02.06.04.64-.04,1.28-.31,1.89-.32.72-.55,1.32-.49,2.11.01.17.03.35.06.52.17-.11.34-.21.52-.3.76-.39,1.33-.67,1.88-1.35.51-.64,1.15-1.18,1.88-1.49-.49-1.41-.17-2.78-.17-2.78"/>
      <path class="cls-1" d="M19.37,4.88c.04-.9.23-2.03.92-2.67.68-.64,1.86-.7,2.75-.64,1.38.1,2.35,1.62,2.1,3.38-.22,1.63-1.31,4.14-3.12,4.48-.92.17-1.64-.52-2.06-1.41-.5-1.05-.62-2.39-.59-3.14"/>
      <path class="cls-8" d="M24.33,1.76c.95.02,1.82.71,1.43,3.05-.15.92-.47,1.9-.93,2.96-.06.15-1.23-1.69-1.42-3.54-1.55.55-2.33.7-3.91-.41-1-1.95,2.74-3.94,4.83-2.06"/>
      <path class="cls-1" d="M23.61,6.17s.36-.93.93-.54-.19,1.69-.19,1.69l-.74-1.15Z"/>
      <path class="cls-5" d="M20.12,14.16s-.58,1.52-.88,2.91c-.3,1.39-.5,1.87-.39,3.24.07.92.76,5.23.76,5.23,0,0,.27-.25.19-1.22-.07-.96-.69-4.68-.32-5.86.38-1.18.23-1.4.43-2.24.2-.84.19-2.06.19-2.06"/>
      <path class="cls-10" d="M28.37,10.88s0-.94-.92-.83c-.91.11-2.31.9-2.96,1.55-.65.65-1.06.79-1.98.98-.92.19-2.22.89-2.22.89,0,0,1.77.33,2.8,0,1.02-.33,3.85-2.41,3.85-2.41l1.03.9s.31-.63.39-1.07"/>
      <path class="cls-5" d="M20.82,23.9s1.68,1,2.79,1c1.88.01,2.91-1,2.91-1,0,0-1.24.16-2.46.14-1.15-.02-3.24-.14-3.24-.14"/>
      <path class="cls-5" d="M14.73,9.6s-.81-.19-1.19-.16c-.37.03-1.15.76-1.78,2.18-1.25.27-1.84,2.26-1.28,3.06.56.8,2.36,1.78,3.37,1.13,1.01-.65,2.05-2.45,2.01-2.6-.04-.15-1.14-3.61-1.14-3.61"/>
      <rect class="cls-13" x="2.25" y="15.81" width="12.27" height="1.02" transform="translate(-6.61 5.75) rotate(-27.62)"/>
      <polygon class="cls-13" points="3.09 20.84 14.88 24.23 15.26 23.32 3.47 19.93 3.09 20.84"/>
      <path class="cls-5" d="M13.24,13.69c.2.33.25.66.11.74-.14.08-.41-.12-.6-.44-.2-.33-.25-.66-.11-.74.14-.08.41.12.61.44"/>
      <polygon class="cls-6" points="9.73 14.85 12.64 13.27 13.36 14.45 10.45 16.04 9.73 14.85"/>
      <path class="cls-2" d="M10.33,15.28c.2.33.25.66.11.74-.14.08-.41-.12-.6-.44-.2-.33-.25-.66-.11-.74.14-.08.41.12.61.44"/>
      <path class="cls-13" d="M10.23,15.34c.14.23.18.47.08.53-.1.06-.29-.08-.43-.32-.14-.23-.18-.47-.08-.53.1-.06.29.08.43.32"/>
      <path class="cls-5" d="M14.13,23.47c-.08.37-.28.65-.43.61-.15-.04-.21-.36-.13-.74.08-.37.28-.65.43-.61.16.04.21.36.13.74"/>
      <polygon class="cls-6" points="10.8 21.88 14 22.75 13.7 24.1 10.5 23.23 10.8 21.88"/>
      <path class="cls-2" d="M10.93,22.6c-.08.37-.28.65-.43.61-.15-.04-.21-.36-.13-.74.08-.37.28-.65.43-.61.16.03.21.36.13.74"/>
      <path class="cls-13" d="M10.81,22.53c-.06.27-.2.46-.31.44-.11-.02-.15-.26-.09-.53.06-.27.2-.46.31-.44.11.02.15.26.09.53"/>
      <path class="cls-3" d="M16.25,23.22c-.12-.12-.74-1.1-.74-1.1,0,0-.72-.26-1.62-.14-.9.12-1.19.42-1.19.42l.65.37s-1.24.49-1.36,1.02c-.12.53.28,1.28,1.56,1.46,1.28.19,1.97-.19,1.97-.19l.74-1.84Z"/>
      <path class="cls-3" d="M15.51,22.12c.84.08,1.79-.1,2.45.06,0,0,.21.39.14,1.33-.06.78-.26,1.44-.26,1.44l-1.31-.32s-.4.21-1.02.44v-2.94Z"/>
      <path class="cls-5" d="M28.2,12.19c1.05,1.06,1.22,3.66.27,5.31-.67,1.16-1.42,3-1.87,4.28-.45,1.28-.96,2.09-1.33,2.61-.37.53-1.83.99-2.71,1.03-.89.04-2.85.26-3.73-.23-.9.14-1.71-.09-1.92-1.03-.08-.36-.1-1.62.19-2.05.27-.42.89-.65,1.92-.53.4-.47,1.63-.66,2.04-.09.45-.46.84-.25,1.55-.21-.38-.52-.39-1.05.33-1.45-.61-.83.61-2.2.94-3.04-.12-1.66.39-2.97,1.74-4.07.6-.49,1.63-.88,2.57-.52"/>
      <path class="cls-3" d="M13.11,13.93l-.41.49s.36,0,.35.45c0,.45-.16.86-.72.33-.56-.53-1.4-.61-1.47-1.27-.06-.66,1.53-2.28,2.53-1.47.24,1.02.13.98-.28,1.47"/>
      <path class="cls-3" d="M12.64,12.62s1.15-.16,1.58.99c.33.91.26,1.54-1.19,1.97-1.45.43-2.25-.64-1.8-1.65.45-1.01,1.42-1.31,1.42-1.31"/>
      <path class="cls-12" d="M4.81,20.33s.17.48-.18.95c-.52-.21-2.2-.6-2.2-.6,0,0-.11-.73-.29-1.37-.19-.65-2.13-1.43-2.13-1.43,0,0,.9-.4,1.94.04,1.14.49,1.27,1.88,1.27,1.88l1.6.53Z"/>
      <path class="cls-4" d="M4.23,19.07s.08-.5-.45-.92c-.24.13-.75.39-1.14.6-.26.14-.42.42-.39.72,0,.12,0,.25-.08.37C1.77,20.48,0,20.42,0,20.42c0,0,1.27,1.4,2.37.94,1.1-.47.82-1.73.82-1.73l1.05-.55Z"/>
      <path class="cls-8" d="M2.41,19.54c0,.14.12.26.26.26s.26-.12.26-.26-.12-.26-.26-.26-.26.12-.26.26"/>
      <polygon class="cls-13" points="10.44 21.93 10.72 22 10.51 22.97 10.18 22.87 10.44 21.93"/>
      <polygon class="cls-13" points="10.05 15.37 10.31 15.87 9.92 16.09 9.51 15.16 9.79 15.02 10.05 15.37"/>
      <path class="cls-6" d="M19.84,2.48s-.8.38-1.44.33c-.86-.06-.95-.86-.95-.86,0,0,1.06-.3,1.69-.21.64.09.7.75.7.75"/>
      <path class="cls-6" d="M25.53,5.75c-.81-1.81-3.64-3.89-5.86-3.76.01-.02.02-.04.03-.06,1.18-1.84,2.78-2.63,4.93-1.18,2.26,1.52,1.84,3.24,1.71,3.5-.03.07-.45,1.04-.81,1.49"/>
      <path class="cls-2" d="M24.32,3.99s-.72-1.25-2.46-2.05c-2.19-1.01-4.41,0-4.41,0,0,0,1.6.26,2.25.98.65.72,1.03,1.3,2.32,1.32,1.53.03,2.3-.26,2.3-.26"/>
    </g>
  </g>
</svg>