<?xml version="1.0" encoding="UTF-8"?>
<svg xmlns="http://www.w3.org/2000/svg" xmlns:xlink="http://www.w3.org/1999/xlink" viewBox="0 0 62.44 76.54">
  <defs>
    <style>
      .uuid-344b1173-5dc2-458e-ad0b-32b04372fbde {
        clip-path: url(#uuid-f7de26bf-e708-454b-b2b0-2a5748879f1b);
      }

      .uuid-8411108d-d006-4679-89bc-d623b6c7ad11 {
        clip-path: url(#uuid-0a9726a6-9058-48f5-8549-42857707f5ff);
      }

      .uuid-ad7c8568-4e96-4c26-a764-3b239cb5d759 {
        fill: url(#uuid-96319fb5-7bc5-4314-bbf1-943caa1c1054);
      }

      .uuid-1197c94b-586e-4851-80a0-bc59a749c9ea {
        fill: url(#uuid-468e664a-3f7b-4b3b-83a3-7f3fff60bbd4);
      }

      .uuid-07a91844-7604-489b-b855-5859e540e3f0 {
        clip-path: url(#uuid-2f31ef2a-b5c8-4ff8-baca-52f539bfb669);
      }

      .uuid-a935641a-a36b-435b-a48e-4d697a00858d {
        fill: #fcd900;
      }

      .uuid-bd2c4e40-50e7-4700-a870-8648c17df3bc {
        fill: url(#uuid-174f4a2f-bd36-4c75-a2ee-e88b7a84abcd);
      }

      .uuid-8ac03e6d-55f4-47aa-88ea-271a355e15ae {
        clip-path: url(#uuid-e3437ee8-14f2-4e09-943c-22d05c9f1fe8);
      }

      .uuid-a0f0ec3c-dcb2-4f00-9553-c162994a566b {
        clip-path: url(#uuid-25d39f9c-b887-483b-a0a6-44fe51482bbe);
      }

      .uuid-228694a5-de55-46c2-8d77-4b1bbe25ced1 {
        fill: #debd00;
      }

      .uuid-07206856-450b-4a6a-b083-defb9360409d {
        fill: #627fbe;
      }

      .uuid-c8dab123-0cc5-4e24-bb7f-26f32b58ca13 {
        fill: #635f5b;
      }

      .uuid-efecea55-576e-41b4-8d19-23e0badb0d0a {
        fill: #7a92ca;
      }

      .uuid-3ca8372d-ad97-4e72-ad7f-fc19f4bde470 {
        fill: #6c4e42;
      }

      .uuid-2bbde421-7aa1-44df-9dfb-d3ecdbea6349 {
        fill: #ef7e00;
      }

      .uuid-4701a8f5-42c7-4ce6-a5cc-3dba7d7deb2a {
        fill: #556fb3;
      }

      .uuid-59150d97-d744-49fc-b8dd-e30376f7cf47 {
        fill: #fff;
      }

      .uuid-0680db63-6dab-4271-93f2-76de0fe96a5b {
        clip-path: url(#uuid-f7fded2e-a208-4f3d-9961-f9c1bc55e8e7);
      }

      .uuid-74e99464-10cf-4c26-bca7-db082adcc784 {
        clip-path: url(#uuid-60a1ddf6-dbde-4ffa-8244-34e089635dc6);
      }

      .uuid-2e45ad2d-fb8c-43e1-9e2a-2e1cbd030cd2 {
        fill: #4e4a49;
      }

      .uuid-9b0d15ea-b14a-4770-886a-bfac6fea8677 {
        clip-path: url(#uuid-96f9619a-4356-4316-b6bc-ee68d08c6c12);
      }

      .uuid-d1cb9fd2-a8e8-463c-98e6-3b2df0b37e88 {
        clip-path: url(#uuid-189c709f-9ffe-46e5-a333-908eb199f311);
      }

      .uuid-f0c42b94-9f20-42cf-97d5-491d5fcd59a0 {
        clip-path: url(#uuid-f6f2474d-c230-4f94-adc9-6875f4abd554);
      }

      .uuid-e6472654-c0de-49d9-8229-ff1d3fc57c34 {
        fill: #e1e2e9;
      }

      .uuid-d7fb6d6d-e60b-4645-96b3-db339d3917fe {
        clip-path: url(#uuid-9fdf62d6-4038-474b-9064-7f355ac9e725);
      }

      .uuid-f027c43b-a4e4-44f2-b240-0670ae061c26 {
        fill: url(#uuid-a71bce02-bb8f-41b5-8d66-a18da4379242);
      }

      .uuid-6dc2881f-91f6-4e8d-863e-e12b5cbfe1e7 {
        fill: #797672;
      }

      .uuid-b1e0efe3-3858-4458-9136-70f42d565b75 {
        fill: none;
      }

      .uuid-d86de824-43f0-421f-9297-51df20fbe367 {
        clip-path: url(#uuid-173e4df9-86d2-4b6d-af31-5391dede577a);
      }

      .uuid-de372411-5870-4bc8-8d13-b60300c8a53b {
        clip-path: url(#uuid-7a54a4bc-dd63-4073-b235-01abaa15b4c3);
      }

      .uuid-86d06bfe-8cba-409d-a531-912cd75ffbeb {
        fill: url(#uuid-69ab9bd0-e7e5-43dd-acbb-61b10c120d20);
      }

      .uuid-e3d3537d-208f-4e3c-a198-b8094d161d0a {
        fill: #464550;
      }

      .uuid-b1a53d63-197d-474b-856f-592a2cda678e {
        fill: #534c57;
      }

      .uuid-15fdf3f0-4292-414e-9057-01a57ec17147 {
        clip-path: url(#uuid-edc42c84-708e-401b-bb67-e5cc23d6a31e);
      }

      .uuid-36f88e21-5736-4435-b83e-2b2ca94d5385 {
        clip-path: url(#uuid-23f39dd6-274a-4717-ae53-682f4752aceb);
      }

      .uuid-feda4fbf-7daa-4f21-8a4d-165b5a62e201 {
        fill: url(#uuid-dee447df-fbb6-4268-b6d0-c0c228b32d5d);
      }

      .uuid-3050c1e6-82a2-4f95-a05d-9e6a075a3ba6 {
        fill: #c3b9c6;
      }

      .uuid-c3aeecab-7a47-40e3-a8d4-eee3ca42efec {
        isolation: isolate;
      }

      .uuid-1c594586-7c70-4e15-95ef-6286cf3fe332 {
        clip-path: url(#uuid-d8451969-11f9-401d-84b6-cae5df89cb59);
      }

      .uuid-5aeba0ed-f65e-4114-9c88-2bd02e25f7ef {
        fill: #dac3b2;
      }

      .uuid-efedf67a-32b8-4103-811e-a96a5076f70d {
        fill: url(#uuid-f085b29a-3b66-4d07-8624-6e4514b73aad);
      }

      .uuid-7c366d3d-cc02-44e1-8560-9c315d088d10 {
        clip-path: url(#uuid-51916de5-a6de-4f45-8817-ee402f06c267);
      }

      .uuid-5c95baab-c992-42c3-a969-4b36e8ee9ebd {
        fill: #f4a9ab;
      }

      .uuid-a7ce6d63-300f-4e67-865d-6ca863f1e020 {
        fill: #342d38;
      }

      .uuid-386767e2-207a-4df0-ae9f-28cdb9ecf37c {
        fill: #f3951b;
      }

      .uuid-b2d158d0-acad-4a17-b90d-cd7dd6fa569d {
        fill: #a397a8;
      }

      .uuid-ebdca75b-756c-40ee-b170-97475c20085a {
        fill: #f3952d;
      }

      .uuid-b6b48ad9-55d2-48f2-8e3d-edd35ccca3fa {
        clip-path: url(#uuid-d7f32502-32df-4361-9e11-682250186ebf);
      }

      .uuid-ef8a02d2-edc7-4b97-a5a0-93d55aa95507 {
        fill: #7e4b41;
      }

      .uuid-79509f20-af1b-41d1-910c-434cbd7bccd8 {
        fill: #595963;
      }

      .uuid-2f9a2342-4fe2-4f84-b028-74a9707da26c {
        clip-path: url(#uuid-0c3057a4-5a00-4589-9220-8122d1c971d9);
      }

      .uuid-85c901e9-c02d-4c22-9415-de70c32ff20a {
        clip-path: url(#uuid-0023dc4d-8f19-4c34-b1a0-0a6077683219);
      }

      .uuid-f3218d5b-3e80-49c2-865f-623e65a5a364 {
        fill: #79554b;
      }

      .uuid-82b7d5c4-9b4e-40c2-b46d-a3545d52aa18 {
        mix-blend-mode: multiply;
      }

      .uuid-daafaae2-5f40-4168-9b08-645408d9ba47 {
        clip-path: url(#uuid-2f4ae37f-f051-4986-89ed-817255e8782c);
      }

      .uuid-3ca8f0a0-c439-4ff0-9b1b-93d2d8ede43e {
        fill: #4a424d;
      }

      .uuid-af2c62d2-eada-4f04-8889-9915d2aee0c8 {
        fill: #da582a;
      }

      .uuid-aa77d737-4b9c-44b9-9531-1d44d24127dd {
        fill: url(#uuid-ea9cf08e-e416-4a23-8083-de2d85f355a2);
      }

      .uuid-2bcc8f6e-5b62-495d-923b-3a856e6b48d8 {
        fill: #404249;
      }

      .uuid-47ee697d-aa13-49a8-acae-fda4d0b7e22a {
        fill: #723c32;
      }

      .uuid-75fde5a2-c02b-446a-96e5-2e700422ae67 {
        fill: #d87915;
      }

      .uuid-a7cfad09-6e51-44a0-bb25-fd4ca20704f7 {
        fill: url(#uuid-94e3c713-0ae6-41d1-8478-c4bde062539f);
      }

      .uuid-5b821a8a-0988-483e-92a5-16c0039953a6 {
        fill: #484b4f;
      }

      .uuid-b8c7059e-aaff-4d12-b505-a27ad073a77f {
        fill: url(#uuid-48ec6608-bf36-459d-ad60-8f99b9f92a9f);
      }

      .uuid-fd2e31b0-4bbe-49a6-90a0-e5059844f08b {
        fill: #4c4847;
      }

      .uuid-f340086f-d489-4acb-aeb8-2dadea05f388 {
        fill: #96928f;
      }

      .uuid-6519195a-a922-4455-886e-ccbe156a4225 {
        clip-path: url(#uuid-0a826888-50f0-440c-8f79-f148bf5d3588);
      }

      .uuid-0fe85885-b1e2-4cdd-9888-fa3c53056265 {
        fill: url(#uuid-161fdc36-6c36-4745-a83d-3408364a8a25);
      }

      .uuid-d9411123-5009-4ef5-b017-9d9b7b1b7837 {
        fill: url(#uuid-fecd5889-3a45-470a-a2fa-a22dbf38866e);
      }

      .uuid-c1a6c603-7b28-4da9-9ac3-1b70ffd61dea {
        fill: #585453;
      }

      .uuid-78332d24-42de-4450-8438-2c51a4d8d8f8 {
        fill: url(#uuid-b382cf3e-37a8-4eb2-a229-f2b0b5a4adf0);
      }

      .uuid-8b244fb9-9c68-44d8-ae92-3dde0e57f054 {
        clip-path: url(#uuid-26e58423-da6e-492a-bcd5-acfb7f153bc6);
      }

      .uuid-751d8929-88e2-462e-ba6f-c6166ce4acf5 {
        fill: url(#uuid-682a82a6-e3e3-41e3-ba2f-c9a02fde342f);
      }

      .uuid-3091428d-438b-449c-9c51-510105fe10e6 {
        clip-path: url(#uuid-41774d61-5f7d-4441-8a4e-300ce5d1c326);
      }

      .uuid-d1f4e94d-8631-4e37-a847-62916a401313 {
        clip-path: url(#uuid-08d8e2be-672d-4f10-a73e-4e1b49729b50);
      }

      .uuid-e27bda44-dfa5-4407-b8d2-709cb9de80f7 {
        fill: url(#uuid-ecc3fd2f-4df2-4cac-883e-0c5e32e1f59c);
      }

      .uuid-bfb735a3-83c1-4948-9c26-61c57e370a42 {
        fill: #706c6b;
      }
    </style>
    <clipPath id="uuid-e3437ee8-14f2-4e09-943c-22d05c9f1fe8">
      <path class="uuid-b1e0efe3-3858-4458-9136-70f42d565b75" d="M24.98,51.81c-.11.87-.04,4.24-.05,4.69-.01.46,0,2.11-.17,2.6-.18.49.41.93,1.22.96.81.04,1.55-1.06,1.93-1.71.38-.65,1.11-1.76.95-2.34-.17-.58-1-1.29-.99-1.89,0-.6.08-2.34.08-2.34l-2.96.02Z"/>
    </clipPath>
    <linearGradient id="uuid-682a82a6-e3e3-41e3-ba2f-c9a02fde342f" data-name="Dégradé sans nom 9" x1="-337.42" y1="631.23" x2="-336.42" y2="631.23" gradientTransform="translate(-2645.64 1482.32) rotate(90) scale(4.23 -4.23)" gradientUnits="userSpaceOnUse">
      <stop offset="0" stop-color="#f6bec0"/>
      <stop offset=".05" stop-color="#f6bec0"/>
      <stop offset=".99" stop-color="#f4a8ab"/>
      <stop offset="1" stop-color="#f4a8ab"/>
    </linearGradient>
    <clipPath id="uuid-25d39f9c-b887-483b-a0a6-44fe51482bbe">
      <rect class="uuid-b1e0efe3-3858-4458-9136-70f42d565b75" x="28.37" y="23.91" width="7.79" height="29.54"/>
    </clipPath>
    <clipPath id="uuid-f6f2474d-c230-4f94-adc9-6875f4abd554">
      <rect class="uuid-b1e0efe3-3858-4458-9136-70f42d565b75" x="28.37" y="23.91" width="7.79" height="29.54"/>
    </clipPath>
    <clipPath id="uuid-96f9619a-4356-4316-b6bc-ee68d08c6c12">
      <path class="uuid-b1e0efe3-3858-4458-9136-70f42d565b75" d="M37.47,47.01c-.07.96-.38,3.21-.38,3.21l-.34,1.56s-.11.68,1.37.76c1.48.08,1.93-1.46,1.97-1.97.04-.51.14-1.08.11-1.39-.04-.31-.13-1.08-.13-1.08l.23-2.07-2.82.98Z"/>
    </clipPath>
    <linearGradient id="uuid-b382cf3e-37a8-4eb2-a229-f2b0b5a4adf0" data-name="Dégradé sans nom 9" x1="-382.06" y1="637.58" x2="-381.06" y2="637.58" gradientTransform="translate(-2043.86 1295.61) rotate(90) scale(3.27 -3.27)" xlink:href="#uuid-682a82a6-e3e3-41e3-ba2f-c9a02fde342f"/>
    <clipPath id="uuid-0a826888-50f0-440c-8f79-f148bf5d3588">
      <path class="uuid-b1e0efe3-3858-4458-9136-70f42d565b75" d="M23.37,7.85l-.41,3.22c.83.72,1.41,1.96,1.51,2.48.1.52.37,1.12,1.55,1.21,1.18.09,2.18-.76,2.64-2.24.47-1.49.77-2,.56-2.71-.21-.72-1.07-.76-1.46-.98-.4-.22-.44-.63-.63-1.02-.2-.39-.84-2.55-.84-2.55l-2.91,2.59Z"/>
    </clipPath>
    <linearGradient id="uuid-ea9cf08e-e416-4a23-8083-de2d85f355a2" data-name="Dégradé sans nom 9" x1="-288.69" y1="624.28" x2="-287.69" y2="624.28" gradientTransform="translate(-3879.92 1813.24) rotate(90) scale(6.26 -6.26)" xlink:href="#uuid-682a82a6-e3e3-41e3-ba2f-c9a02fde342f"/>
    <clipPath id="uuid-08d8e2be-672d-4f10-a73e-4e1b49729b50">
      <path class="uuid-b1e0efe3-3858-4458-9136-70f42d565b75" d="M20.44,4.37c-.45.48-.43,1.37-.47,1.59-.02.09-.03.44-.03.87,0,.62.03,1.43.14,1.95.19.88,1.09,3.35,1.24,3.53.07.08.2.15.36.21.2.08.44.12.64.11.35-.01,1.54-.47,1.97-.73.43-.26,1.61-.82,1.86-1.52.25-.7.43-1.53.4-2.13-.03-.6.2-2.1.29-2.36,0,0-1.83-2.48-3.26-2.77-.17-.04-.34-.05-.5-.05-1.21,0-2.24.88-2.63,1.3"/>
    </clipPath>
    <linearGradient id="uuid-96319fb5-7bc5-4314-bbf1-943caa1c1054" data-name="Dégradé sans nom 9" x1="-280" y1="623.05" x2="-279" y2="623.05" gradientTransform="translate(-4238.4 1919.51) rotate(90) scale(6.84 -6.84)" xlink:href="#uuid-682a82a6-e3e3-41e3-ba2f-c9a02fde342f"/>
    <clipPath id="uuid-edc42c84-708e-401b-bb67-e5cc23d6a31e">
      <path class="uuid-b1e0efe3-3858-4458-9136-70f42d565b75" d="M27.45,7.17c-.52.03-.59.66-.59.95,0,0-.17.65-.18.89,0,.24.28.25.55.09.27-.15.65-.45.75-1.01.09-.54,0-.93-.47-.93-.02,0-.04,0-.06,0"/>
    </clipPath>
    <linearGradient id="uuid-48ec6608-bf36-459d-ad60-8f99b9f92a9f" data-name="Dégradé sans nom 9" x1="-704.94" y1="683.65" x2="-703.94" y2="683.65" gradientTransform="translate(-814.25 875.42) rotate(90) scale(1.23 -1.23)" xlink:href="#uuid-682a82a6-e3e3-41e3-ba2f-c9a02fde342f"/>
    <clipPath id="uuid-26e58423-da6e-492a-bcd5-acfb7f153bc6">
      <path class="uuid-b1e0efe3-3858-4458-9136-70f42d565b75" d="M20.07,8.78c.19.88,1.09,3.35,1.24,3.53.07.08.2.15.36.21-.02-.19-.05-.39-.09-.58-.03-.15-.08-.32-.21-.41-.05-.04-.12-.06-.16-.11-.06-.1.02-.18,0-.27-.01-.09-.09-.17-.11-.26-.02-.05-.07-.55,0-.54-.15-.02-.29-.05-.44-.07-.03,0-.07-.01-.09-.04-.02-.04,0-.09,0-.12.2-.55.3-1.14.38-1.72.05-.37.1-.89-.28-1.1-.26-.14-.51-.29-.75-.45,0,0,0,0,0,0,0,.62.03,1.43.14,1.95"/>
    </clipPath>
    <linearGradient id="uuid-fecd5889-3a45-470a-a2fa-a22dbf38866e" data-name="Dégradé sans nom 9" x1="-548.69" y1="690.33" x2="-547.69" y2="690.33" gradientTransform="translate(973.43 1209.31) scale(1.74 -1.74)" xlink:href="#uuid-682a82a6-e3e3-41e3-ba2f-c9a02fde342f"/>
    <clipPath id="uuid-173e4df9-86d2-4b6d-af31-5391dede577a">
      <path class="uuid-b1e0efe3-3858-4458-9136-70f42d565b75" d="M49.28,22.6l1.81,1.72s2.55,1.52,2.76,1.39c.21-.13.29-.38.02-.79-.26-.41-3.08-2.55-3.43-2.86-.05-.05-.12-.07-.19-.07-.39,0-.98.62-.98.62"/>
    </clipPath>
    <linearGradient id="uuid-174f4a2f-bd36-4c75-a2ee-e88b7a84abcd" data-name="Dégradé sans nom 9" x1="-85.56" y1="549.06" x2="-84.56" y2="549.06" gradientTransform="translate(-2947.37 -440.63) rotate(-90) scale(5.46)" xlink:href="#uuid-682a82a6-e3e3-41e3-ba2f-c9a02fde342f"/>
    <clipPath id="uuid-2f4ae37f-f051-4986-89ed-817255e8782c">
      <path class="uuid-b1e0efe3-3858-4458-9136-70f42d565b75" d="M24.98,51.81c-.11.87-.04,4.24-.05,4.69,0,.46,0,2.11-.17,2.6-.18.49.41.93,1.22.96.81.04,1.55-1.06,1.93-1.71.38-.65,1.11-1.76.95-2.34-.17-.58-1-1.29-.99-1.89,0-.6.08-2.33.08-2.33l-2.96.02Z"/>
    </clipPath>
    <clipPath id="uuid-9fdf62d6-4038-474b-9064-7f355ac9e725">
      <rect class="uuid-b1e0efe3-3858-4458-9136-70f42d565b75" x="22.48" y="53.41" width="8.64" height="5.08" transform="translate(-31.06 78.34) rotate(-85.57)"/>
    </clipPath>
    <linearGradient id="uuid-468e664a-3f7b-4b3b-83a3-7f3fff60bbd4" data-name="Dégradé sans nom 9" y1="631.23" x2="-336.42" y2="631.23" gradientTransform="translate(-2645.64 1482.32) rotate(90) scale(4.23 -4.23)" xlink:href="#uuid-682a82a6-e3e3-41e3-ba2f-c9a02fde342f"/>
    <clipPath id="uuid-f7de26bf-e708-454b-b2b0-2a5748879f1b">
      <rect class="uuid-b1e0efe3-3858-4458-9136-70f42d565b75" x="28.37" y="23.91" width="7.79" height="29.54"/>
    </clipPath>
    <clipPath id="uuid-d8451969-11f9-401d-84b6-cae5df89cb59">
      <rect class="uuid-b1e0efe3-3858-4458-9136-70f42d565b75" x="28.37" y="23.91" width="7.79" height="29.54"/>
    </clipPath>
    <clipPath id="uuid-51916de5-a6de-4f45-8817-ee402f06c267">
      <path class="uuid-b1e0efe3-3858-4458-9136-70f42d565b75" d="M37.47,47.01c-.07.96-.38,3.21-.38,3.21l-.34,1.56s-.11.68,1.37.76c1.48.08,1.93-1.46,1.97-1.97.04-.51.14-1.08.11-1.39-.04-.31-.13-1.08-.13-1.08l.23-2.07-2.82.98Z"/>
    </clipPath>
    <clipPath id="uuid-f7fded2e-a208-4f3d-9961-f9c1bc55e8e7">
      <rect class="uuid-b1e0efe3-3858-4458-9136-70f42d565b75" x="35.04" y="47.24" width="6.86" height="4.16" transform="translate(-13.68 83.87) rotate(-85.57)"/>
    </clipPath>
    <linearGradient id="uuid-161fdc36-6c36-4745-a83d-3408364a8a25" data-name="Dégradé sans nom 9" x1="-382.06" y1="637.58" x2="-381.06" y2="637.58" gradientTransform="translate(-2043.85 1295.62) rotate(90) scale(3.27 -3.27)" xlink:href="#uuid-682a82a6-e3e3-41e3-ba2f-c9a02fde342f"/>
    <clipPath id="uuid-189c709f-9ffe-46e5-a333-908eb199f311">
      <path class="uuid-b1e0efe3-3858-4458-9136-70f42d565b75" d="M23.37,7.85l-.41,3.22c.83.72,1.41,1.96,1.51,2.48.1.52.36,1.12,1.55,1.21,1.18.09,2.18-.76,2.64-2.24.47-1.49.77-2,.56-2.71-.21-.72-1.07-.76-1.46-.98-.4-.22-.44-.63-.63-1.02-.2-.39-.84-2.55-.84-2.55l-2.91,2.59Z"/>
    </clipPath>
    <clipPath id="uuid-0023dc4d-8f19-4c34-b1a0-0a6077683219">
      <rect class="uuid-b1e0efe3-3858-4458-9136-70f42d565b75" x="21.16" y="6.45" width="10.06" height="7.2" transform="translate(14.15 35.39) rotate(-85.57)"/>
    </clipPath>
    <linearGradient id="uuid-a71bce02-bb8f-41b5-8d66-a18da4379242" data-name="Dégradé sans nom 9" x1="-288.69" y1="624.28" x2="-287.69" y2="624.28" gradientTransform="translate(-3879.92 1813.23) rotate(90) scale(6.26 -6.26)" xlink:href="#uuid-682a82a6-e3e3-41e3-ba2f-c9a02fde342f"/>
    <clipPath id="uuid-0c3057a4-5a00-4589-9220-8122d1c971d9">
      <path class="uuid-b1e0efe3-3858-4458-9136-70f42d565b75" d="M20.44,4.37c-.45.48-.43,1.37-.47,1.59-.02.09-.03.44-.03.87,0,.62.03,1.43.14,1.95.19.88,1.09,3.35,1.24,3.53.07.08.2.15.36.21.2.07.44.12.64.11.35-.02,1.54-.47,1.97-.73.43-.26,1.61-.82,1.86-1.52.25-.7.43-1.53.4-2.13-.03-.6.21-2.1.29-2.36,0,0-1.83-2.48-3.26-2.77-.17-.04-.34-.05-.5-.05-1.21,0-2.24.88-2.63,1.3"/>
    </clipPath>
    <clipPath id="uuid-7a54a4bc-dd63-4073-b235-01abaa15b4c3">
      <rect class="uuid-b1e0efe3-3858-4458-9136-70f42d565b75" x="18.34" y="4.05" width="10.08" height="7.61" transform="translate(13.74 30.56) rotate(-85.57)"/>
    </clipPath>
    <linearGradient id="uuid-69ab9bd0-e7e5-43dd-acbb-61b10c120d20" data-name="Dégradé sans nom 9" x1="-280" y1="623.05" x2="-279" y2="623.05" gradientTransform="translate(-4238.39 1919.52) rotate(90) scale(6.84 -6.84)" xlink:href="#uuid-682a82a6-e3e3-41e3-ba2f-c9a02fde342f"/>
    <clipPath id="uuid-23f39dd6-274a-4717-ae53-682f4752aceb">
      <path class="uuid-b1e0efe3-3858-4458-9136-70f42d565b75" d="M27.45,7.17c-.52.03-.59.66-.59.95,0,0-.17.65-.18.89,0,.24.28.25.55.09.27-.15.65-.45.75-1.01.09-.54,0-.93-.47-.93-.02,0-.04,0-.06,0"/>
    </clipPath>
    <clipPath id="uuid-d7f32502-32df-4361-9e11-682250186ebf">
      <rect class="uuid-b1e0efe3-3858-4458-9136-70f42d565b75" x="26.27" y="7.43" width="2.19" height="1.55" transform="translate(17.07 34.86) rotate(-85.56)"/>
    </clipPath>
    <linearGradient id="uuid-ecc3fd2f-4df2-4cac-883e-0c5e32e1f59c" data-name="Dégradé sans nom 9" x1="-704.94" y1="683.65" x2="-703.94" y2="683.65" gradientTransform="translate(-814.25 875.41) rotate(90) scale(1.23 -1.23)" xlink:href="#uuid-682a82a6-e3e3-41e3-ba2f-c9a02fde342f"/>
    <clipPath id="uuid-41774d61-5f7d-4441-8a4e-300ce5d1c326">
      <path class="uuid-b1e0efe3-3858-4458-9136-70f42d565b75" d="M20.07,8.78c.19.88,1.09,3.35,1.24,3.53.07.08.2.15.36.21-.02-.19-.05-.39-.09-.58-.03-.15-.08-.32-.21-.41-.05-.04-.12-.06-.16-.11-.07-.1.02-.18,0-.27-.01-.08-.09-.17-.11-.25-.01-.05-.07-.55,0-.55-.15-.02-.29-.05-.44-.07-.03,0-.07-.01-.09-.04-.02-.04,0-.08,0-.12.2-.55.3-1.14.38-1.72.05-.37.1-.89-.28-1.1-.26-.14-.51-.29-.75-.45,0,0,0,0,0,0,0,.62.03,1.43.14,1.95"/>
    </clipPath>
    <clipPath id="uuid-0a9726a6-9058-48f5-8549-42857707f5ff">
      <rect class="uuid-b1e0efe3-3858-4458-9136-70f42d565b75" x="19.93" y="6.83" width="1.74" height="5.69"/>
    </clipPath>
    <linearGradient id="uuid-94e3c713-0ae6-41d1-8478-c4bde062539f" data-name="Dégradé sans nom 9" x1="-548.69" y1="690.33" x2="-547.69" y2="690.33" gradientTransform="translate(973.43 1209.31) scale(1.74 -1.74)" xlink:href="#uuid-682a82a6-e3e3-41e3-ba2f-c9a02fde342f"/>
    <clipPath id="uuid-60a1ddf6-dbde-4ffa-8244-34e089635dc6">
      <path class="uuid-b1e0efe3-3858-4458-9136-70f42d565b75" d="M49.28,22.6l1.81,1.71s2.55,1.52,2.76,1.39c.21-.13.29-.38.02-.79-.26-.41-3.08-2.56-3.43-2.87-.05-.05-.12-.07-.19-.07-.39,0-.98.62-.98.62"/>
    </clipPath>
    <clipPath id="uuid-2f31ef2a-b5c8-4ff8-baca-52f539bfb669">
      <rect class="uuid-b1e0efe3-3858-4458-9136-70f42d565b75" x="48.64" y="20.82" width="6.13" height="6.17" transform="translate(-1.23 44.95) rotate(-46.49)"/>
    </clipPath>
    <linearGradient id="uuid-dee447df-fbb6-4268-b6d0-c0c228b32d5d" data-name="Dégradé sans nom 9" x1="-85.56" y1="549.06" x2="-84.56" y2="549.06" gradientTransform="translate(-2947.36 -440.63) rotate(-90) scale(5.46)" xlink:href="#uuid-682a82a6-e3e3-41e3-ba2f-c9a02fde342f"/>
    <linearGradient id="uuid-f085b29a-3b66-4d07-8624-6e4514b73aad" data-name="Dégradé sans nom 9" x1="31.45" y1="18.12" x2="52.87" y2="18.12" gradientTransform="matrix(1,0,0,1,0,0)" xlink:href="#uuid-682a82a6-e3e3-41e3-ba2f-c9a02fde342f"/>
  </defs>
  <g class="uuid-c3aeecab-7a47-40e3-a8d4-eee3ca42efec">
    <g id="uuid-2429e984-36c2-4f25-92c6-90ef9a76c732" data-name="Calque_2">
      <g id="uuid-640e03c5-f09f-4446-aefc-54ec81ccbd54" data-name="Les_personnages">
        <g id="uuid-3770d41c-1840-48a0-aa41-e4690f0fafb4" data-name="Chara_x5F_VeloSignalementGauche_x5F_BG">
          <path class="uuid-59150d97-d744-49fc-b8dd-e30376f7cf47" d="M18.88,31.84c3.23-2.01,3.74-5.52,1.14-7.83-2.6-2.31-7.33-2.56-10.56-.55s-3.74,5.52-1.14,7.83"/>
          <path class="uuid-2bbde421-7aa1-44df-9dfb-d3ecdbea6349" d="M30.63,12.11c-.2,1.01.02,1.96.86,2.69s1.44.94,1.44.94c0,0-.24-.52.02-2.29.17-1.11,1.86-1.99,1.86-1.99,0,0-1.74-1.06-2.56-1.22s-1.49,1.21-1.62,1.86"/>
          <path class="uuid-5c95baab-c992-42c3-a969-4b36e8ee9ebd" d="M19.43,10.7s-1.63,8.53-2.04,9.04c-.41.51-7.66,6.23-7.66,6.43s.72,1,1.74.6c1.02-.41,6.4-3.73,7.17-4.39.77-.66,1.66-1.54,1.99-2.25.36-.77,2.1-4.96,2.1-4.96l-3.29-4.47Z"/>
          <path class="uuid-2bcc8f6e-5b62-495d-923b-3a856e6b48d8" d="M29.12,56.41c.47.07.7.4.78.62.08.22.21.66.15.88-.07.22-.68,1.38-.97,1.69-.29.31-.41.35-.41.35,0,0-.43.18-.59.6-.16.42-.84,2-1.04,2.31-.2.31-1.3,1.11-1.76,1.29-.46.19-1.05.12-1.41.02-.36-.11-.79-.62-.94-.89-.15-.26.02-.99.16-1.34.14-.35,4.13-3.32,4.13-3.32l1.9-2.21Z"/>
          <path class="uuid-e6472654-c0de-49d9-8229-ff1d3fc57c34" d="M27.89,55.15c.32-.11.86.15,1.19.49.33.34.73,1.21.76,1.61.02.4-.47,1.03-1.08,1.8-.61.77-1.03,1.52-1.3,2.13-.28.61-.59,1.61-.88,1.89-.29.29-1.47.96-2.23.87-.75-.09-1.18-.6-1.38-.95-.19-.35-.03-.76-.04-1,0-.24.24-1.2.52-1.63.28-.43.92-1.2,1.05-1.62s.09-.99.34-1.46c.25-.47,3.04-2.12,3.04-2.12"/>
          <g class="uuid-8ac03e6d-55f4-47aa-88ea-271a355e15ae">
            <rect class="uuid-751d8929-88e2-462e-ba6f-c6166ce4acf5" x="22.48" y="53.41" width="8.64" height="5.08" transform="translate(-31.06 78.34) rotate(-85.57)"/>
          </g>
          <path class="uuid-4701a8f5-42c7-4ce6-a5cc-3dba7d7deb2a" d="M36.17,24.05c-.31,1.09-.67,2.03-.81,2.42-.37.98-2.74,5.71-3.65,7.96-.91,2.25-2.15,6.73-2.31,6.95-.16.22-.15.8-.16,2.05,0,1.25-.42,9.81-.45,9.88-.01.03-.17.08-.41.13-.29.06-.7.12-1.15.16-.83.07-2.45-.6-2.58-1.07-.13-.47.05-4.11-.01-6.37-.05-2.26-.21-4.92,0-6.46.21-1.54.73-5.67,1.46-9.31.73-3.63,1.51-6.37,1.51-6.37,0,0,.25-1.35,1.11-2.54l4.61-3.5s2.13-.14,3.11,1.41c.6.94.21,2.99-.27,4.67"/>
          <path class="uuid-efecea55-576e-41b4-8d19-23e0badb0d0a" d="M27.57,53.61l-.37-.05c0-.09.96-9.14,1.26-11.25.27-1.87.59-3.32.8-3.69.05-.08.28-.72.54-1.4.61-1.65,1.64-4.4,2.44-6.05.38-.78.77-1.62,1.14-2.4.94-1.99,1.44-3.04,1.6-3.22l.25.31c-.14.16-.85,1.66-1.54,3.11-.37.78-.77,1.62-1.14,2.4-.79,1.63-1.81,4.37-2.42,6.01-.35.95-.51,1.37-.57,1.47-.13.21-.43,1.33-.74,3.52-.3,2.11-1.25,11.14-1.26,11.23"/>
          <g class="uuid-82b7d5c4-9b4e-40c2-b46d-a3545d52aa18">
            <g class="uuid-a0f0ec3c-dcb2-4f00-9553-c162994a566b">
              <g class="uuid-f0c42b94-9f20-42cf-97d5-491d5fcd59a0">
                <path class="uuid-5aeba0ed-f65e-4114-9c88-2bd02e25f7ef" d="M36.17,24.05c-.31,1.09-.67,2.03-.81,2.42-.37.98-2.74,5.71-3.65,7.96-.91,2.25-2.15,6.73-2.31,6.95-.16.22-.15.8-.16,2.05,0,1.25-.42,9.81-.45,9.88-.01.03-.17.08-.41.13.48-2.83.66-5.73.52-8.61-.08-1.53-.24-3.09.09-4.57.17-.77.47-1.49.76-2.21,1.19-2.96,2.23-5.99,3.28-9.02.07-.2.14-.41.13-.63-.02-.31-.19-.57-.28-.86-.22-.71-.13-2.26.35-2.86.65-.81,2.01-.9,2.87-.66.03,0,.06.02.09.03"/>
              </g>
            </g>
          </g>
          <path class="uuid-07206856-450b-4a6a-b083-defb9360409d" d="M31.8,31.24c-.25.64-.51,1.27-.8,1.87-.47.94-.84,2-1.22,2.99-.46,1.2-.83,2.72-1.54,3.73-.59.83-1.86,1.41-2.63.54-.87-.97-.21-2.3.32-3.19l2.84-4.82c.33-.55.8-1.83,1.33-2.11.17-.09.48-.07.67-.12.67-.18,1.29-.93,1.95-.99-.08.14-.15.27-.23.41-.24.55-.46,1.13-.68,1.7"/>
          <path class="uuid-47ee697d-aa13-49a8-acae-fda4d0b7e22a" d="M29.86,5.98c-.08.94.1,2.02.95,2.46.44.23,1.52.5,1.92.25-.02.82-.39,1.88-1.01,2.29-.58.39-.6.74-1.25.87-.58.11-1.18.2-1.78.04-.9-.24-1.66-1.06-2.09-2.01-.88-1.93-.57-3.78.09-5.57.09-.25.18-.5.35-.69.5-.58,1.39-.82,2.07-.36.75.51.83,1.87.75,2.72"/>
          <polygon class="uuid-79509f20-af1b-41d1-910c-434cbd7bccd8" points="31.03 54.72 27.47 58.4 23.41 56.06 23.41 54.43 26.96 52.37 31.03 54.72"/>
          <polygon class="uuid-e3d3537d-208f-4e3c-a198-b8094d161d0a" points="31.03 56.35 27.47 58.4 27.47 56.77 31.03 54.72 31.03 56.35"/>
          <polygon class="uuid-c8dab123-0cc5-4e24-bb7f-26f32b58ca13" points="29.98 57.5 33.98 52.92 33.03 51.86 29.04 56.43 29.98 57.5"/>
          <path class="uuid-6dc2881f-91f6-4e8d-863e-e12b5cbfe1e7" d="M28.52,56.65c0,.38.26.53.59.34.33-.19.59-.65.59-1.02s-.27-.53-.59-.34c-.33.19-.59.65-.59,1.02"/>
          <polygon class="uuid-6dc2881f-91f6-4e8d-863e-e12b5cbfe1e7" points="28.68 57.02 29.58 57.54 30.43 56.1 29.54 55.59 28.68 57.02"/>
          <path class="uuid-f340086f-d489-4acb-aeb8-2dadea05f388" d="M29.4,57.16c0,.38.26.53.59.34.33-.19.59-.65.59-1.02s-.27-.53-.59-.34c-.33.19-.59.65-.59,1.02"/>
          <path class="uuid-6dc2881f-91f6-4e8d-863e-e12b5cbfe1e7" d="M31.89,54.19c0,1.83,1.29,2.56,2.88,1.64,1.59-.92,2.89-3.15,2.89-4.98s-1.29-2.56-2.89-1.64c-1.59.92-2.88,3.15-2.88,4.97"/>
          <polygon class="uuid-6dc2881f-91f6-4e8d-863e-e12b5cbfe1e7" points="32.68 56.01 33.34 56.39 37.48 49.39 36.87 49.04 32.68 56.01"/>
          <path class="uuid-f340086f-d489-4acb-aeb8-2dadea05f388" d="M32.48,54.53c0,1.83,1.29,2.56,2.88,1.64,1.59-.92,2.89-3.15,2.89-4.98s-1.29-2.56-2.89-1.64c-1.59.92-2.88,3.15-2.88,4.97"/>
          <polygon class="uuid-228694a5-de55-46c2-8d77-4b1bbe25ced1" points="12.77 60.27 11.21 59.92 12.07 56.17 16.13 43.5 18.99 42.45 19.55 43.95 17.42 44.73 13.6 56.62 12.77 60.27"/>
          <polygon class="uuid-228694a5-de55-46c2-8d77-4b1bbe25ced1" points="35.13 52 33.88 51 37.12 46.9 48.29 39.89 48.28 39.7 41.54 33.26 39.22 30.76 40.4 29.68 42.68 32.14 49.86 38.99 49.92 40.76 38.2 48.11 35.13 52"/>
          <path class="uuid-b1a53d63-197d-474b-856f-592a2cda678e" d="M49.12,25.23c-6.6,3.81-11.94,13.03-11.94,20.6s5.35,10.62,11.94,6.81c6.6-3.81,11.94-13.03,11.94-20.6s-5.35-10.62-11.94-6.81M49.12,51.86c-6.22,3.59-11.26.72-11.26-6.42s5.04-15.83,11.26-19.42c6.22-3.59,11.26-.72,11.26,6.42s-5.04,15.83-11.26,19.42"/>
          <path class="uuid-b1a53d63-197d-474b-856f-592a2cda678e" d="M47.11,52.58c3.31-1.07,6.9-3.61,8.96-6.95l2.7-5.04s.02-.07.04-.11c1.03-2.94,1.37-5.61,1.37-5.61,0,0,0-3.8-.15-4.37-.15-.57-1.03-2.35-1.03-2.35l-1.84-2.28s1.09-.22,1.8.48c.71.7,2.35,2.5,2.48,5.75.13,3.24-.98,12.89-9.67,19.35-8.7,6.45-12.26-1.31-12.26-1.31,0,0,3.73,3.7,7.6,2.45"/>
          <path class="uuid-b2d158d0-acad-4a17-b90d-cd7dd6fa569d" d="M49.67,26.89c-5.95,3.44-10.78,11.76-10.78,18.59s5,9.77,10.96,6.34c5.95-3.44,11.03-11.68,11.03-18.51s-5.25-9.85-11.2-6.42M49.67,51.16c-5.73,3.31-10.37.66-10.37-5.91s4.64-14.58,10.37-17.89c5.73-3.31,10.37-.66,10.37,5.91s-4.64,14.58-10.37,17.89"/>
          <path class="uuid-3050c1e6-82a2-4f95-a05d-9e6a075a3ba6" d="M50.23,27.21c-5.95,3.44-10.78,11.76-10.78,18.59s4.83,9.58,10.78,6.15c5.95-3.44,10.78-11.76,10.78-18.59s-4.83-9.58-10.78-6.15M50.23,51.48c-5.73,3.31-10.37.66-10.37-5.91s4.64-14.58,10.37-17.89c5.73-3.31,10.37-.66,10.37,5.91s-4.64,14.58-10.37,17.89"/>
          <path class="uuid-b1a53d63-197d-474b-856f-592a2cda678e" d="M42.13,54.33s-1.26-.57-2.01-1.18c-.75-.61-3.24-5.24-2.41-9.49.83-4.24,2.55-10.16,6.53-14.01,3.98-3.85,7.48-5.67,10.08-5.56,2.6.1,3.51.45,3.51.45,0,0,1.27.49,2.03,1.3-.16.29-3.58-1.24-5.39-.91-1.81.33-6.61,2.35-10.04,7.02-3.43,4.68-5.21,9.58-5.28,12.36-.07,2.78.86,6.32,2.27,7.78,1.4,1.46.72,2.25.72,2.25"/>
          <path class="uuid-3ca8f0a0-c439-4ff0-9b1b-93d2d8ede43e" d="M50.5,26.82c-6.22,3.59-11.26,12.28-11.26,19.42s5.04,10.01,11.26,6.42c6.22-3.59,11.26-12.28,11.26-19.42s-5.04-10.01-11.26-6.42M50.5,52.1c-5.95,3.44-10.78.69-10.78-6.14s4.83-15.16,10.78-18.59c5.95-3.44,10.78-.68,10.78,6.15s-4.83,15.15-10.78,18.59"/>
          <path class="uuid-a7ce6d63-300f-4e67-865d-6ca863f1e020" d="M50.5,26.03c-6.6,3.81-11.94,13.03-11.94,20.6s5.35,10.62,11.94,6.81c6.59-3.81,11.94-13.03,11.94-20.6s-5.35-10.62-11.94-6.81M50.5,52.65c-6.22,3.59-11.26.72-11.26-6.42s5.04-15.83,11.26-19.42c6.22-3.59,11.26-.72,11.26,6.42s-5.04,15.83-11.26,19.42"/>
          <polygon class="uuid-228694a5-de55-46c2-8d77-4b1bbe25ced1" points="49.69 38.46 50.2 38.47 51.33 37.51 51.98 37.61 51.78 39.14 51.23 40.23 49.28 40.96 49.69 38.46"/>
          <polygon class="uuid-a935641a-a36b-435b-a48e-4d697a00858d" points="35.04 53.14 34.25 51.75 40.09 48.43 50.68 40.87 50.66 40.82 43.94 34.08 39.35 30.87 40.27 29.56 45.02 32.9 51.97 39.87 52.74 41.36 40.92 49.8 35.04 53.14"/>
          <path class="uuid-b1a53d63-197d-474b-856f-592a2cda678e" d="M11.94,46.7c-6.6,3.81-11.94,13.03-11.94,20.6s5.35,10.62,11.94,6.81c6.6-3.81,11.94-13.03,11.94-20.6s-5.35-10.62-11.94-6.81M11.94,73.32c-6.22,3.59-11.26.72-11.26-6.42s5.04-15.83,11.26-19.42c6.22-3.59,11.26-.72,11.26,6.42s-5.04,15.83-11.26,19.42"/>
          <path class="uuid-b1a53d63-197d-474b-856f-592a2cda678e" d="M9.93,74.05c3.31-1.07,6.9-3.61,8.96-6.95l2.7-5.04s.02-.07.04-.11c1.03-2.93,1.37-5.61,1.37-5.61,0,0,0-3.8-.15-4.37-.15-.57-1.03-2.35-1.03-2.35l-1.84-2.28s1.09-.23,1.8.47c.71.7,2.35,2.5,2.48,5.75.13,3.24-.98,12.89-9.67,19.35-8.7,6.45-12.26-1.31-12.26-1.31,0,0,3.73,3.7,7.6,2.45"/>
          <path class="uuid-b2d158d0-acad-4a17-b90d-cd7dd6fa569d" d="M12.49,48.35c-5.95,3.44-10.78,11.76-10.78,18.59s5,9.77,10.96,6.34c5.95-3.44,11.03-11.68,11.03-18.51s-5.25-9.85-11.2-6.42M12.49,72.62c-5.73,3.31-10.37.66-10.37-5.91s4.64-14.58,10.37-17.89c5.73-3.31,10.37-.66,10.37,5.91s-4.64,14.58-10.37,17.89"/>
          <path class="uuid-3050c1e6-82a2-4f95-a05d-9e6a075a3ba6" d="M13.05,48.67c-5.95,3.44-10.78,11.76-10.78,18.59s4.83,9.58,10.78,6.15c5.95-3.44,10.78-11.76,10.78-18.59s-4.83-9.58-10.78-6.14M13.05,72.94c-5.73,3.31-10.37.66-10.37-5.91s4.64-14.58,10.37-17.89c5.73-3.31,10.37-.66,10.37,5.91s-4.64,14.58-10.37,17.89"/>
          <path class="uuid-b1a53d63-197d-474b-856f-592a2cda678e" d="M4.95,75.8s-1.26-.57-2.01-1.18c-.75-.61-3.24-5.24-2.41-9.49.83-4.24,2.55-10.16,6.53-14.01,3.98-3.85,7.48-5.67,10.08-5.56,2.6.1,3.51.45,3.51.45,0,0,1.26.49,2.03,1.3-.16.29-3.58-1.24-5.39-.91-1.81.33-6.61,2.35-10.04,7.02-3.43,4.68-5.21,9.58-5.28,12.36-.07,2.78.86,6.32,2.27,7.78,1.4,1.46.72,2.25.72,2.25"/>
          <path class="uuid-3ca8f0a0-c439-4ff0-9b1b-93d2d8ede43e" d="M13.32,48.28c-6.22,3.59-11.26,12.28-11.26,19.42s5.04,10.01,11.26,6.42c6.22-3.59,11.26-12.28,11.26-19.42s-5.04-10.01-11.26-6.42M13.32,73.57c-5.95,3.44-10.78.69-10.78-6.15s4.83-15.15,10.78-18.59c5.95-3.44,10.78-.68,10.78,6.15s-4.83,15.15-10.78,18.59"/>
          <path class="uuid-a7ce6d63-300f-4e67-865d-6ca863f1e020" d="M13.32,47.5c-6.6,3.81-11.94,13.03-11.94,20.6s5.35,10.62,11.94,6.81c6.6-3.81,11.94-13.03,11.94-20.6s-5.35-10.62-11.94-6.81M13.32,74.12c-6.22,3.59-11.26.72-11.26-6.42s5.04-15.83,11.26-19.42c6.22-3.59,11.26-.71,11.26,6.42s-5.04,15.83-11.26,19.42"/>
          <path class="uuid-a935641a-a36b-435b-a48e-4d697a00858d" d="M35.36,51.4c-.32.35-.94.78-1.43.65-.06-.02-.11-.04-.16-.08-.09-.1-.07-.25-.03-.38.19-.71.44-1.4.61-2.11.16-.67.32-1.35.49-2.02.22-.92.45-1.85.67-2.77.26-1.09.52-2.17.78-3.26.28-1.16.56-2.32.84-3.48.28-1.15.55-2.29.83-3.44.25-1.05.5-2.09.76-3.14.21-.86.41-1.71.62-2.57.14-.58.28-1.16.42-1.74.05-.21.1-.42.15-.64l1.56.37c-.02.1-.05.19-.07.29-.12.49-.24.98-.36,1.48-.2.82-.4,1.65-.59,2.47l-.76,3.16c-.29,1.18-.57,2.37-.86,3.55-.29,1.21-.59,2.43-.88,3.64-.28,1.15-.55,2.29-.83,3.44-.23.98-.47,1.95-.71,2.93-.17.71-.34,1.41-.51,2.12-.05.22-.11.44-.16.66-.02.11-.01.21-.04.32,0,.03-.02.06-.03.08-.07.17-.21.34-.32.46"/>
          <rect class="uuid-a935641a-a36b-435b-a48e-4d697a00858d" x="26.32" y="37.83" width="1.6" height="18.39" transform="translate(-26.42 38.08) rotate(-50.54)"/>
          <rect class="uuid-a935641a-a36b-435b-a48e-4d697a00858d" x="19.81" y="32.66" width="20.91" height="1.6" transform="translate(-10.29 13.7) rotate(-21.9)"/>
          <path class="uuid-a935641a-a36b-435b-a48e-4d697a00858d" d="M19.75,44.07c-.22.09-.57.02-.75-.04-.19-.05-.37-.16-.49-.32-.2-.28-.04-.6.03-.89.26-1.03.52-2.06.78-3.08.27-1.08.54-2.15.82-3.23.09-.35.18-.71.27-1.06.04-.14.05-.38.14-.5.18-.24.78-.21,1.02-.11.08.03.16.09.22.14.42.34.17.87.06,1.3-.26,1.01-.51,2.02-.77,3.04-.28,1.12-.57,2.24-.85,3.36-.1.4-.15.87-.32,1.25-.03.07-.09.12-.16.15"/>
          <path class="uuid-a935641a-a36b-435b-a48e-4d697a00858d" d="M15.04,62.42l-1.31-.92,2.42-3.45c1.25-4.09,3.21-10.62,3.39-11.48-.06-.33-.59-1.74-1.05-2.88l1.48-.61c.54,1.31,1.18,2.98,1.18,3.51,0,.15,0,.61-3.5,12.05l-.04.12-2.56,3.65Z"/>
          <path class="uuid-fd2e31b0-4bbe-49a6-90a0-e5059844f08b" d="M21.58,35.19c-.15.01-.32-.02-.46-.07-.1-.03-.26-.08-.28-.21-.01-.08.04-.16.04-.24,0-.09.06-.18.06-.27.09-.39.19-.79.28-1.18l.3-1.27c.04-.18.1-.35.13-.53.03-.13.01-.2.14-.28.23-.13.59-.06.78.1.16.13.13.34.08.51-.08.35-.17.7-.25,1.05-.11.45-.22.9-.32,1.36-.04.18-.08.35-.13.53-.03.14-.05.36-.19.44-.06.04-.13.04-.2.05"/>
          <path class="uuid-2e45ad2d-fb8c-43e1-9e2a-2e1cbd030cd2" d="M27.71,38.28l.25-1.39-4.07-1.61c-.11-.01-.23.05-.34.18-.21.27-.32.64-.18.95.07.15.16.24.27.26h0s0,0,0,0h0l4.06,1.61Z"/>
          <path class="uuid-bfb735a3-83c1-4948-9c26-61c57e370a42" d="M27.43,38.02c.13.31.41.35.61.07.21-.27.32-.64.18-.95-.13-.31-.41-.35-.61-.07-.21.27-.32.64-.18.95"/>
          <path class="uuid-2e45ad2d-fb8c-43e1-9e2a-2e1cbd030cd2" d="M11.32,29.59l.88-1.11-2.81-3.35c-.09-.07-.23-.07-.38,0-.31.14-.58.41-.62.75-.02.17.03.29.12.36h0s0,0,0,0h0s2.81,3.35,2.81,3.35Z"/>
          <path class="uuid-c1a6c603-7b28-4da9-9ac3-1b70ffd61dea" d="M21.97,32.19c-.17.16-.39.12-.6.11-.23-.01-.45-.02-.68-.03-.52-.02-1.04-.04-1.56-.07-.09,0-1.54-.07-1.54-.07l.04-1.07c.68.03,1.36.06,2.04.09.44.02.89.04,1.33.06.19,0,.37.02.55.02.18,0,.42-.01.54.15.05.07.06.15.06.23,0,.12-.03.24-.07.35-.02.07-.05.13-.1.18-.01.01-.02.02-.03.03"/>
          <path class="uuid-3ca8372d-ad97-4e72-ad7f-fc19f4bde470" d="M40.71,20.57c2.17-.09,3,.3,3.51.76.51.47,1.7,2.27.79,3.1-.91.83-2.84.67-3.26.93-.43.26-7.22,3.04-7.79,3.06-.57.02-.51-1.03.24-1.8.75-.77,4.7-4.87,4.85-5.13.14-.26,1.28-.91,1.66-.92"/>
          <polygon class="uuid-c8dab123-0cc5-4e24-bb7f-26f32b58ca13" points="34.7 54.11 38.7 49.53 37.76 48.46 33.76 53.04 34.7 54.11"/>
          <path class="uuid-6dc2881f-91f6-4e8d-863e-e12b5cbfe1e7" d="M37.27,50.17c0,.38.26.53.59.34.33-.19.59-.65.59-1.02s-.27-.53-.59-.34c-.33.19-.59.65-.59,1.02"/>
          <polygon class="uuid-6dc2881f-91f6-4e8d-863e-e12b5cbfe1e7" points="37.43 50.55 38.33 51.07 39.18 49.63 38.29 49.12 37.43 50.55"/>
          <path class="uuid-f340086f-d489-4acb-aeb8-2dadea05f388" d="M38.15,50.68c0,.38.26.53.59.34.33-.19.59-.65.59-1.02s-.27-.53-.59-.34c-.33.19-.59.65-.59,1.02"/>
          <polygon class="uuid-79509f20-af1b-41d1-910c-434cbd7bccd8" points="44.49 50.98 40.93 54.66 36.87 52.32 36.87 50.68 40.42 48.63 44.49 50.98"/>
          <polygon class="uuid-e3d3537d-208f-4e3c-a198-b8094d161d0a" points="44.49 52.61 40.93 54.66 40.93 53.03 44.49 50.98 44.49 52.61"/>
          <path class="uuid-2bcc8f6e-5b62-495d-923b-3a856e6b48d8" d="M40.34,49.03c.31.22.51.38.5.86,0,.48.02,1.07-.09,1.2-.11.12-.65,1.2-.75,1.56-.1.35-.17,1.08-.52,1.84-.36.76-.79,1.09-1.54,1.34-.75.25-1.83.01-2.22-.09-.39-.1-.76-.38-.82-.51-.06-.13.07-.62.22-.85.15-.23,2.94-2.91,2.94-2.91l2.29-2.44Z"/>
          <path class="uuid-e6472654-c0de-49d9-8229-ff1d3fc57c34" d="M39.78,48.51c.38.34.91.79.93,1.09.02.3-.22,1.42-.47,1.85-.25.43-.53,1.35-.65,1.98-.12.63-.22,1.42-.84,1.76-.61.33-1.66.72-2.59.45-.93-.28-1.05-.41-1.17-.7-.12-.29.23-.99.23-.99l.92-1.67s.92-2.45,1.16-3.11c.24-.66,1.87-.71,1.87-.71l.62.05Z"/>
          <g class="uuid-9b0d15ea-b14a-4770-886a-bfac6fea8677">
            <rect class="uuid-78332d24-42de-4450-8438-2c51a4d8d8f8" x="35.04" y="47.25" width="6.86" height="4.16" transform="translate(-13.68 83.86) rotate(-85.57)"/>
          </g>
          <path class="uuid-4701a8f5-42c7-4ce6-a5cc-3dba7d7deb2a" d="M29.89,22.42c.22,1.7,1.6,2.94,1.96,3.63.36.69.95,1.23,1.19,1.33.24.1,1.16.11,1.42-.03.26-.14.44,1.21.46,1.56.01.35-.35,3.69-.45,5.78-.1,2.09.46,4.6.9,5.63.44,1.04,1.55,6.11,1.69,6.73.14.63,1.02,1.23,2.04,1.31,1.02.08,1.67-.32,1.67-.32,0,0-.53-5.08-.47-6.69.06-1.62-.48-3.71-.43-4.18.06-.47,1.2-5.19,1.77-7.7.57-2.51.9-5.21.44-6.96-.46-1.74-1.41-3.07-2.54-4.12-1.13-1.05-2.65-1.71-3.61-2.23-.97-.51-6.04,6.27-6.04,6.27"/>
          <path class="uuid-07206856-450b-4a6a-b083-defb9360409d" d="M38.68,21.43c-.45,1.05-1.16,2.17-1.96,2.99-.15.16-.32.31-.43.49-.2.3-.26.66-.32,1.02-.42,2.38-1.38,7.99-1.18,9.42.03.26.3,2.65.44,2.87.3.47.92.65,1.46.53.54-.12,1-.49,1.34-.92,1.1-1.36,1.25-3.23,1.55-4.95.32-1.87.86-3.7,1.22-5.57.18-.95.52-1.85.73-2.78.3-1.32-.01-2.92-.65-4.05-.23-.41-1.59-2.28-2.18-1.95-.3.16.21,1.02.25,1.26.1.57-.04,1.13-.27,1.65"/>
          <path class="uuid-efecea55-576e-41b4-8d19-23e0badb0d0a" d="M39.87,48.31s-.37-2.36-.57-4.97c-.09-1.17-.23-2.52-.35-3.62-.07-.68-.13-1.26-.16-1.61-.08-.92.19-1.75.77-3.56l.03-.1c.58-1.8,1.41-5.27,1.71-6.94.32-1.75.5-3.31-.38-4.67-.92-1.43-3.65-3.29-3.68-3.31l.21-.31c.11.08,2.82,1.93,3.78,3.41,1.04,1.6.69,3.53.44,4.93-.3,1.68-1.14,5.17-1.72,6.99l-.03.1c-.56,1.76-.82,2.57-.75,3.41.03.35.09.92.16,1.6.12,1.09.26,2.45.35,3.62.2,2.6.56,4.92.56,4.95l-.36.06Z"/>
          <path class="uuid-efecea55-576e-41b4-8d19-23e0badb0d0a" d="M35.64,23.73c-.47,0-.91-.19-1.29-.58l.26-.26c.83.85,1.75.36,2.22-.01.69-.54,1.94-2.37,1.95-2.39l.3.21c-.05.08-1.29,1.9-2.03,2.47-.48.37-.97.56-1.43.56"/>
          <path class="uuid-f3218d5b-3e80-49c2-865f-623e65a5a364" d="M37.18,16.79c.45.63.68,2.19.1,3.3-.58,1.11-2.27,3.05-3.79,3.57-1.52.52-1.62.22-2.56.4s-2.05.36-2.61.17c-.55-.2-1.03-.54-1.15-.69-.12-.15-.23-1.01-.23-1.01l7.67-5.94,1.18-.47,1.39.67Z"/>
          <path class="uuid-4701a8f5-42c7-4ce6-a5cc-3dba7d7deb2a" d="M38.31,18.56c-.67-.36-1.42-.6-2.14-.82l.22-.71c.76.23,1.55.47,2.28.88l-.35.65Z"/>
          <path class="uuid-4701a8f5-42c7-4ce6-a5cc-3dba7d7deb2a" d="M34.2,24.39c-.21-.15-.32-.37-.41-.53l-.67-1.25c-.09-.17-.24-.44-.17-.76l.72.16s.07.2.1.25l.67,1.25c.06.11.13.24.2.29l-.44.59Z"/>
          <path class="uuid-fd2e31b0-4bbe-49a6-90a0-e5059844f08b" d="M11.37,27.42s-.1-.32-.43-.03c-.33.29-.52.97-.52.97l.9,1.23s.86-.96.88-1.11c.02-.15-.83-1.06-.83-1.06"/>
          <path class="uuid-bfb735a3-83c1-4948-9c26-61c57e370a42" d="M11.19,29.23c-.03.34.19.5.5.36.31-.14.58-.41.62-.75.03-.34-.19-.5-.51-.36-.31.14-.58.41-.61.75"/>
          <path class="uuid-fd2e31b0-4bbe-49a6-90a0-e5059844f08b" d="M25.58,37.38c-.9.3-2.45-.62-2.75-1.18-.08-.15-.13-.35-.19-.59-.06-.25-.15-.62-.26-.75-.35-.29-4.2-2.34-6.05-3.32-.76-.4-1.35-.72-1.59-.85-.67-.37-1.03-.6-1.2-.71-.32-.03-1.07-.12-1.67-.35-.09-.03-.21-.06-.24-.15-.04-.12-.01-.3,0-.42,0-.04.01-.08.03-.12.02-.04.05-.07.08-.1.08-.07.16-.14.26-.19.11-.06.14-.06.25-.01.51.2,1.27.28,1.51.3h.15s.12.1.12.1c0,0,.31.22,1.22.73.24.13.83.44,1.58.84,5.23,2.78,6.17,3.33,6.37,3.59.27.33.38.8.47,1.18.03.12.07.29.09.34.08.12.73.65,2.33.74l-.52.93Z"/>
          <path class="uuid-2bbde421-7aa1-44df-9dfb-d3ecdbea6349" d="M22.6,7.34s-1.3.45-2.17,1.39c-.86.94-1.1,1.38-1.1,1.38,0,0-.36,1.09.19,2.07.55.98,2.32,1.53,2.41,1.68.09.15,1.01.58,1.01.58l1.93-3.45-1.26-2.45-1.03-1.2Z"/>
          <path class="uuid-386767e2-207a-4df0-ae9f-28cdb9ecf37c" d="M35.62,20.56c-.76,1.3-2.08,2.22-3.36,2.76-.61.26-1.2.43-1.73.52-1.49.26-2.76-.04-3.22-.6-.05-.06-.09-.11-.12-.18-.32-.66-.6-1.3-.97-1.74-.38-.44-2.47-.97-3.11-1.76-.64-.79-1.12-1.42-1.76-3.01-.64-1.59-1.22-3.4-1.19-4.8.03-1.39.56-2.14,1.27-2.27.71-.13,3.75-.65,5.06-.82,1.31-.16,1.75.01,3.67.64,0,0,1.23.32,2.06.74.83.41,1.8,1.4,2.24,3.22.43,1.82,1.79,3.22,1.98,3.65.19.42.3,1.75-.82,3.66"/>
          <path class="uuid-386767e2-207a-4df0-ae9f-28cdb9ecf37c" d="M32.68,22.66c-.13.22-.27.44-.41.66-.61.26-1.2.43-1.73.52-1.49.26-2.76-.04-3.22-.6.78-.18,1.4-.88,1.7-1.64.33-.85.35-1.79.44-2.7.11-1.17.14-3.2,1.2-3.96,1.32-.94,2.11.83,2.31,1.86.4,1.96.68,4.11-.3,5.85"/>
          <g class="uuid-6519195a-a922-4455-886e-ccbe156a4225">
            <rect class="uuid-aa77d737-4b9c-44b9-9531-1d44d24127dd" x="21.16" y="6.45" width="10.06" height="7.2" transform="translate(14.15 35.39) rotate(-85.57)"/>
          </g>
          <g class="uuid-d1f4e94d-8631-4e37-a847-62916a401313">
            <rect class="uuid-ad7c8568-4e96-4c26-a764-3b239cb5d759" x="18.34" y="4.05" width="10.08" height="7.61" transform="translate(13.74 30.56) rotate(-85.57)"/>
          </g>
          <path class="uuid-ef8a02d2-edc7-4b97-a5a0-93d55aa95507" d="M23.17,4.77c.25.39,1.35.73,1.84,1.21.49.48.7,1.11.78,1.52.08.41.65,1.53.65,1.53,0,0,.1-.59.18-.95.08-.36.82-.69.82-.69l.28,1.02-.19.59.25.45s.64-.75.73-1.28c.08-.53.24-2.63.12-3.68-.12-1.05-.96-2-1.6-2.35-1.03-.65-2.31-.77-3.23-.48s-2.2,1.06-2.61,1.48c-.41.42-1.19,1.24-.87,2,.4-.59.86-.62,1.03-.52.18.11.89.22,1.14.23.26,0,.68-.1.68-.1"/>
          <path class="uuid-5b821a8a-0988-483e-92a5-16c0039953a6" d="M28.12,5.44c.01.54-.36,2.77-.67,3.3-.32.52-.97,1.06-.97,1.06,0,0-.47,1.11-.18.94.29-.17.88-.81,1.35-1.53.47-.71.74-2.14.88-3.12.14-.98.07-1.34.07-1.34l-.47.69Z"/>
          <path class="uuid-5b821a8a-0988-483e-92a5-16c0039953a6" d="M25.95,5.99c.3.64-.13,4.68-.52,5.22.38-.2.81-.34.88-.44.08-.1.2-1.19.38-2.81.04-2.41-.15-2.97-.15-2.97l-.6,1.01Z"/>
          <g class="uuid-15fdf3f0-4292-414e-9057-01a57ec17147">
            <rect class="uuid-b8c7059e-aaff-4d12-b505-a27ad073a77f" x="26.27" y="7.43" width="2.19" height="1.55" transform="translate(17.07 34.86) rotate(-85.57)"/>
          </g>
          <g class="uuid-8b244fb9-9c68-44d8-ae92-3dde0e57f054">
            <rect class="uuid-d9411123-5009-4ef5-b017-9d9b7b1b7837" x="19.93" y="6.83" width="1.74" height="5.69"/>
          </g>
          <path class="uuid-2e45ad2d-fb8c-43e1-9e2a-2e1cbd030cd2" d="M27.74,36.8c-.63-.25-1.27-.54-1.92-.73-.04-.01-.08-.02-.12-.04-.03,0-.07-.02-.1-.01-.03,0-.06.02-.09.04-.06.05-.13.09-.19.14-.06.05-.11.09-.16.15-.04.05-.07.11-.09.18-.05.13-.08.27-.07.4,0,.11.05.26.14.33.07.05.18.08.26.11.2.08.4.16.6.24.31.12.62.24.93.37.02,0,.04.01.05.02.22-.42.48-.81.76-1.19"/>
          <path class="uuid-75fde5a2-c02b-446a-96e5-2e700422ae67" d="M27.31,6.17c-2.15,1.65-4.66,1.88-6.6,1.26-1.93-.62-2.56-1.85-.41-3.5,2.15-1.65,6.25-3.1,8.19-2.48,1.93.62.97,3.07-1.18,4.72"/>
          <path class="uuid-75fde5a2-c02b-446a-96e5-2e700422ae67" d="M27.22,5.62c-2.15,1.65-4.66,1.88-6.6,1.26-1.93-.62-2.56-1.85-.41-3.5,2.15-1.65,6.25-3.1,8.19-2.48,1.93.62.97,3.07-1.18,4.72"/>
          <path class="uuid-386767e2-207a-4df0-ae9f-28cdb9ecf37c" d="M26.88,5.42c-2.03,1.56-4.42,1.78-6.25,1.19-1.83-.59-2.42-1.75-.39-3.31,2.03-1.56,5.92-2.93,7.76-2.35,1.83.59.92,2.91-1.12,4.47"/>
          <path class="uuid-386767e2-207a-4df0-ae9f-28cdb9ecf37c" d="M27.55,4.84c-1.61,1.78-8.56.37-8.56.37,0,0-.09-2.47,1.46-3.68,3-2.33,5.85-1.46,7.57-.9,1.73.55,1.65,1.86-.47,4.21"/>
          <path class="uuid-5b821a8a-0988-483e-92a5-16c0039953a6" d="M27.42,2.48c-.53-.18-1.62.27-2.26,1.99-.64,1.73,1.38-.13,2-.65.62-.52.62-1.22.27-1.34"/>
          <path class="uuid-5b821a8a-0988-483e-92a5-16c0039953a6" d="M25.55.51c-1.34-.47-5.01,1.53-4.12,1.92,1,.21,1.15.03,1.83-.35.85-.47,1.51-1.08,2.47-1.19.96-.11-.18-.39-.18-.39"/>
          <polygon class="uuid-a935641a-a36b-435b-a48e-4d697a00858d" points="51.89 39.75 52.4 39.76 53.53 38.8 54.18 38.91 53.98 40.43 53.43 41.53 51.47 42.26 51.89 39.75"/>
          <path class="uuid-af2c62d2-eada-4f04-8889-9915d2aee0c8" d="M4.35,65.95c-.42.14-.63-.48-.48-1.39.15-.9.62-1.75,1.04-1.89.42-.14.63.48.48,1.39-.15.9-.62,1.75-1.04,1.88"/>
          <path class="uuid-ebdca75b-756c-40ee-b170-97475c20085a" d="M4.52,66.05c-.42.14-.63-.48-.48-1.39.15-.9.62-1.75,1.04-1.89.42-.14.63.48.48,1.39-.15.9-.62,1.75-1.04,1.88"/>
          <path class="uuid-af2c62d2-eada-4f04-8889-9915d2aee0c8" d="M57.01,38.64c-.42.14-.63-.48-.48-1.39.15-.9.62-1.75,1.04-1.89.42-.14.63.48.48,1.39-.15.9-.62,1.75-1.04,1.88"/>
          <path class="uuid-ebdca75b-756c-40ee-b170-97475c20085a" d="M57.17,38.74c-.42.14-.63-.48-.48-1.39.15-.9.62-1.75,1.04-1.89.42-.14.63.48.48,1.39-.15.9-.62,1.75-1.04,1.88"/>
          <g class="uuid-d86de824-43f0-421f-9297-51df20fbe367">
            <rect class="uuid-bd2c4e40-50e7-4700-a870-8648c17df3bc" x="48.64" y="20.82" width="6.13" height="6.17" transform="translate(-1.23 44.96) rotate(-46.5)"/>
          </g>
          <path class="uuid-b1e0efe3-3858-4458-9136-70f42d565b75" d="M31.45,14.65c2.48,1.68,18.12,8.45,18.12,8.45,1.43,2.25,3.14,1.93,3.3,1.46.11-.34-2.42-2.51-2.42-2.51l-1.57-1.27-14.56-9.44-2.86,3.31Z"/>
          <path class="uuid-5c95baab-c992-42c3-a969-4b36e8ee9ebd" d="M8.44,26.99s-.22-.34-.13-.67c.07-.23.39-.46.58-.59.45-.3,1.19.06,2.16-.7l.84,1.53s-1.16.4-1.58,1.11c-.33.57-.14,1.12-.42,1.35-.6.49-.07-1.21-.07-1.21,0,0-.44.16-.67.2-.23.03-.72-.59-.71-1.02"/>
          <path class="uuid-5c95baab-c992-42c3-a969-4b36e8ee9ebd" d="M8.2,27.45c-.03-.11.02-.9.13-1.21l.33.63s-.09.64-.06.79c0,0-.28.18-.39-.2"/>
          <path class="uuid-5c95baab-c992-42c3-a969-4b36e8ee9ebd" d="M8.63,27.22s-.09.53.1.74c.18.21.44.01.49-.02.04-.03-.58-.72-.58-.72"/>
          <path class="uuid-5c95baab-c992-42c3-a969-4b36e8ee9ebd" d="M9.18,27.61c0,.1-.12.39.06.68.18.29.85-.46.85-.46l-.92-.22Z"/>
          <path class="uuid-5c95baab-c992-42c3-a969-4b36e8ee9ebd" d="M11.48,26.7s.14.38.19.54c.09.28-.02.51-.02.51,0,0-.72-.65-.86-.79l.69-.26Z"/>
          <path class="uuid-59150d97-d744-49fc-b8dd-e30376f7cf47" d="M18.88,31.84c3.23-2.01,3.74-5.52,1.14-7.83-2.6-2.31-7.33-2.56-10.56-.55s-3.74,5.52-1.14,7.83"/>
          <path class="uuid-2bbde421-7aa1-44df-9dfb-d3ecdbea6349" d="M30.63,12.11c-.2,1.01.02,1.96.86,2.69s1.44.94,1.44.94c0,0-.24-.52.02-2.29.17-1.11,1.86-1.99,1.86-1.99,0,0-1.74-1.06-2.56-1.22s-1.49,1.21-1.62,1.86"/>
          <path class="uuid-5c95baab-c992-42c3-a969-4b36e8ee9ebd" d="M19.43,10.7s-1.63,8.53-2.04,9.04c-.41.51-7.66,6.23-7.66,6.43s.72,1,1.74.6c1.02-.41,6.4-3.73,7.17-4.39.77-.66,1.66-1.54,1.99-2.25.36-.77,2.1-4.96,2.1-4.96l-3.29-4.47Z"/>
          <path class="uuid-2bcc8f6e-5b62-495d-923b-3a856e6b48d8" d="M29.12,56.41c.47.07.7.4.78.62.08.22.21.66.15.88-.07.22-.68,1.38-.97,1.69-.29.31-.41.35-.41.35,0,0-.43.18-.59.6-.16.42-.84,2-1.04,2.31-.2.31-1.3,1.11-1.76,1.29-.46.19-1.05.12-1.41.02-.36-.11-.79-.62-.94-.89-.15-.26.02-.99.16-1.34.14-.35,4.13-3.32,4.13-3.32l1.9-2.21Z"/>
          <path class="uuid-e6472654-c0de-49d9-8229-ff1d3fc57c34" d="M27.89,55.15c.32-.11.86.15,1.19.49.33.34.73,1.21.76,1.61.02.4-.47,1.03-1.08,1.8-.61.77-1.03,1.52-1.3,2.13-.28.61-.59,1.61-.88,1.89-.29.29-1.47.96-2.23.87-.75-.09-1.18-.6-1.38-.95-.19-.35-.03-.76-.04-1,0-.24.24-1.2.52-1.63.28-.43.92-1.2,1.05-1.62s.09-.99.34-1.46c.25-.47,3.04-2.12,3.04-2.12"/>
          <g class="uuid-daafaae2-5f40-4168-9b08-645408d9ba47">
            <g class="uuid-d7fb6d6d-e60b-4645-96b3-db339d3917fe">
              <rect class="uuid-1197c94b-586e-4851-80a0-bc59a749c9ea" x="22.08" y="52.75" width="9.42" height="6.41" transform="translate(-31.06 78.34) rotate(-85.57)"/>
            </g>
          </g>
          <path class="uuid-4701a8f5-42c7-4ce6-a5cc-3dba7d7deb2a" d="M36.17,24.05c-.31,1.09-.67,2.03-.81,2.42-.37.98-2.74,5.71-3.65,7.96-.91,2.25-2.15,6.73-2.31,6.95-.16.22-.15.8-.16,2.05,0,1.25-.42,9.81-.45,9.88-.01.03-.17.08-.41.13-.29.06-.7.12-1.15.16-.83.07-2.45-.6-2.58-1.07-.13-.47.05-4.11-.01-6.37-.05-2.26-.21-4.92,0-6.46.21-1.54.73-5.67,1.46-9.31.73-3.63,1.51-6.37,1.51-6.37,0,0,.25-1.35,1.11-2.54l4.61-3.5s2.13-.14,3.11,1.41c.6.94.21,2.99-.27,4.67"/>
          <path class="uuid-efecea55-576e-41b4-8d19-23e0badb0d0a" d="M27.57,53.61l-.37-.05c0-.09.96-9.14,1.26-11.25.27-1.87.59-3.32.8-3.69.05-.08.28-.72.54-1.4.61-1.65,1.64-4.4,2.44-6.05.38-.78.77-1.62,1.14-2.4.94-1.99,1.44-3.04,1.6-3.22l.25.31c-.14.16-.85,1.66-1.54,3.11-.37.78-.77,1.62-1.14,2.4-.79,1.63-1.81,4.37-2.42,6.01-.35.95-.51,1.37-.57,1.47-.13.21-.43,1.33-.74,3.52-.3,2.11-1.25,11.14-1.26,11.23"/>
          <g class="uuid-82b7d5c4-9b4e-40c2-b46d-a3545d52aa18">
            <g class="uuid-344b1173-5dc2-458e-ad0b-32b04372fbde">
              <g class="uuid-1c594586-7c70-4e15-95ef-6286cf3fe332">
                <path class="uuid-5aeba0ed-f65e-4114-9c88-2bd02e25f7ef" d="M36.17,24.05c-.31,1.09-.67,2.03-.81,2.42-.37.98-2.74,5.71-3.65,7.96-.91,2.25-2.15,6.73-2.31,6.95-.16.22-.15.8-.16,2.05,0,1.25-.42,9.81-.45,9.88-.01.03-.17.08-.41.13.48-2.83.66-5.73.52-8.61-.08-1.53-.24-3.09.09-4.57.17-.77.47-1.49.76-2.21,1.19-2.96,2.23-5.99,3.28-9.02.07-.2.14-.41.13-.63-.02-.31-.19-.57-.28-.86-.22-.71-.13-2.26.35-2.86.65-.81,2.01-.9,2.87-.66.03,0,.06.02.09.03"/>
              </g>
            </g>
          </g>
          <path class="uuid-07206856-450b-4a6a-b083-defb9360409d" d="M31.8,31.24c-.25.64-.51,1.27-.8,1.87-.47.94-.84,2-1.22,2.99-.46,1.2-.83,2.72-1.54,3.73-.59.83-1.86,1.41-2.63.54-.87-.97-.21-2.3.32-3.19l2.84-4.82c.33-.55.8-1.83,1.33-2.11.17-.09.48-.07.67-.12.67-.18,1.29-.93,1.95-.99-.08.14-.15.27-.23.41-.24.55-.46,1.13-.68,1.7"/>
          <path class="uuid-47ee697d-aa13-49a8-acae-fda4d0b7e22a" d="M29.86,5.98c-.08.94.1,2.02.95,2.46.44.23,1.52.5,1.92.25-.02.82-.39,1.88-1.01,2.29-.58.39-.6.74-1.25.87-.58.11-1.18.2-1.78.04-.9-.24-1.66-1.06-2.09-2.01-.88-1.93-.57-3.78.09-5.57.09-.25.18-.5.35-.69.5-.58,1.39-.82,2.07-.36.75.51.83,1.87.75,2.72"/>
          <polygon class="uuid-79509f20-af1b-41d1-910c-434cbd7bccd8" points="31.03 54.72 27.47 58.4 23.41 56.06 23.41 54.43 26.96 52.37 31.03 54.72"/>
          <polygon class="uuid-e3d3537d-208f-4e3c-a198-b8094d161d0a" points="31.03 56.35 27.47 58.4 27.47 56.77 31.03 54.72 31.03 56.35"/>
          <polygon class="uuid-c8dab123-0cc5-4e24-bb7f-26f32b58ca13" points="29.98 57.5 33.98 52.92 33.03 51.86 29.04 56.43 29.98 57.5"/>
          <path class="uuid-6dc2881f-91f6-4e8d-863e-e12b5cbfe1e7" d="M28.52,56.65c0,.38.26.53.59.34.33-.19.59-.65.59-1.02s-.27-.53-.59-.34c-.33.19-.59.65-.59,1.02"/>
          <polygon class="uuid-6dc2881f-91f6-4e8d-863e-e12b5cbfe1e7" points="28.68 57.02 29.58 57.54 30.43 56.1 29.54 55.59 28.68 57.02"/>
          <path class="uuid-f340086f-d489-4acb-aeb8-2dadea05f388" d="M29.4,57.16c0,.38.26.53.59.34.33-.19.59-.65.59-1.02s-.27-.53-.59-.34c-.33.19-.59.65-.59,1.02"/>
          <path class="uuid-6dc2881f-91f6-4e8d-863e-e12b5cbfe1e7" d="M31.89,54.19c0,1.83,1.29,2.56,2.88,1.64,1.59-.92,2.89-3.15,2.89-4.98s-1.29-2.56-2.89-1.64c-1.59.92-2.88,3.15-2.88,4.97"/>
          <polygon class="uuid-6dc2881f-91f6-4e8d-863e-e12b5cbfe1e7" points="32.68 56.01 33.34 56.39 37.48 49.39 36.87 49.04 32.68 56.01"/>
          <path class="uuid-f340086f-d489-4acb-aeb8-2dadea05f388" d="M32.48,54.53c0,1.83,1.29,2.56,2.88,1.64,1.59-.92,2.89-3.15,2.89-4.98s-1.29-2.56-2.89-1.64c-1.59.92-2.88,3.15-2.88,4.97"/>
          <polygon class="uuid-228694a5-de55-46c2-8d77-4b1bbe25ced1" points="12.77 60.27 11.21 59.92 12.07 56.17 16.13 43.5 18.99 42.45 19.55 43.95 17.42 44.73 13.6 56.62 12.77 60.27"/>
          <polygon class="uuid-228694a5-de55-46c2-8d77-4b1bbe25ced1" points="35.13 52 33.88 51 37.12 46.9 48.29 39.89 48.28 39.7 41.54 33.26 39.22 30.76 40.4 29.68 42.68 32.14 49.86 38.99 49.92 40.76 38.2 48.11 35.13 52"/>
          <path class="uuid-b1a53d63-197d-474b-856f-592a2cda678e" d="M49.12,25.23c-6.6,3.81-11.94,13.03-11.94,20.6s5.35,10.62,11.94,6.81c6.6-3.81,11.94-13.03,11.94-20.6s-5.35-10.62-11.94-6.81M49.12,51.86c-6.22,3.59-11.26.72-11.26-6.42s5.04-15.83,11.26-19.42c6.22-3.59,11.26-.72,11.26,6.42s-5.04,15.83-11.26,19.42"/>
          <path class="uuid-b1a53d63-197d-474b-856f-592a2cda678e" d="M47.11,52.58c3.31-1.07,6.9-3.61,8.96-6.95l2.7-5.04s.02-.07.04-.11c1.03-2.94,1.37-5.61,1.37-5.61,0,0,0-3.8-.15-4.37-.15-.57-1.03-2.35-1.03-2.35l-1.84-2.28s1.09-.22,1.8.48c.71.7,2.35,2.5,2.48,5.75.13,3.24-.98,12.89-9.67,19.35-8.7,6.45-12.26-1.31-12.26-1.31,0,0,3.73,3.7,7.6,2.45"/>
          <path class="uuid-b2d158d0-acad-4a17-b90d-cd7dd6fa569d" d="M49.67,26.89c-5.95,3.44-10.78,11.76-10.78,18.59s5,9.77,10.96,6.34c5.95-3.44,11.03-11.68,11.03-18.51s-5.25-9.85-11.2-6.42M49.67,51.16c-5.73,3.31-10.37.66-10.37-5.91s4.64-14.58,10.37-17.89c5.73-3.31,10.37-.66,10.37,5.91s-4.64,14.58-10.37,17.89"/>
          <path class="uuid-3050c1e6-82a2-4f95-a05d-9e6a075a3ba6" d="M50.23,27.21c-5.95,3.44-10.78,11.76-10.78,18.59s4.83,9.58,10.78,6.15c5.95-3.44,10.78-11.76,10.78-18.59s-4.83-9.58-10.78-6.15M50.23,51.48c-5.73,3.31-10.37.66-10.37-5.91s4.64-14.58,10.37-17.89c5.73-3.31,10.37-.66,10.37,5.91s-4.64,14.58-10.37,17.89"/>
          <path class="uuid-b1a53d63-197d-474b-856f-592a2cda678e" d="M42.13,54.33s-1.26-.57-2.01-1.18c-.75-.61-3.24-5.24-2.41-9.49.83-4.24,2.55-10.16,6.53-14.01,3.98-3.85,7.48-5.67,10.08-5.56,2.6.1,3.51.45,3.51.45,0,0,1.27.49,2.03,1.3-.16.29-3.58-1.24-5.39-.91-1.81.33-6.61,2.35-10.04,7.02-3.43,4.68-5.21,9.58-5.28,12.36-.07,2.78.86,6.32,2.27,7.78,1.4,1.46.72,2.25.72,2.25"/>
          <path class="uuid-3ca8f0a0-c439-4ff0-9b1b-93d2d8ede43e" d="M50.5,26.82c-6.22,3.59-11.26,12.28-11.26,19.42s5.04,10.01,11.26,6.42c6.22-3.59,11.26-12.28,11.26-19.42s-5.04-10.01-11.26-6.42M50.5,52.1c-5.95,3.44-10.78.69-10.78-6.14s4.83-15.16,10.78-18.59c5.95-3.44,10.78-.68,10.78,6.15s-4.83,15.15-10.78,18.59"/>
          <path class="uuid-a7ce6d63-300f-4e67-865d-6ca863f1e020" d="M50.5,26.03c-6.6,3.81-11.94,13.03-11.94,20.6s5.35,10.62,11.94,6.81c6.59-3.81,11.94-13.03,11.94-20.6s-5.35-10.62-11.94-6.81M50.5,52.65c-6.22,3.59-11.26.72-11.26-6.42s5.04-15.83,11.26-19.42c6.22-3.59,11.26-.72,11.26,6.42s-5.04,15.83-11.26,19.42"/>
          <polygon class="uuid-228694a5-de55-46c2-8d77-4b1bbe25ced1" points="49.69 38.46 50.2 38.47 51.33 37.51 51.98 37.61 51.78 39.14 51.23 40.23 49.28 40.96 49.69 38.46"/>
          <polygon class="uuid-a935641a-a36b-435b-a48e-4d697a00858d" points="35.04 53.14 34.25 51.75 40.09 48.43 50.68 40.87 50.66 40.82 43.94 34.08 39.35 30.87 40.27 29.56 45.02 32.9 51.97 39.87 52.74 41.36 40.92 49.8 35.04 53.14"/>
          <path class="uuid-b1a53d63-197d-474b-856f-592a2cda678e" d="M11.94,46.7c-6.6,3.81-11.94,13.03-11.94,20.6s5.35,10.62,11.94,6.81c6.6-3.81,11.94-13.03,11.94-20.6s-5.35-10.62-11.94-6.81M11.94,73.32c-6.22,3.59-11.26.72-11.26-6.42s5.04-15.83,11.26-19.42c6.22-3.59,11.26-.72,11.26,6.42s-5.04,15.83-11.26,19.42"/>
          <path class="uuid-b1a53d63-197d-474b-856f-592a2cda678e" d="M9.93,74.05c3.31-1.07,6.9-3.61,8.96-6.95l2.7-5.04s.02-.07.04-.11c1.03-2.93,1.37-5.61,1.37-5.61,0,0,0-3.8-.15-4.37-.15-.57-1.03-2.35-1.03-2.35l-1.84-2.28s1.09-.23,1.8.47c.71.7,2.35,2.5,2.48,5.75.13,3.24-.98,12.89-9.67,19.35-8.7,6.45-12.26-1.31-12.26-1.31,0,0,3.73,3.7,7.6,2.45"/>
          <path class="uuid-b2d158d0-acad-4a17-b90d-cd7dd6fa569d" d="M12.49,48.35c-5.95,3.44-10.78,11.76-10.78,18.59s5,9.77,10.96,6.34c5.95-3.44,11.03-11.68,11.03-18.51s-5.25-9.85-11.2-6.42M12.49,72.62c-5.73,3.31-10.37.66-10.37-5.91s4.64-14.58,10.37-17.89c5.73-3.31,10.37-.66,10.37,5.91s-4.64,14.58-10.37,17.89"/>
          <path class="uuid-3050c1e6-82a2-4f95-a05d-9e6a075a3ba6" d="M13.05,48.67c-5.95,3.44-10.78,11.76-10.78,18.59s4.83,9.58,10.78,6.15c5.95-3.44,10.78-11.76,10.78-18.59s-4.83-9.58-10.78-6.14M13.05,72.94c-5.73,3.31-10.37.66-10.37-5.91s4.64-14.58,10.37-17.89c5.73-3.31,10.37-.66,10.37,5.91s-4.64,14.58-10.37,17.89"/>
          <path class="uuid-b1a53d63-197d-474b-856f-592a2cda678e" d="M4.95,75.8s-1.26-.57-2.01-1.18c-.75-.61-3.24-5.24-2.41-9.49.83-4.24,2.55-10.16,6.53-14.01,3.98-3.85,7.48-5.67,10.08-5.56,2.6.1,3.51.45,3.51.45,0,0,1.26.49,2.03,1.3-.16.29-3.58-1.24-5.39-.91-1.81.33-6.61,2.35-10.04,7.02-3.43,4.68-5.21,9.58-5.28,12.36-.07,2.78.86,6.32,2.27,7.78,1.4,1.46.72,2.25.72,2.25"/>
          <path class="uuid-3ca8f0a0-c439-4ff0-9b1b-93d2d8ede43e" d="M13.32,48.28c-6.22,3.59-11.26,12.28-11.26,19.42s5.04,10.01,11.26,6.42c6.22-3.59,11.26-12.28,11.26-19.42s-5.04-10.01-11.26-6.42M13.32,73.57c-5.95,3.44-10.78.69-10.78-6.15s4.83-15.15,10.78-18.59c5.95-3.44,10.78-.68,10.78,6.15s-4.83,15.15-10.78,18.59"/>
          <path class="uuid-a7ce6d63-300f-4e67-865d-6ca863f1e020" d="M13.32,47.5c-6.6,3.81-11.94,13.03-11.94,20.6s5.35,10.62,11.94,6.81c6.6-3.81,11.94-13.03,11.94-20.6s-5.35-10.62-11.94-6.81M13.32,74.12c-6.22,3.59-11.26.72-11.26-6.42s5.04-15.83,11.26-19.42c6.22-3.59,11.26-.71,11.26,6.42s-5.04,15.83-11.26,19.42"/>
          <path class="uuid-a935641a-a36b-435b-a48e-4d697a00858d" d="M35.36,51.4c-.32.35-.94.78-1.43.65-.06-.02-.11-.04-.16-.08-.09-.1-.07-.25-.03-.38.19-.71.44-1.4.61-2.11.16-.67.32-1.35.49-2.02.22-.92.45-1.85.67-2.77.26-1.09.52-2.17.78-3.26.28-1.16.56-2.32.84-3.48.28-1.15.55-2.29.83-3.44.25-1.05.5-2.09.76-3.14.21-.86.41-1.71.62-2.57.14-.58.28-1.16.42-1.74.05-.21.1-.42.15-.64l1.56.37c-.02.1-.05.19-.07.29-.12.49-.24.98-.36,1.48-.2.82-.4,1.65-.59,2.47l-.76,3.16c-.29,1.18-.57,2.37-.86,3.55-.29,1.21-.59,2.43-.88,3.64-.28,1.15-.55,2.29-.83,3.44-.23.98-.47,1.95-.71,2.93-.17.71-.34,1.41-.51,2.12-.05.22-.11.44-.16.66-.02.11-.01.21-.04.32,0,.03-.02.06-.03.08-.07.17-.21.34-.32.46"/>
          <rect class="uuid-a935641a-a36b-435b-a48e-4d697a00858d" x="26.32" y="37.83" width="1.6" height="18.39" transform="translate(-26.42 38.08) rotate(-50.54)"/>
          <rect class="uuid-a935641a-a36b-435b-a48e-4d697a00858d" x="19.81" y="32.66" width="20.91" height="1.6" transform="translate(-10.29 13.7) rotate(-21.9)"/>
          <path class="uuid-a935641a-a36b-435b-a48e-4d697a00858d" d="M19.75,44.07c-.22.09-.57.02-.75-.04-.19-.05-.37-.16-.49-.32-.2-.28-.04-.6.03-.89.26-1.03.52-2.06.78-3.08.27-1.08.54-2.15.82-3.23.09-.35.18-.71.27-1.06.04-.14.05-.38.14-.5.18-.24.78-.21,1.02-.11.08.03.16.09.22.14.42.34.17.87.06,1.3-.26,1.01-.51,2.02-.77,3.04-.28,1.12-.57,2.24-.85,3.36-.1.4-.15.87-.32,1.25-.03.07-.09.12-.16.15"/>
          <path class="uuid-a935641a-a36b-435b-a48e-4d697a00858d" d="M15.04,62.42l-1.31-.92,2.42-3.45c1.25-4.09,3.21-10.62,3.39-11.48-.06-.33-.59-1.74-1.05-2.88l1.48-.61c.54,1.31,1.18,2.98,1.18,3.51,0,.15,0,.61-3.5,12.05l-.04.12-2.56,3.65Z"/>
          <path class="uuid-fd2e31b0-4bbe-49a6-90a0-e5059844f08b" d="M21.58,35.19c-.15.01-.32-.02-.46-.07-.1-.03-.26-.08-.28-.21-.01-.08.04-.16.04-.24,0-.09.06-.18.06-.27.09-.39.19-.79.28-1.18l.3-1.27c.04-.18.1-.35.13-.53.03-.13.01-.2.14-.28.23-.13.59-.06.78.1.16.13.13.34.08.51-.08.35-.17.7-.25,1.05-.11.45-.22.9-.32,1.36-.04.18-.08.35-.13.53-.03.14-.05.36-.19.44-.06.04-.13.04-.2.05"/>
          <path class="uuid-2e45ad2d-fb8c-43e1-9e2a-2e1cbd030cd2" d="M27.71,38.28l.25-1.39-4.07-1.61c-.11-.01-.23.05-.34.18-.21.27-.32.64-.18.95.07.15.16.24.27.26h0s0,0,0,0h0l4.06,1.61Z"/>
          <path class="uuid-bfb735a3-83c1-4948-9c26-61c57e370a42" d="M27.43,38.02c.13.31.41.35.61.07.21-.27.32-.64.18-.95-.13-.31-.41-.35-.61-.07-.21.27-.32.64-.18.95"/>
          <path class="uuid-2e45ad2d-fb8c-43e1-9e2a-2e1cbd030cd2" d="M11.32,29.59l.88-1.11-2.81-3.35c-.09-.07-.23-.07-.38,0-.31.14-.58.41-.62.75-.02.17.03.29.12.36h0s0,0,0,0h0s2.81,3.35,2.81,3.35Z"/>
          <path class="uuid-c1a6c603-7b28-4da9-9ac3-1b70ffd61dea" d="M21.97,32.19c-.17.16-.39.12-.6.11-.23-.01-.45-.02-.68-.03-.52-.02-1.04-.04-1.56-.07-.09,0-1.54-.07-1.54-.07l.04-1.07c.68.03,1.36.06,2.04.09.44.02.89.04,1.33.06.19,0,.37.02.55.02.18,0,.42-.01.54.15.05.07.06.15.06.23,0,.12-.03.24-.07.35-.02.07-.05.13-.1.18-.01.01-.02.02-.03.03"/>
          <path class="uuid-3ca8372d-ad97-4e72-ad7f-fc19f4bde470" d="M40.71,20.57c2.17-.09,3,.3,3.51.76.51.47,1.7,2.27.79,3.1-.91.83-2.84.67-3.26.93-.43.26-7.22,3.04-7.79,3.06-.57.02-.51-1.03.24-1.8.75-.77,4.7-4.87,4.85-5.13.14-.26,1.28-.91,1.66-.92"/>
          <polygon class="uuid-c8dab123-0cc5-4e24-bb7f-26f32b58ca13" points="34.7 54.11 38.7 49.53 37.76 48.46 33.76 53.04 34.7 54.11"/>
          <path class="uuid-6dc2881f-91f6-4e8d-863e-e12b5cbfe1e7" d="M37.27,50.17c0,.38.26.53.59.34.33-.19.59-.65.59-1.02s-.27-.53-.59-.34c-.33.19-.59.65-.59,1.02"/>
          <polygon class="uuid-6dc2881f-91f6-4e8d-863e-e12b5cbfe1e7" points="37.43 50.55 38.33 51.07 39.18 49.63 38.29 49.12 37.43 50.55"/>
          <path class="uuid-f340086f-d489-4acb-aeb8-2dadea05f388" d="M38.15,50.68c0,.38.26.53.59.34.33-.19.59-.65.59-1.02s-.27-.53-.59-.34c-.33.19-.59.65-.59,1.02"/>
          <polygon class="uuid-79509f20-af1b-41d1-910c-434cbd7bccd8" points="44.49 50.98 40.93 54.66 36.87 52.32 36.87 50.68 40.42 48.63 44.49 50.98"/>
          <polygon class="uuid-e3d3537d-208f-4e3c-a198-b8094d161d0a" points="44.49 52.61 40.93 54.66 40.93 53.03 44.49 50.98 44.49 52.61"/>
          <path class="uuid-2bcc8f6e-5b62-495d-923b-3a856e6b48d8" d="M40.34,49.03c.31.22.51.38.5.86,0,.48.02,1.07-.09,1.2-.11.12-.65,1.2-.75,1.56-.1.35-.17,1.08-.52,1.84-.36.76-.79,1.09-1.54,1.34-.75.25-1.83.01-2.22-.09-.39-.1-.76-.38-.82-.51-.06-.13.07-.62.22-.85.15-.23,2.94-2.91,2.94-2.91l2.29-2.44Z"/>
          <path class="uuid-e6472654-c0de-49d9-8229-ff1d3fc57c34" d="M39.78,48.51c.38.34.91.79.93,1.09.02.3-.22,1.42-.47,1.85-.25.43-.53,1.35-.65,1.98-.12.63-.22,1.42-.84,1.76-.61.33-1.66.72-2.59.45-.93-.28-1.05-.41-1.17-.7-.12-.29.23-.99.23-.99l.92-1.67s.92-2.45,1.16-3.11c.24-.66,1.87-.71,1.87-.71l.62.05Z"/>
          <g class="uuid-7c366d3d-cc02-44e1-8560-9c315d088d10">
            <g class="uuid-0680db63-6dab-4271-93f2-76de0fe96a5b">
              <rect class="uuid-0fe85885-b1e2-4cdd-9888-fa3c53056265" x="34.72" y="46.72" width="7.5" height="5.21" transform="translate(-13.68 83.86) rotate(-85.57)"/>
            </g>
          </g>
          <path class="uuid-4701a8f5-42c7-4ce6-a5cc-3dba7d7deb2a" d="M29.89,22.42c.22,1.7,1.6,2.94,1.96,3.63.36.69.95,1.23,1.19,1.33.24.1,1.16.11,1.42-.03.26-.14.44,1.21.46,1.56.01.35-.35,3.69-.45,5.78-.1,2.09.46,4.6.9,5.63.44,1.04,1.55,6.11,1.69,6.73.14.63,1.02,1.23,2.04,1.31,1.02.08,1.67-.32,1.67-.32,0,0-.53-5.08-.47-6.69.06-1.62-.48-3.71-.43-4.18.06-.47,1.2-5.19,1.77-7.7.57-2.51.9-5.21.44-6.96-.46-1.74-1.41-3.07-2.54-4.12-1.13-1.05-2.65-1.71-3.61-2.23-.97-.51-6.04,6.27-6.04,6.27"/>
          <path class="uuid-07206856-450b-4a6a-b083-defb9360409d" d="M38.68,21.43c-.45,1.05-1.16,2.17-1.96,2.99-.15.16-.32.31-.43.49-.2.3-.26.66-.32,1.02-.42,2.38-1.38,7.99-1.18,9.42.03.26.3,2.65.44,2.87.3.47.92.65,1.46.53.54-.12,1-.49,1.34-.92,1.1-1.36,1.25-3.23,1.55-4.95.32-1.87.86-3.7,1.22-5.57.18-.95.52-1.85.73-2.78.3-1.32-.01-2.92-.65-4.05-.23-.41-1.59-2.28-2.18-1.95-.3.16.21,1.02.25,1.26.1.57-.04,1.13-.27,1.65"/>
          <path class="uuid-efecea55-576e-41b4-8d19-23e0badb0d0a" d="M39.87,48.31s-.37-2.36-.57-4.97c-.09-1.17-.23-2.52-.35-3.62-.07-.68-.13-1.26-.16-1.61-.08-.92.19-1.75.77-3.56l.03-.1c.58-1.8,1.41-5.27,1.71-6.94.32-1.75.5-3.31-.38-4.67-.92-1.43-3.65-3.29-3.68-3.31l.21-.31c.11.08,2.82,1.93,3.78,3.41,1.04,1.6.69,3.53.44,4.93-.3,1.68-1.14,5.17-1.72,6.99l-.03.1c-.56,1.76-.82,2.57-.75,3.41.03.35.09.92.16,1.6.12,1.09.26,2.45.35,3.62.2,2.6.56,4.92.56,4.95l-.36.06Z"/>
          <path class="uuid-efecea55-576e-41b4-8d19-23e0badb0d0a" d="M35.64,23.73c-.47,0-.91-.19-1.29-.58l.26-.26c.83.85,1.75.36,2.22-.01.69-.54,1.94-2.37,1.95-2.39l.3.21c-.05.08-1.29,1.9-2.03,2.47-.48.37-.97.56-1.43.56"/>
          <path class="uuid-f3218d5b-3e80-49c2-865f-623e65a5a364" d="M37.18,16.79c.45.63.68,2.19.1,3.3-.58,1.11-2.27,3.05-3.79,3.57-1.52.52-1.62.22-2.56.4s-2.05.36-2.61.17c-.55-.2-1.03-.54-1.15-.69-.12-.15-.23-1.01-.23-1.01l7.67-5.94,1.18-.47,1.39.67Z"/>
          <path class="uuid-4701a8f5-42c7-4ce6-a5cc-3dba7d7deb2a" d="M38.31,18.56c-.67-.36-1.42-.6-2.14-.82l.22-.71c.76.23,1.55.47,2.28.88l-.35.65Z"/>
          <path class="uuid-4701a8f5-42c7-4ce6-a5cc-3dba7d7deb2a" d="M34.2,24.39c-.21-.15-.32-.37-.41-.53l-.67-1.25c-.09-.17-.24-.44-.17-.76l.72.16s.07.2.1.25l.67,1.25c.06.11.13.24.2.29l-.44.59Z"/>
          <path class="uuid-fd2e31b0-4bbe-49a6-90a0-e5059844f08b" d="M11.37,27.42s-.1-.32-.43-.03c-.33.29-.52.97-.52.97l.9,1.23s.86-.96.88-1.11c.02-.15-.83-1.06-.83-1.06"/>
          <path class="uuid-bfb735a3-83c1-4948-9c26-61c57e370a42" d="M11.19,29.23c-.03.34.19.5.5.36.31-.14.58-.41.62-.75.03-.34-.19-.5-.51-.36-.31.14-.58.41-.61.75"/>
          <path class="uuid-fd2e31b0-4bbe-49a6-90a0-e5059844f08b" d="M25.58,37.38c-.9.3-2.45-.62-2.75-1.18-.08-.15-.13-.35-.19-.59-.06-.25-.15-.62-.26-.75-.35-.29-4.2-2.34-6.05-3.32-.76-.4-1.35-.72-1.59-.85-.67-.37-1.03-.6-1.2-.71-.32-.03-1.07-.12-1.67-.35-.09-.03-.21-.06-.24-.15-.04-.12-.01-.3,0-.42,0-.04.01-.08.03-.12.02-.04.05-.07.08-.1.08-.07.16-.14.26-.19.11-.06.14-.06.25-.01.51.2,1.27.28,1.51.3h.15s.12.1.12.1c0,0,.31.22,1.22.73.24.13.83.44,1.58.84,5.23,2.78,6.17,3.33,6.37,3.59.27.33.38.8.47,1.18.03.12.07.29.09.34.08.12.73.65,2.33.74l-.52.93Z"/>
          <path class="uuid-2bbde421-7aa1-44df-9dfb-d3ecdbea6349" d="M22.6,7.34s-1.3.45-2.17,1.39c-.86.94-1.1,1.38-1.1,1.38,0,0-.36,1.09.19,2.07.55.98,2.32,1.53,2.41,1.68.09.15,1.01.58,1.01.58l1.93-3.45-1.26-2.45-1.03-1.2Z"/>
          <path class="uuid-386767e2-207a-4df0-ae9f-28cdb9ecf37c" d="M35.62,20.56c-.76,1.3-2.08,2.22-3.36,2.76-.61.26-1.2.43-1.73.52-1.49.26-2.76-.04-3.22-.6-.05-.06-.09-.11-.12-.18-.32-.66-.6-1.3-.97-1.74-.38-.44-2.47-.97-3.11-1.76-.64-.79-1.12-1.42-1.76-3.01-.64-1.59-1.22-3.4-1.19-4.8.03-1.39.56-2.14,1.27-2.27.71-.13,3.75-.65,5.06-.82,1.31-.16,1.75.01,3.67.64,0,0,1.23.32,2.06.74.83.41,1.8,1.4,2.24,3.22.43,1.82,1.79,3.22,1.98,3.65.19.42.3,1.75-.82,3.66"/>
          <path class="uuid-386767e2-207a-4df0-ae9f-28cdb9ecf37c" d="M32.68,22.66c-.13.22-.27.44-.41.66-.61.26-1.2.43-1.73.52-1.49.26-2.76-.04-3.22-.6.78-.18,1.4-.88,1.7-1.64.33-.85.35-1.79.44-2.7.11-1.17.14-3.2,1.2-3.96,1.32-.94,2.11.83,2.31,1.86.4,1.96.68,4.11-.3,5.85"/>
          <g class="uuid-d1cb9fd2-a8e8-463c-98e6-3b2df0b37e88">
            <g class="uuid-85c901e9-c02d-4c22-9415-de70c32ff20a">
              <rect class="uuid-f027c43b-a4e4-44f2-b240-0670ae061c26" x="20.61" y="5.68" width="11.17" height="8.75" transform="translate(14.15 35.39) rotate(-85.57)"/>
            </g>
          </g>
          <g class="uuid-2f9a2342-4fe2-4f84-b028-74a9707da26c">
            <g class="uuid-de372411-5870-4bc8-8d13-b60300c8a53b">
              <rect class="uuid-86d06bfe-8cba-409d-a531-912cd75ffbeb" x="17.75" y="3.28" width="11.25" height="9.17" transform="translate(13.74 30.56) rotate(-85.57)"/>
            </g>
          </g>
          <path class="uuid-ef8a02d2-edc7-4b97-a5a0-93d55aa95507" d="M23.17,4.77c.25.39,1.35.73,1.84,1.21.49.48.7,1.11.78,1.52.08.41.65,1.53.65,1.53,0,0,.1-.59.18-.95.08-.36.82-.69.82-.69l.28,1.02-.19.59.25.45s.64-.75.73-1.28c.08-.53.24-2.63.12-3.68-.12-1.05-.96-2-1.6-2.35-1.03-.65-2.31-.77-3.23-.48s-2.2,1.06-2.61,1.48c-.41.42-1.19,1.24-.87,2,.4-.59.86-.62,1.03-.52.18.11.89.22,1.14.23.26,0,.68-.1.68-.1"/>
          <path class="uuid-5b821a8a-0988-483e-92a5-16c0039953a6" d="M28.12,5.44c.01.54-.36,2.77-.67,3.3-.32.52-.97,1.06-.97,1.06,0,0-.47,1.11-.18.94.29-.17.88-.81,1.35-1.53.47-.71.74-2.14.88-3.12.14-.98.07-1.34.07-1.34l-.47.69Z"/>
          <path class="uuid-5b821a8a-0988-483e-92a5-16c0039953a6" d="M25.95,5.99c.3.64-.13,4.68-.52,5.22.38-.2.81-.34.88-.44.08-.1.2-1.19.38-2.81.04-2.41-.15-2.97-.15-2.97l-.6,1.01Z"/>
          <g class="uuid-36f88e21-5736-4435-b83e-2b2ca94d5385">
            <g class="uuid-b6b48ad9-55d2-48f2-8e3d-edd35ccca3fa">
              <rect class="uuid-e27bda44-dfa5-4407-b8d2-709cb9de80f7" x="26.15" y="7.27" width="2.43" height="1.89" transform="translate(17.07 34.86) rotate(-85.57)"/>
            </g>
          </g>
          <g class="uuid-3091428d-438b-449c-9c51-510105fe10e6">
            <g class="uuid-8411108d-d006-4679-89bc-d623b6c7ad11">
              <rect class="uuid-a7cfad09-6e51-44a0-bb25-fd4ca20704f7" x="19.93" y="6.83" width="1.74" height="5.69"/>
            </g>
          </g>
          <path class="uuid-2e45ad2d-fb8c-43e1-9e2a-2e1cbd030cd2" d="M27.74,36.8c-.63-.25-1.27-.54-1.92-.73-.04-.01-.08-.02-.12-.04-.03,0-.07-.02-.1-.01-.03,0-.06.02-.09.04-.06.05-.13.09-.19.14-.06.05-.11.09-.16.15-.04.05-.07.11-.09.18-.05.13-.08.27-.07.4,0,.11.05.26.14.33.07.05.18.08.26.11.2.08.4.16.6.24.31.12.62.24.93.37.02,0,.04.01.05.02.22-.42.48-.81.76-1.19"/>
          <path class="uuid-75fde5a2-c02b-446a-96e5-2e700422ae67" d="M27.31,6.17c-2.15,1.65-4.66,1.88-6.6,1.26-1.93-.62-2.56-1.85-.41-3.5,2.15-1.65,6.25-3.1,8.19-2.48,1.93.62.97,3.07-1.18,4.72"/>
          <path class="uuid-75fde5a2-c02b-446a-96e5-2e700422ae67" d="M27.22,5.62c-2.15,1.65-4.66,1.88-6.6,1.26-1.93-.62-2.56-1.85-.41-3.5,2.15-1.65,6.25-3.1,8.19-2.48,1.93.62.97,3.07-1.18,4.72"/>
          <path class="uuid-386767e2-207a-4df0-ae9f-28cdb9ecf37c" d="M26.88,5.42c-2.03,1.56-4.42,1.78-6.25,1.19-1.83-.59-2.42-1.75-.39-3.31,2.03-1.56,5.92-2.93,7.76-2.35,1.83.59.92,2.91-1.12,4.47"/>
          <path class="uuid-386767e2-207a-4df0-ae9f-28cdb9ecf37c" d="M27.55,4.84c-1.61,1.78-8.56.37-8.56.37,0,0-.09-2.47,1.46-3.68,3-2.33,5.85-1.46,7.57-.9,1.73.55,1.65,1.86-.47,4.21"/>
          <path class="uuid-5b821a8a-0988-483e-92a5-16c0039953a6" d="M27.42,2.48c-.53-.18-1.62.27-2.26,1.99-.64,1.73,1.38-.13,2-.65.62-.52.62-1.22.27-1.34"/>
          <path class="uuid-5b821a8a-0988-483e-92a5-16c0039953a6" d="M25.55.51c-1.34-.47-5.01,1.53-4.12,1.92,1,.21,1.15.03,1.83-.35.85-.47,1.51-1.08,2.47-1.19.96-.11-.18-.39-.18-.39"/>
          <polygon class="uuid-a935641a-a36b-435b-a48e-4d697a00858d" points="51.89 39.75 52.4 39.76 53.53 38.8 54.18 38.91 53.98 40.43 53.43 41.53 51.47 42.26 51.89 39.75"/>
          <path class="uuid-af2c62d2-eada-4f04-8889-9915d2aee0c8" d="M4.35,65.95c-.42.14-.63-.48-.48-1.39.15-.9.62-1.75,1.04-1.89.42-.14.63.48.48,1.39-.15.9-.62,1.75-1.04,1.88"/>
          <path class="uuid-ebdca75b-756c-40ee-b170-97475c20085a" d="M4.52,66.05c-.42.14-.63-.48-.48-1.39.15-.9.62-1.75,1.04-1.89.42-.14.63.48.48,1.39-.15.9-.62,1.75-1.04,1.88"/>
          <path class="uuid-af2c62d2-eada-4f04-8889-9915d2aee0c8" d="M57.01,38.64c-.42.14-.63-.48-.48-1.39.15-.9.62-1.75,1.04-1.89.42-.14.63.48.48,1.39-.15.9-.62,1.75-1.04,1.88"/>
          <path class="uuid-ebdca75b-756c-40ee-b170-97475c20085a" d="M57.17,38.74c-.42.14-.63-.48-.48-1.39.15-.9.62-1.75,1.04-1.89.42-.14.63.48.48,1.39-.15.9-.62,1.75-1.04,1.88"/>
          <g class="uuid-74e99464-10cf-4c26-bca7-db082adcc784">
            <g class="uuid-07a91844-7604-489b-b855-5859e540e3f0">
              <rect class="uuid-feda4fbf-7daa-4f21-8a4d-165b5a62e201" x="45.56" y="17.76" width="12.3" height="12.3" transform="translate(-1.23 44.96) rotate(-46.5)"/>
            </g>
          </g>
          <path class="uuid-efedf67a-32b8-4103-811e-a96a5076f70d" d="M31.45,14.65c2.48,1.68,18.12,8.45,18.12,8.45,1.43,2.25,3.14,1.93,3.29,1.46.11-.34-2.42-2.51-2.42-2.51l-1.57-1.27-14.57-9.44-2.86,3.31Z"/>
          <path class="uuid-5c95baab-c992-42c3-a969-4b36e8ee9ebd" d="M8.44,26.99s-.22-.34-.13-.67c.07-.23.39-.46.58-.59.45-.3,1.19.06,2.16-.7l.84,1.53s-1.16.4-1.58,1.11c-.33.57-.14,1.12-.42,1.35-.6.49-.07-1.21-.07-1.21,0,0-.44.16-.67.2-.23.03-.72-.59-.71-1.02"/>
          <path class="uuid-5c95baab-c992-42c3-a969-4b36e8ee9ebd" d="M8.2,27.45c-.03-.11.02-.9.13-1.21l.33.63s-.09.64-.06.79c0,0-.28.18-.39-.2"/>
          <path class="uuid-5c95baab-c992-42c3-a969-4b36e8ee9ebd" d="M8.63,27.22s-.09.53.1.74c.18.21.44.01.49-.02.04-.03-.58-.72-.58-.72"/>
          <path class="uuid-5c95baab-c992-42c3-a969-4b36e8ee9ebd" d="M9.18,27.61c0,.1-.12.39.06.68.18.29.85-.46.85-.46l-.92-.22Z"/>
          <path class="uuid-5c95baab-c992-42c3-a969-4b36e8ee9ebd" d="M11.48,26.7s.14.38.19.54c.09.28-.02.51-.02.51,0,0-.72-.65-.86-.79l.69-.26Z"/>
        </g>
      </g>
    </g>
  </g>
</svg>