<?xml version="1.0" encoding="UTF-8"?>
<svg id="Calque_2" xmlns="http://www.w3.org/2000/svg" viewBox="0 0 24.53 45.04">
  <defs>
    <style>
      .cls-1 {
        fill: #f08c8e;
      }

      .cls-2 {
        fill: #6d374f;
      }

      .cls-3 {
        fill: #f3a3a7;
      }

      .cls-4 {
        fill: #fff;
      }

      .cls-5 {
        fill: #6a374f;
      }

      .cls-6 {
        fill: #f3a4a5;
      }

      .cls-7 {
        fill: #bdc5e1;
      }

      .cls-8 {
        fill: #6b3750;
      }

      .cls-9 {
        fill: #f4a79b;
      }

      .cls-10 {
        fill: #bdc7e3;
      }

      .cls-11 {
        fill: #e2e4f4;
      }

      .cls-12 {
        fill: #f0888c;
      }

      .cls-13 {
        fill: #d71b5b;
      }

      .cls-14 {
        fill: #7990c8;
      }
    </style>
  </defs>
  <g id="_Éléments_Mise_en_page" data-name="Éléments_Mise_en_page">
    <g>
      <polygon class="cls-4" points="7.15 22.34 7.15 22.37 5.56 23.61 21.79 33 21.79 30.87 7.15 22.34"/>
      <path class="cls-1" d="M14.1,36.39c-1.33-2.54-3.98-7.5-4.94-8.28-.29-3.96.22-5.73.16-5.69l-1.8,2.35v-.19s-1.17-1.45-1.17-1.45c-.03.81-.08,2.21-.14,3.48.07.58.17,1.16.26,1.74.1.65.34,1.28.7,1.84,1.05,1.57,2.31,2.97,3.57,4.4.14.16.13.35.04.49l1.72,1.81c.59.49,1.24,1.55,1.48,2.09.18.4.15.86.25,1.29.02.07.04.2.08.35.34-.02.79-.8.72-1.51-.09-.97-.15-1.11-.08-1.55.07-.44-.07-.51-.88-1.15"/>
      <path class="cls-2" d="M15.4,37.2c-.39-.53-.73-.71-.88-.77,0,0,0,0-.01,0-.04-.02-.07-.02-.07-.02h0c-.1-.03-.21-.04-.3-.05.05.18.11.36.18.54.3.4.63.99.58,1.59-.08,1.02-.25,1.47-.67,1.68.06.27.11.96.34.97.23,0,.6-.48.67-.62.21-.39.35-.76.32-1.18,0-.08-.07-.24-.04-.3-.12-.38-.23-.74-.24-1.06,0-.07,0-.14-.01-.2.35.22.55.39.8.55.16.01.23-.11.21-.25-.22-.24-.52-.36-.88-.85"/>
      <path class="cls-7" d="M8.43,8.79c-1.12,2.24-1.24,2.93-2.1,4.3-.36.58-1.03,1.15-1.6.45-.26-.32-.03-.93.06-1.27.45-1.66,1.01-3.35,1.77-4.89.18-.36.37-.72.68-.97.49-.4,1.26-.28,1.58.31.3.55-.13,1.56-.39,2.09"/>
      <path class="cls-6" d="M6.34,13.08c-.36.58-1.03,1.15-1.6.45-.26-.32-.03-.93.06-1.27,0,0,1.15-.15,1.54.82"/>
      <path class="cls-3" d="M13.04,24.48s-3.85-2.61-3.85-2.61c-.41,2.58-1.68,4.24-1.65,6.28.04,2.73.55,3.28,1.09,6.66.23,1.39.36,4.5.28,5.89-.08,1.26-.73,2.37-1.32,3.45-.03.06-.07.13-.06.21.02.13.16.2.28.23.42.1.88-.03,1.19-.33.45-.44.67-.88,1.24-1.18.01,0,.03-.02.04-.02.33-.14.5-.52.41-.89l-.22-.9c2.24-8.04.08-12.29.08-12.29,0,0,2.45-4.08,2.49-4.49"/>
      <path class="cls-8" d="M12.56,3.35c.08.55.1,1.21.31,1.74.2.48.63.9.93,1.34.67.97,1.26,2.04,1.36,3.23.2,2.18-1.27,4.09-3.58,3.96-1.14-.07-2.2-.71-2.88-1.63-1.42-1.93-.76-3.79-.73-5.99.03-1.58-.92-3.2-.09-4.73.34-.63.98-1.09,1.68-1.23.7-.13,1.46.07,2.01.53.78.66.83,1.83.98,2.78"/>
      <polygon class="cls-12" points="10.87 3.65 10.87 7.06 8.97 7.06 9.27 3.65 10.87 3.65"/>
      <path class="cls-9" d="M10.22,3.09c.29-.08.56-.22.79-.4,0,.21,0,.4,0,.42,0,1.1-.71,2.43-1.77,2.17-.76-.19-1.04-1.07-1.04-2.17,0-.01,0-.05,0-.11.63.27,1.38.25,2.02.08"/>
      <path class="cls-9" d="M10.03,2.07v1.3h-.5l-.04-.17c.12-.03.42-1.08.53-1.13"/>
      <path class="cls-14" d="M11.78,16.19c-.77-.02-1.55.01-2.33.04-.56.09-1.13.18-1.68.18-.45.32-.9.64-1.39.89-.4,2.46-.88,6.42-.52,9.46,1.12.9,3.12,1.95,4.65,1.85,1.3-.09,1.38-.21,1.94-.61.44-1.79,1.38-4.96,1.36-6.96-.01-1.61-.59-3.94-1.23-4.65,0,0-.28-.11-.81-.2"/>
      <path class="cls-11" d="M6.23,17.86c.65.87,1.62,1.44,2.68,1.59.24.04.44.06.52.07.08,0,.16.02.24.02.34-.02.68-.05,1.02-.1.35-.07.68-.18,1.01-.31.17-.07.34-.16.51-.25.11-.06.21-.12.32-.19.26-.17.51-.37.74-.59-.24-.83-.48-1.67-.72-2.51-.21-.72-.3-1.3-.25-1.91.03-.35.1-.7.24-1.1.33-1,.79-1.91,1.07-2.88.13-.45.25-.95.12-1.39-.05-.18-.14-.35-.28-.51-.5-.53-1.12-.77-1.78-1.03-.03-.01-.07-.03-.1-.04-.09-.03-.18-.06-.27-.1-.72-.24-1.47-.39-2.24-.53-.06-.01-.11-.02-.17-.03-.07-.01-.14-.02-.21-.03-.58-.05-1.18.13-1.53.6-.17.23-.26.51-.34.79-.2.73-.38,1.51-.39,2.3,0,.34.02.68.09,1.02.32,1.52.68,2.65.34,4.25-.2.93-.4,1.88-.61,2.85"/>
      <path class="cls-12" d="M8.38,10.12c-.01.14.17.19.26.07.4-.53.79-1.07,1.19-1.6.3-.4.59-.8.89-1.2.12-.16.44-.48.56-.76-.72-.24-1.47-.39-2.24-.54-.06-.01-.11-.02-.17-.03-.07-.01-.14-.02-.21-.03-.07.33-.02.77-.04,1.09-.03.44-.07.88-.1,1.32-.04.56-.09,1.12-.13,1.67"/>
      <path class="cls-10" d="M9.44,13.02c.13.1.26.19.39.3.78.63,1.07.47,1.43,1.08.16.28.74,2.86.94,4.49.11-.06.21-.12.32-.19.26-.17.51-.37.74-.59-.24-.83-.48-1.67-.72-2.51-.21-.72-.3-1.3-.25-1.91.03-.35.1-.7.24-1.1.33-1,.79-1.91,1.07-2.88.13-.45.25-.95.12-1.39-.74.49-1.18,1.56-1.51,2.36-.28.68-.61,1.47-1.12,1.96-.41.39-.93.58-1.65.39"/>
      <path class="cls-3" d="M16.15,20.35s-.03-.04-.04-.07c-.16-.36-.33-.71-.48-1.07-.5-1.26-.87-2.57-1.23-3.87-.19-.69-.72-2.11.49-2.23,1.24-.12,1.38,2.03,1.53,2.8.05.27.1.55.15.82.19,1.04.37,2.06.48,3.11.01.15.03.3-.02.44-.14.41-.68.42-.89.07"/>
      <path class="cls-3" d="M1.41,18.01s.02-.05.03-.07c.16-.34.3-.69.48-1.03.6-1.16,1.31-2.27,2.03-3.35.38-.58,1.08-1.86,1.93-1.05.87.83-.6,2.29-1.07,2.89l-.5.63c-.64.8-1.26,1.58-1.96,2.33-.1.1-.2.21-.33.26-.39.15-.74-.23-.61-.61"/>
      <path class="cls-6" d="M14.16,14.17c-.81-1.45-1.58-2.99-2.1-4.57-.12-.37-.24-.75-.19-1.13.07-.61.68-1.04,1.29-.86.58.17.97,1.16,1.15,1.71.75,2.3,1.14,2.86,1.47,4.38.14.64.07,1.49-.79,1.4-.39-.04-.65-.62-.82-.92"/>
      <path class="cls-6" d="M.51,19.66s.26-.18.76-.33c.64-.19,1.22-.74,1.12-1.14-.12-.09-.24-.17-.37-.25-.17-.06-.35-.11-.53-.16-.41.04-.85.25-1.08.53-.42.51-.44,1.08-.39,1.46.02.18.26.23.36.08l.13-.19Z"/>
      <path class="cls-2" d="M10.82,41.79s0,0,0-.01c-.01-.05-.02-.07-.02-.07h0c-.09-.26-.31-.49-.31-.49,0,0-.16,1.56-1.05,2.17-.84.58-1.29.73-1.7.54-.17.22-.59.74-.47.93.07.1.23.13.4.13l.05.06s1.61,0,2.44-1.77c.02-.02.03-.03.05-.04h0c.03.42.02.68.04.98.08.14.21.11.32.01.06-.33-.02-.63.15-1.24.19-.64.13-1.03.09-1.19"/>
      <path class="cls-11" d="M13.16,7.61s.92-.69,2.26,4.85c0,0-.52,1.03-1.79.67l-1.92-2.98v-2.13l.54-.48c.27-.24.68-.21.91.07"/>
      <path class="cls-11" d="M16.12,25.21s.07-.04.07-.09c-.13-1.21.1-2.79.72-3.32.17-.15.31-.2.42-.14.24.12.53.78.75,1.33.03.07.1.12.16.12.06,0,.08-.06.06-.13-.4-.98-.65-1.39-.94-1.54-.27-.13-.48,0-.64.15-.68.59-.9,2.23-.77,3.47,0,.07.07.14.13.15.01,0,.03,0,.04,0"/>
      <polygon class="cls-13" points="19.15 35.46 24.53 28.34 20.31 20.77 15.59 26.79 19.15 35.46"/>
      <polygon class="cls-5" points="20.31 20.77 19.52 20.66 14.8 26.68 15.59 26.79 20.31 20.77"/>
      <polygon class="cls-1" points="14.8 26.68 17.32 35.37 19.15 35.55 15.59 26.79 14.8 26.68"/>
      <path class="cls-11" d="M17.56,25.91c.07-.01.09-.08.05-.15-.95-1.84-1.22-3.3-.69-3.82.23-.23.58-.15.82-.05.63.26,1.35.99,1.8,1.82.04.07.11.11.16.1.05-.01.07-.08.03-.15-.49-.92-1.27-1.7-1.99-2-.43-.18-.79-.15-1.02.07-.59.58-.33,2.11.69,4.07.03.06.1.11.15.1"/>
      <path class="cls-6" d="M16.99,19.83s-.03-.01-.04-.01c-1.16-.33-1.11,1.69-.68,2.29l.21-.3s.02-.03.03-.04l.09-.13.04.1s.08.08.1.13c.04.11.07.22.08.34l.02.06c.13-.06.92-.23,1.15-.71-.02-.7-.38-1.39-1-1.72"/>
    </g>
  </g>
</svg>