<?xml version="1.0" encoding="UTF-8"?>
<svg xmlns="http://www.w3.org/2000/svg" xmlns:xlink="http://www.w3.org/1999/xlink" viewBox="0 0 30.36 60.91">
  <defs>
    <style>
      .cls-1 {
        fill: #b3a645;
      }

      .cls-2 {
        fill: #262e3f;
      }

      .cls-3 {
        fill: #cd6f29;
      }

      .cls-4 {
        fill: #e7e6e6;
      }

      .cls-5 {
        fill: #eebca8;
      }

      .cls-6 {
        fill: #c08877;
      }

      .cls-7 {
        fill: none;
      }

      .cls-8 {
        fill: #d7d4d3;
      }

      .cls-9 {
        fill: #e5d6d7;
      }

      .cls-10 {
        fill: #6d2524;
      }

      .cls-11 {
        clip-path: url(#clippath-1);
      }

      .cls-12 {
        isolation: isolate;
      }

      .cls-13 {
        fill: #2b3345;
      }

      .cls-14 {
        fill: #94ca9f;
      }

      .cls-15 {
        fill: #1a1b1a;
      }

      .cls-16 {
        fill: #de8438;
      }

      .cls-17 {
        fill: #a2a5ab;
      }

      .cls-18 {
        fill: #979ca5;
      }

      .cls-19 {
        fill: #f5efef;
      }

      .cls-20 {
        fill: #b7a9a8;
      }

      .cls-21 {
        fill: #8894ca;
      }

      .cls-22 {
        fill: #23272f;
      }

      .cls-23 {
        fill: #754e4a;
      }

      .cls-24 {
        fill: #e8b69e;
      }

      .cls-25 {
        clip-path: url(#clippath);
      }

      .cls-26 {
        fill: #f49e49;
      }

      .cls-27 {
        mix-blend-mode: multiply;
        opacity: .5;
      }
    </style>
    <clipPath id="clippath">
      <rect class="cls-7" x="3.7" y="25.99" width="4.68" height="19.98"/>
    </clipPath>
    <clipPath id="clippath-1">
      <rect class="cls-7" x="3.7" y="25.99" width="4.68" height="19.98"/>
    </clipPath>
  </defs>
  <g class="cls-12">
    <g id="Calque_2">
      <g id="_Éléments_Mise_en_page" data-name="Éléments_Mise_en_page">
        <g>
          <path class="cls-14" d="M7.63,13.32c-1.74,1.93-3.58,4.5-4.88,6.71-.03.05.24-.73.27-.78,1.3-2.2,2.77-4.06,4.51-5.99.04-.05.14.02.1.06"/>
          <g>
            <path class="cls-4" d="M5.44,46.3s1.3,4.91.39,5.26c-1.35.51-2.05.06-2.82-1.17-.77-1.23-.69-2.63-.57-3.71.13-1.08.59-2.33.77-2.41.18-.08,1.95.17,2.23,2.03"/>
            <path class="cls-18" d="M5.83,46.3s.92,4.95,0,5.26c-.92.31-1.74.1-2.51-1.13-.77-1.23-.62-2.67-.49-3.74.13-1.08.59-2.33.77-2.41.18-.08,1.95.17,2.23,2.03"/>
            <path class="cls-17" d="M5.64,46.29s.55,2.95,0,3.13c-.55.18-1.04.06-1.5-.67-.46-.73-.37-1.59-.29-2.23.08-.64.35-1.39.46-1.43.11-.05,1.16.1,1.33,1.2"/>
            <path class="cls-3" d="M10.36,9.52c-.13-.08-.53.04-.75-.62-.22-.66-.48-1.61,2.12-2.2s4.3.35,4.48.6-5.85,2.22-5.85,2.22"/>
            <path class="cls-21" d="M18.13,22.86s1.38,3.46,2,8.31c.62,4.85,3.31,19.46,3.31,19.46,0,0-.08.61-1.23.77-1.15.15-1.42-.31-1.42-.31,0,0-3.27-7.08-3.5-8.69-.23-1.62-.08-3.23,0-3.54.08-.31-4.69-10.69-5.39-14.08-.69-3.38,4.54-5.31,4.65-5.31s1.58,3.38,1.58,3.38"/>
            <path class="cls-21" d="M13.97,23.71s-2.54,13.39-5,14.62c-2.46,1.23-3.15,8.23-3.15,8.23,0,0,.23.62-1.23,0-1.46-.61-1.46-2.08-1.46-2.08,0,0,.15-5.62,1.08-7.15.92-1.54,1.38-1.73,1.38-2.06s-1.23-9.56,1.69-12.64l2.92-3.08,4.09,1.05s-.1,2.01-.32,3.1"/>
            <g class="cls-27">
              <g class="cls-25">
                <g class="cls-11">
                  <path class="cls-18" d="M8.38,25.99c-.23,1.98-1.25,8.97-2.17,10.54-.04.05-.08.15-.26.29-1.81,1.41-2.13,6.83-2.22,9.14-.13-2.47.04-6.95,1.5-8.94.23-.32.43-.45.58-.59.05-.04.17-.3.2-.37.68-1.66,1.37-5.27,2.37-10.08"/>
                </g>
              </g>
            </g>
            <path class="cls-4" d="M23.47,50.89s.54,1.76,1.25,2.28c.71.52,2.03,1.28,2.2,1.82.21.67-1.35,1.91-3.76.04-1.31-1.01-2.2-1.05-2.67-1.38-.67-.47-.76-.77-.41-1.28.35-.51,1.43-1.67,1.43-1.67,0,0,.54-.42.74-.1l.2.31,1.03-.02Z"/>
            <path class="cls-18" d="M23.66,50.56s.54,1.76,1.25,2.28c.71.52,1.36.95,1.75,1.36,1.14,1.18-.71,2.49-3.15.67-2.45-1.82-2.79-1.37-3.32-2-.53-.62.67-1.22.41-1.79-.28-.63-.97-1.56.71-1.26,0,0,.93.13,1.13.44l.2.31,1.03-.02Z"/>
            <path class="cls-16" d="M17.4,9.97c-.19-.04-1.81-2.67-1.81-2.67,0,0,1.42-.86,2.46,1.1,1.04,1.96,1.96,5.42,2.42,6.39.46.96,5.35,3.15,5.65,3.5s1.13,1.86-.2,2.68c-1.33.82-8.15-2.15-8.92-3.44-.77-1.28.4-7.55.4-7.55"/>
            <path class="cls-26" d="M5.65,26.54s1.92,2.32,5.51,3.35c3.59,1.03,8.07-3.47,8.07-3.47,0,0,.6-1.98-.76-5.95-.62-1.82.23-3.6.54-5.29.26-1.4-.99-4.81-1.77-6.13-.18-.31-.68-1.03-.68-1.03-1.41-2.5-8.37,1.46-8.68,2.08-.18.37-.11,2.21.14,4.1.16,1.26.32,2.39-.03,3.22-1.82,4.24-2.33,9.14-2.33,9.14"/>
            <path class="cls-26" d="M8.01,14.18c.72.55,1.58,1.03,2.61,1.32,3.24.92,7.35-2,8.13-2.58-.37-1.43-1.02-3.05-1.51-3.89-.18-.31-.68-1.03-.68-1.03-1.41-2.51-8.37,1.46-8.68,2.08-.18.37-.11,2.21.14,4.09"/>
            <path class="cls-8" d="M13.92,7.83s1.9-.36,2.15,1.33c.26,1.69.47,5.18.47,5.18,0,0-2.78-3.9-4.22-4.31-1.44-.41-.08-2.03,1.59-2.21"/>
            <path class="cls-5" d="M15.59,7.3s-.41,1.35-.36,2.05c.05.69-.98,1.23-2,.69-1.03-.54-1.3-1.15-1.3-1.15,0,0-.12-.95,0-1.59.64-3.4,3.66,0,3.66,0"/>
            <path class="cls-5" d="M26.05,18.82s1.81-.54,2.44-.5c.63.04.71,1.9.52,2.31s-1.85.36-2.44.25c-.6-.11-.98-1.46-.52-2.06"/>
            <path class="cls-5" d="M3.61,27.25s.5,1.48.63,1.77c.13.29.12,1.31.17,1.65.06.35-.29.4-.48.46-.19.06-.19.5-.33.21-.25-.53.39-.53.17-.92-.1-.17-.44-.42-.58-.35-.13.06-.23.47-.23.47,0,0,.37.37.39.52.02.15-.65.75-.79.75s-1.5-1.17-1.5-1.62,1.12-2.81,1.12-2.81l1.42-.14Z"/>
            <path class="cls-26" d="M9,10.76s.11.11.26.32c.3.43.75,1.29.61,2.5-.2,1.8-3.66,7.26-4.07,9.07-.41,1.81-1.67,5.04-1.98,4.99-.31-.05-1.49.72-1.85-.21-.36-.92-.51-5.39.51-8.8,1.03-3.41,4.85-8.08,5.39-8.54.53-.46,1.13.67,1.13.67"/>
            <path class="cls-3" d="M16.55,14.49s.04-1.99.64-3.17c.59-1.18.56-1.63.56-1.63,0,0-.63-2.11-1.44-2.5-.81-.39-2.1-.18-2.1-.18,0,0,1.73,1.6,1.86,2.81.14,1.21.48,4.67.48,4.67"/>
            <path class="cls-23" d="M15.88,4.19s.63-.13.83-.29c.19-.16.79-1.33-.36-2.52C15.2.19,13.74-.38,11.96.28c-1.78.65-1.88,4.38-1.33,5.18.55.8,1.39.57,1.39.57l3.87-1.84Z"/>
            <path class="cls-5" d="M16.69,3.05s.33.81.27,1.31.15,1.1.17,1.46c.02.36-.32,2.52-.75,2.67-.43.16-.84.18-1.28-.12s-1.59-.9-1.9-1.28-.38-.64-.38-.64c0,0-.62-1.71-.31-1.67.31.04.48-.14.6-.26s.72-.3,1.03-1.25l.35-1.07s1.19.74,1.57.81c.38.07.63.05.63.05"/>
            <path class="cls-3" d="M10.18,9.98c0,.32.71,1.27,2.47,1.5,1.76.23,3.9,2.87,3.9,2.87,0,0-3.1-4.42-3.71-4.66-1-.38-.91-2.38-.91-2.38,0,0-1.24,1.06-2.03,1.31-.79.25.28,1.37.28,1.37"/>
            <path class="cls-26" d="M15.97,20.63c-.16.4.21,3.62.21,3.62l.55,4.16-.75.46s-.48-7.13-.39-8c.09-.87.69-2.44.69-2.98s-.08-3.4-.08-3.4l.34-.18s.67,3.22-.57,6.31"/>
            <path class="cls-23" d="M12.41,5.39s.71,2.04.66,3c-.04.96-.45,1.52.18,1.94.63.42,1.45.35,1.16,1.35-.29,1-.63,1.23-.04,2,.6.77-.56,2.5-.65,2.56-.09.06-.04-1.62-1.16-1.56-1.12.06-2.58-1.19-2-2.12.58-.92-1.52-1.07-1.35-2.31.17-1.24,1.68-.62,1.56-1.94-.3-3.2,1.64-2.93,1.64-2.93"/>
            <path class="cls-2" d="M10.92,55.01c0,.21.7,3.92.72,4.26.03.43.11.8.44,1.22.38.48.57.44,1.03.36.47-.09.44-.34.31-.76-.13-.42-.59-.4-.62-.7-.03-.29-.18-2.32.24-3,.77-1.24-.17-2.93-.17-2.93,0,0-1.93,1.45-1.96,1.54"/>
            <path class="cls-16" d="M10.94,55.13c.1.66.69,3.82.71,4.14.02.29.05.59.26.95-.04-.41-.16-2.31.25-2.96.77-1.24-.17-2.93-.17-2.93,0,0-.53.4-1.04.8"/>
            <path class="cls-26" d="M3.33,51.26c.07,1.21,2.82,2.74,3.48,3.63.58.78,3.91,1.97,4.45,1.87.54-.09,1.33-.62,1.63-1.17.29-.56.57-3.27.57-3.27,0,0-.87-.15-1.09-.52-.25-.43-2.76.02-3-.15-.44-.34-3.58-1.98-4.38-1.73-.73.23-1.78.25-1.64,1.34"/>
            <path class="cls-2" d="M2.86,51.02c.8.99,3.02,2.33,3.52,2.99.58.79,3.91,1.98,4.45,1.88.54-.1,1.11-2.68,1.41-3.23.24-.46.2-.26.11-.86-.26-.43,1.11-2.76-2.17-1.41-.51.21-3.9-1.8-4.75-1.81-1.17-.02-2.7,1.35-2.57,2.43"/>
            <path class="cls-22" d="M13.14,48.03c.05-.07-.07-.61.59-.5.66.11.81,1.17.81,1.17l-1.4-.67Z"/>
            <path class="cls-2" d="M10.18,51.16c.5,1.3,2.74,1.7,2.88,1.66,0,0,.04-.02.14-.04.18-.03.54-.07,1.11.09.87.24,1.1-.02,1.19-.36.1-.33,0-.56,0-.56,0,0,.23-.12.4-.31.15-.17.04-.28,0-.56,0,0,0-.02,0-.03-.04-.31-.76-.55-.76-1.16,0-.28-.1-.68-.33-1.04-.26-.42-.72-.8-1.42-.98-1.34-.32-2.04.79-2.66,1.14-.62.36-1.05.84-.55,2.14"/>
            <path class="cls-16" d="M14.87,48.95s.31.17.17.39c-.13.21-.33.32-.47.18-.14-.14.3-.56.3-.56"/>
            <path class="cls-16" d="M13.25,50.29c-.28.04-.43-.29-.43-.29,0,0,.78-.18.83,0,.05.18-.06.24-.4.29"/>
            <path class="cls-16" d="M12,51.34c.25.53.46,1.12,1.2,1.45.18-.04.54-.07,1.11.09.87.24,1.1-.01,1.19-.36.09-.34,0-.56,0-.56,0,0,.23-.12.4-.31.15-.17.04-.28,0-.56-.37.1-.68.18-.68.18,0,0-.34.27-.79.05-.45-.22-1.51.08-2.02-.29-.5-.37-.71-.28-.42.31"/>
            <path class="cls-15" d="M15.98,51.07s-.08-.23-.31-.33c-.23-.1-.75.44-.75.64s.26.35.36.31c.1-.04.02-.17.11-.18.09,0,.09.31.23.29.13-.02.56-.02.36-.74"/>
            <path class="cls-10" d="M15.5,51.96s-.55.37-.79.35c-.24-.02-1.82-.55-1.82-.55,0,0,1.68.89,2.05.9.75,0,.56-.69.56-.69"/>
            <path class="cls-15" d="M15.14,49.46s.11.04.17.33c.06.29-.33.32-.33.32,0,0-.26-.26-.12-.47.14-.21.28-.18.28-.18"/>
            <path class="cls-15" d="M13.84,50.65s-.11-.33-.48-.24c-.37.09-.31.44-.31.44,0,0,.16.32.46.18.3-.13.34-.39.34-.39"/>
            <path class="cls-22" d="M11.46,49.76s.14.44-.22.41c-.36-.03-.83-.17-.65.44.18.61-.25.87-.27.84-.02-.03-.22-.75-.47-1.15-.25-.4.11-1.4.63-1.27.52.13.97.74.97.74"/>
            <path class="cls-2" d="M10.34,56.06s.3.08-.16.48c-.47.4-1.16-.38-.75.57.41.94,1.25,1.93.89,2.52s-1.64-.19-1.85-.21c-.21-.02.08-.67.21-.8.13-.13.46.06.46.06,0,0-1.57-1.74-1.6-2.5-.03-.76,1.2-1.45,1.2-1.93s.29-1.41.29-1.41c0,0-.14,1.18.3,1.91.44.74,1.01,1.3,1.01,1.3"/>
            <path class="cls-26" d="M2.72,51.45c-.13,1.03-.08,3.59-.06,3.71.18.55.58,1.39.79,1.74.08.14.12.28.12.41.21.39.04.78.04,1.13.16.21.47.26.7.3.29.04.54.04.81-.13.02-.02.04-.03.04-.06-.15-.26-.41-.56-.47-.68-.13-.27-.81-2.34-.8-2.79.03-.44.3-1.1.81-1.61.51-.52.25-2.41.25-2.41,0-.19-.16-.71-.53-1.19-.55-.7-1.58.47-1.71,1.57"/>
            <path class="cls-13" d="M2.62,51.09c-.13,1.1-.07,3.29-.06,3.66.02.44.65,1.75.9,2.16.45.8-.58,1.61.86,1.84.29.05.54.04.81-.13.25-.18-.43-.9-.53-1.1-.14-.34-.82-2.39-.79-2.78.03-.45.3-1.1.81-1.62.51-.51.6-1.51.56-2.04,0,0-.28-.93-.28-.93-.02-.17-.16-.1-.57-.62-.55-.71-1.58.47-1.71,1.57"/>
            <path class="cls-2" d="M6.46,49.39s-2.28-.53-3.76.1c-1.48.63-2.57-1.02-2.6-1.25-.02-.23-.52,1.39.96,2.09,1.63.77,2.44-.51,3.95.37.79.46,1.44-1.31,1.44-1.31"/>
            <path class="cls-17" d="M22.97,49.97s.47-.24.66.41c.19.65.98,2.72,1.34,2.87.36.15.54.79-.21.78-.74-.01-1.82-1.68-2.21-2.42-.39-.74-.39-1.28.41-1.64"/>
            <path class="cls-6" d="M13.38,52.91c0,.12-.03.23-.09.33-.29.47-1.17.44-1.98-.05-.64-.39-1.03-.96-1.03-1.41v.44c0,.45.4,1.02,1.03,1.41.81.5,1.69.52,1.98.05.11-.18.09-.29.09-.77"/>
            <polygon class="cls-6" points="3.2 30.07 11.36 49.26 10.96 49.26 2.97 30.53 3.2 30.07"/>
            <path class="cls-1" d="M3.9,30.89c-.03-.1-.47-.69-.7-.82-.23-.13-.61.03-.46.54s.32.4.56.85c.25.45.71-.1.59-.56"/>
            <path class="cls-5" d="M28.32,19.11c.06-.06.1-.68.4-.79.31-.11.42.54.38.79-.04.25-.71.79-.78.53-.08-.26,0-.53,0-.53"/>
            <path class="cls-5" d="M28.69,19.81c.06-.06.1-.68.4-.79.31-.11.48.25.44.5-.04.25-.77,1.08-.84.82-.08-.26,0-.53,0-.53"/>
            <path class="cls-24" d="M28.7,20.43c.06-.06.24-.41.54-.52.31-.11.28.27.24.52-.04.25-.71.79-.78.53-.08-.26,0-.53,0-.53"/>
            <path class="cls-9" d="M29.1,17.89s-.65.79-.6,1.17c.05.38,0,.84.22,1.21.22.37,1.42,2.76,1.51,4.4.09,1.64.25,3.25,0,3.7s-3.23-.44-3.87-1.14c-.63-.7-1.68-1.25-1.62-2.17.06-.92,0-2.64.94-3.77.94-1.13,1.88-1.2,1.87-1.96-.01-.76-.43-2.29-.26-2.51.17-.21,2.17.49,1.81,1.06"/>
            <path class="cls-5" d="M25.97,18.94s.82-.14,1.01.15c.19.29.48.71.63.7.15-.01,1.81.74,1.27.84-.54.1-.54-.21-1.08,0-.54.21-1.43.4-1.64.02-.21-.39-1.24-.36-.2-1.71"/>
            <path class="cls-23" d="M27.84,22.88s-.17.94.08,1.29c.25.35.56.65.54.96-.02.31-.34.4-.34.4,0,0,.34.56.34.85,0,.29-.94.83-2.17-.29-1.23-1.11-.11-1.62-.11-1.62,0,0-.19-.65.11-.85.31-.19.8-.1.8-.1l.76-.65Z"/>
            <path class="cls-20" d="M28.46,17.15c.63.24.75.74.54.74s-.5-.08-.5-.08c0,0-.04.4-.38.08-.35-.33-.04-.48-.33-.54-.29-.06-.58-.39-.49-.53.09-.14.54.09,1.17.33"/>
            <path class="cls-20" d="M27.99,18.31v1.39s-.39-1.55-.31-1.76c.08-.21.31.37.31.37"/>
            <path class="cls-20" d="M28.46,20.79c.04.09.06.79.33,1.09.27.31.19.83-.16.54-.36-.29-.16-1.63-.16-1.63"/>
            <path class="cls-20" d="M27.68,20.96s-.28,1.17-.72,1.33c-.44.15-.4-.33-.13-.56.27-.23.86-.77.86-.77"/>
            <path class="cls-19" d="M29.71,23.82s.34,1.64.18,2.46c-.15.83-.31,1.33-.5-.17-.19-1.5-.99-2.54-.7-2.71.29-.17.87-.47,1.01.42"/>
            <path class="cls-24" d="M28.63,21.01s.17-.29.38-.37c.22-.08.2.19.17.37-.03.18-.5.55-.55.37-.05-.18,0-.37,0-.37"/>
            <path class="cls-3" d="M25.36,19.01s-.31.12-.62-.38c-.31-.5-.69-.5-.65,0,.04.5,1.27.38,1.27.38"/>
            <path class="cls-3" d="M25.17,20.09s-.23.4-.89.3c-.65-.11-.35-.76,0-.68.35.08.89.38.89.38"/>
            <path class="cls-3" d="M3.31,27.07c.12-.14.35-.33.43-.94.08-.62-.43-.39-.43,0,0,.38,0,.94,0,.94"/>
            <path class="cls-3" d="M2.55,27.07s.31-.34,0-.66c-.31-.32,0,.66,0,.66"/>
            <path class="cls-3" d="M11.74,27.47l.77-.44c.07-1,0-2.2-.07-4.32l-.73.42c.21.73.07,3.59.04,4.34"/>
            <path class="cls-3" d="M17.4,19.84c.12.53.17.67.24,1.91,0,.14.05.64.08,2.26.4-.22.22-.13.76-.43.06-.95.07-1.79-.49-4.09l-.6.35Z"/>
          </g>
        </g>
      </g>
    </g>
  </g>
</svg>