<?xml version="1.0" encoding="UTF-8"?>
<svg xmlns="http://www.w3.org/2000/svg" xmlns:xlink="http://www.w3.org/1999/xlink" viewBox="0 0 36.1 48.28">
  <defs>
    <style>
      .cls-1 {
        fill: #813012;
      }

      .cls-2 {
        clip-path: url(#clippath-34);
      }

      .cls-3 {
        fill: #ebedee;
      }

      .cls-4 {
        fill: #9f1930;
      }

      .cls-5 {
        clip-path: url(#clippath-38);
      }

      .cls-6 {
        clip-path: url(#clippath-21);
      }

      .cls-7 {
        clip-path: url(#clippath-6);
      }

      .cls-8 {
        clip-path: url(#clippath-7);
      }

      .cls-9 {
        clip-path: url(#clippath-17);
      }

      .cls-10 {
        clip-path: url(#clippath-31);
      }

      .cls-11 {
        clip-path: url(#clippath-15);
      }

      .cls-12 {
        clip-path: url(#clippath-33);
      }

      .cls-13 {
        fill: #4f5f27;
      }

      .cls-14 {
        clip-path: url(#clippath-18);
      }

      .cls-15 {
        clip-path: url(#clippath-47);
      }

      .cls-16 {
        fill: #403c3a;
      }

      .cls-17 {
        clip-path: url(#clippath-4);
      }

      .cls-18 {
        clip-path: url(#clippath-22);
      }

      .cls-19 {
        clip-path: url(#clippath-23);
      }

      .cls-20 {
        fill: #211f1d;
      }

      .cls-21 {
        fill: #d7d5d3;
      }

      .cls-22 {
        fill: #e62f56;
      }

      .cls-23 {
        fill: #292726;
      }

      .cls-24 {
        fill: #c4c1bc;
      }

      .cls-25 {
        clip-path: url(#clippath-9);
      }

      .cls-26 {
        clip-path: url(#clippath-10);
      }

      .cls-27 {
        clip-path: url(#clippath-42);
      }

      .cls-28 {
        clip-path: url(#clippath-43);
      }

      .cls-29 {
        clip-path: url(#clippath-25);
      }

      .cls-30 {
        clip-path: url(#clippath-27);
      }

      .cls-31 {
        fill: #aca899;
      }

      .cls-32 {
        fill: #533b2c;
      }

      .cls-33 {
        fill: #e57a26;
      }

      .cls-34 {
        fill: #686457;
      }

      .cls-35 {
        clip-path: url(#clippath-11);
      }

      .cls-36 {
        fill: #8d3614;
      }

      .cls-37 {
        fill: none;
      }

      .cls-38 {
        fill: #262524;
      }

      .cls-39 {
        clip-path: url(#clippath-36);
      }

      .cls-40 {
        fill: #392e22;
      }

      .cls-41 {
        clip-path: url(#clippath-35);
      }

      .cls-42 {
        clip-path: url(#clippath-48);
      }

      .cls-43 {
        clip-path: url(#clippath-28);
      }

      .cls-44 {
        fill: #cdcbc6;
      }

      .cls-45 {
        fill: #242423;
      }

      .cls-46 {
        fill: #757b7d;
      }

      .cls-47 {
        clip-path: url(#clippath-1);
      }

      .cls-48 {
        fill: #2f302f;
      }

      .cls-49 {
        fill: #90bf21;
      }

      .cls-50 {
        fill: #008166;
      }

      .cls-51 {
        fill: #363636;
      }

      .cls-52 {
        clip-path: url(#clippath-45);
      }

      .cls-53 {
        isolation: isolate;
      }

      .cls-54 {
        clip-path: url(#clippath-46);
      }

      .cls-55 {
        clip-path: url(#clippath-40);
      }

      .cls-56 {
        fill: #424142;
      }

      .cls-57 {
        clip-path: url(#clippath-5);
      }

      .cls-58 {
        clip-path: url(#clippath-20);
      }

      .cls-59 {
        clip-path: url(#clippath-8);
      }

      .cls-60 {
        fill: #b8b5a8;
      }

      .cls-61 {
        fill: #8c887e;
      }

      .cls-62 {
        clip-path: url(#clippath-41);
      }

      .cls-63 {
        fill: #f39939;
      }

      .cls-64 {
        clip-path: url(#clippath-3);
      }

      .cls-65 {
        fill: #4d3b34;
      }

      .cls-66 {
        clip-path: url(#clippath-26);
      }

      .cls-67 {
        fill: #262625;
      }

      .cls-68 {
        fill: #62504a;
      }

      .cls-69 {
        fill: #e84f0e;
      }

      .cls-70 {
        clip-path: url(#clippath-12);
      }

      .cls-71 {
        fill: #535454;
      }

      .cls-72 {
        fill: #b4b1ab;
      }

      .cls-73 {
        fill: #716d61;
      }

      .cls-74 {
        clip-path: url(#clippath-14);
      }

      .cls-75 {
        fill: #2b1c16;
      }

      .cls-76 {
        fill: #babfbf;
      }

      .cls-77 {
        clip-path: url(#clippath-30);
      }

      .cls-78 {
        clip-path: url(#clippath-19);
      }

      .cls-79 {
        mix-blend-mode: multiply;
      }

      .cls-80 {
        fill: #efc6b6;
      }

      .cls-81 {
        fill: #402b1e;
      }

      .cls-82 {
        fill: #232423;
      }

      .cls-83 {
        fill: #573d30;
      }

      .cls-84 {
        clip-path: url(#clippath-32);
      }

      .cls-85 {
        fill: #504c3d;
      }

      .cls-86 {
        fill: #7a766b;
      }

      .cls-87 {
        fill: #a6c613;
      }

      .cls-88 {
        fill: #3a2822;
      }

      .cls-89 {
        fill: #dddfe1;
      }

      .cls-90 {
        clip-path: url(#clippath-39);
      }

      .cls-91 {
        fill: #b4b3af;
      }

      .cls-92 {
        fill: #7caf2a;
      }

      .cls-93 {
        clip-path: url(#clippath-16);
      }

      .cls-94 {
        clip-path: url(#clippath-2);
      }

      .cls-95 {
        clip-path: url(#clippath-29);
      }

      .cls-96 {
        clip-path: url(#clippath-49);
      }

      .cls-97 {
        clip-path: url(#clippath-37);
      }

      .cls-98 {
        clip-path: url(#clippath-13);
      }

      .cls-99 {
        fill: #59554e;
      }

      .cls-100 {
        fill: #ef7f55;
      }

      .cls-101 {
        clip-path: url(#clippath-24);
      }

      .cls-102 {
        fill: #b5b2ac;
      }

      .cls-103 {
        clip-path: url(#clippath);
      }

      .cls-104 {
        fill: #827f74;
      }

      .cls-105 {
        fill: #e6e5e0;
      }

      .cls-106 {
        fill: #80a6a9;
      }

      .cls-107 {
        mix-blend-mode: hard-light;
      }

      .cls-108 {
        clip-path: url(#clippath-44);
      }
    </style>
    <clipPath id="clippath">
      <rect class="cls-37" x="17.21" y="18.12" width="5.32" height="11.83"/>
    </clipPath>
    <clipPath id="clippath-1">
      <rect class="cls-37" x="17.21" y="18.12" width="5.32" height="11.83"/>
    </clipPath>
    <clipPath id="clippath-2">
      <rect class="cls-37" x="6.98" y="28.65" width="3.75" height="11.1"/>
    </clipPath>
    <clipPath id="clippath-3">
      <rect class="cls-37" x="6.98" y="28.65" width="3.75" height="11.1"/>
    </clipPath>
    <clipPath id="clippath-4">
      <rect class="cls-37" x="8.98" y="27.68" width=".75" height="1.01"/>
    </clipPath>
    <clipPath id="clippath-5">
      <rect class="cls-37" x="8.98" y="27.68" width=".75" height="1.01"/>
    </clipPath>
    <clipPath id="clippath-6">
      <rect class="cls-37" x="10.23" y="27.61" width=".86" height="1.5"/>
    </clipPath>
    <clipPath id="clippath-7">
      <rect class="cls-37" x="10.23" y="27.61" width=".86" height="1.49"/>
    </clipPath>
    <clipPath id="clippath-8">
      <rect class="cls-37" x="21.4" y="21.04" width="2.02" height="10.92"/>
    </clipPath>
    <clipPath id="clippath-9">
      <rect class="cls-37" x="21.4" y="21.04" width="2.02" height="10.92"/>
    </clipPath>
    <clipPath id="clippath-10">
      <rect class="cls-37" x="10.28" y="26.34" width="9.67" height="8.72"/>
    </clipPath>
    <clipPath id="clippath-11">
      <rect class="cls-37" x="10.28" y="26.34" width="9.67" height="8.72"/>
    </clipPath>
    <clipPath id="clippath-12">
      <rect class="cls-37" x="17.77" y="29.12" width="3.08" height="2.89"/>
    </clipPath>
    <clipPath id="clippath-13">
      <rect class="cls-37" x="17.77" y="29.12" width="3.08" height="2.89"/>
    </clipPath>
    <clipPath id="clippath-14">
      <rect class="cls-37" x="9.71" y="23.66" width="1.44" height="4.17"/>
    </clipPath>
    <clipPath id="clippath-15">
      <rect class="cls-37" x="9.71" y="23.66" width="1.44" height="4.17"/>
    </clipPath>
    <clipPath id="clippath-16">
      <rect class="cls-37" x="21.8" y="26.01" width="8.06" height=".96"/>
    </clipPath>
    <clipPath id="clippath-17">
      <rect class="cls-37" x="21.81" y="26.01" width="8.06" height=".96"/>
    </clipPath>
    <clipPath id="clippath-18">
      <rect class="cls-37" x="20.69" y="26.31" width="9.9" height="7.97"/>
    </clipPath>
    <clipPath id="clippath-19">
      <rect class="cls-37" x="20.69" y="26.31" width="9.9" height="7.97"/>
    </clipPath>
    <clipPath id="clippath-20">
      <rect class="cls-37" x="24" y="16.34" width="8.39" height="3.86"/>
    </clipPath>
    <clipPath id="clippath-21">
      <rect class="cls-37" x="24" y="16.34" width="8.39" height="3.86"/>
    </clipPath>
    <clipPath id="clippath-22">
      <rect class="cls-37" x="24.4" y="15.39" width="7.52" height="3.36"/>
    </clipPath>
    <clipPath id="clippath-23">
      <rect class="cls-37" x="24.4" y="15.39" width="7.52" height="3.36"/>
    </clipPath>
    <clipPath id="clippath-24">
      <rect class="cls-37" x="30.02" y="17.42" width="1.51" height="9.15"/>
    </clipPath>
    <clipPath id="clippath-25">
      <rect class="cls-37" x="30.02" y="17.42" width="1.51" height="9.15"/>
    </clipPath>
    <clipPath id="clippath-26">
      <rect class="cls-37" x="24.42" y="18.43" width="2.09" height="1.37"/>
    </clipPath>
    <clipPath id="clippath-27">
      <rect class="cls-37" x="24.42" y="18.43" width="2.09" height="1.37"/>
    </clipPath>
    <clipPath id="clippath-28">
      <rect class="cls-37" x="26.81" y="20" width="3.14" height="6.24"/>
    </clipPath>
    <clipPath id="clippath-29">
      <rect class="cls-37" x="26.81" y="20.01" width="3.14" height="6.24"/>
    </clipPath>
    <clipPath id="clippath-30">
      <rect class="cls-37" x="25.48" y="17.72" width="2.23" height="1.51"/>
    </clipPath>
    <clipPath id="clippath-31">
      <rect class="cls-37" x="25.48" y="17.72" width="2.23" height="1.5"/>
    </clipPath>
    <clipPath id="clippath-32">
      <rect class="cls-37" x="20.66" y="17.82" width="5.29" height="18.72"/>
    </clipPath>
    <clipPath id="clippath-33">
      <rect class="cls-37" x="20.66" y="17.82" width="5.29" height="18.72"/>
    </clipPath>
    <clipPath id="clippath-34">
      <rect class="cls-37" x="28.94" y="15.82" width="2.33" height="1.32"/>
    </clipPath>
    <clipPath id="clippath-35">
      <rect class="cls-37" x="28.94" y="15.82" width="2.33" height="1.32"/>
    </clipPath>
    <clipPath id="clippath-36">
      <rect class="cls-37" x="27.15" y="16.81" width="2.18" height="1.46"/>
    </clipPath>
    <clipPath id="clippath-37">
      <rect class="cls-37" x="27.15" y="16.81" width="2.18" height="1.46"/>
    </clipPath>
    <clipPath id="clippath-38">
      <rect class="cls-37" x="16.75" y=".05" width="6.33" height="3.75"/>
    </clipPath>
    <clipPath id="clippath-39">
      <rect class="cls-37" x="16.75" y=".05" width="6.33" height="3.75"/>
    </clipPath>
    <clipPath id="clippath-40">
      <rect class="cls-37" x="5.65" y="13.12" width="1.9" height="1.71"/>
    </clipPath>
    <clipPath id="clippath-41">
      <rect class="cls-37" x="5.65" y="13.12" width="1.9" height="1.71"/>
    </clipPath>
    <clipPath id="clippath-42">
      <path class="cls-37" d="M17.9,19.89c-.03.25-.13.54-.24.64-.03.03-.06.04-.08.04.12.02,2.36.48,2.72.82.03,0,.06,0,.1-.05.13-.13.25-.47.28-.76.02-.2,0-.33-.07-.35-.48.12-2.65-.61-2.77-.65.05.02.08.12.06.29"/>
    </clipPath>
    <clipPath id="clippath-43">
      <path class="cls-37" d="M17.58,20.57c.39.08,2.33.49,2.69.81-.35-.34-2.6-.8-2.71-.82,0,0,.02.01.03.01"/>
    </clipPath>
    <clipPath id="clippath-44">
      <path class="cls-37" d="M17.76,19.63c.11.04,2.31.76,2.75.65.02-.03.05-.04.07-.04-.47.12-2.65-.61-2.76-.65-.02,0-.04.02-.06.04"/>
    </clipPath>
    <clipPath id="clippath-45">
      <path class="cls-37" d="M20.61,20.27h0,0ZM20.58,20.24s-.04.02-.07.04c-.13.12-.25.46-.28.76-.02.17,0,.29.05.33.05.05.13.11.21.13.04,0,.15.03.25-.05.29-.2.33-.57.34-.65.03-.28-.06-.58-.36-.58-.04,0-.09,0-.14.02"/>
    </clipPath>
    <clipPath id="clippath-46">
      <rect class="cls-37" x="19.5" y="18.91" width="1.11" height=".57"/>
    </clipPath>
    <clipPath id="clippath-47">
      <rect class="cls-37" x="19.5" y="18.91" width="1.11" height=".57"/>
    </clipPath>
    <clipPath id="clippath-48">
      <rect class="cls-37" x="17.99" y="10.96" width="7.89" height="10.28"/>
    </clipPath>
    <clipPath id="clippath-49">
      <rect class="cls-37" x="17.99" y="10.96" width="7.89" height="10.28"/>
    </clipPath>
  </defs>
  <g class="cls-53">
    <g id="Calque_2">
      <g id="_Éléments_Mise_en_page" data-name="Éléments_Mise_en_page">
        <g>
          <g>
            <path class="cls-46" d="M33.23,16.27c0,.46.32,1.01.72,1.24.4.23.72.05.72-.41s-.32-1.01-.72-1.24c-.4-.23-.72-.05-.72.41"/>
            <path class="cls-61" d="M33.12,16.34c0,.46.32,1.01.72,1.24.4.23.72.05.72-.41s-.32-1.01-.72-1.24c-.4-.23-.72-.05-.72.41"/>
            <path class="cls-34" d="M33.23,16.41c0,.39.27.86.61,1.05.34.19.61.04.61-.35s-.27-.86-.61-1.05c-.34-.19-.61-.04-.61.35"/>
            <path class="cls-56" d="M15.86,31.4l1.79,1.06,1.52-.88-1.79-1.06-.76.33-.76.54ZM18.33,31.75l-.99-.57h.03s.98.56.98.56h-.02ZM16.57,31.56l.06-.04,1.07.63-.06.04-1.07-.62Z"/>
            <polygon class="cls-82" points="17.66 33.04 18.42 32.68 19.17 32.17 19.17 31.58 18.42 31.91 17.66 32.46 17.66 33.04"/>
            <polygon class="cls-51" points="15.86 31.4 17.66 32.46 17.66 33.04 15.86 31.98 15.86 31.4"/>
            <polygon class="cls-33" points="16.15 31.73 17.37 32.45 17.37 32.71 16.15 31.99 16.15 31.73"/>
            <polygon class="cls-82" points="16.94 30.95 17.34 31.18 17.37 31.16 18.35 31.74 18.77 31.58 17.37 30.76 16.94 30.95"/>
            <polygon class="cls-82" points="16.25 31.38 16.57 31.56 16.63 31.52 17.7 32.15 18.03 31.94 16.63 31.12 16.25 31.38"/>
            <path class="cls-61" d="M18.25,32.43c0,.13.09.18.2.12.11-.07.2-.22.2-.35s-.09-.18-.2-.12c-.11.07-.2.22-.2.35"/>
            <polygon class="cls-99" points="19.05 32.15 20.26 35.39 19.72 35.53 18.32 32.6 18.38 32.26 18.66 31.9 19.05 32.15"/>
            <path class="cls-23" d="M18.12,29.62s-.81.55-.94.63c-.13.08-1.42.7-1.53.92-.11.22-.15.41-.15.47s-.1.31.14.74c.24.44.84.31.89.31s.87-.43,1.1-.68c.23-.24.82-.84,1.2-.95.38-.11.26,0,.75-.25.49-.25.4-.42.4-.42,0,0-.27-.95-.48-.95-.21,0-.39,0-.39,0l-.99.18Z"/>
            <path class="cls-100" d="M15.92,25.32c.44.92,1.61,2.96,1.82,3.51.2.55.16.93.16.93,0,0-.22.54.57.42.33-.05.63-.13.87-.23.34-.14.54-.31.46-.47-.14-.28-.37-1.27-.52-2.91-.15-1.64-.95-2.73-.95-2.73,0,0,.05-.17.45-.92.4-.75.83-1.31,1.68-2.14.85-.83,1.51-1.64,1.51-1.64,0,0,.26-.48.54-1.02.32-.61.66-1.29.66-1.38,0-.18-2.96-2-3.73-1.22-.78.79-2.54,3.43-2.82,4.04-.29.61-1.19,2.2-1.3,3.04-.11.84.15,1.8.59,2.72"/>
          </g>
          <g>
            <g class="cls-79">
              <g class="cls-103">
                <g class="cls-47">
                  <path class="cls-80" d="M17.21,24.68s.78-.14,1.1,0c.32.14.57,1.21.61,2.07.05.86.1,2.36.32,2.88.04.08.07.19.11.32.34-.14.54-.31.46-.47-.14-.27-.37-1.27-.52-2.91-.15-1.64-.95-2.73-.95-2.73,0,0,.05-.17.45-.92.4-.75.83-1.31,1.68-2.14.85-.83,1.51-1.64,1.51-1.64,0,0,.26-.49.54-1.02-.61.44-1.39,1.01-1.84,1.34-.81.58-1.69,1.76-1.88,2-.18.23-1.08,1.87-1.08,1.87l-.21,1.09-.32.26Z"/>
                </g>
              </g>
            </g>
            <path class="cls-1" d="M19.28,15.9s-1.12,1.14-1.73,1.89c-.62.75-1.18,2.12-1.18,2.12,0,0,.76-.15,1.55.18.79.34,1.28,1.03,1.28,1.09s.28.83.28.83c0,0,1.33-1.43,1.64-1.63.31-.2.87-.87,1.07-1.14.2-.26.54-1.81.52-1.92-.01-.11-3.42-1.43-3.42-1.43"/>
            <polygon class="cls-4" points="29.25 25.44 29.49 16.22 29.06 16.21 28.81 25.43 29.25 25.44"/>
            <rect class="cls-4" x="26.72" y="18.16" width=".44" height="7.79" transform="translate(-7.62 17.79) rotate(-32.27)"/>
            <path class="cls-4" d="M6.9,39.19c.05-.11.09-.23.14-.35l.14-.35c.09-.23.18-.46.24-.7h0s0-.03,0-.03l.44-2.5c.14-.83.3-1.67.43-2.5.28-1.67.56-3.34.81-5.01l-.92-.15c-.29,1.67-.56,3.34-.82,5.01-.13.84-.25,1.67-.38,2.51l-.37,2.51v-.03c-.05.24-.08.49-.1.73l-.03.37c-.01.12-.03.25-.03.37l.47.11Z"/>
            <path class="cls-32" d="M6.83,31.32c2.2-1.27,4.16-1.2,5.41-.07-1.24-.78-3-.71-4.94.42-3.77,2.18-6.83,7.45-6.83,11.78,0,1.8.53,3.15,1.42,3.96-1.16-.73-1.88-2.22-1.88-4.31,0-4.33,3.06-9.6,6.83-11.78"/>
            <path class="cls-72" d="M3.13,34.68c.15.01.3-.05.38-.18.93-1.42,3.12-3.54,5.8-4.07,2.51-.5,4.38,2.09,4.53,2.03l.13-.73c-.55-.99-2.59-2.66-5.15-2.16-2.91.57-5.21,2.88-6.33,4.75.16.2.39.33.64.35"/>
            <path class="cls-21" d="M2.72,34.06s-.18.2-.03.33c.14.14.34.22.58.04.24-.18,1.33-2.16,3.41-3.42,2.08-1.26,2.68-1.28,2.68-1.28,0,0-1.7.04-3.47,1.28-1.78,1.24-3.16,3.04-3.16,3.04"/>
            <path class="cls-72" d="M22.27,29.16c.63-5.12,4.32-9.53,7.46-11.07,2.86-1.4,4.6.48,4.62.5l.7.19-.33-.65s-1.91-2.6-5.4-.88c-3.37,1.66-7.31,6.35-7.98,11.8l.94.11Z"/>
            <path class="cls-102" d="M.77,42.91c0,3.97,2.8,5.56,6.26,3.57,3.46-2,6.26-6.83,6.26-10.79s-2.8-5.56-6.26-3.57c-3.46,2-6.26,6.83-6.26,10.79M1.3,42.61c0-3.63,2.56-8.05,5.73-9.88,3.16-1.83,5.73-.36,5.73,3.26s-2.56,8.05-5.73,9.88c-3.16,1.83-5.73.36-5.73-3.27"/>
            <path class="cls-81" d="M.46,43.45c0,4.33,3.06,6.07,6.83,3.89,3.77-2.18,6.83-7.45,6.83-11.78s-3.06-6.07-6.83-3.89c-3.77,2.18-6.83,7.45-6.83,11.77M1.56,42.81c0-3.63,2.56-8.05,5.73-9.88,3.16-1.83,5.73-.36,5.73,3.26s-2.56,8.05-5.73,9.88c-3.16,1.83-5.73.36-5.73-3.27"/>
            <path class="cls-61" d="M1.03,43.12c0,3.96,2.8,5.56,6.26,3.57,3.46-2,6.26-6.83,6.26-10.79s-2.8-5.56-6.26-3.57c-3.46,2-6.26,6.83-6.26,10.8M1.56,42.81c0-3.63,2.56-8.05,5.73-9.88,3.16-1.83,5.73-.36,5.73,3.26s-2.56,8.05-5.73,9.88c-3.16,1.83-5.73.36-5.73-3.27"/>
            <path class="cls-102" d="M8.34,37.39l-.25-.25-.15-.08-1.13.47-.96,1.03-.58,1.57.16,1.08.68.54.15.08,1.05-.48.73-.76.52-.89.19-.78.57-.4.15-.52-.15-.08-.96-.52ZM5.98,38.93l.62-.73.44.57-1.33,1.07.28-.91ZM6.37,41.23l-.58-.4-.09-.64.72-.55.07.48-.12,1.11ZM7.16,40.99l-.48.15v-1.02h.42l.56.4-.49.47ZM7.41,38.68l-.57-.83.56-.24h.39l.39.24-.52.83h-.26ZM8.36,39.11l-.22.52-.29.49-.05-1.15.57-.92v1.06Z"/>
            <path class="cls-61" d="M8.5,37.48l-.4-.34-1.13.47-.96,1.03-.58,1.57.16,1.08.68.54,1.2-.39.73-.76.51-.89.19-.78.57-.4v-.6l-.96-.52ZM6.13,39.01l.62-.73.44.57-1.33,1.07.28-.91ZM6.52,41.31l-.58-.4-.09-.64.72-.55.07.48-.12,1.11ZM7.31,41.07l-.48.15v-1.02h.42l.56.4-.49.47ZM7.56,38.77l-.57-.83.56-.24h.39l.39.24-.52.83h-.26ZM8.51,39.19l-.22.52-.29.49-.05-1.15.57-.92v1.06Z"/>
            <path class="cls-22" d="M7.33,39.75c.12-.09.22-.19.33-.28l.32-.29.65-.58.08-.07.03-.13,1.99-9.67-.92-.18-1.89,9.69.1-.2-.52.69-.26.35c-.09.12-.18.23-.26.35l.35.33Z"/>
            <g class="cls-79">
              <g class="cls-94">
                <g class="cls-64">
                  <path class="cls-91" d="M7.94,38.15l.53.09,1.85-9.58s.01,0,.03,0l.39.08-2,9.67-.03.13-.07.07-.65.58-.32.29c-.11.09-.21.19-.33.28l-.35-.33c.08-.12.17-.23.26-.35l.26-.35.44-.58Z"/>
                </g>
              </g>
            </g>
            <path class="cls-22" d="M7.91,27.61s.47.54.71.6c.12.03.26.03.36.02.1,0,.18-.02.18-.02l.36.28s-.02.1,0,.2h0c.02.08.07.16.17.22.21.11.37.17.53.18.14.02.28,0,.43-.03.31-.06.43-.3.43-.3,0,0,0-.58-.12-.82-.03-.07-.18-.2-.38-.34-.02-.02-.05-.04-.08-.06-.03-.02-.06-.04-.08-.06-.53-.38-1.25-.84-1.29-.84-.01,0-.04,0-.07.01-.15.04-.46.17-.71.33-.31.2-.44.62-.44.62"/>
            <g class="cls-79">
              <g class="cls-17">
                <g class="cls-57">
                  <path class="cls-91" d="M8.98,28.2v.04c.1,0,.18-.03.18-.03l.36.28s-.02.1,0,.2c.09-.14.2-.68.2-.68,0,0-.37-.33-.48-.33s-.26.52-.26.52"/>
                </g>
              </g>
            </g>
            <g class="cls-79">
              <g class="cls-7">
                <g class="cls-8">
                  <path class="cls-91" d="M10.23,29.1c.14.02.28,0,.43-.03.31-.06.43-.3.43-.3,0,0,0-.58-.12-.82-.03-.07-.18-.19-.38-.34.19.15.31.28.29.34-.11.25-.51.18-.49.38.02.19-.15.77-.15.77"/>
                </g>
              </g>
            </g>
            <path class="cls-4" d="M21.68,26.87l7.24-1.25-.48-.26.27.47.08-.38c-.58.52-1.14,1.06-1.71,1.6l-1.68,1.62c-1.12,1.08-2.22,2.18-3.32,3.28h-.01s0,.02,0,.02c-.22.26-.43.52-.63.79-.2.27-.39.55-.56.85l.44.39c.28-.21.53-.44.77-.67.24-.24.47-.48.7-.74l-.02.02c1.11-1.09,2.21-2.19,3.3-3.3l1.63-1.67c.54-.57,1.08-1.12,1.61-1.7l.14-.15-.06-.24-.13-.52-.09-.34-.39.08-7.19,1.51.11.58Z"/>
            <path class="cls-3" d="M33.55,26.56c0,.3-.21.65-.47.8-.26.15-.46.03-.46-.26s.21-.65.46-.8c.26-.15.47-.03.47.26"/>
            <path class="cls-76" d="M33.63,26.6c0,.3-.21.65-.47.8-.26.15-.46.03-.46-.26s.21-.65.46-.8c.26-.15.47-.03.47.26"/>
            <path class="cls-63" d="M33.55,26.65c0,.25-.18.55-.39.68s-.39.03-.39-.22.18-.55.39-.68.39-.02.39.22"/>
            <path class="cls-3" d="M25.93,25.79c0,.3-.21.65-.47.8-.26.15-.46.03-.46-.26s.21-.65.46-.8c.26-.15.47-.03.47.26"/>
            <path class="cls-76" d="M26,25.84c0,.3-.21.65-.47.8-.26.15-.46.03-.46-.26s.21-.65.46-.8c.26-.15.47-.03.47.26"/>
            <path class="cls-63" d="M25.93,25.88c0,.25-.18.55-.39.68-.22.13-.39.03-.39-.22s.18-.55.39-.68c.22-.12.39-.02.39.22"/>
            <path class="cls-32" d="M28.81,18.63c2.2-1.27,4.16-1.2,5.41-.07-1.24-.78-3-.71-4.94.42-3.77,2.18-6.83,7.45-6.83,11.78,0,1.8.53,3.15,1.42,3.96-1.16-.73-1.88-2.22-1.88-4.31,0-4.33,3.06-9.6,6.83-11.78"/>
            <path class="cls-102" d="M22.75,30.22c0,3.97,2.8,5.56,6.26,3.57,3.46-2,6.26-6.83,6.26-10.79s-2.8-5.56-6.26-3.57c-3.46,2-6.26,6.83-6.26,10.79M23.28,29.91c0-3.63,2.56-8.05,5.73-9.88,3.16-1.83,5.73-.36,5.73,3.26s-2.56,8.05-5.73,9.88c-3.16,1.83-5.73.36-5.73-3.27"/>
            <path class="cls-81" d="M22.45,30.76c0,4.33,3.06,6.07,6.83,3.89,3.77-2.18,6.83-7.45,6.83-11.78s-3.06-6.07-6.83-3.89c-3.77,2.18-6.83,7.45-6.83,11.77M23.55,30.12c0-3.63,2.56-8.05,5.73-9.88,3.16-1.83,5.73-.36,5.73,3.26s-2.56,8.05-5.73,9.88c-3.16,1.83-5.73.36-5.73-3.27"/>
            <path class="cls-61" d="M23.01,30.43c0,3.97,2.8,5.56,6.26,3.57,3.46-2,6.26-6.83,6.26-10.79s-2.8-5.56-6.26-3.57c-3.46,2-6.26,6.83-6.26,10.79M23.55,30.12c0-3.63,2.56-8.05,5.73-9.88,3.16-1.83,5.73-.36,5.73,3.26s-2.56,8.05-5.73,9.88c-3.16,1.83-5.73.36-5.73-3.27"/>
            <polygon class="cls-44" points="30.04 24.65 29.78 24.79 29.75 24.64 29.67 24.58 29.42 24.82 29.23 24.73 29.04 25.04 28.8 25.08 28.69 25.41 28.43 25.58 28.42 25.88 28.19 26.14 28.28 26.37 28.1 26.69 28.18 26.75 28.28 26.8 28.19 27.13 28.27 27.19 28.42 27.12 28.43 27.42 28.51 27.47 28.69 27.28 28.8 27.48 28.88 27.54 29.04 27.24 29.23 27.33 29.42 27.02 29.67 26.98 29.78 26.65 30.04 26.49 30.05 26.19 30.28 25.93 30.19 25.7 30.45 25.44 30.37 25.38 30.19 25.26 30.36 24.99 30.28 24.93 30.05 24.94 30.04 24.65"/>
            <polygon class="cls-34" points="28.35 26.86 28.27 27.19 28.5 27.18 28.51 27.47 28.77 27.34 28.88 27.54 29.12 27.3 29.31 27.39 29.5 27.08 29.75 27.04 29.85 26.71 30.11 26.55 30.12 26.25 30.36 25.99 30.27 25.76 30.45 25.44 30.27 25.32 30.36 24.99 30.12 25 30.11 24.71 29.85 24.85 29.75 24.64 29.5 24.88 29.31 24.79 29.12 25.1 28.88 25.14 28.77 25.47 28.51 25.63 28.5 25.94 28.27 26.2 28.35 26.43 28.18 26.75 28.35 26.86"/>
            <polygon class="cls-44" points="30.04 25.14 30.25 25.13 30.33 25.19 30.17 25.43 30.33 25.53 30.4 25.59 30.17 25.81 30.25 26.02 30.04 26.25 30.03 26.52 29.8 26.66 29.7 26.96 29.49 26.99 29.32 27.27 29.15 27.19 29.01 27.46 28.93 27.4 28.84 27.22 28.68 27.4 28.61 27.34 28.6 27.08 28.47 27.15 28.39 27.09 28.47 26.8 28.37 26.74 28.34 26.65 28.46 26.38 28.42 26.17 28.6 25.93 28.64 25.68 28.85 25.52 28.97 25.26 29.18 25.19 29.35 24.97 29.52 25 29.72 24.84 29.78 24.89 29.84 24.99 30.05 24.9 30.03 24.92 30.04 25.14"/>
            <polygon class="cls-73" points="28.39 26.75 28.54 26.47 28.47 26.26 28.67 26.03 28.68 25.76 28.91 25.62 29.01 25.33 29.23 25.29 29.4 25.01 29.57 25.1 29.78 24.88 29.88 25.06 30.11 24.94 30.12 25.2 30.33 25.19 30.25 25.48 30.4 25.59 30.25 25.87 30.33 26.07 30.12 26.31 30.11 26.58 29.88 26.72 29.78 27.02 29.57 27.05 29.4 27.33 29.23 27.24 29.01 27.46 28.91 27.28 28.68 27.4 28.67 27.14 28.47 27.15 28.54 26.86 28.39 26.75"/>
            <polygon class="cls-44" points="30.02 25.33 30.2 25.32 30.28 25.38 30.13 25.58 30.27 25.67 30.34 25.73 30.13 25.92 30.2 26.09 30.02 26.3 30.01 26.53 29.81 26.66 29.72 26.92 29.53 26.94 29.38 27.19 29.24 27.12 29.12 27.36 29.05 27.3 28.96 27.14 28.84 27.31 28.76 27.25 28.75 27.02 28.65 27.09 28.57 27.03 28.64 26.78 28.54 26.71 28.55 26.6 28.62 26.37 28.64 26.19 28.76 25.97 28.83 25.78 28.99 25.6 29.11 25.43 29.29 25.32 29.44 25.19 29.6 25.17 29.76 25.08 29.79 25.13 29.88 25.17 30.05 25.13 30.01 25.18 30.02 25.33"/>
            <polygon class="cls-86" points="28.58 26.74 28.72 26.49 28.65 26.32 28.83 26.11 28.84 25.88 29.04 25.75 29.12 25.49 29.31 25.46 29.46 25.22 29.61 25.29 29.8 25.11 29.88 25.27 30.09 25.16 30.09 25.39 30.28 25.38 30.21 25.63 30.34 25.73 30.21 25.97 30.28 26.15 30.09 26.35 30.09 26.59 29.88 26.71 29.8 26.97 29.61 27 29.46 27.24 29.31 27.17 29.12 27.36 29.04 27.2 28.84 27.31 28.83 27.08 28.65 27.09 28.72 26.83 28.58 26.74"/>
            <polygon class="cls-44" points="30.02 25.52 30.18 25.51 30.25 25.57 30.12 25.73 30.23 25.81 30.31 25.87 30.12 26.02 30.18 26.18 30.02 26.35 30.01 26.55 29.84 26.66 29.77 26.88 29.61 26.91 29.48 27.11 29.35 27.05 29.27 27.27 29.19 27.21 29.12 27.08 29.02 27.23 28.94 27.17 28.94 26.97 28.86 27.04 28.78 26.98 28.84 26.76 28.74 26.7 28.8 26.55 28.8 26.37 28.88 26.21 28.94 26.02 29.05 25.87 29.16 25.7 29.29 25.6 29.43 25.46 29.56 25.42 29.71 25.34 29.83 25.32 29.83 25.38 29.95 25.36 30.07 25.37 30.02 25.45 30.02 25.52"/>
            <polygon class="cls-104" points="28.8 26.74 28.92 26.53 28.86 26.38 29.02 26.2 29.02 26 29.19 25.89 29.27 25.67 29.43 25.65 29.56 25.44 29.68 25.5 29.84 25.34 29.92 25.47 30.09 25.38 30.1 25.58 30.25 25.57 30.19 25.79 30.31 25.87 30.19 26.08 30.25 26.23 30.1 26.41 30.09 26.61 29.92 26.72 29.84 26.94 29.68 26.96 29.56 27.17 29.43 27.11 29.27 27.27 29.19 27.13 29.02 27.23 29.02 27.03 28.86 27.04 28.92 26.82 28.8 26.74"/>
            <polygon class="cls-44" points="29.04 26.78 28.99 26.96 29.07 27.02 29.12 26.95 29.13 27.11 29.2 27.17 29.27 27.04 29.33 27.15 29.41 27.21 29.47 27.02 29.57 27.07 29.68 26.9 29.81 26.88 29.87 26.69 30.02 26.6 30.02 26.43 30.15 26.29 30.1 26.16 30.28 26.04 30.2 25.98 30.1 25.92 30.23 25.79 30.15 25.74 30.02 25.74 30.1 25.64 30.02 25.58 29.87 25.66 29.89 25.6 29.81 25.54 29.68 25.68 29.57 25.63 29.47 25.8 29.33 25.82 29.27 26 29.13 26.09 29.12 26.26 28.99 26.41 29.04 26.53 28.94 26.71 29.04 26.78"/>
            <polygon class="cls-61" points="29.12 26.83 29.07 27.02 29.2 27.01 29.21 27.17 29.35 27.1 29.41 27.21 29.54 27.08 29.65 27.13 29.76 26.95 29.89 26.93 29.95 26.75 30.1 26.66 30.1 26.49 30.23 26.35 30.18 26.22 30.28 26.04 30.18 25.98 30.23 25.79 30.1 25.8 30.1 25.64 29.95 25.71 29.89 25.6 29.76 25.73 29.65 25.68 29.54 25.86 29.41 25.88 29.35 26.06 29.21 26.15 29.2 26.32 29.07 26.46 29.12 26.59 29.02 26.77 29.12 26.83"/>
            <path class="cls-44" d="M19.59,35.24l-.13.48.11.03.24-.05v.42s.12.04.12.04l.27-.24.16.3.11.03.25-.39.28.13.11.03.17-.49.35-.05.16-.48.38-.23v-.44s.36-.38.36-.38l-.13-.33.26-.46-.26-.17.24-.45-.11-.04-.34.02.09-.39-.11-.04-.38.2-.05-.26-.11-.04-.35.35-.28-.13-.28.45-.35.06-.16.48-.38.23v.44s-.36.38-.36.38l.13.33-.26.46.26.17ZM19.88,34.75c0-.37.14-.78.37-1.14l.33.33c-.09.16-.14.33-.14.49,0,0,0,.01,0,.02l-.54.54c-.01-.07-.02-.15-.02-.24M21.93,32.96l-.54.54c-.1-.08-.25-.09-.41,0-.09.05-.18.13-.25.22l-.33-.33c.17-.22.37-.41.59-.53.41-.24.77-.18.95.09M22.07,33.49c0,.39-.15.82-.4,1.19l-.33-.33c.1-.17.17-.36.17-.54,0-.03,0-.05,0-.08l.53-.53c.02.09.03.18.03.28M20,35.24l.53-.53c.1.11.26.13.45.02.08-.04.15-.11.22-.18l.33.33c-.16.2-.35.37-.55.49-.43.25-.8.18-.98-.13"/>
            <path class="cls-61" d="M19.69,35.28l-.13.48.34-.02v.42s.39-.2.39-.2l.16.3.35-.35.28.13.28-.45.35-.05.16-.48.38-.23v-.44s.36-.38.36-.38l-.13-.33.26-.46-.26-.17.13-.48-.34.02v-.42s-.39.2-.39.2l-.16-.3-.35.35-.28-.13-.28.45-.35.06-.16.48-.38.23v.44s-.36.38-.36.38l.13.33-.26.46.26.17ZM19.99,34.79c0-.37.14-.78.37-1.14l.33.33c-.09.16-.14.33-.14.49,0,0,0,.01,0,.02l-.54.54c-.01-.07-.02-.15-.02-.24M22.04,33l-.54.54c-.1-.08-.25-.09-.41,0-.09.05-.18.13-.25.22l-.33-.33c.17-.22.37-.41.59-.53.41-.24.77-.18.95.09M22.17,33.52c0,.39-.15.82-.4,1.19l-.33-.33c.1-.17.17-.36.17-.54,0-.03,0-.05,0-.08l.53-.53c.02.09.03.18.03.28M20.11,35.28l.53-.53c.1.11.26.13.45.02.08-.04.15-.11.22-.18l.33.33c-.16.2-.35.37-.55.49-.43.25-.8.18-.98-.13"/>
            <path class="cls-56" d="M18.94,38.22l1.87,1.1,1.57-.91-1.86-1.1-.79.35-.79.56ZM21.5,38.58l-1.03-.59h.03s1.02.58,1.02.58h-.02ZM19.67,38.39l.07-.05,1.11.65-.06.04-1.11-.64Z"/>
            <polygon class="cls-82" points="20.8 39.93 21.59 39.55 22.38 39.02 22.38 38.41 21.59 38.75 20.8 39.32 20.8 39.93"/>
            <polygon class="cls-51" points="18.94 38.22 20.8 39.32 20.8 39.93 18.94 38.83 18.94 38.22"/>
            <polygon class="cls-33" points="19.24 38.57 20.5 39.31 20.5 39.58 19.24 38.83 19.24 38.57"/>
            <polygon class="cls-82" points="20.06 37.75 20.47 37.99 20.5 37.97 21.52 38.57 21.96 38.41 20.5 37.55 20.06 37.75"/>
            <polygon class="cls-82" points="19.34 38.2 19.67 38.39 19.74 38.34 20.84 39 21.19 38.78 19.74 37.93 19.34 38.2"/>
            <path class="cls-61" d="M21.42,39.29c0,.14.09.19.21.12.12-.07.21-.23.21-.37s-.1-.19-.21-.12c-.12.07-.21.23-.21.37"/>
            <path class="cls-22" d="M10.28,27.07c.07.09.5-.08.62-.04.12.03.25.05.38.08.25.07.51.15.75.25.49.2.94.48,1.34.82.1.09.2.17.29.27.1.1.19.18.28.29.19.21.37.44.56.67.36.46.72.94,1.07,1.43.71.97,1.38,1.97,2.15,2.95.19.25.39.49.63.73.13.12.24.24.46.37.21.12.45.16.67.17.44,0,.79-.16,1.09-.33.3-.18.55-.37.81-.62l.12-.11v-.18c.05-.63.08-1.26.11-1.9.02-.35.04-.71.05-1.06l.12-2.91.84-3.39c.28-1.15.55-2.3.81-3.45l-.24-.06-.55-.14c-.31,1.14-.62,2.28-.92,3.42l-.88,3.43v.05s-.02.05-.02.05l-.05,1.46-.02.72-.02.78c-.02.56-.03,1.12-.04,1.69,0,.36-.01.73-.02,1.09-.34.27-.79.51-1.1.51-.02,0-.04,0-.06,0-.08,0-.15-.03-.2-.06-.04-.03-.14-.12-.22-.21-.17-.2-.35-.43-.51-.67-.11-.16-.22-.33-.33-.49-.14-.21-.28-.42-.41-.63t0,0c-.14-.22-.28-.44-.42-.67-.26-.41-.51-.82-.78-1.23-.33-.51-.66-1.02-1.02-1.53-.18-.25-.37-.51-.57-.75-.1-.12-.22-.25-.33-.38-.11-.13-.24-.24-.36-.36-.5-.46-1.08-.84-1.69-1.12-.31-.14-.62-.26-.96-.36-.16-.05-.33-.09-.5-.12-.18-.02-.34-.01-.56.06l-.34,1.52Z"/>
            <g class="cls-79">
              <g class="cls-59">
                <g class="cls-25">
                  <path class="cls-106" d="M21.47,29.04s.05-.07.05-.12c0-.35.03-.71-.09-1.04,0-.02-.02-.04-.03-.06l1.78-6.77.24.06c-.26,1.15-.53,2.3-.81,3.45l-.84,3.39-.12,2.91c-.02.36-.03.71-.05,1.06-.03.03-.07.04-.12.04,0-.97-.01-1.94-.02-2.92"/>
                </g>
              </g>
            </g>
            <g class="cls-79">
              <g class="cls-26">
                <g class="cls-35">
                  <path class="cls-91" d="M13.94,28.74c-.09-.1-.19-.19-.28-.29-.09-.09-.2-.18-.29-.27-.4-.34-.86-.62-1.35-.82-.24-.1-.49-.19-.75-.25-.13-.04-.26-.06-.38-.09-.12-.04-.54.14-.62.04l.16-.73c.4,0,1.31.06,2.23.54,1.23.64,3.17,3.62,4.05,5,.88,1.38,1.78,2.61,2.7,2.77.18.03.37.16.52.34-.15.04-.3.07-.47.07-.22,0-.45-.05-.66-.17-.22-.13-.34-.25-.47-.37-.24-.24-.44-.49-.63-.73-.76-.98-1.44-1.98-2.15-2.95-.35-.49-.7-.97-1.07-1.43-.18-.23-.37-.46-.55-.67"/>
                </g>
              </g>
            </g>
            <polygon class="cls-22" points="17.26 31.4 17.54 32.12 17.82 32.02 17.82 32.01 20.28 31.04 20.74 30.03 21.65 28.03 21.36 27.96 20.81 27.81 19.71 30.43 17.39 31.35 17.26 31.4"/>
            <g class="cls-79">
              <g class="cls-70">
                <g class="cls-98">
                  <path class="cls-91" d="M17.77,31.69c.35-.13,2.37-.95,2.37-.95l.62-1.42.08-.19c0,.2,0,.4,0,.6l-.56,1.32-2.46.97s.03-.18-.05-.33"/>
                </g>
              </g>
            </g>
            <path class="cls-22" d="M9.73,27.81c.09.02.18.03.25.03.4,0,.51-.27.51-.27l.67-3.67-1.27-.23-.17.92-.5,2.75s-.05.36.51.47"/>
            <g class="cls-79">
              <g class="cls-74">
                <g class="cls-11">
                  <path class="cls-91" d="M10.56,24.5s-.53,2.93-.58,3.33c.4,0,.51-.27.51-.27l.67-3.67-1.28-.23-.17.92c.37.07.85-.08.85-.08"/>
                </g>
              </g>
            </g>
            <path class="cls-85" d="M19.21,35.66c-.27-.46-.01-2.24,1.4-3.26l8.97-7.19s.39-.23.69-.06c.21.12.32.4.31.81-.02,1.22-8.58,9.74-9.54,10.3-.26.15-.5.22-.7.22-.63,0-.99-.59-1.13-.82M29.74,25.44l-8.96,7.18h0c-1.34.96-1.49,2.62-1.32,2.9.3.5.71.95,1.46.51.99-.58,9.39-9.05,9.4-10.06,0-.31-.06-.5-.17-.57-.04-.02-.08-.03-.12-.03-.11,0-.24.05-.27.08"/>
            <polygon class="cls-22" points="21.82 26.97 30.03 26.39 29.6 26.13 29.87 26.59 29.95 26.21 23.24 32.7 23.42 32.59 20.6 33.74 20.79 34.3 23.73 33.49 23.82 33.46 23.91 33.38 30.45 26.71 30.59 26.57 30.53 26.33 30.39 25.81 30.32 25.5 29.96 25.54 21.77 26.38 21.82 26.97"/>
            <g class="cls-79">
              <g class="cls-93">
                <g class="cls-9">
                  <path class="cls-91" d="M29.74,26.41l-7.92.56v-.14s7.58-.78,7.58-.78l.36-.04.08.3.04.14c-.11.05-.21.09-.32.14l.19-.18Z"/>
                </g>
              </g>
            </g>
            <g class="cls-79">
              <g class="cls-14">
                <g class="cls-78">
                  <path class="cls-91" d="M23.6,33.16l5.98-6.09.08-.37c.3-.12.59-.25.88-.38h0s.06.25.06.25l-.14.14-6.54,6.67-.08.09-.1.03-2.9.8c-.04-.05-.07-.1-.1-.14l-.04-.12,2.9-.87Z"/>
                </g>
              </g>
            </g>
            <path class="cls-22" d="M25.14,19.96l-.66-.38c-.33-.19-.52-.46-.52-.73,0-.24.14-.46.4-.61l4.98-2.88c.49-.29,1.32-.25,1.88.07l.66.38c.33.19.52.46.52.73,0,.24-.14.46-.4.61l-4.98,2.88c-.23.13-.52.19-.83.19-.37,0-.75-.09-1.05-.26M31.78,16.77c.07-.04.18-.12.18-.23s-.11-.25-.3-.35l-.66-.38c-.42-.25-1.09-.28-1.45-.07l-4.98,2.88c-.07.04-.18.12-.18.23s.11.25.3.35l.66.38c.42.24,1.09.28,1.45.07l4.98-2.88Z"/>
            <g class="cls-79">
              <g class="cls-58">
                <g class="cls-6">
                  <path class="cls-91" d="M24.48,19.34l.66.38c.3.17.68.26,1.04.26.31,0,.6-.06.83-.19l4.95-2.86c.25-.15.39-.36.39-.6.02.07.04.14.04.21,0,.24-.14.46-.4.6l-4.95,2.86c-.23.13-.52.2-.83.2-.36,0-.74-.09-1.04-.26l-.66-.38c-.33-.19-.51-.46-.51-.73h0c.07.19.24.38.48.52"/>
                </g>
              </g>
            </g>
            <g class="cls-79">
              <g class="cls-18">
                <g class="cls-19">
                  <path class="cls-91" d="M24.58,18.39l4.95-2.86c.36-.21,1.02-.18,1.44.07l.66.38c.18.11.3.24.3.35,0,.03,0,.05-.02.07-.05-.07-.13-.15-.24-.22l-.66-.38c-.42-.24-1.08-.27-1.44-.07l-4.95,2.86s-.12.08-.16.15c-.03-.05-.05-.09-.05-.14,0-.11.11-.19.18-.23"/>
                </g>
              </g>
            </g>
            <path class="cls-22" d="M30.34,26.27l1.22-9.1-2.55-1.41s-.13-.05-.28.11c-.1.1,0,.23,0,.23l2.37,1.31-1.18,8.81.43.06Z"/>
            <g class="cls-79">
              <g class="cls-101">
                <g class="cls-29">
                  <path class="cls-91" d="M30.02,26.51l.06-.05.04-.27.09-.62,1.21-8.09.1-.06h0s-1.18,8.8-1.18,8.8h-.07s-.03.23-.03.23v.08s-.06.05-.06.05c-.04-.04-.1-.07-.16-.06"/>
                </g>
              </g>
            </g>
            <polygon class="cls-22" points="29.91 26.26 30.3 26.06 27.08 19.68 24.57 18.24 24.36 18.62 26.74 19.99 29.91 26.26"/>
            <g class="cls-79">
              <g class="cls-66">
                <g class="cls-30">
                  <polygon class="cls-91" points="24.42 18.51 24.46 18.43 26.51 19.75 26.41 19.8 26 19.56 24.42 18.51"/>
                </g>
              </g>
            </g>
            <g class="cls-79">
              <g class="cls-43">
                <g class="cls-95">
                  <polygon class="cls-91" points="26.81 20.11 27.05 20.01 29.95 25.92 29.78 26.25 29.9 25.85 29.51 25.47 26.81 20.11"/>
                </g>
              </g>
            </g>
            <polygon class="cls-22" points="29.23 18.61 29.47 18.24 27.17 16.72 26.78 16.79 26.93 17.09 29.23 18.61"/>
            <rect class="cls-22" x="26.57" y="17.05" width=".44" height="2.76" transform="translate(-3.37 30.59) rotate(-56.49)"/>
            <g class="cls-79">
              <g class="cls-77">
                <g class="cls-10">
                  <path class="cls-91" d="M27.58,19.22l-2.01-1.34s-.06-.08-.08-.16l2.23,1.44-.13.06Z"/>
                </g>
              </g>
            </g>
            <polygon class="cls-75" points="11.09 23.89 8.87 24.57 8.85 23.43 11.09 23.3 11.09 23.89"/>
            <polygon class="cls-88" points="11.09 23.3 9.17 23.78 9.17 23.11 10.32 22.79 11.09 23.3"/>
            <path class="cls-16" d="M29.74,26.5c0,.11.08.15.17.1.09-.05.17-.19.17-.29s-.08-.15-.17-.1c-.09.05-.17.19-.17.29"/>
            <path class="cls-105" d="M19.58,32.57s8.93-7.3,10.09-7.6c1.15-.3.9,1.75.11,2.33-.14.1-5.79,4.33-6.24,4.81-2.16,2.26-1.15,3.02-2.73,4.04-1.66,1.07-2.44-.36-2.34-1.41s.49-1.57,1.12-2.17"/>
            <path class="cls-60" d="M19.88,32.69s8.93-7.3,10.09-7.6c1.15-.3,1.09,1.57.11,2.33-.13.1-5.79,4.33-6.24,4.81-2.16,2.26-1.15,3.02-2.73,4.04-1.66,1.07-2.44-.36-2.34-1.41s.49-1.57,1.12-2.17"/>
            <path class="cls-31" d="M29.95,25.71s-10.05,7.68-10.31,8.21c-.26.53-.38,1.2-.1,1.57.27.38.86.49,1.55-.09.68-.59.29-1.09.7-1.81.41-.72,8.08-6.54,8.29-6.79.08-.1.28-.37.3-.61.04-.37-.15-.7-.42-.49"/>
            <path class="cls-105" d="M20.95,35.34c.68-.58.29-1.09.7-1.81s8.08-6.54,8.29-6.79c.08-.1.27-.37.3-.61.02-.2-.03-.38-.12-.48.17.02.27.27.24.55-.02.24-.22.51-.3.61-.21.25-7.88,6.07-8.29,6.78-.41.72-.02,1.23-.7,1.81-.55.47-1.04.49-1.35.28.31.13.74.07,1.22-.34"/>
            <path class="cls-16" d="M20.14,34.67c0,.24.17.33.38.21.21-.12.38-.41.38-.65s-.17-.33-.38-.21c-.21.12-.38.41-.38.65"/>
            <path class="cls-89" d="M23.39,20.96l1.08-3.67-.61-.18-1.1,3.74c-.02.06,0,.13.03.18.11.15.31.2.47.1.06-.04.11-.1.13-.17"/>
            <path class="cls-40" d="M26.68,19.17c.9-.67.02-1.28.02-1.28l-1.35.03s-1.05-1.11-2.1-.52c-1.06.58-.98,1.66-1.45,2.07-.31.27-.73-.06-1.08.39-.2.25-.46,1.57-.05,1.44.75-.24,2.22-.83,2.65-1.03.66-.31,2.45-.42,3.35-1.09"/>
            <path class="cls-83" d="M26.55,18.38c.85-.64-1.08-1.1-1.08-1.1l-.18-.1s-1-1.06-2.01-.5c-1.01.56-.94,1.59-1.38,1.98-.29.26-.83.76-1.17,1.18-.19.24.23.46.63.34.72-.22,1.58-.57,1.99-.77.63-.3,2.34-.4,3.2-1.04"/>
            <path class="cls-23" d="M20.89,35.22s.26.07.37.23c.11.16.18.51.14.71-.05.21-.62,1.19-.75,1.58-.13.4-.27,1.17-.58,1.48-.31.32-.58.57-1.45.56-.87-.01-1.14-.18-1.19-.34-.05-.15.21-.59.21-.59,0,0,.64-.71.65-.74s.65-1.85,1.09-2.23,1.51-.67,1.51-.67"/>
            <path class="cls-100" d="M19.53,32.08c.13,1.28.09,2.5.02,3.16-.08.66-.45,1.28-.45,1.42s.27.38.42.42c.15.04.36.15,1.05-.27.13-.08.24-.17.32-.28.35-.43.33-.98.32-1.07,0-.11-.12-.08-.13-.8-.02-.72.79-2.67.94-3.76.15-1.09-.48-2.25-.48-2.47s.88-2.2,1.99-4.05c1.11-1.85,1.79-3.18,2.22-4.6.43-1.42,0-1.98,0-1.98h-3.48s-.14,1.63-.67,2.5c-.54.86-1.14,2.38-1.57,3.52-.43,1.14-.85,2.29-1.06,3.17-.21.88-.11,1.27,0,2.01.12.74.43,1.79.56,3.07"/>
            <g class="cls-79">
              <g class="cls-84">
                <g class="cls-12">
                  <path class="cls-80" d="M20.89,36.54c.35-.43.33-.98.32-1.07,0-.11-.12-.08-.13-.8-.01-.72.79-2.67.94-3.76.15-1.09-.48-2.25-.48-2.47s.88-2.2,2-4.05c1.11-1.85,1.79-3.18,2.22-4.6.43-1.42,0-1.98,0-1.98h-.23l-.51.79h.14s.41.55-.14,2.15c-.55,1.6-3.94,6.78-4,7.38-.06.6.61,1.49.63,2.49.02,1-.92,3.9-.98,4.48,0,0,.26.69.23,1.43"/>
                </g>
              </g>
            </g>
            <path class="cls-36" d="M25.75,17.82s.35.38.37.95c.02.57-.74,3.02-1.27,3.82-.54.8-1.04,1.58-1.04,1.58,0,0-.31-1.09-1.79-1.4-1.49-.31-1.89.32-1.89.32l.23-1.29.72-1.58s-.42-.75-.46-1.1c-.04-.36.61-2.21.61-2.21l1.89-.48,2.63,1.38Z"/>
            <path class="cls-50" d="M18.48,14.43c.28.82-.02,2.19-.02,2.19,0,0,.08.23.32.57.18.25.54.65.89.97h0c.12.11.24.22.35.3.38.29,1.3.96,3.18,1.06.16,0,.32.01.49.01,1.17,0,1.9-.54,2.32-1.07.37-.47.5-.93.48-1-.05-.14-1.86-1.62-2.26-3.04-.16-.57-.17-1.55-.15-2.55.04-1.48.15-3,0-3.31-.26-.51-2.2-2.1-2.98-2.48-.01,0-.02-.01-.04-.02-.41-.19-1.04-.16-1.59-.08-.47.07-.88.17-1.01.22-.02,0-.04.01-.06.02-.32.1-.94.31-1.09.46h0c-.16.16-.14.05-.32.61,0,0,0,0,0,.01-.18.57-.32,2.41-.32,2.41,0,0-.05.45-.09,1.06-.03.52.12.58.15,1.14.08,1.23,1.48,1.68,1.76,2.5"/>
            <path class="cls-100" d="M19.27,9.88c1.39-.2,2.43-1.72,2.58-2.18.15-.46.01-.73-.21-.84-.22-.11-.38-.3-.49-.6-.01-.04-.03-.1-.05-.17-.12-.48-.26-1.58-.26-1.58,0,0-1.86-.93-2.26-.67-.22.14-.25,1.01-.22,1.82,0,.2.02.39.03.57.02.39.05.71.06.84.03.44-.08.52-.11.75,0,.01,0,.03,0,.04-.04.3-.09,1.36.93,2.02"/>
            <path class="cls-100" d="M17.84,2.07s-.45.28-.6.94c-.15.67-.15,1.23-.15,1.47s.31,2.1.58,2.53c.28.43,1.68-.05,2.18-.34.5-.28.49-.37.6-.58.11-.21.52-.62.43-1.64-.09-1.01-.46-1.84-.76-2.08-.3-.24-2.28-.31-2.28-.31"/>
            <path class="cls-69" d="M18.04,2.44s.84.12,1.13.45c.3.33.74.67.86.99.12.32.21.66.22.76s.26.77.26.77c0,0,.1-.48.2-.61.1-.13.25-.16.25-.16,0,0,0,.67,0,.91,0,.24.08.66.39,1.09.31.43.63.44.72.47.09.03.72.18.72.18,0,0-.41-.48-.48-.7s-.52-1.13-.59-1.21c-.07-.08-.1-.23-.1-.23,0,0,.2-.69.29-1.08.08-.39-.06-1.5-.29-2.02-.23-.53-1.21-1.09-1.74-1.11-.64-.18-1.23.18-1.71.52-.48.34-.77.86-.8.96s0,.24,0,.24c0,0,.13-.21.31-.21s.37,0,.37,0"/>
            <path class="cls-100" d="M20.68,5.04s.15-.53.34-.64c.2-.12.5-.06.58.21.08.27-.17.63-.32.79-.15.16-.19.21-.41.23-.22.02-.26-.1-.27-.14,0-.03.08-.46.08-.46"/>
            <path class="cls-100" d="M17.7,4.38s-.31.95-.29,1.05c.02.1.3.14.42.08.12-.06-.13-.33-.14-.36-.01-.03.09-.56,0-.77"/>
            <path class="cls-100" d="M17.5,3.61s.26.11.83.18c.57.07.88.12,1.04.36.15.24.19.57.06.7s-.68.42-.97.38c-.28-.05.22.83.82.7.59-.13.79-.81.84-1.06.05-.26-.16-1-.31-1.17-.15-.17-.63-.68-.9-.82-.27-.14-.91-.17-1.12-.17-.22,0-.35-.05-.35.06,0,.11-.12.69.06.85"/>
            <path class="cls-100" d="M23.84,15.74l.74-.16-.5-.11-.21-.4s-.27-.9-.32-1.3c-.01-.1-.07-.25-.15-.41.03.2.07.41.1.6.1.62.33,1.79.33,1.79"/>
            <path class="cls-22" d="M9.32,26.52c.28.15.93.52,1.37.83-.53-.38-1.25-.84-1.29-.84-.01,0-.04,0-.07.02"/>
            <g class="cls-79">
              <g class="cls-2">
                <g class="cls-41">
                  <path class="cls-91" d="M31.14,17.15l-2.16-1.19s-.05-.09-.04-.14l2.33,1.25-.13.07Z"/>
                </g>
              </g>
            </g>
            <g class="cls-79">
              <g class="cls-39">
                <g class="cls-97">
                  <path class="cls-91" d="M29.21,18.27l-2.01-1.32s-.05-.09-.04-.13l2.18,1.38-.13.07Z"/>
                </g>
              </g>
            </g>
            <path class="cls-56" d="M21.98,3.23s-.07,1.2-.23,1.36c-.16.17-.7,1.19-.7,1.19l-1.17.42.06-.35,1.05-.43.63-1.17.02-1.11s.31-.31.35.09"/>
            <path class="cls-56" d="M20.45,3.52s.05,1.69-.09,2.11c-.14.42-.62,1.18-.62,1.18l-.61.34s.83-1.51.85-1.67c.02-.16-.1-1.82-.1-1.82l.58-.14Z"/>
            <path class="cls-20" d="M22.73,2.04c.09.21.11.82-.01,1-.04.07-.1.12-.16.17-.49.36-1.23.68-2.78.9-2.38.34-2.89-.51-2.95-.79-.08-.41.06-2.08,1.46-2.68,1.18-.51,3.51-.62,4.45,1.4"/>
            <path class="cls-49" d="M23.03,1.95c.14.28.04.63-.22.81-.52.35-1.4.76-3.04.98-2.51.33-3.05-.73-3.09-1.02-.04-.29.02-1.89,1.49-2.48,1.24-.5,3.86-.31,4.86,1.72"/>
            <path class="cls-87" d="M16.85,2.4s-.42-1.73,1.89-2.21c2.31-.48,3.12,1.45,1.16,2.08-1.96.62-2.61.65-3.05.14"/>
            <path class="cls-92" d="M20.54.4c.35-.03.67,0,.95.04.24.12.48.27.69.45-.39-.02-.93-.04-1.47.02-1.56.16-3.22.98-3.22.98.09-.55,1.41-1.36,3.05-1.48"/>
            <path class="cls-92" d="M18.41,2.42s.81.48,2.28.17c1.47-.31,2.11-.77,2.11-.77,0,0-.55-.19-1.59-.07-.66.07-2.8.67-2.8.67"/>
            <path class="cls-92" d="M16.87,1.79s.54-1.07,2.26-1.46c1.08-.25,1.47-.16,1.47-.16,0,0-1.26-.22-2.32.14-1.25.43-1.41,1.47-1.41,1.47"/>
            <g class="cls-107">
              <g class="cls-5">
                <g class="cls-90">
                  <path class="cls-13" d="M19.52,3.32c1.51-.29,1.99-.87,2.22-1.42.17-.41-.37-1.52-1.54-1.84,1.1.16,2.24.71,2.82,1.9.14.28.04.63-.22.81-.52.35-1.4.76-3.04.98-2.08.27-2.81-.41-3.01-.82.01,0,1.27.69,2.77.4"/>
                </g>
              </g>
            </g>
            <path class="cls-100" d="M5.65,13.77c.02.06.02.27.08.32.06.05.07.03.08.05.01.02.14.15.17.17.03.01.06.02.06.02,0,0,.05.19.14.22.09.03.12.04.12.04l.12.15s-.03.02-.07.04c-.08.04-.19.12-.2.17-.02.08.02.12.1.17.08.05.51.13.53.14.02,0,.33,0,.33,0l.22-.14s.29-.45.33-.52c.04-.06.15-.34.15-.34l.07-.12s.32-.2.52-.25c.2-.04,3.2-.67,4.14-1.4.94-.73,1.36-.57,1.89-.91.53-.34,1.8-1.26,2.15-1.53.15-.11.14-.54.02-.98-.16-.61-.53-1.25-.98-1.19-.77.1-1.35,1.23-2.09,1.8-.74.57-1.09.87-1.6,1.14s-2.58.88-3.3,1.36c-.72.48-1.22.78-1.36.82-.14.04-.33,0-.36-.03-.03-.03-.2-.1-.3-.12-.1-.02-.18-.02-.26-.04-.08-.02-.17-.12-.34.16-.17.28-.36.74-.35.8"/>
            <g class="cls-79">
              <g class="cls-55">
                <g class="cls-62">
                  <path class="cls-80" d="M5.65,13.77c.02.06.02.27.08.32.06.05.07.03.08.05.01.02.14.15.17.17.03.01.06.02.06.02,0,0,.05.19.14.22.09.03.12.04.12.04l.12.15s-.03.02-.07.04c.05-.03.47.02.52.04.05.02.11.02.22-.02.11-.04.12-.12.2-.18.08-.07.1-.2.1-.25,0-.05.16-.41.16-.41l-.29.19-.35.37-.23.06s-.12-.02-.14-.03c-.02,0-.12-.12-.11-.15,0-.04.53-.8.56-.85l-.65.81s-.09.04-.11.02c-.02-.02-.1-.16-.09-.2,0-.03.39-.87.39-.87l-.48.82s-.08,0-.11-.01c-.02-.01-.05-.12-.03-.15.01-.03.35-.85.35-.85l-.33.63s-.07.13-.13.1c-.07-.03-.12-.08-.12-.08"/>
                </g>
              </g>
            </g>
            <path class="cls-45" d="M6.99,15.32s-.27-.52-.27-.52c0,0,.29-.13.34-.25.04-.12.31-.42.31-.42l.13-.04.61.93s-.75.6-1.12.3"/>
            <path class="cls-50" d="M14.71,8.75c.03.08.1.48.61.94.38.35.72.51.99.57.09.02.17.03.24.03.28,0,1.43-2.12,1.47-2.63,0-.08,0-.19.04-.29.07-.26-.42.35-.59-.78,0-.02-.07-.36-.1-.35-.14.03-.28.09-.44.17-.96.49-2.17,1.73-2.19,1.92,0,0-.06.35-.03.43"/>
            <path class="cls-45" d="M7.5,16.01c.43-.09.82-.49.87-.88.06-.39-.24-.63-.67-.54-.42.1-.82.49-.87.88-.06.39.24.63.67.54"/>
            <path class="cls-48" d="M7.79,14.58l-.09-.12s0,0,0,0c-.35.05-.68.29-.85.59l.09.12c.17-.29.5-.54.85-.59,0,0,0,0,0,0"/>
            <path class="cls-24" d="M6.99,20.26c0,.21.02.45.13.69.03.06.06.12.1.18l.06.09.05.06.18.22c.24.29.47.58.7.88l.34.45c.11.15.23.3.41.4l.08.07c.14.06.28.14.4.23l.08.03c.16.13.34.14.51.18.18.03.36.05.53.07.36.04.71.09,1.08.11.09,0,.19.01.28.01h.24s.08-.01.12-.03c.29-.1.43-.27.56-.42.25-.31.43-.63.6-.95.33-.64.6-1.31.91-1.91.12-.24.37-.4.67-.5.29-.1.62-.16.93-.17l1.6.34.98.21.11-.51-2.61-.58h-.03s-.03,0-.03,0c-.4,0-.76.06-1.13.19-.19.07-.37.15-.55.27-.17.12-.34.3-.43.48-.35.66-.61,1.3-.94,1.91-.16.3-.34.6-.53.84-.09.12-.22.21-.27.22,0,0-.01,0-.02,0h-.03s-.12,0-.12,0c-.08,0-.17-.01-.25-.02-.34-.03-.69-.07-1.03-.14-.17-.04-.34-.07-.51-.1-.17-.02-.33-.08-.52-.01-.09-.04-.18-.08-.25-.14-.05-.19-.15-.35-.26-.5l-.35-.46c-.24-.3-.47-.61-.72-.9l-.19-.22-.04-.05-.02-.03s-.02-.04-.04-.07c-.05-.11-.07-.26-.07-.42,0-.33.06-.7.12-1.07.13-.74.33-1.48.36-2.31,0-.21,0-.42-.05-.64-.04-.17-.11-.63-.18-.79-.02-.04-.03-.15-.07-.18-.01,0-.04-.02-.07-.02-.06,0-.13,0-.17,0-.06,0-.11,0-.16.02-.02,0-.03.02-.04.02-.04.02-.06.06-.08.09-.04.07-.02.09,0,.16.06.17.14.68.16.81.03.15.04.32.03.5-.04.7-.24,1.44-.4,2.2-.06.31-.12.62-.13.96,0,.08,0,.16,0,.24"/>
            <path class="cls-61" d="M6.99,20.26c0,.21.02.45.13.69.03.06.06.12.1.18l.06.09.05.06.18.22c.24.29.47.58.7.88l.34.45c.11.15.23.3.41.4l.08.07c.14.06.28.14.4.23l.08.03c.16.13.34.14.51.18.18.03.36.05.53.07.36.04.71.09,1.08.11.09,0,.19.01.28.01h.24s.08-.01.12-.03c.29-.1.43-.27.56-.42.25-.31.43-.63.6-.95.33-.64.6-1.31.91-1.91.12-.24.37-.4.67-.5.29-.1.62-.16.93-.17l1.6.34v-.22s-1.29-.36-1.74-.33c-.44.03-1.39.18-1.55.63-.17.45-1.4,3.08-1.93,3.26-.53.19-2.12.05-2.56-.13-.45-.18-1.01-.58-1.24-.93-.23-.34-1.07-1.24-1.37-1.86-.09-.19-.14-.45-.15-.71,0,.08,0,.16,0,.24"/>
            <path class="cls-61" d="M7.29,20.98c-.05-.11-.07-.26-.07-.42,0-.33.06-.7.12-1.07.13-.74.33-1.48.36-2.3,0-.21,0-.42-.05-.64-.04-.17-.11-.63-.18-.79-.02-.04-.03-.15-.07-.18-.02,0-.04-.01-.07-.02,0,0,.25,1.17.25,1.56s-.4,1.74-.49,2.23c-.08.5-.2,1.35.26,1.74l-.02-.03s-.03-.04-.04-.07"/>
            <path class="cls-24" d="M7.68,18.5h0s.02.03.02.03l5.44,3.62.14-.21.15-.22-5.44-3.62s-.23-.06-.28.01c-.03.06-.06.1-.07.15h0c-.03.12,0,.2.03.24"/>
            <path class="cls-61" d="M7.65,18.26h0s.01.11.03.25h0s.02.03.02.03l5.31,3.54s.04-.17.12-.23l-5.48-3.58h0Z"/>
          </g>
          <g class="cls-27">
            <path class="cls-48" d="M17.84,19.59c.11.04,2.28.77,2.77.65.06.02.09.15.07.35-.03.29-.16.63-.28.76-.04.04-.07.05-.1.05-.36-.35-2.6-.8-2.72-.82.02,0,.05,0,.08-.04.11-.11.21-.39.24-.64.02-.17,0-.28-.06-.29"/>
            <path class="cls-48" d="M17.91,19.89c.02-.17,0-.28-.06-.29.11.04,2.28.77,2.77.65.06.02.09.15.07.35,0,.05-.01.11-.03.16-.02-.01-.05-.03-.07-.04,0,0-2.69-.67-2.71-.67.01-.05.02-.1.02-.15"/>
            <path class="cls-48" d="M17.58,20.57s.05,0,.08-.04c.05-.05.1-.13.14-.23,0,0,.02,0,.03,0l2.72.78c-.05.11-.1.2-.15.25-.04.04-.07.05-.1.05-.36-.35-2.6-.8-2.72-.82"/>
            <path class="cls-67" d="M20.58,20.51q-.69-.12-2.67-.68c0-.14-.02-.23-.06-.24.12.04,2.28.77,2.77.65.06.02.09.12.07.29-.02,0-.06,0-.08-.01,0,0-.01,0-.02,0"/>
            <path class="cls-67" d="M17.58,20.57s.05,0,.08-.04c.01-.01.02-.02.03-.04,0,0,.02,0,.03,0,2.34.52,2.71.8,2.71.8-.01.02-.03.03-.04.04-.04.04-.07.05-.1.05-.36-.35-2.6-.8-2.72-.82"/>
            <path class="cls-71" d="M20.19,20.89c-.21-.08-.41-.17-.62-.25.08,0,.15-.01.23,0l.6.11c.1.03.15.07.17.09.02.02.01.06,0,.08-.05.08-.22.02-.38-.04"/>
          </g>
          <g class="cls-28">
            <path class="cls-71" d="M17.58,20.57c.39.08,2.33.49,2.69.81-.35-.34-2.6-.8-2.72-.82,0,0,.02.01.03.01"/>
            <path class="cls-71" d="M17.56,20.55s.02.01.03.02c.01,0,.02,0,.03,0,.02,0,.04,0,.06.01l.09.02s.08.02.11.02l.13.03s.1.02.15.03l.16.04c.05.01.12.03.17.04l.18.04c.06.01.13.03.18.05l.19.05c.05.02.13.04.18.05l.18.05c.05.02.12.04.17.05l.16.05s.11.04.15.06l.13.05s.08.04.11.05l.07.04s.05.04.07.05c-.35-.34-2.6-.8-2.71-.82"/>
            <path class="cls-48" d="M17.56,20.55s.02.01.03.02c.01,0,.02,0,.03,0,.02,0,.04,0,.06.01l.09.02s.08.02.11.02l.13.03s.1.02.15.03l.16.04c.05.01.12.03.17.04l.18.04c.06.01.13.03.18.05l.19.05c.05.02.13.04.18.05l.18.05c.05.02.12.04.17.05l.16.05s.11.04.15.06l.13.05s.08.04.11.05l.07.04s.05.04.07.05c-.35-.34-2.6-.8-2.71-.82"/>
            <path class="cls-67" d="M17.56,20.55s.02.01.03.02c.01,0,.02,0,.03,0,.02,0,.04,0,.06.01l.09.02s.08.02.11.02l.13.03s.1.02.15.03l.16.04c.05.01.12.03.17.04l.18.04c.06.01.13.03.18.05l.19.05c.05.02.13.04.18.05l.18.05c.05.02.12.04.17.05l.16.05s.11.04.15.06l.13.05s.08.04.11.05l.07.04s.05.04.07.05c-.35-.34-2.6-.8-2.71-.82"/>
          </g>
          <g class="cls-108">
            <path class="cls-71" d="M20.58,20.24c-.47.12-2.65-.61-2.76-.65-.02,0-.04.02-.06.04.12.04,2.31.76,2.75.65.02-.03.05-.04.07-.05"/>
            <path class="cls-71" d="M17.81,19.59s-.04.02-.06.04c.12.04,2.31.76,2.75.65.02-.02.05-.04.07-.04-.47.12-2.65-.61-2.76-.65"/>
            <path class="cls-48" d="M17.81,19.59s-.04.02-.06.04c.12.04,2.31.76,2.75.65.02-.02.05-.04.07-.04-.47.12-2.65-.61-2.76-.65"/>
            <path class="cls-67" d="M17.81,19.59s-.04.02-.06.04c.12.04,2.31.76,2.75.65.02-.02.05-.04.07-.04-.47.12-2.65-.61-2.76-.65"/>
          </g>
          <g class="cls-52">
            <path class="cls-71" d="M21.07,20.81c.03-.32-.08-.67-.5-.57-.02,0-.04.02-.07.04.52-.12.5.64.49.68,0-.04.02-.8-.49-.68-.13.13-.25.46-.28.76-.02.17,0,.29.05.33.48.43.78-.28.8-.57"/>
            <path class="cls-71" d="M20.51,20.28c-.13.13-.25.47-.28.76-.02.17,0,.29.05.33.02.01.04.03.05.05.07.04.08.05.16.08h.05s.06,0,.09,0h.04s.05-.04.07-.05l.04-.03s.03-.03.05-.04l.03-.03s.02-.03.03-.04l.02-.03s.02-.03.02-.04l.02-.03s.01-.02.02-.03v-.03s.02-.02.03-.03v-.03s.02-.02.02-.03v-.03s.01-.02.02-.02v-.02s.01-.02.01-.02v-.02s.01-.02.01-.03v-.03s0-.02.01-.03v-.03s0-.02,0-.03v-.03s0-.03,0-.04v-.04s0-.03,0-.04v-.04s0-.03,0-.05v-.04s-.02-.04-.02-.05l-.02-.04s-.02-.04-.03-.06l-.03-.04s-.03-.04-.05-.05l-.04-.03s-.06-.03-.09-.04h-.06c-.08,0-.09,0-.16.01-.02,0-.04.02-.07.04.52-.12.5.64.49.68,0-.04.02-.8-.49-.68"/>
            <path class="cls-48" d="M20.51,20.28c-.13.13-.25.47-.28.76-.02.17,0,.29.05.33.02.01.04.03.05.05.07.04.08.05.16.08h.05s.06,0,.09,0h.04s.05-.04.07-.05l.04-.03s.03-.03.05-.04l.03-.03s.02-.03.03-.04l.02-.03s.02-.03.02-.04l.02-.03s.01-.02.02-.03v-.03s.02-.02.03-.03v-.03s.02-.02.02-.03v-.03s.01-.02.02-.02v-.02s.01-.02.01-.02v-.02s.01-.02.01-.03v-.03s0-.02.01-.03v-.03s0-.02,0-.03v-.03s0-.03,0-.04v-.04s0-.03,0-.04v-.04s0-.03,0-.05v-.04s-.02-.04-.02-.05l-.02-.04s-.02-.04-.03-.06l-.03-.04s-.03-.04-.05-.05l-.04-.03s-.06-.03-.09-.04h-.06c-.08,0-.09,0-.16.01-.02,0-.04.02-.07.04.52-.12.5.64.49.68,0-.04.02-.8-.49-.68"/>
            <path class="cls-67" d="M20.51,20.28s-.06.07-.08.11c.02,0,.05-.02.07-.03.48-.17.26.4.18.58-.19.43-.33.22-.43.05,0,.01,0,.03,0,.04-.02.17,0,.29.05.33.02.01.04.03.05.05.07.04.08.05.16.08h.05s.06,0,.09,0h.04s.05-.04.07-.05l.04-.03s.03-.03.05-.04l.03-.03s.02-.03.03-.04l.02-.03s.02-.03.02-.04l.02-.03s.01-.02.02-.03v-.03s.02-.02.03-.03v-.03s.02-.02.02-.03v-.03s.01-.02.02-.02v-.02s.01-.02.01-.02v-.02s.01-.02.01-.03v-.03s0-.02.01-.03v-.03s0-.02,0-.03v-.03s0-.03,0-.04v-.04s0-.03,0-.04v-.04s0-.03,0-.05v-.04s-.02-.04-.02-.05l-.02-.04s-.02-.04-.03-.06l-.03-.04s-.03-.04-.05-.05l-.04-.03s-.06-.03-.09-.04h-.06c-.08,0-.09,0-.16.01-.02,0-.04.02-.07.04.52-.12.5.64.49.68,0-.04.02-.8-.49-.68"/>
            <path class="cls-48" d="M20.52,20.57c-.1.06-.12.18-.13.23,0,.06.04.17.06.18.06.03.12-.07.14-.12.06-.13.04-.26.04-.26,0-.02-.03-.05-.05-.05-.02,0-.05.02-.07.03"/>
            <path class="cls-71" d="M20.49,20.74s-.02.1-.01.1c0,0,.02,0,.02,0,.02-.02.05-.05.05-.08,0-.02-.02-.04-.03-.06-.01.01-.03.03-.03.04"/>
          </g>
          <g>
            <path class="cls-67" d="M17.78,20.8l.29-.27c-.1.1-.17-.02-.14-.26.03-.25.13-.54.24-.64l-.21-.4c-.19.19-.37.69-.42,1.12-.04.43.07.63.25.46"/>
            <path class="cls-100" d="M17.89,20.76s.23.39.24.42c0,.02.06.07.17.06.02,0,.04,0,.06,0,.14-.04.11-.17.11-.17l.19-.04s.05.07.11.1c.06.02.17-.03.24-.03.07,0,.24.04.24.04,0,0,.21.07.33.03.12-.04.23-.21.16-.25-.06-.04-.04-.18-.04-.18,0,0,.3-.31.43-.34.13-.03.4.05.47.02.07-.02.19-.11.87-.53.67-.41,1.78-.94,2.46-1.45.68-.51,1.57-1.24,1.83-1.78.26-.54.06-1.7-.17-3.2-.18-1.18-.4-2.14-.49-2.5-.02-.1-.04-.15-.04-.15l-1.77-.1s-.09,1.43-.05,1.59c.02.11.1.57.18,1.05.03.21.07.41.1.6.1.62.33,1.79.33,1.79,0,0-.7.84-.93,1.13-.19.24-1.62,1.51-2.31,2.03,0,0,0,0,0,0-.14.11-.25.18-.31.21-.21.1-.52.1-.79.09-.03,0-.05,0-.05,0,0,0,0,0,0,0-.17-.01-.31-.04-.38-.04-.16-.02-.43-.07-.63.02-.2.09-.45.58-.45.58,0,0-.15.34-.15.37,0,.03.03.58.05.63"/>
            <g class="cls-79">
              <g class="cls-54">
                <g class="cls-15">
                  <path class="cls-80" d="M20.62,19.48s-.05-.54-.02-.57c-.14.11-.25.18-.31.21-.21.1-.52.1-.79.09.16.01.68.06.69.09,0,.03.42.17.42.17"/>
                </g>
              </g>
            </g>
            <g class="cls-79">
              <g class="cls-42">
                <g class="cls-96">
                  <path class="cls-80" d="M18.07,20.91s.21.09.25.21c.01.03,0,.08-.02.13.02,0,.04,0,.06,0,.14-.04.11-.17.11-.17l.19-.04s.05.07.11.1c.06.02.17-.03.24-.03.07,0,.24.04.24.04,0,0,.21.07.33.03.12-.04.23-.21.16-.25-.06-.04-.04-.18-.04-.18,0,0,.3-.31.43-.34.13-.03.39.05.47.02.07-.02.2-.11.87-.53.67-.41,1.78-.94,2.46-1.45.68-.51,1.56-1.24,1.82-1.78.26-.54.06-1.7-.17-3.2-.18-1.18-.4-2.14-.49-2.51-.11.08-.22.16-.33.26,0,0,.25.73.49,1.69.24.96.5,2.54.4,3.15-.1.61-.22.71-.58,1.07-.37.36-1.49,1.38-2.51,1.94-1.02.56-1.56.9-1.75.95-.19.05-.35.02-.57.07-.22.05-.56.33-.6.4-.03.06-.18.45-.18.45,0,0-.26.12-.32.07-.06-.05-.12-.15-.12-.15l.29-.85c-.06.14-.35.9-.42.93-.07.04-.21-.05-.21-.05l.21-1.11c-.02.06-.37,1.06-.38,1.08,0,.03-.15,0-.21-.03-.06-.03-.12-.13-.12-.13l.36-1.03-.45.91-.1-.06s.07.34.08.38"/>
                </g>
              </g>
            </g>
            <path class="cls-50" d="M22.47,10.97s-.34-1.19-.22-1.74c.12-.55.44-1.16.89-1.28.46-.12.96,0,1.39.66.43.65,1.2,2.73,1.2,2.73l-.46.38-.04-.2s-.72.25-1.12.51c-.4.25-.81.56-.81.56l.05.29s-.37-.34-.39-.44c-.02-.1-.48-1.48-.48-1.48"/>
            <path class="cls-38" d="M24.9,15.29c.81.02.82,0,.82,0l.05.23s-.78.2-1.15.16c-.37-.04-.89-.29-.89-.29l-.08-.33c.04.09.52.23,1.25.24"/>
            <path class="cls-38" d="M24.99,16.38c.78.07.78.19.78.19l-.04.24s-.81,0-1.15-.13-.97-.66-.97-.66l.2-.24c0,.09.45.53,1.18.59"/>
            <path class="cls-38" d="M12.8,10.26s-.12.47.2.92c.32.45.78.66.78.66l-.39.14s-.11-.05-.52-.5c-.41-.46-.32-1.06-.32-1.06l.25-.16Z"/>
            <path class="cls-38" d="M12.03,10.77s-.13.29.08.71c.21.42.77.79.77.79l-.3.21s-.62-.46-.79-.79c-.18-.34-.08-.77-.08-.77l.33-.15Z"/>
            <path class="cls-38" d="M25.91,14.96s.33.37.37.76c.04.39-.14,1.14-.36,1.28-.22.14-.38.09-.38.09,0,0,0-.27.05-.56.04-.3.03-1.45.03-1.45l.3-.12Z"/>
            <polygon class="cls-75" points="9.43 23.64 9.12 24.46 8.92 24.7 8.64 22.21 9.43 22.72 9.43 23.64"/>
            <polygon class="cls-65" points="8.91 24.64 8.13 24.13 8.32 22.32 9.1 22.82 8.91 24.64"/>
            <polygon class="cls-68" points="8.64 22.21 8.32 22.32 9.12 22.84 9.43 22.72 8.64 22.21"/>
          </g>
        </g>
      </g>
    </g>
  </g>
</svg>