<?xml version="1.0" encoding="UTF-8"?>
<svg id="uuid-5abd5a15-fe91-426c-847f-e471cb073b98" data-name="Calque_2" xmlns="http://www.w3.org/2000/svg" viewBox="0 0 38.31 86.23">
  <defs>
    <style>
      .uuid-abf62580-5dc3-47f5-9c71-c23c579a8219 {
        fill: #3b3735;
      }

      .uuid-3b409e5e-f896-4f0f-9bb2-fd2ca59dd7bf {
        fill: #2e2b28;
      }

      .uuid-d0144f67-ec99-4f76-9282-37a66fd1bf41 {
        fill: #3a383b;
      }

      .uuid-e6d00206-0c91-4194-8140-8eeacbc1a044 {
        fill: #fff;
      }

      .uuid-b8b7c786-8b4c-43ed-9c8e-33b9a09fe2dd {
        fill: #6f6e77;
      }

      .uuid-abc3499e-0526-4cdf-a7dc-7d18b41ce4f2 {
        fill: #5d5b63;
      }

      .uuid-36040208-d0f2-4eeb-865b-627a9e88cf23 {
        fill: #342f35;
      }

      .uuid-a32cc24e-26a6-4727-bb7f-af6d080038e0 {
        fill: #eb7338;
      }

      .uuid-1ed4b198-b438-4ed6-bed2-66956bb12ab8 {
        fill: #282634;
      }

      .uuid-c7260074-ac81-43bf-9157-9b3a97a10e46 {
        fill: #35334c;
      }

      .uuid-012ef63c-143a-4295-8859-60e3a5ded7cb {
        fill: #ffdb03;
      }

      .uuid-a30deb19-e38c-4a1d-801c-083f4b5661c7 {
        fill: #484442;
      }

      .uuid-db650859-fc07-4725-8e70-f6009ab68abc {
        fill: #4a494f;
      }

      .uuid-29935840-abf8-48de-acd9-fd7c76d35101 {
        fill: #f7f7f8;
      }

      .uuid-0f5cfbee-44d8-4f2f-a87d-d647ffe1ae21 {
        fill: #aedcec;
      }

      .uuid-709e8feb-b030-4f39-b424-050a4d9fd66a {
        fill: #f8bb90;
      }

      .uuid-9b998d80-0e17-4864-bdac-cd14a1ab7f98 {
        fill: #fde9d4;
      }

      .uuid-f9c3a39f-46c8-4d76-8181-1e2530f529d0 {
        fill: #6a6273;
      }

      .uuid-1486b0f6-26f1-48ce-8d5d-05f29915ae33 {
        fill: #ffd100;
      }

      .uuid-14995c22-f221-469b-ad6d-fc8d1e26c818 {
        fill: #7e7d88;
      }
    </style>
  </defs>
  <g id="uuid-a779eae6-3609-4825-9b26-ed83c09a3eaa" data-name="Les_personnages">
    <g id="uuid-c312cf8f-652d-4ba5-9236-5d8cdd15bd8c" data-name="Chara_x5F_Trottinette_x5F_BG">
      <path class="uuid-1486b0f6-26f1-48ce-8d5d-05f29915ae33" d="M29.83,28.83l.55-12.78-9.15-2.43s3.64-3.3,6.06-2.75c2.42.55,3.86,5.18,3.86,5.18,0,0,1.76,7.82,1.87,12.34.11,4.52-3.41,6.5-3.41,6.5l.22-6.06Z"/>
      <path class="uuid-d0144f67-ec99-4f76-9282-37a66fd1bf41" d="M28.05,66.53l-18.61,10.74v-.47l-1.21.16v1.39h0c0,.18.11.34.33.46l3.45,1.99c.49.29,1.36.25,1.93-.08l19.35-11.17-5.24-3.03Z"/>
      <polygon class="uuid-36040208-d0f2-4eeb-865b-627a9e88cf23" points="29.59 67.42 28.05 66.53 32.33 64.97 33.08 65.4 29.59 67.42"/>
      <polygon class="uuid-36040208-d0f2-4eeb-865b-627a9e88cf23" points="31.76 68.67 33.29 69.56 36 67.09 35.25 66.66 31.76 68.67"/>
      <polygon class="uuid-f9c3a39f-46c8-4d76-8181-1e2530f529d0" points="29.59 66.04 28.05 65.15 32.33 63.59 33.08 64.02 29.59 66.04"/>
      <path class="uuid-14995c22-f221-469b-ad6d-fc8d1e26c818" d="M33.4,60.9c.09,0,.17.01.25.03,2.07.26,3.43,2.05,3.43,2.05l-1.71.92-.64-.57c-.19,1.3-1,2.7-2.02,3.52l.81.26.13,1.96s-2.44-.26-3.66-2.12h0c-.21-.31-.32-.73-.32-1.26,0-1.64,1.15-3.63,2.56-4.45.42-.24.82-.35,1.16-.35h0s.01,0,.02,0"/>
      <path class="uuid-3b409e5e-f896-4f0f-9bb2-fd2ca59dd7bf" d="M34.88,62.78c-1.41.82-2.56,2.81-2.56,4.45s1.15,2.31,2.56,1.49c1.41-.82,2.56-2.81,2.56-4.45s-1.15-2.31-2.56-1.5"/>
      <polygon class="uuid-d0144f67-ec99-4f76-9282-37a66fd1bf41" points="33.29 68.18 33.29 69.56 31.56 69.58 31.34 68.6 33.29 68.18"/>
      <path class="uuid-012ef63c-143a-4295-8859-60e3a5ded7cb" d="M34.98,63.7c-1,.58-1.8,1.98-1.8,3.14s.81,1.63,1.8,1.05c1-.58,1.8-1.98,1.8-3.14s-.81-1.63-1.8-1.06"/>
      <path class="uuid-14995c22-f221-469b-ad6d-fc8d1e26c818" d="M33.91,67.28c1-.57,1.8-1.98,1.8-3.14,0-.26-.04-.48-.12-.67.69-.1,1.18.38,1.18,1.28,0,1.16-.81,2.56-1.8,3.14-.77.45-1.43.26-1.69-.39.19-.03.4-.1.62-.23"/>
      <path class="uuid-0f5cfbee-44d8-4f2f-a87d-d647ffe1ae21" d="M12.02,79.43l-3.45-1.99c-.49-.29-.43-.78.14-1.11l19.35-11.17,5.24,3.03-19.35,11.17c-.57.33-1.43.36-1.93.08"/>
      <polygon class="uuid-f9c3a39f-46c8-4d76-8181-1e2530f529d0" points="31.76 67.29 33.29 68.18 36 65.71 35.25 65.28 31.76 67.29"/>
      <polygon class="uuid-14995c22-f221-469b-ad6d-fc8d1e26c818" points="36 65.71 33.29 68.18 24.2 73.43 24.2 67.38 28.05 65.15 28.05 65.15 28.05 65.15 32.33 63.59 32.23 64.43 29.59 66.04 31.76 67.29 35.26 65.28 36 65.71"/>
      <polygon class="uuid-14995c22-f221-469b-ad6d-fc8d1e26c818" points="22.54 68.33 22.54 74.39 20.71 75.44 20.71 69.39 22.54 68.33"/>
      <polygon class="uuid-d0144f67-ec99-4f76-9282-37a66fd1bf41" points="36 65.71 36 67.09 33.29 69.56 33.29 68.18 36 65.71"/>
      <path class="uuid-d0144f67-ec99-4f76-9282-37a66fd1bf41" d="M38.31,60.87l-.34-.02h0s-1.35-.77-1.35-.77c-.11-.06-.23-.1-.36-.11-6.38-.45-6.69,6.07-6.69,6.07l2.18,1.24s.3-6.36,6.45-6.09c.06,0,.1-.05.1-.1v-.23Z"/>
      <path class="uuid-abc3499e-0526-4cdf-a7dc-7d18b41ce4f2" d="M36.27,59.74c-6.38-.45-6.69,6.31-6.69,6.31l2.18,1.24s.3-6.59,6.45-6.32c.11,0,.15-.14.05-.19l-1.63-.93c-.11-.06-.23-.1-.35-.11"/>
      <path class="uuid-709e8feb-b030-4f39-b424-050a4d9fd66a" d="M21.55,12.56c-.38-.23-.87-.1-1.27.09-.62.29-1.18.71-1.64,1.22-.47.52-.77,1.17-1.16,1.76-.1.16-.2.31-.31.47-.65.97-1.34,1.92-2.03,2.87-.61.84-1.26,1.65-2.07,2.3-.02.02-.05.04-.06.07-.01.03,0,.05,0,.08.02.34-.01.74.07,1.08.07.29.16.59.23.89.08.34.16.69.33,1,.1.19.24.36.41.49.05.04.13.09.16.14.06.08.09.3.23.25.04-.01.07-.05.1-.08.25-.28,2.71-3.12,3.29-3.79.2-.23.4-.46.54-.74.17-.34.24-.71.33-1.08.26-1.04.74-2,1.2-2.95.34-.71.62-1.44.99-2.13.17-.33.28-.52.32-.88.01-.09.3-1.08.33-1.06"/>
      <path class="uuid-e6d00206-0c91-4194-8140-8eeacbc1a044" d="M20.75,12.69c.06-.15.14-.29.22-.44-.68.19-1.33.49-1.91.9-.62.43-1.07.96-1.53,1.55-.28.35-.53.73-.78,1.1-.31.46-.62.92-.93,1.38-.21.31-.42.62-.6.94-.22.39-.05.92.09,1.31.17.46.43.87.77,1.22.57.59,1.36.95,2.17,1.02-.16-1.07-.14-2.17.12-3.22.24-.97.64-1.88,1.1-2.77.18-.35.3-.8.55-1.11.26-.33.36-.73.46-1.13.06-.27.15-.52.26-.77"/>
      <path class="uuid-1ed4b198-b438-4ed6-bed2-66956bb12ab8" d="M16.69,73.19c-.07.03-.15.02-.22-.06-.06-.07-.08-.16-.1-.26-.18.25-.27.54-.31.84-.04.3-.02.6.01.9.02.23.06.45.12.67.05.17.11.4.25.51.22.17.62.18.89.2.32.02.64,0,.95-.06.62-.11,1.22-.38,1.71-.78,0,0,.01,0,.02-.01.16-.13.31-.27.45-.43.15-.16.26-.34.36-.54.1-.2.19-.42.32-.6.13-.17.27-.23.47-.29.4-.13.84-.15,1.22-.33.33-.15.57-.35.74-.68.18-.36.27-.75.29-1.15.01-.34-.03-.69-.19-.99.02.04-.07.14-.11.15-.06.02-.12-.03-.15-.07-.11-.13-.19-.26-.32-.38-.34-.32-.78-.54-1.25-.57-.46-.04-.84.14-1.22.37-.32.2-.51.54-.77.81-.63.64-1.38,1.14-2.07,1.71-.25.2-.49.41-.71.64-.09.09-.23.32-.39.38"/>
      <path class="uuid-29935840-abf8-48de-acd9-fd7c76d35101" d="M16.7,72.37c-.4.49-.71,1.11-.59,1.73.05.27.11.66.34.84.22.17.62.18.89.2.32.02.64,0,.95-.06.62-.11,1.22-.38,1.71-.78,0,0,.01,0,.01-.01.16-.13.31-.27.45-.43.15-.16.26-.34.36-.54.11-.2.19-.42.32-.6.13-.17.27-.23.47-.29.4-.13.84-.15,1.23-.33.56-.26.92-.86.95-1.47.03-.61-.25-1.22-.7-1.64-.34-.32-.78-.54-1.25-.57-.46-.04-.84.14-1.22.37-.32.2-.51.54-.77.81-.63.64-1.38,1.14-2.07,1.71-.39.32-.77.67-1.08,1.06"/>
      <path class="uuid-1ed4b198-b438-4ed6-bed2-66956bb12ab8" d="M24.12,50.07c-.06-2.36-.28-4.71-.29-7.07,0-.19,0-.38,0-.57.01-1.15.08-2.31-.2-3.42-.21-.84-.62-1.65-1.28-2.22-.65-.57-1.56-.88-2.41-.71-1.16.23-1.83,1.35-2.08,2.42-.36,1.5-.39,3.07-.25,4.6.16,1.82,1.9,20.41,2,21.39.08.79.33,4.21.33,4.56,0,.21-.03.3.17.42.16.1.35.16.53.19.25.04.5.04.75.04.64-.02,1.3-.09,1.86-.39.28-.15.32-.37.31-.67-.01-.39.16-4.34.2-5.21.05-.91.43-10.31.36-13.36"/>
      <path class="uuid-c7260074-ac81-43bf-9157-9b3a97a10e46" d="M24.93,70.33s0,.02-.01.03c-.18.38-.35.77-.51,1.15-.05.12-.09.25-.16.37-.04.08-.12.08-.18,0-.05-.05-.06-.12-.06-.19-.24.45-.3.96-.15,1.45.21.73.94,1.15,1.67,1.17.64.02,1.25-.23,1.78-.59.59-.4,1.09-.95,1.44-1.58.46-.84.66-1.81,1.21-2.59.22-.32.36-.68.42-1.06.06-.42,0-.78-.12-1.18-.04-.14-.2-.35-.21-.48,0,.1-.02.22-.08.3-.07.1-.09.08-.15,0-.12-.16-.25-.31-.41-.44-.33-.26-.73-.44-1.15-.51-.31-.06-.64-.06-.95.05-.73.25-.88,1.03-1.18,1.66-.39.82-.8,1.63-1.2,2.44"/>
      <path class="uuid-29935840-abf8-48de-acd9-fd7c76d35101" d="M23.94,71.74c-.12.32-.16.7.07.98.18.23.44.35.73.42.36.08.74.09,1.11.04,1.1-.16,2.04-.88,2.75-1.73.26-.31.49-.65.62-1.04.06-.2.09-.41.17-.6.07-.15.16-.29.23-.44.17-.37.41-.7.54-1.09.21-.63.09-1.35-.28-1.9-.37-.55-.99-.92-1.64-1.04-.32-.06-.64-.06-.95.05-.73.25-.88,1.04-1.17,1.66-.39.82-.8,1.63-1.2,2.44-.22.45-.86,1.97-.98,2.27"/>
      <path class="uuid-c7260074-ac81-43bf-9157-9b3a97a10e46" d="M30.11,36.9c-.03.44-.04,1.57-.51,1.8-.17.08-.42.01-.61.03-.28.03-.52.18-.79.22-.36.04-.84-.13-1.17-.24-1.01-.32-1.95-.84-2.76-1.52-.25-.21-.49-.43-.79-.54-.23-.09-.48-.1-.72-.05-.14.03-.31.16-.45.14-.38-.04-.5-.59-.58-.9-1.19,1.7-1.59,4.49-.18,6.18.23.28.5.52.68.84.15.26.23.54.31.83.66,2.38,1.32,4.76,1.98,7.14.44,1.57.7,3.2,1.16,4.75.48,1.62,1.03,7.23.94,8.36-.04.58-.09,1.15-.16,1.73-.03.28-.04.35.22.5.22.13.46.2.71.24.66.11,1.35,0,1.95-.28.31-.15.61-.36.79-.66.22-.33.19-.75.23-1.14.1-.94.2-1.87.29-2.81.11-1.14.2-2.29.05-3.43-.15-1.12-.53-2.2-.78-3.3-.57-2.51-.17-5.17.17-7.71.15-1.13.3-2.26.43-3.39.26-2.27.42-4.65-.43-6.77"/>
      <path class="uuid-29935840-abf8-48de-acd9-fd7c76d35101" d="M24.15,11.32c-.21.02-.42.04-.61.06-1.05.14-2.08.48-3.02.96-.59.31-1.16.66-1.68,1.07-.48.37-.77.76-.93,1.35-.46,1.69-.29,3.34-.16,5.07.23,2.92-.46,14.56-.14,17.52.06.6.04.73.6.98.45.2.91.35,1.38.47.89.23,1.82.34,2.74.42,1.37.11,2.74.16,4.11.13,1.29-.03,2.64-.13,3.72-.82.11-.07.23-.15.29-.27.08-.13.08-.29.08-.45.08-4.99-.91-10.06.16-14.94.29-1.32.73-2.61.99-3.94.12-.61.1-1.28.29-1.87.19-.58.32-1-.02-1.58-.15-.25-.37-.45-.61-.62-.66-.49-3.54-2.07-4.23-2.53-.48-.32-.97-.63-1.46-.91-.41-.24-1.04-.14-1.5-.1"/>
      <path class="uuid-1486b0f6-26f1-48ce-8d5d-05f29915ae33" d="M18.21,15.98c-.01.06-.02.11-.03.17-.1.63-.16,1.26-.22,1.9-.08.89-.15,1.78-.22,2.66-.1,1.34-.19,2.7-.03,4.04-.07-.55.11-1.24.19-1.79.09-.56.16-1.1.28-1.65.23-1.02.47-2.04.72-3.05.16-.65.33-1.29.57-1.91.27-.69.61-1.35.99-1.98.32-.54.62-1.23,1.11-1.61.11-.08.21-.22.35-.24.09-.01.19-.01.27-.06.27-.16-.07-.4-.26-.37-.15.02-.28.11-.44.13-.16.03-.33.02-.49.03-.43.03-.86.18-1.22.43-1.06.73-1.38,2.11-1.59,3.31"/>
      <path class="uuid-1486b0f6-26f1-48ce-8d5d-05f29915ae33" d="M25.71,17.91c-.38,1.98-.49,4.02-.08,5.99.4,1.97,1.33,3.86,2.81,5.23.52.49,1.11.9,1.73,1.26.25.14.48.31.75.42.14.06.35.14.5.05.15-.08.2-.32.24-.47.12-.43.12-.88.12-1.32,0-.34,0-.73-.14-1.05-.13-.28-.43-.31-.7-.37-.93-.22-1.75-.82-2.28-1.6-.36-.53-.48-1.09-.65-1.7-.2-.71-.33-1.44-.4-2.17-.13-1.45,0-2.93.38-4.34.18-.67.42-1.32.8-1.9.26-.41.59-.77.93-1.11.22-.22.83-.56.47-.89-.13-.12-.31-.16-.48-.21-.37-.12-.71-.32-1-.58-.05-.05-.1-.1-.17-.11-.04-.01-.09,0-.13,0-.58.1-.99.61-1.35,1.08-.42.56-.64,1.23-.86,1.89-.2.62-.35,1.25-.48,1.89"/>
      <path class="uuid-e6d00206-0c91-4194-8140-8eeacbc1a044" d="M22.93,14.23c-.1-.23-.32-.41-.56-.47-.08-.02-.17-.03-.26,0-.24.06-.36.33-.44.57l-.1-.22c-.43,1.23-.55,2.55-.66,3.84-.02.23-.04.46-.06.69,0,.04,0,.09,0,.13.03.09.12.14.2.18.4.19.83.3,1.27.33-.02-1.29.15-2.59.52-3.83.12-.4.25-.84.08-1.22"/>
      <path class="uuid-709e8feb-b030-4f39-b424-050a4d9fd66a" d="M25.23,7.32c0,.14-.21.4-.28.52-.39.65-.92,1.21-1.53,1.65-.3.22-.63.41-.98.57-.17.08-.35.16-.53.21-.14.04-.35.04-.45.15-.03.03-.05.08-.06.12-.24.84.09,1.77-.14,2.61-.09.32-.13.6.11.88.09.1.2.17.33.18.13.01.26.05.4.05.06,0,.12,0,.18.02.07.04.1.13.17.16.07.03.17,0,.25-.02.11-.01.22-.03.32-.05.21-.04.42-.1.62-.16.84-.25,1.66-.61,2.42-1.05.21-.12.41-.25.58-.41.08-.08.16-.17.21-.27.15-.37-.23-.48-.47-.64-.25-.16-.43-.4-.58-.66-.32-.57-.46-1.23-.51-1.89-.06-.65-.03-1.31-.06-1.97"/>
      <path class="uuid-e6d00206-0c91-4194-8140-8eeacbc1a044" d="M21.46,15.11s-.04.08-.07.12c-.03.05-.2.35-.17.4-.27-.41-.43-.88-.48-1.36-.05-.47-.06-.96.14-1.41.13-.3.34-.55.58-.77-.11.1-.13.46-.13.6,0,.21.02.4.09.59.12.35.29.67.63.86.06.03.12.06.18.09-.26.15-.43.38-.59.61-.06.09-.12.18-.17.27"/>
      <path class="uuid-e6d00206-0c91-4194-8140-8eeacbc1a044" d="M25.52,12.06c-.74,1.02-1.85,1.76-3.06,2.07-.1.02-.2.04-.29.07-.03.65.14,1.3.24,1.94.48-.57,1.07-1.04,1.72-1.4.55-.3,1.14-.51,1.68-.83.54-.32,1.03-.78,1.21-1.38.05-.18.07-.39-.03-.55-.15-.24-.48-.27-.71-.43-.15-.1-.26-.27-.29-.45-.01-.07-.01-.13-.04-.2-.03-.06-.09-.11-.15-.11-.08,0-.13.1-.11.18.01.08.08.13.11.2.02.06.03.15.03.21-.01.24-.16.47-.3.67"/>
      <path class="uuid-9b998d80-0e17-4864-bdac-cd14a1ab7f98" d="M18.81,6.14c.03.28.05.56.17.81.05.12.12.23.16.36.06.23,0,.47-.03.71-.03.32.01.64.07.95.13.73.29,1.46.51,2.17.14.48.33,1,.76,1.26.53.32,1.21.13,1.77-.11.64-.27,1.26-.61,1.74-1.11.48-.5.82-1.17.79-1.86.43.04.83-.26,1.08-.61.28-.4.44-.87.57-1.33.21-.72.38-1.45.41-2.19s-.1-1.51-.47-2.16c-.61-1.08-1.83-1.73-3.07-1.79-.65-.03-1.29.09-1.9.32-.65.24-1.35.76-1.79,1.3-.34.41-.59,1-.67,1.53-.09.57-.17,1.19-.11,1.77"/>
      <path class="uuid-abf62580-5dc3-47f5-9c71-c23c579a8219" d="M22.73,5.66c.07.47.71.62.99.99.12.16.19.34.27.52.11.26.24.51.39.76.05-.31.16-.61.33-.88.11-.17.24-.33.41-.44.17-.11.38-.17.58-.12.32.08.46.39.51.69.05.32.08.81-.1,1.09.29-.45.45-.85.58-1.36.14-.53.26-1.06.3-1.61.05-.74-.05-1.52-.42-2.16-.08-.13-.18-.24-.28-.35-.09-.1-.17-.27-.29-.33-.1-.05-.23-.01-.34,0-.48.09-.97-.12-1.45-.05-.58.08-1.01.58-1.16,1.11-.18.66-.3,1.35-.32,2.04,0,.04,0,.07,0,.11"/>
      <path class="uuid-a30deb19-e38c-4a1d-801c-083f4b5661c7" d="M25.23,1.3c-.47-.22-.99-.35-1.49-.42-.71-.11-1.43-.09-2.13.06-.63.13-1.18.46-1.68.85-.29.23-.56.5-.77.8-.31.43-.62.92-.75,1.44-.05.21-.08.49.14.62.17.1.34.05.45-.09.15-.19.29-.3.52-.39.22-.09.45-.15.68-.17.56-.05,1.12.05,1.67.11.44.05,1.01.1,1.44-.05.25-.08.48-.22.7-.35.13-.07.28-.15.42-.12.27.05.44.37.66.51.26.17.57.26.87.22.33-.04.72-.29.85-.61.16-.38-.08-.96-.27-1.28-.32-.52-.79-.88-1.32-1.12"/>
      <path class="uuid-9b998d80-0e17-4864-bdac-cd14a1ab7f98" d="M9.76,38.62c-.02.06-.04.12-.08.17-.05.06-.13.1-.2.13-.18.08-.37.14-.56.2-.06.02-.13.06-.12.12,0,.04.05.06.08.08.18.09.38.16.58.16.2,0,.4-.07.58-.16.25-.12.48-.29.67-.5.18-.21.32-.47.37-.74.02-.11.03-.22,0-.33-.05-.21-.21-.39-.42-.45-.2-.06-.44,0-.59.15-.13.13-.09.33-.13.51-.05.23-.11.45-.18.66"/>
      <path class="uuid-709e8feb-b030-4f39-b424-050a4d9fd66a" d="M16.04,40.1c-.01.08-.02.15-.01.23.03.24.38.39.6.32.17-.05.25-.25.3-.42.04-.17.07-.33.08-.5,0-.11.01-.22-.02-.32-.05-.14-.17-.23-.3-.3-.06-.03-.13-.06-.2-.07-.24-.03-.46.17-.47.41,0,.09.03.17.05.25.03.14,0,.27-.03.4"/>
      <path class="uuid-abc3499e-0526-4cdf-a7dc-7d18b41ce4f2" d="M13.94,75.49l-2.35-1.39h0c-.64-.4-1.53-.36-2.53.21l-1.97,1.19-2.26-3.12-1.48.85,4.3,5.89,2.69,1.55-1.21-2.4,3.42-1.98s0-.03,0-.04l1.4-.77Z"/>
      <path class="uuid-d0144f67-ec99-4f76-9282-37a66fd1bf41" d="M11.75,75.86l-1.97,1.19-3.54-4.87-1.48.85,5.58,7.64,1.41-.81.07-.04,3.42-1.97c0-2.21-1.56-3.11-3.49-1.99"/>
      <polygon class="uuid-d0144f67-ec99-4f76-9282-37a66fd1bf41" points="1.24 77.8 2.01 82.27 2.87 81.76 3.28 76.63 1.24 77.8"/>
      <path class="uuid-14995c22-f221-469b-ad6d-fc8d1e26c818" d="M3.74,78.06c.09,0,.17.01.25.03,2.07.26,3.43,2.05,3.43,2.05l-1.71.92-.64-.57c-.2,1.3-1,2.7-2.02,3.52l.81.26.13,1.96s-2.44-.26-3.66-2.12h0c-.21-.31-.32-.73-.32-1.26,0-1.64,1.15-3.63,2.56-4.45.42-.24.82-.35,1.16-.35h0s.01,0,.02,0"/>
      <path class="uuid-3b409e5e-f896-4f0f-9bb2-fd2ca59dd7bf" d="M5.21,79.94c-1.41.82-2.56,2.81-2.56,4.45s1.15,2.31,2.56,1.5c1.41-.82,2.56-2.81,2.56-4.45s-1.15-2.31-2.56-1.5"/>
      <path class="uuid-012ef63c-143a-4295-8859-60e3a5ded7cb" d="M5.32,80.87c-1,.58-1.8,1.98-1.8,3.14s.81,1.63,1.8,1.05c1-.58,1.8-1.98,1.8-3.14s-.81-1.63-1.8-1.06"/>
      <path class="uuid-14995c22-f221-469b-ad6d-fc8d1e26c818" d="M4.25,84.44c1-.57,1.8-1.98,1.8-3.14,0-.26-.04-.48-.12-.67.69-.1,1.18.38,1.18,1.28,0,1.16-.81,2.56-1.8,3.14-.77.45-1.43.26-1.69-.39.19-.03.4-.1.62-.23"/>
      <path class="uuid-d0144f67-ec99-4f76-9282-37a66fd1bf41" d="M5.84,82.55c0,.51-.36,1.13-.81,1.39-.44.26-.8.05-.8-.46s.36-1.13.8-1.39c.45-.26.81-.05.81.46"/>
      <polygon class="uuid-d0144f67-ec99-4f76-9282-37a66fd1bf41" points="4.68 79.79 4.49 83.77 5.35 83.27 6.72 78.62 4.68 79.79"/>
      <polygon class="uuid-abc3499e-0526-4cdf-a7dc-7d18b41ce4f2" points="4.68 79.79 1.24 77.81 3.28 76.63 6.72 78.62 4.68 79.79"/>
      <path class="uuid-d0144f67-ec99-4f76-9282-37a66fd1bf41" d="M6.83,68.41l-2.53-.54-1.54,9.87h0c-.02.18.06.38.27.57.43.39,1.23.56,1.79.38.26-.09.42-.24.47-.41h0s1.54-9.87,1.54-9.87Z"/>
      <path class="uuid-d0144f67-ec99-4f76-9282-37a66fd1bf41" d="M6.35,68.89c-.55.18-1.35,0-1.79-.38-.43-.39-.34-.85.21-1.03.55-.18,1.35,0,1.79.38.43.39.34.85-.21,1.03"/>
      <path class="uuid-d0144f67-ec99-4f76-9282-37a66fd1bf41" d="M7.32,68.14l-3.41-.72-1.1,7.36h0c-.03.24.08.51.36.76.59.53,1.66.76,2.41.52.35-.11.57-.32.63-.55h0l1.1-7.36Z"/>
      <path class="uuid-abc3499e-0526-4cdf-a7dc-7d18b41ce4f2" d="M6.66,68.79c-.74.24-1.82.01-2.41-.52-.59-.53-.46-1.15.29-1.39.74-.24,1.82-.01,2.41.52.59.53.46,1.15-.29,1.39"/>
      <path class="uuid-a32cc24e-26a6-4727-bb7f-af6d080038e0" d="M11.56,49.49l-.97-1.9-.4.96-.78-.45c-.34-.19-.66.02-.73.46l-1.55,10.13c-.07.45.15.97.48,1.16l1.08.62-.16,1.62,1.48-1.24h0c.09-.09.15-.23.18-.4l1.55-10.13c.04-.28-.03-.6-.17-.84"/>
      <path class="uuid-012ef63c-143a-4295-8859-60e3a5ded7cb" d="M7.9,62.1l-2.34-1.35c-.43-.24-.7-.91-.61-1.48l1.97-12.87c.09-.57.5-.84.93-.59l2.34,1.35c.43.25.7.91.61,1.48l-1.97,12.87c-.09.57-.5.84-.93.59"/>
      <path class="uuid-d0144f67-ec99-4f76-9282-37a66fd1bf41" d="M12.03,34.92l-2.53-.54-5.19,33.14h0c-.02.18.06.38.27.57.43.39,1.23.56,1.79.38.26-.08.42-.23.47-.41h0s5.19-33.14,5.19-33.14Z"/>
      <path class="uuid-d0144f67-ec99-4f76-9282-37a66fd1bf41" d="M11.55,35.41c-.55.18-1.35,0-1.79-.38-.43-.39-.34-.85.21-1.03s1.35,0,1.79.38c.43.39.34.85-.21,1.03"/>
      <path class="uuid-abc3499e-0526-4cdf-a7dc-7d18b41ce4f2" d="M7.63,34.29l1.29-2.24-6.65-3.84h0c-.16-.07-.38-.05-.62.08-.51.29-.92,1-.92,1.58,0,.28.09.47.25.57h0s6.65,3.84,6.65,3.84Z"/>
      <path class="uuid-d0144f67-ec99-4f76-9282-37a66fd1bf41" d="M1.02,28.95l7.26,4.2-.66,1.14-6.65-3.84h0c-.15-.1-.24-.3-.24-.57,0-.3.11-.63.28-.93"/>
      <path class="uuid-709e8feb-b030-4f39-b424-050a4d9fd66a" d="M14.86,23.05c-.11-.49-.34-.97-.7-1.32-.29-.29-.85-.65-1.23-.32-1.1.96-2.02,2.09-2.94,3.22-.47.58-3.55,4.38-4.03,4.81-.15.13-.26.17-.45.2-.52.07-1.04.14-1.55.21-.08.01-.17.02-.24.07-.08.05-.14.14-.18.22-.22.41-.3.9-.23,1.36,0,.07.02.14.06.2.03.05.07.09.09.13.08.14.06.33.14.46.03.05.07.09.1.13.36.44.45.99,1.1,1.1.33.06.68-.02,1-.12.07-.02.14-.05.17-.11.02-.04.02-.09.02-.14,0-.28-.02-.57.05-.83.09-.34.31-.64.61-.82s.66-.25,1.01-.18c-.03-.29.04-.57.23-.79.53-.61,1.32-1.06,1.99-1.51.37-.25.74-.49,1.11-.73,1.06-.67,2.14-1.31,2.97-2.28.71-.82,1.15-1.88.89-2.97"/>
      <path class="uuid-d0144f67-ec99-4f76-9282-37a66fd1bf41" d="M7.32,33.67c0-.58.41-1.29.92-1.58.51-.29.92-.06.92.52s-.41,1.29-.92,1.58c-.51.29-.92.06-.92-.52"/>
      <path class="uuid-b8b7c786-8b4c-43ed-9c8e-33b9a09fe2dd" d="M8.34,35.08l1.62-2.81-.98-.56h0c-.21-.09-.48-.07-.78.1-.64.37-1.15,1.26-1.15,1.98,0,.35.12.59.31.72h0s.98.56.98.56Z"/>
      <path class="uuid-d0144f67-ec99-4f76-9282-37a66fd1bf41" d="M7.95,34.31c0-.73.51-1.62,1.15-1.98.64-.37,1.15-.07,1.15.66s-.52,1.62-1.15,1.98c-.64.37-1.15.07-1.15-.66"/>
      <path class="uuid-abc3499e-0526-4cdf-a7dc-7d18b41ce4f2" d="M13.85,37.49l.99-1.72-5.12-2.95h0c-.13-.06-.29-.04-.48.07-.39.23-.71.77-.71,1.22,0,.21.07.36.19.44h0s5.12,2.95,5.12,2.95Z"/>
      <path class="uuid-d0144f67-ec99-4f76-9282-37a66fd1bf41" d="M13.61,37.02c0-.45.32-.99.71-1.22.39-.22.7-.04.7.4s-.32.99-.7,1.22c-.39.23-.71.04-.71-.4"/>
      <path class="uuid-b8b7c786-8b4c-43ed-9c8e-33b9a09fe2dd" d="M13.04,37.74l1.62-2.81-.98-.56h0c-.21-.09-.48-.07-.78.1-.64.37-1.15,1.26-1.15,1.98,0,.35.12.59.31.72h0s.98.56.98.56Z"/>
      <path class="uuid-d0144f67-ec99-4f76-9282-37a66fd1bf41" d="M12.65,36.97c0-.73.51-1.62,1.15-1.98.64-.37,1.15-.07,1.15.66s-.52,1.62-1.15,1.98c-.64.37-1.15.07-1.15-.66"/>
      <path class="uuid-abc3499e-0526-4cdf-a7dc-7d18b41ce4f2" d="M19.89,41.3l1.29-2.24-6.65-3.84h0c-.16-.07-.38-.05-.62.08-.51.29-.92,1-.92,1.58,0,.28.09.47.25.57h0s6.65,3.84,6.65,3.84Z"/>
      <path class="uuid-db650859-fc07-4725-8e70-f6009ab68abc" d="M20.52,40.21l-.63,1.09-6.65-3.84c-.15-.1-.24-.3-.24-.57s.1-.6.25-.88l7.27,4.2Z"/>
      <path class="uuid-d0144f67-ec99-4f76-9282-37a66fd1bf41" d="M19.58,40.69c0-.58.41-1.29.92-1.58.51-.29.92-.06.92.52s-.41,1.29-.92,1.58c-.51.29-.92.06-.92-.52"/>
      <path class="uuid-9b998d80-0e17-4864-bdac-cd14a1ab7f98" d="M30.59,21.78c-.05-.09-.12-.17-.18-.23-.33-.28-.66-.57-1.03-.79-.37-.22-.79-.38-1.23-.38-.21,0-.56.02-.74.15-.25.18-.41.62-.55.88-.31.6-.62,1.2-.9,1.81-.31.67-.58,1.36-.86,2.04-.59,1.41-1.25,2.8-1.96,4.15-.71,1.33-1.53,2.59-2.25,3.91-.35.65-.7,1.29-1.04,1.94-.15.29-.28.53-.51.76-.21.2-.45.36-.7.48-.41.19-.84.33-1.28.42-.32.06-.67.11-.92.31-.13.11-.23.26-.31.42-.3.56-.43,1.26-.15,1.82.04.08.09.16.17.2.08.04.18.03.24-.03.06.16.19.27.31.39.14.15.34.24.54.23.06,0,.11-.01.17,0,.12.02.21.12.31.19.09.06.19.1.29.11.09.01.23-.05.31-.03.07.03.08.13.13.19.06.08.15.15.24.18.17.07.35.07.54.06-.08-.24-.14-.42-.11-.68.03-.26.1-.52.23-.74.13-.25.33-.48.55-.65.1-.08.19-.14.31-.16.14-.03.29-.05.42-.12.15-.07.26-.19.37-.32.35-.39.7-.78,1.03-1.19.44-.56.82-1.17,1.23-1.76.04-.07.09-.13.14-.2.89-1.26,1.76-2.53,2.6-3.83.49-.76,3.34-5.64,3.57-6.09.2-.4.4-.79.6-1.19.28-.57.57-1.15.6-1.78,0-.07,0-.14-.03-.2-.04-.08-.08-.17-.14-.26"/>
      <path class="uuid-e6d00206-0c91-4194-8140-8eeacbc1a044" d="M32.27,18.22c.02-.69.08-1.41-.1-2.09-.12-.47-.49-1.26-1.05-1.29-.59-.04-1.25.33-1.7.67-.27.21-.52.45-.73.71-.64.79-1.04,1.74-1.44,2.67-.34.8-.69,1.59-1,2.4-.07.2-.21.39-.23.6-.02.18.08.35.18.49.22.33.56.58.91.75.64.31,1.37.42,2.08.39.71-.03,1.41-.2,2.1-.4.18-.06.38-.12.5-.28.15-.2.13-.48.17-.71.09-.55.3-3.36.31-3.9"/>
      <path class="uuid-1486b0f6-26f1-48ce-8d5d-05f29915ae33" d="M22.84,3.88l.68,4.34.74.03s.43-2.77,1.82-1.69c1.14.89-.37,2.11-.79,2.73-.42.62.79.04.79.04,0,0,1.75-2.24,1.59-4.8-.16-2.56-4.82-.65-4.82-.65"/>
      <polygon class="uuid-abf62580-5dc3-47f5-9c71-c23c579a8219" points="23.93 7.61 24.28 7.64 24.39 10.41 23.9 10.99 23.93 7.61"/>
      <polygon class="uuid-abf62580-5dc3-47f5-9c71-c23c579a8219" points="25.91 9.1 24.22 10.2 24.1 10.64 26.08 9.33 25.91 9.1"/>
      <path class="uuid-abf62580-5dc3-47f5-9c71-c23c579a8219" d="M21.94,12.52s1.34-.36,2.13-2.16l.32.06s-.64,1.32-1.8,2.1c0,0-.18.11-.64.01"/>
      <path class="uuid-1486b0f6-26f1-48ce-8d5d-05f29915ae33" d="M26.03,1.18c-.7-.58-1.46-1.01-2.35-1.13-1.13-.15-2.2.06-3.23.57-.91.45-1.72,1.14-2.15,2.06-.66,1.42-.69,2.93-.31,3.21.12.09.49-.95.62-1.04,1.07-.71,1.72-.28,2.46-.1.77.2,1.74,1.66,2.49,1.93.5.18.6-1.43,1.07-1.19.47.24.9.55,1.33.85.22.16.45.3.66.47.21.16.34.38.54.54.67-1.15.76-2.53.4-3.79-.26-.92-.75-1.73-1.49-2.36,0,0-.02-.02-.03-.02"/>
      <path class="uuid-1486b0f6-26f1-48ce-8d5d-05f29915ae33" d="M17.93,5.1s-.2.73.23.84c.44.12.64.19.64.19l.08-2.15-.95,1.12Z"/>
      <path class="uuid-1486b0f6-26f1-48ce-8d5d-05f29915ae33" d="M29.83,28.83l.55-12.78-9.15-2.43s3.64-3.3,6.06-2.75c2.42.55,3.86,5.18,3.86,5.18,0,0,1.76,7.82,1.87,12.34.11,4.52-3.41,6.5-3.41,6.5l.22-6.06Z"/>
      <path class="uuid-d0144f67-ec99-4f76-9282-37a66fd1bf41" d="M28.05,66.53l-18.61,10.74v-.47l-1.21.16v1.39h0c0,.18.11.34.33.46l3.45,1.99c.49.29,1.36.25,1.93-.08l19.35-11.17-5.24-3.03Z"/>
      <polygon class="uuid-36040208-d0f2-4eeb-865b-627a9e88cf23" points="29.59 67.42 28.05 66.53 32.33 64.97 33.08 65.4 29.59 67.42"/>
      <polygon class="uuid-36040208-d0f2-4eeb-865b-627a9e88cf23" points="31.76 68.67 33.29 69.56 36 67.09 35.25 66.66 31.76 68.67"/>
      <polygon class="uuid-f9c3a39f-46c8-4d76-8181-1e2530f529d0" points="29.59 66.04 28.05 65.15 32.33 63.59 33.08 64.02 29.59 66.04"/>
      <path class="uuid-14995c22-f221-469b-ad6d-fc8d1e26c818" d="M33.4,60.9c.09,0,.17.01.25.03,2.07.26,3.43,2.05,3.43,2.05l-1.71.92-.64-.57c-.19,1.3-1,2.7-2.02,3.52l.81.26.13,1.96s-2.44-.26-3.66-2.12h0c-.21-.31-.32-.73-.32-1.26,0-1.64,1.15-3.63,2.56-4.45.42-.24.82-.35,1.16-.35h0s.01,0,.02,0"/>
      <path class="uuid-3b409e5e-f896-4f0f-9bb2-fd2ca59dd7bf" d="M34.88,62.78c-1.41.82-2.56,2.81-2.56,4.45s1.15,2.31,2.56,1.49c1.41-.82,2.56-2.81,2.56-4.45s-1.15-2.31-2.56-1.5"/>
      <polygon class="uuid-d0144f67-ec99-4f76-9282-37a66fd1bf41" points="33.29 68.18 33.29 69.56 31.56 69.58 31.34 68.6 33.29 68.18"/>
      <path class="uuid-012ef63c-143a-4295-8859-60e3a5ded7cb" d="M34.98,63.7c-1,.58-1.8,1.98-1.8,3.14s.81,1.63,1.8,1.05c1-.58,1.8-1.98,1.8-3.14s-.81-1.63-1.8-1.06"/>
      <path class="uuid-14995c22-f221-469b-ad6d-fc8d1e26c818" d="M33.91,67.28c1-.57,1.8-1.98,1.8-3.14,0-.26-.04-.48-.12-.67.69-.1,1.18.38,1.18,1.28,0,1.16-.81,2.56-1.8,3.14-.77.45-1.43.26-1.69-.39.19-.03.4-.1.62-.23"/>
      <path class="uuid-0f5cfbee-44d8-4f2f-a87d-d647ffe1ae21" d="M12.02,79.43l-3.45-1.99c-.49-.29-.43-.78.14-1.11l19.35-11.17,5.24,3.03-19.35,11.17c-.57.33-1.43.36-1.93.08"/>
      <polygon class="uuid-f9c3a39f-46c8-4d76-8181-1e2530f529d0" points="31.76 67.29 33.29 68.18 36 65.71 35.25 65.28 31.76 67.29"/>
      <polygon class="uuid-14995c22-f221-469b-ad6d-fc8d1e26c818" points="36 65.71 33.29 68.18 24.2 73.43 24.2 67.38 28.05 65.15 28.05 65.15 28.05 65.15 32.33 63.59 32.23 64.43 29.59 66.04 31.76 67.29 35.26 65.28 36 65.71"/>
      <polygon class="uuid-14995c22-f221-469b-ad6d-fc8d1e26c818" points="22.54 68.33 22.54 74.39 20.71 75.44 20.71 69.39 22.54 68.33"/>
      <polygon class="uuid-d0144f67-ec99-4f76-9282-37a66fd1bf41" points="36 65.71 36 67.09 33.29 69.56 33.29 68.18 36 65.71"/>
      <path class="uuid-d0144f67-ec99-4f76-9282-37a66fd1bf41" d="M38.31,60.87l-.34-.02h0s-1.35-.77-1.35-.77c-.11-.06-.23-.1-.36-.11-6.38-.45-6.69,6.07-6.69,6.07l2.18,1.24s.3-6.36,6.45-6.09c.06,0,.1-.05.1-.1v-.23Z"/>
      <path class="uuid-abc3499e-0526-4cdf-a7dc-7d18b41ce4f2" d="M36.27,59.74c-6.38-.45-6.69,6.31-6.69,6.31l2.18,1.24s.3-6.59,6.45-6.32c.11,0,.15-.14.05-.19l-1.63-.93c-.11-.06-.23-.1-.35-.11"/>
      <path class="uuid-709e8feb-b030-4f39-b424-050a4d9fd66a" d="M21.55,12.56c-.38-.23-.87-.1-1.27.09-.62.29-1.18.71-1.64,1.22-.47.52-.77,1.17-1.16,1.76-.1.16-.2.31-.31.47-.65.97-1.34,1.92-2.03,2.87-.61.84-1.26,1.65-2.07,2.3-.02.02-.05.04-.06.07-.01.03,0,.05,0,.08.02.34-.01.74.07,1.08.07.29.16.59.23.89.08.34.16.69.33,1,.1.19.24.36.41.49.05.04.13.09.16.14.06.08.09.3.23.25.04-.01.07-.05.1-.08.25-.28,2.71-3.12,3.29-3.79.2-.23.4-.46.54-.74.17-.34.24-.71.33-1.08.26-1.04.74-2,1.2-2.95.34-.71.62-1.44.99-2.13.17-.33.28-.52.32-.88.01-.09.3-1.08.33-1.06"/>
      <path class="uuid-e6d00206-0c91-4194-8140-8eeacbc1a044" d="M20.75,12.69c.06-.15.14-.29.22-.44-.68.19-1.33.49-1.91.9-.62.43-1.07.96-1.53,1.55-.28.35-.53.73-.78,1.1-.31.46-.62.92-.93,1.38-.21.31-.42.62-.6.94-.22.39-.05.92.09,1.31.17.46.43.87.77,1.22.57.59,1.36.95,2.17,1.02-.16-1.07-.14-2.17.12-3.22.24-.97.64-1.88,1.1-2.77.18-.35.3-.8.55-1.11.26-.33.36-.73.46-1.13.06-.27.15-.52.26-.77"/>
      <path class="uuid-1ed4b198-b438-4ed6-bed2-66956bb12ab8" d="M16.69,73.19c-.07.03-.15.02-.22-.06-.06-.07-.08-.16-.1-.26-.18.25-.27.54-.31.84-.04.3-.02.6.01.9.02.23.06.45.12.67.05.17.11.4.25.51.22.17.62.18.89.2.32.02.64,0,.95-.06.62-.11,1.22-.38,1.71-.78,0,0,.01,0,.02-.01.16-.13.31-.27.45-.43.15-.16.26-.34.36-.54.1-.2.19-.42.32-.6.13-.17.27-.23.47-.29.4-.13.84-.15,1.22-.33.33-.15.57-.35.74-.68.18-.36.27-.75.29-1.15.01-.34-.03-.69-.19-.99.02.04-.07.14-.11.15-.06.02-.12-.03-.15-.07-.11-.13-.19-.26-.32-.38-.34-.32-.78-.54-1.25-.57-.46-.04-.84.14-1.22.37-.32.2-.51.54-.77.81-.63.64-1.38,1.14-2.07,1.71-.25.2-.49.41-.71.64-.09.09-.23.32-.39.38"/>
      <path class="uuid-29935840-abf8-48de-acd9-fd7c76d35101" d="M16.7,72.37c-.4.49-.71,1.11-.59,1.73.05.27.11.66.34.84.22.17.62.18.89.2.32.02.64,0,.95-.06.62-.11,1.22-.38,1.71-.78,0,0,.01,0,.01-.01.16-.13.31-.27.45-.43.15-.16.26-.34.36-.54.11-.2.19-.42.32-.6.13-.17.27-.23.47-.29.4-.13.84-.15,1.23-.33.56-.26.92-.86.95-1.47.03-.61-.25-1.22-.7-1.64-.34-.32-.78-.54-1.25-.57-.46-.04-.84.14-1.22.37-.32.2-.51.54-.77.81-.63.64-1.38,1.14-2.07,1.71-.39.32-.77.67-1.08,1.06"/>
      <path class="uuid-1ed4b198-b438-4ed6-bed2-66956bb12ab8" d="M24.12,50.07c-.06-2.36-.28-4.71-.29-7.07,0-.19,0-.38,0-.57.01-1.15.08-2.31-.2-3.42-.21-.84-.62-1.65-1.28-2.22-.65-.57-1.56-.88-2.41-.71-1.16.23-1.83,1.35-2.08,2.42-.36,1.5-.39,3.07-.25,4.6.16,1.82,1.9,20.41,2,21.39.08.79.33,4.21.33,4.56,0,.21-.03.3.17.42.16.1.35.16.53.19.25.04.5.04.75.04.64-.02,1.3-.09,1.86-.39.28-.15.32-.37.31-.67-.01-.39.16-4.34.2-5.21.05-.91.43-10.31.36-13.36"/>
      <path class="uuid-c7260074-ac81-43bf-9157-9b3a97a10e46" d="M24.93,70.33s0,.02-.01.03c-.18.38-.35.77-.51,1.15-.05.12-.09.25-.16.37-.04.08-.12.08-.18,0-.05-.05-.06-.12-.06-.19-.24.45-.3.96-.15,1.45.21.73.94,1.15,1.67,1.17.64.02,1.25-.23,1.78-.59.59-.4,1.09-.95,1.44-1.58.46-.84.66-1.81,1.21-2.59.22-.32.36-.68.42-1.06.06-.42,0-.78-.12-1.18-.04-.14-.2-.35-.21-.48,0,.1-.02.22-.08.3-.07.1-.09.08-.15,0-.12-.16-.25-.31-.41-.44-.33-.26-.73-.44-1.15-.51-.31-.06-.64-.06-.95.05-.73.25-.88,1.03-1.18,1.66-.39.82-.8,1.63-1.2,2.44"/>
      <path class="uuid-29935840-abf8-48de-acd9-fd7c76d35101" d="M23.94,71.74c-.12.32-.16.7.07.98.18.23.44.35.73.42.36.08.74.09,1.11.04,1.1-.16,2.04-.88,2.75-1.73.26-.31.49-.65.62-1.04.06-.2.09-.41.17-.6.07-.15.16-.29.23-.44.17-.37.41-.7.54-1.09.21-.63.09-1.35-.28-1.9-.37-.55-.99-.92-1.64-1.04-.32-.06-.64-.06-.95.05-.73.25-.88,1.04-1.17,1.66-.39.82-.8,1.63-1.2,2.44-.22.45-.86,1.97-.98,2.27"/>
      <path class="uuid-c7260074-ac81-43bf-9157-9b3a97a10e46" d="M30.11,36.9c-.03.44-.04,1.57-.51,1.8-.17.08-.42.01-.61.03-.28.03-.52.18-.79.22-.36.04-.84-.13-1.17-.24-1.01-.32-1.95-.84-2.76-1.52-.25-.21-.49-.43-.79-.54-.23-.09-.48-.1-.72-.05-.14.03-.31.16-.45.14-.38-.04-.5-.59-.58-.9-1.19,1.7-1.59,4.49-.18,6.18.23.28.5.52.68.84.15.26.23.54.31.83.66,2.38,1.32,4.76,1.98,7.14.44,1.57.7,3.2,1.16,4.75.48,1.62,1.03,7.23.94,8.36-.04.58-.09,1.15-.16,1.73-.03.28-.04.35.22.5.22.13.46.2.71.24.66.11,1.35,0,1.95-.28.31-.15.61-.36.79-.66.22-.33.19-.75.23-1.14.1-.94.2-1.87.29-2.81.11-1.14.2-2.29.05-3.43-.15-1.12-.53-2.2-.78-3.3-.57-2.51-.17-5.17.17-7.71.15-1.13.3-2.26.43-3.39.26-2.27.42-4.65-.43-6.77"/>
      <path class="uuid-29935840-abf8-48de-acd9-fd7c76d35101" d="M24.15,11.32c-.21.02-.42.04-.61.06-1.05.14-2.08.48-3.02.96-.59.31-1.16.66-1.68,1.07-.48.37-.77.76-.93,1.35-.46,1.69-.29,3.34-.16,5.07.23,2.92-.46,14.56-.14,17.52.06.6.04.73.6.98.45.2.91.35,1.38.47.89.23,1.82.34,2.74.42,1.37.11,2.74.16,4.11.13,1.29-.03,2.64-.13,3.72-.82.11-.07.23-.15.29-.27.08-.13.08-.29.08-.45.08-4.99-.91-10.06.16-14.94.29-1.32.73-2.61.99-3.94.12-.61.1-1.28.29-1.87.19-.58.32-1-.02-1.58-.15-.25-.37-.45-.61-.62-.66-.49-3.54-2.07-4.23-2.53-.48-.32-.97-.63-1.46-.91-.41-.24-1.04-.14-1.5-.1"/>
      <path class="uuid-1486b0f6-26f1-48ce-8d5d-05f29915ae33" d="M18.21,15.98c-.01.06-.02.11-.03.17-.1.63-.16,1.26-.22,1.9-.08.89-.15,1.78-.22,2.66-.1,1.34-.19,2.7-.03,4.04-.07-.55.11-1.24.19-1.79.09-.56.16-1.1.28-1.65.23-1.02.47-2.04.72-3.05.16-.65.33-1.29.57-1.91.27-.69.61-1.35.99-1.98.32-.54.62-1.23,1.11-1.61.11-.08.21-.22.35-.24.09-.01.19-.01.27-.06.27-.16-.07-.4-.26-.37-.15.02-.28.11-.44.13-.16.03-.33.02-.49.03-.43.03-.86.18-1.22.43-1.06.73-1.38,2.11-1.59,3.31"/>
      <path class="uuid-1486b0f6-26f1-48ce-8d5d-05f29915ae33" d="M25.71,17.91c-.38,1.98-.49,4.02-.08,5.99.4,1.97,1.33,3.86,2.81,5.23.52.49,1.11.9,1.73,1.26.25.14.48.31.75.42.14.06.35.14.5.05.15-.08.2-.32.24-.47.12-.43.12-.88.12-1.32,0-.34,0-.73-.14-1.05-.13-.28-.43-.31-.7-.37-.93-.22-1.75-.82-2.28-1.6-.36-.53-.48-1.09-.65-1.7-.2-.71-.33-1.44-.4-2.17-.13-1.45,0-2.93.38-4.34.18-.67.42-1.32.8-1.9.26-.41.59-.77.93-1.11.22-.22.83-.56.47-.89-.13-.12-.31-.16-.48-.21-.37-.12-.71-.32-1-.58-.05-.05-.1-.1-.17-.11-.04-.01-.09,0-.13,0-.58.1-.99.61-1.35,1.08-.42.56-.64,1.23-.86,1.89-.2.62-.35,1.25-.48,1.89"/>
      <path class="uuid-e6d00206-0c91-4194-8140-8eeacbc1a044" d="M22.93,14.23c-.1-.23-.32-.41-.56-.47-.08-.02-.17-.03-.26,0-.24.06-.36.33-.44.57l-.1-.22c-.43,1.23-.55,2.55-.66,3.84-.02.23-.04.46-.06.69,0,.04,0,.09,0,.13.03.09.12.14.2.18.4.19.83.3,1.27.33-.02-1.29.15-2.59.52-3.83.12-.4.25-.84.08-1.22"/>
      <path class="uuid-709e8feb-b030-4f39-b424-050a4d9fd66a" d="M25.23,7.32c0,.14-.21.4-.28.52-.39.65-.92,1.21-1.53,1.65-.3.22-.63.41-.98.57-.17.08-.35.16-.53.21-.14.04-.35.04-.45.15-.03.03-.05.08-.06.12-.24.84.09,1.77-.14,2.61-.09.32-.13.6.11.88.09.1.2.17.33.18.13.01.26.05.4.05.06,0,.12,0,.18.02.07.04.1.13.17.16.07.03.17,0,.25-.02.11-.01.22-.03.32-.05.21-.04.42-.1.62-.16.84-.25,1.66-.61,2.42-1.05.21-.12.41-.25.58-.41.08-.08.16-.17.21-.27.15-.37-.23-.48-.47-.64-.25-.16-.43-.4-.58-.66-.32-.57-.46-1.23-.51-1.89-.06-.65-.03-1.31-.06-1.97"/>
      <path class="uuid-e6d00206-0c91-4194-8140-8eeacbc1a044" d="M21.46,15.11s-.04.08-.07.12c-.03.05-.2.35-.17.4-.27-.41-.43-.88-.48-1.36-.05-.47-.06-.96.14-1.41.13-.3.34-.55.58-.77-.11.1-.13.46-.13.6,0,.21.02.4.09.59.12.35.29.67.63.86.06.03.12.06.18.09-.26.15-.43.38-.59.61-.06.09-.12.18-.17.27"/>
      <path class="uuid-e6d00206-0c91-4194-8140-8eeacbc1a044" d="M25.52,12.06c-.74,1.02-1.85,1.76-3.06,2.07-.1.02-.2.04-.29.07-.03.65.14,1.3.24,1.94.48-.57,1.07-1.04,1.72-1.4.55-.3,1.14-.51,1.68-.83.54-.32,1.03-.78,1.21-1.38.05-.18.07-.39-.03-.55-.15-.24-.48-.27-.71-.43-.15-.1-.26-.27-.29-.45-.01-.07-.01-.13-.04-.2-.03-.06-.09-.11-.15-.11-.08,0-.13.1-.11.18.01.08.08.13.11.2.02.06.03.15.03.21-.01.24-.16.47-.3.67"/>
      <path class="uuid-9b998d80-0e17-4864-bdac-cd14a1ab7f98" d="M18.81,6.14c.03.28.05.56.17.81.05.12.12.23.16.36.06.23,0,.47-.03.71-.03.32.01.64.07.95.13.73.29,1.46.51,2.17.14.48.33,1,.76,1.26.53.32,1.21.13,1.77-.11.64-.27,1.26-.61,1.74-1.11.48-.5.82-1.17.79-1.86.43.04.83-.26,1.08-.61.28-.4.44-.87.57-1.33.21-.72.38-1.45.41-2.19s-.1-1.51-.47-2.16c-.61-1.08-1.83-1.73-3.07-1.79-.65-.03-1.29.09-1.9.32-.65.24-1.35.76-1.79,1.3-.34.41-.59,1-.67,1.53-.09.57-.17,1.19-.11,1.77"/>
      <path class="uuid-abf62580-5dc3-47f5-9c71-c23c579a8219" d="M22.73,5.66c.07.47.71.62.99.99.12.16.19.34.27.52.11.26.24.51.39.76.05-.31.16-.61.33-.88.11-.17.24-.33.41-.44.17-.11.38-.17.58-.12.32.08.46.39.51.69.05.32.08.81-.1,1.09.29-.45.45-.85.58-1.36.14-.53.26-1.06.3-1.61.05-.74-.05-1.52-.42-2.16-.08-.13-.18-.24-.28-.35-.09-.1-.17-.27-.29-.33-.1-.05-.23-.01-.34,0-.48.09-.97-.12-1.45-.05-.58.08-1.01.58-1.16,1.11-.18.66-.3,1.35-.32,2.04,0,.04,0,.07,0,.11"/>
      <path class="uuid-a30deb19-e38c-4a1d-801c-083f4b5661c7" d="M25.23,1.3c-.47-.22-.99-.35-1.49-.42-.71-.11-1.43-.09-2.13.06-.63.13-1.18.46-1.68.85-.29.23-.56.5-.77.8-.31.43-.62.92-.75,1.44-.05.21-.08.49.14.62.17.1.34.05.45-.09.15-.19.29-.3.52-.39.22-.09.45-.15.68-.17.56-.05,1.12.05,1.67.11.44.05,1.01.1,1.44-.05.25-.08.48-.22.7-.35.13-.07.28-.15.42-.12.27.05.44.37.66.51.26.17.57.26.87.22.33-.04.72-.29.85-.61.16-.38-.08-.96-.27-1.28-.32-.52-.79-.88-1.32-1.12"/>
      <path class="uuid-9b998d80-0e17-4864-bdac-cd14a1ab7f98" d="M9.76,38.62c-.02.06-.04.12-.08.17-.05.06-.13.1-.2.13-.18.08-.37.14-.56.2-.06.02-.13.06-.12.12,0,.04.05.06.08.08.18.09.38.16.58.16.2,0,.4-.07.58-.16.25-.12.48-.29.67-.5.18-.21.32-.47.37-.74.02-.11.03-.22,0-.33-.05-.21-.21-.39-.42-.45-.2-.06-.44,0-.59.15-.13.13-.09.33-.13.51-.05.23-.11.45-.18.66"/>
      <path class="uuid-709e8feb-b030-4f39-b424-050a4d9fd66a" d="M16.04,40.1c-.01.08-.02.15-.01.23.03.24.38.39.6.32.17-.05.25-.25.3-.42.04-.17.07-.33.08-.5,0-.11.01-.22-.02-.32-.05-.14-.17-.23-.3-.3-.06-.03-.13-.06-.2-.07-.24-.03-.46.17-.47.41,0,.09.03.17.05.25.03.14,0,.27-.03.4"/>
      <path class="uuid-abc3499e-0526-4cdf-a7dc-7d18b41ce4f2" d="M13.94,75.49l-2.35-1.39h0c-.64-.4-1.53-.36-2.53.21l-1.97,1.19-2.26-3.12-1.48.85,4.3,5.89,2.69,1.55-1.21-2.4,3.42-1.98s0-.03,0-.04l1.4-.77Z"/>
      <path class="uuid-d0144f67-ec99-4f76-9282-37a66fd1bf41" d="M11.75,75.86l-1.97,1.19-3.54-4.87-1.48.85,5.58,7.64,1.41-.81.07-.04,3.42-1.97c0-2.21-1.56-3.11-3.49-1.99"/>
      <polygon class="uuid-d0144f67-ec99-4f76-9282-37a66fd1bf41" points="1.24 77.8 2.01 82.27 2.87 81.76 3.28 76.63 1.24 77.8"/>
      <path class="uuid-14995c22-f221-469b-ad6d-fc8d1e26c818" d="M3.74,78.06c.09,0,.17.01.25.03,2.07.26,3.43,2.05,3.43,2.05l-1.71.92-.64-.57c-.2,1.3-1,2.7-2.02,3.52l.81.26.13,1.96s-2.44-.26-3.66-2.12h0c-.21-.31-.32-.73-.32-1.26,0-1.64,1.15-3.63,2.56-4.45.42-.24.82-.35,1.16-.35h0s.01,0,.02,0"/>
      <path class="uuid-3b409e5e-f896-4f0f-9bb2-fd2ca59dd7bf" d="M5.21,79.94c-1.41.82-2.56,2.81-2.56,4.45s1.15,2.31,2.56,1.5c1.41-.82,2.56-2.81,2.56-4.45s-1.15-2.31-2.56-1.5"/>
      <path class="uuid-012ef63c-143a-4295-8859-60e3a5ded7cb" d="M5.32,80.87c-1,.58-1.8,1.98-1.8,3.14s.81,1.63,1.8,1.05c1-.58,1.8-1.98,1.8-3.14s-.81-1.63-1.8-1.06"/>
      <path class="uuid-14995c22-f221-469b-ad6d-fc8d1e26c818" d="M4.25,84.44c1-.57,1.8-1.98,1.8-3.14,0-.26-.04-.48-.12-.67.69-.1,1.18.38,1.18,1.28,0,1.16-.81,2.56-1.8,3.14-.77.45-1.43.26-1.69-.39.19-.03.4-.1.62-.23"/>
      <path class="uuid-d0144f67-ec99-4f76-9282-37a66fd1bf41" d="M5.84,82.55c0,.51-.36,1.13-.81,1.39-.44.26-.8.05-.8-.46s.36-1.13.8-1.39c.45-.26.81-.05.81.46"/>
      <polygon class="uuid-d0144f67-ec99-4f76-9282-37a66fd1bf41" points="4.68 79.79 4.49 83.77 5.35 83.27 6.72 78.62 4.68 79.79"/>
      <polygon class="uuid-abc3499e-0526-4cdf-a7dc-7d18b41ce4f2" points="4.68 79.79 1.24 77.81 3.28 76.63 6.72 78.62 4.68 79.79"/>
      <path class="uuid-d0144f67-ec99-4f76-9282-37a66fd1bf41" d="M6.83,68.41l-2.53-.54-1.54,9.87h0c-.02.18.06.38.27.57.43.39,1.23.56,1.79.38.26-.09.42-.24.47-.41h0s1.54-9.87,1.54-9.87Z"/>
      <path class="uuid-d0144f67-ec99-4f76-9282-37a66fd1bf41" d="M6.35,68.89c-.55.18-1.35,0-1.79-.38-.43-.39-.34-.85.21-1.03.55-.18,1.35,0,1.79.38.43.39.34.85-.21,1.03"/>
      <path class="uuid-d0144f67-ec99-4f76-9282-37a66fd1bf41" d="M7.32,68.14l-3.41-.72-1.1,7.36h0c-.03.24.08.51.36.76.59.53,1.66.76,2.41.52.35-.11.57-.32.63-.55h0l1.1-7.36Z"/>
      <path class="uuid-abc3499e-0526-4cdf-a7dc-7d18b41ce4f2" d="M6.66,68.79c-.74.24-1.82.01-2.41-.52-.59-.53-.46-1.15.29-1.39.74-.24,1.82-.01,2.41.52.59.53.46,1.15-.29,1.39"/>
      <path class="uuid-a32cc24e-26a6-4727-bb7f-af6d080038e0" d="M11.56,49.49l-.97-1.9-.4.96-.78-.45c-.34-.19-.66.02-.73.46l-1.55,10.13c-.07.45.15.97.48,1.16l1.08.62-.16,1.62,1.48-1.24h0c.09-.09.15-.23.18-.4l1.55-10.13c.04-.28-.03-.6-.17-.84"/>
      <path class="uuid-012ef63c-143a-4295-8859-60e3a5ded7cb" d="M7.9,62.1l-2.34-1.35c-.43-.24-.7-.91-.61-1.48l1.97-12.87c.09-.57.5-.84.93-.59l2.34,1.35c.43.25.7.91.61,1.48l-1.97,12.87c-.09.57-.5.84-.93.59"/>
      <path class="uuid-d0144f67-ec99-4f76-9282-37a66fd1bf41" d="M12.03,34.92l-2.53-.54-5.19,33.14h0c-.02.18.06.38.27.57.43.39,1.23.56,1.79.38.26-.08.42-.23.47-.41h0s5.19-33.14,5.19-33.14Z"/>
      <path class="uuid-d0144f67-ec99-4f76-9282-37a66fd1bf41" d="M11.55,35.41c-.55.18-1.35,0-1.79-.38-.43-.39-.34-.85.21-1.03s1.35,0,1.79.38c.43.39.34.85-.21,1.03"/>
      <path class="uuid-abc3499e-0526-4cdf-a7dc-7d18b41ce4f2" d="M7.63,34.29l1.29-2.24-6.65-3.84h0c-.16-.07-.38-.05-.62.08-.51.29-.92,1-.92,1.58,0,.28.09.47.25.57h0s6.65,3.84,6.65,3.84Z"/>
      <path class="uuid-d0144f67-ec99-4f76-9282-37a66fd1bf41" d="M1.02,28.95l7.26,4.2-.66,1.14-6.65-3.84h0c-.15-.1-.24-.3-.24-.57,0-.3.11-.63.28-.93"/>
      <path class="uuid-709e8feb-b030-4f39-b424-050a4d9fd66a" d="M14.86,23.05c-.11-.49-.34-.97-.7-1.32-.29-.29-.85-.65-1.23-.32-1.1.96-2.02,2.09-2.94,3.22-.47.58-3.55,4.38-4.03,4.81-.15.13-.26.17-.45.2-.52.07-1.04.14-1.55.21-.08.01-.17.02-.24.07-.08.05-.14.14-.18.22-.22.41-.3.9-.23,1.36,0,.07.02.14.06.2.03.05.07.09.09.13.08.14.06.33.14.46.03.05.07.09.1.13.36.44.45.99,1.1,1.1.33.06.68-.02,1-.12.07-.02.14-.05.17-.11.02-.04.02-.09.02-.14,0-.28-.02-.57.05-.83.09-.34.31-.64.61-.82s.66-.25,1.01-.18c-.03-.29.04-.57.23-.79.53-.61,1.32-1.06,1.99-1.51.37-.25.74-.49,1.11-.73,1.06-.67,2.14-1.31,2.97-2.28.71-.82,1.15-1.88.89-2.97"/>
      <path class="uuid-d0144f67-ec99-4f76-9282-37a66fd1bf41" d="M7.32,33.67c0-.58.41-1.29.92-1.58.51-.29.92-.06.92.52s-.41,1.29-.92,1.58c-.51.29-.92.06-.92-.52"/>
      <path class="uuid-b8b7c786-8b4c-43ed-9c8e-33b9a09fe2dd" d="M8.34,35.08l1.62-2.81-.98-.56h0c-.21-.09-.48-.07-.78.1-.64.37-1.15,1.26-1.15,1.98,0,.35.12.59.31.72h0s.98.56.98.56Z"/>
      <path class="uuid-d0144f67-ec99-4f76-9282-37a66fd1bf41" d="M7.95,34.31c0-.73.51-1.62,1.15-1.98.64-.37,1.15-.07,1.15.66s-.52,1.62-1.15,1.98c-.64.37-1.15.07-1.15-.66"/>
      <path class="uuid-abc3499e-0526-4cdf-a7dc-7d18b41ce4f2" d="M13.85,37.49l.99-1.72-5.12-2.95h0c-.13-.06-.29-.04-.48.07-.39.23-.71.77-.71,1.22,0,.21.07.36.19.44h0s5.12,2.95,5.12,2.95Z"/>
      <path class="uuid-d0144f67-ec99-4f76-9282-37a66fd1bf41" d="M13.61,37.02c0-.45.32-.99.71-1.22.39-.22.7-.04.7.4s-.32.99-.7,1.22c-.39.23-.71.04-.71-.4"/>
      <path class="uuid-b8b7c786-8b4c-43ed-9c8e-33b9a09fe2dd" d="M13.04,37.74l1.62-2.81-.98-.56h0c-.21-.09-.48-.07-.78.1-.64.37-1.15,1.26-1.15,1.98,0,.35.12.59.31.72h0s.98.56.98.56Z"/>
      <path class="uuid-d0144f67-ec99-4f76-9282-37a66fd1bf41" d="M12.65,36.97c0-.73.51-1.62,1.15-1.98.64-.37,1.15-.07,1.15.66s-.52,1.62-1.15,1.98c-.64.37-1.15.07-1.15-.66"/>
      <path class="uuid-abc3499e-0526-4cdf-a7dc-7d18b41ce4f2" d="M19.89,41.3l1.29-2.24-6.65-3.84h0c-.16-.07-.38-.05-.62.08-.51.29-.92,1-.92,1.58,0,.28.09.47.25.57h0s6.65,3.84,6.65,3.84Z"/>
      <path class="uuid-db650859-fc07-4725-8e70-f6009ab68abc" d="M20.52,40.21l-.63,1.09-6.65-3.84c-.15-.1-.24-.3-.24-.57s.1-.6.25-.88l7.27,4.2Z"/>
      <path class="uuid-d0144f67-ec99-4f76-9282-37a66fd1bf41" d="M19.58,40.69c0-.58.41-1.29.92-1.58.51-.29.92-.06.92.52s-.41,1.29-.92,1.58c-.51.29-.92.06-.92-.52"/>
      <path class="uuid-9b998d80-0e17-4864-bdac-cd14a1ab7f98" d="M30.59,21.78c-.05-.09-.12-.17-.18-.23-.33-.28-.66-.57-1.03-.79-.37-.22-.79-.38-1.23-.38-.21,0-.56.02-.74.15-.25.18-.41.62-.55.88-.31.6-.62,1.2-.9,1.81-.31.67-.58,1.36-.86,2.04-.59,1.41-1.25,2.8-1.96,4.15-.71,1.33-1.53,2.59-2.25,3.91-.35.65-.7,1.29-1.04,1.94-.15.29-.28.53-.51.76-.21.2-.45.36-.7.48-.41.19-.84.33-1.28.42-.32.06-.67.11-.92.31-.13.11-.23.26-.31.42-.3.56-.43,1.26-.15,1.82.04.08.09.16.17.2.08.04.18.03.24-.03.06.16.19.27.31.39.14.15.34.24.54.23.06,0,.11-.01.17,0,.12.02.21.12.31.19.09.06.19.1.29.11.09.01.23-.05.31-.03.07.03.08.13.13.19.06.08.15.15.24.18.17.07.35.07.54.06-.08-.24-.14-.42-.11-.68.03-.26.1-.52.23-.74.13-.25.33-.48.55-.65.1-.08.19-.14.31-.16.14-.03.29-.05.42-.12.15-.07.26-.19.37-.32.35-.39.7-.78,1.03-1.19.44-.56.82-1.17,1.23-1.76.04-.07.09-.13.14-.2.89-1.26,1.76-2.53,2.6-3.83.49-.76,3.34-5.64,3.57-6.09.2-.4.4-.79.6-1.19.28-.57.57-1.15.6-1.78,0-.07,0-.14-.03-.2-.04-.08-.08-.17-.14-.26"/>
      <path class="uuid-e6d00206-0c91-4194-8140-8eeacbc1a044" d="M32.27,18.22c.02-.69.08-1.41-.1-2.09-.12-.47-.49-1.26-1.05-1.29-.59-.04-1.25.33-1.7.67-.27.21-.52.45-.73.71-.64.79-1.04,1.74-1.44,2.67-.34.8-.69,1.59-1,2.4-.07.2-.21.39-.23.6-.02.18.08.35.18.49.22.33.56.58.91.75.64.31,1.37.42,2.08.39.71-.03,1.41-.2,2.1-.4.18-.06.38-.12.5-.28.15-.2.13-.48.17-.71.09-.55.3-3.36.31-3.9"/>
      <path class="uuid-1486b0f6-26f1-48ce-8d5d-05f29915ae33" d="M22.84,3.88l.68,4.34.74.03s.43-2.77,1.82-1.69c1.14.89-.37,2.11-.79,2.73-.42.62.79.04.79.04,0,0,1.75-2.24,1.59-4.8-.16-2.56-4.82-.65-4.82-.65"/>
      <polygon class="uuid-abf62580-5dc3-47f5-9c71-c23c579a8219" points="23.93 7.61 24.28 7.64 24.39 10.41 23.9 10.99 23.93 7.61"/>
      <polygon class="uuid-abf62580-5dc3-47f5-9c71-c23c579a8219" points="25.91 9.1 24.22 10.2 24.1 10.64 26.08 9.33 25.91 9.1"/>
      <path class="uuid-abf62580-5dc3-47f5-9c71-c23c579a8219" d="M21.94,12.52s1.34-.36,2.13-2.16l.32.06s-.64,1.32-1.8,2.1c0,0-.18.11-.64.01"/>
      <path class="uuid-1486b0f6-26f1-48ce-8d5d-05f29915ae33" d="M26.03,1.18c-.7-.58-1.46-1.01-2.35-1.13-1.13-.15-2.2.06-3.23.57-.91.45-1.72,1.14-2.15,2.06-.66,1.42-.69,2.93-.31,3.21.12.09.49-.95.62-1.04,1.07-.71,1.72-.28,2.46-.1.77.2,1.74,1.66,2.49,1.93.5.18.6-1.43,1.07-1.19.47.24.9.55,1.33.85.22.16.45.3.66.47.21.16.34.38.54.54.67-1.15.76-2.53.4-3.79-.26-.92-.75-1.73-1.49-2.36,0,0-.02-.02-.03-.02"/>
      <path class="uuid-1486b0f6-26f1-48ce-8d5d-05f29915ae33" d="M17.93,5.1s-.2.73.23.84c.44.12.64.19.64.19l.08-2.15-.95,1.12Z"/>
    </g>
  </g>
</svg>