<?xml version="1.0" encoding="UTF-8"?>
<svg id="Calque_2" xmlns="http://www.w3.org/2000/svg" viewBox="0 0 23.04 44.03">
  <defs>
    <style>
      .cls-1 {
        fill: #1eb5c0;
      }

      .cls-1, .cls-2, .cls-3, .cls-4, .cls-5, .cls-6, .cls-7, .cls-8, .cls-9, .cls-10, .cls-11, .cls-12, .cls-13, .cls-14, .cls-15, .cls-16, .cls-17, .cls-18, .cls-19, .cls-20, .cls-21, .cls-22, .cls-23, .cls-24, .cls-25, .cls-26, .cls-27, .cls-28, .cls-29, .cls-30, .cls-31, .cls-32, .cls-33, .cls-34, .cls-35, .cls-36, .cls-37, .cls-38, .cls-39, .cls-40, .cls-41, .cls-42, .cls-43, .cls-44, .cls-45, .cls-46, .cls-47, .cls-48, .cls-49, .cls-50, .cls-51, .cls-52, .cls-53, .cls-54, .cls-55, .cls-56, .cls-57, .cls-58, .cls-59, .cls-60, .cls-61, .cls-62, .cls-63 {
        fill-rule: evenodd;
      }

      .cls-2 {
        fill: #008298;
      }

      .cls-3 {
        fill: #f7fbff;
      }

      .cls-4 {
        fill: #d60f28;
      }

      .cls-5 {
        fill: #007581;
      }

      .cls-6 {
        fill: #5d5a5b;
      }

      .cls-7 {
        fill: #47254a;
      }

      .cls-8 {
        fill: #075860;
      }

      .cls-9 {
        fill: #a24417;
      }

      .cls-10 {
        fill: #006e88;
      }

      .cls-11 {
        fill: #008f9b;
      }

      .cls-12 {
        fill: #2c1e14;
      }

      .cls-13 {
        fill: #18222f;
      }

      .cls-14 {
        fill: #06a3b2;
      }

      .cls-15 {
        fill: #c6d9e5;
      }

      .cls-16 {
        fill: #221714;
      }

      .cls-17 {
        fill: #0c3f65;
      }

      .cls-18 {
        fill: #523118;
      }

      .cls-19 {
        fill: #8aba40;
      }

      .cls-20 {
        fill: #12324d;
      }

      .cls-21 {
        fill: #8dd0e3;
      }

      .cls-22 {
        fill: #80cbde;
      }

      .cls-23 {
        fill: #81b73f;
      }

      .cls-24 {
        fill: #f1b889;
      }

      .cls-25 {
        fill: #00656f;
      }

      .cls-26 {
        fill: #5b335f;
      }

      .cls-27 {
        fill: #4698bc;
      }

      .cls-28 {
        fill: #10444a;
      }

      .cls-29 {
        fill: #3c303a;
      }

      .cls-30 {
        fill: #ffcf35;
      }

      .cls-31 {
        fill: #4b4847;
      }

      .cls-32 {
        fill: #fbbb00;
      }

      .cls-33 {
        fill: #22b4c5;
      }

      .cls-34 {
        fill: #d9e8f1;
      }

      .cls-35 {
        fill: #3b2514;
      }

      .cls-36 {
        fill: #dcc693;
      }

      .cls-37 {
        fill: #7c7875;
      }

      .cls-38 {
        fill: #605c58;
      }

      .cls-39 {
        fill: #3a3735;
      }

      .cls-40 {
        fill: #f4a800;
      }

      .cls-41 {
        fill: #823713;
      }

      .cls-42 {
        fill: #5ac0d1;
      }

      .cls-43 {
        fill: #5c371f;
      }

      .cls-44 {
        fill: #181e24;
      }

      .cls-45 {
        fill: #ffeec5;
      }

      .cls-46 {
        fill: #4d4945;
      }

      .cls-47 {
        fill: #372038;
      }

      .cls-48 {
        fill: #bc181b;
      }

      .cls-49 {
        fill: #a61a17;
      }

      .cls-50 {
        fill: #dd9865;
      }

      .cls-51 {
        fill: #172323;
      }

      .cls-52 {
        fill: #ebf5fb;
      }

      .cls-53 {
        fill: #00a1a8;
      }

      .cls-54 {
        fill: #e36919;
      }

      .cls-55 {
        fill: #11283c;
      }

      .cls-56 {
        fill: #62add0;
      }

      .cls-57 {
        fill: #d78673;
      }

      .cls-58 {
        fill: #563115;
      }

      .cls-59 {
        fill: #cc5516;
      }

      .cls-60 {
        fill: #7e4484;
      }

      .cls-61 {
        fill: #ae4a18;
      }

      .cls-62 {
        fill: #e9a877;
      }

      .cls-63 {
        fill: #d0e9f9;
      }
    </style>
  </defs>
  <g id="_Éléments_Mise_en_page" data-name="Éléments_Mise_en_page">
    <g>
      <path class="cls-20" d="M19.68,35.65s-.66-.17-.71-.19c-.33-.12-.77-.29-1.32-.37-.39-.06-.92.05-.75.64.23.78.91,1.36,1.57,1.63.23.1.53.12.81.26.22.11.27.29.43.41.36.26.76.24,1.06.14.35-.12.48-.27.56-.69.08-.39.09-1.09,0-1.37-.81.07-1.38-.21-1.63-.47"/>
      <path class="cls-63" d="M16.95,35.26c-.18.22-.06.58.04.81.29.62.9,1.1,1.47,1.34.24.1.53.15.81.29.22.11.26.26.42.38.35.26.79.25,1.08.15.33-.11.45-.3.53-.67-.08.19-.21.3-.44.38-.29.1-.72.12-1.08-.15-.16-.12-.21-.27-.42-.38-.28-.14-.61-.17-.85-.27-.66-.28-1.38-.77-1.61-1.56-.02-.07-.04-.2.05-.32"/>
      <path class="cls-17" d="M18.09,35.26c.07.46.1.93.11,1.4-.73-.21-1.37-1.03-1.09-1.43.1-.14.48-.09.98.03"/>
      <path class="cls-62" d="M21.35,34.88c-.05.42-.1.67-.05,1.09.04.36-.1.58-.49.66-.45.09-1.24-.34-1.17-.82.07-.42-.03-.93-.06-1.33l1.77.4Z"/>
      <path class="cls-50" d="M20.43,36.6c-.41-.11-.85-.44-.79-.79.06-.42-.03-.93-.06-1.33l.87.2c-.09.63-.02,1.21-.02,1.92"/>
      <path class="cls-17" d="M21.3,36.35c0,.43.03.8-.1,1.22-.07.22-.52.36-.75.35.08-.41.19-.78.17-1.21.35,0,.57-.03.68-.36"/>
      <path class="cls-14" d="M21.37,35.31c.15-1.14.35-4.87.33-5.91-.01-1.2-.45-2-.66-4.07-.17-1.65.41-3.38.58-5.04.37-1.55.39-2.61-.95-5.12l-1.26-.53c-.54,1.28-1.12,1.36-1.3,2.9-.24,2.13-.24,4.29.38,6.78.07.28.19.74.27,1.13.09.41.23.29.28,1.01.04.57.01,2.4.18,3.52.14.96.05,4.37.07,5.04.1.92,1.51,1.05,2.07.29"/>
      <path class="cls-11" d="M21.68,20.04c.22-1.22.21-2.91-.92-5.23l-1.34-.18c-.54,1.28-1.12,1.36-1.3,2.9-.24,2.13-.76,3.9-.17,6.4.35,1.44.8,2.32.92,3.14.12.8.19,1.98.26,2.9.07.97.15,4.41.16,5.09.02.47.62.8,1.05.72.02-2.26.14-6.12,0-7.47-.11-1.2-.25-1.62-.47-2.8-.3-1.62-.43-1.98-.44-3.69.81-.25,1.78-.69,2.23-1.79"/>
      <path class="cls-33" d="M21.32,21.03c-.57.55-.98.87-1.62.97.18,1.55.16,2.49.47,3.73.86,3.34.63,6.14.43,9.83.29-.08.4-.15.61-.35.21-2.45.39-4.43.33-6.18-.04-1.31-.35-1.97-.6-3.14-.33-1.56-.03-2.63.38-4.86"/>
      <path class="cls-57" d="M14.66,19.89c.01-.76.45-1.87.74-2.89l1.57,1.38c.05,2.98-2.27,2.69-2.31,1.51"/>
      <path class="cls-62" d="M18.5,35.43c-.08-.78-.72-2.27-.87-2.7l1.54-.79c.48,1.07.12,1.67.76,2.11l-1.43,1.38Z"/>
      <path class="cls-50" d="M18.5,35.43c-.08-.78-.72-2.27-.87-2.7l.79-.4c.23,1.39.31,1.82.61,2.6l-.53.51Z"/>
      <path class="cls-17" d="M18.58,35.18c.44-.55.39-1.17,1.14-1.26.2,0,.4.1.59.23.77.12.78.79.62,1.4-.15.57-.31.63-.32.93,0,.1.03.21.09.39.14.47-.17,1.04-.39,1.33-.33.45-1.15.77-1.75.72-.22-.02-.24-.43-.2-.72.08-.58.18-.84.22-1.17.05-.43-.02-.81-.08-1.23-.03-.21-.06-.46.08-.63"/>
      <path class="cls-63" d="M20.14,34.12c.91.05.96.77.79,1.43-.15.57-.31.63-.32.93,0,.1.03.21.09.39.14.47-.17,1.04-.39,1.33-.33.45-1.15.77-1.75.72-.06,0-.11-.04-.14-.09-.06-.1.11-.67.19-.8.15-.29.34-.61.46-1.05.08-.33.02-.84.09-1.22.16-.96.29-1.53.99-1.63"/>
      <path class="cls-44" d="M20.89,34.5c.16.28.14.68.04,1.05-.15.57-.31.63-.32.93,0,.1.03.21.09.39.14.47-.17,1.04-.39,1.33-.33.45-1.15.77-1.75.72-.03,0-.06-.01-.08-.03,0-.1.02-.21.08-.36.25-.57.86-1.39.93-1.93.03-.26-.02-.47,0-.7.02-.41.1-.8.36-1.15.24-.32.72-.5,1.05-.25"/>
      <path class="cls-14" d="M16.89,26.6c.09-1.66.83-3.36,1.34-4.95,2.2-1.34,1.87-3.53.94-5.04l-2.34-.78c-.73,1.16-1.33,1.12-1.75,2.6-.57,2.06-.92,4.14-.7,6.72.02.29.07.77.09,1.17.35,1.95,2.3,1.55,2.42.28"/>
      <path class="cls-14" d="M19.58,33.43c-.31-1.52-.8-3.8-1.07-4.56-.39-1.08-1.14-1.55-1.6-2.74-.03-.07-.07-.15-.11-.23-.4-.81-2.34-.76-2.35.08,0,.75.21,1.11.71,1.9.23.53.88,2.09,1.35,3.12.34.75.76,1.84,1.11,2.98.92.18,1.51-.08,1.96-.56"/>
      <path class="cls-11" d="M18.38,21.56c2.04-1.34,1.7-3.47.79-4.95l-2.34-.78c-.73,1.16-1.33,1.12-1.75,2.6-.57,2.06-.92,4.14-.7,6.72.02.23.05.58.08.92.01.75.32,1.21.71,1.82.23.53.88,2.09,1.35,3.12.34.75.76,1.84,1.11,2.98.44.09.8.07,1.11-.02-.39-1.74-.89-3.35-1.6-4.9-.37-.81-.86-1.26-1.38-2.16-.32-.55-.31-.45-.27-1.09.09-1.47.32-3.9.58-5.47.52.99,1.72,1.37,2.31,1.2"/>
      <path class="cls-33" d="M16.33,21.4c.53.31,1.18.52,1.62.52-.5,1.42-.95,2.65-1.31,4.26.14.66,1.12,1.57,1.42,2.21.65,1.39.82,2.55,1.4,5.16-.15.14-.32.26-.51.34-.59-2.25-.84-3.47-1.59-5-.37-.75-.79-1.56-1.55-2.57.17-1.45.31-3.48.51-4.92"/>
      <path class="cls-32" d="M19.69,21.45c-1.9.57-3.84-1.83-4.25-3.71-.19.33-.6,1.29-.8,2.13.07-.88.5-2.36.73-3.23,1.16-4.32-.63-6.24-.16-7.32.58-1.33,4.24-2.96,5.65-3.12,1.59-.18,1.59,2.57.92,3.75-.52.92-.82,2.4-.86,3.5-.05,1.73.98,2.71,1.05,4.66.06,1.57-.68,2.84-2.3,3.33"/>
      <path class="cls-40" d="M19.69,21.45c-.85.26-1.72-.09-2.44-.71,1.17.58,3.02.65,3.47-1.05.07-.27.12-.47.15-.71.02-.19-.5.29-1.59.2-1.13-.09-2.51-1.39-3.21-3.07-.03-.38,4.71.99,4.63.62-.21-.96-.52-1.99-.55-3.51-.05-2.59,1.62-4,.91-5.93-1.25,1.57-2.9.96-4.01.43,1.32-.77,2.97-1.4,3.82-1.49,1.59-.18,1.59,2.57.92,3.75-.52.92-.82,2.4-.86,3.5-.05,1.73.98,2.71,1.05,4.66.06,1.57-.68,2.84-2.3,3.33"/>
      <path class="cls-62" d="M17.9,7.28c-.09-.65-.22-1.56-.52-2.22l2.07-.71.54-.23c-.19,1.04-.07,1.61.28,2.45-.28.99-2.27,1.18-2.38.7"/>
      <path class="cls-50" d="M16.39,5.64c.07.1.81.07,1.12-.06.1.47.24,1.02.38,1.66.02.07.15-1.09,2.07-1.67.01-.21.07-.42.14-.53.26-.38.77-.8.97-1.39-.3-.81-2.66.38-4.67,1.99"/>
      <path class="cls-62" d="M16.4,5.65c.17.11,1.27-.45,1.37-.45.96.05,2.12.13,2.31-.16.26-.38.77-.8.97-1.39.32-.94.26-2-.6-2.74-1.49-1.28-3.84-.34-4.18,1.11-.14.6.07.75.05,1.15,0,.06-.13.37-.2.5-.05.1.06.51.09,1.02.03.44.07.88.18.95"/>
      <path class="cls-24" d="M16.4,5.65s.15.01.28-.03c.14-.15.3-.46.3-.62,0-.62-.29-1.13-.28-1.39.02-.53.19-.26.01-.84-.09-.29,0-.41.05-.58.09-.31-.09-.93-.09-.93-.08.08-.13.16-.21.3-.08.14-.14.29-.17.45-.14.6.07.75.05,1.15,0,.06-.13.37-.2.5-.05.1.06.51.09,1.02.03.44.07.88.18.95"/>
      <path class="cls-55" d="M19.59,10.14c-.2-1.21-1.69-2.41-2.48-2.49-.4-.04-1.02.45-1.08.65.94-.02,2.4,1.42,2.4,2.59l1.16-.75Z"/>
      <path class="cls-55" d="M15.44,15.5c.58.76,1.28,1.47,2.22,2.32l.29-1.44c-1-.85-1.76-1.71-2.3-2.63-.15.12-.21,1.19-.21,1.75"/>
      <path class="cls-5" d="M13.49,11.01l-.17-.03-1.68-1.93h0s-.09-.1-.15-.13c-.09-.05-.2-.02-.3.01l-1,.39-.22-.03-.03.21c-.02.08.01.17.09.26l1.68,2.01c.14.17.24.24.46.14l1.15-.53c.09-.04.13-.09.13-.15l.04-.22Z"/>
      <path class="cls-8" d="M13.46,11.23l.03-.17c-.04.09-.15.14-.43.29-.15.08-.31.15-.44.22-.06.04-.02.1.02.07.1-.05.74-.29.78-.33,0,0,.01-.02.02-.03.01-.02.02-.04.02-.06"/>
      <path class="cls-8" d="M9.97,9.35l-.03.16c-.02.07,0,.14.06.22.33.37.95,1.08,1.31,1.51.04.03.08,0,.04-.05-.2-.24-.39-.49-.58-.72-.17-.21-.41-.51-.55-.69-.18-.23-.25-.3-.26-.43"/>
      <path class="cls-53" d="M13.41,11h-.09s-1.68-1.94-1.68-1.94h0s-.09-.1-.15-.13c-.09-.05-.2-.02-.3.01l-1,.39-.13-.02c-.02.1,0,.2.05.28.4.57,1.12,1.42,1.61,2.03.03.02,0,.09-.05.05-.41-.46-1.49-1.76-1.65-1.9l1.68,2.01c.14.17.24.24.46.14l1.15-.54c-.37.13-1.04.45-1.08.46-.03.01-.05-.01-.05-.04,0-.03.02-.07.04-.08.51-.26.79-.37.99-.54.05-.04.16-.13.18-.19"/>
      <path class="cls-42" d="M10.9,10.55c.29.37.61.75.93,1.14.03.02-.02.14-.07.09l-.29-.32.25.32c.15.17.24.25.46.15l.34-.18c-.08.03-.25.11-.36.15-.08.04-.11-.11-.04-.14.09-.05.18-.09.27-.14l-1.49-1.07Z"/>
      <path class="cls-21" d="M13.39,10.79l-1.71-1.96h0s-.09-.1-.15-.13c-.09-.05-.2-.02-.3.01l-1.09.42c-.22.08-.21.25-.08.41l1.68,2.01c.15.17.24.24.46.14l1.15-.54c.19-.09.15-.24.03-.37"/>
      <path class="cls-16" d="M11.65,8.86l1.7,1.96c.15.15.11.24-.01.29l-1.15.53c-.17.08-.25.05-.4-.13l-1.68-2.01c-.14-.17-.09-.28.06-.33l1.09-.42c.24-.08.28-.01.39.11"/>
      <path class="cls-47" d="M11.63,9.01l1.44,1.66c.13.13.09.2,0,.25l-.98.45c-.15.07-.21.04-.34-.11l-1.43-1.7c-.12-.15-.08-.24.05-.28l.93-.36c.2-.07.24,0,.33.09"/>
      <path class="cls-26" d="M13.07,10.67c.13.13.09.2,0,.25l-.98.45c-.15.07-.21.04-.34-.11l-1.43-1.7c-.12-.15-.08-.24.05-.28.56-.06,1.91.8,2.7,1.39"/>
      <path class="cls-22" d="M11.23,8.83s-.06,0-.07.03c0,.02.02.04.05.05.03,0,.06,0,.07-.03,0-.02-.02-.04-.05-.05"/>
      <path class="cls-28" d="M13.12,11.31s-.08.04-.09.08c0,.04.02.07.06.07.04,0,.08-.04.08-.08,0-.04-.02-.07-.06-.07"/>
      <path class="cls-51" d="M13.12,11.32s-.06.03-.07.06c0,.03.02.05.05.05.03,0,.06-.03.07-.06,0-.03-.02-.05-.05-.05"/>
      <path class="cls-24" d="M11.73,12.41c-.29-.43-1.64-.94-1.66-1.32l-.08-1.38c.16.19.42.5.6.68l.62.64-.21-.5c-.08-.18-.23-.62,0-.7.05-.02.16.11.33.44.17.33.33.22.68.61.26.29.23.56.78.9l-1.07.62Z"/>
      <path class="cls-62" d="M11.68,12.4c-.2-.28-.43-.23-.8-.46-.36-.22-.81-.66-.82-.84l-.08-1.38c.06.29.22.71.41.87.26.22.72.46.88.65l-.08-.2c-.09-.22-.23-.5-.29-.72-.04-.16-.07-.35.03-.43,0,.14.02.26.05.36.16.51.35.79.56,1.03.26.29.73.28.81.91l-.69.22Z"/>
      <path class="cls-32" d="M15.8,8.73c-.77.47-1.31,3.61-1.63,5.53-.28.67,1.39,2.23,1.78.63.23-.94.54-2.2.68-2.98.16-.87.47-2.51-.28-3.07-.12-.09-.4-.2-.55-.11"/>
      <path class="cls-32" d="M15.55,13.76l-2.97-2.34c-.69-.35-1.31.8-1.05,1.23l2.99,2.73c.44.26.82.3,1.06.17.28-.16.37-.55.35-.91,0-.33-.12-.58-.38-.88"/>
      <path class="cls-40" d="M11.73,11.69c-.24.3-.36.73-.21.96l2.71,2.47c.27.25.43.4.81.48.22.05.4.03.53-.05.07-.04.14-.1.19-.18-.71.04-3.26-2.3-4.03-3.68"/>
      <path class="cls-40" d="M15.58,8.86c-.66.39-.95,2.41-1.2,3.99.16.58.23.97.65,1.5-.41-1.32.77-4.75,1.2-5.59-.2-.08-.45-.02-.65.09"/>
      <path class="cls-30" d="M16.27,9.11c-.42.8-.86,2.38-1.16,4.53-.09.62.16,1.1.53,1.51.42-1.54,1.31-4.66.63-6.05"/>
      <path class="cls-30" d="M12.5,11.46c-.19-.04-.44.05-.64.23,1.16,1.5,1.75,2.05,3.44,3.38-.65-.89-.69-1.17-1.04-2.1-.56-.49-1.2-1.02-1.76-1.51"/>
      <path class="cls-13" d="M21.8,10.05c-.05-.66-.53-3.59-.84-3.9l-.93.03c.26.35.56,3.37.53,3.63l1.24.23Z"/>
      <path class="cls-55" d="M17.89,11.5c-.02,2.12-.14,3.97-.42,6.17,1.21,1.09,2.1,1.62,5.27-.59.61-3.31.2-5.08-.63-6.71-.66-1.3-4.21-.71-4.22,1.13"/>
      <path class="cls-13" d="M19.45,18.61c.76-.03,1.76-.46,3.29-1.53.61-3.31.2-5.08-.63-6.71-.5-.98-2.64-.89-3.67,0,2.12,2.54,1.43,4.09,1,8.24"/>
      <path class="cls-44" d="M19.45,18.61c.76-.03,1.76-.46,3.29-1.53.61-3.31.2-5.08-.63-6.71.39,2.26.28,4.52-.12,5.6-.63.68-1.82,1.23-2.4,1.39-.14.67-.11,1.06-.14,1.26"/>
      <path class="cls-35" d="M20.42,6.5c-.57-1.64,1.34-2.38.74-4.5-.14-.48-.43-.9-.8-1.22-.94-.79-2.41-.72-3.37.01-.8.43-1,2.11.47,3.49,0,0,.02,0,.03,0,.47.99,1.29,2.54,2.93,2.22"/>
      <path class="cls-18" d="M21.17,2.02s0,0,0-.01c-.14-.48-.43-.91-.8-1.22-.94-.8-2.41-.73-3.37.01-.44.24-.69.85-.6,1.57v-.07c.06-.36.09-.51.19-.86-.05.36.04.81.23,1.03-.12-.37-.1-1.06.04-1.35-.08.44-.03.63.11.98,0-.46.05-.78.26-1.13-.08.32-.1.39.09.94.02-.37.09-.76.24-.99.03.27.04.5.13.75.04-.32.1-.53.17-.81.09.28.16.47.22.79.06-.32.06-.58.03-.9.14.24.23.3.34.82.03-.4.03-.51-.03-.77.15.16.28.25.39.7.03-.36.02-.53-.04-.7.23.24.29.3.42.67.04-.26.01-.44-.06-.66.27.25.34.37.54.8.03-.29-.03-.51-.08-.73.22.24.26.3.5.67-.04-.29-.08-.42-.16-.7.27.32.34.4.51.79,0-.26-.03-.4-.15-.65.23.3.32.46.5.8-.05-.26-.06-.43-.25-.75.15.16.47.56.66.97h0Z"/>
      <path class="cls-12" d="M20.82,6.19c-.04-.53-.31-.87-.04-1.49.32-.73.66-1.5.43-2.52.05.74-.04,1.28-.54,1.94.09-.41.08-.68,0-1.16-.11.62-.27.84-.5,1.13.16-.61.1-.85.06-1.32-.13.5-.19.89-.47,1.26,0-.37.07-.68-.09-1.29-.08.42-.14,1.03-.44,1.34,0-.54-.03-.8-.11-1.32-.05.46-.1.92-.29,1.34-.23-.48-.31-.67-.43-1.21-.09.43-.06.91.1,1.41-.34-.38-.64-.63-.88-1.05.1.56.26.78.51,1.12-.99-.81-1.38-1.33-1.73-2.36-.03.68.28,1.53,1.09,2.29,0,0,.02,0,.03,0,.11.24.29.54.37.86.55,2.14,2.37,1.96,2.96,1.06"/>
      <path class="cls-62" d="M17.5,4.4c-.08-.24,0-.33.1-.3.12.03.27.21.35.46.12.41-.1.91-.48.7-.1-.14.04-.48.02-.86"/>
      <path class="cls-24" d="M17.5,4.4c-.08-.24,0-.33.1-.3.12.03.27.21.35.46.12.41-.1.91-.48.7.33.03.32-.37.23-.62-.06-.17-.16-.29-.2-.23"/>
      <path class="cls-50" d="M17.65,4.51c-.1.17-.14.27-.11.33.02.04.08.09.19,0,0-.12-.03-.23-.08-.33"/>
      <path class="cls-12" d="M17.89,5.22c.22.74.59,1.36,1.09,1.74.77.58,1.65.13,1.83-.81l.02.07c.04.82-.61,1.4-1.26,1.34-1.04-.09-1.48-1.51-1.68-2.34"/>
      <path class="cls-12" d="M17.89,5.22c.22.6.47,1.11.98,1.41,1.03.62,1.61,0,1.91-.65l.03.23c.04.67-.6.95-1.24.9-1.04-.07-1.48-1.22-1.68-1.89"/>
      <path class="cls-48" d="M16.64,2.36c.14,1.88,1.59,3.16,2.93,2.96.85-.13,1.46-.77,1.75-1.56.04-.12.2-.53.15-.87.18-.06.21.09.31-.08.29-.79-.34-1.93-1.18-2.41-1.52-.86-4.12-.32-3.95,1.97"/>
      <path class="cls-49" d="M16.64,2.36c.14,1.88,1.59,3.16,2.93,2.96,1.08-.16,1.77-1.15,1.91-2.21-1.32.62-3.88.37-4.84-.75"/>
      <path class="cls-4" d="M20.03.2c1.37.36,1.85,1.92,1.65,2.21-.13.19-.88.15-1.38-.07-.85-.38-2.24-1.1-2.69-.79-.55.38-.62.73-.59.74-.69-.98.75-2.68,3.01-2.09"/>
      <path class="cls-49" d="M21.84,2.57c-.09.42-.6.03-1.67-.1.46.31,1.24.34.6,1.04l.62-.11c.1-.16.09-.33.08-.49.22.05.34.02.37-.36"/>
      <path class="cls-30" d="M17.36,15.26l-.97-.87.49-2.58c.19-1.38.38-1.93-.27-2.89.82.6.84,1.51.86,2.57.01,1.29-.03,2.48-.1,3.77"/>
      <path class="cls-30" d="M15.72,16.25c1.09,1.97,2.13,3.64,4.66,3.3-.28.89-1.29,1.47-2.18,1.3-1.59-.31-2.55-2.86-2.48-4.6"/>
      <path class="cls-15" d="M3.22,18.84c.61-1.92-1.33-2.08-1.62-1.88-1.79,1.28-1.63,1.97-1.33,2.49.15.25.49.39.71.42.24.03.47-.03.73-.07.54-.09,1.05-.46,1.51-.96"/>
      <path class="cls-56" d="M7.14,39.65c-.33-.03-1.07-.41-2.21-.57-.44-.06-1.06.06-.87.7.27.86,1.04,1.49,1.81,1.79.27.11.61.13.94.29.25.12.31.32.49.45.41.29.88.26,1.21.15.4-.13.55-.29.65-.76.09-.43.1-1.2,0-1.5-.15-.71-1.82-.78-2.02-.56"/>
      <path class="cls-27" d="M4.17,39.22c-.13.11-.19.29-.11.56.27.86,1.04,1.49,1.81,1.79.27.11.61.13.94.29.25.12.31.32.49.45.41.29.88.26,1.22.15.4-.13.55-.29.65-.76.02-.11.04-.25.05-.4-.31.23-.61.31-.9.3-.5-.01-.78-.29-1.39-.53-.4-.16-.87-.28-1.37-.49-.76-.31-1.46-.75-1.39-1.37"/>
      <path class="cls-45" d="M4.13,39.26c-.21.24-.07.64.05.89.33.68,1.04,1.2,1.7,1.46.27.11.61.17.93.32.25.12.3.29.49.42.41.29.91.27,1.24.16.38-.12.52-.33.61-.74-.1.21-.24.33-.51.42-.34.11-.83.13-1.24-.16-.19-.13-.24-.3-.49-.42-.33-.15-.71-.19-.98-.3-.76-.3-1.59-.85-1.85-1.71-.02-.07-.04-.21.06-.35"/>
      <path class="cls-24" d="M9.13,40.21c-.13-.42.07-1.39.17-2.53l-2.24-.58c.16,1.29.19,2.1-.02,2.77.15.84,1.69,1.31,2.09.34"/>
      <path class="cls-62" d="M9.13,40.21c-.13-.42.07-1.39.17-2.53l-.94-.19-.16,3.25c.39.02.76-.13.93-.54"/>
      <path class="cls-45" d="M6.53,39.47c-.05.07-.09.14-.12.22-.06.13-.11.27-.14.44l.11.03c.04-.16.08-.3.14-.42.04-.09.08-.17.13-.23l-.11-.04Z"/>
      <path class="cls-45" d="M6.24,39.38c-.04.06-.08.13-.12.21-.06.13-.11.27-.14.44l.11.02c.04-.16.08-.3.14-.42.04-.08.08-.16.13-.22-.04-.01-.07-.02-.11-.04"/>
      <path class="cls-45" d="M5.96,39.3c-.04.06-.08.13-.11.2-.06.13-.11.27-.14.44l.11.02c.04-.16.08-.3.14-.42.04-.08.08-.15.12-.21-.04-.01-.07-.02-.11-.03"/>
      <path class="cls-45" d="M5.7,39.23c-.04.06-.08.13-.11.2-.06.13-.11.27-.14.44l.11.02c.04-.16.08-.3.14-.42.04-.08.08-.15.12-.21-.04,0-.08-.02-.11-.03"/>
      <path class="cls-45" d="M5.39,39.16c-.03.05-.06.11-.09.16-.06.13-.1.27-.14.44l.11.02c.04-.16.08-.3.14-.42.03-.07.07-.13.1-.18-.04,0-.08-.02-.11-.03"/>
      <path class="cls-41" d="M9.4,37.96c-.54.83-2.42.43-2.61-.61-.11-.66,2.93-.39,2.61.61"/>
      <path class="cls-59" d="M9.04,38.1c.07-.52.15-.04.22-.98.18-2.15.3-4.45-.02-5.62-.15-.56-.36-1.05-.48-2.18-.17-1.59.22-3.13.4-4.72.01-.04.02-.09.03-.13h0c.09-.42.13-.88.12-1.36,0-1.04-.17-2.44-.91-3.88l-1.35-.18c-.03.06-.05.11-.08.17-.05.11-.1.2-.15.29,0,.01-.02.03-.03.04-.02.03-.03.06-.05.08-.02.03-.03.06-.05.08-.01.02-.03.04-.04.06l-.02.03s-.02.03-.03.04c-.02.03-.04.06-.06.09l-.03.05c-.04.05-.07.1-.11.15l-.04.05s-.02.03-.03.05c-.03.04-.06.08-.08.12-.06.09-.11.18-.16.27-.01.02-.02.05-.04.07h0c-.04.08-.08.17-.11.27-.01.03-.02.06-.03.1,0,.02-.01.03-.02.05,0,.03-.02.06-.03.09,0,.02-.01.05-.02.08v.03s-.03.09-.04.14c0,.02-.01.05-.02.07,0,.02,0,.04-.01.06,0,.02,0,.04-.01.06,0,.02,0,.04-.01.06v.07s-.02.05-.02.07c-.25,2.05-.33,3.69-.17,6.17.11,1.74.23,1.71.5,2.46.27.75.7,1.95.77,2.84.07.94.16,3.51.17,4.17,0,.62.44,1.09.89,1.08.4.05.83-.07,1.14-.47"/>
      <path class="cls-61" d="M9.17,38.2c.28-1.99.61-4.77.08-6.7-.15-.56-.36-1.05-.48-2.18-.17-1.59.22-3.13.39-4.72.02-.09.04-.18.06-.27.07-.38.1-.79.09-1.22,0-1.04-.17-2.44-.91-3.88l-1.35-.18c-.03.06-.05.11-.08.17-.05.11-.1.2-.15.29,0,.01-.02.03-.03.04-.02.03-.03.06-.05.09-.02.03-.03.05-.05.08-.01.02-.03.04-.04.06l-.02.03s-.02.03-.03.04c-.02.03-.04.06-.06.09l-.03.05c-.04.05-.07.1-.11.15l-.04.05s-.02.03-.03.05c-.03.04-.06.08-.08.12-.06.09-.11.18-.16.27-.01.02-.02.05-.04.07h0c-.04.08-.08.17-.11.27-.01.03-.02.06-.03.1,0,.02-.01.03-.02.05,0,.03-.02.06-.02.09,0,.02-.01.05-.02.07v.03s-.03.09-.04.14c0,.02-.01.05-.01.07,0,.02,0,.04-.01.06,0,.02,0,.04-.01.06,0,.02,0,.04-.01.06,0,.02,0,.04,0,.07,0,.02,0,.04,0,.07-.19,1.57-.26,2.84-.22,4.49.13.14,1.11.3,2.05-.31.12,1.74-.4,3.47-.13,4.22.72,1.97,1.41,1.17.66,8.22.4.05.76.13,1.07-.27"/>
      <path class="cls-54" d="M7.32,26.56c-.16,1.08-.46,2.33-.39,3.26.07.97.9,1.59,1.02,2.56.25,2.17-.05,3.07-.05,5.77-.53-.18-.74-.35-.82-.8.03-1.17.18-2.01-.04-4.22-.16-1.62-.91-2.91-.89-3.17l.23-2.93.94-.47Z"/>
      <path class="cls-9" d="M9.32,39.2c.02-.21.05-.85.08-1.23-.51.55-2.4.11-2.61-.61,0,.24-.04.81-.05,1.1-.07.94,1.93,1.59,2.58.74"/>
      <path class="cls-27" d="M6.71,43.95s.62-.3.63-.37c.02-.07.15-.79.15-.79l-.28-.37c-.67.02-1.44.43-1.02,1.15.09.16.26.29.52.38"/>
      <path class="cls-62" d="M8.18,37.28c.06.39.15,1.14.47,1.39l-1.66,2.19c-.03-.46-.35-.9-.38-1.32-.04-.62-.4-1.47-.64-2.03l2.21-.23Z"/>
      <path class="cls-50" d="M7.03,37.71c.11.46.23.92.34,1.38l.35.8-.73.97c-.03-.46-.35-.9-.38-1.32-.04-.62-.4-1.47-.64-2.03,1.68-.32.74-.05,1.06.2"/>
      <path class="cls-56" d="M6.79,40.22l.18.71c.21,1.46.24,1.69-.37,2.96.69.33,2.01-.01,2.65-.57.47-.41-.17-.88.06-1.49.13-.35.53-.89.61-1.54.05-.44.05-.87-.74-1.09-.21-.35-.39-.59-.59-.64-1.12-.04-1.41,1.15-1.78,1.65"/>
      <path class="cls-45" d="M6.71,43.95h.01c.72.23,1.92-.11,2.52-.62.47-.41-.17-.88.06-1.48.13-.35.53-.89.61-1.54.06-.44.05-.87-.74-1.09h0s-.09,0-.14,0c-.67.07-1.24.6-1.37,1.26-.11.55-.02.91.03,1.25.05.33.07.64-.08,1.09-.18.53-.64,1.13-1.54.42.01.1.05.22.12.34.09.16.26.29.52.38"/>
      <path class="cls-36" d="M6.91,43.99c.72.14,1.79-.19,2.33-.66.47-.41-.17-.88.06-1.49.13-.35.53-.89.61-1.54.09-.75-.42-1.05-1.08-.78-.45.19-.79.67-.89,1.19-.11.55-.02.91.03,1.25.13.84-.51,2.47-1.69,1.73.17.18.39.25.62.29"/>
      <path class="cls-41" d="M8.14,36.49c.04.99-1.85,1.66-2.6.92-.06-.07-.09-.16-.05-.25.25-.58,2.38-1.54,2.65-.67"/>
      <path class="cls-59" d="M8.28,37.78c-.3-1.57-.88-4.03-1.28-4.8-.55-1.06-1.23-1.25-1.76-2.46,0,0,0,0,0,0,.21-1.59,1.08-2.86,1.05-4.51.36-.51.75-.96,1.05-1.4,1.69-2.44-1.14-5.95-3.56-3.64-.46.44-.9.77-1.21,1.76-.62,2.03-.51,4.12-.2,6.55.07.56.14,1.17.22,1.73v.04s0,.02.01.03c.11.61.42,1.03.79,1.56.26.54,1.02,2.13,1.56,3.18.39.76.76,1.64,1.37,2.83.44.07.66.04.96-.06.42-.05.7-.46.99-.81"/>
      <path class="cls-61" d="M8.28,37.78c-.3-1.57-.88-4.03-1.28-4.8-.55-1.06-1.23-1.25-1.76-2.46,0,0,0,0,0,0,.21-1.59,1.08-2.86,1.05-4.51.36-.51.75-.96,1.05-1.4,1.69-2.44-1.14-5.95-3.56-3.64-.46.44-.9.77-1.21,1.76-.21.69-.34,1.38-.4,2.09.24.88.51,1.62.99,2.04.32.28.59.04,1.19.14l-.02.04c-.28,1.77-.56,2.73-.47,3.43.2,1.44,1.3,1.73,2.24,4.09.52,1.31.86,2.96,1.09,4.08.02,0,.05-.01.07-.02.42-.05.7-.46.99-.81"/>
      <path class="cls-9" d="M8.45,37.76c-.06-.2-.21-.97-.33-1.34-.27.7-2.17,1.44-2.64.86.09.22.41,1.08.51,1.35.22.35,2.19.15,2.46-.88"/>
      <path class="cls-54" d="M3.95,27.34c-.91.09-1.07-.08-1.62-.68l.41,3.77c.16,1.03.16.97.78,1.81.84,1.68,1.63,3.27,2.38,4.99.29.02.44-.03.67-.14-.74-3.4-2.73-4.77-3.04-6.23-.16-.75.07-1.55.41-3.52"/>
      <path class="cls-52" d="M8.31,10.35c1.55.64,1.28,2.68,1.01,4.13-.3,1.65-.68,1.99-.79,3.27-.19,2.27,1.09,3.71.74,6.42-.3.88-3.98,2.42-5.42,2.26-1.07-.1-1.27-1.78-1.26-3.51,0-.28-.49.95-.59,1.21.36-1.47.62-2.67.63-2.94.03-.66.05-1.23.03-1.58.01-2.2-1.48-4.5-.8-6.24.13-.33.35-.49.61-.69.41-.33,1.62-.9,2.46-1.33v.06c.92-.54,1.95-1.02,2.7-1.12.27-.03.5-.02.68.05"/>
      <path class="cls-34" d="M8.31,10.35c1.55.64,1.28,2.68,1.01,4.13-.3,1.65-.68,1.99-.79,3.27-.19,2.27,1.24,3.29.74,6.42-.3.88-3.98,2.42-5.42,2.26,3.42-.61,4.17-1.83,4.11-2.64.27-2.66-.62-3.92-.66-4.51.01-2.2,2.18-5.52.22-7.67-.35-.38-1.94.88-4.06.46,1.21-.53,2.93-1.62,4.17-1.78.27-.03.5-.02.68.05"/>
      <path class="cls-3" d="M2.97,21.8c2.03,2.21,2.42,2.94,4.57,2.23-.37.7-.94,1.13-1.7,1.45-3.4,1.42-2.73-.74-2.88-3.68"/>
      <path class="cls-6" d="M2.65,21.01c.54.63,1.19,1.28,1.97,1.99l.31-1.53c-1.02-.86-1.77-1.71-2.33-2.64.04.26.05.53.05.79.04.5.03.96,0,1.39"/>
      <path class="cls-31" d="M2.65,21.01c.54.63,1.19,1.28,1.97,1.99l.12-.55c-.26-.22-1.67-1.51-2.06-2.04,0,.21-.01.41-.03.61"/>
      <path class="cls-31" d="M9.21,12.83c-.03-1.02-.95-2.25-1.35-2.57l-.87.17c.43.37.82,2.01.79,2.28l1.44.11Z"/>
      <path class="cls-39" d="M9.21,12.83c-.03-1.02-.95-2.25-1.35-2.57l-.34.07c.4.5.5.85.83,1.39-.25,0-.56.04-.72.14.1.39.16.74.15.86l1.44.11Z"/>
      <path class="cls-52" d="M1.91,13.16c-.78.91-1.25,2.68-1.76,4.43-.37,1.27-.02,1.88.48,2.12.53.26,1.09.03,1.72-1.29.34-.73.51-1.16.67-1.71.3-.99.88-2.93.09-3.67-.4-.38-.88-.24-1.2.13"/>
      <path class="cls-34" d="M0,18.7c.04.58.3.92.63,1.07,1.32.61,2.41-2.23,2.66-3.08.19-.62.38-1.61.3-2.45C1.77,19.98.46,19.15,0,18.7"/>
      <path class="cls-3" d="M.36,17.46c.52-1.93.91-3.19,1.51-3.69.46-.39,1.29-.23,1.33.23.05.53-.41,1.63-1.22,3.41-.27.6-.73,1.17-1.16,1.27-.36.09-.76-.13-.47-1.22"/>
      <path class="cls-6" d="M6.38,13.17c-1.68-1.17-2.81-1.33-3.98-.5-.37.26-.78.82-.71.79,1.44-.67,2.47-.05,3.07,1.46l.64-1.22.98-.53Z"/>
      <path class="cls-31" d="M6.38,13.17c-1.68-1.17-2.81-1.33-3.98-.5,1.22-.52,2.3-.09,2.72.39-.22.19-.46.39-.68,1.21.12.19.22.41.32.65l.64-1.22.98-.53Z"/>
      <path class="cls-53" d="M4.59,15.09c.09,2.66.06,4.98-.15,7.75,1.46,1.29,2.53,1.91,6.07-1.05.53-4.18-.05-6.38-1.09-8.37-.84-1.59-4.91-.65-4.83,1.67"/>
      <path class="cls-5" d="M6.79,23.9c.88-.09,2.02-.68,3.73-2.11.53-4.18-.14-7.35-1.29-9.29-.77-1.3-2.91-.04-4.05,1.15,2.6,3.05,1.88,5.03,1.61,10.25"/>
      <path class="cls-25" d="M6.79,23.9c.88-.09,2.02-.68,3.73-2.11.53-4.18-.14-7.35-1.29-9.29,1.11,3,1.19,5.59.52,8.08-.85,1.45-2.14,2.29-2.91,2.8-.02.31-.04.18-.06.51"/>
      <path class="cls-1" d="M5.15,14.12c-.32.54-.28,1.33-.26,2.05.07,2.27.07,3.94,0,6.33.37.53.99.9,1.58.78.26-5.67.07-7.41-1.33-9.16"/>
      <path class="cls-62" d="M3.45,10.49c.19.09,1.15-.04,1.12.04-.01.43-.14.69-.18,1.28,1.05-.15,2.43-.3,2.49-1.11,0-.07,0-.13-.01-.19,0,0,0-.01,0-.02h0c-.01-.29,0-.56.09-.69.22-.36.68-.76.84-1.31.26-.87.17-1.84-.65-2.49-1.49-1.18-3.39-.34-3.87,1.39-.09.34.17.52.16.81,0,.06-.08.12-.14.24-.08.17-.08,1.94.15,2.06"/>
      <path class="cls-50" d="M3.46,10.48c.19.09,1.14-.03,1.11.05-.01.43-.14.69-.18,1.27.11-.01.23-.03.35-.05.46-.65.89-1.08,2.13-1.51,0-.2.03-.36.09-.46.22-.36.68-.76.84-1.31.26-.87.17-1.84-.65-2.49-1.49-1.18-3.39-.34-3.87,1.39-.09.34.17.52.16.81,0,.06-.08.11-.14.24-.08.17-.07,1.93.16,2.05"/>
      <path class="cls-62" d="M3.48,10.49c.1.05.51.02.82-.1.2-.07.33-.24.36-.25.13-.05.41-.45-.03-1.09-.43-.62,2.16.97,2.3.75.22-.36.68-.76.84-1.31.26-.87.17-1.84-.65-2.49-1.49-1.18-3.39-.34-3.87,1.39-.09.34.17.52.16.81,0,.06-.08.12-.14.24-.08.17-.03,1.94.19,2.06"/>
      <path class="cls-24" d="M3.44,10.49s.27.02.39-.02c.13-.14.27-.44.26-.59-.02-.57-.3-1.03-.3-1.26,0-.49.16-.24-.02-.77-.14-.4.04-.46.13-.81-.2-.08-.3-.23-.33-.34-.12.21-.22.44-.29.69-.1.34.17.52.16.81,0,.06-.08.12-.14.24-.08.17-.07,1.92.15,2.05"/>
      <path class="cls-50" d="M4.55,9.07c.53-.5,1.05,1.08.19,1.07.33-.35.08-.91-.19-1.07"/>
      <path class="cls-24" d="M4.55,9.3c-.08-.22-.01-.3.08-.28.11.03.26.18.34.41.13.37-.06.84-.41.65.31.02.28-.35.19-.58-.06-.15-.16-.26-.2-.21"/>
      <path class="cls-50" d="M4.69,9.4c-.09.16-.12.26-.09.31.02.04.08.08.17-.01,0-.11-.04-.21-.09-.3"/>
      <path class="cls-35" d="M6.9,10.02c.25-.52.69-.84.89-1.52.26-.87.17-1.84-.65-2.49-1.17-.93-2.59-.61-3.38.41-.04.07.41.28.26.6-.21.56-.21.8-.12.93.33.47.34.54.32,1.26l.19.15c.08-.57.33-.52.57-.33.43.33.59,1.08,1.3,1.22.27.05.49-.05.63-.23"/>
      <path class="cls-43" d="M6.67,7.93c0,.44-.04.6-.19.99-.04-.25-.07-.5-.12-.75-.02-.08-.03-.17-.06-.25-.06.37-.1.75-.15,1.12-.08-.4-.18-.8-.24-1.19-.15.23-.19.7-.25.99-.08-.37-.15-.72-.18-1.1-.16.16-.2.59-.25.83-.07-.31-.12-.59-.16-.92-.1.15-.13.49-.16.68-.06-.22-.15-.5-.15-.72-.16.28-.17.6-.2.92-.06-.33-.15-.7-.13-1.02-.07.11-.15.44-.19.58-.02-.25-.04-.5-.04-.75-.13.15-.27.43-.29.64-.12-.25-.06-.74.09-1.08l.02-.04h.04c.25.02.51.04.76.05.17.01.33.02.5.03.08,0,.17.01.25.01.03,0,.08,0,.11-.01.08,0,.16-.02.24-.03.23-.03.47-.07.7-.1.35-.05.69-.14,1.04-.19.49.87.12,1.71-.07,2.14.02-.27.06-.57.02-.84-.02.24-.16.55-.24.78,0-.27.01-.51-.05-.79.01.38-.05.61-.24.94.02-.35.05-.62-.04-.98-.01.44-.09.71-.23,1.11-.03-.35-.04-.71-.15-1.04"/>
      <path class="cls-35" d="M7.8,7.93c-.26-.19-.87-.39-2-.47-.78-.06-1.33-.24-1.8-.49-.72-.38-.6-1.17-.3-1.44.59-.52,2.09-.46,3.1.05.74.38,1.14,1.13,1,2.34"/>
      <path class="cls-12" d="M7.8,7.93c-.26-.19-.87-.39-2-.47-.78-.06-1.33-.24-1.8-.49-.72-.38-.6-1.17-.3-1.44.06-.05.12-.09.19-.13.18,1.36.86,1,2.2,1.47-.2-.19-.1-.15-.28-.26.43.15.75.13,1.24.44-.15-.14-.19-.23-.29-.3.21.05.65.19.94.65l.04-.64c.08.4.06.76.06,1.17"/>
      <path class="cls-58" d="M3.63,6.64c.22.28,1.17-.36,2.49-.12-.28-.88-.45-1.06-.85-1.32-.52-.33-1.4-.2-1.67.26-.26.44-.16.95.02,1.17"/>
      <path class="cls-35" d="M5.49,6.39c-.41-.4-1.02-.33-1.57-.18.32-.3.97-.19,1.29-.02-.43-.4-.71-.38-1.25-.31.4-.2.9-.14,1.18.08-.38-.45-.55-.42-1.11-.39.39-.21.98-.14,1.22.09-.29-.34-.51-.41-1.05-.41.46-.14.82-.12,1.19.27-.3-.52-.93-.53-1.34-.36-.36.14-.6.53-.61.87,0,.32.12.51.21.53.43.1.65-.25,1.82-.16"/>
      <polyline class="cls-19" points="4.41 7.87 4.41 7.87 4.4 7.87 4.41 7.87"/>
      <path class="cls-29" d="M4.18,7.96c.18-.11.36-.14.58-.06.36.13.66.54.79.8.08.18.14.38.14.57.01.32-.1.58-.35.68l-1.16-2Z"/>
      <path class="cls-23" d="M4.6,8.28c.37.22.68.74.67,1.17,0,.43-.3.6-.68.39s-.68-.74-.67-1.17c0-.43.3-.6.68-.39"/>
      <path class="cls-16" d="M4.12,7.99c.16-.11.4-.11.64.03.13.07.25.18.35.29.11.13.21.28.29.43.1.21.17.43.17.69,0,.26-.08.45-.23.53-.1.05-.18.07-.28.08-.36,0-.85-.42-1.08-.94-.19-.42-.22-.87.14-1.12"/>
      <path class="cls-53" d="M4.42,8.68c-.2-.19-.47-.35-.7-.22.11-.07.38-.27.55-.28.1,0,.16.01.25.05.08.04.13.07.21.13.3.23.54.7.54,1.08,0,.37-.24.6-.6.67.26-.2.21-.6.07-.93-.09-.22-.23-.41-.32-.49"/>
      <path class="cls-5" d="M5.22,9.72c-.09.21-.29.34-.55.39.06-.05.11-.11.14-.17.07-.09.1-.2.1-.35.08-.07.24-.17.32-.23.02.12.01.24-.01.36"/>
      <path class="cls-42" d="M4.42,8.68c-.2-.19-.47-.35-.7-.22.16-.09.2-.06.39-.07l.31-.16c-.06-.02-.15-.04-.24-.02.04-.01.07-.02.1-.02.1,0,.16.01.25.05.08.04.13.07.21.13.3.23.54.7.54,1.08-.02-.29-.19-.7-.46-.94l-.34.17c.29.29.5.89.37,1.17.05-.2,0-.44-.1-.66-.09-.22-.23-.41-.32-.49"/>
      <path class="cls-10" d="M3.6,8.58c.08-.12.18-.17.32-.16,0,0,0,0,0,0,.17.02.33.12.46.24.1.08.26.3.32.42.09.16.15.39.16.57v.03c0,.05,0,.1-.01.14-.04.23-.18.32-.33.33-.15,0-.31-.06-.45-.16-.73-.54.53-1.08-.51-.73-.02-.06-.03-.11-.04-.17,0,0,0-.01,0-.02-.03-.15-.02-.36.06-.49"/>
      <path class="cls-2" d="M4.11,8.7c.31.18.55.61.55.96,0,.35-.25.5-.56.32-.31-.18-.55-.61-.55-.96,0-.35.25-.49.56-.32"/>
      <path class="cls-47" d="M4.59,8c.16.06.32.17.46.32.25.27.44.65.46.96,0,.13-.05.21-.1.21-.03,0-.06-.03-.08-.18-.06-.42-.38-.98-.85-1.14-.24-.09-.03-.22.12-.16"/>
      <path class="cls-26" d="M4.75,8.09c.25.16.37.35.48.63-.12-.19-.4-.41-.59-.54-.05-.03-.17-.13-.16-.14.02-.03.22,0,.27.04"/>
      <path class="cls-37" d="M6.71,5.33c-.28-.13-.59-.09-.86.03-.52.23-.97.76-1.22,1.19-.18.3-.32.63-.41.96-.08.31-.12.62-.1.94l-.3-.15c-.02-.27.01-.55.07-.81.08-.37.23-.73.42-1.06.27-.47.8-1.1,1.41-1.28.43-.13.62,0,1,.18"/>
      <path class="cls-46" d="M5.53,5.54l.03-.02c.68-.46,1.31-.32,1.57.28-.06-.04-.15-.12-.37-.24-.3-.23-.73-.22-1.19.09l-.03.02c-.79.54-1.38,1.75-1.31,2.7l.08,1.08c0,.21-.1.26-.2.26l.06-.22-.05-1.04c-.08-1.03.56-2.33,1.41-2.91"/>
      <polygon class="cls-16" points="4.7 6.49 4.81 6.59 4.35 6.36 4.24 6.27 4.7 6.49"/>
      <path class="cls-26" d="M4.7,6.49l-.46-.22c.2-.32.43-.62.73-.86.32-.26.75-.5,1.18-.41l.46.22c-.39-.05-.74.09-1.05.31-.35.26-.63.58-.86.95"/>
      <path class="cls-7" d="M5.79,4.99c.12-.02.24-.02.35,0l.44.22c-.31-.05-.52-.04-.76.07l-.3-.15c.1-.07.19-.11.27-.14"/>
      <path class="cls-60" d="M5.06,5.91l-.35-.18c-.09.05-.33.34-.47.54.11-.18.23-.35.37-.51.21-.23.61-.63,1.11-.74-.16.06-.43.2-.69.42l.35.18c.24-.17.49-.36.8-.38-.22.05-.44.17-.63.31-.35.25-.62.57-.84.93.12-.24.27-.46.35-.56"/>
      <path class="cls-47" d="M5.6,5.51l.03-.02c.35-.23.68-.32.98-.26l-.09.23c-.26-.05-.56.03-.87.24l-.03.02c-.3.2-.58.51-.8.88l-.11-.1c.25-.42.56-.76.9-.98"/>
      <path class="cls-38" d="M4.12,8.46l.08,1.03c.02.23-.06.26-.14.21-.08-.05-.15-.2-.16-.35l-.08-1.04.31.15Z"/>
      <path class="cls-7" d="M4.6,5.89c.1.05.21.09.31.15-.08.16-.14.29-.21.45l-.45-.22c.13-.15.21-.25.36-.38"/>
    </g>
  </g>
</svg>