<?xml version="1.0" encoding="UTF-8"?>
<svg id="Calque_2" xmlns="http://www.w3.org/2000/svg" viewBox="0 0 10.92 25.14">
  <defs>
    <style>
      .cls-1 {
        fill: #301d1a;
      }

      .cls-2 {
        fill: #e5e4e4;
      }

      .cls-3 {
        fill: #f29574;
      }

      .cls-4 {
        fill: #4c9f34;
      }

      .cls-5 {
        fill: #532d29;
      }

      .cls-6 {
        fill: #f7b699;
      }

      .cls-7 {
        fill: #91bf20;
      }
    </style>
  </defs>
  <g id="_Éléments_Mise_en_page" data-name="Éléments_Mise_en_page">
    <g>
      <path class="cls-1" d="M6.67,4.27s1.26.11,1.76.34c.5.24.71,3.07.6,3.46-.1.39-.05,1.94-.68,2.15l-1.68-5.96Z"/>
      <path class="cls-6" d="M8.37,16.19s.26.05.49.71.71,1.52.71,1.52c0,0,.14.54-.16.8-.29.26-.62-.27-.81-.52-.19-.26-1.12-1.39-1.43-1.75-.3-.36.07-.8.43-.8.36,0,.76.05.76.05"/>
      <path class="cls-5" d="M9.47,18.22s.18.09.52.44c.34.35.35.42.23.62-.12.2-.8.66-.96.93-.16.27-.7.91-.97,1.01-.28.11-.7-.07-.44-.82.26-.76.49-.59.71-1.78,0,0,.23.35.66.13.33-.17.26-.53.26-.53"/>
      <path class="cls-1" d="M4.01,11.36s.45,1.71,1.17,2.75c.73,1.05,1.82,2.85,1.82,2.85,0,0,.46.4,1.18-.16.4-.32.41-.59.41-.59l-1.3-1.75s.39-1.31.57-1.83c.17-.52-.87-1.87-2.21-1.78-1.34.09-1.63.5-1.63.5"/>
      <path class="cls-6" d="M6.01,19.83s-.01.64-.1,1.08c-.09.45-.21,1.32-.21,2.2,0,0,.02.57-.34.71-.36.14-.67-.04-.68-.55-.02-.51-.22-3.69-.22-3.69,0,0,.19-.8.78-.79s.74.66.78,1.03"/>
      <path class="cls-5" d="M8.71,11.85s0,.72-.08,1.61c-.09.89-2.51,5.1-2.51,5.1l.07,1.35c0,.08-.02.16-.08.23-.12.14-.39.33-.92.25-.8-.13-.86-.5-.86-.5,0,0-.05-.98-.02-1.33.03-.35,1.24-5,1.24-5,0,0-1.4-1.33-1.55-2.17-.14-.84,2.68-1.73,3.56-.95.89.77,1.14,1.44,1.14,1.44"/>
      <path class="cls-5" d="M4.67,23.27s-.32.45-.95.86-.76.73-.57.9c.19.17.95.14,1.46-.13.51-.27,1.12-.47,1.21-.87.09-.4-.13-.92-.13-.92,0,0-.11.41-.49.42-.4.01-.53-.26-.53-.26"/>
      <path class="cls-3" d="M3.27,6.1s-.35.8-.59,1.37c-.24.57-1.42,3.61-1.42,3.61,0,0-.47.24-.69.61-.22.37-.36.45-.38.6-.02.15.1.1.1.1,0,0-.19.36-.25.56-.06.2-.06.4.03.39,0,0,.02.18.17.14,0,0,.16.17.23.02,0,0,.19.12.22-.05.03-.17.14-.47.14-.47,0,0,.35-.3.49-.52.14-.21.22-.46.25-.68.03-.22.07-.47.07-.47,0,0,1.45-2.14,1.72-2.59.27-.44.8-1.25.9-1.82.1-.58-.69-1.24-.98-.8"/>
      <path class="cls-4" d="M4.97,5.84l-.71,1.14s-.36,0-.77-.32c-.41-.32-.42-.63-.42-.63,0,0,.72-1.38.9-1.76.18-.38.58-.76,1.34-.61.76.15-.17,1.91-.34,2.18"/>
      <path class="cls-2" d="M8.49,7.27l-.11,2.18.55,2.5s-.12.56-1.09.7c-.97.14-2.44.13-3.06-.34-.62-.47-.97-1.31-.97-1.31l.32-1.22s-.02-2.22-.04-3.23c-.02-1.01.11-2.56.9-2.85.79-.28,2.91,1.17,3.36,1.72.44.55.14,1.84.14,1.84"/>
      <path class="cls-7" d="M5.56,5.31s-.18,1.52-.32,2.27c-.14.75-.63,4.9-.63,4.9,0,0-.79-.58-.92-1.62l.45-2.29s-.1-1.96-.08-2.62.09-1.78.39-2.08c.3-.3,1.06-.34,1.46-.07.4.27-.44.95-.44.95l.09.54Z"/>
      <path class="cls-1" d="M6.16,4s-.27-.21-.49-.25c-.21-.04-.93.24-1.08,1.14-.15.89-.3,2.38-.48,3.16l.02.53s.34-.44.48-.96c.14-.53.22-1.93.37-2.52.16-.67.57-1.12,1.17-1.09"/>
      <path class="cls-3" d="M7.36,4.6l-.44-1.32s-1.45.53-1.61.92c0,0,.06.34.18.68.1.28.7.81,1.87-.27"/>
      <path class="cls-4" d="M5.7,4.88l-.14.43s-.29-.39-.32-1.15c-.02-.42.33.15.33.15l.13.57Z"/>
      <path class="cls-6" d="M7.3,3.54s-.78.76-1.21,1.06c-.43.3-.92.5-1.13.24-.21-.26-.53-.96-.69-1.48-.16-.51-.23-1.05.17-1.84C4.82.74,5.91,0,6.61.22c.7.23,1.12.73,1.17,1.53.05.79-.02,1.14-.49,1.78"/>
      <path class="cls-1" d="M7.29,4.37s-.14-.57.22-.99c.6-.7.61-1.5.49-1.92-.12-.42-.21-1-.77-1.22-.56-.21-.93-.32-1.3-.17-.37.14-.52.13-.81.35-.3.21-.33.19-.54.47-.21.28-.66.64-.67.98-.01.34.66.91,1.89.82.71-.05.45.72.45.72,0,0,.49.19.78.55.29.36.27.42.27.42"/>
      <path class="cls-6" d="M6.74,4.06c-.11-.1-.18-.46.06-.84.22-.35.52-.06.38.35-.14.41-.33.59-.44.49"/>
      <path class="cls-7" d="M7.49,4.63s.78.59.99.86c.21.27.39.93.28,1.65-.1.73-.28,2.33-.28,2.33l.56,2.8s-.69.75-2,.8c-1.31.04-1.57-.18-1.57-.18,0,0,.28-3.37.35-4.22.07-.86.04-2.93.09-3.29.05-.35,1.58-.75,1.58-.75"/>
      <path class="cls-4" d="M7.26,4.15s-.57.7-1.24.8l-.11.42s.82.03,1.58-.75l-.23-.48Z"/>
      <path class="cls-6" d="M8.66,8.18s.52.97,1.2,1.39c0,0,.05,1.44,0,2.04-.05.61-.19,1.07-.19,1.07,0,0-.54.35-.76.67-.22.32-.3.68-.19.81.1.13.46-.47.46-.47l-.03.8s-.23.35-.29.47c-.06.12.03.28.21.2,0,0,.08.21.29.02,0,0,.11.17.28-.04,0,0,.1.19.26-.08s.38-.77.43-1.14-.04-1.09-.04-1.09c0,0,.59-2.78.63-3.22.04-.44-.55-1.61-.99-2.06-.44-.44-1.73-.07-1.27.62"/>
      <path class="cls-4" d="M10.16,7.57s-1.09-1.58-1.44-2c-.35-.42-1.03-.5-1.32.25-.28.75.23,1.26.54,1.74.32.47.67.97.67.97,0,0,.36.29.91-.13.72-.55.64-.82.64-.82"/>
      <path class="cls-1" d="M7.48,4.53s-.89,1.02-.63,1.99c.26.97,1.44,3.17,1.73,3.23l.03-.63s-1.13-1.92-1.26-2.52c-.13-.6.21-1.26.47-1.84l-.34-.24Z"/>
    </g>
  </g>
</svg>