<?xml version="1.0" encoding="UTF-8"?>
<svg xmlns="http://www.w3.org/2000/svg" xmlns:xlink="http://www.w3.org/1999/xlink" viewBox="0 0 20.91 25.92">
  <defs>
    <style>
      .cls-1 {
        fill: #cacfdf;
      }

      .cls-2 {
        fill: #f7b9a2;
      }

      .cls-3 {
        fill: #4bb0c1;
      }

      .cls-4 {
        fill: #d8ddee;
      }

      .cls-5 {
        stroke: #2b3086;
        stroke-miterlimit: 10;
        stroke-width: .16px;
      }

      .cls-5, .cls-6 {
        fill: none;
      }

      .cls-7 {
        fill: #e6effa;
      }

      .cls-8 {
        fill: #2b3086;
      }

      .cls-9 {
        fill: #9d7fb8;
      }

      .cls-10 {
        clip-path: url(#clippath-1);
      }

      .cls-11 {
        isolation: isolate;
      }

      .cls-12 {
        mix-blend-mode: multiply;
      }

      .cls-13 {
        fill: #466cb2;
      }

      .cls-14 {
        fill: #a9d8d5;
      }

      .cls-15 {
        fill: #ef7f55;
      }

      .cls-16 {
        clip-path: url(#clippath);
      }

      .cls-17 {
        fill: #dff0f2;
      }

      .cls-18 {
        fill: #26231e;
      }
    </style>
    <clipPath id="clippath">
      <rect class="cls-6" x="8.53" y="3.21" width=".73" height=".84"/>
    </clipPath>
    <clipPath id="clippath-1">
      <rect class="cls-6" x="8.53" y="3.21" width=".73" height=".84"/>
    </clipPath>
  </defs>
  <g class="cls-11">
    <g id="Calque_2">
      <g id="_Éléments_Mise_en_page" data-name="Éléments_Mise_en_page">
        <g>
          <path class="cls-8" d="M15.17,9.64c-.08,0-.14-.06-.14-.14v-.57c0-.21-.12-.41-.3-.52l-5.25-2.95c-.18-.1-.38-.1-.56-.01-.18.09-.29.26-.32.46l-.02.15c0,.08-.08.13-.15.12-.08,0-.13-.08-.12-.15l.02-.15c.03-.29.21-.54.47-.67.26-.13.57-.13.82.02l5.25,2.95c.27.15.44.44.44.76v.57c0,.08-.06.14-.14.14"/>
          <path class="cls-4" d="M6.93,15.85c-.81-.47-1.86-.38-2.96.26C1.82,17.35.08,20.37.08,22.85c0,1.27.45,2.23,1.26,2.7.34.2.72.29,1.13.29.57,0,1.19-.19,1.83-.55,2.15-1.24,3.89-4.26,3.89-6.74,0-1.27-.45-2.23-1.26-2.7M1.75,24.82c-.56-.32-.87-1.04-.87-2.01,0-2.2,1.55-4.88,3.45-5.98.51-.29,1-.45,1.43-.45.28,0,.53.06.75.19.28.16.49.42.64.76.15.34.22.76.22,1.25,0,2.2-1.55,4.88-3.45,5.98-.84.49-1.62.58-2.18.26"/>
          <path class="cls-8" d="M6.93,15.85c-.81-.47-1.86-.37-2.96.26C1.82,17.35.08,20.37.08,22.85c0,1.27.45,2.23,1.26,2.7.34.2.72.29,1.13.29.57,0,1.19-.19,1.83-.56,2.15-1.24,3.89-4.26,3.89-6.74,0-1.27-.45-2.23-1.26-2.7M3.96,24.93c-.94.54-1.8.64-2.43.27-.63-.36-.98-1.16-.98-2.24,0-2.39,1.68-5.3,3.75-6.5.57-.33,1.1-.49,1.58-.49.31,0,.6.07.85.22.63.36.98,1.16.98,2.24,0,2.39-1.68,5.31-3.75,6.5"/>
          <path class="cls-5" d="M6.93,15.85c-.81-.47-1.86-.37-2.96.26C1.82,17.35.08,20.37.08,22.85c0,1.27.45,2.23,1.26,2.7.34.2.72.29,1.13.29.57,0,1.19-.19,1.83-.56,2.15-1.24,3.89-4.26,3.89-6.74,0-1.27-.45-2.23-1.26-2.7M3.96,24.93c-.94.54-1.8.64-2.43.27-.63-.36-.98-1.16-.98-2.24,0-2.39,1.68-5.3,3.75-6.5.57-.33,1.1-.49,1.58-.49.31,0,.6.07.85.22.63.36.98,1.16.98,2.24,0,2.39-1.68,5.31-3.75,6.5"/>
          <path class="cls-4" d="M19.58,8.36c-.81-.47-1.86-.38-2.96.26-2.15,1.24-3.89,4.26-3.89,6.74,0,1.27.45,2.23,1.26,2.7.34.2.72.29,1.13.29.57,0,1.19-.19,1.83-.55,2.15-1.24,3.89-4.26,3.89-6.74,0-1.27-.45-2.23-1.26-2.7M14.4,17.33c-.56-.32-.87-1.04-.87-2.01,0-2.2,1.55-4.88,3.45-5.98.51-.29,1-.45,1.43-.45.28,0,.53.06.75.19.28.16.49.42.64.76.15.34.22.76.22,1.25,0,2.2-1.55,4.88-3.45,5.98-.84.49-1.62.58-2.18.26"/>
          <path class="cls-8" d="M19.58,8.36c-.81-.47-1.86-.37-2.96.26-2.15,1.24-3.89,4.26-3.89,6.74,0,1.27.45,2.23,1.26,2.7.34.2.72.29,1.13.29.57,0,1.19-.19,1.83-.56,2.15-1.24,3.89-4.26,3.89-6.74,0-1.27-.45-2.23-1.26-2.7M16.61,17.44c-.94.54-1.8.64-2.43.27-.63-.36-.98-1.16-.98-2.24,0-2.39,1.68-5.3,3.75-6.5.57-.33,1.1-.49,1.58-.49.31,0,.6.07.85.22.63.36.98,1.16.98,2.24,0,2.39-1.68,5.31-3.75,6.5"/>
          <path class="cls-5" d="M19.58,8.36c-.81-.47-1.86-.37-2.96.26-2.15,1.24-3.89,4.26-3.89,6.74,0,1.27.45,2.23,1.26,2.7.34.2.72.29,1.13.29.57,0,1.19-.19,1.83-.56,2.15-1.24,3.89-4.26,3.89-6.74,0-1.27-.45-2.23-1.26-2.7M16.61,17.44c-.94.54-1.8.64-2.43.27-.63-.36-.98-1.16-.98-2.24,0-2.39,1.68-5.3,3.75-6.5.57-.33,1.1-.49,1.58-.49.31,0,.6.07.85.22.63.36.98,1.16.98,2.24,0,2.39-1.68,5.31-3.75,6.5"/>
          <path class="cls-14" d="M9.73,6.65s-.51,1.5-.51,1.5c0,.03-.02.07-.03.1,0,.01-.01.03-.02.04-.12.23-.49.44-.81.54-.14.04-.26,0-.36.03-.02,0-.04,0-.06.01-.54.1-1.04,0-1.45-.18-.14-.06-.27-.14-.39-.23-.06-.04-.08-.13-.04-.21.07-.17.13-.33.18-.49.17-.57.22-1.13.28-1.68.08-.78.32-2.37,1.29-2.52.46-.07.92.12,1.33.34.29.16.63.32.9.54,0,0,0,0,0,0,.04.03.07.07.11.1.16.17.28.37.3.63.05.65-.55.96-.73,1.5"/>
          <path class="cls-8" d="M9.42,3.04s0,0,0,0c0,0,0-.02,0-.03,0,0,0,.02,0,.02"/>
          <g class="cls-12">
            <g class="cls-16">
              <g class="cls-10">
                <polygon class="cls-15" points="8.53 3.21 9.09 3.87 9.12 3.87 9.26 3.23 8.53 3.21"/>
              </g>
            </g>
          </g>
          <path class="cls-15" d="M9.34,2.77s-.05.01-.07,0c0,0,0-.01,0-.02h.08Z"/>
          <path class="cls-15" d="M7.55,3.91c.17.26.76.16,1.32-.2-.15-.05-.31-.08-.44-.11-.24-.05-.57-.08-.89-.03-.05.14-.04.26.02.35"/>
          <path class="cls-8" d="M9.39,2.68s0,0,0,0c0,0,0-.02,0-.03,0,0,0,.02,0,.02"/>
          <path class="cls-15" d="M9.31,2.42s-.05.01-.07,0c0,0,0-.01,0-.02h.08Z"/>
          <path class="cls-8" d="M9.55,2.86s0,0,0,0c0,0,0-.02,0-.02,0,0,0,.01,0,.02"/>
          <path class="cls-2" d="M10.27,2.57c-.01.28-.06.55-.24.76-.19.23-.5.32-.8.33-.16,0-.33-.02-.48-.1-.27-.15-.4-.48-.47-.79-.02-.12-.04-.24-.05-.36,0-.14,0-.27.04-.4.08-.28.29-.52.55-.66.25-.15.54-.21.83-.24.14-.02.29-.02.42.05.08.04.15.13.17.22,0,.03,0,.07,0,.1,0,.25.02.51.03.76,0,.11,0,.23,0,.35"/>
          <path class="cls-15" d="M9.48,2.63s-.04.01-.07,0c0,0,0-.01,0-.02h.07Z"/>
          <path class="cls-2" d="M9.28,2.63c0,.09.04.18.1.26.03.05.07.1.12.13.05.04.12.05.18.04.19-.04.18-.31.12-.44-.05-.1-.14-.18-.26-.19-.13-.01-.25.07-.26.2"/>
          <path class="cls-17" d="M4.18,20.64s-.02,0-.04,0c-.07-.02-.12-.1-.1-.17l1.89-7.01s.03-.07.07-.08l7.04-4.07c.06-.03.13-.02.18.03l2.64,3.14c.31.37.77.59,1.26.59.08,0,.14.06.14.14s-.06.14-.14.14c-.57,0-1.11-.25-1.47-.68l-2.57-3.05-6.89,3.98-1.88,6.95c-.02.06-.07.1-.13.1"/>
          <polygon class="cls-17" points="10.44 17.14 5.13 12.83 5.3 12.61 10.49 16.82 10.92 16.64 12.8 9.24 12.7 7.39 12.97 7.38 13.08 9.26 13.08 9.28 11.15 16.84 10.44 17.14"/>
          <path class="cls-8" d="M5.21,13.12l-.53-.31c-.41-.24-.41-.63,0-.87l.53-.31c.41-.24,1.09-.24,1.5,0l.53.31c.41.24.41.63,0,.87l-.53.31c-.41.24-1.09.24-1.5,0"/>
          <path class="cls-8" d="M5.21,12.72l-.53-.31c-.41-.24-.41-.63,0-.87l.53-.31c.41-.24,1.09-.24,1.5,0l.53.31c.41.24.41.63,0,.87l-.53.31c-.41.24-1.09.24-1.5,0"/>
          <path class="cls-8" d="M9.9,20.09l-.06.07s0-.01,0-.01c.02-.02.04-.04.06-.05"/>
          <path class="cls-2" d="M13.75,7.24c.31.02.64.04.92.18s.51.44.47.75c0,.03-.01.06-.03.09-.03.03-.07.05-.11.05-.29.04-.54-.19-.83-.26-.12-.03-.24-.03-.35-.06-.11-.03-.23-.11-.26-.23-.01-.05-.01-.1,0-.14.04-.18.18-.33.36-.37h-.16Z"/>
          <path class="cls-13" d="M11.93,16.33c0,.71-.5,1.58-1.12,1.93-.62.36-1.11.07-1.11-.64s.5-1.58,1.11-1.93c.62-.36,1.12-.07,1.12.64"/>
          <path class="cls-2" d="M12.34,19.96c-.49.36-1.11.56-1.72.55-.07,0-.14,0-.19-.05-.05-.04-.07-.11-.08-.18,0-.03-.01-.05-.02-.08,0,0,0,0,0,0,0,0,0-.01,0-.01-.3-1.53-.54-3.08-.73-4.63-.05-.12-.08-.24-.1-.37-.03-.24.03-.5.22-.65.27-.21.7-.06.9.22.2.28.24.65.27.99.1,1.22.21,2.45.31,3.67.25-.04.51-.05.76-.03.22.02.43.05.64.11.05.19-.11.36-.27.48"/>
          <path class="cls-8" d="M12.34,19.96c-.49.36-1.11.56-1.72.55-.07,0-.14,0-.19-.05-.05-.04-.07-.11-.08-.18,0-.03-.01-.05-.02-.08.57-.03,1.13-.2,1.62-.49.05-.03.1-.06.12-.11.03-.05.02-.12-.02-.15-.03-.02-.09-.03-.09-.07,0,0,0,0,0,0,.22.02.43.05.64.11.05.19-.11.36-.27.48"/>
          <path class="cls-1" d="M9.6,4.68s0,0,0,0c-.01,0-.03,0-.04.02l.05-.02Z"/>
          <path class="cls-1" d="M9.78,4.61l-.17.07c.05-.03.11-.06.17-.08,0,0,.02,0,.03,0h-.02Z"/>
          <path class="cls-14" d="M9.73,6.65s-.67,2.07-.67,2.07c0,.03-.02.07-.03.1,0,.01-.01.03-.02.04-.12.23-.34-.12-.65-.03-.07-.37.16-.81.33-1.16.35-.67.59-1.39.72-2.13.04-.23.07-.46.17-.67.06-.14.16-.27.29-.36.1-.03.2-.02.29.02.16.17.28.37.3.63.05.65-.55.96-.73,1.5"/>
          <path class="cls-2" d="M10.92,7.65c.06-.1.12-.2.19-.3.15-.08.28-.16.29-.17h2.84c.11-.01.22.02.31.09.02.01.03.03.05.04.06.07.11.15.12.24.03.23-.13.45-.36.48l-3,.31s0,0,0,0c-.36.03-.61-.37-.43-.68"/>
          <path class="cls-14" d="M11.59,8.09s0,0,0,0c-.29.2-.69.1-.87-.21l-1.53-2.71c-.17-.3-.06-.69.24-.86s.69-.07.86.24l.6,1.07.6,1.05c.27.51.69.99.11,1.41"/>
          <path class="cls-9" d="M10.17,15.31c-.9.45-1.49.13-1.92-.89-.2-.48-.42-1.07-.69-1.52-.14-.24-.56-.45-1.23-.65-.6-.17-1.23-.51-1.49-1.07-.05-.11-.08-.22-.1-.33-.08-.2-.14-.41-.15-.62-.01-.34.14-.58.28-.89.16-.34.36-.57.58-.93.03-.04.15-.11.22-.15.21-.13.39-.15.46-.2.03.02.07.07.11.09.29.14.36.21.77.37.27.11.54.2.79.25.48.1,1.1-.09,1.21.08l-.49,1.22.62,1.32c.04.11.08.22.13.32.04.08.1.19.16.31l.11.23.95,2.03c.1.45.04.84-.33,1.02"/>
          <path class="cls-9" d="M9.41,11.95c-.86.34-1.94.39-2.87.16-.35-.09-.68-.21-.96-.37-1.11-.64-1.18-1.66-.19-2.35.06-.04.13-.08.19-.12.47-.27,1.07-.44,1.68-.49.23.09.46.17.67.22.41.08.74-.06.84.08l-.23,1.02.52,1.12c.04.09.07.18.11.28.03.07.08.16.14.26l.09.19Z"/>
          <path class="cls-8" d="M10.69,1.82s0-.05.02-.07c.05-.2.16-.4.03-.58-.09-.13-.27-.17-.44-.19-.18-.02-.38-.04-.56.02-.34.11-.49.54-.49.83,0,.12-.02.24-.04.35-.06.18-.2.24-.42.24-.16,0-.32.06-.45.19-.06.06-.1.14-.13.21-.09.24-.14.3-.47.33-.2.02-.39.11-.54.27-.36.39-.35,1.06.01,1.49.36.43.94.46,1.3.07.15-.17.23-.38.26-.61.04-.37.09-.42.3-.52h0c.07-.03.14-.08.19-.14.12-.14.18-.32.19-.51,0-.26.07-.41.22-.48.1-.02.2-.03.31-.03.17,0,.34-.07.47-.21.19-.21.18-.45.23-.69"/>
          <rect class="cls-7" x="11.34" y="16.93" width=".28" height="2.55" transform="translate(-4.38 3.66) rotate(-15.24)"/>
          <polygon class="cls-18" points="9.27 2.78 9.94 3.67 10.06 3.51 10.09 2.56 9.86 2.63 9.83 3.08 9.57 2.72 9.27 2.78"/>
          <path class="cls-3" d="M7.01,2.87s-.43-1.9.97-2.61c1.41-.71,2.88.14,2.88.9,0,0,.05.18-.36,1.06-.16.35-.4.4-.57.48-.36.15-.88.28-1.1.34-.63.15-1.75.45-1.82-.16"/>
          <path class="cls-18" d="M9.24,1.84s-.82.17-1.28.52,1.19-.2,1.34-.3c.15-.1.31-.25-.06-.22"/>
          <path class="cls-18" d="M8.78,1.45s-.45.07-.71.28c-.27.21.65-.07.73-.13.08-.06.18-.15-.02-.15"/>
        </g>
      </g>
    </g>
  </g>
</svg>