<?xml version="1.0" encoding="UTF-8"?>
<svg id="Calque_2" xmlns="http://www.w3.org/2000/svg" viewBox="0 0 23.28 45.16">
  <defs>
    <style>
      .cls-1 {
        fill: #f8ad00;
      }

      .cls-2 {
        fill: #f8c4aa;
      }

      .cls-3 {
        fill: #f8efe3;
      }

      .cls-4 {
        fill: #12100b;
      }

      .cls-5 {
        fill: #fff;
      }

      .cls-6 {
        fill: #423f47;
      }

      .cls-7 {
        fill: #e73b59;
      }

      .cls-8 {
        fill: #f19093;
      }

      .cls-9 {
        fill: #67c2c9;
      }

      .cls-10 {
        fill: #d38b5c;
      }

      .cls-11 {
        fill: #443254;
      }

      .cls-12 {
        fill: #dedf5f;
      }

      .cls-13 {
        fill: #f8f0eb;
      }

      .cls-14 {
        fill: #753932;
      }

      .cls-15 {
        fill: #ec696d;
      }

      .cls-16 {
        fill: #29201c;
      }

      .cls-17 {
        fill: #4e3864;
      }

      .cls-18 {
        fill: #2c2e33;
      }

      .cls-19 {
        fill: #e2d8d8;
      }

      .cls-20 {
        fill: #f3af87;
      }

      .cls-21 {
        fill: #ffc900;
      }

      .cls-22 {
        fill: #702470;
      }

      .cls-23 {
        fill: #baca37;
      }
    </style>
  </defs>
  <g id="_Éléments_Mise_en_page" data-name="Éléments_Mise_en_page">
    <g>
      <path class="cls-3" d="M17.56,36.82s0-.1,0-.15c.03-.5-.16-.92-.34-1.38-.07-.17-.14-.35-.29-.47-.33-.26-.85-.03-1.06.33-.1.17-.15.36-.24.53-.16.33-.5.73-.9.75-.54.02-1.14-.16-1.69-.19-.21-.01-.43-.02-.63.06-.47.19-.6.94-.43,1.36.1.26.34.44.59.57.38.18.87.28,1.29.25.45-.03.87,0,1.28.2.7.33,1.52.81,2.23.16.19-.17.28-.43.3-.69.04-.45-.11-.89-.12-1.34"/>
      <path class="cls-3" d="M21.42,35.79c-.06-.17-.18-.12-.31-.16-.17-.05-.32-.17-.45-.28-.16-.15-.31-.32-.46-.47-.4-.41-.87-.74-1.38-.99-.16-.07-.32-.14-.5-.16-.33-.03-.65.12-.95.26-.29.14-.29.33-.3.61,0,.14,0,.28.03.41.07.27.26.49.45.69.22.23.46.46.74.6.23.12.49.19.71.33.15.1.27.23.37.37.08.11.15.25.27.33.24.16.54.29.83.31.58.04,1.06-.31,1.08-.91,0-.21-.03-.43-.07-.64-.02-.13-.03-.24-.05-.31"/>
      <path class="cls-11" d="M17.15,21.06c.12-.16.34-.2.54-.23.87-.15,1.72-.5,2.58-.71.38-.09.77-.16,1.16-.17l.85-.77c.1.74.17,1.49.08,2.23-.18,1.61-.61,5.34-.72,7.11-.08,1.35-.08,2.71-.09,4.07,0,.58-.04,1.17.03,1.74.07.52.08,1.24-.17,1.72-.2.38-.59.64-1.02.69-.42.05-.87-.11-1.17-.41-.19-.19-.18-.57-.21-.82-.03-.23-.04-.46-.05-.7-.02-.67-.03-1.34-.05-2.01-.02-.71-.06-1.42-.11-2.12-.03-.46-.07-.93-.11-1.39-.02-.26-.05-.51-.07-.77-.02-.22.02-.64-.08-.83-.44-.81-.83-1.69-.89-2.17-.09-.68-.09-1.38-.16-2.06-.07-.63-.29-1.21-.41-1.83-.03-.2-.06-.42.06-.58"/>
      <path class="cls-17" d="M15.43,29.64s0,.06,0,.09c.03,1.4-.07,2.8-.11,4.2-.02.93-.21,3.44.63,3.76.42.16,1.26.28,1.49-.13.86-1.5,1.12-6.75,1.18-8.23.01-.37-.03-.24,0-.61.02-.3.14-.72.05-1.01-.16-.55-.89-.24-1.25-.12-.52.18-1.17.27-1.62.61-.45.35-.39.92-.38,1.43"/>
      <path class="cls-17" d="M15.33,19.93c.47-.43,1.92.1,2.47.13.5.03,1.01.04,1.52.03.22,0,.51.04.73-.01.19-.05.34-.19.53-.24.16-.04.59-.36.71-.26.19.15-.07.78-.12,1.01-.46,2.11-1.85,3.88-2.27,5.99-.17.89-.14,1.8-.23,2.7-.01.11-.03.22-.07.33-.08.18-.23.31-.4.41-.4.26-.85.44-1.32.52-.25.04-.51.06-.76.05-.19,0-.44-.1-.62,0-.11-.75-.03-1.53-.19-2.27-.16-.78-.13-1.62-.16-2.42-.06-1.75-.09-3.51-.04-5.26,0-.22.02-.45.13-.63.02-.04.05-.07.08-.09"/>
      <path class="cls-5" d="M14.5,11.08c-.02.2.02.59.21.72.16.11.51.07.7.09.58.05,1.15.09,1.72.13.26.02.52.03.78.04.76.02,1.52-.03,2.27-.15.29-.05.77-.12,1-.31.23-.19.25-.5.21-.8-.07-.55-.34-1.08-.86-1.29-.52-.21-1.04-.12-1.56-.05-1.2.15-2.38.38-3.54.69-.21.05-.42.11-.59.24-.2.14-.32.42-.35.71"/>
      <path class="cls-2" d="M12.74,19.67c-.07.02-.14.03-.21.06-.36.13-.69.32-1,.54-.26.19-.61.42-.71.75-.05.18-.08.34-.13.52-.04.16-.14.36-.04.51.22.34.43-.26.58.03.04.08.11.15.17.21.05.05.12.09.18.07.05-.02.09-.09.14-.08.08.01.08.11.17.1.03,0,.06-.04.09-.03.04,0,.08.04.12.05.06.02.12.01.19,0,.02,0,.04,0,.06-.02.01-.01.02-.03.03-.05.05-.17.03-.34.06-.51.03-.13.11-.24.21-.33.1-.09.22-.16.32-.24.13-.1.25-.21.35-.33.09-.11.25-.33.3-.38l-.89-.89Z"/>
      <path class="cls-15" d="M14.71,10.43s0-.04,0-.05c0-.32,0-.68.19-.96.16-.24.47-.36.71-.51.79-.51,1.63-.92,2.51-1.24,1.34-.48,2.71-1.47,4.14-.66.15.08.28.18.4.3.74.72.65,1.88.54,2.8-.15,1.19-.5,2.35-.71,3.54-.04.25-.08.5-.11.74-.11.86-.03,1.74-.15,2.6-.1.74.13,1.59.23,2.33.06.46.11.96-.14,1.35-.27.42-.8.57-1.29.68-1.78.41-3.69.72-5.4.09-.31-.11-.63-.28-.75-.58-.08-.2-.06-.42-.04-.64.24-2.4.3-4.83.06-7.24-.09-.85-.21-1.7-.2-2.56"/>
      <path class="cls-19" d="M17.43,7.94c.24-.1.5-.21.69-.28.93-.34,1.88-.91,2.84-.96.47.7.09,1.51-.6,1.89-.87.43-2.01.38-2.83-.2-.16-.12-.29-.31-.11-.45"/>
      <path class="cls-8" d="M14.45,10.8c.04-.64.23-1.36.81-1.72.22-.14.48-.19.73-.22.21-.02.42-.03.62,0,.48.08.89.4,1.12.82.29.52.25,1.01.14,1.57-.1.49-.17.99-.23,1.49-.13.99-.24,1.99-.5,2.96-.15.57-.4,1.17-.91,1.45-.35.19-.79.2-1.14.02-.86-.43-.6-1.12-.6-1.24.03-3.8-.03-5.21-.03-5.13"/>
      <path class="cls-8" d="M12.6,20.75c.15.14.48.35.7.27.18-.06.37-.36.49-.5.39-.42.77-.85,1.15-1.29.17-.2.34-.39.51-.59.48-.59.91-1.22,1.27-1.89.14-.26.38-.68.36-.98-.01-.3-.24-.5-.51-.66-.47-.28-1.07-.39-1.55-.11-.48.29-.73.75-.99,1.2-.61,1.04-1.15,2.12-1.62,3.22-.08.2-.16.4-.17.61,0,.24.14.51.35.71"/>
      <path class="cls-2" d="M17.76,6.5c-.05-.35-.32-.27-.18-.59.11-.27.29-.53.52-.71.23-.18.53-.29.83-.27.1,0,.17.06.27.07.28,0,.56-.05.84-.01.28.04.53.06.53.37,0,.42-.02.82.11,1.23.07.22.18.43.2.66.04.45-.29.87-.7,1.07-.5.24-1.07.22-1.6.14-.27-.04-.64-.09-.8-.35-.12-.19-.07-.44-.04-.65.04-.32.07-.63.02-.95"/>
      <path class="cls-2" d="M16.57,1.96c-.17.21-.3.44-.34.71-.09.6.15,1.22.02,1.82-.13.58.12,1.89,1.26,2.23.58.17,1.72-.03,2.08-.21.49-.24.82-.71,1.11-1.17C23.09,1.55,18.19,0,16.57,1.96"/>
      <path class="cls-18" d="M21.4,1.22c-.12-.12-.26-.22-.43-.3-.05-.02-.11-.05-.14-.09-.03-.03-.04-.07-.06-.11-.08-.17-.24-.3-.41-.39-.63-.35-1.41-.37-2.13-.27-.24.04-.49.08-.71.18-.26.11-.48.28-.69.47-.29.27-.57.58-.72.95-.07.17-.08.36-.13.53-.04.16.01.34.14.44.06.04.12.07.18.11.24.16.29.54.39.79.07.16.2.25.23.42.04.18.04.37.09.54.03.08.08.17.17.18.04,0,.07-.01.1-.03.1-.06.15-.18.19-.3.03-.12.05-.24.12-.34,0-.01.02-.03.04-.04.01,0,.03,0,.04,0,.12.02.2.12.26.22.07.12.11.27.15.4.06.22.07.4.09.62.03.22.09.46.24.62.35.37,1.01.35,1.46.25.16-.04.33-.07.48-.15.35-.17.58-.49.81-.81.2-.29.41-.58.51-.92.06-.19.09-.39.11-.58.11-.8.2-1.82-.39-2.42"/>
      <path class="cls-2" d="M17.86,3.62c.45-.1.65.45.4.93-.07.14-.22.28-.32.4-.71.81-1.02.09-.8-.18.52-.64.16-1.02.72-1.14"/>
      <path class="cls-20" d="M17.85,4.5c.04-.05.52-.44.13-.59-.11-.04-.2.06-.2.16,0,.06.03.11.03.16,0,.03,0,.06-.02.09-.04.08-.18.18-.13.28.04.09.17-.08.2-.11"/>
      <path class="cls-14" d="M11.82,25.5c-.58.41,0,1.24.32,2.5.08.3.21,1.1.56,1.18.16.04.45,0,.58-.13.51-.49-.04-2.34-.21-3.09-.06-.27-.54-.97-1.24-.47"/>
      <path class="cls-7" d="M9.19,38.63c-.19,0-.37-.07-.56-.07-.2,0-.4.07-.52.24-.09.12-.16.33-.05.45.1.12.25.2.39.26.3.11.61.09.91.17.19.05.38.14.58.15.18.01.35-.04.47-.17.11-.12.13-.26.13-.42,0-.28-.19-.4-.42-.51-.48-.22-.6-.08-.93-.09"/>
      <path class="cls-14" d="M13.43,27.95c-.06-.15-.16-.3-.31-.35-.15-.05-.33-.05-.47.02-.66.34-.66,1.2-1.03,2.62-.09.34-.39,1.19-.12,1.49.12.13.4.26.59.24.76-.08,1.35-2.69,1.39-3.46,0-.19.03-.37-.04-.55"/>
      <path class="cls-7" d="M12.19,36.52c-.55-.18-1.01-.54-1.37-.09-.13.16-.07.36.04.49.37.46.94.59,1.34.76.61.26,1.03-.39.45-.91-.16-.14-.26-.19-.46-.25"/>
      <path class="cls-14" d="M12.33,33.11c.09.09.33.3.46,1.92.02.24.07,1.79-.23,2.18-.11.14-.26.14-.33.13-.26-.06-.32-.27-.35-.46-.12-.73-.22-1.87-.28-2.45-.04-.42.63-1.41.72-1.31"/>
      <path class="cls-14" d="M8.96,34.5c-.17,1.23.39,4.28.71,4.61.22.24.73.1.69-.14-.1-.56.22-1.87.19-2.61-.04-.97-.23-1.63-.23-1.65-.08-.29-1.34-.37-1.36-.21"/>
      <path class="cls-15" d="M12.53,29.05c.05-.52.16-1.04.23-1.56.07-.51.13-1.07,0-1.57-.04-.15-.09-.29-.19-.4-.17-.18-.43-.23-.67-.19-.24.04-.46.15-.67.26-.28.15-.54.3-.84.37-.28.07-.6.27-.81.46-.76.68-.76,1.2-.75,2.36,0,.63-.02,1.25-.05,1.88-.05.8-.13,1.17-.25,1.97-.12.82-.24,1.73.57,2.24.96.61,2.56.22,3.6-.57.63-.49.45-.41.43-1.2-.04-1.94-.7-2.88-.59-4.04"/>
      <path class="cls-14" d="M9.66,25.16c-.18-.17,1.97-1.32,1.96-.95-.05,1.09.11,1.08.12,1.48,0,.37-.26.73-1.34.63-.75-.07-.11-.57-.73-1.16"/>
      <path class="cls-14" d="M9.03,22.64c-.1.14-.17.28-.18.45-.03.38.15.75.09,1.13-.05.36.16,1.17.88,1.33.36.08,1.06-.09,1.28-.22.3-.17.48-.48.64-.78,1.31-2.45-1.8-3.2-2.71-1.91"/>
      <path class="cls-16" d="M11.84,22.11c-.27-.58-2.34-.79-2.9.59-.04.11-.05.22-.08.33-.03.1,0,.18.06.25.08.09.11.14.14.26.07.25.09.51.06.77-.01.13-.02.29.09.35.08.04.17.01.25.01.15,0,.28.07.38.18.12.13.16.32.29.44.13.12.29.2.47.22.2.02.39-.03.59-.04.12,0,.23-.03.34-.07.24-.1.4-.32.55-.52.31-.44.34-.57.39-.93.23-1.68-.52-1.57-.64-1.82"/>
      <path class="cls-14" d="M9.58,24.37c.28-.06.4.28.25.58-.04.09-.14.17-.2.24-.09.1-.31.03-.36-.24-.02-.08.02-.13.04-.22.02-.06.03-.12.04-.17.03-.11.11-.18.23-.2"/>
      <path class="cls-14" d="M10.16,27.06c-.06-.15-.16-.3-.31-.35-.15-.05-.33-.05-.47.02-.66.34-.94,2.35-1.02,3.1-.02.18.27.68.6.72.32.04.69-.39.72-.47.03-.08.5-1.95.53-2.47,0-.19.03-.37-.04-.55"/>
      <path class="cls-14" d="M8.69,29.49c-.35.03-.37.64-1.24,1.77-.16.21-.31.45-.56.56-.1.04-.21.06-.3.13-.33.24-.52.61-.55.71-.08.36-.15.4-.1.5.12.26.23.02.3.03.08.01.04.07.19.2.12.1.14-.02.19-.02.05,0,.05.06.1.05.02,0,.03-.02.05-.02.05,0,.04.05.18.02.14-.03-.05-.32.17-.55.11-.11.21-.35.42-.49,1.48-.98,2.11-2.29,2.11-2.29,0,0-.56.2-.69.1-.15-.11-.12-.72-.3-.7"/>
      <path class="cls-22" d="M9.82,26.16l-.45.41s.98-.02.9.88c-.08.9-.51,2.22-.51,2.22l.63-.83s.53-1.65.26-2.18c-.28-.53-.83-.51-.83-.51"/>
      <path class="cls-22" d="M10.53,27.48s.53-.59,1.22-.49c.69.1.92.51.87,2.16-.06,1.65-1.16,2.07-1.83,1.69-.67-.37-.77-2.12-.26-3.36"/>
      <path class="cls-4" d="M12.91,27.44c.01-.21-.03-.43-.08-.63-.09-.31-.21-.61-.24-.92-.04-.4.07-.8.17-1.19s.17-.8.07-1.19c-.09-.34-.36-.65-.71-.73-.22-.05-.42-.07-.57.13-.23.31-.28.9-.18,1.27.07.26.19.5.26.76.04.15.06.31.04.46-.01.13-.07.25-.07.38,0,.31.16.57.3.82.16.28.18.57.13.89-.05.31-.15.63-.13.94.02.32.18.66.48.76-.15-.28-.07-.63.1-.88.13-.19.28-.35.37-.56.04-.1.06-.2.07-.31"/>
      <path class="cls-12" d="M7.66,29.79s-.37-.08-1.37-.35c-.28.2-.47.54-.55.88-.04.17-.06.35-.07.53.43.19.9.37,1.32.57,1.38.68,2.11-1.15.68-1.62"/>
      <path class="cls-6" d="M6.88,42.89c-.33-.28-.79-.48-1.02-.47-.17,0-.32.1-.47.19-.14.09-.13.18-.12.33.02.41.51.72.71.8.22.08.37.06.59.29.05.05.09.12.15.15.5.25,1.11.09.86-.73-.11-.36-.08-.43-.45-.65-.09-.05-.12.21-.27.1"/>
      <path class="cls-20" d="M5.27,37.12c.06-.08.17-.1.28-.12.44-.08.88-.26,1.31-.36.2-.05.39-.08.59-.08l.43-.39c0,.06.01.12.02.18.12,1.42-.45,2.8-.38,6.13.01.5-.07.79-.27.97-.35.3-.74-.04-.81-.28-.13-.46-.27-3.02-.44-3.34-.23-.41-.42-.86-.45-1.11-.05-.35-.07-.02-.11-.37-.03-.32-.15-.62-.21-.93-.02-.1-.03-.21.03-.3"/>
      <path class="cls-13" d="M6.35,42.47c.03.32.07.57.1.69.07.24.45.58.81.28.2-.17.28-.46.27-.97v-.04c-.34.17-.78.16-1.18.04"/>
      <path class="cls-1" d="M7.66,39.98c.13-.1.33-2.66.25-3.63,0-.06-.01-.12-.02-.18l-.43.39c-.2,0-.4.04-.59.08-.44.11-.87.28-1.31.36-.1.02-.21.04-.28.12-.06.08-.05.19-.03.29.06.32.17.61.21.93.04.35.06.02.11.37.03.24.23.69.45,1.11.02.03.03.09.05.16.49.23,1.41.14,1.61,0"/>
      <path class="cls-2" d="M4.37,42.49c-.01.48-.11,1.75.32,1.91.21.08.78-.09.83-.32.25-1.41.57-4.2.56-4.25-.08-.28-.46-.12-.64-.06-1.15.4-.98-.66-1.07,2.71"/>
      <path class="cls-13" d="M4.41,42.85s-.03-.02-.05-.04c-.02.58-.02,1.46.33,1.59.21.08.78-.09.83-.32.05-.28.1-.62.16-.97-.42.09-.88,0-1.26-.26"/>
      <path class="cls-2" d="M5.6,36.61c.26.02.51.02.77.02.11,0,.26.02.37,0,.1-.02.17-.1.27-.12.08-.02.3-.18.36-.13.1.08-.04.4-.06.52-.23,1.07-.92,1.3-1.13,2.38-.14.73-.42,1.57-.55,1.89-.1.23.07.03-.47.13-.13.02-.26.03-.39.03-.1,0-.22-.05-.31,0-.06-.38-.01-.78-.09-1.16-.08-.4-.07-.82-.08-1.23-.1-3.12-.23-2.4,1.32-2.31"/>
      <path class="cls-21" d="M6.39,39.25c.21-1.08.69-1.29.93-2.37.03-.12.16-.44.06-.52-.06-.05-3.06-.49-3.15-.04-.06.28-.09,2.47-.09,2.77,0,.52-.22.9,1.27.96,1.03.05.9-.43.98-.81"/>
      <path class="cls-5" d="M3.92,32.03c0,.1,0,.3.11.37.08.05.26.04.36.04.29.03.59.05.88.07.13,0,.27.02.4.02.39.01.78-.01,1.16-.08.15-.02.39-.06.51-.16.12-.1.13-.25.11-.41-.03-.28-.17-.55-.44-.66-.27-.11-.53-.06-.79-.03-.61.08-1.21.2-1.8.35-.1.03-.21.06-.3.12-.1.07-.16.21-.18.36"/>
      <path class="cls-23" d="M4.12,31.18c.09-.14.92-.63,1.64-.89.68-.25,1.38-.75,2.11-.34.88.5.38,1.59.24,3.25-.25,2.98.28,3.29-.99,3.45-1.1.14-2.54.45-2.92-.17-.12-.19-.06-.42-.05-.63.16-2.73-.35-4.21-.04-4.68"/>
      <path class="cls-2" d="M5.58,29.7c-.03-.18,1.43-.85,1.43-.58,0,.79.14.67.16.96.02.27-.22.76-1.17.62-.72-.1-.33-.42-.42-1"/>
      <path class="cls-2" d="M4.77,27.26c-.1.12-.18.26-.2.42-.05.36.09.73.01,1.08-.08.34.07,1.13.75,1.33.34.1,1.02-.02,1.24-.12.29-.14.49-.42.66-.7,1.42-2.25-1.5-3.18-2.46-2.01"/>
      <path class="cls-10" d="M7.27,26.52c-.26-.55-2.24-.75-2.77.57-.04.1-.05.21-.08.32-.06.22.15.3.19.33.14.1.17.32.23.47.04.1.12.15.14.25.03.11.03.53.22.41.15-.09.12-.42.23-.4.52.1-.14,1.58,1.31,1.26.33-.07.46-.14.76-.57.29-.42.33-.54.37-.9.22-1.61-.5-1.5-.61-1.74"/>
      <path class="cls-2" d="M5.54,28.25c.27-.06.38.27.24.55-.04.08-.13.16-.19.24-.42.48-.61.06-.48-.11.31-.38.09-.61.43-.68"/>
      <path class="cls-20" d="M5.54,28.77s.31-.26.08-.35c-.06-.03-.12.04-.12.1,0,.03.02.06.02.1,0,.1-.13.15-.09.22.03.05.1-.04.12-.06"/>
      <path class="cls-6" d="M4.39,43.79c-.3.16-1.16-.23-1.5-.1-.24.1-.31.48-.22.69.13.32.65.44.96.42.81-.06,1.25.67,1.79.19.24-.22.14-.6.1-.91-.22.23-.81.29-1.13-.29"/>
      <path class="cls-2" d="M4.81,31.06c1.31.74.25,2.26-.96,1.32-.71-.54-1.66-.97-2.1-1.45-.14-.16-.27-.33-.35-.57-.06-.19.2-.34.36-.46.39-.29.62-.18.66-.14.48.46,1.36,1.1,1.71,1.26.74.36.71.04.68.02"/>
      <path class="cls-12" d="M4.81,31.06s-.34-.15-1.28-.61c-.31.14-.56.44-.71.76-.07.16-.13.33-.17.5.39.27.81.53,1.18.82,1.22.93,2.29-.72.98-1.46"/>
      <path class="cls-2" d="M.63,28.46c.18.37.23.57.39.94.38.87.41,1.47,1.12,1.63.25.06.53-.1.58-.3.17-.65-.27-.75-.99-2.11-.08-.16-.28-.47-.39-.71-.12-.28-.8.38-.71.55"/>
      <path class="cls-2" d="M1.38,27.72c.02-.17,0-.35-.07-.51-.09-.22-.25-.11-.43-.15-.16-.03-.23-.35-.28-.49-.22-.6-.38-.39-.28-.02.02.07.08.21.08.28,0,.1-.11.08-.18.09-.05,0-.1.03-.12.08-.02.06.02.07.04.12.01.05.04,0,0,.05-.02.02-.07.02-.09.05-.08.11.04.14.06.22.02.06-.04.13-.02.2.02.07.07.14.1.2.03.06.09.09.14.13.04.04.06.09.09.14.09.14.19.25.26.4.02.05.05.11.08.16.13.18.65-.23.59-.39-.06-.15-.02-.26.01-.41.01-.06.02-.12.03-.18"/>
      <polygon class="cls-9" points="4.81 30.62 5.34 30.41 6.32 32.04 5.71 32.45 4.81 30.62"/>
      <polygon class="cls-9" points="7.21 29.7 7.28 31.39 7.7 31.45 7.66 29.79 7.21 29.7"/>
      <polygon class="cls-9" points="4.12 34.03 4.12 34.62 5.4 34.11 5.38 33.55 4.12 34.03"/>
      <path class="cls-9" d="M5.65,31.92s-.59,1.69-.26,2.6c.34.9,2.27.93,2.81.18.47-.65.28-2.32-.22-3.15-.49-.83-1.16-.29-1.53-.08-.37.22-.75.2-.81.45"/>
    </g>
  </g>
</svg>