<?xml version="1.0" encoding="UTF-8"?>
<svg xmlns="http://www.w3.org/2000/svg" xmlns:xlink="http://www.w3.org/1999/xlink" viewBox="0 0 34.53 45.33">
  <defs>
    <style>
      .cls-1 {
        fill: #813012;
      }

      .cls-2 {
        clip-path: url(#clippath-34);
      }

      .cls-3 {
        fill: #ebedee;
      }

      .cls-4 {
        fill: #9f1930;
      }

      .cls-5 {
        clip-path: url(#clippath-38);
      }

      .cls-6 {
        clip-path: url(#clippath-21);
      }

      .cls-7 {
        clip-path: url(#clippath-6);
      }

      .cls-8 {
        clip-path: url(#clippath-7);
      }

      .cls-9 {
        clip-path: url(#clippath-17);
      }

      .cls-10 {
        clip-path: url(#clippath-31);
      }

      .cls-11 {
        clip-path: url(#clippath-15);
      }

      .cls-12 {
        clip-path: url(#clippath-33);
      }

      .cls-13 {
        clip-path: url(#clippath-18);
      }

      .cls-14 {
        clip-path: url(#clippath-47);
      }

      .cls-15 {
        fill: #403c3a;
      }

      .cls-16 {
        clip-path: url(#clippath-4);
      }

      .cls-17 {
        clip-path: url(#clippath-22);
      }

      .cls-18 {
        clip-path: url(#clippath-23);
      }

      .cls-19 {
        fill: #d7d5d3;
      }

      .cls-20 {
        fill: #e62f56;
      }

      .cls-21 {
        fill: #292726;
      }

      .cls-22 {
        fill: #c4c1bc;
      }

      .cls-23 {
        clip-path: url(#clippath-9);
      }

      .cls-24 {
        clip-path: url(#clippath-10);
      }

      .cls-25 {
        clip-path: url(#clippath-42);
      }

      .cls-26 {
        clip-path: url(#clippath-43);
      }

      .cls-27 {
        clip-path: url(#clippath-25);
      }

      .cls-28 {
        clip-path: url(#clippath-27);
      }

      .cls-29 {
        fill: #aca899;
      }

      .cls-30 {
        fill: #533b2c;
      }

      .cls-31 {
        fill: #e57a26;
      }

      .cls-32 {
        fill: #686457;
      }

      .cls-33 {
        clip-path: url(#clippath-11);
      }

      .cls-34 {
        fill: #8d3614;
      }

      .cls-35 {
        fill: none;
      }

      .cls-36 {
        fill: #262524;
      }

      .cls-37 {
        clip-path: url(#clippath-36);
      }

      .cls-38 {
        fill: #392e22;
      }

      .cls-39 {
        clip-path: url(#clippath-35);
      }

      .cls-40 {
        clip-path: url(#clippath-28);
      }

      .cls-41 {
        fill: #cdcbc6;
      }

      .cls-42 {
        fill: #242423;
      }

      .cls-43 {
        fill: #757b7d;
      }

      .cls-44 {
        clip-path: url(#clippath-1);
      }

      .cls-45 {
        fill: #2f302f;
      }

      .cls-46 {
        fill: #008166;
      }

      .cls-47 {
        fill: #363636;
      }

      .cls-48 {
        clip-path: url(#clippath-45);
      }

      .cls-49 {
        isolation: isolate;
      }

      .cls-50 {
        clip-path: url(#clippath-46);
      }

      .cls-51 {
        clip-path: url(#clippath-40);
      }

      .cls-52 {
        fill: #424142;
      }

      .cls-53 {
        clip-path: url(#clippath-5);
      }

      .cls-54 {
        clip-path: url(#clippath-20);
      }

      .cls-55 {
        clip-path: url(#clippath-8);
      }

      .cls-56 {
        fill: #b8b5a8;
      }

      .cls-57 {
        fill: #8c887e;
      }

      .cls-58 {
        clip-path: url(#clippath-41);
      }

      .cls-59 {
        fill: #f39939;
      }

      .cls-60 {
        clip-path: url(#clippath-3);
      }

      .cls-61 {
        fill: #4d3b34;
      }

      .cls-62 {
        clip-path: url(#clippath-26);
      }

      .cls-63 {
        fill: #262625;
      }

      .cls-64 {
        fill: #62504a;
      }

      .cls-65 {
        fill: #e84f0e;
      }

      .cls-66 {
        clip-path: url(#clippath-12);
      }

      .cls-67 {
        fill: #535454;
      }

      .cls-68 {
        fill: #b4b1ab;
      }

      .cls-69 {
        fill: #716d61;
      }

      .cls-70 {
        clip-path: url(#clippath-14);
      }

      .cls-71 {
        fill: #2b1c16;
      }

      .cls-72 {
        fill: #babfbf;
      }

      .cls-73 {
        clip-path: url(#clippath-30);
      }

      .cls-74 {
        clip-path: url(#clippath-19);
      }

      .cls-75 {
        mix-blend-mode: multiply;
      }

      .cls-76 {
        fill: #efc6b6;
      }

      .cls-77 {
        fill: #402b1e;
      }

      .cls-78 {
        fill: #232423;
      }

      .cls-79 {
        fill: #573d30;
      }

      .cls-80 {
        clip-path: url(#clippath-32);
      }

      .cls-81 {
        fill: #504c3d;
      }

      .cls-82 {
        fill: #7a766b;
      }

      .cls-83 {
        fill: #3a2822;
      }

      .cls-84 {
        fill: #dddfe1;
      }

      .cls-85 {
        clip-path: url(#clippath-39);
      }

      .cls-86 {
        fill: #b4b3af;
      }

      .cls-87 {
        clip-path: url(#clippath-16);
      }

      .cls-88 {
        clip-path: url(#clippath-2);
      }

      .cls-89 {
        clip-path: url(#clippath-29);
      }

      .cls-90 {
        clip-path: url(#clippath-37);
      }

      .cls-91 {
        clip-path: url(#clippath-13);
      }

      .cls-92 {
        fill: #59554e;
      }

      .cls-93 {
        fill: #ef7f55;
      }

      .cls-94 {
        clip-path: url(#clippath-24);
      }

      .cls-95 {
        fill: #b5b2ac;
      }

      .cls-96 {
        clip-path: url(#clippath);
      }

      .cls-97 {
        fill: #827f74;
      }

      .cls-98 {
        fill: #e6e5e0;
      }

      .cls-99 {
        fill: #80a6a9;
      }

      .cls-100 {
        clip-path: url(#clippath-44);
      }
    </style>
    <clipPath id="clippath">
      <rect class="cls-35" x="12.98" y="16.49" width="5.09" height="11.31"/>
    </clipPath>
    <clipPath id="clippath-1">
      <rect class="cls-35" x="12.98" y="16.49" width="5.09" height="11.31"/>
    </clipPath>
    <clipPath id="clippath-2">
      <rect class="cls-35" x="24.26" y="26.55" width="3.59" height="10.61"/>
    </clipPath>
    <clipPath id="clippath-3">
      <rect class="cls-35" x="24.26" y="26.55" width="3.59" height="10.61"/>
    </clipPath>
    <clipPath id="clippath-4">
      <rect class="cls-35" x="25.22" y="25.63" width=".71" height=".97"/>
    </clipPath>
    <clipPath id="clippath-5">
      <rect class="cls-35" x="25.22" y="25.63" width=".71" height=".97"/>
    </clipPath>
    <clipPath id="clippath-6">
      <rect class="cls-35" x="23.92" y="25.56" width=".83" height="1.43"/>
    </clipPath>
    <clipPath id="clippath-7">
      <rect class="cls-35" x="23.92" y="25.56" width=".83" height="1.43"/>
    </clipPath>
    <clipPath id="clippath-8">
      <rect class="cls-35" x="12.12" y="19.28" width="1.94" height="10.44"/>
    </clipPath>
    <clipPath id="clippath-9">
      <rect class="cls-35" x="12.12" y="19.28" width="1.94" height="10.44"/>
    </clipPath>
    <clipPath id="clippath-10">
      <rect class="cls-35" x="15.45" y="24.34" width="9.25" height="8.33"/>
    </clipPath>
    <clipPath id="clippath-11">
      <rect class="cls-35" x="15.45" y="24.34" width="9.24" height="8.33"/>
    </clipPath>
    <clipPath id="clippath-12">
      <rect class="cls-35" x="14.59" y="27.01" width="2.95" height="2.76"/>
    </clipPath>
    <clipPath id="clippath-13">
      <rect class="cls-35" x="14.59" y="27.01" width="2.95" height="2.76"/>
    </clipPath>
    <clipPath id="clippath-14">
      <rect class="cls-35" x="23.86" y="21.78" width="1.38" height="3.99"/>
    </clipPath>
    <clipPath id="clippath-15">
      <rect class="cls-35" x="23.86" y="21.78" width="1.38" height="3.99"/>
    </clipPath>
    <clipPath id="clippath-16">
      <rect class="cls-35" x="5.96" y="24.03" width="7.71" height=".92"/>
    </clipPath>
    <clipPath id="clippath-17">
      <rect class="cls-35" x="5.96" y="24.03" width="7.71" height=".91"/>
    </clipPath>
    <clipPath id="clippath-18">
      <rect class="cls-35" x="5.27" y="24.32" width="9.46" height="7.62"/>
    </clipPath>
    <clipPath id="clippath-19">
      <rect class="cls-35" x="5.27" y="24.32" width="9.46" height="7.62"/>
    </clipPath>
    <clipPath id="clippath-20">
      <rect class="cls-35" x="3.55" y="14.78" width="8.02" height="3.69"/>
    </clipPath>
    <clipPath id="clippath-21">
      <rect class="cls-35" x="3.55" y="14.78" width="8.02" height="3.69"/>
    </clipPath>
    <clipPath id="clippath-22">
      <rect class="cls-35" x="3.99" y="13.87" width="7.19" height="3.21"/>
    </clipPath>
    <clipPath id="clippath-23">
      <rect class="cls-35" x="3.99" y="13.87" width="7.19" height="3.21"/>
    </clipPath>
    <clipPath id="clippath-24">
      <rect class="cls-35" x="4.38" y="15.81" width="1.44" height="8.75"/>
    </clipPath>
    <clipPath id="clippath-25">
      <rect class="cls-35" x="4.38" y="15.81" width="1.44" height="8.75"/>
    </clipPath>
    <clipPath id="clippath-26">
      <rect class="cls-35" x="9.17" y="16.78" width="2" height="1.31"/>
    </clipPath>
    <clipPath id="clippath-27">
      <rect class="cls-35" x="9.17" y="16.78" width="2" height="1.31"/>
    </clipPath>
    <clipPath id="clippath-28">
      <rect class="cls-35" x="5.88" y="18.29" width="3" height="5.97"/>
    </clipPath>
    <clipPath id="clippath-29">
      <rect class="cls-35" x="5.88" y="18.29" width="3" height="5.97"/>
    </clipPath>
    <clipPath id="clippath-30">
      <rect class="cls-35" x="8.03" y="16.1" width="2.13" height="1.44"/>
    </clipPath>
    <clipPath id="clippath-31">
      <rect class="cls-35" x="8.03" y="16.1" width="2.13" height="1.44"/>
    </clipPath>
    <clipPath id="clippath-32">
      <rect class="cls-35" x="9.71" y="16.2" width="5.05" height="17.9"/>
    </clipPath>
    <clipPath id="clippath-33">
      <rect class="cls-35" x="9.71" y="16.2" width="5.05" height="17.9"/>
    </clipPath>
    <clipPath id="clippath-34">
      <rect class="cls-35" x="4.62" y="14.29" width="2.23" height="1.27"/>
    </clipPath>
    <clipPath id="clippath-35">
      <rect class="cls-35" x="4.62" y="14.29" width="2.23" height="1.27"/>
    </clipPath>
    <clipPath id="clippath-36">
      <rect class="cls-35" x="6.47" y="15.23" width="2.09" height="1.39"/>
    </clipPath>
    <clipPath id="clippath-37">
      <rect class="cls-35" x="6.47" y="15.23" width="2.09" height="1.39"/>
    </clipPath>
    <clipPath id="clippath-38">
      <rect class="cls-35" x="27.3" y="11.71" width="1.81" height="1.63"/>
    </clipPath>
    <clipPath id="clippath-39">
      <rect class="cls-35" x="27.3" y="11.71" width="1.81" height="1.63"/>
    </clipPath>
    <clipPath id="clippath-40">
      <path class="cls-35" d="M14.81,18.51c-.06.02-.09.14-.07.33.03.28.15.61.27.73.03.04.07.05.09.04.34-.33,2.49-.77,2.6-.79-.02,0-.05,0-.08-.04-.1-.1-.21-.38-.23-.61-.02-.16,0-.26.06-.28-.11.04-2.19.73-2.65.62"/>
    </clipPath>
    <clipPath id="clippath-41">
      <path class="cls-35" d="M15.14,19.59c.34-.3,2.2-.7,2.57-.77,0,0,.02,0,.03-.01-.11.02-2.27.46-2.6.78"/>
    </clipPath>
    <clipPath id="clippath-42">
      <path class="cls-35" d="M14.85,18.51s.04.02.07.04c.42.1,2.52-.59,2.63-.62-.02-.02-.04-.03-.06-.04-.11.04-2.19.73-2.64.62"/>
    </clipPath>
    <clipPath id="clippath-43">
      <path class="cls-35" d="M14.8,18.54c-.34,0-.37.5-.37.63,0-.13.02-.63.37-.63M14.81,18.54h0,0ZM14.37,19.05c0,.07.05.43.33.62.1.07.2.05.24.05.08-.01.15-.08.2-.12.04-.04.06-.15.04-.32-.03-.28-.15-.61-.27-.73-.02-.02-.05-.04-.07-.04-.05-.01-.09-.02-.13-.02-.29,0-.37.29-.34.56"/>
    </clipPath>
    <clipPath id="clippath-44">
      <rect class="cls-35" x="14.81" y="17.24" width="1.07" height=".54"/>
    </clipPath>
    <clipPath id="clippath-45">
      <rect class="cls-35" x="14.81" y="17.24" width="1.07" height=".54"/>
    </clipPath>
    <clipPath id="clippath-46">
      <rect class="cls-35" x="9.77" y="9.63" width="7.55" height="9.83"/>
    </clipPath>
    <clipPath id="clippath-47">
      <rect class="cls-35" x="9.77" y="9.64" width="7.55" height="9.83"/>
    </clipPath>
  </defs>
  <g class="cls-49">
    <g id="Calque_2">
      <g id="_Éléments_Mise_en_page" data-name="Éléments_Mise_en_page">
        <g>
          <path class="cls-43" d="M2.74,14.72c0,.44-.31.97-.69,1.19-.38.22-.69.04-.69-.39s.31-.97.69-1.19c.38-.22.69-.04.69.39"/>
          <path class="cls-57" d="M2.85,14.78c0,.44-.31.97-.69,1.19-.38.22-.69.04-.69-.39s.31-.97.69-1.19c.38-.22.69-.04.69.39"/>
          <path class="cls-32" d="M2.74,14.85c0,.37-.26.82-.58,1-.32.18-.58.04-.58-.33s.26-.82.58-1c.32-.19.58-.04.58.33"/>
          <path class="cls-52" d="M18.63,28.66l-.72-.32-1.72,1.01,1.45.84,1.72-1.01-.72-.52ZM16.98,29.51l.94-.55h.03s-.95.56-.95.56h-.02ZM17.65,29.93l-.06-.03,1.02-.6.06.04-1.03.59Z"/>
          <polygon class="cls-78" points="17.64 30.75 16.91 30.41 16.19 29.92 16.19 29.36 16.91 29.67 17.64 30.19 17.64 30.75"/>
          <polygon class="cls-47" points="19.35 29.18 17.64 30.19 17.64 30.75 19.35 29.74 19.35 29.18"/>
          <polygon class="cls-31" points="19.08 29.5 17.92 30.19 17.92 30.43 19.08 29.75 19.08 29.5"/>
          <polygon class="cls-78" points="18.33 28.75 17.95 28.97 17.92 28.96 16.98 29.51 16.57 29.36 17.92 28.57 18.33 28.75"/>
          <polygon class="cls-78" points="18.98 29.17 18.68 29.34 18.62 29.3 17.6 29.9 17.28 29.7 18.62 28.91 18.98 29.17"/>
          <path class="cls-57" d="M17.07,30.17c0,.12-.09.17-.2.11-.11-.06-.19-.21-.19-.34s.09-.17.19-.11c.11.06.2.21.2.34"/>
          <polygon class="cls-92" points="16.31 29.9 15.15 33 15.66 33.13 17 30.33 16.95 30 16.68 29.66 16.31 29.9"/>
          <path class="cls-21" d="M17.2,27.48s.77.53.89.6c.12.07,1.36.67,1.46.88.1.21.15.4.15.45s.09.29-.13.71c-.23.42-.8.29-.85.29s-.83-.41-1.05-.65c-.22-.23-.79-.8-1.15-.91-.37-.11-.25,0-.72-.24-.47-.24-.39-.4-.39-.4,0,0,.26-.91.46-.91.2,0,.37,0,.37,0l.95.17Z"/>
          <path class="cls-93" d="M19.3,23.37c-.42.88-1.55,2.83-1.74,3.36-.2.53-.16.89-.16.89,0,0,.22.52-.55.4-.31-.05-.61-.12-.84-.22-.33-.13-.52-.3-.44-.45.13-.26.35-1.22.5-2.79.14-1.57.9-2.61.9-2.61,0,0-.05-.17-.43-.88-.38-.71-.79-1.25-1.6-2.05-.81-.79-1.45-1.57-1.45-1.57,0,0-.25-.46-.52-.98-.3-.58-.63-1.23-.63-1.32,0-.18,2.83-1.92,3.57-1.16.74.75,2.43,3.28,2.7,3.86.28.59,1.14,2.1,1.24,2.91.11.8-.15,1.72-.57,2.6"/>
          <g class="cls-75">
            <g class="cls-96">
              <g class="cls-44">
                <path class="cls-76" d="M18.07,22.75s-.75-.13-1.06,0c-.31.13-.54,1.16-.59,1.98-.05.82-.1,2.26-.31,2.76-.03.08-.07.19-.1.3-.33-.13-.52-.3-.44-.45.13-.26.35-1.22.5-2.79.15-1.57.9-2.61.9-2.61,0,0-.05-.17-.43-.88-.38-.71-.79-1.25-1.6-2.05s-1.45-1.57-1.45-1.57c0,0-.25-.46-.52-.98.58.42,1.33.97,1.76,1.28.78.56,1.62,1.69,1.79,1.91.17.22,1.03,1.79,1.03,1.79l.2,1.04.31.25Z"/>
              </g>
            </g>
          </g>
          <path class="cls-1" d="M16.09,14.36s1.07,1.09,1.66,1.81c.59.72,1.13,2.02,1.13,2.02,0,0-.73-.15-1.48.18s-1.22.98-1.22,1.04-.26.79-.26.79c0,0-1.27-1.37-1.57-1.56-.3-.19-.84-.84-1.03-1.09-.19-.25-.51-1.73-.5-1.83.02-.1,3.27-1.37,3.27-1.37"/>
          <rect class="cls-4" x="6.44" y="14.66" width=".42" height="8.82" transform="translate(-.5 .18) rotate(-1.51)"/>
          <rect class="cls-4" x="5.04" y="20.04" width="7.45" height=".42" transform="translate(-13.04 16.89) rotate(-57.84)"/>
          <path class="cls-4" d="M27.93,36.63c-.05-.11-.09-.22-.13-.33l-.13-.33c-.09-.22-.17-.44-.23-.67h0s0-.03,0-.03l-.42-2.39c-.14-.8-.28-1.59-.41-2.39-.27-1.6-.53-3.19-.77-4.8l.88-.14c.28,1.6.53,3.19.78,4.79.13.8.24,1.6.36,2.4l.36,2.4v-.03c.04.23.07.47.1.7l.03.36c.01.12.03.23.03.36l-.45.11Z"/>
          <path class="cls-30" d="M28,29.11c-2.11-1.22-3.98-1.15-5.17-.06,1.19-.75,2.87-.67,4.73.4,3.6,2.08,6.53,7.12,6.53,11.26,0,1.72-.51,3.01-1.36,3.79,1.11-.7,1.8-2.12,1.8-4.12,0-4.14-2.92-9.18-6.53-11.26"/>
          <path class="cls-68" d="M31.54,32.32c-.14.01-.29-.05-.36-.17-.89-1.36-2.99-3.39-5.54-3.89-2.4-.47-4.19,2-4.33,1.94l-.12-.7c.53-.95,2.47-2.55,4.92-2.06,2.78.55,4.98,2.76,6.05,4.55-.15.19-.37.31-.61.34"/>
          <path class="cls-19" d="M31.92,31.72s.17.19.03.32c-.14.13-.33.21-.55.04s-1.27-2.07-3.26-3.27c-1.99-1.2-2.56-1.22-2.56-1.22,0,0,1.62.04,3.32,1.22,1.7,1.18,3.02,2.91,3.02,2.91"/>
          <path class="cls-68" d="M13.23,27.04c-.61-4.9-4.13-9.11-7.14-10.59-2.73-1.34-4.4.46-4.42.48l-.67.18.32-.62s1.83-2.48,5.17-.84c3.22,1.58,6.99,6.08,7.63,11.29l-.89.11Z"/>
          <path class="cls-95" d="M33.79,40.19c0-3.79-2.68-8.41-5.99-10.32-3.31-1.91-5.99-.38-5.99,3.41s2.68,8.41,5.99,10.32c3.31,1.91,5.99.38,5.99-3.41M33.28,39.9c0,3.47-2.45,4.87-5.48,3.12-3.02-1.75-5.48-5.98-5.48-9.45s2.45-4.87,5.48-3.12c3.02,1.75,5.48,5.98,5.48,9.45"/>
          <path class="cls-77" d="M34.08,40.71c0-4.14-2.92-9.18-6.53-11.26-3.61-2.08-6.53-.42-6.53,3.72s2.92,9.18,6.53,11.26c3.61,2.08,6.53.42,6.53-3.72M33.03,40.1c0,3.47-2.45,4.87-5.48,3.12-3.02-1.75-5.48-5.98-5.48-9.45s2.45-4.87,5.48-3.12c3.02,1.75,5.48,5.98,5.48,9.45"/>
          <path class="cls-57" d="M33.54,40.39c0-3.79-2.68-8.41-5.99-10.32-3.31-1.91-5.99-.38-5.99,3.41s2.68,8.41,5.99,10.32c3.31,1.91,5.99.38,5.99-3.41M33.03,40.1c0,3.47-2.45,4.87-5.48,3.12-3.02-1.75-5.48-5.98-5.48-9.45s2.45-4.87,5.48-3.12c3.02,1.75,5.48,5.98,5.48,9.45"/>
          <path class="cls-95" d="M25.62,35.41l-.15.08.15.5.55.39.18.75.49.85.7.73,1,.46.15-.08.65-.51.15-1.03-.56-1.5-.92-.99-1.08-.45-.15.08-.24.24-.92.49ZM29.08,37.25l-1.28-1.02.42-.55.59.7.27.87ZM28.32,37.52l.07-.46.69.52-.09.61-.55.39-.11-1.06ZM27.21,37.91l.54-.39h.4v.98l-.46-.14-.47-.45ZM27.19,36.15l-.49-.79.38-.23h.38l.54.23-.55.79h-.25ZM26.53,35.54l.54.88-.05,1.1-.28-.47-.21-.49v-1.02Z"/>
          <path class="cls-57" d="M25.48,35.49v.58l.55.39.18.75.49.85.7.73,1.15.38.65-.51.15-1.03-.56-1.5-.92-.99-1.08-.45-.39.32-.92.49ZM28.93,37.33l-1.28-1.02.42-.55.59.7.27.87ZM28.18,37.6l.06-.46.69.52-.09.61-.55.39-.11-1.06ZM27.07,37.99l.54-.39h.4v.98l-.46-.14-.47-.45ZM27.04,36.23l-.49-.79.38-.23h.38l.54.23-.55.79h-.25ZM26.39,35.62l.54.88-.05,1.1-.28-.47-.21-.49v-1.02Z"/>
          <path class="cls-20" d="M27.51,37.17c-.11-.08-.21-.18-.31-.27l-.31-.28-.62-.55-.07-.06-.03-.13-1.91-9.25.88-.18,1.81,9.27-.1-.19.5.66.25.33c.08.11.17.22.25.33l-.34.31Z"/>
          <g class="cls-75">
            <g class="cls-88">
              <g class="cls-60">
                <path class="cls-86" d="M26.93,35.64l-.51.09-1.76-9.16s-.01,0-.03,0l-.37.07,1.91,9.25.03.13.07.06.62.55.31.28c.1.09.2.19.31.27l.34-.31c-.08-.12-.17-.22-.25-.33l-.25-.33-.42-.55Z"/>
              </g>
            </g>
          </g>
          <path class="cls-20" d="M26.96,25.56s-.45.51-.68.57c-.12.03-.25.03-.34.02-.1,0-.17-.02-.17-.02l-.35.27s.02.09,0,.2h0c-.02.08-.07.16-.17.21-.2.11-.36.16-.51.18-.14.01-.27,0-.41-.03-.29-.06-.41-.29-.41-.29,0,0,0-.55.12-.78.03-.06.17-.19.37-.33.02-.02.05-.04.07-.05.03-.02.05-.04.08-.06.51-.37,1.2-.8,1.24-.8.01,0,.04,0,.07.02.14.04.44.16.68.32.3.2.42.59.42.59"/>
          <g class="cls-75">
            <g class="cls-16">
              <g class="cls-53">
                <path class="cls-86" d="M25.94,26.12v.04c-.1,0-.17-.02-.17-.02l-.35.27s.02.09,0,.2c-.09-.13-.19-.65-.19-.65,0,0,.35-.32.46-.32s.25.5.25.5"/>
              </g>
            </g>
          </g>
          <g class="cls-75">
            <g class="cls-7">
              <g class="cls-8">
                <path class="cls-86" d="M24.74,26.98c-.14.02-.27,0-.41-.03-.29-.06-.41-.28-.41-.28,0,0,0-.55.12-.78.03-.06.17-.19.37-.33-.19.14-.3.26-.27.33.1.24.49.18.47.36-.02.18.15.74.15.74"/>
              </g>
            </g>
          </g>
          <path class="cls-4" d="M13.79,24.85l-6.92-1.2.46-.25-.26.45-.08-.37c.55.5,1.09,1.02,1.63,1.52l1.61,1.55c1.07,1.03,2.12,2.08,3.18,3.14h.01s0,.02,0,.02c.21.25.41.5.6.76.19.26.38.53.54.82l-.43.37c-.26-.2-.5-.42-.74-.64-.23-.23-.45-.46-.67-.7l.02.02c-1.06-1.05-2.12-2.09-3.16-3.16l-1.56-1.6c-.51-.54-1.03-1.07-1.54-1.62l-.13-.14.06-.22.13-.5.08-.33.37.08,6.87,1.45-.11.55Z"/>
          <path class="cls-3" d="M2.43,24.55c0,.28.2.62.44.77.24.14.44.03.44-.25s-.2-.62-.44-.77c-.25-.14-.44-.03-.44.25"/>
          <path class="cls-72" d="M2.37,24.6c0,.28.2.62.44.77.25.14.45.03.45-.25s-.2-.62-.45-.77c-.24-.14-.44-.03-.44.25"/>
          <path class="cls-59" d="M2.43,24.64c0,.24.17.53.38.65.21.12.38.02.38-.21s-.17-.53-.38-.65c-.21-.12-.38-.02-.38.21"/>
          <path class="cls-3" d="M9.73,23.82c0,.28.2.62.44.77.25.14.45.03.45-.25s-.2-.62-.45-.77c-.24-.14-.44-.03-.44.25"/>
          <path class="cls-72" d="M9.66,23.87c0,.28.2.62.44.77.24.14.44.03.44-.25s-.2-.62-.44-.77c-.25-.14-.44-.03-.44.25"/>
          <path class="cls-59" d="M9.73,23.91c0,.24.17.53.38.65.21.12.38.02.38-.21s-.17-.53-.38-.65c-.21-.12-.38-.02-.38.21"/>
          <path class="cls-30" d="M6.97,16.97c-2.11-1.22-3.98-1.15-5.17-.06,1.19-.75,2.87-.67,4.73.4,3.6,2.08,6.53,7.12,6.53,11.26,0,1.72-.51,3.01-1.36,3.79,1.11-.7,1.8-2.12,1.8-4.12,0-4.14-2.92-9.18-6.53-11.26"/>
          <path class="cls-95" d="M12.77,28.05c0-3.79-2.68-8.41-5.99-10.32-3.31-1.91-5.99-.38-5.99,3.41s2.68,8.41,5.99,10.32c3.31,1.91,5.99.38,5.99-3.41M12.26,27.76c0,3.47-2.45,4.87-5.48,3.12-3.02-1.75-5.48-5.98-5.48-9.45s2.45-4.87,5.48-3.12c3.02,1.75,5.48,5.98,5.48,9.45"/>
          <path class="cls-77" d="M13.06,28.57c0-4.14-2.92-9.18-6.53-11.26-3.61-2.08-6.53-.42-6.53,3.72s2.92,9.18,6.53,11.26c3.61,2.08,6.53.42,6.53-3.72M12.01,27.96c0,3.47-2.45,4.87-5.48,3.12-3.02-1.75-5.48-5.98-5.48-9.45s2.45-4.87,5.48-3.12c3.02,1.75,5.48,5.98,5.48,9.45"/>
          <path class="cls-57" d="M12.51,28.25c0-3.79-2.68-8.41-5.99-10.32-3.31-1.91-5.99-.38-5.99,3.41s2.68,8.41,5.99,10.32c3.31,1.91,5.99.38,5.99-3.41M12.01,27.96c0,3.47-2.45,4.87-5.48,3.12-3.02-1.75-5.48-5.98-5.48-9.45s2.45-4.87,5.48-3.12c3.02,1.75,5.48,5.98,5.48,9.45"/>
          <polygon class="cls-41" points="5.8 22.73 6.05 22.86 6.08 22.72 6.15 22.66 6.38 22.89 6.57 22.81 6.75 23.1 6.98 23.14 7.09 23.46 7.33 23.61 7.34 23.9 7.57 24.15 7.48 24.37 7.65 24.68 7.58 24.73 7.48 24.79 7.57 25.1 7.49 25.16 7.34 25.09 7.33 25.37 7.26 25.43 7.09 25.24 6.98 25.44 6.91 25.5 6.75 25.21 6.57 25.29 6.38 25 6.15 24.96 6.05 24.64 5.8 24.49 5.79 24.2 5.57 23.95 5.65 23.73 5.41 23.48 5.48 23.43 5.65 23.31 5.49 23.05 5.57 23 5.79 23.01 5.8 22.73"/>
          <polygon class="cls-32" points="7.41 24.84 7.49 25.16 7.27 25.15 7.26 25.43 7.01 25.3 6.91 25.5 6.67 25.26 6.49 25.35 6.31 25.05 6.08 25.02 5.97 24.7 5.73 24.54 5.72 24.25 5.49 24 5.58 23.79 5.41 23.48 5.58 23.37 5.49 23.05 5.72 23.06 5.73 22.79 5.97 22.92 6.08 22.72 6.31 22.95 6.49 22.86 6.67 23.16 6.91 23.2 7.01 23.52 7.26 23.67 7.27 23.96 7.49 24.21 7.41 24.43 7.58 24.73 7.41 24.84"/>
          <polygon class="cls-41" points="5.8 23.2 5.6 23.19 5.52 23.24 5.67 23.47 5.52 23.57 5.45 23.63 5.67 23.84 5.6 24.03 5.8 24.26 5.8 24.51 6.02 24.65 6.12 24.93 6.32 24.97 6.49 25.23 6.65 25.15 6.78 25.42 6.85 25.36 6.95 25.18 7.09 25.36 7.17 25.3 7.18 25.05 7.3 25.12 7.37 25.06 7.3 24.78 7.39 24.72 7.43 24.64 7.31 24.38 7.34 24.18 7.17 23.95 7.13 23.72 6.93 23.56 6.82 23.31 6.62 23.24 6.46 23.03 6.29 23.07 6.1 22.91 6.05 22.96 5.99 23.05 5.79 22.97 5.8 22.99 5.8 23.2"/>
          <polygon class="cls-69" points="7.38 24.74 7.23 24.47 7.3 24.27 7.1 24.05 7.09 23.79 6.87 23.66 6.78 23.37 6.57 23.34 6.41 23.08 6.25 23.15 6.04 22.95 5.95 23.12 5.73 23.01 5.72 23.25 5.52 23.24 5.6 23.53 5.45 23.63 5.6 23.9 5.52 24.09 5.72 24.31 5.73 24.57 5.95 24.71 6.04 24.99 6.25 25.02 6.41 25.29 6.57 25.21 6.78 25.42 6.87 25.24 7.09 25.36 7.1 25.11 7.3 25.12 7.23 24.84 7.38 24.74"/>
          <polygon class="cls-41" points="5.82 23.38 5.64 23.37 5.57 23.42 5.71 23.61 5.58 23.7 5.51 23.76 5.71 23.94 5.64 24.11 5.82 24.3 5.83 24.53 6.02 24.65 6.1 24.89 6.28 24.92 6.42 25.15 6.56 25.09 6.67 25.32 6.75 25.27 6.83 25.11 6.95 25.27 7.02 25.21 7.03 25 7.13 25.06 7.2 25.01 7.13 24.76 7.23 24.7 7.22 24.59 7.16 24.38 7.14 24.2 7.02 23.99 6.95 23.8 6.8 23.64 6.68 23.47 6.51 23.37 6.37 23.24 6.22 23.22 6.06 23.14 6.03 23.19 5.95 23.22 5.79 23.19 5.82 23.24 5.82 23.38"/>
          <polygon class="cls-82" points="7.19 24.73 7.06 24.49 7.13 24.32 6.95 24.13 6.95 23.9 6.75 23.78 6.67 23.54 6.49 23.51 6.35 23.28 6.21 23.34 6.03 23.16 5.95 23.32 5.75 23.22 5.75 23.43 5.57 23.42 5.64 23.67 5.51 23.76 5.64 23.99 5.57 24.16 5.75 24.36 5.75 24.58 5.95 24.7 6.03 24.95 6.21 24.98 6.35 25.21 6.49 25.14 6.67 25.32 6.75 25.17 6.95 25.27 6.95 25.05 7.13 25.06 7.06 24.82 7.19 24.73"/>
          <polygon class="cls-41" points="5.82 23.56 5.67 23.55 5.59 23.61 5.72 23.76 5.61 23.84 5.54 23.89 5.72 24.04 5.67 24.19 5.82 24.35 5.82 24.55 5.99 24.65 6.06 24.86 6.21 24.89 6.33 25.08 6.45 25.03 6.54 25.24 6.61 25.18 6.68 25.05 6.77 25.19 6.84 25.14 6.85 24.95 6.93 25.01 7 24.96 6.94 24.75 7.04 24.69 6.99 24.54 6.98 24.38 6.91 24.22 6.85 24.04 6.74 23.9 6.64 23.73 6.51 23.63 6.38 23.5 6.26 23.46 6.11 23.39 6 23.37 5.99 23.43 5.88 23.41 5.77 23.42 5.82 23.49 5.82 23.56"/>
          <polygon class="cls-97" points="6.98 24.73 6.87 24.52 6.93 24.38 6.78 24.21 6.77 24.02 6.6 23.92 6.54 23.7 6.38 23.68 6.26 23.48 6.14 23.54 5.98 23.39 5.91 23.52 5.75 23.43 5.74 23.62 5.59 23.61 5.65 23.82 5.54 23.89 5.65 24.1 5.59 24.24 5.74 24.41 5.75 24.6 5.91 24.7 5.98 24.92 6.14 24.94 6.26 25.14 6.38 25.08 6.54 25.24 6.6 25.1 6.77 25.19 6.78 25.01 6.93 25.01 6.87 24.8 6.98 24.73"/>
          <polygon class="cls-41" points="6.75 24.76 6.8 24.94 6.72 24.99 6.67 24.93 6.67 25.08 6.59 25.14 6.53 25.01 6.47 25.12 6.4 25.18 6.34 24.99 6.24 25.04 6.14 24.88 6.01 24.86 5.95 24.68 5.82 24.59 5.81 24.43 5.69 24.29 5.73 24.17 5.57 24.06 5.64 24 5.73 23.94 5.61 23.82 5.69 23.77 5.81 23.77 5.74 23.67 5.82 23.62 5.95 23.69 5.94 23.64 6.01 23.58 6.14 23.71 6.24 23.66 6.34 23.83 6.47 23.85 6.53 24.02 6.67 24.11 6.67 24.27 6.8 24.41 6.75 24.53 6.84 24.7 6.75 24.76"/>
          <polygon class="cls-57" points="6.68 24.82 6.73 24.99 6.6 24.99 6.59 25.14 6.46 25.07 6.4 25.18 6.27 25.05 6.17 25.1 6.07 24.93 5.94 24.91 5.88 24.73 5.74 24.65 5.74 24.49 5.61 24.35 5.66 24.23 5.57 24.06 5.66 24 5.61 23.82 5.74 23.83 5.74 23.67 5.88 23.74 5.94 23.64 6.07 23.76 6.17 23.72 6.27 23.88 6.4 23.9 6.46 24.08 6.59 24.16 6.6 24.32 6.73 24.46 6.68 24.58 6.77 24.75 6.68 24.82"/>
          <path class="cls-41" d="M16.04,32.69l-.25-.44.12-.32-.33-.36v-.42s-.37-.22-.37-.22l-.15-.46-.34-.05-.26-.43-.26.13-.34-.34-.1.03-.05.25-.36-.19-.1.03.09.37-.33-.02-.1.03.23.43-.24.16.24.44-.12.32.33.36v.42s.37.23.37.23l.15.46.34.05.16.46.1-.03.26-.13.24.37.1-.03.15-.29.26.22.1-.03v-.4s.24.05.24.05l.1-.03-.12-.46.25-.16ZM15.51,32.39c0,.08,0,.16-.02.23l-.52-.52v-.02c0-.15-.05-.32-.13-.46l.32-.32c.21.34.35.74.35,1.1M13.55,30.68c.18-.27.52-.32.91-.09.21.12.4.3.56.51l-.32.32c-.07-.09-.15-.16-.24-.21-.16-.09-.3-.09-.4-.01l-.52-.52M13.42,31.18c0-.1.01-.19.03-.27l.51.51s0,.05,0,.07c0,.17.06.35.16.51l-.32.32c-.23-.35-.38-.77-.38-1.14M15.4,32.86c-.17.3-.53.36-.94.13-.19-.11-.37-.27-.53-.47l.32-.32c.06.07.13.13.21.17.18.1.33.09.43-.02l.51.51"/>
          <path class="cls-57" d="M15.94,32.73l-.25-.44.12-.32-.33-.36v-.42s-.37-.22-.37-.22l-.15-.46-.34-.05-.26-.43-.26.13-.34-.34-.15.29-.36-.19v.4s-.34-.02-.34-.02l.12.46-.24.16.24.44-.12.32.33.36v.42s.37.23.37.23l.15.46.34.05.26.43.26-.13.34.34.15-.29.36.19v-.4s.34.01.34.01l-.12-.46.25-.16ZM15.41,32.42c0,.08,0,.16-.02.23l-.52-.52s0-.01,0-.02c0-.15-.05-.32-.13-.46l.32-.32c.21.34.35.74.35,1.1M13.45,30.71c.18-.27.52-.32.91-.09.21.12.4.3.56.51l-.32.32c-.07-.09-.15-.16-.24-.21-.16-.09-.3-.09-.4-.01l-.52-.52M13.32,31.22c0-.1.01-.19.03-.27l.51.51s0,.05,0,.07c0,.17.06.35.16.51l-.32.32c-.23-.35-.38-.77-.38-1.14M15.3,32.89c-.17.3-.53.36-.94.13-.19-.11-.37-.27-.53-.47l.32-.32c.06.07.13.13.21.17.18.1.33.09.43-.02l.51.51"/>
          <path class="cls-52" d="M15.66,35.16l-.75-.33-1.78,1.05,1.51.87,1.78-1.05-.75-.54ZM13.94,36.04l.98-.57h.03s-.99.58-.99.58h-.02ZM14.65,36.48l-.06-.04,1.06-.62.06.05-1.07.61Z"/>
          <polygon class="cls-78" points="14.63 37.34 13.88 36.98 13.12 36.47 13.12 35.89 13.88 36.22 14.63 36.75 14.63 37.34"/>
          <polygon class="cls-47" points="16.41 35.7 14.63 36.76 14.63 37.34 16.41 36.29 16.41 35.7"/>
          <polygon class="cls-31" points="16.12 36.04 14.92 36.75 14.92 37 16.12 36.29 16.12 36.04"/>
          <polygon class="cls-78" points="15.34 35.26 14.95 35.48 14.92 35.47 13.94 36.04 13.53 35.89 14.92 35.07 15.34 35.26"/>
          <polygon class="cls-78" points="16.03 35.69 15.71 35.87 15.65 35.82 14.59 36.45 14.26 36.24 15.65 35.43 16.03 35.69"/>
          <path class="cls-57" d="M14.04,36.73c0,.13-.09.18-.2.12-.11-.07-.2-.22-.2-.35s.09-.18.2-.12c.11.07.2.22.2.35"/>
          <path class="cls-20" d="M24.7,25.04c-.07.09-.48-.07-.59-.04-.12.03-.24.05-.36.08-.24.06-.48.14-.72.24-.47.2-.9.46-1.28.79-.09.09-.19.17-.28.26-.09.09-.18.18-.27.28-.18.2-.36.42-.53.64-.35.44-.68.9-1.02,1.36-.68.93-1.32,1.89-2.05,2.82-.19.24-.38.47-.61.7-.12.12-.23.23-.44.35-.2.11-.43.16-.64.16-.42,0-.75-.15-1.04-.32-.29-.17-.53-.36-.77-.6l-.11-.1v-.17c-.05-.6-.08-1.21-.11-1.81-.02-.34-.04-.67-.05-1.01l-.11-2.79-.8-3.24c-.26-1.1-.52-2.2-.77-3.3l.23-.06.52-.13c.3,1.09.6,2.18.88,3.27l.85,3.28v.05s.01.05.01.05l.04,1.39.02.69.02.75c.02.54.03,1.07.04,1.61,0,.35.01.69.01,1.04.33.26.75.49,1.05.49.02,0,.04,0,.06,0,.08,0,.15-.03.19-.06.04-.03.13-.12.21-.21.17-.19.33-.41.49-.64.11-.16.21-.31.32-.47.13-.2.26-.4.4-.6t0,0c.13-.21.27-.42.4-.64.25-.39.49-.78.75-1.18.31-.49.63-.98.98-1.46.17-.24.35-.48.54-.72.1-.12.21-.24.31-.37.11-.12.23-.23.35-.34.48-.44,1.03-.8,1.62-1.08.3-.14.6-.25.91-.34.16-.05.31-.09.48-.11.17-.02.32-.01.54.06l.33,1.45Z"/>
          <g class="cls-75">
            <g class="cls-55">
              <g class="cls-23">
                <path class="cls-99" d="M13.99,26.93s-.05-.06-.05-.11c0-.34-.03-.67.08-1,0-.02.02-.04.03-.06l-1.7-6.48-.23.06c.25,1.1.51,2.2.78,3.3l.8,3.24.11,2.79c.01.34.03.68.05,1.02.03.03.07.04.11.04,0-.93.01-1.86.02-2.79"/>
              </g>
            </g>
          </g>
          <g class="cls-75">
            <g class="cls-24">
              <g class="cls-33">
                <path class="cls-86" d="M21.19,26.64c.09-.1.18-.18.27-.28.09-.09.19-.17.28-.26.38-.33.82-.59,1.29-.79.23-.1.47-.18.72-.24.12-.03.24-.05.36-.08.11-.04.52.13.59.04l-.16-.7c-.38,0-1.26.06-2.14.52-1.17.61-3.03,3.46-3.87,4.78-.85,1.32-1.71,2.5-2.58,2.65-.18.03-.35.15-.5.32.14.04.28.06.44.07.21,0,.43-.04.64-.16.21-.12.32-.24.44-.36.23-.23.42-.46.61-.7.73-.94,1.38-1.89,2.05-2.82.34-.46.67-.92,1.02-1.36.17-.22.35-.43.53-.64"/>
              </g>
            </g>
          </g>
          <polygon class="cls-20" points="18.02 29.18 17.75 29.88 17.49 29.77 17.48 29.77 15.13 28.84 14.69 27.87 13.82 25.96 14.09 25.89 14.62 25.75 15.68 28.26 17.89 29.13 18.02 29.18"/>
          <g class="cls-75">
            <g class="cls-66">
              <g class="cls-91">
                <path class="cls-86" d="M17.53,29.46c-.33-.12-2.27-.91-2.27-.91l-.6-1.36-.08-.18c0,.19,0,.38,0,.57l.54,1.26,2.35.93s-.03-.17.05-.31"/>
              </g>
            </g>
          </g>
          <path class="cls-20" d="M25.22,25.75c-.09.02-.17.02-.24.02-.39,0-.49-.26-.49-.26l-.64-3.51,1.22-.22.16.88.48,2.63s.05.35-.49.45"/>
          <g class="cls-75">
            <g class="cls-70">
              <g class="cls-11">
                <path class="cls-86" d="M24.43,22.59s.51,2.8.56,3.18c-.39,0-.49-.26-.49-.26l-.64-3.51,1.22-.22.16.88c-.35.07-.81-.08-.81-.08"/>
              </g>
            </g>
          </g>
          <path class="cls-81" d="M16.15,33.25c-.13.22-.47.79-1.08.79-.2,0-.42-.06-.67-.21-.91-.53-9.1-8.68-9.12-9.85,0-.4.1-.66.3-.78.29-.16.65.05.66.06l8.58,6.87c1.35.97,1.6,2.68,1.33,3.12M6.09,23.48s-.15-.07-.26-.07c-.04,0-.09,0-.12.03-.11.07-.17.25-.16.55.01.97,8.04,9.07,8.99,9.62.72.42,1.11-.01,1.4-.49.16-.27.01-1.85-1.27-2.77h0s-8.57-6.87-8.57-6.87"/>
          <polygon class="cls-20" points="13.66 24.94 5.8 24.39 6.22 24.14 5.96 24.59 5.88 24.22 12.3 30.43 12.13 30.32 14.83 31.42 14.65 31.96 11.83 31.18 11.74 31.15 11.66 31.07 5.41 24.7 5.27 24.56 5.33 24.33 5.46 23.83 5.53 23.54 5.87 23.58 13.71 24.38 13.66 24.94"/>
          <g class="cls-75">
            <g class="cls-87">
              <g class="cls-9">
                <path class="cls-86" d="M6.09,24.41l7.57.53v-.13s-7.25-.74-7.25-.74l-.34-.04-.07.29-.03.14c.1.05.2.09.31.13l-.18-.18Z"/>
              </g>
            </g>
          </g>
          <g class="cls-75">
            <g class="cls-13">
              <g class="cls-74">
                <path class="cls-86" d="M11.96,30.87l-5.72-5.82-.07-.36c-.28-.11-.56-.24-.84-.37h0s-.06.24-.06.24l.13.14,6.25,6.37.08.08.09.02,2.77.77c.04-.05.07-.09.09-.13l.04-.12-2.78-.83Z"/>
              </g>
            </g>
          </g>
          <path class="cls-20" d="M10.49,18.24c-.29.17-.66.25-1,.25-.3,0-.58-.06-.8-.19l-4.76-2.75c-.25-.14-.38-.35-.38-.58,0-.26.18-.52.49-.7l.63-.37c.54-.31,1.33-.34,1.8-.07l4.76,2.75c.25.14.38.35.38.58,0,.26-.18.52-.49.7l-.63.36ZM8.89,17.94c.34.2.98.17,1.38-.07l.63-.37c.18-.1.28-.23.28-.34s-.11-.18-.17-.22l-4.76-2.75c-.34-.2-.98-.17-1.38.07l-.63.36c-.18.1-.28.23-.28.34s.11.18.17.22l4.76,2.75Z"/>
          <g class="cls-75">
            <g class="cls-54">
              <g class="cls-6">
                <path class="cls-86" d="M11.11,17.65l-.63.36c-.29.17-.65.25-1,.25-.29,0-.58-.06-.79-.18h0s-4.74-2.74-4.74-2.74c-.24-.14-.37-.34-.38-.57-.02.07-.03.13-.03.2,0,.23.13.44.38.58l4.74,2.73h0c.22.12.5.19.79.19.35,0,.71-.08,1-.25l.63-.36c.31-.18.49-.43.49-.7h0c-.07.18-.22.36-.46.49"/>
              </g>
            </g>
          </g>
          <g class="cls-75">
            <g class="cls-17">
              <g class="cls-18">
                <path class="cls-86" d="M11.02,16.74l-4.74-2.73c-.34-.2-.97-.17-1.38.07l-.63.36c-.17.1-.28.23-.28.34,0,.03,0,.05.02.07.05-.07.13-.15.23-.21l.63-.36c.4-.23,1.03-.26,1.38-.07l4.74,2.73s.12.08.15.15c.03-.05.05-.09.05-.13,0-.1-.11-.18-.17-.22"/>
              </g>
            </g>
          </g>
          <path class="cls-20" d="M5.51,24.28l-1.17-8.71,2.44-1.35s.13-.04.27.1c.09.1,0,.22,0,.22l-2.26,1.25,1.13,8.42-.41.05Z"/>
          <g class="cls-75">
            <g class="cls-94">
              <g class="cls-27">
                <path class="cls-86" d="M5.82,24.51l-.06-.05-.04-.26-.09-.59-1.16-7.74-.1-.06h0s1.12,8.41,1.12,8.41h.07s.03.22.03.22v.08s.06.04.06.04c.04-.04.1-.06.16-.06"/>
              </g>
            </g>
          </g>
          <polygon class="cls-20" points="5.92 24.27 5.55 24.08 8.63 17.98 11.02 16.59 11.23 16.96 8.95 18.27 5.92 24.27"/>
          <g class="cls-75">
            <g class="cls-62">
              <g class="cls-28">
                <polygon class="cls-86" points="11.17 16.85 11.13 16.78 9.17 18.04 9.27 18.09 9.66 17.86 11.17 16.85"/>
              </g>
            </g>
          </g>
          <g class="cls-75">
            <g class="cls-40">
              <g class="cls-89">
                <polygon class="cls-86" points="8.88 18.38 8.66 18.29 5.88 23.94 6.04 24.26 5.93 23.87 6.3 23.51 8.88 18.38"/>
              </g>
            </g>
          </g>
          <polygon class="cls-20" points="6.57 16.95 6.34 16.6 8.54 15.15 8.91 15.21 8.77 15.49 6.57 16.95"/>
          <polygon class="cls-20" points="7.93 17.68 7.69 17.33 9.9 15.88 10.13 16.22 7.93 17.68"/>
          <g class="cls-75">
            <g class="cls-73">
              <g class="cls-10">
                <path class="cls-86" d="M8.15,17.54l1.92-1.28s.06-.08.08-.16l-2.13,1.38.13.06Z"/>
              </g>
            </g>
          </g>
          <polygon class="cls-71" points="23.91 22 26.05 22.65 26.06 21.56 23.91 21.44 23.91 22"/>
          <polygon class="cls-83" points="23.91 21.44 25.75 21.9 25.75 21.25 24.66 20.95 23.91 21.44"/>
          <path class="cls-15" d="M6.08,24.5c0,.1-.07.14-.16.09-.09-.05-.16-.18-.16-.28s.07-.14.16-.09c.09.05.16.18.16.28"/>
          <path class="cls-98" d="M15.8,30.3s-8.54-6.98-9.65-7.27c-1.1-.29-.86,1.67-.1,2.23.13.1,5.53,4.14,5.97,4.6,2.07,2.16,1.1,2.89,2.61,3.86,1.59,1.03,2.33-.34,2.24-1.35-.09-1.01-.47-1.51-1.07-2.07"/>
          <path class="cls-56" d="M15.51,30.42s-8.54-6.98-9.65-7.27c-1.1-.29-1.04,1.51-.1,2.23.13.1,5.53,4.14,5.97,4.6,2.07,2.16,1.1,2.89,2.61,3.86,1.59,1.03,2.33-.34,2.24-1.35-.09-1.01-.47-1.51-1.07-2.07"/>
          <path class="cls-29" d="M5.88,23.75s9.61,7.35,9.86,7.86c.25.51.36,1.15.1,1.51-.26.36-.83.47-1.48-.09-.65-.56-.28-1.05-.67-1.73-.39-.69-7.73-6.25-7.93-6.49-.08-.09-.26-.35-.29-.58-.03-.35.15-.67.4-.47"/>
          <path class="cls-98" d="M14.49,32.95c-.65-.56-.28-1.04-.67-1.73-.39-.68-7.73-6.25-7.93-6.49-.08-.09-.26-.35-.29-.58-.02-.19.03-.36.11-.46-.16.02-.26.26-.23.52.02.23.21.49.29.58.2.24,7.54,5.8,7.93,6.49.39.68.02,1.17.67,1.73.53.45.99.46,1.29.26-.3.12-.71.07-1.17-.33"/>
          <path class="cls-15" d="M15.27,32.31c0,.23-.16.32-.36.2-.2-.11-.36-.39-.36-.62s.16-.32.36-.2c.2.11.36.39.36.62"/>
          <path class="cls-84" d="M12.15,19.2l-1.04-3.51.58-.17,1.05,3.58c.02.06,0,.12-.03.18-.1.15-.3.19-.45.09-.06-.04-.11-.1-.13-.17"/>
          <path class="cls-38" d="M9.01,17.48c-.86-.64-.02-1.22-.02-1.22l1.29.03s1-1.06,2.01-.5c1.01.56.94,1.59,1.39,1.98.29.26.69-.05,1.03.37.19.24.44,1.5.05,1.38-.72-.23-2.12-.79-2.53-.99-.63-.3-2.35-.4-3.2-1.04"/>
          <path class="cls-79" d="M9.14,16.73c-.82-.61,1.03-1.05,1.03-1.05l.18-.09s.96-1.01,1.92-.48c.97.53.9,1.52,1.33,1.89.28.25.8.73,1.12,1.13.18.23-.22.45-.6.33-.69-.21-1.51-.55-1.9-.73-.6-.28-2.24-.39-3.05-.99"/>
          <path class="cls-21" d="M14.54,32.84s-.24.06-.35.22c-.11.16-.18.48-.13.68.04.2.59,1.13.71,1.52.12.38.26,1.11.55,1.42.29.3.56.55,1.39.54.83-.01,1.09-.18,1.14-.32.05-.15-.2-.57-.2-.57,0,0-.61-.67-.62-.7-.01-.03-.62-1.77-1.04-2.13-.42-.36-1.44-.64-1.44-.64"/>
          <path class="cls-93" d="M15.85,29.84c-.13,1.23-.09,2.39-.02,3.02.07.63.43,1.22.43,1.36s-.26.36-.4.4c-.15.04-.34.14-1.01-.26-.13-.08-.23-.17-.31-.26-.34-.41-.31-.94-.31-1.02,0-.1.11-.07.12-.76.02-.69-.75-2.55-.9-3.6-.15-1.05.46-2.15.46-2.36s-.84-2.1-1.91-3.87c-1.07-1.77-1.71-3.04-2.12-4.4-.41-1.36,0-1.89,0-1.89h3.33s.13,1.56.64,2.39c.51.83,1.09,2.28,1.5,3.36.41,1.09.81,2.19,1.01,3.03.2.84.11,1.22,0,1.92-.11.71-.41,1.71-.53,2.93"/>
          <g class="cls-75">
            <g class="cls-80">
              <g class="cls-12">
                <path class="cls-76" d="M14.55,34.1c-.34-.41-.31-.94-.31-1.02,0-.1.11-.07.12-.76.01-.69-.75-2.55-.9-3.6-.15-1.05.46-2.15.46-2.36s-.84-2.1-1.91-3.87c-1.07-1.77-1.71-3.04-2.12-4.4-.41-1.36,0-1.89,0-1.89h.22l.49.76h-.13s-.4.53.13,2.06c.53,1.53,3.77,6.48,3.83,7.06.06.57-.59,1.42-.6,2.38-.02.95.88,3.73.94,4.29,0,0-.25.66-.22,1.36"/>
              </g>
            </g>
          </g>
          <path class="cls-34" d="M9.9,16.2s-.34.37-.35.91.7,2.89,1.22,3.65c.51.76,1,1.51,1,1.51,0,0,.29-1.04,1.72-1.33,1.42-.29,1.81.31,1.81.31l-.22-1.23-.69-1.51s.4-.72.44-1.05c.03-.34-.58-2.12-.58-2.12l-1.81-.46-2.52,1.32Z"/>
          <path class="cls-46" d="M16.85,12.95c-.26.78.01,2.1.01,2.1,0,0-.07.22-.31.54-.17.24-.52.62-.85.93h0c-.12.11-.23.21-.34.29-.36.28-1.24.92-3.04,1.02-.15,0-.31.01-.47.01-1.12,0-1.82-.52-2.22-1.02-.36-.45-.48-.89-.46-.96.05-.14,1.78-1.56,2.16-2.91.15-.55.17-1.48.14-2.44-.03-1.41-.15-2.87,0-3.17.25-.49,2.1-2.01,2.85-2.37.01,0,.02-.01.03-.02.39-.18,1-.15,1.52-.08.45.07.84.17.97.21.02,0,.04.01.06.02.31.1.9.29,1.04.44h0c.15.16.13.05.31.59,0,0,0,0,0,.01.17.54.31,2.31.31,2.31,0,0,.05.43.08,1.02.03.5-.11.55-.15,1.1-.07,1.18-1.42,1.6-1.68,2.39"/>
          <path class="cls-93" d="M16.1,8.6c-1.33-.19-2.33-1.64-2.47-2.08-.14-.44-.02-.7.2-.81.21-.11.36-.29.47-.57.01-.04.03-.09.04-.16.11-.46.25-1.51.25-1.51,0,0,1.78-.89,2.16-.64.21.14.24.96.21,1.74,0,.19-.02.38-.03.55-.02.37-.05.68-.06.8-.03.42.07.5.1.72,0,.01,0,.02,0,.04.03.29.09,1.3-.88,1.93"/>
          <path class="cls-93" d="M17.46,1.13s.43.26.57.9c.15.64.15,1.17.15,1.41s-.29,2.01-.56,2.42c-.26.41-1.61-.05-2.08-.32-.48-.27-.47-.35-.57-.56-.1-.21-.49-.6-.41-1.57.09-.97.44-1.76.72-1.99.28-.23,2.18-.3,2.18-.3"/>
          <path class="cls-65" d="M17.27,1.48s-.8.11-1.09.43c-.29.32-.71.64-.82.95-.11.31-.2.63-.21.72-.01.09-.25.74-.25.74,0,0-.09-.46-.19-.58-.1-.12-.23-.16-.23-.16,0,0,0,.64,0,.87,0,.23-.08.63-.38,1.05s-.6.42-.68.45c-.08.03-.69.17-.69.17,0,0,.39-.46.46-.67.07-.21.5-1.08.56-1.16.07-.08.1-.22.1-.22,0,0-.19-.66-.27-1.04-.08-.37.06-1.43.27-1.94.22-.51,1.16-1.04,1.66-1.06.61-.18,1.17.18,1.64.5.46.32.73.82.77.92.04.1,0,.23,0,.23,0,0-.12-.2-.29-.2s-.35,0-.35,0"/>
          <path class="cls-93" d="M14.75,3.97s-.14-.5-.33-.61c-.19-.11-.48-.06-.56.2-.08.26.16.6.31.76.15.15.18.2.39.22s.25-.1.26-.13c0-.03-.07-.44-.07-.44"/>
          <path class="cls-93" d="M17.6,3.35s.29.91.27,1c-.02.1-.29.13-.4.08-.11-.05.12-.31.13-.34.01-.03-.08-.54,0-.74"/>
          <path class="cls-93" d="M17.79,2.61s-.25.11-.79.17c-.54.06-.85.11-.99.35-.15.24-.19.55-.06.67.13.12.65.4.92.36.27-.05-.22.79-.78.66-.57-.13-.76-.77-.81-1.02-.05-.24.16-.96.3-1.12.14-.16.6-.65.86-.79.25-.14.87-.16,1.07-.17.21,0,.33-.04.34.06s.12.66-.06.82"/>
          <path class="cls-93" d="M11.72,14.2l-.71-.15.47-.11.2-.38s.26-.86.3-1.25c.01-.1.07-.24.15-.39-.03.2-.07.39-.1.57-.1.59-.32,1.71-.32,1.71"/>
          <path class="cls-20" d="M25.61,24.52c-.26.14-.89.49-1.31.79.5-.37,1.2-.8,1.24-.8.01,0,.04,0,.07.01"/>
          <g class="cls-75">
            <g class="cls-2">
              <g class="cls-39">
                <path class="cls-86" d="M4.74,15.55l2.07-1.14s.05-.08.04-.13l-2.23,1.2.12.07Z"/>
              </g>
            </g>
          </g>
          <g class="cls-75">
            <g class="cls-37">
              <g class="cls-90">
                <path class="cls-86" d="M6.59,16.63l1.93-1.26s.05-.08.03-.13l-2.08,1.32.12.07Z"/>
              </g>
            </g>
          </g>
          <path class="cls-93" d="M29.12,12.32c-.02.06-.02.26-.08.3-.06.05-.07.03-.08.05-.01.02-.13.14-.16.16-.03.01-.06.02-.06.02,0,0-.05.18-.13.21-.09.03-.11.04-.11.04l-.11.15s.03.01.07.04c.07.04.18.11.2.17.02.08-.02.12-.1.17-.08.05-.49.13-.51.13-.02,0-.32,0-.32,0l-.22-.13s-.28-.43-.32-.49c-.04-.06-.14-.33-.14-.33l-.07-.12s-.3-.2-.49-.24c-.19-.04-3.06-.64-3.96-1.33-.9-.7-1.3-.54-1.81-.87-.51-.33-1.72-1.2-2.06-1.46-.14-.11-.13-.51-.02-.94.16-.58.51-1.19.94-1.14.74.1,1.29,1.17,2,1.72.71.55,1.04.84,1.53,1.09.49.25,2.47.84,3.16,1.3.69.46,1.17.75,1.3.79.13.04.32,0,.34-.03.02-.03.19-.09.29-.11.1-.02.18-.02.25-.04.08-.02.16-.11.33.15.16.26.35.7.33.76"/>
          <g class="cls-75">
            <g class="cls-5">
              <g class="cls-85">
                <path class="cls-76" d="M29.12,12.32c-.02.06-.02.26-.08.3-.06.05-.07.03-.08.05-.01.02-.13.14-.16.16-.03.01-.06.02-.06.02,0,0-.05.18-.13.21-.09.03-.11.04-.11.04l-.11.15s.03.01.07.04c-.05-.03-.45.02-.5.04-.05.02-.11.02-.21-.02-.11-.03-.12-.11-.19-.17-.07-.06-.09-.19-.1-.24,0-.04-.16-.39-.16-.39l.27.18.33.35.22.06s.12-.02.13-.03c.02,0,.12-.11.11-.14,0-.03-.5-.77-.53-.82l.62.77s.09.03.11.02c.02-.02.1-.16.09-.19,0-.03-.37-.83-.37-.83l.46.78s.08,0,.1-.01c.02-.01.05-.11.03-.14-.01-.03-.33-.81-.33-.81l.32.6s.06.12.13.1c.06-.03.12-.08.12-.08"/>
              </g>
            </g>
          </g>
          <path class="cls-42" d="M27.84,13.8s.26-.5.26-.5c0,0-.28-.12-.32-.24-.04-.12-.29-.4-.29-.4l-.13-.03-.59.88s.72.57,1.07.29"/>
          <path class="cls-46" d="M20.46,7.53c-.02.08-.1.46-.58.9-.36.33-.69.48-.95.54-.09.02-.17.03-.23.03-.27,0-1.37-2.03-1.41-2.52,0-.08,0-.18-.04-.28-.07-.25.4.33.56-.75,0-.02.07-.34.09-.33.13.03.27.09.42.16.91.47,2.07,1.66,2.1,1.83,0,0,.06.33.03.41"/>
          <path class="cls-42" d="M27.35,14.47c-.41-.09-.78-.47-.84-.84-.05-.38.23-.6.64-.51.41.09.78.47.84.84.05.37-.23.6-.64.51"/>
          <path class="cls-45" d="M27.08,13.09l.08-.12h0c.33.05.66.28.81.56l-.08.12c-.16-.28-.48-.51-.81-.56,0,0,0,0,0,0"/>
          <path class="cls-22" d="M27.84,18.53c0,.2-.02.43-.12.66-.03.06-.05.12-.09.17l-.06.08-.04.05-.17.21c-.23.28-.45.56-.67.84l-.33.43c-.11.15-.22.29-.39.39l-.08.07c-.14.05-.26.13-.38.22l-.08.03c-.15.13-.32.13-.49.17-.17.03-.34.04-.51.06-.34.04-.68.08-1.03.11-.09,0-.18.01-.26.01h-.23s-.08-.01-.11-.03c-.28-.1-.41-.26-.53-.4-.24-.3-.41-.6-.57-.91-.32-.61-.57-1.26-.87-1.82-.12-.23-.35-.38-.64-.48-.27-.1-.6-.15-.89-.16l-1.53.33-.94.2-.11-.49,2.5-.56h.03s.03,0,.03,0c.38,0,.73.06,1.08.18.18.06.36.14.52.26.16.12.32.29.41.46.34.63.58,1.24.9,1.83.16.29.32.57.51.8.09.11.21.2.26.21,0,0,.01,0,.02,0h.03s.12,0,.12,0c.08,0,.16,0,.24-.02.32-.03.65-.07.98-.13.16-.03.33-.07.49-.1.16-.02.32-.08.49-.01.08-.04.17-.08.24-.14.05-.19.14-.34.25-.48l.34-.44c.22-.29.45-.58.69-.86l.18-.21.04-.05.02-.03s.02-.04.04-.07c.04-.1.07-.25.07-.41,0-.32-.05-.67-.12-1.02-.12-.71-.32-1.42-.34-2.21,0-.2,0-.4.05-.61.04-.16.11-.61.17-.76.02-.04.03-.15.07-.17.01,0,.04-.02.07-.02.05,0,.13,0,.16,0,.05,0,.11,0,.15.02.02,0,.03.02.04.02.03.02.06.05.08.09.04.07.02.09,0,.16-.05.16-.13.65-.16.77-.03.14-.04.31-.03.47.04.67.23,1.38.38,2.1.06.3.11.6.13.92,0,.08,0,.15,0,.23"/>
          <path class="cls-57" d="M27.84,18.53c0,.2-.02.43-.12.66-.03.06-.05.12-.09.17l-.06.08-.04.05-.17.21c-.23.28-.45.56-.67.84l-.33.43c-.11.15-.22.29-.39.39l-.08.07c-.14.05-.26.13-.38.22l-.08.03c-.15.13-.32.13-.49.17-.17.03-.34.04-.51.06-.34.04-.68.08-1.03.11-.09,0-.18.01-.26.01h-.23s-.08-.01-.11-.03c-.28-.1-.41-.26-.53-.4-.24-.3-.41-.6-.57-.91-.32-.61-.57-1.26-.87-1.82-.12-.23-.35-.38-.64-.48-.27-.1-.6-.15-.89-.16l-1.53.33v-.21s1.24-.34,1.66-.31c.42.03,1.33.18,1.48.6.16.43,1.34,2.94,1.85,3.12.51.18,2.02.05,2.45-.13.43-.17.97-.56,1.19-.89.22-.33,1.03-1.18,1.31-1.78.09-.19.13-.43.14-.68,0,.08,0,.15,0,.23"/>
          <path class="cls-57" d="M27.55,19.22c.04-.1.07-.25.07-.4,0-.32-.05-.67-.12-1.02-.12-.71-.32-1.42-.34-2.2,0-.2,0-.4.05-.61.04-.16.11-.61.17-.76.01-.04.03-.15.07-.17.01,0,.04-.01.07-.02,0,0-.24,1.12-.24,1.49s.39,1.66.47,2.13c.08.47.19,1.29-.25,1.66l.02-.03s.02-.04.04-.07"/>
          <path class="cls-22" d="M27.18,16.85h0s-.02.03-.02.03l-5.2,3.47-.13-.2-.14-.21,5.2-3.46s.22-.06.27.01c.03.05.05.1.06.14h0c.03.12,0,.2-.03.23"/>
          <path class="cls-57" d="M27.21,16.61h0s-.01.11-.03.23h0s-.02.03-.02.03l-5.08,3.38s-.04-.16-.11-.22l5.24-3.42h0Z"/>
          <g class="cls-51">
            <path class="cls-45" d="M17.46,17.89c-.11.04-2.19.73-2.65.62-.06.02-.09.14-.07.33.03.28.15.61.27.73.04.04.07.05.09.04.34-.33,2.49-.76,2.6-.79-.02,0-.05,0-.08-.04-.1-.1-.2-.38-.23-.62-.02-.16,0-.26.06-.28"/>
            <path class="cls-45" d="M17.4,18.17c-.02-.16,0-.26.06-.28-.11.04-2.19.73-2.65.62-.06.02-.09.14-.07.33,0,.05.01.1.02.15.02,0,.05-.02.07-.03,0,0,2.57-.64,2.59-.64-.01-.05-.02-.1-.02-.15"/>
            <path class="cls-45" d="M17.71,18.82s-.05,0-.08-.04c-.04-.04-.09-.12-.13-.22,0,0-.02,0-.03,0l-2.6.75c.04.11.1.19.15.24.04.04.07.05.09.04.34-.33,2.49-.77,2.6-.79"/>
            <path class="cls-63" d="M14.84,18.77q.66-.11,2.56-.65c0-.13.02-.22.06-.23-.11.04-2.18.73-2.65.62-.05.02-.08.12-.07.28.02,0,.06,0,.08-.01,0,0,.01,0,.02,0"/>
            <path class="cls-63" d="M17.71,18.82s-.05,0-.08-.04c0-.01-.02-.02-.03-.04,0,0-.02,0-.03,0-2.24.49-2.59.76-2.59.76.01.02.03.03.04.04.04.04.07.05.09.04.34-.33,2.49-.77,2.6-.79"/>
            <path class="cls-67" d="M15.21,19.13c.2-.07.39-.16.6-.23-.07,0-.15-.01-.22,0l-.58.11c-.1.03-.14.07-.16.09-.02.02-.01.06,0,.08.05.08.21.02.36-.04"/>
          </g>
          <g class="cls-58">
            <path class="cls-67" d="M17.71,18.82c-.37.08-2.23.47-2.57.77.33-.32,2.48-.76,2.6-.79,0,0-.02.01-.03.01"/>
            <path class="cls-67" d="M17.73,18.81s-.02.01-.03.01c0,0-.02,0-.03,0-.02,0-.04,0-.06.01l-.08.02s-.07.02-.11.02l-.12.03s-.1.02-.14.03l-.15.04s-.12.03-.16.04l-.17.04c-.05.01-.12.03-.18.05l-.18.05c-.05.01-.12.03-.18.05l-.17.05s-.12.04-.17.05l-.15.05s-.1.04-.14.05l-.12.05s-.08.04-.11.05l-.07.04s-.05.03-.07.05c.33-.32,2.48-.76,2.6-.79"/>
            <path class="cls-45" d="M17.73,18.81s-.02.01-.03.01c0,0-.02,0-.03,0-.02,0-.04,0-.06.01l-.08.02s-.07.02-.11.02l-.12.03s-.1.02-.14.03l-.15.04s-.12.03-.16.04l-.17.04c-.05.01-.12.03-.18.05l-.18.05c-.05.01-.12.03-.18.05l-.17.05s-.12.04-.17.05l-.15.05s-.1.04-.14.05l-.12.05s-.08.04-.11.05l-.07.04s-.05.03-.07.05c.33-.32,2.48-.76,2.6-.79"/>
            <path class="cls-63" d="M17.73,18.81s-.02.01-.03.01c0,0-.02,0-.03,0-.02,0-.04,0-.06.01l-.08.02s-.07.02-.11.02l-.12.03s-.1.02-.14.03l-.15.04s-.12.03-.16.04l-.17.04c-.05.01-.12.03-.18.05l-.18.05c-.05.01-.12.03-.18.05l-.17.05s-.12.04-.17.05l-.15.05s-.1.04-.14.05l-.12.05s-.08.04-.11.05l-.07.04s-.05.03-.07.05c.33-.32,2.48-.76,2.6-.79"/>
          </g>
          <g class="cls-25">
            <path class="cls-67" d="M14.85,18.51c.45.12,2.53-.58,2.64-.62.02,0,.04.02.06.04-.11.04-2.21.72-2.63.63-.02-.02-.05-.04-.06-.04"/>
            <path class="cls-67" d="M17.49,17.89s.03.02.05.04c-.11.04-2.21.72-2.63.63-.02-.02-.05-.04-.07-.04.45.11,2.53-.58,2.64-.62"/>
            <path class="cls-45" d="M17.49,17.89s.03.02.05.04c-.11.04-2.21.72-2.63.63-.02-.02-.05-.04-.07-.04.45.11,2.53-.58,2.64-.62"/>
            <path class="cls-63" d="M17.49,17.89s.03.02.05.04c-.11.04-2.21.72-2.63.63-.02-.02-.05-.04-.07-.04.45.11,2.53-.58,2.64-.62"/>
          </g>
          <g class="cls-26">
            <path class="cls-67" d="M14.37,19.05c-.03-.31.08-.64.48-.54.02,0,.04.02.06.04-.5-.12-.47.61-.47.65,0-.04-.02-.77.47-.65.12.12.24.45.27.73.02.16,0,.27-.04.32-.46.41-.74-.27-.77-.54"/>
            <path class="cls-67" d="M14.91,18.55c.12.12.24.45.27.73.02.16,0,.28-.04.32-.02.01-.04.03-.05.05-.06.04-.08.05-.15.07h-.05s-.06,0-.09,0h-.04s-.05-.03-.06-.05l-.03-.02s-.03-.03-.05-.04l-.03-.03s-.02-.03-.03-.04l-.02-.03s-.02-.02-.02-.04l-.02-.03s-.01-.02-.02-.03v-.03s-.02-.02-.03-.03v-.02s-.02-.02-.02-.03v-.02s-.01-.02-.02-.02v-.02s-.01-.02-.01-.02v-.02s-.01-.02-.01-.02v-.02s0-.02,0-.03v-.03s0-.02,0-.03v-.03s0-.03,0-.04v-.03s0-.03,0-.04v-.04s0-.03,0-.04v-.04s.02-.04.02-.05v-.04s.03-.04.04-.05l.03-.04s.03-.04.05-.05l.04-.03s.06-.03.09-.03h.06c.08,0,.09,0,.15,0,.02,0,.04.02.07.04-.5-.12-.47.61-.47.65,0-.04-.02-.77.47-.65"/>
            <path class="cls-45" d="M14.91,18.55c.12.12.24.45.27.73.02.16,0,.28-.04.32-.02.01-.04.03-.05.05-.06.04-.08.05-.15.07h-.05s-.06,0-.09,0h-.04s-.05-.03-.06-.05l-.03-.02s-.03-.03-.05-.04l-.03-.03s-.02-.03-.03-.04l-.02-.03s-.02-.02-.02-.04l-.02-.03s-.01-.02-.02-.03v-.03s-.02-.02-.03-.03v-.02s-.02-.02-.02-.03v-.02s-.01-.02-.02-.02v-.02s-.01-.02-.01-.02v-.02s-.01-.02-.01-.02v-.02s0-.02,0-.03v-.03s0-.02,0-.03v-.03s0-.03,0-.04v-.03s0-.03,0-.04v-.04s0-.03,0-.04v-.04s.02-.04.02-.05v-.04s.03-.04.04-.05l.03-.04s.03-.04.05-.05l.04-.03s.06-.03.09-.03h.06c.08,0,.09,0,.15,0,.02,0,.04.02.07.04-.5-.12-.47.61-.47.65,0-.04-.02-.77.47-.65"/>
            <path class="cls-63" d="M14.91,18.55s.05.06.08.11c-.02,0-.04-.02-.06-.03-.46-.16-.24.38-.17.55.18.41.31.21.42.05,0,.01,0,.03,0,.04.02.16,0,.28-.04.32-.02.01-.04.03-.05.05-.06.04-.08.05-.15.07h-.05s-.06,0-.09,0h-.04s-.05-.03-.06-.05l-.03-.02s-.03-.03-.05-.04l-.03-.03s-.02-.03-.03-.04l-.02-.03s-.02-.02-.02-.04l-.02-.03s-.01-.02-.02-.03v-.03s-.02-.02-.03-.03v-.02s-.02-.02-.02-.03v-.02s-.01-.02-.02-.02v-.02s-.01-.02-.01-.02v-.02s-.01-.02-.01-.02v-.02s0-.02,0-.03v-.03s0-.02,0-.03v-.03s0-.03,0-.04v-.03s0-.03,0-.04v-.04s0-.03,0-.04v-.04s.02-.04.02-.05v-.04s.03-.04.04-.05l.03-.04s.03-.04.05-.05l.04-.03s.06-.03.09-.03h.06c.08,0,.09,0,.15,0,.02,0,.04.02.07.04-.5-.12-.47.61-.47.65,0-.04-.02-.77.47-.65"/>
            <path class="cls-45" d="M14.91,18.82c.09.05.11.18.12.22,0,.06-.04.16-.06.17-.06.03-.11-.07-.14-.12-.06-.12-.04-.25-.04-.25,0-.02.03-.04.05-.05.02,0,.05.02.06.03"/>
            <path class="cls-67" d="M14.93,18.98s.02.09,0,.1c0,0-.02,0-.02,0-.02-.02-.04-.05-.04-.07,0-.02.02-.04.02-.06,0,.01.03.03.03.04"/>
          </g>
          <path class="cls-63" d="M17.52,19.04l-.27-.26c.1.1.16-.02.14-.25-.02-.24-.13-.51-.23-.62l.21-.38c.18.18.36.66.4,1.07.04.41-.07.6-.24.44"/>
          <path class="cls-93" d="M17.41,19.01s-.22.38-.23.4c0,.02-.06.07-.16.06-.02,0-.04,0-.06,0-.14-.03-.1-.16-.1-.16l-.18-.04s-.04.07-.1.09c-.06.02-.16-.02-.22-.03-.06,0-.23.04-.23.04,0,0-.2.07-.31.03-.12-.04-.22-.2-.16-.24.06-.04.04-.17.04-.17,0,0-.29-.3-.41-.32-.12-.03-.38.05-.45.02-.07-.02-.19-.11-.83-.5-.64-.4-1.7-.9-2.36-1.38-.65-.49-1.5-1.19-1.75-1.7-.25-.51-.06-1.62.17-3.06.17-1.12.39-2.05.47-2.4.02-.1.03-.15.03-.15l1.69-.1s.08,1.37.05,1.52c-.02.11-.1.55-.17,1.01-.03.2-.06.39-.09.57-.1.59-.32,1.71-.32,1.71,0,0,.67.81.88,1.08.18.23,1.55,1.44,2.21,1.95,0,0,0,0,0,0,.14.1.24.17.3.2.2.1.5.1.75.08.03,0,.05,0,.05,0,0,0,0,0,0,0,.16-.01.3-.03.36-.04.15-.02.41-.07.6.02.19.09.43.55.43.55,0,0,.14.33.15.35,0,.03-.03.56-.04.6"/>
          <g class="cls-75">
            <g class="cls-100">
              <g class="cls-48">
                <path class="cls-76" d="M14.81,17.78s.05-.51.01-.54c.14.1.24.17.3.2.2.1.5.1.75.08-.16.01-.65.06-.66.09,0,.03-.4.17-.4.17"/>
              </g>
            </g>
          </g>
          <g class="cls-75">
            <g class="cls-50">
              <g class="cls-14">
                <path class="cls-76" d="M17.24,19.15s-.2.08-.24.2c-.01.03,0,.08.02.12-.02,0-.04,0-.06,0-.14-.04-.1-.16-.1-.16l-.18-.03s-.04.07-.1.09c-.06.02-.16-.02-.22-.03-.06,0-.23.04-.23.04,0,0-.2.07-.32.03-.12-.04-.22-.2-.16-.24.06-.04.04-.17.04-.17,0,0-.29-.3-.41-.32-.12-.03-.38.04-.45.02-.07-.02-.19-.11-.83-.5-.64-.4-1.7-.9-2.36-1.38-.65-.49-1.5-1.19-1.75-1.7-.25-.51-.06-1.62.17-3.06.17-1.12.38-2.05.47-2.4.1.07.21.16.32.25,0,0-.24.7-.47,1.62-.23.92-.48,2.43-.39,3.01.1.58.21.68.56,1.02.35.35,1.42,1.32,2.4,1.86.98.54,1.49.87,1.67.91.18.05.33.02.55.07.21.05.54.32.57.38.03.06.18.43.18.43,0,0,.25.11.3.07.06-.05.11-.15.11-.15l-.28-.82c.05.14.34.86.4.89.07.04.21-.04.21-.04l-.2-1.06c.02.06.35,1.01.36,1.04,0,.02.14,0,.2-.02.06-.03.12-.12.12-.12l-.34-.98.43.87.1-.06s-.07.32-.08.37"/>
              </g>
            </g>
          </g>
          <path class="cls-46" d="M13.04,9.65s.33-1.14.21-1.67-.42-1.11-.85-1.22-.91,0-1.33.63c-.42.62-1.15,2.61-1.15,2.61l.44.36.04-.19s.69.24,1.07.48c.39.24.78.54.78.54l-.05.28s.35-.32.37-.42c.02-.1.46-1.41.46-1.41"/>
          <path class="cls-36" d="M10.71,13.78c-.78.02-.78,0-.78,0l-.05.23s.74.19,1.1.15c.35-.04.85-.28.85-.28l.08-.32c-.03.08-.49.22-1.19.23"/>
          <path class="cls-36" d="M10.63,14.82c-.75.07-.75.18-.75.18l.03.23s.78,0,1.1-.12c.32-.12.93-.63.93-.63l-.19-.23c0,.09-.43.51-1.13.57"/>
          <path class="cls-36" d="M22.28,8.97s.11.45-.19.88c-.31.43-.74.63-.74.63l.38.13s.1-.05.5-.48c.4-.44.31-1.02.31-1.02l-.24-.15Z"/>
          <path class="cls-36" d="M23.02,9.45s.12.27-.07.68c-.2.4-.74.76-.74.76l.28.2s.59-.44.76-.76c.17-.32.08-.73.08-.73l-.31-.14Z"/>
          <path class="cls-36" d="M9.75,13.46s-.31.35-.35.73c-.04.38.14,1.09.35,1.22.21.13.36.09.36.09,0,0,0-.25-.05-.54-.04-.29-.03-1.39-.03-1.39l-.28-.11Z"/>
          <polygon class="cls-71" points="25.5 21.77 25.8 22.54 25.99 22.77 26.26 20.39 25.5 20.89 25.5 21.77"/>
          <polygon class="cls-61" points="26.01 22.72 26.75 22.23 26.57 20.5 25.82 20.98 26.01 22.72"/>
          <polygon class="cls-64" points="26.26 20.39 26.57 20.5 25.8 20.99 25.5 20.89 26.26 20.39"/>
        </g>
      </g>
    </g>
  </g>
</svg>