<?xml version="1.0" encoding="UTF-8"?>
<svg id="Calque_2" xmlns="http://www.w3.org/2000/svg" viewBox="0 0 29.42 48.47">
  <defs>
    <style>
      .cls-1 {
        fill: #9fc5e9;
      }

      .cls-2 {
        fill: #f08c8d;
        fill-rule: evenodd;
      }

      .cls-3 {
        fill: #8fa2d3;
      }

      .cls-4 {
        fill: #e6effa;
      }

      .cls-5 {
        fill: #f3a4a6;
      }

      .cls-6 {
        fill: #6b374f;
      }

      .cls-7 {
        fill: #f08b8d;
      }

      .cls-8 {
        fill: #b5664a;
      }

      .cls-9 {
        fill: #656da4;
      }

      .cls-10 {
        fill: #6a374f;
      }

      .cls-11 {
        fill: #605a91;
      }

      .cls-12 {
        fill: #f4ab9d;
      }

      .cls-13 {
        fill: #bdc7e3;
      }

      .cls-14 {
        fill: #f4a99d;
      }

      .cls-15 {
        fill: #e2e4f4;
      }

      .cls-16 {
        fill: #795354;
      }

      .cls-17 {
        fill: #7f8ec6;
      }
    </style>
  </defs>
  <g id="_Éléments_Mise_en_page" data-name="Éléments_Mise_en_page">
    <g>
      <path class="cls-13" d="M7.94,20.04s-.05-.04-.07-.06c-.53-.48-.63-1.21-.23-1.63,1.45-1.54,2.69-3.27,3.69-5.12.68-1.27,1.13-2.47,1.51-3.85.17-.61.35-1.25.78-1.71s1.18-.7,1.71-.35c.36.24.53.71.53,1.14-.03,1.99-1.49,4.52-2.42,6.23-1.06,1.96-2.37,3.78-3.9,5.4-.38.4-1.09.38-1.61-.05"/>
      <path class="cls-2" d="M5.88,20.35c.47-.48,1.22-.87,1.71-.83.65.05.47.58.41,1-.07.43-.27.84-.32,1.27,0-.02-2.46.42-1.43-.71-.51.56-.87-.21-.38-.72"/>
      <path class="cls-15" d="M4.05,24.68c.05.02.1,0,.12-.06.5-1.4,1.59-3.01,2.55-3.27.27-.07.45-.05.54.07.2.26.17,1.13.12,1.86,0,.09.04.19.11.21.07.03.13-.02.13-.11.08-1.28.02-1.88-.22-2.19-.22-.29-.53-.25-.78-.18-1.05.29-2.17,1.97-2.68,3.4-.03.08,0,.18.06.24.01.01.03.02.04.02"/>
      <polygon class="cls-17" points="2.38 38.23 11.63 32.67 11 22.13 2.52 26.24 2.38 38.23"/>
      <polygon class="cls-11" points="11 22.13 9.55 21.54 1.16 25.7 2.63 26.24 11 22.13"/>
      <polygon class="cls-1" points="1.16 25.7 0 36.58 2.44 38.33 2.63 26.24 1.16 25.7"/>
      <path class="cls-15" d="M5.27,26.2c.08.02.14-.04.13-.13-.08-2.52.4-4.27,1.26-4.56.37-.13.71.14.93.38.56.62.96,1.8,1.01,2.94,0,.09.07.18.13.2.07.01.12-.05.11-.14-.05-1.27-.5-2.54-1.13-3.25-.38-.42-.79-.59-1.16-.46-.96.33-1.48,2.14-1.4,4.84,0,.09.05.17.11.19"/>
      <path class="cls-2" d="M7.18,20.85l-.35-.29c-.26-.22-.3-.61-.08-.87l.54-.65c.22-.26.61-.3.87-.08l.35.29c.26.22.3.61.08.87l-.54.65c-.22.26-.61.3-.87.08"/>
      <path class="cls-12" d="M7.65,21.56c.37-.12.23-.72-.07-.88-.4-.21-.59.1-.77.34-.13.17-.5.59-.25.74.23.14,1.12.02,1.16-.2-.03,0-.07,0-.1,0h.04Z"/>
      <path class="cls-17" d="M13.59,44.22s-.63,2.29-.86,3.86c-.04.3.3.51.54.32.36-.28.78-.96,1.39-1.84,1.22-1.74.73-3.01.73-3.01l-1.81.67Z"/>
      <path class="cls-5" d="M13.04,40.04l-.22-1.7c.76.1,1.51.19,2.27.24l.03.49c.06,1.1.12,2.19.18,3.29.03.5.19,1.25.09,1.75-.19.89-1.17,1.92-1.72,2.54-.98,1.11-.01-2.04-.06-2.43,0,0-.55-4.18-.55-4.18"/>
      <path class="cls-8" d="M24.06,39.38s.07.04.11.06l-.22-.24c.01.05.03.1.06.14,0,.01.02.02.02.03,0,0,.02,0,.02,0,0,0,0,0,0,0"/>
      <path class="cls-17" d="M24.89,42.12s0,0,0,0c.03.25.03.75.22.94.19.19.53-.08.69-.25.17-.17.29-.38.38-.6.18-.62.28-1.3.3-1.93.02-.47,0-.98-.17-1.41-.19-.48-.5-.51-.78-.83-.05-.06-.12-.11-.19-.16l.12.13s-.08-.04-.12-.07c-.05-.03-.09-.07-.12-.12-.16-.06-.34-.07-.5-.02-.12.04-.23.12-.3.24-.18.31-.03.72.08,1.06.3.9.35,2,.38,3.01"/>
      <path class="cls-5" d="M23.55,39.03l.59.09c-.18-.13-.39-.15-.59-.09"/>
      <path class="cls-5" d="M23.53,39.03s0,0,0,0h-.03s.01,0,.02,0"/>
      <path class="cls-5" d="M25.95,39.42c-.03-1.9-4-5.1-3.24-5.29.17-.04-.36-.56-.36-.56-.66.51-1.34.99-2.03,1.45l1.08,1.26,1.25,1.35c.15-.05.33-.03.46.13.43.52.84,1.05,1.19,1.63l.07.08c.19.22.28.45.33.69.27.61.42,1.24.49,1.89.23.27.41.07.63-.81.15-.59.14-1.21.13-1.82"/>
      <path class="cls-5" d="M15.61,43.16v-.02s0,0,0,0c0,0,0,0,0,.01"/>
      <path class="cls-11" d="M23.77,39.47c.12-.03.25-.01.35.06.08-.02.16-.07.23-.12.71-.49.91-1.13.84-1.83l-4.49-6.86s.7-5.75,1.13-9.06c-.17-1.07-.36-2.15-.71-3.18-.14-.41-.31-.8-.52-1.16-.87-.91-1.88-1.68-2.97-2.33-2.17-.12-4.03.8-4.9,2.89-.08.19-.15.39-.21.6-.51,1.71-.74,3.74-.68,5.51.06,1.98-.17,3.69-.1,5.67.16,4.85.9,7.58,1.54,12.38.02.15.05.31.15.4.08.07.19.07.3.07.64-.01,1.58-.08,1.95-.68.09-.14.15-.3.19-.47l-.34-9.43s1.44-9.19,1.44-9.19c-.23,1.48-.13,4.41-.1,5.94.03,1.72,0,1.59.46,3.19.76,2.58,4.25,6.01,6.32,7.5.05.03.09.06.14.09"/>
      <path class="cls-11" d="M12.59,18.63v-.02s0,.01,0,.02h0Z"/>
      <path class="cls-16" d="M13.48,5.5s0,0,0,0c0-.02,0-.04,0-.05,0,.01,0,.03-.01.04"/>
      <path class="cls-13" d="M20.75,10.1l-.41,1.56-.98,4.72c-.09.32-.29.58-.57.72-.74.37-2.54.56-4.68-.36-.33-.14-.58-.45-.65-.83l-.67-3.5v-.07c-.12-.54-.04-1.11.21-1.59l.78-1.51v-.81c0-.96.84-1.65,1.68-1.38l.29.1.47.16,2.05.72.6.21,1.17.41c.55.19.86.84.7,1.45"/>
      <path class="cls-15" d="M20.75,10.1l-.41,1.56c-.21.26-.41.51-.62.77-.43.54-.89,1.1-1.49,1.39-1.01.47-2.16.09-3.18-.35-.63-.27-1.26-.55-1.87-.86-.12-.06-.25-.12-.38-.2v-.07c-.12-.54-.04-1.11.21-1.59l.78-1.51v-.81c0-.96.84-1.65,1.68-1.38l.29.1.47.16,2.05.72.6.21,1.17.41c.55.19.86.84.7,1.45"/>
      <path class="cls-7" d="M18.88,8.24c-.29.48-.69.9-1.11,1.27-.32.28-.65.55-1.06.68-.4.13-.87.1-1.2-.16-.26-.22-.39-.57-.41-.91-.02-.34.07-.68.19-1.01.12-.34.28-.67.47-.97l.47.16,2.05.72.6.21Z"/>
      <path class="cls-4" d="M12.13,11.82l.02.05s-.01,0-.02,0c0-.02,0-.04,0-.05"/>
      <path class="cls-3" d="M22.94,18.56l-.68-.13c-.11-.07-.27-.06-.44.04l-3.77,2.17c-.34.2-.62.68-.62,1.07v2.94c0,.12.03.22.08.29v.16s.9.16.9.16l.11-.53,3.29-1.9c.34-.2.62-.68.62-1.07v-2.82l.5-.39Z"/>
      <path class="cls-9" d="M18.01,21.14c-.01-.46-.3-11.27,1.44-12.54.2-.14.42-.18.65-.09,2.33.83,2.79,10.22,2.81,10.62h-.29s-.12-2.43-.5-4.92c-.51-3.24-1.24-5.12-2.11-5.43-.14-.05-.26-.03-.38.06-1.34.98-1.41,9.21-1.32,12.29h-.29Z"/>
      <path class="cls-15" d="M23.2,15.12c-.03-.08-.06-.17-.08-.25,0-.01,0-.03-.01-.04-.02-.07-.05-.14-.07-.21-.02-.05-.04-.11-.06-.16-.06-.18-.12-.36-.19-.53-.62-1.71-.67-2.32-1.55-3.89,0-.01-.77-.87-.78-.88-.01.13-.04.06-.21.11-.96.31-.94,1.3-.92,2.17.57,1.31.95,2.65,1.42,4.08-1.26,1.18-2.35,2.35-3.72,3.32-.16.25-.28.52-.39.79-.01.48.2.91.77.96.47.04.96-.11,1.41-.34,1.02-.71,2-1.47,2.94-2.29.21-.19.42-.38.63-.57.03-.02.05-.05.08-.07.01,0,.02-.02.03-.03.06-.06.13-.12.19-.18.54-.51.74-1.29.51-1.99"/>
      <path class="cls-5" d="M17.43,20.78c.12-.13.26-.22.44-.33.39-.26.46-.64.1-1.03-.17-.19-.26-.33-.49-.35-.11-.01-.23-.04-.33-.01-.1.03-.2.19-.31.24-.21.1-.41.19-.58.36-.15.16-.35.29-.4.52-.09.4-.11.8-.18,1.19-.05.27-.03.66.29.79.6.24,1.09-.74,1.28-1.12.06-.11.12-.19.19-.27"/>
      <path class="cls-17" d="M22.66,23.01l-3.77,2.17c-.34.2-.62.04-.62-.36v-2.94c0-.39.28-.87.62-1.07l3.77-2.17c.34-.2.62-.04.62.36v2.94c0,.39-.28.87-.62,1.07"/>
      <path class="cls-10" d="M23.04,7.15c1.15-.52,2.15-1.37,2.72-2.48.25-.49.42-1.02.72-1.47.55-.83,1.46-1.32,2.31-1.84.32-.2.68-.49.63-.86-.06-.43-.65-.58-1.05-.43-.41.15-.73.48-1.13.65-.89.4-1.94-.02-2.91.13-1.08.17-1.92,1.01-2.92,1.44-2.72,1.16-6.05-1.96-7.36,2.19-.24.75-.37,1.45-.26,2.22,3.14-.01,5.48,1.8,8.67.69.2-.07.39-.15.58-.23"/>
      <path class="cls-6" d="M18.68,4.74c-.5,1.22-1.98,2.22-3.29,2.57-2.38.62-2.14-3.27-1.39-4.66.35-.65,1.01-1.13,1.73-1.26.73-.14,1.51.07,2.07.55,1.09.93,1.24,1.92.88,2.8"/>
      <path class="cls-16" d="M13.82,4.9s0,0,0,0c0-.01,0-.03,0-.04,0,.01,0,.03-.01.04"/>
      <path class="cls-7" d="M17.43,8.95c.35-.31.79-.53,1.24-.64-.02-.13-.05-.23-.18-.35l-.37-.71-1.08-2.43-1.63.3.24,2.24c-.1.16-.14.35-.1.55.1.6.83,1.06,1.63,1.04.08,0,.16,0,.24,0"/>
      <path class="cls-14" d="M16.4,4.53c.3-.08.58-.22.82-.41,0,.21,0,.41,0,.44,0,1.13-.73,2.51-1.83,2.24-.78-.19-1.08-1.1-1.08-2.24v-.11c.65.28,1.42.26,2.09.09"/>
      <path class="cls-14" d="M16.21,3.48v1.34h-.51l-.04-.17c.12-.03.43-1.11.55-1.17"/>
    </g>
  </g>
</svg>