<?xml version="1.0" encoding="UTF-8"?>
<svg id="uuid-3d81d505-45a0-428f-bc23-17eeca2f8343" data-name="Calque_2" xmlns="http://www.w3.org/2000/svg" viewBox="0 0 46.28 79.51">
  <defs>
    <style>
      .uuid-71ce0a73-f560-4495-81a8-edb2ad066a96 {
        fill: #f1c200;
      }

      .uuid-99c61e6e-c598-4826-a26e-24b61e0535cd {
        fill: #ce5117;
      }

      .uuid-9620f493-2d3f-46ed-ac7b-bfede1491e43 {
        fill: #009d4a;
      }

      .uuid-0fae6190-5a87-4fc7-949d-db7374aa6672 {
        fill: #352142;
      }

      .uuid-4c8b242a-30bc-453b-bb96-d4e4dd7c0736 {
        fill: #f3aac6;
      }

      .uuid-526c3c0c-ae52-4fc2-a898-bdcc615c4ce0 {
        fill: #302879;
      }

      .uuid-a65ae9c2-33cd-47b8-9837-b2de9a80a060 {
        fill: #356893;
      }

      .uuid-963411d8-6709-4783-8ce3-77d20b380fb5 {
        fill: #ce5216;
      }
    </style>
  </defs>
  <g id="uuid-4d5ede04-2633-4ccc-b82f-446198d0463f" data-name="Les_personnages">
    <g id="uuid-46a4225d-52fb-43a8-b338-5fe047b59287" data-name="Chara_x5F_Famille_x5F_BD">
      <path class="uuid-4c8b242a-30bc-453b-bb96-d4e4dd7c0736" d="M30.27,39.79c-.82.68-1.74,1.5-2.57,2.39-.47-1.49-2.24-7.99-4.42-7.72-.76.09-1.16,1.07-.97,1.8.17.66,1.29,1.1,1.17.69.63,2.18,1.13,4.11,2.08,6.21.2.43.42.83.66,1.18-.07,1.06,1.23,1.96,2.23,1.14,1.74-1.42,3.36-3.78,3.89-5.54-.67-.27-1.45-.34-2.07-.15"/>
      <path class="uuid-526c3c0c-ae52-4fc2-a898-bdcc615c4ce0" d="M36.09,72.81c-.04-.05-.12-.1-.18-.12-.05-.02-.17-.06-.22-.06-.07,0-.15,0-.22,0-.02,0-.04,0-.07,0-.34-.04-.95.05-1.15.31-.02.02-.03.04-.04.06,0,0,.32,0,.31,0-.12.04-.25.05-.37.04-.09.56.29,1.12.22,1.7-.06.49-.45.85-.61,1.27-.68,1.82,1.6,0,2.07-.37.35-.27.53-.67.46-1.07l-.06-1.5-.07-.05c-.05-.05-.02-.16-.07-.21"/>
      <path class="uuid-526c3c0c-ae52-4fc2-a898-bdcc615c4ce0" d="M34.14,73.01s.03.02.04.03c0,0,0-.02.01-.03h-.05Z"/>
      <path class="uuid-526c3c0c-ae52-4fc2-a898-bdcc615c4ce0" d="M41.18,74.96s.03.02.04.03c0,0,0-.02.01-.03h-.05Z"/>
      <path class="uuid-526c3c0c-ae52-4fc2-a898-bdcc615c4ce0" d="M43.19,74.98c-.05-.05-.02-.16-.07-.21-.04-.05-.12-.1-.18-.12-.05-.02-.17-.06-.22-.06-.07,0-.15,0-.22,0-.02,0-.04,0-.07,0-.43-.04-.9.04-1.19.37.09,0,.22,0,.32.01-.95.24-.1,1.7-.4,2.4-.2.45-1.12,1.07-.71,1.65.85,1.2,2.92-1.63,2.88-2.47l-.07-1.5-.06-.05Z"/>
      <path class="uuid-4c8b242a-30bc-453b-bb96-d4e4dd7c0736" d="M43.68,55.04c-2.3.28-4.58.29-6.92.37-1.52.05-3.04.04-4.55.08-1.24.04-.79.65-.7,1.45.21,2.05-.57,4.11-.35,6.17.19,1.82-.27,3.77,1.2,6.65l1.23,2.71c.12.3.23.59.32.89.13.18.31.33.57.39.6.13,1.45-.14,1.69-.61.01-.02.02-.05.04-.07,0-.09-.53-4.85-.63-5.82-.02-.14-.03-.29-.05-.44.05-1.06.55-3.28.9-5.59l1.36.46c-.12.76-.1,2.84-.09,3.59.03,1.29.45,2.37,1.13,3.95v.02l1.78,5.18c.12.29.23.59.32.89.13.18.31.33.58.39.6.13,1.45-.14,1.69-.61.01-.02.03-.05.04-.07-.01-.09-.53-4.85-.63-5.82-.02-.14-.04-1.61-.05-1.77.09-1.85,1.53-5.89,1.24-9.16l.02-.23s-.1-2.2-.15-3.03"/>
      <path class="uuid-526c3c0c-ae52-4fc2-a898-bdcc615c4ce0" d="M43.39,56.99c-2.02-1.98-8.3-.39-11.56-.72-.48,2.37-.76,5.26-.58,7.61.12.16-.05-.22,0,0,.39,1.52,3.62,1.72,4.16,1.52,1.29-.49,1.09-2.81,1.53-4.16.15-.02.24.15.42.2-.03,1.78-.92,3.85.78,4.7.92.46,2.43.7,3.69.19.89-.35,1.58-1.82,1.75-2.76.39-2.22,1.02-5.39-.18-6.57"/>
      <path class="uuid-4c8b242a-30bc-453b-bb96-d4e4dd7c0736" d="M42.55,51.24c.07,1.57.47,3.17.78,4.69.12.56,1.46,7.38,2.29,7.17,1.2-.31.42-3.33.35-4.09-.06-.65-.08-1.36-.11-2.09-.07-2.12.28-4.48-.62-6.48-.83.44-1.76.74-2.7.81"/>
      <path class="uuid-9620f493-2d3f-46ed-ac7b-bfede1491e43" d="M45.31,49.76c0-3.95-2.51-7.54-6.44-9.51-.63-.31-1.39-.69-2.21-1.02-2.31-.93-5.11-.6-7.16.69-.84.52-1.09,1.6-.63,2.48.33.63.32,1.52.25,2.31-.03.37.38.62.69.42.22-.14.43-.27.65-.41.35,2.04.95,4.06.74,6.17-.14,1.45-.21,4.06,0,5.24.21,1.15.46,1.47,1.71,1.9,2.77.95,4.91,2.85,9.02,1.82,3.5-.88,1.35-3.88,1.39-5.84.05-2.21,1.5-1.79,1.46-1.96.63.45.51-1.52.51-2.29"/>
      <path class="uuid-4c8b242a-30bc-453b-bb96-d4e4dd7c0736" d="M36.41,41.32h0c-.87,0-1.58-.71-1.58-1.58v-2.3c0-.87.71-1.58,1.58-1.58s1.58.71,1.58,1.58v2.3c0,.87-.71,1.58-1.58,1.58"/>
      <path class="uuid-4c8b242a-30bc-453b-bb96-d4e4dd7c0736" d="M34.39,34.55c-.88.69-1.4,1.77-.82,2.76.6,1.03,2.74.67,3.68.29,1.48-.61,1.35-2.46.24-3.36-.86-.7-2.18-.41-3.1.32"/>
      <path class="uuid-526c3c0c-ae52-4fc2-a898-bdcc615c4ce0" d="M39.54,34.57c-.22-.66-.63-1.24-1.22-1.55-.9-.47-1.81,0-2.66-.23-.78-.2-1.61-.61-1.8.48-.37,2.12,2.25,2,3.45,2.32.03,0,.21,1.81.45,2.05.72.75,1.3-.09,1.66-.78.34-.64.37-1.52.12-2.29"/>
      <path class="uuid-4c8b242a-30bc-453b-bb96-d4e4dd7c0736" d="M37.09,36.8c-.07-.22.12-.48.35-.52.23-.04.47.11.57.32.1.21.09.47,0,.68-.03.08-.08.16-.15.22-.2.16-.52.06-.67-.15-.15-.21-.18-.48-.2-.74l.11.18Z"/>
      <path class="uuid-99c61e6e-c598-4826-a26e-24b61e0535cd" d="M33.96,27.55c-1,.65-5.2-1.91-2.59-2.52.62-.14,1.24.13,1.72.51.44.34,1.6,1.25.95,1.94-.02.03-.05.05-.08.07"/>
      <path class="uuid-99c61e6e-c598-4826-a26e-24b61e0535cd" d="M26.55,25.42c-1,.05-2.12.1-3.1-.12-.55-.12-1.14-.69-1.69-.65-.14-2.59,0-5.45-.87-7.83-.45-1.21-1.73-2.92-2.93-3.5-2.2-1.06-3.64,1.41-3.2,3.5.64,3.07,2.32,10.53,5.85,11.52,2.94.82,5.66.11,8.61-.64.65-.16,2.65-.5,3.16-1.25.16-.24.18-.52-.06-.85-.77-1.09-4.45-.25-5.78-.18"/>
      <path class="uuid-99c61e6e-c598-4826-a26e-24b61e0535cd" d="M16.61,6.89c-1.02-2.01-3.7-.45-4.41,1.1-.51,1.11.07,2.17.87,2.81.98.79,2.63,1.62,3.49.21.65-1.08.62-3,.05-4.12"/>
      <path class="uuid-99c61e6e-c598-4826-a26e-24b61e0535cd" d="M11.21,14.31c.05.05.11.11.16.16.1.1.21.19.32.27.6.06,1.21.14,1.81.23.41.06.84,0,1.19-.24.2-.13.35-.29.43-.49.14-.33,0-.76-.02-1.11-.02-.54.02-1.1,0-1.65-.01-.6,0-1.18-.04-1.78,0-.23.02-.51-.13-.71-.37-.52-1.48-.29-1.97-.22-.53.08-1.73.06-1.99.67-.13.29-.02.68,0,.97.08,1.28.14,2.57.23,3.89"/>
      <path class="uuid-0fae6190-5a87-4fc7-949d-db7374aa6672" d="M16.02,5.8c-.45-.53-.94-.96-1.33-1.11-1-.41-2.22-.36-3.24-.04-1.32.41-1.29.67-1.61,1.82-.35,1.26-.71,3.17.35,4.21,1.78,1.75,1.6-1.17,2.99-1.67,1.29-.46,2.52,1.34,3.64.1.73-.81.06-2.27-.81-3.3"/>
      <path class="uuid-99c61e6e-c598-4826-a26e-24b61e0535cd" d="M12.18,9.38c.34.49.31,1.09-.06,1.34-.37.26-.94.07-1.28-.42-.34-.49-.31-1.09.06-1.34.37-.26.94-.07,1.28.42"/>
      <path class="uuid-0fae6190-5a87-4fc7-949d-db7374aa6672" d="M11.08,6.19c-1.51,0-3.41.46-4.05-1.27-.36-.98-.62-3.25.12-4.09,3.08-3.43,6.33,4.72,3.93,5.35"/>
      <path class="uuid-a65ae9c2-33cd-47b8-9837-b2de9a80a060" d="M.01,76.42c-.05.71.08,1.54.29,2.17.71.08,1.06-.31,1.08-1.03-.03,1.09,1.36,1.87,2.31,1.94,1.61.13.68-.78.19-1.58-.55-.88-.94-2.27-1.92-2.74-1.36-.64-1.87.15-1.94,1.23"/>
      <path class="uuid-a65ae9c2-33cd-47b8-9837-b2de9a80a060" d="M13.04,72.41c-.05.71.08,1.54.29,2.17.71.08,1.06-.31,1.08-1.03-.03,1.09,1.36,1.87,2.31,1.94,1.61.13.68-.78.19-1.58-.55-.88-.94-2.27-1.92-2.74-1.36-.64-1.87.15-1.94,1.23"/>
      <path class="uuid-963411d8-6709-4783-8ce3-77d20b380fb5" d="M11.22,54.26l-.02-.18-.45.04.45-.08-.05-.61-.56.21c-1.63.62-3.28,1.21-4.87,1.79l-1.11.4.1.41c.29,1.23.78,2.36,1.25,3.52.63,1.58.61,1.2-.12,2.51-2.17,3.88-3.7,6.77-4.82,11.08-.29,1.12-1.24,4.16,1.03,2.92,1.07-.59,2.16-3.06,2.83-4.08,1.11-1.68,2.29-3.32,3.27-5.07,2.4-4.29,3.68-7.91,3.1-12.87"/>
      <path class="uuid-963411d8-6709-4783-8ce3-77d20b380fb5" d="M13.85,56.08c.06.32.06,1.47-.58,5.52-.22,1.39-.46,2.85-.58,4.49v.04s0,.03,0,.03c0,.02,0,.03,0,.04.08.6.23,3.81.75,5.71.67.42.94.89,1.82.24.05-.03.09-.06.14-.09.37-1.3,1.19-3.73,1.41-4.89.52-2.78,1.05-5.81,1.63-9.27.3-1.8.57-3.54.58-5.18,0-.49-.02-.98-.08-1.52l-.07-.74-.67.3c-1.77.78-3.66,1.56-5.78,2.36l-.76.29.57.58c1.43,1.47,1.61,1.96,1.63,2.07"/>
      <path class="uuid-71ce0a73-f560-4495-81a8-edb2ad066a96" d="M22.6,45.66s-.02-.06-.03-.09c-2.11-5.31-3.35-10.91-3.54-16.62-.02-.59-.04-1.14-.07-1.66.11-.51.22-1.03.34-1.54.25-1.51.52-3.06.66-4.58-.14-.92-.37-1.84-.7-2.73-.65-1.78-1.69-3.35-2.93-4.74-2.32,1.38-4.81,2.34-7.38,3.24-.64.63-1.24,1.29-1.83,1.9-.53.55-.75,1.08-1.26,1.62-.51,1.3-.77,2.65-1.1,4.36-.3,1.56-.31,3.11-.31,4.74,0,5.58-1.39,11.4-2.08,16.94-.31,2.51-1.15,4.94-1.1,7.5.07,3.67,2.39,4.18,5.48,5.4,1.14.05,2.31.06,3.45.03,1.03.34,2.05.69,3.24.86,3.31.46,6.18-1.33,8.61-3.36.74-.62,1.85-1.47,2.13-2.48.69-2.48-.67-6.52-1.56-8.78"/>
      <path class="uuid-99c61e6e-c598-4826-a26e-24b61e0535cd" d="M16.11,12.55c-2.19-.38-5.01,1.16-6.61,2.22-1.99,1.32-4.66,3.8-4.82,6.41-.25,4.08,3.91.96,5.38.03,2.25-1.41,11.16-3.03,8.13-7.34-.55-.78-1.27-1.18-2.08-1.32"/>
      <path class="uuid-99c61e6e-c598-4826-a26e-24b61e0535cd" d="M14.73,39.98c-1.17.28-4.26-3.54-1.6-3.24.63.07,1.12.54,1.45,1.06.3.47,1.09,1.71.25,2.15-.03.02-.07.03-.1.04"/>
      <path class="uuid-99c61e6e-c598-4826-a26e-24b61e0535cd" d="M8.96,33.69c-1.02-.68-1.94-1.44-2.74-2.27-.75-.78,1.36-4.89,1.67-5.72.69-1.87,2.63-5.56,1.25-7.36-1.42-1.85-3.85-.05-4.53,1.42-1.32,2.85-4.41,9.84-2.16,12.74,1.87,2.42,4.48,3.46,7.3,4.61.62.25,2.43,1.18,3.28.88.27-.09.45-.31.46-.72.03-1.33-3.42-2.85-4.53-3.58"/>
    </g>
  </g>
</svg>