<?xml version="1.0" encoding="UTF-8"?>
<svg id="uuid-478c049b-ba90-4cc6-9c91-fe94ef5ccda6" data-name="Calque_2" xmlns="http://www.w3.org/2000/svg" viewBox="0 0 81.86 75.21">
  <defs>
    <style>
      .uuid-c22238ed-ca4f-4a79-9a2b-f6fb7bb6981f {
        fill: #fff;
      }

      .uuid-d3717e42-1e44-4bb3-bba4-d8a6b370ac04 {
        fill: #f4c900;
      }

      .uuid-938d0745-3bd5-4017-88ce-0ef7dd189ee8 {
        fill: #ebeef8;
      }

      .uuid-27059b1c-6d47-4c06-ba01-9662255208f3 {
        fill: #f4cf00;
      }

      .uuid-4069f6d0-4757-4cf7-88ca-f261cf0f7e69 {
        fill: #243268;
      }

      .uuid-8e038d5c-956c-4621-bb0b-3581d787cac4 {
        fill: #e84f0e;
      }

      .uuid-a6b3c1e0-cf4c-41a8-b5e1-1bc91e24ca5c {
        fill: #1f2f57;
      }

      .uuid-5e3fc720-7fe1-40ed-9c00-1b6c3afbd11e {
        fill: #1397d5;
      }
    </style>
  </defs>
  <g id="uuid-1be794e8-6cb7-422d-b689-b6d8126caa91" data-name="Les_personnages">
    <g id="uuid-12561cce-1d6d-4292-ad24-4253ac22e96d" data-name="Chara_x5F_Famille_x5F_BD">
      <path class="uuid-d3717e42-1e44-4bb3-bba4-d8a6b370ac04" d="M13.14,68.22c-.02.58-.85.1-1.14-.03-.32-.14-.73-.31-.89-.62,0,0-.01,0-.02,0,0-.02,0-.04,0-.06,0,0,0-.02-.01-.03-.01,0-.02,0-.03,0,0-.06-.01-.12-.02-.18-.02-.17-.04-.34-.07-.5,0-.04,0-.08-.02-.12h0s0,0,0,0c-.06-.43-.12-.87-.19-1.31-.1-.64-.21-1.28-.33-1.92-.15-.84-.31-1.68-.48-2.52-.18-.9-.36-1.8-.55-2.71-.05-.22-.09-.44-.14-.67,0-.89,0-1.78-.02-2.68.1,0,.21-.01.31-.02.02,0,.23.01.22,0,.17.02.34.06.51.1.02,0,.03,0,.04,0,.01,0,.02,0,.04.02.07.03.14.06.22.09.44.2.87.42,1.3.64,0,.03,0,.07,0,.1.01.15.07.34.16.51,0,.04.01.08.02.12,0,.07.02.15.03.22.03.26.06.52.09.78.02.24.04.47.06.71,0,.05,0,.09.01.14.02.21.03.41.05.62,0,.02,0,.05,0,.07.02.38.04.76.06,1.14,0,.11,0,.22.01.33h0c.02.63.04,1.26.05,1.88,0,.9,0,1.8,0,2.71,0,.66,0,1.31,0,1.96v.05s.02.04.03.06c.16.29.72.76.72,1.1"/>
      <path class="uuid-d3717e42-1e44-4bb3-bba4-d8a6b370ac04" d="M7.88,56.45c-.04.14-.04.34,0,.52,0,.04-.02.08-.02.12-.02.07-.03.14-.05.21-.06.25-.12.5-.18.74-.06.23-.12.45-.18.67-.01.04-.02.09-.04.13-.06.2-.11.39-.17.58,0,.02-.01.05-.02.07-.11.35-.22.71-.33,1.06-.03.1-.07.21-.11.31-.19.58-.4,1.16-.61,1.73-.3.82-.62,1.64-.93,2.46-.25.64-.77,1.4-.93,2.12,0,0,0,0,0,0-.04.17-.05.33-.04.49.02.41.56,1.61-.44,1.16-.37-.17-1.25-1.49-.89-1.89.02-.08.03-.15.05-.22.01-.05.02-.1.04-.16.13-.62.26-1.24.38-1.87.12-.62.22-1.25.33-1.88.13-.82.26-1.65.38-2.48.13-.89.25-1.78.36-2.67.04-.33.08-.65.12-.97.08-.6.16-1.2.24-1.8.05-.15.09-.31.14-.47.14.03.28.07.42.11.13.04.27.08.4.13.02,0,.22.1.22.1.17.09.33.19.5.29.02,0,.03.02.04.02.01,0,.02.02.04.03.06.06.13.11.19.17.4.35.76.73,1.13,1.1-.01.03-.03.06-.03.1"/>
      <path class="uuid-27059b1c-6d47-4c06-ba01-9662255208f3" d="M13.14,68.22c-.02.58-.85.1-1.14-.03-.32-.14-.73-.31-.89-.62,0,0-.01,0-.02,0,0-.02,0-.04,0-.06,0,0,0-.02-.01-.03-.01,0-.02,0-.03,0,0-.06-.01-.12-.02-.18-.02-.17-.04-.34-.07-.5.32.23.7.39,1.1.35.16-.02.26-.07.34-.14v.05s.02.04.03.06c.16.29.72.76.72,1.1"/>
      <path class="uuid-27059b1c-6d47-4c06-ba01-9662255208f3" d="M3.82,68.82c-.38-.17-1.25-1.49-.89-1.89.01-.08.03-.15.05-.22.35.61.9,1.48,1.32.47-.04.17-.05.33-.04.49.03.41.56,1.61-.44,1.16"/>
      <path class="uuid-d3717e42-1e44-4bb3-bba4-d8a6b370ac04" d="M15.37,41.57l-.03.84-.1,3.11c-.01.35-.23.72-.58.98,0,0-3.46,2.68-3.6,2.87,0,0-.01,0-.02,0h0c-.07.02-.15.05-.22.07-.07.02-.17.04-.22.05-.08,0-.17,0-.23.01-.03,0-.06,0-.08-.01,0,0,0,0,0,0,.02,0,0-.02-.1-.03-.08-.04-.16-.09-.24-.13,0,0-.01,0-.02-.01-.07-.06-.08-.07-.07-.06,0,0-.02-.02-.03-.03-.09-.08-.18-.17-.26-.26-.23-.25-.44-.52-.64-.8l4.06-2.48c.28-.17.5-.42.62-.68l.76-2.7.18-.65c.06-.17.24-.32.43-.35,0,0,0,0,0,0,.23-.04.41.09.4.28"/>
      <path class="uuid-4069f6d0-4757-4cf7-88ca-f261cf0f7e69" d="M6.97,46.52l-.68,2.31c-.38,1.28-1.72,2.01-2.99,1.63l.68-2.31c.38-1.28,1.72-2.01,2.99-1.63"/>
      <path class="uuid-938d0745-3bd5-4017-88ce-0ef7dd189ee8" d="M13.76,58.02c-.48-2.58-1.13-5.07-1.85-7.61-.02-.06-.03-.12-.05-.18-.24-.83-.36-1.76-.83-2.5-.62-.98-1.77-.56-2.66-.12-1.31.65-3.44.27-3.75,1.9l-.02,1.45-1.45,7.56c-.17.26-.26.53-.26.82,0,1.48,2.46,2.68,5.49,2.68,1.47,0,3.32-.19,4.52-1.2.76-.64,1.08-1.61.9-2.57-.01-.08-.03-.16-.04-.24"/>
      <path class="uuid-d3717e42-1e44-4bb3-bba4-d8a6b370ac04" d="M8.45,48.69h0c.61.04,1.14-.42,1.19-1.03l.27-3.97-2.22-.15-.27,3.97c-.04.61.42,1.14,1.03,1.19"/>
      <path class="uuid-d3717e42-1e44-4bb3-bba4-d8a6b370ac04" d="M9.29,46.88s-.01,0-.02,0c-.91.28-1.85-.4-1.96-1.37l-.15-1.33s3.3-1.17,3.33-1.17c-.02-.46.2,2.25.16,2.4-.19.87-.72,1.26-1.37,1.46"/>
      <path class="uuid-4069f6d0-4757-4cf7-88ca-f261cf0f7e69" d="M11.02,42.61c-.02-.14-.07-.27-.13-.39-.42-.76-.79-.36-1.53-.05-1.74.72-3.16,1.2-2.94,3.34.07.59.5,1.1,1.05,1.28.34-.11.38-.51.37-.89-.09-.31-.14-.62-.01-1,.2-.62.72-1.08,1.33-1.28.58-.19.95-.05,1.36.41.41-.29.6-.9.51-1.41"/>
      <path class="uuid-d3717e42-1e44-4bb3-bba4-d8a6b370ac04" d="M8.21,45.34c.04.37-.23.7-.6.74-.37.04-.7-.23-.74-.6-.04-.37.22-.7.6-.74.37-.04.7.23.74.6"/>
      <path class="uuid-d3717e42-1e44-4bb3-bba4-d8a6b370ac04" d="M.4,42.6l.03.84.1,3.11c.01.35.23.72.58.98,0,0,3.46,2.68,3.6,2.87,0,0,.01,0,.02,0h0c.07.02.15.05.22.07.07.02.17.04.22.05.08,0,.17,0,.23.01.03,0,.06,0,.08-.01,0,0,0,0,0,0-.02,0,0-.02.1-.03.08-.04.16-.09.24-.13,0,0,.01,0,.02-.01.07-.06.08-.07.07-.06,0,0,.02-.02.03-.03.09-.08.18-.17.26-.26.11-.11.21-.31.3-.51.18-.37.03-.81-.33-1l-3.39-1.78c-.28-.17-.5-.42-.62-.68l-.76-2.7-.18-.65c-.06-.17-.24-.32-.43-.35,0,0,0,0,0,0-.23-.04-.41.09-.4.28"/>
      <path class="uuid-d3717e42-1e44-4bb3-bba4-d8a6b370ac04" d="M0,43.33c.02.24.12.48.29.61.83.65,1.09-1.35.39-1.46-.5-.08-.72.4-.68.85"/>
      <path class="uuid-d3717e42-1e44-4bb3-bba4-d8a6b370ac04" d="M73.37,51.45s-.06,0-.09,0c.03,0,.06,0,.09,0"/>
      <path class="uuid-d3717e42-1e44-4bb3-bba4-d8a6b370ac04" d="M73.9,51.51c-.06,0-.13-.01-.19-.02.06,0,.13.01.19.02"/>
      <path class="uuid-d3717e42-1e44-4bb3-bba4-d8a6b370ac04" d="M71.23,51.4s-.07,0-.11,0c.03,0,.07,0,.11,0"/>
      <path class="uuid-d3717e42-1e44-4bb3-bba4-d8a6b370ac04" d="M70.69,51.43h0c.04.55.09,1.09.13,1.63,0-.06-.05-.68-.13-1.63"/>
      <path class="uuid-d3717e42-1e44-4bb3-bba4-d8a6b370ac04" d="M81.86,69.43c-.01-.08-.26-.54-.63-1.2.37.65.62,1.12.63,1.2"/>
      <path class="uuid-d3717e42-1e44-4bb3-bba4-d8a6b370ac04" d="M78.86,71.73c.15.07.31.06.45,0-.14.07-.31.07-.45,0-.13-.06-.22-.17-.27-.29.05.12.14.23.27.29"/>
      <path class="uuid-d3717e42-1e44-4bb3-bba4-d8a6b370ac04" d="M79.55,69.43c-.08-.1-.17-.19-.25-.29.08.1.17.2.25.29Z"/>
      <path class="uuid-d3717e42-1e44-4bb3-bba4-d8a6b370ac04" d="M79.34,67.71c-.16.22-.42.76-.41,1.09l-1.42-1.61c-.05-.28.05-.59.3-.78l.87-.66c.41-.31,1-.19,1.26.25.2.35.43.73.61,1.05-.02-.01-.05-.02-.07-.03-.41-.11-.92.39-1.13.69"/>
      <path class="uuid-4069f6d0-4757-4cf7-88ca-f261cf0f7e69" d="M79.55,69.51l-.62-.71c0-.33.26-.87.41-1.09.21-.3.72-.8,1.13-.69.02,0,.05.02.07.03.24.1.51.38.72.69.18.26.32.53.37.72.18.71-.19,1.48-.4,2.14-.11.35-.57,2.07-1.23,1.6-.48-.34-.17-1.25-.15-1.72h0c.02-.36-.08-.7-.32-.97"/>
      <path class="uuid-d3717e42-1e44-4bb3-bba4-d8a6b370ac04" d="M67.38,69.9c.94.05,1.88.18,2.82.27,0,.75,0,1.49,0,2.23,0,.44.02.88.03,1.32h0c-.82-.21-1.62-.46-2.4-.77-.01-.1-.03-.19-.04-.29-.13-.92-.27-1.84-.41-2.75"/>
      <path class="uuid-5e3fc720-7fe1-40ed-9c00-1b6c3afbd11e" d="M77.19,61.52c-.05-.09-.1-.17-.14-.25-.04-1.31-.34-3.19-.63-4.77-1.72.57-3.68.61-5.44.51-1.5-.08-3.12-.26-4.58-.75l-.1.55c-.17-.04-.34-.09-.5-.14,0,.07,0,.14.01.21.02.37.05.73.08,1.1,0,.04,0,.09,0,.13.02.19.03.38.05.57l-.07.38.11.05c.03.34.06.68.1,1.02.02.2.04.4.07.59.12,1.11.25,2.22.4,3.32.15,1.15.4,3.36.62,5.09.08.61.15,1.16.21,1.58,0,.04,0,.07.01.11h.31s1.54.08,1.54.08c.51-.07.89-.24,1.14-.4,0-.64-.03-1.56-.05-2.45-.02-1.02-.04-2.02-.02-2.57.03-.7-.02-1.42,0-2.13.01-.41.06-.78.15-1.19.13-.64.23-1.27.31-1.9.63-.04,1.19-.15,1.68-.31.66,1.83,1.38,3.77,1.48,3.9,1.43,1.8,2.43,2.02,3.97,3.73.43-.83,1.13-1.44,2.07-1.5-.99-1.7-2.04-3.45-2.23-3.71-.21-.29-.39-.57-.56-.85"/>
      <path class="uuid-8e038d5c-956c-4621-bb0b-3581d787cac4" d="M51.55,11.61c.18-1.2.65-1.12,1.23-1.33,1.37-.49,3.24,1.73,3.72,3.59.61,2.36.65,3.72,1.11,6.09.11.54.96,1.33,1.28,1.77.92,1.27,1.83,2.54,2.75,3.81.88,1.21,1.78,2.46,2.47,3.81.07.05.14.1.2.17.44.41.65.91.46,1.11-.05.05-.11.08-.19.08.28,1.38-.06,2.66-1.94,1.01-.66-.58-1.06-1.4-1.65-2.05-2.93-3.19-6.28-6.3-7.99-10.37-.96-2.29-1.83-5.2-1.45-7.69"/>
      <path class="uuid-8e038d5c-956c-4621-bb0b-3581d787cac4" d="M61.79,31.32s0,0,0-.02v.02"/>
      <path class="uuid-8e038d5c-956c-4621-bb0b-3581d787cac4" d="M39.15,56.28c.15-2.53.49-5.08.86-7.57.21-1.45.44-2.88.63-4.28-.48-2.39-.68-5.3-.77-7.73,1.77-.73,3.53-1.49,5.28-2.29.02,0,.04-.02.06-.02.46-.21.92-.42,1.38-.63.32-.15.63-.29.95-.44.6-.28,1.2-.56,1.8-.84,1.06-.48,2.12-.97,3.17-1.47.31,3.46.47,6.94.56,10.39.05,2-.23,4.07-.6,6.13-.41,2.33-.93,4.66-1.19,6.9,0,.01,0,.02,0,.04-.7,3.61-1.26,6.84-1.26,6.84l.58,1.29c-.37.33-1.31.13-1.86-.15-.56-.29-1.1-.74-1.54-1.25-.11-.51-.17-1.02-.21-1.53-.12-1.27-.07-2.5-.19-3.76-.32-3.34-.2-6.71-.06-10.07-.65,3.62-2.12,7.29-2.93,10.81-.46,2.01-.89,4.03-1.38,5.98-.04.17-.08.33-.11.49-.07.41,0,.92.13,1.47-.39,1.24-1.84-.27-3.05-1.52-.02-.14-.04-.29-.06-.44-.01-.11-.03-.22-.04-.33-.23-1.98-.25-4-.12-6.03"/>
      <path class="uuid-27059b1c-6d47-4c06-ba01-9662255208f3" d="M48.71,62.46c.55.28,1.49.49,1.86.15l.27.6.86,1.9c.06.22.1.44.11.65.02.33-.38.49-.61.25-.3-.33-.67-.61-1.05-.88-.77-.76-1.63-1.61-2.38-2.35-.05-.05-.1-.1-.15-.15-.21-.46-.35-.94-.46-1.43.44.51.98.96,1.54,1.25"/>
      <path class="uuid-27059b1c-6d47-4c06-ba01-9662255208f3" d="M42.42,64.6c.05.23.12.47.18.71.01.05.03.1.04.16,0,.03.01.06.02.08.23.85.47,1.71.44,2.41-.01.33-.44.44-.63.18-.73-.98-1.55-2.09-2.35-3.15-.12-.16-.23-.31-.35-.46-.14-.18-.24-.39-.28-.62h0c-.05-.28-.1-.56-.13-.84,1.2,1.24,2.66,2.76,3.05,1.52"/>
      <path class="uuid-27059b1c-6d47-4c06-ba01-9662255208f3" d="M36.93,32.96c.69-3.21,1.65-8.31,4.08-9.61,2.13-1.14,9.55-.7,11.3,1.06,2.29,2.31,1.75,6.49,2.66,9.36.55,1.73,1.27,3.33.4,4.92-1.67,3.08-6.47,4.46-9.71,4.62-2.48.12-7.38-.8-8.82-3.08-1.11-1.77-.74-3.97-.25-5.84.11-.41.22-.89.33-1.44"/>
      <path class="uuid-938d0745-3bd5-4017-88ce-0ef7dd189ee8" d="M41.45,25.17s-.03-.02-.05-.04c-1.68-1.29-.97-3.47-.84-5.29.22-2.95-.44-5.21,1.9-7.53,1.66-1.65,4.41-2.45,6.7-2.44,1.71,0,3.48-.23,4.64.77,1.85,1.6,2.11,6.48,1.11,8.58-.84,1.76-3.04,5.38-5,6.03-2.07.69-6.49,1.39-8.47-.07"/>
      <path class="uuid-c22238ed-ca4f-4a79-9a2b-f6fb7bb6981f" d="M50.26,9.18c-1.8-.27-3.92.75-3.39,2.84.4,1.57,2.26,2.15,3.1.56.31.18.84.45,1.24.38.75-.13,1.15-1.11.89-2.18-.23-.96-.99-1.47-1.84-1.6"/>
      <path class="uuid-938d0745-3bd5-4017-88ce-0ef7dd189ee8" d="M51.16,29.96s.08-.05.13-.04c.06-.01.13-.02.21-.01.24,0,.49.08.74.21.39.19.78.48,1.04.79.02.02.04.04.06.05.26.26.52.72.16.98-.07.1-.16.19-.3.25-.4.17-.98-.03-1.32-.26-.02-.01-.04-.03-.06-.04-.17-.09-.32-.21-.46-.33-.24-.16-.44-.36-.49-.56-.02-.07-.02-.12,0-.18-.1-.36-.03-.73.3-.86"/>
      <path class="uuid-938d0745-3bd5-4017-88ce-0ef7dd189ee8" d="M42.83,28.27c.21-.55.72-1.23,1.3-1.24.75-.02.52,1.1.36,1.54-.1.3-.36.69-.68.93-.12.16-.27.3-.47.35-.46.13-.63-.17-.66-.54-.12-.31-.02-.74.14-1.04"/>
      <path class="uuid-938d0745-3bd5-4017-88ce-0ef7dd189ee8" d="M44.45,38.3s.02-.02.03-.03c.04-.04.08-.09.12-.13.11-.13.25-.27.4-.4.32-.3.77-.6,1.09-.24.49.21.16.86-.04,1.18-.22.35-.48.71-.82.95-.02.01-.04.03-.06.04-.21.25-.45.44-.76.5-.15.09-.32.15-.51.14-.11,0-.21-.07-.24-.18-.16-.7.37-1.33.79-1.83"/>
      <path class="uuid-938d0745-3bd5-4017-88ce-0ef7dd189ee8" d="M38.82,35.76c-.05-.13.06-.25.17-.29.22-.09.41-.02.56.13.02.01.03.02.05.03.1.08.18.18.25.29.13.22.33.48.29.75-.07.41-.48.38-.74.18-.16-.13-.27-.29-.34-.46-.05-.08-.08-.17-.1-.27-.04-.11-.08-.23-.12-.35"/>
      <path class="uuid-8e038d5c-956c-4621-bb0b-3581d787cac4" d="M52.64,8.01l-1.12,2.85c-.32.83-1.19,1.31-2.06,1.15-1.23-.23-1.88-1.58-1.3-2.68l1.19-2.25,3.3.94Z"/>
      <path class="uuid-a6b3c1e0-cf4c-41a8-b5e1-1bc91e24ca5c" d="M46.52,1.31c.15-.3.4-.59.76-.87,1.52-1.16,4.07.14,3.2,2.12,1.21-.54,2.78.25,3.48,1.22,2.03,2.85-1.13,6.57-4.17,4.59-1.42-.92-1.88-2.39-1.82-3.96-1.46.23-1.99-2.04-1.45-3.1"/>
      <path class="uuid-8e038d5c-956c-4621-bb0b-3581d787cac4" d="M53.29,5.04c.26.24.48.54.63.9.43,1.08.02,2.37-.94,2.97-.51.32-1.07.41-1.6.31-.7-.13-1.33-.6-1.66-1.32-.01-.03-.02-.05-.03-.08,1.54-.43,2.85-1.32,3.61-2.78"/>
      <path class="uuid-8e038d5c-956c-4621-bb0b-3581d787cac4" d="M48.97,7.5c-.06-.13-.1-.26-.11-.39-.02-.15-.02-.3.02-.45.02-.09.13-.16.23-.18.89-.18,1.59.85,1.73,1.4.08.29.02.68-.4.77-.2.04-.38,0-.53-.08-.13-.05-.24-.12-.34-.21-.07-.05-.14-.1-.19-.15-.16-.15-.22-.31-.3-.49-.02-.04-.04-.08-.06-.12,0-.01,0-.03-.02-.04,0-.02-.02-.04-.02-.05"/>
      <path class="uuid-8e038d5c-956c-4621-bb0b-3581d787cac4" d="M40.1,17.16c.13-.7.72-3,1.58-4.23.59-.85,1.31-1.18,2.07-.09,2.03,2.9.86,7.7.96,11.02.02.55.73,1.47.97,1.95.69,1.4,1.39,2.81,2.08,4.21.66,1.34,1.35,2.72,1.8,4.16.06.06.12.12.17.2.37.48.49,1,.27,1.18-.05.04-.12.06-.2.05.05,1.41-.5,2.62-2.08.67-.55-.68-.82-1.56-1.29-2.29-3.32-5.1-7.54-10.42-6.34-16.84"/>
      <path class="uuid-8e038d5c-956c-4621-bb0b-3581d787cac4" d="M46.95,35.77s0,0,0-.02c0,0,0,.01,0,.02"/>
      <path class="uuid-d3717e42-1e44-4bb3-bba4-d8a6b370ac04" d="M75.43,38.54c-.38-.09-1.34.75-1.72.69.06-.12.7-1.14.75-1.26.13-.29-.04-.93-.06-1.24-.04-.89-.09-1.78-.13-2.67-.04-.88-.09-1.78.03-2.67.13-.96,1.05-2.43,1.6-.64.15.48.07,1,.16,1.49.41,2.26,1.41,5.13,1.08,7.4-.4-.29-1.23-.99-1.72-1.1"/>
      <path class="uuid-d3717e42-1e44-4bb3-bba4-d8a6b370ac04" d="M76.22,31.2s0,0,0,0c.01,0,.02-.01,0,0"/>
      <path class="uuid-d3717e42-1e44-4bb3-bba4-d8a6b370ac04" d="M68.98,46.4c-.93.11-2.35-.2-2.75-.31-3.77-1.1-5.13-4.72-6.67-7.81-.22-.44-.59-.81-.76-1.29-.63-1.76.98-1.14,1.67-.45.63.64,1.13,1.39,1.63,2.11.5.74,1,1.48,1.5,2.21.17.25.41.87.7,1.03,1.7.94,4.62,1.62,5.45,3.45.31.69-.1.98-.75,1.06"/>
      <path class="uuid-d3717e42-1e44-4bb3-bba4-d8a6b370ac04" d="M58.8,37.54s0,0,.01,0c-.02,0-.02,0-.01,0"/>
      <path class="uuid-d3717e42-1e44-4bb3-bba4-d8a6b370ac04" d="M70.89,54.8s-.02,0-.03.01c0,0,.02,0,.03-.01"/>
      <path class="uuid-d3717e42-1e44-4bb3-bba4-d8a6b370ac04" d="M70.78,55.62c.01-.24.02-.5.03-.78t0,0c-.01.26-.02.52-.04.78h0Z"/>
      <path class="uuid-5e3fc720-7fe1-40ed-9c00-1b6c3afbd11e" d="M70.78,55.62c.01-.26.02-.52.04-.78.02,0,.03-.01.05-.02,0,0,.02,0,.03-.01.02,0,.04-.02.05-.02.08-.03.16-.06.24-.08.01,0,.02,0,.04,0,.09,0,.18-.02.27-.03.01,0,.02,0,.03,0,.16.02.32.04.49.07.08.03.15.05.22.08.17.07.32.15.48.23.02,0,.03.01.03.02,0,0,.01,0,.02.01.08.05.16.1.24.15.05.03.09.07.14.1l-1.31.31h-1.07Z"/>
      <path class="uuid-8e038d5c-956c-4621-bb0b-3581d787cac4" d="M73.16,55.32h0c.11.08.22.16.33.24.03.02.06.05.09.07h-1.73l1.31-.31Z"/>
      <path class="uuid-938d0745-3bd5-4017-88ce-0ef7dd189ee8" d="M63.64,41.36l4.93,2.37c1.37-1.18,3-2.12,4.4-2.67l.89-2.43c.13-.04.26-.09.38-.13.6-.18,1.03-.19,1.61-.02.2.12.48.28.54.32.25.16.29.19.54.36.22.14,0,.35.22.49l-.17,1.45-.52,4.47-.15,1.21v.03s.24,9.68.24,9.68c0,.32-.14.62-.4.81l-.38.27-.4.09s-.06.03-.1.04c-.9.32-1.94.58-3,.71-1.86.23-2.74.19-3.49-.11-.14-.03-.27-.07-.41-.11-.42-.12-.81-.29-1.17-.5-1.56-.9-1.52-1.58-1.41-3.32l.02-2.03.04-3.55-.42-.6-3.29-4.69v-.25c0-.9.62-1.68,1.49-1.89"/>
      <path class="uuid-d3717e42-1e44-4bb3-bba4-d8a6b370ac04" d="M73.25,41.16v1.55c0,.86-.7,1.56-1.56,1.56s-1.56-.7-1.56-1.56v-1.55h3.11Z"/>
      <path class="uuid-d3717e42-1e44-4bb3-bba4-d8a6b370ac04" d="M68.82,40.44c.12,1.49,1.42,2.59,2.91,2.47.59-.05,1.12-.28,1.54-.64.08-.07.16-.15.23-.23.02-.03.05-.06.07-.08.44-.52.68-1.22.62-1.95-.09-1.08-.8-1.96-1.75-2.31-.15-.06-.31-.1-.48-.13h0c-.22-.04-.44-.05-.67-.03-.06,0-.11.01-.17.02-.09.01-.17.03-.26.05-.37.09-.71.26-1,.48-.7.54-1.12,1.41-1.04,2.36"/>
      <path class="uuid-4069f6d0-4757-4cf7-88ca-f261cf0f7e69" d="M68.98,35.94c.37-.06.76.06,1.02.33.12.13.21.27.26.41.25.64,1.37.63,1.91.77.69.18,1.36.48,1.81,1.05.86,1.1.72,3.35-.76,3.87-1.09.38-2,.08-2.64-.75.17-.14.27-.36.25-.59-.03-.38-.37-.66-.75-.63-.01,0-.02,0-.03,0-.06-.65.08-1.4-.33-1.79-.5-.49-1.3-.13-1.64-.99-.28-.72.11-1.56.89-1.68"/>
      <path class="uuid-4069f6d0-4757-4cf7-88ca-f261cf0f7e69" d="M65.65,73.81c.06-.23.27-.39.51-.41l1.55-.15.02-.61s1.67.86,2.48-.25v2.18c-.22.32-.55.54-.93.61-.07.01-.13.02-.15.03l-3.07-.72c-.3-.07-.49-.37-.41-.67"/>
    </g>
  </g>
</svg>