<?xml version="1.0" encoding="UTF-8"?>
<svg id="Calque_2" xmlns="http://www.w3.org/2000/svg" viewBox="0 0 23.79 59.22">
  <defs>
    <style>
      .cls-1 {
        fill: #e5dad7;
      }

      .cls-2 {
        fill: #d12334;
      }

      .cls-3 {
        fill: #ec6e2c;
      }

      .cls-4 {
        fill: #4489c8;
      }

      .cls-5 {
        fill: #be3318;
      }

      .cls-6 {
        fill: #72a8db;
      }

      .cls-7 {
        fill: #f9b500;
      }

      .cls-8 {
        fill: #a0c6ea;
      }

      .cls-9 {
        fill: #ffd533;
      }

      .cls-10 {
        fill: #2a2d3f;
      }

      .cls-11 {
        fill: #fdfaf6;
      }

      .cls-12 {
        fill: #ffd93e;
      }

      .cls-13 {
        fill: #e5e4e4;
      }

      .cls-14 {
        fill: #f09c80;
      }

      .cls-15 {
        fill: #f6af90;
      }

      .cls-16 {
        fill: #cfc2be;
      }

      .cls-17 {
        fill: #f9c9b4;
      }

      .cls-18 {
        fill: #e33e12;
      }

      .cls-19 {
        fill: #454759;
      }

      .cls-20 {
        fill: #ef9274;
      }

      .cls-21 {
        fill: #f39d7b;
      }

      .cls-22 {
        fill: #f7eeea;
      }

      .cls-23 {
        fill: #12110c;
      }
    </style>
  </defs>
  <g id="_Éléments_Mise_en_page" data-name="Éléments_Mise_en_page">
    <g>
      <path class="cls-15" d="M19.21,20.15c-.05.17-.26.54-.27.56v1.83c-.05.02-.11.04-.18.07-.06.02-.13.04-.2.06-.17.05-.37.11-.61.18-.01,0-.02,0-.03,0-.03-.02-.06-.04-.09-.07-.26-.21-.48-.59-.51-.94,0,0,0-.01,0-.02,0-.08,0-.15.01-.21.07-.1.15-.2.24-.31.06-.07.12-.15.18-.22.13-.15.26-.3.34-.42,0,0,0,0,.01-.01.01-.02.05-.05.09-.1t0,0c.23-.26.79-.88,1.01-.94.17-.05.1.27.01.53"/>
      <path class="cls-15" d="M17.33,21.62l.6,1.24c-2.96,1.94-5.32,2.19-5.65,1.99-.33-.2-2.48-4.12-2.68-5.21-.15-.84-.94-3.45-.96-3.57-.26-1.78,2.64-.73,3.01,1.14,0,0,1.23,4.05,1.61,5.47.3-.19.56-.26,1.01-.41.59-.2,1.92-.1,3.06-.64"/>
      <path class="cls-4" d="M11.79,17.58c0,1.91-2.9.25-2.9-1.68s2.9-.25,2.9,1.68"/>
      <path class="cls-4" d="M12.59,20.64c1.35.78-.69,1.98-2.06,1.19-1.35-.78.69-1.98,2.06-1.19"/>
      <polygon class="cls-4" points="13.02 21.1 11.73 17.1 8.91 16.14 9.91 21.2 13.02 21.1"/>
      <path class="cls-20" d="M12.37,51.99c.87.7,2.53,1.21,2.35,2.22,0,0-.72.75-1.57.36-.85-.38-1.86-.88-2.71-1.28-1.43-.67-2.93.7-1.85-2.56,4.05-.15,1.72-.42,3.79,1.25"/>
      <path class="cls-19" d="M14.89,53.78c.07,1.12-1.82,1.31-2.86.57-.53-.38-2.95-1.04-3.52-1.4-.21-.14-.27-.4-.3-.6.05-.47.1-1.03.31-1.4.03-.05.05-.08.06-.09,0,.02-.03.08-.05.17-.02.13-.03.34.05.6.16.46,1.36.9,1.81.45.65-.65,1.21-.97,1.35-.87.1.07.86.65,1.44,1.24.36.37,1.61,1.03,1.7,1.34"/>
      <path class="cls-10" d="M12.69,51.78h0s-.02-.04-.05-.04c-.04-.02-.45-.14-1.11.8-.03.04-.02.09.02.12.01.01.03.01.05.01.03,0,.05-.01.07-.04.59-.83.92-.74.92-.74.03.02.12.11.12.11.02-.11-.02-.22-.02-.22"/>
      <path class="cls-10" d="M13.17,52.23h0s-.02-.03-.05-.04c-.04-.02-.44-.14-1.11.8-.03.04-.02.09.02.12.01.01.03.01.05.01.03,0,.05-.01.07-.04.59-.83.92-.74.92-.74.03.02.12.11.12.11.02-.11-.02-.22-.02-.22"/>
      <path class="cls-10" d="M12.19,51.35h0s-.03-.03-.05-.04c-.04-.02-.45-.14-1.11.8-.03.04-.02.09.02.12.01.01.03.01.05.01.03,0,.05-.01.07-.04.59-.83.91-.74.91-.74.03.02.13.1.13.1.02-.11-.02-.22-.02-.22"/>
      <path class="cls-10" d="M14.89,54.5c-.19.3-.54.53-1.5.56-.98.03-2.28-.72-3.03-1.24-.75-.52-1.98-.54-2.1-.74-.12-.19-.05-.72-.05-.74t0,0c.02.14.11.25.24.31.23.11.66.28,1.35.42,1.09.23,1.68.82,2.16,1.12.82.51,2.9.75,2.93-.41.04.31,0,.72,0,.72"/>
      <path class="cls-20" d="M8.59,50.7h2.65s-.34-2.55.16-6.58c.41-3.27,1.03-4.08.33-13.44h-5.56c1.22,7.01,2.56,9.55,1.93,12.04-.38,1.51.77,5.7.49,7.99"/>
      <path class="cls-20" d="M10.85,50.16c1.23.71-.63,1.8-1.88,1.08-1.23-.71.63-1.8,1.88-1.08"/>
      <path class="cls-5" d="M11.72,42.54c.78-5.1.27-5.66.18-12.13l-5.73.24s.4,3.16,1.59,8.09c0,0,.66,2.29.23,3.98-.11.43.12,7.62.14,8.06-.01.36.29.71.9.93,1.45.51,2.87-.29,2.76-1.01,0,0-.22-5.38-.06-8.16"/>
      <path class="cls-21" d="M4.86,53.56c1.23.71-.63,1.8-1.88,1.08-1.24-.71.63-1.8,1.88-1.08"/>
      <path class="cls-21" d="M9.16,31.93c.07,3.8-1.52,3.1-1.57,4.16-.55,12.51-2.53,6.2-2.34,18.02h-2.65c.09-2.98-.76-6.68-.34-8.81.4-2.06.7-3.05.59-5.55-.12-2.49-.37-7.75-.02-9.07l6.34,1.25Z"/>
      <path class="cls-15" d="M5.33,54.1s.15.27.76,1.23c.58.92,2.25,2.57,2.46,3.01,0,0-.64.78-2.61.26-.91-.24-1.44-.85-2.07-1.53-.99-1.07-1.9-.84-1.13-2.99l2.58.02Z"/>
      <path class="cls-19" d="M8.6,58.29s0,.04-.01.06c-.11.4-.9.67-2.31.42-1.41-.25-2.07-1.21-2.47-1.64-.4-.43-1.39-1.31-1.48-1.64,0,0,0-.02,0-.02.05-.47.23-1.14.28-1.34.05-.18.15-.27.23-.31.04-.02.07-.03.07-.03-.43.77.81,1.88,1.63,1.54.29-.12,1.13-.99,1.42-.54.29.45,2.21,2.93,2.4,3.14.11.11.2.23.25.38"/>
      <path class="cls-10" d="M4.99,55.89s-.06-.02-.07-.05c-.02-.04,0-.08.04-.1.07-.03.19-.12.32-.21.35-.26,1.02-.71,1.15-.3.03.09-.03.16-.03.16,0,0-.03-.03-.05-.07-.03-.05-.08-.08-.13-.09-.34-.06-.9.53-1.2.66-.01,0-.02,0-.03,0"/>
      <path class="cls-10" d="M5.46,56.51s-.06-.02-.07-.05c-.02-.04,0-.08.04-.1.07-.03.19-.12.32-.21.35-.26,1.02-.71,1.15-.3.03.09-.03.16-.03.16,0,0-.03-.03-.05-.07-.03-.05-.08-.08-.13-.09-.34-.06-.9.53-1.2.66,0,0-.02,0-.03,0"/>
      <path class="cls-10" d="M5.93,57.13s-.06-.02-.07-.05c-.02-.04,0-.08.04-.1.07-.03.19-.12.32-.21.35-.26,1.02-.71,1.15-.3.03.09-.03.16-.03.16,0,0-.03-.04-.05-.07-.04-.05-.08-.08-.13-.09-.34-.06-.9.53-1.2.66-.01,0-.02,0-.03,0"/>
      <path class="cls-10" d="M6.28,59.13c-1.41-.25-2.07-1.21-2.48-1.64-1.37-1.48-1.56-1.33-1.49-2.03,0,0,0,.02,0,.02.09.32,1.08,1.21,1.48,1.64.4.43,1.07,1.39,2.48,1.64,1.41.25,2.2-.01,2.3-.42,0-.02,0-.04.01-.06.29,1.01-1.26,1.02-2.32.84"/>
      <path class="cls-18" d="M2.65,30.67c-.13,1.4.07,6.56.19,9.05.18,3.71-.63,4.55-.69,6.64h0s-.14,5.02-.05,7.66c-.04,1.4,3.63,1.42,3.66.03,0,0,.07-5.1.29-7.82.04-.55.18-1.08.41-1.58.62-1.38,1.17-6.83,1.23-8.07.01-.29.14-.49.28-.62,1.25-1.19,1.31-1.36,1.41-4.48l-6.71-.8Z"/>
      <path class="cls-15" d="M11.67,17.86c-.61-1.62-2.15-2.8-2.15-2.8-3.05.36-6.49,2.59-8.76,4.7,0,0,1.4.48,1.76,2.22.36,1.74.13,8.72.13,8.72,0,.69.45,1.38,1.36,1.9,2.83,1.64,7.95.55,7.95-1.9h0c-.06-1.1-.23-2.88-.36-3.99-.27-2.29.54-3.94.53-4.9,0-.96.14-2.32-.47-3.94"/>
      <path class="cls-6" d="M12.14,21.81c0,.96-.8,2.61-.53,4.9.07.56.14,1.28.21,2,.06.72.12,1.45.15,1.99,0,1.58-2.12,2.59-4.39,2.67-1.25.05-2.55-.19-3.56-.77-.92-.52-1.37-1.21-1.37-1.9,0,0,.24-6.98-.13-8.72-.36-1.73-1.76-2.22-1.76-2.22.38-.35.78-.7,1.22-1.05,2.19-1.75,4.99-3.36,7.54-3.65,0,0,1.54,1.18,2.15,2.81.61,1.62.47,2.97.48,3.94"/>
      <path class="cls-3" d="M1.98,18.71c.13-.11.27-.21.41-.32-.49.43-.98.85-1.49,1.24.34-.32.69-.62,1.08-.92"/>
      <path class="cls-9" d="M12.14,21.81c0,.96-.8,2.61-.53,4.9.07.56.14,1.28.21,2,.06.72.25,3,.28,3.54,0,.85-.61,1.53-1.53,1.99,0,0-.18-3.56-.24-4.28-.07-.72-.14-1.45-.21-2-.27-2.29.54-3.93.53-4.9,0-.97.14-2.32-.48-3.94-.5-1.34-2.12-3.02-2.66-3.56.69-.24,1.35-.42,2.02-.5,0,0,1.54,1.18,2.15,2.81.61,1.62.47,2.97.48,3.94"/>
      <path class="cls-9" d="M7.75,24.51c0,.96-.8,2.61-.53,4.9.06.56.13,1.29.2,2,.07.71.09,3.21.12,3.75-1.26.05-2.55-.19-3.56-.77-.92-.52-1.37-1.21-1.37-1.9,0,0,.27-8.77-.1-10.51-.36-1.73-1.76-2.22-1.76-2.22.38-.35.79-.7,1.22-1.05.92-.7,1.64-1.3,2.67-1.82,0,0,.19.85.93,1.85.44.6,1.47,1.22,1.7,1.83.62,1.62.47,2.97.48,3.94"/>
      <path class="cls-17" d="M2.13,36.4c.64.37-.32.94-.97.56-.64-.37.33-.93.97-.56"/>
      <path class="cls-17" d="M3.42,22.1c0,1.91-2.9.25-2.9-1.68s2.9-.25,2.9,1.68"/>
      <path class="cls-15" d="M.52,20.42c-.18,10.7-.41,9.82.44,16.26h1.38c.15-3.65.49-5.66.26-7.44-.22-1.72.21-5.03.53-5.86.28-.72.29-1.14.29-1.14l-1.27-2.24-1.62.42Z"/>
      <path class="cls-15" d="M2.34,36.68s.99.8,1.3,1.33c.31.53,1.22,1.45,1.03,1.63-.19.18-.62-.04-.8-.24-.18-.2-.69-.92-.81-.61-.12.31.05,1.82.46,2.52,0,0-.01.34-.39,0-.38-.34-1.74-1.88-1.85-2.35-.11-.46-.32-2.28-.32-2.28h1.38Z"/>
      <path class="cls-15" d="M8.43,17.83s-.18.35-.21.4c-.2.26-.42.35-.42.35-2.66.39-3.15-1.69-3.15-1.69,0,0,.37-.57.39-1.89,1.21.22.85.02,1.64.8h0c.43-.17.87-.33,1.32-.45.04.08.08.16.11.23.02.06.05.11.07.17.26.62.47,1.45.25,2.09"/>
      <path class="cls-23" d="M9.53,12.7s-.03,1.08-.22,1.3c-.19.22-.15-1.58-.15-1.58l.38.28Z"/>
      <path class="cls-14" d="M8.43,17.83c-.14.1-.27.17-.35.18-.32.04-1.16-.26-1.77-.71-.61-.45-.97-1.45-.97-1.45,0,0,3.05,1.03,3.16,1.08.04.38,0,.7-.08.9"/>
      <path class="cls-15" d="M6.79,10.48s-2.41-.36-2.79,2.87c1,1.4.62,1.66,1.08,1.96,0,0,.66,1.5,1.32,1.81s1.38.71,1.58.57c1.25-.86,1.14-2.77,1.43-3.55,0,0,.24-3.56-2.61-3.67"/>
      <path class="cls-23" d="M9.53,12.7c-.31-.19-.52.17-.78.35-.85.6-1.9-.53-2.82-.11-.32.22-.19.93-.27,1.35-.07.32-.05.5-.05.5l-.38-.23-.33,1.63s-.96-2.32-1.05-2.84c-.09-.52.1-1.63.86-2.36,1.28-1.22,4.54-1.01,4.83,1.71"/>
      <path class="cls-15" d="M4.8,13.78c-.63.05-.13,1.42.08,1.56.21.14.54-.41.54-.41-.12,0,.14-1.22-.62-1.16"/>
      <path class="cls-13" d="M5.82,50.96c0,.18-.02.97-.03,1.11-.12.55-.9.85-1.68.89-.03,0-.05,0-.08,0h-.08c-.89,0-1.8-.34-1.86-.99,0-.14,0-.85,0-1,.01.68.95,1.04,1.86,1.04s1.87-.37,1.88-1.05"/>
      <path class="cls-13" d="M11.74,49.03c-.15.52-.9.81-1.66.85-.03,0-.05,0-.08,0h-.08c-.82,0-1.65-.29-1.82-.84,0-.31-.02-.68-.03-1.07.08.63.98.96,1.85.96.78,0,1.59-.26,1.8-.77,0,.32.02.62.03.87"/>
      <path class="cls-8" d="M3.42,22.1c0,1.91-2.9.25-2.9-1.68s2.9-.25,2.9,1.68"/>
      <path class="cls-8" d="M2.5,25.02c1.35.78-.69,1.98-2.06,1.19-1.35-.78.69-1.98,2.06-1.19"/>
      <path class="cls-8" d="M2.93,25.61l.49-3.38s-2.85-2.18-2.86-2.1c-.02.08-.51,2.68-.54,5.48h2.91Z"/>
      <path class="cls-12" d="M10.08,13.12c-.98.31-2.31.91-3.35.84,0,0-.02,0-.03,0-.17-.01-.33-.05-.48-.1-.32-.1-.66-.24-1.37-.72-.13-.09-.25-.12-.35-.12-.08.04-.15.07-.18.11-.35.35-.39,1.19-.39,1.19,0,0-.19-.02-.24-.12-.05-.11-.03-.28-.03-1.63,0-.13,0-.27.02-.4,0-.01,0-.03,0-.04.11-1.22.97-2.26,2.15-2.61.02,0,.05-.01.08-.02.56-.15,1.22-.21,1.88-.02,1.43.42,1.92,2.23,2.02,2.69.07.17.15.32.26.47.15.19.25.41,0,.49"/>
      <path class="cls-7" d="M6.69,13.96c-.17-.01-.33-.05-.48-.1-.32-.1-.66-.24-1.37-.72-.13-.09-.25-.12-.35-.12-.08.04-.15.07-.18.12-.35.35-.39,1.19-.39,1.19,0,0-.19-.02-.24-.12-.05-.11-.03-.28-.03-1.64,0-.13,0-.27.02-.4,0-.01,0-.03,0-.04.11-1.22.97-2.26,2.15-2.61-.26.21-.47.47-.61.8-.38.97.06,1.94.51,2.68.24.4.54.72.96.96"/>
      <path class="cls-10" d="M19.24,24.3c-.17,0-.3-.13-.3-.3v-14.57c0-.17.13-.3.3-.3s.3.13.3.3v14.57c0,.17-.13.3-.3.3"/>
      <path class="cls-15" d="M19.56,20.08s-.2.19-.31.44c-.11.25-.17,1.41-.16,1.65,0,.24.05.35.21.35s.47-.2.61-.3c.14-.1.11-2.19.04-2.25-.08-.07-.38.11-.38.11"/>
      <path class="cls-22" d="M22.21.29c-.77-.45-1.83-.38-3.01.29-2.33,1.35-4.22,4.61-4.21,7.3,0,1.33.47,2.27,1.23,2.71l.35.2L22.56.49l-.35-.2Z"/>
      <path class="cls-16" d="M15.08,6.82c-.06.36-.09.71-.09,1.06,0,1.33.47,2.27,1.23,2.71l.35.2,1.35-2.33-2.85-1.64Z"/>
      <path class="cls-11" d="M20.43.08c-.39.09-.8.25-1.23.5-.27.16-.54.35-.8.55l2.83,1.64.97-1.67-1.77-1.02Z"/>
      <path class="cls-1" d="M19.55.78c-2.33,1.35-4.22,4.61-4.21,7.3,0,2.68,1.91,3.76,4.24,2.42,2.33-1.35,4.22-4.61,4.21-7.3,0-2.68-1.91-3.76-4.24-2.42"/>
      <path class="cls-2" d="M19.55,1.09c-2.19,1.26-3.96,4.33-3.95,6.84,0,2.51,1.79,3.53,3.97,2.26,2.19-1.26,3.96-4.33,3.95-6.84,0-2.51-1.79-3.53-3.97-2.27"/>
      <polygon class="cls-1" points="22.23 3.54 16.71 6.72 16.71 8.41 22.23 5.22 22.23 3.54"/>
    </g>
  </g>
</svg>