<?xml version="1.0" encoding="UTF-8"?>
<svg id="uuid-2d440eb4-c7f2-4d79-b732-bbb3d1213454" data-name="Calque_2" xmlns="http://www.w3.org/2000/svg" viewBox="0 0 56.63 74.88">
  <defs>
    <style>
      .uuid-a3dbceca-4742-4b54-8e22-558ad745a989 {
        fill: #1b9398;
      }

      .uuid-f836cbac-2654-48be-addd-e202be07cb18 {
        fill: #fff;
      }

      .uuid-36ca5a9e-6da8-45b5-95c4-84dd74b500e4 {
        fill: #e8435c;
      }

      .uuid-4add1a8e-ab0a-458d-8d50-faee0996fa57 {
        fill: #322527;
      }

      .uuid-e3c86937-e439-4ebe-9063-b1917032af15 {
        fill: #ef7f55;
      }

      .uuid-3a6fe8e3-1cc6-4535-8033-f11cba20f5fc {
        fill: #423134;
      }

      .uuid-3fa83e36-c945-478d-b35d-73c844f0870e {
        fill: #eaad73;
      }

      .uuid-f05f1f55-ed59-4933-9ca2-7101f298fa66 {
        fill: #4e3a3e;
      }

      .uuid-0da920e0-b963-471d-86eb-a8cd9b1b46ff {
        fill: #4bacb6;
      }
    </style>
  </defs>
  <g id="uuid-ec79c382-1d91-498d-9e96-e6bc9d9a428c" data-name="Les_personnages">
    <g id="uuid-951a6fab-39b1-47e4-9f4f-d1b55056c90b" data-name="Chara_x5F_FamilleChien_x5F_BG">
      <path class="uuid-e3c86937-e439-4ebe-9063-b1917032af15" d="M37.36,22.42s-3.41,1.25-6.45,1.73c-3.82-2.08-4.1,1.79-1.38,2.19,2.72.4,7.49-.5,8.21-.54.71-.04,1.67-1.25,1.8-2.77.08-.93-2.17-.61-2.17-.61"/>
      <path class="uuid-e3c86937-e439-4ebe-9063-b1917032af15" d="M46.96,49.59c-.17-.18-.33-.35-.49-.52-.69-.72-1.26-1.25-1.77-1.67-.09-.26-.18-.55-.25-.89-.96-4.6-.88-8.66-.79-9.39.14-1.1-5.01-1.22-5.01-1.22,0,0-.04,5.82-.14,7.95-.11,2.37-.11,3.23,1.16,4.62,1.28,1.39,3.61,3.5,5.83,5.46.47-1.45.96-2.9,1.45-4.34"/>
      <path class="uuid-e3c86937-e439-4ebe-9063-b1917032af15" d="M52.28,55.46c-1.05-.89-3.77-3.99-6.05-6.45-.48,1.41-.96,2.82-1.41,4.24,1.83,1.61,3.48,3.06,4.25,3.84,2.65,2.64,2.82,5.1,3.12,6.15.3,1.05,2.43-.03,2.36-1.97-.07-1.95-.17-2.23.05-3.1.21-.87-.71-1.34-2.33-2.7"/>
      <path class="uuid-4add1a8e-ab0a-458d-8d50-faee0996fa57" d="M53.52,55.7s-.02,0-.02-.01c-.08-.04-.13-.05-.13-.05h0c-.49-.19-1.09-.17-1.09-.17,0,0,2.01,2.24,1.76,4.37-.28,2.38-.71,3.17-1.85,3.41,0,0,.21.82.38,2.42.09.86.9.93,1.95-.43.55-.72,1.07-1.99.87-3.13-.22-1.2-.6-2.32-.6-3.26,0-.15,0-.27,0-.4h0c.63.49.99.84,1.44,1.2.31.05.43-.18.41-.46-.39-.51-.93-.78-1.56-1.82-.67-1.1-1.28-1.52-1.56-1.66"/>
      <path class="uuid-e3c86937-e439-4ebe-9063-b1917032af15" d="M51.12,40.52c.53-.98-6.08-2.66-6.08-2.66,0,0-.68,5.01-1.15,7.09-.7,3.14-.84,4.68-.49,9.07.15,1.95-.29,9.19-.77,11.7-.7,3.67-2.19,5.26-2.89,6.1-.7.84.94,1.93,2.51.78,1.57-1.15,2.06-2.08,2.9-2.39.84-.31.53-1.04.75-3.14.17-1.62,1.47-6.53,2.2-9.94,1.04-4.85-.02-5.1.38-7.56.76-4.64,2.29-8.4,2.64-9.04"/>
      <path class="uuid-4add1a8e-ab0a-458d-8d50-faee0996fa57" d="M46.49,68.18s0-.02,0-.03c-.02-.09-.03-.13-.03-.13h0c-.15-.5-.54-.96-.54-.96,0,0-.52,2.96-2.35,4.08-2.04,1.25-2.93,1.4-3.82.66,0,0-.51.67-1.67,1.8-.62.61-.17,1.28,1.54,1.26.91,0,2.22-.39,2.99-1.26.81-.91,1.45-1.91,2.19-2.49.11-.09.21-.17.31-.25h0c0,.79-.05,1.3-.05,1.87.15.27.41.22.62.04.15-.62.04-1.21.47-2.35.45-1.21.4-1.95.34-2.25"/>
      <path class="uuid-e3c86937-e439-4ebe-9063-b1917032af15" d="M42.43,10.51s-.45-.37-1.43.35c-.97.73-2.09,3.02-2.72,4.52-.63,1.5-1.57,6.11-1.96,8.1-.04.22,2.31,1.22,3.02.27,0-.02.01-.05.02-.07.42-1.62,1.43-6.15,1.43-6.15,0,0,1.75-6.43,1.69-6.72l-.06-.29Z"/>
      <path class="uuid-4add1a8e-ab0a-458d-8d50-faee0996fa57" d="M48.38,5.26s1.56,1.75,2.08,5.8c.52,4.05.37,5.17.37,5.17,0,0-3.47.43-4.25-1.35-.78-1.78,1.81-9.62,1.81-9.62"/>
      <path class="uuid-a3dbceca-4742-4b54-8e22-558ad745a989" d="M43.1,10.76s-1.88-.87-3.07.66c-1.19,1.53-2.76,5.61-2.76,5.61,0,0,.71.85,3.28,1.4,2.51-.48,2.56-7.67,2.56-7.67"/>
      <path class="uuid-4add1a8e-ab0a-458d-8d50-faee0996fa57" d="M38.12,30.63c-.42,1.71-.21,3.78-.27,7.04-.08,4.01-.03,8.93-.03,8.93,0,0,5.29,4.38,8.64,3.72,3.56-.71,5.12-3.9,5.12-3.9,0,0,.39-10.32-1.6-15.57-2.19-5.8-10.85-4.37-11.86-.21"/>
      <path class="uuid-0da920e0-b963-471d-86eb-a8cd9b1b46ff" d="M52.12,17.05c-.23-1.27-4.14-3.87-4.14-3.87,0,0-2.13,1.7-2.89,2.29-.72.57-1.92,2.01-2.02,2.14,0,0-.01,0-.02,0,.02-.24.16-2.15.91-4.18.23-.64-.12-2.52-.12-2.52,0,0-.3-.07-.73-.15-.65.72-1.93,2.63-2.62,3.42-.67.76-3.27,3.15-2.54,5.62.22.73.49,1.37.87,2.28.43,1.02.41,2.96.35,4.01-.06,1.21-1.19,4.4-1.19,4.4,0,0,2.78,3.22,5.76,3.09,3.48-.15,6.23-2.73,6.23-2.73,0,0-1.09-5.29-.58-7.41.62-2.56,3.17-3.9,2.72-6.39"/>
      <path class="uuid-e3c86937-e439-4ebe-9063-b1917032af15" d="M43.61,11.2s.03,2.15-.35,3.3c-.32.5-.64,2.06-.45,3.43.71-.4,1.86-1.62,2.53-2.25.8-.76,2.66-2.26,2.66-2.26,0,0-.3-1.55-.27-2.39.04-1.62.15-3.98.15-3.98l-4.26,4.16Z"/>
      <path class="uuid-e3c86937-e439-4ebe-9063-b1917032af15" d="M47.3,2.12c-1.41-1.2-4.89-1.74-6.35,1.8-1.53,3.71,1.64,8.61,3.51,7.9,1.04-.4,3.16-1.37,3.87-3.33.8-2.21.07-5.45-1.03-6.38"/>
      <path class="uuid-4add1a8e-ab0a-458d-8d50-faee0996fa57" d="M43.65,4.81s2.4,2.78,4.96,3.4c1.2-2.71,1.44-3.46.87-5.18-.67-2-2.72-1.94-2.72-1.94,0,0-2.08-2.32-5.02-.21-4.27,3.07-1,6.7-1,6.7,0,0,.15-1.79,2.93-2.78"/>
      <path class="uuid-e3c86937-e439-4ebe-9063-b1917032af15" d="M46.45,7.83s.27-.4.59-.64c.27-.2.77-.26.91.51.2,1.05-.64,1.45-.64,1.45l-.87-1.31Z"/>
      <path class="uuid-e3c86937-e439-4ebe-9063-b1917032af15" d="M50.11,22.53s.97,5.34,1.32,7.45c.51,3.08,1.75,7.26,2.07,8.38.38,1.31-.63,1.87-1.04,2.48-.17.24-.28.55-.02.71.42.25,1.63-1.39,1.44-.04-.27,1.88-.49,4.83.76,4.22,1-.49,2-1.57,1.94-5.1-.04-2.41-.71-6.3-1.14-9.58-.43-3.28-1.38-8.38-1.38-8.38l-3.95-.12Z"/>
      <path class="uuid-a3dbceca-4742-4b54-8e22-558ad745a989" d="M51.24,15.63c-1.54.36-2.43,2.97-2.11,5.14.32,2.17,1.01,4.66,1.01,4.66,0,0,1.89.16,2.9-.06,1.07-.24,1.65-.92,1.65-.92,0,0-.16-4.23-1.1-6.32-1.11-2.5-2.36-2.5-2.36-2.5"/>
      <polygon class="uuid-f836cbac-2654-48be-addd-e202be07cb18" points="13.26 38.67 9.47 43.89 10.16 44.37 14.05 39.03 13.26 38.67"/>
      <path class="uuid-4add1a8e-ab0a-458d-8d50-faee0996fa57" d="M26.7,39.26s2.06-.52,3.54,1.49c1.48,2.01.77,4.83,1.15,5.55.38.72,1.2.94,1.2.94,0,0-.54.56-.74.55.25.34.55.11.54,1.85-.01,1.5-1.23,1.73-1.23,1.73,0,0,.14-1.73-.86-2.58-.6-.51-1.86-1.48-2.08-2.54-.22-1.05-1.51-6.99-1.51-6.99"/>
      <path class="uuid-4add1a8e-ab0a-458d-8d50-faee0996fa57" d="M19.5,49.82s2.01,2.69,3.95,2.83c1.94.14,2.59-.27,2.59-.27,0,0,1.1,1.6,1.06,1.77-.04.17-.57,1.09-.83,1.61-.26.52-.04,1.16.83,1.36.87.21,1.69-1.4,2.02-1.74.34-.34.24-1.66.14-2.03-.1-.37-2.99-5.81-2.99-5.81l-6.76,2.27Z"/>
      <path class="uuid-4add1a8e-ab0a-458d-8d50-faee0996fa57" d="M8.97,50.72c0-.44-.44.59-.76,2.29-.42,2.2-.78,5.74-1.21,6.73-.38.88-.61,1.89-.99,2.4-.38.51-1.18.68-1.47.8-.57.23-.99,1.06-.99,1.91s2.22,1.18,3.37.68c1.15-.5,1.64-1.49,2.02-2.22.2-.38,1.79-2.9,2.58-4.52-.25-.19-.55-.52-.45-.74,0,0,.16.11.61.06.06-.83.56-2.66.52-3.22-.12-1.63-3.23-4.17-3.23-4.17"/>
      <path class="uuid-3a6fe8e3-1cc6-4535-8033-f11cba20f5fc" d="M9.99,43.63s5.37-.82,7.08-1.94c1.72-1.12,5.93-3.74,7.55-3.29,1.62.45,3.49,1.41,4.66,3.03s.17,5.94,0,6.65c-.17.71-4.58,1.41-6.23,2.37-1.65.96-3.37,3.36-5.57,5.67-.55.58-1.21,1.28-2.68.96q-.05.3-.19.54c-.49.03-1.39-.24-2.07-.35q-.05.31-.1.61c-.63-.13-1.29-.43-1.97-.96-.42-.32-.73-1.13-.86-1.24-.1.26-.25.51-.45.67-.67-.82-.43-2.22-.68-3.15-.67-2.48-.74-5.12-.74-5.12l2.24-4.46Z"/>
      <path class="uuid-3a6fe8e3-1cc6-4535-8033-f11cba20f5fc" d="M14.28,53.46s.96,3.7,1.64,6.46c.5,2.03.88,3.78-.02,3.99-.9.21-2.38,1.71-1.16,2.49,1.22.78,2.19.38,3.51-.26.7-.34,1.14-.73,1.4-1.87.33-1.48.1-2.74.14-4.48.02-.59.43-5.99.61-6.92.22-1.15-.79-1.88-.79-1.88l-5.34,2.47Z"/>
      <path class="uuid-3a6fe8e3-1cc6-4535-8033-f11cba20f5fc" d="M22.01,44.88s1.4,4.92,2.62,6.01c1.3,1.17,3.29,1.65,3.29,1.65,0,0-.02.88,0,2.25.01.85-.14,1.58-.39,1.99-.18.3-1.77.78-1.97,1.12-.52.87-.43,1.57.59,2.06.6.28,2.31,0,3.4-1.04.65-.62,1.62-6.61,1.32-7.92-.16-.68-2.08-1.63-1.39-3.8.74-2.31.74-4.88-.19-5.75-1.96-1.82-7.28,3.44-7.28,3.44"/>
      <path class="uuid-f05f1f55-ed59-4933-9ca2-7101f298fa66" d="M2.81,45.31c0,.42.22,1.24.1,1.64-.29.94-1.71,2.08-2.54,3-.83.93.06,1.06,1.4,1.73,1.33.67,3.6-.16,4.27-.4.67-.24,1.57,0,2.62.4.63.23,1.28,1.79,1.28,1.79,0,0,.35-.45.35-1.4.73.95,1.97,1.39,2.81,1.4.83,0,1.82-.61,1.82-.61,0,0-1.17-.66-1.79-1.63.57-.1,1.16-.34,2.36.22.33-.57-.06-2.06-.57-3.06.47-.02.87.09,1.46.07,0-1.5-1.78-2.57-1.78-2.57,0,0,.63-.24,1.78-.11-.09-.25-1.31-1.48-2.75-1.67.32-.49.31-.69.18-1.24-2.03.17-4.93-1.2-6.81-.69-1.88.51-4.19,2.72-4.19,3.14"/>
      <path class="uuid-4add1a8e-ab0a-458d-8d50-faee0996fa57" d="M4.22,47.31c.23-.13.48-.19.96.03.7.33.8.42.8.42,0,0-.64.71-1.34.34-.7-.37-.64-.66-.41-.79"/>
      <path class="uuid-4add1a8e-ab0a-458d-8d50-faee0996fa57" d="M.37,49.95s.57.33.83.52c.26.19-.1.89-.1.89,0,0-.86-.17-1.05-.64-.19-.47.32-.77.32-.77"/>
      <path class="uuid-4add1a8e-ab0a-458d-8d50-faee0996fa57" d="M7.75,45.78c.3.49.68.98.74,2.15.06,1.17.54,1.97.92,2.31.38.35,1.02.47,1.02.47,0,0-.53-.7-.4-1.56.24.79.72.99,1.42,1.29.7.3.94,1,.94,1,0,0,.68-.96.33-2.58-.15-.69-.24-.94-.35-1.28.49.36.98,1.28.98,1.28,0,0,.22-.92-.23-1.69-.45-.76-.97-2.47-1.99-3.2-1.02-.73-1.28-.18-1.98.31-.7.49-1.88.72-1.41,1.48"/>
      <path class="uuid-e3c86937-e439-4ebe-9063-b1917032af15" d="M27.06,63.77c-.09-.47-.16-1.04-.16-1.67,0-3.27.24-7.77-.86-9.71,1.1-2.68,1.86-6.58,1.86-6.58h-4.39s-.75,4.81-.66,6.57c.04.65.38,3.27.75,4.73.43,1.72.9,3.69.93,5.13.03,1.54-.45,2.16-.45,2.16-.51,1.1-.25,2.39,1.1,2.1.4-.09.75-.42,1.04-.84.33-.6.56-1.25.83-1.88"/>
      <path class="uuid-36ca5a9e-6da8-45b5-95c4-84dd74b500e4" d="M24.09,64.39s-.86,1.35-1.53,2.14c-.67.79-1.08,1.72-.35,2.06.78.36,1.42.58,3.04-.91.97-.9,1.54-1.95,1.97-2.66.36-.58-.21-1.56-.21-1.56,0,0-.74,2.35-2.29,2.21-1.15-.1-.63-1.28-.63-1.28"/>
      <path class="uuid-e3c86937-e439-4ebe-9063-b1917032af15" d="M28.34,45.87s.87,5.41,1.88,6.71c1.01,1.3,3.4,2.2,5.15,3.68,1.76,1.48,1.46,2.28,1.46,2.28,0,0-.21,2.67.34,2.41,3.1-1.52,1.84-4.69,1.84-4.69,0,0-1.03-1.24-2.68-3.05-1.66-1.81-2.86-2.75-2.86-2.75l.16-5.62-5.28,1.03Z"/>
      <path class="uuid-36ca5a9e-6da8-45b5-95c4-84dd74b500e4" d="M36.84,58.42s-.15,1.59-.39,2.6c-.24,1.01-.18,2.02.63,1.99.86-.04,1.53-.13,2.29-2.21.45-1.24.48-2.44.54-3.26.05-.68-.9-1.28-.9-1.28,0,0,.42,2.43-1.03,3.01-1.07.43-1.15-.85-1.15-.85"/>
      <path class="uuid-4add1a8e-ab0a-458d-8d50-faee0996fa57" d="M12.95,39.08s1.78.77,2.16,1.3c.38.53,1.71.29,1.39-.53-.32-.81-.79-.47-1.31-.78-.74-.44-1.38-1.33-1.38-1.33l-.86,1.34Z"/>
      <path class="uuid-e3c86937-e439-4ebe-9063-b1917032af15" d="M27.74,23.62s-.93-.74-2.54,1.1c-.63.71-3.13,5.06-4.45,7.47-.72.74-1.72,1.97-3.38,3.44-1.1.98-2.38,1.52-2.94,1.73-1.4.52-1.73,2.1-1.2,2.51.81.63,1.07.78,1.4.2.2-.35.3-.75.76-.75.99,0,1.13.52,1.13.52,0,0,.04-.48.05-.99,0-.47-.05-.98.42-1.15.98-.36,4.09-2.19,5.46-3.3.96-.78,3.73-2.98,3.73-2.98,0,0,4.13-6.39,1.58-7.8"/>
      <path class="uuid-36ca5a9e-6da8-45b5-95c4-84dd74b500e4" d="M26.56,23.84s-1.55,3.02-2.14,4.49c-.6,1.47-.09,4.23,0,4.82.09.59-.21,2.97-.8,5.32-.59,2.34-1.04,12.2-1.04,12.2,0,0,1.34,2.79,5.78,2.76,4.47-.03,5.8-3.22,5.8-3.22,0,0-.66-8.83-1.28-10.71-.61-1.88-1.44-3.82-1.37-5.18.07-1.36,1.08-7.76,1.08-7.76l-2.17-1.88-3.87-.83Z"/>
      <path class="uuid-e3c86937-e439-4ebe-9063-b1917032af15" d="M27.14,24.17l-.34,2.42s1.27,1.34,2.44.28c1.17-1.06,1.33-1.54,1.33-1.54l-.69-3.27-2.74,2.11Z"/>
      <path class="uuid-4add1a8e-ab0a-458d-8d50-faee0996fa57" d="M24.78,18.39s-.6,1.81-.26,5.98c.14,1.72.89,3.06.89,3.06,0,0,.9-2.48,2.18-3.3.91-.58-.45-1.65-.45-1.65l-2.36-4.08Z"/>
      <path class="uuid-e3c86937-e439-4ebe-9063-b1917032af15" d="M30.37,17.31c-1.09-.95-3.79-1.42-4.97,1.32-1.24,2.87,1.17,6.73,2.64,6.21.82-.3,2.58-1.43,3.15-2.94.65-1.71.03-3.85-.82-4.59"/>
      <path class="uuid-4add1a8e-ab0a-458d-8d50-faee0996fa57" d="M27.59,18.69s-.12,1.9.77,3.26c.89,1.36.91,2.59.88,3.99-.05,2.43-.7,3.15-.7,3.15,0,0,3.05-1.03,3.38-4.61.32-3.43.25-6.12-.63-7.4-.8-1.16-2.4-.88-2.4-.88,0,0-2.07-1.54-3.78,1.41-.77,1.33-.74,2.3-.43,2.8.77-1.66,2.91-1.72,2.91-1.72"/>
      <path class="uuid-e3c86937-e439-4ebe-9063-b1917032af15" d="M34.44,33.79c-.18-1.6.41-5.69-1.76-7.17-.4-.27-.95.13-1.51,1.37-.55,1.24-.07,3.17.25,4.73.2.95.26,1.24.57,2.15-1.03.45-2.82,1.2-3.65,1.36-1.2.23-1.43-.74-2.63-.46-1.2.28-.87,1.57-.66,2.15.21.58,1.64.9,2.74.66,1.1-.25,5.77-.76,6.34-1.72.61-1.02.46-1.71.31-3.07"/>
      <path class="uuid-3fa83e36-c945-478d-b35d-73c844f0870e" d="M12.95,42.82s1.55,1.56,2.68,3.67c.79,1.47.54,3.46.54,3.9s.93,0,.93,0c0,0,.12-2.44-.62-4.1-.74-1.67-2.68-3.41-2.68-3.41l-.86-.06Z"/>
      <path class="uuid-f836cbac-2654-48be-addd-e202be07cb18" d="M15.55,40.35c-.38,2.56-1.51,10.24-1.51,10.24l.96.19s1.1-7.62,1.46-10.12c.02-.17.07-.6-.46-.66-.31-.03-.45.25-.47.35"/>
      <path class="uuid-3fa83e36-c945-478d-b35d-73c844f0870e" d="M8.21,52.55l-.1,1.04s1.37,1.14,3.66.71c1.23-.23,3.13-2.67,3.25-3.52.12-.84-.96-.19-.96-.19,0,0-.78,2.02-2.29,2.57-1.8.66-3.55-.61-3.55-.61"/>
      <path class="uuid-3fa83e36-c945-478d-b35d-73c844f0870e" d="M14.22,51.65s1.74-1.33,3.65-.44c1.91.89,2.72,1.47,2.72,1.47l.53-.57s-2.47-1.93-3.76-2.16c-1.76-.32-3.31.64-3.31.64l.17,1.06Z"/>
    </g>
  </g>
</svg>