<?xml version="1.0" encoding="UTF-8"?>
<svg id="Calque_2" xmlns="http://www.w3.org/2000/svg" viewBox="0 0 14.73 48.45">
  <defs>
    <style>
      .cls-1 {
        fill: #383432;
      }

      .cls-2 {
        fill: #db3236;
      }

      .cls-3 {
        fill: #009283;
      }

      .cls-4 {
        fill: #d4d2d2;
      }

      .cls-5 {
        fill: #393533;
      }

      .cls-6 {
        fill: #eeb492;
      }
    </style>
  </defs>
  <g id="_Éléments_Mise_en_page" data-name="Éléments_Mise_en_page">
    <g>
      <path class="cls-6" d="M5.35,10.51c-.25.14-.53.18-.77.31-.36.19-.38.25-.65.61-.33.44-.8.52-1.2.39,0,1.75-.14,4.12-.14,4.12l-1.52,5.31-.9,1.84-.17,1.62s.19.05.35-.08c.05.9.33,1.53.33,1.53,0,0,.27.09.38-.15l.08.16c.55-.02.27-.67.27-.67v-.5l.16.61c.39.14.38-.36.38-.36l-.09-.76.16-.76.1-.48c.05-.24.04-.59-.04-.89l3.4-6.48.75-5.97c-.09,0-.18,0-.28,0-.16.24-.38.43-.63.58"/>
      <path class="cls-5" d="M2.44,13.64c.29.19.82.27,1.1.45.45-1.23,1.07-2.82,1.51-4.06.17-1.13,1.55-3.02,1.55-3.02,0,0-2.91,1.18-3.37,1.62-.74.7-.59,3.09-.79,5.01"/>
      <path class="cls-4" d="M12.34,38.3l-1.87.97s-.86,1.76-.89,1.73c-1.46.89-1.02,1.61-.35,1.81.32.1,1.2-.28,1.81-.59.29-.14.55-.33.78-.56l.2-.2,1.22-1.25c.16-.24.18-.56.05-.81l-.95-1.09Z"/>
      <path class="cls-2" d="M12.54,38.53c.08.74.1,1.42.31,2.07l.39-.4c.16-.24.18-.56.05-.82l-.75-.86Z"/>
      <path class="cls-2" d="M10.28,41.72c-.27-.22-.59-.4-.9-.6-1.21.83-.79,1.49-.15,1.68.27.08.95-.18,1.53-.46-.06-.23-.22-.41-.48-.63"/>
      <path class="cls-1" d="M13.21,39.29c-.05.15-.12.3-.23.44-.7.89-1.48,1.67-2.45,2.28-.57.36-1.39.53-1.91.21.04.29.3.49.61.59.34.1,1.33-.34,1.95-.66.2-.11.39-.24.55-.41l.29-.29,1.22-1.26c.16-.24.18-.55.05-.82l-.08-.09Z"/>
      <path class="cls-4" d="M4.61,44.82l-1.9,1.52c-.36.29-1.37.75-1.5,1.19l-.02.07c0,1.14,1.89.8,1.89.8l3.09-1.26c.26-.11.61-.55.64-.83l-.35-1.22-1.85-.26Z"/>
      <path class="cls-2" d="M6.02,45.02c-.11.73-.17,1.46.04,2.16l.11-.04c.26-.11.6-.55.64-.83l-.35-1.22-.44-.06Z"/>
      <path class="cls-3" d="M7.55,22.33l-4.32-1.18s.02,3.45.28,5.67c.19,1.6,1.17,6.31,1.17,6.31l5.66,6.47s1.54.89,2.32-1.13l-4.71-7.57-.39-8.58Z"/>
      <path class="cls-3" d="M5.85,21.49v3.83l-1.82,9.17.17,10.68c1.64,1.43,2.52.34,2.52.34l1.13-10.59s1.45-5.39,2.6-7.88c1.15-2.49.96-5.17.96-5.17l-5.55-.38Z"/>
      <path class="cls-5" d="M11.95,8.74l-3.27-1.85-.99-.2-1.21.21c-.53-.01-2.74,1.25-2.9,1.62-.42.97-.36,8.15-.36,8.15l-.08,4.52s.43,1.24,4.06,1.83c3.79.62,4.3-.74,4.3-.74l-.38-4.59.06-6.53c.1-1.24.79-2.42.79-2.42"/>
      <path class="cls-6" d="M14.15,17.69l-.96-6.11s-.64-2.87-2.38-2.49c-1.7.37-.79,3.42-.79,3.42l1.78,5.45.79,5.6s.02,0,.02,0l-.34,1.58.32,2.07s.45,0,.38-.64l-.11-.72.02.09h0s.3.82.3.82l.04.78-.02.26c-.02.24.31.35.43.13.03-.06.32-.62.32-.62l.56-.51.2-.86-.6-2.26.03-6.01Z"/>
      <path class="cls-5" d="M11.07,8.67c-1.75.39-1.29,3.31-1.29,3.31l.94,2.92c1.6.22,2.99-.71,3.06-.75l-.65-3.22s-.27-2.66-2.06-2.26"/>
      <path class="cls-6" d="M6.32,4.3l-.61,2.41c-.21.81.33,1.35,1.14,1.56.81.21,1.64-.29,1.85-1.1l-.09-1.06.23-1.25-2.51-.55Z"/>
      <path class="cls-6" d="M5.05,5.13c0,1.29.83,2.07,1.88,1.86.14-.03,2.27-.71,2.27-1.98l.25-2.35-4.4-.78v3.26Z"/>
      <path class="cls-1" d="M5.6.56c-1.9,1.2-.55,1.83-.55,1.83,0,0,3.09.07,3.12.59,0,.15-.03,1.16-.03,1.16l.24.18.25-.34-.03,2.13s.96-.8,1.3-2.17c.15-.6.5-1.89-.01-2.53C8.85.1,7.35-.54,5.6.56"/>
      <path class="cls-6" d="M8.51,4.14l.03.91c.36.22.82-.52.75-.97-.13-.79-.78.06-.78.06"/>
      <path class="cls-1" d="M7.52,5.4c-.5.41-.75.42-.97.5-.21.09-.5.16-.65.16-.2,0-.33-.16-.43-.28-.32-.41-.43-1.37-.43-1.37l-.04,1.05c.02,1.2.46,1.68.85,1.81.74.25,1.35-.28,1.7-.58.8-.67.82-2.38.82-2.38l-.24-.18c-.15.73-.39,1.07-.62,1.26"/>
      <path class="cls-1" d="M5.81,5.21c-.08.06.04.27.15.41s1.34.31,1.34.31c0,0-.74-1.29-1.48-.72"/>
      <path class="cls-1" d="M4.86,5.53s.85.16.99.06c.15-.09.2-.28.14-.36-.53-.73-1.14.29-1.14.29"/>
      <path class="cls-2" d="M10.04,40.14s.39.11.63.24l.09-.14s-.22-.14-.66-.22l-.06.12Z"/>
      <path class="cls-2" d="M9.92,40.38c.27.05.6.22.6.22l.09-.12c-.28-.17-.62-.24-.62-.24l-.07.14Z"/>
      <path class="cls-2" d="M9.78,40.66c.27.03.57.17.57.17l.09-.12c-.22-.13-.57-.22-.57-.22l-.09.17Z"/>
      <path class="cls-2" d="M2.37,46.58c-.45.27-1.06.62-1.16.96l-.02.07c0,.76.84.86,1.4.84.27,0,.53-.07.78-.17l.26-.11c-.22-.68-.59-1.34-1.27-1.59"/>
      <path class="cls-2" d="M3.73,45.53l-.16.13c.4.21.64.57.64.57l.22-.14c-.19-.5-.69-.56-.69-.56"/>
      <path class="cls-2" d="M3.41,45.78l-.18.15c.27.16.59.49.59.49l.17-.1c-.24-.39-.58-.54-.58-.54"/>
      <path class="cls-2" d="M3.1,46.03l-.15.12c.18.07.51.42.51.42l.15-.08c-.32-.39-.51-.46-.51-.46"/>
      <path class="cls-1" d="M6.62,46.02c-.55.8-1.39,1.11-2.28,1.4-.53.18-1.09.4-1.65.47-.44.13-.9.11-1.33-.2-.06-.04-.11-.09-.15-.14v.04c-.01.57.46.77.93.82.47.06.94-.03,1.38-.2l2.66-1.09c.26-.11.61-.55.64-.83l-.11-.4s-.04.08-.07.12"/>
    </g>
  </g>
</svg>