<?xml version="1.0" encoding="UTF-8"?>
<svg id="Calque_2" xmlns="http://www.w3.org/2000/svg" viewBox="0 0 16.98 57.03">
  <defs>
    <style>
      .cls-1 {
        fill: #383432;
      }

      .cls-2 {
        fill: #f5af9b;
      }

      .cls-3 {
        fill: none;
        stroke: #fff;
        stroke-miterlimit: 10;
        stroke-width: .21px;
      }

      .cls-4 {
        fill: #302c6a;
      }

      .cls-5 {
        fill: #211e1b;
      }

      .cls-6 {
        fill: #393533;
      }
    </style>
  </defs>
  <g id="_Éléments_Mise_en_page" data-name="Éléments_Mise_en_page">
    <g>
      <path class="cls-2" d="M14.17,13.68s2.66,6.18,2.74,6.71c.08.53.2,1.6-.45,2.29-.65.7-1.35.16-2.09-.9l-.49-4.71.29-3.4Z"/>
      <path class="cls-2" d="M.49,15.52S0,20.69.19,21.41c.18.72.48,2.28,1.02,2.7.54.42,1.8-.42,2.58-2.58l-.78-2.65.78-2.1-3.31-1.26Z"/>
      <path class="cls-4" d="M15.31,15.97c-.34.22-1.93.64-2.25.86-.52-1.44-1.25-3.3-1.76-4.76-.2-1.33-1.82-3.54-1.82-3.54,0,0,3.53,1.28,3.95,1.9.62.91,1.07,3.16,1.89,5.53"/>
      <path class="cls-1" d="M2.76,45.15l2.18,1.13s1,2.06,1.04,2.02c1.7,1.04,1.2,1.88.41,2.12-.37.11-1.4-.33-2.11-.69-.34-.17-.64-.39-.91-.66l-.23-.23-1.43-1.47c-.19-.28-.21-.65-.06-.95l1.11-1.27Z"/>
      <path class="cls-1" d="M11.8,52.79l2.22,1.78c.42.34,1.61.87,1.76,1.39l.02.08c0,1.33-2.2.93-2.2.93l-3.62-1.48c-.31-.13-.71-.64-.74-.97l.41-1.43,2.16-.3Z"/>
      <path class="cls-4" d="M8.37,26.48l5.06-1.38s-.02,4.04-.32,6.64c-.22,1.87-1.36,7.38-1.36,7.38l-6.62,7.57s-1.8,1.04-2.72-1.32l5.51-8.85.46-10.03Z"/>
      <path class="cls-4" d="M10.35,25.49v4.48l2.13,10.73-.2,12.49c-1.92,1.67-2.95.4-2.95.4l-1.32-12.39s-1.7-6.31-3.04-9.22c-1.35-2.91-1.12-6.05-1.12-6.05l6.5-.45Z"/>
      <path class="cls-4" d="M3.21,10.57l3.83-2.16,1.16-.24,1.42.25c.62-.02,3.21,1.46,3.39,1.89.5,1.13.42,9.54.42,9.54l.1,5.29s-.51,1.45-4.74,2.14c-4.43.72-4.93-1.21-4.93-1.21l.35-5.03-.07-7.64c-.12-1.45-.92-2.83-.92-2.83"/>
      <path class="cls-4" d="M4.92,10.46c1.82,1.03.3,4.15.3,4.15l-2.06,2.94c-1.86-.31-3.1-1.82-3.16-1.89l1.84-3.37s1.22-2.88,3.09-1.82"/>
      <path class="cls-2" d="M9.8,5.38l.71,2.82c.24.95-.38,1.58-1.33,1.83-.95.24-1.92-.33-2.16-1.29l.11-1.24-.27-1.47,2.94-.65Z"/>
      <path class="cls-2" d="M11.28,6.35c0,1.51-.97,2.42-2.2,2.17-.16-.03-2.66-.83-2.65-2.32l-.3-2.75,5.15-.91v3.81Z"/>
      <path class="cls-6" d="M10.34.98c1.47,1.14.95,2.16.95,2.16,0,0-3.62.08-3.65.69,0,.18.03,1.36.03,1.36l-.29.21-.3-.4.04,2.49s-1.12-.94-1.52-2.54c-.18-.71-.58-2.21.01-2.96C6.84.46,8.43-.5,10.34.98"/>
      <path class="cls-2" d="M7.24,5.19l-.04,1.06c-.42.26-.96-.61-.88-1.13.16-.93.92.07.92.07"/>
      <path class="cls-4" d="M4.18,28.29s.87,4.15.98,6.31,0,6.12.58,6.65c.59.53.7.81.62,1.55-.09.81-.24.93.32,1.66.56.72-.19,1.11.66,2.13.29.34.1,2.5,1.68,2.77,1.58.27,2.48.26,3.19-.21,1.04-.7,1.17-1.44,1.03-1.98-.61-2.37-1.77-6.78-1.95-8.85-.07-.79-.6-8.81-.6-8.81l-6.51-1.21Z"/>
      <path class="cls-4" d="M6.97,34.41c.09.79,0,1.07-.57,1.58-.6.54-.79.54-.86,1.46-.06.91-.88.71-.91,2.03-.01.45-1.58,1.94-.57,3.18,1.01,1.25,1.69,1.84,2.53,1.96,1.24.17,1.83-.3,2.08-.8,1.11-2.18,1.61-3.85,2.84-5.51"/>
      <path class="cls-4" d="M11.73,2.93s2.11,1.03,2.55,1.32c.45.29-1.61,2.3-3.27,2.01-1.66-.29-3.82-1.62-3.82-1.62l4.54-1.71Z"/>
      <path class="cls-4" d="M11.73,2.93s-2.43,2.02-4.16,1.77c-1.72-.25-2.19-.47-2.19-.47,0,0-1.14-3.3,2.68-4.03,2.84-.54,3.67,2.73,3.67,2.73"/>
      <path class="cls-5" d="M7.94.32c.02.14.24.23.49.19.25-.03.44-.17.42-.32-.02-.14-.24-.22-.49-.19-.25.04-.44.18-.42.32"/>
      <polygon class="cls-1" points="8.96 49.33 12.2 49.43 12.49 54.29 9.24 54.52 8.96 49.33"/>
      <polygon class="cls-1" points="1.65 46.42 3.62 43.23 6.39 45.14 5.05 47.52 1.65 46.42"/>
      <path class="cls-5" d="M3.9,25.38s3.49.88,9.69-.36l-.08-.93s-4.32,1.52-9.57.57l-.04.73Z"/>
      <polygon class="cls-3" points="8.74 25.02 8.74 25.59 10.28 25.5 10.28 24.94 8.74 25.02"/>
      <path class="cls-5" d="M3.74,9.89l1.03,7.46-.47,2.11-.36,5.2c3.86.73,6.68.48,9.57-.57l-.11-7.32-.47-7.01-1.09-.67.11,3.74-5.38.2-1.5-3.84-1.3.71Z"/>
      <path class="cls-2" d="M.83,21.43l2.79-6s.02,0,.03,0l.16-1.88.2-1.29s.11.12.18.83l.53-.14.06-.09h0s.62-.82.62-.82l.31-.86.06-.29c.06-.28.47-.29.52,0,.02.08.15.81.15.81l.45.76-.07,1.03-1.44,2.32-2.02,6.73"/>
      <path class="cls-2" d="M16.65,20.43l-2.62-5.2h-.03l-.24-1.88-.25-1.28s-.11.13-.15.83l-.53-.12-.06-.09h0s-.65-.79-.65-.79l-.34-.85-.08-.29c-.07-.28-.48-.27-.52.02-.01.08-.12.81-.12.81l-.42.78.11,1.03,1.53,2.26,2.11,6.18"/>
    </g>
  </g>
</svg>