<?xml version="1.0" encoding="UTF-8"?>
<svg id="Calque_2" xmlns="http://www.w3.org/2000/svg" viewBox="0 0 27.3 52.28">
  <defs>
    <style>
      .cls-1 {
        fill: #f08c8e;
      }

      .cls-2, .cls-3 {
        fill: #f08c8d;
      }

      .cls-2, .cls-4, .cls-5, .cls-6, .cls-7 {
        fill-rule: evenodd;
      }

      .cls-8 {
        fill: #e88a56;
      }

      .cls-9 {
        fill: #656da4;
      }

      .cls-10 {
        fill: #6a374f;
      }

      .cls-4, .cls-11 {
        fill: #bdc5e1;
      }

      .cls-5 {
        fill: #182945;
      }

      .cls-12 {
        fill: #f4ab9d;
      }

      .cls-6, .cls-13 {
        fill: #e2e4f4;
      }

      .cls-14 {
        fill: #6b3750;
      }

      .cls-15 {
        fill: #f4a79b;
      }

      .cls-16 {
        fill: #efb871;
      }

      .cls-7 {
        fill: #bdc7e3;
      }

      .cls-17 {
        fill: #f0888c;
      }

      .cls-18 {
        fill: #7990c8;
      }
    </style>
  </defs>
  <g id="_Éléments_Mise_en_page" data-name="Éléments_Mise_en_page">
    <g>
      <path class="cls-2" d="M22.07,21.71c-.34-.46-.98-1.02-1.58-.98-.65.05-.47.58-.41,1,.02.12.38,1.27.31,1.27l.28-.03.67.21.42-.2.28-.04c.04-.13.05-.25.04-.35.07.05.15.08.26.06l-.03-.52c-.02-.22-.09-.22-.25-.43"/>
      <path class="cls-14" d="M6,40.48c-.21-.45-.58-.9-.77-1.25-.13-.23-.23-.4-.28-.49-.16-.28-.57-1.34-.68-1.61-.25-.59-.98-.02-1.14.37-.06.14-.06.32-.03.52.05.39.05.57.06.84,0,.15.01.42.01.42l.33.39.17-.07c.46,1.03,1.21,1.84,2.48,1.67.06-.25-.01-.53-.14-.8"/>
      <path class="cls-3" d="M4.64,40.13c.33.22.95.47.83.04-.12-.42-.28-.89-.45-1.17-.27-.45-.45-.9-.47-1.43-.01-.26.24-1.5-.51-1.1-.1,0-.19.19-.24.26-.11.14-.26.23-.39.35-.14.12-.21.27-.23.46,0,.03,0,.07,0,.1.04.53.51,1.3.75,1.76.1.19.39.52.7.72"/>
      <path class="cls-3" d="M9.51,28.67c-.35.17-.72.44-1.05.69-.91.68-1.7,1.51-2.32,2.46-.81,1.26-2.03,3.89-2.71,5.22-.26.5.19.04.48.43.25.07-.18.47.06.58.04.02-.31.45-.27.47,1.06-.46,7.52-7.67,7.87-8.62.46-1.25-1.78.03-2.07-1.23"/>
      <path class="cls-3" d="M15.85,23.21c.15-1.13.26-2.33-.37-3.26-.09-.13-.1-.27-.05-.4-.13-.17-.27-.31-.43-.41-.52-.33-2.08-.09-2.57.29-1.07.83-3.11,7.04-.39,9.76.96.96,2.97-3.32,3.69-5.34,0-.02.11-.62.12-.64"/>
      <path class="cls-14" d="M16.58,52.18c.21.19.54.1.62-.17.13-.45-.03-.99-.14-1.51-.2-.91-.53-2.08-.84-2.95-.6-1.7-1.86-1.59-1.82.34.04,1.57,1.02,3.24,2.18,4.29"/>
      <path class="cls-12" d="M16.68,49.26c-.04-.17-.07-.34-.1-.51-.03-.2-.08-.39-.13-.57l-.14-.43c-.19-.61-.33-1.13-.33-1.86,0-.6-.07-1.22-.13-1.82-.03-.3-.07-.6-.09-.9v-.17c-.18-2.07-.35-4.13-.51-6.2-.02-.3-.05-.59-.07-.89-.06-.85-.13-1.73-.23-2.6-.02-.18-.06-.36-.12-.54-.14-.8-.44-2.33-1.11-5.65-.3-1.49-.67-3.36-1.14-5.7-.16-.82-.43-1.69-1.2-1.97-.38-.14-.78-.07-1.1,0-.67.14-1.32.4-1.91.75.31,1.89.4,3.81-.37,5.57.66,2.1,1.71,4.65,3.29,6.68l.67,1.57c-.09.88-.17,1.8-.02,2.75.05.57.1,1.17.19,1.78.31,2.07.98,4.12,1.62,6.1.2.6.4,1.22.58,1.83.1.31.2.66.23,1.01.01.12.02.24.04.35.12.81.4,1.26.78,1.88.1.16.2.33.31.51.09.16.21.35.39.48.11.07.23.11.35.12,0,0,0,0,.01,0,.1,0,.2-.04.27-.11.08-.08.12-.19.12-.3-.01-.39-.09-.78-.17-1.15"/>
      <path class="cls-1" d="M17.19,15.82c-1.18-1.97-2.34-4.07-3.28-6.25-.22-.51-.43-1.04-.49-1.58-.1-.87.06-1.62.71-1.41.61.2,1.57,1.65,1.89,2.4,1.35,3.17,1.88,3.93,2.61,6.04.31.9.47,2.09-.39,2.03-.39-.03-.8-.82-1.05-1.23"/>
      <path class="cls-14" d="M12.39,6.94c.5-.28.94-.62,1.25-.96,1.41-1.52,1.33-5.49-1.1-5.94-.78-.15-1.62.08-2.23.59-1.04.88-2.14,2.88-3.86,2.4-.53-.15-.9-.76-1.48-.92-.69-.19-1.36.05-2.05-.27-.61-.29-1.04-.89-1.62-1.18C.76.37-.03.08,0,1.05c.01.52.5.76.8,1.17.89,1.19.33,2.68,1.88,3.33.67.28,1.26.12,1.97.21,1.32.16,2.4.9,3.46,1.59,1.15.76,2.94.35,4.28-.4"/>
      <path class="cls-18" d="M15.36,26.49c-.21.72-.63,2-.91,2.63-.09.2-.21.35-.36.48-.03,0-.06.02-.07.02-.17.04-.35.08-.52.12-.66.14-1.34.22-2.01.26-.08,0-.16,0-.24.01-.55-.06-1.08-.15-1.49-.18-.05,0-.1,0-.15-.01-.29-.02-.6-.06-.81-.25-.16-.14-.24-.33-.32-.53-.04-.11-.09-.21-.13-.31l-.11-.29c-.26-.66-.5-1.34-.7-2.03-.19-.62-.35-1.25-.49-1.86-.22-1.02-.06-2.34-.05-3.39.02-2.06,1.21-3.98,1.55-5.99.01-.06.02-.12.03-.19.05-.29.05-.58.03-.85,0,0,0,0,0-.01,0-.07-.01-.14-.02-.21-.17-1.18-.82-2.26-1.19-3.44-.01-.03-.02-.06-.03-.1-.19-.64-.36-1.4.08-1.98.04-.04.07-.09.11-.12.24-.25.5-.44.78-.6.38-.22.8-.38,1.23-.54.04-.01.08-.03.12-.04.1-.04.2-.07.31-.11.11-.04.21-.07.32-.1.71-.21,1.45-.35,2.21-.5.02,0,.04,0,.07-.01.04,0,.08-.02.13-.02.08-.01.16-.02.24-.03.65-.05,1.33.15,1.72.67.19.26.29.57.38.88.33,1.15.6,2.42.33,3.68-.36,1.69-.77,2.94-.39,4.71.18.83.57,2.69.8,3.67.56,2.37.28,4.24-.4,6.57"/>
      <path class="cls-17" d="M13.1,6.56c.31.16.47.51.4.85-.15.67-.26,1.41-.86,1.57-1.05.29-2.1-1.15-2.4-2.08,0-.01.01-.02.02-.03.72-.22,1.47-.36,2.24-.5.04,0,.09,0,.13,0,.17.04.33.1.48.18"/>
      <path class="cls-9" d="M7.42,8.38s.07-.09.1-.12c.24-.25.5-.44.78-.6.5,1.38.16,3.26,1.12,4.59.94,1.3,2.8,1.85,4.3,1.26-.43.9-1.76.81-2.56,1.4-1.89,1.38-2.28,5.23-2.27,7.35,0,.83.17,7.5.85,7.57-.05,0-.1,0-.15-.01-.29-.02-.6-.06-.81-.25-.16-.14-.24-.34-.32-.53-.04-.1-.09-.21-.13-.31l-.11-.29c-.26-.67-.49-1.35-.7-2.03-.19-.62-.35-1.25-.49-1.86-.22-1.02-.06-2.34-.05-3.39.02-2.06,1.21-3.98,1.56-5.99.01-.06.02-.12.03-.19.05-.29.05-.58.03-.85,0,0,0,0,0-.01,0-.07-.01-.14-.02-.21-.17-1.18-.82-2.26-1.19-3.45l.05-2.07Z"/>
      <polygon class="cls-17" points="11.11 3.5 11.11 7.29 13.21 7.29 12.87 3.5 11.11 3.5"/>
      <path class="cls-15" d="M11.83,3.42c-.32-.08-.62-.24-.88-.44,0,.23,0,.44,0,.47,0,1.22.79,2.69,1.97,2.4.84-.21,1.16-1.19,1.16-2.4v-.12c-.69.3-1.53.28-2.24.09"/>
      <path class="cls-15" d="M12.03,2.3v1.44h.55l.04-.19c-.13-.04-.47-1.2-.59-1.25"/>
      <path class="cls-13" d="M23.52,25.5s-.09,0-.11-.06c-.47-1.31-1.49-2.81-2.38-3.06-.25-.07-.42-.05-.5.06-.19.24-.16,1.06-.12,1.74,0,.08-.04.17-.1.2s-.12-.02-.12-.11c-.08-1.2-.02-1.75.21-2.05.21-.27.5-.23.73-.17.99.27,2.03,1.84,2.5,3.18.03.07,0,.17-.06.22-.01.01-.02.02-.04.02"/>
      <polygon class="cls-8" points="25.08 38.17 16.43 32.98 17.01 23.12 24.94 26.97 25.08 38.17"/>
      <polygon class="cls-10" points="17.01 23.12 18.37 22.56 26.22 26.46 24.84 26.97 17.01 23.12"/>
      <polygon class="cls-16" points="26.22 26.46 27.3 36.63 25.02 38.27 24.84 26.97 26.22 26.46"/>
      <path class="cls-13" d="M22.38,26.93c-.08.02-.13-.04-.12-.13.07-2.36-.38-3.99-1.18-4.27-.35-.12-.67.13-.87.35-.52.58-.9,1.69-.95,2.75,0,.09-.06.17-.12.18-.06.01-.11-.05-.11-.13.05-1.18.46-2.38,1.06-3.04.36-.4.74-.55,1.08-.43.9.31,1.39,2,1.31,4.52,0,.08-.05.16-.1.18"/>
      <path class="cls-2" d="M21.12,20.88c-.43-.02-.58.36-.84.46-.39-.71-1.86-2.58-2.46-4.05-.35-.86-.41-1.58.22-1.84.59-.25.89.17,1.3.81.89,1.38.8,2.68,1.78,4.62"/>
      <path class="cls-12" d="M20.45,22.91c-.37-.13-.22-.76.07-.93.4-.22.58.11.76.36.13.18.5.62.25.79-.23.15-1.1.02-1.14-.21.03,0,.07-.01.1,0h-.03Z"/>
      <path class="cls-5" d="M5.68,19.39c-.17-.07-1.09.42-1.11.53.28,1.17,3.17,6.4,3.88,6.14.4-.15,1.12-.6,1.29-.72.72-.51.52-2.46.07-3.89l-4.13-2.06Z"/>
      <path class="cls-4" d="M8.25,22.25c-.58,1.22-.84,4.2.21,3.81.4-.15,1.12-.6,1.29-.72.72-.51.52-2.46.07-3.89l-1.57.79Z"/>
      <path class="cls-6" d="M4.57,19.92c-.46.97-1.13,2.28-.9,3.01.4,1.29,2.96,2.26,4.01,2.94,1.6,1.05,1.61-2.03,1.02-3.9l-4.13-2.06Z"/>
      <path class="cls-7" d="M5.68,19.39c-.17-.07-1.09.42-1.11.53.01,1.07.46,1.98,1.24,2.43.51.29,1.55.2,2.43-.1l1.57-.8-4.13-2.06Z"/>
      <path class="cls-11" d="M9.43,21.78l-.4-.03s.25-3.3.32-6.63c.12-6-.44-7.02-.69-7.19-.07-.04-.12-.05-.19-.02-1.13.51-2.53,7.46-3.19,12.01l-.4-.06s.42-2.9,1.04-5.82c1.26-6,2.11-6.38,2.38-6.5.2-.09.4-.07.58.05.25.16,1.01.66.87,7.53-.07,3.35-.32,6.62-.32,6.65"/>
      <path class="cls-12" d="M6.63,15.2c.9-1.5,1.75-3.1,2.37-4.78.14-.39.21-.74.19-1.17-.03-.68-.42-1.53-1.05-1.4-.59.12-1.16,1.42-1.37,2-.89,2.44-1.31,3.01-1.73,4.64-.18.69-.16,1.63.71,1.62.39,0,.69-.6.88-.92"/>
      <path class="cls-12" d="M6.82,21.67s0-.05.01-.08c.03-.41.09-.82.1-1.23.06-1.42,0-2.82-.1-4.21-.05-.74,0-2.32-1.22-1.88-1.24.45-.66,2.54-.55,3.33.04.28.08.56.13.85.16,1.07.32,2.11.57,3.15.03.15.07.3.17.4.28.32.8.09.89-.34"/>
      <path class="cls-12" d="M6.86,20.87s.58.75.73,1.75c.04.29.08.52.1.69.01.07-.1.09-.13.02l-.35-.86.14,1.67c.01.17-.18.27-.34.19l-.68-.37c-.32-.24-.53-.58-.57-.95l-.06-.54c-.06-.52.03-1.04.27-1.5.14-.27.52-.35.8-.16l.11.07Z"/>
    </g>
  </g>
</svg>