<?xml version="1.0" encoding="UTF-8"?>
<svg id="Calque_2" xmlns="http://www.w3.org/2000/svg" viewBox="0 0 39.07 53.51">
  <defs>
    <style>
      .cls-1 {
        fill: #fff;
      }

      .cls-2 {
        fill: #f4c900;
      }

      .cls-3 {
        fill: #ebeef8;
      }

      .cls-4 {
        fill: #f4cf00;
      }

      .cls-5 {
        fill: #243268;
      }

      .cls-6 {
        fill: #e84f0e;
      }

      .cls-7 {
        fill: none;
        stroke: #fff;
        stroke-miterlimit: 10;
        stroke-width: .25px;
      }

      .cls-8 {
        fill: #1397d5;
      }

      .cls-9 {
        fill: #235aa3;
      }
    </style>
  </defs>
  <g id="_Éléments_Mise_en_page" data-name="Éléments_Mise_en_page">
    <g>
      <path class="cls-3" d="M35.06,21.13c-.13,0-.25,0-.38.02-.91.08-1.86.4-2.84.96-.92.53-1.82,1.26-2.69,2.16-1.79,1.87-3.2,4.26-3.96,6.75-1.51,4.95.02,8.78,3.41,8.78.13,0,.26,0,.4-.02.9-.08,1.84-.4,2.81-.96,2.91-1.68,5.61-5.18,6.64-8.91,1.59-4.95,0-8.78-3.39-8.78M37.34,29.56c-1.06,3.46-3.45,6.69-6.11,8.22-.82.47-1.61.75-2.33.81-.1,0-.2.01-.29.01-.84,0-1.51-.33-1.99-.97-.96-1.3-1.07-3.64-.27-6.25.71-2.31,2.01-4.54,3.67-6.27.79-.82,1.6-1.48,2.43-1.95.82-.47,1.61-.74,2.34-.81.1,0,.2-.01.29-.01.84,0,1.51.33,1.99.97.96,1.3,1.07,3.64.27,6.25"/>
      <path class="cls-5" d="M16.43,35.55l3.12-1.59c.24-.12.52.06.51.33,0,.13-.08.24-.19.3l-3.12,1.59c-.24.12-.53-.06-.51-.33,0-.13.08-.24.19-.3"/>
      <path class="cls-3" d="M17.13,30.62c-.65.35-.44.82-.46.8l.23,1.43-.89,1.39c-.2.32-.06.74.29.9.2.09.42.08.6-.03l1.89-1.15c.28-.17.48-.45.55-.76l-.1-2.42c-.01-.93-2.11-.17-2.11-.17"/>
      <path class="cls-2" d="M19.15,30.63c0,.21-.08.4-.23.53l-.14.12c-.35.29-.78.44-1.22.42-.16-.02-.3-.04-.43-.07-.07-.02-.14-.04-.21-.07-.12-.05-.21-.16-.24-.28-.12-.51-.28-1.11-.44-1.7.93.08,1.66-2.17,2.6-2.18.02.15.27,2.48.29,2.63l.02.61Z"/>
      <path class="cls-8" d="M23.14,20.17l5.7-2.8-5.44-3.2-3.3,2.57c-2.43.98-6.02,3.09-6.21,4.56-.19,1.46.26,3.01.72,4.39.44,1.32,1.14,2.57,1.59,3.89.19.55.15.71.88.84.65.12,1.34-.07,1.83-.49.13-.11.2-.27.19-.45l-.87-6.78,4.91-2.54Z"/>
      <path class="cls-4" d="M9.22,33.52c.13.07.24.17.34.29.09-.34.24-.65.44-.92-.16-.16-.34-.3-.53-.4-1-.55-2.02-.1-2.28.99l-2.77,11.62c-.04.18.05.37.24.47.31.17.7.03.77-.27l2.7-11.31c.13-.53.62-.74,1.1-.48"/>
      <path class="cls-4" d="M21.03,37.31c-.09,0-.18-.02-.26-.07l-10.73-6.15c-.17-.1-.27-.28-.27-.47,0-.2.12-.37.29-.46l15.91-7.95c.23-.12.52-.05.67.17l5.56,7.92c.09.12.12.27.08.42-.03.15-.12.27-.25.34l-10.74,6.17c-.08.05-.17.07-.26.07M11.42,30.67l9.61,5.51,9.97-5.74-4.97-7.08-14.62,7.31Z"/>
      <path class="cls-4" d="M9.58,33.29s-.08,0-.12-.02c-.28-.08-.45-.4-.37-.72l2.17-9.15c.08-.32.37-.52.65-.45.28.08.45.4.37.72l-2.17,9.15c-.07.28-.29.46-.53.46"/>
      <path class="cls-4" d="M20.27,39.92c-.25,0-.48-.06-.68-.18-.49-.28-.76-.86-.76-1.63,0-1.52,1.07-3.38,2.39-4.14.29-.16,3.46-1.49,6.97-2.95h.02c2.4-1.01,3.31-1.39,3.39-1.43.29-.17.58-.19.8-.06.22.13.35.38.35.72,0,.64-.44,1.4-.99,1.72-.07.04-.73.52-3.28,2.41-2.7,2-6.79,5.01-7.1,5.2-.39.22-.76.34-1.11.34"/>
      <path class="cls-5" d="M21.29,38.54c-.78.45-1.41.08-1.41-.81s.63-2,1.41-2.44c.78-.45,1.41-.08,1.41.82s-.63,1.99-1.41,2.44"/>
      <path class="cls-5" d="M30.99,31.11c0,.37.26.51.57.33.32-.18.57-.63.57-.99s-.26-.51-.57-.33c-.32.18-.57.63-.57.99"/>
      <polyline class="cls-2" points="29.75 20.28 29.75 20.27 29.75 20.28"/>
      <path class="cls-5" d="M21.62,41.77l3.12-1.59c.24-.12.52.06.51.33,0,.13-.08.24-.19.3l-3.12,1.59c-.24.12-.53-.06-.51-.33,0-.13.08-.24.19-.3"/>
      <path class="cls-3" d="M10.45,34.83c-.97,0-2.06.32-3.22.99-3.99,2.3-7.23,7.92-7.23,12.53,0,3.27,1.63,5.16,4.01,5.16.97,0,2.07-.32,3.22-.98,3.99-2.3,7.23-7.92,7.23-12.53,0-3.27-1.63-5.16-4.01-5.16M6.55,51.35c-.91.53-1.79.8-2.55.8s-1.39-.28-1.84-.85c-.53-.67-.82-1.69-.82-2.96,0-4.1,3-9.3,6.55-11.35.91-.53,1.79-.8,2.54-.8s1.39.28,1.84.85c.53.67.82,1.69.82,2.96,0,4.1-3,9.3-6.55,11.35"/>
      <path class="cls-5" d="M6.96,42.68c-.89.51-1.62,1.77-1.62,2.8s.73,1.45,1.62.93c.89-.51,1.61-1.77,1.61-2.8s-.73-1.45-1.61-.93"/>
      <path class="cls-4" d="M18.11,27.17c-.07,0-.15-.02-.22-.06l-12.54-6.95c-.22-.12-.3-.4-.18-.61.12-.22.4-.3.61-.18l12.54,6.95c.22.12.3.4.18.62-.08.15-.24.23-.4.23"/>
      <path class="cls-6" d="M18.11,27.47c-.12,0-.24-.03-.35-.09-.69-.37-1.5-.81-2.21-1.23-.36-.21-.48-.67-.27-1.03.21-.36.67-.48,1.03-.27.7.41,1.49.84,2.16,1.2.37.2.51.65.31,1.02-.14.25-.4.4-.67.4"/>
      <path class="cls-6" d="M7.76,21.73c-.12,0-.24-.03-.35-.09-.71-.38-1.52-.82-2.21-1.23-.36-.21-.48-.67-.27-1.03.21-.36.67-.48,1.03-.27.68.39,1.47.83,2.16,1.2.37.19.51.65.31,1.02-.14.25-.4.4-.67.4"/>
      <path class="cls-4" d="M13.23,24.48c-.07,0-.15-.02-.22-.06-1.6-.89-3.27-1.82-4.96-2.76-.22-.12-.3-.4-.17-.62s.4-.3.61-.17c1.69.94,3.36,1.87,4.96,2.76.22.12.3.4.18.62-.08.15-.24.23-.4.23"/>
      <path class="cls-4" d="M9.46,32.49c-.82-.45-1.66-.23-2.08.47.3.3.55.65.73,1.02.13-.52.62-.72,1.09-.46.48.26.77.91.64,1.43l-2.73,11.47c-.04.18.05.37.24.47.31.17.7.03.77-.27l2.66-11.16c.26-1.1-.34-2.43-1.34-2.98"/>
      <path class="cls-3" d="M22.78,37.12s-.04.01-.06.02c-.67.33-.53.78-.56.76v1.29c0,.08-.03.16-.08.23l-1.02,1.25c-.25.31-.18.73.15.9.18.09.41.09.6-.01l2.06-1.08c.29-.15.52-.4.65-.68.02-.03.02-.07.03-.11l.28-2.34c.13-.86-1.78-.32-2.05-.25"/>
      <path class="cls-2" d="M24.75,37.21c-.03.2-.14.39-.31.52l-.16.11c-.38.28-.83.4-1.26.38-.01,0-.03,0-.04,0-.14-.02-.26-.04-.38-.07-.01,0-.03,0-.04-.01-.06-.02-.12-.04-.18-.07-.11-.05-.18-.16-.19-.29-.03-.41-.08-.88-.13-1.35-.02-.17.09-.32.25-.38.66-.22,1.38-1.33,2.07-1.81.24-.17.58,0,.57.31-.04.74-.11,1.97-.11,2.08l-.08.6Z"/>
      <path class="cls-8" d="M23.02,16.77v.05c.05-.01.11-.03.17-.05,0-.06-.07-.05-.17,0"/>
      <path class="cls-8" d="M30.29,16.78l-.24-1.38-.59.48s-.02-.08-.04-.12c0,0,0,0,0,0-.5.07-1.01.11-1.51.15-.39.03-.78.05-1.17.07-.2.01-.4.02-.6.04-.01,0-.02,0-.04,0-.04,0-.1.02-.17.04-.93.21-1.84.48-2.74.71,0,0,0,.01,0,.02l-.6,2.67s0,.01,0,.02l-1.46,6.8c-.05.92-.1,1.82-.15,2.74,0,0,0,0,0,0l.88,6.88c.01.27.16.5.39.63l.07.04c.74.4,1.68.31,2.41-.25.15-.11.24-.28.25-.45l.79-7.97c.02-.06.04-.15.05-.21l.58-1.35,3.08-5.12c.8-1.33,1.1-2.91.83-4.44"/>
      <path class="cls-2" d="M18.54,6.44l-1.53,3.92s-.32,2.01-.33,2.02c-.27.66-1.69,2.81-2.02,3.3-.28.42-.6.79-.96,1.12-.41.38-.88.7-1.41.99-1.56.85-3.2,1.47-4.71,2.46-.28.18-.11.98-.68,1.15-.34.1-.76-.08-.93-.47-.05-.11-.08-.24-.08-.36-.04-1.27,2.12-2.99,2.68-3.56.77-.8,1.54-1.6,2.32-2.41.14-.14.42-.36.67-.59.08-.07.15-.14.22-.21.14-.15.24-.29.28-.41l.12-.4.24-.67,1.8-5.03c.07-.2.16-.39.27-.57.17-.29.37-.55.61-.79.23-.24.49-.44.77-.61.1-.06.2-.12.3-.16.7-.33,1.45-.37,2.04.06l.33,1.23Z"/>
      <path class="cls-9" d="M29.8,14.5c-.05-.18-.11-.35-.15-.52-.67-2.57-1.8-4.61-3.92-6.32-.65-.52-1.7-1.09-2.43-1.46-1.57-.8-4.71-2.35-6.52-1.89-.28.07-.56.17-.83.31-.12.06-.23.12-.34.18-.3.18-.6.38-.88.61,0,0,0,0,0,0-.91.75-1.57,1.76-1.76,2.93l-.74,4.44c.93,2.01,3.32,1.68,3.32,1.68.03-.05.06-.1.1-.15.27-.43.56-.6.71-1.14.69,1.59,1.83,3.28,2.1,3.65,1.79,2.4,4.99,3.54,7.94,2.51.98-.34,2.46-.99,3.22-1.71.89-.85.52-2.07.21-3.12"/>
      <path class="cls-3" d="M20.96,5.19c-.75-.31-1.72-.26-2.34.2-.59.44-.95,1.19-.93,1.97,0,.11.02.23.09.31.06.06.15.08.23.09.48.04,1.2-.6,1.54-.42.51.27.16,1.06.81,1.16.63.09,1.33-.7,1.52-1.21.38-1.05-.14-1.76-.91-2.09"/>
      <path class="cls-5" d="M18.35,1.99c-.18.13-.22.38-.08.55l.81,1.01-.13-1.28c-.03-.29-.36-.45-.6-.28"/>
      <path class="cls-5" d="M19.15,3.14c-.11-.1-.11-.26-.16-.39-.06-.14-.14-.28-.21-.41-.13-.25-.56-.24-.59.08-.02.24.06.4.13.62.07.21.08.4.24.57.33.36.93-.13.59-.46"/>
      <path class="cls-2" d="M22.46,16.34l-.31.87-.25.7-.13.42c-.04.13-.15.28-.29.43-.07.07-.15.15-.23.22-.27.24-.56.47-.71.62-.81.84-1.62,1.68-2.43,2.52-.58.6-2.84,2.41-2.8,3.73,0,.13.03.26.08.38.18.41.61.6.97.49.59-.18.42-1.01.71-1.2,1.58-1.04,3.3-1.69,4.93-2.58.56-.31,1.05-.65,1.48-1.04.38-.35.71-.73,1.01-1.17.35-.51.65-1.1.94-1.79,0-.01.01-.03.02-.04l.69-1.75c-1.66.4-3.52-.72-3.67-.82"/>
      <path class="cls-2" d="M20.23,7.06h0c-.75.21-1.52-.22-1.73-.97l-.46-1.62c-.21-.75.22-1.52.97-1.73.74-.21,1.52.22,1.73.97l.46,1.62c.21.74-.22,1.52-.97,1.73"/>
      <path class="cls-2" d="M16.74,3.96c.23,1.03,1.25,1.68,2.28,1.45.41-.09.76-.31,1.02-.6.07-.08.13-.16.18-.25.26-.41.36-.92.25-1.43-.17-.75-.75-1.29-1.45-1.45-.11-.03-.23-.04-.35-.05h0c-.16,0-.32,0-.48.04-.04,0-.08.02-.12.03-.33.09-.61.27-.83.49-.44.45-.65,1.1-.5,1.75"/>
      <path class="cls-5" d="M19.76.48c-.77-.18-1.41.25-2.03.7-.45.33-.75.38-1.25.49-.38.08-.78-.23-.74.41.1,1.36,2.72.74,3.4,1.54.14.16.1.47.3.66.24-.05.37-.21.4-.41.32.17.62.25.85.07.14-.1.22-.26.3-.42.19-.38.35-.78.39-1.2.09-.97-.76-1.65-1.63-1.85M18.44,3.09s.08.02.12.03c.03,0,.06.02.09.03l-.21-.07Z"/>
      <path class="cls-2" d="M19.74,4.2c.06.26.32.43.58.37.26-.06.43-.32.37-.58-.06-.26-.32-.43-.59-.37-.26.06-.43.32-.37.58"/>
      <path class="cls-1" d="M21.47,2.19s.27-1.58-2.19-2.14c-1.72-.39-3.18,1.64-3.18,2.59l3.83.38s.76.05.81.38c.05.33-.14,1.28-.14,1.28l.63-.54.25-1.94Z"/>
      <path class="cls-7" d="M18.17,5.69s.7.2,1.47-.84"/>
      <polyline class="cls-7" points="19.67 2.95 19.63 4.9 20.75 4.37"/>
    </g>
  </g>
</svg>