<?xml version="1.0" encoding="UTF-8"?>
<svg xmlns="http://www.w3.org/2000/svg" xmlns:xlink="http://www.w3.org/1999/xlink" viewBox="0 0 43.86 54.6">
  <defs>
    <style>
      .uuid-d5b3b27a-0539-4d64-9718-88befb02153d {
        fill: #cacfdf;
      }

      .uuid-5909314c-dacf-42b3-9bca-6850691aa2fd {
        fill: #4bb0c1;
      }

      .uuid-bcddf162-2e51-4ecb-8b64-a980b05fa8c2 {
        fill: #d8ddee;
      }

      .uuid-8d8a7309-7ccd-4e8b-bd6a-d95d08a5cca6 {
        fill: #e6effa;
      }

      .uuid-088190b8-3395-44a5-a20f-19cbff28b89d {
        clip-path: url(#uuid-e74ef480-9165-4455-97f8-00205e690bfc);
      }

      .uuid-9c7ff410-27a9-49cc-9465-47500a5bf6c7 {
        fill: #2b3086;
      }

      .uuid-b3e3bb8f-ee09-403a-88f9-1bd776f253de {
        fill: none;
      }

      .uuid-f821eb77-72fe-44ed-aa67-c24cd318c630 {
        isolation: isolate;
      }

      .uuid-2e1660dd-e992-4985-aa81-ff7611276700 {
        clip-path: url(#uuid-c492291e-987f-4731-b480-f8d84ac2820f);
      }

      .uuid-4550ffc2-dd60-48f5-8b05-63a7f5b669e5 {
        mix-blend-mode: multiply;
      }

      .uuid-fbfee9a2-96d7-43f5-8ce6-ae265c99e372 {
        fill: #466cb2;
      }

      .uuid-5d5c9cdf-827f-41bd-b0a2-363d32f16289 {
        fill: #ef7f55;
      }

      .uuid-2a102f6f-9486-432f-b76d-c1359991d2be {
        fill: #26231e;
      }
    </style>
    <clipPath id="uuid-c492291e-987f-4731-b480-f8d84ac2820f">
      <rect class="uuid-b3e3bb8f-ee09-403a-88f9-1bd776f253de" x="17.86" y="6.78" width="1.54" height="1.78"/>
    </clipPath>
    <clipPath id="uuid-e74ef480-9165-4455-97f8-00205e690bfc">
      <rect class="uuid-b3e3bb8f-ee09-403a-88f9-1bd776f253de" x="17.86" y="6.78" width="1.54" height="1.78"/>
    </clipPath>
  </defs>
  <g class="uuid-f821eb77-72fe-44ed-aa67-c24cd318c630">
    <g id="uuid-3a24c8fd-ac06-48fa-94c0-3683765ba420" data-name="Calque_2">
      <g id="uuid-cab74edd-7e19-4f68-b1a8-31c165a1aa9c" data-name="Les_personnages">
        <g id="uuid-0385d678-b461-4cf2-91d0-23ef683236e2" data-name="Chara_x5F_FemmeVelo_x5F_HD">
          <path class="uuid-9c7ff410-27a9-49cc-9465-47500a5bf6c7" d="M31.88,20.36c-.16,0-.29-.13-.29-.29v-1.21c0-.45-.24-.87-.64-1.09l-11.09-6.24c-.37-.21-.8-.22-1.18-.02-.38.19-.62.55-.67.97l-.04.32c-.02.16-.16.28-.32.26-.16-.02-.27-.16-.26-.32l.04-.32c.07-.61.44-1.14.99-1.42.55-.28,1.2-.27,1.73.04l11.09,6.24c.58.32.94.94.94,1.6v1.21c0,.16-.13.29-.29.29"/>
          <path class="uuid-bcddf162-2e51-4ecb-8b64-a980b05fa8c2" d="M14.48,33.49c-1.71-.99-3.93-.79-6.26.55C3.69,36.66,0,43.05,0,48.29c0,2.69.94,4.71,2.65,5.7.72.41,1.53.62,2.39.62,1.2,0,2.52-.39,3.87-1.17,4.54-2.62,8.22-9.01,8.22-14.24,0-2.69-.94-4.71-2.65-5.7M3.54,52.45c-1.18-.68-1.83-2.19-1.83-4.25,0-4.64,3.27-10.31,7.29-12.63,1.08-.62,2.11-.94,3.01-.94.59,0,1.12.13,1.58.4.59.34,1.05.89,1.36,1.61.31.72.47,1.61.47,2.64,0,4.64-3.27,10.31-7.29,12.63-1.78,1.03-3.42,1.22-4.6.54"/>
          <path class="uuid-9c7ff410-27a9-49cc-9465-47500a5bf6c7" d="M14.48,33.49c-1.71-.99-3.93-.79-6.26.55C3.69,36.66,0,43.05,0,48.29c0,2.69.94,4.71,2.65,5.7.72.41,1.53.62,2.39.62,1.2,0,2.52-.4,3.87-1.17,4.53-2.62,8.22-9.01,8.22-14.24,0-2.69-.94-4.71-2.65-5.7M8.21,52.68c-1.98,1.14-3.81,1.35-5.14.58-1.33-.77-2.07-2.45-2.07-4.74,0-5.05,3.56-11.21,7.93-13.74,1.19-.69,2.33-1.04,3.34-1.04.66,0,1.27.15,1.8.46,1.33.77,2.06,2.45,2.06,4.74,0,5.05-3.56,11.21-7.93,13.73"/>
          <path class="uuid-bcddf162-2e51-4ecb-8b64-a980b05fa8c2" d="M41.21,17.66c-1.71-.99-3.93-.79-6.26.55-4.54,2.62-8.22,9.01-8.22,14.24,0,2.69.94,4.71,2.65,5.7.72.41,1.53.62,2.39.62,1.2,0,2.52-.39,3.86-1.17,4.54-2.62,8.22-9.01,8.22-14.24,0-2.69-.94-4.71-2.65-5.7M30.26,36.62c-1.18-.68-1.83-2.19-1.83-4.25,0-4.64,3.27-10.31,7.29-12.63,1.08-.62,2.11-.94,3.01-.94.59,0,1.12.13,1.58.4.59.34,1.05.89,1.36,1.61.31.72.47,1.61.47,2.64,0,4.64-3.27,10.31-7.29,12.63-1.78,1.03-3.42,1.22-4.6.54"/>
          <path class="uuid-9c7ff410-27a9-49cc-9465-47500a5bf6c7" d="M41.21,17.66c-1.71-.99-3.93-.79-6.26.55-4.54,2.62-8.22,9.01-8.22,14.24,0,2.69.94,4.71,2.65,5.7.72.41,1.53.62,2.4.62,1.2,0,2.52-.4,3.86-1.17,4.53-2.62,8.22-9.01,8.22-14.24,0-2.69-.94-4.71-2.65-5.7M34.93,36.85c-1.98,1.14-3.81,1.35-5.14.58-1.33-.77-2.07-2.45-2.07-4.74,0-5.05,3.56-11.21,7.93-13.74,1.2-.69,2.33-1.04,3.34-1.04.66,0,1.27.15,1.8.46,1.33.77,2.07,2.45,2.07,4.74,0,5.05-3.56,11.21-7.93,13.73"/>
          <path class="uuid-bcddf162-2e51-4ecb-8b64-a980b05fa8c2" d="M20.39,14.06s-1.09,3.17-1.09,3.17c-.02.07-.04.14-.06.2,0,.03-.02.06-.04.09-.25.49-1.01.8-1.68.99-.3.09-.58.15-.78.19-.04.01-.09.02-.13.03-1.13.22-2.19,0-3.05-.39-.29-.14-.57-.29-.82-.48-.13-.09-.16-.27-.08-.45.15-.35.27-.69.38-1.04.36-1.2.47-2.38.59-3.56.17-1.65.68-5.01,2.74-5.34.98-.15,1.95.25,2.82.71.61.33,1.34.67,1.9,1.15,0,0,0,0,0,0,.08.07.16.14.23.21.35.36.59.79.63,1.33.1,1.38-1.16,2.04-1.55,3.17"/>
          <path class="uuid-9c7ff410-27a9-49cc-9465-47500a5bf6c7" d="M19.75,6.42s0,0-.01,0c0-.02,0-.04,0-.06,0,.02,0,.03.02.05"/>
          <g class="uuid-4550ffc2-dd60-48f5-8b05-63a7f5b669e5">
            <g class="uuid-2e1660dd-e992-4985-aa81-ff7611276700">
              <g class="uuid-088190b8-3395-44a5-a20f-19cbff28b89d">
                <polygon class="uuid-5d5c9cdf-827f-41bd-b0a2-363d32f16289" points="17.86 6.78 19.03 8.56 19.11 8.56 19.4 6.82 17.86 6.78"/>
              </g>
            </g>
          </g>
          <path class="uuid-5d5c9cdf-827f-41bd-b0a2-363d32f16289" d="M19.58,5.86s-.1.03-.15.01c0-.01,0-.03-.01-.04l.16.03Z"/>
          <path class="uuid-5d5c9cdf-827f-41bd-b0a2-363d32f16289" d="M15.79,8.27c.37.54,1.6.35,2.78-.43-.33-.1-.65-.17-.94-.23-.51-.11-1.21-.16-1.88-.07-.1.29-.09.54.04.73"/>
          <path class="uuid-9c7ff410-27a9-49cc-9465-47500a5bf6c7" d="M19.68,5.67s0,0-.01,0c0-.02,0-.04,0-.06,0,.02,0,.03.02.05"/>
          <path class="uuid-5d5c9cdf-827f-41bd-b0a2-363d32f16289" d="M19.5,5.11s-.1.03-.15.01c0-.01,0-.03-.01-.04l.16.03Z"/>
          <path class="uuid-9c7ff410-27a9-49cc-9465-47500a5bf6c7" d="M20.02,6.04s0,0-.01,0c0-.01,0-.03,0-.05,0,.01,0,.03.01.04"/>
          <path class="uuid-5d5c9cdf-827f-41bd-b0a2-363d32f16289" d="M21.54,5.43c-.02.59-.13,1.17-.5,1.6-.41.48-1.07.67-1.69.69-.34,0-.7-.04-1.01-.21-.58-.32-.85-1.01-.99-1.67-.05-.25-.09-.5-.11-.75-.01-.29,0-.58.09-.85.18-.6.62-1.09,1.15-1.4.53-.31,1.14-.45,1.75-.52.3-.03.61-.04.88.1.18.09.31.27.36.46.02.07.02.14,0,.21.02.54.04,1.07.06,1.6,0,.24.02.49,0,.73"/>
          <path class="uuid-5d5c9cdf-827f-41bd-b0a2-363d32f16289" d="M19.86,5.57s-.09.02-.14.01c0-.01,0-.02,0-.03l.15.02Z"/>
          <path class="uuid-5d5c9cdf-827f-41bd-b0a2-363d32f16289" d="M19.45,5.56c-.01.2.09.39.21.55.07.11.15.21.26.28.11.07.25.12.38.09.41-.09.37-.65.24-.93-.1-.21-.3-.38-.54-.41-.28-.03-.53.15-.55.42"/>
          <path class="uuid-5d5c9cdf-827f-41bd-b0a2-363d32f16289" d="M8.67,43.62s-.05,0-.08,0c-.16-.04-.25-.2-.21-.36l4-14.8c.02-.07.07-.14.14-.18l14.88-8.6c.12-.07.28-.04.37.07l5.59,6.63c.66.79,1.64,1.24,2.67,1.24.16,0,.29.13.29.29s-.13.29-.29.29c-1.2,0-2.34-.53-3.11-1.45l-5.43-6.44-14.56,8.41-3.97,14.69c-.04.13-.15.22-.28.22"/>
          <polygon class="uuid-5d5c9cdf-827f-41bd-b0a2-363d32f16289" points="21.9 36.21 10.67 27.11 11.03 26.66 22 35.54 22.91 35.17 26.89 19.52 26.66 15.62 27.25 15.59 27.48 19.57 27.47 19.62 23.4 35.6 21.9 36.21"/>
          <path class="uuid-9c7ff410-27a9-49cc-9465-47500a5bf6c7" d="M10.84,27.73l-1.12-.65c-.88-.51-.88-1.33,0-1.84l1.12-.65c.87-.51,2.3-.51,3.18,0l1.12.65c.87.5.87,1.33,0,1.84l-1.12.65c-.87.51-2.3.51-3.18,0"/>
          <path class="uuid-9c7ff410-27a9-49cc-9465-47500a5bf6c7" d="M10.84,26.88l-1.12-.65c-.88-.51-.88-1.33,0-1.84l1.12-.65c.87-.51,2.3-.51,3.18,0l1.12.65c.87.5.87,1.33,0,1.84l-1.12.65c-.87.51-2.3.51-3.18,0"/>
          <path class="uuid-9c7ff410-27a9-49cc-9465-47500a5bf6c7" d="M20.75,42.46l-.12.14s0-.02,0-.03c.04-.04.08-.07.13-.11"/>
          <path class="uuid-5d5c9cdf-827f-41bd-b0a2-363d32f16289" d="M28.9,15.31c.66.04,1.35.08,1.94.38.59.3,1.07.93.99,1.59,0,.06-.02.13-.06.18-.06.07-.15.1-.24.11-.61.08-1.15-.39-1.75-.54-.25-.06-.5-.06-.75-.14-.24-.07-.48-.23-.55-.47-.03-.1-.02-.2,0-.31.08-.38.39-.69.77-.78l-.34-.03Z"/>
          <path class="uuid-fbfee9a2-96d7-43f5-8ce6-ae265c99e372" d="M25.05,34.51c0,1.5-1.06,3.33-2.36,4.08-1.3.75-2.36.14-2.36-1.36s1.06-3.33,2.36-4.08c1.3-.75,2.36-.14,2.36,1.36"/>
          <path class="uuid-5d5c9cdf-827f-41bd-b0a2-363d32f16289" d="M25.91,42.17c-1.04.77-2.34,1.18-3.63,1.15-.14,0-.3-.01-.4-.11-.11-.1-.14-.24-.17-.38-.01-.06-.02-.11-.03-.17,0,0,0,0,0-.01,0,0,0-.02,0-.03-.63-3.24-1.14-6.51-1.54-9.79-.1-.25-.18-.51-.2-.78-.05-.5.06-1.06.46-1.37.58-.45,1.49-.13,1.91.46.43.6.5,1.37.56,2.1.22,2.58.43,5.17.65,7.75.53-.09,1.07-.11,1.61-.07.46.03.91.11,1.36.24.1.4-.24.77-.57,1.01"/>
          <path class="uuid-9c7ff410-27a9-49cc-9465-47500a5bf6c7" d="M25.91,42.17c-1.04.77-2.34,1.18-3.63,1.15-.14,0-.3-.01-.4-.11-.11-.1-.14-.24-.17-.38-.01-.06-.02-.11-.03-.17,1.2-.06,2.39-.42,3.42-1.04.1-.06.21-.13.26-.23.06-.1.05-.25-.05-.32-.07-.05-.19-.06-.19-.15,0,0,0,0,0-.01.46.03.91.11,1.36.24.1.4-.24.77-.57,1.01"/>
          <path class="uuid-d5b3b27a-0539-4d64-9718-88befb02153d" d="M20.13,9.9s-.01,0-.02.01c-.03,0-.06.02-.09.03l.1-.05Z"/>
          <path class="uuid-d5b3b27a-0539-4d64-9718-88befb02153d" d="M20.5,9.74l-.36.16c.11-.07.23-.13.35-.16.02,0,.04-.01.06-.02l-.05.02Z"/>
          <path class="uuid-d5b3b27a-0539-4d64-9718-88befb02153d" d="M20.39,14.06s-1.09,3.17-1.09,3.17c-.02.07-.04.14-.06.2,0,.03-.02.06-.04.09-.25.49-1.01.8-1.68.99-.14-.78.31-1.58.68-2.3.73-1.41,1.25-2.93,1.53-4.5.09-.48.15-.98.35-1.42.13-.3.35-.58.61-.77.2-.06.41-.04.61.04.35.36.59.79.63,1.33.1,1.38-1.16,2.04-1.55,3.17"/>
          <path class="uuid-5d5c9cdf-827f-41bd-b0a2-363d32f16289" d="M22.91,16.16c.12-.21.26-.42.41-.63.32-.18.6-.34.61-.37h6c.24-.03.47.04.67.18.04.03.07.06.1.09.13.14.22.31.25.51.07.49-.28.94-.77,1.01l-6.34.65s0,0-.01,0c-.76.07-1.29-.78-.91-1.44"/>
          <path class="uuid-bcddf162-2e51-4ecb-8b64-a980b05fa8c2" d="M24.33,17.09s-.01,0-.02.01c-.61.43-1.46.2-1.83-.44l-3.24-5.72c-.36-.64-.14-1.45.5-1.82.64-.36,1.45-.14,1.82.5l1.28,2.26,1.26,2.22c.58,1.07,1.45,2.1.23,2.99"/>
          <path class="uuid-fbfee9a2-96d7-43f5-8ce6-ae265c99e372" d="M21.33,32.35c-1.9.96-5.33.55-6.24-1.61-.43-1.02-.49-2.18-1.05-3.13-.3-.5-.72-.91-1.18-1.29-1.02-.83-2.25-1.5-2.78-2.69-.1-.23-.17-.46-.22-.69-.18-.41-.29-.86-.31-1.31-.03-.72.13-1.43.43-2.08.34-.73.84-1.39,1.44-1.93.08-.08.17-.15.25-.24.14-.26.29-.43.44-.53.07.04.15.09.23.12.62.29,1.46.7,2.31,1.04.57.23,1.15.43,1.68.54,1.02.21,1.86-.16,2.08.2l-.56,2.55,1.31,2.8c.09.23.18.46.28.68.08.17.2.4.35.66l.22.48,2,4.28c.2.96.08,1.77-.69,2.15"/>
          <path class="uuid-fbfee9a2-96d7-43f5-8ce6-ae265c99e372" d="M20.02,25.91c-2.13.84-4.84.97-7.16.41-.87-.21-1.68-.52-2.39-.93-2.77-1.6-2.93-4.14-.48-5.85.15-.1.31-.21.48-.3,1.18-.68,2.66-1.09,4.19-1.22.57.23,1.15.43,1.68.54,1.02.21,1.86-.16,2.08.2l-.56,2.55,1.31,2.8c.09.23.18.46.28.68.08.17.2.4.35.66l.22.48Z"/>
          <path class="uuid-9c7ff410-27a9-49cc-9465-47500a5bf6c7" d="M21.77,4.52c.02-.11.05-.22.08-.33.25-.94.76-1.88.14-2.74-.43-.59-1.27-.79-2.07-.9-.87-.12-1.78-.18-2.65.11-1.62.54-2.3,2.57-2.33,3.95-.01.58-.07,1.15-.18,1.68-.29.83-.94,1.16-2,1.12-.77-.03-1.53.28-2.11.92-.27.3-.47.65-.62,1.02-.44,1.14-.67,1.43-2.21,1.57-.93.08-1.83.5-2.53,1.29-1.68,1.86-1.66,5.02.05,7.06,1.71,2.04,4.46,2.19,6.13.33.71-.78,1.11-1.8,1.22-2.86.17-1.77.44-2.02,1.44-2.48,0,0,0,0,0,0,.33-.15.64-.38.91-.67.58-.65.87-1.51.88-2.39,0-1.22.32-1.95,1.05-2.25.46-.1.96-.15,1.46-.14.82.01,1.62-.32,2.24-1.01.9-.99.85-2.13,1.09-3.26"/>
          <rect class="uuid-8d8a7309-7ccd-4e8b-bd6a-d95d08a5cca6" x="23.79" y="35.78" width=".59" height="5.39" transform="translate(-9.27 7.69) rotate(-15.25)"/>
          <polygon class="uuid-2a102f6f-9486-432f-b76d-c1359991d2be" points="19.42 5.87 20.84 7.77 21.09 7.41 21.16 5.41 20.67 5.56 20.61 6.51 20.07 5.75 19.42 5.87"/>
          <path class="uuid-5909314c-dacf-42b3-9bca-6850691aa2fd" d="M14.64,6.07s-.92-4.02,2.06-5.51c2.98-1.49,6.09.3,6.09,1.89,0,0,.11.37-.76,2.24-.34.73-.85.85-1.21,1-.77.33-1.85.59-2.32.71-1.34.33-3.69.96-3.86-.33"/>
          <path class="uuid-2a102f6f-9486-432f-b76d-c1359991d2be" d="M19.35,3.9s-1.74.36-2.69,1.09c-.96.74,2.52-.42,2.83-.62.31-.2.65-.53-.13-.47"/>
          <path class="uuid-2a102f6f-9486-432f-b76d-c1359991d2be" d="M18.39,3.06s-.95.15-1.51.59c-.56.44,1.37-.15,1.55-.27.18-.12.38-.32-.04-.32"/>
        </g>
      </g>
    </g>
  </g>
</svg>