<?xml version="1.0" encoding="UTF-8"?>
<svg id="Calque_2" xmlns="http://www.w3.org/2000/svg" viewBox="0 0 17.1 58.54">
  <defs>
    <style>
      .cls-1 {
        fill: #34312f;
      }

      .cls-2 {
        fill: #c91818;
      }

      .cls-3 {
        fill: #867880;
      }

      .cls-4 {
        fill: #211f1d;
      }

      .cls-5 {
        fill: #ffdc18;
      }

      .cls-6 {
        fill: #221f1c;
      }

      .cls-7 {
        fill: #f9c600;
      }

      .cls-8 {
        fill: #fff;
      }

      .cls-9 {
        fill: #4e4a49;
      }

      .cls-10 {
        fill: #e53132;
      }

      .cls-11 {
        fill: #3d3937;
      }

      .cls-12 {
        fill: #90bf21;
      }

      .cls-13 {
        fill: #2b2825;
      }

      .cls-14 {
        fill: #424142;
      }

      .cls-15 {
        fill: #7caf2a;
      }

      .cls-16 {
        fill: #f9cabc;
      }

      .cls-17 {
        fill: #aca9a8;
      }

      .cls-18 {
        fill: #d82420;
      }

      .cls-19 {
        fill: #f5b19e;
      }
    </style>
  </defs>
  <g id="_Éléments_Mise_en_page" data-name="Éléments_Mise_en_page">
    <g>
      <path class="cls-13" d="M11.06,46.09c0,2.22,1.36,4.8,3.02,5.76,1.67.96,3.02-.06,3.02-2.28,0-2.22-1.36-4.8-3.02-5.76-1.67-.96-3.02.06-3.02,2.28"/>
      <polygon class="cls-13" points="15.99 52.05 14.94 52.62 11.27 44.12 12.22 43.59 15.99 52.05"/>
      <path class="cls-11" d="M10.03,46.66c0,2.22,1.36,4.8,3.02,5.76,1.67.96,3.02-.06,3.02-2.28,0-2.22-1.36-4.8-3.02-5.76-1.67-.96-3.02.06-3.01,2.28"/>
      <path class="cls-17" d="M10.88,47.15c0,1.6.97,3.45,2.17,4.14,1.2.69,2.17-.04,2.17-1.64,0-1.6-.97-3.45-2.17-4.14-1.2-.69-2.17.05-2.17,1.64"/>
      <path class="cls-11" d="M11.83,47.76c0,.82.5,1.76,1.11,2.12.61.35,1.11-.02,1.11-.84,0-.82-.5-1.76-1.11-2.12s-1.11.02-1.11.84"/>
      <path class="cls-13" d="M12.14,47.94c0,.58.36,1.26.79,1.51.44.25.79-.02.79-.6,0-.58-.36-1.26-.79-1.51-.44-.25-.79.02-.79.6"/>
      <path class="cls-6" d="M16.98,47.08s-.61.49-1.15.49c-.62,0-2.19-1.01-3.01-1.45-.81-.45-2.37-1.42-2.37-1.42,0,0,.83-1.45,2.06-1.7,1.23-.25,2.27.22,3.21,1.45.79,1.04,1.26,2.63,1.26,2.63"/>
      <polygon class="cls-13" points="13.98 52.41 8.07 55.82 8.9 53.82 14.81 50.41 13.98 52.41"/>
      <polygon class="cls-6" points="3.19 50.72 8.9 53.82 8.07 55.82 3.19 53.01 3.19 50.72"/>
      <path class="cls-1" d="M1.55,50.79h.9l7.18-4.14c.55-.32,1.38-.35,1.86-.08l3.86,2.23.91-.1v.88c0,.22-.14.45-.46.63l-7.63,4.4c-.55.32-1.38.35-1.86.08l-4.44-2.56c-.21-.12-.32-.29-.32-.47v-.87Z"/>
      <path class="cls-9" d="M1.87,51.24l4.44,2.57c.48.28,1.31.24,1.86-.08l7.63-4.4c.55-.32.61-.8.13-1.07l-4.44-2.57c-.48-.27-1.31-.24-1.86.08l-7.63,4.4c-.55.32-.61.8-.13,1.07"/>
      <path class="cls-17" d="M8.47,53.17l1.44-.82c.18-.11.16-.29-.05-.41l-4.76-2.75c-.21-.12-.53-.13-.71-.03l-1.44.82c-.18.11-.16.29.05.41l4.76,2.75c.21.12.53.13.71.03"/>
      <path class="cls-17" d="M13.8,50.12l1.44-.82c.18-.11.16-.29-.05-.41l-4.76-2.75c-.21-.12-.53-.13-.71-.03l-1.44.82c-.18.11-.16.29.05.41l4.76,2.75c.21.12.53.13.71.03"/>
      <path class="cls-13" d="M5.79.84c2.11-.94,3.01,1.29,3.01,1.29,1.07,3.68-2.71,10.35-2.71,10.35l-3.09.66s.1-4.64.35-5.92S3.68,1.78,5.79.84"/>
      <path class="cls-7" d="M10.55,7.62c.34.16,1.25.54,1.25,1.39,0,1.46.74,3.22.65,5.72.09.25.54.74.97,1.35-.72-.07-1.5.39-1.73,1.04-.94-1.29-1.47-3.11-1.47-3.11l-1.4-6.36s.49-.62,1.74-.03"/>
      <path class="cls-19" d="M8.56,31.89c-.25-.67,3.86-2.71,3.86-2.71,0,0-.38,2.4-.4,3.48s-.03,1.55-.27,2.87c-.22,1.25-.55,6.25-.56,7.9,0,1.65,1.01,3.19,1.38,3.79.38.6-.82,1.53-1.73.66-.91-.87-1.01-1.04-1.52-1.32-.51-.27-.9-1.45-.49-2.75.41-1.3.21-3.88-.22-6.13-.43-2.26.2-5.12-.06-5.8"/>
      <path class="cls-13" d="M8.71,44.34s.27,1.79,1.53,2.54c1.2.71,1.7.82,2.33.36,0,0,1.12.93,1.5,1.39.38.46-.79,1.13-1.89.74-1.1-.38-2.01-1.43-2.89-2.21-.86-.77-1.09-1.04-1.05-1.92.02-.43.47-.89.47-.89"/>
      <path class="cls-16" d="M3.99,29.62c1.02-.61,4.02,2.31,4.02,2.31,0,0-.13,2.41-.15,3.49-.02,1.07-.19,1.42-.5,2.64-.32,1.23-.56,6.47-.57,8.12,0,1.65,1.01,3.19,1.38,3.79.38.6-.82,1.53-1.73.66-.91-.87-1.01-1.04-1.52-1.32-.52-.27-.9-1.45-.49-2.75.41-1.3.21-3.88-.22-6.13-.43-2.26.29-5.13.13-5.84-.39-1.73-1.32-4.39-.35-4.97"/>
      <path class="cls-13" d="M4.31,47.08s.27,1.79,1.53,2.54c1.2.71,1.7.82,2.33.36,0,0,1.12.93,1.5,1.39.37.46-.79,1.13-1.89.74-1.1-.38-2.01-1.43-2.89-2.21-.86-.77-1.09-1.04-1.05-1.92.02-.43.47-.89.47-.89"/>
      <path class="cls-13" d="M12.33,20.21s.45.54.5,3.1c.02.79-.06,8.31-.06,8.31,0,0-2.71,2.03-4.41,2.23-2.64.3-5.22-.79-5.22-.79,0,0-.48-9.75.42-11.61.9-1.86,8.76-1.24,8.76-1.24"/>
      <path class="cls-5" d="M3.12,11.21c.21-.85,2.8-2.62,2.8-2.62,0,0,1.45,1.15,1.96,1.55.49.38,1.28-.01.77-1.39-.16-.43.08-1.7.08-1.7,0,0,.2-.05.5-.1.44.49,1.31,1.78,1.78,2.32.45.52,2.21,2.13,1.72,3.81-.15.5-.33.93-.59,1.54-.3.69-.87,1.73-.62,2.4.88,2.36,1.33,4.26,1.33,4.26,0,0-2.45,1.82-4.46,2.03-3.2.35-5-1.34-5-1.34.16-.91,2-4.69.93-7.63,0,0-1.89-.33-1.19-3.13"/>
      <path class="cls-19" d="M6.27,4.14l2.61,3.1s.21.35.25.87c.03.44,2.3,2.53.73,3.44-1.37.79-3.94-2.97-3.94-2.97,0,0,.34-.95.41-1.72.11-1.22-.06-2.72-.06-2.72"/>
      <path class="cls-16" d="M7.59,2.04c.99-.68,3.25-.8,3.96,1.57.74,2.49-1.62,5.43-2.77,4.86-.65-.32-2.08-1.52-2.41-2.83-.37-1.47.45-3.07,1.22-3.6"/>
      <path class="cls-11" d="M7.46,1.06c1.39-.5,2.27-.61,3.5.63.74.75.89,1.56.82,2.89,0,0-.84,1.04-2.87,1.17-.99.06-2.17-.82-2.55.41-.78-1.27-.61-2.65-.4-3.52.19-.81.8-1.34,1.49-1.58"/>
      <path class="cls-16" d="M6.97,5.11c.5.24.57.85.57.85,0,0-.46.73-.8.34-.34-.39-.27-1.43.23-1.19"/>
      <path class="cls-7" d="M4.62,17.53s.21.59.49,1.34c-.48-.14-.93-.09-1.37.04-.42.12-.68.57-1,.88-.09-.24-.32-.83-.41-1.03-.43-1-.62-1.88-.31-3.6.48-2.64,1.3-5.76,2.82-5.76,1.16,0,1.69,2.06,1.34,3.5-.34,1.37-1.56,4.64-1.56,4.64"/>
      <path class="cls-17" d="M11.98,49.73v.83s0,.02,0,.04c0,.35-.5.64-1.11.64s-1.11-.29-1.11-.64v-.86h2.22Z"/>
      <path class="cls-3" d="M11.99,49.73c0,.35-.5.64-1.11.64s-1.11-.29-1.11-.64.5-.64,1.11-.64,1.11.29,1.11.64"/>
      <path class="cls-11" d="M11.59,23.94v25.67c0,.21-.32.38-.72.38s-.72-.17-.72-.38v-25.67h1.43Z"/>
      <path class="cls-11" d="M11.59,23.94c0,.21-.32.38-.72.38s-.72-.17-.72-.38.32-.38.72-.38.72.17.72.38"/>
      <path class="cls-18" d="M12.19,51.1l-.65.67-.32-.18s0-1.23,0-1.79c0-1.15-.58-1.84-.58-1.84v-.57l.7-.4s.85,1.01.85,2.25v1.86Z"/>
      <path class="cls-10" d="M12.51,51.21l-.97.56v-2.09c0-1.15-.9-2.29-.9-2.29l.97-.56s.9,1.05.9,2.3v2.08Z"/>
      <path class="cls-13" d="M1.04,51.85c0,2.22,1.36,4.8,3.02,5.76,1.67.96,3.02-.06,3.02-2.28,0-2.22-1.36-4.8-3.02-5.76-1.67-.96-3.02.06-3.01,2.28"/>
      <polygon class="cls-13" points="5.96 57.81 4.91 58.39 1.25 49.88 2.19 49.35 5.96 57.81"/>
      <path class="cls-11" d="M0,52.42c0,2.22,1.36,4.8,3.02,5.76,1.67.96,3.02-.06,3.02-2.28,0-2.22-1.36-4.8-3.02-5.76C1.35,49.18,0,50.2,0,52.42"/>
      <path class="cls-5" d="M.56,52.85c0,1.81,1.11,3.92,2.47,4.7,1.36.78,2.46-.05,2.46-1.86,0-1.81-1.11-3.92-2.47-4.7-1.36-.78-2.46.05-2.46,1.86"/>
      <path class="cls-8" d="M1.72,53.52c0,.82.5,1.76,1.11,2.12.61.35,1.11-.02,1.11-.84,0-.82-.5-1.76-1.11-2.12s-1.11.02-1.11.84"/>
      <path class="cls-3" d="M2.03,53.7c0,.58.36,1.26.79,1.51.44.25.79-.02.79-.6,0-.58-.36-1.26-.79-1.51-.44-.25-.79.02-.79.6"/>
      <path class="cls-6" d="M6.96,52.68s-.66-2.24-2.08-3.38c-1.42-1.14-2.48-1.04-3.41-.54-1.25.67-1.17,1.76-1.17,1.76,0,0,1.13-.91,2.47-.29,1.25.58,1.71,1.13,2.4,2.77.4.95,1.79-.33,1.79-.33"/>
      <path class="cls-17" d="M11.89,23.11v.75s0,.02,0,.03c0,.32-.45.57-1,.57s-1-.26-1-.57v-.78h2Z"/>
      <path class="cls-3" d="M11.9,23.11c0,.32-.45.57-1,.57s-1-.26-1-.57.45-.57,1-.57,1,.26,1,.57"/>
      <path class="cls-18" d="M12.91,22.21c-.48.33-.35.9-1.04,1.38,0,0-.08.05-.11.07-.03.02-.11.06-.12.06-.83.4-1.53.12-2.11.4-.62.3-1.68.95-1.68.95l-.68-.39,3.01-1.73.34-.2,3-1.73.68-.11v.5s-.77.45-1.29.81"/>
      <path class="cls-10" d="M12.81,21.87c-.48.33-.25.74-.93,1.22,0,0-.08.06-.11.07-.03.02-.11.06-.12.06-.83.4-1.53.26-2.11.54-.62.3-1.68.81-1.68.81l-.68-.39,3-1.74.34-.2,3-1.73.68.39s-.88.61-1.39.97"/>
      <polygon class="cls-2" points="7.18 24.18 7.18 24.68 7.85 25.07 7.85 24.57 7.18 24.18"/>
      <path class="cls-11" d="M8.67,23.33s0,0,.01,0h.01c.07-.04.15-.04.24.01.21.12.37.43.37.71,0,.16-.06.27-.15.31h0s-3.57,2.06-3.57,2.06l-.48-1.02,3.57-2.06Z"/>
      <path class="cls-9" d="M4.93,25.71c0,.27.17.59.37.71.21.12.37,0,.37-.28,0-.27-.17-.59-.37-.71-.2-.12-.37,0-.37.28"/>
      <path class="cls-11" d="M16.25,18.94s0,0,.01,0h.01s0,0,0,0c.07-.04.15-.03.24.02.21.12.38.44.38.72,0,.17-.06.28-.15.32h0s-3.63,2.09-3.63,2.09l-.49-1.04,3.63-2.1Z"/>
      <path class="cls-10" d="M12.45,21.36c0-.28.17-.4.38-.28.17.1.3.32.35.55l-.48.34c-.14-.15-.24-.39-.24-.61"/>
      <path class="cls-18" d="M13.21,21.79c0,.28-.17.41-.38.29-.05-.03-.09-.07-.13-.11l.48-.34c.01.06.02.12.02.17"/>
      <path class="cls-16" d="M7.93,22.99c.44.34.78.59.84,1.28.06.69-.33.84-.86.84s-1.27-.6-1.27-.6l-.35.21s-.2-.15-.27-.75c-.03-.26.45-.62.79-.85.54-.37.8-.38,1.13-.12"/>
      <path class="cls-16" d="M15.27,19.19c.5.74.5,1.72-.18,2.17-.68.45-1.29-.3-1.55-.86-.26-.56,0-1.29.66-1.5.65-.21.91-.03,1.07.19"/>
      <path class="cls-16" d="M5.1,18.87s.58,1.75,1.18,2.83c.42.75.89,1.6.89,1.6l-1.15,1.03s-1.21-1.24-1.71-1.91c-.5-.67-1.58-2.62-1.58-2.62,0,0,.67-1.77,2.37-.92"/>
      <path class="cls-16" d="M13.42,16.08s1.1,2.21,1.34,3.04c.24.83-.58,1.53-1.02.99-.44-.54-2.05-2.99-2.05-2.99,0,0,.39-1.64,1.73-1.04"/>
      <path class="cls-14" d="M5.96,3.92s.19,1.45.29,1.73c.12.34.32.72.32.72l1.55,1.7v-.51s-1.29-1.62-1.29-1.62l-.23-.57-.19-1.55s-.37-.42-.41.09"/>
      <path class="cls-14" d="M7.56,4.46s-.06,2.14.12,2.68c.18.54.43.92.43.92l.53.36s-.45-1.26-.48-1.47c-.02-.2.13-2.31.13-2.31l-.73-.18Z"/>
      <path class="cls-4" d="M4.66,2.58c-.12.26-.14,1.04.02,1.27.05.08.12.16.21.22.62.45,1.56.86,3.52,1.14,3.02.43,3.67-.64,3.74-1.01.1-.52-.07-2.64-1.85-3.4C8.8.16,5.85.03,4.66,2.58"/>
      <path class="cls-12" d="M4.29,2.48c-.18.36-.05.8.28,1.02.66.45,1.78.97,3.85,1.24,3.18.42,3.86-.93,3.91-1.29.05-.37-.02-2.39-1.89-3.15-1.58-.63-4.89-.4-6.15,2.18"/>
      <path class="cls-15" d="M7.44.5c-.45-.03-.85,0-1.2.05-.31.15-.6.34-.88.57.5-.03,1.17-.05,1.86.02,1.98.2,4.09,1.24,4.09,1.24-.12-.7-1.79-1.73-3.87-1.88"/>
      <path class="cls-15" d="M10.14,3.07s-1.03.61-2.89.22c-1.86-.39-2.68-.98-2.68-.98,0,0,.69-.24,2.02-.09.83.09,3.55.85,3.55.85"/>
      <path class="cls-15" d="M12.09,2.27s-.69-1.35-2.87-1.85c-1.37-.31-1.86-.2-1.86-.2,0,0,1.59-.28,2.94.18,1.59.55,1.79,1.87,1.79,1.87"/>
    </g>
  </g>
</svg>