<?xml version="1.0" encoding="UTF-8"?>
<svg id="uuid-622b3493-346d-4aeb-9293-73fc1e624d00" data-name="Calque_2" xmlns="http://www.w3.org/2000/svg" viewBox="0 0 37.27 60.34">
  <defs>
    <style>
      .uuid-ce50a019-f95a-4040-8f55-b45de1f6465e {
        fill: #f1c200;
      }

      .uuid-811e2be0-26d9-4249-8209-fcf547590b44 {
        fill: #664615;
      }

      .uuid-9702b002-2cd0-4c9d-9c13-2c6a3e9ae9d7 {
        fill: #f3aac6;
      }

      .uuid-ca2f005a-d912-4ba0-9aa4-bc29e820dcc0 {
        fill: #f18b6a;
      }

      .uuid-7d28535b-a527-4f6c-8f6b-b0861e0133fb {
        fill: #302879;
      }

      .uuid-9212cb0b-cd61-4387-a866-bbb66091993c {
        fill: #56adad;
      }

      .uuid-d8ad33b8-479a-4c71-afe3-9ca9da953d12 {
        fill: #1d1a30;
      }
    </style>
  </defs>
  <g id="uuid-69db9ea2-afd7-4f1b-86a5-ecd6974af125" data-name="Les_personnages">
    <g id="uuid-064857fa-06fb-4f75-b284-3be1e19d9f67" data-name="Chara_x5F_Couple_x5F_HD">
      <path class="uuid-811e2be0-26d9-4249-8209-fcf547590b44" d="M3.94,19.09c-.13-.98-.99-2.74-2.27-2.45,0-.04-.01-.07-.02-.11-.13-.68-1.29-.43-1.37.14-.45,3.2.46,6.41,1.44,9.51.57,1.8.51,5.72,3.09,6.56.37-4.43-.26-9.23-.86-13.65"/>
      <path class="uuid-d8ad33b8-479a-4c71-afe3-9ca9da953d12" d="M1.58,17.19s.01-.03.02-.04c.03-.08.08-.15.14-.21.04-.15.08-.3.11-.45.04-.23.31-.39.54-.41.23-.02.51.08.61.29.16.31.2.6.23.94.03.35-.14.64-.48.79-.39.18-.75.05-1.04-.21-.2-.17-.21-.49-.12-.71"/>
      <path class="uuid-811e2be0-26d9-4249-8209-fcf547590b44" d="M7.76,3.94c.1-1.13.97-2.2,2.19-1.75,1.37.5,2.42,3.68.36,3.9-1.95.21-2.65-1.01-2.55-2.15"/>
      <path class="uuid-811e2be0-26d9-4249-8209-fcf547590b44" d="M9.05,4.66c.12.05.23.12.32.22.23.06.45.2.58.42.34.1.64.4.67.85.05.7.16,1.88-.24,2.58-.05.43-.49.68-.9.67-.15.04-.3.05-.44.02-.03.01-.05.02-.08.03-.51.47-1.49.13-1.54-.69-.06-1.13.11-2.29-.04-3.42-.14-1.05,1.22-1.55,1.67-.67"/>
      <path class="uuid-7d28535b-a527-4f6c-8f6b-b0861e0133fb" d="M11.93,5.6c-.14-.44-.28-.87-.45-1.29-.47.28-1.07.35-1.6.19-.08-.02-.15-.03-.22-.03.09-.21.16-.4.22-.56.18-.59.16-.87.51-1.36.41-.57,1.82-1.79.65-2.43-.97-.53-1.71.75-2.41,1.17-.41.24-.92.42-1.29.69-1.26.9-1.04,2.26-.72,3.55.53,2.16,1.69,1.21,2.49-.04.28.2.53.44.81.66.45.36.91.63,1.41.71.26-.1.48-.29.53-.58.11-.19.15-.43.07-.69M9.82,2.78h-.06s0,0,0,0c.02,0,.04,0,.06,0"/>
      <path class="uuid-7d28535b-a527-4f6c-8f6b-b0861e0133fb" d="M2.07,54.19c.86.07,1.69-.15,2.45-.44-.01.22-.02.5-.07.76,2.3-.5,2.16.29.49,1.25-.51.29-1.56.8-2.12.73-.67-.09-.88-.74-.86-1.29-.02-.26,0-.59.11-1"/>
      <path class="uuid-9702b002-2cd0-4c9d-9c13-2c6a3e9ae9d7" d="M26.24,38.76c-.17-.53-.3-1.09-.88-1.27-.49-.15-2.19-1.08-2.61-.83-.42.25-.69-.96-.94-.57-.43.68.51,5.36.41,6.15-.12.95-.1,2.3-.05,4.68.02,1.1.64,1.91-.29,2.6-.81.6-1.69,1.31-2.36,2.08-.51.59-2.01,2.01-2.83,3.28.25,0,.49.1.67.28.22.21.35.5.42.8.07.26.09.52.1.78.11-.25-.04.3,0,0,.11-.82,1.4-1.42,1.75-1.63,1.6-.97,2.87-2.09,4.23-3.32.82-.74,1.35-1.52,1.59-2.54,0-.03.01-.06.02-.1.24-1.1.65-2.04.89-3.13.26-1.15.26-6.07-.12-7.26"/>
      <path class="uuid-7d28535b-a527-4f6c-8f6b-b0861e0133fb" d="M17.7,54.99c-.39-.84-1.37-.08-1.43.7-.03.43,0,.86.09,1.29.08.42.2.83.34,1.23.1.28.28.6.57.57.28-.03.41-.36.46-.63.18-.87.29-2.09.05-2.95-.02-.08-.05-.14-.07-.2"/>
      <path class="uuid-9702b002-2cd0-4c9d-9c13-2c6a3e9ae9d7" d="M28.83,53.21c.3,1.3.73,2.51,1.37,3.68.3.56.63,1.1.93,1.65.11.21.3.61.52.98.03.05.06.1.09.14.61-.03,1.16-.44,1.52-1.01-.02,0-.03.02-.05.02,0,0,0-.02,0-.02,0,0,0,.02,0,.03-.98-4.61-1.5-9.35-1.57-14.04-.01-.81-.01-1.62-.24-2.4-.23-.78-.72-1.54-1.5-1.97-1.7-.93-3.18.18-3.29,1.71-.11,1.48,1.44,4.15,1.88,5.56.41,1.36.04,4.26.36,5.67"/>
      <path class="uuid-7d28535b-a527-4f6c-8f6b-b0861e0133fb" d="M34.74,58.33c-.22-.03-.35-.02-.57.04-.02,0-.03,0-.05.01-.09.02-.19.04-.28.06-.15.03-.31.06-.44.12-.4.16-.65.54-1.05.6-.15.08-.28.16-.47.21-.08.02-.16.03-.24.04.01.04.03.07.06.1-.01.03-.02.06-.02.08.03.42.25.63.55.66.02.02.05.03.07.04.35.16.78-.18,1.05-.36.32-.21.76-.48,1.08-.82.15-.11.28-.24.4-.39.09-.12.09-.37-.1-.39"/>
      <path class="uuid-9702b002-2cd0-4c9d-9c13-2c6a3e9ae9d7" d="M26.87,42.42c-.96-.19.82,1.57,0,0,0,0,0,0,0,0h0"/>
      <path class="uuid-9212cb0b-cd61-4387-a866-bbb66091993c" d="M31.16,28.18c-.11-.52-.19-1.02-.24-1.51-.25-2.5.35-5.82-.91-8.06-.65-1.15-2.16-2.71-3.66-2.87-1.03-.81-2.28-1.28-3.37-.58-1.56,1-1.76,3.11-1.81,4.79-.07,2.11-.04,4.12-.32,6.23-.23,1.71,0,3.41-.14,5.1-.19,2.3-.6,4.7-1.01,6.97-.28,1.53-.97,3.64.15,4.91,2.67,3.04,8.92,4.27,12.54,2.42,2.05-1.04,1.37-5.22,1.12-6.99-.21-1.5-.57-2.88-1.03-4.33-.66-2.04-.89-4.01-1.31-6.07"/>
      <path class="uuid-9702b002-2cd0-4c9d-9c13-2c6a3e9ae9d7" d="M30.68,24c0-.4-.01-.79-.02-1.2-.02-1.32-.16-3.29-1.75-3.65-2.76-.61-.08,7.88.14,8.82.2.84,0,2.64.98,3.03,1.62.65,1.21-2.19,1.04-2.95-.31-1.39-.38-2.7-.41-4.06"/>
      <path class="uuid-7d28535b-a527-4f6c-8f6b-b0861e0133fb" d="M36.18,35.2c-.83-.81-1.36-.06-2.22.95-1.18.96-2.61,2.22-3.13,3.59-.64.71.58,1.97.89,2.67,1.07,2.52,2.4-.22,3.48-1.48l1.47-1.41c.95-.91.63-2.85-.06-3.82-.15-.21-.29-.38-.43-.51"/>
      <path class="uuid-9702b002-2cd0-4c9d-9c13-2c6a3e9ae9d7" d="M33.89,35.99c-.14-.33-.3-.64-.46-.93-.72-1.84-1.61-3.65-2.04-5.59-.18-.8-1.21-2.4-2.03-1.11-.64,1.01.56,3.2,1.02,4.1.87,1.67,1.84,3.25,2.87,4.56.34.43.94-.28.63-1.03"/>
      <path class="uuid-9702b002-2cd0-4c9d-9c13-2c6a3e9ae9d7" d="M33.03,35.7c-.15.41-.06,1.1.07,1.48.44,1.29,1.83,2,1.7.06-.05-.71-.23-1.19-.8-1.61-.56-.41-.84-.27-.96.07"/>
      <path class="uuid-ca2f005a-d912-4ba0-9aa4-bc29e820dcc0" d="M27.27,9.4c-.13-.31-.5-.45-.81-.4-.81.13-.82,1.15-.79,1.77.03.64,0,1.57.33,2.15.1.17.24.29.41.36.13.25.39.44.75.4.95-.1,1.06-.94.92-1.72-.15-.86-.46-1.76-.8-2.56"/>
      <path class="uuid-ca2f005a-d912-4ba0-9aa4-bc29e820dcc0" d="M24.57,13.41c.07-.32.2-.58.41-.75.33-.26.79-.34,1.18-.2,1.31.48.82,1.61.8,2.54,0,.33,0,.66,0,.99,0,.29-.23.48-.51.55-.42.45-1.38.45-1.59-.28-.19-.64-.48-1.95-.28-2.85"/>
      <path class="uuid-ce50a019-f95a-4040-8f55-b45de1f6465e" d="M26.33,8.75c-.6.15-1.25.54-1.69,1.1-1.07,1.38-1.45,3.21-2.44,4.64-1.46,2.12-3.36,5.05-2.79,7.81.19.91.79,3.02,1.73,3.45,2.9,1.36,4.75-5.71,5.18-7.29.44-1.61-.25-3.26.19-4.87.28-1.02,2.66-5.55-.17-4.85"/>
      <path class="uuid-811e2be0-26d9-4249-8209-fcf547590b44" d="M26.81,25.53c-.84.06-1.63,1.13-.81,1.73.53.38,1.74.61,2.1-.11.47-.91-.43-1.68-1.3-1.62"/>
      <path class="uuid-7d28535b-a527-4f6c-8f6b-b0861e0133fb" d="M1.43,18.94c.36.17.74.31,1.15.41l.49,8.45v.08s.01.13.01.13l.1,1.72c1.43.7,3.19.7,4.72.89,2.33.27,4.68.46,7.03.58.32-.21.66-.27.98-.21.08-.02.17-.02.25-.02,0-.59.03-1.19.08-1.78.11-1.3.3-2.6.31-3.91,0-.24.05-.45.13-.64.06-1.55.08-3.17-.04-4.51-.01-.15.12-.28.26-.32.43-.09.85-.24,1.27-.38.65-.22.96-.88.72-1.48-.58-1.47-.72-3.06-1.38-4.53-.5-1.13-1.32-2.12-2.26-2.97-1.5-1.36-3.34-2.42-5.39-2.83-4.54-.91-8.51,1.12-9.33,5.27-.05.24-.42,2.3-.45,2.53-.07.46-.19,1.64.02,2.41l-.12.1s.12.81,1.43,1.03"/>
      <path class="uuid-811e2be0-26d9-4249-8209-fcf547590b44" d="M27.62,25.77c-1.94-.1-4.36.04-6.03-1.07-1.77-1.18-2.09-4.32-2.6-6.33-.49.86-1.76,1.38-2.97,1.5-.04.04-.9-.13-.93-.09.27,1.93.14,5.3,1.77,6.69,2.23,1.89,6.87,1.29,9.57,1.1.77-.05,1.34-.73,1.25-1.49-.01-.12-.03-.22-.05-.3"/>
      <path class="uuid-9212cb0b-cd61-4387-a866-bbb66091993c" d="M2.9,27.85c-.1-.08-.2-.17-.3-.26.15.1.28.18.38.24-.03,0-.06.02-.08.02"/>
      <path class="uuid-9212cb0b-cd61-4387-a866-bbb66091993c" d="M3.08,27.88s-.06-.03-.1-.05c.03,0,.06-.02.09-.03.05-.02.1-.03.16-.05.16.14.22.32-.15.13"/>
      <path class="uuid-9212cb0b-cd61-4387-a866-bbb66091993c" d="M16.31,42.95c.04.35-.76,2.47-.86,2.67-.86,1.85-1.99,3.56-3.01,5.32-.72,1.25-1.9,2.81-1.63,4.31,0,.03-.05.05-.04.08,0,.02-.05.03-.05.05h0c0,.21.19.42.3.62.2.37.78.59.51.97-.88,1.23-2.74-1.36-3.05-2.06-.07-.16-.15-.36-.16-.53,0-.1.02-.21.02-.3,0-.14.01-.26.05-.39.09-.25.2-.67.4-.9,0,0,0-.02,0-.02.02-.31.09-.64.19-.98.85-2.79,1.56-5.44,3.13-7.97h0c-.31-.95-1.56-5.78-2.27-9.1l-.71-.45c-.25,1.88-1.2,8.14-2.29,9.74,0,.11,0,.23-.02.35-.29,1.83-.7,3.67-1.13,5.5-.36,1.55-.81,3.24-1.37,4.8-.76.42-1.57.43-2.31.22-.05-.56.06-1.36.1-1.94.08-.99.21-2,.41-2.99.35-1.85.52-3.68.84-5.52.44-2.55-.23-5.38-.29-7.88-.04-1.61-.04-3.24.11-4.87.04-.37.04-.89.09-1.38-.03-.02-.05-.04-.05-.04l-.13-2.27c2.81,2.27,6.07,2.44,9.52,1.96,1.02-.14,1.99-.46,3.01-.65.12-.02.37-.09.63-.15-.08.95-.12,1.9-.03,2.86,0,.08.02.17.04.25.05,3.1.11,8.56.04,10.67"/>
      <path class="uuid-7d28535b-a527-4f6c-8f6b-b0861e0133fb" d="M4.58,54.78s0,0,0-.01c0,0,0,.01,0,.01Z"/>
      <path class="uuid-7d28535b-a527-4f6c-8f6b-b0861e0133fb" d="M11.02,56c-.11-.2-.3-.41-.3-.62h0s.07-.04.05-.05c0-.03,0-.05,0-.08-.21-.17-.39-.37-.55-.63-.34-.52-.41-1.24-.95-1.65-.14-.1-.29-.17-.46-.19,0,0,0,.01,0,.02-.21.24-.32.66-.4.9-.04.12-.05.25-.05.39,0,.09-.02.2-.02.3,0,.17.1.37.17.53.31.7,2.13,3.29,3.01,2.06.27-.38-.28-.61-.49-.98"/>
    </g>
  </g>
</svg>