<?xml version="1.0" encoding="UTF-8"?>
<svg id="uuid-d2db8090-99cd-4381-ad98-001a6327919a" data-name="Calque_2" xmlns="http://www.w3.org/2000/svg" viewBox="0 0 20.77 50.26">
  <defs>
    <style>
      .uuid-251cd0fa-c1cc-4e17-9acb-eaeba138165b {
        fill: #f4c900;
      }

      .uuid-b239b2f9-c4b8-46d9-a6fc-80ab07cc8766 {
        fill: #ebeef8;
      }

      .uuid-40083d3c-345c-4a2e-b30b-c78104c4ed17 {
        fill: #243268;
      }

      .uuid-1acbe890-d4da-4307-b74a-483021992dfd {
        fill: #e84f0e;
      }

      .uuid-7a4ad53c-f05a-4b6c-9e18-5769c4ea00bf {
        fill: #235aa3;
      }
    </style>
  </defs>
  <g id="uuid-81473652-9931-4dc0-9db5-cefaae5d7042" data-name="Les_personnages">
    <g id="uuid-89f73dd6-1e24-4524-b71f-3abc3de0f314" data-name="Chara_x5F_Sac_x5F_HD">
      <path class="uuid-b239b2f9-c4b8-46d9-a6fc-80ab07cc8766" d="M13.16,48.03h-.84s-.07,0-.1,0h-.5s-.1-.02-.15-.03l-.06-.03c-.13-.06-.2-.21-.16-.35l.03-.25c.03-.25-.13-.5-.38-.56-.06-.01-.12-.04-.19-.07-.05-.03-.08-.04-.09-.05-.06-.02-.11-.03-.17-.05-.14,0-.31,0-.46,0-.36,0-.67.02-.97.06-.23.04-.41.23-.41.46h0c-.03.86-.05,1.7-.07,2.15-.01.33.16.64.45.81.85.48,2.58-.45,3.28-.85.23-.13,1.05-.54,1.09-.91,0,0,0-.02,0-.03,0-.12-.09-.23-.31-.32"/>
      <path class="uuid-251cd0fa-c1cc-4e17-9acb-eaeba138165b" d="M11.74,45.65l-.41,1.59c-.32.17-.41.38-1.12.44-.49.04-1.07-.17-1.52-.36.03-.94.06-1.9.07-2.34.02,0,.03,0,.05-.01.06.02.14,0,.23-.06.79-.21,1.05-.27,1.79.18.3.19.6.38.9.57"/>
      <path class="uuid-b239b2f9-c4b8-46d9-a6fc-80ab07cc8766" d="M2.69,43.91c-.23.02-.4.23-.38.46l.18,2c0,.42.29.78.7.86l.34.07c.4.09.83-.01,1.15-.28l1.75-1.44c.31-.25.3-.73,0-.98-.19-.15-.44-.18-.66-.08l-.85.39v-.77c0-.25-.22-.45-.47-.43l-1.75.18Z"/>
      <path class="uuid-251cd0fa-c1cc-4e17-9acb-eaeba138165b" d="M4.85,44.14c-.01.2-.11.38-.27.49l-.15.11c-.36.26-.8.37-1.23.33-.15-.02-.29-.05-.42-.09-.07-.02-.13-.05-.2-.08-.11-.05-.19-.16-.21-.29-.07-.49-.17-1.08-.27-1.66.9.13,1.82-1.99,2.74-1.94,0,.14.03,2.4.04,2.54l-.04.58Z"/>
      <path class="uuid-7a4ad53c-f05a-4b6c-9e18-5769c4ea00bf" d="M6.28,21.61c-1.18.77-2.44,1.37-3.8,1.42,0,.35.09,1.39.02,1.05-.53-2.69-.02,2.27-.07,3.72-.09,2.85.15,5.81-.18,8.79-.04.37-.11.94-.17,1.59-.16,1.69-.15,3.39.05,5.07.02.19.07.35.14.48h0s1.76,1.34,2.64-.25l1.24-6.45c.12-.51.22-1.02.32-1.54.05-.3.1-.6.15-.91l.03-.13h0c.14-.85.28-1.69.41-2.53.04-.21.07-.42.1-.64.11-.72.44-3.98.53-4.7,0-.05.01-.09.02-.14.05-.4.09-.79.14-1.19.01-.09.02-.18.03-.26.05-.46.1-.91.14-1.36.05-.5.09-1,.12-1.5,0-.12.01-.61.02-.85-.62.12-1.24.24-1.87.35"/>
      <path class="uuid-7a4ad53c-f05a-4b6c-9e18-5769c4ea00bf" d="M13.31,21.21l-10-2.31-1.01,3.55c-.21.75-.26,1.38-.12,2.16.2,1.14.97,2.1,2.04,2.54,1.47.6,3.54,1.55,5.1,2.31.06,1.3.01,3.09-.01,4.39-.04,1.8.04,3.29-.11,5.08-.19,2.18-.47,3.92-.49,6.33,0,.11.02.19.05.25h0s0,0,0,.01c.04.08.09.13.17.19.3.3.99.8,2.03.59.83-.17.74-.38.74-.38l.07-.25.94-3.34c.3-1.08.85-2.83,1.02-3.94,0,0,0-.01,0-.02.04-.21.07-.42.1-.64.11-.72.84-4.93.89-5.66.04-.57.26-4.07.26-4.11,0-.01,0-.02,0-.03v-5.52c.12-1.31-.39-.91-1.68-1.21"/>
      <path class="uuid-b239b2f9-c4b8-46d9-a6fc-80ab07cc8766" d="M15.6,20.26c-.01.62-.01,1.24,0,1.88.01.5-.01,4.64-.55,4.9-1.4.66-2.1.5-3.32.39-4.43-.38-7.16-2.31-8.64-3.15-.9-.51-1.43-1.49-1.39-2.51.07-1.65.16-3.32.1-4.97-.1-2.82-1.11-6.95.6-9.52.76-1.15,1.98-1.56,3.27-1.58.12,0,.23,0,.35,0,.15,0,.29.01.44.03.77.07,1.55.26,2.24.48,1.8.59,3.15,1.29,4.15,2.1.34.27.64.56.9.86.35.4.64.81.88,1.25,1.27,2.32,1.09,5.22.99,8.58-.01.41-.02.83-.03,1.25"/>
      <path class="uuid-251cd0fa-c1cc-4e17-9acb-eaeba138165b" d="M11.11,3.81c-.31-.06-.7-.06-.88-.08-.15-.02-2.19-.28-2.18-.32-.24.72-.49,1.44-.73,2.15-.34,1-.29,1.43.93,1.81.55.17.97.14,1.3-.01.28-.13.69-.54.75-.86l.81-2.7Z"/>
      <path class="uuid-251cd0fa-c1cc-4e17-9acb-eaeba138165b" d="M11.66,1.78s.29,1.63-.1,2.64c-.14.37-.49.63-.89.68-.38.05-.95.07-1.53-.05-1.27-.27-1.63-.84-1.63-.84l.28-2.55,1.36-.58,2.52.7Z"/>
      <path class="uuid-40083d3c-345c-4a2e-b30b-c78104c4ed17" d="M12.39.89c0-.47-.55-.83-1.1-.88-.26-.03-.52,0-.78.05-.34-.06-.69-.06-.99.01-.29.06-.56.18-.8.32-.53.33-.95.84-1.21,1.42-.68,1.52-.15,3.74,1.91,3.15.43-.12.68-.4.68-.4.62-.43.18-.57.44-1.22.11-.26.29-.46.43-.69.14-.24.27-.43.46-.64.03-.03.05-.06.08-.09.5-.17.86-.49.87-1.04"/>
      <path class="uuid-251cd0fa-c1cc-4e17-9acb-eaeba138165b" d="M10.89,3.84c-.01.07,0,.13,0,.2-.52.13-1.21-.31-1.06-.91.2-.79,1.05-.27.93.36l.14.36Z"/>
      <path class="uuid-40083d3c-345c-4a2e-b30b-c78104c4ed17" d="M10.83,3.75h0c-.12,0-.2-.11-.2-.22l.07-1.12c0-.11.11-.2.22-.2.11,0,.2.11.2.22l-.07,1.12c0,.11-.11.2-.22.2"/>
      <path class="uuid-1acbe890-d4da-4307-b74a-483021992dfd" d="M2.63,10.49c.7-1.66-.77-5.11,2.89-4.7-.64.56-.98,2.31-1.24,3.46-.12.52.26,1.03-.49,1.17-.48.09-1.26,0-1.07-.56.23.04-.02.03-.1.63"/>
      <path class="uuid-1acbe890-d4da-4307-b74a-483021992dfd" d="M15.63,19c-.01.41-.02.83-.03,1.25-.32.02-.65,0-.96-.06-.72-.15-1.36-.49-1.91-.89-1.84-1.32-2.92-3.39-3-5.32-.06-1.53,0-3.28,1.21-4.56.51-.54,1.12-.89,1.92-1.11.34.27.64.56.9.86-.15.05-.3.11-.44.19-.6.3-1.02.77-1.31,1.26-1.16,1.94-.87,5.44.89,7.12.36.34.79.63,1.23.91.6.37.93.31,1.51.35"/>
      <path class="uuid-b239b2f9-c4b8-46d9-a6fc-80ab07cc8766" d="M13.39,19.89c.14.28.28.54.41.79.34,0,.68-.02,1.03-.05.15-.01.3-.02.45-.04.01,0,.35-.06.37-.06.34-.06.68-.14,1.02-.24.23-.26.38-.53.65-.95.02-.03.04-.06.05-.09l-.27-.64-.39-.91-.55-4.2c.03-2.29-2.3-5.95-3.91-2.41-1.24,2.72-.17,6.07,1.06,8.6.03.06.06.12.09.18"/>
      <path class="uuid-1acbe890-d4da-4307-b74a-483021992dfd" d="M10.93,11.77c-.31-1.36-1.5-2.17-2.86-2.63-1.15-.39-2.82-1.14-4-.57-.4.19-.7.45-.94.74-1.04,1.3-.71,3.38-1.86,4.58-.64.67-.92,1-1.11,1.94-.24,1.2-.16,2.34-.06,3.54.06.71.2,1.25.57,1.87.4.66.9,1.13,1.62,1.53,1.1.6,2.53.97,3.91.98.58,0,1.15-.05,1.68-.19,1.61-.4,2.07-1.94,2.42-3.29.4-1.55.2-3.33.31-4.99.08-1.23.58-2.35.31-3.52"/>
      <path class="uuid-251cd0fa-c1cc-4e17-9acb-eaeba138165b" d="M20.74,26.8c-.18-.79-.95-1.49-1.28-2.26-.37-.9-.64-1.83-1.02-2.72-.45-1.06-.91-2.13-1.36-3.19-1.08,1.64-2.74,1.52-3.7,1.27,1.34,2.7,2.54,3.83,4.49,6.1.33.38,1.23,1.42,1.23,1.42.64.74,1.87.44,1.63-.62"/>
    </g>
  </g>
</svg>