<?xml version="1.0" encoding="UTF-8"?>
<svg id="Calque_2" xmlns="http://www.w3.org/2000/svg" viewBox="0 0 17.27 56.9">
  <defs>
    <style>
      .cls-1 {
        fill: #383432;
      }

      .cls-2 {
        fill: #f5af9b;
      }

      .cls-3 {
        fill: none;
        stroke: #fff;
        stroke-miterlimit: 10;
        stroke-width: .21px;
      }

      .cls-4 {
        fill: #302c6a;
      }

      .cls-5 {
        fill: #211e1b;
      }

      .cls-6 {
        fill: #393533;
      }
    </style>
  </defs>
  <g id="_Éléments_Mise_en_page" data-name="Éléments_Mise_en_page">
    <g>
      <path class="cls-2" d="M10.97,12.51c.29.16.62.21.9.36.43.23.45.29.76.71.38.51.93.61,1.41.46,0,2.05.16,4.82.16,4.82l1.78,6.21,1.05,2.15.2,1.9s-.23.06-.41-.09c-.06,1.05-.39,1.79-.39,1.79,0,0-.32.1-.45-.18l-.1.19c-.65-.02-.32-.78-.32-.78v-.58s-.18.71-.18.71c-.45.16-.45-.42-.45-.42l.1-.89-.19-.89-.12-.56c-.06-.28-.05-.7.04-1.04l-3.98-7.59-.88-6.98c.11,0,.21,0,.32,0,.19.28.44.51.74.68"/>
      <path class="cls-4" d="M14.38,16.18c-.34.22-.96.31-1.28.53-.52-1.44-1.25-3.3-1.76-4.76-.2-1.33-1.82-3.54-1.82-3.54,0,0,3.41,1.39,3.95,1.9.87.82.69,3.61.92,5.86"/>
      <path class="cls-1" d="M2.79,45.02l2.18,1.13s1,2.06,1.04,2.02c1.7,1.04,1.2,1.88.41,2.12-.37.11-1.4-.33-2.11-.69-.34-.17-.64-.39-.91-.66l-.23-.23-1.43-1.47c-.19-.28-.21-.65-.06-.95l1.11-1.27Z"/>
      <path class="cls-6" d="M2.56,45.29c-.09.87-.12,1.67-.37,2.42l-.45-.47c-.19-.29-.21-.65-.06-.95l.87-1Z"/>
      <path class="cls-6" d="M1.78,46.19c.06.18.15.35.27.51.82,1.04,1.74,1.95,2.86,2.66.66.42,1.62.62,2.23.25-.05.33-.35.58-.72.69-.4.12-1.56-.4-2.27-.77-.24-.12-.46-.28-.65-.47l-.34-.34-1.43-1.47c-.19-.28-.21-.65-.06-.95l.09-.1Z"/>
      <path class="cls-1" d="M11.84,52.66l2.22,1.78c.42.34,1.61.87,1.76,1.39l.02.08c0,1.33-2.2.93-2.2.93l-3.62-1.48c-.31-.13-.71-.64-.74-.97l.41-1.43,2.16-.3Z"/>
      <path class="cls-6" d="M10.19,52.89c.13.85.19,1.71-.05,2.53l-.12-.05c-.31-.13-.71-.64-.74-.97l.41-1.43.51-.07Z"/>
      <path class="cls-4" d="M8.4,26.34l5.06-1.38s-.02,4.04-.32,6.64c-.22,1.87-1.36,7.38-1.36,7.38l-6.62,7.57s-1.8,1.04-2.72-1.32l5.51-8.85.46-10.03Z"/>
      <path class="cls-4" d="M10.38,25.36v4.48l2.13,10.73-.2,12.49c-1.92,1.67-2.95.4-2.95.4l-1.32-12.39s-1.7-6.31-3.04-9.22c-1.35-2.91-1.12-6.05-1.12-6.05l6.5-.45Z"/>
      <path class="cls-4" d="M3.25,10.44l3.83-2.16,1.16-.24,1.42.25c.62-.02,3.21,1.46,3.39,1.89.5,1.13.42,9.54.42,9.54l.1,5.29s-.51,1.45-4.74,2.14c-4.43.73-4.93-1.21-4.93-1.21l.35-5.03-.07-7.64c-.12-1.45-.92-2.83-.92-2.83"/>
      <path class="cls-4" d="M13.34,12.5c.07,1.15.1,2.54.11,3.8-3.05.74-6.09,1.36-9.25,1.53l-.04-3.84c3.1.39,6.24-.35,9.17-1.49"/>
      <path class="cls-2" d="M.67,20.91l1.12-7.15s.75-3.36,2.78-2.91c1.99.44.92,4,.92,4l-2.08,6.37-.92,6.55s-.02,0-.03.01l.39,1.85-.38,2.42s-.52,0-.44-.74l.12-.84-.03.1h0s-.35.96-.35.96l-.04.92.02.3c.02.28-.37.41-.5.16-.04-.07-.38-.73-.38-.73l-.66-.6-.24-1,.7-2.64-.03-7.03Z"/>
      <path class="cls-4" d="M4.28,10.35c2.05.45,1.51,3.88,1.51,3.88l-1.1,3.42c-1.87.25-3.49-.83-3.58-.88l.76-3.76s.32-3.11,2.41-2.65"/>
      <path class="cls-2" d="M9.83,5.25l.71,2.82c.24.95-.38,1.58-1.33,1.83-.95.24-1.92-.33-2.16-1.29l.11-1.24-.27-1.47,2.94-.65Z"/>
      <path class="cls-2" d="M11.32,6.22c0,1.51-.97,2.42-2.2,2.17-.16-.03-2.66-.83-2.65-2.32l-.3-2.75,5.15-.91v3.81Z"/>
      <path class="cls-6" d="M10.37.85c1.47,1.14.95,2.16.95,2.16,0,0-3.62.08-3.65.69,0,.18.03,1.36.03,1.36l-.29.21-.3-.4.04,2.49s-1.12-.94-1.52-2.54c-.18-.71-.58-2.21.01-2.96,1.22-1.53,2.81-2.49,4.72-1.01"/>
      <path class="cls-2" d="M7.27,5.06l-.04,1.06c-.42.26-.96-.61-.88-1.13.16-.93.92.07.92.07"/>
      <path class="cls-6" d="M9.49,54.06c.64.94,1.63,1.3,2.67,1.64.62.21,1.27.47,1.93.55.52.15,1.05.12,1.56-.24.07-.05.12-.1.18-.16l.02.05c0,.66-.55.9-1.1.97-.55.07-1.1-.03-1.61-.24l-3.11-1.27c-.31-.13-.71-.64-.74-.97l.13-.47s.05.09.08.14"/>
      <path class="cls-2" d="M2.61,29.36s-.05,2.99-.18,3.12c-.13.13-.62,1.43-1.83-.49-1.2-1.92,2.01-2.63,2.01-2.63"/>
      <path class="cls-2" d="M17.03,27.22s.43,1.47.12,2.27c-.31.8-.53,1.56-1.47,1.16-.94-.4-.62-.89-.62-1.96s1.98-1.47,1.98-1.47"/>
      <path class="cls-4" d="M4.21,28.16s.87,4.15.98,6.31,0,6.12.58,6.65c.59.53.7.81.62,1.55-.09.81-.23.93.32,1.66.56.72-.19,1.11.66,2.13.29.34.1,2.5,1.68,2.77,1.58.27,2.48.26,3.19-.21,1.04-.7,1.17-1.44,1.03-1.98-.61-2.37-1.77-6.78-1.95-8.85-.07-.79-.6-8.81-.6-8.81l-6.51-1.21Z"/>
      <path class="cls-4" d="M7,34.28c.09.79,0,1.07-.57,1.58-.6.54-.79.54-.86,1.46-.06.91-.88.71-.91,2.03-.01.45-1.58,1.94-.57,3.18,1.01,1.25,1.69,1.84,2.53,1.96,1.24.17,1.83-.3,2.08-.8,1.11-2.18,1.61-3.85,2.84-5.51"/>
      <path class="cls-4" d="M11.77,2.79s2.11,1.03,2.55,1.32c.45.29-1.61,2.3-3.27,2.01-1.66-.29-3.82-1.62-3.82-1.62l4.54-1.71Z"/>
      <path class="cls-4" d="M11.77,2.79s-2.43,2.02-4.16,1.77c-1.72-.25-2.19-.47-2.19-.47,0,0-1.14-3.3,2.68-4.03,2.84-.55,3.67,2.73,3.67,2.73"/>
      <polygon class="cls-1" points="9 49.2 12.24 49.29 12.53 54.16 9.27 54.39 9 49.2"/>
      <polygon class="cls-1" points="1.69 46.29 3.66 43.1 6.43 45.01 5.09 47.39 1.69 46.29"/>
      <path class="cls-5" d="M3.94,25.25s3.49.88,9.69-.36l-.08-.93s-4.32,1.52-9.57.57l-.04.73Z"/>
      <polygon class="cls-3" points="8.78 24.89 8.78 25.45 10.31 25.37 10.31 24.81 8.78 24.89"/>
      <path class="cls-5" d="M4.76,9.23l1.01,7.74-1.43,2.36-.36,5.2c3.31.42,6.52.33,9.57-.57l-.11-7.32-1.09-7.49-1.09-.67.09,3.47-3.88.15-1.52-3.62-1.18.76Z"/>
    </g>
  </g>
</svg>