<?xml version="1.0" encoding="UTF-8"?>
<svg xmlns="http://www.w3.org/2000/svg" xmlns:xlink="http://www.w3.org/1999/xlink" viewBox="0 0 39.16 52.71">
  <defs>
    <style>
      .cls-1 {
        fill: #c0823a;
      }

      .cls-2 {
        clip-path: url(#clippath-6);
      }

      .cls-3 {
        clip-path: url(#clippath-7);
      }

      .cls-4 {
        clip-path: url(#clippath-15);
      }

      .cls-5 {
        clip-path: url(#clippath-4);
      }

      .cls-6 {
        fill: url(#Dégradé_sans_nom_9-4);
      }

      .cls-7 {
        fill: #627fbe;
      }

      .cls-8 {
        fill: #635f5b;
      }

      .cls-9 {
        fill: #7a92ca;
      }

      .cls-10 {
        clip-path: url(#clippath-9);
      }

      .cls-11 {
        fill: #6c4e42;
      }

      .cls-12 {
        fill: #fff9f3;
      }

      .cls-13 {
        clip-path: url(#clippath-10);
      }

      .cls-14 {
        fill: #556fb3;
      }

      .cls-15 {
        fill: #fff;
      }

      .cls-16 {
        fill: #e1e2e9;
      }

      .cls-17 {
        clip-path: url(#clippath-11);
      }

      .cls-18 {
        fill: #d93d3e;
      }

      .cls-19 {
        fill: #797672;
      }

      .cls-20 {
        fill: none;
      }

      .cls-21 {
        fill: #464550;
      }

      .cls-22 {
        fill: #534c57;
      }

      .cls-23 {
        clip-path: url(#clippath-1);
      }

      .cls-24 {
        fill: #e95659;
      }

      .cls-25 {
        fill: #c3b9c6;
      }

      .cls-26 {
        isolation: isolate;
      }

      .cls-27 {
        fill: #dac3b2;
      }

      .cls-28 {
        clip-path: url(#clippath-5);
      }

      .cls-29 {
        clip-path: url(#clippath-8);
      }

      .cls-30 {
        fill: #342d38;
      }

      .cls-31 {
        fill: #f3951b;
      }

      .cls-32 {
        fill: #f6bec0;
      }

      .cls-33 {
        fill: #a397a8;
      }

      .cls-34 {
        fill: #f3952d;
      }

      .cls-35 {
        clip-path: url(#clippath-3);
      }

      .cls-36 {
        fill: #7e4b41;
      }

      .cls-37 {
        fill: url(#Dégradé_sans_nom_9);
      }

      .cls-38 {
        clip-path: url(#clippath-12);
      }

      .cls-39 {
        fill: #595963;
      }

      .cls-40 {
        clip-path: url(#clippath-14);
      }

      .cls-41 {
        fill: #79554b;
      }

      .cls-42 {
        mix-blend-mode: multiply;
      }

      .cls-43 {
        fill: #4a424d;
      }

      .cls-44 {
        fill: #da582a;
      }

      .cls-45 {
        fill: url(#Dégradé_sans_nom_9-5);
      }

      .cls-46 {
        fill: #404249;
      }

      .cls-47 {
        fill: url(#Dégradé_sans_nom_9-3);
      }

      .cls-48 {
        fill: #4071b6;
      }

      .cls-49 {
        fill: url(#Dégradé_sans_nom_9-2);
      }

      .cls-50 {
        fill: #484b4f;
      }

      .cls-51 {
        clip-path: url(#clippath-16);
      }

      .cls-52 {
        clip-path: url(#clippath-2);
      }

      .cls-53 {
        fill: #96928f;
      }

      .cls-54 {
        clip-path: url(#clippath-13);
      }

      .cls-55 {
        fill: #4c6cb2;
      }

      .cls-56 {
        fill: #585453;
      }

      .cls-57 {
        clip-path: url(#clippath);
      }
    </style>
    <clipPath id="clippath">
      <path class="cls-20" d="M7.49,35.87c0,.06.23.69,0,1.39-.23.69,1.02.64,1.49.64s.89.04.77-.31c-.12-.35-.56-.89-.56-1.18v-2.1l-1.7,1.56Z"/>
    </clipPath>
    <linearGradient id="Dégradé_sans_nom_9" data-name="Dégradé sans nom 9" x1="-551.51" y1="1163.08" x2="-550.51" y2="1163.08" gradientTransform="translate(1278.1 2715.79) scale(2.3 -2.3)" gradientUnits="userSpaceOnUse">
      <stop offset="0" stop-color="#f6bec0"/>
      <stop offset=".05" stop-color="#f6bec0"/>
      <stop offset=".99" stop-color="#f4a8ab"/>
      <stop offset="1" stop-color="#f4a8ab"/>
    </linearGradient>
    <clipPath id="clippath-1">
      <rect class="cls-20" x="8.89" y="19.56" width="4.79" height="16.65"/>
    </clipPath>
    <clipPath id="clippath-2">
      <rect class="cls-20" x="8.89" y="19.56" width="4.79" height="16.65"/>
    </clipPath>
    <clipPath id="clippath-3">
      <path class="cls-20" d="M17.1,33.39c-.07.5-.15,1.44-.34,1.84-.19.4-.37.73-.43.89-.06.16.1.47.73.5.62.03,1.18-.04,1.44-.06.11,0,.18,0,.25.02.1.02.17.05.27,0,.17-.09.03-.46-.15-.65-.18-.19-.2-.73-.2-.73l.4-2.02-1.97.22Z"/>
    </clipPath>
    <linearGradient id="Dégradé_sans_nom_9-2" data-name="Dégradé sans nom 9" x1="-482.09" y1="1100.26" x2="-481.09" y2="1100.26" gradientTransform="translate(1495.05 3410.11) scale(3.07 -3.07)" xlink:href="#Dégradé_sans_nom_9"/>
    <clipPath id="clippath-4">
      <rect class="cls-20" x="12.39" y="22.02" width="6.59" height="12.09"/>
    </clipPath>
    <clipPath id="clippath-5">
      <rect class="cls-20" x="12.39" y="22.02" width="6.59" height="12.09"/>
    </clipPath>
    <clipPath id="clippath-6">
      <rect class="cls-20" x="21.99" y="6.75" width="1.42" height="1.54"/>
    </clipPath>
    <clipPath id="clippath-7">
      <rect class="cls-20" x="21.99" y="6.75" width="1.42" height="1.54"/>
    </clipPath>
    <clipPath id="clippath-8">
      <rect class="cls-20" x="18.69" y="10.95" width="4.43" height="6.77"/>
    </clipPath>
    <clipPath id="clippath-9">
      <rect class="cls-20" x="18.69" y="10.95" width="4.43" height="6.77"/>
    </clipPath>
    <clipPath id="clippath-10">
      <path class="cls-20" d="M24.36,2.55c-.56.01-4.11,1.2-4.46,2.6-.35,1.4-.52,1.66-.71,1.97-.17.26,2.18.96,2.8,1.14.09.03.15.04.15.04.04-.35.31-.88.39-.95.04-.04.22-.03.43-.02.16,0,.33.01.46,0,.02,0,.03,0,.04,0,.29-.05.39-.19.39-.19,0,0,.56-1.07.71-1.6.15-.53.25-1.57.25-1.57,0,0,.11-1.4-.44-1.4h0Z"/>
    </clipPath>
    <linearGradient id="Dégradé_sans_nom_9-3" data-name="Dégradé sans nom 9" x1="-447.64" y1="983.03" x2="-446.64" y2="983.03" gradientTransform="translate(2540.01 5541.2) scale(5.63 -5.63)" xlink:href="#Dégradé_sans_nom_9"/>
    <clipPath id="clippath-11">
      <rect class="cls-20" x="13.97" y="6.28" width="5.85" height="8.82"/>
    </clipPath>
    <clipPath id="clippath-12">
      <rect class="cls-20" x="13.97" y="6.28" width="5.85" height="8.82"/>
    </clipPath>
    <clipPath id="clippath-13">
      <path class="cls-20" d="M22.46,11.95c-.07.04-.11.07-.11.07-.18.26-.42.5-.18.92.24.42,1.84,3.16,2.42,3.93.58.77,1.05,1.11,1.52,1.31.46.21,1-.04,1.25-.12.25-.07,1.24-.37,1.61-.53.36-.15.77-.32,1.05-.44.29-.12.83-.16.83-.16l.43.16s.45-.1.55-.19c.06-.06.09-.21.11-.32.01-.07.01-.13.01-.13,0,0-.34-.62-.37-.65-.03-.03-.48-.4-.65-.48-.16-.08-.24-.13-.42-.09-.18.04-.47.27-.57.33-.1.06-.4.42-.5.45-.1.02-.59.17-1.21.11-.62-.07-1.18-.13-1.3-.23-.12-.1-.84-1.14-1.14-1.72-.3-.58-.57-1.24-.6-1.72-.03-.48-.29-1.37-.57-1.58-.02-.01-.05-.02-.08-.02-.4,0-1.7.83-2.09,1.09"/>
    </clipPath>
    <linearGradient id="Dégradé_sans_nom_9-4" data-name="Dégradé sans nom 9" x1="-416.75" y1="929.47" x2="-415.75" y2="929.47" gradientTransform="translate(4135.95 9189.69) scale(9.87 -9.87)" xlink:href="#Dégradé_sans_nom_9"/>
    <clipPath id="clippath-14">
      <rect class="cls-20" x="22.07" y="11.95" width="9.86" height="6.31"/>
    </clipPath>
    <clipPath id="clippath-15">
      <rect class="cls-20" x="22.07" y="11.95" width="9.86" height="6.31"/>
    </clipPath>
    <clipPath id="clippath-16">
      <path class="cls-20" d="M23.25,4.45c-.08.04-.13.11-.17.18-.05.11-.08.23-.09.34-.02.22.02.45.12.65.04.08.1.16.18.15.08,0,.13-.09.16-.16.06-.16.04-.31.05-.48,0-.11.04-.22.06-.33.02-.15-.05-.38-.21-.38-.03,0-.06,0-.09.02"/>
    </clipPath>
    <linearGradient id="Dégradé_sans_nom_9-5" data-name="Dégradé sans nom 9" x1="-1092.79" y1="2101.46" x2="-1091.79" y2="2101.46" gradientTransform="translate(640.2 1192.03) scale(.56 -.56)" xlink:href="#Dégradé_sans_nom_9"/>
  </defs>
  <g class="cls-26">
    <g id="Calque_2">
      <g id="_Éléments_Mise_en_page" data-name="Éléments_Mise_en_page">
        <g>
          <polygon class="cls-39" points="14.64 39.9 12.42 42.21 9.87 40.74 9.87 39.72 12.1 38.43 14.64 39.9"/>
          <polygon class="cls-21" points="14.64 40.93 12.42 42.21 12.42 41.19 14.64 39.9 14.64 40.93"/>
          <polygon class="cls-8" points="14.44 42.18 16.23 38.81 15.5 38.3 13.71 41.66 14.44 42.18"/>
          <g>
            <path class="cls-46" d="M7.11,39.06c-.1.11-.25.42-.25.42l.04.49s.55.33,1.01.28c.46-.05,1.05-.25,1.05-.25l.27-.24s.71-.02,1.03-.05.85-.17,1.22-.44c.38-.27.39-.45.43-.53.05-.08-.12-.31-.22-.33-.11-.02-4.6.65-4.6.65"/>
            <path class="cls-16" d="M9.41,37.41c.44.15.85.49.85.49,0,0,.85.15,1.04.2s.44.33.49.45c.05.12-.09.45-.18.51-.1.06-.57.4-1.17.31-.6-.1-1.42.08-1.67.11-.25.04-1.06.43-1.48.22-.41-.21-.4-.3-.4-.3,0,0-.11-.93.04-1.35.16-.42.36-.83.36-.83l2.11.19Z"/>
          </g>
          <g class="cls-57">
            <rect class="cls-37" x="7.26" y="34.31" width="2.6" height="3.64"/>
          </g>
          <g>
            <path class="cls-14" d="M16.48,14.39c-.34.97-2.13,3.78-2.81,5.18-.1.21-.18.4-.22.53-.31,1.02-.98,4.34-1.29,5.53-.31,1.2-1.25,3.55-1.68,4.86-.42,1.31-1.02,4.75-1.1,5.01-.06.2-.24.51-.5.71-.09.07-.2.13-.31.16-.42.12-1.6-.04-1.66-.33-.06-.29.12-2.84.16-3.9.04-1.06.58-3.2.89-4.22.31-1.02.79-4.4.87-5.17.08-.77-.08-1.41.27-3.36.35-1.95,1.35-2.7,2.1-3.76.75-1.06,2.26-1.91,2.26-1.91,0,0,3.42-.46,3.03.66"/>
            <path class="cls-7" d="M9.76,17.86c-.44,1.08-.4,2.43.39,3.29.25.27.6.49.96.43.15-.03.29-.1.42-.18,1.46-.88,2.43-2.52,2.49-4.22.02-.37-.01-.76-.19-1.09-.24-.43-.7-.71-1.14-.91-.52-.24-.66-.16-1.04.22-.75.74-1.48,1.48-1.89,2.47"/>
            <path class="cls-9" d="M8.84,36.34l-.23-.06c.02-.08.47-1.9.61-2.32.06-.19.29-1,.54-1.85.3-1.05.63-2.24.77-2.65.11-.33.4-1.17.72-2.06.38-1.08.81-2.3.95-2.75.25-.78.29-3.02.29-3.04h.23c0,.1-.04,2.29-.3,3.11-.14.45-.56,1.62-.96,2.76-.31.88-.61,1.72-.72,2.05-.13.41-.47,1.59-.77,2.64-.25.9-.47,1.67-.54,1.86-.14.41-.6,2.28-.6,2.3"/>
            <path class="cls-7" d="M7.18,35.26c-.01.18-.02.38.06.54.23.41.85.29,1.29.44.43-2.65,1.19-5.25,2.25-7.72.14-.33.29-.67.39-1.02.13-.47.15-.95.18-1.44.02-.37.03-.79-.22-1.07-.23-.26-.63-.33-.97-.24-1.44.35-1.65,2.12-1.97,3.35-.39,1.5-.62,3.04-.79,4.58-.09.85-.16,1.71-.22,2.57"/>
            <path class="cls-7" d="M8.78,26.2c-.08.47-.17.94-.29,1.41-.07.29-.15.64.04.88.2.26.63.25.9.06.27-.19.43-.5.58-.8.28-.57.57-1.14.85-1.71.18-.37.37-.75.44-1.15.12-.74-.15-1.49-.06-2.23.04-.35.17-.7.16-1.05-.01-.27-.11-.54-.21-.79-.16-.43-.33-.86-.49-1.29-.17-.46-.71-1.06-1.13-.47-.34.48-.27,1.53-.33,2.09-.16,1.69-.2,3.39-.47,5.06"/>
            <g class="cls-42">
              <g class="cls-23">
                <g class="cls-52">
                  <path class="cls-27" d="M13.67,19.56c-.1.21-.18.4-.22.53-.31,1.02-.98,4.34-1.29,5.54-.31,1.2-1.25,3.55-1.68,4.86-.42,1.31-1.02,4.74-1.1,5.01-.06.2-.24.51-.5.71.53-3.75,1.93-7.35,2.91-11.03.2-.75.38-1.53.28-2.31-.05-.34-.15-.67-.18-1-.1-1.23.65-2.18,1.78-2.31"/>
                </g>
              </g>
            </g>
            <path class="cls-18" d="M29.74,29.59l-1.66-1.93c-.55-.93-2.34-3.99-2.48-4.52-.22-.85.87-1.44,1.09-1.55l.45.9-.22-.45.23.45c-.24.12-.5.32-.55.43.15.4,1.29,2.4,2.34,4.19l1.58,1.82-.76.66Z"/>
            <path class="cls-24" d="M27.21,21.44c.11.29.36.66.06.92-.1.08-.2.15-.32.19-.15.05-.36.06-.43-.1-.08-.2-.15-.4-.23-.6-.25-.66-.5-1.33-.76-1.99-.18-.48-.37-.95-.54-1.43-.05-.14-.11-.37-.03-.5.04-.06.1-.1.17-.13.07-.02.14-.03.21-.03.09,0,.19,0,.27.04.17.09.29.19.36.37.04.1.08.2.11.3.11.29.22.58.33.87.26.69.53,1.39.79,2.08"/>
            <rect class="cls-24" x="11.21" y="30.11" width="20.99" height="1" transform="translate(-15.51 35.39) rotate(-61.98)"/>
            <rect class="cls-24" x="12.16" y="23.78" width="15.32" height="1" transform="translate(-10.37 15.87) rotate(-35.21)"/>
            <path class="cls-24" d="M13.77,27.6c.02.05.04.11.06.15.05.14.07.29.11.43.09.3.17.6.26.9.12.41.23.81.35,1.22.14.48.27.95.41,1.43.15.52.3,1.03.45,1.55.15.52.3,1.05.45,1.57.14.5.29,1,.43,1.5.13.44.26.89.38,1.33.1.36.21.71.31,1.07.07.24.14.47.2.71.03.09.05.17.08.26,0,0-.96.28-.96.28-.03-.09-.05-.18-.08-.27-.07-.23-.13-.45-.2-.68-.1-.34-.19-.67-.29-1.01-.12-.42-.24-.83-.36-1.25-.14-.47-.27-.94-.41-1.41l-.43-1.49c-.14-.5-.28-.99-.43-1.49-.13-.47-.27-.93-.4-1.4-.12-.41-.24-.82-.35-1.24-.09-.33-.19-.66-.28-.98-.06-.22-.12-.43-.19-.65-.03-.1-.08-.21-.06-.32.06-.3.49-.41.75-.4.09,0,.16.09.2.19"/>
            <path class="cls-18" d="M6.23,43.13l4.77-12.55c.31-.26.63-.51.94-.77.25-.2.5-.41.74-.61.07-.06.14-.11.21-.17.04-.03.12-.13.18-.12.09.02.15.11.2.2.08.14.13.27.18.42.03.09.07.18.03.27-.05.12-.2.2-.29.28-.13.11-.27.22-.4.33-.26.21-.51.42-.77.63-.06.05-.13.1-.19.15l-3.86,10.16.5-.2,4.24-1.39,3.4-.52.74.32-.4.92-.47-.21-3.07.47-4.09,1.34-2.59,1.04Z"/>
            <path class="cls-22" d="M7.49,33.99c-4.14,2.39-7.49,8.17-7.49,12.92s3.35,6.66,7.49,4.27c4.14-2.39,7.49-8.17,7.49-12.92s-3.35-6.66-7.49-4.27M7.49,50.69c-3.9,2.25-7.06.45-7.06-4.02s3.16-9.93,7.06-12.18c3.9-2.25,7.06-.45,7.06,4.03s-3.16,9.93-7.06,12.18"/>
            <path class="cls-22" d="M6.23,51.14c2.08-.67,4.33-2.26,5.62-4.36l1.69-3.16s.02-.04.02-.07c.65-1.84.86-3.52.86-3.52,0,0,0-2.38-.09-2.74-.09-.36-.64-1.47-.64-1.47l-1.15-1.43s.68-.14,1.12.3c.44.44,1.48,1.57,1.56,3.6.08,2.03-.61,8.08-6.07,12.13-5.45,4.05-7.69-.82-7.69-.82,0,0,2.34,2.32,4.77,1.53"/>
            <path class="cls-33" d="M7.84,35.03c-3.73,2.15-6.76,7.38-6.76,11.66s3.14,6.13,6.87,3.97c3.73-2.16,6.91-7.33,6.91-11.61s-3.29-6.18-7.02-4.02M7.84,50.25c-3.59,2.07-6.5.41-6.5-3.71s2.91-9.15,6.5-11.22c3.59-2.07,6.5-.41,6.5,3.71s-2.91,9.14-6.5,11.22"/>
            <path class="cls-25" d="M8.18,35.23c-3.73,2.15-6.76,7.38-6.76,11.66s3.03,6.01,6.76,3.85c3.73-2.16,6.76-7.38,6.76-11.66s-3.03-6.01-6.76-3.85M8.18,50.45c-3.59,2.07-6.5.41-6.5-3.71s2.91-9.15,6.5-11.22c3.59-2.07,6.5-.41,6.5,3.71s-2.91,9.14-6.5,11.22"/>
            <path class="cls-22" d="M3.1,52.24s-.79-.36-1.26-.74c-.47-.38-2.03-3.29-1.51-5.95.52-2.66,1.6-6.37,4.09-8.79,2.49-2.41,4.69-3.55,6.32-3.49,1.63.06,2.2.28,2.2.28,0,0,.79.31,1.27.81-.1.18-2.25-.78-3.38-.57-1.14.21-4.14,1.47-6.3,4.41-2.15,2.93-3.27,6.01-3.31,7.75-.04,1.74.54,3.96,1.42,4.88.88.92.45,1.41.45,1.41"/>
            <path class="cls-43" d="M8.36,34.98c-3.9,2.25-7.06,7.7-7.06,12.18s3.16,6.28,7.06,4.03c3.9-2.25,7.06-7.7,7.06-12.18s-3.16-6.28-7.06-4.02M8.36,50.84c-3.73,2.16-6.76.43-6.76-3.85s3.03-9.5,6.76-11.66c3.73-2.15,6.76-.43,6.76,3.85s-3.03,9.5-6.76,11.66"/>
            <path class="cls-30" d="M8.36,34.49c-4.14,2.39-7.49,8.17-7.49,12.92s3.35,6.66,7.49,4.27c4.14-2.39,7.49-8.17,7.49-12.92s-3.35-6.66-7.49-4.27M8.36,51.19c-3.9,2.25-7.06.45-7.06-4.02s3.16-9.93,7.06-12.18c3.9-2.25,7.06-.45,7.06,4.03s-3.16,9.93-7.06,12.18"/>
            <path class="cls-22" d="M30.81,20.53c-4.14,2.39-7.49,8.17-7.49,12.92s3.35,6.66,7.49,4.27c4.14-2.39,7.49-8.17,7.49-12.92s-3.35-6.66-7.49-4.27M30.81,37.22c-3.9,2.25-7.06.45-7.06-4.02s3.16-9.93,7.06-12.18c3.9-2.25,7.06-.45,7.06,4.03s-3.16,9.93-7.06,12.18"/>
            <path class="cls-22" d="M29.54,37.68c2.08-.67,4.33-2.26,5.62-4.36l1.69-3.16s.02-.04.02-.07c.65-1.84.86-3.52.86-3.52,0,0,0-2.38-.09-2.74-.09-.36-.64-1.47-.64-1.47l-1.15-1.43s.68-.14,1.12.3c.44.44,1.48,1.57,1.56,3.6.08,2.04-.61,8.08-6.07,12.13-5.45,4.05-7.69-.82-7.69-.82,0,0,2.34,2.32,4.77,1.53"/>
            <path class="cls-33" d="M31.15,21.57c-3.73,2.15-6.76,7.38-6.76,11.66s3.14,6.13,6.87,3.97c3.73-2.16,6.91-7.33,6.91-11.61s-3.29-6.18-7.02-4.02M31.15,36.79c-3.59,2.07-6.5.41-6.5-3.71s2.91-9.14,6.5-11.22c3.59-2.07,6.5-.41,6.5,3.71s-2.91,9.14-6.5,11.22"/>
            <path class="cls-25" d="M31.5,21.77c-3.73,2.15-6.76,7.37-6.76,11.66s3.03,6.01,6.76,3.85c3.73-2.16,6.76-7.38,6.76-11.66s-3.03-6.01-6.76-3.85M31.5,36.99c-3.59,2.07-6.5.41-6.5-3.71s2.91-9.15,6.5-11.22c3.59-2.07,6.5-.41,6.5,3.71s-2.91,9.14-6.5,11.22"/>
            <path class="cls-22" d="M26.42,38.78s-.79-.36-1.26-.74c-.47-.38-2.03-3.29-1.51-5.95.52-2.66,1.6-6.37,4.09-8.79,2.49-2.41,4.69-3.55,6.32-3.49,1.63.07,2.2.28,2.2.28,0,0,.79.31,1.27.81-.1.18-2.25-.78-3.38-.57-1.14.21-4.14,1.47-6.3,4.41-2.15,2.93-3.27,6.01-3.31,7.75-.04,1.74.54,3.96,1.42,4.88.88.92.45,1.41.45,1.41"/>
            <path class="cls-43" d="M31.67,21.52c-3.9,2.25-7.06,7.7-7.06,12.18s3.16,6.28,7.06,4.03c3.9-2.25,7.06-7.7,7.06-12.18s-3.16-6.28-7.06-4.02M31.67,37.38c-3.73,2.16-6.76.43-6.76-3.85s3.03-9.5,6.76-11.66c3.73-2.15,6.76-.43,6.76,3.85s-3.03,9.5-6.76,11.66"/>
            <path class="cls-30" d="M31.67,21.03c-4.14,2.39-7.49,8.17-7.49,12.92s3.35,6.66,7.49,4.27c4.14-2.39,7.49-8.17,7.49-12.92s-3.35-6.66-7.49-4.27M31.67,37.72c-3.9,2.25-7.06.45-7.06-4.02s3.16-9.93,7.06-12.18c3.9-2.25,7.06-.45,7.06,4.02s-3.16,9.93-7.06,12.18"/>
            <path class="cls-24" d="M31.15,30.04l-1.72-2.49c-.57-1.37-1.45-3.5-1.56-3.72-.13-.22-.36-.4-.54-.57-.15-.14-.29-.27-.44-.4-.1-.08-.18-.34-.15-.47.01-.05.04-.09.08-.13.06-.07.12-.13.18-.19.05-.05.11-.09.17-.11.05-.02.13,0,.16-.04.28.24.56.49.83.75.22.22.48.45.62.74.15.31,1.34,3.19,1.56,3.72l1.64,2.35-.82.57Z"/>
            <path class="cls-56" d="M34.72,17.77c-.23-.42-.91-1.01-1.29-1.31-.53.18-1.98.63-2.67.45-.75-.19-7.46-3.87-8.22-4.29l-.05-.03-.04-.05c-.22-.26-1.26-1.5-1.45-2.31-1.29-.75-3.08-.87-3.1-.87l.04-.67c.09,0,2.11.14,3.54,1.05l.14.09v.17c.03.4.76,1.42,1.29,2.05,2.86,1.57,7.52,4.07,8.01,4.2.46.12,1.75-.24,2.46-.49l.17-.06.14.11c.12.09,1.23.94,1.61,1.63l-.59.32Z"/>
            <rect class="cls-56" x="24.69" y="15.55" width="3.03" height=".67" transform="translate(-3.35 23.97) rotate(-46.52)"/>
            <path class="cls-56" d="M25.14,18.04s-.03-.03-.04-.06c-.05-.12-.09-.25-.14-.38-.11-.3-.22-.59-.33-.89,0-.03-.02-.06-.03-.09l.63-.23c.09.25.18.5.28.75l.18.49c.04.1.09.16.02.25-.07.09-.16.12-.26.15-.1.02-.22.09-.3,0"/>
            <path class="cls-56" d="M12.82,27.4c-.09-.31-.17-.63-.25-.94-.13-.52-.26-1.04-.39-1.56-.09-.34-.17-.69-.26-1.03,0-.01,0-.03,0-.04l.65-.16c.07.28.14.55.21.83.13.54.27,1.08.4,1.62.06.23.12.46.17.69.05.19.14.38.14.58,0,.17-.05.26-.2.34-.09.05-.21.08-.3.03-.08-.05-.11-.15-.14-.24-.01-.04-.02-.08-.03-.12"/>
            <path class="cls-11" d="M7.72,23.61s-.6,1.09.18,1.67c.78.59,2.56,1.34,3.65,1.37,1.09.03,1.71-1.46,1.85-1.71.14-.25.97-1.95,1.82-2.59.85-.64-.21-1.28-1.11-.95-.9.33-2.74,1.02-3.96,1.36-1.21.35-1.95.42-2.44.85"/>
            <path class="cls-24" d="M13.49,29.37s.09,0,.14,0c.12.02.25.06.35.12.16.11.24.27.21.46-.06.48-.12.95-.17,1.43-.04.34-.08.69-.13,1.03l-.04.08-4.91,10.14.92-.22,5.8-1.99.72-.86.77.64-.9,1.08-6.14,2.1-3.01.72,5.8-11.97c.05-.37.09-.73.13-1.1.03-.27.07-.54.1-.81.02-.19.02-.41.1-.59.04-.1.13-.22.24-.25"/>
            <path class="cls-19" d="M15.52,40.89c0,1.15.81,1.61,1.81,1.03,1-.58,1.81-1.97,1.81-3.12s-.81-1.61-1.81-1.03c-1,.58-1.81,1.97-1.81,3.12"/>
            <polygon class="cls-19" points="16.01 42.04 16.42 42.27 19.02 37.88 18.64 37.66 16.01 42.04"/>
            <path class="cls-53" d="M15.89,41.11c0,1.15.81,1.61,1.81,1.03,1-.58,1.81-1.97,1.81-3.12s-.81-1.61-1.81-1.03c-1,.58-1.81,1.97-1.81,3.12"/>
            <path class="cls-9" d="M10.32,19.56l-1.23-.04v-.23s1.13.04,1.13.04l2.04-2.4c-.31-.2-1.12-.73-1.31-1.01l.19-.13c.17.25,1.03.82,1.35,1.01l.11.07-2.28,2.69Z"/>
            <path class="cls-14" d="M14.45,16.44l-.39-.25c.31-.46.67-.89,1.09-1.26l.31.35c-.39.34-.73.73-1.01,1.16"/>
            <path class="cls-14" d="M12.33,14.86l-.19-.17c-.04-.12.01-.23.07-.28.14-.14.28-.28.43-.41.14-.12.3-.23.5-.26.05,0,.11-.01.17-.01.03,0,.06,0,.08,0l.04.46c-.08,0-.15,0-.22.01-.08.01-.17.07-.28.16-.14.12-.27.24-.4.37.06-.07.04-.15.03-.18l-.2.07-.04.24Z"/>
            <polygon class="cls-8" points="17.53 40.7 19.16 37.26 18.41 36.77 16.78 40.22 17.53 40.7"/>
            <polygon class="cls-39" points="21.97 37.17 19.74 39.48 17.19 38 17.19 36.98 19.42 35.69 21.97 37.17"/>
            <polygon class="cls-21" points="21.97 38.19 19.74 39.48 19.74 38.45 21.97 37.17 21.97 38.19"/>
            <path class="cls-46" d="M16.17,36.79s-.34.12-.4.28-.04.39-.04.39c0,0,.19.33.77.4.58.07,1.14.04,1.29,0,.15-.04.33-.1.33-.1,0,0,.87.21.96.24.09.03.58.11.91,0,.34-.11.67-.45.77-.52s.24-.41.09-.57c-.15-.16-.42-.26-.42-.26l-4.26.15Z"/>
            <path class="cls-16" d="M16.85,35.54s-.35-.06-.52.18c-.18.24-.4.99-.43,1.23,0,0-.09.26.14.36.22.1,1.16.13,1.46.17.31.04,1.59.29,1.77.38.17.09.75-.01,1.01-.21.26-.19.4-.34.49-.49.09-.15-.15-.75-.34-.83-.19-.08-.85-.11-1.08-.16-.24-.05-.53-.5-.7-.56-.17-.07-1.78-.08-1.78-.08"/>
          </g>
          <g class="cls-35">
            <rect class="cls-49" x="16.09" y="33.03" width="3.27" height="3.78" transform="translate(-3.69 2.13) rotate(-6.24)"/>
          </g>
          <g>
            <path class="cls-14" d="M20.47,26.75c-.06.87-.37,2.4-.73,4.38-.37,1.98-.38,2.74-.38,2.74,0,0-.75.24-1.18.3-.19.03-.47,0-.73-.06-.34-.08-.65-.2-.7-.33-.08-.22-.02-1.73.05-2.55.07-.82.16-1.92.21-2.21.05-.29.38-1.85.11-2.21-.27-.37-2.87-2.6-3.39-3.22-.35-.42-.95-1-1.33-1.48-.19-.23-.33-.45-.36-.6-.12-.48-.02-1.33.46-2.37.48-1.04,2.6-4.11,2.6-4.11l4.45,1.43s-.19.94-.25,1.56c-.06.62-.73,2.08-.75,2.72-.02.63.01.73.72,2.18.71,1.45,1.26,2.96,1.2,3.83"/>
            <g class="cls-42">
              <g class="cls-5">
                <g class="cls-28">
                  <path class="cls-27" d="M18.98,26.58c-.24.21-.51.39-.72.62-.48.54-.54,1.55-.58,2.27-.09,1.45-.07,2.13-.15,3.58-.02.35-.04.71-.08,1.06-.34-.08-.65-.2-.7-.33-.08-.22-.01-1.73.05-2.55.07-.82.16-1.92.21-2.22.04-.29.38-1.85.1-2.21-.27-.37-2.87-2.6-3.39-3.22-.35-.42-.95-1-1.33-1.48.04-.04.09-.06.15-.07.55-.13,1.23.84,1.52,1.16.56.61,1.12,1.21,1.67,1.82.25.27,1.25.77,1.53,1.01.49.43,1.1.33,1.71.56"/>
                </g>
              </g>
            </g>
            <path class="cls-7" d="M15.51,16.79c-.41-.25-.94-.41-1.37-.19-.15.08-.28.2-.4.32-.94.99-1.47,2.37-1.42,3.73.02.4.08.81.32,1.13.19.26.48.43.77.59.73.39,1.23.75,2.07.59.51-.1,1.14-.24,1.59-.52.7-.43,1.04-1.64,1.11-2.4.05-.47.2-1.02.13-1.49-.07-.46-.37-.7-.8-.85-.35-.12-.71-.15-1.05-.31-.34-.16-.63-.41-.95-.6"/>
            <path class="cls-7" d="M17.94,19.68c-.1-.23-.23-.48-.47-.55-.19-.06-.4.01-.59.1-.56.26-1.09.62-1.46,1.12-.37.5-.57,1.14-.45,1.75.19.97,1.09,1.6,1.76,2.33.65.71,1.92,1.36,2.64,2,.16.14.35.28.56.26,1.06-.07-.05-2.06-.27-2.54-.35-.74-.58-1.49-.83-2.28-.24-.75-.56-1.47-.88-2.19"/>
            <path class="cls-7" d="M17.98,33.82c.4-.03,1.02-.02,1.24-.41.17-.31.2-.91.28-1.26.26-1.1.41-1.51.48-2.64.05-.82.1-1.64.24-2.45.06-.34.5-1.68-.3-1.51-.31.07-.35.45-.45.7-.33.87-.62,1.88-.81,2.79-.37,1.83-.53,2.92-.68,4.79"/>
            <path class="cls-9" d="M15.47,22.61h-.04s-1.03-.45-1.79-1.13l-.03-.02v-.04c-.19-.81.54-2.97.57-3.06l.04-.11,3.74,1.13-.53,2.76-1.96.47ZM13.83,21.33c.65.57,1.48.96,1.66,1.04l1.74-.42.47-2.41-3.32-1.01c-.14.44-.66,2.12-.55,2.79"/>
            <path class="cls-9" d="M19.33,33.92l-.23-.02c0-.08.17-1.9.28-2.6l.02-.12c.13-.77.37-2.21.6-3.33.21-1.04-.25-2.89-.76-4.28-.19-.52-.39-.98-.57-1.39-.21-.49-.38-.88-.44-1.16-.12-.52.62-2.82.7-3.08l.22.07c-.32,1-.78,2.62-.7,2.96.06.26.22.64.43,1.11.18.42.38.89.57,1.41.25.69,1.05,3.05.77,4.41-.23,1.11-.47,2.55-.6,3.32l-.02.12c-.11.68-.28,2.56-.28,2.58"/>
            <path class="cls-14" d="M18.63,18.2c-.03-.16.03-.3.08-.41.18-.38.28-.79.3-1.2l.46.02c-.03.47-.14.94-.34,1.36-.02.04-.05.11-.05.13l-.45.09Z"/>
            <path class="cls-41" d="M12.59,14.3s.41.93,1.38,1.55c.96.62,3.38,1.38,3.78,1.53.41.15,1.52.77,1.52.77l.17-1.15-5.68-2.7-.5-.45-.67.45Z"/>
            <polygon class="cls-1" points="16.83 15.99 16.6 17.11 18.56 17.86 18.91 16.66 16.83 15.99"/>
            <g class="cls-42">
              <g class="cls-2">
                <g class="cls-3">
                  <path class="cls-27" d="M23.41,7.32c-.3.04-.81-.05-.88.03-.08.08-.35.61-.39.95,0,0-.05-.01-.15-.04.12-.25.23-.51.33-.77.09-.23.18-.48.14-.73.16.27.43.49.73.55.07.01.14.02.21.01"/>
                </g>
              </g>
            </g>
            <path class="cls-15" d="M23.11,11.01c-.03.09-.07.16-.09.2-.18.32-.59,1.6-.68,2.79-.09,1.2-1.89,1.77-2.24,2.06-.35.28-1.02,1.65-1.09,1.66-.08.01,0,0-.13-.27-.02-.05-.09-.12-.2-.2-.46-.35-1.68-.96-3.6-1.41-2.35-.55-2.74-1.27-2.74-1.27,0,0,.23-.27.55-.63.32-.36,1.12-1.49,1.65-2.61.53-1.12,1.13-3.37,1.13-3.37,0,0,.41-.61,1.02-.93.6-.32,1.27-.37,1.68-.41.41-.04,2.02.27,3.01.59,0,0,.3.15.67.6.37.45.94.75,1.27,1.14.29.34-.01,1.52-.22,2.05"/>
            <g class="cls-42">
              <g class="cls-29">
                <g class="cls-10">
                  <path class="cls-27" d="M23.11,11.01c-.03.09-.07.16-.09.2-.18.32-.59,1.6-.68,2.79-.09,1.2-1.89,1.77-2.24,2.06-.35.28-1.02,1.65-1.09,1.66-.08.01,0,0-.13-.27-.02-.05-.09-.12-.2-.2.06-.09.12-.17.19-.25.24-.27.4-.6.65-.87.27-.3.59-.57.89-.85.21-.2.37-.42.46-.71.1-.32.21-.65.31-.97.08-.25.17-.51.22-.77.11-.56.11-1.55.77-1.79.29-.11.63-.11.95-.03"/>
                </g>
              </g>
            </g>
          </g>
          <g class="cls-13">
            <rect class="cls-47" x="19.02" y="2.55" width="5.9" height="5.75"/>
          </g>
          <g>
            <path class="cls-36" d="M23.45,4.67c-.43-.04-.51.06-.86.34-.36.28-.38.26-.59.64-.21.38-.45.63-.45.63,0,0-1.07-.04-1.33-.15-.26-.12-.56-.36-.58-.56-.02-.2-.25-1.42-.14-2.17.11-.75.52-1.41,1.15-1.86.63-.45,1.7-.45,2.53-.14,1.03.37,1.42.79,1.47,1.46.06.66-.42,1.17-.42,1.17,0,0,.17.43-.03.8-.2.37-.47.76-.47.76,0,0,.03-.4-.06-.68-.09-.28-.21-.22-.21-.22"/>
            <g class="cls-42">
              <g class="cls-17">
                <g class="cls-38">
                  <path class="cls-27" d="M14.73,15.04c.06.04.14.07.21.05.07-.02.11-.08.14-.14.13-.23.17-.51.25-.76.35-1.13,1.46-1.82,2.14-2.79.18-.25.32-.52.5-.78.34-.51.78-.95,1.09-1.47.51-.86.66-1.88.76-2.87-.36.11-.55.5-.71.84-.8,1.72-1.99,3.25-3.46,4.45-.57.47-1.34.98-1.62,1.7-.23.58.2,1.48.7,1.78"/>
                </g>
              </g>
            </g>
            <path class="cls-36" d="M19.84,5.11c-.38.21-.32.32-.5.52-.18.2-.82.33-1.31,1.23s-1.35,2.42-2,3c-.65.58-1.67,1.61-1.96,2.38-.28.77-.17,1.18-.17,1.18,0,0,.25.54.52.81.27.27.62.5.62.5,0,0,0-.84.47-1.42.47-.58,1.48-1.67,1.9-2.3.42-.63,1.3-1.54,1.93-2.85.63-1.31.52-2.18.66-2.56.14-.38.23-.49.23-.49h-.39Z"/>
            <path class="cls-31" d="M20.4,5.77c-.01-.14-.07-.27-.13-.39-.06-.12-.12-.23-.21-.32-.09-.09-.22-.15-.35-.14-.21.02-.36.24-.38.46,0,.04,0,.09.03.12.07.06.17-.01.26,0,.27.05.27.36.38.54.2.34.41,0,.39-.27"/>
          </g>
          <g class="cls-54">
            <rect class="cls-6" x="21.93" y="10.86" width="10.01" height="7.53"/>
          </g>
          <g>
            <path class="cls-32" d="M24.15,11.31c-.3.19-.56.43-.77.71-.12.15-.23.32-.27.51-.06.29.04.59.18.85.14.26.32.5.44.76.11.25.23.5.38.72.16.23.26.49.38.75.17.35.38.69.66.97.39.39.93.6,1.42.84.04.02.07.04.11.03.06-.02.08-.1.09-.16.02-.23-.02-.46-.05-.69-.05-.34-.11-.61-.29-.91-.06-.09-.1-.19-.15-.28-.07-.14-.14-.27-.2-.41-.05-.1-.07-.22-.12-.32-.06-.11-.16-.19-.22-.3-.07-.15-.11-.31-.19-.46-.21-.4-.35-.82-.44-1.26-.03-.15-.11-.28-.14-.43-.05-.19,0-.4-.04-.59-.02-.12-.14-.32-.23-.4-.15-.13-.4,0-.54.09"/>
            <path class="cls-32" d="M28.69,17.2c-.18.08-.35.17-.54.23-.15.04-.31.06-.47.08-.22.02-.43.04-.65.07-.16.02-.32.03-.47,0-.18-.03-.34-.12-.48-.22-.15-.1-.3-.24-.28-.42.01-.1.07-.18.13-.26.07-.08.13-.17.2-.26.05-.06.1-.13.17-.17.12-.07.26-.07.4-.06.98.04,1.97.12,2.93-.08.14-.03.3-.06.42.03.53.39-1.17.98-1.36,1.07"/>
            <g class="cls-42">
              <g class="cls-40">
                <g class="cls-4">
                  <path class="cls-27" d="M31.93,16.59c-.02.11-.05.26-.11.32-.1.1-.55.19-.55.19l-.43-.16s-.54.05-.82.16c-.28.12-.68.28-1.05.44-.37.15-1.36.45-1.61.53-.25.07-.79.32-1.25.12-.46-.2-.94-.54-1.52-1.31-.58-.77-2.17-3.51-2.42-3.93-.24-.42,0-.66.18-.92,0,0,.04-.03.11-.07,0,.03,0,.06,0,.09-.01.22-.05.43,0,.65.03.16.08.31.14.46.1.26.19.52.36.74.4.54.73,1.13,1.07,1.71.12.15.2.35.3.5.14.21.28.41.42.62.17.32.4.7.7.91.18.12.36.18.57.23.2.05.37.15.59.13.07,0,.14-.03.21-.04.33-.09.65-.11.97-.22.85-.29,1.69-.58,2.54-.87.14-.05.29-.1.43-.09.15.01.34.12.49.07.12-.04.23-.17.36-.22,0,.03-.11.29-.09.3.05.02.1-.02.13-.06.09-.11.11-.23.25-.28,0,0,0,0,0,0"/>
                </g>
              </g>
            </g>
            <path class="cls-12" d="M22.8,9.1c-.64.82-.94,1.59-1.03,2.2-.09.6.19,1.26.32,1.59.13.33,2.88-1.53,2.85-1.72s-.68-1.4-1.62-2.21c-.24-.03-.53.14-.53.14"/>
            <path class="cls-44" d="M2.99,45.87c-.26.09-.4-.3-.3-.87.1-.57.39-1.1.65-1.18.26-.09.4.3.3.87-.1.57-.39,1.1-.65,1.18"/>
            <path class="cls-34" d="M3.09,45.93c-.26.09-.4-.3-.3-.87.1-.57.39-1.1.65-1.18.26-.09.4.3.3.87-.1.57-.39,1.1-.65,1.18"/>
            <path class="cls-44" d="M36.01,28.75c-.26.09-.4-.3-.3-.87.1-.57.39-1.1.65-1.18.26-.09.4.3.3.87-.1.57-.39,1.1-.65,1.18"/>
            <path class="cls-34" d="M36.11,28.81c-.26.09-.4-.3-.3-.87.1-.57.39-1.1.65-1.18.26-.09.4.3.3.87-.1.57-.39,1.1-.65,1.18"/>
            <path class="cls-50" d="M22.92,4.9c.17.51-.42,2.5-.42,2.5l.49-.08s.27-1.03.35-1.31c.31-.35.58-.88.56-1.05-.03-.17.07-.91.07-.91l-.35.43s.03.64-.05.79-.33.46-.33.46c0,0,.05-.8-.02-.98-.06-.18-.3.16-.3.16"/>
          </g>
          <g class="cls-51">
            <rect class="cls-45" x="22.97" y="4.43" width=".59" height="1.36"/>
          </g>
          <path class="cls-48" d="M19.98,3.23c-.57.63-1.34.7-1.44.84-.21.32-.04.8.04.88.3.29.89.49,1.9.6,1,.11,1.46.21,2.69-.24,1.22-.45,1.43-.69,1.83-1.18.5-.6.55-1.3.55-1.46,0-.16-.13-1.06-.44-1.18-.31-.12-5.13,1.73-5.13,1.73"/>
          <path class="cls-55" d="M25.18,1.66h0s0-.02,0-.02h0c-.16-.52-.79-.97-1.21-1.2-.9-.49-1.91-.75-3.36.25-.45.31-.8.78-.99,1.05-.75.93-1.72,2.56-.57,2.96,1.22.42,2.61.84,5.01-.38,1.64-.84,1.2-2.45,1.14-2.66"/>
          <path class="cls-48" d="M23.06,2.73s-.73.82-.81,1.27c-.08.45,1.13.07,1.72-.35.59-.41.78-.51.81-.99.03-.48-.68-.31-.68-.31l-1.03.37Z"/>
          <path class="cls-50" d="M24.6,2.59c-.09-.48-.96-.13-1.3,0-.61.23-1.02,1.19-1,1.34.03.16,2.43-.63,2.3-1.34"/>
        </g>
      </g>
    </g>
  </g>
</svg>