<?xml version="1.0" encoding="UTF-8"?>
<svg id="uuid-ba939719-2dad-45a7-ab36-c5b6e8f8f62d" data-name="Calque_2" xmlns="http://www.w3.org/2000/svg" viewBox="0 0 48.96 65.17">
  <defs>
    <style>
      .uuid-1c747fd5-4a8a-456e-ab9f-b48c21330b8c {
        fill: #d8ddee;
      }

      .uuid-991b8435-5a85-4eb3-90df-0dc460f9490f {
        fill: #b4d5f1;
      }

      .uuid-e35f424d-fa9b-4271-aada-72bbdaa4583e {
        fill: #fff;
      }

      .uuid-b59e2962-d53d-4826-bc7c-61ae17649527 {
        fill: none;
        stroke: #fff;
        stroke-miterlimit: 10;
        stroke-width: .34px;
      }

      .uuid-3e45cf9c-c420-44df-bdc3-ceb42edb3eb8 {
        fill: #fdf9ed;
      }

      .uuid-f3230adb-0dfa-481d-b15c-128b1f68913a {
        fill: #2b3086;
      }

      .uuid-999b94e0-b6a2-4052-a964-bc54112aa03f {
        fill: #466cb2;
      }

      .uuid-b77f8ece-417b-4670-808d-66795955cea9 {
        fill: #ef7f55;
      }

      .uuid-f6bb106c-2f50-4492-80cf-9d947aeb6639 {
        fill: #e9edf6;
      }
    </style>
  </defs>
  <g id="uuid-bbc5c23c-8f86-4b94-9422-3b943fc3e9ca" data-name="Les_personnages">
    <g id="uuid-09d255ac-eef8-4e6b-bc7a-5b23b5d80d03" data-name="Chara_x5F_VeloCasque_x5F_BG">
      <path class="uuid-f6bb106c-2f50-4492-80cf-9d947aeb6639" d="M37.33,46.21c-.51,0-1.01-.08-1.49-.23-2.05-.65-3.53-2.62-4.16-5.55-1.29-5.9,1.3-14,5.76-18.06,2.21-2.02,4.56-2.77,6.61-2.11,2.05.65,3.53,2.62,4.16,5.55,1.29,5.9-1.3,14-5.76,18.06-1.69,1.54-3.46,2.34-5.12,2.34M42.56,20.66c-1.5,0-3.12.75-4.7,2.18-4.32,3.93-6.82,11.76-5.57,17.46.59,2.7,1.92,4.5,3.74,5.08s3.95-.12,5.99-1.98c4.32-3.93,6.82-11.76,5.57-17.46-.59-2.7-1.92-4.5-3.74-5.08-.42-.13-.85-.2-1.3-.2"/>
      <path class="uuid-3e45cf9c-c420-44df-bdc3-ceb42edb3eb8" d="M37.33,46.22c-.51,0-1.01-.08-1.49-.23-2.05-.65-3.53-2.62-4.17-5.55-1.29-5.9,1.3-14,5.76-18.07,2.21-2.02,4.56-2.76,6.61-2.11,2.05.65,3.53,2.62,4.17,5.55,1.29,5.9-1.3,14-5.76,18.07-1.69,1.54-3.46,2.34-5.12,2.34M42.55,20.66c-1.5,0-3.12.75-4.7,2.18-4.32,3.93-6.82,11.77-5.57,17.47.59,2.7,1.92,4.5,3.74,5.08,1.83.58,3.96-.12,6-1.98,4.32-3.93,6.82-11.77,5.57-17.47-.59-2.7-1.92-4.5-3.74-5.08-.42-.13-.85-.2-1.3-.2"/>
      <path class="uuid-f3230adb-0dfa-481d-b15c-128b1f68913a" d="M37.2,46.86c-.54,0-1.06-.08-1.57-.24-2.15-.69-3.7-2.75-4.37-5.81-1.35-6.19,1.36-14.7,6.05-18.97,2.32-2.11,4.78-2.89,6.93-2.21,2.15.69,3.7,2.75,4.37,5.81,1.35,6.19-1.36,14.7-6.05,18.97-1.77,1.61-3.62,2.45-5.36,2.45M37.74,22.31c-4.54,4.13-7.17,12.37-5.86,18.37.62,2.83,2.02,4.73,3.95,5.35,1.93.61,4.17-.12,6.31-2.07,4.33-3.94,7.11-12.65,5.86-18.37-.62-2.83-2.02-4.73-3.95-5.35-1.93-.61-4.17.12-6.31,2.07"/>
      <path class="uuid-f6bb106c-2f50-4492-80cf-9d947aeb6639" d="M6.41,64.53c-.51,0-1.01-.08-1.49-.23-2.05-.65-3.53-2.62-4.16-5.55-1.29-5.9,1.3-14,5.76-18.06,2.21-2.02,4.56-2.77,6.61-2.11,2.05.65,3.53,2.62,4.16,5.55,1.29,5.9-1.3,14-5.76,18.06-1.69,1.54-3.46,2.34-5.12,2.34M11.63,38.98c-1.5,0-3.12.75-4.7,2.18C2.62,45.08.12,52.91,1.37,58.61c.59,2.7,1.92,4.5,3.74,5.08s3.95-.12,5.99-1.98c4.32-3.93,6.81-11.76,5.57-17.46-.59-2.7-1.92-4.5-3.74-5.08-.42-.13-.85-.2-1.3-.2"/>
      <path class="uuid-3e45cf9c-c420-44df-bdc3-ceb42edb3eb8" d="M6.41,64.53c-.51,0-1.01-.08-1.49-.23-2.05-.65-3.53-2.62-4.17-5.55-1.29-5.9,1.3-14,5.76-18.07,2.21-2.02,4.56-2.76,6.61-2.11,2.05.65,3.53,2.62,4.17,5.55,1.29,5.9-1.3,14-5.76,18.07-1.69,1.54-3.46,2.34-5.12,2.34M11.63,38.97c-1.5,0-3.12.75-4.7,2.18C2.62,45.08.12,52.92,1.36,58.62c.59,2.7,1.92,4.5,3.74,5.08,1.83.58,3.96-.12,6-1.98,4.32-3.93,6.82-11.77,5.57-17.47-.59-2.7-1.92-4.5-3.74-5.08-.42-.13-.85-.2-1.3-.2"/>
      <path class="uuid-f3230adb-0dfa-481d-b15c-128b1f68913a" d="M6.28,65.17c-.54,0-1.06-.08-1.57-.24-2.15-.69-3.7-2.75-4.37-5.81-1.35-6.19,1.36-14.7,6.05-18.97,2.32-2.11,4.78-2.89,6.93-2.21,2.15.69,3.7,2.75,4.37,5.81,1.35,6.19-1.36,14.7-6.05,18.97-1.77,1.61-3.62,2.45-5.36,2.45M6.82,40.62C2.28,44.75-.35,52.99.96,58.98c.62,2.83,2.02,4.73,3.95,5.35,1.93.61,4.17-.12,6.31-2.07,4.54-4.13,7.17-12.37,5.86-18.37-.62-2.83-2.02-4.73-3.95-5.35-1.93-.61-4.17.12-6.31,2.07"/>
      <path class="uuid-b77f8ece-417b-4670-808d-66795955cea9" d="M35.74,20.65c-.69-1-2.84-1.93-3.48-2.34-.34-.17-.75-.15-1.06.07l-4.68,3.19.4.23-.48.33,3.68,2.12c1.45-.62,4.66-1.3,5.64-2.5.29-.36.24-.74-.01-1.1"/>
      <path class="uuid-1c747fd5-4a8a-456e-ab9f-b48c21330b8c" d="M24.07,47.18c-.13,0-.26-.05-.36-.15-.21-.2-.22-.53-.02-.74l2.91-3.04c.2-.21.53-.22.74-.02.21.2.22.53.02.74l-2.92,3.04c-.1.11-.24.16-.38.16"/>
      <path class="uuid-999b94e0-b6a2-4052-a964-bc54112aa03f" d="M20.2,49.62c-.17,0-.33-.08-.43-.23-.16-.24-.1-.56.14-.73l3.2-2.17c.24-.16.56-.1.73.14s.1.56-.14.73l-3.2,2.17c-.09.06-.19.09-.29.09"/>
      <path class="uuid-999b94e0-b6a2-4052-a964-bc54112aa03f" d="M30.86,44.93c-.17,0-.33-.08-.43-.23-.16-.24-.1-.56.14-.73l3.2-2.17c.24-.16.56-.1.73.14.16.24.1.56-.14.72l-3.2,2.17c-.09.06-.19.09-.29.09"/>
      <path class="uuid-991b8435-5a85-4eb3-90df-0dc460f9490f" d="M26.62,42.41s-.07,0-.1-.01c-.22-.05-.36-.28-.31-.5l4.57-18.99c.05-.23.28-.36.5-.31.23.05.36.28.31.5l-4.56,18.99c-.05.19-.22.32-.41.32"/>
      <path class="uuid-991b8435-5a85-4eb3-90df-0dc460f9490f" d="M7.22,51.83c-.17,0-.34-.11-.39-.28-.08-.22.04-.46.26-.53.21-.07.36-.11.46-.14.23-.06.28-.08.71-.4.54-2.84,1.43-6.13,2.29-9.31.84-3.1,1.71-6.3,2.23-9.02,0-.03.01-.07.02-.1.03-.14.13-.26.26-.31.13-.05.28-.03.4.05h0c.18.14,13.23,9.74,13.41,9.87.19.14.23.4.09.58-.14.19-.4.23-.59.09-.16-.12-10.41-7.66-12.88-9.48-.53,2.63-1.35,5.63-2.14,8.53-.88,3.23-1.78,6.56-2.31,9.41-.02.1-.08.19-.16.26-.62.47-.75.53-1.12.63-.1.03-.23.06-.41.13-.05.02-.09.02-.14.02"/>
      <path class="uuid-1c747fd5-4a8a-456e-ab9f-b48c21330b8c" d="M23.19,10.71l-2.92,6.65c-.38.87-1.01,1.6-1.81,2.11l-4.75,3-.54.34-1.15,1.34c-.25.29-.6.44-.95.44-.29,0-.58-.1-.82-.3-.52-.45-.58-1.24-.13-1.77l1.28-1.48s.07-.08.11-.11c.05-.05.11-.09.17-.13l5.45-3.45c.38-.24.67-.58.85-.99l2.92-6.65c.28-.63,1.02-.92,1.65-.64.63.28.92,1.02.64,1.65"/>
      <path class="uuid-f3230adb-0dfa-481d-b15c-128b1f68913a" d="M20.67,45.75c-.14.19-.28.38-.41.57-.14.19-.27.39-.38.6-.16.31-.69.89-.45,1.22.36.49,1.32.23,1.71-.04.57-.4,1.1-.84,1.61-1.33.22-.21.43-.43.53-.71.3-.87-.04-2.22-1.18-2.07-.41.05-.62.32-.77.67-.16.4-.4.75-.65,1.1"/>
      <path class="uuid-b77f8ece-417b-4670-808d-66795955cea9" d="M21.14,40.03l-.04-1.8c.89.25,1.77.48,2.65.67l-.04.51s-.38,5.16-.38,5.18c-.06.73-.73,1.59-1.25,2.06-.39.35-.9.6-1.42.57-.11,0-.24-.03-.29-.13-.03-.06-.03-.13-.03-.2.06-.91.93-1.62.89-2.51l-.1-4.35Z"/>
      <polyline class="uuid-b77f8ece-417b-4670-808d-66795955cea9" points="23.85 42.74 23.85 42.72 23.85 42.73 23.85 42.74"/>
      <path class="uuid-f3230adb-0dfa-481d-b15c-128b1f68913a" d="M27.1,24c.47-1.66,1.19-3.27,1.79-4.88-2.62-.72-3.74-1.36-5.19,1.36-1.31,2.45-2,5.24-2.26,8-.48,5.23-.35,7.71-.29,12.74,0,.15.01.32.11.42.08.08.2.1.31.11.68.08,1.68.16,2.16-.38.24-.27.35-.65.45-1.02.82-3.06.71-5.16,1.06-8.4.19-1.69,1.11-5.31,1.85-7.96"/>
      <path class="uuid-1c747fd5-4a8a-456e-ab9f-b48c21330b8c" d="M20.47,14.85l.03.06s-.02,0-.02,0c0-.02,0-.04,0-.06"/>
      <path class="uuid-991b8435-5a85-4eb3-90df-0dc460f9490f" d="M26.76,42.38c-.36,0-.67-.2-.93-.36-.1-.06-.19-.12-.28-.16-.03-.02-.06-.03-.08-.05-1.6-1.32-3.27-2.49-4.89-3.62-1.96-1.36-3.98-2.78-5.87-4.46-.17-.15-.19-.42-.04-.59.15-.17.42-.19.59-.04,1.86,1.65,3.86,3.04,5.8,4.4,1.62,1.13,3.3,2.3,4.91,3.63.11.06.21.12.3.18.23.15.41.25.51.22,3.13-2.38,10.68-7.3,12.53-8.5l-7.84-8.59c-2.24,1.19-5.49,2.52-8.65,3.81-3.52,1.44-7.15,2.93-9.41,4.22-.2.11-.46.05-.57-.16-.11-.2-.04-.46.16-.57,2.31-1.32,5.97-2.82,9.51-4.27,3.27-1.34,6.65-2.73,8.85-3.93.17-.09.38-.06.51.08l8.39,9.2c.08.09.12.21.11.34-.02.12-.08.23-.19.3-.09.06-9.44,6.09-12.94,8.76-.02.02-.04.03-.07.04-.15.07-.29.1-.42.1"/>
      <path class="uuid-999b94e0-b6a2-4052-a964-bc54112aa03f" d="M32.05,38.86s.08.05.13.08l-.22-.3c0,.06.03.11.05.15,0,.02.01.03.02.04,0,0,.02,0,.03.01,0,0,0,0,0,0"/>
      <path class="uuid-f3230adb-0dfa-481d-b15c-128b1f68913a" d="M31.55,39.32c.17.89.27,2.04-.25,2.81-.2.29-.41.59-.43.94-.03.35.21.74.56.74.18,0,.35-.1.5-.21.92-.66,1.56-1.67,1.82-2.76.28-1.19.27-1.8-.77-2.38-.05-.07-.12-.14-.19-.2l.12.15s-.09-.06-.13-.09c-.05-.04-.09-.09-.12-.15-.18-.1-.39-.15-.59-.12-.15.02-.3.07-.4.18-.27.27-.17.71-.1,1.09"/>
      <path class="uuid-b77f8ece-417b-4670-808d-66795955cea9" d="M31.48,38.39l.71.22c-.2-.17-.45-.24-.71-.22"/>
      <path class="uuid-b77f8ece-417b-4670-808d-66795955cea9" d="M31.47,38.39s.01,0,.01,0h-.03s.01,0,.02,0"/>
      <path class="uuid-b77f8ece-417b-4670-808d-66795955cea9" d="M31.96,36.69c-.67.46-1.36.9-2.04,1.34l1.03,1.48c.44.6.3,1.43.46,2.17-.01.05-.03.09-.04.14-.08.24-.19.48-.28.72.04.04.09.07.15.09.27.12.59.02.81-.17.06-.05.12-.12.17-.18.42-.29.7-.77.83-1.27.19-.72.3-1.9-.08-2.57,0,0-.46-.81-1-1.76"/>
      <path class="uuid-f3230adb-0dfa-481d-b15c-128b1f68913a" d="M29.46,27.89c.15-.7.56-1.3,1.22-1.96,1.87-1.89,3.42-3.69,2.71-6.52-.18-.7-.44-1.53-.91-2.09,0,.05,0,.12-.01.18-1-.66-2.04-1.13-3.27-.97,0,0,0,0,0,0-.9.12-1.89.4-2.82.84,0,.01,0,.02-.01.03-1.28.57-2.11,1.49-2.11,2.54,0,.7.38,1.35,1.01,1.87.07.25.15.49.25.74.14.36.09.76,0,1.12.86.13,1.03.21.82,1.1-.22.92-.47,1.84-.68,2.76-.18.83-.35,1.68-.21,2.52.12.68.43,1.31.76,1.92.68,1.28,1.43,2.51,2.24,3.71.67.99,1,2,1.89,2.86.12.11.24.23.4.25.14.02.28-.02.41-.07,2.08-.83,1.17-3.25.5-4.74-.66-1.46-1.68-2.8-2.07-4.37-.17-.67-.2-1.23-.09-1.73"/>
      <path class="uuid-1c747fd5-4a8a-456e-ab9f-b48c21330b8c" d="M30.45,10.93l.41,1.59,1.56,4.78c.08.33,0,.62-.25.8-.65.48-2.64.95-5.64.4-.47-.09-.93-.35-1.23-.71l-2.78-3.32-.06-.07c-.43-.52-.66-1.08-.65-1.6l.04-1.61-.46-.79c-.55-.94.04-1.75,1.17-1.62l.4.05.64.08,2.8.38.82.11,1.59.21c.76.1,1.48.68,1.65,1.31"/>
      <path class="uuid-f6bb106c-2f50-4492-80cf-9d947aeb6639" d="M29.07,10.93c0,.39-.07.85-.08,1.37-.02.93-.1,1.99-.85,2.57-1.2.92-3.76.03-5.07-.27-.18-.04-.37-.08-.55-.13l-.06-.07c-.43-.52-.66-1.08-.65-1.6l.04-1.61-.46-.79c-.55-.94.04-1.75,1.17-1.62l.4.05.64.08,2.8.38c.49.07,1.45.01,1.86.21.68.32.81.8.8,1.42"/>
      <path class="uuid-b77f8ece-417b-4670-808d-66795955cea9" d="M27.22,9.41c-.06.52-.29.99-.56,1.42-.2.33-.45.65-.84.84-.39.19-.96.24-1.49.03-.43-.17-.78-.49-1-.82-.21-.33-.3-.68-.35-1.01-.05-.35-.06-.7-.02-1.03l.64.08,2.8.38.82.11Z"/>
      <path class="uuid-999b94e0-b6a2-4052-a964-bc54112aa03f" d="M27.84,4.71c0-1.39-.62-2.8-1.71-3.51-.98-.64-2.04-.79-2.99-.58-2.16.48-3.83,2.78-3.13,5.31.85,3.1,4.95,3.73,7.02,1.21.56-.68.82-1.55.82-2.43"/>
      <path class="uuid-f3230adb-0dfa-481d-b15c-128b1f68913a" d="M22.7,7.74s0,0,.01.01c0-.02,0-.04,0-.06,0,.02,0,.04-.02.05"/>
      <polygon class="uuid-b77f8ece-417b-4670-808d-66795955cea9" points="27.46 9.92 24.25 11.06 23.74 10.29 22.08 7.78 22.05 7.73 25.36 7.73 25.33 6.79 27.46 9.92"/>
      <path class="uuid-f3230adb-0dfa-481d-b15c-128b1f68913a" d="M25.14,6.22s0,0,.01.01c0-.02,0-.04,0-.06,0,.02,0,.04-.02.05"/>
      <polygon class="uuid-b77f8ece-417b-4670-808d-66795955cea9" points="25.33 7.01 23.74 10.29 22.08 7.78 22.19 7.73 25.36 7.73 25.33 7.01"/>
      <path class="uuid-999b94e0-b6a2-4052-a964-bc54112aa03f" d="M24.37,6.61c-1.49-.74-2.54-2.07-2.51-3.51l-.22.77c-.42-.7.13-1.62.96-2.07.83-.45,1.86-.55,2.84-.6"/>
      <path class="uuid-b77f8ece-417b-4670-808d-66795955cea9" d="M25.24,6.02c-.52-.24-1.03-.55-1.53-.94-.38-.3-.72-.63-1.05-.98-.71.26-1.45.46-2.2.57-.27.04-.48.28-.49.56h0c-.01.35-.02.7-.01,1.06.03.85.17,1.68.65,2.3.53.69,1.38.97,2.19.99.45.01.91-.31,1.31-.56.75-.46,1.1-1.2,1.29-2.14.01-.07.02-.13.03-.2-.03-.03-.05-.06-.06-.1-.04-.19-.08-.38-.14-.57"/>
      <path class="uuid-b77f8ece-417b-4670-808d-66795955cea9" d="M24.66,7.08c.06.05.13.05.19.02,0-.02,0-.05.01-.07l-.21.05Z"/>
      <path class="uuid-b77f8ece-417b-4670-808d-66795955cea9" d="M26.01,5.7c-.3-.1-.6.23-.73.62-.07.19-.11.41-.2.58-.05.09-.13.17-.22.2-.09.3.09.68.33.76.26.09.52-.08.73-.3.23-.23.43-.55.47-.93.05-.38-.11-.83-.38-.92"/>
      <path class="uuid-f3230adb-0dfa-481d-b15c-128b1f68913a" d="M14.13,32.56s-.1,0-.14-.02c-.34-.08-.55-.42-.47-.75l1.42-6.07c.08-.34.42-.55.75-.47.34.08.55.42.47.75l-1.42,6.07c-.07.29-.33.48-.61.48"/>
      <path class="uuid-f3230adb-0dfa-481d-b15c-128b1f68913a" d="M20.6,31.09s-.03,0-.04,0c-.23-.02-.4-.22-.38-.45l.12-1.33c.04-.41-.17-.8-.52-1l-8.82-5.12c-.31-.18-.7-.19-1.02-.02-.32.17-.53.49-.56.85v.05c-.02.23-.22.4-.45.38-.23-.02-.4-.22-.39-.45v-.05c.05-.65.43-1.22,1.01-1.53.58-.3,1.26-.29,1.83.04l8.82,5.12c.63.37,1,1.08.93,1.81l-.12,1.33c-.02.22-.2.38-.42.38"/>
      <path class="uuid-1c747fd5-4a8a-456e-ab9f-b48c21330b8c" d="M30.27,11.28l-2.59,8.94c-.25.88-.76,1.64-1.47,2.21l-5.12,4.11-.43.35-.91,1.4c-.24.37-.64.57-1.05.57-.23,0-.47-.06-.68-.2-.58-.38-.75-1.15-.37-1.73l1.02-1.57c.07-.11.16-.21.27-.29l.33-.26,5.37-4.32c.31-.25.53-.58.64-.95l2.59-8.94c.19-.67.89-1.05,1.55-.86.67.19,1.05.89.86,1.55"/>
      <path class="uuid-f6bb106c-2f50-4492-80cf-9d947aeb6639" d="M29.16,41.95c-.15-.71-.51-1.19-1.01-1.35s-1.06.03-1.6.52c-1.1,1.01-1.74,3.01-1.42,4.47.15.71.51,1.19,1,1.35.12.04.23.05.36.05.4,0,.83-.2,1.24-.57,1.1-1,1.74-3.01,1.43-4.46"/>
      <path class="uuid-1c747fd5-4a8a-456e-ab9f-b48c21330b8c" d="M30.86,44.93s-.05,0-.08,0l-3.32-.53c-.28-.05-.48-.31-.43-.6.04-.28.31-.48.6-.43l3.32.53c.28.05.48.31.43.6-.04.26-.26.44-.52.44"/>
      <path class="uuid-b77f8ece-417b-4670-808d-66795955cea9" d="M13.71,22.48l-.54.34-1.15,1.34c-.25.29-.6.44-.95.44-.29,0-.58-.1-.82-.31-.52-.45-.58-1.24-.13-1.77l1.28-1.48s.07-.08.11-.11c.96-.02,1.92.64,2.21,1.55"/>
      <path class="uuid-b77f8ece-417b-4670-808d-66795955cea9" d="M21.09,26.55l-.43.35-.91,1.4c-.24.37-.64.57-1.05.57-.23,0-.47-.06-.68-.2-.58-.38-.75-1.15-.37-1.73l1.02-1.57c.07-.11.16-.21.27-.29l.33-.26c.88.17,1.67.86,1.83,1.75"/>
      <path class="uuid-991b8435-5a85-4eb3-90df-0dc460f9490f" d="M8.53,52.76c-.17,0-.34-.11-.39-.28-.08-.22.04-.46.26-.53.21-.07.36-.11.46-.14.23-.06.28-.08.71-.4.54-2.84,1.43-6.13,2.29-9.31.84-3.1,1.71-6.3,2.23-9.03,0-.03.01-.06.02-.1,0,0,0,0,0-.01.02-.1.07-.18.15-.24.02-.02.04-.03.06-.04.08-.04.17-.06.27-.05,0,0,.02,0,.03,0,.06.02.12.04.17.08.32.25.21.74.1.93-.02.05-.05.08-.08.12-.53,2.63-1.35,5.63-2.14,8.54-.88,3.23-1.78,6.56-2.31,9.41-.02.1-.08.19-.16.26-.62.47-.75.53-1.12.63-.1.03-.23.06-.41.13-.05.02-.09.02-.14.02"/>
      <path class="uuid-999b94e0-b6a2-4052-a964-bc54112aa03f" d="M22.66,4.09s.91,2.09,2.62,2.23l1.87-2.48-4.49.25Z"/>
      <path class="uuid-e35f424d-fa9b-4271-aada-72bbdaa4583e" d="M27.99,3.67s.45-2.66-3.68-3.59c-2.88-.65-5.34,2.75-5.34,4.34l6.43.63s1.28.08,1.36.64c.08.56-.24,2.15-.24,2.15l1.05-.91.42-3.26Z"/>
      <polyline class="uuid-b59e2962-d53d-4826-bc7c-61ae17649527" points="24.97 4.85 24.91 8.14 26.78 7.23"/>
      <path class="uuid-b59e2962-d53d-4826-bc7c-61ae17649527" d="M22.44,9.55s1.18.33,2.47-1.42"/>
    </g>
  </g>
</svg>