<?xml version="1.0" encoding="UTF-8"?>
<svg id="Calque_2" xmlns="http://www.w3.org/2000/svg" viewBox="0 0 16.97 43.07">
  <defs>
    <style>
      .cls-1 {
        fill: #f3aac6;
      }

      .cls-2 {
        fill: #356893;
      }

      .cls-3 {
        fill: #e53b11;
      }
    </style>
  </defs>
  <g id="_Éléments_Mise_en_page" data-name="Éléments_Mise_en_page">
    <g>
      <path class="cls-1" d="M16.94,12.89c-.08-1.57-.18-3.03-.46-4.68-.13.67-.3.91-.72,1.44-.1.13-.33.26-.38.41-.05.14-.26.29-.26.43l.26,5.09c0-.07,0,0,.03-.04.17-.24.75-.35,1-.56.02-.02.04-.03.05-.05.55-.62.52-1.24.48-2.04"/>
      <path class="cls-1" d="M13.68,29.82l-1.14.1c-.13,0-.28.04-.47.13-.47.22-.77.71-.75,1.25.1,2.6.17,5.21.53,7.78.09.63.29.87.51.87v.08c.11,0,.23-.08.34-.24.33-.27.26-.09.38-.57.26-1.08.59-2.94.63-4.05.08-2.26.74-3.24-.04-5.35"/>
      <path class="cls-1" d="M13.56,22.04c-.42-.1-.8-.05-1.13.13l-.45-.29c-.19.42-.35.85-.49,1.29-.52.93-.73,2.26-.61,3.34-.06,1.14.02,2.25.2,3.38.05.33.11.67.25.97.15.3.4.57.73.65.42.1.86-.14,1.13-.49.26-.34.38-.77.49-1.19.43-1.65.76-3.32,1.02-5.01.18-1.16.3-2.41-1.15-2.77"/>
      <path class="cls-1" d="M10.55,25.86c.11-1.17.38-2.9-.03-3.63-.61-1.07-2.5-1.04-3.31-.19-.6.63-.7,2.55-.7,3.4,0,2.31.07,4.62.04,6.93,0,.6.43,1.09,1.05,1.07.86-.03.97-.27,1.35-.94.6-1.07,1.22-3.51,1.37-4.7.06-.5.17-1.2.23-1.93"/>
      <path class="cls-1" d="M8.76,31.86c-.27-.83-1.32-1.1-1.81-.3-.61.98-.52,2.29-.46,3.41.11,2.31.25,4.32.75,6.57.04.2.04,1.04.17,1.15.26.2.66.09.72-.27.56-3.49,1.78-7.04.63-10.55"/>
      <path class="cls-1" d="M12.25,3s0-.04-.01-.05c-.39-.97-.57-2.21-1.73-2.35-.34-.04-.6.22-.73.53-.36.89-.64,2.02-.01,2.87.24.33.72.42.72.42v2.18h2.68l-.83-3.59h-.09Z"/>
      <path class="cls-2" d="M15.55,18.42c-.23-1.39,0-.05,0-.08-.06-.04-.05-.5-.13-2.32-.05-1.08-.21-3.94-.21-3.94,0-.14.22-.34.26-.48.06-.17.28-.34.38-.49.53-.79.9-2,.84-2.42.01-.16-.06-.63-.12-.81-.84-2.59-4.48-3.45-7.04-1.61-.54.39-1.12.67-1.64,1.13-.56.49-.94.99-1.2,1.49-.02.03-.04.06-.06.09-.42.73-.53,1.53-.65,2.3-.02.15,0,.29.07.4.04.21.12.4.26.58.03.04.06.07.1.11.07.4.16.8.25,1.2.16.77.03,1.63-.1,2.47-.32,2.14-.56,4.29-.73,6.42-.11,1.43-.93,5.13-.18,6.21.87,1.25,3.52,2,5.97,1.16,1.39-.48,2.72-1.49,3.5-1.86.86-.41,1.23-1.78,1.15-2.47-.27-2.33-.34-4.76-.72-7.07"/>
      <path class="cls-3" d="M13.09,39.22c.04.29.07.59.09.88.02.22.02.45-.09.63-.11.19-.38.29-.55.16-.07-.05-.11-.14-.17-.19-.17-.13-.42-.02-.61.09-.29.16-.6.28-.92.36-.23.06-.57,0-.55-.23.01-.1.09-.17.16-.23.54-.44,1.08-.87,1.64-1.28.16-.12.33-.24.52-.26.2-.03.42.08.46.28l.02-.21Z"/>
      <path class="cls-3" d="M8.3,41.11c.04.29.07.59.09.88.02.22.02.45-.09.63-.11.19-.38.29-.55.16-.07-.05-.11-.14-.17-.19-.17-.13-.42-.02-.61.09-.29.16-.6.28-.92.36-.23.06-.57,0-.55-.23.01-.1.09-.17.16-.23.54-.44,1.08-.87,1.64-1.28.16-.12.33-.24.52-.26.2-.03.42.08.46.28l.02-.21Z"/>
      <path class="cls-1" d="M6.11,11.49s-.03.06-.04.09c-.64,1.72-.99,3.53-1.35,5.33-.06.33-.09.75.2.91.3.17.66-.1.88-.36,1.01-1.15,1.72-2.55,2.08-4.03.05-.21.19-.66.29-1.15-.63-.38-1.36-.65-2.06-.78"/>
      <path class="cls-1" d="M6.52,16.6c.2-.32.33-.66.34-.99.04-.87-.39-1.31-1.19-.96-1.15.5-1.7,1.8-2.55,2.65-.36.36-.77.81-1.18,1.1-.48.34-1.19.27-1.61.64-.91.78.29.99.94.81.82-.22,1.61-.62,2.39-.94.87-.36,2.23-1.28,2.86-2.31"/>
      <path class="cls-3" d="M14.49,6.15c-.32-.81-.85-1.52-1.16-2.33-.33-.88.08-2.03-.44-2.82C12.24,0,10.2-.55,9.63.82c-.2.47.11,1.78.59,2.02.31.15.27-.22.48-.16.8.2-.28,1.02-.4,1.24-.15.28-.18.56-.18.88-.01.65.16,1.28.2,1.92.12,1.94-.29,3.83.34,5.74.4,1.21,2.48,4.36,3.43,1.59.25-.73-.09-1.71.02-2.46.21-1.58.92-2.98.61-4.65-.05-.27-.13-.53-.23-.78"/>
    </g>
  </g>
</svg>