<?xml version="1.0" encoding="UTF-8"?>
<svg id="Calque_2" xmlns="http://www.w3.org/2000/svg" viewBox="0 0 33.66 71.59">
  <defs>
    <style>
      .cls-1 {
        fill: #fff;
      }

      .cls-2 {
        fill: #f4c900;
      }

      .cls-3 {
        fill: #ee9300;
      }

      .cls-4 {
        fill: #23397f;
      }

      .cls-5 {
        fill: #ffe1ac;
      }

      .cls-6 {
        fill: #243268;
      }

      .cls-7 {
        fill: #e84f0e;
      }

      .cls-8 {
        fill: #f7b900;
      }
    </style>
  </defs>
  <g id="_Éléments_Mise_en_page" data-name="Éléments_Mise_en_page">
    <g>
      <path class="cls-7" d="M25.75,13.67c.44,2.39,1.06,4.26,3.15,6.34,1.34,1.33,6.12,5.96,4.39,8.34-1.23,1.69-4.84-2.16-6.16-3.14-2.36-1.73-5.76-4.22-6.52-7.19-.06-.25.03-.64.22-1.11,1.7-.95,3.51-1.94,4.92-3.25"/>
      <path class="cls-8" d="M9.63,8.59c1.82-.45,3.61-1.02,5.32-1.8,2.16-.99,4.24-1.3,5.64-.79,2.4.87,4.2,2.38,4.67,4.7h0c.1.52.18,1.04.23,1.54l.38,2.5c-2.1.07-3.11,1.49-3.11,1.49v14.41c.34,1.45-.46,2.96-2.42,4.07-3.33,1.9-8.74,1.9-12.08,0-.51-.29-.94-.6-1.29-.94-.67-.64-1.07-1.35-1.18-2.07-.04-.28-.04-.55,0-.83v-3.38c-1.37-.15-.58,2.3-1.56,1.45,0,0-2.97-2.58-3.14-3.54-.81-1.09-1.1-4.12-1.1-5.59,0-5.96,4.05-9.85,9.63-11.23"/>
      <path class="cls-7" d="M15.92,61.13c.35-.28.93-.3,1.72.17.87.53,1.73,1.3,2.36,2.1.26.33,1.06,1.27.72,1.66-.72.84-3.51-.66-4.1-1.07-1.21-.83-1.37-2.32-.7-2.86"/>
      <path class="cls-7" d="M6.27,65.49c1.24-1.66,2.83,1.9,2.91,2.74.03.33.99,3.27.19,3.35-1.12.12-2.27-1.2-2.81-2.08-.48-.77-.93-3.16-.3-4.01"/>
      <path class="cls-4" d="M5.47,59.94c.09-.91.18-1.7.24-2.22.24-2.2.62-27.64-.04-27.63l14.01-.15v3.24c1.23-.17,2.19-.5,3.52-.9.21,2.04-.87,4.28-2.91,4.91,0,0-3.18.99-6.53,2.03-.01.15-.03.3-.04.45-.06.63-.12,1.27-.19,1.9-.01.12-.02.24-.04.37-.06.55-.12,1.1-.19,1.65-.01.06-.02.13-.02.19-.13,1.01-.59,5.54-.73,6.54-.04.3-.09.59-.14.89-.25,1.66-.52,3.32-.82,4.97-.8,4.51-1.46,5.67-2.31,9.97-.15.78.32,1.19-.62,1.74-4.1,2.42-3.34-6.31-3.18-7.96"/>
      <path class="cls-4" d="M15.56,52.62c.46-4.14.13-8.27.25-12.23.06-2.02.11-4,.09-5.18-.01-.49-.02-.97-.03-1.46,1.89-.06,3.64-.9,5.28-1.97.87-.15,1.73-.32,2.6-.48-.01.34-.02,1.02-.03,1.18-.04.7-.1,1.4-.17,2.09-.06.63-.12,1.27-.19,1.9-.01.12-.03.24-.04.37-.06.55-.12,1.1-.19,1.65-.01.06-.02.13-.03.19-.13,1.01-.58,5.54-.73,6.54-.04.29-.09.59-.14.88-.25,1.66-.52,3.32-.82,4.97-.8,4.51-1.46,5.67-2.31,9.98-.21,1.06.13,1.39-.9,1.85-3.76,1.7-3.08-6.18-2.9-8.07.09-.91.18-1.7.24-2.22"/>
      <path class="cls-7" d="M11.57,4.33c.39.05.86.22,1.09.27.19.04,2.75.56,2.75.51,0,.96,0,1.93,0,2.89,0,1.34-.24,1.85-1.86,1.8-.73-.02-1.22-.23-1.56-.54-.28-.27-.43-.67-.43-1.08v-3.84Z"/>
      <path class="cls-7" d="M17.27,4.8c-.12,1.49-1.61,2.24-3.09,2.12-.59-.05-1.12-.29-1.54-.64-.11-.1-.21-.2-.3-.31-.44-.52-.68-1.22-.62-1.96.09-1.08.8-1.96,1.75-2.31.16-.06.32-.1.48-.13h0c.22-.04.45-.05.67-.03.06,0,.11.01.17.02.47.07.9.26,1.26.53.7.54,1.3,1.76,1.22,2.71"/>
      <path class="cls-6" d="M15.17.74c-.95-.51-1.93-.99-2.98-.59-1.17.44-2.23,1.56-1.92,2.9.13.58.44,1.11.78,1.6.14.2.12,1.74.34,1.86.86.48,2.18-2.52,3-2.89.8-.36,2.81.1,3.07-.99.12-.52-.37-1-.87-1.19-.46-.17-.93-.44-1.41-.7"/>
      <path class="cls-6" d="M15.17,2.47s-.02,0-.03,0c-.05.04.01,0,.03,0"/>
      <path class="cls-7" d="M13.08,5.4c-.03.38-.37.67-.75.63-.38-.03-.67-.37-.63-.75.03-.38.37-.67.75-.63.38.03.66.37.63.75"/>
      <path class="cls-6" d="M13.4,3.02c.28.15.38.49.21.76l-.94,1.56-.07-1.82c-.02-.42.42-.69.79-.5"/>
      <path class="cls-6" d="M12.49,4.79c.13-.17.1-.38.15-.58.06-.21.14-.41.21-.62.13-.38.74-.45.84,0,.07.33,0,.57-.07.89-.06.31-.04.57-.22.85-.39.57-1.33,0-.92-.54"/>
      <path class="cls-6" d="M17.27,4.8c-.03-.2-.07-.4-.13-.59.54,1.71-3.23.96-3.59,1.4-.74.91.76,2.54,1.66,2.53,1.61-.02,2.23-2.07,2.06-3.34"/>
      <polygon class="cls-2" points="21.62 17.84 10.7 24.16 21.62 30.44 32.55 24.14 21.62 17.84"/>
      <polygon class="cls-1" points="17.36 20.29 14.94 21.71 25.87 27.99 28.29 26.6 17.36 20.29"/>
      <polygon class="cls-2" points="32.55 35.87 21.5 42.19 21.5 30.44 32.55 24.14 32.55 35.87"/>
      <polygon class="cls-5" points="28.29 29.02 25.87 30.44 25.87 27.99 28.29 26.6 28.29 29.02"/>
      <polygon class="cls-3" points="10.7 35.88 21.62 42.19 21.62 30.44 10.7 24.16 10.7 35.88"/>
      <path class="cls-7" d="M5.84,23.16l1.86,2.1,12.31,7.79c.69.18,1.27,1.11,1.25,2-.02.76-.46,1.26-1.05,1.17l-6.47-2.3-2.73-.97c-1.82-.65-3.62-1.62-5.34-2.87-.67-.49-1.32-1.03-1.96-1.6-1.47-3.67,2.13-5.33,2.13-5.33"/>
    </g>
  </g>
</svg>