<?xml version="1.0" encoding="UTF-8"?>
<svg id="Calque_2" xmlns="http://www.w3.org/2000/svg" viewBox="0 0 21.31 49.02">
  <defs>
    <style>
      .cls-1 {
        fill: #f08c8e;
      }

      .cls-2 {
        fill: #9fc5e9;
      }

      .cls-3 {
        fill: #f4a69c;
      }

      .cls-4 {
        fill: #f3a49c;
      }

      .cls-5 {
        fill: #e88a56;
      }

      .cls-6 {
        fill: #656da4;
      }

      .cls-7 {
        fill: #401e2e;
      }

      .cls-8 {
        fill: #efb871;
      }

      .cls-9 {
        fill: #f3a5a8;
      }

      .cls-10 {
        fill: #e2e4f4;
      }

      .cls-11 {
        fill: #7f8ec6;
      }
    </style>
  </defs>
  <g id="_Éléments_Mise_en_page" data-name="Éléments_Mise_en_page">
    <g>
      <path class="cls-10" d="M18.57,21.17s-.09,0-.12-.04c-.62-.88-1.81-1.9-2.7-2.08-.25-.05-.41-.04-.48.04-.14.16,0,.71.13,1.17.02.06-.02.12-.07.13-.06.02-.12-.01-.13-.07-.24-.8-.26-1.18-.08-1.37.16-.18.45-.15.67-.1.98.19,2.2,1.26,2.84,2.16.04.05.02.12-.02.15-.01,0-.02.01-.03.02"/>
      <polygon class="cls-8" points="18.96 33.03 11.03 29.72 12.12 19.86 19.32 22.39 18.96 33.03"/>
      <polygon class="cls-6" points="13.24 19.44 12.12 19.86 19.44 22.51 20.38 22.07 13.24 19.44"/>
      <polygon class="cls-5" points="20.32 22.1 21.31 31.36 18.91 33.06 19.26 22.52 20.32 22.1"/>
      <path class="cls-10" d="M17.67,22.11c-.07.01-.13-.03-.14-.09-.25-1.58-.91-2.68-1.71-2.87-.35-.09-.62.08-.79.23-.42.38-.63,1.12-.53,1.83,0,.06-.04.11-.09.12-.06,0-.11-.03-.12-.09-.11-.79.12-1.59.6-2.02.29-.26.64-.36.98-.28.9.22,1.6,1.36,1.87,3.05,0,.05-.02.1-.07.12"/>
      <path class="cls-9" d="M17.08,19.36c-.13-.1-.29-1.56-.44-1.83-.67-1.2-1.93,1.01-1.77,1.81.16.81,1.87.66,1.88.69,0,0-.05-.2-.11-.35-.05-.13-.2-.36-.2-.36.01-.08.07-.3.18-.32,0,0,.16.11.22.15.09.06.16.14.24.2"/>
      <path class="cls-1" d="M14.15,40.31l-.38,3.16v3.77c0,.08,0,.16-.04.23-.07.13-.24.14-.39.15-.82.03-1.65.05-2.47.08-.23,0-.52-.01-.63-.22.18-.1.35-.21.53-.32.41-.26.79-.56,1.15-.88.07-.06.15-.13.18-.22.03-.1.01-.2,0-.3-.06-.35-.12-.63-.16-.98l-.25-1.79-.11-.1.14.04c-.02-.12-.04-.24-.06-.35l2.5-2.24Z"/>
      <path class="cls-11" d="M14.03,42.96l.59-9.37,3.85-11.95-5.04,1.27-3.53,11.85,1.67,8.12c.73.38,1.64.33,2.46.09"/>
      <path class="cls-2" d="M17.6,19.09l-5.59-1.85c-.09.14-.08,1.01-1.14,3.32-1.01,2.2-1.68,6.31-2.06,9.44-.32,2.62.2,5.26,1.48,7.58.55,1,1.11,2,1.67,3,.39.69.84,1.35,1.25,2.03.27.45.41,1.26,1.06,1.91.61.61,2.05-.37,2.05-1.16,0-.23-.05-.28-.29-.82l-2.88-8.23c-.36-1.02-.4-2.12-.14-3.16.58-2.27,1.19-4.53,1.75-6.8.75-.24.93-.3,1.25-.49.46-.27.38-.26.85-.55.49-.3,1.29-1.54,1.35-2.14.07-.75-.37-1.35-.6-2.07"/>
      <path class="cls-11" d="M7.24,27.46c-.08.01-.12-.04-.12-.11.13-1.97-.27-3.37-1.04-3.66-.34-.12-.66.06-.86.23-.52.45-.92,1.35-1,2.24,0,.07-.07.14-.12.15-.06,0-.11-.05-.1-.12.08-.99.52-1.96,1.11-2.47.36-.31.74-.41,1.07-.28.87.32,1.3,1.78,1.16,3.89,0,.07-.05.13-.11.14"/>
      <path class="cls-8" d="M7.44,38.04L.21,33.94c-.16-.09-.23-.27-.19-.44l2.14-9.38,6.87,3.32-1.57,10.6Z"/>
      <polygon class="cls-6" points="3.31 23.83 2.15 24.12 9.12 27.58 9.68 28.83 10.11 27.25 3.31 23.83"/>
      <path class="cls-5" d="M10.2,27.15l-.21,9.07c0,.22-.13.42-.32.53l-2.26,1.25,1.58-10.47.65.45.57-.83Z"/>
      <path class="cls-10" d="M6.69,27.86c-.08.01-.12-.04-.11-.12.32-2.08.04-3.55-.73-3.84-.34-.13-.68.07-.91.26-.58.48-1.08,1.44-1.24,2.38-.01.08-.08.14-.14.15-.07,0-.11-.05-.09-.12.18-1.04.72-2.07,1.38-2.62.4-.33.8-.44,1.14-.32.87.32,1.18,1.85.83,4.07-.01.07-.07.14-.12.15"/>
      <path class="cls-9" d="M7.12,23.92c.22-.52.33-1.37.24-1.74-.31-1.22-2.19.76-2.27,1.54-.08.77,1.44.97,1.84.53.07-.08.13-.19.19-.32"/>
      <path class="cls-1" d="M13.58,1.47l.07.97.23,3.1.04.55.08,1.05h0l.07.92s.11.04.31.07c.19.03.45.05.79.01.71-.07,1.53-.69,1.54-.84,0-.15-.2-.68-.2-.68l-1.34-4.83c-.62-.12-.93-.49-1.61-.33"/>
      <path class="cls-3" d="M13.35,1.51l.21,1.36s0,0,.02-.01c0,.04.01.09.03.14.03.1.08.19.13.28.07.15.13.29.2.44.04.08.1.14.17.18-.15.11-.28.18-.28.18l.31.52c.41.33.91.53,1.43.57-.53.24-1.05.48-1.58.71l-.05-.23c-.94.16-1.31-.21-1.31-.21-.94-1.93.73-3.92.73-3.92"/>
      <path class="cls-7" d="M13.11,2.73s.04.04.07.06c0,0,0,0,0,0l-.07-.07Z"/>
      <path class="cls-6" d="M12.38.82c.37-.46,1.36-.31,1.9-.13.75.25,1.44.18,1.99.88.81,1.03-.2,2.1.03,3.17.04.2.14.4.08.6-.05.16-.21.27-.37.32-.37.11-.77-.02-1.07-.25-.3-.23-.53-.55-.75-.86-.23-.33-.74-.62-.74-1.06,0-.04,0-.07,0-.1-.07-.21-.14-.4-.27-.59l.36.32s0-.02.01-.02c-.13-.1-.26-.2-.38-.31-.02-.02-.03-.05-.05-.07-.3-.35-.68-.54-.78-1.06-.05-.29-.14-.62.04-.84"/>
      <path class="cls-6" d="M13.81,2.13c.05-.12.11-.24.19-.36,1.13-1.65,4.09-.04,3.7,1.7-.12.53-.66.87-.82,1.38-.12.39-.02.85-.27,1.17-.19.25-.55.32-.85.25-.3-.07-.56-.27-.79-.49-.85-.82-1.64-2.45-1.15-3.66"/>
      <path class="cls-3" d="M14.55,4.76c.26-.16.36-.48.24-.71s-.44-.28-.7-.12c-.26.16-.36.48-.24.71.13.23.44.28.7.12"/>
      <path class="cls-6" d="M19.95,1.94c-1.07,1.38-4.89,1.83-3.27-.63.8-1.22,3-2.1,3.51-.24.09.32-.05.61-.24.86"/>
      <path class="cls-11" d="M13.76,46.19v1.07c0,.08,0,.16-.04.23-.07.12-.24.14-.39.15-.83.02-1.65.05-2.47.07-.23,0-.52-.01-.63-.22.18-.1.35-.21.53-.32.97.08,1.89-.39,2.76-.87.08-.05.16-.09.25-.11"/>
      <path class="cls-9" d="M15.72,46.33c.25.47-.2-.6.03-.12l1.36-1.17-1.06-1.92c-.17-.4-.65-.56-1.03-.34l-.49.28c-.31.18-.42.58-.23.89.48.78,1.22,2.03,1.4,2.38"/>
      <path class="cls-9" d="M16.26,44.58c-.4.02-.66.49-.67.98-.01.49.16,1,.33,1.48.13.35.28.73.23,1.08-.02.15-.06.33.05.44.28-.06.36-.48.35-.84-.01-.98-.29-2.02-.14-2.95,0-.04.01-.08-.02-.11-.03-.03-.07.01-.04.04l-.09-.12Z"/>
      <path class="cls-11" d="M17.43,45.64c.17.67.17,1.42.27,2.1.03.21.07.42,0,.6-.05.16-.17.27-.29.36-.32.23-.71.33-1.11.32-.18,0-.36-.04-.53-.1-.15-.17-.08-.44.04-.59.12-.14.29-.25.34-.45,0-.02,0-.04,0-.06.02-.13-.01-.28-.04-.42-.04-.19-.08-.38-.12-.57-.15-.69-.14-1.39.04-2h0c.06-.08.14-.14.23-.17.54-.24.95.22,1.14.9,0,.02.01.04.02.06"/>
      <path class="cls-6" d="M17.43,45.64c.03.11.05.22.06.31,0,.01,0,.02,0,.04,0,0-.01.02-.01.03-.03.09-.02.2,0,.31l.22,1.42c.03.21.07.42,0,.6-.05.16-.17.27-.29.36-.31.22-.67.33-1.05.32-.02-.03-.01-.02-.03-.05-.02-.04.57-.47.39-1.31-.13-.61-.3-1.45-.31-2.03,0-.29.11-.58.33-.66.37-.14.58.28.68.67"/>
      <path class="cls-1" d="M14.94,20.66s0-.05,0-.08c.07-.41.12-.83.2-1.24.29-1.42.72-2.8,1.17-4.18.24-.73.59-2.31,1.74-1.71,1.17.61.04,2.61-.28,3.39-.11.28-.23.55-.34.83-.44,1.05-.87,2.06-1.39,3.07-.07.14-.15.28-.27.38-.37.28-.85-.02-.83-.45"/>
      <path class="cls-1" d="M17.01,14.26c-.43-1.66-.78-3.39-.89-5.09-.02-.39-.03-.8.11-1.16.23-.58.97-.82,1.54-.46.54.34.67,1.42.7,2.01.14,2.47.37,3.13.3,4.71-.03.67-.33,1.48-1.18,1.13-.39-.16-.49-.8-.58-1.14"/>
      <path class="cls-10" d="M10.44,20.32c-.08.54-.13,1.07-.12,1.61,1.21.82,2.71,1.15,4.17,1.07,1.11-.06,2.96-.32,3.84-1.07.75-.64.01-1.34-.23-2.11-.25-.77-.48-1.55-.72-2.32-.37-1.18-.42-1.99.03-3.15.63-1.64,1.39-4.43.49-6.72-.3-.77-4.36-.51-5.84.99-.25.26-.42.57-.55.9-.49,1.23-.41,2.58-.29,3.86.1,1.08.24,2.27.02,3.34-.24,1.19-.61,2.4-.8,3.6"/>
      <path class="cls-4" d="M6.48,22.26s.02-.05.04-.08c.22-.4.42-.8.66-1.19.81-1.35,1.75-2.62,2.71-3.88.5-.66,1.44-2.16,2.37-1.18.95,1-.91,2.68-1.52,3.36-.22.24-.43.49-.65.73-.82.93-1.63,1.81-2.52,2.67-.12.12-.25.24-.41.3-.47.17-.85-.29-.67-.73"/>
      <path class="cls-9" d="M12.66,16.44c.45-1.78.82-3.65.92-5.49.02-.43.03-.87-.12-1.27-.25-.63-1.02-.92-1.63-.54-.57.36-.7,1.52-.73,2.15-.14,2.67-.38,3.39-.3,5.1.03.73.36,1.61,1.25,1.26.41-.16.52-.85.61-1.22"/>
    </g>
  </g>
</svg>