<?xml version="1.0" encoding="UTF-8"?>
<svg xmlns="http://www.w3.org/2000/svg" xmlns:xlink="http://www.w3.org/1999/xlink" viewBox="0 0 27.95 61.64">
  <defs>
    <style>
      .cls-1 {
        fill: #b4d5f1;
      }

      .cls-2 {
        fill: #f4c900;
      }

      .cls-3 {
        mix-blend-mode: multiply;
        opacity: .71;
      }

      .cls-4 {
        fill: #2b3086;
      }

      .cls-5 {
        fill: none;
      }

      .cls-6 {
        fill: #4c5da6;
      }

      .cls-7 {
        clip-path: url(#clippath-1);
      }

      .cls-8 {
        isolation: isolate;
      }

      .cls-9 {
        fill: #466cb2;
      }

      .cls-10 {
        fill: #ef7f55;
      }

      .cls-11 {
        clip-path: url(#clippath);
      }

      .cls-12 {
        fill: #e9edf6;
      }
    </style>
    <clipPath id="clippath">
      <rect class="cls-5" x="13.97" y="7.32" width="2.99" height="4.08"/>
    </clipPath>
    <clipPath id="clippath-1">
      <rect class="cls-5" x="13.97" y="7.32" width="2.99" height="4.08"/>
    </clipPath>
  </defs>
  <g class="cls-8">
    <g id="Calque_2">
      <g id="_Éléments_Mise_en_page" data-name="Éléments_Mise_en_page">
        <g>
          <path class="cls-4" d="M7.1,58.64c.38.1.63.49.68.88.05.39-.06.78-.17,1.15-.09.33-.22.69-.52.86-.2.11-.43.11-.66.1-.42,0-.84-.01-1.26-.09-.47-.09-.92-.27-1.39-.33-.3-.04-.61-.02-.91-.04-.86-.04-1.7-.3-2.43-.75-.16-.1-.33-.22-.4-.39-.12-.29.05-.64.31-.81.26-.18.59-.23.9-.28.94-.14,1.89-.29,2.83-.43.93-.14,1.88-.28,2.79-.05.29.08.63.31.52.59l-.3-.4Z"/>
          <path class="cls-2" d="M12.95,11.47c-.93-.19-1.83.4-2.02,1.32l-2.45,9.27c-.3.75-5.25,11.34-5.35,11.58,0,.03-.02.05-.03.07-.27.32-.43.73-.45,1.18-.17.76.22,1.55.94,1.88.03.01.06.03.09.04.26.1.52.14.78.11.06,0,.12,0,.17,0,1.1,0,2-.88,2-1.97,0-.25-.05-.49-.14-.71.33-.62,3.14-5.94,3.6-7.07.82-2.02,1.52-3.76,1.63-4.05.03-.08.06-.17.08-.26l2.47-9.41c.19-.92-.41-1.81-1.33-2"/>
          <path class="cls-9" d="M13.35,9.92h0c-.38-.08-.78-.07-1.14.05-.82.27-1.39.91-1.56,1.7l-2.53,9.61c-.14.35-.91,2.02-1.82,3.98-.29.62-.26,1.35.12,1.92.33.5.79.92,1.3,1.2,0,0,.01,0,.02.01,1.03.55,2.32.08,2.81-.97.09-.19.16-.35.21-.47.46-1.14,1.55-3.83,1.7-4.22.04-.11.07-.22.1-.34l2.57-9.78v-.03c.26-1.22-.54-2.42-1.78-2.67"/>
          <path class="cls-12" d="M7.29,57.91c.38.1.63.49.68.88.05.39-.06.78-.17,1.15-.09.33-.22.69-.52.86-.2.11-.43.11-.66.1-.42,0-.84-.01-1.26-.09-.47-.09-.92-.27-1.39-.33-.3-.04-.61-.02-.91-.04-.86-.04-1.7-.3-2.43-.75-.16-.1-.33-.22-.4-.39-.12-.29.05-.64.31-.81.26-.18.59-.23.9-.28.94-.14,1.89-.29,2.83-.43.93-.14,1.88-.28,2.79-.05.29.08.63.31.52.59l-.3-.4Z"/>
          <path class="cls-2" d="M6.06,59.09l.08.02c.56.15,1.13-.18,1.28-.74l.45-1.69c.15-.55-.19-1.12-.75-1.26l-.08-.02c-.56-.15-1.13.18-1.28.74l-.45,1.68c-.15.55.19,1.12.74,1.26"/>
          <path class="cls-4" d="M24.05,57.6c-.16.3-.34.59-.5.89-.16.3-.33.6-.44.93-.18.48-.51,1.4-.09,1.83.63.65,1.64.09,2.15-.37.76-.68,1.46-1.42,2.1-2.21.28-.34.55-.7.63-1.13.26-1.31-.51-3.16-2.14-2.73-.59.16-.84.57-.99,1.1-.16.59-.43,1.14-.73,1.68"/>
          <path class="cls-12" d="M24.05,57.08c-.16.3-.34.59-.5.89-.16.3-.33.6-.44.93-.18.48-.51,1.4-.09,1.83.63.65,1.64.09,2.15-.37.76-.68,1.46-1.42,2.1-2.21.28-.34.55-.7.63-1.13.26-1.31-.51-3.16-2.14-2.73-.59.16-.84.57-.99,1.1-.16.59-.43,1.14-.73,1.68"/>
          <path class="cls-2" d="M26.68,56.55l.08-.04c.52-.25.74-.87.48-1.38l-.77-1.57c-.25-.51-.88-.73-1.4-.48l-.08.04c-.52.25-.74.87-.48,1.38l.77,1.57c.25.51.88.73,1.4.48"/>
          <path class="cls-4" d="M21.84,42.52l.8-11.58-2.19-5.19-5.49-1.88-4.64,4.46-5.2,11.74c-1.18,2.66-1.82,5.52-1.9,8.43l1.54,7.95c.09.59.57,1.04,1.17,1.08l.64.05c.77.06,1.41-.56,1.37-1.32l1.02-9.21c.09-.99.36-1.96.8-2.85l4.22-8.61c.12-.27.42-.4.7-.3.42.15,1.04.4,1.62.63.21.09.35.29.34.52l-.12,7.07c-.03,1.93.58,3.81,1.74,5.36l5.79,5.92c.75,1,3.52,2.1,3.52-.11l-5.18-9.15c-.44-.94-.64-1.97-.57-3"/>
          <path class="cls-9" d="M10.32,13.16v15.17l3.83,2.32c1.59.97,3.43,1.37,5.25,1.19.64-.07,1.27-.2,1.89-.42l1.35-.47-.5-16.82c-.03-.7-.31-1.36-.79-1.86-.18-.2-.39-.36-.63-.51l-1.21-.75-.34-.21c-.91-.63-2.68-1.28-4.27-1.47-.32-.04-.62-.06-.9-.06-.64,0-1.21.1-1.62.34-1.28.74-2.07,2.09-2.07,3.56"/>
          <path class="cls-9" d="M19.4,31.84c.64-.07,1.27-.2,1.89-.42l1.35-.47-.5-16.82c-.03-.7-.31-1.36-.79-1.86-.27.03-.53.07-.79.13-.08.02-.16.05-.22.09-.37.1-.72.24-.97.51-.6.62-.45,1.62-.16,2.42.29.81.69,1.66.46,2.48-.16.59-.62,1.07-.75,1.67-.25,1.27,1.11,4.45.98,5.75-.07.74-.62,1.33-.96,1.99-.73,1.43-.43,3.18.46,4.53"/>
          <path class="cls-9" d="M21.16,10.83c0-.22-.03-.44-.11-.65-.44-1.25-1.85-1.91-3.17-2.12-1.05-.17-2.15-.12-3.15.25-.8.3-1.94,1.01-2.21,1.88-.3.95.42,2.39.86,3.24.26.5.66,1.04,1.23,1.07.29.02.57-.1.83-.22,1.63-.73,3.23-1.5,4.81-2.33.26-.13.53-.28.7-.52.13-.18.19-.39.2-.61"/>
          <path class="cls-6" d="M18.28,11.23c0,.75-1.04,1.36-2.33,1.36s-2.33-.61-2.33-1.36,1.04-1.36,2.33-1.36,2.33.61,2.33,1.36"/>
          <path class="cls-2" d="M17.12,7.14v3.68c0,.78-.64,1.42-1.43,1.42h-.29c-.79,0-1.43-.63-1.43-1.42v-3.68h3.16Z"/>
          <g class="cls-3">
            <g class="cls-11">
              <g class="cls-7">
                <path class="cls-10" d="M14.09,11.41l1.03-1.46.19-.27,1.38-1.95.27-.4h-.24s-1.23.08-1.23.08c-.52.52-1.08,1.03-1.52,1.6l.12,2.4Z"/>
              </g>
            </g>
          </g>
          <path class="cls-2" d="M17.91,6.37c-.01.18-.23.33-.46.48-.08.05-.15.1-.22.16,0,0-.01,0-.02.01-.06.04-.11.08-.14.13-.06.06-.09.12-.11.18-.05.24-.13.46-.22.68-.3.7-.82,1.28-1.43,1.66-.14.08-.28.16-.42.22-.29.13-.6.22-.92.25-.12.01-.24.02-.37.01-.77-.01-1.54-.34-2.2-1.1-.35-.39-.55-.88-.65-1.4-.06-.3-.09-.62-.11-.93,0-.36,0-.72.01-1.07.02-.56.04-1.11.06-1.66,0-.23.02-.44.02-.67-.02-.1-.02-.21,0-.31.06-.28.27-.54.54-.67.4-.21.88-.2,1.33-.15.92.1,1.83.31,2.64.76.8.45,1.47,1.17,1.73,2.04.13.4.94.97.92,1.39"/>
          <path class="cls-1" d="M10.94,3.69c-.02-.15-.03-.3-.04-.44-.07-1.26.8-2.36,2.03-2.7,0,0,.01,0,.02,0,.64-.18,1.25-.49,1.91-.54.47-.03.94.07,1.39.21.72.22,1.31.58,1.75,1.07.48.54.76,1.24.83,2.08.06.79.03,5.74-1.67,5.16-.22-.08-.37-.27-.42-.49-.06-.28-.13-.58.02-.76.17-.2.55-.23.75-.48.18-.24.26-.57.14-.84-.12-.27-.46-.45-.74-.35-.4.15-.56.75-.99.78-.18.01-.36-.1-.46-.26-.31-.52-.07-1.51-.73-1.84-.43-.22-1.43-.02-1.91-.01-.63,0-1.27.01-1.86-.18,0-.13,0-.26-.02-.39"/>
          <path class="cls-2" d="M20.78,36.94c.72,0,1.38-.46,1.6-1.17l2.3-7.43c.46-1.49.5-3.08.1-4.6l-2.39-9.08c-.23-.88-1.15-1.42-2.04-1.19-.9.23-1.43,1.13-1.2,2.02l2.39,9.08c.24.92.22,1.88-.06,2.79l-2.3,7.43c-.27.87.23,1.8,1.11,2.07.16.05.33.07.49.07"/>
          <path class="cls-9" d="M23.73,30.36c-.75.05-1.5-.06-2.21-.29-.8-.26-1.22-1.12-.97-1.91l.32-1.02c.26-.83.28-1.71.06-2.55l-2.44-9.29c-.15-.58-.11-1.21.18-1.74.31-.58.84-.99,1.48-1.16,1.25-.32,2.53.43,2.86,1.66l2.46,9.36c.44,1.67.4,3.42-.11,5.07l-.24.77c-.19.61-.74,1.05-1.38,1.09"/>
          <polygon class="cls-4" points="18.79 31.8 22.05 36.28 19.59 40.96 18.5 36.43 18.79 31.8"/>
          <path class="cls-12" d="M18.24,33.9c-.13,0-.26-.03-.36-.12-.18-.14-.37-.29-.52-.49-.22-.29-.3-.65-.35-.92-.3-1.61.1-3.23.49-4.8.21-.85.43-1.74.54-2.61.24-2.01-.28-3.98-.78-5.89-.55-2.1-1.12-4.27-.72-6.54.04-.21.07-.41.11-.62.31-1.66.62-3.38.1-4.98l.24-.08c.54,1.67.22,3.41-.09,5.1-.04.21-.08.41-.11.62-.39,2.21.17,4.36.71,6.43.51,1.93,1.03,3.93.79,5.99-.11.89-.33,1.78-.54,2.64-.38,1.54-.78,3.14-.49,4.69.05.25.12.57.31.82.13.17.3.31.47.44.23.18.71-.06,1.18-.29.54-.27,1.1-.54,1.45-.26l-.16.2c-.23-.18-.71.06-1.18.29-.38.19-.77.38-1.09.38"/>
          <path class="cls-12" d="M17.24,6.8c0,.26-.21.47-.48.47s-.48-.21-.48-.47.21-.47.48-.47.48.21.48.47"/>
          <path class="cls-12" d="M16.76,7.4c-.33,0-.61-.27-.61-.6s.27-.6.61-.6.61.27.61.6-.27.6-.61.6M16.76,6.45c-.19,0-.35.16-.35.35s.16.35.35.35.35-.16.35-.35-.16-.35-.35-.35"/>
        </g>
      </g>
    </g>
  </g>
</svg>