<?xml version="1.0" encoding="UTF-8"?>
<svg xmlns="http://www.w3.org/2000/svg" xmlns:xlink="http://www.w3.org/1999/xlink" viewBox="0 0 45.32 61">
  <defs>
    <style>
      .uuid-3711e2ef-60a0-4d68-9a2e-a44cacf8332d {
        clip-path: url(#uuid-8128c0a2-511b-49e5-b415-cc55f9daf523);
      }

      .uuid-d1baa54e-ae98-48a2-b05f-43c1bbf7530c {
        fill: #c0823a;
      }

      .uuid-4f679e45-c1f4-484c-bd4b-c9bc096e73f2 {
        fill: url(#uuid-d45f36ba-94e9-4909-8278-4d9d45ad1348);
      }

      .uuid-60ede033-f10d-41a3-9395-bdcd525d4cca {
        clip-path: url(#uuid-601e21a0-afc7-4c67-8781-c5f25db959bb);
      }

      .uuid-017f7478-22d8-48ff-9f0c-7b5584e3f050 {
        clip-path: url(#uuid-7ab23907-b258-488a-b8c8-45f14a1dd34c);
      }

      .uuid-280b10e0-8cb9-4e86-be55-b863b012c246 {
        fill: #627fbe;
      }

      .uuid-88de1f69-b440-4573-8a8f-1ca5aa816756 {
        fill: #635f5b;
      }

      .uuid-0db4db1c-247c-4255-98a4-4bf1abfdbe8d {
        clip-path: url(#uuid-cec5a52d-050c-4e68-86eb-365df48774f5);
      }

      .uuid-de72213b-920f-4cb8-9c20-b7200fd91724 {
        fill: #7a92ca;
      }

      .uuid-9e2a3a8c-82e7-4165-8b52-959f0ff142ab {
        fill: #6c4e42;
      }

      .uuid-08717277-ef85-4de4-9d9a-976a25c315c9 {
        fill: #fff9f3;
      }

      .uuid-dd49d03f-80eb-4b61-8c01-7f46397b7b18 {
        fill: url(#uuid-02728cf6-2696-4634-a38e-e3a114e86c1b);
      }

      .uuid-0c2dc1d4-4baa-4fd1-b301-1ded1c596e56 {
        fill: #556fb3;
      }

      .uuid-3b6a00bc-1cae-4f14-86b6-a1e0f01d5ec4 {
        fill: #fff;
      }

      .uuid-5028959c-c22b-4640-ae2f-0dff3405bdee {
        clip-path: url(#uuid-8f495207-4e8c-479c-af40-5dd322767278);
      }

      .uuid-d64e529a-fd27-44ae-a8aa-0efacd3d0072 {
        fill: #e1e2e9;
      }

      .uuid-612a12dc-4b1a-4c3b-93a4-b3f0807e0505 {
        fill: #d93d3e;
      }

      .uuid-dc247d94-a46b-4a57-82a0-b6c73c096121 {
        fill: #797672;
      }

      .uuid-d2e1d863-e94b-4f62-bfb7-e05dc13203a4 {
        fill: none;
      }

      .uuid-29969d1b-0a0d-4e95-af79-f94e551c36b3 {
        fill: #464550;
      }

      .uuid-f4dd6190-936b-4b51-b8e3-044f54b0b020 {
        fill: #534c57;
      }

      .uuid-a07b55bf-9c82-490d-828b-7d02400aebc6 {
        fill: #e95659;
      }

      .uuid-383f5227-0ea5-4a39-85be-df1a6603da38 {
        fill: #c3b9c6;
      }

      .uuid-cecf32eb-fcc1-4239-b522-719a35dd919c {
        clip-path: url(#uuid-857be369-3835-4b76-af12-af673ea5674c);
      }

      .uuid-01f95726-79ea-49a9-8699-1e2a27786c32 {
        isolation: isolate;
      }

      .uuid-dc673def-379b-4fa7-8f14-6fc683f874b5 {
        fill: #dac3b2;
      }

      .uuid-c90496fc-859f-45dc-b49c-440c71443298 {
        clip-path: url(#uuid-bed531c9-5cc6-4bef-86c0-e81e9382480b);
      }

      .uuid-31ba1774-770a-42c3-a41e-896bc574e651 {
        fill: #342d38;
      }

      .uuid-6413280e-1f1f-4030-bdd7-4061887693ea {
        fill: #f3951b;
      }

      .uuid-df19a1ea-e43c-46cc-b296-1a2432af29d9 {
        clip-path: url(#uuid-67085df1-94eb-4712-998d-96958e7072e0);
      }

      .uuid-16f67074-6f7c-4ea3-90a3-ed5361008870 {
        fill: #f6bec0;
      }

      .uuid-2936ac1c-57fd-49af-9813-3c74daca19cf {
        fill: #a397a8;
      }

      .uuid-929373fe-c566-422f-9cf9-66311d151a28 {
        fill: #f3952d;
      }

      .uuid-870d4195-782a-4b42-a0b6-72bc4191e90b {
        fill: url(#uuid-18d97372-3017-40ef-a427-f605fde516ce);
      }

      .uuid-8603435f-96c7-44f0-8579-b404d8fb77b3 {
        fill: #7e4b41;
      }

      .uuid-4e5d332a-edee-4292-b0d6-6fd3f4b6ef58 {
        fill: #595963;
      }

      .uuid-ab226725-fd6c-41e4-9cf6-617207d0128b {
        fill: url(#uuid-ef02a6ba-07d2-4610-9101-a95c6cd0a824);
      }

      .uuid-8d33006b-6a39-4cbb-a9db-cebe389bb29e {
        fill: #79554b;
      }

      .uuid-b2a9e3d4-31e9-41f0-b42c-6ec1253ebcaa {
        mix-blend-mode: multiply;
      }

      .uuid-62b27a3c-5052-49a8-a32d-c9ebf8a4655e {
        fill: #4a424d;
      }

      .uuid-05c6ffe9-de2d-4f04-8e24-33d0c4cade14 {
        fill: #da582a;
      }

      .uuid-bc0130e2-7178-4454-a9c9-2b84f8a3a112 {
        fill: #404249;
      }

      .uuid-f1d1c908-0428-459e-9789-1f987e5795e8 {
        clip-path: url(#uuid-0d6c7e18-3500-4c9f-b2a0-8ab08b3a92ce);
      }

      .uuid-4795283d-b9d8-43fa-8d4a-c734bc8d6c39 {
        fill: url(#uuid-9da56195-a50a-4aab-a1e0-238ab5903203);
      }

      .uuid-631c8e19-bd01-4843-9a94-ba2c3093cc62 {
        clip-path: url(#uuid-7017565b-aaab-4e76-b679-9495dada19a3);
      }

      .uuid-3064f730-42d2-45bd-8b6d-d673943fb83a {
        clip-path: url(#uuid-8e430f4d-cae6-49d1-8963-717ade5482ed);
      }

      .uuid-47e830e1-95ac-415b-901c-7ff7c946bf88 {
        fill: #4071b6;
      }

      .uuid-8c0641bb-410a-48c6-bfe8-e987629aceef {
        clip-path: url(#uuid-0e07d79e-e3a9-40b1-823e-2f24ba6bd3ec);
      }

      .uuid-8653da36-eb36-4016-aa12-9fed3c806569 {
        clip-path: url(#uuid-7dd39fdb-013d-4117-a2d2-4d49550770bd);
      }

      .uuid-3b3318d3-cbf6-4599-84dc-ae98eaf59fb5 {
        fill: #484b4f;
      }

      .uuid-6273bfea-588d-4eda-bbd2-b00f7a5d5649 {
        clip-path: url(#uuid-bf55382d-be44-4869-a000-ce08fe90cdb6);
      }

      .uuid-97858391-c2ec-4df0-888e-574578d9d0c5 {
        fill: #96928f;
      }

      .uuid-b9d9300f-3861-4bc8-ac22-cec4e25e7691 {
        clip-path: url(#uuid-9dabcaa4-5bde-4193-a878-85e28bcdee97);
      }

      .uuid-e0224cfd-9249-4443-b24b-6441f26f3f39 {
        clip-path: url(#uuid-ba799b74-8a9f-459b-90d3-b3e7780db0ed);
      }

      .uuid-f0a86c4c-3333-4844-bfaa-be98e8818db8 {
        fill: #4c6cb2;
      }

      .uuid-99fb2241-65b5-4964-a72a-624483f5e7c4 {
        fill: #585453;
      }

      .uuid-6fbbcc0e-5d1a-4d9d-9647-4bb69f08125b {
        clip-path: url(#uuid-c5c12b28-9479-40df-bd6c-55345405b89a);
      }
    </style>
    <clipPath id="uuid-8128c0a2-511b-49e5-b415-cc55f9daf523">
      <path class="uuid-d2e1d863-e94b-4f62-bfb7-e05dc13203a4" d="M8.67,41.51c0,.07.27.81,0,1.61-.27.8,1.18.74,1.72.74s1.03.05.89-.36c-.13-.4-.65-1.03-.65-1.36v-2.43l-1.96,1.81Z"/>
    </clipPath>
    <linearGradient id="uuid-ef02a6ba-07d2-4610-9101-a95c6cd0a824" data-name="Dégradé sans nom 10" x1="-348.94" y1="477.56" x2="-347.47" y2="477.56" gradientTransform="translate(641.43 907.86) scale(1.81 -1.81)" gradientUnits="userSpaceOnUse">
      <stop offset="0" stop-color="#f6bec0"/>
      <stop offset=".05" stop-color="#f6bec0"/>
      <stop offset=".99" stop-color="#f4a8ab"/>
      <stop offset="1" stop-color="#f4a8ab"/>
    </linearGradient>
    <clipPath id="uuid-67085df1-94eb-4712-998d-96958e7072e0">
      <rect class="uuid-d2e1d863-e94b-4f62-bfb7-e05dc13203a4" x="10.28" y="22.64" width="5.54" height="19.27"/>
    </clipPath>
    <clipPath id="uuid-7ab23907-b258-488a-b8c8-45f14a1dd34c">
      <rect class="uuid-d2e1d863-e94b-4f62-bfb7-e05dc13203a4" x="10.28" y="22.64" width="5.54" height="19.27"/>
    </clipPath>
    <clipPath id="uuid-bed531c9-5cc6-4bef-86c0-e81e9382480b">
      <path class="uuid-d2e1d863-e94b-4f62-bfb7-e05dc13203a4" d="M19.79,38.65c-.08.58-.18,1.67-.4,2.13-.22.46-.42.84-.49,1.03-.07.19.12.55.84.58.72.04,1.36-.05,1.66-.07.12,0,.21.01.29.03.12.03.2.05.32,0,.19-.1.03-.53-.17-.76-.2-.22-.23-.85-.23-.85l.46-2.34-2.29.25Z"/>
    </clipPath>
    <linearGradient id="uuid-d45f36ba-94e9-4909-8278-4d9d45ad1348" data-name="Dégradé sans nom 10" x1="-340.74" y1="463.45" x2="-339.27" y2="463.45" gradientTransform="translate(841.49 1159.45) scale(2.41 -2.41)" xlink:href="#uuid-ef02a6ba-07d2-4610-9101-a95c6cd0a824"/>
    <clipPath id="uuid-cec5a52d-050c-4e68-86eb-365df48774f5">
      <rect class="uuid-d2e1d863-e94b-4f62-bfb7-e05dc13203a4" x="14.34" y="25.49" width="7.63" height="13.99"/>
    </clipPath>
    <clipPath id="uuid-9dabcaa4-5bde-4193-a878-85e28bcdee97">
      <rect class="uuid-d2e1d863-e94b-4f62-bfb7-e05dc13203a4" x="14.34" y="25.49" width="7.63" height="13.99"/>
    </clipPath>
    <clipPath id="uuid-0d6c7e18-3500-4c9f-b2a0-8ab08b3a92ce">
      <rect class="uuid-d2e1d863-e94b-4f62-bfb7-e05dc13203a4" x="25.45" y="7.81" width="1.64" height="1.79"/>
    </clipPath>
    <clipPath id="uuid-8f495207-4e8c-479c-af40-5dd322767278">
      <rect class="uuid-d2e1d863-e94b-4f62-bfb7-e05dc13203a4" x="25.45" y="7.82" width="1.64" height="1.79"/>
    </clipPath>
    <clipPath id="uuid-857be369-3835-4b76-af12-af673ea5674c">
      <rect class="uuid-d2e1d863-e94b-4f62-bfb7-e05dc13203a4" x="21.63" y="12.67" width="5.13" height="7.84"/>
    </clipPath>
    <clipPath id="uuid-bf55382d-be44-4869-a000-ce08fe90cdb6">
      <rect class="uuid-d2e1d863-e94b-4f62-bfb7-e05dc13203a4" x="21.63" y="12.67" width="5.12" height="7.84"/>
    </clipPath>
    <clipPath id="uuid-7dd39fdb-013d-4117-a2d2-4d49550770bd">
      <path class="uuid-d2e1d863-e94b-4f62-bfb7-e05dc13203a4" d="M28.19,2.95c-.65.01-4.75,1.38-5.16,3.01-.41,1.62-.6,1.93-.82,2.28-.19.3,2.53,1.11,3.24,1.32.11.03.17.05.17.05.04-.4.36-1.01.45-1.1.05-.05.26-.04.49-.03.18,0,.38.02.53,0,.02,0,.03,0,.05,0,.34-.06.45-.22.45-.22,0,0,.65-1.24.83-1.85.18-.61.29-1.82.29-1.82,0,0,.13-1.62-.51-1.62h-.01"/>
    </clipPath>
    <linearGradient id="uuid-02728cf6-2696-4634-a38e-e3a114e86c1b" data-name="Dégradé sans nom 10" x1="-343.14" y1="445.53" x2="-341.67" y2="445.53" gradientTransform="translate(1543.16 1981.09) scale(4.43 -4.43)" xlink:href="#uuid-ef02a6ba-07d2-4610-9101-a95c6cd0a824"/>
    <clipPath id="uuid-ba799b74-8a9f-459b-90d3-b3e7780db0ed">
      <rect class="uuid-d2e1d863-e94b-4f62-bfb7-e05dc13203a4" x="16.17" y="7.26" width="6.78" height="10.21"/>
    </clipPath>
    <clipPath id="uuid-8e430f4d-cae6-49d1-8963-717ade5482ed">
      <rect class="uuid-d2e1d863-e94b-4f62-bfb7-e05dc13203a4" x="16.17" y="7.26" width="6.78" height="10.21"/>
    </clipPath>
    <clipPath id="uuid-7017565b-aaab-4e76-b679-9495dada19a3">
      <path class="uuid-d2e1d863-e94b-4f62-bfb7-e05dc13203a4" d="M26,13.83c-.08.05-.13.08-.13.08-.21.3-.49.58-.21,1.06.28.49,2.13,3.66,2.8,4.55.67.89,1.22,1.28,1.76,1.52.54.24,1.16-.05,1.45-.14.29-.08,1.44-.43,1.86-.61.42-.18.89-.37,1.22-.51s.95-.19.95-.19l.5.18s.52-.11.64-.22c.07-.07.11-.24.12-.36.01-.09.02-.15.02-.15,0,0-.39-.71-.42-.75-.03-.04-.56-.46-.75-.55-.19-.09-.28-.15-.49-.1-.21.04-.54.31-.66.38-.12.07-.46.49-.57.52-.12.03-.68.2-1.4.12-.71-.08-1.36-.15-1.5-.26-.14-.12-.97-1.32-1.32-1.99-.35-.67-.66-1.43-.69-1.99-.03-.56-.34-1.59-.66-1.82-.02-.02-.05-.02-.09-.02-.46,0-1.96.96-2.42,1.26"/>
    </clipPath>
    <linearGradient id="uuid-18d97372-3017-40ef-a427-f605fde516ce" data-name="Dégradé sans nom 10" x1="-341.99" y1="433.69" x2="-340.51" y2="433.69" gradientTransform="translate(2682.71 3386.62) scale(7.77 -7.77)" xlink:href="#uuid-ef02a6ba-07d2-4610-9101-a95c6cd0a824"/>
    <clipPath id="uuid-601e21a0-afc7-4c67-8781-c5f25db959bb">
      <rect class="uuid-d2e1d863-e94b-4f62-bfb7-e05dc13203a4" x="25.54" y="13.83" width="11.41" height="7.3"/>
    </clipPath>
    <clipPath id="uuid-c5c12b28-9479-40df-bd6c-55345405b89a">
      <rect class="uuid-d2e1d863-e94b-4f62-bfb7-e05dc13203a4" x="25.54" y="13.83" width="11.41" height="7.3"/>
    </clipPath>
    <clipPath id="uuid-0e07d79e-e3a9-40b1-823e-2f24ba6bd3ec">
      <path class="uuid-d2e1d863-e94b-4f62-bfb7-e05dc13203a4" d="M26.91,5.15c-.09.04-.15.12-.19.21-.06.12-.09.26-.1.4-.02.26.02.52.13.76.04.09.11.18.21.18.09,0,.15-.1.18-.19.07-.18.05-.36.06-.55,0-.13.05-.25.07-.38.02-.17-.05-.44-.24-.44-.03,0-.07,0-.11.02"/>
    </clipPath>
    <linearGradient id="uuid-9da56195-a50a-4aab-a1e0-238ab5903203" data-name="Dégradé sans nom 10" x1="-361.18" y1="683.77" x2="-359.71" y2="683.77" gradientTransform="translate(187.17 309.9) scale(.44 -.44)" xlink:href="#uuid-ef02a6ba-07d2-4610-9101-a95c6cd0a824"/>
  </defs>
  <g class="uuid-01f95726-79ea-49a9-8699-1e2a27786c32">
    <g id="uuid-d205c4c0-9cc9-455a-958b-4b1c5f66e795" data-name="Calque_2">
      <g id="uuid-1482285a-4f4b-4120-9a96-f8e8ff4b04bd" data-name="Les_personnages">
        <g id="uuid-bb04ac8d-3337-4de0-b26d-7bebe9630908" data-name="Chara_x5F_VeloArret_x5F_HD">
          <path class="uuid-05c6ffe9-de2d-4f04-8e24-33d0c4cade14" d="M3.46,53.09c-.3.1-.46-.35-.35-1.01.11-.66.45-1.27.75-1.37.3-.1.46.35.35,1.01-.11.66-.45,1.27-.75,1.37"/>
          <path class="uuid-929373fe-c566-422f-9cf9-66311d151a28" d="M3.58,53.16c-.3.1-.46-.35-.35-1.01.11-.66.45-1.27.75-1.37.3-.1.46.35.35,1.01-.11.66-.45,1.27-.75,1.37"/>
          <g>
            <path class="uuid-3b6a00bc-1cae-4f14-86b6-a1e0f01d5ec4" d="M28.38,42.11c-.78.42-1.07,1.27-.65,1.89.42.62,1.4.78,2.18.35.78-.42,1.07-1.27.65-1.89-.42-.62-1.4-.78-2.18-.35"/>
            <path class="uuid-3b6a00bc-1cae-4f14-86b6-a1e0f01d5ec4" d="M17.23,43.62c-1.33.72-1.83,2.16-1.11,3.22.72,1.06,2.38,1.33,3.71.6,1.33-.72,1.82-2.16,1.11-3.22-.72-1.06-2.38-1.33-3.71-.6"/>
            <polygon class="uuid-4e5d332a-edee-4292-b0d6-6fd3f4b6ef58" points="16.95 46.18 14.37 48.85 11.42 47.15 11.42 45.97 14 44.48 16.95 46.18"/>
            <polygon class="uuid-29969d1b-0a0d-4e95-af79-f94e551c36b3" points="16.95 47.37 14.37 48.85 14.37 47.67 16.95 46.18 16.95 47.37"/>
            <polygon class="uuid-88de1f69-b440-4573-8a8f-1ca5aa816756" points="16.71 48.81 18.78 44.92 17.94 44.32 15.87 48.21 16.71 48.81"/>
            <path class="uuid-bc0130e2-7178-4454-a9c9-2b84f8a3a112" d="M8.22,45.21c-.11.12-.28.48-.28.48l.05.57s.64.38,1.17.32c.54-.06,1.22-.29,1.22-.29l.31-.27s.83-.03,1.2-.06c.37-.03.98-.2,1.42-.51.44-.31.45-.52.5-.61.06-.09-.13-.35-.26-.38-.12-.02-5.32.76-5.32.76"/>
            <path class="uuid-d64e529a-fd27-44ae-a8aa-0efacd3d0072" d="M10.89,43.3c.51.17.98.56.98.56,0,0,.98.17,1.21.23.22.06.51.38.57.52.06.13-.1.52-.21.59-.11.07-.66.47-1.35.36-.69-.11-1.64.09-1.93.13-.29.04-1.23.5-1.71.26-.48-.24-.46-.35-.46-.35,0,0-.13-1.07.05-1.56.18-.49.41-.96.41-.96l2.44.22Z"/>
            <g class="uuid-3711e2ef-60a0-4d68-9a2e-a44cacf8332d">
              <rect class="uuid-ab226725-fd6c-41e4-9cf6-617207d0128b" x="8.4" y="39.71" width="3.01" height="4.22"/>
            </g>
            <path class="uuid-0c2dc1d4-4baa-4fd1-b301-1ded1c596e56" d="M19.07,16.65c-.39,1.12-2.47,4.37-3.25,5.99-.12.25-.21.46-.26.62-.36,1.18-1.14,5.02-1.49,6.41-.36,1.39-1.45,4.11-1.94,5.63-.49,1.52-1.18,5.49-1.27,5.8-.07.23-.27.59-.57.82-.11.08-.23.15-.36.19-.49.13-1.85-.04-1.92-.38-.07-.34.13-3.28.18-4.51.05-1.23.67-3.71,1.03-4.89.36-1.18.91-5.09,1-5.98s-.09-1.63.31-3.88c.4-2.25,1.56-3.12,2.43-4.35.87-1.23,2.61-2.21,2.61-2.21,0,0,3.95-.54,3.51.76"/>
            <path class="uuid-280b10e0-8cb9-4e86-be55-b863b012c246" d="M11.3,20.67c-.51,1.25-.46,2.81.45,3.8.29.31.69.56,1.11.49.17-.03.33-.12.49-.21,1.69-1.02,2.81-2.91,2.89-4.88.02-.43-.02-.88-.22-1.26-.27-.5-.81-.82-1.31-1.06-.6-.28-.76-.18-1.2.26-.86.86-1.71,1.72-2.19,2.86"/>
            <path class="uuid-de72213b-920f-4cb8-9c20-b7200fd91724" d="M10.23,42.06l-.26-.06c.02-.09.54-2.2.7-2.69.08-.22.34-1.16.62-2.15.34-1.21.73-2.59.89-3.06.13-.39.47-1.36.83-2.38.44-1.25.94-2.66,1.1-3.18.29-.91.34-3.49.34-3.52h.27c0,.11-.05,2.65-.35,3.6-.16.52-.64,1.88-1.11,3.19-.36,1.02-.7,1.99-.83,2.38-.15.47-.54,1.84-.89,3.05-.29,1.04-.55,1.93-.62,2.16-.16.48-.69,2.64-.7,2.67"/>
            <path class="uuid-280b10e0-8cb9-4e86-be55-b863b012c246" d="M8.31,40.81c-.01.21-.03.44.08.62.26.48.98.33,1.5.51.5-3.07,1.37-6.08,2.6-8.93.17-.39.34-.77.45-1.17.15-.54.18-1.1.21-1.66.02-.43.03-.91-.25-1.23-.27-.31-.73-.38-1.12-.28-1.66.41-1.91,2.45-2.28,3.88-.45,1.74-.72,3.52-.92,5.3-.11.99-.19,1.98-.26,2.97"/>
            <path class="uuid-280b10e0-8cb9-4e86-be55-b863b012c246" d="M10.16,30.32c-.09.55-.2,1.09-.34,1.63-.08.34-.17.74.05,1.02.23.3.73.29,1.04.07.32-.22.5-.58.67-.92l.99-1.98c.21-.43.43-.86.51-1.34.14-.85-.18-1.72-.07-2.58.05-.41.2-.8.18-1.21-.01-.32-.13-.62-.24-.92-.19-.5-.38-1-.57-1.5-.2-.53-.83-1.22-1.31-.54-.39.55-.32,1.78-.38,2.42-.19,1.95-.23,3.92-.55,5.85"/>
            <g class="uuid-b2a9e3d4-31e9-41f0-b42c-6ec1253ebcaa">
              <g class="uuid-df19a1ea-e43c-46cc-b296-1a2432af29d9">
                <g class="uuid-017f7478-22d8-48ff-9f0c-7b5584e3f050">
                  <path class="uuid-dc673def-379b-4fa7-8f14-6fc683f874b5" d="M15.83,22.64c-.12.25-.21.46-.26.62-.36,1.18-1.14,5.02-1.49,6.41-.36,1.38-1.45,4.11-1.94,5.63-.49,1.52-1.18,5.49-1.27,5.8-.07.23-.27.59-.57.82.62-4.34,2.24-8.51,3.36-12.76.23-.87.44-1.78.32-2.67-.05-.39-.17-.77-.2-1.16-.12-1.43.75-2.53,2.06-2.67"/>
                </g>
              </g>
            </g>
            <path class="uuid-612a12dc-4b1a-4c3b-93a4-b3f0807e0505" d="M34.42,34.24l-1.92-2.24c-.63-1.07-2.71-4.61-2.87-5.23-.26-.99,1-1.67,1.26-1.8l.52,1.04-.26-.52.26.52c-.27.14-.57.37-.64.5.17.46,1.49,2.78,2.71,4.85l1.83,2.11-.88.76Z"/>
            <path class="uuid-a07b55bf-9c82-490d-828b-7d02400aebc6" d="M31.5,24.81c.13.34.41.77.07,1.06-.11.1-.24.18-.37.22-.18.06-.42.07-.5-.12-.1-.23-.17-.46-.26-.69-.29-.77-.58-1.54-.87-2.3-.21-.55-.43-1.1-.63-1.65-.06-.16-.12-.43-.04-.58.04-.07.12-.12.2-.15.08-.02.16-.03.25-.03.11,0,.22,0,.31.04.2.1.33.22.41.43.04.11.09.23.13.34.13.34.26.67.38,1.01.3.8.61,1.6.91,2.41"/>
            <rect class="uuid-a07b55bf-9c82-490d-828b-7d02400aebc6" x="12.98" y="34.84" width="24.29" height="1.16" transform="translate(-17.95 40.96) rotate(-61.98)"/>
            <rect class="uuid-a07b55bf-9c82-490d-828b-7d02400aebc6" x="14.08" y="27.52" width="17.73" height="1.16" transform="translate(-12 18.36) rotate(-35.2)"/>
            <path class="uuid-a07b55bf-9c82-490d-828b-7d02400aebc6" d="M15.93,31.94c.03.06.05.12.07.17.06.16.08.34.13.5.1.35.2.7.3,1.05.14.47.27.94.4,1.41.16.55.32,1.1.48,1.66.17.6.34,1.2.51,1.79.17.61.35,1.21.52,1.82.17.58.33,1.16.5,1.74.15.51.3,1.03.44,1.54.12.41.24.83.36,1.24.08.27.16.55.24.82.03.1.06.2.09.3,0,0-1.11.32-1.12.32-.03-.1-.06-.21-.09-.32-.07-.26-.15-.53-.23-.79-.11-.39-.22-.78-.34-1.17-.14-.48-.28-.96-.41-1.45-.16-.54-.31-1.09-.47-1.64-.16-.57-.33-1.15-.5-1.73-.16-.57-.33-1.15-.5-1.72l-.47-1.62c-.14-.48-.27-.95-.41-1.43-.11-.38-.22-.76-.33-1.14-.07-.25-.15-.5-.22-.75-.03-.12-.1-.25-.07-.37.07-.35.56-.47.87-.46.11,0,.18.11.23.22"/>
            <path class="uuid-612a12dc-4b1a-4c3b-93a4-b3f0807e0505" d="M7.21,49.91l5.52-14.52c.36-.3.72-.6,1.09-.89.29-.24.57-.47.86-.71.08-.07.16-.13.24-.2.05-.04.14-.15.21-.14.11.02.18.13.23.23.09.16.15.32.21.49.03.1.08.21.04.32-.06.13-.23.23-.34.32-.15.12-.31.25-.46.38-.3.24-.59.49-.89.73-.07.06-.14.12-.22.18l-4.47,11.76.58-.23,4.91-1.6,3.94-.61.85.37-.47,1.06-.54-.24-3.56.55-4.73,1.56-3,1.2Z"/>
            <path class="uuid-f4dd6190-936b-4b51-b8e3-044f54b0b020" d="M8.67,39.34C3.88,42.1,0,48.8,0,54.29s3.88,7.71,8.67,4.94c4.79-2.76,8.67-9.46,8.67-14.95s-3.88-7.7-8.67-4.94M8.67,58.66c-4.51,2.61-8.17.52-8.17-4.66s3.66-11.49,8.17-14.09c4.51-2.6,8.17-.52,8.17,4.66s-3.66,11.49-8.17,14.09"/>
            <path class="uuid-f4dd6190-936b-4b51-b8e3-044f54b0b020" d="M7.21,59.19c2.41-.78,5.01-2.62,6.5-5.05l1.96-3.66s.02-.05.03-.08c.75-2.13.99-4.07.99-4.07,0,0,0-2.76-.11-3.17-.11-.41-.75-1.7-.75-1.7l-1.33-1.65s.79-.16,1.3.34,1.71,1.82,1.8,4.17c.09,2.35-.71,9.36-7.02,14.04s-8.9-.95-8.9-.95c0,0,2.71,2.68,5.52,1.78"/>
            <path class="uuid-2936ac1c-57fd-49af-9813-3c74daca19cf" d="M9.07,40.54c-4.32,2.49-7.82,8.54-7.82,13.49s3.63,7.09,7.95,4.6c4.32-2.5,8-8.48,8-13.44s-3.81-7.15-8.13-4.66M9.07,58.15c-4.16,2.4-7.53.48-7.53-4.29s3.37-10.58,7.53-12.98c4.16-2.4,7.53-.48,7.53,4.29s-3.37,10.58-7.53,12.98"/>
            <path class="uuid-383f5227-0ea5-4a39-85be-df1a6603da38" d="M9.47,40.77c-4.32,2.49-7.82,8.54-7.82,13.49s3.5,6.95,7.82,4.46c4.32-2.5,7.82-8.54,7.82-13.5s-3.5-6.95-7.82-4.46M9.47,58.39c-4.16,2.4-7.53.48-7.53-4.29s3.37-10.58,7.53-12.98c4.16-2.4,7.53-.48,7.53,4.29s-3.37,10.58-7.53,12.98"/>
            <path class="uuid-f4dd6190-936b-4b51-b8e3-044f54b0b020" d="M3.59,60.46s-.91-.42-1.46-.86c-.55-.44-2.35-3.81-1.75-6.89.6-3.08,1.85-7.38,4.74-10.17,2.89-2.79,5.43-4.11,7.31-4.04,1.89.07,2.55.32,2.55.32,0,0,.92.36,1.47.94-.12.21-2.6-.9-3.91-.66-1.31.24-4.8,1.7-7.29,5.1-2.49,3.39-3.78,6.95-3.83,8.97-.05,2.02.63,4.58,1.65,5.64,1.02,1.06.52,1.64.52,1.64"/>
            <path class="uuid-62b27a3c-5052-49a8-a32d-c9ebf8a4655e" d="M9.67,40.49c-4.51,2.61-8.17,8.91-8.17,14.09s3.66,7.26,8.17,4.66c4.51-2.61,8.17-8.91,8.17-14.09s-3.66-7.26-8.17-4.66M9.67,58.84c-4.32,2.5-7.82.5-7.82-4.46s3.5-11,7.82-13.49c4.32-2.5,7.82-.5,7.82,4.46s-3.5,11-7.82,13.5"/>
            <path class="uuid-31ba1774-770a-42c3-a41e-896bc574e651" d="M9.67,39.92c-4.79,2.76-8.67,9.46-8.67,14.95s3.88,7.71,8.67,4.94c4.79-2.76,8.67-9.46,8.67-14.95s-3.88-7.7-8.67-4.94M9.67,59.24c-4.51,2.61-8.17.52-8.17-4.66s3.66-11.49,8.17-14.09c4.51-2.6,8.17-.52,8.17,4.66s-3.66,11.49-8.17,14.09"/>
            <path class="uuid-f4dd6190-936b-4b51-b8e3-044f54b0b020" d="M35.65,23.76c-4.79,2.76-8.67,9.46-8.67,14.95s3.88,7.71,8.67,4.94c4.79-2.76,8.67-9.46,8.67-14.95s-3.88-7.7-8.67-4.94M35.65,43.08c-4.51,2.61-8.17.52-8.17-4.66s3.66-11.49,8.17-14.09c4.51-2.6,8.17-.52,8.17,4.66s-3.66,11.49-8.17,14.09"/>
            <path class="uuid-f4dd6190-936b-4b51-b8e3-044f54b0b020" d="M34.19,43.61c2.41-.78,5.01-2.62,6.5-5.05l1.96-3.66s.02-.05.03-.08c.75-2.13.99-4.07.99-4.07,0,0,0-2.76-.11-3.17-.11-.41-.75-1.7-.75-1.7l-1.33-1.65s.79-.16,1.3.34,1.71,1.82,1.8,4.17c.09,2.35-.71,9.36-7.02,14.04s-8.9-.95-8.9-.95c0,0,2.71,2.68,5.52,1.78"/>
            <path class="uuid-2936ac1c-57fd-49af-9813-3c74daca19cf" d="M36.05,24.96c-4.32,2.49-7.82,8.54-7.82,13.49s3.63,7.09,7.95,4.6c4.32-2.5,8-8.48,8-13.44s-3.81-7.15-8.13-4.66M36.05,42.57c-4.16,2.4-7.53.48-7.53-4.29s3.37-10.58,7.53-12.98c4.16-2.4,7.53-.48,7.53,4.29s-3.37,10.58-7.53,12.98"/>
            <path class="uuid-383f5227-0ea5-4a39-85be-df1a6603da38" d="M36.45,25.19c-4.32,2.49-7.82,8.54-7.82,13.49s3.5,6.95,7.82,4.46c4.32-2.5,7.82-8.54,7.82-13.5s-3.5-6.95-7.82-4.46M36.45,42.81c-4.16,2.4-7.53.48-7.53-4.29s3.37-10.58,7.53-12.98c4.16-2.4,7.53-.48,7.53,4.29s-3.37,10.58-7.53,12.98"/>
            <path class="uuid-f4dd6190-936b-4b51-b8e3-044f54b0b020" d="M30.58,44.88s-.91-.42-1.46-.86c-.55-.44-2.35-3.8-1.75-6.88.6-3.08,1.85-7.38,4.74-10.17,2.89-2.79,5.43-4.11,7.31-4.04,1.89.07,2.55.32,2.55.32,0,0,.92.36,1.47.94-.12.21-2.6-.9-3.91-.66-1.31.24-4.8,1.7-7.29,5.1-2.49,3.39-3.78,6.95-3.83,8.97-.05,2.02.63,4.58,1.65,5.64,1.02,1.06.52,1.64.52,1.64"/>
            <path class="uuid-62b27a3c-5052-49a8-a32d-c9ebf8a4655e" d="M36.65,24.91c-4.51,2.61-8.17,8.91-8.17,14.09s3.66,7.26,8.17,4.66c4.51-2.61,8.17-8.91,8.17-14.09s-3.66-7.26-8.17-4.66M36.65,43.26c-4.32,2.5-7.82.5-7.82-4.46s3.5-11,7.82-13.49c4.32-2.5,7.82-.5,7.82,4.46s-3.5,11-7.82,13.5"/>
            <path class="uuid-31ba1774-770a-42c3-a41e-896bc574e651" d="M36.65,24.34c-4.79,2.76-8.67,9.46-8.67,14.95s3.88,7.71,8.67,4.94c4.79-2.76,8.67-9.46,8.67-14.95s-3.88-7.7-8.67-4.94M36.65,43.66c-4.51,2.61-8.17.52-8.17-4.66s3.66-11.49,8.17-14.09c4.51-2.6,8.17-.52,8.17,4.66s-3.66,11.49-8.17,14.09"/>
            <path class="uuid-a07b55bf-9c82-490d-828b-7d02400aebc6" d="M36.05,34.77l-1.99-2.88c-.66-1.59-1.68-4.05-1.8-4.31-.15-.25-.42-.46-.63-.66-.17-.16-.34-.31-.51-.47-.11-.1-.21-.39-.17-.54.01-.05.05-.1.09-.14.07-.08.14-.15.21-.22.06-.05.13-.11.2-.13.06-.02.15,0,.19-.05.33.28.65.57.95.87.25.25.56.52.71.85.17.36,1.55,3.69,1.8,4.31l1.9,2.72-.95.66Z"/>
            <path class="uuid-99fb2241-65b5-4964-a72a-624483f5e7c4" d="M40.19,20.56c-.27-.48-1.06-1.17-1.49-1.52-.61.21-2.29.73-3.1.52-.87-.22-8.64-4.48-9.52-4.97l-.06-.03-.05-.05c-.26-.3-1.46-1.74-1.68-2.67-1.49-.87-3.57-1.01-3.59-1.01l.05-.77c.1,0,2.44.16,4.1,1.22l.17.11v.2c.04.46.88,1.65,1.49,2.38,3.31,1.82,8.7,4.71,9.28,4.86.53.14,2.03-.28,2.84-.57l.2-.07.17.13c.14.11,1.42,1.09,1.86,1.89l-.68.37Z"/>
            <rect class="uuid-99fb2241-65b5-4964-a72a-624483f5e7c4" x="28.58" y="17.99" width="3.5" height=".77" transform="translate(-3.87 27.75) rotate(-46.54)"/>
            <path class="uuid-99fb2241-65b5-4964-a72a-624483f5e7c4" d="M29.09,20.88s-.03-.04-.04-.07c-.06-.14-.11-.29-.16-.43-.13-.34-.25-.69-.38-1.03-.01-.03-.02-.07-.04-.1l.73-.27c.11.29.21.58.32.87.07.19.14.38.21.57.04.12.1.19.02.3-.08.1-.18.14-.3.17-.12.03-.25.1-.35,0"/>
            <path class="uuid-99fb2241-65b5-4964-a72a-624483f5e7c4" d="M14.83,31.71c-.1-.36-.19-.72-.28-1.09l-.45-1.81c-.1-.4-.2-.79-.3-1.19,0-.02,0-.03-.01-.05l.75-.19c.08.32.16.64.24.96.15.62.31,1.25.47,1.87.07.27.13.53.2.8.05.22.16.44.16.67,0,.2-.06.3-.23.4-.11.06-.24.09-.35.03-.09-.05-.13-.17-.16-.27-.01-.05-.03-.1-.04-.14"/>
            <path class="uuid-9e2a3a8c-82e7-4165-8b52-959f0ff142ab" d="M8.94,27.33s-.69,1.26.21,1.93c.9.68,2.96,1.55,4.22,1.58,1.26.03,1.98-1.69,2.14-1.98.16-.29,1.13-2.26,2.11-3,.98-.74-.24-1.48-1.29-1.1-1.05.39-3.17,1.18-4.58,1.58-1.4.4-2.26.48-2.82.98"/>
            <path class="uuid-a07b55bf-9c82-490d-828b-7d02400aebc6" d="M15.61,33.99c.05-.02.11-.01.16,0,.14.02.29.06.41.14.19.12.27.32.25.53-.07.55-.13,1.1-.2,1.65-.05.4-.1.79-.15,1.19l-.04.09-5.69,11.74,1.07-.26,6.72-2.3.83-1,.89.74-1.04,1.25-7.1,2.43-3.48.83,6.71-13.86c.05-.42.1-.85.16-1.27.04-.31.08-.62.11-.94.03-.22.02-.48.11-.68.05-.11.15-.25.28-.29"/>
            <path class="uuid-dc247d94-a46b-4a57-82a0-b6c73c096121" d="M17.96,47.33c0,1.33.94,1.86,2.09,1.19,1.16-.67,2.09-2.28,2.09-3.61s-.94-1.86-2.09-1.19c-1.16.67-2.09,2.28-2.09,3.61"/>
            <polygon class="uuid-dc247d94-a46b-4a57-82a0-b6c73c096121" points="18.53 48.65 19.01 48.92 22.01 43.84 21.57 43.59 18.53 48.65"/>
            <path class="uuid-97858391-c2ec-4df0-888e-574578d9d0c5" d="M18.39,47.57c0,1.33.94,1.86,2.09,1.19,1.16-.67,2.09-2.28,2.09-3.61s-.94-1.86-2.09-1.19c-1.16.67-2.09,2.28-2.09,3.61"/>
            <path class="uuid-de72213b-920f-4cb8-9c20-b7200fd91724" d="M11.95,22.63l-1.43-.05v-.27s1.31.04,1.31.04l2.36-2.78c-.36-.23-1.29-.84-1.51-1.17l.22-.15c.19.29,1.19.94,1.56,1.17l.13.08-2.64,3.11Z"/>
            <path class="uuid-0c2dc1d4-4baa-4fd1-b301-1ded1c596e56" d="M16.72,19.02l-.45-.29c.35-.54.78-1.03,1.26-1.45l.36.4c-.45.4-.84.85-1.17,1.35"/>
            <path class="uuid-0c2dc1d4-4baa-4fd1-b301-1ded1c596e56" d="M14.27,17.2l-.22-.19c-.04-.13.02-.26.08-.33.16-.17.33-.33.5-.47.16-.14.35-.27.58-.3.06-.01.13-.01.2-.01.03,0,.07,0,.1,0l.05.53c-.09,0-.17,0-.26.01-.1.02-.2.09-.32.19-.16.13-.31.28-.46.43.07-.08.05-.18.04-.21l-.24.08-.05.28Z"/>
            <polygon class="uuid-88de1f69-b440-4573-8a8f-1ca5aa816756" points="20.29 47.1 22.18 43.12 21.31 42.56 19.42 46.55 20.29 47.1"/>
            <polygon class="uuid-4e5d332a-edee-4292-b0d6-6fd3f4b6ef58" points="25.43 43.01 22.85 45.69 19.9 43.98 19.9 42.8 22.48 41.31 25.43 43.01"/>
            <polygon class="uuid-29969d1b-0a0d-4e95-af79-f94e551c36b3" points="25.43 44.2 22.85 45.69 22.85 44.5 25.43 43.01 25.43 44.2"/>
            <path class="uuid-bc0130e2-7178-4454-a9c9-2b84f8a3a112" d="M18.72,42.58s-.39.14-.46.32c-.07.18-.05.46-.05.46,0,0,.22.38.89.46.67.08,1.32.05,1.5,0,.18-.04.38-.12.38-.12,0,0,1,.24,1.11.27.11.03.67.13,1.06,0,.39-.13.77-.52.89-.6.11-.08.28-.48.11-.66-.17-.18-.48-.3-.48-.3l-4.93.17Z"/>
            <path class="uuid-d64e529a-fd27-44ae-a8aa-0efacd3d0072" d="M19.5,41.13s-.4-.07-.61.21c-.2.28-.46,1.15-.5,1.42,0,0-.1.3.16.42.26.12,1.34.15,1.69.2.35.05,1.84.34,2.05.44.2.1.86-.02,1.16-.24.3-.22.46-.4.57-.57.1-.17-.17-.87-.4-.96-.22-.09-.98-.13-1.26-.19-.28-.06-.61-.57-.81-.65-.2-.08-2.06-.09-2.06-.09"/>
            <g class="uuid-c90496fc-859f-45dc-b49c-440c71443298">
              <rect class="uuid-4f679e45-c1f4-484c-bd4b-c9bc096e73f2" x="18.63" y="38.23" width="3.79" height="4.37" transform="translate(-4.27 2.47) rotate(-6.24)"/>
            </g>
            <path class="uuid-0c2dc1d4-4baa-4fd1-b301-1ded1c596e56" d="M23.69,30.96c-.07,1.01-.42,2.78-.85,5.07-.42,2.29-.44,3.17-.44,3.17,0,0-.87.27-1.36.35-.22.03-.54,0-.85-.07-.39-.09-.75-.24-.81-.38-.1-.26-.02-2,.06-2.95.08-.95.19-2.22.24-2.56.05-.34.43-2.14.12-2.56-.31-.42-3.32-3.01-3.92-3.72-.41-.48-1.09-1.16-1.54-1.71-.22-.27-.38-.52-.42-.7-.13-.56-.02-1.54.54-2.75.56-1.2,3.01-4.75,3.01-4.75l5.16,1.65s-.22,1.09-.29,1.81c-.07.71-.85,2.41-.87,3.15-.02.74.01.84.84,2.53.82,1.68,1.46,3.43,1.39,4.43"/>
            <g class="uuid-b2a9e3d4-31e9-41f0-b42c-6ec1253ebcaa">
              <g class="uuid-0db4db1c-247c-4255-98a4-4bf1abfdbe8d">
                <g class="uuid-b9d9300f-3861-4bc8-ac22-cec4e25e7691">
                  <path class="uuid-dc673def-379b-4fa7-8f14-6fc683f874b5" d="M21.97,30.76c-.28.24-.59.45-.84.72-.56.62-.62,1.8-.67,2.62-.1,1.68-.07,2.47-.17,4.14-.02.41-.05.82-.1,1.23-.39-.09-.75-.24-.81-.38-.1-.26-.02-2,.06-2.95.07-.95.19-2.22.24-2.56.05-.34.43-2.14.12-2.56-.31-.42-3.32-3.01-3.92-3.73-.41-.48-1.1-1.15-1.54-1.71.05-.04.11-.07.18-.09.63-.15,1.42.97,1.76,1.34.65.7,1.29,1.41,1.94,2.11.29.31,1.45.89,1.77,1.17.56.5,1.27.38,1.98.64"/>
                </g>
              </g>
            </g>
            <path class="uuid-280b10e0-8cb9-4e86-be55-b863b012c246" d="M17.95,19.43c-.48-.29-1.09-.47-1.59-.22-.18.09-.33.23-.47.37-1.09,1.14-1.7,2.74-1.64,4.32.02.46.1.94.37,1.31.22.3.56.5.89.68.84.45,1.42.87,2.4.69.59-.11,1.32-.28,1.84-.6.81-.5,1.2-1.9,1.29-2.77.05-.55.23-1.18.15-1.73-.08-.54-.43-.81-.93-.98-.4-.14-.82-.17-1.21-.36-.39-.19-.73-.48-1.1-.7"/>
            <path class="uuid-280b10e0-8cb9-4e86-be55-b863b012c246" d="M20.76,22.77c-.12-.26-.27-.55-.55-.64-.22-.07-.47.02-.68.11-.65.3-1.27.72-1.7,1.29-.43.57-.66,1.32-.52,2.03.22,1.12,1.26,1.86,2.04,2.7.75.82,2.23,1.57,3.05,2.31.18.16.4.32.64.3,1.22-.09-.06-2.38-.31-2.94-.4-.86-.66-1.73-.96-2.65-.28-.86-.65-1.7-1.01-2.53"/>
            <path class="uuid-280b10e0-8cb9-4e86-be55-b863b012c246" d="M20.81,39.14c.46-.04,1.18-.03,1.43-.48.2-.35.23-1.05.32-1.45.3-1.27.48-1.75.56-3.06.06-.95.12-1.9.28-2.84.07-.39.58-1.95-.35-1.75-.36.08-.4.52-.51.81-.38,1.01-.72,2.18-.94,3.23-.43,2.12-.62,3.38-.79,5.54"/>
            <path class="uuid-de72213b-920f-4cb8-9c20-b7200fd91724" d="M17.9,26.16l-.04-.02s-1.19-.51-2.07-1.3l-.03-.03v-.04c-.22-.94.63-3.44.66-3.54l.04-.12,4.32,1.31-.62,3.2-2.27.54ZM16,24.68c.75.66,1.71,1.11,1.92,1.2l2.02-.48.54-2.79-3.85-1.16c-.16.51-.77,2.45-.63,3.23"/>
            <path class="uuid-de72213b-920f-4cb8-9c20-b7200fd91724" d="M22.37,39.26l-.27-.02c0-.09.19-2.2.33-3.01l.02-.14c.15-.89.43-2.56.7-3.85.25-1.2-.29-3.35-.88-4.96-.22-.6-.45-1.14-.66-1.61-.24-.56-.44-1.01-.51-1.34-.14-.6.71-3.27.81-3.57l.26.08c-.37,1.16-.9,3.03-.81,3.43.07.3.26.74.5,1.29.21.48.44,1.02.66,1.63.29.8,1.22,3.53.89,5.11-.27,1.29-.55,2.95-.7,3.84l-.02.14c-.13.79-.32,2.96-.32,2.98"/>
            <path class="uuid-0c2dc1d4-4baa-4fd1-b301-1ded1c596e56" d="M21.56,21.06c-.04-.19.04-.35.09-.47.2-.44.32-.91.35-1.39l.54.03c-.03.54-.17,1.08-.39,1.57-.02.05-.06.12-.06.15l-.52.11Z"/>
            <path class="uuid-8d33006b-6a39-4cbb-a9db-cebe389bb29e" d="M14.58,16.55s.48,1.07,1.6,1.79c1.12.72,3.91,1.6,4.37,1.77.47.18,1.76.89,1.76.89l.2-1.34-6.58-3.12-.57-.52-.77.52Z"/>
            <polygon class="uuid-d1baa54e-ae98-48a2-b05f-43c1bbf7530c" points="19.47 18.5 19.21 19.8 21.48 20.67 21.88 19.28 19.47 18.5"/>
            <g class="uuid-b2a9e3d4-31e9-41f0-b42c-6ec1253ebcaa">
              <g class="uuid-f1d1c908-0428-459e-9789-1f987e5795e8">
                <g class="uuid-5028959c-c22b-4640-ae2f-0dff3405bdee">
                  <path class="uuid-dc673def-379b-4fa7-8f14-6fc683f874b5" d="M27.09,8.47c-.35.04-.94-.06-1.02.03-.09.09-.4.7-.45,1.1,0,0-.06-.02-.17-.05.14-.29.26-.59.38-.89.11-.27.21-.55.17-.85.19.31.49.56.85.63.08.02.16.02.24.02"/>
                </g>
              </g>
            </g>
            <path class="uuid-3b6a00bc-1cae-4f14-86b6-a1e0f01d5ec4" d="M26.75,12.74c-.04.1-.08.18-.11.23-.21.37-.69,1.85-.79,3.23-.1,1.38-2.19,2.05-2.59,2.38-.4.33-1.17,1.91-1.26,1.92-.09.01,0,0-.15-.31-.03-.06-.1-.14-.23-.23-.53-.41-1.95-1.11-4.16-1.63-2.72-.64-3.17-1.47-3.17-1.47,0,0,.27-.31.64-.73.37-.42,1.3-1.73,1.91-3.02.61-1.29,1.31-3.9,1.31-3.9,0,0,.48-.7,1.18-1.07.7-.37,1.47-.43,1.95-.48.48-.04,2.34.31,3.48.69,0,0,.34.18.77.7.43.52,1.09.86,1.47,1.32.33.4-.02,1.76-.25,2.37"/>
            <g class="uuid-b2a9e3d4-31e9-41f0-b42c-6ec1253ebcaa">
              <g class="uuid-cecf32eb-fcc1-4239-b522-719a35dd919c">
                <g class="uuid-6273bfea-588d-4eda-bbd2-b00f7a5d5649">
                  <path class="uuid-dc673def-379b-4fa7-8f14-6fc683f874b5" d="M26.75,12.74c-.04.1-.08.18-.11.23-.21.37-.69,1.85-.79,3.23-.1,1.38-2.19,2.05-2.59,2.38-.4.33-1.17,1.91-1.26,1.92-.09.01,0,0-.15-.31-.03-.06-.1-.14-.23-.23.07-.1.14-.2.22-.29.28-.32.47-.69.75-1.01.32-.35.68-.66,1.02-.99.24-.24.43-.49.53-.82.12-.37.24-.75.36-1.12.09-.29.19-.59.25-.89.13-.65.13-1.79.89-2.07.33-.12.73-.13,1.1-.03"/>
                </g>
              </g>
            </g>
            <g class="uuid-8653da36-eb36-4016-aa12-9fed3c806569">
              <rect class="uuid-dd49d03f-80eb-4b61-8c01-7f46397b7b18" x="22.02" y="2.95" width="6.82" height="6.65"/>
            </g>
            <path class="uuid-8603435f-96c7-44f0-8579-b404d8fb77b3" d="M27.14,5.41c-.5-.04-.59.07-1,.39-.41.32-.43.3-.68.74-.25.44-.53.72-.53.72,0,0-1.24-.05-1.54-.18-.3-.14-.65-.41-.67-.65-.02-.23-.29-1.64-.17-2.51.12-.87.6-1.63,1.33-2.15.72-.52,1.96-.52,2.92-.17,1.2.42,1.64.91,1.71,1.69.07.77-.49,1.35-.49,1.35,0,0,.2.5-.03.93-.23.42-.55.88-.55.88,0,0,.03-.46-.07-.78-.1-.32-.24-.26-.24-.26"/>
            <g class="uuid-b2a9e3d4-31e9-41f0-b42c-6ec1253ebcaa">
              <g class="uuid-e0224cfd-9249-4443-b24b-6441f26f3f39">
                <g class="uuid-3064f730-42d2-45bd-8b6d-d673943fb83a">
                  <path class="uuid-dc673def-379b-4fa7-8f14-6fc683f874b5" d="M17.05,17.41c.07.04.16.08.24.06.08-.02.13-.09.16-.16.15-.27.19-.59.29-.88.41-1.31,1.7-2.11,2.48-3.23.2-.29.37-.61.57-.9.4-.59.9-1.1,1.27-1.7.59-.99.76-2.17.88-3.32-.42.12-.64.57-.82.97-.93,1.99-2.3,3.76-4,5.15-.66.54-1.55,1.14-1.88,1.96-.26.67.23,1.71.81,2.06"/>
                </g>
              </g>
            </g>
            <path class="uuid-8603435f-96c7-44f0-8579-b404d8fb77b3" d="M22.96,5.91c-.44.24-.37.37-.58.6-.21.24-.95.38-1.52,1.42-.57,1.04-1.56,2.8-2.31,3.47-.75.67-1.94,1.86-2.26,2.75-.32.9-.2,1.36-.2,1.36,0,0,.29.63.6.94.31.31.71.58.71.58,0,0,0-.97.55-1.64.55-.67,1.71-1.93,2.2-2.66.49-.73,1.5-1.79,2.23-3.3.73-1.52.6-2.52.77-2.96.17-.44.27-.57.27-.57h-.46Z"/>
            <path class="uuid-6413280e-1f1f-4030-bdd7-4061887693ea" d="M23.61,6.67c-.02-.16-.08-.31-.15-.45-.06-.14-.14-.27-.24-.37-.11-.1-.25-.18-.4-.16-.25.02-.42.28-.43.53,0,.05,0,.1.04.14.08.07.2-.02.3,0,.31.05.32.42.44.63.24.39.48-.01.45-.31"/>
            <g class="uuid-631c8e19-bd01-4843-9a94-ba2c3093cc62">
              <rect class="uuid-870d4195-782a-4b42-a0b6-72bc4191e90b" x="25.38" y="12.57" width="11.59" height="8.71"/>
            </g>
            <path class="uuid-16f67074-6f7c-4ea3-90a3-ed5361008870" d="M27.95,13.08c-.34.22-.64.5-.9.82-.14.18-.27.37-.32.59-.07.33.04.68.21.98.16.3.37.57.51.89.13.28.27.58.44.83.19.27.3.57.44.86.2.41.44.81.76,1.13.45.45,1.08.69,1.64.97.04.02.09.04.13.03.07-.02.1-.11.1-.19.02-.27-.02-.54-.06-.8-.06-.39-.13-.71-.34-1.05-.06-.11-.12-.22-.17-.33-.08-.16-.16-.32-.23-.47-.06-.12-.08-.25-.14-.37-.06-.13-.19-.22-.25-.35-.08-.17-.12-.36-.22-.54-.25-.46-.4-.95-.51-1.46-.04-.17-.12-.32-.16-.49-.05-.22,0-.46-.05-.69-.03-.13-.17-.37-.27-.46-.18-.15-.46,0-.63.1"/>
            <path class="uuid-16f67074-6f7c-4ea3-90a3-ed5361008870" d="M33.21,19.91c-.2.1-.41.2-.62.26-.18.05-.36.07-.54.09-.25.02-.5.05-.75.08-.18.02-.37.04-.55,0-.2-.04-.39-.14-.56-.25s-.35-.28-.32-.49c.01-.11.09-.21.16-.3.08-.1.15-.2.23-.3.06-.07.12-.15.2-.2.13-.08.3-.08.46-.07,1.13.04,2.28.14,3.39-.09.16-.03.35-.07.48.03.62.45-1.35,1.13-1.57,1.24"/>
            <g class="uuid-b2a9e3d4-31e9-41f0-b42c-6ec1253ebcaa">
              <g class="uuid-60ede033-f10d-41a3-9395-bdcd525d4cca">
                <g class="uuid-6fbbcc0e-5d1a-4d9d-9647-4bb69f08125b">
                  <path class="uuid-dc673def-379b-4fa7-8f14-6fc683f874b5" d="M36.95,19.2c-.02.13-.05.3-.12.37-.12.11-.64.22-.64.22l-.5-.18s-.62.05-.95.19c-.33.13-.79.33-1.22.51-.43.18-1.57.52-1.86.61-.29.08-.91.37-1.45.14-.54-.24-1.09-.62-1.76-1.52-.67-.89-2.51-4.07-2.8-4.55-.28-.48,0-.76.21-1.06,0,0,.05-.03.13-.08,0,.04,0,.07,0,.1-.02.26-.06.5,0,.76.03.18.09.36.16.53.11.3.22.6.41.86.46.62.85,1.31,1.25,1.98.14.17.23.4.35.58.16.24.32.48.49.72.2.37.47.81.82,1.06.2.14.42.2.66.26.23.06.42.18.68.15.08,0,.16-.03.25-.05.38-.1.75-.13,1.12-.25.98-.34,1.96-.67,2.94-1.01.16-.06.33-.11.5-.1.17.01.39.14.57.08.14-.05.27-.19.42-.25,0,.03-.12.34-.1.35.05.03.12-.02.16-.07.1-.13.13-.27.29-.33,0,0,0,0,0,0"/>
                </g>
              </g>
            </g>
            <path class="uuid-08717277-ef85-4de4-9d9a-976a25c315c9" d="M26.39,10.54c-.74.95-1.09,1.85-1.19,2.54-.1.7.22,1.46.37,1.85.15.39,3.33-1.77,3.3-1.99-.03-.22-.79-1.62-1.87-2.56-.28-.03-.61.16-.61.16"/>
            <path class="uuid-05c6ffe9-de2d-4f04-8e24-33d0c4cade14" d="M41.67,33.27c-.3.1-.46-.35-.35-1.01.11-.66.45-1.27.75-1.37.3-.1.46.35.35,1.01-.11.66-.45,1.27-.75,1.37"/>
            <path class="uuid-929373fe-c566-422f-9cf9-66311d151a28" d="M41.79,33.34c-.3.1-.46-.35-.35-1.01.11-.66.45-1.27.75-1.37.3-.1.46.35.35,1.01-.11.66-.45,1.27-.75,1.37"/>
            <path class="uuid-3b3318d3-cbf6-4599-84dc-ae98eaf59fb5" d="M26.52,5.67c.2.59-.49,2.9-.49,2.9l.57-.09s.31-1.2.4-1.52c.36-.41.67-1.02.65-1.21-.03-.2.08-1.06.08-1.06l-.41.5s.04.74-.05.92c-.09.18-.38.53-.38.53,0,0,.05-.92-.02-1.14-.07-.21-.35.19-.35.19"/>
            <g class="uuid-8c0641bb-410a-48c6-bfe8-e987629aceef">
              <rect class="uuid-4795283d-b9d8-43fa-8d4a-c734bc8d6c39" x="26.59" y="5.13" width=".69" height="1.57"/>
            </g>
            <path class="uuid-47e830e1-95ac-415b-901c-7ff7c946bf88" d="M23.13,3.73c-.66.73-1.55.81-1.66.97-.25.37-.05.92.05,1.01.35.34,1.03.57,2.19.7,1.16.12,1.7.24,3.11-.28,1.41-.52,1.66-.8,2.12-1.36.58-.7.64-1.5.64-1.69,0-.19-.15-1.23-.51-1.36-.36-.13-5.94,2.01-5.94,2.01"/>
            <path class="uuid-f0a86c4c-3333-4844-bfaa-be98e8818db8" d="M29.14,1.92h0s0-.02,0-.02h0c-.19-.61-.92-1.13-1.4-1.39-1.04-.56-2.22-.87-3.89.29-.52.36-.92.91-1.15,1.22-.87,1.07-1.99,2.97-.66,3.42,1.41.48,3.02.98,5.79-.44,1.9-.97,1.39-2.83,1.31-3.07"/>
            <path class="uuid-47e830e1-95ac-415b-901c-7ff7c946bf88" d="M26.69,3.16s-.85.95-.94,1.47c-.09.52,1.31.08,1.99-.4.68-.48.9-.59.93-1.14.03-.55-.79-.36-.79-.36l-1.19.43Z"/>
            <path class="uuid-3b3318d3-cbf6-4599-84dc-ae98eaf59fb5" d="M28.47,3c-.1-.56-1.11-.15-1.5,0-.7.27-1.19,1.37-1.16,1.56s2.81-.73,2.66-1.56"/>
            <path class="uuid-47e830e1-95ac-415b-901c-7ff7c946bf88" d="M23.31,2.89c-.12-.24-.25-.46.34-1.23l-.34,1.23Z"/>
            <path class="uuid-3b3318d3-cbf6-4599-84dc-ae98eaf59fb5" d="M23.36,2.94c.52.22,1.43-1.34,2.98-1.78.33-.09.89-.4.45-.62-.44-.22-.91-.39-1.84.19-.93.58-1.91,2.07-1.59,2.2"/>
          </g>
        </g>
      </g>
    </g>
  </g>
</svg>