<?xml version="1.0" encoding="UTF-8"?>
<svg id="Calque_2" xmlns="http://www.w3.org/2000/svg" viewBox="0 0 13.04 51.74">
  <defs>
    <style>
      .cls-1 {
        fill: #4489c8;
      }

      .cls-2 {
        fill: #be3318;
      }

      .cls-3 {
        fill: #f7bbaa;
      }

      .cls-4 {
        fill: #fff;
      }

      .cls-5 {
        fill: #f9b500;
      }

      .cls-6 {
        fill: #4a2e22;
      }

      .cls-7 {
        fill: #a0c6ea;
      }

      .cls-8 {
        fill: #ffd533;
      }

      .cls-9 {
        fill: #2a2d3f;
      }

      .cls-10 {
        fill: #ffd93e;
      }

      .cls-11 {
        fill: #23201d;
      }

      .cls-12 {
        fill: #e33e12;
      }

      .cls-13 {
        fill: #454759;
      }
    </style>
  </defs>
  <g id="_Éléments_Mise_en_page" data-name="Éléments_Mise_en_page">
    <g>
      <path class="cls-9" d="M9.48,18c-.17,0-.3-.13-.3-.3V3.13c0-.17.13-.3.3-.3s.3.13.3.3v14.57c0,.17-.13.3-.3.3"/>
      <path class="cls-9" d="M13.01,4.39c0,2.42-1.58,4.39-3.53,4.39s-3.53-1.96-3.53-4.39S7.53,0,9.48,0s3.53,1.96,3.53,4.39"/>
      <path class="cls-3" d="M4.27,12.01c.2.16,1.66-.37,1.66-.37v-2.18l-3.2-1.18s.33,2.73,1.54,3.73"/>
      <path class="cls-3" d="M8.2,6.21c-.33.11-.62,1.88-.28,1.76.33-.11.67-.6.75-1.08.08-.49-.13-.79-.47-.68"/>
      <polygon class="cls-4" points="7.57 11.93 8.42 13.4 10.56 13.08 10.88 12.34 9.17 11.36 7.57 11.93"/>
      <path class="cls-13" d="M9.53,46.17c-.58,0-1.19,1.76-1.19,1.76l-1.38.25s.33,1.96,1.51,1.96,1.39-1.25,1.39-1.25c0,0,.26-2.72-.33-2.72"/>
      <path class="cls-13" d="M4.87,48.92C2.81,49.97-.1,48.41,0,50.03c.06.9.64,1.24,2.24,1.52,2.58.36,3.5.11,4.23-.02.34-.06.6-.34.63-.68l.15-1.94s-2.31.26-2.39,0"/>
      <path class="cls-3" d="M12.06,20.49s-2.71-2.38-3.55-3.16c-.11-.1.09-.5-.03-.72-.11-.18-.63-.63-.63-.63,0,0-.13-.51-.32-.8-.4-.18-1.2.37-1.41.6-.09.33.27,1.21.44,1.69.21.29.73.31,1.13.68.3.48,3.68,3.82,3.68,3.82,0,0,.39.42.95.4.56-.02.49-1.79.49-1.79"/>
      <path class="cls-3" d="M12.82,20.65s-.55-9.45-3.27-9.07c-.53.29.46,4.62.46,4.62l1.27,5.02"/>
      <path class="cls-1" d="M9.55,11.58c-.53.29.46,4.62.46,4.62l.87,4.51s1.52.82,2.14-.55c.14-.24-.75-8.96-3.47-8.58"/>
      <path class="cls-2" d="M7.32,48.76l.58-16.21-1.11,16.01s.21.1.52.2"/>
      <path class="cls-12" d="M10.63,24.28l-1.16.67-.63-1.68-6.11,3.53-.36,1.6c-.5,2.2-.12,4.28.15,6.53l1.12,14.49c0,.67,1.94.52,1.94.52,0,0,1.72.04,1.72-.84v-.34c-.3-.09-.51-.2-.51-.2l1.11-16.01-.58,16.21c.65.2,1.75.34,2.33-.64l1.4-17.94c.16-1.43-.02-2.88-.52-4.23l.11-1.67Z"/>
      <polygon class="cls-2" points="7.32 48.76 8.04 48.89 7.9 32.55 7.32 48.76"/>
      <path class="cls-8" d="M10.5,13.19c.06-.88-.53-1.7-1.4-1.86t0,0c-.14-.04-2.09.48-2.16.5h0c-.07.03-.12.01-.17.1,0,0-1.91,1.09-1.97,1.13l-.17.1c-.07.05-2.01,1.79-2.16,2,.18.59-.4,13.49-.4,13.49h.02c.28.18.73.27,1.22.29,1.12.05,2.23-.26,3.21-.82l3.79-2.19c.6-.35.32-1.64.32-1.64,0,0-.17-10.59-.13-11.09"/>
      <polygon class="cls-4" points="9.99 22.12 10.58 21.8 10.58 20.71 9.99 21.03 9.99 22.12"/>
      <polygon class="cls-4" points="9.99 23.59 9.99 24.68 10.64 24.36 10.61 23.27 9.99 23.59"/>
      <path class="cls-4" d="M2.13,23.28l.04,1.1s1.33.39,2.8-.01v-1.1c-1.75.27-2.84,0-2.84,0"/>
      <path class="cls-4" d="M2.13,26.12l.04,1.1s1.33.39,2.8-.01v-1.1c-1.75.27-2.84,0-2.84,0"/>
      <path class="cls-3" d="M8.08,10.48s-2.85.98-2.95,1.17c.09.71,0,1.34,0,1.42.53.22,2.56.6,2.98-.76-.13-.55-.02-1.83-.02-1.83"/>
      <path class="cls-3" d="M3.77,16.34c-.24-.83-1.04-1.12-1.04-1.12-.05-.05-.11-.08-.15-.09h0s0,0,0,0c-.03,0-.07,0-.1.02-.81.54-2.09,9.49-2.09,9.49l.6,6.87c-.03.59-.54,1.54-.49,1.83.11.29.73.69,1.59.7.31-.34.49-.36.65-.95-.06-.26-.11-.46-.11-.46,0,0,.23-.07.26-.33.04-.26-.71-1.01-.71-1.01l.33-6.51,1.21-5.52c.22-.95.38-1.82.11-2.76l-.05-.17Z"/>
      <path class="cls-7" d="M3.77,16.34c-.24-.83-1.04-1.12-1.04-1.12-.05-.05-.11-.08-.15-.09h0s0,0,0,0c-.03,0-.07,0-.1.02-.81.54-2.09,6.97-2.09,6.97,0,0,1.03,1.79,2.87.62.05-.38.46-3.47.46-3.47.22-.95.38-1.82.11-2.76l-.05-.17Z"/>
      <path class="cls-6" d="M3.98,4.88c-2.2.68-1.56,2.52-1.52,2.76.2,1.03,1.43,1.68,1.52,1.76.46.43.56.39.59.63,1.16.33,1.3,1.55,1.43,2.11,1.86-.19,2.26-1.14,2.26-1.14.21-1.69.93-2.13,1.08-3.09.04-.36.07-.9.05-.97-.12-2.13-4.27-3.38-5.42-2.06"/>
      <path class="cls-3" d="M3.95,9.28s-.37,1.09.11,1.53c.34.38.91-.74.55-1.29-.36-.55-.66-.24-.66-.24"/>
      <path class="cls-5" d="M8.45,5.85l-1.12-.66c-1.35-.78-3.55-.78-4.9,0l-.05.03c-1.35.78-1.35,2.05,0,2.83l1.12.66c1.35.78,3.55.78,4.9,0l.05-.03c1.35-.78,1.35-2.05,0-2.83"/>
      <path class="cls-5" d="M5.63,3.34c-.62.24-.69.7-.68.82.34-.29,3.35-.76,4.22,1.31-.05-.17-1.05-2.86-3.54-2.14"/>
      <path class="cls-11" d="M6.74,9.19l-.26.08s.86,1.68,2.21.41c.03-.12.17-.52.23-.68-1.45,1.22-2.18.19-2.18.19"/>
      <path class="cls-10" d="M5.9,3.36c-1.99,0-3.61,1.61-3.61,3.61,0,.05,0,.1.02.15-.05.57.29,1.14,1.04,1.57,1.41.81,3.69.81,5.1,0,.75-.43,1.09-1.01,1.04-1.57,0-.05.02-.1.02-.15,0-1.99-1.61-3.61-3.6-3.61"/>
      <path class="cls-5" d="M3.4,4.69c-.78.21-.79.66-.78.79.34-.29,3.35-.76,4.22,1.31-.05-.17-.84-2.66-3.44-2.11"/>
      <path class="cls-5" d="M4.27,3.49c-.62.24-.69.57-.68.7.34-.29,3.35-.76,4.22,1.31-.05-.17-1.05-2.74-3.54-2.01"/>
    </g>
  </g>
</svg>