<?xml version="1.0" encoding="UTF-8"?>
<svg id="uuid-f788bfd4-35b5-480a-bb16-b4287d68a870" data-name="Calque_2" xmlns="http://www.w3.org/2000/svg" viewBox="0 0 33.88 45.45">
  <defs>
    <style>
      .uuid-05da66c6-540a-4bda-bc4a-e581ae083012 {
        fill: #ebd88e;
      }

      .uuid-11a9d5a3-4228-40c8-b8a8-98dd1baf9ba2 {
        fill: #f8c4aa;
      }

      .uuid-0b01d82c-5d5c-462c-845c-48aef54e3a47 {
        fill: #222220;
      }

      .uuid-cd39b7aa-a499-46de-918d-240d56e3a4b1 {
        fill: #f3ac86;
      }

      .uuid-eec7418a-0180-417f-ab1d-22c8aeafb572 {
        fill: #dd2c1f;
      }

      .uuid-dd58c5ed-dcad-4e47-a1ec-6b16cad304e3 {
        fill: #392c2f;
      }

      .uuid-999a43ec-493c-4c04-b79e-7f85a50c9551 {
        fill: #ec696d;
      }

      .uuid-c81282dd-ce1d-47d4-a6cf-8d8a8e1d4b1a {
        fill: #c57972;
      }

      .uuid-84ab450c-fe01-4486-adf0-0f643bf5fe24 {
        fill: #1f1f1d;
      }

      .uuid-bea17310-5122-49c1-b612-71387a3c337c {
        fill: #fff3b9;
      }

      .uuid-d68b9371-850c-4157-a2d3-4566965e3329 {
        fill: #e65154;
      }

      .uuid-91b3b292-9591-44b4-a4be-83e41a2f8440 {
        fill: #d2b279;
      }

      .uuid-848cdcdb-203b-4ff6-86b6-08b829db70c4 {
        fill: #f3af87;
      }

      .uuid-be567c46-2470-4aa3-a55b-d66f5e246354 {
        fill: #e2e0e0;
      }

      .uuid-fcf0da40-f6c4-477e-861a-62e7e1578386 {
        fill: #534048;
      }
    </style>
  </defs>
  <g id="uuid-7158caae-757c-4525-a14f-2461afdd8374" data-name="Les_personnages">
    <g id="uuid-a43c3db4-1cca-4324-b0e0-beaa398c154b" data-name="Chara_x5F_Aveugle_x5F_BG">
      <path class="uuid-bea17310-5122-49c1-b612-71387a3c337c" d="M26.43,27.76c-.33.56-.79,1.1-1.33,1.48-.29.21-.61.37-.94.51-.16.07-.33.14-.5.2-.13.05-.33.17-.46.17.16,0,.32,0,.48,0-.99.56-2.22.47-3.35.3-.54-.08-1.03-.19-1.51-.44-.21-.11-.45-.17-.7-.22-.26-.05-.53-.08-.78-.13-.31-.06-.63-.13-.94-.21-.24-.07-.45-.07-.68-.12-.4-.09-.46-.61-.41-.96.05-.34.28-.63.4-.95.07-.18.11-.39.26-.51.15-.12.35-.12.54-.11.66.06,1.11.49,1.62.83.16.11.32.21.5.29.78.34,1.98-.2,2.73-.5-.03.01-.06.25-.07.28.76-.28,1.4-.75,1.7-1.55,0,.12-.01.24.03.34.05.11.18.18.29.13.05-.03.09-.07.12-.12.07-.09.13-.19.19-.3.03-.05.07-.11.09-.18.04-.08.08-.16.11-.25.08-.19.15-.39.19-.6.02-.06.03-.12.04-.18.02-.08.03-.15.04-.23,0-.06.01-.13.02-.19,0-.01,0-.03,0-.05,0-.03,0-.05,0-.08,0-.02,0-.04,0-.07,0-.15-.02-.37-.01-.6,0-.03,0-.07,0-.1.01-.37.09-.72.38-.81.08-.02.15,0,.22.02.07.03.13.07.19.12.07.06.13.13.18.21.08.14.19.23.29.36.17.22.3.46.45.69.13.2.27.41.39.62.26.47.41,1.01.39,1.55,0,.28-.06.57-.21.8.1-.05.19-.12.25-.21.03.26-.09.51-.22.73"/>
      <path class="uuid-05da66c6-540a-4bda-bc4a-e581ae083012" d="M26.43,27.75c-.33.56-.79,1.1-1.33,1.48-.29.21-.61.37-.94.51-.16.07-.33.14-.5.2-.13.05-.33.17-.46.17.16,0,.32,0,.48,0-.99.56-2.22.47-3.35.3-.54-.08-1.03-.19-1.51-.44-.21-.11-.45-.17-.7-.22-.05-.09-.08-.19-.08-.3,0-.04,0-.07,0-.11l.76.03c1.44.21,2.96.27,4.32-.24,1.37-.51,2.56-1.7,2.71-3.15.09-.79-.14-1.6-.54-2.29-.14-.24-.29-.47-.41-.71.07.06.13.13.18.21.08.14.19.23.29.36.17.22.3.46.45.69.13.2.27.41.39.62.26.47.41,1.01.39,1.55,0,.28-.06.57-.21.8.1-.05.19-.12.25-.21.03.26-.09.51-.22.73"/>
      <path class="uuid-bea17310-5122-49c1-b612-71387a3c337c" d="M7.9,34.47c0,.15,0,.31,0,.46-.01.78-.08,1.54-.14,2.31,0,.06,0,.12-.01.18-.06.8-.08,1.62-.12,2.42-.02.39-.08.79-.09,1.18,0,.37-.17.71-.16,1.08,0,.38.2.71-.06,1.05-.07.09-.16.16-.25.23-.38.28-.96.47-1.29.13-.35-.36-.09-.95.09-1.42.02-.04.03-.08.04-.12.25-.7.28-1.47.3-2.22.03-.92.04-1.92-.32-2.73-.1-.22-.23-.43-.39-.62-.13-.15-.26-.29-.39-.43,0,0,0,0,0,0-.26-.28-.5-.55-.64-.93-.23-.6-.3-1.33.08-1.85.19-.25.46-.43.74-.56.59-.28,1.33-.37,1.87,0,.35.24.56.64.66,1.05.06.26.08.53.09.8"/>
      <path class="uuid-05da66c6-540a-4bda-bc4a-e581ae083012" d="M7.74,37.43c-.06.81-.08,1.62-.12,2.42-.02.39-.08.79-.09,1.18,0,.37-.17.71-.16,1.08,0,.38.2.71-.06,1.05-.07.09-.16.16-.25.23-.38.28-.96.47-1.29.13-.35-.36-.09-.95.1-1.42.01-.04.03-.08.04-.12.23-.08.49-.05.72-.12.3-.08.39-.52.45-.78.16-.65.23-1.32.23-1.98,0-.18,0-.35-.05-.53-.07-.24-.21-.45-.35-.65-.12-.16-.24-.31-.38-.44-.19-.17-.41-.28-.62-.43,0,0-.02-.02-.03-.02-.33-.26-.56-.67-.77-1.03,0-.01-.01-.02-.02-.03,0,0,0,0,0,0-.05-.09-.09-.19-.07-.29.15-.06.33-.01.47.08.32.22.4.6.76.76.4.18.8.36,1.16.62.12.09.23.18.33.28"/>
      <path class="uuid-bea17310-5122-49c1-b612-71387a3c337c" d="M17.9,33.33c-.03,1.58-.29,3.18-.11,4.75.08.66.13,1.38-.2,1.96-.08.15-.2.3-.37.34-.12.04-.26,0-.39.02-.22.02-.42.17-.65.19-.26.03-.52-.12-.63-.36-.24-.52.27-1.3.48-1.75.01-.03.02-.05.03-.08.29-.67.36-1.43.29-2.15-.07-.76-.27-1.5-.48-2.23-.23-.81-.73-1.22-1.53-1.39-.9-.18-1.84-.3-2.62-.78-.53-.33-.62-.58-.36-1.17.43-.97.97-1.92,1.77-2.61,1.3-1.12,2.52,1.56,3.1,2.32.54.71,1.15,1.49,1.58,2.27.09.17.09.37.09.56,0,.03,0,.06,0,.09"/>
      <path class="uuid-05da66c6-540a-4bda-bc4a-e581ae083012" d="M17.79,38.08c.08.66.13,1.38-.2,1.96-.08.15-.2.3-.37.34-.12.03-.26,0-.39.02-.22.02-.42.17-.65.19-.26.03-.52-.12-.63-.36-.24-.52.27-1.3.48-1.75.01-.03.02-.05.03-.08.22-.06.47-.04.7-.06.29-.03.6-.13.72-.39.06-.14.06-.3.05-.45-.04-.83-.07-1.67-.3-2.47-.07-.25-.16-.49-.3-.7-.15-.22-.34-.4-.54-.58-.17-.15-.33-.32-.51-.44-.2-.13-.4-.26-.56-.44-.17-.18-.28-.42-.3-.67-.01-.23.36-.21.53-.19.25.03.49.15.71.27.55.29,1.07.63,1.58.99.01.01.03.02.04.03-.03,1.58-.29,3.18-.11,4.75"/>
      <path class="uuid-84ab450c-fe01-4486-adf0-0f643bf5fe24" d="M17.04,21.63c-1.72,1.46-8.16,8.06-8.16,8.06-.03.08.05.17.13.17,2.42-2.43,4.89-4.8,7.41-7.12.37-.34.76-.71.9-1.2-.09-.05-.2.02-.28.09"/>
      <path class="uuid-bea17310-5122-49c1-b612-71387a3c337c" d="M18.12,31.12c-.41.34-.89.58-1.34.85-.08.05-.16.09-.23.15-.17.11-.33.21-.48.33-.53.38-1.02.81-1.46,1.29-.42.45-.81.94-1.14,1.47-.1.16-.2.32-.3.49-.01.02-.02.04-.04.06-.05.09-.11.18-.16.27-.07.11-.14.23-.21.34-.05.07-.1.14-.15.22,0,0-.01.02-.02.03,0,.01-.01.02-.02.03-.15.2-.31.4-.5.57-.13.12-.27.23-.42.33-.16.11-.34.2-.51.27-.59.25-1.24.33-1.89.34h-.06c-.06,0-.12,0-.18,0-.08,0-.24,0-.43-.01-.26-.02-.57-.05-.75-.13-.06-.03-.1-.06-.12-.1.06.11.12.21.18.31-.8-.25-1.5-.82-1.92-1.54-.02.14-.04.27-.06.41-.54-.56-.96-1.24-1.22-1.97-.09.07-.11.22-.05.32-.07-.1-.33-.69-.63-1.41-.03-.07-.06-.15-.09-.23-.04-.1-.08-.2-.12-.31-.04-.09-.08-.19-.11-.28-.04-.1-.08-.2-.12-.3-.44-1.13-.82-2.22-.7-2.28.31-.15.61-.32.92-.49.12-.07.24-.14.36-.22.4-.24.72-.55,1.11-.8.07-.04.15-.09.24-.08.06,0,.12.04.18.08.08.06.17.11.26.15.04.02.08.04.12.07.03.02.06.03.1.05.08.03.15.07.23.1.04.02.08.03.12.05.02,0,.04.01.06.02.02,0,.04.01.06.02.05.01.09.03.14.05.07.02.14.04.22.06.31.08.63.12.96.13.05,0,.09,0,.14,0,.13,0,.26,0,.38-.02.08,0,.15-.02.23-.03.04,0,.09-.01.13-.02.05,0,.1-.02.15-.03.05,0,.1-.02.15-.03.05-.01.1-.02.15-.04.06-.02.13-.04.19-.06.1-.03.2-.07.3-.11.04-.01.08-.03.12-.05.04-.02.08-.03.12-.05.08-.03.16-.07.24-.11.04-.02.08-.04.12-.06.03-.01.06-.03.08-.04.05-.03.1-.05.15-.08.05-.03.1-.05.14-.08.14-.08.29-.17.43-.26.08-.05.15-.1.23-.14.15-.1.3-.19.45-.29.37-.24.75-.48,1.12-.68,1.15-.61,2.48-1.04,3.76-.77.77.16,1.65.69,2.13,1.36.68.96.14,2.22-.69,2.92"/>
      <path class="uuid-84ab450c-fe01-4486-adf0-0f643bf5fe24" d="M18.37,22.43c-1.3,1.85-5.6,9.04-5.8,9.55l-.08.29c0,.08.09.16.17.13,1.73-2.96,3.53-5.87,5.4-8.74.27-.42.56-.88.57-1.38-.1-.03-.19.07-.25.15"/>
      <path class="uuid-05da66c6-540a-4bda-bc4a-e581ae083012" d="M6.78,31.13c-.02.22-.07.45-.14.66-.09.32-.24.64-.46.89,0-.09-.03-.18-.06-.26-.07.17-.13.33-.23.48-.05.08-.1.15-.16.22-.03.04-.17.16-.17.21,0-.05.01-.11.02-.16-.25.18-.5.35-.78.46-.18.07-.7.27-.87.12-.08-.07-.13-.31-.17-.42-.06-.15-.12-.3-.18-.45,0-.02,0-.03.01-.05.18-.66.24-1.35.19-2.03-.01-.2-.04-.4,0-.6,0-.03.01-.06.02-.09.12-.07.24-.14.36-.22.39-.24.72-.55,1.11-.8.07-.04.15-.09.24-.08.06,0,.12.04.18.08.08.06.17.11.26.15.18.1.38.19.58.26l-.02.12c.17.34.22.69.27,1.06.02.14.02.29.01.43"/>
      <path class="uuid-05da66c6-540a-4bda-bc4a-e581ae083012" d="M9.2,38.13c-.06,0-.12,0-.18,0-.08,0-.24,0-.43-.01-.26-.02-.57-.05-.75-.13-.06-.03-.1-.06-.12-.1.06.11.12.21.18.31-.8-.25-1.5-.82-1.92-1.54-.02.14-.04.27-.06.41-.54-.56-.96-1.24-1.22-1.97-.09.07-.11.22-.05.32-.07-.1-.33-.69-.63-1.41-.03-.07-.06-.15-.09-.23-.04-.1-.08-.2-.12-.31-.04-.09-.08-.19-.11-.28.04-.04.08-.07.12-.09.16-.09.39-.1.52.04l-.03.44c.51.62.6,1.52,1.16,2.11.16.17.35.3.54.44.76.53,1.53,1.07,2.42,1.36.18.06.38.11.53.23.14.11.22.25.27.42"/>
      <path class="uuid-eec7418a-0180-417f-ab1d-22c8aeafb572" d="M6.99,29.58s-.07-.11-.11-.08c.2.58.4,1.37.19,1.97-.18.51-.2,1.11-.6,1.51-.37.37-.9.59-1.41.72-.24.06-.49.1-.73.11-.11,0-.22.01-.32-.03-.09-.04-.15-.11-.18-.21,0,.01-.01.03-.01.05,0,.07-.02.15,0,.22.06.21.24.24.44.27.15.02.31.02.46,0,.32-.03.64-.12.93-.24.18-.07.36-.16.53-.26.36-.21.59-.54.82-.88.58-.89.4-2.23,0-3.16"/>
      <path class="uuid-eec7418a-0180-417f-ab1d-22c8aeafb572" d="M9.6,33.02c-1.47,0-2.56-.52-2.63-.55l.18-.36s2.74,1.3,5.32-.29l.21.34c-1.07.66-2.15.87-3.08.87"/>
      <path class="uuid-bea17310-5122-49c1-b612-71387a3c337c" d="M11.68,36.21c0,.12,0,.25,0,.37,0,.03,0,.06,0,.09,0,.28-.01.56-.03.84-.03.49-.07.98-.11,1.47-.04.77-.08,1.54-.12,2.31-.04.68,0,1.41-.18,2.06-.04.15-.09.3-.09.45.01.4.21.73-.07,1.1-.07.09-.16.16-.25.23-.38.28-.96.47-1.29.13-.35-.36-.09-.95.09-1.42.05-.13.09-.26.13-.39.17-.63.2-1.3.22-1.95.04-1.17.05-2.46-.71-3.36,0,0-.02-.02-.02-.03-.37-.44-.8-.78-1.02-1.34-.23-.6-.3-1.33.09-1.85.19-.25.46-.43.74-.56.59-.28,1.33-.37,1.87,0,.35.24.56.64.66,1.05.06.26.08.53.09.8"/>
      <path class="uuid-05da66c6-540a-4bda-bc4a-e581ae083012" d="M16.06,32.44c-.53.38-1.02.81-1.46,1.29-.42.45-.81.94-1.14,1.47-.1.16-.2.32-.3.49-.01.02-.02.04-.04.06-.05.09-.11.18-.16.27-.07.11-.14.23-.21.34-.05.07-.1.14-.15.22,0,.01-.01.02-.02.03,0,.01-.01.02-.02.03-.15.2-.31.4-.5.57-.13.12-.27.23-.42.33-.03.49-.07.98-.11,1.47-.04.77-.08,1.54-.12,2.31-.04.68,0,1.41-.18,2.06-.04.15-.09.3-.09.45.01.4.21.73-.07,1.1-.07.09-.16.16-.25.23-.38.28-.96.47-1.29.13-.35-.36-.09-.95.09-1.42.05-.13.09-.26.13-.39.26-.1.55-.13.77-.31.29-.24.32-.68.33-1.06,0-.57.01-1.14.02-1.71.01-.86.03-1.76.26-2.6.07-.25.15-.49.26-.72.08-.17.18-.33.28-.48.22-.32.49-.61.73-.93.4-.52.76-1.07,1.12-1.62.8-1.22,1.6-2.44,2.41-3.66-.24.37-.14.91-.01,1.43.05.22.11.44.14.64"/>
      <path class="uuid-eec7418a-0180-417f-ab1d-22c8aeafb572" d="M13.12,34.44c-.03-1.04-.06-2.13-.52-3.06-.35-.72-.95-1.32-1.68-1.65-.46-.21-1.05-.34-1.56-.25-.19.03-.37.14-.54.23.29,0,.55-.03.84.02.26.05.52.13.77.24.49.22.93.55,1.26.98.57.73.8,1.66.98,2.57.04.21.08.42.11.63.03.19,0,.36,0,.55,0,.39-.04.79-.09,1.17-.05.32-.2.6-.35.89-.05.09-.1.17-.12.28.02,0,.04,0,.06-.01.15-.09.29-.2.4-.34.22-.28.33-.61.39-.96.07-.42.05-.85.04-1.27"/>
      <path class="uuid-05da66c6-540a-4bda-bc4a-e581ae083012" d="M3.75,28.49l-.13-.37c-.74-.17-1.53.12-2.1.61-.39.34-.6.71-.71,1.22-.11.5-.11,1.03.01,1.52.09.37.25.75.57.97.11.08.23.13.36.13.08,0,.16-.03.24-.06.23-.1.44-.26.59-.45.08-.1.15-.21.24-.3.14-.13.34-.15.49-.26.16-.12.23-.29.29-.47.09-.27.16-.55.22-.83.11-.57.15-1.18-.06-1.73"/>
      <path class="uuid-bea17310-5122-49c1-b612-71387a3c337c" d="M6.23,32.42c.04-.17-.03-.36-.18-.46-.14.3-.31.59-.53.84-.05-.04-.07-.12-.04-.18-.2.35-.53.64-.92.75-.14.04-.26.09-.41.09-.62-.02-1.25-.15-1.78-.46-.34-.2-.63-.48-.83-.82-.19-.32-.26-.71-.32-1.07-.09-.53.02-1.08.26-1.56.13-.26.3-.5.5-.72.28-.3.62-.53,1.01-.64.36-.1.74-.09,1.1-.04.03,0,.06,0,.09.01.31.05.62.13.88.28,1.2.68,1.64,2.77,1.17,3.98"/>
      <path class="uuid-05da66c6-540a-4bda-bc4a-e581ae083012" d="M7.26,29.17c-.46-.51-1.26-.84-1.82-.86-.87-.03-.11.6.06,1.02.22.53.19,1.14.12,1.71-.07.49-.19.99-.2,1.49-.01.49.25.34.58.14.56-.35,1.25-1.02,1.56-1.6.35-.64.17-1.37-.3-1.9"/>
      <path class="uuid-bea17310-5122-49c1-b612-71387a3c337c" d="M22.73,35.1c0,.19,0,.38-.02.57,0,.09,0,.19-.01.29,0,.02,0,.03,0,.05-.02.32-.04.65-.06.97,0,.06,0,.11-.01.17,0,.07,0,.15-.01.22,0,.13-.02.27-.02.4,0,.03,0,.05,0,.07,0,.15-.01.29-.02.43,0,.15,0,.3,0,.45,0,.41.02.81.07,1.21.08.66.13,1.38-.2,1.96-.08.15-.2.3-.37.34-.12.04-.26,0-.39.02-.23.02-.42.17-.65.19-.26.03-.53-.12-.63-.36-.03-.07-.05-.15-.06-.23,0-.08,0-.16,0-.24.02-.11.05-.22.09-.33.01-.03.02-.06.03-.08.03-.08.07-.16.1-.24,0,0,0,0,0-.01.08-.16.16-.32.23-.45.03-.06.05-.11.08-.16,0-.02.02-.04.03-.07.3-.67.36-1.43.29-2.16-.07-.76-.27-1.5-.48-2.23-.18-.65-.54-1.04-1.09-1.25-.13-.06-.28-.1-.44-.13-.9-.18-1.84-.3-2.62-.78-1.19-.73-1.25-1.84-.84-2.94.07-.18.15-.36.24-.54.14-.27.29-.54.49-.78.27-.32.65-.56,1.06-.64.02,0,.04,0,.05,0,.43-.07.9.04,1.22.34.16.16.29.35.4.56.3.54.76.94,1.11,1.47.24.37.51.72.78,1.08.1.13.2.26.3.4.46.6.93,1.24,1.28,1.88.09.17.09.37.09.56"/>
      <path class="uuid-bea17310-5122-49c1-b612-71387a3c337c" d="M4.07,32.95c0,.39-.85.38-1.15.55-.47.28-.92.77-1.51.74-.16,0-.45-.04-.73-.11-.01,0-.03,0-.04-.01-.04-.01-.09-.03-.14-.04-.29-.11-.53-.28-.51-.54,0-.12.13-.22.2-.3.25-.3.47-.64.7-.96.25-.34.51-.68.76-1.02.05-.07.09-.13.16-.18.11-.09.26-.12.41-.12.59-.01.96.58.95,1.14,0,.01,0,.03,0,.04.21.04.43.11.6.25.07.06.14.13.18.21.07.11.11.23.11.35"/>
      <path class="uuid-91b3b292-9591-44b4-a4be-83e41a2f8440" d="M.88,33.71c-.04.09-.1.17-.18.24-.06.05-.12.09-.19.13-.29-.11-.53-.27-.51-.54,0-.09.14-.24.27-.37.12-.01.26.03.4.1.07.04.14.08.18.15.05.08.06.19.02.29"/>
      <path class="uuid-05da66c6-540a-4bda-bc4a-e581ae083012" d="M4.07,32.95c0,.39-.85.38-1.15.55-.47.28-.92.77-1.51.74-.16,0-.45-.04-.73-.11-.01,0-.03,0-.04-.01.08-.06.16-.1.24-.15.4-.21.8-.43,1.2-.64.25-.13.51-.27.72-.47.21-.2.36-.47.36-.76h0s0,.02,0,.04c.21.04.43.11.6.25.07.06.14.13.18.21.07.11.11.23.11.35"/>
      <path class="uuid-05da66c6-540a-4bda-bc4a-e581ae083012" d="M22.73,35.1c0,.19,0,.38-.02.57,0,.04,0,.09,0,.13,0,.05,0,.1,0,.15,0,.02,0,.03,0,.05,0,.32-.04.65-.06.97,0,.06,0,.11-.01.17,0,.07,0,.15-.01.22,0,.13-.02.27-.02.4,0,.03,0,.05,0,.07,0,.15-.01.29-.02.43,0,.15,0,.3,0,.45,0,.41.02.81.07,1.21.08.66.13,1.38-.2,1.96-.08.15-.2.3-.37.34-.12.04-.26,0-.39.02-.23.02-.42.17-.65.19-.26.03-.53-.12-.63-.36-.03-.07-.05-.15-.06-.23,0-.08,0-.16,0-.24.01-.11.04-.22.09-.33.01-.03.02-.06.03-.08.03-.08.07-.16.1-.24,0,0,0,0,0-.01.08-.16.16-.32.23-.45.03-.06.05-.11.08-.16,0-.02.02-.04.03-.07.05-.05.12-.09.21-.13.52-.19.77-.34.88-.92.2-1.14.28-2.26.1-3.41-.08-.52-.2-1.04-.4-1.53-.22-.51-.54-.98-.88-1.42-.66-.88-1.38-1.7-2.13-2.51-.44-.47-.9-.96-1.18-1.53.02,0,.04,0,.05,0,.43-.07.9.04,1.22.34.16.16.29.35.4.56.3.54.76.94,1.11,1.47.24.37.51.72.78,1.08.1.13.2.26.3.4.46.6.93,1.24,1.28,1.88.09.17.09.37.09.56"/>
      <path class="uuid-be567c46-2470-4aa3-a55b-d66f5e246354" d="M5.61,36.2l-.04-.11s.01.08.04.11"/>
      <path class="uuid-d68b9371-850c-4157-a2d3-4566965e3329" d="M19.83,41.21c0-.18.04-.25.16-.37.22-.22.48-.39.76-.53.38-.19.98-.26,1.32-.5.2-.14.92-.96.96-1.23l1.85.02c.12.15.24.3.33.47.3.53.39,1.25.1,1.8-.32.61-1.06.54-1.65.62-.45.07-.84.27-1.2.54-.33.26-.81.45-1.23.51-.28.04-.58.01-.81-.15-.24-.17-.37-.45-.47-.72-.05-.14-.11-.29-.11-.45"/>
      <path class="uuid-d68b9371-850c-4157-a2d3-4566965e3329" d="M21.67,9.04l2.02.85s0,0,0,0c-.55,2.82-.68,5.02-1.12,5.93-.14.28-.29.02-.51.15-.28.16-1.39-1.83-1.39-1.83.05-1.37.63-4.01,1-5.1"/>
      <path class="uuid-d68b9371-850c-4157-a2d3-4566965e3329" d="M23.12,6.25c-.78-.16-1.22.81-1.5,1.37-.36.71-.62,4.17-.76,4.95-.07.39.59-.78,1.02-.6.32.13.66.22,1,.26.6.07.64-.3.78-.78.15-.53.3-1.07.46-1.6.54-1.83-.15-3.42-.99-3.59"/>
      <path class="uuid-d68b9371-850c-4157-a2d3-4566965e3329" d="M19.55,19.79c-.08.34-.18.53-.52.6-.34.07-.98-.28-.89-.57.28-.89,2.54-5.66,2.78-6.64.1-.39.62.96.98,1.23.83.64.63,1.47.63,1.47-.51.72-2.84,3.27-2.98,3.9"/>
      <path class="uuid-848cdcdb-203b-4ff6-86b6-08b829db70c4" d="M19.56,20.12c0,.06.01.11.02.17.03.31.04.62-.03.93-.09.41-.35.86-.75,1.04-.06.03-.14.04-.19,0-.12-.11.06-.31.11-.4.09-.16.16-.34.2-.52.01-.06.02-.13-.02-.16-.03-.02-.07-.03-.1-.02-.04,0-.07.03-.09.05-.25.21-.4.54-.38.87,0,.13.1.35,0,.46-.16.19-.5-.05-.52-.24-.14-.01-.39-.1-.4-.27,0-.05,0-.11-.03-.15-.01-.03-.04-.05-.06-.07-.08-.09-.11-.2-.12-.32,0-.11.03-.22.04-.33,0-.11.02-.22.05-.33.03-.13.09-.25.11-.38.05-.25.22-.47.39-.66.16-.19.34-.36.5-.56.1-.13.17-.27.24-.42.05-.12.15-.1.24-.03.12.09.22.18.36.23.14.06.29.09.44.1.05,0,.1,0,.12.05.01.02.02.04.02.06.01.11-.06.17-.1.27-.04.1-.06.2-.07.31,0,.11,0,.22.01.33"/>
      <path class="uuid-d68b9371-850c-4157-a2d3-4566965e3329" d="M31.73,30.46c-.07.02-.13.05-.18.11-.16.2-.15.61-.12.85.05.47.2.92.24,1.39.02.25,0,.51-.02.76-.03.34-.06.67-.08,1.01-.02.29.09.49.3.69.06.06.13.11.22.13.07.01.14,0,.2-.02.37-.09.72-.25,1.03-.46.16-.11.31-.24.39-.41.07-.15.08-.32.09-.48.02-.35.04-.71-.03-1.06-.06-.28-.09-.52-.04-.82.04-.23.11-.45.14-.68.04-.23.03-.47-.07-.68-.09-.18-.26-.32-.43-.44-.19-.13-.47-.31-.71-.28-.21.03-.45.23-.65.32-.08.03-.18.04-.26.07"/>
      <path class="uuid-fcf0da40-f6c4-477e-861a-62e7e1578386" d="M29.17,8.95c-1.22-.49-2.31-1.2-3.38-1.97-.02-.24-.03-.49.02-.73.07-.38.26-.75.59-.94.25-.15.56-.18.85-.14.29.04.57.15.84.26.91.4,1.78.91,2.57,1.52.39.3.72.61.94,1-.68.75-1.63,1.3-2.42,1"/>
      <path class="uuid-dd58c5ed-dcad-4e47-a1ec-6b16cad304e3" d="M29.17,8.95c.79.3,1.74-.25,2.42-1,.17.29.27.62.27,1.01.03,1.76-.07,3.67.21,5.41.12.75.16,1.47.07,2.16-.1.73-.35,1.44-.82,2.13-.13.19-.28.38-.48.5-.17.1-.37.15-.57.19-.28.05-.57.1-.86.13-.18.02-.37.03-.54-.04-.18-.07-.32-.23-.45-.39-1.12-1.36-1.5-2.49-1.72-4.21-.16-1.27-.3-2.54-.4-3.81-.04-.58,0-1.21-.12-1.77-.14-.62-.25-1.24-.34-1.87-.02-.14-.04-.28-.05-.41,1.07.77,2.16,1.49,3.38,1.97"/>
      <path class="uuid-dd58c5ed-dcad-4e47-a1ec-6b16cad304e3" d="M21.93,22.82c.42,2.05.28,8.86,2.26,8.19.62-.21,1.64-1.4,1.65-2.78,0-.75-.08-2.36-.09-3.11-.02-1.54,1.39-6.77-1.8-7.51-.48-.11-1.27-.99-1.64-.64-.08.07-.31.41-.46,1.13-.08.41-.1,1.03-.14,1.57-.06.93,0,2.01.23,3.14"/>
      <path class="uuid-dd58c5ed-dcad-4e47-a1ec-6b16cad304e3" d="M23.33,29.46c0,.27.07.5.32.58.28.1.63.12.92.2.67.17,1.35.34,2.02.5.91.22,1.83.48,2.76.64.75.13,1.47.39,2.24.48.11.01.23.03.34,0,.13-.03.25-.1.35-.19.37-.32.62-.91.52-1.4-.1-.5-.65-.72-1.03-.92-1.34-.71-3.85-1.46-5.28-1.96-.71-.24-1.48-.24-2.15.25-.52.37-.89.98-1,1.63-.01.07-.02.13-.02.2"/>
      <path class="uuid-fcf0da40-f6c4-477e-861a-62e7e1578386" d="M27.07,18.81c-1.79-.37-2.02-.11-2.91-1.24-.29.51-.4,1.08-.64,1.6-.22.49-.58.92-.76,1.43-.18.52-.15,1.1.07,1.6.34.75,1.33.81,1.12,1.8-.35,1.66-1.15,3.88-1.06,5.6.02.4.04.8.06,1.2,0,.13.01.26.04.38.05.21.17.39.29.56.13.19.27.4.48.49.15.07.32.07.49.06.37-.03,1.23-.14,1.81-.67.53-.48,1.4-4.08,1.75-4.99.19-.48.38-.97.59-1.44.2-.45.44-.85.6-1.33.32-.96.45-1.97.37-2.98-.03-.4-.09-.8-.26-1.16-.16-.34-.44-.67-.8-.8-.38-.14-.86-.05-1.26-.14"/>
      <path class="uuid-d68b9371-850c-4157-a2d3-4566965e3329" d="M21.42,21c.12.33.42.39.72.49.31.11.61.29.93.41.98.35,1.98.7,3.02.69.57,0,1.14-.12,1.7-.23.42-.09.85-.17,1.27-.26.12-.02.41-.03.49-.12.1-.1.05-.42.05-.54-.02-.67-.11-1.33-.24-1.98-.07-.31-.14-.61-.2-.92-.02-.09-.03-.18-.04-.27-.03-.2-.04-.39-.05-.59-.02-.39,0-.79.02-1.18.02-.26.04-.51.06-.77.09-.92.31-1.83.67-2.69.46-1.1,1.12-2.33.73-3.56-.18-.56-.62-1.01-1.09-1.38-.16-.12-.32-.24-.48-.34-.17-.11-.37-.23-.6-.36-.85-.46-2.08-.98-3.29-1.35-.24-.08-.52-.16-.79-.2-.12-.02-.24-.03-.35-.04-.27-.01-.53.02-.77.14-.49.25-.72.81-.92,1.3-.37.94-.38,1.94-.41,2.96,0,.13,0,.26-.01.38h0c-.02.87,0,1.73,0,2.6v.46c0,2.28-.27,4.57-.45,6.84-.01.17-.03.35.03.52"/>
      <path class="uuid-dd58c5ed-dcad-4e47-a1ec-6b16cad304e3" d="M26.23,13.61c.22,1.04.65,2.03,1.17,2.96.13.24.28.48.45.7.32.39.77.74,1.22.97.02.01.04.02.06.03.48.17.34-.81.34-1.1,0-.1,0-.21-.04-.31-.04-.09-.12-.16-.19-.23-.05-.04-.09-.09-.14-.13-.94-.92-1.57-2.16-1.75-3.47-.19-1.37.11-2.8.84-3.98.17-.27.4-.55.69-.71.16-.09.46-.11.59-.23-.16-.12-.32-.24-.47-.34-.17-.11-.37-.23-.6-.36-.25.12-.49.31-.65.47-1.54,1.45-1.95,3.74-1.52,5.74"/>
      <path class="uuid-dd58c5ed-dcad-4e47-a1ec-6b16cad304e3" d="M21.84,13.18c.06-.05.11-.21.13-.27.09-.19.18-.39.26-.58.26-.59.49-1.19.71-1.8.24-.65.46-1.3.68-1.95.22-.63.43-1.26.67-1.89.1-.26.2-.51.06-.78-.01-.03-.03-.05-.05-.07-.08-.08-.2-.13-.3-.08-.02.01-.04.02-.06.04-.04.03-.06.07-.09.11-.94,1.42-1.63,3.01-2.02,4.67h0c-.02.87,0,1.73,0,2.6"/>
      <path class="uuid-fcf0da40-f6c4-477e-861a-62e7e1578386" d="M22.9,29c-.29,1.71.04,5.19.05,6.71,0,.75.01,1.5,0,2.25-.01.53-.26,1.44.17,1.84.16.15.37.24.58.31.25.08.53.15.78.08.7-.19.86-.99,1.08-1.58.25-.68.47-1.38.57-2.1.22-1.54.23-4.06.3-5.61.02-.47-1.24-.72-1.41-.65-.54.2-2.09-1.44-2.12-1.25"/>
      <path class="uuid-848cdcdb-203b-4ff6-86b6-08b829db70c4" d="M32.01,23.86c-.27.43-.44,1.22-.32,1.71.02.08.05.16.1.22.05.06.14.1.22.07.07-.02.12-.1.13-.18.01-.08,0-.16-.02-.23,0-.02-.02-.04-.04-.04.15-.29.29-.58.44-.87l-.52-.69Z"/>
      <path class="uuid-cd39b7aa-a499-46de-918d-240d56e3a4b1" d="M27.54,7.25c.06,1.88-3.46,1.91-3.41.14.07-2.46.22-2.74,1.38-3.12.32-.11.65-.19.98-.19,1.22-.02.75.6.7,1.03-.14,1.29.32,1.46.34,2.14"/>
      <path class="uuid-848cdcdb-203b-4ff6-86b6-08b829db70c4" d="M30.77,22.35c0-.14.64.68.8.69.14,0,.26.1.33.22.18.33.28.64.3,1.02.03.39,0,.78-.11,1.16-.02.09-.07.19-.16.2-.06,0-.12-.04-.18-.03-.12.02-.1.19-.15.3-.07.17-.37.14-.41-.04-.05.14-.12.29-.25.36-.13.07-.34,0-.34-.15,0,.17-.16.31-.33.3-.17,0-.31-.17-.29-.34.01-.12.09-.23.14-.34.19-.43-.12-.93-.07-1.4.04-.33.17-.61.47-.73.21-.09.26-.83.24-1.21"/>
      <path class="uuid-848cdcdb-203b-4ff6-86b6-08b829db70c4" d="M30.34,23.73c-.36.32-.73.98-.75,1.46,0,.08,0,.16.03.23.03.07.1.13.18.13.07,0,.14-.06.17-.13.03-.07.04-.14.04-.22,0-.02,0-.05-.02-.04.21-.22.42-.45.63-.67l-.28-.76Z"/>
      <path class="uuid-999a43ec-493c-4c04-b79e-7f85a50c9551" d="M30.46,23.17c.03-1.42.29-3.51.2-4.87-.07-1.06-.2-1.73.28-1.8,1.21-.18,2.27.31,2.15,1.21-.09.71-.08,2.14-.48,4.24-.06.3-.16,1.2-.3,1.69-.31.09-1.69-.32-1.85-.48"/>
      <path class="uuid-999a43ec-493c-4c04-b79e-7f85a50c9551" d="M32.16,11.69s-.01-.04-.02-.07c-.18-.54-.29-1.19-.67-1.64-.51-.6-1.12-1.4-2.02-1.2-.71.15-.87.98-.91,1.51-.05.7.16,1.39.23,2.08.08.78,1.68,4.26,1.8,4.8.01.07,2.52.66,2.54.53.12-1.19-.68-5.25-.93-6.03"/>
      <path class="uuid-11a9d5a3-4228-40c8-b8a8-98dd1baf9ba2" d="M22.57,5.72c.05.12.13.21.2.32.04.06.07.12.09.18.08.22.08.46.11.69.04.29.1.56.38.74.14.09.31.11.47.12.21.01,1.14-.25,1.51-.41.4-.18.79-.63,1.08-.96.23-.26.61-.59.75-.9.04-.09-.06-.11.03-.16.06-.03.13-.4.19-.41.08,0,.18-.09.25-.14.13-.08.19.22.23.08.18-.62.4-1.25.37-1.89-.02-.6-.01-1.11-.39-1.61-.29-.38-.7-.66-1.14-.83-.68-.26-1.45-.27-2.14-.04-.65.22-1.23.67-1.6,1.25-.25.4-.4.87-.39,1.36,0,.21.04.43.11.63.07.19.19.37.19.58,0,.24-.17.52-.25.75-.07.21-.11.44-.03.64"/>
      <path class="uuid-c81282dd-ce1d-47d4-a6cf-8d8a8e1d4b1a" d="M25.2,2.31c.17-.03.34-.02.49.05.26.12.42.4.46.68.09.63-.12,1.25-.14,1.87,0,.09,0,.19.05.27,0,.07.13.12.18.12.08,0,.15-.03.21-.08.08-.05.12-.13.22-.16.09-.04.19-.04.26.03.05.04.07.1.1.15.1.24.13.51.16.77.12-.05.18-.12.26-.22.07-.09.17-.17.25-.26.16-.18.3-.39.41-.6.34-.62.51-1.33.53-2.04.04-1.74-1.16-2.06-1.16-2.06,0,0-.53-.9-1.93-.83-.73.03-1.45.27-2.08.66-.03.01-.05.03-.07.05-.3.2-.59.43-.78.73-.54.83.19,1.49,1.06,1.35.41-.07.79-.26,1.18-.39.11-.04.23-.07.35-.09"/>
      <path class="uuid-0b01d82c-5d5c-462c-845c-48aef54e3a47" d="M27.96,3.93c-.11-.05-.24-.05-.36-.04-.27.02-.54.05-.8.1-.15.03-.29.07-.44.09-.14.02-.29,0-.43.01-.31,0-.62,0-.92,0,.04.16.09.33.13.49.21-.07.43-.1.65-.12.45-.04.9-.09,1.34-.11.2,0,.4-.03.61-.06.13-.02.27-.03.4-.07.04-.12-.05-.25-.16-.3"/>
      <path class="uuid-11a9d5a3-4228-40c8-b8a8-98dd1baf9ba2" d="M27.27,4.18c.52-.03.65.61.29,1.1-.1.14-.29.27-.42.39-.92.79-1.16-.06-.86-.33.68-.62.34-1.11.99-1.15"/>
      <path class="uuid-848cdcdb-203b-4ff6-86b6-08b829db70c4" d="M26.96,5.4c.06-.05.65-.4.25-.64-.11-.07-.23.03-.25.15,0,.06.01.12,0,.18,0,.04-.02.07-.04.1-.05.08-.23.17-.2.29.03.11.2-.06.24-.09"/>
      <path class="uuid-c81282dd-ce1d-47d4-a6cf-8d8a8e1d4b1a" d="M26.1,4.55c0,.39-.06.83-.35,1.19-.44.53-1.29,1.49-2.07,1.25-.18-.06-.75-.46-.75-.46,0,0-.38,1.04-.42,1.33-.05.42.04.86.28,1.23.21.34.53.66.89.85.52.27.81.14,1.2-.25.36-.36.66-.76.92-1.2.49-.83.89-1.8.76-2.79-.04-.27-.15-.84-.47-1.16"/>
      <path class="uuid-c81282dd-ce1d-47d4-a6cf-8d8a8e1d4b1a" d="M22.85,6.23c.08.22.08.46.11.69.01,0,.02,0,.03,0,.1-.03-.06-.18,0-.24.07-.09.22-.08.31-.06.21.07.31.19.4.41.05.12.38.19.52.13.05-.02.08-.06.09-.1.03-.1-.24-.52-.47-.68-.19-.14-.7-.28-.99-.16"/>
      <path class="uuid-0b01d82c-5d5c-462c-845c-48aef54e3a47" d="M25.12,4.01c-.01-.26-.2-.33-.39-.36-.25-.04-.51-.05-.76-.01-.12.02-.24.05-.36.1-.16.06-.26.2-.45.18-.1-.01-.16-.08-.25-.12-.07-.03-.13-.06-.2-.1-.06-.03-.12-.05-.19-.06-.16-.03-.32-.03-.48-.04-.13,0-.3,0-.39.15-.08.14-.05.38-.04.54.01.18.04.37.11.53.08.2.22.37.39.44.17.07.41.11.57,0,.12-.08.23-.27.3-.41.09-.17.14-.36.17-.56,0-.04.02-.08.05-.09.07-.01.23.43.27.53.1.23.25.44.45.54.31.16.73.1,1-.14.19-.17.2-.45.19-.71,0-.14,0-.29-.01-.43"/>
      <path class="uuid-11a9d5a3-4228-40c8-b8a8-98dd1baf9ba2" d="M23.17,4.25s-.58.85-.64,1.13c-.06.28.28.49.28.49,0,0,.38-.93.43-1.48l-.07-.14Z"/>
      <path class="uuid-84ab450c-fe01-4486-adf0-0f643bf5fe24" d="M18.47,22.91s.27-.45.31-.84-.31-.61-.31-.61l-.15.33s.33.12.04.62l.1.5Z"/>
    </g>
  </g>
</svg>