<?xml version="1.0" encoding="UTF-8"?>
<svg id="Calque_2" xmlns="http://www.w3.org/2000/svg" viewBox="0 0 29.23 56.58">
  <defs>
    <style>
      .cls-1 {
        fill: #f4c900;
      }

      .cls-2 {
        fill: #243268;
      }

      .cls-3 {
        fill: #e84f0e;
      }

      .cls-4 {
        fill: #1397d5;
      }

      .cls-5 {
        fill: #235aa3;
      }
    </style>
  </defs>
  <g id="_Éléments_Mise_en_page" data-name="Éléments_Mise_en_page">
    <g>
      <path class="cls-3" d="M12.95,1.68c.38-.36.84-.57,1.34-.71.64.54,1.35.93,2.12,1.29-.06.03-.11.05-.17.08.01.84.64,1.67,1.41,2.1.95.54,2.08.66,3.13.97,1.29.39,1.93,1.7,1.76,2.98-.24,1.79-1.82,2.68-3.52,2.74-1.79.06-3.6-.63-4.9-1.86-1.3-1.24-2.08-3-2.12-4.8-.02-1.01.22-2.09.96-2.78"/>
      <path class="cls-5" d="M29.03,6.43c-.12-.06-1.46.11-1.92.22l-1.9,4.23,1.66-.33c.18.08.38,0,.46-.17l1.86-3.48c.08-.17,0-.38-.17-.46"/>
      <path class="cls-4" d="M25.24,10.71h0c-.17-.08-.25-.29-.17-.46l1.86-3.48c.08-.17.29-.25.46-.17.17.08.25.29.17.46l-1.86,3.48c-.08.17-.29.25-.46.17"/>
      <path class="cls-1" d="M8.89,52.63c-.02.12-.03.24-.02.36.03.51.32.98.65,1.44.34.47.72.93.93,1.42.1.23.16.56-.06.68-.08.04-.17.04-.26.04-1.17-.07-2.31-1.09-3.21-1.77-.5-.38-.54-1.02-.48-1.67,0-.04,0-.09.01-.13.05-.42.13-.84.14-1.18.04-1.07.08-2.14.11-3.2.04-1.2.06-2.41.07-3.62.02-1.58.02-3.87,0-5.47-.01-1.71-.04-3.42-.07-5.12-.01-.62-.02-1.23-.04-1.85-.01-.78-.03-1.55-.04-2.33.58-.66,1.34-1.12,2.17-1.14,1.16.29,2.23,1.12,2.94,2.14.18.35.32.72.44,1.1-.18,3.39-.6,7.81-1.22,10.7-.44,2.05-.71,2.7-1.05,4.37-.32,1.61-.66,3.22-.96,4.84,0,0,0,0,0,0-.02.12-.04.24-.07.36"/>
      <path class="cls-2" d="M10.46,55.86c-.21-.49-.6-.95-.94-1.42.08.22.16.45.2.7.02.11.01.25-.09.3-.06.03-.13,0-.19-.01-.64-.22-1.19-.64-1.73-1.05-.29-.23-.67-.44-.93-.71-.13-.13-.21-.37-.34-.51-.06.64-.02,1.28.48,1.67.89.68,2.04,1.7,3.21,1.77.09,0,.18,0,.26-.04.22-.12.16-.45.06-.68"/>
      <path class="cls-1" d="M16.94,48.75c-.02.12-.03.24-.02.36.03.51.32.98.65,1.44.34.47.72.93.93,1.42.1.23.16.56-.06.68-.08.04-.17.04-.26.04-1.17-.07-2.31-1.09-3.21-1.77-.5-.38-.54-1.02-.48-1.66,0-.04,0-.09.01-.13.05-.42.13-.84.14-1.18.04-1.07.08-2.13.11-3.2.04-1.2.06-2.41.07-3.62.02-1.58.02-3.87,0-5.47-.01-1.71-.04-3.42-.07-5.12-.01-.62-.02-1.23-.04-1.85-.01-.78-.03-1.55-.04-2.33.58-.66,1.34-1.12,2.17-1.14,1.16.29,2.23,1.11,2.94,2.14.18.35.32.72.44,1.1-.18,3.39-.6,7.8-1.22,10.7-.44,2.05-.71,2.7-1.05,4.37-.32,1.62-.66,3.22-.96,4.85,0,0,0,0,0,0-.02.12-.04.24-.07.36"/>
      <path class="cls-2" d="M18.5,51.97c-.21-.49-.6-.95-.94-1.42.08.22.16.45.2.7.02.11.01.25-.09.3-.06.03-.13,0-.19-.01-.64-.22-1.19-.64-1.73-1.05-.29-.23-.67-.44-.93-.71-.13-.13-.21-.37-.34-.51-.06.64-.02,1.28.48,1.66.89.68,2.04,1.7,3.21,1.77.09,0,.18,0,.26-.04.22-.12.16-.45.06-.68"/>
      <path class="cls-5" d="M26.89,11.98c-.58-.24-1.23-.63-1.91-.88l-.65.91-2.1,2.96s-2.74-5.6-2.74-5.6c-.6-1.23-1.86-2.05-3.23-2.11-1.57-.06-2.01,1.13-1.88,2.58.06.72.31,1.42.6,2.08.63,1.43,1.46,2.76,2.34,4.05.57.85,1.17,1.69,1.91,2.41,1.33,1.3,2.66,1.94,4.08.41,1.2-1.29,1.89-2.95,2.68-4.5.38-.75.76-1.49,1.15-2.24-.08-.02-.16-.05-.24-.08"/>
      <path class="cls-5" d="M19.26,21.45c-.36-1.96-.45-4.01-.66-6,.74-1.67.88-3.53.42-5.26.32-2.29-1.86-3.03-4.14-3.12-1.56-.07-3.16.17-4.06.42-.29.08-.57.17-.85.26-.27.1-.53.2-.79.3-2.3.96-4.3,2.34-3.82,5.14.14.8.43,1.54.67,2.32.65,2.13.58,4.35.58,6.55,0,1.35-.42,2.81,1.22,3.2,1.93.45,3.94.65,5.9.34,1.34-.21,2.64-.65,3.8-1.36.55-.33,1.16-.74,1.58-1.24.49-.6.27-.84.15-1.54"/>
      <path class="cls-1" d="M28.57,8.89s0,.02.01.03c.03.07.05.16.03.24-.01.08-.05.15-.09.21-.7,1.23-1.31,2.52-1.95,3.78l-2.24-1.14c.32-.44.63-.89.95-1.33.23-.32.47-.63.68-.96.27-.41.43-.77.85-1.07.28-.2.62-.32.97-.29.33.03.65.23.79.53"/>
      <path class="cls-4" d="M21.02,27.19c-.04-1.78-.24-3.53-.76-5.19-.19-.46-.4-.92-.66-1.36-.17-.3-.34-.59-.5-.89-1,.58-2.02,1.09-3.1,1.46-1.37.53-2.8.86-4.31.78-1.81-.09-3.72-.63-5.18-1.74l.09,17.85s2.58,2.33,5.75,2.34c4.89.02,7.71-2.52,7.71-2.52l.9-9.67c.03-.35.05-.7.06-1.05"/>
      <path class="cls-5" d="M10.04,26.04c0,.35-.16.69-.47.91-.43.31-1.01.28-1.41-.08l-2.05-1.85-.48-.38-4.09-3.26-.77-.62c-.73-.66-.96-1.71-.61-2.6.27-.34.52-.68.78-1.03,1.5-2.05,2.81-4.21,4.35-6.24.37-.49.78-.99,1.36-1.19.55-.19,1.15-.07,1.72.05.26.05.45.31.66.46.36.26.66.6.81,1.01.23.62.1,1.32-.22,1.9-.33.61-.87,1.09-1.27,1.64-.51.7-1.04,1.39-1.58,2.07-.55.7-1.1,1.4-1.64,2.09-.06.08-.12.15-.18.23-.14.17-.13.42.01.59l.32.36.42.48,1.88,2.17,1.12,1.29.86.99c.08.09.14.2.2.3h0c.17.22.26.48.26.73"/>
      <path class="cls-3" d="M15.86,4.58c-1.04,1.04-2.72,1.04-3.76,0-1.04-1.04-1.04-2.72,0-3.76,1.04-1.04,2.72-1.04,3.76,0,1.04,1.04,1.04,2.72,0,3.76"/>
      <path class="cls-1" d="M16.74,3.11c0-1.22-.95-2.22-2.16-2.3-.05,0-.1,0-.15,0-1.24,0-2.25.99-2.29,2.22l-.38-.24.02,4.35c0,.61.49,1.12,1.11,1.13h.65c.64.03,1.17-.49,1.16-1.14l-.03-1.74c1.16-.12,2.06-1.1,2.06-2.29"/>
      <path class="cls-3" d="M11.71,5.14c.45-.74,1.29-1.14,2.11-1.44.82-.3,2.12-.54,2.78-1.11.43-.37.76-.92.66-1.48-.09-.53-.57-.94-1.1-1.04-1.38-.26-2.79.17-3.81,1.13-1.53,1.44-.24,2.52-.7,4.19l.06-.25Z"/>
      <path class="cls-1" d="M13.85,3.8c0,.45-.36.81-.81.81s-.81-.36-.81-.81.36-.81.81-.81.81.36.81.81"/>
      <path class="cls-1" d="M10.04,26.04c0,.35-.16.69-.47.91-.43.31-1.01.28-1.41-.08l-2.05-1.85-.48-.38,1.95-1.91,1.12,1.29.86.99c.08.09.14.2.2.3h0c.17.22.26.48.26.73"/>
    </g>
  </g>
</svg>