<?xml version="1.0" encoding="UTF-8"?>
<svg id="Calque_2" xmlns="http://www.w3.org/2000/svg" viewBox="0 0 13.36 41.8">
  <defs>
    <style>
      .cls-1 {
        fill: #009d4a;
      }

      .cls-2 {
        fill: #f3aac6;
      }

      .cls-3 {
        fill: #302879;
      }

      .cls-4 {
        fill: #56adad;
      }
    </style>
  </defs>
  <g id="_Éléments_Mise_en_page" data-name="Éléments_Mise_en_page">
    <g>
      <path class="cls-2" d="M6.48,26.7c-.02-.17-.04-.34-.07-.51-.25-1.79-.41-4.44-1.78-5.73-1.95-1.84-2.95,1.09-3.12,2.67-.18,1.76.59,3.44,1.45,4.92,1.02,1.77.72,3.18-.06,5.01-.52,1.22-.82,2.52-1.07,3.82-.12.62-.14,1.33-.34,1.93-.06.16-.16.3-.24.45.42.54.9,1.02,1.43,1.44.09.06.19.13.28.19.05-.04.1-.07.14-.11-.07-.11-.14-.2-.19-.27,0,0-.01-.02-.02-.02-.1-.13-.15-.28-.15-.43,0-.32.18-.69.39-1.01.95-1.45,1.62-3.23,2.37-4.79,1.15-2.38,1.3-4.92.98-7.56"/>
      <path class="cls-2" d="M10.33,39.75c-.06.23-.4.21-.62.13-.54-.21-1.99-.79-2.19-1.4-.04-.11-.03-.22-.02-.34,0-.09.02-.18.02-.26.07-1.15-.3-2.21-.38-3.34-.09-1.21,0-2.56.1-3.77.12-1.29.34-2.49.23-3.75-.19-2.15-.47-4.37.13-6.5.3-1.08.91-2.77,2.13-3.05,1.15-.27,1.29.72,1.37,1.66.12,1.48-.04,3.07-.17,4.55-.25,2.86-.59,5.65-1.12,8.48-.35,1.86-.33,3.78-.75,5.62,0,0-.07.49-.07.49.01.03.02.05.04.08.01.02.03.04.04.06,0,.01.02.02.03.03.02.02.05.04.07.06.02.01.03.02.05.03.32.19.6.43.84.71.05.06.1.13.15.19.07.1.14.22.11.34"/>
      <path class="cls-4" d="M2.58,41.24s0,.05,0,.07l.05-.08h-.04Z"/>
      <path class="cls-2" d="M13.19,16.32c-.13-1.05-.21-2.08-.09-3.15.1-.89.05-1.79-.02-2.68-.03-.39.21-1.52.07-1.83-.56-1.19-1.19.93-1.27,1.32-.24,1.13-.17,2.4-.23,3.55-.08,1.56-.23,3.1-.08,4.67.12,1.28.36,2.46.55,3.73.04.29.34,2.26.9,1.32.37-.62.18-.78.25-1.51.13-1.3.12-3.88-.05-5.15-.01-.1-.03-.19-.04-.28"/>
      <path class="cls-1" d="M12.43,21.05c-.05-.34-.09-.68-.12-1.03-.02-.31-.05-.61-.07-.92-.13-1.56-.24-3.13-.27-4.7-.01-.79-.26-1.6-.28-2.41-.01-.53.07-1.06.39-1.58.2-.34.49-.6.77-.85.33-.3.49-.75.4-1.18-.33-1.69-1.12-3.18-2.76-3.62-2.69-.72-5.51.3-7.85,1.58-.52.62-.95,1.32-1.21,2.1-.03.1-.09.17-.16.22-.68,1.71-1.04,3.51-.86,5.33.32.14.63.24.87.32v.07L.29,25.87c-.07.49-.04.98.19,1.43.58,1.15,1.83,2.14,3,2.69,1.82.87,1.94.81,3.85.9.77.04,2.91-.73,3.56-1.16.49-.32,1.4-.64,1.79-.99.53-.47.52-1.54.51-2.19-.03-1.85-.5-3.67-.75-5.51"/>
      <path class="cls-3" d="M1.97,20.39s.05.02.07.03c1.22.55,1.61-.36,1.85-1.47.06-.3.09-.54.08-.75-.03-.85-.62-1.1-1.53-1.8-.91-.7-1.65-1.51-2.26,0-.6,1.49.37,3.32,1.79,3.98"/>
      <path class="cls-3" d="M9.73,4.45c-1.43,4.2-2.39,9.97-6.44,13.41-.06.05-.15.05-.21,0h0c-.07-.06-.07-.17,0-.23,4.59-4.84,4.85-8.84,6.28-13.01.05-.15.21-.24.37-.19.01,0,.02.01.01.03"/>
      <path class="cls-3" d="M8.45.01c-1.12-.15-2.78,1.38-3.46,1.98-1.58,1.37-2.96,3.03-3.77,4.98-.14.35-.48,1.06-.33,1.44.3.75,1.03.29,1.69.21,1.46-.16,2.56-.61,3.18-2.1.52-1.24,1.71-1.87,2.44-2.94.38-.55,1.38-1.9,1.17-2.6-.19-.64-.53-.92-.94-.98"/>
      <path class="cls-3" d="M10.33,39.75c-.06.23-.4.21-.62.13-.54-.21-1.99-.79-2.19-1.4-.04-.11-.03-.22-.02-.34,0-.09.02-.18.02-.26.46.4,1.17.83,1.5.47.02-.02.03-.04.04-.06-.02.04-.01.08,0,.11,0,.01,0,.02.01.03,0,0,0,0,.01,0,.02.02.05.04.07.06.02.01.03.02.05.03.32.19.6.43.84.71.05.06.1.13.15.19.07.1.14.22.11.34"/>
      <path class="cls-3" d="M3.58,41.54s-.04.08-.06.11c-.52.71-2.44-1.44-2.41-2.05,0-.07.02-.13.04-.19.02-.05.04-.09.06-.13.03-.05.05-.11.08-.18.21.58.84.75,1.44.96,0,.15.04.3.15.43,0,0,.01.01.02.02.21.27.68,1.03.68,1.03"/>
      <path class="cls-2" d="M6.54,11.5c-.2.24-.38.51-.54.75-.47.72-.83,1.51-1.48,2.1-.62.56-1.46,2.04-2.48,1.62-.65-.27-1.77-1.56-1.46-2.26.23-.53,1.49-.82,1.98-.98.07.11.11.24.19.35.43-.47,1.15-.71,1.65-1.16.72-.65,1.35-1.42,2.17-1.96.44-.29,2.46-.97,1.62.26-.27.4-.85.51-1.21.82-.16.13-.31.29-.45.47"/>
      <path class="cls-2" d="M8.83,1.68c-.07.04-.13.08-.2.11-.09.05-.19.11-.29.15-.35.3-.78.52-1.23.65-.14.06-.29.11-.44.15-.01.02-.02.03-.03.05h0c-.16-.03-.3,0-.38.11-.13.17-.03.46.21.65.04.03.09.06.14.08-.03.36-.05.82-.05,1.2-.07.28-.12.43,0,.78,0,.08.02.15.05.21.21.59,1.17.7,1.38,0,.21-.71.07-.99.07-1.72.35-.02.65-.29.81-.61s.2-.67.25-1.02c.02-.15.04-.31.04-.47-.12-.09-.23-.19-.33-.3"/>
      <path class="cls-3" d="M6.54,2.73c.94.13,1.73-.32,2.19-.99.08-.11.51-.27.49-.42-.03-.27-.55-.18-.73-.13-.54.13-2.11.85-1.96,1.54"/>
    </g>
  </g>
</svg>