<?xml version="1.0" encoding="UTF-8"?>
<svg id="Calque_2" xmlns="http://www.w3.org/2000/svg" viewBox="0 0 15.09 53.8">
  <defs>
    <style>
      .cls-1 {
        fill: #f08c8e;
      }

      .cls-2 {
        fill: #9fc5e9;
      }

      .cls-3 {
        fill: #f3a3a7;
      }

      .cls-4 {
        fill: #fff;
      }

      .cls-5 {
        fill: #e88a56;
      }

      .cls-6 {
        fill: #656da4;
      }

      .cls-7 {
        fill: #6a374f;
      }

      .cls-8 {
        fill: #f08c8d;
      }

      .cls-9 {
        fill: #f3a4a5;
      }

      .cls-10 {
        fill: #cdcedd;
      }

      .cls-11 {
        fill: #f4ab9d;
      }

      .cls-12 {
        fill: #401e2e;
      }

      .cls-13 {
        fill: #6b3750;
      }

      .cls-14 {
        fill: #efb871;
      }

      .cls-15 {
        fill: #f0888c;
      }

      .cls-16 {
        fill: #d71b5b;
      }

      .cls-17 {
        fill: #f5f4f8;
      }

      .cls-18 {
        fill: #a79a98;
      }
    </style>
  </defs>
  <g id="_Éléments_Mise_en_page" data-name="Éléments_Mise_en_page">
    <g>
      <path class="cls-12" d="M4.35,5.37c.13.79.84,1.4,1.62,1.57.78.18,1.6-.01,2.33-.35.24-.11.5-.26.6-.51.07-.17.06-.37.04-.56-.07-.77-.14-1.53-.23-2.3-.04-.32-.08-.65-.23-.94-.38-.71-1.34-.92-2.1-.69-1.66.5-2.31,2.11-2.03,3.77"/>
      <path class="cls-1" d="M3.55,17.98s0,.01,0,.02c-.23.66-.39,1.89-.51,2.58-.16.93-.22,3.83-.23,4.78-.03,1.86-.05,3.11.27,5.36.11.79.71,1.41,1.49,1.55l.12.02c.68.12,1.34-.33,1.47-1.01.32-1.68.55-3.02.88-4.71.25-1.32.73-4.27.99-5.59.09-.5.26-1.8.35-2.3.15-.78.15-1-.2-1.7-.38-.74-1.02-.89-1.8-1-.28-.04-.56-.08-.84-.04-.5.07-.95.36-1.28.74-.32.38-.54.83-.7,1.3"/>
      <path class="cls-9" d="M11.69,23.4c-.19-.07-.34-.23-.32-.49.16-1.94-.9-3.96-2.08-5.43-.08-.1-.11-.21-.11-.31-.48.02-.95.27-1.36.53-.17.11-.33.22-.46.37-.14.17-.22.37-.28.58-.16.52-.21,1.02-.16,1.56.05.51.1,1.27.15,1.78.14,1.36.35,4.39.49,5.75.17,1.73.28,3.11.46,4.84.07.7.7,1.23,1.42,1.19h.12c.82-.05,1.5-.61,1.69-1.39.54-2.23.64-3.49.79-5.37,0-.04,0-.08.01-.12-.08-1.16-.21-2.32-.35-3.48"/>
      <path class="cls-3" d="M12.09,38.39c0-.72-.04-1.45-.09-2.17.01-1.18-.26-2.26-.55-3.42-.09-.35-.49-1.12-.66-1.44-1.06-1.97-2.71-.63-2.65,1.23.05,1.43.17,2.83.27,4.24.18,2.58.35,5.17.53,7.75.08,1.08.06,2.21.23,3.29.08.51.08.95.05,1.39l-.04.17c-.04.36-.4,2.44-.44,2.9.02.12.09.1.18.05-.02.37-.03.73.02,1.1.02.17.17.29.34.26.11-.02.23-.08.31-.16.16-.15.25-.37.34-.58.03-.08.06-.15.09-.23.21.03.42.03.47-.04.27-.38.27-1.26.26-2.02.03-.22.05-.45.05-.71,0-.13,0-.27-.01-.42-.03-.43.03-.86.1-1.29.49-3.25,1.21-6.6,1.21-9.9"/>
      <path class="cls-3" d="M8.73,52.23s0,.05,0,.07c0-.02,0-.05,0-.07"/>
      <path class="cls-3" d="M8.73,52.36s0-.02,0-.04c0,0,0-.01,0-.02,0,.03,0,.05,0,.05"/>
      <path class="cls-3" d="M8.73,52.23s0-.01,0-.02c0,0,0,.01,0,.02"/>
      <path class="cls-1" d="M4.99,44.8l.56-2.35.82-4.35c.25-1.31.38-2.64.39-3.97.01-1.15-.29-2.23-.47-3.36-.1-.61-.21-1.25-.6-1.74-.1-.13-.22-.24-.37-.31-.21-.09-.46-.07-.69-.03-.49.08-1.01.25-1.31.66-.3.41-.31.96-.3,1.47.04,3.82.17,7.61.17,11.45,0,1.08,0,2.16,0,3.24v.7c0,.16-.05.33-.13.46.38.51,1.14.64,1.73.32.13-.07.25-.08.35-.04,0-.03,0-.06.01-.09l.1-1.35v-.21s-.26-.51-.26-.51Z"/>
      <path class="cls-13" d="M8.63,53.6c.26.47,1.82,0,2.04-.43.22-.43.15-1.36.15-1.87,0-.09.01-.43.04-.93-.04.2-.08.42-.12.65-.13.96-.21,1.34-1.26,1.49-.46.07-.66-.33-.73-.79-.15.81-.27,1.62-.13,1.88"/>
      <path class="cls-5" d="M5.65,9.26c-1.21,2.82-1.34,3.68-2.28,5.41-.4.73-1.14,1.49-1.8.7-.3-.36-.06-1.12.04-1.55.48-2.06,1.07-4.16,1.89-6.11.19-.45.4-.91.75-1.25.55-.54,1.41-.45,1.79.23.36.64-.11,1.91-.4,2.57"/>
      <path class="cls-1" d="M2.8,14.62c-.41.65-1.17,1.3-1.81.51-.29-.36-.04-1.05.07-1.44,0,0,1.3-.16,1.73.93"/>
      <path class="cls-14" d="M15.09,28.68c-.29.73-.86,1.32-1.56,1.75-.14.09-.29.17-.44.24-3.14,1.54-7.11,1.49-10.06-.43-.16-.11-.33-.23-.41-.4-.06-.14-.07-.3-.07-.45-.01-2.9.11-5.8.37-8.68.15-1.67-.02-1.74,1.12-2.25,1-.45,2.66-.66,3.77-.92.7-.16,1.23-.21,1.66-.14.17.03.33.07.48.14.64.27,1.07.87,1.62,1.75,1.09,1.74,1.54,3.77,1.8,5.77.18,1.38.43,2.97,1.73,3.62"/>
      <path class="cls-14" d="M3.11,19.35c.74.98,1.82,1.62,3.02,1.8.28.04.5.07.59.08.09,0,.18.02.27.03.39-.02.77-.06,1.15-.11.39-.08.77-.2,1.14-.35.2-.08.39-.18.58-.28.12-.07.24-.14.36-.22.3-.19.58-.41.84-.66-.27-.94-.54-1.89-.81-2.83-.23-.82-.34-1.47-.29-2.15.03-.39.12-.79.27-1.25.37-1.13.89-2.16,1.21-3.25.15-.5.28-1.07.14-1.57-.06-.2-.16-.4-.32-.57-.57-.6-1.27-.87-2.02-1.17-.04-.02-.08-.03-.12-.04-.1-.04-.21-.07-.31-.11-.81-.27-1.66-.44-2.53-.6-.06-.01-.13-.02-.2-.04-.08-.01-.16-.02-.24-.03-.66-.05-1.34.15-1.72.68-.19.26-.29.58-.38.9-.23.82-.43,1.7-.44,2.6,0,.38.03.77.11,1.16.36,1.72.77,2.99.39,4.8-.23,1.05-.46,2.13-.69,3.22"/>
      <path class="cls-15" d="M5.54,10.62c-.01.16.19.21.29.08.45-.6.9-1.2,1.34-1.8.33-.45.67-.9,1-1.35.14-.19.49-.55.64-.86-.81-.27-1.66-.44-2.53-.6-.06-.01-.13-.02-.2-.04-.08-.01-.16-.02-.24-.03-.07.38-.02.86-.05,1.23-.04.49-.08.99-.11,1.49-.05.63-.1,1.26-.15,1.89"/>
      <path class="cls-5" d="M6.74,13.89c.15.11.3.22.44.34.88.71,1.2.53,1.61,1.22.19.32.83,3.23,1.07,5.07.12-.07.24-.14.36-.21.3-.19.58-.42.84-.66-.27-.94-.54-1.89-.81-2.83-.23-.82-.34-1.47-.29-2.15.03-.39.12-.79.27-1.25.37-1.13.89-2.16,1.21-3.25.15-.5.28-1.07.14-1.57-.84.56-1.33,1.76-1.7,2.66-.32.77-.69,1.67-1.27,2.22-.46.44-1.05.66-1.87.44"/>
      <path class="cls-9" d="M11.4,15.32c-.69-1.75-1.31-3.58-1.65-5.43-.08-.43-.15-.88-.04-1.3.17-.68.92-1.06,1.58-.76.63.29.91,1.45,1.02,2.09.49,2.68.83,3.38.97,5.12.06.74-.15,1.68-1.1,1.44-.43-.11-.64-.79-.78-1.16"/>
      <path class="cls-14" d="M11.29,7.82s1.13-.63,1.78,5.77c0,0-.74,1.08-2.11.47l-1.69-3.63.33-2.38.68-.45c.34-.23.8-.13,1.01.22"/>
      <path class="cls-5" d="M15.09,28.68c-.29.73-.86,1.32-1.56,1.75-.56-.66-.92-1.51-1.13-2.36-.3-1.2-.36-2.45-.61-3.66-.29-1.36-1.25-2.62-1.86-3.85-.52-1.06-.14-1.85.01-3.02.64.27,1.07.87,1.62,1.75,1.09,1.74,1.54,3.77,1.8,5.77.18,1.38.43,2.97,1.73,3.62"/>
      <path class="cls-3" d="M7.28,20.62s.02-.05.04-.08c.22-.38.42-.77.66-1.15.82-1.3,1.76-2.51,2.72-3.7.51-.63,1.44-2.06,2.36-1.03.93,1.06-.93,2.61-1.54,3.25l-.65.69c-.82.87-1.63,1.71-2.52,2.51-.12.11-.25.22-.41.27-.47.14-.84-.34-.65-.77"/>
      <path class="cls-8" d="M5.28,45.97l-.26-1.06c.02-.06.03-.11.05-.17,0,0-.01,0-.02-.01-.15-.14-.31-.27-.45-.42-.62-.14-1.09.39-1.49.97-.02.26-.19,2-1.49,3.03-.04.07-.08.16-.07.24.02.15.19.24.33.27.5.12,1.04-.04,1.4-.39.53-.52.79-1.04,1.47-1.39.02,0,.03-.02.04-.03.39-.17.59-.61.48-1.05"/>
      <path class="cls-13" d="M5.45,45.55s0-.01,0-.02c-.02-.05-.03-.08-.03-.08h0c-.11-.31-.36-.58-.36-.58,0,0-.19,1.84-1.23,2.56-.99.68-1.52.87-2,.63-.2.26-.7.88-.55,1.1.08.12.28.15.47.15l.06.07s1.89,0,2.88-2.09c.02-.02.04-.03.06-.05h0c.03.49.02.8.05,1.16.1.17.25.13.37.01.07-.39-.03-.75.18-1.46.22-.75.16-1.21.11-1.4"/>
      <path class="cls-16" d="M1.4,17.7c.41.16,1.08.13,1.48-.07s.39-.49-.02-.65c-.41-.16-1.08-.13-1.48.07-.4.2-.39.49.02.65"/>
      <polygon class="cls-16" points=".61 14.12 .97 17.4 3.16 17.4 3.37 14 .61 14.12"/>
      <path class="cls-16" d="M1.06,14.39c.51-.25,1.36-.29,1.89-.08.53.21.54.58.03.83-.51.25-1.36.29-1.89.08-.53-.21-.54-.58-.03-.83"/>
      <polygon class="cls-16" points=".69 14.94 .65 14.66 .9 14.7 3.34 14.56 3.35 14.79 .69 14.94"/>
      <path class="cls-18" d="M.97,14.88c.55.21,1.42.17,1.95-.09.53-.26.52-.65-.03-.86-.55-.21-1.42-.17-1.95.09-.53.26-.52.65.03.86"/>
      <path class="cls-10" d="M.48,14.07h.23c.06-.05.13-.1.21-.14.58-.28,1.53-.33,2.13-.09.09.03.16.07.22.11h.22s.01.33.01.33v.02h0s0,0,0,0c0,.16-.14.33-.42.47-.58.29-1.53.33-2.13.1-.29-.11-.45-.27-.46-.44h0v-.36Z"/>
      <path class="cls-17" d="M.9,13.61c.58-.28,1.53-.33,2.13-.09.6.23.61.65.03.94-.58.29-1.53.33-2.13.1-.6-.23-.61-.65-.03-.94"/>
      <path class="cls-9" d="M.51,15.24c-.52.15-.65.89-.35,1.33.3.44.86.63,1.39.7.18-.86-.23-1.82-.97-2.29-.07.1-.19.18-.31.21l.24.05Z"/>
      <path class="cls-12" d="M8.72.52c.51.42.89,1.11.96,2.1.04.55-.06,1.19.35,1.57.15.14.35.22.45.39.17.27.01.62,0,.94-.02.71.67,1.2,1.28,1.56.61.36,1.29.88,1.23,1.59-.02.31-.19.59-.27.89-.18.72.18,1.54-.15,2.21-1.2,2.43-3.41-1.04-3.63-2.33-.22-1.3-.14-4.18-1.08-5.17-.59-.62-1.69-.13-2.16-1.04C4.28.46,7.13-.79,8.72.52"/>
      <path class="cls-1" d="M8.31,5.86l-.57-2.25-1.47.23-.14,2.42s-.01.09-.01.14c0,.02,0,.03,0,.05v.17s.03-.01.03-.01c.12.43.6.75,1.18.75.67,0,1.35-.09,1.35-.62,0-.2-.22-.73-.35-.88"/>
      <path class="cls-12" d="M8.32,1.21c-.18-.13-.45-.12-.56.06.03-.41-.22-.8-.57-.99-.79-.42-1.93-.18-2.4.65-.62,1.12-.29,1.39.56,1.99.67.47,1.34,1.2,2.22,1.18,1.04-.01,1.24-1.38,1.07-2.25-.05-.23-.12-.47-.29-.62-.01,0-.02-.02-.03-.03"/>
      <path class="cls-11" d="M6.76,2.54c-.77.06-1.58-.16-2.14-.67-.38,2.57-.21,3.56.61,3.84,1.21.42,2.19-1.32,2.19-1.32l-.06-.54c-.5-.18-.62-.74-.59-1.31"/>
      <path class="cls-11" d="M7.08,4.33c.17.22.54.22.84,0,.3-.22.41-.58.24-.81-.17-.22-.54-.22-.84,0-.3.22-.41.59-.24.81"/>
      <path class="cls-12" d="M6.94,2.04c-.49,1.06-2.11,2.06-3.23,1.27.34-.38.35-.93.44-1.43.11-.64.98-1.91,1.85-1.42l1.32.76s-.38.82-.38.82"/>
      <path class="cls-4" d="M8.92,25.48c-.05.01-.1-.02-.12-.07-.39-1.24-1.35-2.74-2.27-3.1-.26-.1-.43-.1-.54-.02-.21.19-.25.93-.25,1.55,0,.08-.06.15-.12.17-.07.01-.12-.04-.12-.11.01-1.09.11-1.58.37-1.81.24-.21.54-.13.78-.04,1.02.39,1.99,1.95,2.39,3.23.02.07-.01.16-.08.19-.01,0-.03.01-.04.02"/>
      <polygon class="cls-2" points="10 39.27 .82 34.91 2.5 22.99 10.22 26.46 10 39.27"/>
      <polygon class="cls-7" points="2.57 22.93 3.41 22.21 11.32 25.58 10.52 26.5 2.57 22.93"/>
      <polygon class="cls-6" points="11.26 25.64 12.02 37.81 10.04 39.38 10.23 26.46 11.26 25.64"/>
      <path class="cls-4" d="M7.62,26.6c-.08,0-.13-.05-.12-.13.25-2.11-.1-3.64-.91-4-.36-.16-.71.02-.94.19-.59.44-1.07,1.38-1.2,2.33-.01.08-.08.14-.14.15-.07,0-.11-.06-.1-.14.14-1.06.67-2.07,1.34-2.57.4-.3.82-.39,1.17-.23.92.41,1.3,2,1.03,4.26,0,.07-.06.13-.12.15"/>
      <path class="cls-9" d="M8.59,20.5c.06-.3.03-.54-.24-.54-1.16.02-2.17,1.14-2.63,2.38-.04.11-.07.22-.07.32,0,.11.07.2.13.28.33.41.83.63,1.37.61.09,0,.18-.02.25-.1.07-.08.08-.2.1-.31.07-.55.38-1.06.65-1.56.1-.19.36-.69.44-1.09"/>
    </g>
  </g>
</svg>