<?xml version="1.0" encoding="UTF-8"?>
<svg id="uuid-323b47e8-e807-4ea6-9bfc-e661975dd500" data-name="Calque_2" xmlns="http://www.w3.org/2000/svg" viewBox="0 0 15.89 28.57">
  <defs>
    <style>
      .uuid-bbcf3fb1-f675-4ff6-bc83-3d865f1fa9df {
        fill: #f4c900;
      }

      .uuid-8b9ce1fd-f012-47b0-941a-634f2158c73d {
        fill: #f4cf00;
      }

      .uuid-c158329d-2670-40fd-8eb1-4335ff37052d {
        fill: #f18b6a;
      }

      .uuid-91fa29f5-ad45-4b84-97a2-e5d36e56c630 {
        fill: #243268;
      }
    </style>
  </defs>
  <g id="uuid-9d23ee3f-6148-4f46-8ef2-c871ba11382b" data-name="Les_personnages">
    <g id="uuid-3b6fab93-bd10-47c3-9363-6c99848ea98c" data-name="Chara_x5F_Enfant_x5F_BD">
      <path class="uuid-bbcf3fb1-f675-4ff6-bc83-3d865f1fa9df" d="M13.58,27.84c-.02.6-.87.1-1.18-.03-.33-.15-.75-.32-.92-.64,0,0-.01,0-.02,0,0-.02,0-.04,0-.06,0,0,0-.02-.01-.03-.01,0-.02,0-.03,0,0-.06-.02-.13-.02-.19-.02-.17-.05-.35-.07-.52,0-.04-.01-.08-.02-.12h0s0,0,0,0c-.06-.45-.13-.9-.2-1.35-.1-.66-.22-1.32-.34-1.99-.15-.87-.32-1.74-.49-2.61-.19-.93-.38-1.86-.57-2.8-.05-.23-.1-.46-.14-.69,0-.92,0-1.84-.02-2.77.11,0,.22-.02.32-.02.02,0,.23.01.23,0,.18.02.35.06.53.1.02,0,.03,0,.04,0,.01,0,.02.01.04.02.07.03.15.06.23.09.46.2.9.44,1.35.66,0,.04,0,.07,0,.11.01.16.07.35.17.52,0,.04.01.09.02.13,0,.08.02.15.03.23.03.27.06.54.09.81.02.24.05.49.07.74,0,.05,0,.1.01.14.02.21.03.43.05.64,0,.03,0,.05,0,.08.03.39.04.79.06,1.18,0,.12,0,.23.01.35h0c.02.65.04,1.3.05,1.95,0,.93,0,1.86,0,2.8,0,.68,0,1.35,0,2.03v.05s.02.04.03.06c.16.3.75.79.74,1.13"/>
      <path class="uuid-bbcf3fb1-f675-4ff6-bc83-3d865f1fa9df" d="M8.14,15.68c-.04.15-.04.35,0,.54,0,.04-.02.08-.03.12-.02.07-.03.14-.05.22-.06.26-.12.51-.19.77-.06.23-.12.46-.19.69-.01.04-.02.09-.04.13-.06.2-.12.4-.18.6,0,.02-.01.05-.02.07-.11.37-.23.73-.34,1.09-.03.11-.07.21-.11.32-.2.6-.41,1.2-.63,1.79-.31.85-.63,1.7-.96,2.54-.25.66-.79,1.45-.96,2.19,0,0,0,0,0,0-.04.17-.05.34-.05.5.03.43.58,1.66-.45,1.2-.39-.18-1.29-1.54-.92-1.96.02-.08.03-.15.05-.23.01-.06.02-.11.04-.16.14-.64.27-1.28.39-1.93.12-.64.23-1.29.34-1.94.14-.85.27-1.7.39-2.56.13-.92.25-1.84.38-2.77.04-.33.09-.67.13-1,.08-.62.16-1.24.24-1.86.05-.16.1-.32.14-.48.15.03.29.07.44.11.14.04.27.08.41.13.02,0,.23.1.23.1.18.09.35.19.51.3.02,0,.03.02.04.03.01,0,.02.02.04.03.07.06.13.11.2.17.41.37.79.75,1.17,1.14-.01.03-.03.07-.03.1"/>
      <path class="uuid-8b9ce1fd-f012-47b0-941a-634f2158c73d" d="M13.58,27.84c-.02.6-.87.1-1.18-.03-.33-.15-.75-.32-.92-.64,0,0-.01,0-.02,0,0-.02,0-.04,0-.06,0,0,0-.02-.01-.03-.01,0-.02,0-.03,0,0-.06-.02-.13-.02-.19-.02-.17-.05-.35-.07-.52.33.24.73.41,1.14.37.16-.02.27-.07.35-.14v.05s.02.04.03.06c.16.3.75.79.74,1.13"/>
      <path class="uuid-8b9ce1fd-f012-47b0-941a-634f2158c73d" d="M3.95,28.47c-.39-.18-1.29-1.54-.92-1.96.02-.08.03-.15.05-.23.36.63.93,1.53,1.36.49-.04.17-.05.34-.05.5.03.43.58,1.66-.45,1.2"/>
      <path class="uuid-bbcf3fb1-f675-4ff6-bc83-3d865f1fa9df" d="M15.89.3l-.03.86-.1,3.22c-.01.36-.24.74-.6,1.02,0,0-3.58,2.77-3.72,2.97,0,0-.02,0-.02,0h0c-.08.02-.15.05-.23.07-.07.02-.17.04-.22.05-.08,0-.18,0-.23.02-.03,0-.06,0-.09-.01,0,0,0,0,0,0,.02,0,0-.03-.11-.03-.08-.05-.17-.09-.25-.14,0,0-.01,0-.02-.01-.07-.06-.09-.07-.08-.06,0,0-.02-.02-.03-.03-.1-.09-.19-.18-.27-.27-.24-.26-.46-.54-.66-.83l4.2-2.57c.29-.18.52-.43.64-.71l.79-2.79.19-.68c.06-.18.24-.33.45-.36,0,0,0,0,0,0,.24-.04.42.09.41.29"/>
      <path class="uuid-91fa29f5-ad45-4b84-97a2-e5d36e56c630" d="M7.21,5.41l-.71,2.39c-.39,1.32-1.77,2.07-3.09,1.68l.7-2.39c.39-1.32,1.78-2.07,3.1-1.68"/>
      <path class="uuid-c158329d-2670-40fd-8eb1-4335ff37052d" d="M14.22,17.3c-.5-2.66-1.16-5.24-1.92-7.86-.02-.06-.03-.12-.05-.18-.25-.86-.37-1.82-.86-2.58-.64-1.02-1.83-.58-2.75-.12-1.35.68-3.56.28-3.87,1.96l-.02,1.5-1.5,7.82c-.17.27-.27.55-.27.84,0,1.53,2.54,2.77,5.68,2.77,1.52,0,3.43-.19,4.67-1.24.78-.66,1.11-1.66.93-2.66-.02-.08-.03-.16-.05-.24"/>
      <path class="uuid-bbcf3fb1-f675-4ff6-bc83-3d865f1fa9df" d="M8.73,7.66h0c.63.04,1.18-.44,1.22-1.07l.28-4.1-2.29-.16-.28,4.1c-.04.63.43,1.18,1.07,1.22"/>
      <path class="uuid-bbcf3fb1-f675-4ff6-bc83-3d865f1fa9df" d="M9.6,5.78s-.01,0-.02,0c-.94.28-1.91-.41-2.02-1.41l-.15-1.38s3.42-1.21,3.44-1.21c-.02-.48.2,2.32.17,2.49-.2.9-.75,1.31-1.42,1.51"/>
      <path class="uuid-91fa29f5-ad45-4b84-97a2-e5d36e56c630" d="M11.39,1.37c-.03-.14-.07-.28-.14-.4-.43-.79-.81-.37-1.59-.05-1.8.74-3.27,1.24-3.03,3.45.07.61.51,1.14,1.08,1.32.35-.11.39-.53.38-.92-.09-.32-.14-.64-.01-1.04.21-.64.74-1.11,1.38-1.32.6-.2.98-.05,1.4.42.43-.3.62-.93.53-1.46"/>
      <path class="uuid-bbcf3fb1-f675-4ff6-bc83-3d865f1fa9df" d="M8.48,4.2c.04.38-.23.73-.62.77-.38.04-.73-.23-.77-.62-.04-.38.23-.73.62-.77.38-.04.73.23.77.62"/>
      <path class="uuid-bbcf3fb1-f675-4ff6-bc83-3d865f1fa9df" d="M.42,1.36l.03.86.1,3.22c.01.36.24.74.6,1.02,0,0,3.58,2.77,3.72,2.97,0,0,.02,0,.02,0h0c.08.02.15.05.23.07.07.02.17.04.22.05.08,0,.18,0,.23.02.03,0,.06,0,.09-.01,0,0,0,0,0,0-.02,0,0-.03.11-.03.08-.04.17-.09.25-.14,0,0,.01,0,.02-.01.07-.06.09-.07.08-.06,0,0,.02-.02.03-.03.1-.09.19-.18.27-.27.11-.12.21-.32.31-.53.18-.38.03-.84-.34-1.03l-3.51-1.84c-.29-.18-.52-.43-.64-.71l-.79-2.79-.19-.68c-.06-.18-.24-.33-.45-.36,0,0,0,0,0,0-.24-.04-.42.09-.41.29"/>
      <path class="uuid-bbcf3fb1-f675-4ff6-bc83-3d865f1fa9df" d="M0,2.11c.02.25.13.5.3.63.86.68,1.13-1.39.4-1.51C.19,1.15-.04,1.65,0,2.11"/>
    </g>
  </g>
</svg>