<?xml version="1.0" encoding="UTF-8"?>
<svg id="uuid-221aada9-998d-4aca-832e-4c007f5cb209" data-name="Calque_2" xmlns="http://www.w3.org/2000/svg" viewBox="0 0 19.57 49.53">
  <defs>
    <style>
      .uuid-d9983848-ef64-4a3b-a0ba-04a6b45591b1 {
        fill: #f1c200;
      }

      .uuid-371c8248-7cab-400e-abb5-9f5728651ecc {
        fill: #f18b6a;
      }

      .uuid-fcc5a5db-f918-4c50-b3a4-63c996486297 {
        fill: #e53b11;
      }
    </style>
  </defs>
  <g id="uuid-7946a1f1-595f-4e42-8946-2e89594f3519" data-name="Les_personnages">
    <g id="uuid-0bba92ad-a586-4659-af4e-a9bdbfebe962" data-name="Chara_x5F_FemmeDiscu_x5F_HD">
      <path class="uuid-fcc5a5db-f918-4c50-b3a4-63c996486297" d="M4.53,45.5c-.05.33-.08.67-.1,1.01-.02.26-.03.53.11.76.13.22.46.35.66.18.74-.6,1.82-.15,2.73-.56.2-.09.42-.36.24-.49-.3-.23-1.47-.25-1.95-.51-.56-.3-1.18-1.11-1.66-.21-.02-.03,0-.19-.03-.18"/>
      <path class="uuid-371c8248-7cab-400e-abb5-9f5728651ecc" d="M8.42.68c-.13-.29-.48-.43-.78-.38-.78.12-.78,1.09-.76,1.69.02.61,0,1.5.32,2.05.1.16.23.28.39.34.13.24.38.42.72.38.91-.1,1.01-.9.88-1.64-.15-.82-.44-1.69-.77-2.45"/>
      <path class="uuid-371c8248-7cab-400e-abb5-9f5728651ecc" d="M5.85,4.52c.06-.3.19-.56.39-.72.31-.25.76-.32,1.13-.19,1.26.46.78,1.53.76,2.42,0,.32,0,.63,0,.94,0,.28-.22.46-.49.53-.4.43-1.32.43-1.52-.26-.18-.61-.45-1.86-.27-2.73"/>
      <path class="uuid-371c8248-7cab-400e-abb5-9f5728651ecc" d="M4.54,45.45c.02.1.04.18.06.24.25.15.52.31.76.39.05,0,.09-.02.14-.03.13-.04.25-.09.37-.16.06-.15.11-.35.15-.6.44-3.07.52-6.18.64-9.28.02-.65-.34-1.22-.89-1.49-.23-.11-.41-.16-.57-.16l-1.36-.11c-.93,2.51-.15,3.69-.05,6.38.05,1.32.44,3.55.75,4.83"/>
      <path class="uuid-371c8248-7cab-400e-abb5-9f5728651ecc" d="M9.72,48.12c.23.22.57.21.92.1.36-.12.63-.43.72-.8.58-2.22.54-6.34.58-7.33.06-1.44.18-3.11-.55-4.37-.59-1.02-1.84-.68-2.16.39-.7,2.28-.66,4.69-.36,7.04.09.7.32,3.62.85,4.98"/>
      <path class="uuid-371c8248-7cab-400e-abb5-9f5728651ecc" d="M3.65,24.97c.51-.12.95-.05,1.35.15l.53-.35c.22.5.41,1.01.58,1.53.62,1.11.87,2.7.73,3.98.07,1.36-.03,2.69-.24,4.03-.06.4-.13.8-.3,1.16-.17.36-.48.68-.87.77-.5.12-1.03-.17-1.34-.58-.31-.41-.46-.92-.59-1.42-.51-1.97-.91-3.96-1.22-5.98-.22-1.38-.36-2.88,1.37-3.3"/>
      <path class="uuid-371c8248-7cab-400e-abb5-9f5728651ecc" d="M7.25,31.1c0-.59.01-1.19.02-1.81,0-.81.02-1.64.28-2.41.58-1.67,2.76-2.44,3.95-.9.79,1.02.42,3.08.42,4.28,0,2.93-.09,5.86-.05,8.79,0,.72-.51,1.3-1.25,1.27-.87-.03-1.68-.98-1.77-1.77-.19-1.66-1.61-4.82-1.6-7.45"/>
      <path class="uuid-371c8248-7cab-400e-abb5-9f5728651ecc" d="M.25,11.97s.05-.05.07-.07l-.03-.47c-.02.18-.03.36-.03.54"/>
      <path class="uuid-371c8248-7cab-400e-abb5-9f5728651ecc" d="M1.49,18.14c-.04-1.88-.08-3.76-.11-5.63,0-.37-.01-.77-.2-1.09-.76-1.35-1.04,1.69-1.05,1.93-.09,1.34-.03,2.69-.11,4.03-.04.64-.04,1.53.3,2.1.05.08.11.17.19.26.26.3.67.59.98.33.27-.23,0-1.62,0-1.94"/>
      <path class="uuid-371c8248-7cab-400e-abb5-9f5728651ecc" d="M13.21,11.86s.04.07.05.11c.76,2.05,1.18,4.21,1.61,6.36.08.39.11.89-.24,1.08-.36.2-.78-.12-1.05-.43-1.2-1.37-2.05-3.04-2.48-4.81-.06-.25-.22-.79-.34-1.38.76-.46,1.63-.77,2.46-.93"/>
      <path class="uuid-371c8248-7cab-400e-abb5-9f5728651ecc" d="M13.46,16.85c.15-.13.4-.23.6-.14.45.2.55.47.72.85.83.47,1.46,1.18,2.21,1.76.73.57,1.59.94,2.3,1.54.58.49.22,1.56-.6,1.42-1.48-.26-2.96-1.34-4.08-2.32-.71-.63-2.2-2.19-1.15-3.11"/>
      <path class="uuid-fcc5a5db-f918-4c50-b3a4-63c996486297" d="M14.13,30.2c-.04-1.8-.5-4.03-.59-5.14-.2-2.5-.5-5-.88-7.48-.13-.83-.27-1.58-.44-2.39,0,0,1.37-.86,1.48-1.05.32-.53.12-.92-.05-1.53-.35-1.27-.79-2.56-1.66-3.58-1.08-1.26-2.67-1.95-4.23-2.5-3.27-1.17-6.4,1.13-7.24,4.34-.06.22-.11.44-.15.67.83,1.14.9,2.24.9,2.24l.4,7.3s.02.05.03.08c.13.42.11,1.14.11,1.44.02,2.28-.33,4.55-.64,6.81.11,1.24,1.83,4.02,6.6,4.57,6.51.75,6.32-2.92,6.34-3.62,0-.05,0-.11,0-.16"/>
      <path class="uuid-d9983848-ef64-4a3b-a0ba-04a6b45591b1" d="M7.52.06c-.57.14-1.2.51-1.62,1.05-.49.64-.71,1.49-1.22,2.11-1.12,1.39-1.77,2.48-2.32,4.17-.26.8-.23,1.74-.46,2.6-.3,1.14-.41,2.17-.22,3.38.13.79.53,2.25,1.53,2.37.96.12,1.97-1.48,2.53-2.19,1.95-2.43,1.53-5.21,1.39-8.05-.08-1.59.66-2.34,1.38-3.66.87-1.58.02-2.06-1.01-1.8"/>
      <path class="uuid-fcc5a5db-f918-4c50-b3a4-63c996486297" d="M9.72,47.34c-.05.39-.09.78-.12,1.17-.02.29-.03.59.12.81.14.22.5.3.72.09.09-.08.14-.2.23-.28.23-.21.55-.11.8-.01.38.14.79.24,1.21.28.3.03.75-.11.71-.41-.01-.12-.12-.2-.22-.27-.7-.47-1.41-.92-2.14-1.35-.21-.12-.43-.24-.68-.24-.26,0-.55.19-.6.46l-.02-.26Z"/>
    </g>
  </g>
</svg>