<?xml version="1.0" encoding="UTF-8"?>
<svg id="Calque_2" xmlns="http://www.w3.org/2000/svg" viewBox="0 0 17.16 46.43">
  <defs>
    <style>
      .cls-1 {
        fill: #f08c8e;
      }

      .cls-2 {
        fill: #9fc5e9;
      }

      .cls-3 {
        fill: #d95f61;
      }

      .cls-4 {
        fill: #fffdf2;
      }

      .cls-5 {
        fill: #605a91;
      }

      .cls-6 {
        fill: #d7ddee;
      }

      .cls-7 {
        fill: #6b3750;
      }

      .cls-8 {
        fill: #7f8ec6;
      }
    </style>
  </defs>
  <g id="_Éléments_Mise_en_page" data-name="Éléments_Mise_en_page">
    <g>
      <path class="cls-1" d="M6.31,43.56h.49c.09,0,.17-.01.26-.03.02,0,.05-.01.08-.02.42-.15.94-.41,1.24-.57.04-.02.07-.04.1-.07v-.32c0-.99,0-1.99,0-2.98,0-3.52-.12-7.01-.16-10.52,0-.47,0-.98.28-1.35.27-.37.75-.53,1.21-.61.21-.03.43-.05.63.03.14.06.25.16.34.28.35.45.46,1.03.55,1.6.17,1.03.44,2.03.43,3.08-.01,1.22-.13,2.44-.36,3.65l-.86,4.6-.15,1.99.02.84.03.44.03.44c.02.26-.21.48-.47.44l-.16-.02-1.99-.26-1.56-.21c-.1-.01-.17-.09-.18-.19-.01-.13.08-.24.21-.24"/>
      <path class="cls-5" d="M6.09,43.79c0,.1.09.17.18.19l1.56.21,1.99.26.16.02c.26.03.49-.18.47-.44l-.03-.44s-.09.02-.14.03c-.6.11-1.31.1-1.98.05-.44-.03-.87-.09-1.24-.14-.08.02-.17.03-.26.03h-.5c-.13,0-.23.11-.21.24"/>
      <path class="cls-1" d="M5.69,30.95c.21.33-1.26,1.6-1.24,2.01.02.69-.62-.64-.17,5.11l.52,3.84c.05.43.18,1.78.26,2.19.02.12.04.25,0,.36-.04.11-.13.19-.22.27-.45.39-.92.74-1.42,1.05-.21.14-.43.26-.65.38,0,0,0,.01,0,.01.15.23.49.25.77.24,1.02-.03,2.03-.06,3.05-.09.18,0,.39-.03.48-.18.05-.08.05-.18.05-.27v-4.51l.77-9.36-2.21-1.07Z"/>
      <path class="cls-5" d="M7.12,44.74v1.14c0,.09,0,.19-.05.27-.09.15-.3.17-.48.18-1.02.03-2.03.06-3.05.09-.28,0-.62-.01-.77-.24.23-.12.46-.24.68-.37,1.28.1,2.49-.46,3.63-1.04.01,0,.03-.01.04-.02"/>
      <path class="cls-6" d="M12.11,22.96c-.08.02-.15.02-.23.02-.51-.02-.94-.48-1.03-1.12l-.75-5.8-.04-.33-1.73-7.68c-.16-.72.18-1.47.76-1.68.58-.21,1.18.2,1.35.92l1.74,7.75s.02.1.03.15l.03.2.78,6c.1.74-.31,1.44-.91,1.57"/>
      <path class="cls-1" d="M12.11,22.96c-.08.02-.15.02-.23.02-.51-.02-.94-.48-1.03-1.12l-.75-5.8c.44.23.95.24,1.39.01.29-.14.54-.39.74-.69l.78,6c.1.74-.31,1.44-.91,1.57"/>
      <path class="cls-8" d="M14.69,27.07s.05,0,.07-.02c.07-.04.1-.12.06-.2l-2.54-4.95c-.04-.07-.12-.1-.2-.06-.07.04-.1.12-.06.2l2.54,4.95s.07.08.12.08"/>
      <path class="cls-7" d="M10.77,33.17c.2.1.41.2.61.29.03.02.11.05.19.08.1.04.34.14.4.17.2.08.41.16.61.23.37.13.75.25,1.13.34.14.03.31.04.45.08,0,0,.01,0,.02,0,.2.01.4,0,.6.01.1-.03.21-.05.31-.08,0,0,0,0,.01,0,.03-.02.08-.06.13-.09.07-.07.15-.13.22-.19.01-.01.03-.03.04-.04.1-.21.18-.29.21-.29.02-.02.03-.04.04-.06.2-.31.33-.67.52-.98-.02.03-.04.07-.06.09-.1.21-.26.42,0,0,.02-.03.03-.06.04-.09.06-.17.12-.35.18-.52.13-.41.23-.83.32-1.26,0-.02.01-.05.02-.09l-.32-3.73h0s-.03-.12-.03-.12c-.01-.12-.09-.23-.2-.3l-5.25-3.05-.6-.33c-.19-.11-.43-.06-.56.11l-.49.64c-.09.12-.25.18-.4.15l-.74-.15c-.07-.01-.14,0-.19.06-.04.04-.06.09-.07.14l-.35,7.35c1.08.52,2.14,1.1,3.21,1.62"/>
      <path class="cls-2" d="M13.86,27.61l.1,9.99c.12,0,.25-.03.36-.1l2.69-1.69c.09-.06.16-.16.15-.27l-.72-8.49h0c-.06-.09-.15-.12-.19-.04l-.47.89c-.18.34-.61.47-.94.28l-.99-.57Z"/>
      <path class="cls-8" d="M7.46,33.59l.13.09,6.01,3.81c.11.07.23.1.36.1l-.1-9.98-5.75-3.56s-.09-.02-.13,0c-.04.02-.06.06-.06.1v.04s-.45,9.25-.45,9.25v.14Z"/>
      <path class="cls-4" d="M11.42,28.08c.04.24.18.42.31.4.14-.02.22-.23.18-.47-.04-.24-.18-.42-.31-.4-.14.02-.22.23-.18.47"/>
      <path class="cls-4" d="M9.47,26.88c.04.24.18.42.31.4.14-.02.22-.23.18-.47-.04-.24-.18-.42-.31-.4-.14.02-.22.23-.18.47"/>
      <path class="cls-8" d="M11.66,28.16h0c.06,0,.11-.05.11-.11l-.02-6.19c0-.05-.04-.1-.09-.11-.05-.01-.11.02-.12.07l-1.93,4.99c-.02.06,0,.12.06.14.06.02.12,0,.15-.06l1.71-4.43v5.59c.01.06.07.11.13.11"/>
      <path class="cls-8" d="M11.55,28.11c.06,0,.11-.05.11-.11l.12-5.02c0-.06-.05-.11-.11-.11h0c-.06,0-.11.05-.11.11l-.13,5.02c0,.06.05.11.11.11h0Z"/>
      <path class="cls-5" d="M2.18,37.35s-.34-12.77.28-15.17c.62-2.41,1.41-4.72,1.41-4.72l6.43-2.67v1.57s1.64,2.41,1.74,4.98c.1,2.58,1.17,13.83,1.17,13.83l-3.14,1.62-.56.28s-4.09,2.97-7.33.28"/>
      <path class="cls-6" d="M3.53,7.42c-2.02.64-1.02,6.24-1.02,7.86,0,.52,0,1.05.2,1.53.9,2.21,5.04.41,6.42-.21,2.05-.92,2.02-2.02,2.02-2.02l-.35-5.98c-.25-1.74-2.08-2.83-3.82-2.28,0,0-3.43,1.09-3.46,1.1"/>
      <path class="cls-7" d="M5.8,21.26c0-.21-.15-.47-.33-.57l-.31-.18-2.57-1.48-.31-.18c-.15-.09-.28-.04-.32.1l-.44.14c-.08.03-.11.12-.07.19l.5.85v.35c0,1.17.44,2.31,1.28,3.13.42.42.82.64,1.18.73l.17.29s.19-.13.41-.28c.26-.06.46-.23.61-.47,0,0,0,0,0,0,.1-.15.19-.53.19-.53l-.02-.03c.01-.1.02-.2.02-.31v-1.74Z"/>
      <path class="cls-3" d="M3.62,22.24c-.76-.43-1.37-1.5-1.37-2.37v-11.49c0-.87.61-1.23,1.37-.79.75.44,1.37,1.5,1.37,2.37v11.49c0,.87-.61,1.23-1.37.79M3.62,7.79c-.66-.38-1.2-.07-1.2.69v11.49c0,.76.54,1.7,1.2,2.08.66.38,1.2.07,1.2-.69v-11.49c0-.76-.54-1.7-1.2-2.08"/>
      <path class="cls-3" d="M5.22,21.59v1.74c0,1.23-.86,1.73-1.93,1.11-1.06-.61-1.93-2.11-1.93-3.34v-1.74c0-.21.15-.3.33-.19l3.19,1.84c.18.11.33.36.33.57"/>
      <path class="cls-6" d="M3.63,12.07c.12-1.13.17-2.12.22-2.54.04-.29.07-.6-.03-.88-.16-.43-.67-.73-1.15-.67C.23,8.29.16,14.39,0,16.05c0,0,.34,1.33,1.73,1.08,1.2-.22,1.67-2.9,1.9-5.06"/>
      <path class="cls-1" d="M4.33.93l.07.95.23,3.01.04.54.08,1.03h0l.07.89s.1.04.3.07c.18.03.44.04.77,0,.7-.07,1.49-.67,1.5-.82,0-.14-.19-.66-.19-.66l-1.31-4.7c-.6-.12-.91-.47-1.57-.32"/>
      <path class="cls-1" d="M4.11.97l.2,1.32s0,0,.02-.01c0,.04.01.09.03.13.03.1.08.19.12.27.06.14.12.29.19.43.04.08.1.14.16.18-.14.11-.27.17-.27.17l.3.51c.4.32.89.51,1.39.56-.51.24-1.02.47-1.54.69l-.05-.23c-.91.15-1.27-.2-1.27-.2-.92-1.88.71-3.81.71-3.81"/>
      <path class="cls-5" d="M3.88,2.16l.07.07s0,0,0,0c-.02-.02-.04-.04-.06-.06"/>
      <path class="cls-5" d="M10.56,10.03c-.16-1.19-.66-2.25-1.21-3.21-.25-.43-.59-.85-.76-1.33-.19-.52-.24-1.18-.34-1.72-.17-.94-.29-2.11-.9-2.76-.37-.4-.84-.6-1.28-.56-.33-.1-.69-.15-1.06-.27-.53-.18-1.49-.32-1.85.13-.17.22-.09.54-.04.82.09.49.6.93.81,1.39.43.93.55,2.13.6,3.14.05,1.07-.05,2.15.08,3.22.06.49.17.98.28,1.47.19.82.38,1.66.83,2.37,2.08,3.25,5.22.21,4.83-2.67"/>
    </g>
  </g>
</svg>