<?xml version="1.0" encoding="UTF-8"?>
<svg id="Calque_2" xmlns="http://www.w3.org/2000/svg" viewBox="0 0 25.08 50.1">
  <defs>
    <style>
      .cls-1 {
        fill: #f1c200;
      }

      .cls-2 {
        fill: #fff;
      }

      .cls-3 {
        fill: #009d4a;
      }

      .cls-4 {
        fill: #f18b6a;
      }

      .cls-5 {
        fill: #56adad;
      }

      .cls-6 {
        fill: #e53b11;
      }
    </style>
  </defs>
  <g id="_Éléments_Mise_en_page" data-name="Éléments_Mise_en_page">
    <g>
      <path class="cls-6" d="M14.26,43.5c.04.36.06.72.07,1.08,0,.26,0,.54-.13.74-.14.2-.47.26-.66.06-.08-.08-.12-.18-.2-.26-.2-.2-.5-.11-.73-.03-.35.12-.73.2-1.11.23-.27.02-.68-.12-.64-.4.02-.11.12-.18.21-.24.65-.41,1.32-.8,2-1.17.19-.1.4-.21.63-.2.23.01.5.19.54.43l.03-.24Z"/>
      <path class="cls-4" d="M3.63,40.79c.13-.28.23-.57.3-.86.45.07.91.1,1.39.09l.66.02c.08.2.17.39.27.59.02.08.05.16.08.23-.29.91-.69,1.87-.72,2.77-.03.78-.12,1.56-.13,2.35,0,.44-.02.87-.09,1.3-.04.25-.06.63-.15.89-.38.08-.77.06-1.09-.13-.12-.68-.17-1.42-.2-2.09-.03-.8-.05-1.6-.01-2.4,0-.05.01-.1.02-.15-.08-.87-.26-1.74-.34-2.61"/>
      <path class="cls-3" d="M5.29,47.86c-.42.02-.8-.09-1.14-.23-.01.1-.04.22-.04.33-1.06-.25-1.07.09-.35.53.22.13.67.37.95.35.33-.03.49-.3.54-.55.03-.11.05-.25.04-.43"/>
      <path class="cls-4" d="M1.08,44.65c-.08-.87-.26-1.74-.34-2.61.29-.61.43-1.27.44-1.94l1.11.04c.57.02,1.12-.04,1.65-.17-.09.51-.2,1.01-.33,1.51-.27,1.08-.87,2.29-.9,3.4-.03.78-.12,1.56-.13,2.35,0,.43-.02.87-.09,1.3-.04.25-.06.63-.15.89-.38.08-.77.06-1.09-.13-.12-.68-.17-1.42-.2-2.09-.03-.8-.05-1.6-.01-2.4,0-.05.01-.1.02-.15"/>
      <path class="cls-3" d="M2.4,49.12c-.42.02-.8-.09-1.14-.23-.01.09-.04.22-.04.33-1.06-.25-1.07.09-.35.53.22.13.67.37.95.35.33-.03.49-.3.54-.55.03-.11.05-.25.04-.43"/>
      <path class="cls-6" d="M.72,41.96c0-.34.02-.62.11-.79.52-.94,1.78-1.3,2.35-1.63.61-.35,1.22-.74,1.84-1.15.14-.09.27-.18.4-.25.3-.54.81-.9.88-.32,0,.01,0,.02,0,.03.03.01.06.03.09.06.05.27.05.54.08.83,0,.12.1.22-.04.24,0,.01,0,.03,0,.05l.27.68-.11,3.28s-.56,2.03-2.73,1.57l-.09-3.12c-.06.05-.17.11-.17.17l-.09,2.63s-.56,2.03-2.73,1.57l-.14-3.82.08-.04Z"/>
      <path class="cls-4" d="M2.64,27.38c.1-.44.51-.67.63-.35,0,0,.02,0,.03,0,.29.05.51.4.68.77l.08-.08.77,2.79c.14.51-.05,1.26-.43,1.66-.38.41-.8.32-.94-.2l-.13-.48-.21-.75-.12-.43c-.17-.04-.32-.17-.44-.36-.36-.6-.12-1.69.08-2.58"/>
      <path class="cls-2" d="M4.26,30.93c1.24-.49,2.7-.75,2.96.82.3,1.79-.23,3.63-.12,5.43.04.74-.08,1.55-.2,2.15-.12.59-.56,1.07-1.17,1.27-1.34.44-3.71,1.14-4.34.79-1-.56-.58-2-.57-3,.01-1.13-.68-.94-.66-1.03-.31.22.03-1.04.05-1.43.07-2.02,1.07-3.56,2.99-4.51.3-.15.68-.33,1.07-.49"/>
      <path class="cls-1" d="M2.07,27.29s-.03-.09-.04-.14c.66-.27,1.97-.51,2.45.09.45.55.92,1.71.57,2.4-.29.55-.92.83-1.33.24-.21-.3.09-1.48-.66-.89-.02.04-.02.04,0,0,.08-1.12-.73-.93-1-1.71"/>
      <path class="cls-6" d="M20.14,41.55c.03.31.05.62.06.93,0,.24,0,.49-.12.69-.13.2-.43.31-.61.15-.66-.58-1.66-.19-2.49-.59-.18-.09-.37-.34-.2-.46.29-.2,1.36-.19,1.8-.41.52-.26,1.12-.98,1.53-.14.02-.03.02-.17.03-.16"/>
      <path class="cls-4" d="M17.19.74c.09-.28.4-.43.68-.41.72.05.8.94.83,1.49.03.56.12,1.37-.13,1.9-.07.16-.19.27-.33.34-.1.23-.31.42-.62.41-.84-.02-.99-.74-.93-1.43.07-.76.27-1.58.5-2.3"/>
      <path class="cls-4" d="M19.86,4.04c-.08-.27-.22-.49-.41-.62-.3-.2-.72-.23-1.05-.08-1.11.52-.59,1.47-.5,2.28.03.29.06.57.09.86.02.25.24.4.49.44.4.36,1.24.28,1.36-.36.11-.57.26-1.74.02-2.51"/>
      <path class="cls-4" d="M20.13,41.51c-.03.09-.05.16-.06.22-.23.13-.48.26-.71.33-.04,0-.08-.02-.12-.03-.11-.04-.22-.1-.33-.16-.05-.14-.09-.33-.12-.56-.31-2.83-.29-5.68-.31-8.53,0-.6.34-1.11.86-1.34.22-.1.38-.13.52-.13l1.25-.07c.77,2.33.03,3.38-.15,5.85-.08,1.21-.51,3.24-.83,4.4"/>
      <path class="cls-4" d="M14.08,44.22c-.22.19-.53.18-.84.06-.33-.12-.56-.42-.64-.76-.46-2.05-.3-5.82-.31-6.74-.01-1.32-.07-2.86.64-3.99.57-.92,1.7-.57,1.97.42.57,2.11.47,4.32.12,6.46-.11.64-.4,3.3-.93,4.54"/>
      <path class="cls-4" d="M21.56,22.76c-.46-.13-.87-.08-1.24.1l-.48-.34c-.22.45-.41.92-.58,1.39-.6,1-.88,2.45-.79,3.63-.11,1.25-.06,2.47.09,3.7.04.36.09.74.24,1.07.15.34.42.64.77.73.46.12.95-.12,1.25-.49.3-.37.45-.83.58-1.29.53-1.79.95-3.61,1.3-5.44.24-1.26.42-2.62-1.15-3.07"/>
      <path class="cls-4" d="M16.87,28.65c.34-1.25.66-2.59.36-3.73-.36-1.41-2.35-2.3-3.64-1.46-1.39.9-.93,2.94-.98,4.33-.04,1.27-.21,2.53-.22,3.81,0,.85-.23,3.5.69,4,1.07.57,1.86-.87,2.18-1.58.51-1.11.9-2.36,1.15-3.56.11-.56.29-1.16.47-1.79"/>
      <path class="cls-4" d="M25.08,10.94s-.04-.05-.06-.07l.04-.43c.02.17.02.33.01.5"/>
      <path class="cls-4" d="M23.71,12.53c.19-.21.38-.43.55-.65.26-.32.5-.64.73-.97.02,1.02-.05,2.03-.02,3.05.02.54,0,1.29-.33,1.77-.04.06-.11.14-.18.22-.25.24-.63.48-.91.26-.24-.2.04-1.37.06-1.64.04-.68.07-1.36.11-2.04"/>
      <path class="cls-5" d="M11.8,27.24c.09-1.65.58-3.68.7-4.7.26-2.29.61-4.57,1.03-6.83.14-.76.3-1.44.47-2.18,0,0-1.23-.83-1.33-1.01-.27-.49-.08-.85.09-1.4.36-1.16.8-2.32,1.63-3.23,1.02-1.12,2.5-1.7,3.95-2.17,1.96-.63,4,.12,5.28,1.68.6.73,1.24,1.86,1.42,2.8.21,1.08-.77,1.52-1.04,2.42-.21.71-.1,1.77-.17,2.52-.12,1.37-.24,2.74-.36,4.11-.01.02-.02.05-.03.07-.13.38-.13,1.04-.15,1.32-.09,2.09.16,4.18.38,6.27-.14,1.13-1.8,3.63-6.18,3.99-5.99.49-5.7-2.87-5.71-3.51,0-.05,0-.1,0-.15"/>
      <path class="cls-1" d="M16.82.42C17.25.09,17.94-.01,18.42,0c1.85.04,2.5,2.33,2.88,3.78.24.91.24,1.8.45,2.7.29,1.22,1.01,2.3,1.02,3.59,0,.89-.68,2.69-1.52,3.16-1.22.68-2.35-1.89-2.81-2.84-.75-1.55-.48-2.69-.26-4.23.15-1.07.08-2.4-.5-3.35-.44-.72-1.97-1.51-.85-2.39"/>
      <path class="cls-4" d="M1.51,37.25c.05.89-.07,1.81-.15,2.69-.03.32-.34,4.24-.75,4.17-.6-.1-.37-1.84-.38-2.28,0-.37-.03-.77-.05-1.18-.07-1.2-.36-2.49-.03-3.68.43.2.89.3,1.35.28"/>
      <path class="cls-4" d="M12.59,11.49c.31.89,1.67,1.05,2.61.45-.34,1.46-.94,3.3-1.67,4.62-.67,1.21-1.88,1.05-1.86-.38.02-1.45.61-3.27.92-4.7"/>
      <path class="cls-4" d="M11.3,16.94c-.37.98-.62,2.08-.83,2.54-.42.93-.67,1.77-.97,2.69-.08.25-.88.21-.85.94.02.65.58,1.09,1.21.69.45-.28.55-1.18.85-1.6.5-.67,1.16-1.12,1.59-1.88.42-.74.04.02.42-.74.43-.87,1.67-3.63.59-4.24-.94-.53-1.56.45-2,1.61"/>
      <path class="cls-4" d="M10.59,21.12c-.87,3.38-1.91,6.52-3.42,9.62-.26.54-.69,1.62-1.36,1.25-.68-.37-.2-1.94.05-2.51.66-1.5,1.9-2.73,2.47-4.23.57-1.53.61-3.3,1.85-4.49.29.31.31.68.42.36"/>
      <path class="cls-2" d="M3.69,31.15c.45-.33.86-.72,1.26-1.13.33-.24.78-.58,1.42-1.11,2.05,1.08.5,2.76.14,4.53.03-.06.04.02-.03.18,0,.05-.02.1-.02.15,0-.05,0-.1.01-.14,0,0,0,0,0,.01-.89-.69-2.13-1.56-2.77-2.5"/>
    </g>
  </g>
</svg>