<?xml version="1.0" encoding="UTF-8"?>
<svg id="Calque_2" xmlns="http://www.w3.org/2000/svg" viewBox="0 0 45.58 62.42">
  <defs>
    <style>
      .cls-1 {
        fill: #fff;
      }

      .cls-2 {
        fill: #f4c900;
      }

      .cls-3 {
        fill: #ebeef8;
      }

      .cls-4 {
        fill: #f4cf00;
      }

      .cls-5 {
        fill: #243268;
      }

      .cls-6 {
        fill: #e84f0e;
      }

      .cls-7 {
        fill: none;
        stroke: #fff;
        stroke-miterlimit: 10;
        stroke-width: .29px;
      }

      .cls-8 {
        fill: #1397d5;
      }

      .cls-9 {
        fill: #235aa3;
      }

      .cls-10 {
        fill: #26231e;
      }
    </style>
  </defs>
  <g id="_Éléments_Mise_en_page" data-name="Éléments_Mise_en_page">
    <g>
      <path class="cls-10" d="M.72,34.9h0c1.2,4.36,4.36,8.44,7.74,10.4,1.14.66,2.23,1.04,3.28,1.12.16.01.31.02.46.02,3.96,0,5.74-4.47,3.98-10.24-.89-2.9-2.52-5.7-4.62-7.88-1.01-1.05-2.06-1.9-3.14-2.52-1.14-.66-2.25-1.04-3.31-1.12-.16-.01-.3-.02-.45-.02-3.96,0-5.81,4.47-3.96,10.25M2.33,27.19c.56-.75,1.34-1.13,2.32-1.13.11,0,.23,0,.34.01.85.07,1.77.39,2.73.94.96.55,1.91,1.32,2.83,2.27,1.94,2.02,3.46,4.62,4.29,7.32.93,3.05.81,5.77-.31,7.29-.56.75-1.34,1.13-2.32,1.13-.11,0-.23,0-.34-.02-.85-.07-1.76-.39-2.72-.94-3.1-1.79-5.9-5.55-7.13-9.59-.93-3.05-.81-5.77.31-7.3"/>
      <path class="cls-5" d="M26.41,41.48l-3.64-1.86c-.28-.14-.61.07-.6.38,0,.15.09.28.22.35l3.64,1.86c.28.14.61-.07.6-.39,0-.15-.09-.28-.22-.35"/>
      <path class="cls-3" d="M25.6,35.72c.75.41.51.95.53.93l-.27,1.67,1.03,1.63c.23.37.07.87-.34,1.05-.23.1-.49.09-.7-.04l-2.2-1.34c-.33-.2-.56-.52-.65-.89l.12-2.82c.02-1.09,2.46-.2,2.46-.2"/>
      <path class="cls-2" d="M23.25,35.73c0,.24.09.47.27.62l.16.14c.4.34.91.51,1.42.49.18-.02.35-.05.51-.08.08-.02.16-.05.24-.08.14-.06.24-.18.28-.33.14-.59.33-1.29.51-1.98-1.08.09-1.94-2.53-3.04-2.55-.02.17-.31,2.9-.33,3.07l-.02.71Z"/>
      <path class="cls-8" d="M18.59,23.53l-6.65-3.27,6.34-3.73,3.85,3c2.84,1.14,7.02,3.61,7.25,5.32.22,1.7-.31,3.51-.84,5.12-.51,1.55-1.33,2.99-1.85,4.54-.22.65-.18.82-1.02.98-.76.14-1.56-.08-2.14-.57-.15-.13-.23-.32-.22-.52l1.01-7.91-5.72-2.96Z"/>
      <path class="cls-4" d="M34.83,39.11c-.15.08-.28.2-.4.34-.11-.39-.28-.75-.51-1.07.19-.19.4-.35.62-.47,1.16-.64,2.36-.12,2.66,1.16l3.23,13.56c.05.21-.06.43-.28.55-.36.2-.82.04-.9-.31l-3.14-13.2c-.15-.61-.72-.87-1.28-.56"/>
      <path class="cls-4" d="M20.74,43.45l-12.53-7.2c-.15-.09-.26-.23-.29-.4-.04-.17,0-.35.1-.49l6.49-9.24c.17-.25.51-.33.78-.2l18.56,9.28c.2.1.33.31.34.53,0,.23-.11.44-.31.55l-12.52,7.17c-.09.05-.2.08-.31.08s-.21-.03-.31-.08M15.2,27.26l-5.79,8.26,11.64,6.69,11.21-6.42-17.05-8.53Z"/>
      <path class="cls-4" d="M34.41,38.84s.09,0,.14-.02c.33-.09.52-.46.43-.84l-2.53-10.67c-.09-.38-.43-.61-.76-.52-.33.09-.52.47-.43.84l2.53,10.68c.08.32.34.54.62.54"/>
      <path class="cls-4" d="M20.64,46.18c-.37-.21-5.13-3.73-8.28-6.06-2.98-2.2-3.74-2.77-3.83-2.81-.65-.38-1.16-1.26-1.16-2.01,0-.4.14-.7.4-.85s.59-.12.93.07c.09.05,1.16.5,3.96,1.66h.03c4.09,1.71,7.79,3.26,8.13,3.45,1.54.89,2.79,3.06,2.79,4.83,0,.9-.31,1.57-.88,1.9-.24.14-.51.2-.79.2-.4,0-.84-.13-1.29-.39"/>
      <path class="cls-5" d="M19.1,42.11c0-1.05.74-1.47,1.65-.95.91.52,1.65,1.8,1.65,2.85s-.74,1.48-1.65.95c-.91-.52-1.65-1.8-1.65-2.85"/>
      <path class="cls-5" d="M9.43,36.29c0,.43-.3.6-.67.39-.37-.21-.67-.73-.67-1.16s.3-.6.67-.38c.37.21.67.73.67,1.16"/>
      <polyline class="cls-2" points="10.88 23.66 10.88 23.65 10.88 23.66"/>
      <path class="cls-5" d="M20.36,48.73l-3.64-1.86c-.28-.14-.61.07-.6.38,0,.15.09.28.22.35l3.64,1.86c.28.14.61-.07.6-.39,0-.15-.09-.28-.22-.35"/>
      <path class="cls-10" d="M28.71,46.66c0,5.37,3.78,11.93,8.44,14.62,1.35.78,2.63,1.15,3.76,1.15,2.77,0,4.68-2.21,4.68-6.02,0-5.37-3.79-11.93-8.44-14.61-1.35-.78-2.63-1.15-3.76-1.15-2.77,0-4.68,2.21-4.68,6.02M30.29,46.66c0-1.48.33-2.67.95-3.45.52-.65,1.25-.99,2.14-.99s1.91.32,2.97.94c4.14,2.39,7.65,8.46,7.65,13.24,0,1.48-.33,2.67-.95,3.45-.52.66-1.25.99-2.14.99s-1.91-.32-2.97-.94c-4.14-2.39-7.65-8.46-7.65-13.24"/>
      <path class="cls-5" d="M37.47,49.8c1.04.6,1.88,2.06,1.88,3.26s-.85,1.69-1.88,1.09c-1.04-.6-1.88-2.06-1.88-3.26s.85-1.69,1.88-1.09"/>
      <path class="cls-4" d="M24.46,31.69c.09,0,.17-.02.25-.07l14.63-8.11c.26-.14.35-.46.21-.72s-.46-.35-.72-.21l-14.63,8.11c-.26.14-.35.46-.21.72.1.17.28.27.46.27"/>
      <path class="cls-6" d="M24.46,32.05c.14,0,.28-.03.41-.1.81-.43,1.75-.95,2.58-1.43.42-.24.56-.78.32-1.2-.24-.42-.78-.56-1.2-.32-.82.47-1.74.98-2.52,1.4-.43.23-.59.76-.37,1.19.16.3.46.47.78.47"/>
      <path class="cls-6" d="M36.54,25.35c.14,0,.28-.03.41-.1.83-.44,1.77-.96,2.58-1.43.42-.24.56-.78.32-1.2-.24-.42-.78-.56-1.2-.32-.79.46-1.71.97-2.52,1.4-.43.23-.59.76-.36,1.19.16.3.46.47.78.47"/>
      <path class="cls-4" d="M30.15,28.55c.09,0,.17-.02.25-.07,1.87-1.04,3.82-2.12,5.79-3.22.25-.14.35-.46.2-.72s-.46-.35-.72-.2c-1.97,1.1-3.91,2.18-5.78,3.22-.26.14-.35.46-.21.72.1.17.28.27.46.27"/>
      <path class="cls-4" d="M34.54,37.91c.96-.53,1.93-.27,2.42.55-.34.35-.64.76-.86,1.19-.15-.6-.72-.85-1.28-.54-.56.31-.9,1.06-.75,1.67l3.19,13.38c.05.21-.06.43-.28.55-.36.2-.82.04-.9-.31l-3.1-13.02c-.3-1.28.39-2.84,1.56-3.48"/>
      <path class="cls-3" d="M19.01,43.31s.05.02.07.03c.78.38.62.91.65.89v1.51c0,.1.03.19.09.27l1.2,1.46c.29.36.21.85-.17,1.05-.21.11-.47.11-.7-.01l-2.41-1.25c-.34-.18-.61-.46-.76-.8-.02-.04-.03-.08-.03-.13l-.32-2.73c-.15-1.01,2.08-.38,2.39-.29"/>
      <path class="cls-2" d="M16.71,43.41c.03.24.16.46.36.6l.19.13c.45.32.97.47,1.47.44.02,0,.04,0,.05,0,.16-.02.31-.05.44-.09.02,0,.03,0,.05-.01.07-.02.14-.05.21-.08.13-.06.21-.19.23-.34.04-.48.09-1.02.15-1.58.02-.2-.1-.38-.29-.44-.76-.26-1.61-1.55-2.41-2.12-.29-.2-.68.01-.66.36.04.86.12,2.3.13,2.42l.09.7Z"/>
      <path class="cls-8" d="M18.73,19.56v.05c-.06-.02-.13-.04-.2-.05,0-.07.08-.05.2,0"/>
      <path class="cls-8" d="M10.25,19.58l.28-1.61.69.55s.03-.09.04-.14c0,0,0,0,.01,0,.59.08,1.18.13,1.76.18.46.03.91.05,1.37.08.23.01.47.02.7.04.01,0,.03,0,.04,0,.05,0,.12.02.2.04,1.09.24,2.14.56,3.2.84,0,0,0,.01,0,.03l.71,3.11s0,.02,0,.03l1.7,7.94c.06,1.07.12,2.12.18,3.2,0,0,0,0,0,.01l-1.02,8.02c-.02.31-.18.58-.45.73l-.08.04c-.86.47-1.96.36-2.81-.29-.17-.13-.28-.33-.29-.53l-.92-9.3c-.02-.07-.05-.17-.06-.24l-.68-1.57-3.6-5.97c-.94-1.56-1.28-3.4-.97-5.19"/>
      <path class="cls-2" d="M23.95,7.51l1.78,4.58s.37,2.35.38,2.36c.31.77,1.97,3.28,2.36,3.85.33.49.7.92,1.12,1.31.48.44,1.02.82,1.65,1.16,1.82.99,3.73,1.72,5.49,2.88.32.21.13,1.14.79,1.34.4.12.88-.09,1.08-.54.06-.13.09-.28.09-.42.04-1.48-2.47-3.49-3.12-4.16-.9-.93-1.8-1.87-2.7-2.81-.16-.17-.49-.42-.79-.69-.09-.08-.18-.17-.26-.25-.16-.17-.28-.33-.33-.48l-.14-.47-.28-.78-2.1-5.87c-.08-.23-.19-.45-.31-.67-.2-.33-.44-.65-.71-.92-.27-.28-.58-.52-.9-.71-.11-.07-.23-.13-.35-.19-.82-.39-1.7-.44-2.38.07l-.39,1.43Z"/>
      <path class="cls-9" d="M10.81,16.92c.06-.21.12-.41.17-.6.78-3,2.1-5.37,4.57-7.37.75-.61,1.98-1.27,2.84-1.71,1.83-.93,5.5-2.74,7.61-2.21.32.08.65.21.97.36.13.07.27.14.4.22.36.2.7.45,1.03.71,0,0,0,0,0,0,1.07.87,1.83,2.06,2.05,3.41l.86,5.18c-1.08,2.35-3.87,1.96-3.87,1.96-.04-.06-.07-.11-.11-.18-.32-.5-.65-.7-.83-1.33-.81,1.85-2.13,3.83-2.45,4.26-2.09,2.79-5.82,4.13-9.26,2.93-1.14-.4-2.87-1.15-3.75-1.99-1.03-.99-.6-2.42-.24-3.64"/>
      <path class="cls-3" d="M21.13,6.05c.87-.37,2.01-.31,2.73.23.69.51,1.1,1.39,1.09,2.3,0,.13-.02.27-.11.36-.07.07-.17.09-.26.1-.56.05-1.4-.7-1.8-.49-.59.31-.19,1.24-.95,1.35-.73.11-1.55-.81-1.77-1.42-.44-1.22.17-2.06,1.07-2.43"/>
      <path class="cls-5" d="M24.18,2.32c.21.15.25.45.09.65l-.94,1.17.15-1.5c.03-.34.42-.52.71-.32"/>
      <path class="cls-5" d="M23.24,3.66c.12-.12.12-.3.19-.46.07-.16.16-.32.24-.48.15-.29.66-.29.69.09.02.27-.07.47-.16.72-.08.24-.09.46-.27.67-.38.42-1.08-.15-.69-.54"/>
      <path class="cls-2" d="M19.38,19.06l.36,1.02.29.82.15.49c.05.15.18.33.34.51.08.09.17.17.27.26.31.28.66.55.82.72.95.98,1.89,1.96,2.83,2.94.68.7,3.31,2.81,3.27,4.36,0,.15-.03.3-.1.44-.21.48-.71.7-1.13.57-.69-.21-.49-1.18-.83-1.4-1.84-1.21-3.85-1.97-5.75-3.01-.66-.36-1.23-.75-1.73-1.22-.44-.4-.83-.85-1.18-1.37-.41-.6-.76-1.28-1.09-2.08,0-.02-.01-.03-.02-.05l-.81-2.04c1.94.46,4.1-.84,4.29-.96"/>
      <path class="cls-2" d="M21.98,8.23h0c.87.25,1.77-.26,2.02-1.13l.54-1.89c.25-.87-.26-1.77-1.13-2.02-.87-.25-1.77.26-2.02,1.13l-.54,1.89c-.25.87.26,1.77,1.13,2.02"/>
      <path class="cls-2" d="M26.06,4.62c-.27,1.2-1.46,1.96-2.66,1.69-.48-.11-.89-.36-1.19-.7-.08-.09-.15-.19-.21-.29-.3-.48-.42-1.07-.29-1.67.19-.87.87-1.51,1.69-1.69.13-.03.27-.05.41-.05h0c.18,0,.37.01.55.05.05.01.09.02.14.04.38.11.71.31.97.58.51.52.76,1.28.59,2.05"/>
      <path class="cls-5" d="M20.63,2.71c.04.49.23.96.45,1.4.09.18.19.37.35.49.27.2.62.11.99-.08.04.24.19.42.47.48.23-.23.19-.59.35-.77.79-.93,3.85-.21,3.97-1.8.05-.75-.41-.38-.86-.48-.58-.12-.93-.18-1.46-.57-.72-.53-1.47-1.02-2.37-.82-1.01.23-2,1.03-1.9,2.15M23.83,3.68s.07-.03.11-.04c.05-.01.1-.03.14-.04l-.25.08Z"/>
      <path class="cls-2" d="M22.56,4.9c-.07.31-.37.5-.68.43-.31-.07-.5-.37-.43-.68.07-.31.37-.5.68-.43.31.07.5.37.44.68"/>
      <path class="cls-1" d="M20.53,2.55s-.32-1.84,2.56-2.5c2-.45,3.71,1.91,3.71,3.02l-4.47.44s-.89.05-.94.44c-.05.39.17,1.49.17,1.49l-.73-.64-.29-2.27Z"/>
      <path class="cls-7" d="M24.39,6.64s-.82.23-1.72-.99"/>
      <polyline class="cls-7" points="22.64 3.44 22.68 5.72 21.38 5.09"/>
    </g>
  </g>
</svg>