<?xml version="1.0" encoding="UTF-8"?>
<svg id="Calque_2" xmlns="http://www.w3.org/2000/svg" viewBox="0 0 15.79 37.03">
  <defs>
    <style>
      .cls-1 {
        fill: #009d4a;
      }

      .cls-2 {
        fill: #30287c;
      }

      .cls-3 {
        fill: #f3aac6;
      }

      .cls-4 {
        fill: #f18b6a;
      }

      .cls-5 {
        fill: #302879;
      }
    </style>
  </defs>
  <g id="_Éléments_Mise_en_page" data-name="Éléments_Mise_en_page">
    <g>
      <path class="cls-4" d="M9.61,3.44c-.12-.96-.51-2.31-1.19-2.55-.88-.32-1.06,1.94-.51,2.86.09.15.2.28.31.4v1.11c0,.59.48,1.06,1.06,1.06.88-.14.88-.67.88-1.26v-1.81l-.55.19Z"/>
      <path class="cls-5" d="M10.42,4.02c.16-.34,0-.7.06-1.06.05-.37.29-.7.28-1.08-.03-.96-.88-.89-1.57-1.09-.49-.14-1.28-1.02-1.76-.72-.54.34-.14.95.08,1.32.12.19.3.25.4.47.13.27-.08.57.2.83.34.31.34-.15.64-.24.58-.17.28.5.18.77-.19.51-.14,1.16.56,1.24.34.04.75-.1.92-.41,0-.01.01-.02.02-.03"/>
      <path class="cls-3" d="M15.63,9.11c.03.11.04.21.05.3.09.96.18,2.01,0,2.97-.28,1.53-1.28,2.82-2.09.81-.47-1.17-.69-2.42-.87-3.66-.15-1.06-.2-1.7-.92-2.47-.46-.49-1.76-1.77-.8-2.44,1.93-1.34,4.24,2.77,4.63,4.49"/>
      <path class="cls-1" d="M2.42,33.42c-.35-.25-2.27-1.4-2.16-.36.05.46.97,1.09,1.35,1.28.28.14.94.45,1.26.34.65-.22.75-1.73.41-2.02-.18-.16-.74.83-.86.76"/>
      <path class="cls-2" d="M10.07,25.83l.6,2.49.2.63,1.8,6.64h0s-.34-.06-.34-.06c.06.04.11.07.17.1.03.01.05.03.06.04.06.02.15.04.17.04.04.01.1.03.15.04.03,0,.06,0,.08,0,.08,0,.16,0,.24,0,.07,0,.36-.06.07,0,.17-.03.34-.06.51-.11.13-.04.26-.08.38-.12,0,0,0,0,0,0-.01-.03-.02-.07-.04-.1,0,0,0,0,0,0v-.04s0,0,0,0c-.02-.05-.03-.11-.05-.16,0-.04.02-.08.03-.12,0-.02.04-.04.04-.06,0-.09.08-.18.08-.27h0s-.28-3.97-.28-3.97c0-.13-.07-.26-.1-.39l-.69-3.3-.02-.12-.03-.02v-.05h0s0,0,0,0c.28-1.47.76-2.9.9-4.48.05-.59.1-1.18.13-1.78.08-1.27.1-3.98.1-5.3-.71.74-3.47,2.09-5.21,1.98-.11.03-.24.03-.36,0-.07-.01-.13-.03-.2-.04-1.77.1-3.38-1.82-4.08-3.4-.07.98-.11,1.85-.07,2.39.03.42.04.92.05,1.37,0,.23,0,.45,0,.73,0,.17,0,.32,0,.49-.03.94-.11,1.86-.22,2.76l-1.01,3.38-1.2,7.27c-.04.27-.02.47-.03.71.25.93,1.12,1.17,1.45.96l1.59-4.04c.15-.38.26-.76.33-1.16l.37-2.07v-.03s0-.02,0-.02c0,0,0-.02.01-.02l.03-.05,3.08-4.33h.53l.74,3.55v.03Z"/>
      <path class="cls-1" d="M7.81,16.26c0,.23,0,.45,0,.73,0,.17,0,.32,0,.49,0,.16-.01.32-.02.48.55.11,1.11.17,1.66.19,1.11.06,2.23,0,3.35,0,.49,0,.97,0,1.45-.05.47-.05-.15-5.43-.19-5.89-.24-2.51.07-6.12-2.17-7.53-.54-.34-.87-.26-1.35-.16-1.06.24-1.3,1.78-1.83,2.71-.4.71-1.08,5.76-.94,7.64.03.42.04.92.05,1.38"/>
      <path class="cls-3" d="M9.57,16.72c1.24-.31,2.78-1.02,3.25-2.31.38-1.06.34-2.22.38-3.36-.02-.17-.03-.34-.04-.51-.04-.93.37-.69,0-1.68-.37-1-.31-2.07-1.06-3.4-.3-.53-1.07-.97-1.57-.92-.91.09-3.8,1.28-4.15,1.79-.99,1.43-1.68,7.13-1.79,9.59,1.27.87,2.88,1.55,4.45,1.65-.06-.34.09-.72.52-.83"/>
      <path class="cls-1" d="M6.24,17.43c.98.51,2.12.67,3.21.73.46.02.92.03,1.38.03,0-2.36-.14-4.8-.45-7.31-.1-.83-.02-.8-.25-1.66-.16-.57-.72-1.9-1.07-2.19-.18-.15-.35-.3-.52-.47-.45-.46-.95-.71-1.43-.6-1.06.24-1.26.98-1.79,1.92-.39.69-1.07,6.18-.99,8.24.62.48,1.23.96,1.92,1.32M5.51,8.67c.12-.6.27-1.2.57-1.61.3-.41.78-.61,1.34-.37.73.32,1.44,1.34,1.81,2.33.37,1,.46,1.98.5,2.91.08,1.84,0,3.6-.25,5.22-.97.45-2.23-.16-3.18-.75-.54-.33-.97-.78-1.27-2-.02-.02-.04-.05-.06-.08,0-2.01.19-3.91.55-5.67"/>
      <path class="cls-1" d="M14.37,36.13l-.11-.32c-.03-.1-.06-.2-.1-.29-.01-.03-.03-.07-.04-.1,0,0,0,0,0,0l-.07-.21c-.17.33-.54.51-.9.44l-.44-.07s-.02,0-.03,0c0,0,0,0,0,.01l-.84-.15c-.09-.01-.17,0-.25.04-.24.14-.22.48.01.61.44.24,2.47,1.6,2.75.54,0-.03.01-.06.02-.09.05-.13.06-.27,0-.42"/>
      <path class="cls-1" d="M15.17,11.99c-.02-.06-.03-.13-.04-.2-.07-1.29.02-2.63-.25-3.9-.21-.97-.77-1.46-1.59-1.65l-3.54,1.4c-1.28.51-2.12,1.74-2.13,3.11l-.04,5.9c-.01,1.91,1.9,3.26,3.74,2.65l2-.66c1.16-.38,1.93-1.46,1.91-2.66l-.07-4Z"/>
      <path class="cls-1" d="M13.15,27.11c-.02-.05-.03-.1-.04-.12v-.02s.02.02.02.02l.02.12Z"/>
      <polygon class="cls-1" points="5.67 26.66 5.66 26.7 5.65 26.69 5.67 26.66"/>
      <path class="cls-3" d="M7.31,14.12c-.19,1.66-1.22,2.48-2.56,3.27-.66.39-1.33.8-2.02,1.14-.13.07-.4.22-.72.38-.7.35-1.64.74-1.96.31-.35-.48.86-1.53,1.17-1.79.03-.03.06-.05.09-.08.62-.51,1.34-.91,1.92-1.46.45-.43,1.04-.76,1.45-1.21.37-.4.32-.57.38-1.12.09-.97.08-1.93.13-2.91.04-.78,0-3.82,1.35-3.54.7.14,1.02.85,1.15,1.77.24,1.79-.29,4.39-.39,5.24"/>
      <path class="cls-4" d="M2.02,18.91c-.7.35-1.64.74-1.96.31-.35-.48.86-1.53,1.17-1.79.03-.03.06-.05.09-.08-.19.27-.39.87.69,1.56"/>
    </g>
  </g>
</svg>