<?xml version="1.0" encoding="UTF-8"?>
<svg id="Calque_2" xmlns="http://www.w3.org/2000/svg" xmlns:xlink="http://www.w3.org/1999/xlink" viewBox="0 0 24.06 31.34">
  <defs>
    <style>
      .cls-1 {
        fill: #3d7c31;
      }

      .cls-2 {
        fill: #f39700;
      }

      .cls-3 {
        fill: #fff;
      }

      .cls-4 {
        fill: url(#Dégradé_sans_nom_214-5);
      }

      .cls-5 {
        fill: #cbc8c9;
      }

      .cls-6 {
        fill: none;
      }

      .cls-7 {
        fill: #301d1a;
      }

      .cls-8 {
        fill: #e5e4e4;
      }

      .cls-9 {
        fill: #f29574;
      }

      .cls-10 {
        fill: #4c9f34;
      }

      .cls-11 {
        clip-path: url(#clippath-1);
      }

      .cls-12 {
        fill: #23201d;
      }

      .cls-13 {
        fill: #3b6b98;
      }

      .cls-14 {
        fill: url(#Dégradé_sans_nom_214);
      }

      .cls-15 {
        fill: url(#Dégradé_sans_nom_214-2);
      }

      .cls-16 {
        fill: #594d46;
      }

      .cls-17 {
        fill: #63b22f;
      }

      .cls-18 {
        fill: url(#Dégradé_sans_nom_214-3);
      }

      .cls-19 {
        clip-path: url(#clippath-2);
      }

      .cls-20 {
        fill: #532d29;
      }

      .cls-21 {
        fill: #e6e5e5;
      }

      .cls-22 {
        fill: #f7b699;
      }

      .cls-23 {
        fill: url(#Dégradé_sans_nom_214-4);
      }

      .cls-24 {
        fill: #67a1d7;
      }

      .cls-25 {
        clip-path: url(#clippath);
      }

      .cls-26 {
        fill: #91bf20;
      }

      .cls-27 {
        fill: #f5f6f7;
      }
    </style>
    <clipPath id="clippath">
      <path class="cls-6" d="M12.88,4.18c-.71.34-1.29,2.23-1.29,3.31s.73,1.84.73,1.84l1.73-5.35s-.09-.02-.25-.02c-.21,0-.53.04-.93.23"/>
    </clipPath>
    <linearGradient id="Dégradé_sans_nom_214" data-name="Dégradé sans nom 214" x1="233.37" y1="936.65" x2="234.37" y2="936.65" gradientTransform="translate(-563.98 2316.76) scale(2.47 -2.47)" gradientUnits="userSpaceOnUse">
      <stop offset="0" stop-color="#0d513d"/>
      <stop offset=".84" stop-color="#143928"/>
      <stop offset="1" stop-color="#163524"/>
    </linearGradient>
    <linearGradient id="Dégradé_sans_nom_214-2" data-name="Dégradé sans nom 214" x1="-1104.3" y1="1274.29" x2="-1103.3" y2="1274.29" gradientTransform="translate(897.99 1024.04) scale(.8 -.8)" xlink:href="#Dégradé_sans_nom_214"/>
    <linearGradient id="Dégradé_sans_nom_214-3" data-name="Dégradé sans nom 214" x1="-580.61" y1="1142.06" x2="-579.61" y2="1142.06" gradientTransform="translate(646.3 1247.93) scale(1.09 -1.09)" xlink:href="#Dégradé_sans_nom_214"/>
    <clipPath id="clippath-1">
      <path class="cls-6" d="M12.9,4.6s1.02,1.02.47,2.28c-.55,1.26-1.13,1.19-1.13,1.19l-.05.87s1.78-.44,1.89-2.22c.11-1.79-.79-2.23-.79-2.23l-.39.11Z"/>
    </clipPath>
    <linearGradient id="Dégradé_sans_nom_214-4" data-name="Dégradé sans nom 214" x1="40.61" y1="985.29" x2="41.61" y2="985.29" gradientTransform="translate(-64.86 1876.53) scale(1.9 -1.9)" xlink:href="#Dégradé_sans_nom_214"/>
    <clipPath id="clippath-2">
      <path class="cls-6" d="M15.5,4.88s.68,2.86,1.15,3.28l.03-.63s-.58-2.02-.66-2.49l-.08-.47s-.24.24-.45.31"/>
    </clipPath>
    <linearGradient id="Dégradé_sans_nom_214-5" data-name="Dégradé sans nom 214" x1="-467.1" y1="1113.42" x2="-466.1" y2="1113.42" gradientTransform="translate(567.02 1320.99) scale(1.18 -1.18)" xlink:href="#Dégradé_sans_nom_214"/>
  </defs>
  <g id="_Éléments_Mise_en_page" data-name="Éléments_Mise_en_page">
    <g>
      <g class="cls-25">
        <rect class="cls-14" x="11.59" y="3.94" width="2.47" height="5.38"/>
      </g>
      <g>
        <path class="cls-16" d="M19.43,12.56l1.95-1.14c.05-.03.13-.03.21.02l-1.95,1.14c-.08-.05-.15-.05-.21-.02"/>
        <path class="cls-16" d="M21.79,12.13l-1.95,1.14c.05-.03.09-.1.09-.19,0-.18-.13-.41-.29-.51l1.95-1.14c.16.09.29.32.29.51,0,.09-.03.16-.09.19"/>
        <path class="cls-12" d="M19.63,12.58c.16.09.29.32.29.51,0,.18-.13.26-.29.17-.16-.09-.29-.32-.29-.51,0-.18.13-.26.29-.17"/>
        <path class="cls-5" d="M16.86,14.18l2.62-1.53s.09-.02.15.02l-2.62,1.53c-.06-.03-.11-.04-.15-.02"/>
        <path class="cls-21" d="M19.77,13.16l-2.62,1.53s.06-.07.06-.14c0-.13-.09-.3-.21-.36l2.61-1.53c.12.07.21.23.21.37,0,.07-.02.11-.06.13"/>
        <path class="cls-3" d="M17.01,14.19c.12.07.21.23.21.36,0,.13-.09.19-.21.12-.12-.07-.21-.23-.21-.36,0-.13.1-.19.21-.12"/>
        <path class="cls-22" d="M16.54,7.13s.87,1.91,1.14,2.3c.38.55,3.06,1.58,3.06,1.58,0,0,.03.38.11.53.08.15.27.33.41.32.14,0,.08-.19.05-.24-.03-.05-.12-.23-.12-.23,0,0,.4.31.44.47.04.16-.25.31-.25.31,0,0,.04.23.19.1l.15-.13s.03.09.17-.09.39-.45.39-.65c0-.21-.29-.47-.49-.57-.2-.1-.58-.12-.58-.12l-2.79-1.67-.98-2.52s-1.26-.77-.9.61"/>
        <path class="cls-13" d="M15.46,4.41l1.01,2.93s1.09-.32,1.33-.74c0,0-.62-1.61-.93-2.11-.3-.51-.82-.61-1.51-.37l.09.29Z"/>
        <path class="cls-22" d="M14.74,17.32s-.36.8-.36,1.79.07,3.71.07,3.71c0,0,.06,1.09.79,1.24.73.16.09-.91.09-.91l.95-6.52s-1.48-.66-1.53.68"/>
        <path class="cls-7" d="M14.45,22.82s-.46.47-.46.78c0,.49,1.04.89,1.72,1.13.68.24,1.34.26,1.14-.19-.2-.45-1.52-1.39-1.52-1.39,0,0-.63.44-.88-.34"/>
        <path class="cls-7" d="M13.55,13.27l.83,4.14s1.11.54,2.15-.31l-.03-4.89s-3.42-1.25-2.95,1.07"/>
        <path class="cls-22" d="M11.71,17.5s-.47.43-.58,1.07-.52,3.09-.52,3.09c0,0,0,.87.42.95.43.08.31-.54.31-.54l2.05-4.71s-.8-.79-1.69.14"/>
        <path class="cls-7" d="M11.36,22.07s.18.36.54.69c.36.33.93.79.59,1.04-.35.26-.89-.03-1.39-.39-.51-.36-.82-.72-.85-1.01-.03-.29.39-.74.39-.74,0,0,.06.67.73.41"/>
        <path class="cls-20" d="M12.16,11.99l-.81,5.19s.77.85,2.32.52l1.06-3.26s1.54-.67,1.7-1.9c.16-1.22-3.39-2.62-4.27-.55"/>
        <path class="cls-24" d="M11.81,12.63s.31.77,2.36.81c2.12.04,2.53-.97,2.53-.97,0,0-.08-5.64-.09-6.77,0-1.13-.51-1.77-1.25-1.6-.74.17-2.15.45-2.74.72-.59.26-.27,1.76-.32,3.38-.05,1.62-.5,4.42-.5,4.42"/>
        <path class="cls-22" d="M11.01,5.26s-1.51.07-1.95.11c-.45.03-.48.53-.52.88-.04.35-.5,2.82-.5,2.82,0,0-.39.7-.51.95-.11.25-.16.47,0,.46,0,0-.07.59-.07.74,0,.15.22.11.23-.07,0,0,.17.14.26-.05,0,0,.17.1.23-.08,0,0,.21.08.22-.12,0-.19.09-.65.17-.91.08-.26.08-.53.08-.69,0-.16.7-3.16.7-3.16,0,0,1.18.25,1.55.35.85.23,1.24-1.19.1-1.22"/>
        <path class="cls-13" d="M12.58,4.86s.78-.03.78.85c0,.89-.79.96-1.08.99s-1.65.01-1.65.01c0,0-.48-1.12.11-1.58l1.83-.26Z"/>
        <path class="cls-9" d="M14.03,3.51l-.49,1.02s.53.64,1.16.83c.64.2.52-.77.42-1.11-.1-.34-.13-.78-.25-.97-.12-.19-.73-.04-.85.22"/>
        <path class="cls-22" d="M13.37,3.62s1.08.87,1.58,1.1c.5.23.87.25,1.14-.56.27-.81.38-1.79.32-2.21-.06-.42-.9-1.53-2.14-1.41-1.23.12-1.76,1.74-.9,3.08"/>
        <path class="cls-7" d="M13.89,3.86s.93-.61.72-1.12c0,0,.86.46,1.81-.05.08-.04.12-.13.13-.22.03-.21.05-.63-.12-.99-.24-.5-1.4-1.31-2-1.32-.6-.01-1.43.11-1.65,1.04-.22.93-.13,1.53.1,1.95.23.41.86.78.73,1.28l.29-.56Z"/>
        <path class="cls-22" d="M14.03,3.88s.07-.36-.21-.46c-.28-.1-.36.14-.26.34.09.21.31.43.44.39.12-.03.04-.15.04-.28"/>
        <path class="cls-10" d="M19.98,20.65l1.08,4.86c.01.06-.03.12-.14.18-.18.11-.47.15-.65.1-.08-.02-.12-.06-.13-.11l-1.08-4.86s.05.08.13.11c.18.05.47.01.65-.09.1-.06.14-.13.14-.18"/>
        <path class="cls-26" d="M19.85,20.55c.18.05.18.18,0,.29-.18.11-.47.15-.65.09-.18-.05-.17-.18,0-.29.18-.11.47-.15.65-.1"/>
        <path class="cls-5" d="M19.3,18.47s-.02.07-.08.11l.48,2.22c.06-.04.08-.07.08-.11l-.48-2.22Z"/>
        <path class="cls-8" d="M19.22,18.57c-.1.06-.27.09-.38.06-.05-.01-.07-.04-.08-.06l.48,2.22s.03.05.08.06c.1.03.27,0,.37-.05l-.48-2.22Z"/>
        <path class="cls-3" d="M19.23,18.41c.1.03.1.11,0,.17-.1.06-.27.09-.38.05-.1-.03-.1-.11,0-.17.1-.06.27-.09.38-.06"/>
        <path class="cls-5" d="M18.63,26.22l1.54-.89s.07-.02.12.01l-1.54.89s-.09-.03-.12-.01"/>
        <path class="cls-8" d="M20.41,25.73l-1.54.9s.05-.05.05-.11c0-.11-.07-.24-.17-.29l1.54-.89c.09.05.17.18.17.29,0,.05-.02.09-.05.11"/>
        <path class="cls-3" d="M18.75,26.23c.09.05.17.18.17.29s-.07.15-.17.1c-.09-.05-.17-.18-.17-.29s.08-.15.17-.1"/>
        <path class="cls-16" d="M18.63,26.22l1.54-.89s.07-.02.12.01l-1.54.89s-.09-.03-.12-.01"/>
        <path class="cls-16" d="M20.41,25.73l-1.54.9s.05-.05.05-.11c0-.11-.07-.24-.17-.29l1.54-.89c.09.05.17.18.17.29,0,.05-.02.09-.05.11"/>
        <path class="cls-3" d="M18.75,26.23c.09.05.17.18.17.29s-.07.15-.17.1c-.09-.05-.17-.18-.17-.29s.08-.15.17-.1"/>
        <path class="cls-26" d="M4.88,16.57s.3-.16.33-.17c.03,0,4.45,2.12,4.45,2.12l.46.5.04.27-5.28-2.72Z"/>
        <polygon class="cls-10" points="9.59 19.02 4.88 16.57 4.88 17.12 9.22 19.35 9.59 19.02"/>
        <path class="cls-27" d="M2.08,13.33l.4-.23c-.56.33-.91,1.02-.91,2,0,1.98,1.39,4.4,3.11,5.39l-.4.23c-1.72-.99-3.12-3.41-3.11-5.39,0-.98.35-1.68.91-2"/>
        <path class="cls-27" d="M6.9,20.71l-.4.23c-.57.33-1.35.28-2.22-.22l.4-.23c.87.5,1.65.55,2.22.22"/>
        <path class="cls-8" d="M1.29,14.96l3.34,2.32-.63-4.09s-2.42-.99-2.71,1.77"/>
        <path class="cls-8" d="M8.37,19.89l-3.75-2.61.57,3.69s1.47.8,3.19-1.08"/>
        <path class="cls-8" d="M6.47,15.3l-1.86,1.99,3.08-.04s-.08-.85-1.22-1.95"/>
        <path class="cls-8" d="M2.9,19.27l1.72-1.99-2.83.13s.28.93,1.11,1.86"/>
        <path class="cls-16" d="M1.26,11.88l.44-.26c.79-.46,1.87-.39,3.07.3l-.44.26c-1.2-.69-2.29-.76-3.07-.3"/>
        <path class="cls-16" d="M7.81,22.14l-.44.26c.77-.45,1.26-1.41,1.26-2.77,0-2.74-1.92-6.08-4.3-7.45l.44-.26c2.38,1.38,4.31,4.72,4.3,7.45,0,1.36-.48,2.32-1.26,2.77"/>
        <path class="cls-5" d="M4.33,12.88c2.05,1.18,3.7,4.05,3.7,6.41,0,2.35-1.68,3.3-3.72,2.12-2.05-1.18-3.71-4.05-3.7-6.4,0-2.35,1.68-3.3,3.72-2.12M4.31,20.73c1.72,1,3.13.19,3.13-1.79s-1.39-4.4-3.11-5.4c-1.72-.99-3.13-.19-3.14,1.79,0,1.98,1.39,4.4,3.12,5.39"/>
        <path class="cls-12" d="M4.33,12.18c2.38,1.37,4.31,4.72,4.3,7.45,0,2.73-1.95,3.84-4.33,2.47C1.92,20.72,0,17.38,0,14.65c0-2.73,1.95-3.84,4.33-2.47M4.31,21.08c1.89,1.09,3.44.21,3.44-1.96,0-2.17-1.53-4.83-3.42-5.93-1.89-1.09-3.44-.21-3.44,1.96,0,2.17,1.53,4.83,3.42,5.92"/>
        <path class="cls-27" d="M17.07,21.99l.4-.23c-.56.33-.91,1.02-.91,2,0,1.98,1.39,4.4,3.11,5.39l-.4.23c-1.72-.99-3.12-3.41-3.11-5.39,0-.98.35-1.68.91-2"/>
        <path class="cls-27" d="M21.89,29.36l-.4.23c-.57.33-1.35.28-2.22-.22l.4-.23c.87.5,1.65.55,2.22.22"/>
        <path class="cls-8" d="M16.27,23.61l3.34,2.32-.63-4.09s-2.42-.99-2.71,1.77"/>
        <path class="cls-8" d="M23.36,28.54l-3.75-2.61.57,3.69s1.47.8,3.19-1.08"/>
        <path class="cls-8" d="M21.45,23.95l-1.86,1.99,3.08-.04s-.08-.85-1.22-1.95"/>
        <path class="cls-8" d="M17.89,27.92l1.72-1.99-2.83.13s.28.93,1.11,1.86"/>
        <path class="cls-16" d="M16.25,20.53l.44-.26c.79-.46,1.87-.39,3.07.3l-.44.26c-1.2-.69-2.29-.76-3.07-.3"/>
        <path class="cls-16" d="M22.8,30.8l-.44.26c.77-.45,1.26-1.41,1.26-2.77,0-2.74-1.92-6.08-4.3-7.45l.44-.26c2.38,1.37,4.31,4.72,4.3,7.45,0,1.36-.48,2.32-1.26,2.77"/>
        <path class="cls-5" d="M19.32,21.53c2.05,1.18,3.7,4.05,3.7,6.41,0,2.35-1.68,3.3-3.72,2.12-2.05-1.18-3.71-4.05-3.7-6.4,0-2.35,1.68-3.3,3.72-2.12M19.3,29.38c1.72,1,3.13.19,3.13-1.79s-1.39-4.4-3.11-5.4c-1.72-.99-3.13-.19-3.14,1.79,0,1.98,1.39,4.4,3.12,5.39"/>
        <path class="cls-12" d="M19.32,20.83c2.38,1.37,4.31,4.72,4.3,7.45,0,2.73-1.95,3.84-4.33,2.47-2.38-1.38-4.31-4.72-4.3-7.45,0-2.73,1.95-3.84,4.33-2.47M19.29,29.74c1.89,1.09,3.44.21,3.44-1.96,0-2.17-1.53-4.83-3.42-5.93-1.89-1.09-3.44-.21-3.44,1.96,0,2.17,1.53,4.83,3.42,5.92"/>
        <path class="cls-16" d="M18.63,26.22l.89-.51s.07-.01.12.01l-.89.51s-.09-.03-.12-.01"/>
        <path class="cls-16" d="M19.77,26.12l-.89.51s.05-.05.05-.11c0-.11-.07-.24-.17-.29l.89-.51c.09.05.17.18.17.29,0,.05-.02.09-.05.11"/>
        <path class="cls-3" d="M18.75,26.23c.09.05.17.18.17.29s-.07.15-.17.1c-.09-.05-.17-.18-.17-.29s.08-.15.17-.1"/>
        <polygon class="cls-26" points="16.58 19.66 16.94 18.42 17.71 18.03 19.18 18.19 16.58 19.66"/>
        <path class="cls-10" d="M9.51,15.31v-1.29l-6.36,3.07s-.54.54.09.98l6.27-2.76Z"/>
        <polygon class="cls-10" points="9.51 15.31 10.29 20.07 10.69 20.03 11.13 19.86 10.4 15.28 9.51 15.31"/>
        <polygon class="cls-10" points="9.51 15.31 10.4 15.28 16.73 16.93 16.53 15.82 9.51 14.02 9.51 15.31"/>
        <polygon class="cls-10" points="10.29 20.07 10.29 21.15 11.2 21.29 16.88 17.95 16.73 16.93 16.01 16.74 11.13 19.86 10.69 20.03 10.29 20.07"/>
        <polygon class="cls-1" points="10.4 15.28 10.95 15.42 11.54 19.6 11.13 19.86 10.4 15.28"/>
        <polygon class="cls-26" points="9.51 14.02 10.25 13.55 16.7 15.53 16.53 15.82 9.51 14.02"/>
        <polygon class="cls-10" points="3.24 18.07 7.46 20.39 10.29 21.15 10.29 20.07 7.56 19.64 3.7 17.87 3.24 18.07"/>
        <polygon class="cls-26" points="3.7 17.87 4.02 17.73 7.58 19.39 8.95 19.63 9.59 19.02 10.16 19.3 10.29 20.07 7.56 19.64 3.7 17.87"/>
        <polygon class="cls-26" points="7.77 14.49 9.57 13.68 10.25 13.55 9.51 14.02 3.15 17.09 7.55 14.7 7.77 14.49"/>
        <path class="cls-8" d="M9.4,11.97l.24,1.77c0,.07.07.14.13.16.1.04.27.06.45-.06.07-.04.1-.12.1-.2l-.2-1.75s-.39-.51-.71.07"/>
        <path class="cls-10" d="M18.03,21.72l1.06,4.91c.01.06-.03.12-.14.18-.18.11-.47.15-.65.09-.08-.02-.12-.06-.13-.11l-1.06-4.91s.05.08.13.11c.18.05.47.01.65-.09.1-.06.14-.13.14-.18"/>
        <path class="cls-26" d="M17.89,21.62c.18.05.18.18,0,.29-.18.11-.47.15-.65.09-.18-.05-.17-.18,0-.29.18-.11.47-.15.65-.1"/>
        <path class="cls-5" d="M17.34,19.54s-.02.07-.08.11l.48,2.22c.06-.04.08-.07.08-.11l-.48-2.22Z"/>
        <path class="cls-8" d="M17.27,19.64c-.1.06-.27.09-.38.06-.05-.01-.07-.04-.08-.06l.48,2.22s.03.05.08.06c.1.03.27,0,.37-.05l-.48-2.22Z"/>
        <path class="cls-3" d="M17.27,19.48c.1.03.1.11,0,.17-.1.06-.27.09-.38.05-.1-.03-.1-.11,0-.17.1-.06.27-.09.38-.06"/>
        <path class="cls-16" d="M11.18,12.47c-.18.01-.41-.02-.64-.13-.63-.3-1.3-.41-1.98-.59-.68-.18-.86-.51-.86-.51,0,0-.03-.14-.02-.35,0-.36.14-.92.84-1.13,1.09-.32,1.8.5,2.07.92.28.42,1,1.15,1.08,1.43.05.18-.16.34-.48.36"/>
        <path class="cls-12" d="M11.18,12.47c-.18.01-.41-.02-.64-.13-.63-.3-1.3-.41-1.98-.59-.68-.18-.86-.51-.86-.51,0,0-.03-.14-.02-.35.03-.1.12-.14.27-.08.54.23.7.8,1.73.82.57.01,1.38.45,1.52.84"/>
        <path class="cls-10" d="M19.31,18.24l.16.56s-.02.08-.1.13l-.16-.56c.08-.05.11-.09.1-.13"/>
        <polygon class="cls-10" points="19.22 18.37 19.38 18.93 17.31 20.19 17.15 19.63 19.22 18.37"/>
        <path class="cls-10" d="M16.74,20.25l-.16-.56s.04.05.09.05c.13.02.34-.03.47-.11l.16.56c-.13.08-.35.13-.47.11-.06,0-.09-.03-.09-.05"/>
        <path class="cls-26" d="M19.22,18.19c.13.02.13.1,0,.18l-2.07,1.26c-.13.08-.34.13-.47.11-.13-.02-.13-.1,0-.18l2.07-1.26c.13-.08.35-.13.48-.11"/>
        <polyline class="cls-27" points="3.27 18.22 3.23 18.24 3.24 18.24 3.27 18.22 3.27 18.22"/>
        <polyline class="cls-27" points="2.93 17.7 2.97 17.68 2.98 17.68 2.94 17.7 2.93 17.7"/>
        <polygon class="cls-27" points="3.26 18.22 3.29 18.2 3.27 18.22 3.24 18.24 3.26 18.22"/>
        <polyline class="cls-27" points="3.26 18.22 3.3 18.2 3.29 18.2 3.26 18.22 3.26 18.22"/>
        <polyline class="cls-27" points="3.01 17.67 2.97 17.69 2.97 17.7 3 17.67 3.01 17.67"/>
        <polygon class="cls-27" points="2.94 17.7 2.98 17.68 3 17.67 2.96 17.7 2.94 17.7"/>
        <polygon class="cls-27" points="3.42 18.38 3.46 18.36 3.44 18.39 3.4 18.41 3.42 18.38"/>
        <path class="cls-27" d="M3.43,18.4l-.04.02s0,0,0,0l.04-.02s0,0,0,.01"/>
        <path class="cls-27" d="M2.87,17.48l.04-.02s.01,0,.02,0l-.04.02s-.01,0-.02,0"/>
        <path class="cls-27" d="M3.43,18.37l.04-.02s0,0,0,0l-.04.02s0,0,0,0"/>
        <path class="cls-27" d="M2.98,17.46l-.04.02s0,0-.02,0l.04-.02s.01,0,.02,0"/>
        <polygon class="cls-27" points="2.89 17.47 2.93 17.45 2.96 17.46 2.92 17.48 2.89 17.47"/>
        <path class="cls-27" d="M3.61,18.53l-.04.02s.01,0,.01-.02l.04-.02s0,.02-.01.02"/>
        <polygon class="cls-27" points="3.59 18.49 3.63 18.47 3.62 18.51 3.58 18.53 3.59 18.49"/>
        <path class="cls-27" d="M2.86,17.26l.04-.02s.02,0,.03,0l-.04.02s-.02,0-.03,0"/>
        <path class="cls-27" d="M3.6,18.47l.04-.02s-.01.01-.01.02l-.04.02s0-.02.01-.02"/>
        <path class="cls-27" d="M2.99,17.26l-.04.02s-.02,0-.03,0l.04-.02s.02,0,.03,0"/>
        <polygon class="cls-27" points="2.89 17.27 2.93 17.24 2.96 17.26 2.92 17.28 2.89 17.27"/>
        <path class="cls-27" d="M3.79,18.6l-.04.02s.01-.02.01-.03l.04-.02s0,.03-.01.03"/>
        <polygon class="cls-27" points="3.76 18.55 3.8 18.53 3.8 18.57 3.76 18.59 3.76 18.55"/>
        <path class="cls-27" d="M2.9,17.09l.04-.02s.02,0,.03,0l-.04.02s-.02,0-.03,0"/>
        <polyline class="cls-27" points="2.93 17.09 2.97 17.07 2.98 17.07 2.94 17.09 2.93 17.09"/>
        <path class="cls-27" d="M3.77,18.52l.04-.02s-.01.02-.01.03l-.04.02s0-.03.01-.03"/>
        <polyline class="cls-27" points="2.97 17.12 3.01 17.1 3.02 17.1 2.98 17.13 2.97 17.12"/>
        <polygon class="cls-27" points="2.94 17.09 2.98 17.07 3.01 17.1 2.97 17.12 2.94 17.09"/>
        <path class="cls-27" d="M3.05,17.11l-.04.02s-.02,0-.03,0l.04-.02s.02,0,.03,0"/>
        <path class="cls-27" d="M3.95,18.61l-.04.02s.02-.02,0-.05l.04-.02s0,.04,0,.05"/>
        <polygon class="cls-27" points="3.91 18.55 3.95 18.52 3.96 18.57 3.92 18.59 3.91 18.55"/>
        <path class="cls-27" d="M2.98,16.95l.04-.02s.02,0,.03,0l-.04.02s-.02,0-.03,0"/>
        <path class="cls-27" d="M3.92,18.5l.04-.02s-.02.02,0,.05l-.04.02s0-.04,0-.05"/>
        <path class="cls-27" d="M3.01,16.95l.04-.02s.01,0,.02.02l-.04.02s-.01-.01-.02-.02"/>
        <polygon class="cls-27" points="3.03 16.97 3.07 16.95 3.1 16.98 3.06 17 3.03 16.97"/>
        <path class="cls-27" d="M3.06,17l.04-.02s.01.01.02.02l-.04.02s-.01,0-.02-.02"/>
        <path class="cls-27" d="M3.15,17l-.04.02s-.02,0-.03,0l.04-.02s.02,0,.03,0"/>
        <path class="cls-27" d="M4.09,18.57l-.04.02s.02-.03,0-.06l.04-.02s.01.05,0,.06"/>
        <polygon class="cls-27" points="4.03 18.48 4.07 18.46 4.09 18.5 4.06 18.52 4.03 18.48"/>
        <path class="cls-27" d="M3.1,16.87l.04-.02s.02,0,.03,0l-.04.02s-.02,0-.03,0"/>
        <path class="cls-27" d="M4.04,18.42l.04-.02s-.02.03,0,.06l-.04.02s-.01-.05,0-.06"/>
        <path class="cls-27" d="M3.13,16.87l.04-.02s.02.01.03.03l-.04.02s-.02-.02-.03-.03"/>
        <polygon class="cls-27" points="3.16 16.9 3.2 16.88 3.22 16.92 3.19 16.94 3.16 16.9"/>
        <path class="cls-27" d="M3.19,16.94l.04-.02s.02.02.03.03l-.04.02s-.02-.02-.03-.03"/>
        <path class="cls-27" d="M3.28,16.95l-.04.02s-.02,0-.03,0l.04-.02s.02,0,.03,0"/>
        <polygon class="cls-27" points="4.12 18.36 4.16 18.34 4.19 18.38 4.15 18.4 4.12 18.36"/>
        <path class="cls-27" d="M4.19,18.46l-.04.02s.02-.04,0-.08l.04-.02s.02.07,0,.08"/>
        <path class="cls-27" d="M4.12,18.29l.04-.02s-.02.04,0,.07l-.04.02s-.02-.07,0-.08"/>
        <path class="cls-27" d="M3.26,16.85l.04-.02s.02,0,.03,0l-.04.02s-.02,0-.03,0"/>
        <polygon class="cls-27" points="3.32 16.9 3.36 16.88 3.38 16.92 3.34 16.94 3.32 16.9"/>
        <path class="cls-27" d="M3.34,16.94l.04-.02s.02.04.04.04l-.04.02s-.03-.02-.03-.04"/>
        <path class="cls-27" d="M3.29,16.86l.04-.02s.03.02.03.04l-.04.02s-.02-.04-.03-.04"/>
        <path class="cls-27" d="M3.44,16.97l-.04.02s-.02,0-.03,0l.04-.02s.02,0,.03,0"/>
        <polygon class="cls-27" points="4.17 18.2 4.21 18.18 4.24 18.21 4.2 18.23 4.17 18.2"/>
        <path class="cls-27" d="M4.25,18.3l-.04.02s.02-.06-.02-.09l.04-.02s.04.08.02.09"/>
        <path class="cls-27" d="M4.15,18.11l.04-.02s-.02.06.02.09l-.04.02s-.04-.08-.02-.09"/>
        <path class="cls-27" d="M3.51,17l.04-.02s.02.05.04.06l-.04.02s-.03-.03-.04-.06"/>
        <path class="cls-27" d="M3.43,16.9l.04-.02s.02,0,.03,0l-.04.02s-.02,0-.03,0"/>
        <polygon class="cls-27" points="3.5 16.96 3.54 16.94 3.55 16.98 3.51 17 3.5 16.96"/>
        <path class="cls-27" d="M3.46,16.9l.04-.02s.03.03.04.06l-.04.02s-.02-.05-.04-.06"/>
        <path class="cls-27" d="M3.62,17.04l-.04.02s-.02,0-.03,0l.04-.02s.02,0,.03,0"/>
        <polygon class="cls-27" points="4.17 18 4.21 17.98 4.24 18 4.2 18.03 4.17 18"/>
        <path class="cls-27" d="M3.68,17.11l.04-.02s.02.06.04.07l-.04.02s-.04-.04-.04-.07"/>
        <path class="cls-27" d="M4.14,17.91l.04-.02s-.01.07.03.1l-.04.02s-.05-.08-.03-.1"/>
        <path class="cls-27" d="M4.27,18.1l-.04.02s.01-.07-.03-.1l.04-.02s.05.09.03.1"/>
        <polygon class="cls-27" points="3.68 17.08 3.72 17.05 3.72 17.09 3.68 17.11 3.68 17.08"/>
        <path class="cls-27" d="M3.61,17l.04-.02s.02,0,.03,0l-.04.02s-.02,0-.03,0"/>
        <path class="cls-27" d="M3.79,17.17l-.04.02s-.02,0-.03,0l.04-.02s.02,0,.03,0"/>
        <path class="cls-27" d="M3.64,17l.04-.02s.04.04.04.07l-.04.02s-.02-.06-.04-.07"/>
        <path class="cls-27" d="M4.08,17.69l.04-.02s0,.08.03.1l-.04.02s-.06-.08-.03-.1"/>
        <polyline class="cls-27" points="4.11 17.78 4.15 17.76 4.16 17.76 4.12 17.79 4.11 17.78"/>
        <path class="cls-27" d="M3.84,17.27l.04-.02s.02.07.04.09l-.04.02s-.05-.06-.04-.09"/>
        <polyline class="cls-27" points="4.16 17.8 4.19 17.78 4.2 17.78 4.17 17.8 4.16 17.8"/>
        <polygon class="cls-27" points="4.12 17.79 4.16 17.76 4.19 17.78 4.16 17.8 4.12 17.79"/>
        <path class="cls-27" d="M3.88,17.36l.04-.02s.02,0,.03,0l-.04.02s-.02,0-.03,0"/>
        <path class="cls-27" d="M3.98,17.47l.04-.02s0,.08.04.1l-.04.02s-.05-.07-.03-.09"/>
        <path class="cls-27" d="M4.01,17.56l.04-.02s.01,0,.02,0l-.04.02s-.01,0-.02,0"/>
        <polygon class="cls-27" points="3.85 17.24 3.89 17.22 3.88 17.25 3.84 17.27 3.85 17.24"/>
        <path class="cls-27" d="M3.78,17.15l.04-.02s.02,0,.03,0l-.04.02s-.02,0-.03,0"/>
        <path class="cls-27" d="M4.23,17.88l-.04.02s0-.08-.03-.1l.04-.02s.05.08.03.1"/>
        <polygon class="cls-27" points="3.91 17.36 3.95 17.34 3.97 17.33 3.93 17.35 3.91 17.36"/>
        <path class="cls-27" d="M4.06,17.57l.04-.02s.01,0,.02,0l-.04.02s-.01,0-.02,0"/>
        <polygon class="cls-27" points="4.03 17.57 4.07 17.55 4.1 17.54 4.06 17.57 4.03 17.57"/>
        <path class="cls-27" d="M3.81,17.16l.04-.02s.05.05.04.09l-.04.02s-.02-.07-.04-.09"/>
        <polygon class="cls-27" points="4 17.45 4.03 17.42 4.02 17.45 3.98 17.47 4 17.45"/>
        <path class="cls-27" d="M3.93,17.35l.04-.02s.02,0,.03,0l-.04.02s-.02,0-.03,0"/>
        <path class="cls-27" d="M4.15,17.65l-.04.02s0-.08-.03-.1l.04-.02s.06.08.03.1"/>
        <path class="cls-27" d="M3.96,17.35l.04-.02s.05.07.04.1l-.04.02s0-.08-.04-.1"/>
        <path class="cls-8" d="M3.64,17s.04.04.04.07v.04s.02.06.04.07c.01,0,.03,0,.04,0l.02-.02s.02,0,.03,0c.03.01.05.05.04.09v.03s0,.07.03.09c0,0,.02,0,.03,0h.02s.02-.02.03-.01c.03.02.06.07.04.1l-.02.02s0,.08.03.1c0,0,.01,0,.02,0h.03s.01,0,.02,0c.03.02.06.08.03.1h-.02s0,.09.03.11c0,0,0,0,.01,0h.03s0,.01,0,.01c.04.02.06.1.02.1h-.03s-.03.07.02.1l.03.02s.05.11,0,.1h-.03s-.05.04,0,.08l.03.03s.03.11-.01.08l-.04-.02s-.06.02-.03.07l.03.04s.01.1-.02.07c0,0-.01,0-.02-.01l-.03-.03s-.01,0-.02-.01c-.03-.02-.05.02-.03.06l.02.04s0,.08-.03.06c0,0-.02-.01-.02-.02l-.03-.04s-.02-.02-.02-.02c-.03-.02-.05,0-.04.04v.04s0,.06-.03.04c-.01,0-.02-.02-.03-.04l-.02-.04s-.02-.03-.03-.04c-.02-.01-.05,0-.04.03v.04s-.01.04-.04.03c-.01,0-.03-.03-.04-.05v-.04s-.03-.04-.05-.05c-.02-.01-.04,0-.04.02v.04s-.03.03-.04.02c-.02-.01-.04-.04-.04-.07v-.04s-.03-.05-.05-.07c-.02,0-.03,0-.04,0v.03s-.04.02-.05,0c-.02-.01-.05-.05-.04-.08v-.04s-.01-.07-.04-.08c-.01,0-.02,0-.03,0l-.02.02s-.02,0-.03,0c-.03-.02-.05-.06-.04-.09v-.03s0-.07-.02-.09c0,0-.02,0-.03,0h-.03s-.02,0-.02,0c-.03-.02-.06-.08-.03-.1l.02-.02s0-.08-.03-.1c0,0-.01,0-.02,0h-.03s-.01,0-.02-.01c-.04-.02-.06-.09-.02-.1h.03s.02-.08-.02-.11l-.04-.02s-.06-.11-.02-.1h.03s.04-.06,0-.09l-.03-.02s-.04-.12,0-.09l.03.02s.05-.04.02-.08l-.03-.04s-.02-.1.02-.08c0,0,0,0,0,0l.03.03s0,0,0,0c.04.02.06-.02.03-.07l-.02-.04s0-.09.03-.07c0,0,.01,0,.02.02l.03.03s.01.01.02.02c.03.02.05,0,.04-.05l-.02-.04s0-.07.04-.05c.01,0,.02.01.03.03l.02.04s.02.02.03.03c.03.02.05,0,.04-.04v-.04s0-.05.03-.04c.01,0,.03.02.04.04l.02.04s.02.04.04.04c.02.01.04,0,.04-.02v-.04s.02-.04.04-.02c.02.01.03.03.04.06v.04s.03.05.05.06c.02,0,.03,0,.04-.01v-.03s.03-.02.05-.01"/>
        <polygon class="cls-27" points="9.62 21.79 9.7 21.75 9.67 21.77 9.59 21.82 9.62 21.79"/>
        <polyline class="cls-27" points="9.66 21.78 9.58 21.82 9.59 21.82 9.66 21.77 9.66 21.78"/>
        <path class="cls-27" d="M9.09,20.94l.08-.04s0,0,.01,0l-.08.04s0,0,0,0"/>
        <polyline class="cls-27" points="9.63 21.79 9.71 21.74 9.7 21.75 9.62 21.79 9.63 21.79"/>
        <path class="cls-27" d="M9.23,20.88l-.08.04s0,0-.01,0l.08-.04s0,0,.01,0"/>
        <polygon class="cls-27" points="9.1 20.94 9.18 20.89 9.22 20.88 9.15 20.93 9.1 20.94"/>
        <polygon class="cls-27" points="9.89 22.05 9.96 22.01 9.94 22.05 9.87 22.1 9.89 22.05"/>
        <path class="cls-27" d="M9.93,22.07l-.08.04s.01,0,.02-.02l.08-.04s0,.01-.01.02"/>
        <path class="cls-27" d="M8.99,20.57l.08-.04s.02,0,.03,0l-.08.04s-.02,0-.03,0"/>
        <path class="cls-27" d="M9.9,22.03l.08-.04s-.01,0-.02.01l-.08.05s0-.01.01-.02"/>
        <path class="cls-27" d="M9.18,20.53l-.08.05s-.02,0-.03,0l.08-.04s.02,0,.03,0"/>
        <polygon class="cls-27" points="9.02 20.57 9.1 20.52 9.15 20.53 9.07 20.57 9.02 20.57"/>
        <path class="cls-27" d="M10.22,22.28l-.08.04s.02-.02.02-.04l.08-.04s0,.03-.02.03"/>
        <polygon class="cls-27" points="10.17 22.23 10.25 22.19 10.24 22.24 10.16 22.29 10.17 22.23"/>
        <path class="cls-27" d="M8.98,20.22l.08-.04s.03,0,.04,0l-.08.05s-.03-.01-.04,0"/>
        <path class="cls-27" d="M10.19,22.2l.08-.04s-.02.02-.02.03l-.08.04s0-.03.02-.04"/>
        <polygon class="cls-27" points="9.02 20.23 9.1 20.18 9.15 20.21 9.07 20.25 9.02 20.23"/>
        <path class="cls-5" d="M9.39,20.78l.08-.04c.06.35.28.73.55.96l-.08.04c-.28-.23-.5-.61-.55-.96"/>
        <path class="cls-27" d="M9.2,20.21l-.08.04s-.03,0-.04,0l.08-.05s.03.01.05,0"/>
        <path class="cls-27" d="M10.51,22.4l-.08.04s.02-.02.02-.05l.08-.05s0,.05-.02.05"/>
        <polygon class="cls-27" points="10.44 22.33 10.52 22.28 10.53 22.35 10.45 22.39 10.44 22.33"/>
        <path class="cls-27" d="M9.04,19.93l.08-.04s.03,0,.04,0l-.08.04s-.03-.01-.04,0"/>
        <path class="cls-27" d="M9.08,19.93l.08-.04s.01,0,.02.01l-.08.04s-.01,0-.02-.01"/>
        <path class="cls-27" d="M10.46,22.27l.08-.04s-.02.03-.02.06l-.08.04s0-.05.02-.06"/>
        <path class="cls-27" d="M9.29,19.96l-.08.04s-.03,0-.04,0c0,0-.01,0-.02-.01l.08-.04s.01,0,.02.01c.02.01.03.01.05,0"/>
        <polygon class="cls-27" points="9.1 19.94 9.18 19.9 9.23 19.94 9.15 19.98 9.1 19.94"/>
        <path class="cls-27" d="M10.78,22.42l-.08.04s.03-.04.02-.08l.08-.04s0,.07-.01.08"/>
        <polygon class="cls-27" points="10.69 22.32 10.77 22.27 10.79 22.34 10.71 22.39 10.69 22.32"/>
        <path class="cls-27" d="M9.17,19.71l.08-.04s.03,0,.05,0l-.08.04s-.04-.01-.05,0"/>
        <path class="cls-27" d="M10.71,22.24l.08-.04s-.03.04-.02.08l-.08.04s0-.07.01-.08"/>
        <path class="cls-27" d="M9.22,19.71l.08-.04s.02.01.03.03l-.08.05s-.02-.02-.03-.03"/>
        <polygon class="cls-27" points="9.25 19.74 9.33 19.7 9.38 19.75 9.3 19.8 9.25 19.74"/>
        <path class="cls-27" d="M9.46,19.78l-.08.04s-.03,0-.05,0c-.01,0-.02-.01-.03-.03l.08-.04s.02.02.03.03c.02.01.04.01.05,0"/>
        <polygon class="cls-5" points="10.25 21.27 10.32 21.23 10.32 21.87 10.24 21.91 10.25 21.27"/>
        <path class="cls-5" d="M9.59,20.14l.08-.04c-.1.05-.16.16-.19.3l-.08.05c.03-.14.1-.24.19-.3"/>
        <path class="cls-27" d="M10.68,21.85l-.08.04c-.1.06-.22.07-.36.02l.08-.05c.14.05.27.04.36-.02"/>
        <polygon class="cls-27" points="9.39 20.44 9.47 20.39 10.02 20.71 9.95 20.76 9.39 20.44"/>
        <path class="cls-27" d="M11,22.34l-.08.04s.03-.05,0-.1l.08-.04c.03.05.02.09,0,.1"/>
        <polygon class="cls-27" points="10.9 22.22 10.97 22.17 11.01 22.24 10.93 22.28 10.9 22.22"/>
        <path class="cls-27" d="M9.37,19.58l.08-.04s.03,0,.05,0l-.08.04s-.04-.01-.05,0"/>
        <path class="cls-27" d="M10.9,22.11l.08-.04s-.03.05,0,.1l-.08.04s-.02-.09,0-.1"/>
        <path class="cls-27" d="M9.42,19.58l.08-.04s.03.02.04.05l-.08.04s-.03-.04-.04-.05"/>
        <polygon class="cls-27" points="9.47 19.63 9.54 19.58 9.58 19.65 9.51 19.69 9.47 19.63"/>
        <path class="cls-27" d="M9.68,19.7l-.08.04s-.03,0-.05,0c-.02,0-.03-.03-.05-.05l.08-.04s.03.04.05.05c.02.01.04.01.05,0"/>
        <polygon class="cls-27" points="11.04 22.02 11.12 21.98 11.16 22.04 11.09 22.08 11.04 22.02"/>
        <path class="cls-27" d="M11.17,22.16l-.08.04s.03-.07,0-.13l.08-.05c.04.06.04.11.01.13"/>
        <path class="cls-27" d="M11.03,21.9l.08-.04s-.03.07,0,.12l-.08.04c-.04-.05-.04-.11,0-.12"/>
        <path class="cls-27" d="M9.62,19.55l.08-.04s.03,0,.05,0l-.08.04s-.04-.01-.05,0"/>
        <polygon class="cls-27" points="9.73 19.62 9.81 19.58 9.84 19.65 9.76 19.69 9.73 19.62"/>
        <path class="cls-27" d="M9.76,19.69l.08-.04s.03.06.06.07l-.08.04s-.04-.04-.06-.07"/>
        <path class="cls-27" d="M9.67,19.55l.08-.04s.04.04.06.07l-.08.05s-.04-.06-.06-.07"/>
        <path class="cls-27" d="M9.94,19.72l-.08.04s-.03,0-.05,0l.08-.04s.04.01.05,0"/>
        <polygon class="cls-27" points="10.25 20.93 10.32 20.89 10.88 21.21 10.8 21.25 10.25 20.93"/>
        <polygon class="cls-5" points="10.25 20.29 10.32 20.25 10.32 20.89 10.25 20.93 10.25 20.29"/>
        <polygon class="cls-27" points="11.12 21.76 11.2 21.71 11.25 21.76 11.17 21.81 11.12 21.76"/>
        <path class="cls-27" d="M11.27,21.9l-.08.04s.03-.09-.02-.14l.08-.04c.05.05.06.12.02.14"/>
        <path class="cls-27" d="M11.09,21.61l.08-.04s-.03.09.03.15l-.08.04c-.05-.05-.06-.13-.03-.15"/>
        <path class="cls-27" d="M10.03,19.79l.08-.04s.04.08.07.09l-.08.05s-.06-.05-.07-.09"/>
        <path class="cls-27" d="M9.9,19.62l.08-.04s.03,0,.05,0l-.08.04s-.04-.01-.05,0"/>
        <polygon class="cls-27" points="10.02 19.72 10.1 19.67 10.11 19.74 10.03 19.79 10.02 19.72"/>
        <path class="cls-27" d="M9.95,19.62l.08-.04s.05.05.06.09l-.08.04s-.04-.08-.06-.09"/>
        <path class="cls-27" d="M10.23,19.84l-.08.05s-.03,0-.05,0l.08-.04s.04.01.05,0"/>
        <polygon class="cls-27" points="11.12 21.43 11.19 21.39 11.25 21.42 11.17 21.47 11.12 21.43"/>
        <path class="cls-27" d="M10.31,19.97l.08-.04s.03.1.07.12l-.08.04s-.07-.07-.07-.12"/>
        <path class="cls-27" d="M11.07,21.27l.08-.04s-.02.12.04.16l-.08.04c-.06-.04-.08-.14-.04-.16"/>
        <path class="cls-27" d="M11.29,21.58l-.08.04s.02-.12-.04-.16l.08-.05c.07.04.08.14.05.16"/>
        <path class="cls-27" d="M10.2,19.79l.08-.04s.03,0,.05,0l-.08.04s-.03-.01-.05,0"/>
        <polygon class="cls-27" points="10.31 19.91 10.39 19.87 10.39 19.93 10.31 19.97 10.31 19.91"/>
        <path class="cls-27" d="M10.51,20.05l-.08.04s-.03,0-.05,0l.08-.04s.03.01.05,0"/>
        <path class="cls-27" d="M10.24,19.79l.08-.04s.07.07.07.12l-.08.04s-.03-.1-.07-.12"/>
        <path class="cls-27" d="M10.98,20.91l.08-.04s-.01.12.04.16l-.08.05c-.06-.03-.09-.13-.05-.16"/>
        <path class="cls-27" d="M11.03,21.07l.08-.04s.01,0,.02,0l-.08.04s-.01,0-.02,0"/>
        <path class="cls-27" d="M10.58,20.23l.08-.04s.02.11.07.14l-.08.04s-.08-.09-.07-.14"/>
        <path class="cls-27" d="M11.23,21.22l-.08.04s.01-.13-.04-.16c0,0-.01,0-.02,0l.08-.05s.01,0,.02,0c.06.03.09.14.05.16"/>
        <polygon class="cls-27" points="11.04 21.08 11.12 21.03 11.17 21.05 11.09 21.1 11.04 21.08"/>
        <path class="cls-27" d="M10.64,20.37l.08-.04s.03.01.05,0l-.08.04s-.03,0-.05,0"/>
        <path class="cls-27" d="M10.81,20.55l.08-.04s.01.13.06.15l-.08.05s-.09-.12-.06-.16"/>
        <path class="cls-27" d="M10.86,20.71l.08-.04s.02,0,.03,0l-.08.04s-.02,0-.03,0"/>
        <polygon class="cls-27" points="10.59 20.18 10.67 20.14 10.65 20.19 10.58 20.24 10.59 20.18"/>
        <polygon class="cls-27" points="10.69 20.38 10.77 20.33 10.81 20.31 10.73 20.36 10.69 20.38"/>
        <polygon class="cls-27" points="10.89 20.72 10.97 20.67 11.02 20.67 10.94 20.72 10.89 20.72"/>
        <path class="cls-27" d="M10.48,20.04l.08-.04s.03,0,.05,0c.04.02.08.09.07.14l-.08.04s-.03-.11-.07-.14c-.02,0-.03-.01-.05,0"/>
        <polygon class="cls-27" points="10.83 20.52 10.91 20.47 10.88 20.51 10.8 20.55 10.83 20.52"/>
        <path class="cls-27" d="M11.1,20.84l-.08.04s0-.13-.05-.16c-.01,0-.02,0-.03,0l.08-.04s.02,0,.03,0c.05.03.09.14.05.16"/>
        <path class="cls-27" d="M10.73,20.36l.08-.04s.03,0,.04,0c.05.03.09.11.06.15l-.08.04s-.01-.13-.06-.15c-.02,0-.03-.01-.04,0"/>
        <path class="cls-8" d="M11.17,21.81c.07.07.05.18-.02.14l-.06-.04c-.07-.04-.1.04-.04.12l.04.06c.06.08.03.16-.04.12,0,0-.02-.01-.03-.02l-.05-.05s-.02-.01-.02-.02c-.05-.03-.09.02-.05.1l.03.07c.04.08,0,.13-.05.1-.01,0-.03-.02-.04-.04l-.04-.06s-.03-.03-.04-.04c-.04-.03-.08,0-.06.07l.02.07c.02.07-.02.1-.07.07-.02-.01-.04-.03-.05-.06l-.03-.07s-.03-.05-.05-.06c-.04-.02-.08,0-.07.05v.07c.01.06-.02.07-.06.05-.03-.01-.05-.04-.06-.08l-.02-.07s-.04-.07-.06-.08c-.03-.02-.06-.01-.07.03v.05s-.04.05-.08.03c-.03-.02-.06-.06-.07-.11v-.07s-.04-.09-.08-.11c-.03-.01-.05-.01-.06.01l-.02.05s-.04.02-.06.01c-.04-.02-.08-.08-.07-.13v-.06s-.02-.11-.06-.13c-.02-.01-.04-.01-.05,0l-.03.03s-.03.01-.05,0c-.04-.03-.09-.1-.06-.15l.02-.05s-.02-.12-.06-.15c-.01,0-.03-.01-.04,0h-.04s-.03.01-.04,0c-.05-.03-.09-.13-.05-.16l.04-.03s0-.13-.05-.16c0,0-.02,0-.02,0h-.05s-.02-.01-.03-.02c-.06-.03-.09-.15-.04-.16h.04c.06-.02.03-.14-.04-.18l-.06-.03c-.08-.05-.1-.18-.03-.17h.05c.06.02.06-.09,0-.15l-.05-.04c-.08-.06-.07-.19,0-.15l.05.02c.07.04.09-.06.03-.13l-.05-.05c-.06-.08-.04-.17.03-.13,0,0,.01,0,.02.01l.05.04s.01,0,.02.01c.06.03.09-.04.04-.11l-.04-.07c-.05-.08-.01-.14.05-.11.01,0,.02.02.03.03l.05.06s.02.02.03.03c.05.03.09-.01.06-.09l-.03-.07c-.03-.08.01-.11.06-.09.02,0,.03.03.04.05l.04.07s.03.04.05.05c.04.02.08,0,.07-.06v-.07c-.03-.07.01-.09.05-.06.02.01.04.04.06.07l.03.07s.03.06.06.07c.04.02.07.01.07-.04v-.06c0-.05.03-.06.07-.04.03.02.05.05.06.1l.02.07s.04.08.07.09c.03.02.06.01.07-.02v-.05s.05-.04.08-.02c.04.02.07.07.07.12v.06s.03.1.07.12c.02.01.04.01.06,0l.03-.04s.04-.02.06,0c.04.02.08.09.07.14l-.02.05s.02.11.07.14c.02,0,.03.01.05,0l.04-.02s.03,0,.05,0c.05.03.09.11.06.15l-.03.04s0,.13.06.15c.01,0,.02,0,.03,0h.05s.02,0,.03,0c.05.03.09.14.05.16l-.04.02s-.02.13.04.16c0,0,.01,0,.02,0l.05.02s.01,0,.02,0c.07.04.09.16.03.16h-.05c-.06,0-.04.12.03.16l.05.04c.08.05.09.19,0,.16l-.05-.02c-.07-.02-.07.08,0,.15l.05.05ZM10.24,21.91c.28.09.5-.03.56-.32l-.55-.32v.64ZM9.94,21.74v-.64s-.55-.32-.55-.32c.06.35.28.73.55.96M10.25,20.93l.55.32c-.06-.36-.28-.73-.55-.96v.64ZM9.95,20.76v-.64c-.28-.09-.5.03-.56.32l.56.32Z"/>
        <path class="cls-16" d="M10.55,22.54c-.22,0-.47-.07-.75-.21l.07-.14c.57.28.98.25,1.24-.1.19-.26.18-.58.14-.8-.11-.55-.53-1.14-1-1.41-.31-.18-1.67-.75-3.11-1.36-1.45-.61-2.95-1.24-3.56-1.55-.17-.08-.36-.07-.51.03-.15.1-.23.27-.22.44h-.16c-.02-.22.09-.44.29-.57.2-.14.45-.15.67-.04.61.31,2.1.94,3.55,1.55,1.45.61,2.81,1.19,3.13,1.37.51.29.96.93,1.08,1.52.07.36.02.68-.17.92-.17.23-.41.35-.69.35"/>
        <path class="cls-16" d="M9.8,22.33c-.45-.22-2.52-1.33-2.78-1.47l-.05-.03c-.82-.44-3.31-1.8-3.94-2.61-.14-.18-.32-.47-.34-.77h.16c.02.26.18.51.31.68.61.78,3.08,2.12,3.89,2.57l.05.03c.33.18,2.35,1.26,2.77,1.47l-.07.14Z"/>
        <path class="cls-10" d="M18.14,17.53l.12.55c.02.09-.06.2-.22.29-.29.17-.75.24-1.04.15-.13-.04-.2-.1-.21-.17l-.11-.55c.01.07.08.14.21.17.29.09.75.02,1.04-.15.16-.1.23-.2.22-.29"/>
        <path class="cls-27" d="M17.93,17.36c.29.09.28.29,0,.47-.29.17-.75.24-1.04.15-.28-.09-.28-.3,0-.47.29-.17.76-.24,1.04-.15"/>
        <path class="cls-1" d="M17.56,15.19c.01.07-.05.16-.18.24l.43,2.28c.13-.08.19-.17.18-.24l-.43-2.28Z"/>
        <path class="cls-26" d="M17.38,15.43c-.24.14-.62.2-.85.12-.1-.03-.16-.08-.17-.14l.43,2.28c.01.06.07.11.17.14.23.07.62.01.85-.12l-.43-2.28Z"/>
        <path class="cls-27" d="M17.39,15.05c.23.07.23.24,0,.38-.24.14-.62.2-.85.12-.23-.07-.23-.24,0-.38.24-.14.62-.2.85-.12"/>
        <path class="cls-10" d="M17.58,14.81l.12.55c.02.09-.06.2-.22.29-.29.17-.75.24-1.04.15-.13-.04-.2-.1-.21-.17l-.11-.55c.01.07.08.14.21.17.29.09.75.02,1.04-.15.16-.1.23-.2.22-.29"/>
        <path class="cls-3" d="M17.37,14.64c.29.09.28.29,0,.47-.29.17-.75.24-1.04.15-.28-.09-.28-.3,0-.47.29-.17.76-.24,1.04-.15"/>
        <polygon class="cls-1" points="17.98 14.27 18.08 14.89 16.93 15.56 16.84 14.94 17.98 14.27"/>
        <polygon class="cls-10" points="16.84 14.94 16.93 15.56 15.8 15.21 15.64 14.29 15.88 14.11 16.84 14.94"/>
        <polygon class="cls-26" points="17.98 14.27 16.84 14.94 15.88 14.11 17.02 13.44 17.98 14.27"/>
        <path class="cls-5" d="M12.49,16.7l3.65-2.12s.09-.02.15.01l-3.65,2.12c-.06-.03-.11-.04-.15-.02"/>
        <path class="cls-21" d="M16.44,15.1l-3.65,2.12s.06-.07.06-.14c0-.13-.09-.3-.21-.36l3.65-2.12c.12.07.21.23.21.37,0,.07-.02.11-.06.13"/>
        <path class="cls-3" d="M12.64,16.72c.12.07.21.23.21.36,0,.13-.09.19-.21.12-.12-.07-.21-.23-.21-.36,0-.13.1-.19.21-.12"/>
        <path class="cls-16" d="M11.93,16.88l1.95-1.14c.05-.03.13-.03.21.02l-1.95,1.14c-.08-.05-.15-.05-.21-.02"/>
        <path class="cls-16" d="M14.3,16.46l-1.95,1.14c.05-.03.09-.09.09-.19,0-.19-.13-.41-.29-.51l1.95-1.14c.16.09.29.32.29.51,0,.09-.03.16-.08.19"/>
        <path class="cls-12" d="M12.14,16.9c.16.09.29.32.29.51,0,.18-.13.26-.29.17-.16-.09-.29-.32-.29-.51,0-.18.13-.26.29-.17"/>
        <path class="cls-12" d="M9.61,21.08l.39-.22s.07-.02.12.01l-.39.22s-.09-.03-.12-.01"/>
        <path class="cls-12" d="M10.23,21.27l-.39.22s.05-.05.05-.11c0-.11-.07-.24-.17-.29l.39-.22c.09.05.17.18.17.29,0,.05-.02.09-.05.11"/>
        <path class="cls-3" d="M9.73,21.09c.09.05.17.18.17.29s-.07.15-.17.1c-.09-.05-.17-.18-.17-.29s.08-.15.17-.1"/>
        <path class="cls-12" d="M8.03,21.96s1.24-.73,1.49-.84c.24-.12.51.34.13.5-.38.16-1.33.61-1.52.68-.26.09-.52-.09-.09-.34"/>
        <path class="cls-16" d="M9.61,21.06c-.2.1-.97.54-1.24.7.32-.19.97-.55,1.15-.64.23-.11.46.28.2.46,0,0,.02,0,.03-.01.38-.16.11-.62-.13-.51"/>
        <polygon class="cls-10" points="7.86 22.01 7.85 22.27 6.48 23.02 6.48 22.76 7.86 22.01"/>
        <polygon class="cls-17" points="6.48 22.76 6.48 23.02 6.07 22.76 6.07 22.51 6.48 22.76"/>
        <polygon class="cls-26" points="7.44 21.76 6.07 22.51 6.48 22.76 7.86 22.01 7.44 21.76"/>
        <path class="cls-16" d="M6.5,22.81l1.46-.81s.05-.01.09,0l-1.46.81s-.06-.02-.09,0"/>
        <path class="cls-16" d="M8.13,22.3l-1.46.81s.04-.04.04-.08c0-.08-.05-.17-.12-.21l1.46-.81c.07.04.12.13.12.21,0,.04-.01.07-.03.08"/>
        <path class="cls-12" d="M6.59,22.82c.07.04.12.13.12.21,0,.08-.05.11-.12.07-.07-.04-.12-.13-.12-.21s.05-.11.12-.07"/>
        <polygon class="cls-10" points="7.14 23.14 7.14 23.4 8.51 22.64 8.51 22.39 7.14 23.14"/>
        <polygon class="cls-17" points="7.14 23.14 7.14 23.4 6.72 23.14 6.72 22.89 7.14 23.14"/>
        <polygon class="cls-26" points="8.1 22.14 6.72 22.89 7.14 23.14 8.51 22.39 8.1 22.14"/>
        <path class="cls-2" d="M12.63,2.63l3.93.16s.35-.16.17-.86C16.42.76,15.17-.09,14.1,0c-1.06.1-2.52,1.35-1.48,2.63"/>
        <polygon class="cls-15" points="13.97 2.69 14.21 4.19 13.55 4.05 13.55 4.05 14.21 4.19 13.97 2.69 13.97 2.69"/>
        <polyline class="cls-18" points="15.2 4.83 14.22 4.19 14.22 4.19 15.2 4.83"/>
      </g>
      <g class="cls-11">
        <rect class="cls-23" x="12.2" y="4.49" width="1.99" height="4.45"/>
      </g>
      <g class="cls-19">
        <rect class="cls-4" x="15.5" y="4.57" width="1.18" height="3.59"/>
      </g>
    </g>
  </g>
</svg>