<?xml version="1.0" encoding="UTF-8"?>
<svg id="Calque_2" xmlns="http://www.w3.org/2000/svg" viewBox="0 0 36.73 54.6">
  <defs>
    <style>
      .cls-1 {
        fill: #9fc5e9;
      }

      .cls-2 {
        fill-rule: evenodd;
      }

      .cls-2, .cls-3 {
        fill: #f08c8d;
      }

      .cls-4 {
        fill: #f3a3a7;
      }

      .cls-5 {
        fill: #6a374f;
      }

      .cls-6 {
        fill: #f4ab9d;
      }

      .cls-7 {
        fill: #bdc5e1;
      }

      .cls-8 {
        fill: #e2e5f4;
      }

      .cls-9 {
        fill: #6b3750;
      }

      .cls-10 {
        fill: #f4a79b;
      }

      .cls-11 {
        fill: #e2e4f4;
      }

      .cls-12 {
        fill: #f0888c;
      }

      .cls-13 {
        fill: #7f8ec6;
      }

      .cls-14 {
        fill: #ec9b73;
      }

      .cls-15 {
        fill: #7990c8;
      }
    </style>
  </defs>
  <g id="_Éléments_Mise_en_page" data-name="Éléments_Mise_en_page">
    <g>
      <path class="cls-3" d="M31.85,41.47c.15.37.43.92.35,1.34-.04.18-.15.35-.28.52-.15.19-.33.37-.46.54-.05.06-.1.13-.1.21-.01.18.21.28.39.28.5,0,1.4-.51,1.64-.97.07-.13.07-.27.04-.42-.06-.29-.23-.6-.27-.86-.08-.57-.13-1.14-.15-1.72,0,0,.02-.01.02-.02-.07-.66-.2-1.31-.39-1.95-.15-.51-.43-1.08-.96-1.14-.51-.06-.95.46-.99.98-.05.52.18,1.01.4,1.48.26.57.52,1.15.76,1.74"/>
      <path class="cls-13" d="M31.35,44.07c-.01.18.21.28.39.28.5,0,1.4-.51,1.63-.96.07-.13.07-.27.04-.42-.26.14-.5.3-.68.35-.32.1-.56.04-.83.01-.15.19-.34.37-.46.54-.05.06-.1.13-.1.21"/>
      <path class="cls-4" d="M30.75,29.61c.32-.52.35-1.03-.62-1.45-.87-.35-1.69-.73-2.41-1.17-.5-.49-1.4-1.06-2.35-1.62l-.43.38c.62.83,1.22,1.68,1.87,2.3l2.49,1.52,1.46.05Z"/>
      <path class="cls-4" d="M24.56,24.31c.09,0,.16.06.22.11.35.32,1.52,1.52.41,1.6-.66.05-1.28-.99-.59-.85-.08-.14-.46-.85-.05-.87"/>
      <path class="cls-4" d="M32.38,40.22h-.03s.02.07.05.09c.17.11.26,1.15.31,1.37.1.45.19.9.24,1.36.1.89.07,1.92-.34,2.73-.02.05-.05.1-.07.14-.06.11-.1.2-.13.3-.26.85.77,1.04,1.34.32.11-.14.16-.32.21-.49.06-.23.15-.46.21-.7.02-.08.03-.15.04-.22.03-.34-.12-.68-.08-1.01.05-.34.1-.67.15-.99.23-1.44.44-2.66-.14-3.4h-1.87c.03.17.07.33.1.5"/>
      <path class="cls-14" d="M34.03,35c-.23-.94-.3-1.88-.26-2.72l.14-2.46.98.6s0,.01,0,.02c-.07.48-.09.9-.17,1.29-.16.9-.34,1.68-.05,2.79.36,1.36.36,2.76.64,4.39-.16.82-1.16,1.28-2.33,1.39,1.14-1.45,1.63-3.17,1.05-5.31"/>
      <path class="cls-1" d="M28.46,37.89c.02.12.54.72.6.83.49.97,2.14,1.47,3.1,1.53.96.05,1.96-.17,2.82-.62.08-.04.15-.08.23-.13.78-.46.66-1.23.41-2.02-1.01-3.24-.63-4.32-.46-6.51.04-.46-.06-.92-.28-1.32-.11-.2-.24-.38-.4-.55-.26-.26-1.14-.95-1.51-.96,0,0-1.91-.07-1.91-.07-.21.05-.36.12-.48.22-.26.09-.82.5-.86.65-.1.42.14,1.14.27,1.66-.03.3-.07.59-.1.89-.11.9-.2,1.82-.39,2.7-.27,1.23-1.25,2.42-1.03,3.68"/>
      <path class="cls-1" d="M33.76,46.54c.11-.14.16-.32.21-.49.06-.23.15-.46.21-.7-.36.25-.44.84-1.01.79-.21-.02-.45-.17-.54-.37-.02.05-.05.1-.07.14-.06.11-.1.21-.13.3-.26.85.77,1.04,1.34.32"/>
      <path class="cls-11" d="M32.25,29.6c-.05,0-.1-.02-.16-.02-.06,0-.12.02-.18.04-.26.06-.52-.07-.73-.22-.09-.06-.18-.13-.25-.22-.13-.19-.11-.44-.04-.66.06-.2.17-.4.35-.52.24-.15.55-.12.83-.09.4.05,1.25.07,1.26.64.01.42-.64,1.1-1.08,1.04"/>
      <path class="cls-5" d="M33.04,24.31c.15-.92,1.14-2.19,1.61-2.38.28-.11.62-.16.94-.06.28.09.52.29.71.5.26.3.44.66.43,1.01,0,.35-.22.68-.58.79-.16.05-.34.06-.51.1-.54.13-1.66,1.27-2.31.87-.28-.17-.35-.48-.29-.84"/>
      <path class="cls-8" d="M33.28,23.58s0-.01,0-.02c.06-.1.16-.13.27-.11.05,0,.08.03.12.05.06-.03.12-.05.2-.05.23.01.47.18.63.33.21.2.32.49.29.77,0,.01,0,.02.01.03.03.12-.04.27-.17.29-.12.1-.29.12-.46.07-.25-.07-.52-.29-.67-.5-.07-.09-.1-.19-.12-.29-.06-.02-.12-.06-.15-.12-.2-.07-.19-.4.04-.46"/>
      <path class="cls-5" d="M29.98,25.26c-.06.33.03.68.24.95.02.03.05.06.08.07.08.02.15-.06.18-.13.18-.33.32-.68.39-1.05.03-.15.05-.32-.04-.43-.15-.18-.45-.11-.62.05-.18.17-.29.41-.29.66l.06-.12Z"/>
      <path class="cls-3" d="M33.22,27.28s-.07,1.27-.07,1.27c0,0-.74,1.18-1.65.66-.43-.24-.18-.92-.18-.92l.22-1.24,1.68.22Z"/>
      <path class="cls-4" d="M29.71,26.56c.15-.28.34-.55.45-.77.33-.66.16-1.51.88-1.92.61-.35,1.49-.36,2.11-.04,2.33,1.2.49,3.05.49,3.05-.66.64-1.28,1.45-2.28,1.45-.46,0-1.09-.2-1.38-.61-.24-.34-.46-.79-.27-1.15"/>
      <path class="cls-5" d="M32.86,27.59l.25-1.19s-1.25.28-2.33-.51c-1.15-.85-.46-.3-.51-.72-.32.17-.12.1-.3.34-.13-.4.17-.88.44-1.17.45-.48,1.1-.8,1.76-.8.66,0,1.33.33,1.68.89.05.08.1.16.17.22.08.07.19.09.29.14.23.12.36.37.4.63.04.25-.03.56-.08.81-.08.49-.15.96-.48,1.34-.23.27-.55.45-.87.62-.18.09-.43.17-.55,0-.12-.18,0-.39.07-.6h.04Z"/>
      <path class="cls-4" d="M32.62,27.15c.06-.04.12-.1.19-.13.06-.03.12-.03.19-.03.09-.04.18-.07.28-.07.17,0,.33.11.32.3-.01.19-.18.31-.34.37-.14.05-.34.13-.5.08-.06-.02-.1-.05-.12-.09-.06-.06-.08-.15-.05-.24-.05-.05-.06-.14.02-.19"/>
      <path class="cls-15" d="M33.84,31.37c.46.01.89-.07,1.3-.23-.17,2.09-.52,3.19.48,6.36.25.79.36,1.56-.41,2.02-.08.04-.15.09-.23.13-.22-.67-.86-1.75-.92-2.46-.15-1.73-.76-4.24-.33-4.79.18-.23-.18-.65-.24-1.03.12,0,.24.01.36,0"/>
      <path class="cls-4" d="M31.79,32.2c-.02.05-.03.11-.02.16.03.18.18.31.33.42.54.42,1.18.81,1.81,1.07.41.17.89.3,1.34.31.1,0,.21,0,.3-.05.11-.06.19-.17.22-.28.04-.12.04-.24.04-.37-.02-1-.45-1.95-.65-2.91-.44.29-.94.49-1.49.58l.53,1.4c-.38-.11-.75-.17-1.13-.22-.34-.04-.63-.22-.98-.24-.09,0-.2,0-.26.07-.01.02-.03.03-.04.05"/>
      <path class="cls-4" d="M31.16,31.74s0-.06.03-.08c0,0,0,0,0,0h0s.08-.03.12-.02c.34.02.68.14.96.33-.1-.12-.16-.29-.14-.44.2.16.48.38.61.64.04.09.07.18.07.28,0,.22-.14.39-.33.43,0,0,0,0,0,0-.05.02-.11.03-.17.02-.12,0-.24-.07-.34-.13-.2-.11-.41-.23-.56-.39-.16-.17-.27-.39-.24-.62"/>
      <path class="cls-5" d="M31.55,25.81c.44-.06,2.11-.36,2.32-.76.35-.67-.69-1.64-1.23-1.86-.87-.35-1.73.23-2.35.82-.02.02-.03.04-.04.06-.02.02-.05.04-.07.06-1.38,1.17.21,1.85,1.36,1.68"/>
      <path class="cls-3" d="M10.76,15.23c.83-1.74,1.6-3.59,2.1-5.5.12-.44.15-.84.09-1.3-.11-.74-.62-1.64-1.3-1.43-.64.2-1.13,1.69-1.29,2.34-.72,2.77-1.11,3.45-1.41,5.28-.12.78,0,1.8.95,1.71.43-.04.69-.74.87-1.1"/>
      <path class="cls-2" d="M4.71,22.4c.36-.49,1.05-1.1,1.69-1.05.69.05.51.63.44,1.07-.02.14-.4,1.36-.34,1.37l-.3-.03-.72.23-.46-.21-.3-.04c-.04-.14-.05-.27-.04-.37-.07.06-.16.08-.28.06l.04-.56c.02-.24.1-.24.27-.46"/>
      <path class="cls-2" d="M5.41,21.81c.46.03.91.02,1.17.19.53-.87,2.4-3.07,3.27-4.89.51-1.06.69-1.97.06-2.4-.59-.4-.98.11-1.52.87-1.17,1.66-1.63,3.86-2.99,6.22"/>
      <path class="cls-15" d="M2.64,26.45s.1,0,.12-.06c.49-1.39,1.58-2.99,2.53-3.25.27-.07.44-.05.54.07.2.26.17,1.12.12,1.85,0,.09.04.19.11.21.07.03.13-.02.13-.11.08-1.27.02-1.86-.22-2.18-.22-.28-.53-.24-.77-.18-1.05.29-2.16,1.96-2.66,3.39-.03.08,0,.18.06.24.01.01.03.02.04.02"/>
      <path class="cls-9" d="M4.63,28.39c-.08.08-.16.17-.25.25-.09.04-.16.09-.2.14-.12.11-.25.25-.35.32-.08.06-.16.11-.24.16-.06.04-.41.32-.11.07.28-.23-.03,0-.13.04-.08.03-.17.06-.25.09-.01,0-.03,0-.05,0-.01,0-.03,0-.05,0-.02,0-.03,0-.05,0-.16-.03-.31-.08-.47-.11.14.03.24.04.3.05.1.02.13.02,0,0-.1-.02-.24-.05-.34-.09-.37-.14-.73-.31-1.08-.5,0,0,0,0,0,0,0,0,0,0,0,0,0,0-.01,0-.02-.01.05-.52-.08-1.06-.35-1.52.03-.15.13-.28.26-.36l5.22-3.03.7-.39c.14-.08.32-.04.41.08l.68.88s.06.04.1.04l1.05-.22c.07-.02.14.04.15.11v.07c-.03.14-.05.29-.05.43-1.9.3-3.61,2.18-4.89,3.5"/>
      <path class="cls-9" d="M.6,34.52c-.11-.06-.22-.12-.34-.17.45.19.46.21.34.17"/>
      <path class="cls-1" d="M3.6,27.91l-.1,10.07c-.21,0-.41-.05-.59-.16l-2.58-1.46c-.22-.14-.35-.39-.32-.65l.98-8.29.05-.18c0-.06.09-.08.12-.02l.7,1.36c.08.14.26.2.4.12l1.36-.79Z"/>
      <path class="cls-15" d="M10.41,33.57c.01.26-.12.51-.34.65l-6.05,3.59s-.04.03-.07.04c-.02.01-.04.02-.07.03-.02,0-.04.02-.06.02-.02,0-.04.01-.06.02,0,0,0,0,0,0-.02,0-.04.01-.06.02,0,0,0,0,0,0-.02,0-.04,0-.07.01h0s-.04,0-.07,0c-.02,0-.05,0-.07,0-.01,0-.02,0-.03,0l.1-10.03,5.76-3.56c.11-.07.25,0,.25.13l.83,9.05Z"/>
      <path class="cls-15" d="M4.81,27.91c.08.03.12-.03.11-.11-.3-2.36-.23-4.61.52-4.81.33-.09.67.19.89.44.57.63,1.05,1.77,1.19,2.84.01.09.08.17.14.19.06.02.1-.04.09-.12-.16-1.19-.68-2.42-1.33-3.13-.39-.43-.78-.62-1.11-.53-.85.22-.95,2.53-.63,5.06.01.08.06.16.12.19"/>
      <path class="cls-6" d="M6.46,23.7c.39-.14.24-.82-.08-1-.42-.24-.62.12-.81.39-.14.2-.53.67-.27.85.24.16,1.18.02,1.22-.23-.04,0-.07-.01-.11,0h.04Z"/>
      <path class="cls-9" d="M20.85,44.54c.23-.5.64-.99.85-1.38.14-.26.25-.45.31-.54.18-.3.63-1.47.75-1.78.27-.65,1.08-.02,1.26.41.07.16.07.36.04.58-.06.43-.05.62-.06.92,0,.16-.01.46-.01.46l-.36.43s-.18-.08-.18-.08c-.51,1.14-1.33,2.03-2.74,1.84-.07-.28.01-.58.15-.88"/>
      <path class="cls-3" d="M22.36,44.15c-.36.24-1.06.52-.92.05.13-.46.31-.98.49-1.29.3-.49.5-1,.52-1.58.01-.29-.27-1.66.56-1.21.11,0,.21.21.27.29.13.15.29.26.43.38.15.13.23.3.25.51,0,.04,0,.07,0,.11-.04.58-.56,1.44-.83,1.95-.11.2-.43.57-.77.8"/>
      <path class="cls-3" d="M16.97,31.5c.39.19.79.48,1.16.76,1,.75,1.88,1.66,2.56,2.72.9,1.39,2.25,4.29,2.99,5.76.28.56-.21.04-.53.48-.28.08.2.51-.06.64-.04.02.34.5.3.52-1.17-.51-8.31-8.46-8.69-9.52-.51-1.38,1.96.04,2.28-1.36"/>
      <path class="cls-3" d="M9.97,25.48c-.17-1.25-.29-2.57.4-3.6.1-.15.11-.3.06-.44.14-.18.3-.34.48-.45.58-.37,2.3-.1,2.84.32,1.18.92,3.44,7.77.43,10.78-1.06,1.06-3.28-3.66-4.08-5.9,0-.02-.13-.68-.13-.71"/>
      <path class="cls-9" d="M10.55,54.52c-.22.19-.7.04-.79-.23-.14-.45.03-1.01.15-1.53.21-.92.57-2.1.89-2.99.63-1.73,1.98-1.61,1.93.35-.04,1.59-.95,3.34-2.18,4.4"/>
      <path class="cls-10" d="M10.38,51.46c.1-1.07.47-2.48.51-2.86.35-3.24.37-6.5.61-9.75.02-.29.04-.58.06-.87v-.04c.06-.86.12-1.75.22-2.64.02-.2.06-.4.12-.6.13-.83.41-2.37,1.01-5.68l.04-.19c.27-1.48.61-3.32,1.02-5.6.17-.95.47-1.97,1.39-2.33.46-.18.93-.11,1.28-.03.67.16,1.31.43,1.9.82l.24.16-.04.28c-.24,1.67-.4,3.61.31,5.41l.06.14-.04.15c-.81,2.79-1.84,5.1-3.07,6.86l-.56,1.44c.07.84.15,1.78,0,2.77-.04.58-.09,1.19-.18,1.81-.22,1.6-.6,3.21-1.07,4.75-.44,1.43-1.24,2.51-1.44,4-.17,1.3-1.08,2.86-2.08,3.71-.54-.29-.33-1.14-.28-1.72"/>
      <path class="cls-9" d="M14.87,6.52c.54.07,1.04-.06,1.44-.48.88-.95.85-3.02.43-4.16-.25-.68-.66-1.23-1.29-1.6-1.14-.64-1.5,0-2.56.14-.13.02-.27-.01-.4-.01-1.89.02-1.45,3.02-.8,3.99.57.83,1.96,1.98,3.19,2.13"/>
      <path class="cls-8" d="M10.31,29.14c.22.95.49,1.86.8,2.69.06.15.12.32.25.43.12.11.29.15.44.19.88.21,1.78.35,2.68.4,1.08-.23,2.13-.56,3.14-.98.43-.2.84-.42,1.25-.65.28-.16.56-.33.83-.51.09-.35.15-.72.19-1.08.27-2.32.23-4.66-.16-6.97-.34-2.05-1.28-3.92-1.67-5.95,0-.04-.01-.07-.02-.11-.01-.07-.02-.14-.04-.21-.05-.32-.06-.64-.03-.94,0,0,0-.01,0-.02,0-.08.02-.16.03-.24.18-1.3.91-2.49,1.31-3.8.01-.04.02-.07.03-.1.21-.71.4-1.55-.09-2.19-.04-.05-.08-.1-.12-.14-.26-.27-.55-.49-.86-.66-.42-.24-.88-.42-1.36-.6-.04-.02-.09-.03-.13-.05-.11-.04-.23-.08-.34-.12-.12-.04-.23-.08-.35-.11-.79-.23-1.61-.39-2.44-.54-.02,0-.05,0-.07-.01-.05,0-.09-.02-.14-.03-.09-.02-.17-.03-.26-.03-.72-.06-1.47.16-1.9.74-.21.28-.32.63-.42.97-.36,1.27-.66,2.67-.37,4.06.39,1.86.85,3.24.43,5.2-.2.92-.62,2.97-.88,4.05-.52,2.21-.32,4.89.23,7.3"/>
      <path class="cls-12" d="M13.02,7.09c-.34.18-.52.57-.44.94.16.74.29,1.55.95,1.73,1.16.32,2.32-1.27,2.65-2.29,0-.01-.01-.02-.02-.03-.8-.24-1.62-.39-2.47-.55-.04,0-.1,0-.14,0-.19.05-.36.11-.53.2"/>
      <path class="cls-7" d="M12.31,14.77c.47,1,1.94.9,2.83,1.55.94.69,1.55,1.93,1.92,3.31,1.14,2.28,1.31,4.82,1.32,7.38.25,1.4.41,2.81.49,4.22.28-.16.56-.33.83-.51.09-.35.15-.72.19-1.08.27-2.32.23-4.66-.15-6.97-.34-2.05-1.28-3.91-1.67-5.95,0-.04-.01-.08-.02-.11-.01-.07-.02-.14-.03-.21-.05-.32-.06-.64-.03-.94,0,0,0-.01,0-.02,0-.08.02-.16.03-.24.18-1.3.91-2.49,1.31-3.8l-.05-2.29c-.04-.05-.08-.1-.12-.14-.26-.27-.55-.49-.86-.66-.56,1.52-.17,3.6-1.24,5.07-1.04,1.43-3.1,2.04-4.75,1.39"/>
      <path class="cls-6" d="M23.15,23.34s-.03-.05-.05-.08c-.22-.39-.46-.78-.67-1.18-.72-1.39-1.29-2.83-1.84-4.27-.29-.76-1.06-2.33.36-2.45,1.46-.12,1.83,2.24,2.08,3.09l.26.91c.33,1.15.64,2.27.88,3.43.03.16.06.33.02.48-.13.45-.76.45-1.05.07"/>
      <path class="cls-6" d="M20.11,16.32c-1.01-1.64-1.97-3.4-2.68-5.24-.16-.43-.24-.82-.23-1.29.03-.75.45-1.7,1.14-1.56.66.13,1.3,1.56,1.54,2.19,1.01,2.68,1.48,3.31,1.96,5.1.21.76.2,1.79-.76,1.8-.44,0-.77-.66-.98-1"/>
      <path class="cls-6" d="M24.79,25.7c-.11.04-.23.07-.34.1-.01,0-.02,0-.04,0-.14.03-.28.05-.42.07l-.44-.88.15.93c-.05,0-.11.02-.17.02-.07-.16-.15-.36-.25-.6-.44-1.03-.32-2.07-.32-2.07l.06-.13c.16-.34.56-.48.85-.3.48.3.87.74,1.11,1.26l.25.55c.12.26.15.56.11.85-.18.07-.36.14-.54.19"/>
      <path class="cls-9" d="M16.78,4.08h0s0,0,0,0c0,0,0,0,0,0"/>
      <path class="cls-9" d="M16.74,4.03s.02.04.03.06c-.03.05-.06.1-.09.14.02-.07.03-.14.05-.21"/>
      <path class="cls-9" d="M14.3,12.22c.05-.61.34-1.17.6-1.73.12-.25.25-.52.37-.8l.03-.16c.13-.35.25-.7.35-1.05.06-.41.04-.81-.14-1.19-.12-.24-.29-.48-.26-.75.04-.38.44-.59.74-.83.18-.14.33-.31.45-.51v.04s.01-.04.02-.06c.2-.32.31-.7.31-1.09.47.8,1.02,1.82,1.44,2.72.97,2.08.46,4.76-1.21,6.34-.08.07-.16.14-.25.21-.06.77-.12,1.53-.66,2.03-.22.2-.53.34-.82.26-.3-.08-.5-.37-.63-.66-.29-.63-.38-1.35-.27-2.04-.08-.24-.11-.49-.08-.74"/>
      <path class="cls-9" d="M16.45,5.21c0-.34.07-.66.24-.97-.08.32-.15.63-.22.95,0,0-.01.02-.01.02"/>
      <path class="cls-1" d="M31.51,28.47c-.7-.24-1.4-.47-2.1-.71-.42.14-.58.68-.46,1.11.12.42.45.76.75,1.08.3.32.61.67.69,1.11-.04-.87.12-1.75.47-2.55.03-.07.07-.14.14-.15.07-.01.13.11.06.13h.44Z"/>
      <polygon class="cls-12" points="13.17 3.87 13.17 8.05 15.49 8.05 15.12 3.87 13.17 3.87"/>
      <path class="cls-10" d="M13.97,3.78c-.35-.09-.68-.26-.97-.49,0,.25,0,.49,0,.52,0,1.34.87,2.97,2.17,2.65.92-.23,1.28-1.31,1.28-2.65,0-.01,0-.06,0-.13-.77.33-1.69.31-2.47.1"/>
      <path class="cls-10" d="M14.19,2.54v1.59h.61l.04-.21c-.15-.04-.52-1.32-.65-1.38"/>
      <path class="cls-10" d="M12.5,3.21c.05-.1.2-.13.29-.08.29.18.53.52.63.85.03.11-.04.23-.15.26-.03,0-.07.02-.1.02-.05.01-.1,0-.14-.01-.05-.02-.1-.06-.12-.14-.03-.12-.23-.23-.32-.33-.15-.17-.19-.37-.08-.58"/>
    </g>
  </g>
</svg>