<?xml version="1.0" encoding="UTF-8"?>
<svg id="Calque_2" xmlns="http://www.w3.org/2000/svg" viewBox="0 0 25.12 51.88">
  <defs>
    <style>
      .cls-1 {
        fill: #eeeeef;
      }

      .cls-2 {
        fill: #db3236;
      }

      .cls-3 {
        fill: #edb4a7;
      }

      .cls-4 {
        fill: #fff;
      }

      .cls-5 {
        fill: #d28940;
      }

      .cls-6 {
        fill: #ebeaeb;
      }

      .cls-7 {
        fill: #e29c77;
      }

      .cls-8 {
        fill: #009283;
      }

      .cls-9 {
        fill: #e4c9a7;
      }

      .cls-10 {
        fill: #008d99;
      }

      .cls-11 {
        fill: #f7b900;
      }

      .cls-12 {
        fill: #654940;
      }

      .cls-13 {
        fill: #393533;
      }

      .cls-14 {
        fill: #eeb492;
      }
    </style>
  </defs>
  <g id="_Éléments_Mise_en_page" data-name="Éléments_Mise_en_page">
    <g>
      <path class="cls-5" d="M5.46,28.09l-.59,2.58s.29.08.97-.09c0,0-.14-.56-.22-1-.06-.32-.15-1.49-.15-1.49"/>
      <path class="cls-2" d="M3.34,50.66l-.53-1.19c-.07-.16-.22-.27-.4-.28l-.95-.08c-.11,0-.21.06-.24.17-.07.28-.18.81-.23,1.05-.06.34.79,1.08,1.14,1.33.35.25,1.53.32,1.71.1.21-.25.06-.63-.51-1.09"/>
      <path class="cls-1" d="M2.64,51.5c-.14-.04-.26-.1-.36-.19-.33-.21-.61-.47-.84-.78-.06-.07-.12-.13-.18-.2-.08-.1-.14-.2-.19-.3-.02.12-.05.22-.06.3-.06.34.79,1.08,1.14,1.33.35.25,1.53.32,1.72.1.05-.07.08-.14.09-.22-.01,0-.02,0-.03,0-.41.14-.86.09-1.27-.02"/>
      <path class="cls-2" d="M8.63,49.71c-.43-.3-.84-.63-1.15-1.25-.03-.06-.09-.09-.15-.09l-1.09.07c-.07,0-.13.05-.14.12-.05.25-.14.87.01,1.4,0,0,.17.19.84.31.65.11.39.14.85.3.46.17,1.18-.03,1.28-.14,0,0,.13-.09.11-.26,0,0-.11-.15-.56-.47"/>
      <path class="cls-1" d="M9.08,50.07c-.1.09-.22.15-.35.19-.28.08-.57.08-.83-.01-.07-.02-.15-.05-.22-.09-.03,0-.05-.01-.08-.02-.16-.06-.32-.18-.48-.23-.19-.06-.4-.06-.6-.09-.2-.03-.37-.15-.49-.31.01.16.03.32.08.47,0,0,.17.19.84.3.65.11.39.14.85.3.46.17,1.18-.03,1.28-.14,0,0,.13-.09.11-.26,0,0-.03-.04-.11-.11"/>
      <path class="cls-14" d="M4.04,38.81v2.43l1.69,3.1-.08.72c-.05.39-.02.79.07,1.18l.53,2.28s.65.45,1.11-.09l.08-4.56-1.34-5.51-2.05.45Z"/>
      <path class="cls-14" d="M8.36,37.98l-1.75-2.9-.55-3.2s-.83-2.25-2.02-.45c0,0,.45,2.32.92,3.7.4,1.17,2.13,2.83,2.65,3.31-.05.24.17.62.34.8l.05.14.04.27s-.06.33.18.24l.1-.33.04.06s-.13.42.18.37l.09-.18c0,.12.02.26.2.23l.13-.26c.1.12.22.05.22.05v-.55s-.01-.02-.03-.04c.1.03.18-.02.18-.02l-.3-.77-.68-.5Z"/>
      <path class="cls-14" d="M1.64,42.01c.15.82.48,2.64.48,2.64,0,0-.41.76-.48,1.38l-.26,3.14s.14.24.43.33c.2.06.5.02.77-.14,0,0,1.09-3.5,1.22-4.14.12-.63.45-3.32.45-3.32l.55-2.98-2.88-.32s-.52,2.09-.27,3.41"/>
      <path class="cls-4" d="M3.95,38.49v.1l-2.03-.23s-.42,1.47-.48,3.38c-.01.44,0,1.3,0,1.3.28.35,1.13.78,2.33.78,1.58,0,2.51-.63,3.56-1.37l-1.24-4.33-2.14.37Z"/>
      <path class="cls-11" d="M3.43,30.86c-.1.04-1.47.46-2.17,1.25-.39.45.23,2.15.49,4.22.2,1.58-.2,2.82-.2,2.82,0,0,2.58,1.85,4.98-.55l-.46-5.87c.03-1.32-1.4-2.34-2.64-1.88"/>
      <path class="cls-14" d="M3.66,30.7c-.68-.17-1.19.5-1.19.5,0,0-.03.54.99.93.85.32,1.18-.03,1.29-.2.11-.16-.04-.97-1.09-1.23"/>
      <path class="cls-14" d="M2.85,30.05c.04.5-.38,1.15-.38,1.15l1.73.56c.54-.8.39-1.8.39-1.8l-1.74.09Z"/>
      <path class="cls-3" d="M2.85,30.05c.02.23-.06.49-.15.71.15.17.35.34.56.48.35.23.8.25,1.17.05h0c.24-.67.15-1.33.15-1.33l-1.74.09Z"/>
      <path class="cls-14" d="M2.43,30.09c.33,1.05,1.61,1.15,1.61,1.15,1.04.01,1.29-.67,1.35-1.62l.02-1.69h-3.28l.31,2.16Z"/>
      <path class="cls-5" d="M4.58,26.47c-1.28-.77-2.64.09-2.94.65-.49.92-.44,2.94-.15,3.5.37.71,1.47.62,1.47.62l-.15-1.28c-.05-.47,0-1.42.01-1.44,0,0,1.23.03,1.54.01.87-.06,1.36-.37,1.36-.37,0,0,.09-.96-1.14-1.7"/>
      <path class="cls-14" d="M1.83,31.94c-.44.01-.81.33-.94.75-.23.75-.65,2.16-.84,3.17-.23,1.26.36,3.74.51,4.35l-.05,1.16.26.42.45.2s.21.16.24.19c.11.1.29.07.24-.06l-.04-.13-.08-.34.14-.52.09.43c.18.3.28.14.28.14l-.07-.87-.65-.91.07-3.47,1.15-2.9s.25-1.65-.77-1.62"/>
      <path class="cls-6" d="M2.29,50.17l.06.15c.38-.28.72-.29.72-.29l-.06-.14c-.5.05-.72.28-.72.28"/>
      <path class="cls-6" d="M2.47,50.45l.07.12c.39-.21.65-.25.65-.25l-.05-.12c-.35,0-.67.25-.67.25"/>
      <path class="cls-6" d="M2.63,50.69l.1.16c.27-.18.61-.19.61-.19l-.08-.17c-.28,0-.64.21-.64.21"/>
      <path class="cls-6" d="M7.43,49.44l.14.11c.22-.23.5-.3.5-.3l-.09-.09c-.36.04-.55.28-.55.28"/>
      <path class="cls-6" d="M7.73,49.63l.12.08s.27-.24.41-.28l-.11-.09s-.19.05-.42.29"/>
      <path class="cls-6" d="M8.02,49.77l.16.07c.11-.17.29-.24.29-.24l-.11-.09c-.24.12-.33.27-.33.27"/>
      <polygon class="cls-10" points="13.29 16.9 13.7 16.82 13.99 13.64 13.7 13.64 13.29 16.9"/>
      <path class="cls-7" d="M23.98,20.08l-2.26-5.02s-1.67-7.19-1.78-7.55c-.17-.55-1.29-1.52-2.59-.46,0,0,.12.57.81,2.53.69,1.96,1.95,6.05,1.95,6.05l2.97,4.95c-.16.47.28,1.25.5,1.6l.02.38v.58s-.06.59.22.47l.11-.59.05.12s-.13.76.23.71l.1-.31c0,.21.04.48.26.45l.14-.45c.12.22.27.13.27.13l-.03-1.01s-.01-.03-.03-.07c.12.07.21,0,.21,0l-.25-1.42-.89-1.07Z"/>
      <path class="cls-7" d="M23.35,43.38c-.48-.37-1.8-1.4-2.15-2.29,0-.78.08-2.96.66-7.71.08-.63.18-1.58.25-2.23.06-.25.08-.51.05-.75-.23-1.82-.71-4.44-1.93-10.6l-2.86,5.07,2.32,6.85c-.07.62-.45,3.04-.44,4.13,0,.97.31,3.7.45,4.89,0,0-.37,1.45-.18,2.26,0,0,.19.24.97.4.76.16,1.29.73,1.83.95.54.22,1.39.02,1.51-.11,0,0,.16-.1.14-.3,0,0-.12-.18-.64-.58"/>
      <path class="cls-13" d="M23.35,43.38s-.1-.07-.15-.12c-.25.1-.52.17-.78.18-.62.03-1.06-.3-1.58-.59-.44-.24-1.04-.29-1.35-.72-.02.31-.01.62.05.87,0,0,.19.24.97.4.76.16,1.29.73,1.83.95.54.22,1.39.02,1.51-.11,0,0,.16-.1.14-.3,0,0-.12-.18-.64-.58"/>
      <path class="cls-7" d="M11.95,39.67l-1.12-.74s-.9.37-1.16.64.21,2.67.41,3.09c.44.95,1.42,1.3,1.85,1.04.31-.19.1-.44-.14-1.21l.17-2.82Z"/>
      <path class="cls-13" d="M10.6,41.91c-.35-.77-.39-1.85-.4-2.69-.22.11-.43.24-.54.35-.26.27.21,2.67.41,3.09.44.95,1.42,1.3,1.85,1.04.3-.18.1-.44-.13-1.19-.49.04-.95-.08-1.18-.61"/>
      <path class="cls-7" d="M13.26,23.25c0,.6.25,2.28.25,2.28l.76,7.12c-.41.49-1.01,1.31-1.5,2.41-1.02,2.3-2.08,4.01-2.08,4.01,0,0-.19.6.39.84.67.28.84-.16.84-.16,0,0,2.88-3.45,4.72-5.73.18-.22.29-.65.24-.99.38-2.47.89-7.11.89-7.11l1.65-4.13-5.44-.88s-.73-.35-.72,2.35"/>
      <path class="cls-8" d="M13.75,20.27s-1.3,3.45-1.09,7.54c0,0,2.09,1.08,4,.9,3.53-.33,5.4-1.97,5.4-1.97l-1.74-6.55-6.57.09Z"/>
      <path class="cls-2" d="M20.88,11.89l-.58-1.67-.58-1.47c-.1-.44-.05-1.02-.12-1.31-.17-.67-.58-.76-.58-.76,0,0-.11-.07-.46-.1-1.26-.1-4.41.04-5.79,2.66-.53,1,1.12,4.11,1.37,8,0,.15,0,.3-.03.45l-.63,2.88c2.96,2.31,7.21.09,7.21.09l-.88-3.51.49-3.22s.92-.68.58-2.04"/>
      <path class="cls-7" d="M16.66,6.44c-.91-.17-1.53.75-1.53.75,0,0,0,.72,1.38,1.16,1.15.36,1.56-.13,1.69-.35.13-.23-.12-1.29-1.53-1.56"/>
      <path class="cls-7" d="M15.54,5.63c.1.66-.41,1.56-.41,1.56l2.67.7c.11-.84.04-2.51.04-2.51l-2.31.25Z"/>
      <path class="cls-7" d="M14.46,2.5l.34,2.35c.27,1.33,2.36,1.95,2.36,1.95,1.22.33,1.75-.9,1.75-2.17l-.14-2.9-4.32.77Z"/>
      <path class="cls-12" d="M16.53,0c-2.79,0-3.01,2.5-3.05,3.19-.03.6-.17,5.22-.17,5.22l1.86-1.29s.35-.68.35-1.08l-.1-2.51s2.05.32,3.7-.96c0,0,.5-2.57-2.6-2.57"/>
      <path class="cls-7" d="M13.59,8.79c-.34-.05-.68.14-.82.46-.18.41-.46,1.12-.79,2.26-.59,1.99-1.23,5.11-1.23,5.11,0,0-.02.49-.05,1-.02.51.1,5.68.1,5.68l-.3,2.08.21.74.49.42s.21.3.24.35c.1.18.33.16.31-.05l-.02-.22v-.58s.3-.84.3-.84v.73c.15.53.29.45.29.45l.15-1.62-.56-1.66s.41-4.35.71-5.93c0,0,2.09-5.89,2.18-6.26.07-.32-.03-1.92-1.19-2.11"/>
      <path class="cls-13" d="M15.86,18.93l.06,2.58s.68-.37.96-.67c.11-.12.22-.24.22-.4v-1.58l-.08-.13-1.16.21Z"/>
      <path class="cls-13" d="M12.6,20.09c.15.36,2.6,1.95,3.44,1.35l.04-2.43-3.48-.96s-.15,1.69,0,2.05"/>
      <path class="cls-13" d="M16.81,18.59l-2.97-1.72c-.24-.14-.6.01-.82.17-.29.21-.5.49-.55,1.07-.08,1.02,2.91,2.66,3.8,1.37,0,0,.5-.55.84-.63.14-.03-.3-.26-.3-.26"/>
      <path class="cls-9" d="M13.77,19.36c-.2-.09-.4-.1-.44,0-.04.09.09.24.29.33.2.09.4.1.44,0,.04-.09-.09-.24-.29-.33"/>
      <polygon class="cls-13" points="15.59 10.99 16.56 19.19 16.74 19.12 15.82 10.87 15.59 10.99"/>
      <path class="cls-13" d="M13.91,7.89l-.3.22s1.18-.3,1.97,2.89l.23-.12s-.58-2.82-1.91-2.98"/>
    </g>
  </g>
</svg>