<?xml version="1.0" encoding="UTF-8"?>
<svg id="uuid-40162cd8-e12e-43d7-aa6f-20768491f5ab" data-name="Calque_2" xmlns="http://www.w3.org/2000/svg" xmlns:xlink="http://www.w3.org/1999/xlink" viewBox="0 0 69.49 75.87">
  <defs>
    <style>
      .uuid-eb9a5aed-563d-4970-bc1b-54a168fdf117 {
        fill: #f9f9fa;
      }

      .uuid-241edbbe-c44b-481b-b874-e8abb0f4648f {
        fill: #eae3ca;
      }

      .uuid-7d3429f2-5a0e-4a5d-b103-36ceb511ffa4 {
        fill: #5f6aaf;
      }

      .uuid-3fb9f62b-1bfa-46c0-80eb-e41fc9b058dc {
        clip-path: url(#uuid-39a60ffb-c229-43ed-becb-7f0e77d0da21);
      }

      .uuid-516c16dd-31f2-4871-b882-457f2515fc56 {
        fill: #777473;
      }

      .uuid-f0dce7ea-544d-455f-adce-cd8ce2294f23 {
        fill: #221e20;
      }

      .uuid-a0e1d280-db82-4c38-9501-b35920b57c28 {
        clip-path: url(#uuid-ca7927ca-9062-4420-b966-9289564f8860);
      }

      .uuid-3321a679-ded2-4a0b-a772-072c4c0beaa4 {
        fill: #6074b6;
      }

      .uuid-3108d3bb-d2c0-46ae-b5e2-fccf591bfa36 {
        fill: #65686b;
      }

      .uuid-3004b75f-43b3-426b-b42f-1021015388a5 {
        fill: #f9b300;
      }

      .uuid-c4fce655-b877-42b8-a8f8-8368c027e36c {
        fill: #f29200;
      }

      .uuid-d6ecf327-f302-4d8c-8f37-2ce52660dad8 {
        fill: #88b0de;
      }

      .uuid-61dfabad-f335-4b0a-b71a-8e92e2a4d64b {
        fill: #4c60a8;
      }

      .uuid-4b33c9ef-5af3-4487-913b-56d191aac6ab {
        fill: #fdf4f9;
      }

      .uuid-76f4b9bc-1265-474c-916d-4af287e4f5b1 {
        fill: #d0d3e4;
      }

      .uuid-c0db6435-473b-4f78-b67e-98aa1b2989a9 {
        fill: #4e4a49;
      }

      .uuid-3a5f3f84-1ed1-4b07-b377-629f9cc6ba92 {
        fill: #b25299;
      }

      .uuid-31852430-ec78-4e57-b357-1218c7c9e82e {
        fill: #e98589;
      }

      .uuid-2f995442-5655-4a5f-a672-32b0ba06e9bc {
        fill: none;
      }

      .uuid-9c07be1c-9fe8-4dde-bf8c-f93dac5d25cb {
        fill: #a2c0e6;
      }

      .uuid-9a030ec6-b44a-4d60-9b3e-e31172e58f3c {
        fill: #605962;
      }

      .uuid-9889fe36-50a6-42d4-ab9f-341313803fb6 {
        fill: #ebc570;
      }

      .uuid-34a86db1-169c-4c52-bdc1-b786596e673c {
        fill: #413c41;
      }

      .uuid-a79e0ef1-63ec-4736-98cf-97975f0c3c88 {
        fill: #43403e;
      }

      .uuid-66775160-22a9-4c56-92ae-7cded30ce906 {
        fill: #6f483c;
      }

      .uuid-c033a7f9-4081-40bb-84d7-47634c649ea1 {
        fill: url(#uuid-60271620-ebdd-452d-a7b1-8e6d5548d43b);
      }

      .uuid-601ba859-e86a-4407-bf8b-9aeaa305972d {
        fill: #423c3a;
      }

      .uuid-aed5ba47-e465-49aa-b95f-3feb871a4d0f {
        fill: #8b8c8e;
      }

      .uuid-db4cb7c6-806f-431c-bcbc-184c80310347 {
        fill: #363035;
      }

      .uuid-07290229-b73d-4d44-8f96-3cc7cc2e3ee9 {
        clip-path: url(#uuid-8d6c2943-85a4-4fc2-bc9a-66a76a11fc26);
      }

      .uuid-85761572-e062-4d3d-a2c0-290e42d84e8c {
        fill: #8f8b89;
      }

      .uuid-379fe398-9b4a-4cd9-a26e-f1df19716080 {
        fill: url(#uuid-e4972ee0-9730-4928-9c53-11814f55795e);
      }

      .uuid-fd6b461c-4dd6-4b5f-bc6c-4ddefce0e64d {
        fill: #483f4b;
      }

      .uuid-e8a5ef10-52d7-4291-b4bd-ff842a24d225 {
        fill: #554c57;
      }

      .uuid-c545a213-cabe-4dfe-a46a-d7af659be915 {
        clip-path: url(#uuid-cf0af246-11ef-45b9-9b5d-70cd5424a30e);
      }

      .uuid-36bd9245-07ea-4d86-b5da-5c2c56d3f925 {
        fill: url(#uuid-bb2e3b66-9886-4e90-87d0-4f348ec89c48);
      }

      .uuid-2f7129b7-2585-4a01-9e2a-2a8a8477160b {
        fill: #e8e9ec;
      }

      .uuid-cdf80903-021e-4b9a-aaf7-8fec844e1d18 {
        fill: #69696b;
      }

      .uuid-fb37e7ac-8cda-45ee-8079-db1df98bd7c9 {
        fill: #b0adb0;
      }

      .uuid-c0c388eb-d434-4afe-9976-5d86041197f0 {
        fill: #b8b8b9;
      }

      .uuid-a184a69a-fa2e-4987-9d4d-f6dbef19d957 {
        fill: #a8c2e6;
      }

      .uuid-bc484375-cf34-40b5-b758-df95a62de35f {
        fill: #673c33;
      }

      .uuid-8bf886ae-d5b8-4621-9ecd-8ed38c4d523d {
        clip-path: url(#uuid-55c56536-779d-4332-b635-0bfc37ab727e);
      }

      .uuid-1dcf6eae-da6c-43be-a8bb-7a2de12169ee {
        fill: #d3d0d3;
      }

      .uuid-4b8c4210-cd7c-43b2-8c3c-ea64b4ff903f {
        fill: url(#uuid-5b542d94-0c54-4d37-8f16-b4ac6f585b5a);
      }

      .uuid-02ff73b6-7ca9-4bfe-bc78-044c0d02fe72 {
        fill: #ffd800;
      }

      .uuid-4faeb30a-e8b0-48c2-a010-cd7b7c9cbce7 {
        fill: #cececf;
      }

      .uuid-b92fe283-17b0-4701-8852-d67688622e17 {
        fill: #905534;
      }

      .uuid-7db500f6-1fc0-40e2-9d43-a38df00a51d1 {
        fill: #3d3540;
      }

      .uuid-58d72a1f-8ef5-4b99-b772-020d2c27c7f6 {
        fill: #959494;
      }

      .uuid-d6909ad6-0a4e-4187-af7d-fb085902bfbd {
        fill: #edf1fa;
      }

      .uuid-79594a27-7f91-4bc9-b0e0-81d8c5cbe80f {
        fill: #8090a4;
      }

      .uuid-d9cfb29b-ba76-4d37-8f28-0af7f065d961 {
        fill: #b2bcca;
      }

      .uuid-4ca3c4c1-7a6b-4950-9d3a-8e1a8ce44dc4 {
        fill: #432822;
      }

      .uuid-efb5f4bb-3a51-41e9-a4a8-1019ae2c2df0 {
        fill: #a8a6a5;
      }

      .uuid-8410d5f0-cba6-46ae-9dbc-ec2fbba8255a {
        fill: #7dbc68;
      }

      .uuid-788818eb-8d9b-4577-8c1f-6ed2989854af {
        fill: #393533;
      }

      .uuid-1a0eaab1-68ff-4a0a-828e-d61d1df7095b {
        fill: url(#uuid-241082bc-c6fc-4eef-8c4f-ca69cb84ff76);
      }

      .uuid-6f476c2f-0d78-48b3-b817-0ec6bd2f0f17 {
        fill: #706c6b;
      }
    </style>
    <clipPath id="uuid-39a60ffb-c229-43ed-becb-7f0e77d0da21">
      <path class="uuid-2f995442-5655-4a5f-a672-32b0ba06e9bc" d="M53.76,21.92s-.72.22-.96.59c-.11.16-.14.34-.14.49,0,.19.04.33.04.33,0,0,.64.05.81.13.03.01.1.06.21.13.47.34,1.53,1.18,1.71,1.4.08.1.27.19.49.27.43.16.99.28,1.1.33.15.06,1.05-.1,1.12-.16.07-.07.03-.29-.05-.4-.02-.02-.04-.04-.07-.06-.12-.08-.31-.13-.31-.13l.04-.03.47-.33s.02-.02.05-.04c.03-.04.09-.09.12-.16.02-.03.03-.06.04-.09,0-.03,0-.11-.02-.21-.02-.07-.04-.15-.06-.25-.1-.44-.29-1.04-.3-1.18-.03-.21-.23-.56-.46-.59-.11-.01-.61.03-1.13.07-.58.05-1.19.09-1.37.06-.03,0-.06-.01-.09-.02-.27-.07-.65-.25-.96-.25-.1,0-.2.02-.28.08"/>
    </clipPath>
    <linearGradient id="uuid-bb2e3b66-9886-4e90-87d0-4f348ec89c48" data-name="Dégradé sans nom 147" x1="-96.03" y1="445.7" x2="-94.63" y2="445.7" gradientTransform="translate(-330.91 1830.51) rotate(-180) scale(4.05)" gradientUnits="userSpaceOnUse">
      <stop offset="0" stop-color="#f6bec0"/>
      <stop offset=".05" stop-color="#f6bec0"/>
      <stop offset=".99" stop-color="#f4a8ab"/>
      <stop offset="1" stop-color="#f4a8ab"/>
    </linearGradient>
    <clipPath id="uuid-cf0af246-11ef-45b9-9b5d-70cd5424a30e">
      <path class="uuid-2f995442-5655-4a5f-a672-32b0ba06e9bc" d="M31.05,4.42c-.61.63-.19,2.16-.11,2.85.08.68.02,2.05-.23,2.77-.25.72-.49,1.11-.57,1.52-.08.41.1.92,1.34,1.64,1.24.73,2.69,1.17,2.8,1.17.11,0,.55-.26.55-.89,0-.63.4-2.18.4-2.18,0,0-.47-3.34-.82-4.53-.3-1.02-2.11-2.48-3.01-2.48-.15,0-.28.04-.36.13"/>
    </clipPath>
    <linearGradient id="uuid-5b542d94-0c54-4d37-8f16-b4ac6f585b5a" data-name="Dégradé sans nom 147" x1="-90.3" y1="427.81" x2="-88.9" y2="427.81" gradientTransform="translate(-1662.38 -345.53) rotate(-90) scale(3.96)" xlink:href="#uuid-bb2e3b66-9886-4e90-87d0-4f348ec89c48"/>
    <clipPath id="uuid-55c56536-779d-4332-b635-0bfc37ab727e">
      <path class="uuid-2f995442-5655-4a5f-a672-32b0ba06e9bc" d="M29.95,35.9l-.64.17-.65.56.47.89.02.28.06,1.01s.42,1.2.66,1.42c.15.13.35.11.48.06.1-.03.16-.07.16-.07,0,0,.02.04.07.08.06.06.16.14.33.2.23.09.43.03.53,0,.04,0,.05-.02.05-.02l.11.04.38.14.27-.06.17-.04s0,.02,0,.04c0,.18-.02.92.27.96.33.03.49-.35.52-.6.02-.11.07-.3.11-.47.02-.08.04-.14.06-.2.04-.12.06-.2.06-.2,0,0,0-.21.03-.42.03-.21-.24-1.57-.36-1.76-.1-.17-1.15-1.23-1.55-1.56-.05-.04-.45-.36-.48-.38-.15-.09-.39-.16-.65-.16-.16,0-.32.03-.48.09"/>
    </clipPath>
    <linearGradient id="uuid-e4972ee0-9730-4928-9c53-11814f55795e" data-name="Dégradé sans nom 147" x1="-81.5" y1="436.64" x2="-80.09" y2="436.64" gradientTransform="translate(-1521.89 -248.69) rotate(-90) scale(3.56)" xlink:href="#uuid-bb2e3b66-9886-4e90-87d0-4f348ec89c48"/>
    <clipPath id="uuid-ca7927ca-9062-4420-b966-9289564f8860">
      <path class="uuid-2f995442-5655-4a5f-a672-32b0ba06e9bc" d="M33.04,1.82c-.87.37-1.97,2.97-2.06,4.02s.4,2.98.91,4.05c.51,1.07,2.17,2.39,3.37,2.25.45-.05.66-.55.88-.95.23-.4,1.3-2.49,1.66-6.06.27-2.76-2.2-3.45-3.74-3.45-.45,0-.82.06-1.02.14"/>
    </clipPath>
    <linearGradient id="uuid-60271620-ebdd-452d-a7b1-8e6d5548d43b" data-name="Dégradé sans nom 147" x1="-104.1" y1="427.94" x2="-102.69" y2="427.94" gradientTransform="translate(-1995.48 -483.81) rotate(-90) scale(4.74)" xlink:href="#uuid-bb2e3b66-9886-4e90-87d0-4f348ec89c48"/>
    <clipPath id="uuid-8d6c2943-85a4-4fc2-bc9a-66a76a11fc26">
      <path class="uuid-2f995442-5655-4a5f-a672-32b0ba06e9bc" d="M30.63,6.82c.08.5.17,1.24.6,1.11.43-.13.3-.47.34-.61.04-.15-.35-.49.03-.96,0,0-.04-.56-.6-.71-.04-.01-.08-.02-.12-.02-.42,0-.32.72-.25,1.19"/>
    </clipPath>
    <linearGradient id="uuid-241082bc-c6fc-4eef-8c4f-ca69cb84ff76" data-name="Dégradé sans nom 147" x1="199.02" y1="429.06" x2="200.43" y2="429.06" gradientTransform="translate(-350.08 184.27) rotate(-90) scale(.89)" xlink:href="#uuid-bb2e3b66-9886-4e90-87d0-4f348ec89c48"/>
  </defs>
  <g id="uuid-2700c509-9efe-43ef-b2a4-397c856653b0" data-name="Les_personnages">
    <g id="uuid-ec6afd53-3c85-4ae2-a9b6-72041d5ca55f" data-name="Chara_x5F_Johnny_x5F_BD">
      <path class="uuid-c0db6435-473b-4f78-b67e-98aa1b2989a9" d="M55.19,27.06l-1.51-.99,3.26-3.84c.06-.12.21-.2.41-.21.41-.02.81.4,1.03.75.11.17.13.33.07.45h0,0s-3.26,3.84-3.26,3.84Z"/>
      <path class="uuid-6f476c2f-0d78-48b3-b817-0ec6bd2f0f17" d="M55.13,26.61c.22.35.06.64-.35.66-.41.02-.81-.4-1.03-.75-.22-.35-.06-.64.35-.66s.81.4,1.03.75"/>
      <path class="uuid-a79e0ef1-63ec-4736-98cf-97975f0c3c88" d="M55.14,50.92c.48-.09,1.27.4,1.78,0,.51-.4,1.47-.65,1.69-.65s.71.85.62,1.27c-.09.42-1.04,1.8-1.86,2.17-.82.37-2.51.51-2.59.56-.08.06-1.52.73-2.42.76-.9.03-.85-.87-.85-.87l-.65-2.34-.59-1.55,3.13-1.47.86,1.21.89.91Z"/>
      <path class="uuid-d6ecf327-f302-4d8c-8f37-2ce52660dad8" d="M44.77,37.3c-.15-.85-.18-1.73-.12-2.59.03-.47.08-1.04.18-1.59-3.78-1.5-9.45-3.48-9.99-3.73-.79-.37-1.75-1.4-1.75-1.4,0,0-5.58.64-6.08,1.96-.5,1.32,1.67,5.56,2.76,6.31s3.61.49,5.19.74c1.58.25,6.99,1.44,8.08,1.78.39.12,1.04.33,1.76.46-.15-.61-.08-1.28-.02-1.93"/>
      <path class="uuid-d6ecf327-f302-4d8c-8f37-2ce52660dad8" d="M44.9,34.75c.98,1.18,1.11,14.69,1.1,15.28,0,.59-3.82,1.13-4.39.81-.57-.32-1.3-11.96-1.19-12.74.11-.78,4.48-3.35,4.48-3.35"/>
      <path class="uuid-a184a69a-fa2e-4987-9d4d-f6dbef19d957" d="M50.88,50.33c-.27-.78-2.99-6.09-4.61-9.26-.53-1.03-.95-1.85-1.15-2.26-2.15-1.09-10.02-3.2-13.61-2.52l-.03-.18c3.63-.68,11.62,1.46,13.75,2.55h.03s.01.04.01.04c.2.4.63,1.24,1.16,2.29,1.62,3.18,4.34,8.49,4.62,9.28l-.17.06Z"/>
      <path class="uuid-9c07be1c-9fe8-4dde-bf8c-f93dac5d25cb" d="M44.66,34.71c.03-.36.06-.79.12-1.22-.27-.11-.53-.22-.8-.33-2.64-1.09-5.29-2.19-8.03-2.99-1.03-.3-2.27-.32-2.76.86-.21.51-.2,1.08-.15,1.63.01.14.03.3.1.42.11.2.33.3.54.39.51.22,1.03.41,1.56.59,3.07,1.09,6.22,2.03,9.44,2.47-.06-.61-.06-1.22-.02-1.83"/>
      <path class="uuid-9c07be1c-9fe8-4dde-bf8c-f93dac5d25cb" d="M44.97,36.58c0,.15,0,.31,0,.48.01.77.18,1.52.26,2.28.09.82,0,1.61.11,2.42.11.93.21,1.87.28,2.81.04.55.04,1.08.05,1.62,0,.57.14,1.14.13,1.72,0,.4.07.93-.17,1.28-.14.2-.42.22-.64.24-.38.04-.77.02-1.15-.05-.18-.03-.36-.09-.49-.22-.09-.09-.14-.22-.18-.35-.27-.83-.27-1.72-.29-2.59-.05-2.14-.27-4.28-.5-6.41-.03-.28-.06-.57-.12-.85-.07-.32-.19-.63-.27-.94-.14-.52-.48-1.85.04-2.23.58-.41,1.72-.57,2.36-.27.52.24.59.61.6,1.05"/>
      <path class="uuid-cdf80903-021e-4b9a-aaf7-8fec844e1d18" d="M40.03,60.32s3.88-1.22,4.57-2.65c.7-1.43,4.19-7,3.68-9.57-.5-2.57-1.95-4.05-2.83-5.22-.88-1.16-2.84-2.28-2.84-2.28l-6.3.11s-5.7.05-5.34,3.81c.36,3.77,9.06,15.79,9.06,15.79"/>
      <polygon class="uuid-58d72a1f-8ef5-4b99-b772-020d2c27c7f6" points="54.55 46.24 53.35 46.43 59.87 61.92 61.08 61.73 54.55 46.24"/>
      <polygon class="uuid-58d72a1f-8ef5-4b99-b772-020d2c27c7f6" points="54.35 46.27 53.55 46.4 48.56 34.57 49.36 34.44 54.35 46.27"/>
      <polygon class="uuid-cdf80903-021e-4b9a-aaf7-8fec844e1d18" points="26.53 39.48 29.29 41.08 37.8 45.99 45.35 50.54 45.35 52.56 43.55 55.76 33.39 50.99 30.4 46.2 29.26 45.29 26.53 39.48"/>
      <path class="uuid-fd6b461c-4dd6-4b5f-bc6c-4ddefce0e64d" d="M59.78,50.21c-5.36-3.09-9.7-.62-9.7,5.53s4.35,13.64,9.7,16.74c5.36,3.09,9.7.62,9.7-5.53s-4.35-13.64-9.7-16.74M59.78,68.94c-3.66-2.11-6.62-7.23-6.62-11.42s2.97-5.89,6.62-3.77c3.66,2.11,6.62,7.22,6.62,11.42s-2.96,5.89-6.62,3.78"/>
      <path class="uuid-f0dce7ea-544d-455f-adce-cd8ce2294f23" d="M51.63,53.35c-1.98,1.37-4.32,4.79-2.63,10.65,1.69,5.87,8.04,9.6,12.99,8.72,4.95-.88-2.93-2.87-2.93-2.87,0,0-4.44-3.32-5.72-6.45-1.28-3.14-.58-9.32-.58-9.32l-1.14-.74Z"/>
      <path class="uuid-58d72a1f-8ef5-4b99-b772-020d2c27c7f6" d="M62.82,64.23c0,2.55-1.8,3.57-4.02,2.29-2.22-1.28-4.02-4.38-4.02-6.93s1.8-3.57,4.02-2.29c2.22,1.28,4.02,4.38,4.02,6.93"/>
      <path class="uuid-cdf80903-021e-4b9a-aaf7-8fec844e1d18" d="M61,63.19c0,1.4-.99,1.96-2.21,1.26-1.22-.7-2.21-2.41-2.21-3.81s.99-1.96,2.21-1.26c1.22.7,2.21,2.41,2.21,3.81"/>
      <path class="uuid-58d72a1f-8ef5-4b99-b772-020d2c27c7f6" d="M59.39,53.97c-3.66-2.11-9.16,1.07-9.16,5.26s3.05,9.43,6.71,11.54c3.66,2.11,9.07-1.19,9.07-5.39s-2.96-9.31-6.62-11.42M59.39,68.52c-3.34-1.93-6.05-6.6-6.05-10.44s2.71-5.38,6.05-3.45c3.34,1.93,6.05,6.6,6.05,10.44s-2.71,5.38-6.05,3.45"/>
      <path class="uuid-fd6b461c-4dd6-4b5f-bc6c-4ddefce0e64d" d="M67.58,72.48c-2.19,2.21-4.58,3.01-5.84,3.27-1.26.26,2.69-5.27,2.69-6.52s-.46-6.32-2.27-8.96c-1.82-2.64-5.37-7.06-7.27-7.43-1.9-.37-8.82,1.91-6.86-.13,1.95-2.04,4.76-3.33,6.01-3.65,1.25-.32,6.71,2.89,8.04,4.48,1.33,1.58,5.25,5.7,5.5,9.35.24,3.66,0,9.59,0,9.59"/>
      <path class="uuid-f0dce7ea-544d-455f-adce-cd8ce2294f23" d="M13.66,23.58c-5.36-3.09-9.7-.62-9.7,5.53s4.34,13.64,9.7,16.74c5.36,3.1,9.7.62,9.7-5.53s-4.35-13.64-9.7-16.74M13.66,42.31c-3.66-2.11-6.62-7.23-6.62-11.42s2.96-5.89,6.62-3.78c3.66,2.11,6.62,7.23,6.62,11.42s-2.97,5.89-6.62,3.78"/>
      <path class="uuid-58d72a1f-8ef5-4b99-b772-020d2c27c7f6" d="M13.26,27.34c-3.66-2.11-9.69,1.6-9.69,5.8s3.65,9.31,7.31,11.42c3.66,2.11,9-1.59,9-5.79s-2.97-9.31-6.62-11.42M13.26,41.88c-3.34-1.93-6.05-6.6-6.05-10.44s2.71-5.38,6.05-3.45c3.34,1.93,6.05,6.6,6.05,10.44s-2.71,5.38-6.05,3.45"/>
      <path class="uuid-fd6b461c-4dd6-4b5f-bc6c-4ddefce0e64d" d="M21.25,46.03c-2.06,2.06-5.03,3.09-5.72,3.24-.69.14,2.25-7.44,2.42-8.66s-.76-6-3.9-9.55c-3.14-3.54-9.31-5.28-10.51-4.95-1.2.33-3.64,2.72-2.32.58,1.32-2.15,5.34-3.84,6.14-4.08.81-.24,6.04.11,9.45,4.87,3.41,4.75,5.69,8.62,5.36,12.4-.33,3.79-.93,6.15-.93,6.15"/>
      <path class="uuid-61dfabad-f335-4b0a-b71a-8e92e2a4d64b" d="M22.39,33.62s-2.24-7.05-8.34-10.26c-6.11-3.21-6.93,1.5-9.47-.02l-.21-.15s1.95-4.58,8.51-1.89,9.76,10.66,9.76,10.66l.19,1.49-.44.17Z"/>
      <path class="uuid-61dfabad-f335-4b0a-b71a-8e92e2a4d64b" d="M.02,25.69c.92-2.88,6.46-4.8,7.08-4.98.25-.07,1.36-.28,1.97-.26.91.02,1.5.33,2.86.82,2.28.81,5.11,2.98,6.24,4.28,1.13,1.31,4.37,6.45,4.46,6.98.09.53.24.74.2.93-.04.19-2.39,1.94-4.35,2.51-.64-1.84-4.17-7.28-5.93-8.87-1.76-1.58-8.5-3.25-8.5-3.25L.02,25.69Z"/>
      <path class="uuid-61dfabad-f335-4b0a-b71a-8e92e2a4d64b" d="M58.68,47.66c-.05.63-.07,1.6-1.79,1.32-1.73-.29-2.78.14-3.72,1.15-.94,1.01-.95,1.35-1.6,1.5-.65.15-1.03-.03-1.1-.21-.06-.18.37-1.83,1.72-2.91,1.35-1.08,3.75-1.06,4.67-.84s1.3.11,1.3.11l.22-.29.3.17Z"/>
      <path class="uuid-61dfabad-f335-4b0a-b71a-8e92e2a4d64b" d="M47.33,51.49c2.19-2.21,5.01-3.21,6.01-3.6,1-.38,2.71-.32,3.39-.15.67.17,1.6.17,1.6.17l-3.9,2.73-2.98.25-4.12.59Z"/>
      <path class="uuid-61dfabad-f335-4b0a-b71a-8e92e2a4d64b" d="M58.34,48.75c-1.01,1.46-4.78,2.74-4.78,2.74,0,0,.47-1.09.75-1.34.14-.13,1.36-.39,2.33-.94.96-.55,1.71-1.3,1.71-1.3l.35-.25-.35,1.09Z"/>
      <path class="uuid-3321a679-ded2-4a0b-a772-072c4c0beaa4" d="M58.68,47.66c-.47,1.17-1.97,1.85-2.64,2.16-.67.31-1.71.35-1.71.35l-.3-.17c1.74-.29,2.6-1.02,3.18-1.42s1.17-1.09,1.17-1.09l.3.17Z"/>
      <path class="uuid-34a86db1-169c-4c52-bdc1-b786596e673c" d="M33.71,32.64c-1.29,0-3.43-.09-4.51-.1-1.08-.02-4.66-1.86-5.65-2.66-1-.79-2.63-2.61-3.09-2.59-.46.02,2.56,4.78,3.71,5.69,1.14.9,4.11,2.59,4.51,2.8s3.22-.16,3.22-.16c0,0,3.62-.09,4.07-.45.44-.35-.95-1.79-.95-1.79l-1.29-.75Z"/>
      <path class="uuid-3a5f3f84-1ed1-4b07-b377-629f9cc6ba92" d="M21.48,28.84l-7.88,4.89,7.88-4.89Z"/>
      <path class="uuid-fb37e7ac-8cda-45ee-8079-db1df98bd7c9" d="M12.55,32.44l.35,2.39,14.39,7.61s3.14,7.79,3.21,7.94c.06.15,13.88,7.43,13.88,7.43l4.57-9.75-.7-.77-4.7,8.47-10.16-4.77-2.99-4.79-1.14-.92-5.91-12.57,1.27-1.15-3.78-3.6-.6.6,2.59,4.89,2.65,5.28-12.93-6.3Z"/>
      <path class="uuid-cdf80903-021e-4b9a-aaf7-8fec844e1d18" d="M38.88,36.56c-1.27-.66-2.03-.41-2.35-.04s-.19,3.46-.19,3.46l1.26,4.44,3.73,2.15,1.81-2.71v-3.28l-.95-2.45-3.3-1.58Z"/>
      <polygon class="uuid-cdf80903-021e-4b9a-aaf7-8fec844e1d18" points="41.33 46.57 36.98 49.08 32.26 38.95 36.79 36.31 40.74 42.64 41.33 46.57"/>
      <path class="uuid-76f4b9bc-1265-474c-916d-4af287e4f5b1" d="M40.25,45.58c-.82-.55-2.57-1.41-3.27-1.53-.7-.11-.38.94-.38,1.24s1.37,3.3,2.02,4.04c.65.74,2.59,1.49,2.59,1.49,0,0,1.37-.16,1.72-.54.35-.38.57-1.13.6-1.33.03-.2-2.35-2.76-3.27-3.38"/>
      <polygon class="uuid-cdf80903-021e-4b9a-aaf7-8fec844e1d18" points="36.64 44.14 32.34 46.61 38.57 52.8 42.92 50.29 40.13 46.27 36.64 44.14"/>
      <polygon class="uuid-fb37e7ac-8cda-45ee-8079-db1df98bd7c9" points="47.62 40 45.36 50.36 45.2 52.27 46.37 52.07 48.73 40.09 47.62 40"/>
      <path class="uuid-58d72a1f-8ef5-4b99-b772-020d2c27c7f6" d="M34.56,46.62h0c-.83,0-19.79-7.87-20.75-8.43-1.17-.68-3.16-2.6-3.16-5.5,0-1.1.32-1.83.94-2.2,1.02-.59,2.42.13,2.82.36h0c.18.11,18.2,10.95,19.77,11.85,1.29.75,1.44,2.23,1.22,3.05-.15.54-.46.86-.84.86M12.5,30.97c-.21,0-.41.04-.57.13-.39.23-.59.76-.59,1.59,0,2.58,1.77,4.29,2.81,4.9,1.38.8,19.52,8.2,20.43,8.34.02-.03.18-.29.2-.76.01-.3-.02-1.31-.95-1.85-1.57-.9-19.47-11.67-19.78-11.86-.47-.27-1.05-.49-1.55-.49"/>
      <path class="uuid-4ca3c4c1-7a6b-4950-9d3a-8e1a8ce44dc4" d="M18.07,22.78c-.4-.09-.98-.25-1.1.19-.13.44,2.59,3.37,3.14,3.88.55.5,2.37,2.44,3.38,3.22,1.02.78,4.26,2.46,4.26,2.46,0,0,2.99-.03,3.05-.13s-.66-1.21-.66-1.21l-.99-.38-2.01-.14-3.83-2.55-3.62-3.3-1.61-2.02Z"/>
      <path class="uuid-4ca3c4c1-7a6b-4950-9d3a-8e1a8ce44dc4" d="M17.51,22.68c-1.15,0-4.95,2.2-4.89,2.8.06.6.87.42,2.2,1.91,1.33,1.49,6.72,6.61,8.16,6.69s3.33,1.02,3.47.82c.14-.21,2.86-2.21,4.35-2.51-.79-.96-1.79-1.23-1.79-1.23l-2.02-.27s-4.33-2.39-5.13-3.48c-.8-1.1-3.84-4.24-3.84-4.24l-.49-.49Z"/>
      <path class="uuid-58d72a1f-8ef5-4b99-b772-020d2c27c7f6" d="M45.2,56.77c-1.2,0-4.05-1.77-6.33-3.33l-12.59-7.27.52-.9,12.62,7.28c2.32,1.58,5.16,3.23,5.73,3.19.61-.35,2.38-4.77,2.6-6.29.19-1.3-1.15-4.1-2.3-4.83-1.29-.82-2.23-1.29-2.24-1.3l.47-.93s.99.5,2.33,1.35c1.49.94,3.02,4.16,2.78,5.85-.17,1.18-1.99,6.63-3.29,7.12-.08.03-.18.05-.29.05"/>
      <path class="uuid-61dfabad-f335-4b0a-b71a-8e92e2a4d64b" d="M45.74,33.78c-.82-1.98-4.03-3.64-6.8-4.14-2.19-.4-4.87-.36-7.17.42-.98.33-2.87,1.58-2.89,1.97-.11,1.91,6.07,1.8,8.65,3.05,2.57,1.25,2.13,6.9,3.36,6.73,2.5-.33,4.7-2.58,4.87-2.76.74-.76.87-3.12-.02-5.26"/>
      <polygon class="uuid-db4cb7c6-806f-431c-bcbc-184c80310347" points="48.25 36.15 45.02 35.21 44.61 39.74 46.79 41.61 50.44 41.42 48.25 36.15"/>
      <path class="uuid-76f4b9bc-1265-474c-916d-4af287e4f5b1" d="M33.2,41.33s-3.02-1.49-3.59-.83c-.57.65-.41,1.69-.41,2.24s2.1,3.14,2.89,3.53c.79.39,3.14.47,3.59-.48.45-.95-.54-3.12-1.11-3.48-.57-.37-1.37-.97-1.37-.97"/>
      <polygon class="uuid-cdf80903-021e-4b9a-aaf7-8fec844e1d18" points="25.29 42.97 29.75 40.4 35.57 45.96 35.34 46.15 30.99 48.67 25.29 42.97"/>
      <polygon class="uuid-aed5ba47-e465-49aa-b95f-3feb871a4d0f" points="22.18 41.99 24.94 43.59 33.45 48.5 41 53.05 41 55.06 39.2 58.27 29.04 53.5 26.05 48.71 24.91 47.8 22.18 41.99"/>
      <path class="uuid-c0c388eb-d434-4afe-9976-5d86041197f0" d="M56.62,55.57c-3.66-2.11-6.62-.42-6.62,3.78s2.97,9.31,6.62,11.42c3.66,2.11,6.62.42,6.62-3.78s-2.96-9.31-6.62-11.42M56.62,70.12c-3.34-1.93-6.05-6.6-6.05-10.44s2.71-5.38,6.05-3.45c3.34,1.93,6.05,6.6,6.05,10.44s-2.71,5.38-6.05,3.45"/>
      <path class="uuid-7db500f6-1fc0-40e2-9d43-a38df00a51d1" d="M56.22,52.27c-5.36-3.09-9.7-.62-9.7,5.53s4.34,13.64,9.7,16.74c5.36,3.09,9.7.62,9.7-5.53s-4.34-13.64-9.7-16.74M56.22,71c-3.66-2.11-6.62-7.23-6.62-11.42s2.97-5.89,6.62-3.78c3.66,2.11,6.62,7.22,6.62,11.42s-2.96,5.89-6.62,3.78"/>
      <path class="uuid-c0c388eb-d434-4afe-9976-5d86041197f0" d="M61.23,65.15c0,2.55-1.8,3.57-4.02,2.29-2.22-1.28-4.02-4.38-4.02-6.93s1.8-3.57,4.02-2.29c2.22,1.28,4.02,4.38,4.02,6.93"/>
      <path class="uuid-aed5ba47-e465-49aa-b95f-3feb871a4d0f" d="M59.42,64.11c0,1.4-.99,1.96-2.21,1.26-1.22-.7-2.21-2.41-2.21-3.81s.99-1.96,2.21-1.26c1.22.7,2.21,2.41,2.21,3.81"/>
      <path class="uuid-7db500f6-1fc0-40e2-9d43-a38df00a51d1" d="M9.7,25.86c-5.36-3.09-9.7-.62-9.7,5.53s4.34,13.64,9.7,16.74c5.36,3.1,9.7.62,9.7-5.53s-4.35-13.64-9.7-16.74M9.7,44.6c-3.66-2.11-6.62-7.23-6.62-11.42s2.96-5.89,6.62-3.78c3.66,2.11,6.62,7.23,6.62,11.42s-2.96,5.89-6.62,3.78"/>
      <path class="uuid-7d3429f2-5a0e-4a5d-b103-36ceb511ffa4" d="M18.05,36.13s-2.24-7.05-8.34-10.26c-6.11-3.21-6.93,1.5-9.47-.02l-.21-.15s1.95-4.58,8.51-1.89,9.76,10.66,9.76,10.66l.19,1.49-.44.17Z"/>
      <path class="uuid-7d3429f2-5a0e-4a5d-b103-36ceb511ffa4" d="M54.34,50.17c-.05.63-.07,1.6-1.79,1.32-1.73-.29-2.78.14-3.72,1.15-.94,1.01-.95,1.35-1.6,1.5-.65.15-1.03-.03-1.1-.21-.06-.18.37-1.83,1.72-2.91,1.35-1.08,3.75-1.06,4.67-.84s1.3.11,1.3.11l.22-.29.3.17Z"/>
      <path class="uuid-9a030ec6-b44a-4d60-9b3e-e31172e58f3c" d="M29.37,35.15c-1.29,0-3.43-.09-4.51-.1-1.08-.02-4.66-1.86-5.65-2.66-1-.79-2.63-2.61-3.09-2.59-.46.02,2.56,4.78,3.71,5.69,1.14.9,4.11,2.59,4.51,2.8s3.22-.16,3.22-.16c0,0,3.62-.09,4.07-.45.44-.35-.95-1.79-.95-1.79l-1.29-.75Z"/>
      <path class="uuid-1dcf6eae-da6c-43be-a8bb-7a2de12169ee" d="M8.2,34.95l.35,2.39,14.39,7.61s3.14,7.79,3.21,7.94c.06.15,13.88,7.43,13.88,7.43l4.57-9.75-.7-.77-4.7,8.47-10.16-4.77-2.99-4.79-1.14-.92-5.91-12.57,1.27-1.15-3.78-3.6-.6.6,2.59,4.89,2.65,5.28-12.93-6.3Z"/>
      <path class="uuid-aed5ba47-e465-49aa-b95f-3feb871a4d0f" d="M34.53,39.07c-1.27-.66-2.03-.41-2.35-.04s-.19,3.46-.19,3.46l1.26,4.44,3.73,2.15,1.81-2.71v-3.28l-.95-2.44-3.3-1.58Z"/>
      <path class="uuid-d6909ad6-0a4e-4187-af7d-fb085902bfbd" d="M35.9,48.09c-.82-.55-2.57-1.41-3.27-1.53-.7-.11-.38.94-.38,1.24s1.37,3.3,2.02,4.04c.65.74,2.59,1.49,2.59,1.49,0,0,1.37-.16,1.72-.54.35-.38.57-1.13.6-1.33.03-.2-2.35-2.76-3.27-3.38"/>
      <polygon class="uuid-e8a5ef10-52d7-4291-b4bd-ff842a24d225" points="46.85 36.95 43.62 36.02 43.21 40.55 45.39 42.41 49.04 42.23 46.85 36.95"/>
      <polygon class="uuid-1dcf6eae-da6c-43be-a8bb-7a2de12169ee" points="43.27 42.51 41.01 52.87 40.85 54.78 42.02 54.58 44.38 42.6 43.27 42.51"/>
      <path class="uuid-c0c388eb-d434-4afe-9976-5d86041197f0" d="M31.4,48.45h0c-.83,0-19.79-7.87-20.75-8.43-1.17-.68-3.16-2.6-3.16-5.5,0-1.1.32-1.83.94-2.2,1.02-.59,2.42.13,2.82.36h0c.18.11,18.2,10.95,19.77,11.85,1.29.75,1.44,2.23,1.22,3.05-.15.54-.46.86-.84.86M9.34,32.79c-.21,0-.41.04-.57.13-.39.23-.59.76-.59,1.59,0,2.58,1.77,4.29,2.81,4.9,1.38.8,19.52,8.2,20.43,8.34.02-.03.18-.29.2-.76.01-.3-.02-1.31-.95-1.85-1.57-.9-19.47-11.67-19.78-11.86-.47-.27-1.05-.49-1.55-.49"/>
      <polygon class="uuid-c0c388eb-d434-4afe-9976-5d86041197f0" points="50.2 48.75 49 48.94 55.53 64.43 56.73 64.24 50.2 48.75"/>
      <polygon class="uuid-c0c388eb-d434-4afe-9976-5d86041197f0" points="50 48.78 49.2 48.91 44.22 37.08 45.01 36.95 50 48.78"/>
      <path class="uuid-bc484375-cf34-40b5-b758-df95a62de35f" d="M13.72,25.29c-.4-.09-.98-.25-1.1.19-.13.44,2.59,3.37,3.14,3.88.55.5,2.37,2.44,3.39,3.22,1.02.78,4.26,2.46,4.26,2.46,0,0,2.99-.03,3.05-.13s-.66-1.21-.66-1.21l-.99-.38-2.01-.14-3.83-2.55-3.62-3.3-1.61-2.02Z"/>
      <path class="uuid-c0c388eb-d434-4afe-9976-5d86041197f0" d="M40.85,59.28c-1.2,0-4.05-1.77-6.33-3.33l-12.17-5.62c-.62-.29-.84-1.05-.48-1.62.32-.51.99-.68,1.51-.37l11.68,6.75c2.32,1.58,5.14,3.24,5.73,3.18.6-.35,2.38-4.77,2.6-6.29.19-1.3-1.15-4.1-2.31-4.82-1.29-.82-2.23-1.29-2.24-1.3l.46-.93s.99.5,2.33,1.34c1.49.94,3.02,4.16,2.78,5.85-.17,1.18-2,6.63-3.29,7.12-.08.03-.18.04-.29.04"/>
      <path class="uuid-7d3429f2-5a0e-4a5d-b103-36ceb511ffa4" d="M41.39,36.29c-.82-1.98-4.03-3.64-6.8-4.14-2.76-.5-5.79-1.41-5.91.49-.11,1.9,1.92,3.69,4.49,4.94,2.57,1.25,6.38,4.12,7.62,4.22,1.24.1,1.68-2.87.59-5.51"/>
      <path class="uuid-d6909ad6-0a4e-4187-af7d-fb085902bfbd" d="M28.85,43.84s-3.02-1.49-3.59-.83c-.57.65-.41,1.69-.41,2.24s2.1,3.14,2.89,3.53c.79.39,3.14.47,3.59-.48.45-.95-.54-3.12-1.11-3.48-.57-.37-1.37-.97-1.37-.97"/>
      <path class="uuid-4faeb30a-e8b0-48c2-a010-cd7b7c9cbce7" d="M52.75,36.64c-1.95-1.13-4.91-1.43-6.02,1.02-1.13,2.48,1.89,4.99,2.77,4.94.88-.05,3.26-5.95,3.26-5.95"/>
      <path class="uuid-3108d3bb-d2c0-46ae-b5e2-fccf591bfa36" d="M48.53,40.93c0,1.53,1.08,2.15,2.42,1.38,1.34-.77,2.42-2.64,2.42-4.17s-1.08-2.15-2.42-1.38c-1.34.77-2.42,2.64-2.42,4.17"/>
      <path class="uuid-efb5f4bb-3a51-41e9-a4a8-1019ae2c2df0" d="M49.27,40.72c0,1.18.83,1.66,1.86,1.06,1.03-.59,1.86-2.03,1.86-3.21s-.83-1.65-1.86-1.06c-1.03.59-1.86,2.03-1.86,3.21"/>
      <path class="uuid-c0c388eb-d434-4afe-9976-5d86041197f0" d="M39.45,39.85c-.49,0-.99-.06-1.47-.2l-2.87-.79c-.24-.06-.49-.04-.7.08l-.65.35-.68-1.24.65-.36c.54-.3,1.16-.37,1.76-.21l2.87.79c1.07.29,2.23.14,3.18-.41l8.93-5.15c1.31-.76,2.11-2.17,2.08-3.7l-.02-.82c-.02-.81.37-1.55,1.04-2l.47-.32.79,1.17-.47.32c-.27.18-.42.48-.41.81l.02.82c.04,2.03-1.02,3.93-2.78,4.95l-8.93,5.15c-.85.49-1.82.74-2.79.74"/>
      <path class="uuid-c0c388eb-d434-4afe-9976-5d86041197f0" d="M39.54,31.67c-.72.41-1.91.43-2.65.05-.75-.39-.77-1.04-.05-1.45.72-.41,1.91-.44,2.65-.05.75.39.77,1.04.05,1.45"/>
      <path class="uuid-d6ecf327-f302-4d8c-8f37-2ce52660dad8" d="M30.45,29.38c.38.98,1.05,2.06,1.2,3.23.15,1.16-.26,3.16-.19,3.46l.08.3s-.86.02-.86.63-.39,2.16-.54,4.56-2.31,4.15-3.02,2.76c-.72-1.39-2.22-4.7-3.75-5.88-1.54-1.18-2.93-3.38-3.43-4.83-.67-1.93-.6-3.34-.52-4.81.52-8.71,11.04.58,11.04.58"/>
      <path class="uuid-66775160-22a9-4c56-92ae-7cded30ce906" d="M33.03,27.46c-.14.83-.46,2.27-2.66,2.95-2.2.68-3.72.49-5.79.3-2.07-.2-4.61-4.35-4.61-4.35,0,0,0,.95-.11,1.35-.58,2.07,3.89,4.59,5.77,4.45,1.75-.13,3.11.22,5.08-.38,1.97-.6,2.71-3.37,2.71-3.61s-.35-.95-.35-.95l-.04.24Z"/>
      <path class="uuid-d6ecf327-f302-4d8c-8f37-2ce52660dad8" d="M28,33.8c.05.03.11.05.16.08.11.05.22.11.32.19.08.07.15.16.21.24.36.5.65,1.07.76,1.67.06.36.06.72.06,1.09,0,1.79,0,3.58,0,5.37,0,.81-.05,1.6-.57,2.27-.37.47-1.01.77-1.57.56-.5-.18-.78-.69-1.02-1.17-.49-.98-.96-1.96-1.4-2.96-.38-.85-.73-1.72-1.06-2.59-.45-1.18-.86-2.39-1.08-3.64-.06-.32-.09-.68.11-.93.13-.16.32-.25.52-.32.88-.32,1.82-.36,2.74-.35.38,0,.53-.1.89.05.32.14.63.28.95.43"/>
      <polygon class="uuid-d6ecf327-f302-4d8c-8f37-2ce52660dad8" points="29.03 32.41 28.58 32.48 28.73 30.92 29.16 30.82 29.03 32.41"/>
      <path class="uuid-d6ecf327-f302-4d8c-8f37-2ce52660dad8" d="M32.24,29.3s.18.36.21.62c.03.25-.07.9-.07.9l.39-.27s.21-.87,0-1.1-.36-.36-.36-.36l-.17.2Z"/>
      <path class="uuid-79594a27-7f91-4bc9-b0e0-81d8c5cbe80f" d="M28.91,59.83l-.83-1.42,5.04-2.91c.11-.06.25-.05.42.04.32.19.58.64.58,1,0,.18-.06.31-.17.37h0,0s-5.04,2.91-5.04,2.91Z"/>
      <path class="uuid-a79e0ef1-63ec-4736-98cf-97975f0c3c88" d="M31.18,52.07c-.08-.08.96,2.34.96,2.34l1.66,1.55s.99.76.71,1.44c-.28.68-4.31,2.45-4.31,2.45l-1.32-1.94-.62-2.26-.54-3.13,3.47-.45Z"/>
      <path class="uuid-d6ecf327-f302-4d8c-8f37-2ce52660dad8" d="M30.45,40.81c.34,2.25,1.28,10.82,1.24,11.23-.04.41-3.23.98-4.44.64-.94-5.71-1.73-10.22-3.02-12.4-1.3-2.18-3.03-5.11-3.03-5.11l9.25,5.64Z"/>
      <path class="uuid-a184a69a-fa2e-4987-9d4d-f6dbef19d957" d="M27.62,52.53c-1.42-8.12-1.97-9.85-2.23-10.68-.08-.27-.14-.44-.18-.7-.08-.51-1.16-2.42-2.21-4.26-1.09-1.92-2.11-3.73-2.26-4.35-.02-.04-.63-1.39-.55-2.74h.18c-.07,1.32.53,2.67.54,2.68.15.61,1.21,2.5,2.25,4.32,1.1,1.94,2.14,3.78,2.23,4.32.04.25.09.41.18.68.26.83.81,2.57,2.24,10.7l-.17.03Z"/>
      <path class="uuid-d9cfb29b-ba76-4d37-8f28-0af7f065d961" d="M29.08,59.46c0,.37-.26.52-.58.33-.32-.19-.58-.64-.58-1s.26-.52.58-.33c.32.19.58.64.58,1"/>
      <path class="uuid-c0db6435-473b-4f78-b67e-98aa1b2989a9" d="M28.63,41.96l-.41-1.65,4.75-2.28c.13-.03.29.03.42.19.27.31.43.74.3,1.13-.07.19-.18.3-.31.33h0s0,0,0,0l-4.74,2.28Z"/>
      <path class="uuid-6f476c2f-0d78-48b3-b817-0ec6bd2f0f17" d="M28.94,41.63c-.13.39-.46.45-.73.14-.27-.31-.43-.74-.3-1.13.13-.39.46-.45.73-.14.27.31.43.74.3,1.13"/>
      <path class="uuid-4faeb30a-e8b0-48c2-a010-cd7b7c9cbce7" d="M54.76,37.44c-.68-.39-1.53-.4-1.74-.33-.59.21-1.08,1.33-.8,1.97.06.14.43.71,1.15.91.36.1,1.4-2.56,1.4-2.56"/>
      <path class="uuid-c4fce655-b877-42b8-a8f8-8368c027e36c" d="M52.95,39.29c0,.66.47.92,1.04.59.57-.33,1.04-1.13,1.04-1.79s-.47-.92-1.04-.59c-.57.33-1.04,1.13-1.04,1.79"/>
      <path class="uuid-3004b75f-43b3-426b-b42f-1021015388a5" d="M53.19,39.24c0,.55.39.78.88.5.48-.28.88-.96.88-1.51s-.39-.78-.88-.5c-.48.28-.88.96-.88,1.51"/>
      <path class="uuid-02ff73b6-7ca9-4bfe-bc78-044c0d02fe72" d="M53.36,38.87c0,.26.18.36.4.23.22-.13.4-.44.4-.7s-.18-.36-.4-.23c-.22.13-.4.44-.4.7"/>
      <path class="uuid-2f7129b7-2585-4a01-9e2a-2a8a8477160b" d="M48.53,40.93c0,1.53,1.08,2.15,2.42,1.38,1.34-.77,2.42-2.64,2.42-4.17s-1.08-2.15-2.42-1.38c-1.34.77-2.42,2.64-2.42,4.17"/>
      <path class="uuid-241edbbe-c44b-481b-b874-e8abb0f4648f" d="M49.27,40.72c0,1.18.83,1.66,1.86,1.06,1.03-.59,1.86-2.03,1.86-3.21s-.83-1.65-1.86-1.06c-1.03.59-1.86,2.03-1.86,3.21"/>
      <path class="uuid-4b33c9ef-5af3-4487-913b-56d191aac6ab" d="M49.64,39.93c0,.55.38.76.86.49.47-.27.86-.94.86-1.48s-.39-.76-.86-.49c-.47.27-.86.94-.86,1.48"/>
      <path class="uuid-4faeb30a-e8b0-48c2-a010-cd7b7c9cbce7" d="M48.16,40.81c-.68-.39-1.53-.4-1.74-.33-.59.21-1.08,1.33-.8,1.97.06.14.43.71,1.15.91.36.1,1.4-2.56,1.4-2.56"/>
      <path class="uuid-c4fce655-b877-42b8-a8f8-8368c027e36c" d="M46.34,42.65c0,.66.47.92,1.04.59.57-.33,1.04-1.13,1.04-1.79s-.47-.92-1.04-.59c-.57.33-1.04,1.13-1.04,1.79"/>
      <path class="uuid-3004b75f-43b3-426b-b42f-1021015388a5" d="M46.58,42.61c0,.55.39.78.88.5.48-.28.88-.96.88-1.51s-.39-.78-.88-.5c-.48.28-.88.96-.88,1.51"/>
      <path class="uuid-02ff73b6-7ca9-4bfe-bc78-044c0d02fe72" d="M46.76,42.23c0,.26.18.36.4.23.22-.13.4-.44.4-.7s-.18-.36-.4-.23c-.22.13-.4.44-.4.7"/>
      <path class="uuid-516c16dd-31f2-4871-b882-457f2515fc56" d="M36.22,11.15s2.31,3.17,2.36,4.94c.03,1.3.09,2.49.19,2.72.25.54,1.39,1.29,1.99,1.78.56.44,2.91.87,4.41,1.44.12.04.23.09.34.12.22.07.42.04.6-.04,1-.47,1.48-2.77,1.07-3.07-.49-.35-1.58-.95-2.31-1.39-.74-.44-3.22-2.59-3.76-3.18-.54-.59-3.35-3.39-4.87-3.3"/>
      <path class="uuid-85761572-e062-4d3d-a2c0-290e42d84e8c" d="M42.75,16.62c.22.31.41.63.63.94.57.79.91.02,1.7.59.25.18.51.36.71.6.2.23.35.53.35.84,0,.17-.06.34-.17.46-.24.25-.64.2-.98.12-.86-.21-.01,1.11-.65.49-.32-.31-1.98-.96-2.29-1.28-.24-.25-.52-.48-.71-.78-.18-.29-.28-.62-.41-.93-.29-.68-.77-1.27-1.06-1.96-.09-.21-.15-.43-.15-.65,0-.32.22-.72.59-.72.28,0,.58.37.78.53.63.51,1.18,1.1,1.64,1.76"/>
      <path class="uuid-516c16dd-31f2-4871-b882-457f2515fc56" d="M44.92,21.51c.05.15.13.32.25.51.97.67,6.61,1.31,7.61,1.46.36.05.67.1.94.11.14.01.28,0,.4-.02.29-.04.52-.18.75-.45.31-.38.26-.75.13-1.03-.1-.18-.22-.32-.33-.39-.27-.19-7.77-2.94-8.08-2.98-.31-.04-.83.24-1.21.99-.43.83-.65,1.22-.45,1.8"/>
      <path class="uuid-788818eb-8d9b-4577-8c1f-6ed2989854af" d="M38.58,16.09c.03,1.3.09,2.49.19,2.72.25.54,1.39,1.29,1.99,1.78.56.44,2.91.87,4.41,1.44.83.83,6.61,1.31,7.61,1.46.36.05.67.1.94.11-.1-.07-.18-.12-.21-.13-.18-.08-.81-.13-.81-.13,0,0-.04-.14-.04-.33-.49.01-.96-.11-1.45-.09-.94.04-2.99-.3-3.91-.48-.37-.07-.87-.15-1.2-.33-.12-.07-.25-.14-.37-.21-.25-.13-.49-.27-.72-.42-.43-.27-.83-.56-1.21-.92-.84-.81-1.48-.15-2.34-.93-.22-.19-.43-.38-.6-.61-.28-.4-.45-.94-.51-1.42-.02-.19,0-.33-.1-.5-.12-.23-.29-.45-.47-.64-.2-.23-.28-.3-.58-.33-.21-.02-.41-.03-.62-.04"/>
      <path class="uuid-85761572-e062-4d3d-a2c0-290e42d84e8c" d="M49.56,20.17c.37.17.74.33,1.11.5,1.04.48,2.06.99,3.09,1.5.11.06.24.17.18.28-.49.16-1.03.05-1.54-.04-1.9-.34-5.15-.55-6.96-1.2-.36-.13-.72-.29-1.03-.51-.17-.12-.33-.28-.36-.48-.03-.2.07-.39.17-.56.05-.1.11-.2.2-.26.1-.07.22-.1.33-.13.33-.07.66-.09,1-.13.21-.02.39-.08.6-.02.66.17,2.59.78,3.21,1.06"/>
      <g class="uuid-3fb9f62b-1bfa-46c0-80eb-e41fc9b058dc">
        <rect class="uuid-36bd9245-07ea-4d86-b5da-5c2c56d3f925" x="52.56" y="21.69" width="5.96" height="4.11" transform="translate(-1.16 2.92) rotate(-2.98)"/>
      </g>
      <path class="uuid-31852430-ec78-4e57-b357-1218c7c9e82e" d="M56.08,24.01c.22.49.71.85,1.24.93.17.03.35.02.53.02.06,0,.11,0,.16,0-.12-.08-.31-.13-.31-.13l.04-.03c-.22,0-.44-.03-.65-.06-.12-.02-.26-.04-.34-.12-.09-.09-.09-.27.03-.31.05-.02.11,0,.16.01.14.04.27.08.41.11-.24-.18-.41-.4-.61-.62-.26-.27-.33-.1-.32.2-.04,0-.33.03-.33,0"/>
      <path class="uuid-31852430-ec78-4e57-b357-1218c7c9e82e" d="M58.21,23.7c.05.1.1.21.19.29-.02-.07-.04-.15-.06-.25-.07-.09-.12-.19-.16-.29-.04-.12-.06-.25-.08-.37-.03-.13-.08-.25-.18-.32,0,.13.01.26.06.39.03.09.07.17.11.26l.14.29Z"/>
      <path class="uuid-31852430-ec78-4e57-b357-1218c7c9e82e" d="M57.66,23.33c.02.08.1.16.14.23.05.1.1.2.16.3.1.19.2.38.3.57.03-.04.09-.09.12-.16-.04-.02-.08-.05-.1-.07-.05-.06-.09-.17-.14-.23-.13-.21-.24-.41-.35-.62-.04-.08-.14-.18-.12-.02"/>
      <path class="uuid-31852430-ec78-4e57-b357-1218c7c9e82e" d="M52.7,23.33s.64.05.81.13c.03.01.1.06.21.13.47.34,1.53,1.18,1.71,1.4.08.1.27.19.49.27-.21-.18-.43-.33-.64-.51-.38-.33-.7-.72-1.06-1.07-.03-.04-.07-.07-.11-.1-.31-.3-.76-.66-1.18-.59-.09.01-.18.02-.27.02,0,.19.04.33.04.33"/>
      <path class="uuid-c0db6435-473b-4f78-b67e-98aa1b2989a9" d="M56.45,25.84s-2.08-.58-2.08-.58c-.02-.02,1.1-1.26,1.13-1.3.09-.09.16-.23.25-.3.06-.05.14-.06.21-.11.09-.06.15-.15.25-.2.09-.04.2-.02.3.02.09.05.16.12.23.2.2.24.34.54.39.85.03.19-.02.23-.13.37-.1.11-.2.22-.3.33-.04.04-.28.7-.26.73"/>
      <path class="uuid-a79e0ef1-63ec-4736-98cf-97975f0c3c88" d="M33.13,29.08c-.39,1.18-1.33,1.66-3.49,2.11-2.05.41-5.21-.66-6.63-1.24-.08-.03-.16-.06-.23-.09-.11-.05-.23-.1-.33-.14-1.04-.47-1.4-.73-1.47-.92-.02-.06-.68-.64-.9-1.08-.65-1.25.94-3.45.96-4.24.02-.54,1.19-3.64,1.32-5.86.14-2.48.8-3.04.97-3.42.3-.72,1.38-1.21,2.05-1.62.67-.41,3.24-1.5,4.16-1.69.92-.2,4.54-.17,6.01.1.24.04.47.1.68.17,0,0,2.31,3.17,2.36,4.94,0,.29.25,2.22.19,2.71-.64,4.79-5.34,9.36-5.65,10.28"/>
      <path class="uuid-8410d5f0-cba6-46ae-9dbc-ec2fbba8255a" d="M31.36,12.97c.3.9,1.89,6.82.12,9.88-1.77,3.06-2.16,7.74-2.16,7.74,0,0,1.83-4.65,3.49-6.14,1.66-1.48,2.72-6.11,2.4-7.94-.32-1.83.42-2.76-.22-4l-.64-1.24s-.42,1.19-.8,1.93c-.38.74-2.19-.22-2.19-.22"/>
      <g class="uuid-c545a213-cabe-4dfe-a46a-d7af659be915">
        <rect class="uuid-4b8c4210-cd7c-43b2-8c3c-ea64b4ff903f" x="27.23" y="5.87" width="10.85" height="6.92" transform="translate(17.54 39.74) rotate(-79.51)"/>
      </g>
      <path class="uuid-516c16dd-31f2-4871-b882-457f2515fc56" d="M30.6,10.38c-.69.32-1.96.59-2.09,1.06-.13.47.05,1.97,1.06,3,1,1.03,1.69,3.53,1.69,3.53l.63,1.85s-1.99,1.52-2.12,2.26c-.13.74.07,5.16.07,5.16,0,0,2.71-4.9,2.9-6.43s-.04-6.98-.71-7.76c-.67-.78-2.26-.95-1.42-2.67"/>
      <path class="uuid-516c16dd-31f2-4871-b882-457f2515fc56" d="M34.19,11.3c.2,1.74.7,2.51.65,3.71-.05,1.21.58,3.11-.05,5.13-.63,2.01-1.08,3.28-1.73,3.97-.65.69-1.64,2-2.21,3.17,2.87-2.14,3.58-3.1,4.36-4.61.78-1.51,1.39-2.83,1.39-2.83l-.36-2.87s.81-2.78.58-4.09-2.59-2.48-2.59-2.48l-.04.89Z"/>
      <path class="uuid-516c16dd-31f2-4871-b882-457f2515fc56" d="M21.69,19.36c-.24,1.11.11,3.21,0,4.48-.11,1.09-.13,2.02-.03,2.41,0,.05.03.09.04.12.04.08-.01,3.09.08,3.17.63.5,2.51.6,3.37-1.18.01-.02.02-.05.03-.07.96-2.14,1.27-9.71,1.38-11.58.11-1.88-.95-3.98-2.56-3.13-.59.31-.65.32-1.15,1.1-.5.78-.68,2.5-1.14,4.69"/>
      <path class="uuid-516c16dd-31f2-4871-b882-457f2515fc56" d="M21.77,29.54c-.03.15.43.66.44.83t0,.01c.08,1.36,5.4,6.33,5.77,6.73.25.27.51.84,1.02,1.12,0,0,.01,0,.02,0,.24.13.54.19.91.11,1.07-.2,1.54-1.14,1.51-1.57,0-.05,0-.08-.01-.12-.13-.35-4.72-6.68-5.08-7.19-.18-.25-.81-.95-1.02-1.27-.22-.33-.79-.07-1.25-.2-1.11-.32-2.12.43-2.31,1.54"/>
      <path class="uuid-85761572-e062-4d3d-a2c0-290e42d84e8c" d="M22.82,15.28c.15-.33.36-.65.66-.86.7-.47,1.59.06,1.93.72.41.8.36,1.77.13,2.64-.22.87-.26,1.8-.47,2.68-.25,1.02-.06,2.63-.67,3.48-.08.11-.16.21-.22.32-.33.59-.06,1.44-.55,1.91-.21.2-.54.27-.81.17-.45-.16-.57-.71-.62-1.12-.06-.49-.1-1.08-.03-1.56.12-.77-.11-1.59-.21-2.36-.06-.45-.17-1.12-.09-1.56.25-1.38.36-3.16.94-4.46"/>
      <path class="uuid-9889fe36-50a6-42d4-ab9f-341313803fb6" d="M22.36,18.15s-.09.97-.15,1.38c-.06.41.67.81.83.8.16-.01.68-.3.79-.7.1-.39.1-1.4.1-1.4,0,0-.56.13-.76-.19-.26.3-.81.12-.81.12"/>
      <path class="uuid-8410d5f0-cba6-46ae-9dbc-ec2fbba8255a" d="M23.9,21.34c-.06.01-1.58-.03-1.58-.03l-.11.9,1.59.04.09-.9Z"/>
      <path class="uuid-85761572-e062-4d3d-a2c0-290e42d84e8c" d="M23.19,28.56c.35-.28.89-.33,1.34-.05.2.12.36.3.52.47.66.72,5.6,6.64,6.32,7.59.03.03.05.08.04.12-.01.03-.05.05-.08.06-.57.2-1.25.25-1.76-.08-.43-.28-.75-.76-1.11-1.13-1.12-1.14-3.98-3.85-5.05-5.05-.2-.23-.37-.52-.53-.78-.21-.35,0-.9.3-1.14"/>
      <g class="uuid-8bf886ae-d5b8-4621-9ecd-8ed38c4d523d">
        <rect class="uuid-379fe398-9b4a-4cd9-a26e-f1df19716080" x="28.04" y="36.11" width="6.08" height="5.2" transform="translate(-9.49 67.31) rotate(-86.43)"/>
      </g>
      <path class="uuid-31852430-ec78-4e57-b357-1218c7c9e82e" d="M32.21,39.26c.06.34.23.95.08,1.27-.02.03-.03.05-.05.08l.17-.04s0,.01,0,.04c.23-.06.5-.04.74-.07.06,0,.11-.02.17-.04.02-.08.04-.14.05-.2-.01,0-.03,0-.04.01-.17.04-.36.03-.53.02-.08,0-.14-.04-.19-.09-.18-.18-.24-.46-.25-.71-.01-.26-.07-.45-.22-.68.05.07.05.34.07.42"/>
      <path class="uuid-31852430-ec78-4e57-b357-1218c7c9e82e" d="M31.55,40.19c-.01-.37-.14-.73-.37-1.03.11.33.19.68.26,1.03.02.1.03.21,0,.31.04,0,.05-.02.05-.02l.11.04s-.01-.02-.01-.02c-.04-.09-.03-.2-.03-.31"/>
      <path class="uuid-31852430-ec78-4e57-b357-1218c7c9e82e" d="M30.58,40.31c-.04-.41-.16-.8-.38-1.14.04.17.07.34.1.51.03.21.07.41.04.62.1-.03.16-.07.16-.07,0,0,.02.04.07.08"/>
      <path class="uuid-31852430-ec78-4e57-b357-1218c7c9e82e" d="M34.11,9.22c-.61-.39-1.36-.57-2.08-.46-1,.16.21,1.99.52,2.35.39.46.88.84,1.41,1.13.18.1.52.34.73.25.21-.09.44-.4.57-.58.13-.18.23-.38.21-.6-.02-.22-.11-.43-.21-.63-.08-.16-.11-.33-.18-.48-.18-.4-.61-.76-.97-.99"/>
      <g class="uuid-a0e1d280-db82-4c38-9501-b35920b57c28">
        <rect class="uuid-c033a7f9-4081-40bb-84d7-47634c649ea1" x="28.61" y="2.48" width="11.73" height="9" transform="translate(21.34 39.61) rotate(-79.51)"/>
      </g>
      <path class="uuid-b92fe283-17b0-4701-8852-d67688622e17" d="M37.06,4.12c-.17.04-1.23-.13-1.68-.26-.45-.13-1.13-.31-1.19-.1-.06.21-.45,1.46-.68,1.72s-1.06.73-1.19.94c-.13.22-.23.92-.23.92l-.47-.09s.16-1.22-.15-1.38c-.3-.16-.52-.13-.48.79.04.92-.75.08-.67-1.34.08-1.42-.06-3.11,1.19-3.69,1.19-.89,2.55-.97,4.36-.18,1.81.8,1.9,2.02,2.02,2.86.12.84-.24,1.91-.24,1.91,0,0,.1-1.39.08-1.61-.02-.22-.26-.55-.68-.49"/>
      <g class="uuid-07290229-b73d-4d44-8f96-3cc7cc2e3ee9">
        <rect class="uuid-1a0eaab1-68ff-4a0a-828e-d61d1df7095b" x="29.76" y="6.04" width="2.6" height="1.61" transform="translate(18.67 36.14) rotate(-79.51)"/>
      </g>
      <path class="uuid-a79e0ef1-63ec-4736-98cf-97975f0c3c88" d="M30.93,7.05c-.11,1.75.11,2.92.67,3.77.57.84,2.33,1.5,3.49,1.36l-.62-.29s-1.64-.5-2.22-1.28c-.58-.78-1.02-2.3-.64-3.37.38-1.07-.69-.19-.69-.19"/>
      <path class="uuid-61dfabad-f335-4b0a-b71a-8e92e2a4d64b" d="M38.2,5.24c-.07-1.16-.74-1.09-1.04-1.05-.29.04-2.89.13-3.13.7-.25.57-1.98.74-2.03,1.44-.05.69-.17,1.46-.98,1.33-.8-.13-1.18-.1-1.5-1.08-.32-.98-.4-1.28-.32-3.08.05-1.51,1.37-2.75,2.85-3.26.28-.09.56-.16.84-.21.38-.05.79-.05,1.21,0h.01c.11.01.22.04.33.06.01,0,.03,0,.04,0,1.46.28,2.94,1.13,3.29,2.3.49,1.62.42,2.83.42,2.83"/>
      <path class="uuid-eb9a5aed-563d-4970-bc1b-54a168fdf117" d="M36.92,4.06l-1.56.15s-.23-4.15-3.26-3.92c0,0-.03-.02-.06-.05.28-.09.56-.16.84-.21.38-.05.79-.05,1.21,0h.01c.11.01.22.04.33.06.01,0,.03,0,.04,0,2.54.59,2.44,3.96,2.44,3.96"/>
      <path class="uuid-601ba859-e86a-4407-bf8b-9aeaa305972d" d="M37.62,3.91c-1.81.05-3.4.34-3.61.79s-1.77.86-2,1.19c-.23.33-.38,1.2-.41,1.4-.03.2-.92.2-1.38,0s-.62-.49-.62-.49c0,0-.01.15-.06.22-.05.07-.06.42.06.65.13.22.94.51,1.45.55.51.04.87-.08.96-.2.09-.11.32-1.79.5-1.97.18-.19,1.51-.67,1.93-1.08.43-.42,3.01-.62,3.23-.57.22.05.26.91.26.91,0,0,.19.08.44-.09.24-.17-.25-.86-.31-1.03-.06-.17-.45-.28-.45-.28"/>
    </g>
  </g>
</svg>