<?xml version="1.0" encoding="UTF-8"?>
<svg xmlns="http://www.w3.org/2000/svg" xmlns:xlink="http://www.w3.org/1999/xlink" viewBox="0 0 32.83 42.53">
  <defs>
    <style>
      .cls-1 {
        fill: #c0823a;
      }

      .cls-2 {
        clip-path: url(#clippath-6);
      }

      .cls-3 {
        clip-path: url(#clippath-7);
      }

      .cls-4 {
        clip-path: url(#clippath-4);
      }

      .cls-5 {
        fill: #627fbe;
      }

      .cls-6 {
        fill: #446ab1;
      }

      .cls-7 {
        fill: #635f5b;
      }

      .cls-8 {
        fill: #7a92ca;
      }

      .cls-9 {
        clip-path: url(#clippath-9);
      }

      .cls-10 {
        fill: #6c4e42;
      }

      .cls-11 {
        fill: #556fb3;
      }

      .cls-12 {
        fill: #4e4a49;
      }

      .cls-13 {
        fill: #e1e2e9;
      }

      .cls-14 {
        fill: #797672;
      }

      .cls-15 {
        fill: none;
      }

      .cls-16 {
        fill: #464550;
      }

      .cls-17 {
        fill: #90ccb5;
      }

      .cls-18 {
        fill: #534c57;
      }

      .cls-19 {
        clip-path: url(#clippath-1);
      }

      .cls-20 {
        fill: #c3b9c6;
      }

      .cls-21 {
        isolation: isolate;
      }

      .cls-22 {
        fill: #dac3b2;
      }

      .cls-23 {
        clip-path: url(#clippath-5);
      }

      .cls-24 {
        clip-path: url(#clippath-8);
      }

      .cls-25 {
        fill: #342d38;
      }

      .cls-26 {
        fill: #f6bec0;
      }

      .cls-27 {
        fill: #a397a8;
      }

      .cls-28 {
        fill: #f3952d;
      }

      .cls-29 {
        clip-path: url(#clippath-3);
      }

      .cls-30 {
        fill: #7e4b41;
      }

      .cls-31 {
        fill: url(#Dégradé_sans_nom_9);
      }

      .cls-32 {
        fill: #595963;
      }

      .cls-33 {
        fill: #79554b;
      }

      .cls-34 {
        fill: #6dbea0;
      }

      .cls-35 {
        mix-blend-mode: multiply;
      }

      .cls-36 {
        fill: #4a424d;
      }

      .cls-37 {
        fill: #da582a;
      }

      .cls-38 {
        fill: #404249;
      }

      .cls-39 {
        fill: #54504e;
      }

      .cls-40 {
        fill: url(#Dégradé_sans_nom_9-3);
      }

      .cls-41 {
        fill: #4071b6;
      }

      .cls-42 {
        fill: url(#Dégradé_sans_nom_9-2);
      }

      .cls-43 {
        fill: #484b4f;
      }

      .cls-44 {
        fill: #4c4847;
      }

      .cls-45 {
        clip-path: url(#clippath-2);
      }

      .cls-46 {
        fill: #96928f;
      }

      .cls-47 {
        fill: #4c6cb2;
      }

      .cls-48 {
        fill: #585453;
      }

      .cls-49 {
        clip-path: url(#clippath);
      }

      .cls-50 {
        fill: #5476b8;
      }

      .cls-51 {
        fill: #507ebf;
      }

      .cls-52 {
        fill: #706c6b;
      }
    </style>
    <clipPath id="clippath">
      <rect class="cls-15" x="11.88" y="19.17" width="2.84" height="6.97"/>
    </clipPath>
    <clipPath id="clippath-1">
      <rect class="cls-15" x="11.88" y="19.17" width="2.84" height="6.97"/>
    </clipPath>
    <clipPath id="clippath-2">
      <path class="cls-15" d="M18.9,2.75c.04.52-.08,1.22-.18,1.33-.06.07-.19.2-.28.32-.05.07-.1.13-.12.18-.06.14,1.79,1.46,1.92,1.45.13,0,.24-.12.24-.12,0,0,.26.15.6-.12l.08-.06c.31-.25.6-.51.91-1.25.33-.8.63-1.27.63-1.27,0,0,.49-1.06.34-1.34-.16-.28-2.1-.6-2.1-.6l-2.03,1.49Z"/>
    </clipPath>
    <linearGradient id="Dégradé_sans_nom_9" data-name="Dégradé sans nom 9" x1="4.92" y1="964.66" x2="5.92" y2="964.66" gradientTransform="translate(-4176.4 -19.99) rotate(90) scale(4.35 -4.35)" gradientUnits="userSpaceOnUse">
      <stop offset="0" stop-color="#f6bec0"/>
      <stop offset=".05" stop-color="#f6bec0"/>
      <stop offset=".99" stop-color="#f4a8ab"/>
      <stop offset="1" stop-color="#f4a8ab"/>
    </linearGradient>
    <clipPath id="clippath-3">
      <path class="cls-15" d="M22.04,3.46s0,0,0-.01c0,0,0,0,0,.01M21.98,3.18s-.06.03-.08.05c-.15.15-.28.33-.37.52-.1.22-.14.4-.07.64.01,0,.03,0,.04,0,.03,0,.06-.01.08-.04.07-.08.09-.19.13-.28.1-.21.21-.41.31-.62h0s0,0,0,0c0,0,0,0,0,0,.01-.04.04-.12.04-.18,0-.03,0-.05,0-.07-.01-.02-.04-.03-.06-.03,0,0-.02,0-.02,0"/>
    </clipPath>
    <linearGradient id="Dégradé_sans_nom_9-2" data-name="Dégradé sans nom 9" x1="-850.87" y1="1755.91" x2="-849.87" y2="1755.91" gradientTransform="translate(-912.7 456.33) rotate(90) scale(.53 -.53)" xlink:href="#Dégradé_sans_nom_9"/>
    <clipPath id="clippath-4">
      <rect class="cls-15" x="18.33" y="4.41" width="2.83" height="1.63"/>
    </clipPath>
    <clipPath id="clippath-5">
      <rect class="cls-15" x="18.33" y="4.41" width="2.83" height="1.63"/>
    </clipPath>
    <clipPath id="clippath-6">
      <rect class="cls-15" x="15.89" y="9.5" width="4.79" height="6.04"/>
    </clipPath>
    <clipPath id="clippath-7">
      <rect class="cls-15" x="15.89" y="9.5" width="4.79" height="6.04"/>
    </clipPath>
    <clipPath id="clippath-8">
      <path class="cls-15" d="M22.09,9.53l-.12.18s.84.69,1.16.86c.32.17.89.59,1.25.79.36.2,1.23.6,1.79.81.56.21,1.03.37,1.03.37,0,0,.16.1.35.24.19.13.31.08.31.08,0,0,.02,0,.34.1.29.04.58-.21.58-.21,0,0,0,.04.03.07.02.02.09.04.16.04.03,0,.06,0,.08-.02.08-.04.26-.14.28-.2.01-.05,0-.54-.04-.61-.04-.07-.27-.27-.34-.31-.07-.04-.19-.16-.23-.2-.05-.04-.33-.03-.36-.04-.03,0-.11-.07-.26-.03-.15.03-.25.29-.25.29,0,0-.06.06-.22,0-.16-.07-1.3-1.23-1.88-1.8-.57-.58-1.19-.66-1.48-.74-.28-.08-1.09-.78-1.32-1.03l-.88,1.37Z"/>
    </clipPath>
    <linearGradient id="Dégradé_sans_nom_9-3" data-name="Dégradé sans nom 9" x1="56.66" y1="916.82" x2="57.66" y2="916.82" gradientTransform="translate(-7020.1 -428.61) rotate(90) scale(7.69 -7.69)" xlink:href="#Dégradé_sans_nom_9"/>
    <clipPath id="clippath-9">
      <rect class="cls-15" x="21.97" y="9.53" width="7.29" height="3.44"/>
    </clipPath>
  </defs>
  <g class="cls-21">
    <g id="Calque_2">
      <g id="_Éléments_Mise_en_page" data-name="Éléments_Mise_en_page">
        <g>
          <polygon class="cls-32" points="15.63 29.97 13.77 31.9 11.63 30.67 11.63 29.81 13.5 28.73 15.63 29.97"/>
          <polygon class="cls-16" points="15.63 30.83 13.77 31.91 13.77 31.05 15.63 29.97 15.63 30.83"/>
          <g>
            <path class="cls-38" d="M15.35,28.74c.12-.01.42.08.46.14.03.06.02.25,0,.33-.02.07-.3.41-.67.52-.37.11-.53.19-.73.17-.21-.02-.34.07-.34.07,0,0-1.55.48-1.84.48-.29,0-.59-.11-.79-.21-.19-.1-.28-.26-.29-.33,0-.08.1-.43.19-.56.09-.13.73-.38.73-.38l3.28-.23Z"/>
            <path class="cls-13" d="M12.13,27.18c-.25.82-.65,1.89-.65,2.11,0,.23.35.54.76.59.41.04.66.2,1.08.05.41-.16.8-.21,1.02-.27.22-.07.66-.1.94-.22.28-.12.48-.27.51-.38.03-.11-.06-.35-.19-.43-.13-.08-1.13-.19-1.41-.19-.28,0-.94-.45-.94-.45l-1.11-.8Z"/>
            <path class="cls-11" d="M14.18,28.43c-.73.42-2.19-.07-2.3-.17-.01-.01-.01-.12,0-.31.04-.4.13-1.15.25-2.01.28-1.99.67-4.53.67-4.53l-.92-2.15-.25-.59,2.13-1.44,1.51,5.01s-.35,5.77-1.09,6.19"/>
            <g class="cls-35">
              <g class="cls-49">
                <g class="cls-19">
                  <path class="cls-22" d="M14.45,24.41c-.47.08-.87.2-1.18.59-.24.3-.36.69-.56,1.02-.02.04-.05.08-.09.1-.04.02-.09.01-.14,0-.16-.03-.28-.09-.35-.19.28-1.99.67-4.54.67-4.54l-.92-2.14c.08-.07.16-.1.26-.09.26.04.39.41.5.6.16.27.37.52.58.75.4.44.85.83,1.18,1.32.1.14.18.29.24.45.1.32.06.67.04,1,0,.27.04.54.04.82,0,.24-.04.26-.27.3"/>
                </g>
              </g>
            </g>
            <rect class="cls-48" x="10.41" y="18.64" width=".56" height="3.09" transform="translate(-4.56 3.19) rotate(-14)"/>
            <path class="cls-10" d="M6.4,18.17s-.5.91.15,1.4c.65.49,2.15,1.12,3.06,1.14.91.02,1.44-1.23,1.55-1.44.12-.21.82-1.63,1.53-2.17.71-.54-.18-1.07-.93-.79-.76.28-2.3.85-3.31,1.14-1.02.29-1.63.35-2.04.71"/>
            <path class="cls-34" d="M22.66,17.22c-.15.07-.33.19-.42.29-.05.05-.07.1-.07.08,0,0,0,0,0-.01,0,0-.01-.02,0,0v.04s.04.07.04.07c.16.38.38.78.58,1.17.41.78.84,1.56,1.28,2.34l-.03-.04,1.31,1.59-.36.31-1.39-1.52h-.01s-.02-.04-.02-.04c-.47-.76-.94-1.52-1.4-2.29-.23-.39-.45-.76-.67-1.19l-.04-.08-.05-.12s-.03-.1-.03-.16c0-.06,0-.12,0-.18.04-.23.15-.38.25-.49.21-.23.4-.36.65-.5l.37.75Z"/>
            <path class="cls-17" d="M22.29,17.54s-.87-2.3-.94-2.47c-.1-.26-.19-.52-.29-.78-.05-.12-.1-.25-.14-.37-.09-.24.04-.6.32-.6.05,0,.39.11.4.14.16.44.33.88.5,1.32.06.17.94,2.47.94,2.47,0,0-.76.29-.78.3"/>
            <path class="cls-17" d="M14.35,31.99l-.74-.39s.08-.15.09-.16c.28-.53.57-1.06.85-1.59.5-.93.99-1.86,1.49-2.8.6-1.13,1.2-2.25,1.8-3.38.6-1.12,1.19-2.23,1.79-3.35.48-.9.96-1.8,1.44-2.71l.49-.92c.14-.26.33-.82.67-.43.37.42.1.78-.12,1.17-.17.32-.34.64-.51.95-.54,1-1.07,2.01-1.6,3.01-.63,1.19-1.27,2.38-1.9,3.57-.61,1.14-1.22,2.29-1.83,3.43-.46.86-.91,1.72-1.37,2.58-.18.34-.36.68-.54,1.02"/>
            <polygon class="cls-7" points="14.28 33.94 14.97 30.82 14.27 30.57 13.58 33.69 14.28 33.94"/>
            <path class="cls-17" d="M21.86,15.4c-.03.16-.14.3-.28.4-.82.57-1.64,1.14-2.46,1.71-1.12.78-2.23,1.55-3.35,2.33l-2.96,2.05c-.42.29-.85.59-1.27.88l-.48-.69s.1-.08.11-.08c.61-.44,1.23-.88,1.84-1.32,1.05-.75,2.1-1.5,3.14-2.25,1.06-.76,2.13-1.52,3.19-2.29.41-.29.81-.58,1.22-.87.15-.11.3-.21.45-.32.08-.06.18-.18.27-.19.19-.03.46.19.54.35.05.1.07.2.05.29"/>
            <rect class="cls-17" x="12.1" y="21.43" width=".84" height="10.57" transform="translate(-6.89 4.5) rotate(-16.02)"/>
            <path class="cls-34" d="M11.21,23.09s0,.05,0,.07c0,.4-.58.71-.85.93-.2.17-.4.33-.6.5l.13-.18-3.71,9.48-.42-.41,1.17-.49c.39-.15.8-.28,1.2-.42l2.4-.82h.03s.04-.02.04-.02l2.73-.45.12-.02.11.05.5.22-.34.77-.5-.22.23.03-2.74.39h.06s-2.4.74-2.4.74c-.4.13-.8.24-1.2.39l-1.17.45-.66.25.24-.66,3.53-9.55.04-.1.09-.07c.28-.23.56-.46.84-.69.21-.17.42-.35.64-.52.12-.1.21-.17.34-.04.09.09.15.26.16.4"/>
            <path class="cls-18" d="M6.28,26.84c-3.47,2-6.28,6.85-6.28,10.83s2.81,5.58,6.28,3.58c3.47-2,6.28-6.85,6.28-10.83s-2.81-5.58-6.28-3.58M6.28,40.84c-3.27,1.89-5.92.38-5.92-3.37s2.65-8.32,5.92-10.21c3.27-1.89,5.92-.38,5.92,3.37s-2.65,8.32-5.92,10.21"/>
            <path class="cls-18" d="M5.22,41.22c1.74-.56,3.63-1.9,4.71-3.66l1.42-2.65s.01-.04.02-.06c.54-1.54.72-2.95.72-2.95,0,0,0-2-.08-2.3-.08-.3-.54-1.23-.54-1.23l-.97-1.2s.57-.12.94.25c.37.37,1.24,1.32,1.31,3.02.07,1.7-.51,6.78-5.09,10.17-4.57,3.39-6.44-.69-6.44-.69,0,0,1.96,1.95,3.99,1.29"/>
            <path class="cls-27" d="M6.57,27.71c-3.13,1.81-5.67,6.18-5.67,9.77s2.63,5.14,5.76,3.33c3.13-1.81,5.8-6.14,5.8-9.73s-2.76-5.18-5.89-3.37M6.57,40.47c-3.01,1.74-5.45.35-5.45-3.11s2.44-7.67,5.45-9.4c3.01-1.74,5.45-.35,5.45,3.11s-2.44,7.67-5.45,9.4"/>
            <path class="cls-20" d="M6.86,27.88c-3.13,1.81-5.67,6.18-5.67,9.77s2.54,5.04,5.67,3.23c3.13-1.81,5.67-6.18,5.67-9.77s-2.54-5.04-5.67-3.23M6.86,40.64c-3.01,1.74-5.45.35-5.45-3.11s2.44-7.67,5.45-9.4c3.01-1.74,5.45-.35,5.45,3.11s-2.44,7.67-5.45,9.4"/>
            <path class="cls-18" d="M2.6,42.14s-.66-.3-1.06-.62c-.39-.32-1.7-2.76-1.27-4.99.43-2.23,1.34-5.34,3.43-7.37,2.09-2.02,3.93-2.98,5.3-2.92,1.37.05,1.85.24,1.85.24,0,0,.67.26,1.07.68-.09.15-1.88-.65-2.83-.48-.95.17-3.47,1.23-5.28,3.69-1.81,2.46-2.74,5.04-2.77,6.49-.04,1.46.45,3.32,1.19,4.09.74.77.38,1.18.38,1.18"/>
            <path class="cls-36" d="M7,27.68c-3.27,1.89-5.92,6.46-5.92,10.21s2.65,5.26,5.92,3.37c3.27-1.89,5.92-6.46,5.92-10.21s-2.65-5.26-5.92-3.37M7,40.97c-3.13,1.81-5.67.36-5.67-3.23s2.54-7.97,5.67-9.77c3.13-1.81,5.67-.36,5.67,3.23s-2.54,7.97-5.67,9.77"/>
            <path class="cls-25" d="M7,27.26c-3.47,2-6.28,6.85-6.28,10.83s2.81,5.58,6.28,3.58c3.47-2,6.28-6.85,6.28-10.83s-2.81-5.58-6.28-3.58M7,41.26c-3.27,1.89-5.92.38-5.92-3.37s2.65-8.32,5.92-10.21c3.27-1.89,5.92-.38,5.92,3.37s-2.65,8.32-5.92,10.21"/>
            <path class="cls-18" d="M25.82,15.56c-3.47,2-6.28,6.85-6.28,10.83s2.81,5.58,6.28,3.58c3.47-2,6.28-6.85,6.28-10.83s-2.81-5.58-6.28-3.58M25.82,29.55c-3.27,1.89-5.92.38-5.92-3.37s2.65-8.32,5.92-10.21c3.27-1.89,5.92-.38,5.92,3.37s-2.65,8.32-5.92,10.21"/>
            <path class="cls-18" d="M24.76,29.94c1.74-.56,3.63-1.9,4.71-3.66l1.42-2.65s.01-.04.02-.06c.54-1.54.72-2.95.72-2.95,0,0,0-2-.08-2.3-.08-.3-.54-1.23-.54-1.23l-.97-1.2s.57-.12.94.25c.37.37,1.24,1.32,1.31,3.02.07,1.7-.51,6.78-5.09,10.17-4.57,3.39-6.44-.69-6.44-.69,0,0,1.96,1.95,3.99,1.29"/>
            <path class="cls-27" d="M26.11,16.43c-3.13,1.81-5.67,6.18-5.67,9.77s2.63,5.14,5.76,3.33c3.13-1.81,5.8-6.14,5.8-9.73s-2.76-5.18-5.89-3.37M26.11,29.19c-3.01,1.74-5.45.35-5.45-3.11s2.44-7.67,5.45-9.4c3.01-1.74,5.45-.35,5.45,3.11s-2.44,7.67-5.45,9.4"/>
            <path class="cls-20" d="M26.4,16.6c-3.13,1.81-5.67,6.18-5.67,9.77s2.54,5.04,5.67,3.23c3.13-1.81,5.67-6.18,5.67-9.77s-2.54-5.04-5.67-3.23M26.4,29.35c-3.01,1.74-5.45.35-5.45-3.11s2.44-7.67,5.45-9.4c3.01-1.74,5.45-.35,5.45,3.11s-2.44,7.67-5.45,9.4"/>
            <path class="cls-18" d="M22.15,30.86s-.66-.3-1.06-.62c-.39-.32-1.7-2.76-1.27-4.99.43-2.23,1.34-5.34,3.43-7.37,2.09-2.02,3.93-2.98,5.3-2.92,1.37.05,1.85.24,1.85.24,0,0,.67.26,1.07.68-.09.15-1.88-.65-2.83-.48-.95.17-3.47,1.23-5.28,3.69-1.81,2.46-2.74,5.04-2.78,6.49-.04,1.46.45,3.32,1.19,4.09.74.77.38,1.18.38,1.18"/>
            <path class="cls-36" d="M26.55,16.39c-3.27,1.89-5.92,6.46-5.92,10.21s2.65,5.26,5.92,3.37c3.27-1.89,5.92-6.46,5.92-10.21s-2.65-5.26-5.92-3.37M26.55,29.68c-3.13,1.81-5.67.36-5.67-3.23s2.54-7.97,5.67-9.77c3.13-1.81,5.67-.36,5.67,3.23s-2.54,7.97-5.67,9.77"/>
            <path class="cls-25" d="M26.55,15.98c-3.47,2-6.28,6.85-6.28,10.83s2.81,5.58,6.28,3.58c3.47-2,6.28-6.85,6.28-10.83s-2.81-5.58-6.28-3.58M26.55,29.97c-3.27,1.89-5.92.38-5.92-3.37s2.65-8.32,5.92-10.21c3.27-1.89,5.92-.38,5.92,3.37s-2.65,8.32-5.92,10.21"/>
            <path class="cls-17" d="M22.83,16.74c.32.29.62.57.92.91.08.09.15.16.24.33.06.12.08.2.12.3l.23.58.91,2.33-.03-.06,1.35,2.04-.38.27-1.45-1.97v-.02s-.03-.04-.03-.04l-1.01-2.26-.25-.56c-.04-.09-.09-.2-.12-.27,0-.01-.08-.1-.14-.16-.27-.27-.59-.54-.89-.8l.55-.64Z"/>
            <path class="cls-39" d="M29.03,13.27c-.19-.35-.77-.85-1.08-1.1-.44.15-1.66.53-2.24.38-.63-.16-6.25-3.25-6.89-3.6l-.05-.02-.03-.04c-.19-.22-1.06-1.26-1.22-1.94-1.08-.63-2.58-.73-2.6-.73l.03-.56c.07,0,1.77.12,2.97.88l.12.08v.14c.03.34.64,1.2,1.08,1.72,2.39,1.32,6.3,3.41,6.72,3.52.39.1,1.47-.2,2.06-.41l.14-.05.12.09c.1.08,1.03.79,1.35,1.37l-.49.27Z"/>
            <path class="cls-12" d="M29.7,13.7l.26-.7-1.95-1.22c-.06-.02-.12,0-.19.06-.13.12-.22.3-.19.47.02.09.06.14.12.16h0s1.95,1.22,1.95,1.22Z"/>
            <path class="cls-52" d="M29.58,13.54c.04.18.18.22.31.1.13-.12.22-.3.18-.48-.04-.17-.18-.22-.31-.1-.13.12-.22.3-.19.47"/>
            <path class="cls-48" d="M22.34,10.8c.07-.08.2-.19.32-.12.05.03.07.08.1.12.04.07.08.14.1.22,0,.04,0,.05-.02.07-.01.01-.03.03-.04.04-.03.03-.06.07-.1.1l-.24.25c-.18.19-.37.39-.55.58-.16.17-.32.34-.48.51-.07.07-.14.15-.21.22,0,0-.41-.39-.4-.39.09-.09.17-.18.26-.27.17-.18.33-.35.5-.53.18-.19.36-.38.54-.57.07-.08.15-.16.22-.23"/>
            <path class="cls-44" d="M20.75,12.07c.07-.03.16-.02.24,0,.02,0,.04,0,.05.02.06.04.08.21.11.27.04.1.07.19.11.29.07.2.14.4.22.6.04.12.11.26.03.37-.08.1-.26.14-.37.1-.05-.02-.1-.07-.13-.14-.08-.16-.12-.34-.19-.51-.05-.14-.1-.28-.15-.41-.07-.19-.16-.48.09-.57"/>
            <path class="cls-17" d="M11.84,23.37c.02.37-.1.82-.14,1.13-.04.32-.08.65-.12.97v.07s-.04.06-.04.06l-4.68,9.22-.25-.32,1.65-.44h-.02s4.95-1.85,4.95-1.85l-.19.13.68-.81.64.54-.68.81-.08.1-.11.03-5.04,1.57s-.02,0-.02,0l-1.67.35-.44.09.19-.41,4.33-9.39-.04.13c.09-.32.09-.7.13-1.03.03-.24.06-.49.09-.73.03-.27-.01-.46.19-.68.08-.09.18-.18.29-.18.15,0,.26.14.32.28.05.1.07.21.07.34"/>
            <polygon class="cls-32" points="15.89 33.42 14.02 35.36 11.88 34.12 11.88 33.27 13.75 32.19 15.89 33.42"/>
            <polygon class="cls-16" points="15.89 34.28 14.02 35.36 14.02 34.5 15.89 33.42 15.89 34.28"/>
            <path class="cls-14" d="M13.27,31.82c0,.96.68,1.35,1.52.87.84-.48,1.52-1.65,1.52-2.62s-.68-1.35-1.52-.86c-.84.48-1.52,1.65-1.52,2.61"/>
            <polygon class="cls-14" points="13.68 32.77 14.03 32.97 16.21 29.29 15.89 29.11 13.68 32.77"/>
            <path class="cls-46" d="M13.58,32c0,.96.68,1.35,1.52.86.84-.48,1.52-1.65,1.52-2.61s-.68-1.35-1.52-.86c-.84.48-1.52,1.65-1.52,2.61"/>
            <path class="cls-38" d="M12.56,32.33s-.28.19-.32.45c-.05.26-.08.46-.07.54,0,.08.41.64,1.14.55.73-.09,1.05-.4,1.05-.4l.05-.22s.58-.11.62-.09c.04.02.14.09.14.09,0,0,.78-.08,1.12-.2.34-.12.66-.46.78-.61.12-.15.16-.24.16-.24,0,0-.02-.38-.14-.48-.12-.1-1.49.17-1.49.17l-3.05.45Z"/>
            <path class="cls-13" d="M14.83,30.93c.22.17.7.27.7.27,0,0,.97.04,1.25.24.27.2.36.33.31.58-.05.25-.13.39-.26.48-.13.09-.67.45-1.38.48s-1.14.12-1.3.2c-.16.08-.53.27-1.16.16-.63-.11-.66-.38-.68-.55-.02-.17.35-1.24.4-1.32.05-.08.8-.55.8-.55h1.33Z"/>
            <path class="cls-11" d="M11.31,12.62c-.36.26-.7,1.04-.79,1.17-.09.13-.63.75-.69,1.66-.06.91.7,1.85.94,2.2.24.35.68.91,1.26,1.38.58.47,1.51,1.93,1.56,2.18.05.25.74.2,1.01-1.68.27-1.88.5-5.45-.06-6.09-.56-.65-3.22-.82-3.22-.82"/>
            <path class="cls-11" d="M11.68,13.54c-.22.54-.94,2.05-.77,2.98.17.93.75,1.18,1.25,2.09.51.91,1.58,3.24,1.7,3.51.12.27.72,1.81.6,2.37-.12.56-.71,3.2-.91,4.01-.2.81-.82,2.79-.85,3.22-.03.43,1.17.56,1.59.48s.73-.43.81-.64c.08-.21.49-1.73.52-2.01.04-.28,1.51-4.45,1.59-5.14.08-.7-.17-3.19-.26-4.2-.09-1.01-.28-1.76-.43-3.22-.15-1.46,0-2,0-2,0,0-.91-.59-2.14-.85-1.23-.26-2.7-.59-2.7-.59"/>
            <path class="cls-33" d="M10.52,13.78c.17.11.19.36,2.31.92,2.12.56,3.03.77,3.62,1.19.04-.79.07-.91.07-.91l.03-.88-5.56-1.12-.46.79Z"/>
            <rect class="cls-11" x="10.74" y="13.79" width="1.55" height=".39" transform="translate(-5.83 19.2) rotate(-67.27)"/>
            <path class="cls-11" d="M15.68,15.95l-.37-.13c.18-.51.29-1.04.34-1.58l.39.03c-.04.57-.16,1.14-.36,1.67"/>
            <path class="cls-5" d="M16.33,24.54c-.32-.57-1.22-.7-1.66-.18-.26.32-.33.9-.4,1.29-.08.47-.13.96-.24,1.43-.25,1.07-.46,2.14-.72,3.21,0-.04.01-.08.02-.13-.07.41-.48.87.05,1.14.28.14.6.2.91.14.09-.01.17-.04.25-.09.22-.14.26-.45.32-.71.09-.39.29-.75.46-1.11.41-.87.67-1.8.78-2.76.03-.23.03-.47.05-.7.02-.18.08-.26.17-.43.17-.34.19-.76,0-1.1"/>
            <path class="cls-8" d="M14.82,32.15l-.19-.06c.02-.07,2.04-6.68,2.19-7.41.09-.47-.09-1.53-.23-2.38-.08-.46-.15-.85-.15-1.07-.01-.25-.07-.66-.14-1.12-.09-.62-.21-1.39-.25-2.12-.01-.22-.1-2.63.06-2.71l.06-.03.05.04-.06.08h0l.09.03c-.02.11-.07,1.39,0,2.58.04.72.15,1.49.25,2.1.07.47.13.88.14,1.14,0,.2.08.59.15,1.04.15.87.33,1.95.23,2.45-.15.74-2.11,7.16-2.2,7.43M16.16,15.37l-.06.08.06-.08Z"/>
            <path class="cls-8" d="M13.41,19.92l-.03-.03c-.35-.29-1.17-.97-1.22-1.08-.06-.11-.26-1.57-.34-2.19l-.02-.13,3.55.59-.35,2.57-1.58.27ZM12.02,16.72c.1.77.27,1.89.31,2,.05.08.69.62,1.14.99l1.36-.23.3-2.24-3.1-.52Z"/>
            <path class="cls-8" d="M10.69,17.78c-.05-.17-.41-1.54-.48-1.8-.11-.06-.4-.22-.48-.41l.18-.07c.05.12.28.26.42.33l.04.02v.04s.44,1.66.5,1.84l-.18.06Z"/>
            <path class="cls-1" d="M13.56,13.88s-.32,1.11-.3,1.09c.03-.02,1.73.46,1.73.46l.27-1.12-1.71-.44Z"/>
          </g>
          <g class="cls-45">
            <rect class="cls-31" x="18.02" y=".91" width="5.41" height="5.51" transform="translate(14.32 23.71) rotate(-82.3)"/>
          </g>
          <g>
            <path class="cls-30" d="M19.87,4.38c.25.06.52-.06.78-.32.26-.26.82-.65,1-.65.18,0,.31.16.31.16l-.18.48h.24s.24-.52.31-.59c.07-.07.26-.3.38-.29.12,0,.39-.39.42-.58.03-.19.32-1.07-.58-1.95-.9-.88-2.03-.39-2.45-.26-.54.26-1.26,1.19-1.34,1.62-.08.43-.04.62-.06.94-.02.32.13.84.11.93-.03.09,1.06.51,1.06.51"/>
            <path class="cls-43" d="M21.28,3.92c-.02.44-1.06,1.81-1.06,1.81l.26.18s.66-.82.8-1.01c.35-.18.71-.51.74-.65.03-.14.32-.69.32-.69l-.4.23s-.16.5-.27.6c-.11.1-.39.26-.39.26,0,0,.27-.6.28-.76,0-.16-.28.04-.28.04"/>
          </g>
          <g class="cls-29">
            <rect class="cls-42" x="21.08" y="3.38" width="1.31" height=".84" transform="translate(15.06 24.83) rotate(-82.3)"/>
          </g>
          <g>
            <g class="cls-35">
              <g class="cls-4">
                <g class="cls-23">
                  <path class="cls-22" d="M21.16,5.72l-.08.06c-.34.27-.6.12-.6.12,0,0-.11.12-.24.12-.13,0-1.98-1.31-1.92-1.45.02-.05.06-.11.11-.18.02,0,.05,0,.07,0,.3.03.59.13.88.24.2.08.41.18.53.36.08.13.11.3.2.42.1.14.27.22.43.28.03.01.05.02.08.01.04,0,.07-.04.1-.07.07-.07.18-.09.28-.07.07.02.13.07.16.13"/>
                </g>
              </g>
            </g>
            <path class="cls-51" d="M22.07,7.45c-.05.29-.82,1.48-1.39,2.36-.18.27-.34.51-.45.68-.47.73-2.38,2.83-2.54,3.2-.16.37-1.15,1.89-1.3,1.86-.07-.01-.23-.18-.51-.38-.36-.26-.92-.58-1.72-.75-1.43-.31-3.23-1.06-3.26-1.35-.03-.28.64-.87.96-1.16.32-.29,1.06-1.38,1.67-2.51.61-1.12.99-2.56,1.5-3.76.51-1.2.75-1.22,1.15-1.26.4-.04,1.5.03,1.5.03,0,0,.33-.06.72.04.39.1,1.28.69,1.6.9,0,0,.13.18.17.23.04.05.22.29.55.43.33.14.83.46,1.06.57.22.1.33.5.26.88"/>
            <g class="cls-35">
              <g class="cls-2">
                <g class="cls-3">
                  <path class="cls-22" d="M20.68,9.8c-.18.27-.34.51-.45.68-.47.73-2.38,2.83-2.54,3.2-.16.37-1.14,1.89-1.3,1.86-.07-.02-.23-.18-.51-.38.07-.1.17-.19.26-.27.4-.37.8-.74,1.15-1.16.26-.32.49-.67.75-.99.24-.3.52-.57.74-.89.5-.69.74-1.55,1.27-2.21.05-.06.1-.12.17-.14.18-.05.3.16.43.28,0,0,.01.01.02.01"/>
                </g>
              </g>
            </g>
            <path class="cls-50" d="M16.95,4.66c-.21-.05-.38-.14-.62-.11-.48.08-.77.56-.96,1.01-.46,1.07-.75,2.19-1.05,3.32-.05.18-.1.37-.06.55.03.13.09.24.17.34.45.57,1.29.67,1.88,1.11.25.19.45.44.74.57.49.22,1.08,0,1.48-.36s.68-.83,1.03-1.24c.52-.61,1.2-1.06,1.74-1.66.18-.2.35-.43.39-.69.07-.46-.26-.89-.64-1.16-.36-.25-.77-.41-1.11-.67-.46-.36-1.02-1.12-1.65-1.15-.09,0-.18.01-.27.02-.29.05-.65.17-.95.14-.04,0-.08-.01-.12-.02"/>
          </g>
          <g class="cls-24">
            <rect class="cls-40" x="22.76" y="6.61" width="5.78" height="7.95" transform="translate(11.73 34.59) rotate(-82.3)"/>
          </g>
          <g>
            <g class="cls-35">
              <g class="cls-9">
                <path class="cls-22" d="M29.27,12.46c-.14.08-.24.22-.29.38,0,0,0,.01,0,.02-.06,0-.13-.02-.16-.04-.03-.03-.03-.07-.03-.07,0,0-.3.25-.58.21-.31-.1-.33-.11-.33-.11,0,0-.12.05-.31-.08-.19-.13-.35-.24-.35-.24,0,0-.47-.16-1.03-.37-.56-.21-1.43-.61-1.79-.81-.36-.2-.94-.62-1.25-.79-.31-.17-1.16-.86-1.16-.86l.12-.18c.18.08.33.21.5.3.27.14.53.28.79.43.16.09.3.2.49.23.2.03.38.08.57.14.07-.02.14-.03.21-.05.1-.02.19-.05.27-.11-.16.17-.34.29-.52.42.05.18.3.31.44.4.22.14.45.26.69.37.26.11.54.17.77.33.49.33,1.14.33,1.61.71.06.05.11.1.18.13.16.08.34.03.51-.03.24-.09.46-.2.67-.34"/>
              </g>
            </g>
            <path class="cls-12" d="M29.55,12.75c-.06-.04-.12-.09-.19-.12-.05-.02-.12-.02-.18-.02-.04,0-.08,0-.12.01-.07.01-.14.02-.21.04-.07.01-.12.05-.18.08-.05.03-.1.05-.14.08-.09.05-.08.11,0,.16.09.05.18.11.28.17.09.06.18.11.27.17.16-.18.32-.38.47-.56"/>
            <path class="cls-26" d="M24.92,9.52c.11.03.18.03.17.15,0,.08-.07.17-.13.23-.08.08-.3.3-.41.32-.11.01-.22.02-.32.02-.09,0-.17,0-.25-.03-.12-.03-.22-.09-.32-.16-.53-.35-.98-.82-1.31-1.35-.05-.09-.1-.18-.11-.28,0-.03,0-.07.03-.09.02-.01.04-.02.06-.02.21-.03.42.03.62.12.22.1.47.2.66.33.08.05.15.11.22.18.04.05.08.1.12.14.13.13.31.19.48.23.17.04.31.17.49.21"/>
            <path class="cls-26" d="M27.79,12.18c-.09.07-.22.07-.34.06-.26-.04-.5-.15-.74-.27-.27-.13-.54-.27-.82-.41-.18-.09-.37-.19-.52-.32-.22-.18-.39-.46-.35-.75,0-.05.02-.1,0-.14-.01-.04-.04-.08-.07-.11-.11-.12-.22-.24-.33-.36-.02-.02-.04-.05-.04-.08,0-.06.07-.1.13-.12.15-.04.3-.05.45-.04.06,0,.12.01.17.04.05.04.09.09.13.14.12.16.29.26.44.39.34.29.59.67.93.96.16.14.35.25.53.36.16.1.79.38.43.64"/>
            <path class="cls-6" d="M23.86,8.77c-.01.22-.2.79-.53,1.23-.33.44-.94.81-1,.91-.06.1-.72-.07-.72-.07,0,0-1.37-.45-1.57-.56-.21-.11-.08-1.43.69-2.41.77-.98,1.05-1.27,1.19-1.2.14.07,1.07,1.46,1.25,1.6s.69.51.69.51"/>
            <path class="cls-37" d="M30.05,22.65c-.22.07-.33-.25-.25-.73.08-.47.32-.92.54-.99.22-.07.33.25.25.73-.08.48-.33.92-.54.99"/>
            <path class="cls-28" d="M30.14,22.7c-.22.07-.33-.25-.25-.73.08-.48.32-.92.54-.99.22-.07.33.25.25.73-.08.48-.33.92-.54.99"/>
            <path class="cls-37" d="M2.45,36.45c-.22.07-.33-.25-.25-.73.08-.47.32-.92.55-.99.22-.07.33.25.25.73-.08.48-.33.92-.54.99"/>
            <path class="cls-28" d="M2.53,36.5c-.22.07-.33-.25-.25-.73.08-.48.32-.92.55-.99.22-.07.33.25.25.73-.08.48-.33.92-.54.99"/>
            <path class="cls-41" d="M19.23,2.67c-.47.52-1.11.58-1.19.7-.18.26-.04.66.03.73.25.24.74.41,1.57.5.83.09,1.21.17,2.22-.2,1.01-.37,1.19-.57,1.52-.97.42-.5.46-1.07.45-1.21s-.11-.88-.36-.98c-.26-.1-4.25,1.44-4.25,1.44"/>
            <path class="cls-47" d="M23.54,1.37h0s0-.02,0-.02h0c-.14-.43-.66-.81-1.01-.99-.74-.4-1.58-.62-2.78.21-.37.26-.66.65-.82.87-.62.77-1.43,2.12-.47,2.45,1.01.34,2.16.7,4.14-.32,1.36-.7.99-2.03.94-2.2"/>
            <path class="cls-41" d="M21.78,2.26s-.61.68-.67,1.05c-.06.37.94.06,1.42-.29.48-.34.65-.42.67-.82.02-.4-.57-.25-.57-.25l-.85.31Z"/>
            <path class="cls-43" d="M23.06,2.15c-.07-.4-.8-.11-1.08,0-.5.19-.85.98-.83,1.11.02.13,2.01-.52,1.9-1.11"/>
            <path class="cls-41" d="M19.37,2.07c-.09-.17-.18-.33.24-.88.42-.55,1.17-1.03,1.66-1.06.49-.03.93.24.7.44-.24.2-1.8.37-2.59,1.5"/>
            <path class="cls-43" d="M19.4,2.11c.38.16,1.02-.96,2.13-1.27.23-.07.64-.29.32-.44-.32-.15-.65-.27-1.32.14-.66.41-1.37,1.48-1.14,1.58"/>
          </g>
        </g>
      </g>
    </g>
  </g>
</svg>