<?xml version="1.0" encoding="UTF-8"?>
<svg id="uuid-448c6881-b7a6-4f16-9046-df18516d6189" data-name="Calque_2" xmlns="http://www.w3.org/2000/svg" viewBox="0 0 43.08 45.29">
  <defs>
    <style>
      .uuid-560e2a89-6a8c-4695-aecd-e49ef0cca0c4 {
        fill: #f6b3a0;
      }

      .uuid-33e55b79-ec60-4f02-bce4-d3adec136d91 {
        fill: #1b9398;
      }

      .uuid-673db988-686a-4999-baff-e98fa34d410a {
        fill: #fff;
      }

      .uuid-c77d9008-355d-4ebd-b1af-4ff935da207c {
        fill: #f29587;
      }

      .uuid-1284ef80-42a2-4ed5-804b-7d3c5245667e {
        fill: #e3a18d;
      }

      .uuid-0f89028a-0ebd-4ee5-a442-34efb4bb5f39 {
        fill: #e8435c;
      }

      .uuid-77b75372-1b81-4e77-9d52-af9453d3bcf6 {
        fill: #eaf6fd;
      }

      .uuid-e87b1773-12b8-431f-81ea-86469e1a5aed {
        fill: #bcdbe0;
      }

      .uuid-758da799-6a24-44de-8eba-76a682ccde03 {
        fill: #322527;
      }

      .uuid-d1dd7c92-3375-41d9-9ca9-05d29fe332af {
        fill: #423134;
      }

      .uuid-2ba73ecc-16c9-4be8-b5c9-19517f93487b {
        fill: #4e3a3e;
      }

      .uuid-39e1e36b-1c0b-41ee-b008-a42626585fb3 {
        fill: #4bacb6;
      }
    </style>
  </defs>
  <g id="uuid-940564f5-b4bf-4a8b-aabf-0745a29cf03d" data-name="Les_personnages">
    <g id="uuid-ad90db58-155d-4f9d-b140-84f7f04e84e4" data-name="Chara_x5F_EnfantsJeu_x5F_BG">
      <path class="uuid-77b75372-1b81-4e77-9d52-af9453d3bcf6" d="M29.37,3.31v6.4l-6.96,4.02c-.5.29-.81.82-.81,1.4v12.16h.7v-5.8l7.06-4.08v3.83h.7V3.31h-.7ZM29.37,16.7l-7.06,4.08v-5.36c0-.58.31-1.11.81-1.4l6.25-3.61v6.28Z"/>
      <path class="uuid-77b75372-1b81-4e77-9d52-af9453d3bcf6" d="M22.13,25.79l-1.58.91c-.5.29-.81.82-.81,1.4v1.71h.7v-1.41c0-.58.31-1.11.81-1.4l.88-.51v-.71Z"/>
      <polygon class="uuid-77b75372-1b81-4e77-9d52-af9453d3bcf6" points="28.35 23.9 22.82 27.09 22.82 27.8 28.35 24.6 28.35 23.9"/>
      <path class="uuid-d1dd7c92-3375-41d9-9ca9-05d29fe332af" d="M33.46,19.76c0,2.53-1.54,5.46-3.43,6.56-.88.51-1.68.53-2.29.15-.7-.43-1.14-1.4-1.14-2.75,0-2.53,1.54-5.46,3.43-6.56,1.9-1.09,3.43.07,3.43,2.59"/>
      <polygon class="uuid-d1dd7c92-3375-41d9-9ca9-05d29fe332af" points="28.53 26.94 27.78 26.5 28.32 26.27 28.53 26.94"/>
      <path class="uuid-d1dd7c92-3375-41d9-9ca9-05d29fe332af" d="M32.15,16.92l.86.5s-.59.16-.6.16c-.01,0-.26-.66-.26-.66"/>
      <path class="uuid-d1dd7c92-3375-41d9-9ca9-05d29fe332af" d="M34.17,20.18c0,2.53-1.54,5.46-3.43,6.56-1.9,1.09-3.43-.07-3.43-2.6s1.54-5.46,3.43-6.56c1.9-1.09,3.43.07,3.43,2.59"/>
      <path class="uuid-77b75372-1b81-4e77-9d52-af9453d3bcf6" d="M31.46,21.75c0,.53-.32,1.15-.72,1.37-.4.23-.72-.01-.72-.54s.32-1.14.72-1.37c.4-.23.72.01.72.54"/>
      <path class="uuid-d1dd7c92-3375-41d9-9ca9-05d29fe332af" d="M23.96,27.35c0,1.26-.77,2.72-1.71,3.27-.94.55-1.71-.03-1.71-1.29s.77-2.72,1.71-3.27c.95-.55,1.71.03,1.71,1.29"/>
      <polygon class="uuid-d1dd7c92-3375-41d9-9ca9-05d29fe332af" points="21.13 30.7 21.72 31.04 21.72 30.54 21.13 30.7"/>
      <polygon class="uuid-d1dd7c92-3375-41d9-9ca9-05d29fe332af" points="23.34 25.94 23.96 26.31 23.69 26.43 23.24 26.01 23.34 25.94"/>
      <path class="uuid-758da799-6a24-44de-8eba-76a682ccde03" d="M24.53,27.67c0,1.26-.77,2.72-1.71,3.27-.94.55-1.71-.03-1.71-1.29s.77-2.72,1.71-3.27c.95-.55,1.71.03,1.71,1.29"/>
      <path class="uuid-77b75372-1b81-4e77-9d52-af9453d3bcf6" d="M23.54,28.25c0,.53-.32,1.15-.72,1.37-.4.23-.72-.01-.72-.54s.32-1.14.72-1.37c.4-.23.72.02.72.54"/>
      <polygon class="uuid-2ba73ecc-16c9-4be8-b5c9-19517f93487b" points="22.31 12.69 23.45 13.36 29.12 10.09 27.96 9.42 22.31 12.69"/>
      <polygon class="uuid-758da799-6a24-44de-8eba-76a682ccde03" points="22.31 12.69 22.31 13.39 23.45 14.06 23.45 13.36 22.31 12.69"/>
      <polygon class="uuid-d1dd7c92-3375-41d9-9ca9-05d29fe332af" points="29.12 10.09 23.45 13.36 23.45 14.06 29.12 10.78 29.12 10.09"/>
      <path class="uuid-758da799-6a24-44de-8eba-76a682ccde03" d="M31.07.06l-.71.41c-.55.32-1,1.1-1,1.73v1.71s.16.14.41.14.29-.14.29-.14v-1.41c0-.58.31-1.11.81-1.4l.88-.51v-.14c0-.35-.38-.57-.68-.39"/>
      <polygon class="uuid-758da799-6a24-44de-8eba-76a682ccde03" points="21.82 21.1 21.82 21.85 30.71 27 30.71 26.23 21.82 21.1"/>
      <polygon class="uuid-2ba73ecc-16c9-4be8-b5c9-19517f93487b" points="21.82 21.1 30.71 26.23 38.28 21.83 29.37 16.7 21.82 21.1"/>
      <polygon class="uuid-77b75372-1b81-4e77-9d52-af9453d3bcf6" points="25.18 36.66 25.18 37.43 29.36 35.01 29.36 34.22 25.18 36.66"/>
      <polygon class="uuid-e87b1773-12b8-431f-81ea-86469e1a5aed" points="16.3 31.53 16.3 32.29 25.18 37.43 25.18 36.66 16.3 31.53"/>
      <polygon class="uuid-673db988-686a-4999-baff-e98fa34d410a" points="16.3 31.53 25.18 36.66 29.36 34.22 20.5 29.11 16.3 31.53"/>
      <path class="uuid-33e55b79-ec60-4f02-bce4-d3adec136d91" d="M29.12,8.69s-.77-.46-1.6,1.05c-.66,1.2-1.23,2.54-1.23,2.54,0,0,1.15.07,1.92.48s.92-4.07.92-4.07"/>
      <path class="uuid-560e2a89-6a8c-4695-aecd-e49ef0cca0c4" d="M25.58,19.18c-.28.31-2.03,1.57-2.23,2.26-.22.74-1.07,6.52-1.23,6.98-.11.29-.69.92-1.2,1.51.85.44,1.91.6,2.61,0-.05-.29.02-.72.16-.9.23-.29,1.3-3.44,1.5-4.23.25-.99.22-1.36.43-1.92.49-.39,2.32-1.14,3.19-1.77.07-1.1-2.49-1.67-3.22-1.95"/>
      <path class="uuid-39e1e36b-1c0b-41ee-b008-a42626585fb3" d="M21.03,29.53s-1.14,1.02-1.56,1.35c-.43.32-.33.93.36,1.1.69.17,1.31.09,2.1-.54.32-.25.67-.5,1.06-.69.4-.2.71-.63.65-.98l-.06-.35s-.57.18-1.01.35c-.97.36-1.54-.25-1.54-.25"/>
      <path class="uuid-33e55b79-ec60-4f02-bce4-d3adec136d91" d="M20.55,29.96s1.08-1.1,1.24-1.32c.16-.22.5.24.3.79-.2.55-.67.94-.67.94,0,0-.32,0-.88-.41"/>
      <path class="uuid-673db988-686a-4999-baff-e98fa34d410a" d="M20.22,30.25s.69.48,1.03.67c.34.19.88-.17.32-.55-.56-.38-.84-.59-.84-.59l-.5.47Z"/>
      <path class="uuid-560e2a89-6a8c-4695-aecd-e49ef0cca0c4" d="M28.42,21.21c-.28.31-1.52,1.67-1.73,2.36-.22.74-1.07,6.52-1.23,6.98-.11.29-.69.92-1.2,1.51.85.44,2.05.5,2.75-.1-.05-.29-.11-.62.02-.79.23-.29,1.3-3.44,1.5-4.23.25-1,.22-1.36.43-1.92.49-.39,2.32-1.14,3.19-1.77.07-1.1-3-1.77-3.73-2.05"/>
      <path class="uuid-39e1e36b-1c0b-41ee-b008-a42626585fb3" d="M24.47,31.82s-1.14,1.02-1.56,1.35c-.43.32-.33.93.36,1.1.69.17,1.31.09,2.1-.54.32-.25.67-.5,1.05-.69.4-.2.71-.63.66-.98l-.06-.35s-.57.18-1.01.35c-.97.36-1.54-.25-1.54-.25"/>
      <path class="uuid-33e55b79-ec60-4f02-bce4-d3adec136d91" d="M23.99,32.25s1.08-1.1,1.24-1.32c.16-.22.5.24.3.79-.2.55-.67.94-.67.94,0,0-.32,0-.88-.41"/>
      <path class="uuid-673db988-686a-4999-baff-e98fa34d410a" d="M23.66,32.54s.69.48,1.03.67c.34.19.88-.17.32-.55-.56-.38-.84-.59-.84-.59l-.5.47Z"/>
      <path class="uuid-d1dd7c92-3375-41d9-9ca9-05d29fe332af" d="M29.37,16.7s-1.72,1.17-2.29,1.48c-.59.31-2.21,1.49-2.21,1.49,0,0,.89-.08,1.57.48,1.15.94.83,1.86.83,1.86l.81-.43s.77,0,1.56.47c1.06.63.99,2.07.99,2.07,0,0,1.49-.39,3.11-1.58,1.76-1.3,1-2.63.88-3.95-.12-1.32-5.25-1.88-5.25-1.88"/>
      <path class="uuid-39e1e36b-1c0b-41ee-b008-a42626585fb3" d="M27.71,17.8c.45.77,2.79,1.64,4.23,2.45,1.39.78,2.68.27,3.25-.57,0-1.85.23-6.5-.47-8.14-.8-1.85-2.85-2.35-2.85-2.35,0,0-1.17-.65-2.75-.5-.88,1.32-1.45,3.98-.77,5.64.74,1.79-.38,2.48-.64,3.47"/>
      <path class="uuid-c77d9008-355d-4ebd-b1af-4ff935da207c" d="M29.81,9.03l-.17,1.22-.05.38s-.28,1.07.05,1.2c.3.12,1.2-.68,1.56-1.02.77-.7.88-1.02.88-1.02l-.45-2.16-1.81,1.39Z"/>
      <path class="uuid-560e2a89-6a8c-4695-aecd-e49ef0cca0c4" d="M30.85,5.16c-.72-.52-2.4-.64-2.96,1.11-.59,1.83,1.12,4.05,1.98,3.64.48-.23,1.49-1.02,1.75-1.99.29-1.08-.21-2.35-.77-2.76"/>
      <path class="uuid-758da799-6a24-44de-8eba-76a682ccde03" d="M27.76,6.84c.3.29.75.67,1.61.44,1.41-.38,1.78-.13,1.99-.03.24.12.27.66.27.66,0,0,.69-.71.42-1.79-.17-.67-1.12-1.98-2.39-1.82-1.27.16-1.98,1.02-2.12,1.75-.07.37.09.66.22.79"/>
      <path class="uuid-33e55b79-ec60-4f02-bce4-d3adec136d91" d="M29.53,9.98s-.21.36-.24,1.07c-.03.71.3,1.65.3,1.65,0,0,1.12-.85,1.7-1.48.74-.8,1.23-1.77,1.23-1.77l-.57-.25s-.09,1.05-2.16,2.33c-.2-.68-.1-1.58-.1-1.58l-.16.03Z"/>
      <path class="uuid-560e2a89-6a8c-4695-aecd-e49ef0cca0c4" d="M25.94,12.92s-.68-.72-1.42.11c-.74.83,0,1.62,0,1.62l1.42-1.73Z"/>
      <path class="uuid-33e55b79-ec60-4f02-bce4-d3adec136d91" d="M29,13.45c.02.14.04.29.04.44,0,1.45-1.18,2.63-2.63,2.63-.86,0-1.63-.42-2.11-1.06.21,1.24,1.29,2.19,2.59,2.19,1.45,0,2.63-1.18,2.63-2.63,0-.59-.2-1.13-.52-1.57"/>
      <path class="uuid-39e1e36b-1c0b-41ee-b008-a42626585fb3" d="M26.41,16.52c1.45,0,2.63-1.18,2.63-2.63,0-.15-.02-.3-.04-.44-.48-.64-1.24-1.06-2.11-1.06-1.45,0-2.63,1.18-2.63,2.63,0,.15.02.3.04.44.48.64,1.24,1.06,2.11,1.06"/>
      <path class="uuid-0f89028a-0ebd-4ee5-a442-34efb4bb5f39" d="M25.5,16.36s.36-1.86,1.41-2.65c1.05-.79,1.83-.56,2.09-.26.28.32.43.88.43.88,0,0-.39,2.4-2.22,2.41-1.29,0-1.7-.37-1.7-.37"/>
      <path class="uuid-560e2a89-6a8c-4695-aecd-e49ef0cca0c4" d="M32.88,13.62l-.52,2.41s-2.19-.16-2.84-.28c-.36-.07-1.22-1.08-1.49-1.5-.2-.3-.29-.24-.28.24.01.29.06.81-.75.71-1.76-.22-1.39.78-.86,1.23.68.57,2.04.25,2.36.39,1.85.8,3.37,1.24,3.6,1.27.65.08.86.17,1.36-.55.71-1.02,1.15-3.32,1.15-3.32l-1.74-.59Z"/>
      <path class="uuid-33e55b79-ec60-4f02-bce4-d3adec136d91" d="M34.03,15.43c.42.1.51.13.92.23.1-.77.48-3.06.28-3.81-.25-.94-.48-1.11-1.27-1.38-.75-.26-1,.6-1.23,1.61-.15.65-.32,2.22-.37,2.58.46.29,1.14.64,1.67.77"/>
      <path class="uuid-77b75372-1b81-4e77-9d52-af9453d3bcf6" d="M38.28,8.23v6.6l-6.96,4.02c-.5.29-.81.82-.81,1.4v12.16h.7v-5.8l7.06-4.08v3.83h.7V8.23h-.7ZM38.28,21.83l-7.06,4.08v-5.36c0-.58.31-1.11.81-1.4l6.25-3.61v6.28Z"/>
      <path class="uuid-77b75372-1b81-4e77-9d52-af9453d3bcf6" d="M31.04,30.92l-1.58.91c-.5.29-.81.82-.81,1.4v1.71h.7v-1.41c0-.58.31-1.11.81-1.4l.88-.51v-.71Z"/>
      <polygon class="uuid-77b75372-1b81-4e77-9d52-af9453d3bcf6" points="37.26 29.02 31.73 32.22 31.73 32.92 37.26 29.73 37.26 29.02"/>
      <path class="uuid-d1dd7c92-3375-41d9-9ca9-05d29fe332af" d="M42.37,24.89c0,2.53-1.54,5.46-3.43,6.56-.88.51-1.68.53-2.29.15-.7-.43-1.14-1.4-1.14-2.75,0-2.53,1.54-5.46,3.43-6.56,1.9-1.09,3.43.07,3.43,2.59"/>
      <polygon class="uuid-d1dd7c92-3375-41d9-9ca9-05d29fe332af" points="37.44 32.07 36.69 31.62 37.23 31.39 37.44 32.07"/>
      <path class="uuid-d1dd7c92-3375-41d9-9ca9-05d29fe332af" d="M41.06,22.05l.86.5s-.59.16-.6.16c-.01,0-.26-.66-.26-.66"/>
      <path class="uuid-758da799-6a24-44de-8eba-76a682ccde03" d="M43.08,25.31c0,2.53-1.54,5.46-3.43,6.56-1.9,1.09-3.43-.07-3.43-2.6s1.54-5.46,3.43-6.56c1.9-1.09,3.43.07,3.43,2.59"/>
      <path class="uuid-673db988-686a-4999-baff-e98fa34d410a" d="M40.37,26.87c0,.53-.32,1.15-.72,1.37-.4.23-.72-.01-.72-.54s.32-1.14.72-1.37c.4-.23.72.01.72.54"/>
      <path class="uuid-d1dd7c92-3375-41d9-9ca9-05d29fe332af" d="M32.87,32.47c0,1.26-.77,2.72-1.71,3.27-.94.55-1.71-.03-1.71-1.29s.77-2.72,1.71-3.27c.95-.55,1.71.03,1.71,1.29"/>
      <polygon class="uuid-d1dd7c92-3375-41d9-9ca9-05d29fe332af" points="30.04 35.83 30.63 36.17 30.63 35.67 30.04 35.83"/>
      <polygon class="uuid-d1dd7c92-3375-41d9-9ca9-05d29fe332af" points="32.25 31.07 32.87 31.43 32.6 31.56 32.15 31.13 32.25 31.07"/>
      <path class="uuid-758da799-6a24-44de-8eba-76a682ccde03" d="M33.44,32.8c0,1.26-.77,2.72-1.71,3.27-.94.55-1.71-.03-1.71-1.29s.77-2.72,1.71-3.27c.95-.55,1.71.03,1.71,1.29"/>
      <path class="uuid-673db988-686a-4999-baff-e98fa34d410a" d="M32.44,33.37c0,.53-.32,1.15-.72,1.37-.4.23-.72-.01-.72-.54s.32-1.14.72-1.37c.4-.23.72.01.72.54"/>
      <polygon class="uuid-2ba73ecc-16c9-4be8-b5c9-19517f93487b" points="31.22 17.82 32.36 18.48 38.03 15.21 36.87 14.54 31.22 17.82"/>
      <polygon class="uuid-758da799-6a24-44de-8eba-76a682ccde03" points="31.22 17.82 31.22 18.52 32.36 19.18 32.36 18.48 31.22 17.82"/>
      <polygon class="uuid-d1dd7c92-3375-41d9-9ca9-05d29fe332af" points="38.03 15.21 32.36 18.48 32.36 19.18 38.03 15.9 38.03 15.21"/>
      <path class="uuid-758da799-6a24-44de-8eba-76a682ccde03" d="M39.98,5.27l-.71.41c-.55.32-1,1.1-1,1.73v1.71s.16.14.41.14.29-.14.29-.14v-1.41c0-.58.31-1.11.81-1.4l.88-.51v-.14c0-.35-.38-.57-.68-.39"/>
      <path class="uuid-673db988-686a-4999-baff-e98fa34d410a" d="M4.74,15.77s-1.51-.76-2.33.51c-.68,1.05.56,3.3.56,3.3l2.24-2.66-.47-1.15Z"/>
      <path class="uuid-1284ef80-42a2-4ed5-804b-7d3c5245667e" d="M9.87,11.34c-.65.35-.72,1.25-.84,1.7-.13.45-.54,1.63-.92,2.37-.92-.32-2.35-.21-2.35-.21v1.09s2.06,1.29,2.76.98c.17-.07.33-.22.44-.45.23-.49.5-1.31.61-1.79.17-.7.42-1.36.53-1.54.16-.28.43-.31.71-.6.07-.08-.22-.09-.47-.06-.2.02-.38.06-.38.06,0,0,.26-.82.5-1.22.24-.4-.1-.59-.59-.33"/>
      <path class="uuid-758da799-6a24-44de-8eba-76a682ccde03" d="M.21,41.06v.82c0,.56,1.09.71,1.56.6.47-.11,1.99-.52,2.54-1.01.55-.49-.15-1.02-.95-1.16s-3.15.75-3.15.75"/>
      <path class="uuid-758da799-6a24-44de-8eba-76a682ccde03" d="M5.27,43.84v.82c0,.56,1.09.71,1.56.6.47-.11,1.99-.52,2.54-1.01.55-.49-.15-1.02-.95-1.16s-3.15.75-3.15.75"/>
      <path class="uuid-d1dd7c92-3375-41d9-9ca9-05d29fe332af" d="M2.13,24.67s-.38,1.98-.46,2.94c-.08.96.15,4.6-.06,5.74-.36,1.95-1.61,7.71-1.61,7.71,0,0,.31.45,1.61.59,1.15.12,2-1.01,2-1.01,0,0,.56-4.41.88-5.82.32-1.41.39-4.49.39-4.49,0,0,.54,3.43.61,4.79.07,1.36-.57,8.69-.57,8.69,0,0,.35.38,1.85.38,1.29,0,1.66-1.09,1.66-1.09,0,0,.57-6.21.5-8.38-.07-2.16-.74-8.46-.74-8.46l-6.06-1.59Z"/>
      <path class="uuid-1284ef80-42a2-4ed5-804b-7d3c5245667e" d="M8.2,10.97c-.99-1.92-.73-1.26-.99-1.44-.71-.49-2.07-.34-2.66.91-.33.69.13,2.55.21,3.86l-.29,1.66.9.37c.9.37,1.48-.26,1.48-.26l-.03-1.61s.77-.14.98-.23c.39-.16,1.08-1.95.41-3.26"/>
      <path class="uuid-e87b1773-12b8-431f-81ea-86469e1a5aed" d="M1.61,25.78c.49.6,1.72,1.84,4.14,1.68,1.16-.08,2.02-.29,2.56-1.17,0-3.37,1.13-6.85.39-8.4-.74-1.55-.79-1.48-1.5-1.73-.75-.26-3.4-.2-3.4-.2,0,0-.95.38-1.03,2.76-.14,4.32-.95,4.99-1.17,7.06"/>
      <path class="uuid-673db988-686a-4999-baff-e98fa34d410a" d="M3.94,16.04s.83,1.03,1.93.73c1.1-.29,1.71-.53,1.71-.53,0,0-.18-.55-.88-.62-1.11-.11-2.54-.52-2.54-.52l-.21.94Z"/>
      <path class="uuid-758da799-6a24-44de-8eba-76a682ccde03" d="M5.05,9.04s1.47-1.07,2.68.23c1.21,1.3.76,1.77.42,2.15,0,.98-.85,1.37-1.82,2.18-1.07.89-1.57.7-1.57.7,0,0-3.07-3.79.3-5.26"/>
      <path class="uuid-1284ef80-42a2-4ed5-804b-7d3c5245667e" d="M7.73,12.4s-.56-.97-.81,0c-.22.9.56,1.2.56,1.2l.25-1.2Z"/>
      <path class="uuid-1284ef80-42a2-4ed5-804b-7d3c5245667e" d="M10.17,17.77l2.14.97s.32-2.55.34-3.32c.02-.77-.29-1.13-.36-1.4-.07-.27.02-.33.13-.26.14.1.39.51.48.26.16-.42.31-1.72,1.07-1.54.77.18.82.56.44,1.8-.12.37-.43.85-.47,1.19-.1.79.16,1.56.23,2.18.1.89-.01,2.54-.34,3.02-.33.49-.73.66-.86.6-.95-.44-3.38-1.38-3.38-1.38l.6-2.14Z"/>
      <path class="uuid-673db988-686a-4999-baff-e98fa34d410a" d="M7.84,16.35c-.58.05-1.2.77-1.01,2.08.13.91.76,1.48,1.91,1.87,1.14.4,1.65.37,1.65.37,0,0,.83-.38.87-1.69.03-1.18-.59-1.44-.59-1.44,0,0-2.17-1.26-2.83-1.2"/>
    </g>
  </g>
</svg>