<?xml version="1.0" encoding="UTF-8"?>
<svg id="Calque_2" xmlns="http://www.w3.org/2000/svg" viewBox="0 0 22.47 43.17">
  <defs>
    <style>
      .cls-1 {
        fill: #f08c8e;
      }

      .cls-2 {
        fill: #9fc5e9;
      }

      .cls-3 {
        fill: #f0a5a9;
      }

      .cls-4 {
        fill: #f08b8d;
      }

      .cls-5 {
        fill: #e88a56;
      }

      .cls-6 {
        fill: #6a374f;
      }

      .cls-7 {
        fill: #f3a4a5;
      }

      .cls-8 {
        fill: #6b3750;
      }

      .cls-9 {
        fill: #efb871;
      }

      .cls-10 {
        fill: #f3a5a8;
      }

      .cls-11 {
        fill: #e2e4f4;
      }

      .cls-12 {
        fill: #d71b5b;
      }

      .cls-13 {
        fill: #f3a1a5;
      }

      .cls-14 {
        fill: #7f8ec6;
      }
    </style>
  </defs>
  <g id="_Éléments_Mise_en_page" data-name="Éléments_Mise_en_page">
    <g>
      <path class="cls-14" d="M16.22,31.47c-.1-.1-.2-.19-.31-.29-.28-.24-.57-.47-.85-.7-.73-.88-1.72-2.09-2.38-2.91-1.17-1.44-2.98-2.35-2.98-2.35,0,0-.01-.02-.02-.03-.59.54-1.16,1.08-1.73,1.64.4.52.84,1,1.31,1.46l2.01,1.42c.68.54,1.37,1.08,2.16,1.61.41.27.83.52,1.23.79l.41.29c.1.07.19.15.28.23.13.11.26.24.38.36.04,0,.07-.02.11-.03.05-.02.11-.05.16-.07.02-.01.04-.02.05-.03.05-.05.1-.1.15-.14.04-.06.08-.12.11-.19.02-.03.06-.13.09-.19,0,0,0,0,0,0,.04-.12.08-.24.11-.36,0-.03.02-.06.02-.09-.1-.14-.22-.28-.35-.41"/>
      <path class="cls-11" d="M16.49,33.37c.07-.43.03-.82.11-1.31.06-.38-.03-.57-.38-.63,0,0,0,0-.01,0s0,0-.01,0c-.04,0-.06,0-.06,0-.03,0-.06,0-.08,0-.06,0-.12.01-.18.02,0,.14.02.27.04.41,0,0,0,.02.01.02-.13.2-.23.47-.29.76l-.35-.33c-.08-.08-.27-.04-.42.09-.14.12-.2.27-.14.36.01.02.03.05.04.07.28.47.4,1.05.35,1.69-.03.02-.06.04-.09.06,0,.21-.13.77.09.73.21-.04.67-.53.78-.66.39-.5.54-.9.6-1.28"/>
      <path class="cls-11" d="M14.81,22.17s.06-.05.06-.09c-.02-.97.3-2.32.85-2.92.16-.17.27-.24.36-.22.19.04.38.5.52.91.02.05.07.07.12.06.05-.02.08-.07.06-.12-.25-.7-.43-.98-.67-1.03-.21-.04-.4.13-.54.28-.61.66-.91,2.06-.9,3.05,0,.05.04.1.1.09.01,0,.02,0,.03,0"/>
      <polygon class="cls-12" points="17.2 31.56 22.47 25.06 18.76 17.83 14.14 23.32 17.2 31.56"/>
      <polygon class="cls-6" points="18.76 17.83 18.02 17.7 13.4 23.19 14.14 23.32 18.76 17.83"/>
      <polygon class="cls-1" points="13.4 23.19 15.49 31.42 17.2 31.65 14.14 23.32 13.4 23.19"/>
      <path class="cls-11" d="M15.95,22.37c.06-.03.08-.09.05-.13-.65-1.27-.76-2.4-.29-2.97.21-.25.49-.27.68-.25.5.05,1.05.47,1.35,1.04.03.05.09.06.13.04.05-.02.06-.08.04-.13-.34-.63-.92-1.08-1.5-1.14-.34-.04-.65.08-.85.32-.53.63-.43,1.82.26,3.18.02.04.07.06.12.05"/>
      <path class="cls-8" d="M11.11,4.78c-.07.13-.15.26-.23.39-.32.54-.66.93-1.27,1.16-.48.18-1.02.34-1.44.11-.15-.08-.28-.21-.39-.34-.49-.56-.46-.91-.46-1.64,0-.69-.49-.77-.12-1.48.33-.62,1.18-1.24,1.83-1.46.26-.09.54-.13.79-.02.25.1.44.39.36.65.11-.36,1,.24,1.1.37.28.37.28,1.1.16,1.52-.07.27-.19.51-.32.76"/>
      <path class="cls-14" d="M10.84,20.16c1.45-.2.09-.71.08-.73,0-.03.52-2.79-.41-2.12-.79.57-1.4.04-2.28-.35-.05-.02-.1-.04-.15-.06-.05.06-.1.12-.15.19-.82,1.2-.62,2.38-.67,3.74-.06,1.62-.05,3.25.31,4.84.13.57.31,1.15.7,1.58.15.17.3.29.43.38.53.32.98.04,1.51-.41.04-.04.14-.11.26-.2-.11-2.55.76-4.32.36-6.84"/>
      <path class="cls-2" d="M13.56,17.41c-.83-1.3-2.63.62-2.62.64l-.24-.28-.46,1.82c-.06.2-.11.41-.16.61l-2.09,8.25c-.03.1-.04.22-.03.34.06.36.2.69.47.96.02.02.05.04.07.07.13.12.29.23.48.32.13.06.26.11.39.15.02-.03.04-.07.06-.1.66-1,1.38-1.94,2.06-2.92.34-.49.68-1,1-1.51.1-.16.19-.32.28-.48,0,0,0-.01,0-.02.14-.27.27-.53.4-.81.27-.59.34-1.06.45-1.68.25-1.43.66-3.75.05-5.12-.04-.08-.08-.16-.12-.22"/>
      <path class="cls-2" d="M7.87,18.13s2.08,1.99,3.44,1.94c1.37-.05,2.49-1.27,2.49-1.27l-2.02-2.27-3.73.46-.17,1.15Z"/>
      <path class="cls-1" d="M8.63,9.67c-.91,2.22-.99,2.9-1.7,4.27-.3.58-.87,1.18-1.4.57-.24-.28-.06-.88.01-1.22.34-1.62.77-3.27,1.39-4.81.14-.36.3-.72.57-.99.42-.43,1.1-.38,1.4.15.29.5-.06,1.5-.27,2.02"/>
      <path class="cls-1" d="M6.89,14c-.27.54-.81,1.1-1.37.53-.25-.26-.11-.82-.05-1.13,0,0,1-.22,1.42.6"/>
      <path class="cls-9" d="M7.48,17.67c.65.71,1.54,1.13,2.49,1.18.22.01.39.02.46.02.07,0,.14,0,.22,0,.3-.05.6-.1.89-.17.3-.09.59-.21.86-.36.15-.08.29-.16.43-.26.09-.06.18-.13.26-.19.22-.17.42-.37.61-.58-.28-.72-.56-1.43-.84-2.15-.24-.62-.38-1.12-.38-1.66,0-.31.03-.63.12-.99.21-.91.53-1.75.7-2.62.08-.4.14-.85,0-1.24-.06-.15-.15-.3-.29-.42-.49-.43-1.05-.59-1.66-.76-.03,0-.06-.02-.09-.03-.08-.02-.17-.04-.25-.06-.65-.15-1.33-.22-2.02-.28-.05,0-.1,0-.16-.01-.06,0-.12,0-.19,0-.52,0-1.03.22-1.3.66-.13.22-.19.47-.23.73-.12.66-.21,1.36-.15,2.06.02.3.08.6.17.89.4,1.31.82,2.28.65,3.71-.1.84-.2,1.69-.3,2.56"/>
      <path class="cls-1" d="M8.73,10.68c0,.12.16.15.23.04.3-.5.61-1,.91-1.51.23-.38.46-.75.68-1.13.09-.15.34-.46.43-.71-.65-.15-1.33-.22-2.02-.28-.05,0-.1,0-.16-.01-.06,0-.12,0-.19,0-.03.3.04.68.05.96,0,.39.01.78.02,1.17,0,.49.02.99.03,1.48"/>
      <path class="cls-5" d="M9.9,13.14c.12.07.25.15.37.23.74.49.98.32,1.34.83.17.23.89,2.45,1.2,3.87.09-.06.18-.13.26-.2.22-.17.42-.36.61-.58-.28-.72-.56-1.43-.84-2.15-.24-.62-.38-1.12-.38-1.66,0-.31.03-.63.12-.99.21-.91.53-1.75.7-2.62.08-.4.14-.85,0-1.24-.61.5-.91,1.47-1.13,2.2-.19.63-.41,1.35-.82,1.82-.33.37-.77.59-1.42.48"/>
      <path class="cls-4" d="M.84,17.55s.03-.04.05-.05c.25-.26.48-.53.74-.79.89-.88,1.86-1.67,2.84-2.45.52-.41,1.53-1.38,2.05-.44.53.96-1.23,1.88-1.83,2.29-.21.14-.43.29-.64.43-.81.55-1.61,1.08-2.46,1.56-.12.07-.24.14-.38.15-.4.04-.59-.39-.37-.69"/>
      <path class="cls-4" d="M.33,17.83c-.16.24-.3.56-.33.85-.01.12,0,.26.08.36.03.04.06.07.11.08.07.01.13-.03.18-.08.22-.18.46-.51.71-.63.09-.04.18-.07.26-.13.13-.1.28-.31.39-.44.12-.15.15-.3.04-.48-.43-.73-1.14.03-1.43.48"/>
      <path class="cls-1" d="M10.99,7.37l-1.13-2.95-1.28.98.24,1.67.04.08v.1s0,.07,0,.11c0,.01,0,.02,0,.04v.14s.03-.01.03-.01c.06.14.16.26.3.35l.32.67,1.47-1.16Z"/>
      <path class="cls-3" d="M9.3,5.24c.02.25.28.32.56.17s.5-.48.48-.73c-.02-.25-.28-.32-.56-.17-.29.15-.5.48-.48.73"/>
      <path class="cls-13" d="M8.48,4.71c-.31.03-.59-.06-.83-.23-.12-.02-.24-.06-.35-.1,0,.06,0,.1,0,.11-.01,1.16.24,2.07.91,2.2.95.19,1.89-1.01,1.9-2.17,0-.01-.29-.31-.29-.36-.41.38-.84.5-1.34.55"/>
      <path class="cls-13" d="M8.72,3.7l.11,1.16-.45.04-.05-.15c.1-.04.28-1,.38-1.06"/>
      <path class="cls-8" d="M12.63.16c.96-.39,2.23-.05,2.72.77.46.77,1.18,2.3,2.22,2.57.36.09.77.05,1.09.22.3.16.44.48.48.78.13.94-.56,1.91-1.54,2.32-.33.14-.69.22-1.05.2-.82-.05-1.47-.64-1.83-1.28-.36-.64-.51-1.36-.81-2.03-.11-.25-.26-.5-.47-.69-.7-.62-1.59-.14-2.42-.26-.45-.06-1.26-.79-1.37-.79.59.02,1.12-.32,1.54-.69.42-.37.79-.8,1.31-1.06.04-.02.08-.04.13-.06"/>
      <path class="cls-2" d="M9.31,39.32c0,.11-.02.22-.03.32-.06.4-.17.79-.32,1.16.04.02.1.04.14.06,0,0,.01,0,.01,0,.09.03.19.04.28.07.21,0,.43.02.64.01.1,0,.22-.03.33-.03,0,0,0,0,.01,0,.18-.03.36-.08.53-.13,0-.06,0-.12-.02-.19l-.18-.71v-.05s-.02-.03-.02-.03c.63-2.33.98-4.78.8-7.2-.08-1.12-.09-2.59-.62-3.61-.27-.53-.35-.63-.94-.71-.24-.03-1.92.25-1.9.58.11,1.9.53,2.55.99,5.25.21,1.23.35,3.97.29,5.21"/>
      <path class="cls-11" d="M10.75,41.26c-.24.3-.57.52-.82.82-.27.33-.51.71-.9.91-.16.08-.5.19-.78.18-.15,0-.28-.05-.35-.16-.09-.13.12-.46.29-.68h0c.46-.85.95-1.72,1.09-2.69l.3-.11c.14-.05.27.07.25.21l-.13.83.97-.67.04-.02.03-.02c.07.13.22.34.25.45.08.35-.01.67-.24.95"/>
      <path class="cls-10" d="M15.58,18.61s0-.05-.01-.07c-.03-.36-.09-.71-.11-1.07-.07-1.25-.03-2.51.03-3.75.03-.66-.03-2.06,1.02-1.84,1.07.23.6,2.16.51,2.88-.03.26-.06.51-.1.77-.12.97-.25,1.92-.45,2.88-.03.13-.06.27-.14.38-.23.32-.68.19-.76-.18"/>
      <path class="cls-10" d="M12.84,10.81s-.04-.07-.06-.11c-.13-.25-.26-.5-.36-.76-.03-.07-.07-.2-.08-.21-.03-.1-.06-.21-.08-.31-.03-.14-.06-.28-.08-.42,0-.04-.02-.26-.02-.24,0-.25.02-.49.04-.74,0-.01,0-.03,0-.04.28-.04.55.13.79.28,1.47.96,2.56,2.22,3.84,3.4.22.19.34.49.27.8-.27,1.3-2.22-.14-2.72-.5-.38-.27-.99-.68-1.55-1.15"/>
      <path class="cls-7" d="M17.12,19.47c.15-.39-.16-1.08-.44-1.34-.18-.16-.43-.26-.66-.21-.35.08-.97.8-.8,1.16.05.12.27.15.36.26.13.15.19.48.27.67.09.21,1.19-.34,1.27-.53,0,0,0,0,0,0"/>
    </g>
  </g>
</svg>