<?xml version="1.0" encoding="UTF-8"?>
<svg xmlns="http://www.w3.org/2000/svg" xmlns:xlink="http://www.w3.org/1999/xlink" viewBox="0 0 28.85 58.11">
  <defs>
    <style>
      .uuid-fc01fce0-5e6d-40de-8dca-07cb1e048df6 {
        fill: #4bb0c1;
      }

      .uuid-1efd275a-efe3-426b-bb0a-c0afb204c7ea {
        fill: #b9bda8;
      }

      .uuid-d98cb9e4-7d49-46f6-922b-211f2c4e086d {
        fill: #db3236;
      }

      .uuid-10c02565-28f3-495b-b571-6a9151bf2299 {
        fill: #fff;
      }

      .uuid-70083155-245f-4343-87be-1ad313b7f4fe {
        fill: #f4c900;
      }

      .uuid-0005ac32-9a8a-4e84-b214-99ebdd0eab25 {
        fill: #e1e2e9;
      }

      .uuid-2bc7ee97-3d73-423e-bcfe-1277953f0b3e {
        fill: #5e6265;
      }

      .uuid-abcb5719-f09d-4150-b388-760b84ddfd9e {
        fill: #496164;
      }

      .uuid-16161880-c7b6-4d4b-827a-b7406923fe6d {
        fill: none;
      }

      .uuid-37203cd8-cb30-409c-96c9-7b802e65f8a4 {
        fill: #d9e4f5;
      }

      .uuid-c8f35160-0c58-469a-a5f0-f507587160de {
        fill: #e6e8e1;
      }

      .uuid-ca991832-d98a-4607-852a-f241e081bf95 {
        isolation: isolate;
      }

      .uuid-cf61307b-61a3-4c6d-98df-150869e4e71d {
        fill: #dac3b2;
      }

      .uuid-722d1a31-60e3-44f8-a715-2a561c686236 {
        fill: #7d7978;
      }

      .uuid-75383a07-0277-4ef8-a41e-9848dabb0759 {
        clip-path: url(#uuid-61e25624-fdd2-4a00-9576-d5e9e9c05f08);
      }

      .uuid-d6001b8d-a227-41a2-b9c7-8e7998c5aad9 {
        fill: #7e4b41;
      }

      .uuid-2bf06c04-2600-4b96-a06e-faac9549ec70 {
        fill: #e5ebf6;
      }

      .uuid-02533e23-ef6c-447d-aae3-c466125c750c {
        mix-blend-mode: multiply;
      }

      .uuid-1e22e792-39fb-4b3c-82a6-f1ab8eae84a4 {
        fill: #506165;
      }

      .uuid-9f4414ff-c558-43d9-b3de-6b9730bd2aa7 {
        fill: #404249;
      }

      .uuid-e5d0086a-ffc5-4f6b-89f1-12fee21a5c96 {
        fill: #f7f7f8;
      }

      .uuid-3d049f62-c337-4e7a-82d4-daa7229fd167 {
        fill: #723c32;
      }

      .uuid-b81d4269-6638-4339-8a53-ca32e39bf286 {
        fill: #484b4f;
      }

      .uuid-13237c95-10a3-40b5-b3c2-b1e81f2f8ef7 {
        clip-path: url(#uuid-d3dfd310-481a-4932-b5e4-f6b19ef1f6ff);
      }

      .uuid-0f41a05c-3af1-4418-b8c1-b806b3e3c349 {
        fill: #1e6975;
      }

      .uuid-456195de-00f4-49c6-a8e9-8e5f691f4078 {
        fill: #7ac3d0;
      }

      .uuid-841ec85b-5886-46f1-b390-8319c0cc3c9b {
        fill: #708082;
      }
    </style>
    <clipPath id="uuid-61e25624-fdd2-4a00-9576-d5e9e9c05f08">
      <rect class="uuid-16161880-c7b6-4d4b-827a-b7406923fe6d" x="12.76" y="24.55" width="2.97" height="19.3"/>
    </clipPath>
    <clipPath id="uuid-d3dfd310-481a-4932-b5e4-f6b19ef1f6ff">
      <rect class="uuid-16161880-c7b6-4d4b-827a-b7406923fe6d" x="12.76" y="24.55" width="2.97" height="19.3"/>
    </clipPath>
  </defs>
  <g class="uuid-ca991832-d98a-4607-852a-f241e081bf95">
    <g id="uuid-38052094-e2d5-4b82-a37f-1c441343449f" data-name="Calque_2">
      <g id="uuid-c6772a26-df6e-4c7c-8772-5ac37c358a93" data-name="Les_personnages">
        <g id="uuid-0bf2115d-7ae8-49b8-98c3-5c1fa7043784" data-name="Chara_x5F_Trot_x5F_BG">
          <path class="uuid-10c02565-28f3-495b-b571-6a9151bf2299" d="M19.43,9.36l-1.35.64c-1.14-.25-2.52-.12-3.62.39-1.56.74-1.96,2-.96,2.88.04.04.08.07.13.11,1.17.89,3.42.98,5.05.22.24-.11.46-.24.64-.38l-1.48,1.6c-1.98.4-4.16.09-5.42-.87-.07-.05-.13-.1-.19-.15-1.42-1.25-.85-3.04,1.36-4.08,1.79-.84,4.12-.95,5.84-.36"/>
          <polygon class="uuid-0f41a05c-3af1-4418-b8c1-b806b3e3c349" points="25.03 40.55 23.43 41.12 21.26 42.37 21.26 40.9 23.07 40.09 25.03 39.44 25.03 40.55"/>
          <path class="uuid-b81d4269-6638-4339-8a53-ca32e39bf286" d="M22.61,42.62c0,1.64,1.16,2.3,2.59,1.47,1.43-.82,2.58-2.82,2.58-4.46s-1.16-2.3-2.58-1.47c-1.43.82-2.59,2.82-2.59,4.46"/>
          <path class="uuid-b81d4269-6638-4339-8a53-ca32e39bf286" d="M23.68,43.23c0,1.64,1.16,2.3,2.59,1.47,1.43-.82,2.58-2.82,2.58-4.46s-1.16-2.3-2.58-1.47c-1.43.82-2.59,2.82-2.59,4.46"/>
          <path class="uuid-722d1a31-60e3-44f8-a715-2a561c686236" d="M28.73,39.41c-.19-.51-.28-.72-.5-.96-.07-.09-.16-.16-.24-.22-.01,0-.02-.02-.04-.03-.46-.38-1.36-.41-1.68-.4,0,0,0,0,0,0-.32.02-.68.13-1.06.35-1.43.83-2.59,2.82-2.59,4.46,0,.36.06.67.16.93,0,0,0,0,0,0,.19.52.73,1.23,1.38,1.46,0,0,0,0,0,0,.03.01.06.02.09.03.03,0,.07.02.1.02,0,0,.02,0,.03,0,.65.13,1.3-.09,1.4-.13.02,0,.09-.1.2-.26,1.51-.9,2.72-3.01,2.72-4.75,0-.03,0-.06,0-.09.06-.2.08-.35.05-.43"/>
          <path class="uuid-722d1a31-60e3-44f8-a715-2a561c686236" d="M23.68,43.23c0,1.64,1.16,2.3,2.59,1.47,1.43-.82,2.58-2.82,2.58-4.46s-1.16-2.3-2.58-1.47c-1.43.82-2.59,2.82-2.59,4.46"/>
          <path class="uuid-b81d4269-6638-4339-8a53-ca32e39bf286" d="M24.73,42.63c0,.98.69,1.37,1.54.88.85-.49,1.54-1.68,1.54-2.66s-.69-1.37-1.54-.88c-.85.49-1.54,1.68-1.54,2.66"/>
          <polygon class="uuid-0f41a05c-3af1-4418-b8c1-b806b3e3c349" points="26.59 41.67 25.64 42.7 23.47 43.95 23.47 42.48 25.28 41.67 26.59 40.56 26.59 41.67"/>
          <polygon class="uuid-0f41a05c-3af1-4418-b8c1-b806b3e3c349" points="3.85 51.71 7.42 53.77 24.84 42.48 21.27 40.42 3.85 50.48 3.85 51.71"/>
          <polygon class="uuid-0f41a05c-3af1-4418-b8c1-b806b3e3c349" points="3.26 49.81 2.6 54.8 3.32 54.48 4.04 49.45 3.26 49.81"/>
          <polygon class="uuid-456195de-00f4-49c6-a8e9-8e5f691f4078" points="3.51 49.95 2.85 54.94 3.57 54.62 4.28 49.59 3.51 49.95"/>
          <polygon class="uuid-fc01fce0-5e6d-40de-8dca-07cb1e048df6" points="3.85 50.48 7.42 52.54 24.84 42.48 21.27 40.42 3.85 50.48"/>
          <polygon class="uuid-0f41a05c-3af1-4418-b8c1-b806b3e3c349" points="7.42 53.77 24.84 43.72 24.84 42.48 7.42 52.54 7.42 53.77"/>
          <path class="uuid-b81d4269-6638-4339-8a53-ca32e39bf286" d="M0,55.61c0,1.64,1.16,2.3,2.59,1.47,1.43-.82,2.58-2.82,2.58-4.46s-1.16-2.3-2.58-1.47c-1.43.82-2.59,2.82-2.59,4.46"/>
          <path class="uuid-b81d4269-6638-4339-8a53-ca32e39bf286" d="M1.07,56.23c0,1.64,1.16,2.3,2.59,1.47,1.43-.82,2.58-2.82,2.58-4.46s-1.16-2.3-2.58-1.47c-1.43.82-2.59,2.82-2.59,4.46"/>
          <path class="uuid-722d1a31-60e3-44f8-a715-2a561c686236" d="M6.12,52.41c-.19-.51-.28-.72-.5-.96-.07-.09-.16-.16-.24-.22-.01,0-.02-.02-.04-.03-.46-.38-1.36-.41-1.68-.4,0,0,0,0,0,0-.32.02-.68.13-1.07.35C1.16,51.98,0,53.98,0,55.61c0,.36.06.67.16.93,0,0,0,0,0,0,.19.52.73,1.23,1.38,1.46,0,0,0,0,0,0,.03.01.06.02.09.03.03,0,.07.02.1.02,0,0,.02,0,.02,0,.65.13,1.3-.09,1.4-.13.02,0,.09-.1.2-.26,1.51-.9,2.72-3.01,2.72-4.75,0-.03,0-.06,0-.09.06-.2.08-.35.05-.43"/>
          <path class="uuid-722d1a31-60e3-44f8-a715-2a561c686236" d="M1.07,56.23c0,1.64,1.16,2.3,2.59,1.47,1.43-.82,2.58-2.82,2.58-4.46s-1.16-2.3-2.58-1.47c-1.43.82-2.59,2.82-2.59,4.46"/>
          <path class="uuid-b81d4269-6638-4339-8a53-ca32e39bf286" d="M2.12,55.63c0,.98.69,1.37,1.54.88.85-.49,1.54-1.68,1.54-2.66s-.69-1.37-1.54-.88c-.85.49-1.54,1.68-1.54,2.66"/>
          <polygon class="uuid-0f41a05c-3af1-4418-b8c1-b806b3e3c349" points="4.16 50.33 3.5 55.32 3.74 55.45 4.93 49.97 4.16 50.33"/>
          <path class="uuid-0f41a05c-3af1-4418-b8c1-b806b3e3c349" d="M4.86,33.93l1.82-.21-1.57,16.48c-.03.69-1.8.59-1.8,0l1.55-16.27Z"/>
          <path class="uuid-c8f35160-0c58-469a-a5f0-f507587160de" d="M6.72,33.94c.02-.55-1.13-.54-1.56-.34-.45.22-.39.56-.39.56,0,0,.05.41.87.41.91,0,1.07-.3,1.08-.64"/>
          <polygon class="uuid-c8f35160-0c58-469a-a5f0-f507587160de" points="4.77 34.1 4.79 33.73 6.74 33.53 6.72 33.94 6.15 34.3 4.77 34.1"/>
          <path class="uuid-1efd275a-efe3-426b-bb0a-c0afb204c7ea" d="M6.74,33.55c.02-.55-1.13-.54-1.56-.34-.45.22-.39.56-.39.56,0,0,.05.41.87.41.91,0,1.07-.3,1.08-.64"/>
          <path class="uuid-722d1a31-60e3-44f8-a715-2a561c686236" d="M5.4,33.67s.02.24.52.14c.23-.05.24-.22.24-.22l.52-5.16-.78.34-.49,4.9Z"/>
          <path class="uuid-9f4414ff-c558-43d9-b3de-6b9730bd2aa7" d="M15.23,45.96s.25.16.25.3.07.38,0,.51c-.07.13-.84.67-.98.7-.15.03-.39,0-.39,0,0,0-.53.5-.71.74-.19.24-.38.54-1.04.99-.66.46-.98.68-1.6.53s-.73-.34-.9-.48c-.17-.15.04-.75.16-.92.12-.17,5.21-2.38,5.21-2.38"/>
          <path class="uuid-0005ac32-9a8a-4e84-b214-99ebdd0eab25" d="M12.47,45.9s-.55.4-1.11.79c-.56.39-1.36,1.4-1.45,1.7-.09.3-.04.55.02.71.07.17.83.81,1.72.4.89-.4,1.4-1.06,1.62-1.37.22-.31.64-.75.97-.96.34-.21,1.14-.69,1.18-.97.04-.28-.17-1.19-.45-1.51-.28-.32-2.51,1.21-2.51,1.21"/>
          <path class="uuid-70083155-245f-4343-87be-1ad313b7f4fe" d="M12.91,43.61c.02.61-.06,1.49-.21,1.71-.15.22-.74,1.23-.73,1.32.01.09.97.43,1.99,0,1.02-.44,1.43-1.01,1.23-1.27-.2-.27-.27-1.18-.27-1.18l.06-1.75-2.07,1.17Z"/>
          <path class="uuid-37203cd8-cb30-409c-96c9-7b802e65f8a4" d="M15.7,37.38c.01.56-.31,5.94-.33,6.14-.01.1-.08.22-.26.34-.16.11-.42.22-.8.3-.79.17-1.67-.41-1.67-.41,0,0-.54-4.75-.74-6.34-.2-1.58-.41-2.66-.75-4.19-.34-1.53-.89-3.12-1.27-5.42-.38-2.3-.27-2.9-.19-4.7.08-1.8.15-1.9.57-3.21,0,0,3.67.93,4.22,1.49.35.36.51,2.7.58,4.35.04.93.05,1.64.05,1.64,0,0,.29,4.14.5,5.92.21,1.78.07,3.54.08,4.1"/>
          <path class="uuid-e5d0086a-ffc5-4f6b-89f1-12fee21a5c96" d="M14.17,44.1l-.27-.02c.07-.79.19-1.87.32-3.01.22-1.97.48-4.21.43-4.74-.04-.56-.26-2.75-.42-4.35-.09-.85-.16-1.55-.18-1.8-.07-.72.2-4.32.21-4.47l.27.02s-.28,3.73-.21,4.42c.02.24.09.95.18,1.79.16,1.6.38,3.79.42,4.35.04.56-.2,2.71-.43,4.79-.13,1.14-.25,2.22-.32,3.01"/>
          <path class="uuid-2bf06c04-2600-4b96-a06e-faac9549ec70" d="M12.74,26.55c-.41-.87-.85-1.78-1.63-2.34-.08-.06-.17-.12-.28-.12-.22-.01-.38.2-.46.4-.18.45-.04.71.03,1.16.09.56.15,1.12.22,1.68.15,1.12.3,2.24.44,3.36,0-.07-.02-.13-.03-.2-.16.81.38,1.57.61,2.36.12.4.16.81.27,1.21.12.4.32.79.68,1,.37.22.83.2,1.26.13.11-.02.23-.04.32-.11.17-.13.18-.38.17-.59-.02-.43-.08-.87-.14-1.3-.17-1.27-.35-2.53-.52-3.8-.05-.4-.06-.82-.2-1.21-.2-.56-.5-1.1-.75-1.63"/>
          <g class="uuid-02533e23-ef6c-447d-aae3-c466125c750c">
            <g class="uuid-75383a07-0277-4ef8-a41e-9848dabb0759">
              <g class="uuid-13237c95-10a3-40b5-b3c2-b1e81f2f8ef7">
                <path class="uuid-cf61307b-61a3-4c6d-98df-150869e4e71d" d="M15.7,37.38c.01.56-.31,5.94-.33,6.14-.01.1-.08.22-.26.34.04-2.23.05-3.59.09-5.82,0-.28,0-.56.01-.84.01-.66.02-1.31.03-1.97,0-.57.11-1.21-.03-1.76-.31-1.19-.57-2.4-.83-3.6-.09-.39-.17-.78-.33-1.14-.17-.4-.42-.76-.73-1.06-.16-.15-.33-.29-.43-.48-.07-.15-.09-.32-.1-.49-.04-.59-.06-1.31.25-1.84.28-.47.51-.33.83,0,.33.34.73.6,1.14.84.02.01.04.02.07.04.04.93.05,1.64.05,1.64,0,0,.29,4.14.5,5.92.21,1.78.07,3.54.08,4.1"/>
              </g>
            </g>
          </g>
          <path class="uuid-9f4414ff-c558-43d9-b3de-6b9730bd2aa7" d="M14.94,45.31c-.22.42-.29.52-.25.69.05.17.56.45,1.53.36.97-.09,1.72-.48,2.05-.82.34-.34.92-1.32.92-1.32l.36-.34s.37-.58.27-.95c-.1-.37-.27-.8-.27-.8l-4.61,3.17Z"/>
          <path class="uuid-0005ac32-9a8a-4e84-b214-99ebdd0eab25" d="M17.92,41.34c-.06.01-.73.83-.73.83,0,0-1.07,1.38-1.44,1.77-.36.39-.85,1.03-1.01,1.39-.16.36.07.58.07.58,0,0,.79.48,1.96.21,1.17-.27,1.54-.78,1.8-1.22.26-.44.55-.9.73-1.07.18-.17.38-.54.4-.87.02-.34.04-1.14-.27-1.45-.31-.31-1.52-.17-1.52-.17"/>
          <path class="uuid-70083155-245f-4343-87be-1ad313b7f4fe" d="M17.67,40.95c0,.06-.12,1.07-.32,1.36-.2.29-.75.94-.75,1.05s.55.65,1.22.51,1.11-.21,1.46-.74c.36-.53.44-.77.34-.98-.1-.21.2-1.94.2-1.94l-2.14.74Z"/>
          <path class="uuid-37203cd8-cb30-409c-96c9-7b802e65f8a4" d="M11.79,22.19c-.05,1.23.2,3.33.73,4.4.53,1.07,1.39,1.04,1.58,1.26.19.22.93,3.14,1.34,4.34.41,1.21,1.03,3.44,1.27,4.23.25.79.58,2.12.63,2.5.04.38.19,2.27.24,2.49.05.22,1.02.43,1.7.33.68-.09,1.06-.43,1.09-.73.03-.29.2-3.88-.03-5.24-.28-1.73-.48-2.94-.49-3.14-.02-.59.38-4.05.47-5.2.09-1.15-.53-4.02-.92-5.12-.39-1.09-1.97-2.96-2.08-3.14-.11-.18-5.53,2.99-5.53,2.99"/>
          <path class="uuid-e5d0086a-ffc5-4f6b-89f1-12fee21a5c96" d="M19.69,41.71h-.27s.05-1.24.11-2.37c.05-.93.08-2.06-.1-2.46-.19-.43-.37-1.45-.42-2.15-.02-.23-.01-.93,0-1.92.02-2.09.05-5.26-.13-6.87-.26-2.31-1.17-3.58-1.18-3.59l.22-.16c.04.05.96,1.33,1.23,3.72.18,1.63.15,4.81.13,6.91,0,.94-.02,1.68,0,1.89.05.69.23,1.68.4,2.07.16.36.2,1.11.12,2.58-.05,1.13-.11,2.35-.11,2.35"/>
          <path class="uuid-2bf06c04-2600-4b96-a06e-faac9549ec70" d="M15.83,25.26c-.22,0-.44,0-.65.07-.21.06-.41.19-.5.39-.08.18-.05.38-.02.58.05.36.11.73.16,1.09.07.49.15.98.3,1.45.13.4.32.78.46,1.17.19.53.3,1.08.4,1.63.15.74.29,1.49.44,2.23.11.55.27,1.19.78,1.44.2.1.43.12.66.12.42,0,.9-.1,1.1-.46.09-.16.11-.34.13-.52.33-3.01.34-6.06.04-9.08-.02-.25-.02-.71-.29-.83-.26-.12-.64.18-.87.27-.68.27-1.41.43-2.14.46"/>
          <path class="uuid-e5d0086a-ffc5-4f6b-89f1-12fee21a5c96" d="M16.32,25c-1.26,0-1.82-.94-1.85-.98l.23-.14s.52.85,1.62.85h.04c1.17-.02,2.14-.79,2.15-.8l.17.21s-1.06.83-2.32.86h-.05"/>
          <path class="uuid-b81d4269-6638-4339-8a53-ca32e39bf286" d="M1.38,26.18c0,.3.21.42.47.27.26-.15.47-.51.47-.81s-.21-.42-.47-.27c-.26.15-.47.51-.47.81"/>
          <path class="uuid-70083155-245f-4343-87be-1ad313b7f4fe" d="M4.11,25.7c-.09-.05-.2-.06-.31-.06-.04,0-.07.15-.11.17-.08.04-.04.26-.04.35,0,.19.11.39.04.57-.04.1-.13.17-.21.24-.25.18-.52.34-.73.57-.04.04-.07.08-.08.14,0,.05.02.12.08.12.03,0,.06,0,.08-.02.38-.18.76-.35,1.12-.57.07-.04.14-.08.19-.14.04-.04.08-.09.11-.14.02-.03.04-.06.06-.09.02-.06.03-.13.03-.19,0-.12.02-.24.02-.36,0-.14-.12-.49-.25-.56"/>
          <polygon class="uuid-b81d4269-6638-4339-8a53-ca32e39bf286" points="1.52 26.48 4.01 27.92 4.67 26.77 2.19 25.34 1.52 26.48"/>
          <path class="uuid-2bc7ee97-3d73-423e-bcfe-1277953f0b3e" d="M3.87,27.62c0,.3.21.42.47.27.26-.15.47-.51.47-.81s-.21-.42-.47-.27c-.26.15-.47.51-.47.81"/>
          <path class="uuid-b81d4269-6638-4339-8a53-ca32e39bf286" d="M4.05,27.6c0,.23.16.33.37.21.2-.12.37-.4.37-.64s-.16-.33-.37-.21c-.2.12-.37.4-.37.63"/>
          <polygon class="uuid-b81d4269-6638-4339-8a53-ca32e39bf286" points="4.15 27.83 5.69 28.72 6.2 27.82 4.67 26.94 4.15 27.83"/>
          <path class="uuid-2bc7ee97-3d73-423e-bcfe-1277953f0b3e" d="M5.58,28.48c0,.23.16.33.37.21.2-.12.37-.4.37-.64s-.16-.33-.37-.21c-.2.12-.37.4-.37.63"/>
          <path class="uuid-b81d4269-6638-4339-8a53-ca32e39bf286" d="M5.35,28.48c0,.3.21.42.47.27.26-.15.47-.51.47-.81s-.21-.42-.47-.27c-.26.15-.47.51-.47.81"/>
          <polygon class="uuid-b81d4269-6638-4339-8a53-ca32e39bf286" points="5.49 28.78 6.57 29.42 7.23 28.27 6.15 27.64 5.49 28.78"/>
          <path class="uuid-2bc7ee97-3d73-423e-bcfe-1277953f0b3e" d="M6.43,29.11c0,.3.21.42.47.27.26-.15.47-.51.47-.81s-.21-.42-.47-.27c-.26.15-.47.51-.47.81"/>
          <path class="uuid-b81d4269-6638-4339-8a53-ca32e39bf286" d="M6.66,29.13c0,.23.16.33.37.21.2-.12.37-.4.37-.64s-.16-.33-.37-.21c-.2.12-.37.4-.37.63"/>
          <rect class="uuid-b81d4269-6638-4339-8a53-ca32e39bf286" x="7.35" y="28.43" width="1.04" height="1.93" transform="translate(-21.53 21.53) rotate(-60.04)"/>
          <path class="uuid-2bc7ee97-3d73-423e-bcfe-1277953f0b3e" d="M8.33,30.09c0,.23.16.33.37.21.2-.12.37-.4.37-.64s-.16-.33-.37-.21c-.2.12-.37.4-.37.63"/>
          <path class="uuid-b81d4269-6638-4339-8a53-ca32e39bf286" d="M7.96,30c0,.3.21.42.47.27.26-.15.47-.51.47-.81s-.21-.42-.47-.27c-.26.15-.47.51-.47.81"/>
          <polygon class="uuid-b81d4269-6638-4339-8a53-ca32e39bf286" points="8.1 30.3 10.59 31.74 11.25 30.59 8.77 29.16 8.1 30.3"/>
          <path class="uuid-2bc7ee97-3d73-423e-bcfe-1277953f0b3e" d="M10.45,31.44c0,.3.21.42.47.27.26-.15.47-.51.47-.81s-.21-.42-.47-.27c-.26.15-.47.51-.47.81"/>
          <path class="uuid-70083155-245f-4343-87be-1ad313b7f4fe" d="M9.87,12.22c-.06-.21-.42-.35-.79-.43-.47-.1-.97-.13-.97-.13,0,0-.68,2.2-.92,2.69-.23.49-.86,2.17-1.11,2.43-.24.27-.72.96-1.02,1.85-.29.89-1.94,5.46-2.08,5.82-.13.36-.28.51-.28.51,0,0-.9.1-1.05.15-.16.06-.26.29-.26.29,0,0,0,1,.02,1.09.01.04.05.07.1.1.07.04.14.06.14.06,0,0,.02.05.04.09.03.06.06.12.09.14.02,0,.04.02.05.02.03,0,.05,0,.05,0,0,0,.03.11.11.18.02.02.05.04.08.05,0,0,0,0,0,0,.09.02.15.04.17.04.01,0,.02,0,.02,0,0,0,.09.13.18.17.01,0,.04,0,.08.01.21.01.75-.02.92-.12.01,0,.02-.01.03-.02.02-.02.04-.04.07-.07.09-.1.22-.28.33-.45-.05-.01-.1-.02-.14-.04-.2-.07-.43-.28-.24-.49,0,0,0,0,0,0,0-.01.15,0,.17,0,.15-.14.27-.25.47-.25,0,0,.01,0,.02,0,.04-.27.09-.58.12-.72.06-.22.58-1.27.78-1.67.21-.4,1.34-2.08,1.78-2.86.44-.77,1.03-1.58,1.24-2.24.2-.66.83-1.96.89-2.2.06-.23,1.04-3.57.91-4.05"/>
          <path class="uuid-70083155-245f-4343-87be-1ad313b7f4fe" d="M3.66,26.07c-.07.4-.14.8-.21,1.19-.17.09-.71.13-.92.12.25-.05.46-.27.59-.51.16-.28.27-.61.54-.8"/>
          <path class="uuid-70083155-245f-4343-87be-1ad313b7f4fe" d="M7.53,14.26c-.39,1.07-1.16,1.98-1.41,3.08-.03.15-.06.31,0,.45.03.1.09.18.16.25.16.17.37.29.6.3.23.02.47-.08.6-.27.09-.13.12-.28.16-.43.09-.42.19-.85.3-1.27.09-.38.18-.76.27-1.14.15-.63.3-1.25.5-1.87.13-.39.28-.77.38-1.17.05-.18.08-.37,0-.54-.09-.21-.34-.31-.55-.23-.2.07-.2.22-.26.39-.18.52-.37,1.01-.5,1.54-.08.3-.15.6-.26.9"/>
          <path class="uuid-70083155-245f-4343-87be-1ad313b7f4fe" d="M8.97,16.26c-.06.23-.69,1.53-.89,2.2-.21.66-.8,1.47-1.24,2.24-.44.78-1.57,2.46-1.78,2.86-.2.4-.72,1.45-.78,1.67-.04.15-.09.53-.14.82-.04-.17-.08-.33-.06-.5.02-.17.1-.32.18-.48.23-.46.42-.93.58-1.42.14-.43.37-.79.57-1.2.16-.35.33-.7.55-1.01.16-.22.35-.42.51-.65.15-.22.28-.45.4-.69.12-.23.24-.47.36-.7.16-.3.32-.61.45-.93.81-2.01.38-4.34,1.13-6.37.04-.12.15-.23.28-.31.38.08.73.22.79.43.13.48-.85,3.81-.91,4.05"/>
          <path class="uuid-b81d4269-6638-4339-8a53-ca32e39bf286" d="M4.32,26.62l-1.07-.53c-.67.35-.52,1.04-.52,1.04l.97.62c.16-.4.37-.78.62-1.13"/>
          <path class="uuid-70083155-245f-4343-87be-1ad313b7f4fe" d="M1.62,25.7c.03.35.05.71.08,1.06-.02-.05-.04-.09-.04-.09,0,0-.07-.03-.14-.06-.02-.31-.03-.62.09-.9"/>
          <path class="uuid-70083155-245f-4343-87be-1ad313b7f4fe" d="M2.1,25.63c0,.49-.04.99-.1,1.48-.08-.07-.11-.18-.11-.18,0,0-.02,0-.05,0,.08-.43.17-.85.26-1.28"/>
          <path class="uuid-70083155-245f-4343-87be-1ad313b7f4fe" d="M2.58,26.04c-.15.37-.26.76-.33,1.15-.03,0-.08-.01-.17-.04.17-.37.33-.74.5-1.12"/>
          <path class="uuid-70083155-245f-4343-87be-1ad313b7f4fe" d="M7.05,19.53c.18-.32.22-.63.34-.96.11-.31.23-.55.21-.9,0-.19-.05-.38-.15-.53-.1-.15-.24-.26-.41-.31-.29-.1-.62,0-.87.19-.52.41-.69,1.08-.92,1.67-.28.74-.56,1.47-.84,2.21,0-.03.02-.06.03-.08-.07.24-.21.47-.3.7-.08.23-.15.47-.26.7-.22.46-.3,1.03-.43,1.53.02-.02-.01-.04-.03-.03-.02.01-.02.04-.03.06-.03.24-.1.48-.22.7-.01.03-.03.06-.03.09,0,.04.05.07.08.09.17.1.36.16.56.18.12.01.25,0,.33-.08.05-.05.09-.12.11-.18.23-.54.43-1.1.76-1.6.35-.54.62-1.14.93-1.71.33-.61.77-1.12,1.11-1.71"/>
          <path class="uuid-3d049f62-c337-4e7a-82d4-daa7229fd167" d="M16.73,5.15c-.13,1.01-.3,2.26.49,3.07.41.42,1.01.63,1.59.55-.39.8-.84,1.65-1.64,2.05-.75.37-1.64.24-2.45.09-.73-.14-1.48-.32-2.1-.74-.94-.63-1.46-1.77-1.53-2.9-.14-2.3,1.06-3.99,2.66-5.47.22-.2.45-.41.72-.53.85-.35,1.84.32,2.17,1.17.33.85.2,1.81.08,2.72"/>
          <path class="uuid-841ec85b-5886-46f1-b390-8319c0cc3c9b" d="M9.59,9.55c-.22.03-.8.56-.98.79-.18.23-.74,1.5-.79,1.74-.06.25,1.22,1.23,1.39,1.65.17.42,1.17-3.24,1.17-3.24l-.79-.95Z"/>
          <path class="uuid-abcb5719-f09d-4150-b388-760b84ddfd9e" d="M18.26,20.44c-.2.57-1.09,1.51-2.53,2.15-1.44.64-3.11.49-3.95.28-.83-.21-1.61-1.37-1.71-1.53s-.06-.9-.06-.9c0,0-.79-2.95-1.15-3.35-.36-.4-.58-1.16-.57-1.53.02-.37.45-5.29.89-5.69.45-.4.55-.45,1.16-.6.61-.15,3.01-.58,3.36-.57.36.01,1.52-.05,2.43.45.91.49,2.64,2.33,2.66,2.63.02.3-1.18,3.7-1.3,4.84-.12,1.15.75,3.81.75,3.81"/>
          <path class="uuid-70083155-245f-4343-87be-1ad313b7f4fe" d="M15.88,9.67c-.16.33-.56.93-1.19,1.65-.62.72-1.23.9-2.14.67-.92-.23-1.16-.76-1.02-1.57.06-.33.07-.63.01-.9-.08-.38-.27-.71-.61-1l.17-.72.53-2.26s2.51-1.67,2.82-1.51c.3.16.11,1.85.03,2.77-.08.92.02,1.08.19,1.47.16.39.84.63,1.09.77.25.15.29.3.12.62"/>
          <path class="uuid-70083155-245f-4343-87be-1ad313b7f4fe" d="M13.43,8.4c-.22.25-.51.44-.84.51-.22.05-.49.08-.57.28-.07.17.04.36.14.51.17.25.35.51.45.8.1.29.11.62-.03.89-.08-.23-.18-.46-.31-.67-.09-.13-.18-.27-.24-.41-.09-.2-.12-.44-.25-.61-.06-.08-.15-.14-.23-.2-.07-.38-.27-.71-.61-1l.17-.72c.07-.06.14-.11.22-.15.59-.33,1.3-.37,1.96-.35.71.02.49.73.16,1.11"/>
          <path class="uuid-1e22e792-39fb-4b3c-82a6-f1ab8eae84a4" d="M10.72,16.1c.54-.84.88-2.38.25-3.27-.27-.38-.57-.76-.89-1.09-.2-.2-.45-.41-.73-.37-.2.03-.37.18-.46.36-.09.18-.13.38-.15.58-.09.73-.08,1.46-.07,2.19,0,.39,0,.79.12,1.16.11.38.33.73.67.92.14.07.29.12.44.11.35-.02.63-.3.82-.59"/>
          <path class="uuid-1e22e792-39fb-4b3c-82a6-f1ab8eae84a4" d="M12.82,13.13s.04,0,.02-.02c-.02-.02-.04,0-.07,0-.48.28-1.07.4-1.48.79-.39.38-.52.94-.64,1.47-.03.13-.06.27-.04.4.02.13.09.25.17.36.32.43.81.71,1.33.85.52.14,1.06.15,1.6.14.21,0,.42-.01.62-.07.29-.08.54-.26.76-.45.72-.62,1.25-1.45,1.52-2.36.16-.54.22-1.11.1-1.66-.04-.19-.11-.38-.25-.52-.35-.35-1.1-.3-1.53-.1-.73.34-1.42.77-2.13,1.15"/>
          <path class="uuid-70083155-245f-4343-87be-1ad313b7f4fe" d="M14.25,5.04c-.21,1.06-.31,2.63-.57,2.88-.25.25-2.35,1.21-2.76,1.23-.41.02-.61-.02-.74-.2-.13-.18-.76-1.72-.81-2.5-.05-.78-.06-1.49.06-2.11.12-.62.18-.95.43-1.27.25-.32,1.5-.95,2.28-.61.78.34,2.11,2.58,2.11,2.58"/>
          <path class="uuid-d6001b8d-a227-41a2-b9c7-8e7998c5aad9" d="M13.71,6.32s.03-.51-.08-.63c-.11-.12-.67-.95-.77-1.35-.1-.4-.52-.83-.68-.89-.16-.05-.72-.21-.85-.37-.4.1-.94.19-1.07.18-.13,0-.47.04-.47.04l-.3.72s0-.43.04-.67c.05-.24.16-.86,1.42-1.48,1.26-.62,1.99-.69,2.78-.26,1.06.19,1.59,1.2,1.62,1.89.04.69-.01,1.94-.31,2.49-.3.54-.41.56-.41.56,0,0,.35-1.33-.05-1.3-.39.03-.55.67-.55.67l-.16.03-.18.37Z"/>
          <path class="uuid-b81d4269-6638-4339-8a53-ca32e39bf286" d="M14.76,4.28c0,.39-.26,2-.49,2.38s-.7.76-.7.76c0,0-.34.8-.13.68.21-.12.63-.59.97-1.1s.53-1.54.63-2.25c.1-.71.05-.96.05-.96l-.34.5Z"/>
          <path class="uuid-b81d4269-6638-4339-8a53-ca32e39bf286" d="M13.19,4.67c.21.46-.09,3.38-.38,3.76.27-.15.58-.25.64-.32.05-.07.15-.86.28-2.03.03-1.74-.11-2.14-.11-2.14l-.43.73Z"/>
          <path class="uuid-70083155-245f-4343-87be-1ad313b7f4fe" d="M14.3,5.3c.08-.07.18-.12.28-.09.05.02.09.06.12.1.09.12.13.28.13.43,0,.15-.05.3-.11.45-.06.14-.12.28-.23.39-.1.11-.24.19-.39.2-.09,0-.19-.03-.22-.11-.01-.03-.01-.05-.01-.08,0-.15.11-.27.16-.41.05-.15.03-.29.04-.44,0-.17.11-.32.24-.43"/>
          <path class="uuid-70083155-245f-4343-87be-1ad313b7f4fe" d="M18.14,17.54c-.36,1.13-.84,2.17-1.01,2.6-.17.42-1.04,2.29-1.4,2.85-.36.56-.29.62-.59,1.29-.3.67-.94,1.9-1.49,2.71-.55.81-1.95,2.68-1.95,2.68,0,0-.23.53-.31.6-.08.07-.69.24-.69.24l-.3.41s-.07.06-.16.12c-.12.08-.28.18-.39.19-.13.02-.31-.02-.4-.05-.04-.01-.06-.02-.06-.02,0,0-.02,0-.05,0-.02,0-.05,0-.09,0-.05,0-.14-.04-.22-.07-.06-.02-.11-.04-.12-.05,0,0,0,0,0,0,0,0-.27.05-.4.02-.04,0-.08-.03-.12-.06-.1-.07-.2-.16-.2-.16l-.26-.13-.08-.04s-.15-.25-.05-.49c.1-.24.47-1.25.56-1.29.1-.04.73-.01,1.29-.03.56-.02.69-.2.73-.23.04-.03.12-.09.99-1.77.87-1.68,1.86-4.12,2.12-4.62.26-.5.22-.53.3-.96.08-.43,1.26-3.3,1.62-4.69.36-1.39.75-1.53.83-1.59l1.06-.26h.81s.61,0,.61,0c0,0-.25,1.64-.61,2.77"/>
          <path class="uuid-70083155-245f-4343-87be-1ad313b7f4fe" d="M16.9,15.8c-.13.04-.25.09-.36.17-.11.09-.18.21-.24.33-.91,1.66-1.73,4.08-2.2,5.91-.01.06-.03.12,0,.17.03.07.12.09.19.09.38.02.75-.16,1.04-.41.29-.25.51-.57.76-.86.25-.3.52-.59.73-.93.41-.69.5-1.53.79-2.28.11-.29.58-1.14.68-1.43.05-.14.13-.33.12-.48-.06-.6-1.16-.38-1.5-.27"/>
          <path class="uuid-70083155-245f-4343-87be-1ad313b7f4fe" d="M13.01,23.8c-.39,1.08-.82,2.14-1.39,3.14-.09.15-.17.3-.26.44-.19.31-.41.63-.43.99,0,.04,0,.09.02.12.03.05.08.08.13.09.3.1.62-.09.83-.32.26-.28.44-.63.63-.96.45-.78,1-1.5,1.48-2.26.47-.75.88-1.54,1.29-2.33.1-.2.2-.39.27-.6.06-.19.1-.4.01-.58-.11-.23-.51-.43-.76-.4-.32.04-.63.44-.82.68-.47.58-.74,1.29-.99,1.98"/>
          <path class="uuid-70083155-245f-4343-87be-1ad313b7f4fe" d="M8.41,30.14c-.02.17-.03.34-.05.51,0-.01,0-.03,0-.04-.02.11-.01.26.02.4-.1-.07-.2-.16-.2-.16l-.26-.13c.05-.02.12-.03.18-.01.03-.17.06-.33.11-.5.03-.11.04-.23.08-.35.02-.07.1-.25.15-.14.04.08-.03.33-.04.42"/>
          <path class="uuid-70083155-245f-4343-87be-1ad313b7f4fe" d="M9.02,30.12c-.02.33-.01.65.01.98-.06-.02-.1-.04-.11-.05,0-.25.01-.5.03-.75,0-.07.02-.14.07-.18"/>
          <path class="uuid-70083155-245f-4343-87be-1ad313b7f4fe" d="M9.51,30.32c-.02.26-.05.51-.06.77,0,.03,0,.06,0,.09-.04-.01-.06-.02-.06-.02,0,0-.02,0-.05,0,.03-.29.08-.57.17-.85"/>
          <path class="uuid-70083155-245f-4343-87be-1ad313b7f4fe" d="M18.14,17.54c-.36,1.13-.84,2.17-1.01,2.6-.17.42-1.04,2.29-1.4,2.85-.36.56-.29.62-.59,1.29-.3.67-.94,1.9-1.49,2.71-.55.81-1.95,2.68-1.95,2.68,0,0-.23.53-.31.6-.08.07-.69.24-.69.24l-.3.41s-.07.06-.16.12c-.01-.01-.02-.03-.03-.04-.05-.08-.04-.18,0-.27.04-.08.11-.15.18-.22.26-.22.58-.36.91-.4.03,0,.06,0,.08-.02.03-.02.04-.04.06-.07.14-.27.25-.55.42-.81.17-.26.34-.55.55-.78.17-.18.3-.33.42-.56.34-.63.8-1.14,1.17-1.75.44-.73.69-1.54,1.1-2.28.34-.62.66-1.24.96-1.88.19-.39.36-.8.57-1.18.11-.2.23-.38.36-.57.11-.17.17-.37.25-.55.37-.88,1.01-2.36,1.25-3.28.08-.32.16-.67.02-.96-.09-.18-.25-.33-.33-.52-.02-.04-.03-.09-.03-.14h.61s-.25,1.64-.61,2.77"/>
          <path class="uuid-841ec85b-5886-46f1-b390-8319c0cc3c9b" d="M17.73,11.63c-.78.27-1.13.4-1.61,1.54-.23.54-.73,2.97-.73,2.97,0,0,2.21-.2,2.55-.19.34,0,1.01.27,1.01.27,0,0,.25-3.13.17-3.82-.07-.7-.57-1.05-1.39-.77"/>
          <polygon class="uuid-0f41a05c-3af1-4418-b8c1-b806b3e3c349" points="4.4 50.46 3.74 55.45 4.46 55.13 5.18 50.1 4.4 50.46"/>
          <path class="uuid-d98cb9e4-7d49-46f6-922b-211f2c4e086d" d="M14.92,4.45c-1.55,1.19-3.36,1.35-4.76.91-1.4-.45-1.85-1.33-.3-2.52,1.55-1.19,4.51-2.23,5.9-1.79,1.4.45.7,2.21-.85,3.4"/>
          <path class="uuid-d98cb9e4-7d49-46f6-922b-211f2c4e086d" d="M14.85,3.98c-1.55,1.19-3.36,1.35-4.76.91-1.4-.45-1.85-1.33-.3-2.52,1.55-1.19,4.51-2.23,5.9-1.79,1.4.45.7,2.21-.85,3.4"/>
          <path class="uuid-d98cb9e4-7d49-46f6-922b-211f2c4e086d" d="M14.61,3.9c-1.47,1.13-3.18,1.28-4.51.86-1.32-.42-1.75-1.26-.28-2.39,1.47-1.13,4.27-2.12,5.59-1.69,1.32.42.66,2.1-.8,3.22"/>
          <path class="uuid-d98cb9e4-7d49-46f6-922b-211f2c4e086d" d="M15.09,3.49c-1.16,1.28-6.17.27-6.17.27,0,0-.07-1.78,1.05-2.65C12.13-.58,14.19.06,15.43.45c1.25.4,1.19,1.34-.34,3.03"/>
          <path class="uuid-b81d4269-6638-4339-8a53-ca32e39bf286" d="M14.99,1.79c-.38-.13-1.17.19-1.63,1.44-.46,1.24.99-.1,1.44-.47.45-.37.45-.88.19-.97"/>
          <path class="uuid-b81d4269-6638-4339-8a53-ca32e39bf286" d="M13.65.37c-.97-.34-3.61,1.11-2.97,1.39.72.15.83.02,1.32-.25.61-.34,1.09-.78,1.78-.86s-.13-.28-.13-.28"/>
        </g>
      </g>
    </g>
  </g>
</svg>