<?xml version="1.0" encoding="UTF-8"?>
<svg xmlns="http://www.w3.org/2000/svg" xmlns:xlink="http://www.w3.org/1999/xlink" viewBox="0 0 23.04 48.56">
  <defs>
    <style>
      .cls-1 {
        fill: #e78c63;
      }

      .cls-2 {
        fill: #9fc5e9;
      }

      .cls-3 {
        fill: #f3a4a6;
      }

      .cls-4 {
        fill: #f08b8d;
      }

      .cls-5 {
        fill: none;
      }

      .cls-6 {
        fill: #656da4;
      }

      .cls-7 {
        fill: #6a374f;
      }

      .cls-8 {
        isolation: isolate;
      }

      .cls-9 {
        fill: #ea777e;
      }

      .cls-10 {
        fill: #401e2e;
      }

      .cls-11 {
        fill: #f3a5a6;
      }

      .cls-12 {
        fill: #efb871;
      }

      .cls-13 {
        fill: #f3a5a8;
      }

      .cls-14 {
        fill: #eeb971;
      }

      .cls-15 {
        fill: #e2e4f4;
      }

      .cls-16 {
        fill: #7f8ec6;
      }

      .cls-17 {
        fill: #7990c8;
      }
    </style>
    <clipPath id="clippath">
      <rect class="cls-5" x="1.69" y="34.94" width="1.09" height="1.44"/>
    </clipPath>
  </defs>
  <g class="cls-8">
    <g id="Calque_2">
      <g id="_Éléments_Mise_en_page" data-name="Éléments_Mise_en_page">
        <g>
          <path class="cls-10" d="M14.79,46.18c-.05-.16-.08-.33-.11-.5-.12-.72-.72-2.91.69-2.7.59.09.69-.12.98.37.47.8.21,1.93.74,2.8.45.73,1.61,1.41,1.46,2.37-.17.09.02-.04-.17.01-.63.17-3.04-1.24-3.48-2.1-.04-.08-.08-.17-.11-.26"/>
          <path class="cls-10" d="M6.53,38.15l-1.01,2.44c0,.43.27.81.67.95l3.34,1.18c.15.05.31.02.42-.09.17-.16.18-.43.01-.59l-2.08-1.92,1.36-2.12-2.73.15Z"/>
          <path class="cls-6" d="M16.06,20.74l-.1,5.16c0,1.08.19,2.42-.12,3.45,0,0-.53,1-1.47,2.23-.02.02-.03.04-.05.06-.82,1.06-1.8,2.34-2.64,3.45-.71.94-1.31,1.76-1.62,2.22-.37.56-.75,1.12-1.21,1.6-.2.21-.42.4-.69.49-.03,0-.05.02-.09.02-.04,0-.08,0-.12,0-.28,0-.7-.07-1.07-.22-.17-.07-.33-.14-.45-.24-.24-.18-.35-.41-.19-.69,0,0,2.65-4.39,4.23-7.01.67-1.11,1.15-1.9,1.15-1.9l.51-5.89.05-.6.02-.24h-.03c.12-.86.19-1.75.26-2.58.06-.68.12-1.35.15-2.03l1.38-.47,2.2-1.05-.08,4.23Z"/>
          <path class="cls-16" d="M7.89,21.96c.23-.07.51-.05.75-.02l2.61.29c.24.02.49.06.67.22.17.15.23.4.29.62,1.2,5.11,2.01,8.06,3.21,13.17.42,1.78.94,5.61,1.13,7.43.05.47.36,1.1.05,1.45-.43.5-1.04.29-1.58.16-.72-.18-.84-1.38-1.01-2.01-1.7-6.43-3.71-12.79-6.01-19.03-.16-.74-.07-1.51-.11-2.27"/>
          <path class="cls-11" d="M22.92,10.26c-.26-.13-.45-.41-.45-.71,0-.05,0-.12-.05-.15-.08-.04-.15.07-.16.15-.05.28-.03.57.05.85.04.14.12.29.26.32.13.04.28-.05.34-.17.06-.12.05-.27.02-.41v.11Z"/>
          <path class="cls-1" d="M22.28,11.91c-.32.25-.72.55-1.16.84-.98.67-2.44,1.95-3.66,1.58-.23-.07-.44-.22-.61-.41-.62-.66-.96-1.89-1.26-2.65-.43-1.08-2.57-5.06-1.16-5.91,1.56-.94,2.44,2.18,2.77,3.01.36.91.61,1.91.95,2.82,0,0,0,0,0,0,.07.19.14.38.18.57.01.04.02.08.03.12l1.46-.54,2.78-1.02c.27.54.14,1.23-.31,1.57"/>
          <path class="cls-17" d="M16.14,16.51l-.08,4.23c-.18.28-.59.83-1.21,1.36-1.24,1.06-1.34.73-2.55,1.29l-.19.09-.06.03-4.2-.12v-2.6l1.25-1.59,3.46-1.17,1.38-.47,2.2-1.05Z"/>
          <path class="cls-11" d="M22.28,11.91c-.32.25-.72.55-1.16.84-.98.67-2.44,1.95-3.66,1.58-.23-.07-.44-.22-.61-.41.16-.84.68-1.52,1.36-2.06.04-.03.08-.06.11-.09.01.04.02.08.03.12l1.46-.54,2.78-1.02c.27.54.14,1.23-.31,1.57"/>
          <path class="cls-16" d="M22.19,11.56l.68-3.24s-.17-.11-.21-.08l-1.76.95s-.06.05-.06.09l-.58,3.15c-.02.11.1.2.2.14l.11-.07,1.53-.9s.06-.03.1-.06"/>
          <path class="cls-10" d="M20.43,12.56l1.6-.94s.15-.07.16-.11l.68-3.2-1.81,1.03s-.06.05-.07.09l-.58,3.12Z"/>
          <path class="cls-3" d="M22.96,10.51c-.15-.04-.29-.1-.43-.16l-.39.19c-.2.18-.53.28-1,.49-.15.06-.15.29-.01.4l.58.46c.87.5,1.5-.23,1.28-1.24-.01-.04-.02-.09-.03-.13"/>
          <path class="cls-14" d="M16.25,6.71v13.41c0,.65-.32,1.26-.85,1.63-1.08.74-3.06,1.87-5.28,1.96-.22,0-.43.01-.62,0-2.66-.04-2.4-1.15-2.4-1.15v-13.05c0-.81.32-1.58.87-2.14.14-.14.3-.27.47-.39.67-.45,1.64-.88,3.01-1.05,0,0,1.65-1.14,3.18-.82,1.53.31,1.61,1.61,1.61,1.61"/>
          <path class="cls-1" d="M9.51,23.72c-2.66-.04-2.4-1.15-2.4-1.15v-13.05c0-.81.32-1.58.87-2.14.89,1.99.77,4.55.96,6.43l.3,4.64c.18,1.76.36,3.52.26,5.29"/>
          <path class="cls-9" d="M13.75,6.58c0,.62-.63,1.12-1.41,1.12s-1.41-.5-1.41-1.12.63-1.12,1.41-1.12,1.41.5,1.41,1.12"/>
          <polygon class="cls-9" points="11.15 5.98 11.8 3.44 13.42 3.7 13.6 6.76 11.15 5.98"/>
          <path class="cls-7" d="M11.25,1.35c.08,0,.16.02.23.06-.13-.42.25-.85.68-.95.38-.08,1.71.45,1.95.13.07-.09.04-.22.07-.34.07-.25.42-.33.63-.19.22.14.3.42.28.68,0,.09-.03.19-.01.28.02.1.07.18.12.27.09.17.14.38.05.55-.17.34-.91.44-1.23.69-.39.3-.8.6-1.24.82-.42.21-1.03.19-1.36.41-.44-.4-.7-.99-.71-1.59,0-.23.03-.47.17-.64.09-.11.24-.19.38-.19"/>
          <path class="cls-4" d="M12.48,2.42c.73.05,1.49-.15,2.02-.63.36,2.42.14,3.23-.58,3.63-.71.39-2.07-1.24-2.07-1.24l.06-.51c.47-.17.58-.69.56-1.24"/>
          <path class="cls-4" d="M12.18,4.11c-.16.21-.51.21-.79,0-.28-.21-.38-.55-.23-.76.16-.21.51-.21.79,0,.28.21.38.55.23.76"/>
          <path class="cls-13" d="M6.3,15.81l-.9,6.25c-.05.32-.31.57-.64.59-.39.03-.73-.28-.74-.67l-.06-6.39c0-.57.35-.95.92-.95h.4c.61,0,1.09.55,1.01,1.16"/>
          <path class="cls-12" d="M3.99,14.78c0-.13.04-.26.09-.39.71-1.63,2.24-5.03,3.42-6.78.32-.48.9-.69,1.37-.48.35.16.9.34.92,1.19.02,1.34-.86,2.81-1.87,4.76-.14.27-1.37,2.3-1.57,2.48l-.21,1.77c-.44.11-.89.09-1.33-.14-.34-.17-.63-.43-.88-.73v-1.63s.06-.05.06-.05Z"/>
          <path class="cls-15" d="M7.38,27.26s-.1,0-.12-.06c-.47-1.32-1.5-2.84-2.41-3.09-.26-.07-.42-.05-.51.07-.19.24-.16,1.07-.12,1.76,0,.08-.04.18-.1.2-.06.03-.12-.02-.12-.11-.08-1.21-.02-1.77.21-2.07.21-.27.5-.23.73-.17,1,.27,2.05,1.86,2.53,3.22.03.07,0,.17-.06.23-.01.01-.03.02-.04.02"/>
          <path class="cls-6" d="M0,34.02c-.01.25.11.48.32.62l5.75,3.41s.04.02.06.04c.02.01.04.02.06.03.02,0,.04.02.05.02.02,0,.04.01.06.02,0,0,0,0,0,0,.02,0,.04.01.06.01,0,0,0,0,0,0,.02,0,.04,0,.06.01h0s.04,0,.06,0,.04,0,.07,0c.01,0,.02,0,.03,0,.18,0,.37-.05.53-.15l2.45-1.38c.21-.13.33-.37.31-.62l-.93-7.88v-.06c-.02-.17-.12-.33-.27-.42l-4.96-2.88-.66-.37c-.13-.07-.3-.04-.39.08l-.65.83s-.06.04-.09.03l-1-.21c-.07-.02-.14.04-.14.11v.13S0,34.02,0,34.02Z"/>
          <path class="cls-17" d="M6.47,28.64l.1,9.56c.2,0,.39-.04.56-.15l2.45-1.38c.21-.13.33-.37.31-.62l-.93-7.88-.04-.17c0-.06-.09-.08-.11-.02l-.67,1.3c-.07.14-.24.19-.38.11l-1.29-.75Z"/>
          <path class="cls-2" d="M0,34.02c-.01.25.11.48.32.62l5.75,3.41s.04.02.06.04c.02.01.04.02.06.03.02,0,.04.02.05.02.02,0,.04.01.06.02,0,0,0,0,0,0,.02,0,.04.01.06.01,0,0,0,0,0,0,.02,0,.04,0,.06.01h0s.04,0,.06,0,.04,0,.07,0c.01,0,.02,0,.03,0l-.1-9.53-5.47-3.38c-.1-.06-.24,0-.24.13L0,34.02Z"/>
          <path class="cls-15" d="M5.32,28.65c-.08.03-.12-.02-.11-.11.28-2.24.22-4.38-.5-4.57-.32-.08-.63.18-.84.42-.54.6-.99,1.68-1.13,2.7-.01.08-.07.16-.13.18-.06.02-.1-.03-.09-.12.15-1.13.65-2.3,1.26-2.98.37-.41.74-.59,1.05-.51.81.21.9,2.4.6,4.8-.01.08-.06.15-.11.18"/>
          <path class="cls-13" d="M5.78,24.26c-.14-.14-.24-1.76-.39-2.1-.65-1.48-2.07.55-1.94,1.45.14.92,1.95,1.24,1.95,1.28,0,0-.04-.23-.11-.41-.05-.15-.2-.45-.2-.45.02-.08.08-.3.2-.29,0,0,.16.17.23.23.1.09.17.2.25.29"/>
        </g>
      </g>
    </g>
  </g>
</svg>