<?xml version="1.0" encoding="UTF-8"?>
<svg xmlns="http://www.w3.org/2000/svg" xmlns:xlink="http://www.w3.org/1999/xlink" viewBox="0 0 23.24 51.81">
  <defs>
    <style>
      .uuid-498e15de-e474-4f90-a0a6-054a75803af4 {
        fill: #f4c900;
      }

      .uuid-390380e2-9520-431d-9644-d8900c5a855e {
        mix-blend-mode: multiply;
        opacity: .71;
      }

      .uuid-f19d457f-42e2-4b97-8bc2-bd24a07a0bc5 {
        fill: #2b3086;
      }

      .uuid-743d58d1-e06a-4650-8bce-acc8cb253a94 {
        fill: none;
      }

      .uuid-211f2b09-8860-4c51-b2eb-98a1f7812842 {
        fill: #4c5da6;
      }

      .uuid-6490d015-9600-427c-aa33-717d420d8bc6 {
        isolation: isolate;
      }

      .uuid-e691c537-b943-4d0d-8525-a2d0f41c5853 {
        clip-path: url(#uuid-f7965c59-efef-4ee5-80b6-6d18b209fcfb);
      }

      .uuid-225ac7d9-8b92-417f-8c4f-6794c330d308 {
        fill: #e84f0e;
      }

      .uuid-5270be12-9883-4030-992a-7c60789402b3 {
        fill: #466cb2;
      }

      .uuid-a118786e-1515-4d29-bc90-5dc426efb049 {
        fill: #ef7f55;
      }

      .uuid-63967e00-f4f9-4db2-9caa-8e34f6f30f8d {
        clip-path: url(#uuid-b9a227d8-158c-4769-95d8-6bbf034266c1);
      }

      .uuid-f1120d4a-35f1-4bee-b3a1-f43dd5fbd30f {
        fill: #e9edf6;
      }
    </style>
    <clipPath id="uuid-f7965c59-efef-4ee5-80b6-6d18b209fcfb">
      <rect class="uuid-743d58d1-e06a-4650-8bce-acc8cb253a94" x="9.14" y="6.16" width="2.49" height="3.43"/>
    </clipPath>
    <clipPath id="uuid-b9a227d8-158c-4769-95d8-6bbf034266c1">
      <rect class="uuid-743d58d1-e06a-4650-8bce-acc8cb253a94" x="9.14" y="6.16" width="2.49" height="3.43"/>
    </clipPath>
  </defs>
  <g class="uuid-6490d015-9600-427c-aa33-717d420d8bc6">
    <g id="uuid-bc28df9e-271d-433d-aaf6-acf810f19220" data-name="Calque_2">
      <g id="uuid-3e64ac91-24f6-41f2-9bac-d2372544a61e" data-name="Les_personnages">
        <g id="uuid-0e5538df-ef6d-4cfb-aaa2-875956eeb81e" data-name="Chara_x5F_Ecouteur_x5F_BD">
          <path class="uuid-f19d457f-42e2-4b97-8bc2-bd24a07a0bc5" d="M17.33,49.29c-.32.08-.52.41-.56.74-.04.33.05.65.14.97.08.28.18.58.43.72.16.09.36.09.54.09.35,0,.7,0,1.04-.08.39-.08.76-.23,1.15-.28.25-.03.51-.02.76-.03.71-.03,1.42-.25,2.02-.63.14-.08.27-.18.33-.33.1-.24-.04-.53-.26-.68-.22-.15-.49-.2-.75-.24-.79-.12-1.57-.24-2.36-.36-.77-.12-1.57-.24-2.32-.04-.24.06-.52.26-.43.49l.25-.34Z"/>
          <path class="uuid-498e15de-e474-4f90-a0a6-054a75803af4" d="M12.47,9.64c.77-.16,1.52.34,1.68,1.11l2.03,7.79c.25.63,4.37,9.53,4.45,9.73,0,.02.01.04.02.06.22.27.36.62.38.99.14.64-.18,1.3-.78,1.58-.02.01-.05.02-.08.03-.21.08-.44.11-.65.09-.05,0-.1,0-.15,0-.92,0-1.66-.74-1.66-1.66,0-.21.04-.41.11-.6-.27-.52-2.61-5-2.99-5.94-.68-1.69-1.26-3.16-1.35-3.4-.03-.07-.05-.14-.06-.22l-2.06-7.91c-.16-.77.34-1.52,1.11-1.68"/>
          <path class="uuid-5270be12-9883-4030-992a-7c60789402b3" d="M12.14,8.34h0c.32-.06.64-.06.95.04.68.23,1.16.76,1.3,1.43l2.1,8.08c.12.29.76,1.7,1.52,3.35.24.52.21,1.14-.1,1.62-.27.42-.65.77-1.09,1.01,0,0-.01,0-.02,0-.86.46-1.93.07-2.34-.81-.08-.16-.13-.3-.17-.4-.38-.96-1.29-3.22-1.41-3.55-.03-.09-.06-.19-.08-.28l-2.14-8.22v-.02c-.21-1.03.45-2.03,1.48-2.25"/>
          <path class="uuid-f1120d4a-35f1-4bee-b3a1-f43dd5fbd30f" d="M17.17,48.67c-.32.08-.52.41-.56.74-.04.33.05.65.14.97.08.28.18.58.43.72.16.09.36.09.55.09.35,0,.7-.01,1.04-.08.39-.08.76-.23,1.15-.28.25-.03.51-.02.76-.03.71-.03,1.42-.25,2.02-.63.14-.08.27-.18.33-.33.1-.24-.04-.53-.26-.68-.22-.15-.49-.2-.75-.24-.78-.12-1.57-.24-2.35-.36-.77-.12-1.57-.24-2.32-.04-.24.06-.52.26-.43.49l.25-.34Z"/>
          <path class="uuid-498e15de-e474-4f90-a0a6-054a75803af4" d="M18.2,49.67l-.07.02c-.46.12-.94-.15-1.06-.62l-.37-1.42c-.12-.46.16-.94.62-1.06l.07-.02c.46-.12.94.15,1.06.62l.37,1.42c.12.46-.15.94-.62,1.06"/>
          <path class="uuid-f19d457f-42e2-4b97-8bc2-bd24a07a0bc5" d="M3.25,48.42c.14.25.28.5.41.75.14.25.27.51.37.78.15.4.42,1.18.08,1.54-.52.55-1.37.08-1.79-.31-.63-.57-1.21-1.2-1.75-1.86-.23-.29-.46-.59-.53-.95-.22-1.1.43-2.65,1.78-2.29.49.13.7.48.82.93.13.5.36.96.61,1.41"/>
          <path class="uuid-f1120d4a-35f1-4bee-b3a1-f43dd5fbd30f" d="M3.25,47.98c.14.25.28.5.41.75.14.25.27.51.37.78.15.4.42,1.18.08,1.54-.52.55-1.37.08-1.79-.31-.63-.57-1.21-1.2-1.75-1.86-.23-.29-.46-.59-.53-.95-.22-1.1.43-2.65,1.78-2.29.49.13.7.48.82.93.13.5.36.96.61,1.41"/>
          <path class="uuid-498e15de-e474-4f90-a0a6-054a75803af4" d="M1.06,47.53l-.06-.03c-.43-.21-.61-.73-.4-1.16l.64-1.32c.21-.43.73-.61,1.16-.4l.06.03c.43.21.61.73.4,1.16l-.64,1.32c-.21.43-.73.61-1.16.4"/>
          <path class="uuid-f19d457f-42e2-4b97-8bc2-bd24a07a0bc5" d="M4.61,38.26L.31,45.95c0,1.85,2.31.93,2.93.09l4.81-4.98c.97-1.3,1.47-2.89,1.45-4.51l-.1-5.94c0-.19.11-.36.29-.43.49-.2,1-.41,1.35-.53.23-.08.48.03.58.25l3.51,7.24c.37.75.59,1.56.67,2.4l.85,7.74c-.03.64.5,1.16,1.14,1.11l.53-.04c.5-.04.9-.41.97-.91l1.28-6.68c-.06-2.44-.6-4.85-1.58-7.08l-4.32-9.86-3.85-3.75-4.56,1.58-1.82,4.36.66,9.74c.06.87-.1,1.73-.47,2.52"/>
          <path class="uuid-5270be12-9883-4030-992a-7c60789402b3" d="M14.66,11.06v12.75l-3.18,1.95c-1.32.81-2.85,1.15-4.37,1-.53-.06-1.06-.17-1.57-.35l-1.12-.4.41-14.14c.02-.59.26-1.14.66-1.57.15-.17.32-.31.52-.43l1-.63.28-.18c.76-.53,2.22-1.08,3.54-1.24.26-.03.51-.05.75-.05.53,0,1,.08,1.34.28,1.06.62,1.72,1.76,1.72,2.99"/>
          <path class="uuid-5270be12-9883-4030-992a-7c60789402b3" d="M7.11,26.76c-.53-.06-1.06-.17-1.57-.35l-1.12-.4.42-14.14c.02-.59.26-1.14.65-1.57.22.02.44.06.66.11.06.02.13.04.18.07.31.09.6.21.81.43.5.52.38,1.36.13,2.04-.24.68-.57,1.39-.38,2.09.14.49.52.9.62,1.41.21,1.07-.92,3.74-.81,4.83.06.62.51,1.12.8,1.67.6,1.2.36,2.67-.38,3.81"/>
          <path class="uuid-5270be12-9883-4030-992a-7c60789402b3" d="M5.65,9.1c0-.18.03-.37.09-.54.37-1.05,1.53-1.61,2.64-1.78.87-.14,1.79-.11,2.62.21.66.25,1.61.85,1.84,1.58.25.8-.35,2.01-.72,2.72-.22.42-.55.87-1.02.9-.24.02-.47-.09-.69-.18-1.35-.61-2.69-1.26-4-1.95-.22-.11-.44-.23-.58-.43-.11-.15-.16-.33-.16-.51"/>
          <path class="uuid-211f2b09-8860-4c51-b2eb-98a1f7812842" d="M8.04,9.44c0,.63.87,1.14,1.94,1.14s1.94-.51,1.94-1.14-.87-1.14-1.94-1.14-1.94.51-1.94,1.14"/>
          <path class="uuid-498e15de-e474-4f90-a0a6-054a75803af4" d="M9,6.01v3.09c0,.66.53,1.19,1.19,1.19h.24c.66,0,1.19-.53,1.19-1.19v-3.09h-2.62Z"/>
          <g class="uuid-390380e2-9520-431d-9644-d8900c5a855e">
            <g class="uuid-e691c537-b943-4d0d-8525-a2d0f41c5853">
              <g class="uuid-63967e00-f4f9-4db2-9caa-8e34f6f30f8d">
                <path class="uuid-a118786e-1515-4d29-bc90-5dc426efb049" d="M11.52,9.59l-.85-1.23-.16-.23-1.14-1.64-.23-.34h.2s1.02.07,1.02.07c.43.44.89.87,1.26,1.34l-.1,2.02Z"/>
              </g>
            </g>
          </g>
          <path class="uuid-498e15de-e474-4f90-a0a6-054a75803af4" d="M8.35,5.36c.01.15.19.28.38.4.06.04.13.08.18.13,0,0,.01,0,.02.01.05.03.09.07.12.1.05.05.08.1.09.15.04.2.11.39.18.57.25.59.68,1.08,1.19,1.4.11.07.23.13.35.18.24.11.5.18.76.21.1.01.2.02.31.01.64-.01,1.28-.29,1.83-.93.3-.33.46-.74.54-1.18.05-.25.08-.52.09-.78,0-.3,0-.6-.01-.9-.02-.47-.04-.94-.05-1.4,0-.19-.01-.37-.02-.56.02-.08.02-.17,0-.26-.05-.24-.23-.45-.45-.56-.33-.17-.73-.17-1.1-.13-.76.08-1.53.26-2.19.64-.66.38-1.22.98-1.44,1.71-.1.34-.78.82-.77,1.17"/>
          <path class="uuid-225ac7d9-8b92-417f-8c4f-6794c330d308" d="M14.14,3.1c.01-.12.03-.25.03-.37.06-1.06-.66-1.99-1.69-2.27,0,0,0,0-.01,0-.53-.15-1.04-.41-1.59-.45-.39-.03-.78.06-1.15.18-.6.18-1.09.49-1.46.9-.4.46-.64,1.04-.69,1.75-.05.67-.03,4.82,1.39,4.33.18-.06.31-.23.35-.42.05-.23.11-.49-.02-.64-.14-.17-.46-.19-.62-.4-.15-.2-.21-.48-.11-.71.1-.23.38-.38.61-.29.34.12.47.63.82.65.15.01.3-.08.38-.22.26-.44.06-1.27.6-1.55.36-.19,1.19-.02,1.58-.01.52,0,1.06.01,1.55-.15,0-.11,0-.22.02-.33"/>
          <path class="uuid-498e15de-e474-4f90-a0a6-054a75803af4" d="M5.96,31.05c-.6,0-1.15-.39-1.33-.98l-1.91-6.24c-.39-1.26-.41-2.59-.08-3.86l1.98-7.63c.19-.74.95-1.19,1.7-1,.75.19,1.19.95,1,1.7l-1.98,7.64c-.2.77-.18,1.58.05,2.35l1.91,6.24c.23.74-.19,1.51-.92,1.74-.14.04-.27.06-.41.06"/>
          <path class="uuid-5270be12-9883-4030-992a-7c60789402b3" d="M3.51,25.52c.62.04,1.24-.05,1.84-.24.66-.22,1.01-.94.81-1.6l-.26-.86c-.21-.7-.23-1.44-.05-2.14l2.03-7.81c.13-.49.09-1.02-.15-1.46-.26-.49-.7-.84-1.23-.97-1.04-.27-2.11.36-2.38,1.4l-2.04,7.87c-.36,1.4-.33,2.88.09,4.26l.2.65c.16.51.61.88,1.15.92"/>
          <polygon class="uuid-f19d457f-42e2-4b97-8bc2-bd24a07a0bc5" points="7.61 26.73 4.91 30.5 6.95 34.43 7.86 30.62 7.61 26.73"/>
          <path class="uuid-f1120d4a-35f1-4bee-b3a1-f43dd5fbd30f" d="M8.08,28.49c.11,0,.21-.03.3-.1.15-.12.31-.25.43-.41.18-.24.25-.54.29-.77.25-1.36-.09-2.72-.41-4.03-.18-.72-.36-1.46-.45-2.19-.2-1.69.23-3.35.65-4.95.46-1.77.93-3.59.6-5.5-.03-.17-.06-.35-.09-.52-.26-1.39-.52-2.84-.08-4.19l-.2-.06c-.45,1.4-.18,2.87.08,4.29.03.17.06.35.09.52.33,1.86-.14,3.66-.59,5.4-.42,1.62-.86,3.3-.65,5.03.09.75.27,1.49.45,2.22.32,1.29.65,2.64.41,3.95-.04.21-.1.48-.26.69-.1.14-.25.26-.39.37-.19.15-.59-.05-.98-.25-.45-.22-.91-.46-1.21-.22l.13.17c.19-.15.59.05.98.25.32.16.64.32.91.32"/>
          <path class="uuid-f1120d4a-35f1-4bee-b3a1-f43dd5fbd30f" d="M8.91,5.72c0,.22.18.4.4.4s.4-.18.4-.4-.18-.4-.4-.4-.4.18-.4.4"/>
          <path class="uuid-f1120d4a-35f1-4bee-b3a1-f43dd5fbd30f" d="M8.8,5.72c0-.28.23-.5.5-.5s.5.23.5.5-.23.5-.5.5-.5-.23-.5-.5M9.01,5.72c0,.16.13.29.29.29s.29-.13.29-.29-.13-.29-.29-.29-.29.13-.29.29"/>
        </g>
      </g>
    </g>
  </g>
</svg>