<?xml version="1.0" encoding="UTF-8"?>
<svg id="Calque_2" xmlns="http://www.w3.org/2000/svg" viewBox="0 0 16.2 46.54">
  <defs>
    <style>
      .cls-1 {
        fill: #383432;
      }

      .cls-2 {
        fill: #db3236;
      }

      .cls-3 {
        fill: #d28940;
      }

      .cls-4 {
        fill: #009283;
      }

      .cls-5 {
        fill: #eeb492;
      }
    </style>
  </defs>
  <g id="_Éléments_Mise_en_page" data-name="Éléments_Mise_en_page">
    <g>
      <path class="cls-1" d="M13.85,43.65s-.44.91-1.39,1.16c-.36.09-1.11.11-1.39.5-.28.39.56.55.56.55,0,0,1.59.08,2.14-.04.49-.11,2.4-1.29,2.4-1.29,0,0,.17-.55-.44-1.33l-1.88.44Z"/>
      <path class="cls-5" d="M12.33,8.31l-.96,6.92-.05,3.35s2.48-.79,2.28-2.04c-.82-5.19-1.27-8.23-1.27-8.23"/>
      <path class="cls-1" d="M2.79,44.51s-1.49-.29-1.66-.3c-.14-.01-1.53.06-1.02.93.1.18.43.38.8.56,0,0,2.41.8,2.64.82.23.02,1.17.13,1.37-.57l-.16-1.04-1.97-.41Z"/>
      <path class="cls-4" d="M12.09,25.33c.28-1.59.15-3.22-.38-4.74l-.22-.63-5.49,2.02,4.02,13.15,3.83,8.53s1.11.74,1.89-.44l-3.1-8.64-.54-9.24Z"/>
      <path class="cls-4" d="M5.39,21.37l-3.22,11.05c-.15.43-.22.88-.21,1.33l.91,10.79c.39,1.33,1.79.98,1.97.87.18-.11.05-11.07-.08-11.62-.13-.55,4-6.88,4-6.88l3.25-1.1-4.49-3.11-2.14-1.34Z"/>
      <path class="cls-2" d="M12.77,11.02c-.08-.4.22-2.81-1.44-3.32,0,0-1.91.18-3.94.77-1.33.39-1.61,1.94-1.94,2.38-.77,1.03-1.05,1.55-.94,1.99.24.97,1.22,1.94,1.22,1.94l-.23,3.89-.26,3.48s1.54.88,4.45.24,2.39-.58,2.39-.58l-.58-2.87s1.35-7.52,1.28-7.93"/>
      <path class="cls-5" d="M5.68,10.25c-.39.62-.58,7.68-.58,7.68,0,0-2.37,5.27-2.73,6.2h0s-.64,1.45-.6,1.56c.04.11.31,1.08.34,1.19.04.11.43.38.7.42.27.04.88.05.88.05,0,0,.04-.13,0-.24l.19-.08s.42-.1.05-.36l.09-.12s-.04-.25-.26-.28l.02-.87s.09-.64-.05-.9l3.6-5.71s.69-4.8.89-6.4c.22-1.77-.89-4.82-2.55-2.13"/>
      <path class="cls-5" d="M7.73,4.86l.61,3.22c-.01.87,2.48.54,2.49-.33l-.18-2.85-2.93-.04Z"/>
      <path class="cls-5" d="M6.66,5.21c-.02,1.35.91,1.95,2.18,1.96,0,0,2.37-.7,2.39-2.03l.3-2.45-4.83-.88-.04,3.39Z"/>
      <path class="cls-3" d="M7.84.17c-1.06.45-2.73,1.49-1.15,2.62,0,0,.65.17.64,1.2s1.29,8.93,2.09,9.57c.58.47,2.83-.17,2.83-.17,0,0,.91-4.93-.61-11.75C11.22-.21,8.58-.14,7.84.17"/>
      <path class="cls-5" d="M7.18,4.04v1.12c.45.22.84-.41.78-.99-.09-.79-.78-.13-.78-.13"/>
    </g>
  </g>
</svg>