<?xml version="1.0" encoding="UTF-8"?>
<svg xmlns="http://www.w3.org/2000/svg" xmlns:xlink="http://www.w3.org/1999/xlink" viewBox="0 0 35.13 63.51">
  <defs>
    <style>
      .cls-1 {
        fill: #353b3c;
      }

      .cls-2 {
        clip-path: url(#clippath-34);
      }

      .cls-3 {
        clip-path: url(#clippath-38);
      }

      .cls-4 {
        clip-path: url(#clippath-21);
      }

      .cls-5 {
        clip-path: url(#clippath-6);
      }

      .cls-6 {
        clip-path: url(#clippath-7);
      }

      .cls-7 {
        clip-path: url(#clippath-17);
      }

      .cls-8 {
        clip-path: url(#clippath-31);
      }

      .cls-9 {
        fill: #d98e66;
      }

      .cls-10 {
        clip-path: url(#clippath-15);
      }

      .cls-11 {
        clip-path: url(#clippath-33);
      }

      .cls-12 {
        fill: url(#Dégradé_sans_nom_221-2);
      }

      .cls-13 {
        clip-path: url(#clippath-18);
      }

      .cls-14 {
        fill: #639b30;
      }

      .cls-15 {
        clip-path: url(#clippath-4);
      }

      .cls-16 {
        clip-path: url(#clippath-22);
      }

      .cls-17 {
        fill: #9dabb6;
      }

      .cls-18 {
        clip-path: url(#clippath-23);
      }

      .cls-19 {
        fill: #91bada;
      }

      .cls-20 {
        fill: #7d7d7d;
      }

      .cls-21 {
        fill: url(#Dégradé_sans_nom_226-2);
      }

      .cls-22 {
        fill: url(#Dégradé_sans_nom_229-5);
      }

      .cls-23 {
        clip-path: url(#clippath-9);
      }

      .cls-24 {
        clip-path: url(#clippath-10);
      }

      .cls-25 {
        fill: url(#Dégradé_sans_nom_221-4);
      }

      .cls-26 {
        fill: #5d6972;
      }

      .cls-27 {
        clip-path: url(#clippath-25);
      }

      .cls-28 {
        fill: #424749;
      }

      .cls-29 {
        fill: #8f9ea9;
      }

      .cls-30 {
        clip-path: url(#clippath-27);
      }

      .cls-31 {
        fill: #5e3719;
      }

      .cls-32 {
        fill: #302c82;
      }

      .cls-33 {
        fill: #a1c640;
      }

      .cls-34 {
        opacity: .1;
      }

      .cls-34, .cls-35 {
        mix-blend-mode: multiply;
      }

      .cls-36 {
        clip-path: url(#clippath-11);
      }

      .cls-37 {
        fill: none;
      }

      .cls-38 {
        fill: url(#Dégradé_sans_nom_229-3);
      }

      .cls-35 {
        opacity: .2;
      }

      .cls-39 {
        clip-path: url(#clippath-36);
      }

      .cls-40 {
        fill: #d2dce3;
      }

      .cls-41 {
        fill: #292e2e;
      }

      .cls-42 {
        clip-path: url(#clippath-35);
      }

      .cls-43 {
        clip-path: url(#clippath-28);
      }

      .cls-44 {
        clip-path: url(#clippath-1);
      }

      .cls-45 {
        fill: #31393c;
      }

      .cls-46 {
        fill: #acd2f0;
      }

      .cls-47 {
        fill: url(#Dégradé_sans_nom_221);
      }

      .cls-48 {
        isolation: isolate;
      }

      .cls-49 {
        fill: #465054;
      }

      .cls-50 {
        clip-path: url(#clippath-5);
      }

      .cls-51 {
        fill: #4b9734;
      }

      .cls-52 {
        clip-path: url(#clippath-20);
      }

      .cls-53 {
        clip-path: url(#clippath-8);
      }

      .cls-54 {
        fill: #b71370;
      }

      .cls-55 {
        fill: #18233f;
      }

      .cls-56 {
        fill: url(#Dégradé_sans_nom_221-3);
      }

      .cls-57 {
        clip-path: url(#clippath-3);
      }

      .cls-58 {
        clip-path: url(#clippath-26);
      }

      .cls-59 {
        fill: #5a6163;
      }

      .cls-60 {
        fill: #7ab829;
      }

      .cls-61 {
        clip-path: url(#clippath-12);
      }

      .cls-62 {
        clip-path: url(#clippath-14);
      }

      .cls-63 {
        fill: #f0ac82;
      }

      .cls-64 {
        clip-path: url(#clippath-30);
      }

      .cls-65 {
        clip-path: url(#clippath-19);
      }

      .cls-66 {
        fill: #95194f;
      }

      .cls-67 {
        fill: #475255;
      }

      .cls-68 {
        fill: #3f8b34;
      }

      .cls-69 {
        fill: url(#Dégradé_sans_nom_229);
      }

      .cls-70 {
        clip-path: url(#clippath-32);
      }

      .cls-71 {
        fill: url(#Dégradé_sans_nom_229-2);
      }

      .cls-72 {
        fill: url(#Dégradé_sans_nom_221-5);
      }

      .cls-73 {
        fill: #d61116;
      }

      .cls-74 {
        fill: url(#Dégradé_sans_nom_215);
      }

      .cls-75 {
        clip-path: url(#clippath-39);
      }

      .cls-76 {
        clip-path: url(#clippath-16);
      }

      .cls-77 {
        clip-path: url(#clippath-2);
      }

      .cls-78 {
        fill: url(#Dégradé_sans_nom_225);
      }

      .cls-79 {
        clip-path: url(#clippath-29);
      }

      .cls-80 {
        fill: #74848f;
      }

      .cls-81 {
        clip-path: url(#clippath-37);
      }

      .cls-82 {
        fill: #b8c6cf;
      }

      .cls-83 {
        fill: #e6ebf0;
      }

      .cls-84 {
        clip-path: url(#clippath-13);
      }

      .cls-85 {
        fill: #297431;
      }

      .cls-86 {
        fill: #5f6b6f;
      }

      .cls-87 {
        clip-path: url(#clippath-24);
      }

      .cls-88 {
        fill: url(#Dégradé_sans_nom_219);
      }

      .cls-89 {
        clip-path: url(#clippath);
      }

      .cls-90 {
        fill: url(#Dégradé_sans_nom_229-4);
      }

      .cls-91 {
        fill: url(#Dégradé_sans_nom_226);
      }
    </style>
    <clipPath id="clippath">
      <path class="cls-37" d="M26.98,35.15c-.17.06-1.3.86-1.02,1.74.28.88,2.02.38,2.12.35.22-.05.37-.26.37-.58,0-.53-.39-1.17-.87-1.44-.14-.08-.27-.11-.39-.11-.08,0-.15.02-.22.05"/>
    </clipPath>
    <clipPath id="clippath-1">
      <rect class="cls-37" x="25.2" y="34.59" width="3.71" height="3.67" transform="translate(-14.19 17.53) rotate(-28.78)"/>
    </clipPath>
    <linearGradient id="Dégradé_sans_nom_215" data-name="Dégradé sans nom 215" x1="1734.72" y1="1101.55" x2="1735.72" y2="1101.55" gradientTransform="translate(3317.51 5219.18) rotate(-90) scale(2.99 -2.99)" gradientUnits="userSpaceOnUse">
      <stop offset="0" stop-color="#353b3d"/>
      <stop offset=".56" stop-color="#515e63"/>
      <stop offset="1" stop-color="#65767d"/>
    </linearGradient>
    <clipPath id="clippath-2">
      <path class="cls-37" d="M27.54,42.96c-1.23.68-2.23,2.34-2.23,3.7s1,1.92,2.23,1.23c1.23-.68,2.23-2.34,2.23-3.7,0-.97-.5-1.52-1.23-1.52-.3,0-.64.09-1,.29"/>
    </clipPath>
    <clipPath id="clippath-3">
      <rect class="cls-37" x="24.34" y="42.04" width="6.4" height="7.17" transform="translate(-15.52 14.23) rotate(-22.79)"/>
    </clipPath>
    <linearGradient id="Dégradé_sans_nom_221" data-name="Dégradé sans nom 221" x1="1526.87" y1="975.51" x2="1527.87" y2="975.51" gradientTransform="translate(4979.94 7798.91) rotate(-90) scale(5.08 -5.08)" gradientUnits="userSpaceOnUse">
      <stop offset="0" stop-color="#353b3d"/>
      <stop offset="1" stop-color="#465054"/>
    </linearGradient>
    <clipPath id="clippath-4">
      <path class="cls-37" d="M27.54,43.36c-1.03.57-1.87,1.96-1.87,3.1s.84,1.61,1.87,1.03c1.03-.57,1.87-1.96,1.87-3.1,0-.81-.42-1.28-1.04-1.28-.25,0-.54.08-.84.24"/>
    </clipPath>
    <clipPath id="clippath-5">
      <rect class="cls-37" x="25.27" y="42.83" width="4.54" height="5.53" transform="translate(-7.47 5.45) rotate(-9.95)"/>
    </clipPath>
    <linearGradient id="Dégradé_sans_nom_221-2" data-name="Dégradé sans nom 221" x1="1085.67" y1="400.26" x2="1086.67" y2="400.26" gradientTransform="translate(-1756.5 -4795.8) rotate(90) scale(4.46 -4.46)" xlink:href="#Dégradé_sans_nom_221"/>
    <clipPath id="clippath-6">
      <path class="cls-37" d="M27.54,43.66c-.88.49-1.6,1.67-1.6,2.65s.71,1.37,1.6.88c.88-.49,1.6-1.67,1.6-2.65,0-.69-.36-1.09-.88-1.09-.21,0-.46.07-.71.21"/>
    </clipPath>
    <clipPath id="clippath-7">
      <rect class="cls-37" x="25.25" y="43" width="4.58" height="5.13" transform="translate(-15.5 14.22) rotate(-22.79)"/>
    </clipPath>
    <linearGradient id="Dégradé_sans_nom_221-3" data-name="Dégradé sans nom 221" x1="1526.87" y1="975.51" x2="1527.87" y2="975.51" gradientTransform="translate(4979.9 7798.84) rotate(-90) scale(5.08 -5.08)" xlink:href="#Dégradé_sans_nom_221"/>
    <clipPath id="clippath-8">
      <path class="cls-37" d="M5.14,55.71s-.1.06-.15.09v.93c-.22.16-.4.39-.54.64l-.73-.06c-.06.12-.11.24-.15.36l.73.06c-.04.13-.06.25-.06.38s.02.22.06.31l-.73.87c.04.08.09.14.15.2l.73-.87c.13.1.32.13.54.05v.93s.1-.05.15-.07c.05-.03.1-.06.15-.09v-.93c.22-.16.4-.39.54-.64l.73.06c.06-.12.11-.24.15-.36l-.73-.06c.04-.13.06-.25.06-.38s-.02-.22-.06-.31l.73-.87c-.04-.08-.09-.14-.15-.2l-.73.87c-.13-.1-.32-.12-.54-.05v-.93s-.1.05-.15.07"/>
    </clipPath>
    <clipPath id="clippath-9">
      <rect class="cls-37" x="3.3" y="55.42" width="3.68" height="4.39" transform="translate(-8.6 1.43) rotate(-8.64)"/>
    </clipPath>
    <linearGradient id="Dégradé_sans_nom_219" data-name="Dégradé sans nom 219" x1="1097.55" y1="403.02" x2="1098.55" y2="403.02" gradientTransform="translate(-1831.19 -4945.25) rotate(90) scale(4.56 -4.56)" gradientUnits="userSpaceOnUse">
      <stop offset="0" stop-color="#fbfdff"/>
      <stop offset=".14" stop-color="#f3f4f6"/>
      <stop offset=".36" stop-color="#dddee0"/>
      <stop offset=".62" stop-color="#b9babb"/>
      <stop offset=".93" stop-color="#888889"/>
      <stop offset="1" stop-color="#7d7d7d"/>
    </linearGradient>
    <clipPath id="clippath-10">
      <path class="cls-37" d="M3.64,58.7c0-1.05.77-2.33,1.72-2.86.95-.53,1.72-.1,1.72.95s-.77,2.33-1.72,2.86c-.28.15-.54.23-.77.23-.57,0-.95-.43-.95-1.18M5.36,55.38c-1.18.65-2.13,2.24-2.13,3.54s.96,1.83,2.13,1.18c1.18-.65,2.14-2.24,2.14-3.54,0-.92-.48-1.46-1.18-1.46-.29,0-.61.09-.95.28"/>
    </clipPath>
    <clipPath id="clippath-11">
      <rect class="cls-37" x="3.22" y="55.1" width="4.27" height="5.65"/>
    </clipPath>
    <linearGradient id="Dégradé_sans_nom_221-4" data-name="Dégradé sans nom 221" x1="911.43" y1="880.29" x2="912.43" y2="880.29" gradientTransform="translate(-3888.69 3816.88) scale(4.27 -4.27)" xlink:href="#Dégradé_sans_nom_221"/>
    <clipPath id="clippath-12">
      <path class="cls-37" d="M3.38,58.84c0-1.21.89-2.67,1.98-3.28,1.09-.6,1.98-.11,1.98,1.09s-.89,2.68-1.98,3.28c-.32.18-.62.26-.88.26-.65,0-1.09-.49-1.09-1.35M5.36,55.28c-1.23.68-2.23,2.34-2.23,3.7s1,1.92,2.23,1.23c1.23-.68,2.23-2.34,2.23-3.7,0-.97-.5-1.53-1.23-1.53-.3,0-.64.09-1,.29"/>
    </clipPath>
    <clipPath id="clippath-13">
      <rect class="cls-37" x="2.5" y="54.52" width="5.71" height="6.81" transform="translate(-13.27 2.82) rotate(-13.39)"/>
    </clipPath>
    <linearGradient id="Dégradé_sans_nom_221-5" data-name="Dégradé sans nom 221" x1="1107.76" y1="472.58" x2="1108.76" y2="472.58" gradientTransform="translate(-2585.43 -6017.7) rotate(90) scale(5.48 -5.48)" xlink:href="#Dégradé_sans_nom_221"/>
    <clipPath id="clippath-14">
      <rect class="cls-37" x="24.08" y="41.08" width="5.62" height="6.67"/>
    </clipPath>
    <clipPath id="clippath-15">
      <rect class="cls-37" x="24.08" y="41.08" width="5.62" height="6.67"/>
    </clipPath>
    <clipPath id="clippath-16">
      <rect class="cls-37" x="24.21" y="41.2" width="5.4" height="6.44"/>
    </clipPath>
    <clipPath id="clippath-17">
      <rect class="cls-37" x="24.21" y="41.2" width="5.4" height="6.44"/>
    </clipPath>
    <clipPath id="clippath-18">
      <rect class="cls-37" x="1.95" y="53.22" width="7.18" height="5.35"/>
    </clipPath>
    <clipPath id="clippath-19">
      <rect class="cls-37" x="1.95" y="53.22" width="7.18" height="5.35"/>
    </clipPath>
    <clipPath id="clippath-20">
      <rect class="cls-37" x="2.11" y="53.34" width="6.89" height="5.11"/>
    </clipPath>
    <clipPath id="clippath-21">
      <rect class="cls-37" x="2.11" y="53.34" width="6.89" height="5.1"/>
    </clipPath>
    <clipPath id="clippath-22">
      <rect class="cls-37" x="20.9" y="39.26" width="4.91" height="8.33"/>
    </clipPath>
    <clipPath id="clippath-23">
      <rect class="cls-37" x="20.9" y="39.26" width="4.91" height="8.33"/>
    </clipPath>
    <clipPath id="clippath-24">
      <path class="cls-37" d="M16.29,15.29c-.32.18-.57.6-.57.95,0,.18.07.3.17.36l.24.14c.1.06.24.05.4-.04.32-.17.57-.6.57-.95,0-.18-.06-.3-.17-.36l-.24-.13s-.09-.04-.15-.04c-.08,0-.16.02-.26.07"/>
    </clipPath>
    <clipPath id="clippath-25">
      <rect class="cls-37" x="15.39" y="15.01" width="2.05" height="1.99" transform="translate(-5.65 22.21) rotate(-59.98)"/>
    </clipPath>
    <linearGradient id="Dégradé_sans_nom_229" data-name="Dégradé sans nom 229" x1="1456.24" y1="-394.99" x2="1457.24" y2="-394.99" gradientTransform="translate(2230.99 616.49) rotate(-180) scale(1.52 -1.52)" gradientUnits="userSpaceOnUse">
      <stop offset="0" stop-color="#465054"/>
      <stop offset="1" stop-color="#353b3d"/>
    </linearGradient>
    <clipPath id="clippath-26">
      <path class="cls-37" d="M16.57,15.63c-.24.13-.43.45-.43.71,0,.13.05.23.13.27l3.67,2.03c.08.04.18.03.3-.03.24-.13.43-.45.43-.71,0-.13-.05-.22-.13-.27l-3.67-2.03s-.07-.03-.11-.03c-.06,0-.12.02-.19.06"/>
    </clipPath>
    <clipPath id="clippath-27">
      <rect class="cls-37" x="15.92" y="14.39" width="4.96" height="5.48" transform="translate(-5.63 24.5) rotate(-60)"/>
    </clipPath>
    <linearGradient id="Dégradé_sans_nom_229-2" data-name="Dégradé sans nom 229" x1="1498.34" y1="-677.89" x2="1499.34" y2="-677.89" gradientTransform="translate(1839.62 840.82) rotate(-180) scale(1.22 -1.22)" xlink:href="#Dégradé_sans_nom_229"/>
    <clipPath id="clippath-28">
      <path class="cls-37" d="M20.31,17.82c-.19.11-.34.36-.34.57,0,.11.04.18.1.21l.84.46c.06.03.15.03.24-.02.19-.1.34-.36.34-.57,0-.11-.04-.18-.1-.21l-.84-.46s-.06-.02-.09-.02c-.05,0-.1.01-.15.04"/>
    </clipPath>
    <clipPath id="clippath-29">
      <rect class="cls-37" x="19.77" y="17.44" width="1.91" height="1.98" transform="translate(-5.6 27.17) rotate(-60.01)"/>
    </clipPath>
    <linearGradient id="Dégradé_sans_nom_226" data-name="Dégradé sans nom 226" x1="1562.79" y1="-1110.97" x2="1563.79" y2="-1110.97" gradientTransform="translate(1473.77 1051.04) rotate(-180) scale(.93 -.93)" gradientUnits="userSpaceOnUse">
      <stop offset="0" stop-color="#b8c5ce"/>
      <stop offset=".2" stop-color="#abb8c1"/>
      <stop offset=".58" stop-color="#89969f"/>
      <stop offset="1" stop-color="#5c6972"/>
    </linearGradient>
    <clipPath id="clippath-30">
      <path class="cls-37" d="M20.38,18.62l-.96.77.25.99,1.94,7.61c.11.43.08.69.52.82.27.08.55.03.75-.06.2-.09.35-.23.26-.61l-1.73-6.75c-.11-.41,0-.65.3-.88l1.6-1.7-.24-.95-1-.56-1.71,1.33Z"/>
    </clipPath>
    <clipPath id="clippath-31">
      <rect class="cls-37" x="18.11" y="16.99" width="6.54" height="12.19" transform="translate(-4.86 5.72) rotate(-13.69)"/>
    </clipPath>
    <linearGradient id="Dégradé_sans_nom_225" data-name="Dégradé sans nom 225" x1="399.42" y1="1359.6" x2="400.42" y2="1359.6" gradientTransform="translate(-614.88 2185.55) scale(1.59 -1.59)" gradientUnits="userSpaceOnUse">
      <stop offset="0" stop-color="#2c302f"/>
      <stop offset=".09" stop-color="#444e50"/>
      <stop offset=".15" stop-color="#4f5d60"/>
      <stop offset=".27" stop-color="#72878d"/>
      <stop offset=".49" stop-color="#3a4243"/>
      <stop offset=".87" stop-color="#2a2d2d"/>
      <stop offset="1" stop-color="#2a2d2d"/>
    </linearGradient>
    <clipPath id="clippath-32">
      <path class="cls-37" d="M22.26,18.84c-.19.1-.34.36-.34.57,0,.11.04.18.1.21l2.93,1.62c.06.03.15.03.24-.02.19-.1.34-.36.34-.57,0-.1-.04-.18-.1-.21l-2.93-1.62s-.06-.02-.09-.02c-.05,0-.1.01-.15.04"/>
    </clipPath>
    <clipPath id="clippath-33">
      <rect class="cls-37" x="21.74" y="17.85" width="3.96" height="4.37" transform="translate(-5.49 30.56) rotate(-60)"/>
    </clipPath>
    <linearGradient id="Dégradé_sans_nom_226-2" data-name="Dégradé sans nom 226" x1="1551.22" y1="-1033.19" x2="1552.22" y2="-1033.19" gradientTransform="translate(1529.58 1022.68) rotate(-180) scale(.97 -.97)" xlink:href="#Dégradé_sans_nom_226"/>
    <clipPath id="clippath-34">
      <path class="cls-37" d="M23,19.12c-.24.13-.43.45-.43.71,0,.13.05.22.13.27l3.67,2.03c.08.04.18.04.3-.03.24-.13.43-.45.43-.71,0-.13-.05-.23-.13-.27l-3.67-2.03s-.07-.03-.11-.03c-.06,0-.12.02-.19.06"/>
    </clipPath>
    <clipPath id="clippath-35">
      <rect class="cls-37" x="22.36" y="17.88" width="4.96" height="5.48" transform="translate(-5.44 31.82) rotate(-60)"/>
    </clipPath>
    <linearGradient id="Dégradé_sans_nom_229-3" data-name="Dégradé sans nom 229" x1="1498.33" y1="-677.84" x2="1499.33" y2="-677.84" gradientTransform="translate(1846.11 844.29) rotate(-180) scale(1.22 -1.22)" xlink:href="#Dégradé_sans_nom_229"/>
    <clipPath id="clippath-36">
      <path class="cls-37" d="M26.61,20.97c-.32.17-.57.6-.57.95,0,.17.07.3.17.35l.24.14c.1.06.24.05.4-.04.32-.17.57-.6.57-.95,0-.18-.06-.3-.17-.36l-.24-.14s-.09-.04-.15-.04c-.08,0-.16.02-.26.07"/>
    </clipPath>
    <clipPath id="clippath-37">
      <rect class="cls-37" x="25.7" y="20.69" width="2.05" height="1.99" transform="translate(-5.42 33.98) rotate(-59.98)"/>
    </clipPath>
    <linearGradient id="Dégradé_sans_nom_229-4" data-name="Dégradé sans nom 229" x1="1456.23" y1="-394.95" x2="1457.23" y2="-394.95" gradientTransform="translate(2241.39 622.11) rotate(-180) scale(1.52 -1.52)" xlink:href="#Dégradé_sans_nom_229"/>
    <clipPath id="clippath-38">
      <path class="cls-37" d="M26.98,21.11c-.32.18-.57.6-.57.95,0,.18.06.3.17.36l.24.14c.1.06.25.05.4-.04.32-.17.57-.6.57-.95,0-.18-.06-.3-.17-.36l-.24-.14s-.09-.04-.15-.04c-.08,0-.16.02-.26.07"/>
    </clipPath>
    <clipPath id="clippath-39">
      <rect class="cls-37" x="26.07" y="20.82" width="2.05" height="1.99" transform="translate(-5.34 34.38) rotate(-60)"/>
    </clipPath>
    <linearGradient id="Dégradé_sans_nom_229-5" data-name="Dégradé sans nom 229" x1="1456.23" y1="-394.95" x2="1457.23" y2="-394.95" gradientTransform="translate(2241.75 622.26) rotate(-180) scale(1.52 -1.52)" xlink:href="#Dégradé_sans_nom_229"/>
  </defs>
  <g class="cls-48">
    <g id="Calque_2">
      <g id="_Éléments_Mise_en_page" data-name="Éléments_Mise_en_page">
        <g>
          <g class="cls-89">
            <g class="cls-44">
              <rect class="cls-74" x="23.66" y="33.02" width="6.81" height="6.8" transform="translate(-14.2 17.54) rotate(-28.79)"/>
            </g>
          </g>
          <g>
            <path class="cls-28" d="M27.34,37.31s.07.57-.84,1.25l-.3-.75.44-.74.69.24Z"/>
            <path class="cls-1" d="M25.61,37.63s1.09,4.26,1.24,4.83c.15.57.39,1.85.39,2.1,0,.33-.22.75-.53,1.01-.3.25-.62.28-.76.07-.25-.4-.45-1.19-.64-1.97-.11-.45-.63-2.34-.97-3.6-.18-.67-.93-.67-.93-.67l2.2-1.77Z"/>
            <path class="cls-1" d="M4.54,57.95c-.34.19-.62.04-.62-.34s.25-.82.59-1.01l3.16-1.75,14.62-8.25v.16l-.91,1.95-13.51,7.47-3.33,1.76Z"/>
            <path class="cls-1" d="M29.71,41.9l-.99-.55c-.55-.29-1.29-.24-2.12.21-1.67.92-3.02,3.17-3.02,5.01,0,.89.32,1.53.83,1.84l1.04.58c.54.28,1.28.22,2.09-.23,1.67-.92,3.02-3.17,3.02-5.01,0-.9-.33-1.54-.85-1.85"/>
            <path class="cls-59" d="M24.52,47.1c0-1.84,1.35-4.09,3.02-5.01,1.67-.92,3.02-.17,3.02,1.67s-1.35,4.09-3.02,5.01c-1.67.92-3.02.17-3.02-1.67"/>
            <path class="cls-28" d="M24.81,47c0-1.69,1.24-3.74,2.77-4.59,1.53-.85,2.76-.16,2.76,1.53s-1.24,3.74-2.76,4.59c-1.53.84-2.77.16-2.77-1.53"/>
            <path class="cls-41" d="M25.26,46.7c0-1.4,1.02-3.1,2.29-3.79,1.26-.7,2.29-.13,2.29,1.26s-1.02,3.1-2.29,3.79c-1.26.7-2.29.13-2.29-1.27"/>
          </g>
          <g class="cls-77">
            <g class="cls-57">
              <rect class="cls-47" x="21.78" y="39.75" width="11.52" height="11.74" transform="translate(-15.52 14.23) rotate(-22.78)"/>
            </g>
          </g>
          <g class="cls-15">
            <g class="cls-50">
              <rect class="cls-12" x="24.33" y="42.06" width="6.42" height="7.07" transform="translate(-7.47 5.45) rotate(-9.96)"/>
            </g>
          </g>
          <g class="cls-5">
            <g class="cls-6">
              <rect class="cls-56" x="23.42" y="41.37" width="8.25" height="8.4" transform="translate(-15.5 14.22) rotate(-22.78)"/>
            </g>
          </g>
          <g>
            <path class="cls-41" d="M27.33,47.25c.07-.03.14-.06.21-.1.07-.04.14-.08.21-.13,0-.29-.1-.48-.21-.41-.11.06-.21.35-.21.65"/>
            <path class="cls-41" d="M27.33,43.84c0,.29.1.48.21.41.11-.06.21-.35.21-.65-.07.03-.14.06-.21.1-.07.04-.14.08-.21.13"/>
            <path class="cls-41" d="M26.1,46.88c.05.12.13.21.21.29.23-.28.37-.56.31-.64-.06-.08-.29.08-.52.35"/>
            <path class="cls-41" d="M28.46,44.33c.06.08.29-.08.52-.35-.05-.12-.13-.21-.21-.29-.23.28-.37.56-.31.64"/>
            <path class="cls-41" d="M26.1,45.58c.23.02.46-.08.52-.23.06-.14-.08-.27-.31-.3-.09.17-.16.35-.21.52"/>
            <path class="cls-41" d="M28.77,45.81c.09-.17.16-.35.21-.52-.23-.02-.46.08-.52.23-.06.14.08.27.31.3"/>
            <path class="cls-1" d="M6.32,55.63c.12.19.19.45.19.77,0,1.05-.77,2.33-1.72,2.86-.36.2-.69.26-.96.21.29.45.86.55,1.53.18.95-.53,1.72-1.81,1.72-2.86,0-.66-.3-1.07-.76-1.16"/>
            <path class="cls-20" d="M6.42,55.68l-.73.87c-.13-.1-.32-.12-.54-.05v-.93s-.1.05-.15.07c-.05.03-.1.06-.15.09v.93c-.22.16-.4.39-.54.64l-.73-.06c-.06.12-.11.24-.15.36l.73.06c-.04.13-.06.25-.06.38s.02.22.06.31l-.73.87c.04.08.09.14.15.2l.73-.87c.13.1.32.12.54.05v.93s.1-.05.15-.07c.05-.03.1-.06.15-.09v-.93c.21-.16.4-.39.54-.64l.73.06c.06-.12.11-.24.15-.36l-.73-.06c.04-.13.06-.25.06-.38s-.02-.22-.06-.31l.73-.87c-.04-.08-.09-.14-.15-.2"/>
          </g>
          <g class="cls-53">
            <g class="cls-23">
              <rect class="cls-88" x="2.65" y="54.87" width="4.98" height="5.48" transform="translate(-8.6 1.43) rotate(-8.65)"/>
            </g>
          </g>
          <g>
            <path class="cls-1" d="M7.53,54.22l-.99-.55c-.55-.29-1.29-.24-2.12.21-1.67.92-3.02,3.17-3.02,5.01,0,.89.32,1.53.83,1.84l1.04.58c.54.28,1.28.22,2.09-.23,1.67-.92,3.02-3.17,3.02-5.01,0-.9-.33-1.54-.85-1.85M5.36,59.65c-.95.53-1.72.1-1.72-.95s.77-2.33,1.72-2.86c.95-.53,1.72-.1,1.72.95s-.77,2.33-1.72,2.86"/>
            <path class="cls-59" d="M5.36,54.4c-1.67.92-3.02,3.17-3.02,5.01s1.35,2.59,3.02,1.67c1.67-.92,3.02-3.17,3.02-5.01s-1.35-2.59-3.02-1.67M5.36,59.65c-.95.53-1.72.1-1.72-.95s.77-2.33,1.72-2.86c.95-.53,1.72-.1,1.72.95s-.77,2.33-1.72,2.86"/>
            <path class="cls-28" d="M5.39,54.73c-1.53.85-2.76,2.9-2.76,4.59s1.24,2.38,2.76,1.53c1.53-.85,2.77-2.9,2.77-4.59s-1.24-2.37-2.77-1.53M5.36,59.65c-.95.53-1.72.1-1.72-.95s.77-2.33,1.72-2.86c.95-.53,1.72-.1,1.72.95s-.77,2.33-1.72,2.86"/>
          </g>
          <g class="cls-24">
            <g class="cls-36">
              <rect class="cls-25" x="3.22" y="55.1" width="4.27" height="5.65"/>
            </g>
          </g>
          <g class="cls-61">
            <g class="cls-84">
              <rect class="cls-72" x=".97" y="53.23" width="8.78" height="9.39" transform="translate(-13.27 2.82) rotate(-13.4)"/>
            </g>
          </g>
          <g>
            <path class="cls-86" d="M28.66,40.56c-.58-.13-1.29,0-2.06.41-1.97,1.09-3.56,3.73-3.56,5.91,0,.1,0,.2,0,.3,0,0,.17.31,1.05.58l.7-.64s0-.03,0-.04c0-1.74,1.28-3.87,2.86-4.74.49-.27.94-.39,1.34-.37l.71-.82-1.04-.58Z"/>
            <g class="cls-34">
              <g class="cls-62">
                <g class="cls-10">
                  <path d="M27.64,41.55c.77-.42,1.48-.55,2.06-.41l-.71.82c-.4-.02-.86.1-1.34.37-1.58.87-2.86,2.99-2.86,4.74,0,.01,0,.03,0,.04l-.7.64c0-.1-.01-.19-.01-.3,0-2.18,1.59-4.82,3.56-5.91"/>
                </g>
              </g>
            </g>
            <g class="cls-35">
              <g class="cls-76">
                <g class="cls-7">
                  <path d="M27.64,42.33c.49-.27.94-.39,1.34-.37l.62-.72-.15-.02c-.08,0-.15-.01-.23-.01-.47,0-.99.15-1.53.45-1.93,1.07-3.5,3.67-3.5,5.8v.19l.58-.54s0-.03,0-.04c0-1.74,1.28-3.87,2.86-4.74"/>
                </g>
              </g>
            </g>
            <path class="cls-49" d="M5.12,58.36c-.34.19-.62.04-.62-.34s.25-.82.59-1.01l3.16-1.75,14.62-8.08-.91,1.95-13.51,7.47-3.33,1.76Z"/>
            <path class="cls-1" d="M5.18,58.39c-.34.19-.62.04-.62-.34s.25-.82.59-1.01l3.16-1.75,14.62-8.25v.16l-.91,1.95-13.51,7.47-3.33,1.76Z"/>
            <path class="cls-1" d="M5.2,57.34l1.94-1.07c.18-.1.33-.02.33.18s-.15.45-.33.55l-1.94,1.08c-.18.1-.33.02-.33-.19s.15-.45.33-.55"/>
            <path class="cls-29" d="M7.14,56.96c.16-.09.3-.31.3-.49s-.13-.26-.3-.16l-1.94,1.07c-.16.09-.3.31-.3.49s.13.25.3.16l1.94-1.08Z"/>
            <path class="cls-73" d="M7.14,56.92c.14-.08.26-.27.26-.43s-.12-.22-.26-.15l-1.94,1.08c-.14.08-.26.27-.26.43s.12.22.26.15l1.94-1.08Z"/>
            <path class="cls-86" d="M8,53.43h0l-1.03-.57c-.66-.34-1.56-.28-2.55.27-1.67.92-3.08,2.93-3.52,4.87,0,0,.15.42,1.04.58l.84-.6c.45-1.4,1.48-2.77,2.68-3.43,1.61-.89,2.91-.17,2.91,1.61,0,.09,0,.18-.01.27l.75-.42c0-.09,0-.18,0-.27,0-1.15-.43-1.94-1.12-2.3"/>
            <g class="cls-34">
              <g class="cls-13">
                <g class="cls-65">
                  <path d="M5.47,53.7c2.02-1.12,3.66-.21,3.66,2.03,0,.09,0,.18,0,.27l-.75.42c0-.09.01-.18.01-.27,0-1.78-1.3-2.5-2.91-1.61-1.2.66-2.23,2.04-2.68,3.43l-.84.6c.44-1.93,1.85-3.94,3.52-4.87"/>
                </g>
              </g>
            </g>
            <g class="cls-35">
              <g class="cls-52">
                <g class="cls-4">
                  <path d="M7.1,53.34c-.49,0-1.02.16-1.57.46-1.5.83-2.85,2.63-3.37,4.46l-.04.18.68-.49c.45-1.4,1.48-2.77,2.68-3.43,1.61-.89,2.91-.17,2.91,1.61,0,.09,0,.18,0,.27l.63-.35v-.14c0-.07,0-.13,0-.2,0-1.47-.73-2.38-1.9-2.38"/>
                </g>
              </g>
            </g>
            <path class="cls-86" d="M25.81,40.53l-.27-1.27-.48-.3c-2.37,1.9-4.22,5.05-4.64,7.95v.39l.48.3,1.34-.74v-.38c.4-2.19,1.8-4.51,3.57-5.94"/>
            <g class="cls-35">
              <g class="cls-16">
                <g class="cls-18">
                  <path d="M25.54,39.26l.27,1.27c-1.77,1.43-3.17,3.75-3.57,5.94v.39s-1.34.74-1.34.74v-.39c.42-2.9,2.27-6.05,4.64-7.95"/>
                </g>
              </g>
            </g>
            <path class="cls-68" d="M21.95,46.22l-.6.33c.24-1.18.72-2.4,1.4-3.56.45-.76.96-1.47,1.52-2.1l.17.54c-1.19,1.38-2.11,3.12-2.49,4.79"/>
            <path class="cls-60" d="M21.92,46.2c.38-1.64,1.28-3.37,2.48-4.76l-.15-.47c-.55.62-1.05,1.31-1.48,2.04-.66,1.13-1.14,2.33-1.38,3.48l.53-.29Z"/>
            <path class="cls-86" d="M22.63,46.33l-1.48.82-1.18-.65.58-.32c.04-.2.09-.39.15-.59l-2.77.44-11.98,6.63c.38-.01.72.06,1.01.21h0l.65.36.06-.03,1.4.77-1.64.89.59.33,1.83-.19,12.15-6.72.92-1.78-.29-.16Z"/>
            <polygon class="cls-49" points="22.01 48.27 9.85 54.99 8.02 55.18 7.44 54.86 7.44 55.42 8.02 55.74 9.85 55.56 22.01 48.84 22.93 47.05 22.93 46.49 22.01 48.27"/>
            <path class="cls-33" d="M22.63,46.56l-1.48.82-1.6-.89,1.07-.59s.02-.07.03-.11l-2.64.42-11.66,6.45c.22.03.43.09.62.19h0l.44.25.27-.15,1.82,1.01-1.64.89.21.12,1.72-.17,12.06-6.67.8-1.56h-.02Z"/>
            <polygon class="cls-14" points="10.18 55 10.18 55.19 21.87 48.72 21.87 48.53 10.18 55"/>
            <path class="cls-49" d="M8,53.43h0c.3.16.56.4.74.71l.33-.18-1.4-.77-.06.03.38.21Z"/>
            <path class="cls-49" d="M20.56,46.17l-.58.32.47.26c.03-.19.07-.39.11-.58"/>
            <path class="cls-85" d="M26.61,38.16s1.09,4.26,1.24,4.83c.15.57.39,1.85.39,2.1,0,.33-.22.75-.53,1.01-.3.25-.62.29-.76.07-.25-.4-.45-1.19-.64-1.97-.11-.45-.63-2.34-.97-3.6-.18-.67-1.13-.51-1.13-.51l2.41-1.93Z"/>
            <path class="cls-60" d="M26.82,38.26s1.09,4.26,1.24,4.83c.15.57.39,1.85.39,2.1,0,.33-.22.75-.53,1.01-.3.25-.62.28-.76.07-.25-.4-.45-1.19-.64-1.97-.11-.45-.63-2.34-.97-3.6-.18-.67-1.13-.51-1.13-.51l2.41-1.93Z"/>
            <path class="cls-51" d="M26.82,38.26l-2.41,1.93s.95-.16,1.13.51c.07.24.14.5.21.76l1.32-2.21c-.15-.58-.25-.99-.25-.99"/>
            <polygon class="cls-60" points="24.29 28.26 23.91 27.6 23.13 27.17 22.14 27.06 21.23 27.79 20.73 29.1 23.45 39.77 24.24 40.26 26.11 39.72 27.02 38.99 24.29 28.26"/>
            <polygon class="cls-51" points="24.24 40.26 26.11 39.72 23.37 28.99 21.5 29.53 24.24 40.26"/>
            <polygon class="cls-85" points="24.24 40.26 23.45 39.77 20.73 29.1 21.5 29.53 24.24 40.26"/>
            <polygon class="cls-40" points="22.14 27.06 23.13 27.17 23.91 27.6 24.29 28.26 23.37 28.99 21.5 29.53 20.73 29.1 21.23 27.79 22.14 27.06"/>
            <polygon class="cls-17" points="24.48 29 24.29 28.26 23.37 28.99 23.56 29.73 24.48 29"/>
            <polygon class="cls-29" points="23.37 28.99 21.5 29.53 21.69 30.27 23.56 29.73 23.37 28.99"/>
            <polygon class="cls-80" points="21.69 30.27 21.5 29.53 20.73 29.1 20.92 29.84 21.69 30.27"/>
          </g>
          <g class="cls-87">
            <g class="cls-27">
              <rect class="cls-69" x="14.52" y="14.12" width="3.78" height="3.77" transform="translate(-5.65 22.21) rotate(-60)"/>
            </g>
          </g>
          <path class="cls-1" d="M17.11,15.74c0,.35-.26.77-.57.95-.16.09-.3.1-.4.04-.1-.06-.17-.18-.17-.36,0-.35.26-.78.57-.95.16-.09.3-.1.4-.04.1.06.17.18.17.36"/>
          <g class="cls-58">
            <g class="cls-30">
              <rect class="cls-71" x="13.55" y="12.25" width="9.7" height="9.77" transform="translate(-5.63 24.5) rotate(-60)"/>
            </g>
          </g>
          <path class="cls-1" d="M20.66,17.9c0,.26-.19.58-.43.71-.12.07-.23.07-.3.03-.08-.04-.13-.14-.13-.27,0-.26.19-.58.43-.71.12-.07.23-.07.3-.03.08.04.13.14.13.27"/>
          <g class="cls-43">
            <g class="cls-79">
              <rect class="cls-91" x="18.91" y="16.61" width="3.63" height="3.64" transform="translate(-5.6 27.16) rotate(-60)"/>
            </g>
          </g>
          <g class="cls-64">
            <g class="cls-8">
              <rect class="cls-78" x="15.31" y="15.49" width="12.15" height="15.2" transform="translate(-4.86 5.72) rotate(-13.7)"/>
            </g>
          </g>
          <path class="cls-49" d="M22.09,17.29l-2.66,2.1s.69.79,1.26.39c.57-.39,2.4-1.93,2.4-1.93l-1-.56Z"/>
          <g class="cls-70">
            <g class="cls-11">
              <rect class="cls-21" x="19.85" y="16.13" width="7.74" height="7.8" transform="translate(-5.49 30.56) rotate(-60)"/>
            </g>
          </g>
          <g class="cls-2">
            <g class="cls-42">
              <rect class="cls-38" x="19.99" y="15.74" width="9.7" height="9.77" transform="translate(-5.44 31.82) rotate(-60)"/>
            </g>
          </g>
          <path class="cls-1" d="M27.1,21.39c0,.26-.19.58-.43.71-.12.07-.23.07-.3.03-.08-.04-.13-.14-.13-.27,0-.26.19-.58.43-.71.12-.07.23-.07.3-.03.08.04.13.14.13.27"/>
          <g class="cls-39">
            <g class="cls-81">
              <rect class="cls-90" x="24.84" y="19.8" width="3.78" height="3.77" transform="translate(-5.41 33.99) rotate(-60)"/>
            </g>
          </g>
          <g>
            <path class="cls-1" d="M27.42,21.42c0,.35-.26.77-.57.95-.16.09-.3.1-.4.04-.1-.06-.17-.18-.17-.36,0-.35.26-.78.57-.95.16-.09.3-.1.4-.04.1.06.17.18.17.36"/>
            <path class="cls-1" d="M27.62,43.39l.46,1.83c.04.17-.07.43-.24.58-.18.15-.36.13-.4-.05l-.46-1.83c-.04-.17.07-.43.24-.58.18-.15.36-.13.4.05"/>
            <path class="cls-29" d="M27.76,45.81s.05-.03.07-.05c.16-.13.26-.36.22-.52l-.46-1.83c-.03-.13-.15-.17-.29-.09-.02.01-.05.03-.07.05-.16.13-.26.36-.22.52l.46,1.83c.03.13.15.17.29.09"/>
            <path class="cls-73" d="M27.76,45.77s.04-.03.06-.04c.07-.06.12-.13.16-.22.04-.09.05-.17.03-.24l-.46-1.83c-.03-.11-.13-.15-.25-.08-.02.01-.04.03-.06.04-.07.06-.12.13-.16.22-.04.09-.05.17-.03.24l.46,1.83c.03.11.13.15.25.08"/>
            <path class="cls-67" d="M3.65,54.81h0s-.26-.02-.26-.02l-.75.41v.95c.29-.48.63-.94,1-1.34"/>
            <polygon class="cls-86" points="2 54.86 2.65 55.2 3.39 54.79 3.65 54.81 3.01 54.47 2.75 54.45 2 54.86"/>
            <polygon class="cls-45" points="2.65 56.15 2 55.81 2 54.86 2.65 55.2 2.65 56.15"/>
            <polygon class="cls-73" points="2.06 55.78 2.06 54.96 2.59 55.23 2.59 56.05 2.06 55.78"/>
            <path class="cls-9" d="M25.58,21.83s-.09.25.18.39c.26.14.81.28,1.05.28.24,0,.85-.77.85-.92,0-.15-1.3-.34-1.3-.34l-.78.59Z"/>
            <path class="cls-63" d="M9.35,9.13s1.11-.2,1.28-1.04c.17-.84-.34-1.84-.54-2.6-.19-.76-.24-2.61.62-3.35.86-.74,2.03-1.13,2.97-1.1.94.03,2,.39,2.41,1.22.4.84.55,1.56.4,1.9-.15.34-.28.54-.21.8s.14.61.03.93c-.11.32-.52,1.5-.66,1.67-.14.17-1.11.32-1.16.64-.05.33-.05,1.96-.05,2.19s-1.46,1.01-3.06.48c-1.6-.52-2.03-1.75-2.03-1.75"/>
            <path class="cls-9" d="M14.44,10.39c0-.23,0-1.87.05-2.19.05-.28.75-.42,1.05-.57-.2-.2-.45-.52-.48-.93-.06-.7,0-1.43,0-1.43l-1.42.12s-.85,4.36-2.31,5.2c-.11.06-.18.12-.23.18.09.04.18.07.28.1,1.6.52,3.06-.25,3.06-.48"/>
            <path class="cls-46" d="M8.05,25.61s-.28,1.67,0,2.58c.28.91,1.04,2.7,1.17,3.4.13.69.89,4.87.78,5.62-.11.75-1.21,3.01-1.03,4.55.18,1.55.23,7.95.23,7.95l3.5-.64s.24-8.21.49-9.28c.26-1.07.89-2.54,1.02-3.77.13-1.23.11-5.32.11-5.32l-.85-3.2-5.42-1.89Z"/>
            <path class="cls-19" d="M13.47,27.5l-5.42-1.88s-.28,1.67,0,2.58c.28.91,1.04,2.7,1.17,3.4.05.25.18.96.32,1.79.97,1.6,1.89,3.12,1.98,3.7.15.99.1,1.55-.39,4.55-.32,1.92-1.3,4.06-1.96,5.36.03,1.51.04,2.73.04,2.73l3.5-.64s.24-8.22.5-9.28c.26-1.07.89-2.54,1.02-3.77.13-1.23.11-5.32.11-5.32l-.85-3.2Z"/>
            <path class="cls-82" d="M12.64,48.59s1.98-.25,2.43-.06c.45.19.72.93.49,1.29-.23.36-1.42,1.14-1.42,1.14,0,0-1.9,1.28-2.03,1.37s-.79.6-1.37.73c-.59.13-1.55-.12-1.61-.58-.07-.47,0-1.34,0-1.34l1.15-1.41,2.37-1.13Z"/>
            <path class="cls-83" d="M15.56,49.82c.1-.15.11-.37.05-.59-.03.15-.08.33-.18.5-.21.36-2.6,1.6-2.6,1.6,0,0-1.2.77-1.69.94-.49.17-.84.06-1.3-.06-.28-.07-.55-.18-.74-.26,0,.19,0,.39.03.53.07.47,1.03.71,1.61.58s1.24-.65,1.37-.73c.13-.08,2.03-1.37,2.03-1.37,0,0,1.18-.78,1.42-1.14"/>
            <path class="cls-26" d="M13.77,48.7c.2.07.29.41,0,.49-.3.08-1.53.36-2.08.24-.55-.12-.63-.73-.63-.73l.63.12s1.85-.19,2.08-.12"/>
            <path class="cls-82" d="M15.26,51.23c.03.27.08.84-.35,1.17-.44.32-1.17.77-1.74.57-.56-.2-1.45-.6-1.74-.69-.29-.09-1.78-.52-2.33-.65-.54-.13-1.12-.53-.98-.92.13-.39.59-1.3.92-1.74.33-.43.72-.92.87-.8.15.12.6.18.95.58.35.39,1.18,1.26,1.54,1.37.35.11.38-.87.52-.82.14.06.43.87.68.95.24.08,1.57.18,1.67.97"/>
            <path class="cls-83" d="M14.91,52.4c.25-.19.34-.46.37-.7-.26.43-.92,1.02-1.47,1-.61-.02-1.44-.66-2-1-.55-.34-.99-.23-1.45-.36-.45-.13-1.1-.51-1.62-.88-.17-.11-.28-.23-.37-.34-.11.23-.2.45-.25.59-.13.39.44.79.98.92.54.13,2.03.56,2.32.65.29.08,1.18.49,1.74.69s1.3-.25,1.74-.57"/>
            <path class="cls-26" d="M12.92,49.3c-.08-.03-.13.3-.22.55.14.25.44.72.72.9.39.25,1.1.42.83-.29,0-.02-.01-.04-.02-.06-.28-.07-.53-.11-.63-.14-.24-.08-.53-.9-.67-.95"/>
            <path class="cls-55" d="M11.81,51.7c.23.14.51.33.8.51.49-.39.92-.94,1.16-1.29-.13-.04-.25-.1-.36-.17-.16-.1-.32-.29-.46-.49-.31.49-1.03,1.01-1.44,1.29.1.04.19.08.3.15"/>
            <path class="cls-46" d="M19.57,32.31c-.31-1.85-1.45-5.71-1.45-5.71l-7.42.62c.23,2.15,2.38,3.95,2.38,3.95,0,0,.58.61.79,1.52.21.91,1.71,3.96,1.71,3.96,0,0-.03.45-.85,1.37-.82.92-2.24,3.78-2.76,5.08-.52,1.3-2.1,4.85-2.41,5.25-.31.4,1.19,1.57,2.14,2,.95.43,1.34,0,1.57-.3.24-.3.24-1.72.58-2.4.34-.67,2.67-4.51,3.35-5.56.69-1.05,2.33-4.12,2.61-5.07.27-.95.07-2.86-.24-4.72"/>
            <path class="cls-54" d="M10.29,7.64s.77.47,2.21.93c1.43.47,2.38.8,2.6,1.21.22.4.22.99.22.99,0,0-.93-.02-1.3-.15s-2.12-.13-3.07-.61c-.95-.49-1.43-1.29-1.43-1.29l.77-1.08Z"/>
            <path class="cls-54" d="M10.88,8.98l-1.37-.34s-1.72.19-2.67.8c-.95.61-.71,3.17-.6,4.04.11.87,2.03,6.31,2.1,7,.07.69-.57,5.76-.57,5.76,0,0,.09.95,2.8,1.84,2.71.89,6.75.95,7.92-.68,0,0-.77-3.59-.77-4.88s.09-4.29.09-4.29l-.56-5.64-1.93-1.82-4.43-1.8Z"/>
            <path class="cls-63" d="M15.14,5.63s-.51-.13-.55.59c-.04.72.19,1.08.39.9.2-.18.16-1.12.16-1.49"/>
            <path class="cls-31" d="M16.31,2.18c.09.19.04.44-.14.85-.18.41-.15.94-.29,1.25-.14.32-.11.96-.23,1.05-.13.09-.95.03-1.18.47-.23.44-.8,1.43-1.09,1.75-.29.32-1.12.45-1.68.29-.57-.15-1.02-.3-1.06-.5-.04-.2-.56-1.63-.67-1.97-.12-.35-.35-2.08.37-3.18.72-1.1,2.85-1.69,4.14-1.46,1.29.24,1.52.82,1.83,1.46"/>
            <path class="cls-66" d="M15.1,15.08c-.03.77-.46,2.82-.14,3.97.32,1.16.11,2.59-.12,3.1-.21.47-1.42,3.93-1.2,6.51,2.07.15,4.09-.19,4.86-1.26,0,0-.77-3.59-.77-4.88s.09-4.29.09-4.29l-.37-3.71h-.99s-1.33-.21-1.36.56"/>
            <path class="cls-63" d="M24.42,20.36s.73-.43,1.13-.48c.4-.05.45-.11.7.04.25.14.46.18.5.21.04.03.5.45.58.54.08.09.3.63.3.65s.17.35-.13.35c-.3,0-.36-.22-.53-.1-.17.11-.52.29-.83.36-.31.07-1.23-.08-1.23-.08l-.59.31-.84-1.59.93-.21Z"/>
            <path class="cls-54" d="M25,21.93s.4-.87-.55-1.61l-1.14.04-2.78.32s-.22-.92-.45-1.44c-.23-.52-.5-1.46-.49-1.68,0-.22-.56-2.22-.91-3.06-.77-1.85-1.89-2.47-2.36-2.77-.47-.31-.8.24-1.12,1.09-.33.85.09,4.06.91,5.79.83,1.73,2.41,4.88,2.79,5.13.38.25,1.76.08,2.42-.16.66-.23,3.68-1.65,3.68-1.65"/>
            <path class="cls-66" d="M25.05,21.17c-.62.33-1.94,1.04-2.61,1.31-.89.36-1.35.47-2.04.47-.5,0-1.44-.09-1.93.2.2.32.35.54.44.6.38.25,1.76.08,2.42-.16.66-.24,3.68-1.65,3.68-1.65,0,0,.15-.33.05-.76"/>
            <path class="cls-66" d="M15.1,9.78c-.14-.25-.56-.48-1.21-.72-.05.35-.14.9-.3,1.5.19.02.34.04.42.07.38.13,1.3.15,1.3.15,0,0,0-.59-.22-.99"/>
            <polygon class="cls-1" points="14.1 6.96 14.98 7.42 15.1 7.8 15.4 7.69 15.29 7.32 15.81 5.32 15.54 5.32 15.05 7.17 14.2 6.7 14.1 6.96"/>
            <path class="cls-32" d="M11.27.31c.91-.44,5.08-.98,5.63,2.69,0,0-.16.3-.55.63-.39.33-.21,1.45-.47,1.71-.57.54-.91-.05-1.15.44-.24.48-.23,1.39-1.2,1.59-.98.19-1.96.42-3.3-.62,0,0-.18-.95-.51-1.73-.4-.95-.84-3.56,1.55-4.7"/>
          </g>
          <g class="cls-3">
            <g class="cls-75">
              <rect class="cls-22" x="25.21" y="19.93" width="3.78" height="3.77" transform="translate(-5.34 34.38) rotate(-60)"/>
            </g>
          </g>
          <path class="cls-1" d="M27.79,21.56c0,.35-.26.77-.57.95-.16.09-.3.1-.4.04-.1-.06-.17-.18-.17-.36,0-.35.26-.78.57-.95.16-.09.3-.1.4-.04.1.06.17.18.17.36"/>
        </g>
      </g>
    </g>
  </g>
</svg>