<?xml version="1.0" encoding="UTF-8"?>
<svg id="uuid-d6cd1004-bce1-401c-9803-f3b5ecf84dde" data-name="Calque_2" xmlns="http://www.w3.org/2000/svg" viewBox="0 0 24.91 51.54">
  <defs>
    <style>
      .uuid-beedf20e-9ecf-4299-9903-cfd9148ac1cf {
        fill: #12100b;
      }

      .uuid-58e023f8-b8be-4b30-9b77-a45257d7538b {
        fill: #58446d;
      }

      .uuid-ca9e7bd6-bfbb-464f-b661-6398cd399dc8 {
        fill: #e2dff0;
      }

      .uuid-6392c32c-603a-48ce-8896-ecbaf216b4f1 {
        fill: #211d2a;
      }

      .uuid-e446f121-e251-4a85-9da7-dd7f770ef1ec {
        fill: #eeedf7;
      }

      .uuid-12fe8f20-3b1d-4749-8996-2ee87fcb0e12 {
        fill: #2b2739;
      }

      .uuid-8180f237-9c61-4d2f-b891-ffeb29ac8c15 {
        fill: #292f3b;
      }

      .uuid-c0740c5e-376d-486b-b11f-13f71e37c60c {
        fill: #392c2f;
      }

      .uuid-484215dd-2f97-42d7-aa49-cb16f79d828f {
        fill: #753932;
      }

      .uuid-7843c115-9d7b-4c29-a650-5ae77a738f25 {
        fill: #96553d;
      }

      .uuid-d0b6f33d-da8c-494f-894b-305d80cd97ae {
        fill: #453458;
      }

      .uuid-ef9152a5-2582-4826-a55f-37f6779d886c {
        fill: #dddaee;
      }

      .uuid-1bbda230-dd61-448d-a867-c37d6981f2f3 {
        fill: #534048;
      }
    </style>
  </defs>
  <g id="uuid-e78b5368-ed40-436b-b04e-76978e28a3a8" data-name="Les_personnages">
    <g id="uuid-d1109e70-ac94-4b22-bb2e-c1bd5c504b96" data-name="Chara_x5F_HommeTel_x5F_BD">
      <path class="uuid-484215dd-2f97-42d7-aa49-cb16f79d828f" d="M12.57,7.97c.63-.27,1.4-.05,1.92.37.98.79,2.29,4.65,2.41,4.93.18.41.32,1.64.84,1.66,1.2.04,4.12-.19,4.55.01.3.14-.05,1.79-.15,1.82-.26.08-2.24.55-2.97.71-.26.06-2.32.33-2.81.22-1.45-.34-1.79-2.56-2.12-3.25-.15-.32-1.67-3.72-1.75-4.25-.15-.94-.42-.98-.54-1.26-.16-.39.27-.81.61-.95"/>
      <path class="uuid-12fe8f20-3b1d-4749-8996-2ee87fcb0e12" d="M21.85,18.29c.39-.06,1.45-.5,1.45-.5.16,0,.31-.11.35-.27l1.24-3.99c-.08-.38-.3-.51-.54-.48-.4.06-1.1.34-1.56.46-.16.04-.31.11-.35.27-.26,1-.76,3.01-1.02,4.01-.06.23.18.53.42.5"/>
      <path class="uuid-6392c32c-603a-48ce-8896-ecbaf216b4f1" d="M22.01,18.25c.39-.06,1.11-.31,1.52-.46.16-.06.31-.11.35-.27l1.01-3.81c.06-.23-.11-.49-.35-.46-.39.06-1.01.31-1.52.46-.16.05-.31.11-.35.27-.25.95-.76,2.86-1.02,3.81-.06.23.12.49.35.46"/>
      <path class="uuid-ef9152a5-2582-4826-a55f-37f6779d886c" d="M12.77,10.08c-.14-.96-.41-.99-.52-1.28-.15-.39.26-.82.59-.97.61-.27,1.36-.05,1.87.38.88.75,2.04,4.18,2.3,4.89-.54.83-1.36,1.44-2.26,1.93-.11-.23-.19-.45-.28-.63-.15-.32-1.62-3.78-1.7-4.32"/>
      <path class="uuid-484215dd-2f97-42d7-aa49-cb16f79d828f" d="M24.43,14.69c.42-.02.42.48.21.56-.21.08-.79-.11-.78-.45,0-.28.3-.09.57-.1"/>
      <path class="uuid-484215dd-2f97-42d7-aa49-cb16f79d828f" d="M24.51,17.06c.28-.05.29-.53.19-.58-.06-.03-.16-.01-.22-.01-.16,0-.32-.06-.46-.15-.06-.04-.11-.09-.18-.11-.06-.02-.14-.02-.19.04-.22.23.14.57.25.66.29.24.49.18.62.16"/>
      <path class="uuid-484215dd-2f97-42d7-aa49-cb16f79d828f" d="M24.83,15.96c-.1-.24-.29.04-.73-.25-.06-.04-.12-.08-.18-.11-.06-.02-.14-.01-.19.05-.22.23.15.56.26.65.52.41,1.02.09.84-.35"/>
      <path class="uuid-484215dd-2f97-42d7-aa49-cb16f79d828f" d="M24.83,15.4c-.16-.16-.22-.08-.61-.2-.59-.19-.61.42.11.61.04.01.24.07.3.07.25.01.37-.3.21-.47"/>
      <path class="uuid-8180f237-9c61-4d2f-b891-ffeb29ac8c15" d="M17.39,49.93c.01-.21-.05-.3-.2-.44-.26-.27-.58-.47-.91-.64-.46-.23-1.18-.31-1.58-.6-.23-.17-1.11-1.15-1.15-1.48l-2.22.03c-.15.17-.28.36-.4.56-.35.63-.47,1.5-.13,2.16.39.73,1.28.65,1.99.75.55.08,1.01.32,1.44.65.4.31.98.54,1.48.61.34.05.7.01.98-.18.29-.2.44-.54.57-.87.07-.17.13-.35.14-.54"/>
      <path class="uuid-8180f237-9c61-4d2f-b891-ffeb29ac8c15" d="M3.09,37.02c.08.02.16.06.22.13.19.24.18.73.14,1.02-.06.56-.25,1.11-.28,1.67-.02.3,0,.61.03.91.03.4.07.81.1,1.21.02.34-.11.59-.36.83-.07.07-.16.13-.26.15-.08.01-.16,0-.24-.02-.44-.11-.86-.3-1.23-.56-.19-.13-.37-.28-.47-.49-.09-.18-.1-.38-.11-.58-.02-.42-.05-.86.04-1.27.07-.34.1-.63.05-.98-.04-.28-.13-.54-.17-.82-.04-.28-.04-.57.08-.82.11-.22.31-.38.52-.52.22-.15.56-.38.85-.34.26.03.54.28.78.38.1.04.21.05.32.08"/>
      <path class="uuid-58e023f8-b8be-4b30-9b77-a45257d7538b" d="M6.17,11.17c1.46-.58,2.78-1.44,4.06-2.37.03-.29.03-.58-.02-.87-.08-.45-.31-.9-.71-1.13-.3-.18-.67-.22-1.02-.17-.35.05-.68.18-1,.32-1.1.48-2.14,1.09-3.09,1.82-.46.36-.86.74-1.13,1.2.82.9,1.96,1.57,2.91,1.2"/>
      <path class="uuid-d0b6f33d-da8c-494f-894b-305d80cd97ae" d="M6.17,11.17c-.95.37-2.09-.3-2.91-1.2-.2.35-.32.74-.33,1.21-.03,2.11.09,4.42-.25,6.5-.15.9-.2,1.76-.08,2.6.12.88.42,1.73.99,2.56.16.23.34.46.58.61.21.12.44.18.68.22.34.07.69.12,1.03.16.22.02.45.04.65-.04.22-.09.38-.28.54-.47,1.35-1.64,1.8-2.99,2.06-5.06.19-1.52.36-3.05.48-4.58.05-.69,0-1.45.15-2.12.16-.74.31-1.49.42-2.25.02-.17.05-.33.06-.5-1.28.93-2.6,1.79-4.06,2.37"/>
      <path class="uuid-c0740c5e-376d-486b-b11f-13f71e37c60c" d="M14.87,27.83c-.5,2.46-.34,10.65-2.72,9.84-.75-.25-1.97-1.68-1.98-3.34,0-.89.1-2.84.11-3.73.02-1.85-1.67-8.13,2.17-9.02.58-.13,1.52-1.19,1.98-.76.09.09.38.5.56,1.36.1.49.13,1.23.17,1.89.08,1.12,0,2.41-.28,3.77"/>
      <path class="uuid-c0740c5e-376d-486b-b11f-13f71e37c60c" d="M13.18,35.81c.01.32-.08.6-.38.7-.33.12-.75.15-1.1.24-.81.2-1.62.4-2.43.6-1.1.27-2.2.58-3.32.77-.91.15-1.76.47-2.69.58-.14.02-.28.03-.41,0-.16-.04-.3-.13-.43-.23-.45-.38-.74-1.1-.62-1.69.12-.6.78-.86,1.24-1.11,1.61-.85,4.63-1.76,6.35-2.35.85-.29,1.77-.29,2.58.3.62.45,1.07,1.18,1.2,1.96.01.08.02.16.02.24"/>
      <path class="uuid-1bbda230-dd61-448d-a867-c37d6981f2f3" d="M8.69,23.01c2.15-.44,2.43-.13,3.49-1.49.35.62.48,1.29.76,1.93.27.59.7,1.1.91,1.72.22.62.18,1.32-.08,1.93-.4.91-1.6.97-1.35,2.16.42,1.99,1.38,4.67,1.28,6.72-.02.48-.05.96-.07,1.44,0,.15-.02.31-.05.46-.06.25-.21.46-.35.68-.15.23-.32.48-.58.59-.18.08-.39.09-.59.08-.44-.04-1.47-.16-2.18-.81-.64-.58-1.68-4.9-2.11-6-.23-.58-.45-1.16-.71-1.73-.24-.53-.53-1.03-.72-1.59-.38-1.15-.54-2.37-.45-3.58.03-.48.11-.96.31-1.39.19-.41.53-.8.96-.96.46-.17,1.03-.06,1.51-.16"/>
      <path class="uuid-e446f121-e251-4a85-9da7-dd7f770ef1ec" d="M15.48,25.65c-.15.4-.51.47-.86.59-.38.13-.73.35-1.12.49-1.18.42-2.38.84-3.63.83-.69,0-1.37-.14-2.05-.28-.51-.1-1.02-.21-1.53-.31-.14-.03-.49-.03-.59-.14-.11-.12-.06-.5-.05-.65.03-.8.13-1.6.29-2.38.08-.37.17-.74.23-1.11.02-.11.03-.22.05-.32.03-.23.05-.47.06-.7.02-.47,0-.95-.02-1.42-.02-.31-.05-.61-.08-.92-.11-1.11-.38-2.2-.8-3.23-.55-1.32-1.34-2.8-.88-4.27.22-.68.74-1.22,1.31-1.66.19-.15.38-.28.57-.41.2-.14.44-.28.72-.43,1.02-.55,2.5-1.17,3.95-1.63.29-.09.62-.19.95-.25.14-.02.28-.04.43-.05.32-.01.64.03.93.17.59.3.87.98,1.1,1.56.45,1.13.46,2.34.5,3.55,0,.15,0,.31.01.46h0c.02,1.04,0,2.08,0,3.13,0,.18,0,.37,0,.55,0,2.74.32,5.49.54,8.22.02.21.03.43-.04.62"/>
      <path class="uuid-58e023f8-b8be-4b30-9b77-a45257d7538b" d="M9.71,16.77c-.27,1.25-.78,2.44-1.4,3.55-.16.29-.33.58-.54.84-.38.47-.92.89-1.46,1.16-.03.01-.05.02-.07.03-.58.2-.41-.98-.41-1.33,0-.13,0-.25.05-.37.05-.11.14-.19.23-.27.05-.05.11-.1.17-.16,1.13-1.11,1.88-2.6,2.1-4.17.23-1.65-.14-3.37-1.01-4.78-.2-.33-.48-.66-.82-.86-.19-.11-.55-.13-.71-.28.19-.15.38-.28.57-.41.2-.13.44-.28.72-.43.3.14.58.38.78.56,1.85,1.74,2.34,4.5,1.82,6.9"/>
      <path class="uuid-58e023f8-b8be-4b30-9b77-a45257d7538b" d="M14.98,16.26c-.08-.06-.13-.25-.16-.32-.11-.23-.22-.47-.32-.7-.31-.71-.59-1.43-.86-2.16-.28-.78-.55-1.56-.82-2.34-.26-.76-.52-1.52-.8-2.27-.11-.31-.24-.61-.08-.94.02-.03.04-.06.06-.09.09-.1.24-.15.36-.09.02.01.05.03.07.05.04.04.08.09.11.14,1.13,1.71,1.96,3.62,2.43,5.61h0c.02,1.04,0,2.08,0,3.13"/>
      <path class="uuid-1bbda230-dd61-448d-a867-c37d6981f2f3" d="M13.7,35.26c.35,2.06-.05,6.24-.07,8.07,0,.9-.01,1.8.01,2.7.02.63.31,1.73-.21,2.21-.19.18-.44.28-.69.37-.3.1-.63.18-.94.09-.84-.23-1.04-1.19-1.3-1.89-.3-.82-.56-1.66-.69-2.53-.27-1.85-.28-4.88-.36-6.74-.02-.56,1.49-.86,1.69-.78.65.25,2.51-1.73,2.55-1.5"/>
      <path class="uuid-484215dd-2f97-42d7-aa49-cb16f79d828f" d="M4.39,22.35c.83-1.93,1.72-4.62,2.31-6.98l-3.18-2.44c-.17.46-.25,1.01-.37,1.44-.51,1.75-1.35,5.63-1.61,7.44-.11.75.79-.64,1.14.05.16.31-.13.7.2.81.43.15,1.35.08,1.52-.32"/>
      <path class="uuid-484215dd-2f97-42d7-aa49-cb16f79d828f" d="M.84,25.76c-.07.68-.08,2.5-.03,2.84.05.33.27.67.6.73.3.06.52.58.71.33.13-.17.21-.92.42-1.74.44-1.65,1.14-4.02,1.85-5.58.27-.59.65-1.8.18-2.24-1.06-1-2.67-.55-2.84.51-.14.84-.65,2.61-.89,5.14"/>
      <path class="uuid-ca9e7bd6-bfbb-464f-b661-6398cd399dc8" d="M2.93,14.18s.02-.05.03-.08c.21-.64.35-1.41.81-1.94.61-.71,1.34-1.66,2.41-1.42.85.19,1.03,1.17,1.08,1.8.06.83-.19,1.66-.28,2.48-.1.93-.23,1.85-.4,2.77-.03.16-.07.34-.2.44-.07.05-.15.08-.24.1-.37.1-.75.17-1.13.11-.21-.03-.41-.1-.62-.17-.59-.2-1.18-.41-1.77-.61-.15-.05-.31-.11-.39-.25-.08-.14-.06-.31-.04-.47.16-.96.44-1.86.74-2.78"/>
      <path class="uuid-484215dd-2f97-42d7-aa49-cb16f79d828f" d="M2.73,27.25c.06-.17-1.03.6-1.23.55-.17-.04-.36.03-.48.15-.34.34-.57.68-.74,1.13C.11,29.55.01,30.04,0,30.54c0,.12.02.26.13.3.07.02.16-.01.23.02.13.07.06.27.08.41.03.23.4.3.52.1.01.19.04.4.17.53.14.13.41.12.47-.06-.06.2.08.44.29.49.2.05.43-.1.48-.31.03-.15-.03-.31-.05-.47-.07-.6.48-1.09.59-1.68.07-.41.01-.8-.31-1.07-.23-.19-.02-1.11.14-1.57"/>
      <path class="uuid-484215dd-2f97-42d7-aa49-cb16f79d828f" d="M2.75,29.09c.33.52.53,1.46.39,2.06-.02.1-.05.19-.12.27-.07.07-.17.12-.26.09-.09-.03-.15-.12-.16-.22-.02-.09,0-.19.02-.28,0-.02.02-.05.04-.05-.18-.35-.35-.7-.53-1.05l.62-.83Z"/>
      <path class="uuid-484215dd-2f97-42d7-aa49-cb16f79d828f" d="M8.13,9.13c-.07,2.26,4.16,2.29,4.1.17-.08-2.95-.26-3.29-1.66-3.75-.38-.13-.78-.22-1.18-.23-1.47-.03-.9.72-.85,1.24.16,1.54-.39,1.76-.41,2.57"/>
      <path class="uuid-7843c115-9d7b-4c29-a650-5ae77a738f25" d="M13.68,2.05c.29.47.46,1.01.46,1.58,0,.25-.04.49-.13.73-.08.22-.22.43-.22.67,0,.28.2.6.29.86.08.24.13.51.04.75-.05.14-.15.25-.23.37-.37.59-.02,1.45-.67,1.87-.16.11-.35.13-.55.14-.24.01-1.33-.29-1.75-.48-.46-.2-.92-.73-1.25-1.11-.26-.3-.7-.68-.87-1.04-.05-.11.07-.13-.04-.18-.07-.03-.15-.46-.22-.47-.09-.01-.21-.11-.29-.16-.15-.1-.22.26-.26.09-.2-.71-.46-1.44-.43-2.2.03-.69.01-1.28.46-1.87.33-.44.81-.76,1.33-.96.79-.3,1.68-.32,2.48-.04.76.26,1.43.78,1.85,1.45"/>
      <path class="uuid-beedf20e-9ecf-4299-9903-cfd9148ac1cf" d="M11.07,2.68c-.19-.03-.39-.03-.57.05-.3.14-.48.46-.53.79-.11.72.14,1.45.16,2.17,0,.11,0,.22-.06.31-.14.26-.41.12-.57-.05-.1-.1-.17-.23-.27-.33-.09-.11-.21-.2-.35-.23-.22-.04-.4.14-.43.34-.03.19,0,.38.05.56.01.04.11.37-.03.38-.14,0-1.33-1.23-1.39-3.33-.05-2.01,1.34-2.39,1.34-2.39C8.43.97,9.04-.07,10.66,0c.85.04,1.69.32,2.41.77.03.02.06.04.09.06.35.23.68.5.91.85.62.96-.22,1.73-1.22,1.57-.47-.08-.91-.29-1.37-.45-.13-.05-.27-.09-.4-.11"/>
      <path class="uuid-7843c115-9d7b-4c29-a650-5ae77a738f25" d="M8.67,4.85c-.6-.04-.75.7-.34,1.27.12.17.33.32.49.45,1.07.91,1.34-.07,1-.38-.79-.72-.4-1.29-1.15-1.34"/>
      <path class="uuid-484215dd-2f97-42d7-aa49-cb16f79d828f" d="M9.03,6.27c-.07-.06-.75-.46-.29-.74.13-.08.27.04.29.17.01.07-.01.14,0,.21,0,.04.02.08.05.12.06.1.27.19.23.34-.04.13-.24-.07-.28-.1"/>
    </g>
  </g>
</svg>