<?xml version="1.0" encoding="UTF-8"?>
<svg id="Calque_2" xmlns="http://www.w3.org/2000/svg" viewBox="0 0 16.08 47.34">
  <defs>
    <style>
      .cls-1 {
        fill: #383432;
      }

      .cls-2 {
        fill: #00656e;
      }

      .cls-3 {
        fill: #fff;
      }

      .cls-4 {
        fill: #009283;
      }

      .cls-5 {
        fill: #c37763;
      }
    </style>
  </defs>
  <g id="_Éléments_Mise_en_page" data-name="Éléments_Mise_en_page">
    <g>
      <path class="cls-3" d="M14.07,44.05s-.17.96-1.12,1.22c-.36.1-.84.05-1.12.45-.28.39.66.64.66.64,0,0,.94.13,1.5.01.5-.11,2.07-1.05,2.07-1.05,0,0,.17-.56-.45-1.35l-1.54.09Z"/>
      <path class="cls-2" d="M12.15,8.46l-.98,7.04-.05,3.4s2.52-.8,2.32-2.07c-.84-5.28-1.29-8.38-1.29-8.38"/>
      <path class="cls-3" d="M4.44,45.7l-1.51-.31s-1.49.05-1.66.03c-.15-.01-1.69-.22-1.17.67.11.18.44.38.81.57,0,0,2.06.65,2.3.66.22.02,1.12.12,1.36-.49.02-.05.02-.11.01-.16l-.15-.97Z"/>
      <path class="cls-4" d="M12.45,35.16l-.55-9.4c.29-1.62.16-3.28-.38-4.83l-.22-.64-5.59,2.06,4.09,13.38,4.28,8.32s.81.73,1.54-.09c0,0-1.28-4.45-1.8-5.9-.27-.74-1.35-2.89-1.35-2.89"/>
      <path class="cls-4" d="M5.09,21.74l-2.88,11.25c-.15.43-.23.89-.22,1.36l.95,11.05c.14.87,1.33.51,1.52.4.18-.11.73-9.96.38-11.41-.14-.56,3.68-7,3.68-7l3.31-1.11-4.56-3.16-2.17-1.36Z"/>
      <path class="cls-2" d="M12.59,11.22c-.08-.41.23-2.86-1.46-3.38,0,0-1.94.18-4.01.79-1.35.39-1.63,1.97-1.97,2.42-.78,1.04-1.07,1.58-.96,2.03.25.99,1.24,1.97,1.24,1.97l-.24,3.95-.27,3.54s1.56.9,4.53.24c2.97-.65,2.43-.59,2.43-.59l-.59-2.92s1.38-7.65,1.3-8.06"/>
      <path class="cls-5" d="M5.87,10.55c-.46.59-1.44,7.7-1.44,7.7,0,0-2.98,5.07-3.45,5.97,0,0-.8,1.4-.78,1.51.02.12.19,1.13.21,1.24.02.12.39.43.67.5.27.07.89.15.89.15,0,0,.06-.12.03-.24l.2-.06s.44-.05.09-.36l.11-.11s-.01-.25-.24-.31l.12-.88s.16-.64.05-.92l4.27-5.38s1.23-4.78,1.6-6.37c.42-1.77-.36-4.97-2.34-2.44"/>
      <path class="cls-2" d="M5.87,10.55c-.46.59-1.44,7.7-1.44,7.7,0,0-.71,1.21-1.49,2.55.55.35,1.07.76,1.55,1.23l2.11-2.66s1.22-4.78,1.6-6.37c.42-1.77-.36-4.97-2.34-2.44"/>
      <path class="cls-5" d="M7.46,4.95l.62,3.28c-.01.89,2.53.55,2.54-.34l-.18-2.9-2.98-.04Z"/>
      <path class="cls-5" d="M6.38,5.3c-.02,1.37.92,1.98,2.22,2,0,0,2.42-.72,2.43-2.06l.3-2.49-4.91-.89-.04,3.45Z"/>
      <path class="cls-1" d="M7.57.17c-1.08.45-2.77,1.52-1.17,2.67,0,0,.66.17.65,1.22-.01,1.05.51,3.11,1.33,3.77.59.48,2.88-.17,2.88-.17,0,0,1.73.96.17-5.99C11.01-.21,8.33-.15,7.57.17"/>
      <path class="cls-2" d="M4.93,22.55l-3.31,8.82s2.72,1.88,5.15,1.88c2.68,0,6.15-1.91,6.15-1.91l-1.04-9.14s-6.44-1.26-6.96.35"/>
    </g>
  </g>
</svg>