<?xml version="1.0" encoding="UTF-8"?>
<svg id="Calque_2" xmlns="http://www.w3.org/2000/svg" viewBox="0 0 16.76 44.13">
  <defs>
    <style>
      .cls-1 {
        fill: #f08c8e;
      }

      .cls-2 {
        fill: #9fc5e9;
      }

      .cls-3 {
        fill: #f3a3a7;
      }

      .cls-4 {
        fill: #656da4;
      }

      .cls-5 {
        fill: #f08c8d;
      }

      .cls-6 {
        fill: #f3a4a5;
      }

      .cls-7 {
        fill: #401e2e;
      }

      .cls-8 {
        fill: #6b3750;
      }

      .cls-9 {
        fill: #f3a5a8;
      }

      .cls-10 {
        fill: #bdc7e3;
      }

      .cls-11 {
        fill: #e2e4f4;
      }

      .cls-12 {
        fill: #f6f6f7;
      }

      .cls-13 {
        fill: #7f8ec6;
      }
    </style>
  </defs>
  <g id="_Éléments_Mise_en_page" data-name="Éléments_Mise_en_page">
    <g>
      <path class="cls-3" d="M5.31,40.42l-.3-1.84-.39-3.4c-.12-1.02-.14-2.06-.08-3.09.06-.89.35-1.71.55-2.57.11-.47.23-.96.56-1.31.08-.09.18-.18.3-.22.17-.06.36-.03.53.01.38.09.77.25.97.58.21.33.18.76.15,1.15-.25,2.94-.56,5.86-.78,8.82-.06.83-.12,1.67-.18,2.5l-.04.54c0,.13.02.25.08.36-.32.37-.92.43-1.35.15-.09-.06-.19-.07-.27-.05,0-.02,0-.04,0-.07v-1.21l.24-.38Z"/>
      <path class="cls-3" d="M5.01,41.3l.26-.8s-.02-.09-.03-.13c0,0,0,0,.01,0,.12-.1.25-.19.37-.3.49-.07.82.36,1.09.83,0,.2.04,1.56.98,2.42.03.06.06.13.04.19-.02.12-.16.17-.27.19-.39.06-.8-.09-1.06-.38-.38-.43-.55-.85-1.05-1.16-.01,0-.02-.02-.03-.03-.29-.15-.42-.51-.31-.84"/>
      <path class="cls-13" d="M4.91,40.97s0,0,0-.01c.01-.04.03-.06.03-.06h0c.1-.23.31-.43.31-.43,0,0,.04,1.43.81,2.05.73.58,1.12.75,1.51.6.14.21.49.71.36.88-.07.08-.22.1-.37.09l-.05.05s-1.46-.11-2.11-1.78c-.01-.01-.03-.03-.04-.04h0c-.05.38-.06.62-.1.89-.09.12-.2.09-.29-.01-.03-.3.06-.58-.06-1.14-.13-.59-.05-.94,0-1.08"/>
      <polygon class="cls-3" points="5.1 29.52 4.8 21.13 9.7 20.21 7.61 29.74 5.1 29.52"/>
      <path class="cls-5" d="M8.08,18.93l2.74-.74c.56,2.36,2.76,6.22,2.88,8.11.16,2.53-.03,2.88-.3,6.04-.11,1.3-.26,4.38-.09,5.66.16,1.16.84,2.14,1.47,3.09.04.06.08.12.07.19,0,.12-.13.2-.24.23-.39.12-.82.03-1.12-.22-.45-.38-.68-.77-1.23-1-.01,0-.02-.01-.04-.02-.31-.11-.5-.44-.44-.79l.14-.84c-1.65-7.24-.94-11.35-.94-11.35,0,0-2.82-7.97-2.89-8.34"/>
      <path class="cls-4" d="M11.62,39.15s0,0,0-.01c0-.04.02-.07.02-.07h0c.07-.25.25-.48.25-.48,0,0,.26,1.43,1.12,1.93.82.48,1.24.59,1.61.38.18.19.6.64.5.83-.05.1-.21.13-.36.15l-.04.06s-1.49.11-2.39-1.47c-.02-.01-.03-.02-.05-.04h0c0,.39.03.63.03.91-.07.14-.19.12-.29.03-.08-.3-.02-.59-.23-1.13-.22-.58-.2-.94-.17-1.09"/>
      <path class="cls-10" d="M15.92,16.23s-.03-.04-.05-.06c-.26-.27-.51-.56-.79-.83-.95-.92-1.99-1.75-3.03-2.56-.55-.43-1.63-1.44-2.17-.44-.55,1.02,1.32,1.97,1.96,2.4.23.15.46.3.68.45.86.57,1.71,1.12,2.62,1.62.13.07.26.14.4.15.42.04.62-.42.38-.74"/>
      <path class="cls-3" d="M16.43,16.63c.16.26.3.6.32.91.01.13-.01.27-.09.38-.03.04-.07.07-.11.08-.07.01-.13-.04-.18-.09-.22-.2-.48-.55-.73-.69-.09-.05-.19-.08-.27-.14-.14-.11-.29-.33-.4-.47-.13-.16-.15-.32-.03-.51.47-.76,1.2.06,1.5.54"/>
      <path class="cls-10" d="M9.24,12.15c-.46-1.5-.86-3.06-1.04-4.6-.21-1.83,1.35-2.33,2.22-.58.31.62.41,1.31.46,1.98.06.72.47,4.81-1.07,4.22-.35-.13-.48-.71-.57-1.02"/>
      <path class="cls-6" d="M4.69,18.03c-.08.24-.13.48-.14.69-.15,2.56.25,4.53.6,7.06.1.73-.02,2.48.63,2.94.82.58,1.86-.05,2.08-.91.27-1.06.18-2.43.22-3.54.05-1.2.14-3.22.05-4.42-.08-1.17-.36-3.61-2.28-3.14-.55.14-.95.72-1.15,1.31"/>
      <path class="cls-7" d="M11.56,27.64c.37-.18.72-.38,1.03-.59.19-.13.37-.26.47-.46.24-.47-.1-1.01-.33-1.47-.67-1.33-.59-2.91-1.04-4.33-.15-.48-.32-1.03-.4-1.53-.22-1.38.08-3.61-2.02-3.35-1.51.18-3.01.45-4.51.67-.3.04-.62,1.65-.68,1.9-.24.95-.37,1.94-.39,2.93,0,.33,0,.66.01.99,0,0,0,0,0,0,0,1.48.01,2.95.03,3.66,0,.34.11.67.31.92.41.52,1.28,1.31,2.93,1.56,1.41.22,3.19-.21,4.59-.88"/>
      <path class="cls-11" d="M11.14,17.59c-.03.06-.1.11-.17.14-1.11.63-2.98,1.26-4.54,1.08-.64-.07-1.22-.28-1.67-.68-.9-.79-.6-1.69-.59-2.82.01-1.58-.16-3.16-.53-4.7-.23-.98-1.37-1.94-1.09-2.86.05-.17.15-.34.32-.51.34-.34.8-.55,1.24-.75,1.46-.65,3.53-1.51,5.09-.67,1.53.82,1.34,3.66,1.2,5.1-.08.9-.2,1.9-.02,2.8.21,1.01.42,2.02.63,3.03.04.19.08.38.12.57.02.08.03.18,0,.26"/>
      <path class="cls-10" d="M5.19,18.36c-.01-.32-.02-.64-.03-.96-.02-.75-.04-1.5.03-2.25.09-.97.33-1.93.75-2.81-.03-.42-.07-.84-.1-1.26-.08-1.03-.28-2.68-1.23-3.34-.64-.45-1.46-.38-2.05.02-.28.92.85,1.88,1.09,2.86.37,1.54.54,3.12.53,4.7,0,1.13-.31,2.03.59,2.82.13.11.28.21.43.3,0-.02,0-.05,0-.07"/>
      <path class="cls-7" d="M10.95,27.7c3.38-1.01,2.96-1.61,2.96-1.61l-2.62-6.85-1.86.51.51,4.48.17,3.38.85.08Z"/>
      <path class="cls-12" d="M6.22,6.85c-.04-.08-.1-.16-.12-.25,1.22.97,1.43,2.93,1.59,4.37.23,2.1.47,4.19.7,6.29.39-.12.78-.25,1.17-.37-.31-2.45-.48-4.92-.51-7.39-.01-.98-.01-2.01-.47-2.87-.46-.86-1.56-1.47-2.44-1.05-.3.15-.56.43-.56.77,0,.37.32.56.64.51"/>
      <polygon class="cls-7" points="8.39 17.25 8.41 19.25 10.44 18.91 9.56 16.88 8.39 17.25"/>
      <path class="cls-11" d="M.56,13.24c.15-.04.33-.11.55-.24.32-.18.56-.46.8-.74.6-.7,4.81-5.32,2.18-5.37-1.03-.02-2.08,1.25-2.47,1.98-.13.24-.26.48-.39.72-.3.57-2.14,4.01-.67,3.64"/>
      <path class="cls-11" d="M4.8,15.59c.01-.28-.42-.73-.53-.84-.57-.61.1.07-.52-.49-.38-.34-2.17-2.4-2.63-2.56-.42-.14-.89.18-1.02.6-.13.42.04.89.31,1.23.28.34.65.59,1.02.83.84.54,1.77.9,2.68,1.33.17.08.38.17.55.08.09-.04.12-.11.13-.18"/>
      <path class="cls-11" d="M6.53,18.59s-.08-.01-.1-.05c-.42-.86-1.3-1.91-2.06-2.19-.21-.08-.35-.09-.42-.04-.15.12-.11.61-.05,1.03,0,.05-.03.1-.08.11-.05,0-.1-.03-.11-.08-.09-.73-.06-1.06.12-1.2.17-.13.41-.07.6,0,.83.31,1.73,1.41,2.16,2.29.02.05,0,.1-.04.13-.01,0-.02,0-.03,0"/>
      <polygon class="cls-2" points="6.95 28.37 1.08 24.57 1.1 16.54 7.01 19.75 6.95 28.37"/>
      <polygon class="cls-4" points="2.1 16.08 1.1 16.54 7.1 19.88 8.23 18.86 2.1 16.08"/>
      <polygon class="cls-13" points="8.23 18.86 9.29 27.24 6.96 28.38 7 19.75 8.23 18.86"/>
      <path class="cls-11" d="M5.62,19.28c-.06,0-.11-.04-.11-.09,0-1.41-.41-2.46-1.08-2.74-.29-.12-.55-.02-.72.08-.42.27-.71.88-.72,1.52,0,.05-.05.09-.1.09-.05,0-.09-.04-.09-.1.01-.71.33-1.36.81-1.67.29-.19.6-.22.89-.1.75.32,1.2,1.41,1.2,2.92,0,.05-.04.09-.08.09"/>
      <path class="cls-1" d="M5.28,16.83c-.12-.11-.34-1.41-.49-1.67-.65-1.14-1.63.62-1.45,1.34.18.73,1.68.85,1.69.88,0,0-.05-.19-.12-.32-.06-.12-.2-.35-.2-.35,0-.07.04-.25.14-.25,0,0,.15.12.2.17.09.07.15.15.22.21"/>
      <path class="cls-1" d="M7.9.81l-.06.83-.2,2.64-.04.47-.07.9h0l-.06.78s-.09.04-.27.06c-.16.02-.39.04-.68,0-.61-.06-1.31-.59-1.31-.71,0-.12.17-.58.17-.58l1.15-4.12c.53-.11.8-.42,1.37-.28"/>
      <path class="cls-9" d="M8.1.85l-.18,1.16s0,0-.02-.01c0,.04,0,.08-.02.12-.03.08-.07.16-.11.24-.06.12-.11.25-.17.37-.03.07-.08.12-.14.16.13.1.24.15.24.15l-.27.45c-.16.12-.32.22-.5.3.06.07.13.14.19.2.15.14.32.27.49.38h0c.8.13,1.11-.18,1.11-.18.8-1.65-.62-3.34-.62-3.34"/>
      <path class="cls-8" d="M8.3,1.89s-.04.03-.06.05c0,0,0,0,0,0l.06-.06Z"/>
      <path class="cls-8" d="M8.92.26c-.32-.39-1.16-.26-1.62-.11-.64.21-1.23.16-1.7.75-.69.88.17,1.79-.02,2.7-.03.17-.12.34-.07.51.04.14.18.23.32.27.31.09.66-.02.92-.21.26-.2.45-.47.64-.73.2-.28.63-.53.63-.9,0-.03,0-.06,0-.09.06-.17.12-.35.23-.5l-.31.28s0-.01-.01-.02c.11-.09.22-.17.33-.26.02-.02.03-.04.05-.06.25-.3.58-.46.66-.9.05-.24.12-.53-.03-.72"/>
      <path class="cls-8" d="M3.05,9.03c.48-.82,1.02-1.72,1.21-2.6.2-.95.16-2.13.18-3.1.02-.83.03-2.33,1.11-2.5.57-.09,1.93.2,2.26.74.43.7-.38.85-.71,1.3-.41.57-.55,1.49-.42,2.15.14.68.43,1.35.38,2.04-.09,1.17-1.19,1.95-1.35,3.07-.13.94.03,1.78-.32,2.71-.08.2-.17.41-.34.55-.18.15-.43.21-.68.22-.65.03-1.31-.25-1.74-.74-.43-.49-.63-1.17-.53-1.82.09-.54.37-1.03.64-1.51.09-.17.19-.34.3-.51"/>
      <path class="cls-9" d="M7.08,3.62c-.22-.14-.31-.41-.2-.6.11-.19.38-.24.6-.1.22.14.31.41.2.6-.11.2-.38.24-.59.1"/>
    </g>
  </g>
</svg>