<?xml version="1.0" encoding="UTF-8"?>
<svg id="uuid-68191f3e-f123-421b-944f-08d2400d35f2" data-name="Calque_2" xmlns="http://www.w3.org/2000/svg" viewBox="0 0 24.56 56.26">
  <defs>
    <style>
      .uuid-67e00aed-7dba-4f47-b5fd-db0210f0e23a {
        fill: #f1c200;
      }

      .uuid-8d82e174-1536-4f07-8e97-32fee0dc271f {
        fill: #fff;
      }

      .uuid-a25ac20f-3a29-466a-b4fa-a959a48c774d {
        fill: #009d4a;
      }

      .uuid-28143436-5576-4794-af34-66c369a6b6dc {
        fill: #f3aac6;
      }

      .uuid-ebd3b8a1-a5a1-4169-8074-1ec2e18034e4 {
        fill: #302879;
      }

      .uuid-b40871bd-e4dc-4112-95b2-7d0394937796 {
        fill: #e53b11;
      }
    </style>
  </defs>
  <g id="uuid-b200aacc-9f5a-4092-b4ff-9031479fa299" data-name="Les_personnages">
    <g id="uuid-e9126187-a727-480d-b9a0-b16297b78f82" data-name="Chara_x5F_FemmePanier_x5F_BG">
      <path class="uuid-28143436-5576-4794-af34-66c369a6b6dc" d="M24.56,42.22c0,.05,0,.1-.01.16-.09.82-.25,1.61-.76,2.27-.83,1.07-1.17.59-1.07-.49,0-.02,0-.04,0-.06.18-1.83-.68-2.07-2.14-2.61-.9-.34-1.79-.67-2.69-1.01l-3.4-1.39c-.85,1.13-1.46,2.3-1.57,2.6.05.33.42,1.65.35,3.37-.34,2.57-1.44,5.04-2.06,7.59-.01.36-.04.71-.11,1.04-.03.14-.06.27-.1.4-.03.09-.08.19-.14.29-1.04.66-2.33,1.42-3.12,1.88-.4-.18-.35-.52-.12-.92.1-.17.23-.33.38-.48.37-.39.82-.76.99-1.19.13-.33.15-1.25.15-1.37.07-1.59.44-9.61.48-11.35.02-.99.84-3.76,1.66-6.31-1.23-3.54-.82-6.46-.81-6.5l.02-.12,3.33-1.83,3.35,1.6-.04.19c-.03.14-.06.29-.09.43.86-.11,1.65-.08,2.14.24.34.23.52.57.52,1.02.01,1.17-.48,2.61-1.16,3.99-1.31-.52-2.44,1.5-1.23,2.49.15.28.41.52.78.66.07.03.15.05.22.08,2.01,1.5,3.91,3.14,5.92,4.64.08.15.15.31.21.47.03.07.06.15.08.22"/>
      <path class="uuid-28143436-5576-4794-af34-66c369a6b6dc" d="M5.02,23.54c-.32-.61.18-2.22.31-2.85.35-1.74.68-3.49.88-5.26.12-1.04-.1-2.96.87-3.66.7-.5,1.64.08,1.94.8.36.87-.07,2.28-.03,3.22.1,2.41-.59,4.85-1.94,6.85-.23.34-.49.68-.84.88-.68.39-1.03.33-1.18.03"/>
      <path class="uuid-28143436-5576-4794-af34-66c369a6b6dc" d="M.1,27.68c.03-.14.07-.26.1-.35.53-1.47,2.15-2.28,3.1-3.43.67-.81,1.58-2.19,2.62-2.51,1.09-.33,1.55.58,1.05,1.51-.26.49-.71.85-1.14,1.21-1.31,1.08-3.56,2.34-4.39,3.76-.21.36-.42,1.37-1.02,1.28-.55-.07-.47-.92-.34-1.47"/>
      <path class="uuid-a25ac20f-3a29-466a-b4fa-a959a48c774d" d="M4.6,36.98c.08.35.21.68.41.95.94,1.28,4.15,2.66,5.7,2.8,1.48.14,4.75-.28,6.02-1.03,2.04-1.21,4.11-2.65,5.39-4.69,1.32-2.11-.26-3.09-1.24-5.11-.71-1.48-1.4-2.97-2.32-4.34-1-1.48-2.57-3.6-2.68-5.43-.11-2,1.05-4.49.81-6.45-.16-1.34-1.07-2.32-2.31-2.74-.14-.05-.29-.1-.44-.16-.98-.38-2.17-.92-3.13-1.01-.99-.09-2.15.19-3.08.77-.89.55-1.56,1.38-1.67,2.43-.26,2.58.84,5.29.6,7.91-.33,3.78-1.32,7.47-1.67,11.25-.12,1.31-.75,3.35-.41,4.85"/>
      <path class="uuid-67e00aed-7dba-4f47-b5fd-db0210f0e23a" d="M17.96,20.37c-.22-.79-.55-1.52-1.09-2.08-1.34-1.38-2.35-1.72-4.08-.76-.83.46-1.53,1.16-2.22,1.76-1.92,1.66-2.69.93-1.85,3.03.77,1.9,1.9,5.17,3.27,6.8.58.69,1.6.62,2.65.44.99-.17,3.44-.87,3.89-1.84.31-.66-.09-2.81-.13-3.57-.07-1.17-.12-2.56-.45-3.79"/>
      <path class="uuid-28143436-5576-4794-af34-66c369a6b6dc" d="M10.58,27.39c-.12-.1-.24-.24-.36-.44-.64-1.03-.1-1.18.63-1.58.28-.15.63-.06.96-.27.4-.25,1.07-1.03,1.44-1.34,2.13-1.82,3.37-3.13,4.73-2.97.93.11,1.72.92,1.4,1.85-.24.71-1.34,1.16-1.94,1.46-1.49.73-3.07.92-4.41,1.96-.8.62-1.61,2.04-2.45,1.33"/>
      <path class="uuid-28143436-5576-4794-af34-66c369a6b6dc" d="M7.65,11.44c0,1.24.11,2.63,1.49,2.94,2.68.6,3.53-1.96,4.82-3.61-.98-.38-2.16-.92-3.13-1.01-.99-.09-2.15.19-3.08.77-.06.26-.1.56-.1.91"/>
      <path class="uuid-28143436-5576-4794-af34-66c369a6b6dc" d="M10.47,11.58h0c.79,0,1.43-.64,1.43-1.43v-2.09c0-.79-.64-1.43-1.43-1.43s-1.43.64-1.43,1.43v2.09c0,.79.64,1.43,1.43,1.43"/>
      <path class="uuid-28143436-5576-4794-af34-66c369a6b6dc" d="M12.48,5.29c.14.43.21.87.25,1.32,0,.03,0,.07,0,.1.03.43.03.87.04,1.32,0,1.87-2.65.82-3.44.19-3.14-2.51,3.14-2.93,3.14-2.93"/>
      <path class="uuid-ebd3b8a1-a5a1-4169-8074-1ec2e18034e4" d="M10.57,3.6c-.84-.51-1.43.08-1.67.9-.21-.18-.47-.24-.79-.1-.36.16-.53.59-.58,1.03-.08.62.41,3.73,1.48,3.03.33-.22.51-.85.55-1.56.87.39,2.73.15,3.06-.83.4-1.17-1.24-1.98-2.05-2.47"/>
      <path class="uuid-28143436-5576-4794-af34-66c369a6b6dc" d="M9.85,7.48c.06-.2-.11-.43-.32-.47-.21-.04-.43.1-.52.29-.09.19-.08.42,0,.62.03.07.07.15.13.2.18.15.47.05.61-.14.14-.19.16-.43.18-.67l-.1.16Z"/>
      <path class="uuid-ebd3b8a1-a5a1-4169-8074-1ec2e18034e4" d="M5.1.91c2.11-3.22,3.44,3.13,4.16,3.37.56.18-.54,1.17.01.56-.13-.26-.34-.35-.53-.44-1.47.27-4.61-2-3.64-3.48"/>
      <path class="uuid-ebd3b8a1-a5a1-4169-8074-1ec2e18034e4" d="M9,21.29c.52.31,1.02.66,1.54.98.67.41,1.52.39,2.16-.07,1.15-.82,2.49-1.68,3.17-2.73.41-.62.42-1.91-.13-2.47-1.27-1.28-3.52.07-4.65.78-.7.44-2.35,1.73-2.45,2.69-.09.87.52.91,1.31,1.32.19-.05.29-.18-.96-.5"/>
      <path class="uuid-b40871bd-e4dc-4112-95b2-7d0394937796" d="M12.17,18.52c-.51-.57-1.71-.64-2.24-.08-.1.1-.18.22-.24.35-.32.53-.31,1.44-.08,1.89.37.72,1.63,1.03,2.23.44.56-.54.88-1.97.32-2.6M11.79,19.04s-.03-.07-.05-.1c-.04-.07-.1-.13-.15-.19.09.05.17.11.23.19l-.02.1Z"/>
      <path class="uuid-b40871bd-e4dc-4112-95b2-7d0394937796" d="M13.51,16.34c-.3-.57-1.17-.53-1.72-.48-.63.06-.98.66-.83,1.25.1.42.44.71.84.85.17.08.35.11.54.1.54,0,1.04-.27,1.14-.88.13-.27.17-.57.03-.84"/>
      <path class="uuid-b40871bd-e4dc-4112-95b2-7d0394937796" d="M15.01,18.99c.02-.15.03-.29,0-.42,0-.13-.04-.25-.1-.35-.09-.2-.26-.35-.55-.38-.24-.03-.45.02-.62.11-.5.07-.85.41-1.01.85-.19.38-.25.85-.16,1.32.08.43.34.91.8,1.02.5.12.94-.26,1.21-.65.28-.4.37-.87.41-1.35,0-.06.01-.11.01-.17"/>
      <path class="uuid-b40871bd-e4dc-4112-95b2-7d0394937796" d="M14.5,16.25c-.11,0-.24.08-.26.2,0,.03,0,.06-.01.09-.09.05-.16.11-.21.2-.13.24,0,.52.16.71.18.2.44.36.71.39.1.01.22,0,.33-.03.06,0,.12,0,.18-.03.07-.02.12-.06.16-.1.1-.01.18-.09.21-.19.24-.72-.65-1.25-1.27-1.25"/>
      <path class="uuid-8d82e174-1536-4f07-8e97-32fee0dc271f" d="M11.7,16.37c0,.14-.11.25-.25.25s-.25-.11-.25-.25.11-.25.25-.25.25.11.25.25"/>
      <path class="uuid-8d82e174-1536-4f07-8e97-32fee0dc271f" d="M11.66,19.73c0,.16-.12.28-.28.28s-.28-.12-.28-.28.12-.28.28-.28.28.12.28.28"/>
      <path class="uuid-8d82e174-1536-4f07-8e97-32fee0dc271f" d="M13.55,19.24c0,.19-.15.34-.34.34s-.34-.15-.34-.34.15-.34.34-.34.34.15.34.34"/>
      <path class="uuid-8d82e174-1536-4f07-8e97-32fee0dc271f" d="M14.8,17.16c0,.12-.09.21-.21.21s-.21-.09-.21-.21.09-.21.21-.21.21.09.21.21"/>
      <path class="uuid-28143436-5576-4794-af34-66c369a6b6dc" d="M16.47,12.35c.33.5.61,1.17.78,1.6.71,1.73,1.38,3.6,1.74,5.47.23,1.2,1.11,4.41-.77,3.5-1.05-.51-2.08-4.22-2.9-6.95-.27-.9-.8-2.72-.36-3.65.5-1.05,1.05-.67,1.51.03"/>
      <path class="uuid-a25ac20f-3a29-466a-b4fa-a959a48c774d" d="M11.11,53.69c-.03.14-.06.27-.1.4-.03.09-.08.19-.14.29-1.04.66-2.33,1.42-3.12,1.88-.4-.18-.35-.52-.12-.92.1-.17.23-.33.38-.48.02,0,.04,0,.06,0,.04-.02.07-.03.1-.03.09-.02.16.01.22.06.36-.04.66-.02.99-.12.23-.11.47-.22.7-.34.25-.14.48-.31.73-.46.04-.05.09-.1.11-.15.04-.08.11-.12.19-.13"/>
      <path class="uuid-a25ac20f-3a29-466a-b4fa-a959a48c774d" d="M24.56,42.22c0,.05,0,.1-.01.16-.09.82-.25,1.61-.76,2.27-.83,1.07-1.17.59-1.07-.49.08-.03.18-.04.27-.02,0,0,0,0,0,0,.37.07.74-.15.9-.5.11-.24.21-.48.32-.72.13-.3.2-.61.27-.92.03.07.06.15.08.22"/>
    </g>
  </g>
</svg>