<?xml version="1.0" encoding="UTF-8"?>
<svg id="Calque_2" xmlns="http://www.w3.org/2000/svg" viewBox="0 0 21.08 51.62">
  <defs>
    <style>
      .cls-1 {
        fill: #383432;
      }

      .cls-2 {
        fill: #db3236;
      }

      .cls-3 {
        fill: #fff;
      }

      .cls-4 {
        fill: #e4f1ed;
      }

      .cls-5 {
        fill: #009283;
      }

      .cls-6 {
        fill: #008f74;
      }

      .cls-7 {
        fill: #d78470;
      }

      .cls-8 {
        fill: #bccdc5;
      }

      .cls-9 {
        fill: #f7b900;
      }
    </style>
  </defs>
  <g id="_Éléments_Mise_en_page" data-name="Éléments_Mise_en_page">
    <g>
      <path class="cls-9" d="M12.46,50.05l-1.83-2.58-1.99-.06s-.22,1.17-.28,1.6c-.06.43,2,2.1,2.5,2.38.51.29,2.16.29,2.39,0,.27-.33.03-.81-.8-1.35"/>
      <path class="cls-7" d="M12.46,50.05l-1.83-2.58-1.99-.06s-.22,1.17-.28,1.6c-.06.43,2,2.1,2.5,2.38.51.29,2.16.29,2.39,0,.27-.33.03-.81-.8-1.35"/>
      <path class="cls-5" d="M12.46,50.05l-.03-.04c-.68.17-1.39.47-2.06.08-.5-.29-1.55-1.37-1.91-2.12-.05.26-.07.89-.09,1.05-.06.43,2,2.1,2.5,2.38.51.29,2.16.29,2.39,0,.27-.33.03-.81-.8-1.35"/>
      <path class="cls-7" d="M5.86,44.1l-.78-.57-.69-1.99-1.78-.51s-1.14,1.21-.93,1.63c.21.42,1.58,1.64,2,2.05.4.4,1.35.85,2.77.6.11-.02.19-.12.17-.23-.06-.24-.23-.66-.75-.99"/>
      <path class="cls-7" d="M15.85,21.89s-.42.18-.75.33c0,.33-.04.67-.15.98.33.38.74.9.41.85.31.05-.25.36-.25.36,0,0,.04.27.2.24,0,0,.47.38.76.23l.36-.25c.29-.25.71-.98.55-1.2-.13-.18-1.08-1.53-1.13-1.54"/>
      <path class="cls-3" d="M16.32,24.16h0c-.37,0-.7.13-.95.38-.47.47-.66,1.35-.54,2.47l.35-.03c-.11-1.01.05-1.82.45-2.22.18-.18.41-.28.68-.28h0c.81,0,1.71,1.46,1.88,3.05l.35-.03c-.18-1.61-1.12-3.34-2.23-3.34"/>
      <polygon class="cls-6" points="18.43 27.79 18.8 38.92 21.08 37.89 20.4 27.37 18.43 27.79"/>
      <polygon class="cls-8" points="11.31 25.37 18.43 27.79 20.4 27.37 13.35 24.88 11.31 25.37"/>
      <polygon class="cls-4" points="13.31 26.08 18.43 27.79 20.4 27.37 13.35 24.88 13.31 26.08"/>
      <path class="cls-3" d="M15.37,24.26c-1.12-.18-1.94.7-2.26,2.39l.35.06c.28-1.49.95-2.27,1.85-2.12.78.12,1.21,1.74.9,3.4l.35.05c.32-1.68-.08-3.6-1.19-3.77"/>
      <polygon class="cls-6" points="11.31 25.37 11.08 35.12 18.8 38.92 18.43 27.79 11.31 25.37"/>
      <path class="cls-5" d="M5.94,44.16c-.05.27-.31.45-.62.38-1.38-.31-2.75-1.64-3.18-2.95-.23.33-.56.88-.46,1.07.21.42,1.58,1.63,2,2.05.4.4,1.36.85,2.77.6.11-.02.19-.12.17-.23-.05-.23-.21-.61-.67-.93"/>
      <path class="cls-9" d="M7.6,24.25l-.46,9.07-4.51,7.46c.1,1.57,1.93,1.11,1.93,1.11l6.11-6.38s1.06-4.65,1.26-6.22c.28-2.19.11-6.01.11-6.01l-4.45.97Z"/>
      <path class="cls-9" d="M9.39,24.03l-5.7-.56s-.96,2.28.74,6.04c1.13,2.5,3.71,7.79,3.71,7.79,0,0-.36,2.19-.28,2.93.38,3.87.73,7.38.73,7.38,0,0,.83.66,2.04-.13l.74-10.62-1.97-9.04v-3.78Z"/>
      <path class="cls-9" d="M10.74,35.66c.06.43-.05.83-.28,1.19-.03,1.69-.09,3.39-.13,5.06-.05,1.96-.2,3.99-.69,5.94.28-.03.62-.14.98-.37l.74-10.62-.94-4.31c.04,1.04.17,2.08.32,3.11"/>
      <path class="cls-7" d="M15.93,22.06l-2.45-5.46s-2.01-7.87-2.14-8.26c-.2-.6-1.54-1.66-3.11-.51,0,0,.14.62.97,2.77.83,2.14,2.43,6.49,2.43,6.49l3.05,5.33-.08.62c-.03.34,0,.84.14,1.15l.26.56.99.55s-.02-.15-.19-.41c-.09-.14-.19-.35-.24-.45,0,0,.23-.37,1.19-.22.02,0-.77-2.15-.81-2.16,0,0-.01,0-.03,0"/>
      <path class="cls-2" d="M8.24,7.82s.14.62.97,2.77c.6,1.56,1.61,4.28,2.12,5.65.68-.17,1.31-.38,1.87-.77-.56-2.19-1.75-6.84-1.85-7.14-.2-.6-1.54-1.67-3.1-.51"/>
      <path class="cls-2" d="M12.45,13.01l-.69-1.82-.69-1.6c-.12-.48-.05-1.11-.15-1.43-.21-.73-.7-.83-.7-.83,0,0-.13-.08-.55-.11-1.39-.1-4.06-.4-6.49,2.17-.21.22-.56.59-.65.9-.52,1.69,1.55,3.6,1.85,8.61.01.17,0,.33-.04.49l-.99,4.13c3.55,2.53,8.91-.31,8.91-.31l-1.08-4.41.59-3.52s1.1-.74.69-2.24"/>
      <path class="cls-7" d="M7.4,7.04c-1.09-.19-1.84.82-1.84.82,0,0,0,.79,1.65,1.27,1.38.4,1.87-.14,2.03-.39.15-.25-.15-1.41-1.84-1.7"/>
      <path class="cls-7" d="M6.05,6.16c.12.73-.5,1.71-.5,1.71l2.95.83c.35-.8.31-2.81.31-2.81l-2.77.27Z"/>
      <path class="cls-7" d="M4.76,2.74l.41,2.57c.33,1.45,2.83,2.14,2.83,2.14,1.47.36,2.1-.98,2.1-2.38l-.17-3.18-5.18.84Z"/>
      <path class="cls-1" d="M7.25,0c-3.34,0-3.61,2.74-3.65,3.49-.04.66-.2,5.71-.2,5.71l2.26-1.51s.39-.65.39-1.09l-.12-2.74s2.46.35,4.43-1.05c0,0,.6-2.81-3.11-2.81"/>
      <path class="cls-7" d="M3.35,9.6c-.23,0-.43.14-.53.34-.2.39-.58,1.21-1.04,2.65-.71,2.18-1.48,5.59-1.48,5.59,0,0-.03.53-.06,1.09-.02.48.02,4.82.03,5.96v.02c0,.17,0,.26,0,.26l-.28,2.25.25.81.59.46s.25.33.29.39c.12.2.4.18.36-.06l-.02-.24v-.64s.32-.83.32-.83c0,0,.01,0,.02,0l.03.7c.17.58.34.49.34.49l.17-1.77-.67-1.82s.49-4.76.86-6.49c0,0,2.51-6.45,2.61-6.85.1-.38-.06-2.39-1.79-2.32"/>
      <path class="cls-2" d="M3.35,9.6c-.23,0-.43.15-.53.34-.2.39-.58,1.21-1.04,2.65-.54,1.67-1.12,4.08-1.37,5.1.24.27.55.5.9.67.15.03.31.05.46.06.43.02.73-.1,1.01-.29.64-1.65,2.27-5.88,2.36-6.2.1-.38-.06-2.39-1.79-2.32"/>
    </g>
  </g>
</svg>