<?xml version="1.0" encoding="UTF-8"?>
<svg id="Calque_2" xmlns="http://www.w3.org/2000/svg" viewBox="0 0 34.71 56.21">
  <defs>
    <style>
      .cls-1 {
        fill: #f1c200;
      }

      .cls-2 {
        fill: #5f2816;
      }

      .cls-3 {
        fill: #f3aac6;
      }

      .cls-4 {
        fill: #f18b6a;
      }

      .cls-5 {
        fill: #302879;
      }

      .cls-6 {
        fill: #56adad;
      }

      .cls-7 {
        fill: #e53b11;
      }

      .cls-8 {
        fill: #1d1a30;
      }
    </style>
  </defs>
  <g id="_Éléments_Mise_en_page" data-name="Éléments_Mise_en_page">
    <g>
      <path class="cls-2" d="M3.67,17.78c-.12-.91-.92-2.56-2.12-2.28,0-.03-.01-.07-.02-.1-.12-.63-1.2-.4-1.28.13-.42,2.98.43,5.97,1.34,8.86.53,1.68.47,5.33,2.88,6.11.35-4.13-.25-8.59-.8-12.72"/>
      <path class="cls-8" d="M1.47,16.01s0-.03.01-.04c.03-.08.07-.14.13-.19.04-.14.08-.28.1-.42.04-.21.29-.36.5-.38.22-.02.47.08.57.27.15.29.19.56.21.87.03.32-.13.59-.44.74-.36.17-.7.04-.97-.19-.18-.16-.19-.46-.12-.66"/>
      <path class="cls-2" d="M7.23,3.67c.09-1.05.91-2.05,2.04-1.63,1.28.47,2.25,3.43.34,3.63-1.82.19-2.47-.94-2.38-2"/>
      <path class="cls-2" d="M8.43,4.34c.11.04.21.11.29.2.22.05.42.18.54.4.32.09.59.37.62.79.05.65.15,1.75-.22,2.4-.04.4-.46.63-.83.62-.14.04-.28.05-.41.02-.02,0-.05.02-.07.02-.47.44-1.39.12-1.43-.64-.06-1.06.1-2.13-.04-3.18-.13-.98,1.14-1.45,1.56-.63"/>
      <path class="cls-5" d="M11.11,5.21c-.13-.41-.26-.81-.42-1.2-.44.26-1,.32-1.49.18-.07-.02-.14-.03-.2-.03.08-.19.15-.37.2-.52.17-.55.15-.81.48-1.26.39-.53,1.7-1.66.61-2.26-.91-.5-1.59.7-2.24,1.09-.38.23-.85.39-1.21.64-1.17.84-.97,2.11-.67,3.31.5,2.01,1.57,1.13,2.32-.04.26.19.49.41.76.62.42.34.85.58,1.31.66.24-.09.45-.27.5-.54.11-.18.14-.4.07-.64M9.15,2.59h-.06s0,0,0,0c.02,0,.04,0,.06,0"/>
      <path class="cls-5" d="M1.93,50.47c.8.06,1.57-.14,2.28-.41-.01.2-.02.47-.07.7,2.15-.47,2.02.27.45,1.16-.48.27-1.45.74-1.97.68-.62-.08-.82-.69-.8-1.21-.02-.24,0-.55.1-.93"/>
      <path class="cls-3" d="M24.44,36.1c-.16-.49-.28-1.02-.82-1.18-.46-.14-2.04-1.01-2.43-.77-.39.23-.64-.9-.87-.53-.4.64.48,4.99.38,5.73-.11.89-.09,2.14-.05,4.36.02,1.03.6,1.78-.27,2.42-.76.56-1.57,1.23-2.2,1.94-.48.55-1.87,1.87-2.63,3.05.23,0,.46.1.62.26.21.2.33.47.4.74.06.24.09.48.09.73.1-.23-.04.28,0,0,.1-.77,1.3-1.32,1.63-1.52,1.49-.9,2.67-1.95,3.94-3.09.77-.69,1.26-1.42,1.48-2.36,0-.03.01-.06.02-.09.22-1.02.6-1.9.83-2.92.24-1.08.25-5.66-.11-6.76"/>
      <path class="cls-5" d="M16.48,51.22c-.37-.78-1.28-.07-1.33.65-.03.4,0,.8.08,1.2.08.39.19.77.32,1.15.09.26.26.56.53.53.26-.02.38-.34.43-.59.16-.81.27-1.94.04-2.75-.02-.07-.04-.13-.07-.19"/>
      <path class="cls-3" d="M26.86,49.56c.28,1.21.68,2.34,1.28,3.42.28.52.58,1.02.86,1.54.11.19.28.57.48.92.03.05.05.09.08.13.57-.02,1.08-.41,1.42-.94-.01,0-.03.01-.04.02,0,0,0-.01,0-.02,0,0,0,.02,0,.03-.91-4.29-1.4-8.71-1.46-13.08-.01-.75-.01-1.51-.22-2.24-.21-.73-.67-1.43-1.4-1.83-1.59-.86-2.96.16-3.07,1.59-.1,1.38,1.35,3.87,1.75,5.18.38,1.27.04,3.97.33,5.28"/>
      <path class="cls-5" d="M32.35,54.33c-.21-.03-.33-.02-.53.04-.02,0-.03,0-.05.01-.09.02-.17.04-.26.06-.14.03-.29.06-.41.11-.38.15-.61.5-.98.56-.14.08-.26.15-.44.2-.07.02-.15.03-.22.04.01.03.03.07.06.09-.01.03-.02.05-.02.08.03.4.23.59.51.62.02.01.04.03.07.04.32.15.73-.17.98-.34.29-.19.71-.45,1.01-.77.14-.1.26-.22.38-.37.09-.11.09-.34-.1-.37"/>
      <path class="cls-3" d="M25.03,39.51c-.9-.18.76,1.46,0,0,0,0,0,0,0,0h0"/>
      <path class="cls-7" d="M29.03,26.24c-.1-.48-.18-.95-.23-1.41-.24-2.32.33-5.42-.84-7.51-.6-1.07-2.01-2.53-3.41-2.67-.95-.76-2.12-1.2-3.14-.54-1.45.93-1.63,2.89-1.69,4.46-.07,1.97-.03,3.84-.3,5.8-.22,1.6,0,3.18-.13,4.76-.18,2.14-.55,4.37-.94,6.49-.26,1.42-.9,3.39.14,4.57,2.49,2.83,8.31,3.98,11.68,2.26,1.91-.97,1.28-4.86,1.04-6.51-.2-1.4-.53-2.68-.96-4.03-.61-1.9-.83-3.73-1.22-5.66"/>
      <path class="cls-3" d="M28.58,22.36c0-.37-.01-.74-.02-1.12-.02-1.23-.15-3.07-1.63-3.4-2.57-.57-.07,7.34.13,8.22.18.78,0,2.46.92,2.83,1.51.61,1.13-2.04.97-2.74-.29-1.29-.35-2.51-.38-3.78"/>
      <path class="cls-5" d="M33.7,32.78c-.78-.75-1.27-.05-2.07.89-1.1.9-2.43,2.07-2.91,3.35-.6.66.54,1.83.82,2.49,1,2.35,2.24-.21,3.24-1.38.46-.44.91-.88,1.37-1.31.89-.85.58-2.65-.06-3.56-.14-.2-.27-.36-.4-.48"/>
      <path class="cls-3" d="M31.56,33.52c-.13-.31-.28-.6-.43-.87-.67-1.72-1.5-3.4-1.9-5.21-.17-.75-1.13-2.23-1.89-1.04-.6.94.52,2.98.95,3.81.81,1.55,1.71,3.03,2.67,4.25.32.4.88-.26.59-.96"/>
      <path class="cls-3" d="M30.76,33.25c-.14.38-.06,1.02.06,1.38.41,1.21,1.71,1.87,1.58.06-.05-.66-.22-1.11-.75-1.5-.52-.38-.78-.25-.9.07"/>
      <path class="cls-4" d="M25.4,8.75c-.12-.29-.47-.42-.76-.37-.76.12-.76,1.07-.74,1.65.02.6,0,1.46.31,2,.09.16.22.27.38.33.12.24.37.41.7.37.88-.1.98-.88.86-1.6-.14-.8-.43-1.64-.75-2.39"/>
      <path class="cls-4" d="M22.89,12.49c.06-.29.18-.54.38-.7.3-.24.74-.32,1.1-.18,1.22.45.76,1.5.74,2.36,0,.31,0,.61,0,.92,0,.27-.21.45-.47.51-.39.42-1.28.42-1.48-.26-.17-.6-.44-1.82-.26-2.66"/>
      <path class="cls-1" d="M24.52,8.15c-.56.14-1.17.5-1.57,1.02-1,1.29-1.35,2.99-2.27,4.33-1.36,1.98-3.13,4.7-2.6,7.27.17.85.74,2.81,1.61,3.22,2.7,1.27,4.42-5.32,4.83-6.79.41-1.5-.23-3.04.17-4.53.26-.95,2.48-5.17-.16-4.51"/>
      <path class="cls-2" d="M24.97,23.78c-.78.05-1.52,1.05-.75,1.61.49.36,1.62.56,1.96-.1.44-.85-.4-1.57-1.21-1.51"/>
      <path class="cls-5" d="M1.34,17.64c.34.16.69.29,1.07.39l.46,7.87v.07s.01.12.01.12l.09,1.6c1.33.65,2.97.66,4.4.82,2.17.26,4.36.43,6.54.54.29-.2.61-.25.92-.2.08-.01.16-.02.24-.02,0-.55.03-1.1.08-1.66.1-1.21.28-2.42.29-3.64,0-.23.05-.42.12-.59.06-1.45.07-2.95-.04-4.2-.01-.14.11-.26.24-.3.4-.09.79-.22,1.18-.36.6-.2.89-.82.67-1.38-.54-1.37-.67-2.85-1.28-4.22-.47-1.05-1.23-1.97-2.11-2.77-1.39-1.26-3.11-2.26-5.02-2.64-4.22-.85-7.93,1.05-8.69,4.91-.04.22-.39,2.14-.42,2.36-.07.43-.17,1.53.02,2.24l-.11.09s.12.75,1.34.96"/>
      <path class="cls-2" d="M25.73,24c-1.81-.09-4.07.04-5.62-.99-1.65-1.1-1.95-4.02-2.43-5.89-.46.8-1.64,1.29-2.77,1.4-.03.04-.84-.12-.87-.09.25,1.8.13,4.94,1.65,6.23,2.08,1.76,6.4,1.2,8.91,1.02.71-.05,1.25-.68,1.16-1.39-.01-.11-.03-.21-.05-.28"/>
      <path class="cls-6" d="M2.71,25.94c-.09-.08-.19-.16-.28-.24.14.1.26.17.35.22-.02,0-.05.01-.08.02"/>
      <path class="cls-6" d="M2.87,25.97s-.06-.03-.09-.05c.03,0,.05-.02.08-.02.05-.01.1-.03.14-.05.15.13.21.29-.14.12"/>
      <path class="cls-7" d="M15.19,40.01c.04.32-.71,2.3-.8,2.48-.8,1.73-1.86,3.32-2.81,4.96-.67,1.17-1.77,2.62-1.52,4.02,0,.03-.05.05-.04.07,0,.02-.05.03-.05.05h0c0,.2.18.39.28.58.19.34.73.55.47.91-.82,1.15-2.55-1.27-2.84-1.92-.06-.15-.14-.33-.15-.49,0-.09.02-.19.02-.28,0-.13,0-.24.05-.36.08-.23.18-.62.37-.84,0,0,0-.01,0-.02.02-.29.08-.6.18-.91.79-2.6,1.46-5.07,2.92-7.42h0c-.29-.89-1.45-5.38-2.11-8.47l-.67-.41c-.23,1.75-1.12,7.58-2.14,9.07,0,.1,0,.21-.02.33-.27,1.71-.66,3.42-1.05,5.12-.33,1.44-.75,3.02-1.28,4.46-.71.39-1.47.4-2.15.21-.04-.52.05-1.27.09-1.81.07-.93.2-1.86.38-2.79.33-1.72.49-3.43.78-5.14.41-2.38-.21-5.02-.27-7.34-.03-1.5-.03-3.01.1-4.54.03-.35.03-.83.09-1.28-.03-.02-.05-.04-.05-.04l-.12-2.12c2.62,2.12,5.65,2.27,8.87,1.83.95-.13,1.86-.43,2.81-.6.11-.02.34-.09.59-.14-.08.89-.11,1.77-.03,2.66,0,.08.02.15.04.23.04,2.88.1,7.97.04,9.94"/>
      <path class="cls-5" d="M4.27,51.03s0,0,0-.01c0,0,0,.01,0,.01Z"/>
      <path class="cls-5" d="M10.26,52.16c-.11-.19-.28-.38-.28-.58h0s.06-.04.05-.05c0-.02,0-.05,0-.07-.2-.16-.36-.35-.52-.59-.32-.49-.38-1.16-.89-1.54-.13-.1-.27-.15-.43-.18,0,0,0,.01,0,.02-.19.22-.29.61-.37.84-.04.12-.04.23-.05.36,0,.09-.02.19-.02.28,0,.16.09.34.16.49.29.65,1.99,3.07,2.8,1.92.25-.36-.26-.57-.45-.91"/>
    </g>
  </g>
</svg>