<?xml version="1.0" encoding="UTF-8"?>
<svg xmlns="http://www.w3.org/2000/svg" xmlns:xlink="http://www.w3.org/1999/xlink" viewBox="0 0 40.37 39.49">
  <defs>
    <style>
      .uuid-507f763b-1006-4aee-b7bf-585902fb14ae {
        fill: #d8ddee;
      }

      .uuid-0baef18b-ef2f-49f1-be33-0d62f6cbb721 {
        fill: #b4d5f1;
      }

      .uuid-dc67109f-ed92-4963-ac13-f6bfa618e26a {
        clip-path: url(#uuid-8b39392c-fb5c-48fd-a152-f2d77936daf9);
      }

      .uuid-3ae31c42-43b1-4aa8-85f8-123234b00d70 {
        clip-path: url(#uuid-df67491b-5882-4195-8e7e-6b486d9b0bc6);
      }

      .uuid-1f82418e-f66d-4168-8724-8354e6145767 {
        mix-blend-mode: multiply;
        opacity: .71;
      }

      .uuid-bd5c984a-739b-406a-a8a9-dbcb1503c0fa {
        fill: #2b3086;
      }

      .uuid-958b0cf5-d5b8-4daf-b456-a2a2fd7aee37 {
        fill: none;
      }

      .uuid-4076de8f-b444-4b80-929b-59f24884351f {
        isolation: isolate;
      }

      .uuid-b2d8d73f-d331-429d-af64-f926f47b053c {
        fill: #d3e4f6;
      }

      .uuid-c406da40-5050-4d4c-b3a3-d876f79bbe6a {
        fill: #466cb2;
      }

      .uuid-256bada3-d193-4348-8ed3-bda7a58bad5b {
        fill: #f3f8fc;
      }

      .uuid-7fb3e4c5-1e22-4e51-9f1c-1fa0bc7fdee0 {
        fill: #ef7f55;
      }

      .uuid-7ba718da-092f-4a58-9742-a0b3cdff7654 {
        fill: #e9edf6;
      }
    </style>
    <clipPath id="uuid-df67491b-5882-4195-8e7e-6b486d9b0bc6">
      <rect class="uuid-958b0cf5-d5b8-4daf-b456-a2a2fd7aee37" x="19.74" y="4.72" width="1.84" height="2.54"/>
    </clipPath>
    <clipPath id="uuid-8b39392c-fb5c-48fd-a152-f2d77936daf9">
      <rect class="uuid-958b0cf5-d5b8-4daf-b456-a2a2fd7aee37" x="19.74" y="4.72" width="1.84" height="2.54"/>
    </clipPath>
  </defs>
  <g class="uuid-4076de8f-b444-4b80-929b-59f24884351f">
    <g id="uuid-55912e56-651b-4b8c-9b37-dc8f82063796" data-name="Calque_2">
      <g id="uuid-9f5c0954-85a4-43bd-8e3c-c229057aafdb" data-name="Les_personnages">
        <g id="uuid-732b59ad-75ae-45ec-87ce-fc3c1c0e3c64" data-name="Chara_x5F_Banc_x5F_BG">
          <path class="uuid-0baef18b-ef2f-49f1-be33-0d62f6cbb721" d="M37.09,30.7L9.29,14.65c-.42-.24-.42-.64,0-.89.42-.24,1.12-.24,1.54,0l27.8,16.05c.42.24.42.64,0,.89-.42.24-1.12.24-1.54,0"/>
          <path class="uuid-0baef18b-ef2f-49f1-be33-0d62f6cbb721" d="M34.1,32.43L6.3,16.38c-.42-.24-.42-.64,0-.89.42-.24,1.12-.24,1.54,0l27.8,16.05c.42.24.42.64,0,.89-.42.24-1.12.24-1.54,0"/>
          <path class="uuid-0baef18b-ef2f-49f1-be33-0d62f6cbb721" d="M31.11,34.15L3.31,18.1c-.42-.24-.42-.64,0-.89.42-.24,1.12-.24,1.54,0l27.8,16.05c.42.24.42.64,0,.89-.42.24-1.12.24-1.54,0"/>
          <path class="uuid-0baef18b-ef2f-49f1-be33-0d62f6cbb721" d="M28.11,35.88L.32,19.83c-.42-.24-.42-.64,0-.89.42-.24,1.12-.24,1.54,0l27.8,16.05c.42.24.42.64,0,.89-.42.24-1.12.24-1.54,0"/>
          <path class="uuid-0baef18b-ef2f-49f1-be33-0d62f6cbb721" d="M37.09,30.7L9.29,14.65c-.42-.24-.42-.64,0-.89.42-.24,1.12-.24,1.54,0l27.8,16.05c.42.24.42.64,0,.89-.42.24-1.12.24-1.54,0"/>
          <path class="uuid-0baef18b-ef2f-49f1-be33-0d62f6cbb721" d="M34.1,32.43L6.3,16.38c-.42-.24-.42-.64,0-.89.42-.24,1.12-.24,1.54,0l27.8,16.05c.42.24.42.64,0,.89-.42.24-1.12.24-1.54,0"/>
          <path class="uuid-0baef18b-ef2f-49f1-be33-0d62f6cbb721" d="M31.11,34.15L3.31,18.1c-.42-.24-.42-.64,0-.89.42-.24,1.12-.24,1.54,0l27.8,16.05c.42.24.42.64,0,.89-.42.24-1.12.24-1.54,0"/>
          <path class="uuid-0baef18b-ef2f-49f1-be33-0d62f6cbb721" d="M39.6,19.64L11.8,3.59c-.42-.24-.77-.04-.77.44s.35,1.09.77,1.33l27.8,16.05c.42.24.77.05.77-.44s-.35-1.09-.77-1.33"/>
          <path class="uuid-0baef18b-ef2f-49f1-be33-0d62f6cbb721" d="M39.6,23.09L11.8,7.04c-.42-.24-.77-.04-.77.44s.35,1.09.77,1.33l27.8,16.05c.42.24.77.05.77-.44s-.35-1.09-.77-1.33"/>
          <path class="uuid-0baef18b-ef2f-49f1-be33-0d62f6cbb721" d="M39.6,26.54L11.8,10.5c-.42-.24-.77-.04-.77.44s.35,1.09.77,1.33l27.8,16.05c.42.24.77.05.77-.44s-.35-1.09-.77-1.33"/>
          <path class="uuid-0baef18b-ef2f-49f1-be33-0d62f6cbb721" d="M24.63,39.49h0c-.29,0-.52-.23-.52-.52v-5.71l1.04-.44v6.15c0,.29-.23.52-.52.52"/>
          <path class="uuid-0baef18b-ef2f-49f1-be33-0d62f6cbb721" d="M2.72,26.49h0c-.29,0-.52-.23-.52-.52v-5.71l1.04.52v5.19c0,.29-.23.52-.52.52"/>
          <path class="uuid-0baef18b-ef2f-49f1-be33-0d62f6cbb721" d="M35.9,29.33v4.03c0,.29.23.52.52.52s.52-.23.52-.52v-3.48c-.35-.18-.69-.37-1.04-.55"/>
          <path class="uuid-7fb3e4c5-1e22-4e51-9f1c-1fa0bc7fdee0" d="M13.45,18.85c-.29,0-.58-.13-.76-.39-.31-.42-.21-1.01.21-1.31l4.02-2.93c.42-.31,1.01-.21,1.31.21.31.42.21,1.01-.21,1.31l-4.02,2.93c-.17.12-.36.18-.55.18"/>
          <path class="uuid-7fb3e4c5-1e22-4e51-9f1c-1fa0bc7fdee0" d="M17.09,16.28c-.06,0-.13,0-.19-.02-.6-.1-1-.67-.89-1.27l1.11-6.36c.1-.6.67-1,1.27-.89.6.1,1,.67.89,1.27l-1.11,6.36c-.09.53-.56.91-1.08.91"/>
          <path class="uuid-507f763b-1006-4aee-b7bf-585902fb14ae" d="M19.28,8.94l-.94,5.08c-.18.37-.57.6-1,.6-.06,0-.12,0-.19-.02-.01,0-.02,0-.04,0-.58-.11-.96-.64-.86-1.2l.94-5.08c.21-.42.69-.67,1.19-.59.59.1,1,.64.89,1.2"/>
          <path class="uuid-507f763b-1006-4aee-b7bf-585902fb14ae" d="M17.35,14.79c-.07,0-.14,0-.22-.02,0,0-.02,0-.04,0-.66-.13-1.1-.75-.98-1.38l.94-5.11v-.02c.25-.49.81-.76,1.36-.67.34.06.64.24.83.51.18.26.25.57.19.87l-.94,5.1v.02c-.21.42-.66.69-1.15.69M17.35,8.38l-.93,5.06c-.09.47.23.92.73,1.01h.02c.07.02.12.02.17.02.36,0,.69-.19.84-.5l.93-5.06c.04-.22,0-.45-.14-.64-.14-.21-.36-.34-.62-.39-.41-.07-.83.13-1.01.48"/>
          <path class="uuid-bd5c984a-739b-406a-a8a9-dbcb1503c0fa" d="M12.4,31.9c.24,0,.46.19.55.41.09.23.1.48.1.72,0,.21,0,.45-.16.6-.1.1-.24.14-.37.17-.25.07-.5.14-.76.16-.29.03-.59,0-.88.04-.18.03-.36.09-.55.13-.51.12-1.06.11-1.57-.04-.11-.03-.23-.08-.31-.17-.12-.15-.08-.39.04-.54.12-.15.31-.24.49-.32.54-.25,1.07-.49,1.61-.74.52-.24,1.07-.49,1.65-.5.18,0,.43.08.41.26l-.25-.19Z"/>
          <path class="uuid-507f763b-1006-4aee-b7bf-585902fb14ae" d="M11.87,32.81l.27-.02c.29-.02.51-.28.49-.58l-.11-1.3c-.02-.29-.28-.51-.58-.49l-.27.02c-.29.02-.51.28-.49.58l.1,1.3c.02.29.28.51.58.49"/>
          <path class="uuid-bd5c984a-739b-406a-a8a9-dbcb1503c0fa" d="M12.44,34.28c-.09.21-.19.41-.28.62-.09.21-.18.42-.25.65-.1.33-.29.98-.05,1.28.35.45.93.06,1.22-.26.43-.48.83-1,1.19-1.55.16-.24.31-.49.36-.79.15-.91-.29-2.21-1.21-1.91-.34.11-.48.4-.56.77-.09.42-.25.8-.42,1.18"/>
          <path class="uuid-507f763b-1006-4aee-b7bf-585902fb14ae" d="M13.56,33.76h.27c.3,0,.53-.24.53-.53v-1.31c0-.29-.24-.53-.53-.53h-.27c-.3,0-.53.24-.53.53v1.31c0,.3.24.53.53.53"/>
          <path class="uuid-bd5c984a-739b-406a-a8a9-dbcb1503c0fa" d="M19.43,17.46l-2.13-.59-.56,1.12-6.47,3.18c-.55.22-.87.8-.77,1.38l.1.63h0s1.17,8.04,1.17,8.04c.05.36.35.64.72.67l.39.03c.47.03.87-.35.84-.82l-.33-6.93.05.02,5.72-3,.03.1-.16.13.18-.07v.03c-1.24.88-2.81,2.17-4.19,3.26-.25.2-.43.48-.51.79-.05.19-.1.39-.08.48l-.81,6.47c.03.42.39.74.81.74h.56c.45,0,.81-.36.81-.81l1.3-5.15,7.9-4.42c.58-.36.95-.97,1-1.65l.1-2.79-5.68-.82Z"/>
          <path class="uuid-7ba718da-092f-4a58-9742-a0b3cdff7654" d="M25.03,20.36c-.52.48-1.5.49-2.51.28-1.09-.22-2.23-.69-2.87-1.08-.15-.09-1.87-.88-2.59-1.32-.2-.12-.27-.36-.18-.58.89-2.12,1.48-4.73.76-6.88-.14-.41-.26-.83-.34-1.23v-.27.23c-.23-1.19-.06-2.29,1.28-3.08.25-.15.6-.21,1-.21.18,0,.36,0,.55.04,2.56.47,3.91,1.29,4.68,2.55.52.84.77,1.89.96,3.15.27,1.89.23,7.5-.73,8.38"/>
          <path class="uuid-7ba718da-092f-4a58-9742-a0b3cdff7654" d="M17.27,10.28s.02.04.02.06v-.79s0-.02,0-.03l-.02.76Z"/>
          <path class="uuid-7ba718da-092f-4a58-9742-a0b3cdff7654" d="M22.84,7.7c-.42.47-1.02,1.14-1.38,1.55-.16.18-.44.16-.58-.03l-.8-1.12-1.16.21c-.14.02-.27-.08-.27-.23v-.36c0-.79.55-1.48,1.33-1.64.25-.06.53-.08.81-.08.76,0,1.45.22,1.94.56.37.26.42.8.12,1.14"/>
          <path class="uuid-7ba718da-092f-4a58-9742-a0b3cdff7654" d="M25.03,20.36c-.52.48-1.5.49-2.51.28.03-.36.14-.71.3-1.03.85-1.38.96-1.77.79-3.4-.07-.65-.13-1.31.04-1.94.16-.59.54-1.17.43-1.78-.05-.27-.2-.52-.31-.77-.23-.54-.3-1.15-.19-1.72.06-.32.18-.64.41-.86.22-.21.52-.32.82-.32.52.84.77,1.89.96,3.15.27,1.89.23,7.5-.73,8.38"/>
          <path class="uuid-bd5c984a-739b-406a-a8a9-dbcb1503c0fa" d="M21.9,6.86c0,.18-.08.35-.22.49-.22.22-.58.36-.98.36s-.75-.13-.96-.34c-.15-.14-.24-.32-.24-.51s.09-.36.24-.51c.02-.01.03-.03.05-.04,0,0,0,0,0,0,.17-.14.4-.24.66-.28.04,0,.08-.01.12-.01.04,0,.08,0,.13,0,.41,0,.76.14.98.36.14.14.22.3.22.49"/>
          <path class="uuid-7fb3e4c5-1e22-4e51-9f1c-1fa0bc7fdee0" d="M21.68,4.3v3.05c-.22.22-.58.36-.98.36s-.75-.13-.96-.34v-3.07h1.95Z"/>
          <g class="uuid-1f82418e-f66d-4168-8724-8354e6145767">
            <g class="uuid-3ae31c42-43b1-4aa8-85f8-123234b00d70">
              <g class="uuid-dc67109f-ed92-4963-ac13-f6bfa618e26a">
                <path class="uuid-7fb3e4c5-1e22-4e51-9f1c-1fa0bc7fdee0" d="M19.81,7.27l.63-.91.12-.17.85-1.21.17-.25h-.15s-.76.05-.76.05c-.32.33-.66.64-.94,1l.08,1.5Z"/>
              </g>
            </g>
          </g>
          <path class="uuid-7fb3e4c5-1e22-4e51-9f1c-1fa0bc7fdee0" d="M22.17,3.97c0,.11-.14.21-.28.3-.05.03-.09.06-.14.1,0,0,0,0-.01,0-.03.02-.07.05-.09.08-.03.04-.06.07-.07.11-.03.15-.08.29-.14.43-.19.44-.5.8-.88,1.04-.09.05-.17.1-.26.14-.18.08-.37.14-.57.16-.07,0-.15.01-.23,0-.47,0-.95-.21-1.36-.69-.22-.25-.34-.55-.4-.87-.04-.19-.06-.39-.07-.58,0-.23,0-.45,0-.67.02-.35.03-.69.04-1.04,0-.14.01-.28.02-.42-.01-.06-.01-.13,0-.19.04-.18.17-.34.33-.42.25-.13.54-.13.82-.09.57.06,1.13.19,1.63.47.49.28.91.73,1.07,1.27.08.25.58.6.57.87"/>
          <path class="uuid-bd5c984a-739b-406a-a8a9-dbcb1503c0fa" d="M22.73,2.1c-.04-.52-.22-.96-.51-1.3-.27-.31-.63-.53-1.08-.67-.28-.08-.57-.15-.86-.13-.41.03-.78.22-1.18.33-.4.11-.83.14-1.23.28-.39.15-.77.46-.81.88-.04.43.29.83.69,1,.4.17.85.17,1.28.16.29,0,.91-.13,1.17,0,.41.21.26.82.45,1.15.06.1.17.17.28.16.27-.02.36-.39.61-.48.18-.06.38.05.46.22.07.17.03.38-.09.52-.12.16-.35.17-.46.3-.09.1-.06.28-.02.45.03.15.12.29.27.34,1.05.36,1.07-2.72,1.03-3.21"/>
          <path class="uuid-b2d8d73f-d331-429d-af64-f926f47b053c" d="M21.2,22.07l-5.72-3.12-5.38,3.22,6.21,3.55,5.02-3c.07-.05.12-.13.12-.22,0-.18-.1-.34-.26-.43"/>
          <path class="uuid-256bada3-d193-4348-8ed3-bda7a58bad5b" d="M16.08,25.43l-6.21-3.55,5.11-3.06c.16-.1.36-.1.53,0l5.71,3.26c.11.06.11.22,0,.28l-5.14,3.08Z"/>
          <polygon class="uuid-507f763b-1006-4aee-b7bf-585902fb14ae" points="13.23 20.21 18.23 22.9 16.17 24.28 11.33 21.5 13.23 20.21"/>
          <polygon class="uuid-507f763b-1006-4aee-b7bf-585902fb14ae" points="18.8 21.21 16.41 19.74 15.17 20.46 17.61 21.98 18.8 21.21"/>
          <path class="uuid-b2d8d73f-d331-429d-af64-f926f47b053c" d="M16.63,25.09l-.74-5.51c-.02-.13-.1-.25-.21-.31,0,0-2.94-1.68-2.94-1.68l-2.76-1.62c-.07-.04-.15-.06-.22-.05h0s0,0,0,0c-.07,0-.55.28-.55.28l.31.16.72,5.26c.02.13.1.25.22.31l5.48,3.5c.25.15.67-.19.69-.33"/>
          <path class="uuid-c406da40-5050-4d4c-b3a3-d876f79bbe6a" d="M9.59,16.18l2.76,1.62s2.94,1.68,2.94,1.68c.11.07.2.19.21.31l.73,5.36c.04.27-.23.43-.47.29l-5.7-3.3c-.11-.07-.2-.19-.21-.31l-.73-5.36c-.04-.27.23-.43.47-.29"/>
          <path class="uuid-7fb3e4c5-1e22-4e51-9f1c-1fa0bc7fdee0" d="M25.48,10.23v6.11c0,.81-.39,1.58-1.04,2.06l-4.33,3.17c-.2.15-.43.22-.66.22-.35,0-.69-.16-.91-.46-.37-.5-.26-1.2.24-1.57l4.33-3.18c.08-.06.12-.15.12-.25v-6.11c0-.62.5-1.12,1.12-1.12s1.12.5,1.12,1.12"/>
          <path class="uuid-7ba718da-092f-4a58-9742-a0b3cdff7654" d="M24.35,16.9c.57.07,1-.08,1.37-.68v-5.83c0-.87-.56-1.57-1.25-1.57s-1.25.7-1.25,1.57v6.04c.38.24.81.43,1.14.47"/>
          <path class="uuid-7fb3e4c5-1e22-4e51-9f1c-1fa0bc7fdee0" d="M18.64,22.78h0c.2,0,.36-.16.36-.36v-1.49c0-.2-.16-.36-.36-.36s-.36.16-.36.36v1.49c0,.2.16.36.36.36"/>
          <path class="uuid-7fb3e4c5-1e22-4e51-9f1c-1fa0bc7fdee0" d="M11.82,18.63c0,.81.62,1.47,1.39,1.47s1.39-.66,1.39-1.47-.62-1.47-1.39-1.47-1.39.66-1.39,1.47"/>
          <path class="uuid-b2d8d73f-d331-429d-af64-f926f47b053c" d="M16.63,25.09l-.74-5.51c-.02-.13-.1-.25-.21-.31,0,0-2.94-1.68-2.94-1.68l-2.76-1.62c-.07-.04-.15-.06-.22-.05h0s0,0,0,0c-.07,0-.55.28-.55.28l.31.16.72,5.26c.02.13.1.25.22.31l5.48,3.5c.25.15.67-.19.69-.33"/>
          <path class="uuid-c406da40-5050-4d4c-b3a3-d876f79bbe6a" d="M9.59,16.18l2.76,1.62s2.94,1.68,2.94,1.68c.11.07.2.19.21.31l.73,5.36c.04.27-.23.43-.47.29l-5.7-3.3c-.11-.07-.2-.19-.21-.31l-.73-5.36c-.04-.27.23-.43.47-.29"/>
        </g>
      </g>
    </g>
  </g>
</svg>