<?xml version="1.0" encoding="UTF-8"?>
<svg id="Calque_2" xmlns="http://www.w3.org/2000/svg" viewBox="0 0 27.43 48.47">
  <defs>
    <style>
      .cls-1 {
        fill: #fff;
      }

      .cls-2 {
        fill: #f4c900;
      }

      .cls-3 {
        fill: #ebeef8;
      }

      .cls-4 {
        fill: #243268;
      }

      .cls-5 {
        fill: #1397d5;
      }

      .cls-6 {
        fill: #235aa3;
      }
    </style>
  </defs>
  <g id="_Éléments_Mise_en_page" data-name="Éléments_Mise_en_page">
    <g>
      <path class="cls-5" d="M20.29,41.04c.62-.08,1.3-.3,1.39-.8-.04-1.65-.06-3.3.07-4.9.22-2.77-.3-5.61-.64-8.39,0-.05-.01-.1-.02-.16-.05-.44-.1-.88-.16-1.33-.01-.1-.03-.2-.04-.29-.46-3.44-2.26-7.22-4.22-9.79l-6.44.21c-.07-.02-.15-.02-.23,0l-1.18,3.8c-.22.73-.45,2.7-.39,3.46l.94,9c-1.59.77-3.03,2.1-4.42,3.22.29.93.96,1.76,1.74,2.42l4.26-2.11c1.59-.71,2.72-2.12,3.09-3.77h.01s0-.06,0-.06c.08-.38.28-7.32.28-7.32l.74-.18s1.37,7.57,2.29,8.29c.3,2.72.51,5.65,1.05,8.46,1.01.15,1.41.3,1.88.24"/>
      <path class="cls-4" d="M4.95,35.07c-.05.05-.11.09-.16.13-.99.79-1.98,1.58-2.96,2.38-.92.75-1.42,1.19-1.58,2.34-.04.33-.5,2.7-.07,2.88.51.21,1.65-2.74,1.97-3.06l4.54-2.25c-.78-.66-1.45-1.49-1.74-2.42"/>
      <path class="cls-4" d="M23.2,48.18c-.22-1.01-1.34-2.31-1.41-3.2,0-.11-.01-.23-.01-.36,0-1.43-.06-2.91-.09-4.38-.1.5-.77.72-1.39.8-.47.06-.87-.09-1.88-.24.35,1.82.84,3.58,1.59,5.21.04.08.07.15.11.23.88.71,1.85,1.5,2.69,2.18.18.15.45-.01.4-.24"/>
      <path class="cls-6" d="M17.49,3.18c-.87-.77-2.52-1.38-3.13-1.19-.96.31-1.28,1.52-1.74,2.29-.65,1.12-1.28,1.01-2.36,1.51-1,.47-1.17,1.58-1.93,2.27-1.06.96-2.19-.2-3.43.02-1.32.23-2.21,1.37-1.91,2.76.67,3.13,5.41,2.97,7.63,2.17,2.15-.77,3.7-2.29,4.07-4.57.1-.62-.02-1.26.02-1.88.04-.6.39-1.22.39-1.79-.09.09-.17.19-.27.27.93-.32,2.17.32,2.97-.46.44-.43.2-.94-.32-1.41"/>
      <path class="cls-2" d="M26.18,10.24c-.34-.28-.86-.25-1.15.07-.29.28-.57.56-.86.85-.9.81-2.26,1.98-3.08,2.67-.28-1.04-.76-3.22-1.4-4.31-.68-1.16-3.37-2.51-3.08.11,0,.07.02.14.03.21.19,1.28.8,2.44,1.35,3.61.57,1.22.73,2.48,1.78,3.45.38.35.8.64,1.15.64.56,0,1.18-.64,1.6-1.16.03-.05.07-.1.1-.14.09-.12.19-.24.28-.36l.08-.15c1.1-1.51,2.2-3.02,3.3-4.53.23-.3.2-.72-.1-.96"/>
      <path class="cls-2" d="M24.67,11.1h.55v-1.18c-.3,0-.55.24-.55.55v.63Z"/>
      <path class="cls-6" d="M24.8,12.73l.02-.03s.01-.07.02-.11l.56-3.78.07-.11c.38-.22,1.46-.59,1.58-.57.18.03.3.19.27.37l-.12.53-.62,2.92c-.03.15-.13.27-.27.33l-1.39.58-.18.03c-.07.03.05-.07.06-.15h0Z"/>
      <path class="cls-5" d="M24.75,12.88h0c-.18-.03-.3-.19-.27-.37l.78-3.57c.03-.18.19-.29.37-.27.18.03.29.19.27.37l-.78,3.57c-.03.18-.19.29-.37.27"/>
      <path class="cls-2" d="M26.54,11.82l.36-.22c.19-.11.32-.35.36-.62l.16-1.08c.04-.25-.13-.42-.31-.32l-1.02.62c-.22.13-.37.4-.42.71-.1.69.38,1.19.86.9"/>
      <path class="cls-3" d="M9.1,10.73c-.5,1.27-.74,4.59-.14,5.92.9,1.99,7.24,2.46,8.76-.19.76-1.33,1.65-3.14,1.81-4.53.16-1.4.04-2.62-1.11-3.62-.79-.68-1.99-.91-3.15-.91-1.41,0-5.31,1.16-6.17,3.33"/>
      <path class="cls-1" d="M16.05,7.2c-1.23-.18-2.67.51-2.31,1.94.27,1.07,1.54,1.46,2.11.38.21.12.57.31.85.26.51-.09.78-.76.61-1.49-.16-.65-.68-1-1.26-1.09"/>
      <path class="cls-2" d="M17.54,4.87c-.16-.63-.32-1.27-.37-1.47l-2.21.35-.39.68c-.04,1.13-.14,2.26-.13,3.38,0,.79.57,1.41,1.25,1.37.62-.04,1.11-.64,1.11-1.36v-.94c.62-.33.95-1.21.74-2.02"/>
      <path class="cls-2" d="M15.57,5.85c-.18.26-.64.25-1.02-.02-.38-.27-.54-.7-.36-.95.18-.26.64-.25,1.02.02.38.27.54.7.36.95"/>
      <path class="cls-6" d="M18.56,4.11c0,.69-.98,1.25-2.2,1.25s-2.2-.56-2.2-1.25.98-1.25,2.2-1.25,2.2.56,2.2,1.25"/>
      <path class="cls-2" d="M8.34,25.57c0,.48-.39.88-.88.88s-.88-.39-.88-.88.39-.88.88-.88.88.39.88.88"/>
      <path class="cls-2" d="M10.31,14.82c1.2-1.76,1.84-5.61.8-6.06-.41.28-3.5,2.14-4.61,7.04-.65,2.89-.36,5.31-.29,8.19l.05,1.77c.01.49.3.92.73,1.11h.02c.19.1.4.04.54-.1l.17-.03c.21-.04.38-.17.49-.34.25-.17.42-.51.42-.9,0-.36-.14-.68-.36-.86l.69-7.48,1.35-2.34Z"/>
      <path class="cls-3" d="M8.75,27.28c-.02-.38-.1-.73-.3-1.02-.02-.04-.04-.07-.07-.1-.07-.1-.18-.22-.27-.29,0,0-.04-.02-.07-.03-.06-.04-.13-.06-.2-.08-.07-.1-.22-.03-.21.1-.02.08,0,.18.08.21.13.06.25.13.34.21.2.32.29.94.32,1.2.04.48-.13.85-.18,1.3-.01.14.09.23.21.2.03,0,.06-.02.08-.03.06,0,.12-.02.15-.09.21-.45.22-1.07.14-1.59"/>
      <path class="cls-3" d="M8.1,25.86s0,0,.01,0c0,0,0,0-.01,0"/>
      <path class="cls-3" d="M5.23,26.56c.02-.35.09-.67.29-.94.02-.03.04-.06.07-.09.07-.09.18-.21.27-.27,0,0,.04-.02.07-.03.06-.03.13-.06.2-.07.07-.1.22-.03.21.1.02.07,0,.16-.08.19-.13.06-.24.12-.33.19-.2.29-.29.87-.31,1.11-.04.44.14.78.18,1.2.01.13-.09.21-.2.18-.04,0-.06-.02-.08-.03-.06,0-.12-.01-.15-.08-.21-.41-.23-.98-.15-1.46"/>
      <path class="cls-3" d="M5.87,25.26s0,0-.01,0c0,0,0,0,.01,0"/>
      <path class="cls-3" d="M9.55,28.92c-1.11-.89-2.52-1.13-3.79-1.66-3.15-1.31-2.24,2.89-1.07,4.43,1.15,1.51,2.95,1.69,4.34.5,1.7-1.46,1.48-2.49.52-3.26"/>
      <path class="cls-6" d="M15.62,1.47c0,.81-.66,1.47-1.47,1.47s-1.47-.66-1.47-1.47.66-1.47,1.47-1.47,1.47.66,1.47,1.47"/>
    </g>
  </g>
</svg>