<?xml version="1.0" encoding="UTF-8"?>
<svg id="Calque_2" xmlns="http://www.w3.org/2000/svg" viewBox="0 0 20.43 49.53">
  <defs>
    <style>
      .cls-1 {
        fill: #f08c8e;
      }

      .cls-2 {
        fill: #9fc5e9;
      }

      .cls-3 {
        fill: #f08c8d;
        fill-rule: evenodd;
      }

      .cls-4 {
        fill: #f3a4a6;
      }

      .cls-5 {
        fill: #e3e6f5;
      }

      .cls-6 {
        fill: #6b374f;
      }

      .cls-7 {
        fill: #f08b8d;
      }

      .cls-8 {
        fill: #e88a56;
      }

      .cls-9 {
        fill: #656da4;
      }

      .cls-10 {
        fill: #6a374f;
      }

      .cls-11 {
        fill: #f4ab9d;
      }

      .cls-12 {
        fill: #efb871;
      }

      .cls-13 {
        fill: #bdc7e3;
      }

      .cls-14 {
        fill: #f4a99d;
      }

      .cls-15 {
        fill: #e2e4f4;
      }

      .cls-16 {
        fill: #f3a3a6;
      }

      .cls-17 {
        fill: #7990c8;
      }
    </style>
  </defs>
  <g id="_Éléments_Mise_en_page" data-name="Éléments_Mise_en_page">
    <g>
      <path class="cls-3" d="M15.24,23.25c-.34-.45-.98-1.01-1.57-.97-.64.05-.47.58-.41.99.02.12.38,1.26.31,1.27l.28-.03.67.21.42-.2.28-.04c.04-.13.05-.25.04-.35.07.05.15.08.26.06l-.03-.52c-.01-.22-.09-.22-.25-.43"/>
      <path class="cls-15" d="M16.67,27.02s-.09,0-.11-.06c-.46-1.3-1.48-2.8-2.37-3.04-.25-.07-.41-.05-.5.06-.18.24-.16,1.05-.11,1.73,0,.08-.04.17-.1.2-.06.03-.12-.02-.12-.11-.08-1.19-.02-1.74.21-2.04.21-.27.49-.23.72-.17.98.27,2.02,1.83,2.49,3.17.03.07,0,.17-.06.22-.01.01-.02.02-.04.02"/>
      <polygon class="cls-12" points="18.23 39.62 9.62 34.46 10.21 24.66 18.09 28.48 18.23 39.62"/>
      <polygon class="cls-10" points="10.21 24.66 11.55 24.11 19.36 27.98 17.99 28.48 10.21 24.66"/>
      <polygon class="cls-8" points="19.36 27.98 20.43 38.09 18.17 39.72 17.99 28.48 19.36 27.98"/>
      <path class="cls-15" d="M15.54,28.44c-.08.02-.13-.04-.12-.12.07-2.34-.38-3.97-1.17-4.24-.35-.12-.66.12-.87.35-.52.58-.9,1.68-.94,2.74,0,.09-.06.17-.12.18-.06.01-.11-.05-.11-.13.05-1.18.46-2.36,1.05-3.02.35-.39.74-.55,1.08-.43.89.31,1.38,1.99,1.3,4.5,0,.08-.05.16-.1.18"/>
      <path class="cls-3" d="M14.38,22.72c-.41-.09-.63.35-.9.45-.26-.93-1.37-3.43-1.69-5.32-.19-1.1-.12-1.99.55-2.23.62-.22.84.34,1.13,1.18.63,1.82.3,3.4.91,5.92"/>
      <path class="cls-11" d="M13.62,24.45c-.36-.13-.22-.76.07-.92.39-.22.57.11.75.36.13.18.49.62.25.79-.23.15-1.09.02-1.13-.21.03,0,.07,0,.1,0h-.03Z"/>
      <path class="cls-6" d="M5.38,3.29c-.39,1.13-.53,2.86-1.24,3.82-.71.94-1.91,1.35-1.36,2.83.5,1.34,2.17,1.24,3.3.96,1.47-.36,2.6-1.11,3.42-2.4.95-1.49,1.24-3.18,1.54-4.88.27-1.54.22-2.91-1.49-3.47-.77-.25-1.65-.15-2.33.29-.88.56-1.42,1.64-1.84,2.86"/>
      <path class="cls-17" d="M12.01,22.2c.14-1.07.25-2.19-.34-3.07-.08-.13-.09-.26-.05-.37-.12-.16-.26-.29-.41-.38-.49-.32-1.96-.08-2.42.27-1.01.78-2.93,6.61-.37,9.17.9.9,2.8-3.12,3.47-5.02,0-.02.11-.58.12-.6"/>
      <path class="cls-6" d="M2.75,38.43c-.2-.42-.55-.85-.73-1.17-.12-.22-.22-.38-.26-.46-.15-.26-.53-1.26-.64-1.52-.23-.55-.92-.02-1.07.35-.05.13-.06.3-.03.49.05.37.05.53.06.79,0,.14,0,.39,0,.39l.31.37s.16-.07.16-.06c.43.97,1.14,1.73,2.33,1.57.06-.24,0-.49-.13-.75"/>
      <path class="cls-1" d="M1.47,38.1c.31.2.9.44.78.04-.11-.39-.26-.83-.42-1.1-.25-.42-.42-.85-.44-1.35-.01-.25.23-1.41-.48-1.03-.09,0-.17.18-.23.25-.11.13-.24.22-.37.33-.13.11-.2.25-.21.43,0,.03,0,.06,0,.1.03.5.48,1.22.71,1.66.09.18.37.49.66.68"/>
      <path class="cls-1" d="M.34,35.19c.32-.64.78-1.59,1.25-2.53.35.68.79,1.34,1.27,1.85-1.05,1.09-1.94,1.93-2.27,2.08-.04-.02.29-.43.25-.44-.22-.11.18-.48-.05-.54-.27-.37-.69.07-.45-.41"/>
      <path class="cls-17" d="M2.89,30.29c.58-.9,1.32-1.67,2.18-2.31.32-.24.66-.49.99-.65.27,1.19,2.37-.02,1.94,1.16-.22.6-3.01,3.83-5.13,6.03-.49-.51-.92-1.17-1.27-1.85.45-.9.92-1.8,1.3-2.37"/>
      <path class="cls-6" d="M12.7,49.44c.2.18.51.09.59-.16.12-.42-.03-.93-.13-1.42-.18-.86-.5-1.95-.79-2.78-.56-1.6-1.75-1.5-1.71.32.04,1.47.96,3.05,2.05,4.04"/>
      <path class="cls-11" d="M7.81,18.66c.57.21.85.77,1.02,1.38-.68-.51-1.37-.98-2.04-1.38.29-.06.67-.12,1.03,0"/>
      <path class="cls-11" d="M12.14,43.72c.02.58.15,1.03.31,1.55l.13.41c.03.09.05.18.07.27.02.09.04.17.05.27.03.16.06.32.09.48.07.35.15.71.16,1.08,0,.1-.04.21-.11.28-.07.07-.16.11-.25.11h-.01c-.12,0-.23-.04-.33-.11-.17-.12-.28-.3-.36-.45-.1-.18-.2-.33-.29-.48-.36-.59-.63-1.01-.74-1.77-.02-.1-.03-.21-.04-.33-.01-.15-.04-.29-.07-.44-.04-.18-.09-.35-.14-.51-.03-.1-.06-.2-.1-.31.55.01,1.1,0,1.64-.05"/>
      <path class="cls-2" d="M4.64,24.6c-1.61-5.46.63-3.46.35-5.24.55-.33,1.16-.57,1.79-.71,0,0,0,0,0,0,.68.4,1.36.88,2.04,1.39.04.16.08.32.11.48.44,2.2.79,3.96,1.07,5.36.63,3.12.91,4.56,1.04,5.31.05.16.09.33.11.51.1.82.16,1.64.22,2.44.02.28.04.56.07.84.16,1.94.31,3.89.47,5.83v.16c.04.28.07.57.1.85.06.56.12,1.14.12,1.71,0,.07,0,.14,0,.2-.54.05-1.09.06-1.64.05-.15-.47-.3-.95-.45-1.41-.6-1.86-1.23-3.79-1.52-5.73-.09-.57-.14-1.14-.18-1.67-.14-.9-.06-1.75.02-2.59l-.63-1.47c-1.48-1.91-2.47-4.3-3.1-6.28"/>
      <path class="cls-7" d="M13,13.76c-.12-1.99.02-5.91-1.93-6.97-.63-.34-1.39.16-1.36,1.03.02.51.35,1.08.47,1.57.14.57.22,1.15.36,1.72.17.67.45,1.41.55,2.1.13.91.04,1.84.21,2.76.01.06.03.13.07.17.04.04.1.04.16.04.51,0,1.03-.09,1.52-.26.01-.72,0-1.44-.05-2.16"/>
      <path class="cls-13" d="M12.3,12.1c.28-.14.56-.31.83-.51-.49-5.45-2.65-5.14-2.65-5.14l.23,6.1c.53.08,1.2-.25,1.59-.45"/>
      <path class="cls-5" d="M12.84,20.62c.07-.37-.01-.8-.1-1.4-.15-1.12-.31-2.24-.47-3.36-.11-.79-.23-1.59-.34-2.39-.04-.28-.2-.74-.14-1.02.08-.4.18-.8.27-1.25.13-.6.12-1.2.05-1.79-.02-.73-.13-1.44-.45-1.95-.07-.2-.15-.39-.27-.55-.36-.49-1-.68-1.62-.63-.08,0-.15.01-.22.03-.06.01-.12.02-.18.03-.82.15-1.62.31-2.37.56-.1.03-.19.06-.29.1-.04.01-.07.03-.11.04-.35.13-.68.26-1,.43-.05.03-.1.05-.16.08-.26.15-.51.33-.74.57-.52.55-.37,1.3-.18,1.95.44,1.52-.17,4.03-.23,5.6-.06,1.52-.18,3.05-.24,4.58,0,.02,0,.04.01.06.06.74.24,1.4.57,1.98.1-.4.31-.75.73-.9.53-.18,1.19.11,1.69.38,2.06,1.12,3,1.22,4.98-.15.51-.35.73-.66.8-1.01"/>
      <path class="cls-13" d="M4.64,22.3c.1-.4.31-.75.73-.9.19-.07.39-.08.59-.05-.07-1.2-.13-2.39-.18-3.59-.02-.54-.05-1.09-.02-1.64,0-.02,0-.04,0-.06.07-1.36.13-2.83.32-4.15.12-.88-.01-1.77-.14-2.64-.04-.27-.06-1.51-.27-1.65-.33-.23-.7.3-.96.51-.53.55-.37,1.3-.18,1.95l-.44,10.51c.08.63.25,1.2.55,1.72"/>
      <path class="cls-7" d="M9.34,4.05c0-.15-.13-.28-.29-.28h-1.14c-.13,0-.24.09-.28.21l-.7,2.55c-.08.13-.12.27-.12.43,0,.57.58,1.04,1.3,1.04s1.3-.46,1.3-1.04l-.09-2.91Z"/>
      <path class="cls-4" d="M3.85,15.16c.75-1.56,1.43-3.21,1.87-4.89.1-.39.19-.8.12-1.19-.11-.63-.78-1.04-1.4-.8-.6.22-.93,1.28-1.08,1.85-.62,2.44-.98,3.05-1.23,4.65-.1.68.03,1.55.92,1.4.4-.07.64-.69.79-1.01"/>
      <path class="cls-5" d="M3.79,9.08c.25-.51.61-1,1.13-1.27.43-.22.93-.31,1.4-.44.33.23.39.7.37,1.11-.04.81-.24,1.56-.55,2.29-.04.09-.08.19-.12.28-.13.29-.96,2.01-1.21,1.97-.06,0-.13-.02-.19-.03-.7-.23-1.38-.72-1.77-1.31.29-.88.52-1.78.94-2.6"/>
      <path class="cls-9" d="M3.14,19.05c.52.36,1.04.67,1.66.87.6.19,1.21.32,1.84.4-.35.62-.52,1.37-.86,2.01-.18.34-.39.68-.68.93-.29.25-.68.41-1.06.35-.15-.02-.29-.08-.42-.15-.68-.38-1.02-1.21-1.03-1.99-.01-.85.31-1.63.52-2.43,0,0,.02.01.03.02"/>
      <path class="cls-9" d="M6.24,20.73c.07-.08.13-.16.18-.25h0s0,0,0,0c.08-.14.13-.29.18-.44.06-.15.12-.3.19-.45.14-.28.27-.57.39-.85.13-.3.24-.6.33-.91.08-.29.16-.56.33-.82.28-.45.45-1,.65-1.49.13-.32.28-.62.42-.93.1-.23.14-.47.22-.7.18-.49.41-.96.61-1.44.1-.26.24-.51.35-.77.09-.24.19-.47.3-.7.24-.51.48-1.02.63-1.56.11-.39.23-.77.34-1.16.13-.34.24-.7.2-1.06-.02-.16-.05-.42-.16-.56,0,0-.01-.01-.02-.02-.08-.13-.21-.21-.39-.2-.1,0-.11.13-.02.17.15.06.26.08.33.24,0,0,0,0,0,.01,0,0,0,.02,0,.02.06.2.05.46.04.6-.01.19-.05.37-.1.55,0,.02-.01.04-.02.06-.2.56-.43,1.13-.67,1.68-.2.45-.39.92-.63,1.35-.22.4-.41.81-.56,1.24-.17.5-.38.98-.56,1.48-.09.25-.18.5-.27.75-.09.23-.2.45-.28.68-.08.24-.15.47-.25.71-.09.22-.22.4-.32.61-.02.04-.03.07-.04.11-.03.05-.06.11-.08.17-.09.19-.11.39-.2.58-.04.07-.06.14-.08.21-.05.11-.09.22-.14.33-.18.45-.34.92-.51,1.38-.05.14-.1.3-.14.46-.13.28-.26.56-.39.83-.04.09.07.18.14.11M10.19,10.99s-.02,0-.02,0c.12-.25.25-.5.36-.76-.04.09-.07.18-.11.27-.07.17-.15.33-.23.49"/>
      <path class="cls-9" d="M3.11,19.27s.02.03.03.02c.01-.01.02-.03.03-.05,0,.02,0,.03,0,.05,0,.02.03.03.03,0,.02-.13.32-.7.13-.78,0,0-.02,0-.02.01,0,.02,0,.04-.01.06-.01,0-.02,0-.04,0-.02,0-.03.03-.01.03.02,0,.03,0,.04.01,0,.03-.01.05-.02.08,0,0,0,0,0,.01-.02.05-.02.07-.03.11-.04.15-.08.29-.11.44M3.24,19.02s.01-.1.02-.14c0-.06.03-.11.05-.17,0-.02.02-.06.02-.08,0,0,0-.02,0-.02.01-.03.02-.05.03,0,0,.05,0,.1-.02.14-.02.09-.05.18-.08.26"/>
      <path class="cls-16" d="M6.26,21.76s0-.06-.02-.08c-.1-.42-.19-.83-.31-1.24-.42-1.43-.96-2.81-1.53-4.19-.3-.73-.79-2.32-1.87-1.65-1.11.68.19,2.66.58,3.43.14.27.28.55.41.82.52,1.04,1.04,2.05,1.65,3.04.08.14.17.28.3.37.39.27.84-.06.78-.51"/>
      <path class="cls-4" d="M6.36,21.37s.77.58,1.18,1.53c.12.27.21.49.29.65.03.07-.07.12-.12.06l-.57-.75.58,1.6c.06.16-.1.32-.29.27l-.77-.18c-.38-.15-.67-.43-.82-.78l-.21-.51c-.2-.5-.25-1.03-.14-1.55.07-.3.42-.48.74-.37l.12.04Z"/>
      <path class="cls-2" d="M5.01,23.67c.08-.47,1.59-1.62,1.97-1.93.21.45.84.73,1.24,1.02.12.09.25.18.33.31.1.16.1.36.1.55,0,.34-.05.72-.3.95-.11.11-.26.17-.4.24-.71.32-2.1,1.36-2.81.79-.03-.15-.06-.3-.08-.45-.03-.48-.04-.96-.04-1.43,0-.01,0-.03,0-.04"/>
      <path class="cls-14" d="M7.8,3.98c-.2.21-.59.15-.87-.12s-.34-.66-.13-.86c.2-.21.59-.15.86.12.28.27.34.66.13.86"/>
      <path class="cls-14" d="M7.78,3.3s-.08.03-.13.02c-.05,0-.09-.03-.12-.06l.27.72-.28-.68-.18.69s1.24,1.98,2.07,1.66c.79-.31,1.15-1.06,1.16-3.35-1.12,1.02-2.3,1.04-2.8,1"/>
    </g>
  </g>
</svg>