<?xml version="1.0" encoding="UTF-8"?>
<svg xmlns="http://www.w3.org/2000/svg" xmlns:xlink="http://www.w3.org/1999/xlink" viewBox="0 0 18.57 39.14">
  <defs>
    <style>
      .cls-1 {
        fill: #7990c8;
      }

      .cls-2 {
        fill: #eb777f;
      }

      .cls-3 {
        fill: #f0b971;
      }

      .cls-4 {
        fill: #6b3850;
      }

      .cls-5 {
        fill: #7f8fc7;
      }

      .cls-6 {
        fill: #f4a5a8;
      }

      .cls-7 {
        fill: #f4a4a7;
      }

      .cls-8 {
        fill: none;
      }

      .cls-9 {
        fill: #e2e4f4;
      }

      .cls-10 {
        isolation: isolate;
      }

      .cls-11 {
        fill: #411f2f;
      }

      .cls-12 {
        fill: #f4a5a7;
      }

      .cls-13 {
        fill: #e78d63;
      }

      .cls-14 {
        fill: #9fc5e9;
      }

      .cls-15 {
        fill: #f08b8d;
      }

      .cls-16 {
        fill: #656da5;
      }

      .cls-17 {
        fill: #efba72;
      }
    </style>
    <clipPath id="clippath">
      <rect class="cls-8" x="1.36" y="28.16" width=".88" height="1.16"/>
    </clipPath>
  </defs>
  <g class="cls-10">
    <g id="Calque_2">
      <g id="Calque_1-2" data-name="Calque_1">
        <g>
          <path class="cls-11" d="M11.92,37.22c-.04-.13-.07-.27-.09-.4-.1-.58-.58-2.35.56-2.17.47.07.56-.1.79.3.38.65.17,1.55.6,2.25.36.59,1.3,1.14,1.18,1.91-.14.07.01-.03-.14,0-.51.13-2.45-1-2.81-1.69-.03-.07-.06-.14-.09-.21"/>
          <path class="cls-11" d="M5.26,30.75l-.81,1.96c0,.35.22.65.54.77l2.7.96c.12.04.25.01.34-.07.14-.13.14-.34.01-.48l-1.68-1.55,1.1-1.71-2.2.12Z"/>
          <path class="cls-16" d="M12.94,16.71l-.08,4.16c0,.87.15,1.95-.1,2.78,0,0-.42.81-1.19,1.8-.01.02-.03.03-.04.05-.66.85-1.45,1.88-2.13,2.78-.57.76-1.05,1.42-1.31,1.79-.3.45-.6.9-.98,1.29-.16.17-.34.32-.55.39-.02,0-.04.01-.07.02-.03,0-.06,0-.1,0-.22,0-.57-.06-.86-.17-.14-.05-.27-.12-.36-.19-.2-.15-.29-.33-.15-.55,0,0,2.13-3.54,3.41-5.65.54-.9.93-1.54.93-1.54l.41-4.75.04-.49.02-.19h-.03c.1-.7.15-1.41.21-2.08.05-.54.1-1.09.12-1.63l1.11-.38,1.77-.84-.07,3.41Z"/>
          <path class="cls-5" d="M6.36,17.7c.19-.05.41-.04.61-.02l2.1.23c.19.02.39.05.54.18.14.12.19.32.23.5.97,4.12,1.62,6.5,2.59,10.62.34,1.43.76,4.52.91,5.99.04.38.29.88.04,1.17-.34.41-.84.24-1.27.13-.58-.14-.68-1.11-.82-1.62-1.37-5.19-2.99-10.31-4.85-15.34-.13-.6-.05-1.22-.09-1.83"/>
          <path class="cls-12" d="M18.47,8.27c-.21-.1-.36-.33-.36-.57,0-.04,0-.1-.04-.12-.06-.03-.12.05-.13.12-.04.23-.02.46.04.68.03.11.09.23.21.26.11.03.23-.04.28-.14.05-.1.04-.22.01-.33v.09Z"/>
          <path class="cls-13" d="M17.96,9.6c-.26.2-.58.44-.93.68-.79.54-1.97,1.57-2.95,1.27-.19-.06-.35-.17-.5-.33-.5-.53-.77-1.52-1.02-2.14-.35-.87-2.07-4.08-.94-4.77,1.26-.76,1.97,1.76,2.23,2.43.29.73.49,1.54.76,2.27,0,0,0,0,0,0,.06.16.11.31.15.46,0,.03.02.07.02.1l1.18-.43,2.24-.82c.22.43.11.99-.25,1.27"/>
          <path class="cls-1" d="M13.01,13.31l-.07,3.41c-.14.23-.47.66-.98,1.1-1,.86-1.08.59-2.06,1.04l-.15.07-.05.02-3.38-.1v-2.1l1.01-1.28,2.78-.94,1.11-.38,1.78-.84Z"/>
          <path class="cls-12" d="M17.96,9.6c-.26.2-.58.44-.93.68-.79.54-1.97,1.57-2.95,1.27-.19-.06-.35-.17-.5-.33.13-.68.55-1.22,1.1-1.66.03-.02.06-.05.09-.07,0,.03.02.07.02.1l1.18-.43,2.24-.82c.22.43.11.99-.25,1.27"/>
          <path class="cls-5" d="M17.89,9.31l.55-2.61s-.13-.08-.17-.06l-1.42.76s-.05.04-.05.07l-.47,2.54c-.02.09.08.16.16.11l.09-.05,1.23-.72s.05-.03.08-.04"/>
          <path class="cls-11" d="M16.46,10.13l1.29-.76s.12-.06.13-.09l.55-2.58-1.46.83s-.05.04-.05.08l-.46,2.52Z"/>
          <path class="cls-7" d="M18.5,8.47c-.12-.03-.24-.08-.35-.13l-.31.15c-.16.14-.43.23-.81.39-.12.05-.12.23-.01.32l.47.37c.7.4,1.21-.18,1.03-1,0-.04-.02-.07-.03-.11"/>
          <path class="cls-17" d="M13.1,5.41v10.81c0,.52-.25,1.01-.69,1.31-.87.6-2.47,1.51-4.25,1.58-.18,0-.34,0-.5,0-2.14-.03-1.93-.93-1.93-.93V7.67c0-.65.26-1.27.7-1.72.11-.12.24-.22.38-.31.54-.36,1.32-.71,2.43-.85,0,0,1.33-.92,2.57-.66,1.23.25,1.29,1.29,1.29,1.29"/>
          <path class="cls-13" d="M7.66,19.12c-2.14-.03-1.93-.93-1.93-.93V7.67c0-.65.26-1.27.7-1.72.72,1.6.62,3.66.78,5.18l.24,3.74c.14,1.42.29,2.84.21,4.26"/>
          <path class="cls-2" d="M11.08,5.3c0,.5-.51.9-1.13.9s-1.13-.4-1.13-.9.51-.9,1.13-.9,1.13.4,1.13.9"/>
          <polygon class="cls-2" points="8.99 4.82 9.51 2.77 10.82 2.98 10.96 5.44 8.99 4.82"/>
          <path class="cls-4" d="M9.06,1.09c.06,0,.13.01.18.05-.11-.34.2-.69.54-.76.3-.07,1.38.36,1.57.1.05-.07.03-.18.06-.27.05-.2.34-.27.51-.15.17.11.24.34.22.55,0,.08-.02.15,0,.23.01.08.06.15.09.22.07.14.11.31.04.45-.14.27-.74.35-.99.55-.32.24-.64.48-1,.66-.34.17-.83.16-1.1.33-.35-.32-.56-.8-.57-1.28,0-.18.02-.38.14-.52.07-.09.19-.15.3-.15"/>
          <path class="cls-15" d="M10.06,1.95c.59.04,1.2-.12,1.63-.51.29,1.95.11,2.6-.47,2.92-.57.32-1.67-1-1.67-1l.05-.41c.38-.14.47-.56.45-1"/>
          <path class="cls-15" d="M9.81,3.31c-.13.17-.41.17-.64,0-.23-.17-.31-.44-.18-.61.13-.17.41-.17.64,0,.23.17.31.44.18.61"/>
          <path class="cls-6" d="M5.08,12.74l-.72,5.04c-.04.26-.25.46-.51.48-.32.02-.59-.22-.6-.54l-.05-5.15c0-.46.29-.76.74-.76h.33c.5,0,.88.44.81.93"/>
          <path class="cls-3" d="M3.21,11.91c0-.1.03-.21.08-.31.57-1.32,1.8-4.05,2.75-5.46.26-.39.73-.56,1.11-.38.28.13.73.27.74.96.02,1.08-.69,2.27-1.51,3.83-.11.22-1.1,1.85-1.26,2l-.17,1.42c-.35.08-.72.07-1.07-.11-.28-.14-.51-.35-.71-.59v-1.32s.05-.04.05-.04Z"/>
          <path class="cls-9" d="M5.95,21.97s-.08,0-.09-.05c-.38-1.07-1.21-2.29-1.94-2.49-.21-.06-.34-.04-.41.05-.15.2-.13.86-.09,1.42,0,.07-.03.14-.08.16-.05.02-.1-.02-.1-.09-.06-.98-.02-1.43.17-1.67.17-.22.4-.19.59-.14.8.22,1.65,1.5,2.04,2.59.02.06,0,.14-.05.18,0,0-.02.02-.03.02"/>
          <path class="cls-16" d="M0,27.42c0,.2.09.39.26.5l4.63,2.75s.03.02.05.03c.02,0,.03.02.05.03.01,0,.03.01.04.02.02,0,.03.01.05.02,0,0,0,0,0,0,.02,0,.03,0,.05.01,0,0,0,0,0,0,.02,0,.03,0,.05,0h0s.03,0,.05,0,.03,0,.05,0c0,0,.02,0,.03,0,.15,0,.3-.04.43-.12l1.97-1.11c.17-.11.27-.3.25-.5l-.75-6.35v-.05c-.02-.14-.1-.27-.22-.34l-4-2.32-.53-.3c-.11-.06-.24-.03-.32.07l-.52.67s-.05.03-.07.03l-.8-.17c-.06-.01-.11.03-.11.09v.11S0,27.42,0,27.42Z"/>
          <path class="cls-1" d="M5.21,23.08l.08,7.71c.16,0,.32-.04.45-.12l1.97-1.11c.17-.11.27-.3.25-.5l-.75-6.35-.04-.13s-.07-.06-.09-.02l-.54,1.04c-.06.11-.2.15-.3.09l-1.04-.6Z"/>
          <path class="cls-14" d="M0,27.42c0,.2.09.39.26.5l4.63,2.75s.03.02.05.03c.02,0,.03.02.05.03.01,0,.03.01.04.02.02,0,.03.01.05.02,0,0,0,0,0,0,.02,0,.03,0,.05.01,0,0,0,0,0,0,.02,0,.03,0,.05,0h0s.03,0,.05,0,.03,0,.05,0c0,0,.02,0,.03,0l-.08-7.68-4.41-2.72c-.08-.05-.19,0-.19.1L0,27.42Z"/>
          <path class="cls-9" d="M4.29,23.09c-.06.02-.09-.02-.08-.09.23-1.81.18-3.53-.4-3.68-.25-.07-.51.15-.68.33-.43.48-.8,1.36-.91,2.17,0,.07-.06.13-.1.15-.05.01-.08-.03-.07-.1.12-.91.52-1.85,1.02-2.4.3-.33.6-.48.85-.41.65.17.72,1.94.48,3.87,0,.06-.05.12-.09.15"/>
          <path class="cls-6" d="M4.66,19.55c-.11-.12-.19-1.42-.31-1.69-.53-1.19-1.67.44-1.56,1.17.11.74,1.57,1,1.57,1.03,0,0-.03-.19-.09-.33-.04-.12-.16-.36-.16-.36.01-.07.07-.24.16-.23,0,0,.13.13.18.18.08.08.13.16.2.23"/>
        </g>
      </g>
    </g>
  </g>
</svg>