<?xml version="1.0" encoding="UTF-8"?>
<svg id="Calque_2" xmlns="http://www.w3.org/2000/svg" xmlns:xlink="http://www.w3.org/1999/xlink" viewBox="0 0 29.21 41.04">
  <defs>
    <style>
      .cls-1 {
        fill: #5480a5;
      }

      .cls-2 {
        fill: #fff;
      }

      .cls-3 {
        fill: #c26b26;
      }

      .cls-4 {
        fill: #b7b3b3;
      }

      .cls-5 {
        fill: none;
      }

      .cls-6 {
        fill: #403d3a;
      }

      .cls-7 {
        fill: #2d2a27;
      }

      .cls-8 {
        fill: #c7c4c3;
      }

      .cls-9 {
        fill: #f08170;
      }

      .cls-10 {
        clip-path: url(#clippath-1);
      }

      .cls-11 {
        opacity: .7;
      }

      .cls-12 {
        fill: #ffed75;
      }

      .cls-13 {
        fill: #952816;
      }

      .cls-14 {
        fill: #e75212;
      }

      .cls-15 {
        fill: #878483;
      }

      .cls-16 {
        fill: #e2e1e1;
      }

      .cls-17 {
        fill: #5e5a5a;
      }

      .cls-18 {
        fill: #d53216;
      }

      .cls-19 {
        fill: #4f4b4a;
      }

      .cls-20 {
        fill: #f4c903;
      }

      .cls-21 {
        fill: #e7533a;
      }

      .cls-22 {
        clip-path: url(#clippath);
      }

      .cls-23 {
        fill: #151411;
      }
    </style>
    <clipPath id="clippath">
      <rect class="cls-5" x="13.36" y="2.3" width="4.27" height="3.33" transform="translate(-.13 7.37) rotate(-26.67)"/>
    </clipPath>
    <clipPath id="clippath-1">
      <rect class="cls-5" x="13.36" y="2.3" width="4.27" height="3.33" transform="translate(-.13 7.37) rotate(-26.67)"/>
    </clipPath>
  </defs>
  <g id="Calque_1-2" data-name="Calque_1">
    <g id="Chara_x5F_ScooterTourne_x5F_HG">
      <polyline class="cls-7" points="25.45 21.61 25.45 21.6 25.44 21.6 25.45 21.61"/>
      <path class="cls-7" d="M20.1,31.02h0s-.02,0-.03-.01h.02Z"/>
      <path class="cls-23" d="M23.25,20.35l-.03-.02h0c-.69-.37-1.63-.3-2.67.3-2.11,1.23-3.81,4.21-3.79,6.66,0,1.27.48,2.14,1.23,2.52l2.09,1.2,5.36-9.42-2.16-1.23s-.02,0-.02-.01"/>
      <path class="cls-6" d="M22.73,21.88c-2.11,1.23-3.81,4.21-3.79,6.66.01,2.44,1.74,3.43,3.85,2.2,2.11-1.23,3.81-4.21,3.79-6.66-.01-2.44-1.74-3.43-3.85-2.19"/>
      <path class="cls-15" d="M21.19,28.83c.39.28.95.27,1.58-.1,1.16-.67,2.09-2.31,2.08-3.65,0-.72-.28-1.21-.72-1.4.33.24.53.68.54,1.3,0,1.34-.92,2.98-2.08,3.65-.54.31-1.02.37-1.4.2"/>
      <path class="cls-4" d="M20.66,27.53c0,.62.2,1.06.53,1.3.37.17.86.11,1.4-.2,1.15-.67,2.09-2.31,2.08-3.65,0-.62-.21-1.06-.54-1.3-.37-.16-.86-.11-1.39.2-1.16.67-2.09,2.31-2.08,3.65"/>
      <path class="cls-2" d="M22.57,25.73c-.23.13-.41.45-.41.72,0,.26.19.37.41.24.23-.13.41-.45.41-.72,0-.26-.19-.37-.41-.24"/>
      <path class="cls-4" d="M18.56,16.71c1.19-.7,2.28-.78,3.08-.36h0s.06.04.09.06l1.78,1.01-.57.99c.04.26.07.54.07.84,0,.38-6.93,7.27-6.93,7.27l-1.82-1.03c-.07-.32-.11-.67-.11-1.05-.02-2.83,1.95-6.29,4.4-7.72"/>
      <path class="cls-15" d="M24.73,21.46c.07-.4.1-.79.1-1.17-.02-2.83-2.01-3.97-4.46-2.54-2.45,1.43-4.41,4.89-4.4,7.72,0,.38.04.73.11,1.05l8.65-5.06Z"/>
      <polygon class="cls-9" points="13.76 32.45 19.17 29.28 18.65 27.98 16.2 26.58 14.01 26.34 8.59 29.51 13.76 32.45"/>
      <path class="cls-2" d="M9.7,28.6c-.1.21-.01.92.06.94.6.19,1.14-.21,1.61-.49.46-.28.59-.51,1.03-.76.39-.23,1.3-.28,1.75-.72.09-.08.05-.28-.02-.51l-4.44,1.53Z"/>
      <path class="cls-3" d="M11.54,26.66c-.62.81-1.89,1.57-1.98,1.78-.1.21.13.91.2.94.45.22,1.07-.18,1.53-.44.46-.26.67-.55,1.11-.81.39-.23,1.3-.28,1.76-.72.23-.22-.18-1.33-.18-1.33,0,0-2.33.38-2.43.57"/>
      <path class="cls-18" d="M13.62,20.86c.58-.34,7.12-4.17,7.12-4.17,0,0,1.54-.9,2.89-.1l2.59,1.48-7.99,9.4-2.06,1.24-2.5-.45v-.97s.03-.04.03-.04c.36-.44,3.32-2.64-.07-6.37"/>
      <path class="cls-21" d="M23.26,18.12s-6.54,3.83-7.12,4.17c3.61,3.96.04,6.41.04,6.41v.79c10.89-6.37,10.34-6.05,11.95-6.99-.02-3.72-.89-3.79-1.9-4.44-1.37-.88-2.96.06-2.96.06"/>
      <path class="cls-23" d="M13.82,19.63l6.91-4.56c.12-.08.23-.1.31-.06l2.54,1.45-7.57,5.73-2.5-1.42h0c-.08-.05-.13-.15-.13-.29v-.03c0-.28.2-.65.44-.82"/>
      <path class="cls-6" d="M23.7,16.73c0-.28-.2-.38-.45-.22l-6.91,4.56c-.25.16-.44.53-.44.82v.03c0,.28.2.4.45.26l6.91-4.05c.25-.14.45-.49.44-.78v-.62Z"/>
      <path class="cls-17" d="M18.86,15.88c-1.2,1.32-6.59,5.35-7.04,5.74.93,1.51,1.56,2.8,2.34,4.21.39,1.31-2.41,1.59-2.77.78-.88-1.97-3.19-4.87-3.19-5.39,0-.62,4.29-6.17,8.34-8.64.44.25,2.32,3.3,2.32,3.3"/>
      <polygon class="cls-21" points="16.17 28.7 14.68 29.58 12.43 31.69 16.18 29.49 16.51 28.82 16.17 28.7"/>
      <polygon class="cls-18" points="9.92 30.26 12.43 31.69 14.68 29.58 12.17 28.15 9.92 30.26"/>
      <polygon class="cls-9" points="14.68 29.58 16.17 28.7 13.66 27.27 12.17 28.15 14.68 29.58"/>
      <polygon class="cls-13" points="13.55 33.03 8.39 30.09 4.13 25.82 4.45 25.36 9.29 28.76 11.93 30.85 13.55 33.03"/>
      <path class="cls-4" d="M22.94,19.2c1.19-.7,2.28-.78,3.08-.36h0s0,0,0,0c.03.02.06.03.09.05l1.77,1.01-.57.99c.04.26.07.54.07.84,0,.38-6.93,7.27-6.93,7.27l-1.82-1.03c-.07-.32-.11-.67-.11-1.05-.02-2.83,1.95-6.29,4.4-7.72"/>
      <path class="cls-15" d="M29.11,23.95c.07-.4.1-.79.1-1.17-.02-2.83-2.01-3.97-4.46-2.54-2.45,1.43-4.41,4.89-4.4,7.72,0,.38.04.73.11,1.05l8.65-5.06Z"/>
      <polygon class="cls-6" points="9.62 28.3 13.76 32.45 19.17 29.28 19.17 29.74 13.56 33.03 9.29 28.76 9.62 28.3"/>
      <polyline class="cls-7" points="8.75 31.38 8.75 31.38 8.74 31.38 8.75 31.38"/>
      <path class="cls-7" d="M3.4,40.8h0s-.02,0-.03-.01h.02Z"/>
      <path class="cls-23" d="M6.54,30.12h-.03s0-.01,0-.01c-.69-.37-1.63-.3-2.67.3C1.74,31.64.04,34.62.05,37.07c0,1.27.48,2.14,1.23,2.52l2.09,1.2,5.36-9.42-2.16-1.23s-.01,0-.02-.01"/>
      <path class="cls-6" d="M6.03,31.65c-2.11,1.23-3.81,4.21-3.79,6.66.01,2.44,1.74,3.43,3.85,2.2,2.11-1.23,3.81-4.21,3.79-6.66-.02-2.44-1.74-3.43-3.85-2.19"/>
      <path class="cls-15" d="M4.49,38.6c.39.28.95.27,1.58-.1,1.16-.67,2.09-2.31,2.08-3.65,0-.72-.28-1.21-.72-1.4.33.24.53.69.54,1.3,0,1.34-.92,2.97-2.08,3.65-.54.31-1.02.37-1.4.2"/>
      <path class="cls-4" d="M3.96,37.3c0,.62.21,1.06.53,1.3.37.17.86.11,1.4-.2,1.15-.67,2.09-2.31,2.08-3.65,0-.62-.21-1.07-.54-1.3-.37-.16-.86-.11-1.39.2-1.16.68-2.09,2.31-2.08,3.65"/>
      <path class="cls-2" d="M5.87,35.5c-.23.13-.41.45-.41.72s.19.37.41.24c.23-.13.41-.45.41-.72,0-.26-.19-.37-.41-.24"/>
      <path class="cls-9" d="M0,35.22c.57-1.93,2.04-4.07,3.71-5.05,1.37-.8,2.29-.8,2.92-.44l2.24,1.27-6.65,5.48-2.22-1.26Z"/>
      <path class="cls-21" d="M10.13,33.69s-.18-4.6-4.2-2.25c-1.67.98-3.15,3.12-3.71,5.05,6.21-3.63,2.14.58,7.91-2.8"/>
      <path class="cls-23" d="M7.36,21.48h0s0,0,0,0c0,.08.06.16.16.21.21.12.55.12.76,0,.11-.06.16-.15.16-.23l-.02-3.11h-1.08s.02,3.12.02,3.12c0,0,0,0,0,0"/>
      <path class="cls-6" d="M7.5,18.57c.21.12.55.12.76,0,.21-.12.21-.32,0-.44-.21-.12-.55-.12-.76,0s-.21.32,0,.44"/>
      <path class="cls-23" d="M3.32,15.57c0-.14.1-.31.22-.38.06-.04.12-.04.16-.01l1.84,1.04-.3.53-1.81-1.03h0c-.06-.01-.1-.07-.1-.16"/>
      <path class="cls-19" d="M5.16,16.61c0,.14.1.19.22.12.12-.07.22-.24.22-.38,0-.14-.1-.19-.22-.12-.12.07-.21.24-.21.38"/>
      <path class="cls-4" d="M5.15,16.61c0-.14.09-.31.21-.38.06-.04.12-.04.16-.01l1.11.63-.3.53-1.11-.63s0,0,0,0h0s-.06-.07-.06-.14"/>
      <path class="cls-8" d="M6.27,17.25c0,.14.1.19.22.12.12-.07.22-.24.22-.38,0-.14-.1-.19-.22-.12-.12.07-.21.24-.21.38"/>
      <path class="cls-18" d="M6.92,16.43h0c-.1-.06-.24-.05-.39.04-.31.18-.56.62-.55.97,0,.19.07.31.18.37l3.21,1.83.78-1.38-3.22-1.83s0,0,0,0"/>
      <path class="cls-21" d="M9.75,18.31c-.31.18-.56.62-.56.98,0,.36.25.5.56.32.31-.18.56-.62.56-.98,0-.36-.25-.5-.56-.32"/>
      <path class="cls-6" d="M4.72,19.33l-.08-.07.4-.23c.32-.17.76-.15,1.24.13l1.57.89c.99.56,1.8,1.96,1.81,3.09l.03,5.38-.4.24-4.79-8.56c0-.36.08-.66.22-.87"/>
      <path class="cls-18" d="M4.13,25.82l5.16,2.94-.03-5.38c0-1.14-.82-2.53-1.81-3.09l-1.57-.89c-.99-.56-1.79-.09-1.79,1.04l.03,5.38Z"/>
      <path class="cls-21" d="M7.22,17.47c.67,0,1.22.54,1.22,1.21,0,.67-.54,1.22-1.21,1.22-.67,0-1.22-.54-1.22-1.21,0-.67.54-1.22,1.21-1.23"/>
      <path class="cls-18" d="M6.44,18.08c.54.31.98,1.06.99,1.69,0,.63-.43.88-.97.57-.54-.31-.99-1.07-.99-1.69,0-.63.43-.88.98-.57"/>
      <path class="cls-9" d="M6.83,17.86c.54.3.99,1.06.99,1.69,0,.33-.12.56-.31.65l-.35.21c.18-.1.28-.32.28-.63,0-.63-.44-1.38-.99-1.69-.26-.15-.49-.16-.66-.08l.35-.21c.18-.1.42-.09.69.07"/>
      <path class="cls-9" d="M5.91,18.24c-.11.09-.18.26-.18.47,0,.5.36,1.11.8,1.35.2.12.39.14.53.06-.14.12-.36.12-.6-.01-.43-.25-.79-.85-.79-1.35,0-.27.1-.45.25-.52"/>
      <path class="cls-12" d="M6.44,18.3c.43.24.79.85.79,1.35,0,.22-.07.37-.18.47-.14.07-.32.05-.53-.06-.44-.25-.79-.85-.8-1.35,0-.21.07-.38.18-.47.14-.07.32-.05.53.06"/>
      <path class="cls-4" d="M9.52,19.1c0-.14.1-.3.22-.38.06-.04.12-.04.15-.01h0s1,.57,1,.57l-.27.54-1.03-.59s0,0,0,0h0s-.06-.07-.06-.14"/>
      <path class="cls-23" d="M10.53,19.68c0-.14.09-.31.21-.38.06-.04.12-.04.16-.01l1.84,1.04-.3.53-1.81-1.03h0c-.06-.01-.1-.06-.1-.15"/>
      <path class="cls-6" d="M12.36,20.72c0,.14.1.19.22.12.12-.07.22-.24.22-.38,0-.14-.1-.19-.22-.12-.12.07-.22.24-.21.38"/>
      <path class="cls-6" d="M6.97,14.65s-.13.78-.26,1.03c-.16.31-.65.86-.65.86l-.46-.26c-.4.08-.39.51.06.74-.02.02-.45.49-.81.17-.79-.77-1.06-1.23-.84-2.21.07-.23,1.74-1.03,1.85-1.09.5-.24.94-.11.94-.11l.15.88Z"/>
      <path class="cls-18" d="M5.75,30.73l-.8-.45c.97-1.81,1.3-7.03,1.3-7.03l.8.45s-.2,3.74-.2,3.93c-.11,2.11-1.11,3.1-1.11,3.1"/>
      <path class="cls-21" d="M8.86,31.01l-.68-.39h0c-.54-.34-1.31-.42-2.43.1.97-1.81,1.3-7.03,1.3-7.03l.02,3.8,2.36,2.36-.06,1.59c-.14-.17-.31-.33-.51-.44"/>
      <path class="cls-20" d="M17.84,4.59c-.01.28.03.44.03.44l.51.46.11.88-.87,1.03-1.61.3-.99-.5-.56-.82.26-1.07.89-1.29,2.11-.05s.12.34.11.62"/>
      <path class="cls-2" d="M13.56,30.58c-.17.12-.17.69-.17.69,0,0,.68.78,1.79.33,1.11-.45,2.58-1.61,2.6-1.86,0-.06-.01-.17-.04-.3l-4.18,1.13Z"/>
      <path class="cls-3" d="M15.25,28.95s-.37.51-1.76,1.51c-.17.12-.09.68-.09.68,0,0,.68.78,1.79.33,1.11-.45,2.58-1.61,2.6-1.86.02-.25,0-1.29,0-1.29l-2.52.63Z"/>
      <path class="cls-15" d="M22.5,14.24s.1,2.46-1.1,3.79c-1.2,1.33-4.99,4.91-5.44,5.3.93,1.51,1.34,3.23,1.77,4.66.39,1.31-2.54,1.64-2.77.78-.69-2.54-2.3-5.13-2.25-5.74,0-.62,5.01-7.16,5.01-7.16,0,0-.87-.89-1.05-2.12l5.83.47Z"/>
      <path class="cls-1" d="M9.97,9.31c.96-.99,1.64-3.28,2.55-4.22,1.86-1.94,2.77-.74,2.77-.74l-.25,2.46c-.96.67-2.35,2.76-3.46,3.76-1.78,2.3-2.64,2.33-4.61,4.07.02-.2-.67-.82-1.09-.77,1.55-2.04,2.17-3.24,4.09-4.57"/>
      <path class="cls-2" d="M15.29,5.87c.06.89.54,1.33.54,1.33,0,0,1.36.09,1.98-.79.41-.59.3-1.07.06-1.39,1.71.69,2.62,1.76,2.62,1.76v1.31s.9.9,1,1.1c0,.65.2,1.89.26,2.52.07.62.59,1.86.74,2.42.14.55-1.49,1.37-3.12,1.38-1.83.01-3.14-1.28-3.29-1.83-.49-1.76-1.67-2.79-2.12-4.65s.22-3.44.22-3.44c0,0,1.07.14,1.11.28"/>
      <path class="cls-20" d="M13.97,2.4s-.03.81.13,1.09c-.27.59.15,2.53.22,2.64.07.11.53.36.69.37.15,0,1.72-.72,1.91-.99.19-.28.29-.72.29-.72,0,0,.25-.02.48-.21,1.02-.79.66-1.6.66-1.6l-.67-.95-3.02-.49-.68.85Z"/>
      <path class="cls-1" d="M16.75,13.33c.6-1.01.7-3.33,1.13-4.13,1.45-2.51,2.61-2.41,2.61-2.41,0,0,2.23,1.27.31,3.66-.81.86-1.9,3.83-2.34,4.34-1.23,1.86-4.34,3.56-5.11,4.07-.1-.12-.5-.62-1.02-.81,1.23-.65,2.73-3.65,4.42-4.72"/>
      <path class="cls-6" d="M12.33,18.05c-.31.08-1.62.35-1.88.52-.26.17-.36,1.03-.35,1.21.01.18.08.36.43.54.3.16,1.44.79,1.65.4,0,0-.52-.49.38-.82.11-.06.39-.22.78-1.05.14-.33-.58-1.03-1.02-.81"/>
      <path class="cls-6" d="M17.69,4.58c-.01-.1.74-.98.23-1.07-.66-.11-.6.77-.77.51-.42-.62-.99-.53-1.22-1.41-.47-.07-.55.3-.25.59-.65.02-2.05-.22-1.71-1.25.89-2.65,3.84-1.67,3.82-1.14,1.51.26,1.17,3.94-.11,3.78"/>
      <path class="cls-14" d="M13.57,2.68s.79.67,2.98.66c1.44-.13,2.48-.99,2.48-.99-.03-.95-.53-2-2.08-2.3-.78-.14-2.46-.04-2.89.74-.25.47-.51,1.33-.49,1.89"/>
      <path class="cls-14" d="M18.58,5.38s1.01-1.75.35-3.55c0,0-1.28,1.49-1.99,1.44,0,0,.34.4.4,1.11.06.71-1.68,1.41-3.24,2.01,0,0,.26.92.74.84,1.34-.23,3.14-1.08,3.75-1.85"/>
      <g class="cls-11">
        <g class="cls-22">
          <g class="cls-10">
            <path class="cls-16" d="M14.19,2.76s-.5.15-.48.55c.01.4.08,2.56.52,2.79.44.23,3.17-1.24,3.17-1.24l-.02-1.88-3.19-.22Z"/>
          </g>
        </g>
      </g>
    </g>
  </g>
</svg>