<?xml version="1.0" encoding="UTF-8"?>
<svg id="Calque_2" xmlns="http://www.w3.org/2000/svg" viewBox="0 0 60.21 44.1">
  <defs>
    <style>
      .cls-1 {
        fill: #e22845;
      }

      .cls-2 {
        fill: #ee714f;
      }

      .cls-3 {
        fill: #607985;
      }

      .cls-4 {
        fill: #e75212;
      }

      .cls-5 {
        fill: #383432;
      }

      .cls-6 {
        fill: #6d8c99;
      }

      .cls-7 {
        fill: #efeeef;
      }

      .cls-8 {
        fill: #322e2c;
      }
    </style>
  </defs>
  <g id="Calque_1-2" data-name="Calque_1">
    <g id="PetiteVoitureRouge_x5F_HD">
      <path class="cls-8" d="M28.26,34.72c-2.7,1.45-5.39,5.94-4.21,7.69.86,1.28,2.41,1.61,2.41,1.61-.23-.33-1.45-1.52-1.45-1.98v-.07c-.02-2.88,1.44-5.55,3.8-6.95l.41-.25c.29-.17.61-.26.91-.26,1.02-.02,1.96.83,1.98,2.04,0,.41-.02.81-.07,1.2l.43.24c.17-2.22-.5-5.25-4.22-3.26"/>
      <path class="cls-5" d="M30.14,34.51c-.3,0-.62.09-.91.26l-.42.25c-2.37,1.4-3.82,4.07-3.8,6.95v.07c0,.47.14.88.37,1.21.56.81,1.65,1.13,2.57.55l.56-.36c1.94-1.24,3.24-3.35,3.54-5.7.05-.39.07-.8.07-1.2-.02-1.2-.96-2.05-1.98-2.04M28.54,41.47l-.29.19c-.67.43-1.53-.09-1.54-.92v-.04c0-1.51.75-2.9,1.99-3.63l.22-.13c.15-.09.32-.13.48-.14.53,0,1.02.44,1.03,1.06.02,1.47-.69,2.85-1.88,3.6"/>
      <path class="cls-7" d="M29.39,36.8c-.16,0-.32.05-.48.14l-.22.13c-1.23.73-1.99,2.12-1.98,3.63v.04c0,.84.86,1.35,1.53.92l.29-.19c1.19-.75,1.9-2.13,1.88-3.6-.01-.63-.5-1.07-1.03-1.06"/>
      <path class="cls-8" d="M55.2,16.95c-2.7,1.45-5.39,5.94-4.21,7.69.86,1.28,2.41,1.61,2.41,1.61-.23-.33-1.44-1.52-1.45-1.98v-.07c-.02-2.88,1.44-5.55,3.8-6.95l.41-.25c.29-.17.61-.26.91-.26,1.02-.02,1.96.83,1.98,2.04,0,.41-.02.81-.07,1.2l.43.24c.17-2.22-.5-5.25-4.22-3.26"/>
      <path class="cls-5" d="M57.09,16.74c-.3,0-.62.09-.91.26l-.42.25c-2.37,1.4-3.82,4.07-3.8,6.95v.07c0,.47.14.88.37,1.21.56.81,1.65,1.13,2.57.55l.56-.36c1.94-1.24,3.24-3.35,3.54-5.7.05-.39.07-.8.07-1.2-.02-1.2-.96-2.05-1.98-2.04M55.48,23.69l-.29.19c-.67.43-1.53-.09-1.54-.92v-.04c0-1.51.75-2.9,1.99-3.63l.22-.13c.15-.09.32-.13.48-.14.53,0,1.02.44,1.03,1.06.02,1.47-.69,2.85-1.88,3.6"/>
      <path class="cls-7" d="M56.33,19.03c-.16,0-.32.05-.48.14l-.22.13c-1.23.73-1.99,2.12-1.98,3.63v.04c0,.84.86,1.35,1.53.92l.29-.19c1.19-.75,1.9-2.13,1.88-3.6-.01-.63-.5-1.07-1.03-1.06"/>
      <path class="cls-2" d="M57.19,9.14c-1-.76-11.84-8.96-17.14-9.14l-8.42,1.25L8.06,14.46s-6.8,5.8-6.97,6.37C-.03,24.53-.23,30.31,1.67,32.3c1.91,1.99,16.1,9.82,16.1,9.82,0,0,4.67,1.66,6.35-.1,0,0,1.83-9.05,7.43-7.53,0,0,.93.86.93,3.5l18.26-11.9s.55-5.85,3.56-8.46c1.45-1.26,3.02-1.62,4.46-.42.66.55.66,3.01.66,3.01,0,0,1.22-3,.61-6.76-.21-1.27-1.85-3.55-2.85-4.32"/>
      <path class="cls-4" d="M58.25,10.23c-3.28.03-6.55.22-9.78.87-.04,0-.07,0-.1,0-4.71,2.73-9.34,5.65-14.15,8.19-2.28,1.2-4.66,2.22-6.85,3.62-.84.54-2.25,1.28-3.28,2.13-.02.36-.11.72-.27,1.07-1.12,2.43-3.14,4.68-3.52,7.41-.42,2.98-.89,5.97-.89,9.04,1.35.18,3.9.31,4.72-.55,0,0,1.83-9.05,7.43-7.53,0,0,.93.86.93,3.5l18.26-11.9s.55-5.85,3.56-8.46c1.45-1.25,3.02-1.62,4.46-.42.65.55.66,3.01.66,3.01,0,0,1.22-3,.61-6.76-.14-.88-.96-2.22-1.79-3.23"/>
      <path class="cls-8" d="M15.04,38.67c-3.87-2.01-9-5.58-12.54-8.19-1.71-1.26-2.21-2.49-2.25-3.39-.8,2.64.52,4.14,1.43,5.22,2.2,2.63,12.25,8.56,16.1,9.82,1.52.5,4.28,1.39,6.35-.1,0,0,.19-.96.65-2.19-.09.03-.18.07-.28.1-3.39,1.19-6.35.36-9.46-1.26"/>
      <path class="cls-8" d="M10.31,10.33l-4.18,6.86c-.15.54-.28,1.02.47,1.88,2.26,2.56,8.46,6.14,13.12,8.14,1.44.62,3.08.51,3.08.51l4.02-.42.07-7.95s-2.03-.25-4.48-1.13c-7.9-2.8-12.1-7.9-12.1-7.9"/>
      <polygon class="cls-8" points="25.61 18.9 24.1 27.41 26.83 27.3 47.75 14.05 47.85 11.27 39.44 10.92 25.61 18.9"/>
      <path class="cls-8" d="M47.39,9.29l-7.06-1.05c1.04,1.51-.89,2.68-.89,2.68l5.13.65,3.18,2.48c2.16-3-.35-4.76-.35-4.76"/>
      <path class="cls-3" d="M10.33,11.68c-.11-.13-3.5,5.54-3.5,5.54.24,1.11,2.84,3.11,5.79,4.99,1.99,1.27,4.13,2.49,5.8,3.34,2.09,1.07,3.07.87,3.07.87l2.49-6.5c-6.44-1.99-12.75-7.19-13.65-8.25"/>
      <path class="cls-6" d="M10.05,18.09s.08-.04.12-.06c-.04.02-.08.04-.12.06"/>
      <path class="cls-6" d="M14.87,16.19c-.9.33-1.8.66-2.69,1.01-.44.17-.88.35-1.32.53-.34.14-1.56.72-.81.36-.62.3-1.24.59-1.85.9,1.08.98,2.69,2.12,4.42,3.22.73.46,1.47.92,2.21,1.36,1.7-.66,3.41-1.3,5.12-1.94,1.31-.48,2.62-.96,3.93-1.44l.1-.26c-2.95-.91-5.87-2.5-8.26-4.05-.28.1-.56.2-.84.3"/>
      <path class="cls-3" d="M26.38,20.44l-.96,5.26c-.11.59,1.11.98,1.59.65l7.34-4.73-2.43-4.79-5.53,3.61Z"/>
      <polygon class="cls-3" points="39.25 12 33.16 16.15 36.5 20.27 45.44 14.79 43.35 12.86 39.25 12"/>
      <path class="cls-5" d="M45.63,10.15c-1.39-.09-.7,1.21-.7,1.21.34.06,2.36.15,2.36.15l-.04.73c1.96,1.35,3.5.27,2.85-.64-.94-1.32-4.47-1.45-4.47-1.45"/>
      <path class="cls-3" d="M32.7.77l-5.89-.08,3.56,1.34c2.37.9,4.43,2.35,6.54,3.82l3.42,2.39,7.06,1.05s-3.75-3.06-6.86-4.97c-4.39-2.7-7.84-3.55-7.84-3.55"/>
      <path class="cls-8" d="M26.81.69l.69.23,4.9.16c7.57,2.18,14.39,8.22,14.39,8.22h.61C39.22,2.4,32.7.77,32.7.77l-5.89-.08Z"/>
      <path class="cls-8" d="M26.81.69s.48.17,1.42.53c1.57.6,4.33,1.77,7.61,3.88,1.33.86,2.6,1.88,4.5,3.13l.54.2s-5.24-4.8-12.82-7.5l-1.25-.25Z"/>
      <path class="cls-1" d="M.48,23.58c-.09.54-.14,1.28-.19,1.84l.35.47,2.49,1.61.32-1.62-2.55-1.68-.42-.62Z"/>
      <path class="cls-1" d="M19.3,35.64l-2.76-1.5-.22,1.5,2.87,1.61c.68.47,1.99-.3,1.99-.3l.08-1.57c-1.44.63-1.96.28-1.96.28"/>
      <polygon class="cls-7" points="6.4 29.98 12.71 33.72 12.68 31.54 6.33 27.7 6.4 29.98"/>
      <path class="cls-2" d="M27.16.75c-1.09-.24-2.54.26-2.54.26,0,0-5.88,3.22-7.6,4.3-1.61,1.01-5.7,4.02-5.7,4.02-.41.25-.75.61-1.01,1.03-.01.91,1.01,1.47,1.43,1.86,3.03,2.8,6.07,4.48,9.43,6.03,1.54.71,2.5,1,3.19,1.34.67.33,1.99-.55,1.99-.55,0,0,11.14-6.97,13.08-8.12s.89-2.68.89-2.68C35.66,4,28.24,1,27.16.75"/>
      <path class="cls-5" d="M38.06,23.74c-.39-.83-2.02-2.15-2.08-2.2l-.19.09c-.16-.07,1.73,1.42,2.1,2.2.35.73,1.1,6.33,1.19,6.99l-5.41,3.49c-.08-.25-.31-.83-.81-1.39-.59-.67-1.67-1.42-3.49-1.23-.46.05-.86-.28-.93-.75-.16-1.15-.65-3.27-1.92-3.72l-.19.09c1.18.42,1.79,2.55,1.94,3.66.08.58.58.98,1.12.92,3.34-.35,4.11,2.47,4.14,2.59l.03.12,5.72-3.69v-.06c-.04-.26-.85-6.31-1.22-7.12"/>
      <path class="cls-5" d="M46.86,14.61l-.19.12s1.83,1.1,2.19,2.36c.34,1.24.45,6.41.46,7.01l-10.18,6.68.1.17,10.22-6.71.04-.03v-.05c0-.24-.09-5.78-.47-7.11-.37-1.34-2.09-2.39-2.17-2.43"/>
      <path class="cls-5" d="M40.72,22.38l-1.43.88c-.16.1-.25.33-.2.51.04.13.13.2.24.19.05,0,.1-.02.15-.05l1.45-.91c.16-.1.24-.32.18-.49-.06-.17-.24-.23-.4-.14"/>
      <path class="cls-5" d="M31.07,28.56l-1.43.88c-.16.1-.25.33-.2.51.04.13.13.2.24.19.05,0,.1-.02.15-.05l1.45-.91c.16-.1.24-.32.18-.49-.06-.17-.24-.23-.39-.14"/>
    </g>
  </g>
</svg>