<?xml version="1.0" encoding="UTF-8"?>
<svg id="Calque_2" xmlns="http://www.w3.org/2000/svg" viewBox="0 0 80.62 57.45">
  <defs>
    <style>
      .cls-1 {
        fill: #383432;
      }

      .cls-2 {
        fill: #eeeeef;
      }

      .cls-3 {
        fill: #55519d;
      }

      .cls-4 {
        fill: #686caf;
      }

      .cls-5 {
        fill: #5e7884;
      }

      .cls-6 {
        fill: #767371;
      }

      .cls-7 {
        fill: #e12744;
      }

      .cls-8 {
        fill: #312d2b;
      }

      .cls-9 {
        fill: #6c8b99;
      }
    </style>
  </defs>
  <g id="_Éléments_Mise_en_page" data-name="Éléments_Mise_en_page">
    <g>
      <path class="cls-8" d="M36.93,45.15c-3.68,1.72-7.57,7.47-6.14,9.86,1.04,1.75,3.07,2.3,3.07,2.3-.28-.46-1.8-2.11-1.77-2.73v-.1c.19-3.81,2.31-7.23,5.54-8.91l.57-.29c.4-.21.83-.3,1.23-.28,1.35.05,2.53,1.25,2.46,2.84-.02.54-.08,1.07-.18,1.59l.55.34c.39-2.92-.28-6.99-5.35-4.62"/>
      <path class="cls-1" d="M39.44,45.01c-.4-.02-.83.07-1.23.28l-.57.29c-3.23,1.68-5.35,5.1-5.54,8.91v.1c-.04.62.12,1.17.4,1.63.68,1.11,2.1,1.62,3.35.92l.77-.43c2.66-1.5,4.53-4.19,5.1-7.28.1-.52.16-1.05.18-1.58.06-1.59-1.12-2.78-2.46-2.84M36.81,54.09l-.4.23c-.92.51-2.02-.23-1.96-1.33v-.05c.1-2,1.21-3.78,2.9-4.66l.3-.15c.21-.11.43-.15.64-.15.7.03,1.32.65,1.28,1.48-.08,1.95-1.12,3.72-2.75,4.62"/>
      <path class="cls-2" d="M38.27,47.98c-.21,0-.43.04-.64.15l-.3.15c-1.68.88-2.79,2.66-2.89,4.65v.05c-.06,1.1,1.04,1.84,1.96,1.33l.4-.23c1.62-.91,2.67-2.67,2.75-4.62.03-.83-.58-1.45-1.28-1.48"/>
      <path class="cls-8" d="M73.87,23.62c-3.68,1.72-7.57,7.47-6.14,9.86,1.04,1.75,3.07,2.31,3.07,2.31-.28-.46-1.8-2.11-1.77-2.73v-.1c.19-3.81,2.31-7.23,5.55-8.91l.57-.29c.4-.21.83-.3,1.23-.28,1.35.05,2.53,1.25,2.46,2.84-.02.54-.08,1.07-.18,1.59l.55.34c.39-2.92-.28-6.99-5.34-4.62"/>
      <path class="cls-1" d="M76.38,23.48c-.4-.02-.83.07-1.23.28l-.57.29c-3.23,1.68-5.35,5.1-5.54,8.91v.1c-.04.62.12,1.17.4,1.63.68,1.11,2.1,1.62,3.35.92l.77-.43c2.66-1.5,4.53-4.19,5.1-7.28.1-.52.16-1.05.18-1.58.06-1.59-1.12-2.78-2.46-2.84M73.75,32.56l-.4.23c-.92.51-2.02-.23-1.96-1.33v-.05c.1-2,1.21-3.78,2.9-4.66l.3-.15c.21-.11.43-.16.64-.15.7.03,1.32.65,1.29,1.48-.08,1.95-1.13,3.71-2.75,4.62"/>
      <path class="cls-2" d="M75.21,26.46c-.21,0-.43.04-.64.15l-.3.15c-1.69.88-2.79,2.66-2.89,4.65v.05c-.06,1.1,1.04,1.85,1.96,1.33l.4-.23c1.62-.91,2.67-2.67,2.75-4.62.03-.83-.58-1.45-1.28-1.48"/>
      <path class="cls-4" d="M77.07,13.44c-1.27-1.08-15-12.72-22-13.34l-11.23,1.04L11.71,16.87s-9.42,7.17-9.69,7.91c-1.75,4.81-2.44,12.43-.07,15.21,2.37,2.77,20.57,14.17,20.57,14.17,0,0,6.05,2.54,8.41.33,0,0,3.08-11.83,10.38-9.41,0,0,1.16,1.2.97,4.69l25.03-14.4s1.16-7.69,5.34-10.93c2.01-1.55,4.11-1.92,5.92-.22.83.77.65,4.03.65,4.03,0,0,1.84-3.88,1.31-8.89-.18-1.7-2.18-4.83-3.45-5.92"/>
      <path class="cls-3" d="M78.4,14.96c-4.34-.2-8.68-.19-13,.43-.05,0-.09,0-.14,0-6.44,3.27-12.77,6.78-19.32,9.79-3.1,1.42-6.33,2.59-9.32,4.28-1.15.65-3.07,1.53-4.49,2.58-.06.47-.19.94-.43,1.39-1.66,3.13-4.5,5.96-5.2,9.54-.77,3.92-1.62,7.82-1.84,11.89,1.77.33,5.14.69,6.28-.38,0,0,3.08-11.83,10.38-9.41,0,0,1.16,1.2.97,4.69l25.03-14.4s1.16-7.69,5.34-10.93c2.01-1.55,4.11-1.92,5.92-.23.83.77.65,4.03.65,4.03,0,0,1.84-3.88,1.31-8.89-.12-1.17-1.11-3.01-2.13-4.4"/>
      <path class="cls-8" d="M19.16,49.4c-4.97-2.95-11.5-8.03-15.99-11.75-2.17-1.79-2.74-3.45-2.73-4.65-1.25,3.43.39,5.51,1.5,7,2.72,3.64,15.57,12.22,20.57,14.17,1.97.77,5.56,2.16,8.41.33,0,0,.33-1.25,1.02-2.86-.12.04-.25.08-.37.12-4.57,1.32-8.43,0-12.42-2.36"/>
      <path class="cls-8" d="M14.99,11.57l-6.03,8.77c-.24.7-.45,1.33.48,2.52,2.8,3.56,10.74,8.75,16.75,11.73,1.86.92,4.04.91,4.04.91l5.35-.26.68-10.51s-2.66-.49-5.85-1.82c-10.24-4.28-15.43-11.34-15.43-11.34"/>
      <polygon class="cls-8" points="34.59 24.03 31.97 35.18 35.58 35.23 64.23 19.24 64.57 15.57 53.47 14.49 34.59 24.03"/>
      <path class="cls-8" d="M64.11,12.93l-9.26-1.91c1.26,2.07-1.38,3.48-1.38,3.48l6.73,1.24,4.03,3.51c3.08-3.81-.12-6.32-.12-6.32"/>
      <path class="cls-5" d="M14.92,13.36c-.14-.18-5.04,7.07-5.04,7.07.23,1.49,3.53,4.32,7.29,7.03,2.54,1.83,5.28,3.59,7.42,4.85,2.68,1.57,4,1.38,4,1.38l3.77-8.41c-8.37-3.1-16.33-10.45-17.44-11.91"/>
      <path class="cls-9" d="M14.07,21.82c.05-.02.1-.04.16-.06-.06.03-.11.05-.16.06"/>
      <path class="cls-9" d="M20.59,19.65c-1.21.37-2.43.74-3.63,1.14-.6.2-1.2.4-1.79.61-.46.16-2.12.84-1.1.42-.84.35-1.68.69-2.51,1.05,1.36,1.38,3.41,3,5.6,4.59.93.67,1.88,1.32,2.82,1.95,2.3-.75,4.6-1.47,6.91-2.19,1.77-.55,3.54-1.08,5.31-1.62l.15-.34c-3.83-1.42-7.58-3.73-10.63-5.96-.38.11-.76.22-1.14.34"/>
      <path class="cls-5" d="M35.5,26.12l-1.66,6.89c-.19.78,1.4,1.38,2.05.97l10.05-5.72-2.87-6.51-7.58,4.37Z"/>
      <polygon class="cls-5" points="53.14 15.9 44.78 20.94 48.89 26.64 61.12 20.05 58.49 17.34 53.14 15.9"/>
      <path class="cls-1" d="M61.72,13.92c-1.83-.22-1.01,1.56-1.01,1.56.45.11,3.11.37,3.11.37l-.1.96c2.49,1.93,4.61.61,3.82-.64-1.14-1.81-5.81-2.24-5.81-2.24"/>
      <path class="cls-5" d="M45.3.58L37.52.04l4.61,2.04c3.07,1.36,5.69,3.43,8.37,5.53l4.35,3.41,9.26,1.91s-4.74-4.32-8.7-7.08c-5.61-3.89-10.1-5.27-10.1-5.27"/>
      <path class="cls-8" d="M37.52.04l.89.36,6.46.57c9.85,3.43,18.43,11.93,18.43,11.93l.8.03C53.8,3.21,45.3.58,45.3.58L37.52.04Z"/>
      <path class="cls-8" d="M37.52.04s.62.27,1.83.81c2.03.91,5.6,2.66,9.78,5.69,1.7,1.23,3.3,2.67,5.72,4.47l.7.3S48.96,4.57,39.15.46l-1.63-.42Z"/>
      <path class="cls-7" d="M1.02,28.37c-.15.71-.28,1.68-.39,2.42l.42.64,3.18,2.31.54-2.12-3.24-2.4-.51-.85Z"/>
      <path class="cls-7" d="M25.02,45.7l-3.55-2.19-.4,1.96,3.68,2.33c.87.67,2.65-.26,2.65-.26l.22-2.07c-1.95.73-2.61.22-2.61.22"/>
      <polygon class="cls-2" points="8.38 37.27 16.45 42.68 16.56 39.8 8.45 34.25 8.38 37.27"/>
      <path class="cls-4" d="M37.97.14c-1.42-.4-3.38.16-3.38.16,0,0-8.02,3.83-10.36,5.12-2.2,1.21-7.83,4.89-7.83,4.89-.56.31-1.04.75-1.41,1.29-.08,1.2,1.22,2.01,1.76,2.57,3.8,3.92,7.7,6.37,12.03,8.67,1.98,1.05,3.23,1.5,4.12,2.01.86.49,2.68-.58,2.68-.58,0,0,15.24-8.39,17.89-9.78,2.65-1.39,1.38-3.48,1.38-3.48C48.98,5.06,39.39.54,37.97.14"/>
      <path class="cls-6" d="M50.7,31.35c-.45-1.12-2.51-2.99-2.59-3.07l-.26.1c-.21-.11,2.19,2,2.62,3.07.4.99.99,8.45,1.06,9.33l-7.41,4.22c-.09-.33-.35-1.12-.97-1.89-.73-.92-2.1-2-4.53-1.88-.61.03-1.12-.44-1.17-1.07-.12-1.53-.62-4.37-2.27-5.07l-.26.11c1.53.64,2.17,3.5,2.29,4.98.06.77.69,1.34,1.42,1.3,4.44-.22,5.26,3.57,5.29,3.73l.03.17,7.83-4.45v-.08c-.03-.34-.65-8.41-1.09-9.5"/>
      <path class="cls-6" d="M63.02,19.92l-.27.15s2.34,1.59,2.72,3.29c.36,1.67.12,8.51.09,9.3l-13.95,8.09.12.23,14.01-8.13.06-.04v-.07c.02-.31.3-7.65-.09-9.44-.39-1.8-2.59-3.31-2.69-3.38"/>
      <path class="cls-1" d="M54.32,29.74l-1.96,1.06c-.22.12-.36.42-.3.66.04.17.16.27.31.28.07,0,.14-.01.21-.05l1.99-1.09c.22-.12.34-.41.27-.64-.07-.23-.3-.33-.51-.21"/>
      <path class="cls-1" d="M41.1,37.2l-1.96,1.06c-.22.12-.36.42-.3.66.04.17.16.27.31.28.07,0,.14-.01.21-.05l1.99-1.09c.22-.12.34-.41.27-.64-.07-.23-.3-.33-.51-.21"/>
    </g>
  </g>
</svg>