<?xml version="1.0" encoding="UTF-8"?>
<svg id="Calque_2" xmlns="http://www.w3.org/2000/svg" viewBox="0 0 70.58 50.39">
  <defs>
    <style>
      .cls-1 {
        fill: #383432;
      }

      .cls-2 {
        fill: #eeeeef;
      }

      .cls-3 {
        fill: #fff;
      }

      .cls-4 {
        fill: #5e7884;
      }

      .cls-5 {
        fill: #767371;
      }

      .cls-6 {
        fill: #e12744;
      }

      .cls-7 {
        fill: #312d2b;
      }

      .cls-8 {
        fill: #e3e2e2;
      }

      .cls-9 {
        fill: #6c8b99;
      }
    </style>
  </defs>
  <g id="_Éléments_Mise_en_page" data-name="Éléments_Mise_en_page">
    <g>
      <path class="cls-3" d="M17.07,43.26l-2.12-1.23,6.54-3.82,2.12,1.23-6.54,3.82ZM30.15,35.62l-2.12-1.23,6.54-3.82,2.12,1.23-6.54,3.82ZM43.24,27.98l-2.12-1.23,6.54-3.82,2.12,1.23-6.54,3.82ZM56.33,20.35l-2.12-1.23,6.54-3.82,2.12,1.23-6.54,3.82Z"/>
      <g>
        <path class="cls-7" d="M32.43,39.59c-3.21,1.53-6.59,6.59-5.32,8.68.93,1.53,2.71,2,2.71,2-.25-.4-1.59-1.84-1.57-2.38v-.08c.15-3.34,1.99-6.35,4.81-7.84l.5-.26c.35-.19.72-.27,1.07-.25,1.18.04,2.22,1.08,2.18,2.47-.02.47-.06.94-.15,1.39l.49.3c.33-2.56-.29-6.12-4.71-4.02"/>
        <path class="cls-1" d="M34.63,39.45c-.35-.01-.72.07-1.07.25l-.5.26c-2.82,1.49-4.66,4.5-4.8,7.84v.08c-.03.54.11,1.02.36,1.42.6.97,1.85,1.41,2.94.79l.67-.38c2.33-1.33,3.94-3.7,4.42-6.41.08-.45.13-.92.15-1.39.05-1.39-.99-2.43-2.18-2.47M32.37,47.43l-.35.2c-.8.46-1.77-.19-1.73-1.15v-.04c.08-1.75,1.04-3.32,2.51-4.1l.26-.13c.18-.1.38-.14.56-.13.62.02,1.16.56,1.13,1.29-.06,1.71-.96,3.26-2.38,4.07"/>
        <path class="cls-2" d="M33.62,42.07c-.19,0-.38.03-.56.13l-.26.14c-1.47.78-2.43,2.35-2.5,4.1v.04c-.04.97.92,1.61,1.72,1.15l.35-.2c1.42-.81,2.33-2.36,2.38-4.07.02-.73-.52-1.27-1.13-1.29"/>
        <path class="cls-7" d="M64.64,20.6c-3.21,1.53-6.59,6.59-5.32,8.68.93,1.53,2.71,2,2.71,2-.25-.4-1.59-1.84-1.57-2.38v-.08c.15-3.34,1.99-6.35,4.81-7.84l.5-.26c.35-.19.72-.27,1.07-.25,1.18.04,2.22,1.08,2.18,2.47-.02.47-.06.94-.15,1.39l.49.3c.33-2.56-.29-6.12-4.71-4.02"/>
        <path class="cls-1" d="M66.84,20.46c-.35-.01-.72.07-1.07.25l-.5.26c-2.82,1.49-4.66,4.5-4.8,7.84v.08c-.03.54.11,1.02.36,1.42.6.97,1.85,1.41,2.94.79l.67-.38c2.33-1.33,3.94-3.7,4.42-6.41.08-.45.13-.92.15-1.39.05-1.39-.99-2.43-2.18-2.47M64.59,28.43l-.35.2c-.8.46-1.77-.19-1.73-1.15v-.04c.08-1.75,1.04-3.32,2.51-4.1l.26-.13c.18-.1.38-.14.56-.13.62.02,1.16.56,1.13,1.29-.06,1.71-.96,3.26-2.38,4.07"/>
        <path class="cls-2" d="M65.84,23.08c-.19,0-.38.03-.56.13l-.26.14c-1.47.78-2.43,2.35-2.5,4.1v.04c-.04.97.92,1.61,1.72,1.15l.35-.2c1.42-.81,2.33-2.36,2.38-4.07.02-.73-.52-1.27-1.13-1.29"/>
        <path class="cls-3" d="M67.43,11.57c-1.12-.94-13.22-11.06-19.36-11.57l-9.84.97L10.15,14.96S1.94,21.3,1.71,21.95c-1.5,4.22-2.07,10.91.03,13.33,2.1,2.42,18.11,12.3,18.11,12.3,0,0,5.32,2.19,7.37.24,0,0,2.63-10.39,9.04-8.31,0,0,1.03,1.05.88,4.11l21.85-12.76s.97-6.75,4.61-9.61c1.75-1.37,3.59-1.71,5.19-.23.73.67.59,3.53.59,3.53,0,0,1.59-3.41,1.09-7.8-.17-1.49-1.94-4.22-3.06-5.17"/>
        <path class="cls-8" d="M70.49,16.73c.38,3.41-.49,6.22-.89,7.31-.11.29-.19.46-.2.49,0-.03.02-.4,0-.88-.02-.9-.13-2.22-.6-2.64-1.6-1.47-3.44-1.14-5.19.23-.55.43-1.03.94-1.46,1.51-.87,1.55-1.4,2.28-2.09,4.02v.07c0,.13-.14.28-.19.49-.65,1.95-.87,3.53-.87,3.53l-21.85,12.76c.15-3.06-.87-4.11-.87-4.11-6.41-2.08-9.04,8.31-9.04,8.31-1,.95-3.95.65-5.5.37.17-3.57.89-7,1.54-10.44.6-3.14,3.07-5.63,4.5-8.39.21-.4.32-.81.37-1.22,1.24-.93,2.92-1.71,3.92-2.28,2.61-1.5,5.43-2.54,8.15-3.81,5.72-2.67,11.25-5.79,16.88-8.69.04,0,.08,0,.12,0,3.78-.57,7.59-.6,11.39-.46.9,1.21,1.78,2.82,1.89,3.84"/>
        <path class="cls-7" d="M16.88,43.42c-4.37-2.55-10.12-6.98-14.08-10.21-1.91-1.56-2.42-3.01-2.42-4.07-1.07,3.02.37,4.83,1.36,6.13,2.4,3.17,13.71,10.62,18.11,12.3,1.73.66,4.89,1.86,7.37.24,0,0,.28-1.1.88-2.51-.11.03-.22.07-.33.11-3.99,1.19-7.39.05-10.9-2"/>
        <path class="cls-7" d="M13,10.29l-5.23,7.72c-.2.62-.39,1.17.44,2.21,2.47,3.1,9.47,7.61,14.75,10.18,1.64.8,3.54.77,3.54.77l4.69-.26.54-9.21s-2.34-.41-5.14-1.56c-9-3.69-13.59-9.85-13.59-9.85"/>
        <polygon class="cls-7" points="30.25 21.1 28.02 30.88 31.19 30.91 56.2 16.73 56.48 13.51 46.74 12.63 30.25 21.1"/>
        <path class="cls-7" d="M56.06,11.19l-8.13-1.62c1.12,1.81-1.19,3.06-1.19,3.06l5.9,1.05,3.55,3.05c2.68-3.36-.14-5.54-.14-5.54"/>
        <path class="cls-4" d="M12.95,11.86c-.12-.15-4.38,6.23-4.38,6.23.21,1.31,3.12,3.77,6.43,6.12,2.24,1.59,4.65,3.12,6.54,4.21,2.36,1.36,3.51,1.19,3.51,1.19l3.26-7.39c-7.35-2.67-14.38-9.07-15.36-10.34"/>
        <path class="cls-9" d="M12.26,19.28s.09-.04.14-.06c-.05.02-.1.04-.14.06"/>
        <path class="cls-9" d="M17.96,17.34c-1.06.33-2.12.67-3.17,1.02-.52.18-1.05.36-1.57.54-.4.14-1.85.75-.96.37-.74.31-1.47.62-2.2.94,1.2,1.2,3,2.61,4.94,3.99.82.58,1.66,1.15,2.49,1.7,2.01-.67,4.03-1.32,6.04-1.96,1.55-.49,3.1-.97,4.64-1.45l.13-.3c-3.37-1.22-6.67-3.23-9.35-5.17-.33.1-.66.2-1,.3"/>
        <path class="cls-4" d="M31.06,22.92l-1.41,6.05c-.16.68,1.24,1.2,1.8.84l8.78-5.07-2.55-5.69-6.62,3.88Z"/>
        <polygon class="cls-4" points="46.46 13.87 39.17 18.33 42.8 23.3 53.48 17.46 51.16 15.09 46.46 13.87"/>
        <path class="cls-1" d="M53.97,12.08c-1.61-.18-.88,1.37-.88,1.37.39.09,2.73.31,2.73.31l-.08.84c2.19,1.67,4.04.51,3.34-.58-1.01-1.58-5.1-1.93-5.1-1.93"/>
        <path class="cls-4" d="M39.5.48l-6.83-.43,4.05,1.76c2.7,1.17,5.01,2.98,7.37,4.8l3.84,2.96,8.13,1.62s-4.18-3.76-7.67-6.15C43.45,1.66,39.5.48,39.5.48"/>
        <path class="cls-7" d="M32.68.05l.78.31,5.67.46c8.66,2.95,16.22,10.35,16.22,10.35l.71.02C46.97,2.74,39.5.48,39.5.48l-6.82-.43Z"/>
        <path class="cls-7" d="M32.68.05s.54.23,1.61.7c1.79.78,4.92,2.3,8.61,4.93,1.49,1.07,2.91,2.32,5.04,3.89l.61.26S42.74,3.96,34.11.41l-1.43-.36Z"/>
        <path class="cls-6" d="M.86,25.1c-.13.62-.23,1.47-.33,2.13l.38.56,2.8,2.01.46-1.86-2.86-2.09-.45-.75Z"/>
        <path class="cls-6" d="M21.99,40.15l-3.12-1.9-.34,1.72,3.24,2.02c.76.58,2.32-.24,2.32-.24l.18-1.82c-1.7.65-2.29.21-2.29.21"/>
        <polygon class="cls-2" points="7.35 32.86 14.46 37.55 14.54 35.02 7.4 30.2 7.35 32.86"/>
        <path class="cls-3" d="M33.08.14c-1.25-.34-2.96.16-2.96.16,0,0-7.01,3.4-9.05,4.55-1.93,1.08-6.83,4.34-6.83,4.34-.49.27-.91.66-1.23,1.13-.07,1.05,1.08,1.76,1.55,2.24,3.35,3.41,6.78,5.54,10.6,7.53,1.75.91,2.84,1.3,3.62,1.74.76.43,2.34-.52,2.34-.52,0,0,13.31-7.45,15.62-8.68s1.19-3.06,1.19-3.06C42.76,4.38,34.32.48,33.08.14"/>
        <path class="cls-5" d="M44.42,27.42c-.41-.98-2.22-2.6-2.29-2.67l-.22.09c-.19-.1,1.93,1.74,2.32,2.67.36.87.92,7.4.98,8.17l-6.47,3.74c-.08-.29-.32-.98-.86-1.65-.64-.8-1.86-1.74-3.98-1.62-.53.03-.98-.38-1.03-.93-.12-1.34-.57-3.83-2.02-4.43l-.23.1c1.34.56,1.93,3.06,2.04,4.35.06.67.61,1.17,1.25,1.13,3.89-.22,4.63,3.1,4.66,3.24l.03.15,6.84-3.95v-.08c-.03-.3-.62-7.37-1.01-8.32"/>
        <path class="cls-5" d="M55.14,17.33l-.23.13s2.06,1.38,2.4,2.87c.33,1.46.15,7.46.13,8.15l-12.18,7.17.1.2,12.23-7.21.05-.03v-.07c.01-.27.22-6.7-.13-8.27-.36-1.57-2.29-2.89-2.38-2.94"/>
        <path class="cls-1" d="M47.58,25.99l-1.71.94c-.2.11-.31.37-.26.58.04.15.14.24.27.24.06,0,.12-.01.18-.05l1.74-.97c.19-.11.3-.36.23-.56-.06-.2-.26-.28-.45-.18"/>
        <path class="cls-1" d="M36.03,32.6l-1.71.94c-.2.11-.31.37-.26.58.04.15.14.24.27.24.06,0,.12-.01.18-.05l1.74-.97c.19-.11.29-.36.23-.56-.06-.2-.26-.28-.45-.18"/>
      </g>
    </g>
  </g>
</svg>