<?xml version="1.0" encoding="UTF-8"?>
<svg xmlns="http://www.w3.org/2000/svg" xmlns:xlink="http://www.w3.org/1999/xlink" viewBox="0 0 52.01 41.96">
  <defs>
    <style>
      .cls-1 {
        fill: #ebedee;
      }

      .cls-2 {
        fill: #9f1930;
      }

      .cls-3 {
        clip-path: url(#clippath-21);
      }

      .cls-4 {
        clip-path: url(#clippath-6);
      }

      .cls-5 {
        clip-path: url(#clippath-7);
      }

      .cls-6 {
        clip-path: url(#clippath-17);
      }

      .cls-7 {
        clip-path: url(#clippath-31);
      }

      .cls-8 {
        clip-path: url(#clippath-15);
      }

      .cls-9 {
        clip-path: url(#clippath-33);
      }

      .cls-10 {
        clip-path: url(#clippath-18);
      }

      .cls-11 {
        fill: #403c3a;
      }

      .cls-12 {
        clip-path: url(#clippath-4);
      }

      .cls-13 {
        clip-path: url(#clippath-22);
      }

      .cls-14 {
        clip-path: url(#clippath-23);
      }

      .cls-15 {
        fill: #d7d5d3;
      }

      .cls-16 {
        fill: #e62f56;
      }

      .cls-17 {
        fill: #e64411;
      }

      .cls-18 {
        fill: #c4c1bc;
      }

      .cls-19 {
        clip-path: url(#clippath-9);
      }

      .cls-20 {
        clip-path: url(#clippath-10);
      }

      .cls-21 {
        fill: #d43a16;
      }

      .cls-22 {
        clip-path: url(#clippath-25);
      }

      .cls-23 {
        clip-path: url(#clippath-27);
      }

      .cls-24 {
        fill: #aca899;
      }

      .cls-25 {
        fill: #bd3118;
      }

      .cls-26 {
        fill: #533b2c;
      }

      .cls-27 {
        fill: #e57a26;
      }

      .cls-28 {
        fill: #686457;
      }

      .cls-29 {
        clip-path: url(#clippath-11);
      }

      .cls-30 {
        fill: none;
      }

      .cls-31 {
        fill: #392e22;
      }

      .cls-32 {
        clip-path: url(#clippath-28);
      }

      .cls-33 {
        fill: #cdcbc6;
      }

      .cls-34 {
        fill: #242423;
      }

      .cls-35 {
        fill: #757b7d;
      }

      .cls-36 {
        clip-path: url(#clippath-1);
      }

      .cls-37 {
        fill: #2f302f;
      }

      .cls-38 {
        fill: #363636;
      }

      .cls-39 {
        isolation: isolate;
      }

      .cls-40 {
        fill: #424142;
      }

      .cls-41 {
        clip-path: url(#clippath-5);
      }

      .cls-42 {
        clip-path: url(#clippath-20);
      }

      .cls-43 {
        clip-path: url(#clippath-8);
      }

      .cls-44 {
        fill: #b8b5a8;
      }

      .cls-45 {
        fill: #8c887e;
      }

      .cls-46 {
        fill: #f39939;
      }

      .cls-47 {
        clip-path: url(#clippath-3);
      }

      .cls-48 {
        fill: #4d3b34;
      }

      .cls-49 {
        clip-path: url(#clippath-26);
      }

      .cls-50 {
        fill: #262625;
      }

      .cls-51 {
        fill: #62504a;
      }

      .cls-52 {
        clip-path: url(#clippath-12);
      }

      .cls-53 {
        fill: #535454;
      }

      .cls-54 {
        fill: #b4b1ab;
      }

      .cls-55 {
        fill: #716d61;
      }

      .cls-56 {
        clip-path: url(#clippath-14);
      }

      .cls-57 {
        fill: #2b1c16;
      }

      .cls-58 {
        fill: #babfbf;
      }

      .cls-59 {
        clip-path: url(#clippath-30);
      }

      .cls-60 {
        clip-path: url(#clippath-19);
      }

      .cls-61 {
        mix-blend-mode: multiply;
      }

      .cls-62 {
        fill: #402b1e;
      }

      .cls-63 {
        fill: #232423;
      }

      .cls-64 {
        fill: #573d30;
      }

      .cls-65 {
        clip-path: url(#clippath-32);
      }

      .cls-66 {
        fill: #504c3d;
      }

      .cls-67 {
        fill: #7a766b;
      }

      .cls-68 {
        fill: #3a2822;
      }

      .cls-69 {
        fill: #dddfe1;
      }

      .cls-70 {
        fill: #b4b3af;
      }

      .cls-71 {
        clip-path: url(#clippath-16);
      }

      .cls-72 {
        clip-path: url(#clippath-2);
      }

      .cls-73 {
        clip-path: url(#clippath-29);
      }

      .cls-74 {
        clip-path: url(#clippath-13);
      }

      .cls-75 {
        fill: #59554e;
      }

      .cls-76 {
        clip-path: url(#clippath-24);
      }

      .cls-77 {
        fill: #b5b2ac;
      }

      .cls-78 {
        clip-path: url(#clippath);
      }

      .cls-79 {
        fill: #827f74;
      }

      .cls-80 {
        fill: #e6e5e0;
      }

      .cls-81 {
        fill: #80a6a9;
      }
    </style>
    <clipPath id="clippath">
      <rect class="cls-30" x="11.85" y="8.22" width="1.89" height="10.21"/>
    </clipPath>
    <clipPath id="clippath-1">
      <rect class="cls-30" x="11.85" y="8.22" width="1.89" height="10.21"/>
    </clipPath>
    <clipPath id="clippath-2">
      <rect class="cls-30" x="15.11" y="13.17" width="9.04" height="8.15"/>
    </clipPath>
    <clipPath id="clippath-3">
      <rect class="cls-30" x="15.11" y="13.17" width="9.04" height="8.15"/>
    </clipPath>
    <clipPath id="clippath-4">
      <rect class="cls-30" x="14.26" y="15.77" width="2.88" height="2.7"/>
    </clipPath>
    <clipPath id="clippath-5">
      <rect class="cls-30" x="14.26" y="15.77" width="2.88" height="2.7"/>
    </clipPath>
    <clipPath id="clippath-6">
      <rect class="cls-30" x="5.83" y="12.87" width="7.54" height=".89"/>
    </clipPath>
    <clipPath id="clippath-7">
      <rect class="cls-30" x="5.83" y="12.87" width="7.54" height=".89"/>
    </clipPath>
    <clipPath id="clippath-8">
      <rect class="cls-30" x="5.15" y="13.15" width="9.25" height="7.45"/>
    </clipPath>
    <clipPath id="clippath-9">
      <rect class="cls-30" x="5.15" y="13.15" width="9.25" height="7.45"/>
    </clipPath>
    <clipPath id="clippath-10">
      <rect class="cls-30" x="3.47" y="3.82" width="7.84" height="3.61"/>
    </clipPath>
    <clipPath id="clippath-11">
      <rect class="cls-30" x="3.47" y="3.82" width="7.84" height="3.61"/>
    </clipPath>
    <clipPath id="clippath-12">
      <rect class="cls-30" x="3.9" y="2.94" width="7.03" height="3.14"/>
    </clipPath>
    <clipPath id="clippath-13">
      <rect class="cls-30" x="3.9" y="2.94" width="7.03" height="3.14"/>
    </clipPath>
    <clipPath id="clippath-14">
      <rect class="cls-30" x="4.28" y="4.83" width="1.41" height="8.56"/>
    </clipPath>
    <clipPath id="clippath-15">
      <rect class="cls-30" x="4.28" y="4.83" width="1.41" height="8.55"/>
    </clipPath>
    <clipPath id="clippath-16">
      <rect class="cls-30" x="8.96" y="5.78" width="1.96" height="1.28"/>
    </clipPath>
    <clipPath id="clippath-17">
      <rect class="cls-30" x="8.97" y="5.78" width="1.96" height="1.28"/>
    </clipPath>
    <clipPath id="clippath-18">
      <rect class="cls-30" x="5.75" y="7.25" width="2.93" height="5.84"/>
    </clipPath>
    <clipPath id="clippath-19">
      <rect class="cls-30" x="5.75" y="7.25" width="2.93" height="5.84"/>
    </clipPath>
    <clipPath id="clippath-20">
      <rect class="cls-30" x="7.84" y="5.11" width="2.08" height="1.41"/>
    </clipPath>
    <clipPath id="clippath-21">
      <rect class="cls-30" x="7.85" y="5.11" width="2.08" height="1.41"/>
    </clipPath>
    <clipPath id="clippath-22">
      <rect class="cls-30" x="4.52" y="3.34" width="2.18" height="1.24"/>
    </clipPath>
    <clipPath id="clippath-23">
      <rect class="cls-30" x="4.52" y="3.34" width="2.18" height="1.24"/>
    </clipPath>
    <clipPath id="clippath-24">
      <rect class="cls-30" x="6.32" y="4.26" width="2.04" height="1.36"/>
    </clipPath>
    <clipPath id="clippath-25">
      <rect class="cls-30" x="6.32" y="4.26" width="2.04" height="1.36"/>
    </clipPath>
    <clipPath id="clippath-26">
      <rect class="cls-30" x="23.32" y="10.67" width="1.35" height="3.9"/>
    </clipPath>
    <clipPath id="clippath-27">
      <rect class="cls-30" x="23.32" y="10.67" width="1.35" height="3.9"/>
    </clipPath>
    <clipPath id="clippath-28">
      <path class="cls-30" d="M14.48,7.47c-.06.02-.09.14-.07.32.03.27.14.59.26.71.03.03.07.05.09.04.33-.32,2.43-.75,2.54-.77-.02,0-.05,0-.08-.04-.1-.1-.2-.37-.22-.6-.02-.16,0-.26.06-.27-.11.04-2.14.72-2.59.61"/>
    </clipPath>
    <clipPath id="clippath-29">
      <path class="cls-30" d="M14.8,8.53c.33-.3,2.15-.68,2.51-.75.01,0,.02,0,.03-.01-.11.02-2.22.45-2.54.77"/>
    </clipPath>
    <clipPath id="clippath-30">
      <path class="cls-30" d="M14.51,7.47s.04.02.06.04c.41.1,2.46-.58,2.57-.61-.02-.02-.04-.03-.05-.04-.11.04-2.15.72-2.58.6"/>
    </clipPath>
    <clipPath id="clippath-31">
      <path class="cls-30" d="M14.47,7.5c-.34,0-.36.49-.36.62,0-.13.02-.61.36-.62M14.48,7.5h0,0ZM14.05,8c0,.07.05.42.32.61.1.07.2.05.23.04.08-.01.15-.08.2-.12.04-.04.06-.15.04-.31-.03-.28-.15-.59-.26-.71-.02-.02-.05-.04-.06-.04-.05-.01-.09-.02-.13-.02-.28,0-.36.28-.34.54"/>
    </clipPath>
    <clipPath id="clippath-32">
      <rect class="cls-30" x="40.82" y="22.89" width="4.8" height="11.38"/>
    </clipPath>
    <clipPath id="clippath-33">
      <rect class="cls-30" x="40.82" y="22.89" width="4.8" height="11.38"/>
    </clipPath>
  </defs>
  <g class="cls-39">
    <g id="Calque_2">
      <g id="_Éléments_Mise_en_page" data-name="Éléments_Mise_en_page">
        <g>
          <polygon class="cls-37" points="27.5 24.99 28.53 26.63 29.28 26.64 27.74 24.12 27.5 24.99"/>
          <polygon class="cls-37" points="23.53 30.67 24.24 30.9 26.53 25.43 25.89 25.27 23.53 30.67"/>
          <g>
            <path class="cls-35" d="M2.68,3.76c0,.43-.3.95-.67,1.16-.37.21-.67.04-.67-.38s.3-.95.67-1.16c.37-.21.67-.04.67.38"/>
            <path class="cls-45" d="M2.78,3.83c0,.43-.3.95-.67,1.16-.37.21-.67.04-.67-.38s.3-.95.67-1.16c.37-.21.67-.04.67.38"/>
            <path class="cls-28" d="M2.68,3.89c0,.36-.25.8-.57.98-.31.18-.57.04-.57-.32s.26-.8.57-.98c.31-.18.57-.04.57.32"/>
            <path class="cls-40" d="M18.21,17.39l-.71-.31-1.68.99,1.42.82,1.68-.99-.71-.51ZM16.59,18.22l.92-.54h.03s-.93.55-.93.55h-.02ZM17.26,18.63l-.05-.03,1-.58.06.04-1,.58Z"/>
            <polygon class="cls-63" points="17.24 19.44 16.53 19.1 15.82 18.62 15.82 18.07 16.53 18.38 17.24 18.89 17.24 19.44"/>
            <polygon class="cls-38" points="18.92 17.9 17.24 18.89 17.24 19.44 18.92 18.45 18.92 17.9"/>
            <polygon class="cls-27" points="18.65 18.21 17.51 18.88 17.51 19.12 18.65 18.45 18.65 18.21"/>
            <polygon class="cls-63" points="17.91 17.48 17.54 17.69 17.51 17.68 16.59 18.22 16.2 18.07 17.51 17.3 17.91 17.48"/>
            <polygon class="cls-63" points="18.56 17.89 18.26 18.06 18.2 18.02 17.2 18.6 16.89 18.41 18.2 17.64 18.56 17.89"/>
            <path class="cls-45" d="M16.69,18.87c0,.12-.09.17-.19.11-.11-.06-.19-.21-.19-.33s.09-.17.19-.11c.1.06.19.21.19.33"/>
            <polygon class="cls-75" points="15.94 18.61 14.81 21.63 15.31 21.76 16.62 19.02 16.57 18.71 16.3 18.37 15.94 18.61"/>
            <rect class="cls-2" x="6.29" y="3.71" width=".41" height="8.62" transform="translate(-.21 .17) rotate(-1.52)"/>
            <rect class="cls-2" x="4.93" y="8.97" width="7.28" height=".41" transform="translate(-3.76 11.54) rotate(-57.84)"/>
            <path class="cls-54" d="M12.93,15.81c-.59-4.79-4.04-8.91-6.98-10.35-2.67-1.31-4.3.45-4.32.46l-.65.18.31-.61s1.79-2.43,5.05-.82c3.15,1.55,6.83,5.94,7.46,11.03l-.87.11Z"/>
            <path class="cls-2" d="M13.48,13.66l-6.77-1.17.45-.24-.25.44-.07-.36c.54.49,1.06.99,1.59,1.49l1.57,1.51c1.05,1.01,2.08,2.04,3.11,3.06h.01s0,.02,0,.02c.2.24.4.48.59.74.19.26.37.52.52.8l-.42.36c-.26-.19-.49-.41-.72-.63-.23-.22-.44-.45-.65-.69l.02.02c-1.04-1.02-2.07-2.04-3.09-3.09l-1.53-1.56c-.5-.53-1.01-1.05-1.5-1.58l-.13-.14.06-.22.12-.49.08-.32.36.08,6.72,1.41-.1.54Z"/>
            <path class="cls-1" d="M2.38,13.38c0,.28.19.61.43.75.24.14.43.03.43-.25s-.2-.61-.43-.75c-.24-.14-.43-.03-.43.25"/>
            <path class="cls-58" d="M2.31,13.42c0,.28.19.61.43.75.24.14.43.03.43-.25s-.2-.61-.43-.75c-.24-.14-.43-.03-.43.25"/>
            <path class="cls-46" d="M2.38,13.46c0,.23.16.52.37.63.2.12.37.02.37-.21s-.16-.52-.37-.63-.37-.02-.37.21"/>
            <path class="cls-1" d="M9.51,12.66c0,.28.19.61.43.75.24.14.43.03.43-.25s-.2-.61-.43-.75c-.24-.14-.43-.03-.43.25"/>
            <path class="cls-58" d="M9.44,12.7c0,.28.19.61.43.75.24.14.43.03.43-.25s-.19-.61-.43-.75c-.24-.14-.43-.03-.43.25"/>
            <path class="cls-46" d="M9.51,12.74c0,.23.16.52.37.63.2.12.37.02.37-.21s-.16-.52-.37-.63-.37-.02-.37.21"/>
            <path class="cls-26" d="M6.81,5.96c-2.06-1.19-3.89-1.13-5.06-.06,1.16-.73,2.8-.66,4.62.39,3.52,2.03,6.38,6.96,6.38,11.01,0,1.68-.5,2.94-1.33,3.7,1.09-.68,1.76-2.07,1.76-4.03,0-4.04-2.86-8.97-6.38-11.01"/>
            <path class="cls-77" d="M12.48,16.8c0-3.71-2.62-8.23-5.85-10.09-3.23-1.87-5.85-.37-5.85,3.34s2.62,8.23,5.85,10.09c3.23,1.86,5.85.37,5.85-3.34M11.98,16.51c0,3.39-2.4,4.76-5.35,3.05-2.96-1.71-5.35-5.84-5.35-9.23s2.4-4.76,5.35-3.05c2.96,1.71,5.35,5.84,5.35,9.23"/>
            <path class="cls-62" d="M12.77,17.3c0-4.04-2.86-8.97-6.38-11.01-3.53-2.04-6.38-.41-6.38,3.64s2.86,8.97,6.38,11.01c3.52,2.04,6.38.41,6.38-3.64M11.74,16.71c0,3.39-2.4,4.76-5.35,3.05-2.96-1.71-5.35-5.84-5.35-9.23s2.4-4.76,5.35-3.05c2.96,1.71,5.35,5.84,5.35,9.23"/>
            <path class="cls-45" d="M12.23,16.99c0-3.71-2.62-8.23-5.85-10.09-3.23-1.87-5.85-.37-5.85,3.33s2.62,8.23,5.85,10.09c3.23,1.86,5.85.37,5.85-3.34M11.74,16.71c0,3.39-2.4,4.76-5.35,3.05-2.96-1.71-5.35-5.84-5.35-9.23s2.4-4.76,5.35-3.05c2.96,1.71,5.35,5.84,5.35,9.23"/>
            <polygon class="cls-33" points="5.67 11.59 5.91 11.72 5.94 11.58 6.01 11.53 6.24 11.76 6.42 11.67 6.6 11.96 6.82 12 6.93 12.31 7.17 12.46 7.18 12.74 7.4 12.99 7.31 13.2 7.48 13.5 7.41 13.55 7.31 13.61 7.4 13.92 7.32 13.97 7.18 13.91 7.17 14.18 7.1 14.23 6.93 14.05 6.82 14.24 6.75 14.3 6.6 14.02 6.42 14.1 6.24 13.81 6.01 13.78 5.91 13.46 5.67 13.31 5.66 13.03 5.44 12.79 5.52 12.57 5.29 12.33 5.36 12.27 5.52 12.17 5.37 11.91 5.44 11.86 5.66 11.87 5.67 11.59"/>
            <polygon class="cls-28" points="7.24 13.66 7.33 13.97 7.11 13.96 7.1 14.23 6.85 14.1 6.75 14.3 6.52 14.07 6.35 14.16 6.17 13.86 5.94 13.83 5.84 13.52 5.6 13.37 5.59 13.08 5.37 12.84 5.45 12.63 5.29 12.33 5.45 12.22 5.37 11.91 5.59 11.92 5.6 11.65 5.84 11.78 5.94 11.58 6.17 11.81 6.35 11.72 6.52 12.02 6.75 12.05 6.85 12.36 7.1 12.51 7.11 12.8 7.33 13.04 7.24 13.25 7.41 13.55 7.24 13.66"/>
            <polygon class="cls-33" points="5.66 12.05 5.47 12.04 5.4 12.1 5.54 12.32 5.4 12.42 5.32 12.47 5.54 12.68 5.47 12.87 5.66 13.09 5.67 13.34 5.89 13.47 5.98 13.75 6.18 13.78 6.34 14.04 6.5 13.96 6.63 14.22 6.7 14.17 6.79 13.99 6.93 14.16 7 14.11 7.01 13.87 7.14 13.93 7.21 13.88 7.13 13.6 7.23 13.54 7.26 13.46 7.15 13.21 7.18 13.01 7.01 12.79 6.97 12.56 6.78 12.4 6.67 12.17 6.47 12.1 6.31 11.89 6.15 11.92 5.96 11.77 5.91 11.82 5.85 11.91 5.65 11.83 5.67 11.85 5.66 12.05"/>
            <polygon class="cls-55" points="7.21 13.56 7.06 13.29 7.14 13.1 6.94 12.89 6.93 12.63 6.72 12.5 6.63 12.22 6.43 12.19 6.27 11.93 6.11 12.01 5.91 11.81 5.82 11.98 5.6 11.87 5.59 12.11 5.4 12.1 5.47 12.37 5.33 12.47 5.47 12.74 5.4 12.92 5.59 13.14 5.6 13.39 5.82 13.53 5.91 13.8 6.11 13.84 6.27 14.09 6.43 14.02 6.63 14.22 6.72 14.05 6.93 14.16 6.94 13.92 7.14 13.93 7.06 13.65 7.21 13.56"/>
            <polygon class="cls-33" points="5.69 12.23 5.52 12.22 5.45 12.27 5.58 12.46 5.45 12.54 5.38 12.6 5.58 12.78 5.52 12.94 5.69 13.13 5.7 13.35 5.88 13.47 5.96 13.71 6.14 13.74 6.28 13.96 6.42 13.9 6.52 14.13 6.59 14.07 6.67 13.92 6.79 14.08 6.86 14.02 6.87 13.81 6.97 13.87 7.04 13.82 6.97 13.58 7.07 13.52 7.06 13.41 7 13.2 6.98 13.03 6.87 12.83 6.79 12.65 6.64 12.48 6.53 12.32 6.37 12.22 6.23 12.1 6.08 12.08 5.93 11.99 5.9 12.05 5.82 12.08 5.66 12.04 5.69 12.09 5.69 12.23"/>
            <polygon class="cls-67" points="7.03 13.55 6.9 13.32 6.97 13.15 6.8 12.96 6.79 12.74 6.6 12.62 6.52 12.38 6.34 12.35 6.21 12.13 6.07 12.2 5.89 12.02 5.81 12.17 5.62 12.07 5.62 12.28 5.45 12.27 5.51 12.51 5.38 12.6 5.51 12.83 5.45 13 5.62 13.19 5.62 13.41 5.81 13.52 5.89 13.77 6.07 13.79 6.21 14.02 6.34 13.95 6.52 14.13 6.6 13.98 6.79 14.08 6.8 13.87 6.97 13.87 6.9 13.63 7.03 13.55"/>
            <polygon class="cls-33" points="5.68 12.41 5.54 12.4 5.47 12.45 5.59 12.6 5.48 12.68 5.41 12.73 5.59 12.88 5.54 13.02 5.68 13.18 5.69 13.37 5.85 13.47 5.92 13.68 6.07 13.7 6.19 13.9 6.31 13.84 6.39 14.04 6.46 13.99 6.53 13.86 6.62 14 6.69 13.95 6.7 13.76 6.77 13.83 6.84 13.77 6.79 13.57 6.88 13.51 6.83 13.37 6.82 13.2 6.75 13.05 6.69 12.87 6.59 12.74 6.49 12.57 6.37 12.48 6.23 12.35 6.12 12.31 5.98 12.24 5.87 12.22 5.86 12.27 5.75 12.26 5.64 12.26 5.69 12.34 5.68 12.41"/>
            <polygon class="cls-79" points="6.82 13.55 6.71 13.35 6.77 13.21 6.62 13.04 6.62 12.85 6.46 12.75 6.39 12.55 6.24 12.52 6.12 12.33 6 12.39 5.85 12.24 5.78 12.36 5.62 12.28 5.61 12.46 5.47 12.45 5.52 12.66 5.41 12.73 5.52 12.93 5.47 13.07 5.61 13.24 5.62 13.42 5.78 13.52 5.85 13.73 6 13.76 6.12 13.95 6.24 13.89 6.39 14.04 6.46 13.92 6.62 14 6.62 13.82 6.77 13.83 6.71 13.62 6.82 13.55"/>
            <polygon class="cls-33" points="6.6 13.58 6.65 13.75 6.57 13.81 6.52 13.75 6.52 13.9 6.45 13.95 6.38 13.83 6.33 13.93 6.26 13.99 6.2 13.81 6.1 13.85 6 13.69 5.88 13.67 5.82 13.5 5.69 13.42 5.68 13.26 5.56 13.12 5.61 13.01 5.44 12.89 5.51 12.84 5.61 12.78 5.49 12.66 5.56 12.61 5.68 12.61 5.61 12.52 5.69 12.46 5.82 12.53 5.81 12.48 5.88 12.43 6 12.55 6.1 12.5 6.2 12.67 6.33 12.69 6.38 12.86 6.52 12.94 6.52 13.1 6.65 13.23 6.6 13.35 6.69 13.52 6.6 13.58"/>
            <polygon class="cls-45" points="6.53 13.63 6.57 13.81 6.45 13.8 6.45 13.95 6.31 13.88 6.26 13.99 6.13 13.86 6.03 13.91 5.93 13.75 5.81 13.73 5.75 13.55 5.61 13.47 5.61 13.31 5.49 13.18 5.53 13.06 5.44 12.89 5.53 12.83 5.49 12.66 5.61 12.67 5.61 12.52 5.75 12.59 5.81 12.48 5.93 12.61 6.03 12.56 6.13 12.72 6.26 12.74 6.31 12.91 6.45 13 6.45 13.15 6.57 13.29 6.53 13.41 6.62 13.57 6.53 13.63"/>
            <path class="cls-33" d="M15.68,21.34l-.24-.43.12-.31-.32-.35v-.41s-.36-.22-.36-.22l-.15-.45-.33-.05-.26-.42-.26.12-.33-.33-.1.03-.05.25-.35-.19-.1.03.09.36-.32-.02-.1.03.22.42-.24.16.24.43-.12.31.32.35v.41s.37.22.37.22l.15.45.33.05.16.46.1-.03.26-.12.23.36.1-.03.15-.28.25.22.1-.03v-.39s.23.05.23.05l.1-.03-.12-.45.24-.16ZM15.16,21.04c0,.08,0,.15-.02.22l-.51-.51s0-.01,0-.02c0-.15-.05-.31-.13-.45l.31-.31c.21.34.34.72.34,1.07M13.25,19.36c.17-.26.51-.31.89-.09.2.12.39.29.55.5l-.31.31c-.07-.08-.15-.16-.24-.21-.16-.09-.3-.09-.39-.01l-.5-.5M13.12,19.86c0-.1.01-.19.03-.27l.5.5s0,.05,0,.07c0,.16.06.34.16.5l-.31.31c-.22-.35-.37-.75-.37-1.11M15.05,21.5c-.17.29-.51.35-.91.12-.19-.11-.36-.27-.51-.46l.31-.31c.06.07.13.13.2.17.17.1.33.09.42-.02l.5.5"/>
            <path class="cls-45" d="M15.58,21.37l-.24-.43.12-.31-.32-.35v-.41s-.36-.22-.36-.22l-.15-.45-.33-.05-.26-.42-.26.12-.33-.33-.15.28-.35-.19v.39s-.33-.02-.33-.02l.12.45-.24.16.24.43-.12.31.32.35v.41s.37.22.37.22l.15.45.33.05.26.42.26-.12.33.33.15-.28.35.19v-.39s.33.02.33.02l-.12-.45.24-.16ZM15.06,21.07c0,.08,0,.15-.02.22l-.51-.51s0-.01,0-.02c0-.15-.05-.31-.13-.45l.31-.31c.21.34.34.72.34,1.07M13.15,19.4c.17-.26.51-.31.89-.09.2.12.39.29.55.5l-.31.31c-.07-.08-.15-.16-.24-.21-.16-.09-.3-.09-.39-.01l-.51-.5M13.02,19.89c0-.1.01-.19.03-.27l.5.5s0,.05,0,.07c0,.16.06.34.16.5l-.31.31c-.22-.35-.37-.75-.37-1.11M14.95,21.53c-.17.29-.51.35-.91.12-.19-.11-.36-.27-.51-.46l.31-.31c.06.07.13.13.2.17.17.1.33.09.42-.02l.5.5"/>
            <path class="cls-40" d="M15.31,23.75l-.74-.32-1.74,1.03,1.47.85,1.74-1.03-.74-.53ZM13.63,24.61l.96-.56h.03s-.96.57-.96.57h-.02ZM14.32,25.04l-.06-.03,1.04-.61.06.04-1.04.6Z"/>
            <polygon class="cls-63" points="14.3 25.87 13.56 25.52 12.83 25.02 12.83 24.46 13.56 24.78 14.3 25.31 14.3 25.87"/>
            <polygon class="cls-38" points="16.04 24.28 14.3 25.3 14.3 25.87 16.04 24.85 16.04 24.28"/>
            <polygon class="cls-27" points="15.76 24.6 14.58 25.3 14.58 25.55 15.76 24.85 15.76 24.6"/>
            <polygon class="cls-63" points="15 23.84 14.61 24.06 14.58 24.05 13.63 24.61 13.22 24.45 14.58 23.66 15 23.84"/>
            <polygon class="cls-63" points="15.67 24.26 15.36 24.44 15.3 24.4 14.26 25 13.94 24.8 15.3 24 15.67 24.26"/>
            <path class="cls-45" d="M13.73,25.28c0,.13-.09.18-.2.11-.11-.06-.2-.22-.2-.34s.09-.18.2-.11c.11.06.2.22.2.34"/>
            <path class="cls-16" d="M24.14,13.85c-.07.09-.47-.07-.58-.04-.12.03-.24.05-.35.08-.24.06-.47.14-.7.23-.46.19-.88.45-1.26.77-.09.08-.19.16-.28.25-.09.09-.17.17-.26.27-.18.2-.35.41-.52.62-.34.43-.67.88-1,1.33-.66.91-1.29,1.84-2.01,2.76-.18.23-.37.46-.59.68-.12.11-.23.23-.43.35-.2.11-.42.15-.62.15-.41,0-.74-.15-1.02-.31-.28-.17-.52-.35-.76-.58l-.11-.1v-.17c-.05-.59-.08-1.18-.11-1.77-.02-.33-.04-.66-.05-.99l-.11-2.73-.78-3.17c-.26-1.07-.51-2.15-.76-3.22l.23-.06.51-.13c.29,1.07.58,2.13.86,3.2l.83,3.21v.05s.02.05.02.05l.04,1.36.02.67.02.73c.02.52.03,1.05.03,1.58,0,.34.01.68.02,1.02.32.26.73.48,1.03.48.02,0,.04,0,.06,0,.08,0,.14-.03.19-.06.04-.03.13-.11.21-.2.16-.19.32-.4.48-.63.11-.15.21-.3.31-.46.13-.19.26-.39.39-.59t0,0c.13-.2.26-.41.39-.62.24-.38.48-.77.73-1.15.31-.48.62-.96.96-1.43.17-.24.34-.47.53-.71.1-.12.21-.24.31-.36.11-.12.22-.22.34-.33.47-.43,1.01-.78,1.59-1.05.29-.14.58-.25.89-.33.15-.04.31-.09.47-.11.17-.02.32-.01.53.06l.32,1.42Z"/>
            <g class="cls-61">
              <g class="cls-78">
                <g class="cls-36">
                  <path class="cls-81" d="M13.68,15.7s-.05-.06-.05-.11c0-.33-.03-.66.08-.98,0-.02.02-.04.03-.06l-1.66-6.33-.23.06c.25,1.07.5,2.15.76,3.22l.78,3.16.11,2.73c.01.33.03.66.05.99.03.03.07.04.11.04,0-.91.01-1.82.02-2.73"/>
                </g>
              </g>
            </g>
            <g class="cls-61">
              <g class="cls-72">
                <g class="cls-47">
                  <path class="cls-70" d="M20.71,15.42c.09-.1.17-.18.26-.27.09-.09.18-.16.27-.25.38-.32.8-.58,1.26-.77.23-.1.46-.17.7-.23.12-.03.24-.05.36-.08.11-.03.51.13.58.04l-.16-.68c-.37,0-1.23.06-2.09.51-1.15.6-2.96,3.38-3.78,4.67-.83,1.29-1.67,2.44-2.52,2.59-.17.03-.35.15-.49.32.14.04.28.06.43.06.21,0,.42-.04.62-.15.2-.12.32-.23.44-.35.22-.23.41-.46.59-.68.72-.92,1.35-1.85,2.01-2.76.33-.45.66-.9,1-1.33.17-.21.34-.43.52-.62"/>
                </g>
              </g>
            </g>
            <polygon class="cls-16" points="17.62 17.9 17.35 18.58 17.09 18.48 17.09 18.48 14.79 17.57 14.36 16.62 13.51 14.76 13.78 14.68 14.29 14.54 15.33 17 17.49 17.85 17.62 17.9"/>
            <g class="cls-61">
              <g class="cls-12">
                <g class="cls-41">
                  <path class="cls-70" d="M17.14,18.17c-.33-.12-2.22-.89-2.22-.89l-.58-1.33-.08-.18c0,.19,0,.38,0,.56l.53,1.23,2.3.91s-.03-.17.05-.31"/>
                </g>
              </g>
            </g>
            <path class="cls-66" d="M15.79,21.88c-.13.22-.46.77-1.05.77-.19,0-.41-.06-.66-.2-.89-.52-8.9-8.48-8.91-9.63,0-.39.09-.65.29-.76.28-.16.63.05.65.06l8.39,6.72c1.32.95,1.56,2.62,1.3,3.05M5.95,12.33s-.15-.07-.26-.07c-.04,0-.08,0-.12.03-.11.06-.17.25-.16.54.01.95,7.86,8.86,8.79,9.41.7.41,1.08-.01,1.36-.48.16-.26.01-1.81-1.24-2.71h0s-8.38-6.71-8.38-6.71"/>
            <polygon class="cls-16" points="13.35 13.76 5.67 13.22 6.08 12.97 5.83 13.41 5.75 13.05 12.03 19.12 11.86 19.01 14.5 20.09 14.32 20.62 11.57 19.86 11.48 19.83 11.4 19.75 5.28 13.52 5.15 13.39 5.21 13.16 5.34 12.67 5.41 12.39 5.74 12.43 13.4 13.21 13.35 13.76"/>
            <g class="cls-61">
              <g class="cls-4">
                <g class="cls-5">
                  <path class="cls-70" d="M5.95,13.24l7.4.52v-.13s-7.09-.73-7.09-.73l-.33-.04-.07.28-.03.13c.1.05.2.09.3.13l-.18-.17Z"/>
                </g>
              </g>
            </g>
            <g class="cls-61">
              <g class="cls-43">
                <g class="cls-19">
                  <path class="cls-70" d="M11.69,19.55l-5.59-5.69-.07-.35c-.28-.11-.55-.23-.82-.36h0s-.06.24-.06.24l.13.13,6.11,6.23.08.08.09.02,2.71.75s.06-.09.09-.13l.04-.12-2.71-.81Z"/>
                </g>
              </g>
            </g>
            <path class="cls-16" d="M10.25,7.21c-.28.16-.64.25-.98.25-.29,0-.57-.06-.78-.18l-4.66-2.69c-.24-.14-.37-.34-.37-.57,0-.26.18-.51.48-.68l.62-.36c.52-.3,1.3-.33,1.76-.07l4.66,2.69c.24.14.37.34.37.57,0,.26-.18.51-.48.69l-.62.36ZM8.69,6.92c.34.19.95.16,1.35-.06l.62-.36c.17-.1.28-.23.28-.33s-.11-.18-.17-.21l-4.66-2.69c-.34-.2-.95-.16-1.35.06l-.62.36c-.17.1-.28.23-.28.33s.1.18.17.21l4.66,2.69Z"/>
            <g class="cls-61">
              <g class="cls-20">
                <g class="cls-29">
                  <path class="cls-70" d="M10.86,6.63l-.61.36c-.28.16-.64.24-.98.24-.29,0-.56-.06-.77-.18l-4.63-2.67c-.24-.14-.37-.33-.37-.56-.02.06-.03.13-.03.19,0,.23.13.43.37.56l4.63,2.67c.21.12.49.18.78.18.34,0,.69-.08.97-.25l.61-.35c.3-.18.48-.42.48-.68,0,0,0,0,0,0-.06.19-.22.36-.45.49"/>
                </g>
              </g>
            </g>
            <g class="cls-61">
              <g class="cls-52">
                <g class="cls-74">
                  <path class="cls-70" d="M10.77,5.74l-4.63-2.67c-.34-.19-.95-.16-1.35.06l-.61.35c-.17.1-.28.22-.28.33,0,.02,0,.05.02.07.05-.07.12-.14.23-.2l.61-.35c.39-.23,1.01-.26,1.34-.06l4.63,2.67s.12.08.15.14c.03-.04.05-.09.05-.13,0-.1-.1-.18-.17-.21"/>
                </g>
              </g>
            </g>
            <path class="cls-16" d="M5.39,13.11l-1.14-8.51,2.39-1.32s.12-.04.26.1c.09.1,0,.22,0,.22l-2.21,1.22,1.1,8.23-.4.05Z"/>
            <g class="cls-61">
              <g class="cls-56">
                <g class="cls-8">
                  <path class="cls-70" d="M5.69,13.33l-.06-.05-.04-.25-.09-.57-1.13-7.57-.1-.06h0s1.1,8.23,1.1,8.23h.07s.03.21.03.21v.07s.06.04.06.04c.04-.04.1-.06.15-.06"/>
                </g>
              </g>
            </g>
            <polygon class="cls-16" points="5.79 13.1 5.42 12.91 8.44 6.95 10.78 5.6 10.98 5.95 8.75 7.24 5.79 13.1"/>
            <g class="cls-61">
              <g class="cls-71">
                <g class="cls-6">
                  <polygon class="cls-70" points="10.92 5.85 10.88 5.78 8.97 7.01 9.06 7.06 9.44 6.84 10.92 5.85"/>
                </g>
              </g>
            </g>
            <g class="cls-61">
              <g class="cls-10">
                <g class="cls-60">
                  <polygon class="cls-70" points="8.68 7.35 8.47 7.25 5.75 12.78 5.91 13.09 5.8 12.71 6.16 12.36 8.68 7.35"/>
                </g>
              </g>
            </g>
            <polygon class="cls-16" points="6.42 5.94 6.19 5.6 8.35 4.18 8.71 4.25 8.57 4.52 6.42 5.94"/>
            <polygon class="cls-16" points="7.75 6.66 7.52 6.32 9.67 4.9 9.9 5.24 7.75 6.66"/>
            <g class="cls-61">
              <g class="cls-42">
                <g class="cls-3">
                  <path class="cls-70" d="M7.97,6.52l1.88-1.25s.06-.07.08-.15l-2.08,1.35.12.06Z"/>
                </g>
              </g>
            </g>
            <path class="cls-11" d="M5.94,13.33c0,.1-.07.14-.16.09-.09-.05-.16-.17-.16-.27s.07-.14.16-.09c.09.05.16.17.16.27"/>
            <path class="cls-80" d="M15.45,18.99s-8.35-6.82-9.43-7.11c-1.08-.29-.84,1.63-.1,2.18.13.1,5.41,4.05,5.84,4.49,2.02,2.12,1.07,2.82,2.55,3.78,1.55,1,2.28-.33,2.19-1.32-.09-.98-.46-1.47-1.05-2.03"/>
            <path class="cls-44" d="M15.17,19.11s-8.35-6.82-9.43-7.11c-1.08-.29-1.02,1.47-.1,2.18.13.1,5.41,4.05,5.84,4.49,2.02,2.12,1.08,2.82,2.55,3.78,1.55,1,2.28-.33,2.19-1.32-.09-.98-.46-1.47-1.05-2.03"/>
            <path class="cls-24" d="M5.75,12.59s9.4,7.18,9.64,7.68c.24.5.35,1.12.1,1.47-.26.35-.81.46-1.45-.09-.64-.55-.27-1.02-.65-1.69-.38-.67-7.55-6.11-7.75-6.34-.08-.09-.26-.35-.28-.57-.03-.34.14-.65.39-.46"/>
            <path class="cls-80" d="M14.16,21.59c-.64-.55-.27-1.02-.65-1.69-.38-.67-7.55-6.11-7.75-6.34-.08-.09-.26-.35-.28-.57-.02-.18.03-.36.11-.45-.16.02-.25.25-.23.51.02.23.2.48.28.57.2.23,7.37,5.67,7.75,6.34.38.67.02,1.14.65,1.69.51.44.97.45,1.26.26-.29.12-.69.06-1.14-.32"/>
            <path class="cls-11" d="M14.92,20.96c0,.22-.16.31-.35.2-.19-.11-.35-.38-.35-.61s.16-.31.35-.2c.19.11.35.38.35.6"/>
            <path class="cls-69" d="M11.88,8.14l-1.01-3.43.57-.17,1.03,3.5c.02.06,0,.12-.03.17-.1.14-.29.18-.44.09-.06-.04-.1-.1-.12-.16"/>
            <path class="cls-31" d="M8.81,6.47c-.84-.62-.02-1.2-.02-1.2l1.26.03s.98-1.03,1.97-.49c.99.55.92,1.56,1.36,1.94.29.25.68-.05,1.01.36.18.23.43,1.47.04,1.34-.71-.22-2.07-.77-2.48-.97-.61-.29-2.29-.39-3.13-1.02"/>
            <path class="cls-64" d="M8.93,5.73c-.8-.59,1-1.02,1-1.02l.17-.09s.93-.99,1.88-.47c.94.52.88,1.48,1.3,1.85.27.24.78.71,1.09,1.11.18.22-.22.43-.59.32-.67-.21-1.47-.53-1.86-.72-.59-.28-2.19-.38-2.99-.97"/>
            <g class="cls-61">
              <g class="cls-13">
                <g class="cls-14">
                  <path class="cls-70" d="M4.63,4.58l2.02-1.11s.05-.08.03-.13l-2.18,1.17.12.07Z"/>
                </g>
              </g>
            </g>
            <g class="cls-61">
              <g class="cls-76">
                <g class="cls-22">
                  <path class="cls-70" d="M6.44,5.63l1.88-1.24s.05-.08.03-.13l-2.04,1.29.12.07Z"/>
                </g>
              </g>
            </g>
            <path class="cls-16" d="M24.66,14.54c-.09.02-.17.02-.24.02-.38,0-.48-.25-.48-.25l-.62-3.43,1.19-.21.16.86.47,2.57s.05.34-.48.44"/>
            <g class="cls-61">
              <g class="cls-49">
                <g class="cls-23">
                  <path class="cls-70" d="M23.88,11.45s.5,2.74.54,3.11c-.38,0-.47-.25-.47-.25l-.62-3.44,1.19-.21.16.86c-.35.06-.79-.07-.79-.07"/>
                </g>
              </g>
            </g>
            <polygon class="cls-57" points="23.38 10.89 25.46 11.52 25.47 10.45 23.38 10.33 23.38 10.89"/>
            <polygon class="cls-68" points="23.38 10.33 25.17 10.78 25.17 10.15 24.1 9.86 23.38 10.33"/>
            <path class="cls-34" d="M27.21,2.87s.25-.49.25-.49c0,0-.27-.12-.32-.23-.04-.11-.29-.39-.29-.39l-.12-.03-.57.86s.71.56,1.05.28"/>
            <path class="cls-34" d="M26.73,3.52c-.4-.09-.76-.46-.82-.82-.05-.37.23-.59.62-.5.4.09.76.46.82.83.05.37-.23.59-.62.5"/>
            <path class="cls-37" d="M26.48,2.27l.08-.1s0,0,0,0c.32.04.63.22.78.45l-.07.11c-.15-.23-.46-.42-.79-.46,0,0,0,0,0,0"/>
            <path class="cls-18" d="M27.21,7.48c0,.2-.02.42-.12.65-.03.06-.05.11-.09.17l-.06.08-.04.05-.17.2c-.22.27-.44.55-.65.83l-.32.42c-.11.14-.22.28-.38.38l-.08.07c-.14.05-.26.13-.37.22l-.08.03c-.15.13-.32.13-.48.16-.16.03-.33.04-.5.06-.34.04-.67.08-1.01.1-.09,0-.17.01-.26.02h-.23s-.08-.02-.11-.03c-.27-.09-.4-.25-.52-.39-.24-.29-.4-.59-.56-.89-.31-.6-.56-1.23-.85-1.78-.11-.22-.34-.37-.62-.47-.27-.09-.58-.15-.87-.16l-1.49.32-.92.2-.11-.48,2.44-.55h.03s.03,0,.03,0c.37,0,.71.06,1.06.18.17.06.35.14.51.26.16.11.32.28.41.45.33.61.57,1.21.88,1.79.15.28.31.56.5.78.09.11.2.2.25.21,0,0,.01,0,.02,0h.03s.11,0,.11,0c.08,0,.15,0,.23-.02.32-.03.64-.07.96-.13.16-.03.32-.07.48-.09.16-.02.31-.07.48-.01.08-.04.16-.08.24-.13.05-.18.14-.33.25-.47l.33-.43c.22-.29.44-.57.67-.84l.18-.21.04-.05.02-.03s.02-.04.04-.06c.04-.1.07-.24.07-.4,0-.31-.05-.65-.11-1-.12-.69-.31-1.39-.33-2.15,0-.19,0-.39.05-.6.04-.16.1-.59.17-.74.02-.04.03-.14.07-.17.01,0,.04-.01.06-.02.05,0,.12,0,.16,0,.05,0,.11,0,.15.02.02,0,.03.01.04.02.03.02.05.05.08.09.03.07.02.09,0,.15-.05.16-.13.63-.15.75-.03.14-.04.3-.03.46.03.66.23,1.35.37,2.05.06.29.11.58.12.9,0,.07,0,.15,0,.23"/>
            <path class="cls-45" d="M27.21,7.48c0,.2-.02.42-.12.65-.03.06-.05.11-.09.17l-.06.08-.04.05-.17.2c-.22.27-.44.55-.65.83l-.32.42c-.11.14-.22.28-.38.38l-.08.07c-.14.05-.26.13-.37.22l-.08.03c-.15.13-.32.13-.48.16-.16.03-.33.04-.5.06-.34.04-.67.08-1.01.1-.09,0-.17.01-.26.02h-.23s-.08-.02-.11-.03c-.27-.09-.4-.25-.52-.39-.24-.29-.4-.59-.56-.89-.31-.6-.56-1.23-.85-1.78-.11-.22-.34-.37-.62-.47-.27-.09-.58-.15-.87-.16l-1.49.32v-.2s1.21-.34,1.62-.31c.41.03,1.29.17,1.45.59.16.42,1.31,2.88,1.8,3.05.5.18,1.98.05,2.4-.12.42-.17.95-.55,1.16-.87.22-.32,1-1.16,1.28-1.74.09-.18.13-.42.14-.66,0,.07,0,.15,0,.23"/>
            <path class="cls-45" d="M26.93,8.16c.04-.1.06-.24.07-.4,0-.31-.05-.65-.12-1-.12-.69-.31-1.38-.33-2.15,0-.19,0-.39.05-.6.04-.16.11-.59.17-.74.01-.04.03-.14.06-.17.02,0,.04-.01.07-.02,0,0-.23,1.1-.23,1.46s.38,1.62.46,2.09c.08.46.18,1.26-.25,1.62l.02-.03s.02-.04.04-.07"/>
            <path class="cls-18" d="M26.57,5.84h0s-.02.03-.02.03l-5.09,3.39-.13-.2-.14-.21,5.08-3.39s.22-.05.26.02c.03.05.05.1.06.14h0c.03.11,0,.19-.03.23"/>
            <path class="cls-45" d="M26.6,5.61h0s-.01.1-.03.23h0s-.02.03-.02.03l-4.96,3.3s-.04-.16-.11-.21l5.12-3.35h0Z"/>
          </g>
          <g class="cls-32">
            <path class="cls-37" d="M17.07,6.86c-.11.04-2.14.72-2.59.61-.06.02-.09.14-.07.33.03.27.15.59.26.71.03.04.07.05.09.04.33-.32,2.43-.75,2.54-.77-.02,0-.05,0-.08-.04-.1-.1-.2-.37-.22-.6-.02-.16,0-.26.06-.28"/>
            <path class="cls-37" d="M17.01,7.14c-.02-.16,0-.26.06-.27-.11.04-2.14.72-2.59.61-.06.02-.09.14-.07.33,0,.05.01.1.02.15.02-.01.04-.02.06-.03,0,0,2.51-.62,2.53-.63-.01-.05-.02-.1-.02-.14"/>
            <path class="cls-37" d="M17.31,7.78s-.05,0-.08-.04c-.04-.04-.09-.12-.13-.21,0,0-.02,0-.03.01l-2.54.73c.04.1.09.19.14.24.03.03.07.05.09.04.34-.32,2.43-.75,2.54-.77"/>
            <path class="cls-50" d="M14.51,7.72q.64-.11,2.5-.63c0-.13.02-.21.06-.23-.11.04-2.14.72-2.59.6-.05.02-.08.12-.07.27.02,0,.06,0,.08-.01,0,0,.01,0,.02,0"/>
            <path class="cls-50" d="M17.31,7.78s-.05,0-.08-.04c-.01-.01-.02-.02-.03-.03,0,0-.02,0-.03,0-2.19.49-2.53.75-2.53.75.01.02.02.03.04.04.03.03.07.05.09.04.34-.32,2.43-.75,2.54-.77"/>
            <path class="cls-53" d="M14.87,8.07c.2-.07.39-.16.58-.23-.07,0-.14-.01-.22,0l-.56.11c-.1.03-.14.07-.15.09-.02.02-.01.06,0,.08.05.08.2.02.35-.04"/>
          </g>
          <g class="cls-73">
            <path class="cls-53" d="M17.31,7.78c-.36.07-2.18.46-2.51.75.32-.32,2.43-.74,2.54-.77,0,0-.02.01-.02.01"/>
            <path class="cls-53" d="M17.34,7.76s-.02.01-.03.01c0,0-.02,0-.03,0-.02,0-.04,0-.06.01l-.08.02s-.07.02-.1.02l-.12.03s-.1.02-.14.03l-.15.03s-.11.03-.16.04l-.17.04c-.05.01-.12.03-.17.04l-.17.05c-.05.01-.12.03-.17.05l-.17.05s-.11.03-.16.05l-.15.05s-.1.04-.14.05l-.12.05s-.08.03-.11.05l-.07.04s-.05.03-.07.05c.32-.32,2.43-.74,2.54-.77"/>
            <path class="cls-37" d="M17.34,7.76s-.02.01-.03.01c0,0-.02,0-.03,0-.02,0-.04,0-.06.01l-.08.02s-.07.02-.1.02l-.12.03s-.1.02-.14.03l-.15.03s-.11.03-.16.04l-.17.04c-.05.01-.12.03-.17.04l-.17.05c-.05.01-.12.03-.17.05l-.17.05s-.11.03-.16.05l-.15.05s-.1.04-.14.05l-.12.05s-.08.03-.11.05l-.07.04s-.05.03-.07.05c.32-.32,2.43-.74,2.54-.77"/>
            <path class="cls-50" d="M17.34,7.76s-.02.01-.03.01c0,0-.02,0-.03,0-.02,0-.04,0-.06.01l-.08.02s-.07.02-.1.02l-.12.03s-.1.02-.14.03l-.15.03s-.11.03-.16.04l-.17.04c-.05.01-.12.03-.17.04l-.17.05c-.05.01-.12.03-.17.05l-.17.05s-.11.03-.16.05l-.15.05s-.1.04-.14.05l-.12.05s-.08.03-.11.05l-.07.04s-.05.03-.07.05c.32-.32,2.43-.74,2.54-.77"/>
          </g>
          <g class="cls-59">
            <path class="cls-53" d="M14.51,7.47c.44.11,2.47-.57,2.58-.6.02,0,.03.02.05.04-.11.04-2.16.71-2.57.61-.02-.02-.04-.04-.06-.04"/>
            <path class="cls-53" d="M17.1,6.86s.03.02.05.04c-.11.04-2.16.71-2.57.61-.02-.02-.05-.04-.06-.04.44.11,2.47-.57,2.58-.61"/>
            <path class="cls-37" d="M17.1,6.86s.03.02.05.04c-.11.04-2.16.71-2.57.61-.02-.02-.05-.04-.06-.04.44.11,2.47-.57,2.58-.61"/>
            <path class="cls-50" d="M17.1,6.86s.03.02.05.04c-.11.04-2.16.71-2.57.61-.02-.02-.05-.04-.06-.04.44.11,2.47-.57,2.58-.61"/>
          </g>
          <g class="cls-7">
            <path class="cls-53" d="M14.05,8c-.03-.3.08-.62.46-.53.02,0,.04.02.06.04-.49-.11-.46.6-.46.63,0-.04-.02-.75.46-.63.12.12.24.44.26.71.02.16,0,.27-.04.31-.45.4-.73-.27-.75-.53"/>
            <path class="cls-53" d="M14.58,7.51c.12.12.24.44.26.71.02.16,0,.27-.04.31-.02.01-.04.03-.05.04-.06.04-.08.05-.14.07h-.05s-.06,0-.09,0h-.04s-.04-.03-.06-.05l-.03-.02s-.03-.03-.04-.04l-.03-.03s-.02-.03-.03-.04l-.02-.03s-.02-.02-.02-.04l-.02-.03s-.01-.02-.02-.03v-.03s-.02-.02-.03-.03v-.02s-.02-.02-.02-.03v-.02s-.01-.02-.02-.02v-.02s-.01-.02-.01-.02v-.02s-.01-.02-.01-.02v-.02s0-.02,0-.03v-.03s0-.02,0-.03v-.03s0-.03,0-.04v-.03s0-.03,0-.04v-.04s0-.03,0-.04v-.04s.02-.03.02-.05v-.04s.03-.04.04-.05l.02-.04s.03-.04.05-.05l.04-.03s.06-.02.08-.03h.05c.08,0,.09,0,.15,0,.02,0,.04.02.06.04-.49-.11-.46.6-.46.63,0-.04-.02-.75.46-.63"/>
            <path class="cls-37" d="M14.58,7.51c.12.12.24.44.26.71.02.16,0,.27-.04.31-.02.01-.04.03-.05.04-.06.04-.08.05-.14.07h-.05s-.06,0-.09,0h-.04s-.04-.03-.06-.05l-.03-.02s-.03-.03-.04-.04l-.03-.03s-.02-.03-.03-.04l-.02-.03s-.02-.02-.02-.04l-.02-.03s-.01-.02-.02-.03v-.03s-.02-.02-.03-.03v-.02s-.02-.02-.02-.03v-.02s-.01-.02-.02-.02v-.02s-.01-.02-.01-.02v-.02s-.01-.02-.01-.02v-.02s0-.02,0-.03v-.03s0-.02,0-.03v-.03s0-.03,0-.04v-.03s0-.03,0-.04v-.04s0-.03,0-.04v-.04s.02-.03.02-.05v-.04s.03-.04.04-.05l.02-.04s.03-.04.05-.05l.04-.03s.06-.02.08-.03h.05c.08,0,.09,0,.15,0,.02,0,.04.02.06.04-.49-.11-.46.6-.46.63,0-.04-.02-.75.46-.63"/>
            <path class="cls-50" d="M14.58,7.51s.05.06.08.1c-.02,0-.04-.02-.06-.02-.45-.16-.24.38-.16.54.18.4.3.2.41.05,0,.01,0,.03,0,.04.02.16,0,.27-.04.31-.02.01-.04.03-.05.04-.06.04-.08.05-.14.07h-.05s-.06,0-.09,0h-.04s-.04-.03-.06-.05l-.03-.02s-.03-.03-.04-.04l-.03-.03s-.02-.03-.03-.04l-.02-.03s-.02-.02-.02-.04l-.02-.03s-.01-.02-.02-.03v-.03s-.02-.02-.03-.03v-.02s-.02-.02-.02-.03v-.02s-.01-.02-.02-.02v-.02s-.01-.02-.01-.02v-.02s-.01-.02-.01-.02v-.02s0-.02,0-.03v-.03s0-.02,0-.03v-.03s0-.03,0-.04v-.03s0-.03,0-.04v-.04s0-.03,0-.04v-.04s.02-.03.02-.05v-.04s.03-.04.04-.05l.02-.04s.03-.04.05-.05l.04-.03s.06-.02.08-.03h.05c.08,0,.09,0,.15,0,.02,0,.04.02.06.04-.49-.11-.46.6-.46.63,0-.04-.02-.75.46-.63"/>
            <path class="cls-37" d="M14.57,7.78c.09.05.11.17.12.22,0,.06-.04.16-.06.17-.06.03-.11-.06-.13-.12-.06-.12-.04-.24-.04-.25,0-.02.03-.04.05-.05.02,0,.04.02.06.03"/>
            <path class="cls-53" d="M14.6,7.93s.02.09,0,.1c0,0-.02,0-.02,0-.02-.02-.04-.05-.04-.07,0-.02.02-.04.02-.06,0,.01.03.03.03.04"/>
          </g>
          <g>
            <path class="cls-50" d="M17.12,7.99l-.27-.25c.1.09.16-.01.13-.24-.02-.23-.12-.5-.22-.6l.2-.38c.17.17.35.64.39,1.05.04.4-.06.59-.23.43"/>
            <polygon class="cls-57" points="24.93 10.65 25.22 11.41 25.41 11.64 25.67 9.31 24.93 9.79 24.93 10.65"/>
            <polygon class="cls-48" points="25.42 11.58 26.15 11.11 25.97 9.41 25.24 9.89 25.42 11.58"/>
            <polygon class="cls-51" points="25.67 9.31 25.97 9.41 25.22 9.9 24.93 9.79 25.67 9.31"/>
            <path class="cls-17" d="M29.29,8.25c-3.1,2.88-6.2,5.75-9.29,8.63l-.25,7.55c5.89,2.71,11.78,5.42,17.67,8.13,1.27-1.3,2.54-2.6,3.82-3.9-.19-2.41-.39-4.81-.58-7.22-3.79-4.4-7.58-8.8-11.37-13.19"/>
            <polygon class="cls-21" points="20.54 17 29.29 8.85 40.39 21.63 37.18 24.58 20.54 17"/>
            <polygon class="cls-25" points="29.14 16.9 26.44 19.65 37.18 24.58 38.12 23.72 29.14 16.9"/>
            <path class="cls-34" d="M27.78,0l-1.3,2.14.88.45,1.24-2.12s-.34-.47-.82-.47"/>
            <polygon class="cls-37" points="17.37 6.67 17.47 6.91 18.44 7.15 19.94 6.73 19.8 6.49 18.71 6.28 17.37 6.67"/>
            <path class="cls-37" d="M20.82,13.82l-.89-.25c-.5-.14-1.03.05-1.33.47l-2.95,4.22c-.14.2-.13.46.01.64l.78,1c.11.14.31.14.42,0l4.08-5.72c.1-.13.04-.32-.12-.37"/>
            <polygon class="cls-37" points="14.36 20.94 15.07 23.78 15.62 24.04 14.87 20.83 14.36 20.94"/>
            <path class="cls-2" d="M41.27,22.51c-.46.54-.65,1.41-1.05,3.29-.48,2.24-.61,4.77-.61,4.77l.04.65.22.37s.26.21.48-2.49c.22-2.71,1.24-5.97,1.24-5.97"/>
            <path class="cls-2" d="M45.68,33.69c-.06-.1-.11-.2-.17-.3l-.17-.3c-.11-.2-.22-.41-.3-.62h0s0-.03,0-.03l-.7-2.27c-.23-.76-.47-1.51-.7-2.27-.46-1.51-.76-2.39-1.19-3.91l.84-.25c.47,1.51.76,2.39,1.2,3.91.23.76.43,1.52.65,2.28l.64,2.28v-.03c.07.22.12.44.18.67l.08.34c.03.11.06.22.08.34l-.42.16Z"/>
            <path class="cls-26" d="M45.63,26.11c-2.06-1.19-3.89-1.13-5.06-.06,1.16-.73,2.8-.66,4.62.39,3.52,2.03,6.38,6.96,6.38,11.01,0,1.68-.5,2.94-1.33,3.7,1.09-.68,1.76-2.07,1.76-4.03,0-4.04-2.86-8.97-6.38-11.01"/>
            <path class="cls-54" d="M49.09,29.24c-.14.01-.28-.05-.36-.17-.87-1.33-2.92-3.31-5.42-3.8-2.35-.46-4.09,1.95-4.23,1.9l-.12-.68c.52-.93,2.42-2.49,4.81-2.02,2.72.54,4.87,2.7,5.91,4.44-.15.19-.36.31-.6.33"/>
            <path class="cls-15" d="M49.47,28.67s.16.18.03.31c-.13.13-.32.21-.54.04-.22-.17-1.24-2.02-3.19-3.2-1.94-1.17-2.5-1.19-2.5-1.19,0,0,1.59.04,3.25,1.19,1.66,1.16,2.95,2.84,2.95,2.84"/>
            <path class="cls-77" d="M51.29,36.95c0-3.71-2.62-8.23-5.85-10.09-3.23-1.86-5.85-.37-5.85,3.34s2.62,8.23,5.85,10.09c3.23,1.87,5.85.37,5.85-3.34M50.79,36.66c0,3.39-2.4,4.76-5.35,3.05-2.96-1.71-5.35-5.84-5.35-9.23s2.4-4.76,5.35-3.05c2.96,1.71,5.35,5.84,5.35,9.23"/>
            <path class="cls-62" d="M51.58,37.45c0-4.04-2.86-8.97-6.38-11.01-3.53-2.04-6.38-.41-6.38,3.64s2.86,8.97,6.38,11.01c3.52,2.04,6.38.41,6.38-3.64M50.55,36.85c0,3.39-2.4,4.76-5.35,3.05-2.96-1.71-5.35-5.84-5.35-9.23s2.4-4.76,5.35-3.05c2.96,1.71,5.35,5.84,5.35,9.23"/>
            <path class="cls-45" d="M51.04,37.14c0-3.71-2.62-8.23-5.85-10.09-3.23-1.86-5.85-.37-5.85,3.34s2.62,8.23,5.85,10.09c3.23,1.86,5.85.37,5.85-3.34M50.55,36.85c0,3.39-2.4,4.76-5.35,3.05-2.96-1.71-5.35-5.84-5.35-9.23s2.4-4.76,5.35-3.05c2.96,1.71,5.35,5.84,5.35,9.23"/>
            <path class="cls-77" d="M43.31,32.27l-.14.08.14.49.54.38.18.73.48.83.68.71.98.45.14-.08.64-.5.15-1.01-.54-1.47-.9-.96-1.06-.44-.14.08-.23.24-.9.48ZM46.68,34.07l-1.25-1,.41-.53.58.68.26.85ZM45.95,34.33l.06-.45.67.51-.08.6-.54.38-.11-1.04ZM44.86,34.71l.52-.38h.39v.95l-.45-.14-.46-.44ZM44.84,32.99l-.48-.78.37-.22h.37l.52.22-.54.78h-.24ZM44.2,32.39l.53.86-.05,1.08-.27-.46-.21-.48v-1Z"/>
            <path class="cls-45" d="M43.17,32.35v.57l.54.38.18.73.48.83.68.71,1.12.37.64-.5.15-1.01-.54-1.47-.9-.96-1.06-.44-.38.31-.9.48ZM46.54,34.15l-1.25-1,.41-.53.58.68.26.85ZM45.81,34.41l.06-.45.67.51-.08.6-.54.38-.11-1.04ZM44.72,34.79l.52-.38h.39v.95l-.45-.14-.46-.44ZM44.7,33.07l-.48-.77.37-.22h.37l.52.22-.53.77h-.24ZM44.06,32.47l.53.86-.05,1.08-.27-.46-.21-.48v-1Z"/>
            <path class="cls-2" d="M45.34,34.26c-.12-.07-.23-.15-.34-.22l-.34-.23-.67-.46-.08-.05-.04-.12-3.01-8.81.89-.1,2.85,8.66-.12-.17.57.58.28.29c.09.1.19.19.28.29l-.29.34Z"/>
            <path class="cls-2" d="M41.79,24.36s-.12-.28.21-.58c.13-.12.33-.11.47.32l.84-.25s-.15-.55-.5-.79c-.34-.23-.79-.53-1.51.05-.49.39-.64.62-.4,1.5l.88-.24Z"/>
            <path class="cls-2" d="M41.17,23.29s-.42-1.36-.42-1.36l.83-.36.53,1.52-.93.2Z"/>
            <g class="cls-61">
              <g class="cls-65">
                <g class="cls-9">
                  <path class="cls-70" d="M45.35,33.62l-.28-.29-.48-.49-.48.14-2.8-8.52c-.03-.1-.16-.62.08-1.27,0,0,.14-.23.27-.31,0,0-.1-.01-.28.12,0,0-.52.41-.54,1.13l.05.24,3.01,8.8.04.12.08.05.67.46.34.23c.11.07.22.16.34.22l.29-.34c-.09-.1-.19-.2-.28-.29"/>
                </g>
              </g>
            </g>
            <polygon class="cls-37" points="23.12 30.84 23.27 30.61 24.51 30.77 24.65 31.04 23.12 30.84"/>
          </g>
        </g>
      </g>
    </g>
  </g>
</svg>