<?xml version="1.0" encoding="UTF-8"?>
<svg xmlns="http://www.w3.org/2000/svg" xmlns:xlink="http://www.w3.org/1999/xlink" viewBox="0 0 118.49 94.62">
  <defs>
    <style>
      .cls-1 {
        fill: #a43217;
      }

      .cls-2 {
        fill: #fff;
        font-family: SofiaPro-Bold, 'Sofia Pro';
        font-size: 8.09px;
        font-weight: 700;
      }

      .cls-3 {
        clip-path: url(#clippath-34);
      }

      .cls-4 {
        fill: #d32f30;
      }

      .cls-5 {
        clip-path: url(#clippath-38);
      }

      .cls-6 {
        clip-path: url(#clippath-21);
      }

      .cls-7 {
        fill: #e3b874;
      }

      .cls-8 {
        clip-path: url(#clippath-6);
      }

      .cls-9 {
        clip-path: url(#clippath-7);
      }

      .cls-10 {
        fill: #d5d3d3;
      }

      .cls-11 {
        clip-path: url(#clippath-17);
      }

      .cls-12 {
        fill: #c55417;
      }

      .cls-13 {
        fill: #cc9b53;
      }

      .cls-14 {
        clip-path: url(#clippath-31);
      }

      .cls-15 {
        clip-path: url(#clippath-15);
      }

      .cls-16 {
        clip-path: url(#clippath-33);
      }

      .cls-17 {
        clip-path: url(#clippath-18);
      }

      .cls-18 {
        clip-path: url(#clippath-4);
      }

      .cls-19 {
        clip-path: url(#clippath-22);
      }

      .cls-20 {
        clip-path: url(#clippath-23);
      }

      .cls-21 {
        fill: #c28b46;
      }

      .cls-22 {
        clip-path: url(#clippath-9);
      }

      .cls-23 {
        clip-path: url(#clippath-10);
      }

      .cls-24 {
        opacity: .6;
      }

      .cls-24, .cls-25, .cls-26 {
        mix-blend-mode: multiply;
      }

      .cls-27 {
        fill: #f4c900;
      }

      .cls-28 {
        fill: #878482;
      }

      .cls-29 {
        clip-path: url(#clippath-25);
      }

      .cls-30 {
        clip-path: url(#clippath-27);
      }

      .cls-31 {
        fill: #f5f7fc;
      }

      .cls-25, .cls-32 {
        opacity: .1;
      }

      .cls-33 {
        clip-path: url(#clippath-11);
      }

      .cls-34 {
        fill: none;
      }

      .cls-35 {
        fill: #ead4c8;
      }

      .cls-36 {
        fill: #f5a000;
      }

      .cls-37 {
        clip-path: url(#clippath-36);
      }

      .cls-38 {
        fill: #afabaa;
      }

      .cls-39 {
        clip-path: url(#clippath-35);
      }

      .cls-40 {
        clip-path: url(#clippath-28);
      }

      .cls-41 {
        fill: #97a1c0;
      }

      .cls-42 {
        fill: #8b2219;
      }

      .cls-43 {
        clip-path: url(#clippath-1);
      }

      .cls-44 {
        fill: #30343d;
      }

      .cls-45 {
        isolation: isolate;
      }

      .cls-46 {
        clip-path: url(#clippath-40);
      }

      .cls-47 {
        fill: #48444f;
      }

      .cls-48 {
        clip-path: url(#clippath-5);
      }

      .cls-49 {
        clip-path: url(#clippath-20);
      }

      .cls-50 {
        clip-path: url(#clippath-8);
      }

      .cls-51 {
        clip-path: url(#clippath-41);
      }

      .cls-52 {
        fill: #faf1f1;
      }

      .cls-53 {
        clip-path: url(#clippath-3);
      }

      .cls-54 {
        clip-path: url(#clippath-26);
      }

      .cls-55 {
        fill: #232021;
      }

      .cls-56 {
        fill: #f08700;
      }

      .cls-57 {
        clip-path: url(#clippath-12);
      }

      .cls-58 {
        fill: #b9c2e0;
      }

      .cls-59 {
        clip-path: url(#clippath-14);
      }

      .cls-60 {
        fill: #bbc3df;
      }

      .cls-61 {
        fill: #fcc83f;
      }

      .cls-62 {
        fill: #cab2a2;
      }

      .cls-63 {
        clip-path: url(#clippath-30);
      }

      .cls-64 {
        clip-path: url(#clippath-19);
      }

      .cls-65 {
        fill: #dfb364;
      }

      .cls-66 {
        fill: #da5813;
      }

      .cls-67 {
        clip-path: url(#clippath-32);
      }

      .cls-68 {
        fill: #664522;
      }

      .cls-32 {
        mix-blend-mode: screen;
      }

      .cls-69 {
        fill: #272d37;
      }

      .cls-70 {
        fill: #bd3d18;
      }

      .cls-71 {
        fill: #1d1e21;
      }

      .cls-72 {
        clip-path: url(#clippath-39);
      }

      .cls-73 {
        fill: #232221;
      }

      .cls-74 {
        fill: #2e2b30;
      }

      .cls-75 {
        fill: #f3dd98;
      }

      .cls-76 {
        clip-path: url(#clippath-16);
      }

      .cls-77 {
        clip-path: url(#clippath-2);
      }

      .cls-78 {
        fill: #494543;
      }

      .cls-79 {
        clip-path: url(#clippath-29);
      }

      .cls-80 {
        fill: #d8def1;
      }

      .cls-81 {
        clip-path: url(#clippath-37);
      }

      .cls-82 {
        clip-path: url(#clippath-13);
      }

      .cls-83 {
        fill: #b32421;
      }

      .cls-84 {
        fill: #333c4e;
      }

      .cls-85 {
        fill: #cac9c8;
      }

      .cls-86 {
        clip-path: url(#clippath-24);
      }

      .cls-87 {
        clip-path: url(#clippath);
      }

      .cls-88 {
        fill: #f3d394;
      }

      .cls-89 {
        fill: #242526;
      }

      .cls-26 {
        opacity: .5;
      }
    </style>
    <clipPath id="clippath">
      <rect class="cls-34" x="82.68" y="49.8" width="30.53" height="29.96"/>
    </clipPath>
    <clipPath id="clippath-1">
      <rect class="cls-34" x="82.68" y="49.8" width="30.53" height="29.96"/>
    </clipPath>
    <clipPath id="clippath-2">
      <rect class="cls-34" x="82.68" y="49.8" width="30.53" height="29.96"/>
    </clipPath>
    <clipPath id="clippath-3">
      <rect class="cls-34" x="82.68" y="49.8" width="30.53" height="29.96"/>
    </clipPath>
    <clipPath id="clippath-4">
      <rect class="cls-34" x="82.68" y="59.41" width="14.01" height="20.35"/>
    </clipPath>
    <clipPath id="clippath-5">
      <rect class="cls-34" x="82.68" y="59.41" width="14.01" height="20.35"/>
    </clipPath>
    <clipPath id="clippath-6">
      <rect class="cls-34" x="96.66" y="57.93" width="16.55" height="21.83"/>
    </clipPath>
    <clipPath id="clippath-7">
      <rect class="cls-34" x="96.66" y="57.93" width="16.55" height="21.83"/>
    </clipPath>
    <clipPath id="clippath-8">
      <rect class="cls-34" x="82.68" y="49.8" width="30.49" height="17.73"/>
    </clipPath>
    <clipPath id="clippath-9">
      <rect class="cls-34" x="82.68" y="49.8" width="30.49" height="17.73"/>
    </clipPath>
    <clipPath id="clippath-10">
      <rect class="cls-34" x="85.49" y="42.43" width="26.42" height="24.66"/>
    </clipPath>
    <clipPath id="clippath-11">
      <rect class="cls-34" x="85.49" y="42.43" width="26.42" height="24.66"/>
    </clipPath>
    <clipPath id="clippath-12">
      <rect class="cls-34" x="85.49" y="42.43" width="26.42" height="24.66"/>
    </clipPath>
    <clipPath id="clippath-13">
      <rect class="cls-34" x="85.49" y="42.43" width="26.42" height="24.66"/>
    </clipPath>
    <clipPath id="clippath-14">
      <rect class="cls-34" x="101.15" y="51.47" width="10.75" height="15.61"/>
    </clipPath>
    <clipPath id="clippath-15">
      <rect class="cls-34" x="101.15" y="51.47" width="10.75" height="15.61"/>
    </clipPath>
    <clipPath id="clippath-16">
      <rect class="cls-34" x="85.49" y="48.66" width="15.69" height="18.42"/>
    </clipPath>
    <clipPath id="clippath-17">
      <rect class="cls-34" x="85.49" y="48.66" width="15.69" height="18.42"/>
    </clipPath>
    <clipPath id="clippath-18">
      <rect class="cls-34" x="85.52" y="42.43" width="26.39" height="15.28"/>
    </clipPath>
    <clipPath id="clippath-19">
      <rect class="cls-34" x="85.52" y="42.43" width="26.39" height="15.28"/>
    </clipPath>
    <clipPath id="clippath-20">
      <rect class="cls-34" x="92.51" y="46.5" width="12.99" height="7.5"/>
    </clipPath>
    <clipPath id="clippath-21">
      <rect class="cls-34" x="92.51" y="46.5" width="12.99" height="7.5"/>
    </clipPath>
    <clipPath id="clippath-22">
      <rect class="cls-34" x="92.51" y="52.71" width="2.23" height="10.68"/>
    </clipPath>
    <clipPath id="clippath-23">
      <rect class="cls-34" x="92.51" y="52.71" width="2.23" height="10.68"/>
    </clipPath>
    <clipPath id="clippath-24">
      <rect class="cls-34" x="89.58" y="45.01" width="17.88" height="10.33"/>
    </clipPath>
    <clipPath id="clippath-25">
      <rect class="cls-34" x="89.58" y="45.01" width="17.88" height="10.33"/>
    </clipPath>
    <clipPath id="clippath-26">
      <rect class="cls-34" x="105.25" y="54.05" width="2.22" height="10.65"/>
    </clipPath>
    <clipPath id="clippath-27">
      <rect class="cls-34" x="105.25" y="54.05" width="2.22" height="10.65"/>
    </clipPath>
    <clipPath id="clippath-28">
      <rect class="cls-34" x="89.9" y="36.85" width="15.84" height="17.17"/>
    </clipPath>
    <clipPath id="clippath-29">
      <rect class="cls-34" x="89.9" y="36.85" width="15.84" height="17.17"/>
    </clipPath>
    <clipPath id="clippath-30">
      <rect class="cls-34" x="89.9" y="36.85" width="15.84" height="17.17"/>
    </clipPath>
    <clipPath id="clippath-31">
      <rect class="cls-34" x="89.9" y="36.85" width="15.84" height="17.17"/>
    </clipPath>
    <clipPath id="clippath-32">
      <rect class="cls-34" x="89.9" y="41.48" width="7.87" height="12.54"/>
    </clipPath>
    <clipPath id="clippath-33">
      <rect class="cls-34" x="89.9" y="41.48" width="7.87" height="12.54"/>
    </clipPath>
    <clipPath id="clippath-34">
      <rect class="cls-34" x="97.73" y="41.38" width="8.02" height="12.65"/>
    </clipPath>
    <clipPath id="clippath-35">
      <rect class="cls-34" x="97.73" y="41.38" width="8.02" height="12.65"/>
    </clipPath>
    <clipPath id="clippath-36">
      <rect class="cls-34" x="89.9" y="36.85" width="15.8" height="9.16"/>
    </clipPath>
    <clipPath id="clippath-37">
      <rect class="cls-34" x="89.9" y="36.85" width="15.8" height="9.16"/>
    </clipPath>
    <clipPath id="clippath-38">
      <rect class="cls-34" x="34.71" y="3.84" width="46.87" height="48.15"/>
    </clipPath>
    <clipPath id="clippath-39">
      <rect class="cls-34" x="34.71" y="3.84" width="46.87" height="48.16"/>
    </clipPath>
    <clipPath id="clippath-40">
      <rect class="cls-34" x="34.72" y="24.96" width="46.87" height="67.37"/>
    </clipPath>
    <clipPath id="clippath-41">
      <rect class="cls-34" x="34.72" y="24.96" width="46.87" height="67.37"/>
    </clipPath>
  </defs>
  <g class="cls-45">
    <g id="Calque_2">
      <g id="_Éléments_Mise_en_page" data-name="Éléments_Mise_en_page">
        <g>
          <polygon class="cls-60" points="111.19 73.41 115.82 73.41 115.82 70.71 111.19 73.41"/>
          <polygon class="cls-80" points="108.45 73.41 111.23 73.41 114.45 71.53 113.09 70.71 108.45 73.41"/>
          <polygon class="cls-60" points="111.19 73.41 115.82 73.41 115.82 70.71 111.19 73.41"/>
          <polygon class="cls-80" points="108.45 73.41 111.23 73.41 114.45 71.53 113.09 70.71 108.45 73.41"/>
          <polygon class="cls-70" points="63.48 72.77 63.48 73.41 69.01 73.41 69.01 69.5 63.48 72.77"/>
          <polygon class="cls-58" points="8.06 40.98 13.59 37.71 13.59 46.83 8.06 50.1 8.06 40.98"/>
          <g>
            <path class="cls-89" d="M13.79,45.35c.92-.54,2.17-.52,3.56.15.15.07.3.15.46.24,2.01,1.16,3.78,3.39,4.77,5.79.54,1.31.86,2.68.85,3.94,0,1.78-.63,3.03-1.65,3.62l-3.82,2.22c1.01-.59,1.64-1.84,1.64-3.62,0-1.27-.31-2.63-.85-3.94-.99-2.4-2.75-4.63-4.77-5.79-.15-.09-.3-.17-.45-.24-1.39-.67-2.63-.69-3.56-.15l3.82-2.22Z"/>
            <path class="cls-69" d="M13.98,47.96c-3.12-1.8-5.65-.35-5.66,3.22,0,3.58,2.51,7.94,5.62,9.73,3.11,1.8,5.65.36,5.66-3.22,0-3.58-2.51-7.94-5.62-9.74"/>
            <path class="cls-10" d="M10.07,52.19c0,2.48,1.73,5.48,3.88,6.72,1.23.71,2.33.69,3.05.08.54-.46.85-1.24.85-2.3.01-2.46-1.73-5.48-3.88-6.71-.89-.51-1.7-.64-2.36-.43-.94.26-1.53,1.21-1.55,2.65"/>
            <path class="cls-38" d="M10.75,51.85c0,2.46,1.73,5.48,3.88,6.72.89.51,1.72.64,2.37.42.54-.46.85-1.24.85-2.31.01-2.46-1.73-5.48-3.88-6.71-.89-.51-1.7-.64-2.36-.43-.54.46-.85,1.25-.86,2.31"/>
            <path class="cls-10" d="M13.97,50.62c0,.33.23.74.52.9.29.17.52.03.52-.3s-.23-.74-.52-.9c-.29-.17-.52-.03-.52.3"/>
            <path class="cls-10" d="M15.44,51.56c-.15.21-.06.62.19.93.25.31.57.4.71.19.14-.2.06-.62-.19-.93-.25-.31-.57-.4-.71-.19"/>
            <path class="cls-10" d="M16.67,53.21c-.25.02-.34.34-.19.71.14.37.46.65.71.63.25-.02.33-.34.19-.71-.14-.37-.46-.65-.71-.63"/>
            <path class="cls-10" d="M17.33,55.1c-.29-.17-.52-.03-.52.3s.23.74.52.9c.29.17.52.03.52-.3s-.23-.74-.52-.9"/>
            <path class="cls-10" d="M17.25,56.75c-.25-.31-.57-.39-.71-.19-.14.2-.06.62.19.93.25.31.57.4.71.19.15-.21.06-.62-.19-.93"/>
            <path class="cls-10" d="M16.44,57.7c-.15-.37-.46-.65-.71-.63-.25.02-.33.34-.19.71.14.37.47.65.71.63.25-.02.33-.34.19-.71"/>
            <path class="cls-10" d="M15.12,57.71c0-.33-.23-.74-.52-.9-.29-.17-.52-.03-.52.3,0,.33.23.74.52.9s.52.03.52-.3"/>
            <path class="cls-10" d="M13.66,56.76c.14-.2.06-.62-.19-.93-.25-.31-.57-.4-.71-.19-.15.2-.06.62.19.93.25.31.57.39.71.19"/>
            <path class="cls-10" d="M12.43,55.12c.25-.02.33-.34.19-.71-.15-.37-.46-.65-.71-.63-.25.02-.34.34-.19.71.14.37.47.65.71.63"/>
            <path class="cls-10" d="M11.77,53.22c.29.17.52.03.52-.3s-.23-.74-.52-.9c-.29-.17-.52-.03-.52.3s.23.74.52.9"/>
            <path class="cls-10" d="M11.85,51.57c.25.31.57.4.71.19.14-.2.06-.62-.19-.93-.25-.31-.57-.4-.71-.19-.15.2-.06.62.19.93"/>
            <path class="cls-10" d="M12.66,50.62c.14.37.46.65.71.63.25-.02.33-.34.19-.71-.14-.37-.46-.65-.71-.63-.25.02-.33.34-.19.71"/>
            <path class="cls-78" d="M13.62,51.96c.27-.15.63-.15,1.03.04.04.02.09.04.13.07.58.34,1.09.98,1.38,1.67.16.38.25.77.25,1.14,0,.51-.18.88-.48,1.05l-.55.32c.29-.17.47-.53.48-1.05,0-.37-.09-.76-.25-1.14-.29-.69-.8-1.34-1.38-1.67-.04-.03-.09-.05-.13-.07-.4-.19-.76-.2-1.03-.04l.55-.32Z"/>
            <path class="cls-28" d="M14.22,52.39c-.9-.52-1.63-.1-1.64.93,0,1.03.72,2.29,1.62,2.81.9.52,1.63.1,1.64-.93,0-1.03-.73-2.29-1.62-2.81"/>
            <path class="cls-73" d="M8.33,51.19c0,3.58,2.51,7.94,5.62,9.74,3.11,1.8,5.65.35,5.66-3.22,0-3.58-2.51-7.94-5.62-9.74-3.11-1.8-5.65-.35-5.66,3.23M10.75,51.85c.01-1.06.33-1.85.86-2.31.65-.21,1.47-.08,2.36.43,2.15,1.23,3.89,4.24,3.88,6.71,0,1.06-.32,1.85-.85,2.31-.65.22-1.48.09-2.37-.42-2.15-1.24-3.88-4.26-3.88-6.72"/>
            <path class="cls-89" d="M69.39,76.66c.92-.54,2.17-.52,3.56.15.15.07.3.15.46.24,2.01,1.16,3.78,3.39,4.77,5.79.54,1.31.86,2.68.85,3.94,0,1.78-.63,3.03-1.65,3.62l-3.82,2.22c1.01-.59,1.64-1.84,1.64-3.62,0-1.27-.31-2.63-.85-3.94-.99-2.4-2.75-4.63-4.77-5.79-.15-.09-.3-.17-.45-.24-1.39-.67-2.63-.69-3.56-.15l3.82-2.22Z"/>
            <path class="cls-69" d="M69.58,79.28c-3.12-1.8-5.65-.35-5.66,3.22,0,3.58,2.51,7.94,5.62,9.73,3.11,1.8,5.65.36,5.66-3.22,0-3.58-2.51-7.94-5.62-9.74"/>
            <path class="cls-10" d="M65.67,83.5c0,2.48,1.73,5.48,3.88,6.72,1.23.71,2.33.69,3.05.08.54-.46.85-1.24.85-2.3.01-2.46-1.73-5.48-3.88-6.71-.89-.51-1.7-.64-2.36-.43-.94.26-1.53,1.2-1.55,2.65"/>
            <path class="cls-38" d="M66.35,83.16c0,2.46,1.73,5.48,3.88,6.72.89.51,1.72.64,2.37.42.54-.46.85-1.25.85-2.31.01-2.46-1.73-5.48-3.88-6.71-.89-.51-1.7-.64-2.36-.43-.54.46-.85,1.25-.86,2.31"/>
            <path class="cls-10" d="M69.57,81.93c0,.33.23.74.52.9.29.17.52.03.52-.3s-.23-.74-.52-.9c-.29-.17-.52-.03-.52.3"/>
            <path class="cls-10" d="M71.04,82.88c-.15.21-.06.62.19.93.25.31.57.4.71.19.14-.2.06-.62-.19-.93-.25-.31-.57-.4-.71-.19"/>
            <path class="cls-10" d="M72.27,84.52c-.25.02-.34.34-.19.71.14.37.46.66.71.63.25-.02.33-.34.19-.71-.14-.37-.46-.65-.71-.63"/>
            <path class="cls-10" d="M72.93,86.42c-.29-.17-.52-.03-.52.3s.23.74.52.9c.29.17.52.03.52-.3s-.23-.74-.52-.9"/>
            <path class="cls-10" d="M72.84,88.06c-.25-.31-.57-.39-.71-.19-.14.2-.06.62.19.93.25.31.57.4.71.19.15-.2.06-.62-.19-.93"/>
            <path class="cls-10" d="M72.04,89.02c-.14-.37-.46-.65-.71-.63-.25.02-.33.34-.19.71.14.37.47.65.71.63.25-.02.33-.34.19-.71"/>
            <path class="cls-10" d="M70.72,89.02c0-.33-.23-.74-.52-.9-.29-.17-.52-.03-.52.3,0,.33.23.74.52.9s.52.03.52-.3"/>
            <path class="cls-10" d="M69.25,88.07c.14-.2.06-.62-.19-.93-.25-.31-.57-.4-.71-.19-.15.2-.06.62.19.93.25.31.57.39.71.19"/>
            <path class="cls-10" d="M68.02,86.43c.25-.02.33-.34.19-.71-.14-.37-.46-.65-.71-.63-.25.02-.34.34-.19.71.15.37.47.65.71.63"/>
            <path class="cls-10" d="M67.36,84.53c.29.17.52.03.52-.3s-.23-.74-.52-.9c-.29-.17-.52-.03-.52.3s.23.74.52.9"/>
            <path class="cls-10" d="M67.45,82.89c.25.31.57.4.71.19.14-.2.06-.62-.19-.93-.25-.31-.57-.4-.71-.19-.15.2-.06.62.19.93"/>
            <path class="cls-10" d="M68.25,81.93c.14.37.46.65.71.63.25-.02.33-.34.19-.71-.14-.37-.46-.65-.71-.63-.25.02-.33.34-.19.71"/>
            <path class="cls-78" d="M69.21,83.27c.27-.15.63-.15,1.03.04.04.02.09.04.13.07.58.34,1.09.98,1.38,1.67.16.38.25.77.25,1.14,0,.51-.18.88-.48,1.05l-.55.32c.29-.17.47-.53.48-1.05,0-.37-.09-.76-.25-1.14-.29-.69-.8-1.34-1.38-1.67-.04-.02-.09-.05-.13-.07-.4-.2-.76-.2-1.03-.04l.55-.32Z"/>
            <path class="cls-28" d="M69.82,83.7c-.9-.52-1.63-.1-1.64.93s.72,2.29,1.62,2.81c.9.52,1.63.1,1.64-.93,0-1.03-.73-2.29-1.62-2.81"/>
            <path class="cls-73" d="M63.92,82.5c0,3.58,2.51,7.94,5.62,9.74,3.11,1.8,5.65.35,5.66-3.22,0-3.58-2.51-7.94-5.62-9.74-3.11-1.8-5.65-.35-5.66,3.22M66.35,83.16c.01-1.06.33-1.85.86-2.31.66-.21,1.47-.08,2.36.43,2.15,1.23,3.89,4.24,3.88,6.71,0,1.06-.32,1.85-.85,2.31-.65.22-1.48.09-2.37-.42-2.15-1.25-3.88-4.26-3.88-6.72"/>
            <polygon class="cls-60" points="111.06 70.44 112.42 69.62 115.82 71.62 114.45 72.44 111.06 70.44"/>
            <polygon class="cls-80" points="111.06 69.53 112.42 68.71 115.82 70.71 114.45 71.53 111.06 69.53"/>
            <path class="cls-31" d="M30.23,28.88l-18.36-12.32C11.87,15.56,39.78.43,39.78.43c.51-.57,1.74-.57,2.74,0l12.93,7.46,2.59,1.5.97.56c.92.53,1.68,1.67,1.81,2.62l-30.3,17.46c-.18-.39-.29-.79-.29-1.16"/>
            <path class="cls-58" d="M60.82,12.58c.01.09.02.17.02.26v35.54l-27.91,16.08-.88-32.71c-.64-.37-1.2-1.03-1.53-1.72l30.3-17.46Z"/>
            <path class="cls-85" d="M94.91,84.03c-.08.09-.16.18-.25.27v.05c.15-.12.3-.23.46-.33v-.2c-.07.07-.15.15-.21.22"/>
            <path class="cls-70" d="M95.13,83.55v-38.7h-.46v39.17c.15-.16.3-.31.46-.46"/>
            <polygon class="cls-1" points="116.1 35.13 116.1 69.86 85.79 52.36 116.1 35.13"/>
            <polygon class="cls-70" points="116.1 69.86 116.1 69.88 83.98 88.2 83.98 53.39 85.79 52.36 116.1 69.86"/>
            <g class="cls-87">
              <g class="cls-43">
                <g class="cls-45">
                  <g class="cls-77">
                    <g class="cls-53">
                      <g class="cls-18">
                        <g class="cls-48">
                          <polygon class="cls-13" points="82.68 59.41 82.71 71.63 96.69 79.76 96.66 67.54 82.68 59.41"/>
                        </g>
                      </g>
                      <g class="cls-8">
                        <g class="cls-9">
                          <polygon class="cls-65" points="96.66 67.54 96.69 79.76 113.21 70.15 113.17 57.93 96.66 67.54"/>
                        </g>
                      </g>
                      <g class="cls-50">
                        <g class="cls-22">
                          <polygon class="cls-75" points="82.68 59.41 96.66 67.54 113.17 57.93 99.19 49.8 82.68 59.41"/>
                        </g>
                      </g>
                    </g>
                  </g>
                </g>
              </g>
            </g>
            <polygon class="cls-52" points="104.63 52.96 107.53 54.64 91.01 64.25 88.12 62.57 104.63 52.96"/>
            <polygon class="cls-62" points="91.01 64.25 88.12 62.57 88.12 65.49 91.01 67.16 91.01 64.25"/>
            <polygon class="cls-68" points="84.17 70.93 84.17 71.21 86.35 72.47 86.35 72.19 84.17 70.93"/>
            <polygon class="cls-68" points="84.59 71.01 84.83 71.15 84.83 69.61 85.08 69.75 84.71 68.9 84.34 69.33 84.59 69.47 84.59 71.01"/>
            <polygon class="cls-68" points="85.68 71.64 85.93 71.78 85.93 70.24 86.17 70.38 85.81 69.53 85.44 69.96 85.68 70.1 85.68 71.64"/>
            <path class="cls-68" d="M86.33,72.97l-2.14-1.24c-.41-.24-.75-.77-.75-1.18v-2.14c0-.41.34-.56.75-.32l2.14,1.24c.41.24.75.77.75,1.18v2.14c0,.41-.34.56-.75.32M84.19,68.24c-.33-.19-.6-.08-.6.25v2.14c0,.33.27.75.6.94l2.14,1.24c.33.19.6.08.6-.25v-2.14c0-.33-.27-.75-.6-.94l-2.14-1.24Z"/>
            <path class="cls-68" d="M90.86,73.63s-.01-.01-.01-.02c0-.05-.18-.21-.45-.36-.26-.15-.45-.21-.45-.16,0,0,0,0-.01,0,0,0-.01-.01-.01-.02,0-.04-.15-.18-.37-.31v1.32c-.03.14-.16.17-.32.07-.17-.1-.32-.32-.32-.49,0-.04.03-.06.07-.03.04.02.07.08.07.12,0,.08.08.2.17.25.19.11.17-.12.17-.12v-1.21c-.22-.12-.37-.16-.37-.12,0,0,0,0-.01,0,0,0-.01-.01-.01-.02,0-.05-.18-.2-.45-.36-.26-.15-.45-.21-.45-.16,0,0,0,0-.01,0,0,0-.01-.01-.01-.02.02-.53.59-.74,1.29-.39,0-.04.05-.04.1,0,.06.03.1.09.1.13.7.45,1.27,1.32,1.29,1.88,0,0,0,0-.01,0"/>
            <path class="cls-68" d="M90.55,75.41l-2.14-1.24c-.41-.24-.75-.77-.75-1.18v-2.14c0-.41.34-.56.75-.32l2.14,1.24c.41.24.75.77.75,1.18v2.14c0,.41-.34.56-.75.32M88.41,70.68c-.33-.19-.6-.08-.6.25v2.14c0,.33.27.75.6.94l2.14,1.24c.33.19.6.08.6-.25v-2.14c0-.33-.27-.76-.6-.94l-2.14-1.24Z"/>
            <path class="cls-68" d="M94.27,75.21c0,.33-.24.48-.52.34v1.06l.37.21v.14l-.83-.48v-.14l.37.21v-1.06c-.29-.19-.51-.6-.52-.94v-.78l1.13.65v.78Z"/>
            <path class="cls-68" d="M94.77,77.85l-2.14-1.24c-.41-.24-.75-.77-.75-1.18v-2.14c0-.41.34-.56.75-.32l2.14,1.24c.41.24.75.77.75,1.18v2.14c0,.41-.34.56-.75.32M92.63,73.12c-.33-.19-.6-.08-.6.25v2.14c0,.33.27.75.6.94l2.14,1.24c.33.19.6.08.6-.25v-2.14c0-.33-.27-.76-.6-.94l-2.14-1.24Z"/>
            <g class="cls-23">
              <g class="cls-33">
                <g class="cls-45">
                  <g class="cls-57">
                    <g class="cls-82">
                      <g class="cls-59">
                        <g class="cls-15">
                          <polygon class="cls-21" points="101.15 67.09 105.52 64.55 107.73 63.26 111.88 60.85 111.91 51.47 107.73 53.9 107.46 54.06 101.18 57.71 101.15 67.09"/>
                        </g>
                      </g>
                      <g class="cls-76">
                        <g class="cls-11">
                          <polygon class="cls-7" points="85.49 58.04 92.21 61.93 94.44 63.21 101.15 67.09 101.18 57.71 94.44 53.82 92.21 52.53 85.51 48.66 85.49 58.04"/>
                        </g>
                      </g>
                      <g class="cls-17">
                        <g class="cls-64">
                          <polygon class="cls-88" points="85.51 48.66 92.21 52.53 94.44 53.82 101.18 57.71 111.91 51.47 105.2 47.61 102.98 46.32 96.24 42.43 85.51 48.66"/>
                        </g>
                      </g>
                    </g>
                  </g>
                </g>
              </g>
            </g>
            <g class="cls-26">
              <g class="cls-49">
                <g class="cls-6">
                  <polygon class="cls-35" points="92.51 52.71 94.74 54 105.5 47.79 103.27 46.5 92.51 52.71"/>
                </g>
              </g>
            </g>
            <g class="cls-26">
              <g class="cls-19">
                <g class="cls-20">
                  <polygon class="cls-35" points="92.51 52.71 92.51 62.11 94.74 63.39 94.74 54 92.51 52.71"/>
                </g>
              </g>
            </g>
            <polygon class="cls-52" points="92.21 52.53 94.44 53.82 105.2 47.61 102.98 46.32 92.21 52.53"/>
            <g class="cls-24">
              <g class="cls-86">
                <g class="cls-29">
                  <polygon class="cls-52" points="91.8 45.01 89.58 46.3 105.24 55.34 107.46 54.05 91.8 45.01"/>
                </g>
              </g>
            </g>
            <g class="cls-24">
              <g class="cls-54">
                <g class="cls-30">
                  <polygon class="cls-62" points="105.25 55.34 105.25 64.71 107.46 63.42 107.46 54.05 107.19 54.22 105.25 55.34"/>
                </g>
              </g>
            </g>
            <polygon class="cls-52" points="92.07 44.86 89.85 46.15 105.51 55.19 107.73 53.9 92.07 44.86"/>
            <polygon class="cls-62" points="105.52 55.19 105.52 64.55 107.73 63.26 107.73 53.9 107.46 54.06 105.52 55.19"/>
            <g class="cls-40">
              <g class="cls-79">
                <g class="cls-45">
                  <g class="cls-63">
                    <g class="cls-14">
                      <g class="cls-67">
                        <g class="cls-16">
                          <polygon class="cls-7" points="89.9 41.48 89.94 49.5 97.77 54.02 97.73 46.01 89.9 41.48"/>
                        </g>
                      </g>
                      <g class="cls-3">
                        <g class="cls-39">
                          <polygon class="cls-21" points="97.73 46.01 97.77 54.02 105.74 49.39 105.7 41.38 97.73 46.01"/>
                        </g>
                      </g>
                      <g class="cls-37">
                        <g class="cls-81">
                          <polygon class="cls-88" points="89.9 41.48 97.73 46.01 105.7 41.38 97.88 36.85 89.9 41.48"/>
                        </g>
                      </g>
                    </g>
                  </g>
                </g>
              </g>
            </g>
            <polygon class="cls-52" points="100.92 38.61 102.54 39.55 94.57 44.18 92.95 43.24 100.92 38.61"/>
            <polygon class="cls-62" points="94.56 44.18 92.95 43.24 92.95 44.88 94.57 45.81 94.56 44.18"/>
            <polygon class="cls-56" points="81.58 52 118.49 31.01 71.76 3.84 34.71 25.03 81.58 52"/>
            <g class="cls-32">
              <g class="cls-5">
                <g class="cls-72">
                  <polygon class="cls-56" points="81.58 52 71.76 3.84 34.71 25.03 81.58 52"/>
                </g>
              </g>
            </g>
            <path class="cls-66" d="M34.72,24.96v40.33l27.94,16.13.83.48c.09-2.61,1.51-4.28,3.66-4.28.88,0,1.82.28,2.79.84,3.24,1.87,5.86,6.41,5.85,10.13,0,.14,0,.27-.01.4l5.81,3.34v-40.33l-46.86-27.04Z"/>
            <g class="cls-25">
              <g class="cls-46">
                <g class="cls-51">
                  <path class="cls-66" d="M34.72,24.96v40.33l27.94,16.13.83.48c.09-2.61,1.51-4.28,3.66-4.28.88,0,1.82.28,2.79.84,3.24,1.87,5.86,6.41,5.85,10.13,0,.14,0,.27-.01.4l5.81,3.34v-.56L34.72,24.96Z"/>
                </g>
              </g>
            </g>
            <path class="cls-80" d="M3.24,26.3l8.64-9.79c.51-.57,1.74-.57,2.74,0l12.93,7.47,2.59,1.5.97.56c1.01.58,1.83,1.88,1.83,2.88v35.54l-1.83-1.05-.75-.43-2.26-1.3-2.63-1.52-5.13-2.96c.01-.17.02-.33.02-.51.01-3.72-2.61-8.27-5.85-10.13-.97-.56-1.91-.84-2.79-.84-2.18,0-3.61,1.72-3.67,4.39l-2.35-1.36-1.57-.91c-1-.58-1.82-1.87-1.82-2.87v-15.79c0-1,.41-2.29.92-2.87"/>
            <path class="cls-58" d="M18.61,22.45v24.38c2.26,2.45,3.86,4.9,4.12,8.03l7.81,4.51v-30.04l-11.93-6.89Z"/>
            <polygon class="cls-41" points="19.63 40.74 19.63 42.38 21.93 43.79 21.93 42.15 19.63 40.74 19.63 40.74"/>
            <polygon class="cls-31" points="19.88 42.21 19.88 40.89 19.63 40.74 19.63 40.74 19.63 42.38 21.92 43.79 21.92 43.47 19.88 42.21"/>
            <polygon class="cls-80" points="19.88 40.89 19.88 42.21 19.63 42.38 19.63 40.74 19.88 40.89"/>
            <polygon class="cls-4" points="115.15 74.05 112.3 75.73 111.73 75.38 114.58 73.7 115.15 74.05"/>
            <polygon class="cls-83" points="115.15 74.05 115.15 76.33 112.3 78 112.3 75.73 115.15 74.05 115.15 74.05"/>
            <polygon class="cls-42" points="112.3 75.73 112.3 78 111.73 77.66 111.73 75.38 112.3 75.73"/>
            <polygon class="cls-4" points="86.57 90.67 83.72 92.35 83.15 92 86 90.32 86.57 90.67"/>
            <polygon class="cls-83" points="86.57 90.67 86.57 92.95 83.72 94.62 83.72 92.35 86.57 90.67 86.57 90.67"/>
            <polygon class="cls-42" points="83.72 92.35 83.72 94.62 83.15 94.28 83.15 92 83.72 92.35"/>
            <polygon class="cls-84" points="22.51 24.73 30.54 40.74 30.54 35.53 26.19 26.87 22.51 24.73"/>
            <polygon class="cls-44" points="26.19 26.87 30.54 35.53 30.54 29.39 26.19 26.87"/>
            <polygon class="cls-44" points="18.61 38.56 18.61 32.42 22.95 41.07 18.61 38.56"/>
            <polygon class="cls-44" points="18.61 22.47 18.61 27.25 26.6 43.19 30.54 45.48 30.54 40.74 22.51 24.73 18.61 22.47"/>
            <polygon class="cls-84" points="18.61 32.42 18.61 27.26 26.6 43.19 22.95 41.07 18.61 32.42"/>
            <polygon class="cls-44" points="17.63 22.02 17.63 25.29 15.31 20.67 17.63 22.02"/>
            <polygon class="cls-44" points="12.84 20.91 17.62 30.46 17.62 38.1 14.7 36.4 9.26 25.55 12.84 20.91"/>
            <polygon class="cls-84" points="13.73 19.75 15.31 20.67 17.63 25.29 17.63 30.46 12.84 20.91 13.73 19.75"/>
            <polygon class="cls-84" points="9.26 25.55 14.7 36.4 10.88 34.19 7.61 27.68 9.26 25.55"/>
            <polygon class="cls-44" points="7.61 27.68 10.88 34.19 5.15 30.87 7.61 27.68"/>
            <path class="cls-12" d="M81.58,52v40.33l36.91-21.06V31.01l-36.91,20.98ZM83.98,53.39l1.81-1.03,30.3-17.23v34.74l-32.12,18.33v-34.81Z"/>
            <polygon class="cls-56" points="83.98 63.71 116.1 45.39 116.1 35.13 85.79 52.36 83.98 53.39 83.98 63.71"/>
            <polygon class="cls-66" points="83.98 63.71 116.1 45.39 116.1 43.36 83.98 61.62 83.98 63.71"/>
            <polygon class="cls-66" points="83.98 59.98 116.1 41.65 116.1 39.63 83.98 57.89 83.98 59.98"/>
            <polygon class="cls-66" points="83.98 56.68 116.1 38.35 116.1 36.33 83.98 54.59 83.98 56.68"/>
            <path class="cls-71" d="M93.13,88.49c0,.18-.13.41-.29.5l-5.12,2.96c-.16.09-.29.02-.29-.17v-2.05c0-.18.13-.4.29-.5l5.12-2.96c.16-.09.29-.02.29.17v2.05Z"/>
            <path class="cls-71" d="M111.21,78.35c0,.18-.13.41-.29.5l-5.12,2.96c-.16.09-.29.02-.29-.17v-2.05c0-.18.13-.4.29-.5l5.12-2.96c.16-.09.29-.02.29.17v2.05Z"/>
            <polygon class="cls-61" points="3.55 44.81 5.93 46.22 6.4 45.93 4.02 44.52 3.55 44.81"/>
            <polygon class="cls-36" points="3.55 44.81 3.55 46.71 5.93 48.12 5.93 46.22 3.55 44.81 3.55 44.81"/>
            <polygon class="cls-66" points="5.93 46.22 5.93 48.12 6.4 47.83 6.4 45.93 5.93 46.22"/>
            <polygon class="cls-61" points="29.32 59.8 31.7 61.2 32.18 60.91 29.8 59.51 29.32 59.8"/>
            <polygon class="cls-36" points="29.32 59.8 29.32 61.7 31.7 63.1 31.7 61.2 29.32 59.8 29.32 59.8"/>
            <polygon class="cls-66" points="31.7 61.2 31.7 63.1 32.18 62.81 32.18 60.91 31.7 61.2"/>
            <polygon class="cls-74" points="36.74 3.34 36.74 3.73 38.48 4.74 38.48 4.35 36.74 3.34"/>
            <polygon class="cls-55" points="42.22 2.19 42.22 2.59 38.48 4.74 38.48 4.35 42.22 2.19"/>
            <polygon class="cls-47" points="38.48 4.35 36.74 3.34 40.55 1.18 42.22 2.19 38.48 4.35"/>
            <polygon class="cls-36" points="37.3 2.42 37.3 3.31 38.56 4.04 38.56 3.15 37.3 2.42"/>
            <polygon class="cls-66" points="41.66 1.36 41.66 2.26 38.56 4.04 38.56 3.15 41.66 1.36"/>
            <polygon class="cls-61" points="38.56 3.15 37.3 2.42 40.45 .63 41.66 1.36 38.56 3.15"/>
            <polygon class="cls-74" points="27.28 8.8 27.28 9.19 29.02 10.2 29.02 9.81 27.28 8.8"/>
            <polygon class="cls-55" points="32.76 7.65 32.76 8.05 29.02 10.2 29.02 9.81 32.76 7.65"/>
            <polygon class="cls-47" points="29.02 9.81 27.28 8.8 31.08 6.64 32.76 7.65 29.02 9.81"/>
            <polygon class="cls-36" points="27.84 7.88 27.84 8.77 29.09 9.5 29.09 8.61 27.84 7.88"/>
            <polygon class="cls-66" points="32.2 6.82 32.2 7.72 29.1 9.5 29.1 8.61 32.2 6.82"/>
            <polygon class="cls-61" points="29.1 8.61 27.84 7.88 30.99 6.08 32.2 6.82 29.1 8.61"/>
            <polygon class="cls-74" points="17.82 14.26 17.82 14.65 19.56 15.66 19.56 15.27 17.82 14.26"/>
            <polygon class="cls-55" points="23.3 13.11 23.3 13.51 19.56 15.66 19.56 15.27 23.3 13.11"/>
            <polygon class="cls-47" points="19.56 15.27 17.82 14.26 21.62 12.1 23.3 13.11 19.56 15.27"/>
            <polygon class="cls-36" points="18.37 13.34 18.37 14.23 19.63 14.96 19.63 14.07 18.37 13.34"/>
            <polygon class="cls-66" points="22.74 12.28 22.74 13.18 19.63 14.96 19.63 14.07 22.74 12.28"/>
            <polygon class="cls-61" points="19.63 14.07 18.37 13.34 21.53 11.55 22.74 12.28 19.63 14.07"/>
            <path class="cls-27" d="M.01,40.29s0,.02-.01.03c0,0,.02-.02.03-.03H.01Z"/>
          </g>
          <text class="cls-2" transform="translate(40.74 44.16) rotate(29.79) scale(.96 .88) skewX(26.83)"><tspan x="0" y="0">LIVRAISON</tspan></text>
        </g>
      </g>
    </g>
  </g>
</svg>