<?xml version="1.0" encoding="UTF-8"?>
<svg id="Calque_2" xmlns="http://www.w3.org/2000/svg" xmlns:xlink="http://www.w3.org/1999/xlink" viewBox="0 0 112.82 82.79">
  <defs>
    <style>
      .cls-1 {
        opacity: .75;
      }

      .cls-2 {
        fill: #12100b;
      }

      .cls-3 {
        fill: #1d2127;
      }

      .cls-4 {
        fill: #d92531;
      }

      .cls-5 {
        fill: #fff;
      }

      .cls-6 {
        fill: #e73c4a;
      }

      .cls-7 {
        fill: #b8b7b8;
      }

      .cls-8 {
        fill: none;
      }

      .cls-9 {
        fill: #43403e;
      }

      .cls-10 {
        fill: #696564;
      }

      .cls-11 {
        clip-path: url(#clippath-1);
      }

      .cls-12 {
        fill: #8a272a;
      }

      .cls-13 {
        fill: #707c81;
      }

      .cls-14 {
        clip-path: url(#clippath-3);
      }

      .cls-15 {
        fill: #e94d5c;
      }

      .cls-16 {
        fill: #ceced0;
      }

      .cls-17 {
        clip-path: url(#clippath-2);
      }

      .cls-18 {
        fill: #67a1d7;
      }

      .cls-19 {
        fill: #e2e0e0;
      }

      .cls-20 {
        fill: #94bee6;
      }

      .cls-21 {
        clip-path: url(#clippath);
      }
    </style>
    <clipPath id="clippath">
      <rect class="cls-8" x="68.64" y="1.5" width="33.64" height="15.4"/>
    </clipPath>
    <clipPath id="clippath-1">
      <rect class="cls-8" x="68.64" y="1.5" width="33.64" height="15.4"/>
    </clipPath>
    <clipPath id="clippath-2">
      <rect class="cls-8" x="53.83" y="19.2" width="44.02" height="31.01"/>
    </clipPath>
    <clipPath id="clippath-3">
      <rect class="cls-8" x="53.83" y="19.19" width="44.02" height="31.01"/>
    </clipPath>
  </defs>
  <g id="_Éléments_Mise_en_page" data-name="Éléments_Mise_en_page">
    <g>
      <polygon class="cls-5" points="33.51 22.16 31.39 20.97 44.4 13.4 46.52 14.59 33.51 22.16"/>
      <path class="cls-3" d="M54.54,70.51l-12.7-7.09s4.9-3.85,7.87-3.95c2.97-.1,6.36,7.22,4.83,11.04"/>
      <path class="cls-3" d="M110.53,38.21l-11.56-6.51s2.67-2.91,6.05-3.53c3.39-.62,7.9,4.69,5.51,10.04"/>
      <path class="cls-2" d="M100.18,33.43c3.08-1.78,5.58-.35,5.59,3.19.01,3.54-2.48,7.85-5.56,9.63-3.08,1.78-5.58.35-5.59-3.19-.01-3.54,2.48-7.85,5.56-9.63"/>
      <path class="cls-13" d="M99.42,48.04l-4.19-2.43c1.01.58,2.34.44,3.77-.38,1.42-.82,2.75-2.22,3.76-3.96l4.19,2.43c-1,1.74-2.34,3.14-3.76,3.96-1.42.82-2.76.96-3.77.38"/>
      <path class="cls-13" d="M106.94,43.7l-4.19-2.43c1-1.74,1.55-3.59,1.54-5.22,0-1.63-.56-2.85-1.57-3.42l4.19,2.43c1.01.57,1.56,1.79,1.57,3.42,0,1.63-.54,3.48-1.54,5.22"/>
      <path class="cls-7" d="M102.7,32.72l4.19,2.43c-.96-.56-2.28-.48-3.73.36l-4.19-2.43c1.46-.84,2.78-.92,3.74-.36"/>
      <path class="cls-9" d="M103.8,30.83l4.19,2.43c-1.24-.72-2.95-.62-4.84.47l-4.19-2.43c1.89-1.09,3.6-1.19,4.84-.47"/>
      <path class="cls-7" d="M99.45,47.94l-4.19-2.43c-.94-.55-1.53-1.71-1.53-3.36-.01-3.33,2.34-7.39,5.23-9.06l4.19,2.43c-2.89,1.67-5.24,5.74-5.23,9.07,0,1.65.59,2.81,1.53,3.36"/>
      <path class="cls-9" d="M98.35,49.84l-4.19-2.43c-1.22-.71-1.98-2.22-1.98-4.36-.01-4.32,3.02-9.57,6.78-11.74l4.19,2.43c-3.76,2.17-6.79,7.43-6.78,11.74,0,2.15.76,3.65,1.98,4.36"/>
      <path class="cls-10" d="M103.15,33.73c3.76-2.17,6.81-.43,6.82,3.89.01,4.32-3.02,9.57-6.78,11.74-3.76,2.17-6.81.43-6.82-3.89-.01-4.32,3.02-9.57,6.78-11.74M106.89,43.67c.99-1.71,1.53-3.54,1.52-5.15,0-1.61-.55-2.81-1.55-3.38-.99-.57-2.32-.44-3.71.37-1.4.81-2.72,2.2-3.71,3.91-.99,1.71-1.53,3.54-1.52,5.15,0,1.61.55,2.81,1.55,3.38.99.57,2.31.43,3.72-.38,1.4-.81,2.72-2.19,3.71-3.91"/>
      <path class="cls-9" d="M103.15,35.14c3.08-1.78,5.59-.35,5.6,3.19.01,3.54-2.48,7.85-5.56,9.63-3.08,1.78-5.59.35-5.6-3.19-.01-3.54,2.48-7.85,5.56-9.63M106.79,43.62c.96-1.67,1.49-3.45,1.48-5.02,0-1.57-.54-2.74-1.51-3.29-.97-.55-2.26-.42-3.62.36-1.37.79-2.65,2.14-3.61,3.81-.96,1.67-1.49,3.45-1.48,5.02,0,1.57.54,2.74,1.51,3.29.97.55,2.25.42,3.62-.37,1.36-.79,2.65-2.14,3.61-3.81"/>
      <path class="cls-4" d="M102.42,37.92c1.54-.89,2.79-.17,2.79,1.59s-1.24,3.92-2.77,4.8c-1.54.89-2.79.18-2.79-1.59,0-1.77,1.24-3.92,2.77-4.8"/>
      <path class="cls-7" d="M103.53,47.02l-.47-.29c1.11-.73,2.11-1.81,2.9-3.06l.48.29c-.79,1.25-1.79,2.33-2.9,3.06"/>
      <path class="cls-7" d="M106.92,43.12l-.47-.29c.68-1.3,1.12-2.72,1.2-4.04l.47.29c-.07,1.31-.51,2.73-1.19,4.04"/>
      <polygon class="cls-7" points="102.84 47.42 102.37 47.13 102.16 43.16 102.64 43.45 102.84 47.42"/>
      <polygon class="cls-7" points="104.53 40.07 104.05 39.78 107.63 38.01 108.11 38.3 104.53 40.07"/>
      <path class="cls-7" d="M99.92,47.81l-.46-.38c.79.33,1.8.26,2.91-.29l.47.29c-1.11.55-2.13.72-2.93.39"/>
      <path class="cls-7" d="M108.11,38.3l-.47-.29c-.08-1.22-.53-2.13-1.22-2.64l.47.29c.69.51,1.14,1.41,1.22,2.64"/>
      <polygon class="cls-7" points="99.43 47.53 98.97 47.15 101.33 42.74 101.81 43.03 99.43 47.53"/>
      <polygon class="cls-7" points="103.7 39.64 103.22 39.35 105.93 35.09 106.4 35.38 103.7 39.64"/>
      <polygon class="cls-7" points="98.22 44.01 98.03 43.54 101.3 41.45 101.78 41.74 98.22 44.01"/>
      <polygon class="cls-7" points="102.56 40.33 102.09 40.04 102.33 36.14 102.81 36.07 102.56 40.33"/>
      <polygon class="cls-7" points="99.91 39.17 99.71 38.97 102.09 40.04 102.56 40.33 99.91 39.17"/>
      <polygon class="cls-7" points="101.78 41.74 101.3 41.45 99.23 39.9 99.42 39.97 101.78 41.74"/>
      <path class="cls-19" d="M103.15,35.52c2.89-1.67,5.26-.33,5.27,3,0,3.32-2.34,7.39-5.23,9.06-2.89,1.67-5.26.33-5.27-3,0-3.33,2.34-7.4,5.23-9.07M99.45,47.44l2.36-4.41-3.58,1.77c.08,1.23.53,2.14,1.22,2.64M102.81,36.07c-1.11.72-2.11,1.82-2.9,3.07l2.65,1.2.25-4.26ZM106.89,35.66l-2.36,4.41,3.58-1.77c-.08-1.22-.53-2.13-1.22-2.64M103.53,47.02c1.1-.73,2.11-1.82,2.9-3.06l-2.65-1.2-.24,4.26ZM99.42,39.97c-.68,1.3-1.12,2.72-1.2,4.04l3.55-2.28-2.36-1.76ZM106.92,43.13c.68-1.31,1.12-2.72,1.2-4.04l-3.55,2.27,2.36,1.77ZM106.4,35.38c-.8-.33-1.8-.26-2.91.29l.21,3.97,2.71-4.26ZM99.93,47.71c.79.33,1.8.26,2.91-.29l-.21-3.97-2.7,4.26Z"/>
      <path class="cls-7" d="M104.42,41.08c0-.51-.34-.72-.78-.48-.44.24-.8.85-.8,1.36,0,.51.34.72.78.48.44-.24.8-.85.8-1.36"/>
      <path class="cls-16" d="M104.39,40.85s-.1-.38-.1-.4c-.11-.44-.51-.59-.98-.32-.57.32-1.04,1.11-1.04,1.77,0,.56.32.84.77.72,0,0,.35-.1.35-.1.01,0,.03,0,.04-.01-.34.09-.59-.13-.59-.56,0-.51.36-1.11.8-1.36.36-.2.67-.09.76.25"/>
      <path class="cls-2" d="M43.57,65.92c3.08-1.78,5.58-.35,5.59,3.19.01,3.54-2.48,7.85-5.56,9.63-3.08,1.78-5.58.35-5.59-3.19-.01-3.54,2.48-7.85,5.56-9.63"/>
      <path class="cls-13" d="M42.81,80.54l-4.19-2.43c1.01.58,2.34.44,3.77-.38,1.42-.82,2.75-2.22,3.76-3.96l4.19,2.43c-1,1.74-2.34,3.14-3.76,3.96-1.42.82-2.76.96-3.77.38"/>
      <path class="cls-13" d="M50.33,76.19l-4.19-2.43c1-1.74,1.55-3.59,1.54-5.22,0-1.63-.56-2.85-1.57-3.42l4.19,2.43c1.01.57,1.56,1.79,1.57,3.42,0,1.63-.54,3.48-1.54,5.22"/>
      <path class="cls-7" d="M46.08,65.21l4.19,2.43c-.96-.56-2.28-.48-3.73.36l-4.19-2.43c1.46-.84,2.78-.92,3.74-.36"/>
      <path class="cls-9" d="M47.18,63.32l4.19,2.43c-1.24-.72-2.95-.62-4.84.47l-4.19-2.43c1.89-1.09,3.6-1.19,4.84-.47"/>
      <path class="cls-7" d="M42.84,80.44l-4.19-2.43c-.94-.55-1.53-1.71-1.53-3.36-.01-3.33,2.34-7.39,5.23-9.06l4.19,2.43c-2.89,1.67-5.24,5.73-5.23,9.07,0,1.65.59,2.81,1.53,3.36"/>
      <path class="cls-9" d="M41.74,82.33l-4.19-2.43c-1.22-.71-1.98-2.22-1.98-4.36-.01-4.32,3.02-9.57,6.78-11.74l4.19,2.43c-3.76,2.17-6.79,7.43-6.78,11.74,0,2.15.76,3.65,1.98,4.36"/>
      <path class="cls-10" d="M46.53,66.23c3.76-2.17,6.81-.43,6.82,3.89.01,4.32-3.02,9.57-6.78,11.74-3.76,2.17-6.81.43-6.82-3.89-.01-4.32,3.02-9.57,6.78-11.74M50.28,76.17c.99-1.71,1.53-3.54,1.52-5.15,0-1.61-.55-2.81-1.55-3.38-.99-.57-2.32-.44-3.71.37-1.4.81-2.72,2.2-3.71,3.91-.99,1.71-1.53,3.54-1.52,5.15,0,1.61.55,2.81,1.55,3.38s2.31.43,3.72-.38c1.4-.81,2.72-2.19,3.71-3.91"/>
      <path class="cls-9" d="M46.54,67.64c3.08-1.78,5.59-.35,5.6,3.19.01,3.54-2.48,7.85-5.56,9.63-3.08,1.78-5.59.35-5.6-3.19-.01-3.54,2.48-7.85,5.56-9.63M50.18,76.11c.96-1.67,1.49-3.45,1.48-5.02,0-1.57-.54-2.74-1.51-3.29-.97-.55-2.26-.42-3.62.36-1.37.79-2.65,2.14-3.61,3.81-.96,1.67-1.49,3.45-1.48,5.02,0,1.57.54,2.74,1.51,3.29.97.55,2.25.42,3.62-.37,1.36-.79,2.65-2.14,3.61-3.81"/>
      <path class="cls-4" d="M45.8,70.42c1.54-.89,2.79-.17,2.79,1.59,0,1.77-1.24,3.92-2.77,4.8-1.54.89-2.79.18-2.79-1.59,0-1.77,1.24-3.92,2.77-4.8"/>
      <path class="cls-7" d="M46.92,79.52l-.47-.29c1.11-.73,2.11-1.82,2.9-3.06l.47.29c-.79,1.25-1.79,2.34-2.9,3.06"/>
      <path class="cls-7" d="M50.3,75.62l-.47-.29c.68-1.3,1.12-2.72,1.2-4.04l.47.29c-.07,1.31-.51,2.73-1.19,4.04"/>
      <polygon class="cls-7" points="46.23 79.91 45.76 79.62 45.55 75.66 46.02 75.95 46.23 79.91"/>
      <polygon class="cls-7" points="47.91 72.57 47.44 72.28 51.02 70.5 51.5 70.79 47.91 72.57"/>
      <path class="cls-7" d="M43.3,80.3l-.46-.38c.79.33,1.8.26,2.91-.3l.47.29c-1.11.55-2.13.72-2.93.39"/>
      <path class="cls-7" d="M51.5,70.79l-.47-.29c-.08-1.22-.53-2.13-1.22-2.64l.47.29c.69.51,1.14,1.41,1.22,2.64"/>
      <polygon class="cls-7" points="42.82 80.03 42.36 79.64 44.72 75.23 45.2 75.52 42.82 80.03"/>
      <polygon class="cls-7" points="47.09 72.14 46.61 71.85 49.32 67.58 49.79 67.87 47.09 72.14"/>
      <polygon class="cls-7" points="41.61 76.51 41.42 76.03 44.69 73.94 45.16 74.23 41.61 76.51"/>
      <polygon class="cls-7" points="45.95 72.83 45.47 72.54 45.72 68.64 46.19 68.57 45.95 72.83"/>
      <polygon class="cls-7" points="43.29 71.66 43.09 71.46 45.47 72.54 45.95 72.83 43.29 71.66"/>
      <polygon class="cls-7" points="45.16 74.23 44.69 73.94 42.62 72.39 42.81 72.47 45.16 74.23"/>
      <path class="cls-19" d="M46.54,68.01c2.89-1.67,5.26-.33,5.27,3,0,3.32-2.34,7.39-5.23,9.06-2.89,1.67-5.26.33-5.27-3,0-3.33,2.34-7.39,5.23-9.06M42.83,79.93l2.36-4.41-3.58,1.77c.08,1.23.53,2.14,1.22,2.64M46.19,68.57c-1.1.72-2.11,1.82-2.9,3.07l2.65,1.2.24-4.26ZM50.28,68.16l-2.36,4.41,3.58-1.77c-.08-1.22-.53-2.13-1.22-2.64M46.92,79.52c1.1-.73,2.11-1.82,2.9-3.06l-2.66-1.2-.24,4.26ZM42.81,72.47c-.68,1.3-1.12,2.72-1.2,4.04l3.55-2.28-2.36-1.76ZM50.3,75.62c.68-1.31,1.12-2.72,1.2-4.04l-3.55,2.27,2.36,1.77ZM49.79,67.87c-.79-.33-1.8-.26-2.91.29l.21,3.97,2.71-4.26ZM43.32,80.21c.79.33,1.8.26,2.91-.29l-.21-3.97-2.7,4.26Z"/>
      <path class="cls-7" d="M47.81,73.58c0-.51-.34-.72-.78-.48-.44.24-.8.85-.8,1.36,0,.51.34.72.78.48.44-.24.8-.85.8-1.36"/>
      <path class="cls-16" d="M47.78,73.35s-.1-.38-.1-.4c-.11-.44-.51-.59-.98-.32-.57.32-1.04,1.11-1.04,1.77,0,.56.32.84.77.72,0,0,.35-.1.35-.1.01,0,.03,0,.04-.01-.34.09-.59-.13-.59-.56,0-.51.37-1.11.8-1.36.36-.2.67-.09.75.25"/>
      <path class="cls-6" d="M25.52,28.62s-1.72-1.36-2.97-2.02c-1.25-.66-1.66,1.18-1.68,2.13-.02.96,1.25,3.14,1.25,3.14l3.4-3.24Z"/>
      <path class="cls-6" d="M85.35.08c4.68.89,14.69,4.39,22.54,12.37.36.37.24,1-.24,1.2l-5.36,2.37-8.04-5.96c-3.34-2.47-7-4.47-10.88-5.94l-6.97-2.63s6.34-1.91,8.96-1.41"/>
      <g class="cls-1">
        <g class="cls-21">
          <g class="cls-11">
            <path class="cls-18" d="M68.65,2.26l24.7,14.63c.21-.05.4-.08.56-.11,3.54-.6,8.38-.76,8.38-.76,0,0-1.12-3.41-9.72-8.45-8.59-5.03-16.17-6.08-16.17-6.08,0,0-2.32.3-7.74.77"/>
          </g>
        </g>
      </g>
      <path class="cls-15" d="M.09,55.64c.24-2.28,2-7.02,5.53-11.21-2.16,3.3-2.84,5.96-2.46,7.83.47,2.32,9.05,7.58,15.05,10.53,6,2.95,12.17,2.2,16.83,1.14,4.65-1.06,11.75-8.29,11.75-8.29v7.03c-.38.18-.77.38-1.18.63-9.72,5.81-5.37,13.12-7.9,17.04-1.08,1.67-13.42.79-21.74-2.79-6.08-2.62-10.22-5.58-13.43-8.85-1.37-1.39-2.18-3.21-2.31-5.16-.15-2.23-.34-5.99-.14-7.9"/>
      <path class="cls-4" d="M52.85,51.64v-7.35s4.89-6.93,6.73-9.06c8.18-9.45,30.77-17.86,34.32-18.45,3.55-.59,8.38-.75,8.38-.75l5.75-3.33,2.27,4.41s1.98.86,2.15,4.84c.1,2.28.93,12.94-.38,14.6l-1.55,1.67s.99-11.59-7.6-7.83c-8.6,3.75-8.06,16.58-8.06,16.58l-39.87,23.28v-12.35l-2.15-6.24Z"/>
      <path class="cls-15" d="M93.47,28.33c10.96-7.74,16.83-11.23,16.83-11.23,0,0,.43.36.98,1.07,1.21,1.56.9,3.81-.63,5.06-4.22,3.41-12.98,10.43-16.86,12.98-5.21,3.42-38.79,21.67-38.79,21.67l-2.15-6.24c5.1-2.22,29.66-15.57,40.62-23.31"/>
      <path class="cls-20" d="M52.85,44.29s-4.81,7.36-8.06,8.01c-3.25.64-15.01-5.65-18.43-7.87-3.47-2.25-10.82-7.61-9.42-8.81,1.4-1.21,18.15-15.79,18.77-15.47,1.29.65,4.97,2.07,8.36,3.97,3.39,1.91,14.97,9.32,16.29,10.26,0,0-.52.51-1.08,1.22-1.55,1.96-6.42,8.69-6.42,8.69"/>
      <path class="cls-15" d="M35.71,20.14l.43.22s-17.36,14.31-18.76,15.51l-.44-.26c1.4-1.21,18.15-15.78,18.77-15.47"/>
      <path class="cls-5" d="M34.3,64.62c.63-.2,1.31-.25,1.94-.03.6.22,1.14.68.87,1.63-.54,1.9-5.08,3.84-8.85,3.86-3.77.02-4.26-1.14-4.18-2.16.03-.33.04-.61.09-1.02.08-.59.27-1.2.77-1.45.27-.13.57-.19.89-.17,2.01.16,5.55.26,8.47-.66"/>
      <path class="cls-4" d="M23.87,67.93c.03-.33.07-.75.13-1.15.08-.59.45-1.07.95-1.32-.26.26-.45.6-.5,1-.05.41-.1.82-.13,1.15-.08,1.02.5,2.31,4.27,2.29,2.55-.01,5.52-.98,7.33-2.18-1.74,1.36-5,2.49-7.78,2.51-3.77.02-4.35-1.27-4.27-2.29"/>
      <path class="cls-5" d="M2.94,51.36s.48,1.37,0,2.77c-.49,1.4-1.1,2.31-1.5,1.52-.26-.52.03-2.02.4-3.54.2-.81.43-1.64.68-2.25.58-1.39.63-1.13.63-1.13,0,0-.59,1.53-.22,2.63"/>
      <path class="cls-4" d="M2.45,49.81c.68-1.78.71-1.08.71-1.08,0,0,0,.03-.02.05-.1.09-.27.39-.58,1.19-.68,1.78-1.41,5.04-1.01,5.83.02.03.03.04.05.07-.06-.05-.11-.12-.16-.22-.4-.79.33-4.05,1.01-5.83"/>
      <path class="cls-4" d="M21.89,64.37c.56.2.96.71.99,1.31.07,1.45-.09,3.94-2.02,3.73-2.7-.29-9.08-4-11.3-5.42-3.4-2.17-7.22-5.06-7.22-6.52,0-1.2.48-1.81,1-2.55.31-.44.92-.53,1.35-.2,1.3.99,4.3,3.21,7.24,4.97,3.6,2.16,6.33,3.43,9.96,4.69"/>
      <path class="cls-3" d="M22.01,64.39c.5.17.85.62.87,1.15.06,1.28-.08,3.48-1.78,3.29-2.38-.26-9.39-3.9-11.35-5.15-3-1.91-6.36-4.46-6.36-5.75,0-1.06.43-1.6.88-2.25.27-.39.82-.47,1.19-.18,1.15.87,3.79,2.83,6.38,4.38,3.18,1.91,6.97,3.4,10.16,4.51"/>
      <path class="cls-3" d="M30.23,73.91c-2.11-.1-7.47.02-12.54-1.97-5.08-1.99-13.57-7.31-15.34-10.29-1.77-2.98-1.93-1.77-1.85-.75.08,1.02-.3,3.9,1.85,6.36,2.15,2.46,10.1,7.09,13,8.8,2.9,1.71,7.12,1.98,10.05,2.19,2.93.22,6.85.14,7.25-.8.4-.94.75-3.39-2.42-3.54"/>
      <path class="cls-4" d="M1.32,60.15c0,.08,0,.17.01.25.08,1.02-.29,3.9,1.85,6.35,2.15,2.46,10.17,6.98,13.07,8.69,2.9,1.71,7.2,1.91,10.13,2.12,2.2.16,4.8.34,6.21-.07-.56.88-4.35.95-7.21.74-2.93-.22-7.15-.48-10.05-2.19-2.9-1.71-10.85-6.35-13-8.81-2.15-2.46-1.77-5.33-1.85-6.35-.06-.77.02-1.65.83-.74"/>
      <path class="cls-4" d="M35.03,63.93c-4.65,1.06-10.83,1.81-16.83-1.14-6-2.95-14.58-8.21-15.05-10.53-.38-1.87.3-4.53,2.46-7.83.83-.99,1.76-1.95,2.8-2.83,2.35-2.01,5.05-4.21,7.87-6.48l.65.5,27.83,16.71,2.01,3.32s-7.1,7.23-11.75,8.29"/>
      <path class="cls-4" d="M27.61,25.97c6.5-5.38,7.41-6.18,7.41-6.18l.7.35-18.77,15.47-.65-.5c3.7-2.98,7.63-6.09,11.32-9.14"/>
      <polygon class="cls-4" points="52.86 44.29 52.86 51.64 46.78 55.64 44.77 52.32 52.86 44.29"/>
      <polygon class="cls-15" points="52.86 51.64 55 57.88 46.78 62.67 46.78 55.64 52.86 51.64"/>
      <path class="cls-4" d="M55,70.24l-.46.27s.7-11.91-7.76-7.84l8.22-4.79v12.36Z"/>
      <g class="cls-1">
        <g class="cls-17">
          <g class="cls-14">
            <path class="cls-18" d="M97.03,24.68c.48-.32.78-.84.82-1.41.08-1.34-.18-3.66-2.89-4.03-3.83-.54-14.76,4.74-18.77,7.32-4.01,2.57-10.93,6.78-13.93,10.36-3.01,3.58-8.04,11.02-8.42,13.08-.38,2.05,21.56-11.31,25.93-13.92,3.78-2.26,14.43-9.47,17.25-11.39"/>
          </g>
        </g>
      </g>
      <path class="cls-15" d="M78.93,35.58c3.78-2.26,14.44-9.47,17.25-11.39.48-.32.78-.84.82-1.41.06-.96-.07-2.44-1.15-3.33,1.87.71,2.07,2.64,2,3.81-.03.57-.34,1.09-.82,1.41-2.82,1.91-13.48,9.13-17.25,11.39-4.37,2.62-26.32,15.98-25.93,13.92.02-.1.06-.23.1-.36,3.55-1.14,21.3-11.84,24.99-14.05"/>
      <path class="cls-15" d="M91.82,48.73s-.06,0-.08-.02c-.11-.04-.16-.17-.11-.28,3.63-8.52,3.97-13.72,3.98-13.77v-7.93l-.42-.84c-.05-.1-.01-.23.09-.28.11-.05.23-.01.28.09l.47.98v7.99c0,.06-.35,5.33-4.01,13.92-.03.08-.11.13-.19.13"/>
      <path class="cls-15" d="M80.23,55.54c-.12,0-.21-.09-.21-.21v-11.29c0-3.17-.94-6.45-.95-6.48l-.37-.88c-.04-.11,0-.23.11-.28.11-.05.23,0,.28.11l.38.9c.02.06.97,3.4.97,6.62v11.29c0,.12-.09.21-.21.21"/>
      <path class="cls-3" d="M94.69,32.04s-2.58,1.12-4.12,2.72c-1.54,1.59,1.9.08,2.98-.66,1.05-.73,2.67-2.84,1.14-2.06"/>
      <path class="cls-3" d="M76.84,42.68s-2.58,1.12-4.12,2.72c-1.54,1.59,1.9.08,2.98-.66,1.05-.73,2.67-2.84,1.14-2.06"/>
      <path class="cls-6" d="M55.54,48.72s.54-1.11,1.75-1.83c.97-.58,3.77,1.46,4.83,2.28.26.2.41.52.41.85,0,0-3.98,1.03-6.99-1.3"/>
      <path class="cls-4" d="M55.54,48.72c3,2.34,6.99,1.3,6.99,1.3v.82c0,.59-.48,1.08-1.07,1.08-.94,0-2.46-.04-4.36-.29-3.3-.43-3.44-1.19-3.44-1.19l.51-1.78,1.37.06Z"/>
      <path class="cls-6" d="M35.01,19.79s12.01,5.83,25.34,14.59c8.06-8.52,28.6-16.53,32.98-17.49-1.17-1.68-3.8-4.68-9.39-8.23-5.36-3.42-11.01-5.35-15.31-6.4-.87.13-1.84.27-2.91.44-11.41,1.77-30.72,17.09-30.72,17.09"/>
      <path class="cls-6" d="M16.94,35.61l27.85,16.68s-9.5,10.72-16.12,9.78c-6.61-.94-19.02-6.77-22.57-11.82-3.55-5.05,10.83-14.64,10.83-14.64"/>
      <path class="cls-12" d="M110.31,17.1s0,2.45-2.45,4.03c-1.68,1.08-.72,3.37.36,2.76s3.81-2.49,3.4-4.41c-.41-1.91-1.31-2.38-1.31-2.38"/>
    </g>
  </g>
</svg>