<?xml version="1.0" encoding="UTF-8"?>
<svg id="Calque_2" xmlns="http://www.w3.org/2000/svg" viewBox="0 0 106.8 76.11">
  <defs>
    <style>
      .cls-1 {
        fill: #f29375;
      }

      .cls-2 {
        fill: #e63350;
      }

      .cls-3 {
        fill: #6a8996;
      }

      .cls-4 {
        fill: none;
        stroke: #717070;
        stroke-miterlimit: 10;
        stroke-width: .4px;
      }

      .cls-5 {
        fill: #4c2929;
      }

      .cls-6 {
        fill: #717070;
      }

      .cls-7 {
        fill: #5d6bb0;
      }

      .cls-8 {
        fill: #fff;
      }

      .cls-9 {
        fill: #5c7782;
      }

      .cls-10 {
        fill: #4a57a1;
      }

      .cls-11 {
        fill: #e84955;
      }

      .cls-12 {
        fill: #e8e8e7;
      }

      .cls-13 {
        fill: #f6b195;
      }

      .cls-14 {
        fill: #292929;
      }

      .cls-15 {
        fill: #313031;
      }

      .cls-16 {
        fill: #291616;
      }
    </style>
  </defs>
  <g id="_Éléments_Mise_en_page" data-name="Éléments_Mise_en_page">
    <g>
      <polygon class="cls-8" points="4.28 42.12 1.86 40.26 9.52 35.45 11.95 37.32 4.28 42.12"/>
      <polygon class="cls-8" points="19.61 32.52 17.19 30.65 24.85 25.85 27.28 27.72 19.61 32.52"/>
      <polygon class="cls-8" points="34.94 22.92 32.52 21.05 40.18 16.25 42.6 18.12 34.94 22.92"/>
      <polygon class="cls-8" points="50.27 13.32 47.85 11.45 55.51 6.65 57.93 8.52 50.27 13.32"/>
      <path class="cls-14" d="M48.92,59.81c-4.87,2.27-10.02,9.89-8.13,13.07,1.39,2.32,4.07,3.05,4.07,3.05-.37-.6-2.38-2.8-2.35-3.62v-.13c.25-5.05,3.06-9.58,7.34-11.8l.75-.39c.53-.28,1.09-.4,1.62-.37,1.78.07,3.35,1.65,3.26,3.76-.03.71-.11,1.42-.24,2.1l.73.46c.52-3.87-.37-9.25-7.08-6.12"/>
      <path class="cls-15" d="M52.25,59.62c-.53-.02-1.09.1-1.62.37l-.75.39c-4.28,2.23-7.09,6.75-7.34,11.8v.13c-.05.82.16,1.55.53,2.16.9,1.47,2.78,2.14,4.44,1.21l1.02-.57c3.53-1.98,5.99-5.55,6.75-9.64.13-.68.21-1.39.24-2.1.08-2.11-1.48-3.69-3.26-3.76M48.76,71.65l-.53.3c-1.22.68-2.67-.3-2.6-1.76v-.06c.13-2.64,1.6-5,3.83-6.17l.39-.2c.28-.15.57-.21.85-.19.93.04,1.74.86,1.7,1.96-.1,2.58-1.49,4.92-3.64,6.13"/>
      <path class="cls-12" d="M50.7,63.56c-.28-.01-.57.05-.85.19l-.39.2c-2.23,1.16-3.7,3.52-3.83,6.17v.06c-.08,1.46,1.37,2.44,2.59,1.76l.53-.3c2.15-1.21,3.54-3.54,3.64-6.13.04-1.1-.77-1.92-1.7-1.96"/>
      <path class="cls-14" d="M97.86,31.29c-4.87,2.27-10.02,9.89-8.13,13.07,1.39,2.32,4.07,3.05,4.07,3.05-.37-.6-2.38-2.8-2.35-3.62v-.13c.25-5.05,3.06-9.57,7.34-11.8l.75-.39c.53-.28,1.09-.39,1.62-.37,1.78.07,3.35,1.65,3.26,3.76-.03.71-.1,1.42-.24,2.1l.74.46c.52-3.87-.37-9.25-7.08-6.12"/>
      <path class="cls-15" d="M101.18,31.11c-.53-.02-1.09.1-1.62.37l-.75.39c-4.28,2.23-7.09,6.75-7.33,11.8v.13c-.05.82.16,1.55.53,2.16.9,1.47,2.78,2.14,4.44,1.21l1.02-.57c3.53-1.98,5.99-5.55,6.75-9.64.13-.68.21-1.39.24-2.1.08-2.11-1.48-3.69-3.26-3.76M97.69,43.13l-.53.3c-1.22.68-2.67-.3-2.6-1.76v-.06c.14-2.64,1.6-5,3.83-6.17l.39-.2c.28-.15.57-.21.85-.19.93.04,1.74.86,1.7,1.96-.1,2.59-1.49,4.92-3.64,6.13"/>
      <path class="cls-12" d="M99.63,35.05c-.28-.01-.57.05-.85.2l-.39.2c-2.23,1.16-3.7,3.52-3.83,6.17v.06c-.08,1.46,1.37,2.44,2.59,1.76l.53-.3c2.15-1.21,3.54-3.54,3.64-6.13.04-1.1-.77-1.92-1.7-1.96"/>
      <path class="cls-7" d="M102.09,17.8c-1.68-1.44-19.87-16.85-29.14-17.67l-14.87,1.37L15.51,22.35S3.03,31.85,2.67,32.83c-2.32,6.37-3.23,16.47-.09,20.14,3.15,3.67,27.25,18.77,27.25,18.77,0,0,8.02,3.36,11.14.44,0,0,4.08-15.67,13.75-12.47,0,0,1.54,1.59,1.28,6.22l33.15-19.07s1.53-10.19,7.07-14.48c2.66-2.06,5.44-2.54,7.85-.3,1.1,1.02.86,5.33.86,5.33,0,0,2.43-5.13,1.73-11.78-.24-2.25-2.89-6.4-4.57-7.84"/>
      <path class="cls-10" d="M103.85,19.81c-5.75-.26-11.5-.25-17.22.57-.06,0-.12,0-.18,0-8.52,4.33-16.91,8.99-25.59,12.97-4.11,1.89-8.39,3.44-12.35,5.67-1.52.86-4.06,2.03-5.94,3.41-.08.62-.26,1.25-.58,1.85-2.19,4.15-5.96,7.89-6.89,12.63-1.02,5.19-2.15,10.36-2.44,15.76,2.35.44,6.8.92,8.32-.5,0,0,4.08-15.67,13.75-12.47,0,0,1.54,1.59,1.28,6.22l33.15-19.07s1.53-10.19,7.07-14.48c2.66-2.06,5.44-2.54,7.85-.3,1.09,1.02.86,5.33.86,5.33,0,0,2.43-5.13,1.73-11.78-.16-1.55-1.47-3.98-2.82-5.83"/>
      <path class="cls-14" d="M25.38,65.43c-6.58-3.9-15.23-10.64-21.18-15.57-2.87-2.38-3.63-4.57-3.61-6.17-1.65,4.55.51,7.3,1.99,9.28,3.6,4.82,20.62,16.18,27.25,18.77,2.61,1.02,7.37,2.86,11.14.44,0,0,.43-1.66,1.35-3.78-.16.05-.33.11-.49.15-6.05,1.75-11.16,0-16.45-3.13"/>
      <path class="cls-14" d="M19.85,15.33l-7.99,11.62c-.31.93-.6,1.76.64,3.34,3.71,4.71,14.23,11.59,22.19,15.54,2.47,1.22,5.35,1.2,5.35,1.2l7.09-.35.9-13.92s-3.52-.64-7.75-2.41c-13.57-5.67-20.43-15.02-20.43-15.02"/>
      <polygon class="cls-14" points="45.82 31.83 42.35 46.6 47.14 46.67 85.08 25.49 85.53 20.63 70.83 19.2 45.82 31.83"/>
      <path class="cls-14" d="M84.92,17.12l-12.27-2.53c1.67,2.75-1.83,4.61-1.83,4.61l8.92,1.64,5.34,4.65c4.08-5.04-.16-8.37-.16-8.37"/>
      <path class="cls-9" d="M19.76,17.7c-.18-.23-6.68,9.37-6.68,9.37.3,1.98,4.68,5.73,9.65,9.31,3.36,2.42,7,4.76,9.83,6.42,3.55,2.08,5.3,1.83,5.3,1.83l4.99-11.14c-11.08-4.11-21.64-13.84-23.1-15.78"/>
      <path class="cls-3" d="M18.64,28.9c.07-.03.14-.06.21-.09-.08.03-.15.06-.21.09"/>
      <path class="cls-3" d="M27.28,26.03c-1.61.49-3.21.99-4.81,1.51-.79.26-1.58.53-2.37.81-.61.21-2.81,1.11-1.46.55-1.11.46-2.23.92-3.33,1.4,1.8,1.82,4.51,3.98,7.42,6.08,1.23.88,2.49,1.76,3.74,2.59,3.04-.99,6.1-1.95,9.15-2.9,2.34-.72,4.69-1.43,7.03-2.14l.2-.45c-5.08-1.88-10.04-4.95-14.08-7.9-.5.15-1.01.3-1.51.45"/>
      <path class="cls-9" d="M47.03,34.6l-2.19,9.12c-.25,1.03,1.85,1.83,2.72,1.29l13.32-7.58-3.8-8.62-10.04,5.79Z"/>
      <polygon class="cls-9" points="70.39 21.07 59.32 27.74 64.76 35.29 80.96 26.57 77.48 22.97 70.39 21.07"/>
      <path class="cls-15" d="M81.75,18.44c-2.43-.29-1.34,2.06-1.34,2.06.59.14,4.12.49,4.12.49l-.14,1.27c3.29,2.55,6.1.81,5.05-.85-1.51-2.4-7.69-2.97-7.69-2.97"/>
      <path class="cls-9" d="M60.01.76L49.7.05l6.11,2.7c4.07,1.8,7.54,4.55,11.09,7.33l5.77,4.51,12.27,2.54s-6.27-5.72-11.53-9.37c-7.43-5.16-13.39-6.98-13.39-6.98"/>
      <path class="cls-14" d="M49.7.05l1.18.47,8.56.76c13.05,4.55,24.42,15.8,24.42,15.8l1.07.04C71.27,4.25,60.01.77,60.01.77L49.7.05Z"/>
      <path class="cls-14" d="M49.7.05s.82.35,2.43,1.07c2.69,1.2,7.42,3.52,12.96,7.54,2.25,1.63,4.37,3.54,7.57,5.92l.92.4S64.86,6.06,51.85.61l-2.16-.56Z"/>
      <path class="cls-2" d="M1.35,37.58c-.2.94-.37,2.23-.52,3.21l.56.85,4.21,3.06.71-2.81-4.3-3.18-.67-1.13Z"/>
      <path class="cls-2" d="M33.14,60.54l-4.7-2.9-.53,2.6,4.88,3.09c1.15.89,3.51-.34,3.51-.34l.29-2.75c-2.58.97-3.46.3-3.46.3"/>
      <polygon class="cls-12" points="11.1 49.37 21.79 56.54 21.94 52.72 11.19 45.36 11.1 49.37"/>
      <path class="cls-7" d="M50.3.19c-1.88-.53-4.48.22-4.48.22,0,0-10.62,5.08-13.73,6.78-2.92,1.61-10.37,6.48-10.37,6.48-.74.41-1.38.99-1.87,1.7-.11,1.59,1.62,2.67,2.33,3.4,5.03,5.19,10.2,8.44,15.94,11.48,2.63,1.39,4.27,1.99,5.46,2.66,1.15.65,3.55-.76,3.55-.76,0,0,20.19-11.12,23.7-12.96,3.51-1.84,1.83-4.61,1.83-4.61C64.88,6.7,52.18.72,50.3.19"/>
      <path class="cls-6" d="M67.16,41.52c-.6-1.48-3.32-3.96-3.43-4.06l-.34.13c-.28-.15,2.9,2.65,3.47,4.06.53,1.31,1.31,11.19,1.4,12.36l-9.82,5.58c-.12-.44-.47-1.48-1.28-2.51-.96-1.22-2.79-2.65-6-2.49-.8.04-1.48-.58-1.55-1.41-.16-2.03-.83-5.79-3.01-6.71l-.35.15c2.02.86,2.88,4.64,3.04,6.59.08,1.01.91,1.77,1.88,1.72,5.89-.29,6.96,4.73,7.01,4.94l.04.22,10.38-5.9v-.11c-.04-.45-.86-11.14-1.44-12.58"/>
      <path class="cls-6" d="M83.48,26.39l-.35.2s3.11,2.1,3.6,4.35c.48,2.21.16,11.27.12,12.32l-18.48,10.72.15.3,18.56-10.77.08-.05v-.1c.02-.41.4-10.13-.12-12.51-.52-2.38-3.43-4.38-3.56-4.47"/>
      <path class="cls-15" d="M71.95,39.39l-2.6,1.4c-.3.16-.48.55-.4.87.05.22.22.36.41.36.09,0,.18-.02.28-.07l2.63-1.45c.29-.16.45-.54.36-.85-.09-.31-.39-.43-.68-.28"/>
      <path class="cls-14" d="M45.69,33.84l-2.33,10.47,3.34,2.11s1.65,1.73,2.37,4.12c.71,2.35.38,3.7,1.58,3.95,1.51.32,4.34-.11,6.27,2.32,1.93,2.43,1.86,3.5,1.86,3.5l9.6-6.1-1.64-12.25-3.22-4.4-6.07-8.84-.6-.87-11.16,6Z"/>
      <path class="cls-16" d="M57.29,47.92s-.6.47-.85,1.77c-.25,1.3-.79,5.37.67,5.98,1.47.61,4.35-1.22,4.35-1.22l-4.17-6.53Z"/>
      <path class="cls-5" d="M57.08,48.8c-.17-.1-.22-.32-.11-.49.14-.21.4-.52.84-.86.83-.64,2.06-1.15,2.64-.71.58.44.08,1.61-1.2,2.24-.9.45-1.75.08-2.17-.18"/>
      <path class="cls-5" d="M60.85,68.96s-.24.98-.2,1.37c.04.39.65.37,1.23.73s1.58.6,1.79.22c.23-.42-.68-1.18-1.18-1.53-.5-.35-.52-.75-.52-.86,0-.11-.88-.82-1.11.06"/>
      <path class="cls-13" d="M62.96,56.63s-.74,2.64-.7,4.34c.04,1.7-.23,8.24-.23,8.24,0,0,.41,1.25-1.22-.03,0,0-.04-2.28-.04-2.94,0-.66.14-2.25.14-2.25,0,0-.37-3.28-.46-4.4-.09-1.13-.26-3.4,2.51-2.96"/>
      <path class="cls-5" d="M57.28,70s-.2.71-.14,1.1c.06.4,1.28,1,1.7,1.13.43.13,1.34.34,1.32-.29-.02-.5-1.11-1.15-1.34-1.32s-.47-.39-.46-.67c.01-.28-.86-.62-1.07.04"/>
      <path class="cls-13" d="M57.73,57.9s-.86,2.55-.61,3.84c.25,1.29,0,3.92,0,3.92l.1,4.57s1.42,1.09,1.15-.11l.45-4.32.5-6.52-1.59-1.38Z"/>
      <path class="cls-1" d="M61.02,47.88s.08,2.32.07,3.34c0,1.01.17,1.34.69,2.49.52,1.15.94,2.04.94,2.04,0,0,.02.67.25,1.23.23.56.43.7.43.7,0,0,.1.51.12.65.02.13.16.09.18.02,0,0,.15.09.2,0,0,0,.13.12.23-.04,0,0,.19.06.24-.16.05-.22-.18-1.09-.18-1.09,0,0,.14.08.18-.06.04-.14-.25-.64-.46-1.03-.21-.38-.46-.47-.46-.47l-1.08-3.81s-.05-1.47,0-2.28c.04-.81.24-2.26-.44-2.8-.72-.57-.92,1.27-.92,1.27"/>
      <path class="cls-11" d="M60.18,46.83s-1.43.76-2.36,1.61c-.99.9-.38,2.36-.29,3.15.07.61.39,2.74.2,3.5-1.17,4.67-1.88,10-2.04,10.55-.03.09-.01.18.04.26.13.18.4.53.77.68.88.37,1.36.48,2.29.26,1.27-.29,1.67-.36,2.38-.18,1.56.41,1.57-.39,2.26-.37.43.02.49-.32.49-.49.02-.97.5-5.32-.71-9.4-.5-1.68-.51-3.19-.55-4.54-.04-1.34-.06-3.18-.32-4.12-.27-.94-1.02-1.54-2.17-.92"/>
      <path class="cls-13" d="M60.47,51.52c-.09-.1-.71-.18-1.07-.02l.23.49s.32-.17.56-.16c.24,0,.37-.21.28-.31"/>
      <path class="cls-16" d="M58.14,48.16s.27-.33.54-.38c0,0,.67.3.98,1.07.21.51.86,2.67.53,3.55-.27.71-1.76,1.46-2.4,1.59l-.06-.71s1.21-.04,1.81-1.09c.41-.71-.13-2.34-.34-3.01-.21-.67-1.06-1.01-1.06-1.01"/>
      <path class="cls-16" d="M60.14,47.07s.35-.26.62-.32,1.18.31,1.37,1.45c.19,1.14.33,3.05.56,4.04l.02.64s-.43-.55-.61-1.22-.28-2.46-.47-3.2c-.21-.85-.73-1.42-1.49-1.39"/>
      <path class="cls-1" d="M59.01,47.53s.47.24.68.65c.1.2.72,1.42,1.1,1.57.55.21.29-1.36.33-1.72.04-.37.06-1.31-.07-1.66-.11-.3-1.25-1.46-1.57-.26-.05.17-.05,1.2-.47,1.42"/>
      <path class="cls-13" d="M61.24,52.3c-.15-.05-.52,0-.86,0-.34,0-.76-.3-.76-.3l-.23-.49c-.36.16-1.03.52-1.03.52h-2.21s.59-.42,1.59-1.32c.94-.84,1.04-1.18.94-1.71-.1-.52-.62-.74-.89-.54-.27.2-2.74,2.31-2.74,2.31,0,0-.9.93-1.2,1.26-.3.33-.12.91.49,1.01.61.1,3.83-.09,3.83-.09,0,0,.2.24.47.4.27.16,1.56.38,1.94.25.38-.13.16-.3.16-.3.39-.08.19-.29.19-.29.41-.03.27-.36.27-.36.2-.05.19-.28.04-.33"/>
      <path class="cls-13" d="M61.31,46.69s-.38.71-1.19,1.1c-.81.38-1.32.41-1.46.15-.14-.26-.52-.94-.66-1.62-.15-.68-.42-1.2-.04-2.01.38-.81,1.39-2.3,2.87-1.52,1.48.78.79,3.14.5,3.91"/>
      <path class="cls-5" d="M60.86,47.26c-.33-.29-.83-1.03-1.06-1.53-.14-.29-1.42-.83-1.76-.88-.33-.04-.28.51-.28.51,0,0-.16-.6,0-1.25.12-.48.34-.79.77-1.15.35-.3.8-.46,1.26-.47.33,0,.73.01,1.07.11.76.2,1.15.61,1.29,1.13.1.35-.05,1.17-.31,1.99-.34,1.1-.99,1.53-.99,1.53"/>
      <path class="cls-5" d="M58.73,45.09s-.03.84.69,1.42c.73.58.87.84.87.84l-.07-.86s-.04-1.34-.4-1.61c-.36-.27-1.1.21-1.1.21"/>
      <path class="cls-5" d="M58.73,45.09s-.25.05-.57.54c-.1.17-.12.34-.31.55,0,0-.21-.94-.18-1.51.04-.57,1.36-.75,1.05.42"/>
      <path class="cls-5" d="M60.23,42.51s.33-.31,1.06-.37c.73-.05,1.45.28,1.58,1.46.07.61.01,2.81.22,3.33,0,0-.62-.56-.68-1.07-.23-2.07-1.42-2.08-1.57-2.35-.15-.27-.6-1-.6-1"/>
      <polygon class="cls-10" points="67.14 58.5 68.45 54.57 66.87 41.66 63.73 37.46 62.29 40.88 67.14 58.5"/>
      <path class="cls-9" d="M58.33,28.46l.16,3.8c.04,1,.3,1.97.75,2.86l3.27,6.44,1.22-4.1-5.4-9.01Z"/>
      <polyline class="cls-4" points="68.48 53.83 67.03 57.65 66.92 57.6 62.68 42.24"/>
      <path class="cls-15" d="M65.34,42.3c-.2-.2-.69.35-1.03.71-.25.26-.42.58-.32.84s.45.29.8.22c.55-.11.83-1.49.55-1.77"/>
    </g>
  </g>
</svg>