<?xml version="1.0" encoding="UTF-8"?>
<svg xmlns="http://www.w3.org/2000/svg" xmlns:xlink="http://www.w3.org/1999/xlink" viewBox="0 0 43.69 49.08">
  <defs>
    <style>
      .uuid-5c7b794e-aef7-49a7-8ed6-8fff87c28fc9 {
        fill: #635f5b;
      }

      .uuid-8b46e20d-db63-4ba0-b869-d0f2a78d804f {
        fill: #6c4e42;
      }

      .uuid-f7f8efeb-f0f6-412d-a663-1704aa83b0c8 {
        fill: #4e4a49;
      }

      .uuid-071caa5a-b17b-48ac-86b2-31ac510a812f {
        fill: #797672;
      }

      .uuid-976566d4-c56b-48a4-894b-d222ee59a28f {
        fill: none;
      }

      .uuid-3a5c7ac0-b799-4ef7-a0f2-2e4de0d89295 {
        fill: #464550;
      }

      .uuid-7bc74aeb-5426-4397-af69-3324468c69c2 {
        fill: #90ccb5;
      }

      .uuid-3e4f9da3-4c17-4be2-b79c-d1e1fb41efec {
        fill: #534c57;
      }

      .uuid-c78a1b04-01c7-41bd-8ab2-069bff58e91a {
        fill: #c3b9c6;
      }

      .uuid-ff779ca3-ff46-47a4-b7ed-4d9a9b7424ae {
        isolation: isolate;
      }

      .uuid-5f87d013-c233-4288-b635-fe444d041d71 {
        fill: #342d38;
      }

      .uuid-6d46d58f-cdc1-4037-a7a8-e556c2133064 {
        fill: #a397a8;
      }

      .uuid-aeae6844-ecc4-449e-af07-9490a9fec093 {
        fill: #595963;
      }

      .uuid-04d9bdcf-18f2-4964-8e4f-2ffb107fe082 {
        fill: #6dbea0;
      }

      .uuid-b7f70d92-105a-4bcb-a88b-67f99e8368db {
        fill: #4a424d;
      }

      .uuid-08f2d184-0bad-4221-91e1-077105bbf60b {
        fill: #54504e;
      }

      .uuid-1dd3b08c-1f33-4384-b076-1cd74aaa1ee8 {
        fill: #4c4847;
      }

      .uuid-7225db7b-de22-4d00-b99a-549d4995987e {
        fill: #96928f;
      }

      .uuid-d8a6d1dc-af38-4579-8491-d34e1ae12282 {
        fill: #585453;
      }

      .uuid-c0746ca2-4b99-43f1-87e9-60bd6acd6c42 {
        fill: #706c6b;
      }
    </style>
    <clipPath id="uuid-0cce46d7-033c-4142-9953-276ae3d417f9">
      <rect class="uuid-976566d4-c56b-48a4-894b-d222ee59a28f" x="15.82" y="17.99" width="3.78" height="9.27"/>
    </clipPath>
  </defs>
  <g class="uuid-ff779ca3-ff46-47a4-b7ed-4d9a9b7424ae">
    <g id="uuid-e76f5993-7795-4623-9214-24798ff8e619" data-name="Calque_2">
      <g id="uuid-605c9d43-368d-441d-bea7-4c722903a557" data-name="Les_Véhicules">
        <g id="uuid-61955c67-acf0-4dcb-8db1-fec1d6068ab9" data-name="Vehic_x5F_Velo_x5F_HD">
          <polygon class="uuid-aeae6844-ecc4-449e-af07-9490a9fec093" points="20.81 32.36 18.32 34.94 15.48 33.3 15.48 32.15 17.96 30.72 20.81 32.36"/>
          <polygon class="uuid-3a5c7ac0-b799-4ef7-a0f2-2e4de0d89295" points="20.81 33.5 18.32 34.94 18.32 33.8 20.81 32.36 20.81 33.5"/>
          <rect class="uuid-d8a6d1dc-af38-4579-8491-d34e1ae12282" x="13.86" y="17.28" width=".75" height="4.11" transform="translate(-4.25 4.01) rotate(-13.99)"/>
          <path class="uuid-8b46e20d-db63-4ba0-b869-d0f2a78d804f" d="M8.51,16.65s-.67,1.21.2,1.86c.87.65,2.86,1.49,4.07,1.52,1.21.03,1.91-1.63,2.07-1.91s1.09-2.18,2.04-2.89c.95-.72-.23-1.43-1.24-1.06s-3.06,1.13-4.41,1.52c-1.35.39-2.18.47-2.72.95"/>
          <path class="uuid-04d9bdcf-18f2-4964-8e4f-2ffb107fe082" d="M30.16,15.4c-.2.1-.44.25-.57.38-.07.06-.1.13-.09.11,0,0,0,0,0-.02,0,0-.01-.03,0,0l.02.05.04.09c.22.5.51,1.04.78,1.55.55,1.04,1.12,2.08,1.7,3.12l-.04-.06,1.74,2.12-.48.42-1.85-2.03-.02-.02-.02-.04c-.63-1.01-1.25-2.02-1.86-3.05-.3-.52-.6-1.02-.89-1.59l-.05-.11-.06-.16s-.04-.14-.05-.21c-.01-.08,0-.16,0-.24.05-.31.2-.5.33-.66.28-.3.54-.48.86-.66l.5,1Z"/>
          <path class="uuid-7bc74aeb-5426-4397-af69-3324468c69c2" d="M29.66,15.81s-1.16-3.06-1.25-3.28c-.13-.34-.26-.69-.39-1.03-.06-.16-.13-.33-.19-.49-.12-.31.05-.79.42-.8.07,0,.53.15.54.18.21.59.44,1.17.66,1.75.09.23,1.25,3.28,1.25,3.28-.01,0-1.02.39-1.04.4"/>
          <path class="uuid-7bc74aeb-5426-4397-af69-3324468c69c2" d="M19.11,35.06l-.99-.53s.11-.21.12-.22c.38-.71.75-1.41,1.13-2.12.66-1.24,1.32-2.48,1.98-3.72.8-1.5,1.6-3,2.4-4.5l2.38-4.46c.64-1.2,1.28-2.4,1.92-3.6.22-.41.43-.82.65-1.22.18-.34.44-1.09.89-.57.49.56.13,1.03-.15,1.56-.23.42-.45.85-.68,1.27-.71,1.34-1.42,2.67-2.14,4.01-.84,1.59-1.69,3.17-2.53,4.76-.81,1.52-1.62,3.04-2.43,4.56-.61,1.14-1.22,2.29-1.83,3.43-.24.45-.48.9-.72,1.35"/>
          <polygon class="uuid-5c7b794e-aef7-49a7-8ed6-8fff87c28fc9" points="19.01 37.65 19.93 33.5 18.99 33.17 18.08 37.32 19.01 37.65"/>
          <path class="uuid-7bc74aeb-5426-4397-af69-3324468c69c2" d="M29.1,12.97c-.04.21-.19.4-.38.53-1.09.76-2.18,1.51-3.27,2.27-1.49,1.03-2.97,2.07-4.46,3.1l-3.94,2.74c-.57.39-1.13.79-1.69,1.18l-.65-.91s.14-.1.15-.11c.82-.58,1.63-1.17,2.45-1.75,1.39-1,2.79-2,4.18-3,1.42-1.01,2.83-2.03,4.25-3.04.54-.39,1.08-.78,1.62-1.16.2-.14.4-.28.6-.43.11-.08.24-.23.36-.25.26-.04.61.25.72.46.07.14.09.27.06.39"/>
          <rect class="uuid-7bc74aeb-5426-4397-af69-3324468c69c2" x="16.11" y="21" width="1.12" height="14.07" transform="translate(-7.09 5.69) rotate(-16.02)"/>
          <path class="uuid-04d9bdcf-18f2-4964-8e4f-2ffb107fe082" d="M14.92,23.2s0,.06,0,.09c.01.54-.77.94-1.13,1.24-.27.22-.54.44-.8.66l.17-.23-4.95,12.62-.55-.54,1.56-.65c.52-.21,1.06-.37,1.59-.56l3.19-1.1h.03s.05-.02.05-.02l3.63-.6.16-.03.15.07.67.29-.45,1.02-.67-.29.31.04-3.64.52.08-.02-3.2,1c-.53.17-1.07.32-1.6.51l-1.56.6-.88.34.33-.88,4.69-12.71.05-.14.12-.1c.37-.31.74-.61,1.12-.92.28-.23.56-.47.85-.69.16-.13.29-.23.46-.06.12.12.2.35.22.54"/>
          <path class="uuid-3e4f9da3-4c17-4be2-b79c-d1e1fb41efec" d="M8.36,28.2C3.74,30.87,0,37.32,0,42.61s3.74,7.43,8.36,4.76c4.61-2.66,8.36-9.12,8.36-14.41s-3.74-7.43-8.36-4.76M8.36,46.83c-4.35,2.51-7.88.5-7.88-4.49s3.53-11.07,7.88-13.59c4.35-2.51,7.88-.5,7.88,4.49s-3.53,11.07-7.88,13.59"/>
          <path class="uuid-3e4f9da3-4c17-4be2-b79c-d1e1fb41efec" d="M6.95,47.34c2.32-.75,4.83-2.52,6.27-4.87l1.89-3.53s.02-.05.03-.07c.72-2.05.96-3.93.96-3.93,0,0,0-2.66-.1-3.05-.1-.4-.72-1.64-.72-1.64l-1.29-1.59s.76-.16,1.26.33c.5.49,1.65,1.75,1.74,4.02.09,2.27-.68,9.02-6.77,13.53-6.08,4.52-8.58-.91-8.58-.91,0,0,2.61,2.59,5.32,1.71"/>
          <path class="uuid-6d46d58f-cdc1-4037-a7a8-e556c2133064" d="M8.74,29.36c-4.17,2.4-7.54,8.23-7.54,13.01s3.5,6.84,7.67,4.43c4.17-2.4,7.71-8.17,7.71-12.95s-3.67-6.89-7.84-4.49M8.74,46.34c-4.01,2.31-7.26.46-7.26-4.14s3.25-10.2,7.26-12.52c4.01-2.31,7.26-.46,7.26,4.14s-3.25,10.2-7.26,12.52"/>
          <path class="uuid-c78a1b04-01c7-41bd-8ab2-069bff58e91a" d="M9.13,29.58c-4.17,2.4-7.54,8.23-7.54,13.01s3.38,6.71,7.54,4.3c4.16-2.4,7.54-8.23,7.54-13.01s-3.38-6.71-7.54-4.3M9.13,46.56c-4.01,2.31-7.26.46-7.26-4.14s3.25-10.2,7.26-12.52c4.01-2.31,7.26-.46,7.26,4.14s-3.25,10.2-7.26,12.52"/>
          <path class="uuid-3e4f9da3-4c17-4be2-b79c-d1e1fb41efec" d="M3.46,48.56s-.88-.4-1.4-.83c-.52-.43-2.27-3.67-1.69-6.64.58-2.97,1.79-7.11,4.57-9.8,2.78-2.69,5.23-3.96,7.05-3.89,1.82.07,2.46.31,2.46.31,0,0,.88.35,1.42.91-.11.2-2.51-.87-3.77-.64-1.27.23-4.62,1.64-7.03,4.91-2.4,3.27-3.65,6.7-3.7,8.65s.6,4.42,1.59,5.44c.98,1.02.5,1.58.5,1.58"/>
          <path class="uuid-b7f70d92-105a-4bcb-a88b-67f99e8368db" d="M9.32,29.31c-4.35,2.51-7.88,8.59-7.88,13.59s3.53,7,7.88,4.49c4.35-2.51,7.88-8.59,7.88-13.59s-3.53-7-7.88-4.49M9.32,47c-4.17,2.41-7.54.48-7.54-4.3s3.38-10.6,7.54-13.01c4.16-2.4,7.54-.48,7.54,4.3s-3.38,10.6-7.54,13.01"/>
          <path class="uuid-5f87d013-c233-4288-b635-fe444d041d71" d="M9.32,28.76C4.71,31.42.97,37.88.97,43.17s3.74,7.43,8.36,4.76c4.61-2.66,8.36-9.12,8.36-14.41s-3.74-7.43-8.36-4.76M9.32,47.39c-4.35,2.51-7.88.5-7.88-4.49s3.53-11.07,7.88-13.59c4.35-2.51,7.88-.5,7.88,4.49s-3.53,11.07-7.88,13.59"/>
          <path class="uuid-3e4f9da3-4c17-4be2-b79c-d1e1fb41efec" d="M34.37,13.18c-4.62,2.66-8.36,9.12-8.36,14.41s3.74,7.43,8.36,4.76c4.61-2.66,8.36-9.12,8.36-14.41s-3.74-7.43-8.36-4.76M34.37,31.81c-4.35,2.51-7.88.5-7.88-4.49s3.53-11.07,7.88-13.59c4.35-2.51,7.88-.5,7.88,4.49s-3.53,11.07-7.88,13.59"/>
          <path class="uuid-3e4f9da3-4c17-4be2-b79c-d1e1fb41efec" d="M32.96,32.32c2.32-.75,4.83-2.52,6.27-4.87l1.89-3.53s.02-.05.03-.07c.72-2.05.96-3.93.96-3.93,0,0,0-2.66-.1-3.05-.1-.4-.72-1.64-.72-1.64l-1.29-1.59s.76-.16,1.26.33c.5.49,1.65,1.75,1.74,4.02.09,2.27-.68,9.02-6.77,13.53-6.09,4.52-8.58-.91-8.58-.91,0,0,2.61,2.59,5.32,1.71"/>
          <path class="uuid-6d46d58f-cdc1-4037-a7a8-e556c2133064" d="M34.76,14.34c-4.17,2.4-7.54,8.23-7.54,13.01s3.5,6.84,7.67,4.43c4.17-2.4,7.71-8.17,7.71-12.95s-3.67-6.89-7.84-4.49M34.76,31.32c-4.01,2.31-7.26.46-7.26-4.14s3.25-10.2,7.26-12.52c4.01-2.31,7.26-.46,7.26,4.14s-3.25,10.2-7.26,12.52"/>
          <path class="uuid-c78a1b04-01c7-41bd-8ab2-069bff58e91a" d="M35.14,14.56c-4.17,2.4-7.54,8.23-7.54,13.01s3.38,6.71,7.54,4.3c4.16-2.4,7.54-8.23,7.54-13.01s-3.38-6.71-7.54-4.3M35.14,31.54c-4.01,2.31-7.26.46-7.26-4.14s3.25-10.2,7.26-12.52c4.01-2.31,7.26-.46,7.26,4.14s-3.25,10.2-7.26,12.52"/>
          <path class="uuid-3e4f9da3-4c17-4be2-b79c-d1e1fb41efec" d="M29.48,33.54s-.88-.4-1.4-.83c-.52-.43-2.27-3.67-1.69-6.64.58-2.97,1.79-7.11,4.57-9.8,2.78-2.69,5.23-3.96,7.05-3.89,1.82.07,2.46.31,2.46.31,0,0,.88.35,1.42.91-.11.2-2.51-.87-3.77-.64-1.27.23-4.62,1.64-7.03,4.91-2.4,3.27-3.65,6.7-3.7,8.65-.05,1.94.6,4.42,1.59,5.44.98,1.02.5,1.58.5,1.58"/>
          <path class="uuid-b7f70d92-105a-4bcb-a88b-67f99e8368db" d="M35.34,14.29c-4.35,2.51-7.88,8.59-7.88,13.59s3.53,7,7.88,4.49c4.35-2.51,7.88-8.59,7.88-13.59s-3.53-7-7.88-4.49M35.34,31.98c-4.17,2.41-7.54.48-7.54-4.3s3.38-10.6,7.54-13.01c4.16-2.4,7.54-.48,7.54,4.3s-3.38,10.6-7.54,13.01"/>
          <path class="uuid-5f87d013-c233-4288-b635-fe444d041d71" d="M35.34,13.74c-4.62,2.66-8.36,9.12-8.36,14.41s3.74,7.43,8.36,4.76c4.61-2.66,8.36-9.12,8.36-14.41s-3.74-7.43-8.36-4.76M35.34,32.37c-4.35,2.51-7.88.5-7.88-4.49s3.53-11.07,7.88-13.59c4.35-2.51,7.88-.5,7.88,4.49s-3.53,11.07-7.88,13.59"/>
          <path class="uuid-7bc74aeb-5426-4397-af69-3324468c69c2" d="M30.39,14.75c.42.39.82.76,1.22,1.21.1.12.19.21.32.44.07.16.11.27.16.4l.3.78,1.21,3.1-.04-.07,1.8,2.72-.51.35-1.93-2.62-.02-.03-.02-.05-1.35-3.01-.34-.75c-.05-.12-.12-.27-.16-.36-.01-.01-.1-.13-.19-.21-.35-.36-.78-.72-1.19-1.06l.73-.85Z"/>
          <path class="uuid-08f2d184-0bad-4221-91e1-077105bbf60b" d="M38.64,10.13c-.26-.47-1.02-1.13-1.44-1.46-.59.2-2.21.7-2.98.5-.84-.21-8.32-4.32-9.18-4.79l-.06-.03-.04-.05c-.25-.29-1.4-1.68-1.62-2.58-1.43-.84-3.44-.97-3.46-.97l.05-.75c.1,0,2.35.16,3.95,1.18l.16.1v.19c.04.45.85,1.59,1.44,2.29,3.19,1.75,8.39,4.54,8.94,4.69.51.13,1.95-.27,2.74-.55l.19-.07.16.12c.14.1,1.37,1.05,1.8,1.82l-.65.36Z"/>
          <path class="uuid-f7f8efeb-f0f6-412d-a663-1704aa83b0c8" d="M39.53,10.71l.35-.93-2.6-1.62c-.07-.03-.17,0-.26.08-.18.16-.3.4-.25.63.02.12.08.19.16.21h0s0,0,0,0h0l2.59,1.62Z"/>
          <path class="uuid-c0746ca2-4b99-43f1-87e9-60bd6acd6c42" d="M39.37,10.5c.05.23.24.29.41.13.18-.16.3-.4.25-.63-.05-.23-.24-.29-.41-.13-.18.16-.3.4-.25.63"/>
          <path class="uuid-d8a6d1dc-af38-4579-8491-d34e1ae12282" d="M29.73,6.85c.1-.1.26-.26.42-.16.06.04.1.1.13.16.06.09.1.19.13.3.01.05,0,.06-.02.1-.02.02-.04.04-.05.06-.04.04-.09.09-.13.14l-.31.33c-.24.26-.49.51-.73.77-.21.23-.43.45-.64.68-.09.1-.18.19-.28.29,0,0-.54-.51-.53-.52.11-.12.23-.24.34-.36.22-.24.45-.47.67-.7.24-.25.48-.51.72-.76.1-.1.2-.21.29-.31"/>
          <path class="uuid-1dd3b08c-1f33-4384-b076-1cd74aaa1ee8" d="M27.62,8.54c.1-.04.21-.03.32-.01.02,0,.05,0,.07.02.08.05.11.27.14.36.05.13.09.26.14.39.1.26.19.53.29.8.06.16.15.34.03.5-.1.13-.34.19-.49.13-.07-.03-.13-.09-.17-.18-.1-.22-.17-.45-.25-.68-.07-.18-.14-.37-.2-.55-.1-.26-.21-.63.12-.76"/>
          <path class="uuid-7bc74aeb-5426-4397-af69-3324468c69c2" d="M15.75,23.57c.02.49-.14,1.09-.19,1.5-.05.43-.11.86-.16,1.29v.1s-.05.08-.05.08l-6.23,12.27-.34-.42,2.19-.59h-.03s6.59-2.46,6.59-2.46l-.25.17.9-1.08.86.72-.9,1.08-.11.13-.14.04-6.71,2.09s-.03,0-.03,0l-2.22.47-.59.12.25-.54,5.76-12.49-.05.18c.12-.42.11-.93.17-1.37.04-.32.08-.64.12-.97.05-.36-.02-.62.25-.9.11-.12.23-.24.39-.24.2,0,.35.19.43.37.06.13.09.29.1.45"/>
          <polygon class="uuid-aeae6844-ecc4-449e-af07-9490a9fec093" points="21.14 36.96 18.66 39.54 15.81 37.89 15.81 36.75 18.3 35.32 21.14 36.96"/>
          <polygon class="uuid-3a5c7ac0-b799-4ef7-a0f2-2e4de0d89295" points="21.14 38.1 18.66 39.54 18.66 38.39 21.14 36.96 21.14 38.1"/>
          <path class="uuid-071caa5a-b17b-48ac-86b2-31ac510a812f" d="M17.66,34.82c0,1.28.9,1.79,2.02,1.15,1.12-.64,2.02-2.2,2.02-3.48s-.9-1.8-2.02-1.15c-1.11.64-2.02,2.2-2.02,3.48"/>
          <polygon class="uuid-071caa5a-b17b-48ac-86b2-31ac510a812f" points="18.21 36.1 18.67 36.36 21.57 31.46 21.14 31.22 18.21 36.1"/>
          <path class="uuid-7225db7b-de22-4d00-b99a-549d4995987e" d="M18.07,35.06c0,1.28.9,1.79,2.02,1.15,1.12-.64,2.02-2.2,2.02-3.48s-.9-1.8-2.02-1.15c-1.11.64-2.02,2.2-2.02,3.48"/>
        </g>
      </g>
    </g>
  </g>
</svg>