<?xml version="1.0" encoding="UTF-8"?>
<svg xmlns="http://www.w3.org/2000/svg" xmlns:xlink="http://www.w3.org/1999/xlink" viewBox="0 0 53.75 63.15">
  <defs>
    <style>
      .uuid-2b5ce55f-ee98-416c-b37b-453362d5b258 {
        fill: #9c9897;
      }

      .uuid-00d25a5e-e5ad-408f-8807-af9266507919 {
        fill: #2b2523;
      }

      .uuid-9a1a701f-20f5-49ce-a6d8-b5b8789849e4 {
        clip-path: url(#uuid-afcf1ed4-5a40-4093-8aed-20cb930238bd);
      }

      .uuid-6767d9b5-dfaf-4cbd-8bd2-d65a19275dbc {
        fill: #0071bc;
      }

      .uuid-31b53738-a0b5-465c-bc96-7317e7a00d6e {
        fill: #9fa0aa;
      }

      .uuid-e3d63522-ffb8-428a-aa97-8a9f3f3d97ed {
        clip-path: url(#uuid-0ae611a8-0237-4ff1-b5f8-be41d1b9c620);
      }

      .uuid-23c50866-67d6-4aca-b109-c73dbf16cf49 {
        clip-path: url(#uuid-f4cab81d-fdfb-43f2-a6fe-47a1c92a4234);
      }

      .uuid-6dabad49-a94c-4aef-8cce-35163496b0c3 {
        fill: #a9a6a5;
      }

      .uuid-eb117075-d07c-4472-8759-b82b1f75c9e8 {
        fill: #818188;
      }

      .uuid-e75ab7cf-2538-40da-b2e9-1c2561b1e360 {
        fill: #3d4393;
      }

      .uuid-5dca0d6b-6920-41ff-b76f-84406b9ef705 {
        fill: none;
      }

      .uuid-6251d444-faf9-4b5a-bf97-f6fa0771ead7 {
        clip-path: url(#uuid-ef7d0f9e-453c-4aaa-b10d-891be32bcea5);
      }

      .uuid-f0359065-0cd0-4ca7-8e0b-ce24e07237f4 {
        isolation: isolate;
      }

      .uuid-fde43236-94cf-4be7-b786-c7af3be2e9ce {
        fill: #302927;
      }

      .uuid-3de7028a-3744-4dca-8ca2-c768ce3bd37a {
        fill: #3d3331;
      }

      .uuid-1a902ad6-01b4-41ef-b785-8e600a51d8d5 {
        clip-path: url(#uuid-6e39630f-d26a-4506-8439-842464eb5682);
      }

      .uuid-fb95ebd3-7eff-4165-a116-d662ed6f200a {
        clip-path: url(#uuid-1a5580b9-54cb-47b3-86df-25476332ca4a);
      }

      .uuid-510ecea9-8142-4d95-96a9-a574cb797fc7 {
        fill: #a7a8ae;
      }

      .uuid-b270f61e-9966-4a2a-a5e9-73b6a0291e69 {
        fill: url(#uuid-c5d772a3-b5b2-487e-a661-d0451c4f66d4);
      }

      .uuid-abed0507-517d-4697-a7a0-909d634f1f8e {
        fill: #c5c3c2;
      }

      .uuid-6601e8c3-300e-4a2d-9c27-b9b35dcb08a0 {
        mix-blend-mode: multiply;
        opacity: .4;
      }

      .uuid-929bf924-06a9-4a8c-b915-64ad27c85a2b {
        fill: #453b39;
      }

      .uuid-265b97c8-04aa-445d-bd87-cf908643af16 {
        opacity: .5;
      }

      .uuid-01c26579-fb83-4b06-badd-518d41715fb3 {
        fill: #dcdadb;
      }

      .uuid-50326b03-f01d-4537-ab7e-edc768c79f11 {
        fill: #95969d;
      }
    </style>
    <clipPath id="uuid-1a5580b9-54cb-47b3-86df-25476332ca4a">
      <path class="uuid-5dca0d6b-6920-41ff-b76f-84406b9ef705" d="M29.21,24.11l-15.49,9,16.35,12.61,15.49-8.99c.47-.27.71-.92.72-1.62v-.09c-.01-.79-.3-1.63-.87-2.11-1.13-.94-13.96-7.83-15.73-8.76-.09-.05-.19-.08-.27-.08-.07,0-.13.02-.19.05"/>
    </clipPath>
    <linearGradient id="uuid-c5d772a3-b5b2-487e-a661-d0451c4f66d4" data-name="Dégradé sans nom 658" x1="-2211.32" y1="1214.45" x2="-2209.6" y2="1214.45" gradientTransform="translate(-3493.7 6455.26) rotate(90) scale(2.9 -2.9)" gradientUnits="userSpaceOnUse">
      <stop offset="0" stop-color="#6b78b8"/>
      <stop offset=".3" stop-color="#6b78b8"/>
      <stop offset=".54" stop-color="#606db1"/>
      <stop offset="1" stop-color="#515ea7"/>
    </linearGradient>
    <clipPath id="uuid-f4cab81d-fdfb-43f2-a6fe-47a1c92a4234">
      <rect class="uuid-5dca0d6b-6920-41ff-b76f-84406b9ef705" x="18.68" y="49.72" width="8.54" height="10.98"/>
    </clipPath>
    <clipPath id="uuid-0ae611a8-0237-4ff1-b5f8-be41d1b9c620">
      <rect class="uuid-5dca0d6b-6920-41ff-b76f-84406b9ef705" x="18.68" y="49.72" width="8.54" height="10.98"/>
    </clipPath>
    <clipPath id="uuid-6e39630f-d26a-4506-8439-842464eb5682">
      <path class="uuid-5dca0d6b-6920-41ff-b76f-84406b9ef705" d="M19.07,52.68c-.06,2.47,1.64,5.52,3.78,6.81,2.14,1.29,3.93.34,3.98-2.13.05-2.47-1.64-5.52-3.78-6.81-.65-.39-1.26-.57-1.81-.57-1.26,0-2.13.99-2.17,2.71"/>
    </clipPath>
    <clipPath id="uuid-afcf1ed4-5a40-4093-8aed-20cb930238bd">
      <rect class="uuid-5dca0d6b-6920-41ff-b76f-84406b9ef705" x="30.77" y="35" width="1.63" height=".94"/>
    </clipPath>
    <clipPath id="uuid-ef7d0f9e-453c-4aaa-b10d-891be32bcea5">
      <rect class="uuid-5dca0d6b-6920-41ff-b76f-84406b9ef705" x="30.77" y="35" width="1.63" height=".94"/>
    </clipPath>
  </defs>
  <g class="uuid-f0359065-0cd0-4ca7-8e0b-ce24e07237f4">
    <g id="uuid-9b7d08f7-1db2-4128-8bbe-122b29ba7c2a" data-name="Calque_2">
      <g id="uuid-86bee4bb-300e-4dac-94e5-b93ee059828a" data-name="Les_Véhicules">
        <g id="uuid-1ba4688c-f680-44a9-bec4-c4120e3a9396" data-name="Vehic_x5F_FauteuilElec_x5F_BD">
          <polygon class="uuid-6dabad49-a94c-4aef-8cce-35163496b0c3" points="39.94 33.08 34.62 30.01 34.62 28.36 39.94 31.43 39.94 33.08"/>
          <polygon class="uuid-abed0507-517d-4697-a7a0-909d634f1f8e" points="39.94 31.43 39.94 33.08 41.23 32.33 41.23 30.68 39.94 31.43"/>
          <polygon class="uuid-01c26579-fb83-4b06-badd-518d41715fb3" points="39.94 31.43 34.62 28.36 35.92 27.61 41.23 30.68 39.94 31.43"/>
          <path class="uuid-abed0507-517d-4697-a7a0-909d634f1f8e" d="M35.39,19.82v8.51c0,.41,1.12.43,1.12-.02v-7.55l-1.12-.94Z"/>
          <path class="uuid-abed0507-517d-4697-a7a0-909d634f1f8e" d="M34.87,18.28c.52-.3,1.37-.42,2.13-.06.04.02,5.69,3.31,7.94,4.61.33.19.57.48.62.86.02.15,0,.37.01.27,0,.96-1.57,1.69-2.88.98,0,0-7.84-4.56-7.84-4.56-.83-.49-.89-1.54.01-2.1"/>
          <path class="uuid-3de7028a-3744-4dca-8ca2-c768ce3bd37a" d="M34.58,17.22c.55-.31,1.45-.44,2.27-.06.04.02,6,3.49,8.39,4.88.35.21.61.51.66.91.02.16,0,.39.01.28,0,1.02-1.67,1.8-3.07,1.04,0,0-8.28-4.82-8.28-4.82-.89-.52-.95-1.64.01-2.23"/>
          <path class="uuid-929bf924-06a9-4a8c-b915-64ad27c85a2b" d="M43.81,23.58l-8.92-5.15c-.25-.15-.06-.52.21-.36l8.92,5.15c.25.15.06.52-.21.36"/>
          <path class="uuid-50326b03-f01d-4537-ab7e-edc768c79f11" d="M49.58,41.59c-.56-1.27-1.33-2.49-2.24-3.52-.76-.87-1.62-1.6-2.53-2.12-1.61-.93-3.06-1.01-4.11-.4l-2.65,1.54,8.19,14.08,2.65-1.54c1.04-.6,1.68-1.88,1.69-3.71,0-1.39-.36-2.89-1-4.33"/>
          <path class="uuid-eb117075-d07c-4472-8759-b82b1f75c9e8" d="M42.17,37.49c-1.32-.76-2.54-.96-3.51-.66-1.38.42-2.28,1.81-2.28,3.96-.01,3.67,2.57,8.13,5.76,9.97,1.95,1.13,3.69,1.01,4.73-.09.66-.7,1.06-1.79,1.06-3.21.01-3.66-2.57-8.13-5.76-9.97"/>
          <path class="uuid-00d25a5e-e5ad-408f-8807-af9266507919" d="M42.25,39.14c2.3,1.39,4.12,4.66,4.06,7.31-.06,2.65-1.97,3.68-4.27,2.29-2.3-1.39-4.12-4.66-4.06-7.31.06-2.65,1.97-3.68,4.27-2.29"/>
          <path class="uuid-31b53738-a0b5-465c-bc96-7317e7a00d6e" d="M47.94,46.48c-.05-.52-.15-1.06-.3-1.6-.29-1.09-.75-2.21-1.36-3.25-.31-.51-.65-1.02-1.02-1.48-.36-.47-.76-.9-1.17-1.29-.4-.39-.83-.73-1.25-1.03-.43-.29-.85-.54-1.27-.72-.82-.38-1.6-.47-2.12-.44-.53.03-.81.15-.81.15,0,0,.29-.1.81-.11.52-.01,1.26.13,2.07.51.4.18.81.44,1.23.73.41.3.83.64,1.22,1.04.39.39.78.82,1.13,1.29.36.46.68.96.98,1.47.61,1.01,1.08,2.11,1.39,3.18.15.53.26,1.06.32,1.56.06.5.08.99.06,1.43-.05.89-.27,1.61-.52,2.07-.24.46-.46.67-.46.67,0,0,.23-.2.5-.65.27-.45.55-1.17.61-2.08.03-.45.02-.94-.03-1.45"/>
          <polygon class="uuid-fde43236-94cf-4be7-b786-c7af3be2e9ce" points="4.44 42.17 23.21 53.01 39.34 38.69 4.44 37.16 4.44 42.17"/>
          <polygon class="uuid-929bf924-06a9-4a8c-b915-64ad27c85a2b" points="23.21 48 4.44 37.16 20.81 27.71 39.58 38.55 23.21 48"/>
          <polygon class="uuid-fde43236-94cf-4be7-b786-c7af3be2e9ce" points="8.63 44.59 29.54 56.66 45.66 39.43 10.77 37.9 8.63 44.59"/>
          <path class="uuid-3de7028a-3744-4dca-8ca2-c768ce3bd37a" d="M44.29,48.14l-14.75,8.52v-7.92l16.37-9.45v6.05c0,1.16-.62,2.23-1.62,2.81"/>
          <polygon class="uuid-929bf924-06a9-4a8c-b915-64ad27c85a2b" points="29.54 48.74 10.77 37.9 27.14 28.45 45.91 39.29 29.54 48.74"/>
          <polygon class="uuid-fde43236-94cf-4be7-b786-c7af3be2e9ce" points="5.66 42.41 7.8 46.88 22.97 55.64 25.37 53.87 5.66 42.41"/>
          <path class="uuid-50326b03-f01d-4537-ab7e-edc768c79f11" d="M5.39,40.1c-1.96-1.1-3.19-.45-3.6-.24l-.23.13c-.28.18-1.03.66-1.37,1.81-1.17,3.93,3.52,10.38,7.3,8.39l.23-.13c2.91-1.86,1.58-7.54-2.33-9.96"/>
          <path class="uuid-3de7028a-3744-4dca-8ca2-c768ce3bd37a" d="M3.61,42.83c1.34.77,2.43,2.66,2.43,4.2,0,1.55-1.1,2.18-2.44,1.4-1.35-.78-2.44-2.66-2.44-4.22,0-1.54,1.1-2.17,2.45-1.39"/>
          <path class="uuid-510ecea9-8142-4d95-96a9-a574cb797fc7" d="M8.22,44.24c-.41-.92-.97-1.8-1.62-2.55-.55-.63-1.17-1.16-1.82-1.54-1.17-.67-2.22-.74-2.99-.29l-.23.13c.76-.44,1.82-.38,2.99.29.65.38,1.27.91,1.82,1.54.65.75,1.21,1.62,1.62,2.55.46,1.04.73,2.13.72,3.13,0,1.32-.47,2.25-1.22,2.69l.23-.13c.75-.44,1.22-1.37,1.22-2.69,0-1.01-.26-2.1-.72-3.13"/>
          <polygon class="uuid-abed0507-517d-4697-a7a0-909d634f1f8e" points="43.99 36.38 43.98 39.13 29.62 47.46 28.01 43.74 43.99 36.38"/>
          <polygon class="uuid-2b5ce55f-ee98-416c-b37b-453362d5b258" points="29.63 44.7 29.62 47.46 15.4 39.24 15.41 36.49 29.63 44.7"/>
          <g class="uuid-fb95ebd3-7eff-4165-a116-d662ed6f200a">
            <rect class="uuid-b270f61e-9966-4a2a-a5e9-73b6a0291e69" x="10.49" y="17.37" width="39.01" height="35.03" transform="translate(-13.42 19.67) rotate(-30)"/>
          </g>
          <path class="uuid-6767d9b5-dfaf-4cbd-8bd2-d65a19275dbc" d="M28.4,0c-.13,0-.24.03-.34.09l-15.52,9.01,4.03,25.3,15.54-8.96c-1.7-9.97-.89-21.1-1.49-23.33-.04-.15-.09-.3-.16-.45-.13-.3-.31-.58-.52-.82-.21-.24-.45-.44-.7-.58-.28-.16-.56-.26-.8-.26h-.03Z"/>
          <path class="uuid-6767d9b5-dfaf-4cbd-8bd2-d65a19275dbc" d="M12.65,9.77l.2,1.29L30.13,1.09c-.06-.08-.12-.17-.19-.25-.21-.24-.45-.44-.7-.58-.02-.01-.04-.02-.06-.03L12.65,9.77Z"/>
          <path class="uuid-e75ab7cf-2538-40da-b2e9-1c2561b1e360" d="M30.19,43.32c-.27-.85-.85-1.55-1.59-2.04-2.29-1.51-8.34-4.87-12.03-6.88-1.86-13.06-.87-21.05-1.46-23.27-.21-.79-.74-1.48-1.39-1.86-.73-.42-1.41-.39-1.52.52-.46,3.7.39,18.14.83,22.2,0,0,.14,2.12.4,3.45.21,1.08.9,2,1.85,2.54,3.48,1.97,13.4,7.6,13.4,7.6,1.76,1.01,1.99-.72,1.51-2.26"/>
          <path class="uuid-50326b03-f01d-4537-ab7e-edc768c79f11" d="M30.38,52.67c-.56-1.27-1.33-2.49-2.24-3.52-.76-.87-1.62-1.6-2.53-2.12-1.61-.93-3.06-1.01-4.11-.4l-2.65,1.54,8.19,14.08,2.65-1.54c1.04-.6,1.68-1.88,1.69-3.71,0-1.39-.36-2.89-1-4.33"/>
          <path class="uuid-eb117075-d07c-4472-8759-b82b1f75c9e8" d="M22.97,48.57c-1.32-.76-2.54-.96-3.51-.66-1.38.42-2.28,1.81-2.28,3.96-.01,3.67,2.57,8.13,5.76,9.97,1.95,1.13,3.69,1.01,4.73-.09.66-.7,1.06-1.79,1.06-3.21.01-3.66-2.57-8.13-5.76-9.97"/>
          <g class="uuid-6601e8c3-300e-4a2d-9c27-b9b35dcb08a0">
            <g class="uuid-23c50866-67d6-4aca-b109-c73dbf16cf49">
              <g class="uuid-e3d63522-ffb8-428a-aa97-8a9f3f3d97ed">
                <path class="uuid-eb117075-d07c-4472-8759-b82b1f75c9e8" d="M22.97,50.3c-2.36-1.36-4.28-.27-4.28,2.44,0,2.71,1.9,6.01,4.26,7.37,2.36,1.36,4.28.27,4.28-2.44,0-2.71-1.9-6.01-4.26-7.37"/>
              </g>
            </g>
          </g>
          <g class="uuid-1a902ad6-01b4-41ef-b785-8e600a51d8d5">
            <path class="uuid-fde43236-94cf-4be7-b786-c7af3be2e9ce" d="M21.09,50.19h.16s1.05.11,1.05.11c0,0,.23.03.07.07-.76.2-1.26.94-1.28,2.1-.04,1.96,1.3,4.39,3.01,5.42,1.03.62,1.96.59,2.54.03.12-.11-.07.27-.07.27l-.34.61c-.61,1.09-1.9,1.33-3.37.44-2.02-1.22-3.61-4.09-3.56-6.42.04-1.66.57-2.67,1.8-2.63"/>
            <path class="uuid-00d25a5e-e5ad-408f-8807-af9266507919" d="M23.91,50.74c1.83,1.13,3.25,3.77,3.18,5.89-.07,2.12-1.61,2.92-3.44,1.79-1.83-1.13-3.25-3.77-3.18-5.89.07-2.12,1.61-2.92,3.44-1.79"/>
            <path class="uuid-fde43236-94cf-4be7-b786-c7af3be2e9ce" d="M23.83,53.25c.63.39,1.13,1.31,1.1,2.04-.02.73-.56,1.01-1.19.62-.64-.39-1.13-1.31-1.1-2.04.02-.73.56-1.01,1.19-.62"/>
          </g>
          <path class="uuid-3de7028a-3744-4dca-8ca2-c768ce3bd37a" d="M23.05,50.22c2.3,1.39,4.12,4.66,4.06,7.31-.06,2.65-1.97,3.68-4.27,2.29-2.3-1.39-4.12-4.66-4.06-7.31.06-2.65,1.97-3.68,4.27-2.29M23.04,50.81c-2.02-1.22-3.7-.32-3.75,2.01-.05,2.33,1.54,5.2,3.56,6.41s3.7.32,3.75-2.01c.05-2.33-1.54-5.2-3.56-6.41"/>
          <path class="uuid-31b53738-a0b5-465c-bc96-7317e7a00d6e" d="M28.75,57.57c-.05-.52-.15-1.06-.3-1.6-.29-1.09-.75-2.21-1.36-3.25-.31-.51-.65-1.02-1.02-1.48-.36-.47-.76-.9-1.17-1.29-.4-.39-.83-.73-1.25-1.03-.43-.29-.85-.54-1.27-.72-.82-.38-1.6-.47-2.12-.44-.53.03-.81.15-.81.15,0,0,.29-.1.81-.11.52-.01,1.26.13,2.07.51.4.18.81.44,1.23.73.41.3.83.64,1.22,1.04.39.39.78.82,1.13,1.29.36.46.68.96.98,1.47.61,1.01,1.08,2.11,1.39,3.18.16.53.26,1.06.32,1.56.06.5.08.99.06,1.43-.05.89-.27,1.61-.52,2.07-.24.46-.46.67-.46.67,0,0,.23-.2.5-.65.27-.45.55-1.17.61-2.08.03-.45.02-.94-.03-1.45"/>
          <polygon class="uuid-2b5ce55f-ee98-416c-b37b-453362d5b258" points="12.44 39.74 11.87 41.53 18.19 45.18 18.19 43.06 12.44 39.74"/>
          <path class="uuid-2b5ce55f-ee98-416c-b37b-453362d5b258" d="M29.41,44.61c-.35.4-1.12.16-1.72-.53-.6-.7-.81-1.58-.46-1.98.35-.4,1.12-.16,1.72.53.6.69.81,1.58.46,1.98"/>
          <polygon class="uuid-3de7028a-3744-4dca-8ca2-c768ce3bd37a" points="49.52 50.89 42.91 54.71 42.91 55.27 47.13 57.71 53.75 53.89 53.75 53.33 49.52 50.89"/>
          <path class="uuid-abed0507-517d-4697-a7a0-909d634f1f8e" d="M45.74,40.42c-.12-.14-.34-.15-.48-.03-.14.12-.15.34-.03.48l3.99,4.47v5.96c0,.3.68.33.68,0v-6.08c0-.08-.03-.16-.09-.22l-4.08-4.57Z"/>
          <path class="uuid-929bf924-06a9-4a8c-b915-64ad27c85a2b" d="M51.93,53.96l-4.25,2.45c-.35.2-.92.2-1.27,0l-2.23-1.29c-.35-.2-.35-.53,0-.73l4.24-2.45c.35-.2.92-.2,1.27,0l2.23,1.29c.35.2.35.53,0,.73"/>
          <polygon class="uuid-3de7028a-3744-4dca-8ca2-c768ce3bd37a" points="40.09 56.33 33.47 60.15 33.47 60.71 37.7 63.15 44.32 59.33 44.32 58.77 40.09 56.33"/>
          <path class="uuid-abed0507-517d-4697-a7a0-909d634f1f8e" d="M30.59,49.16c-.13-.14-.34-.15-.48-.03-.14.12-.15.34-.03.48l3.99,4.47v5.96c0,.3.68.33.68,0v-6.08c0-.08-.03-.16-.09-.22l-4.08-4.57Z"/>
          <path class="uuid-929bf924-06a9-4a8c-b915-64ad27c85a2b" d="M42.99,59.12l-4.25,2.45c-.35.2-.92.2-1.27,0l-2.23-1.28c-.35-.2-.35-.53,0-.73l4.24-2.45c.35-.2.92-.2,1.27,0l2.23,1.29c.35.2.35.53,0,.73"/>
          <polygon class="uuid-6dabad49-a94c-4aef-8cce-35163496b0c3" points="22.71 43.03 17.39 39.96 17.39 38.31 22.71 41.38 22.71 43.03"/>
          <polygon class="uuid-abed0507-517d-4697-a7a0-909d634f1f8e" points="24 42.28 22.71 43.03 22.71 41.38 24 40.63 24 42.28"/>
          <polygon class="uuid-01c26579-fb83-4b06-badd-518d41715fb3" points="22.71 41.38 17.39 38.31 18.69 37.56 24 40.63 22.71 41.38"/>
          <path class="uuid-abed0507-517d-4697-a7a0-909d634f1f8e" d="M18.15,29.77v8.51c0,.41,1.12.43,1.12-.02v-7.55l-1.12-.94Z"/>
          <path class="uuid-3de7028a-3744-4dca-8ca2-c768ce3bd37a" d="M31.22,37.62v1.85l-4.37-2.52s-.05-.05-.05-.08v-4.5h-.71v4.5c0,.29.15.55.4.69l4.55,2.62c.09.05.19.08.29.08s.2-.03.29-.08c.18-.1.3-.3.3-.51v-2.04h-.71Z"/>
          <path class="uuid-abed0507-517d-4697-a7a0-909d634f1f8e" d="M17.64,28.23c.52-.3,1.37-.42,2.13-.06.04.02,5.69,3.31,7.94,4.61.33.19.57.48.62.86.02.15,0,.37.01.27,0,.96-1.57,1.69-2.88.98,0,0-7.83-4.56-7.83-4.56-.83-.49-.89-1.54.01-2.1"/>
          <path class="uuid-3de7028a-3744-4dca-8ca2-c768ce3bd37a" d="M17.35,27.17c.55-.31,1.45-.44,2.27-.06.04.02,6,3.49,8.39,4.88.35.21.61.5.66.91.02.16,0,.39.01.28,0,1.02-1.67,1.8-3.07,1.04,0,0-8.28-4.82-8.28-4.82-.89-.52-.95-1.64.01-2.23"/>
          <path class="uuid-929bf924-06a9-4a8c-b915-64ad27c85a2b" d="M26.58,33.53l-8.92-5.15c-.25-.15-.06-.52.21-.36l8.92,5.15c.25.15.06.52-.21.36"/>
          <polygon class="uuid-fde43236-94cf-4be7-b786-c7af3be2e9ce" points="29.14 35.48 29.14 36.65 31.57 38.05 33.87 35.55 29.14 35.48"/>
          <polygon class="uuid-3de7028a-3744-4dca-8ca2-c768ce3bd37a" points="34.01 36.64 31.57 38.05 31.57 36.88 34.01 35.47 34.01 36.64"/>
          <polygon class="uuid-929bf924-06a9-4a8c-b915-64ad27c85a2b" points="31.57 36.88 29.14 35.48 31.58 34.07 34.01 35.47 31.57 36.88"/>
          <path class="uuid-fde43236-94cf-4be7-b786-c7af3be2e9ce" d="M32.55,34.91c.53.31.53.8,0,1.11-.53.31-1.39.31-1.92,0-.53-.31-.53-.81,0-1.11.53-.31,1.39-.31,1.92,0"/>
          <g class="uuid-265b97c8-04aa-445d-bd87-cf908643af16">
            <g class="uuid-9a1a701f-20f5-49ce-a6d8-b5b8789849e4">
              <g class="uuid-6251d444-faf9-4b5a-bf97-f6fa0771ead7">
                <path class="uuid-3de7028a-3744-4dca-8ca2-c768ce3bd37a" d="M32.16,35.14c.32.18.32.48,0,.67-.32.18-.83.18-1.15,0-.32-.18-.32-.48,0-.67.32-.18.84-.18,1.15,0"/>
              </g>
            </g>
          </g>
          <path class="uuid-3de7028a-3744-4dca-8ca2-c768ce3bd37a" d="M31.22,33.46v1.99c0,.05.03.1.1.14.14.08.36.08.5,0,.07-.04.1-.09.1-.14v-1.99h-.7Z"/>
          <path class="uuid-929bf924-06a9-4a8c-b915-64ad27c85a2b" d="M32.29,33.35c0,.4-.32.72-.72.72s-.72-.32-.72-.72.32-.72.72-.72.72.32.72.72"/>
        </g>
      </g>
    </g>
  </g>
</svg>