<?xml version="1.0" encoding="UTF-8"?>
<svg id="uuid-edd7ea90-df53-43a1-9135-b9ec6b5d4e61" data-name="Calque_2" xmlns="http://www.w3.org/2000/svg" xmlns:xlink="http://www.w3.org/1999/xlink" viewBox="0 0 107.62 69.42">
  <defs>
    <style>
      .uuid-36f4e3a0-41e3-44be-a447-a41c273ee2dc {
        fill: #212821;
      }

      .uuid-85044af9-261b-4080-b38e-a3c65b17ce4f {
        fill: #b51918;
      }

      .uuid-17f2cad1-e9f0-4dcc-82f0-f55ea798e3ef {
        clip-path: url(#uuid-0b8dfd56-173e-48c0-9cbb-435dc039f644);
      }

      .uuid-2babf744-e7ed-4417-906a-47667b59d110 {
        opacity: .63;
      }

      .uuid-2dae48d3-9950-4f5f-ab37-2f56cd60b5b0 {
        fill: #43524a;
      }

      .uuid-74750a96-3ae2-4cf2-b0d8-abdaa8b9f067 {
        fill: #dbeffa;
      }

      .uuid-3ce5ae75-44fb-44ce-9d8a-59b497c2e2c6 {
        opacity: .47;
      }

      .uuid-20e9e7da-3221-4f52-9126-59ee0e0480a7 {
        fill: #d14040;
      }

      .uuid-e0492f0a-c094-4605-bfe1-3cd899359d87 {
        fill: #2b2422;
      }

      .uuid-21114baf-b87e-4b8a-a763-02406522c01d {
        fill: none;
      }

      .uuid-ed46de40-5b30-477a-ac51-49a3498f6b98 {
        clip-path: url(#uuid-b13b4ab9-6808-4bfd-9bec-d481df1fd5bc);
      }

      .uuid-81cc8391-a551-468b-8c8c-979126d47db5 {
        fill: #9aa09a;
      }

      .uuid-c8b101a4-1c26-47cd-b0b5-c5671e9d91fe {
        opacity: .56;
      }

      .uuid-50d52ea3-f0e3-4c93-8c1c-78226047b58b {
        clip-path: url(#uuid-9607c55a-1ee5-42ec-b8c3-07866f9ef3ff);
      }

      .uuid-5a259a17-1af7-444f-afb8-cb92cc4b74fe {
        clip-path: url(#uuid-dac97f97-16e4-412d-bcef-6a1d151b11fe);
      }

      .uuid-55497fcb-ddcd-4fba-9f91-b5aa52c41a13 {
        fill: #58625c;
      }

      .uuid-dd24ca3f-6339-4c6d-993f-c816a723cad9 {
        clip-path: url(#uuid-038e1b39-985e-4d88-ae46-44cd137027e6);
      }

      .uuid-d0b7d292-2ec6-4071-8c87-416d40375ce2 {
        fill: #b0b4b9;
      }

      .uuid-754c1b8f-6073-4265-8434-4ed69da0692a {
        fill: #c9cbc9;
      }

      .uuid-d87116e2-60f9-4902-b29a-96e1987b9d0c {
        fill: #e74344;
      }

      .uuid-717386b0-5b12-43cf-8e4a-0735b8a467fb {
        fill: #73818b;
      }

      .uuid-2e8add4b-23d3-4cbd-b33b-b88a119530dc {
        clip-path: url(#uuid-625b64c8-3b2c-4407-85c3-4845b04a0867);
      }

      .uuid-cef288e7-4c09-49c1-9fdb-64736f3f8eff {
        clip-path: url(#uuid-b7d6fad3-2c19-4eba-98ba-b1c11157ba4a);
      }

      .uuid-b692a9d7-bed2-4706-8f60-e9833c907b11 {
        fill: #e53b11;
      }

      .uuid-b82677ba-ba41-44f4-ab61-2a4d2aa128e3 {
        clip-path: url(#uuid-c022d84e-8be4-4537-925b-5925eb355eb6);
      }
    </style>
    <clipPath id="uuid-b13b4ab9-6808-4bfd-9bec-d481df1fd5bc">
      <rect class="uuid-21114baf-b87e-4b8a-a763-02406522c01d" x="17.21" y="16.57" width="33.31" height="33.07"/>
    </clipPath>
    <clipPath id="uuid-625b64c8-3b2c-4407-85c3-4845b04a0867">
      <rect class="uuid-21114baf-b87e-4b8a-a763-02406522c01d" x="17.21" y="16.57" width="33.31" height="33.07"/>
    </clipPath>
    <clipPath id="uuid-038e1b39-985e-4d88-ae46-44cd137027e6">
      <rect class="uuid-21114baf-b87e-4b8a-a763-02406522c01d" x="74.85" y="31.1" width="29.45" height="22.59"/>
    </clipPath>
    <clipPath id="uuid-c022d84e-8be4-4537-925b-5925eb355eb6">
      <rect class="uuid-21114baf-b87e-4b8a-a763-02406522c01d" x="74.85" y="31.1" width="29.45" height="22.59"/>
    </clipPath>
    <clipPath id="uuid-b7d6fad3-2c19-4eba-98ba-b1c11157ba4a">
      <rect class="uuid-21114baf-b87e-4b8a-a763-02406522c01d" x="6.57" y="27.07" width="7.14" height="9.27"/>
    </clipPath>
    <clipPath id="uuid-0b8dfd56-173e-48c0-9cbb-435dc039f644">
      <rect class="uuid-21114baf-b87e-4b8a-a763-02406522c01d" x="6.57" y="27.07" width="7.14" height="9.27"/>
    </clipPath>
    <clipPath id="uuid-9607c55a-1ee5-42ec-b8c3-07866f9ef3ff">
      <rect class="uuid-21114baf-b87e-4b8a-a763-02406522c01d" x="58.9" y="56.14" width="7.14" height="9.27"/>
    </clipPath>
    <clipPath id="uuid-dac97f97-16e4-412d-bcef-6a1d151b11fe">
      <rect class="uuid-21114baf-b87e-4b8a-a763-02406522c01d" x="58.9" y="56.14" width="7.14" height="9.27"/>
    </clipPath>
  </defs>
  <g id="uuid-ab80adc2-5489-43fd-813f-68f21e651c4c" data-name="Les_Véhicules">
    <g id="uuid-85fa13eb-e204-4513-833b-3a2393b40b1a" data-name="Vehic_x5F_VoitureBerline_x5F_HG">
      <path class="uuid-717386b0-5b12-43cf-8e4a-0735b8a467fb" d="M25.18,19.13s-2.31.46-3.81,2.23c-1.25,1.48.44,2.88.44,2.88,0,0,.8.05,1.52-.36.2-.12,1.11-1.07,1.15-1.16.11-.23.61-1.92.81-2.52.27-.83.32-1.07-.11-1.07"/>
      <path class="uuid-d87116e2-60f9-4902-b29a-96e1987b9d0c" d="M21.17,20.77c-1.52,1.41-2,2.37-2,4,0,1.15.81,2.5,1.85,1.73,1.07-.79,1.43-1.32,1.97-1.83.46-.43.97-.9.97-1.68s.03-1.32,0-2c-.06-1.56-1.75-1.18-2.78-.22"/>
      <path class="uuid-85044af9-261b-4080-b38e-a3c65b17ce4f" d="M21.93,21.15c-1.42,1.18-2.27,2.39-2.07,4.19.05.45.1.84.36,1.29.25.1.52.08.8-.13,1.07-.79,1.4-1.19,1.95-1.7.46-.43.99-1.02,1.01-2.18.01-.81.01-.95-.02-1.64,0-.07-.01-.13-.02-.2-.19-.73-.95-.52-2,.36"/>
      <path class="uuid-d0b7d292-2ec6-4071-8c87-416d40375ce2" d="M22.58,21.38s-1.03.76-1.63,1.69c-.32.5-.5,1.33-.46,2.01.04.68.12.88.18.93.23.18.59-.06,1.19-.6.52-.47,1.17-1.18,1.17-1.18,0,0,.6-.54.64-1.52.02-.48,0-1.37,0-1.38,0-.67-.66-.33-1.09.07"/>
      <path class="uuid-36f4e3a0-41e3-44be-a447-a41c273ee2dc" d="M16.49,35.04c-.56-2.54-1.19-4.48-3.54-8.02-2.96-4.45-6.48-6.88-8.84-5.59-2.28,1.24-1.16,6.48-1.16,6.48,0,0,.15.08,1.27-.2.24-.06,1.19-1.26,1.19-1.26,1.82,1.29,7.14,8.9,11.45,10.93-.09-.77-.15-1.41-.35-2.34"/>
      <path class="uuid-2dae48d3-9950-4f5f-ab37-2f56cd60b5b0" d="M8.88,22.92s-1.82-.85-3.48.88c-1.8,1.88-1.93,4.8-.85,7.99,1.08,3.19,3.05,5.49,4.97,6.74,1.92,1.25,3.58.92,4.55.76,1.48-.23,3.69-1.65,3.69-1.65,0,0-1.18-6.58-5.44-11.63-1.91-2.27-3.44-3.09-3.44-3.09"/>
      <path class="uuid-36f4e3a0-41e3-44be-a447-a41c273ee2dc" d="M70.41,63.84c-.75-2.72-1.49-5.04-4.29-8.73-3.74-4.93-7.36-4.87-10.01-3.56-3.68,1.82-1.73,6.55-1.73,6.55,0,0,.05.3-.04.4-.12.13-.28.04-.27.05.53.34,1.02.29,1.4.13,1.24-.5,2.91-1.12,2.91-1.12,2.07,1.31,7.12,7.38,11.96,9.35-.14-.83.35-2.09.07-3.08"/>
      <path class="uuid-2dae48d3-9950-4f5f-ab37-2f56cd60b5b0" d="M60.96,51.62s-2.23-.79-3.96,1.17c-1.23,1.4-1.65,3.25-1.4,5.31.13,1.09.44,2.23.91,3.4,1.36,3.4,3.66,5.79,5.83,7.05,2.18,1.25,3.89.86,4.93.54,2.07-.65,5.18-3.41,5.18-3.41,0,0-2.51-6.14-7.62-11.54-2.72-2.87-3.86-2.52-3.86-2.52"/>
      <path class="uuid-b692a9d7-bed2-4706-8f60-e9833c907b11" d="M47.07,3.13S38.93.72,35.77.22c0,0-4.41-.59-8.68.15-4.29.74-10.07,2.54-12.73,3.75-4.98,2.27-9.57,6.26-9.57,6.26,0,0-.64.54-.84,1.04-.2.49-.34,1.04-.34,1.04,0,0-1.92,1.78-2.61,2.56-.69.79-1.28,2.07-.84,4.54.28,1.58.49,3.7.49,3.7,0,0-.29.15-.2,2.12s.15,1.58.35,2.37c.2.79,1.92,1.97,1.92,1.97,0,0,1.04.99.79-.84-.32-2.36-.69-5.18.49-6.36,1.18-1.18,4.24-.89,7,2.17,2.76,3.06,4.54,7.1,5.03,9.18.61,2.56.79,3.06.79,3.06,0,0,.49.49,1.58,1.09,1.08.59,35.57,20.47,35.57,20.47,0,0,.74.44.49-.74-.14-.68-.64-2.56.15-4.34.79-1.77,3.51-3.76,7.55-1.18,3.4,2.17,6.51,6.95,7.55,10.85.59,2.22.45,2.08,1.97,2.66,1.53.59,5.67,1.33,8.48.89,2.72-.43,14.36-5.48,17.91-7.85,3.55-2.37,6.36-5.08,7.25-6.17.89-1.08,1.37-2.21,1.18-3.35-.2-1.23-.1-1.78,0-2.27.1-.49.27-1.83.1-5.33-.15-3.06-1.38-5.23-1.38-5.23,0,0-.99-2.91-2.12-4.74-1.35-2.16-6.07-4.64-6.07-4.64,0,0-1.97-2.57-4.54-4.84-2.57-2.27-13.82-10.25-23.43-15-7.5-3.7-9.82-3.95-9.82-3.95,0,0-11-.15-12.18-.15"/>
      <path class="uuid-2dae48d3-9950-4f5f-ab37-2f56cd60b5b0" d="M35.39,15.35s-.02.02-.02.02c0,0,.16-.03.02-.02"/>
      <path class="uuid-2dae48d3-9950-4f5f-ab37-2f56cd60b5b0" d="M59.25,3.28s-11-.15-12.18-.15c0,0-.11-.03-.29-.09-.6.11-1.19.12-1.85.22-1.92.3-6.14.89-13.36,4-7.29,3.14-12.19,7.91-13.59,9.69-.58.75.27.63.27.63,0,0,.49-.03,2.41-.44,1.76-.38,9.36-1.44,13.91-1.7,1-.06,1.28-.62,1.37-.63.08-.08.26-.24,1.44-1.22,1.26-1.04,5.18-3.63,10.43-6.29,3.88-1.97,9.38-3.33,11.99-3.91-.38-.09-.54-.11-.54-.11"/>
      <path class="uuid-2dae48d3-9950-4f5f-ab37-2f56cd60b5b0" d="M67.89,41.51s-7.45-11.4-15.98-16.53c0,0-8.39-4.89-11.94-6.07-3.55-1.18-5.57-1.18-9.67-1.04-4.09.15-6.95,1.04-8.04,1.53-.79.36-1.33,1.38-1.58,1.92-.25.54-.15.74.35,1.04.49.3,27.48,12.18,30.29,13.42s16.08,6.61,16.28,6.61.94.35.3-.89"/>
      <path class="uuid-b692a9d7-bed2-4706-8f60-e9833c907b11" d="M52.25,25.18s-.82-.62-1.21.37c-.39.99-2.88,7.67-2.88,7.67,0,0-.35.84.27,1.31.58.44-.32,1.06-.32,1.06l-3.75-1.97-.44-.54.44-.35s.91.37,1.41-.59c.84-1.63,3.08-7.89,3.08-7.89,0,0,.15-.89-.35-1.18-.81-.49-.44-1.28-.44-1.28,0,0,4.14,2.42,4.44,2.71.3.3-.25.69-.25.69"/>
      <path class="uuid-b692a9d7-bed2-4706-8f60-e9833c907b11" d="M105.33,52.61c.89-1.08,1.37-2.21,1.18-3.35-.2-1.23-.1-1.78,0-2.27.09-.44.23-1.54.14-4.24-.67,1.33-1.52,2.49-3,4.14-2.16,2.41-4.82,4.37-10.26,7.2-7,3.65-12.04,3.75-14.6,3.06-2.21-.59-5.52-2.66-7.89-5.43-2.37-2.76-4.44-5.23-8.39-6.91-3.53-1.5-51.99-25.36-56.14-27.43-2-1-3.44-2.3-4.41-3.37-.38.38-.74.74-.97,1-.69.79-1.28,2.07-.84,4.54.28,1.58.49,3.7.49,3.7,0,0-.3.15-.2,2.12.1,1.97.15,1.58.35,2.37.2.79,1.92,1.97,1.92,1.97,0,0,1.04.99.79-.84-.32-2.36-.69-5.18.49-6.36,1.18-1.18,4.24-.89,7,2.17,2.76,3.06,4.54,7.1,5.03,9.18.61,2.56.79,3.06.79,3.06,0,0,.49.49,1.58,1.08,1.08.59,35.57,20.47,35.57,20.47,0,0,.74.44.49-.74-.14-.68-.64-2.56.15-4.34.79-1.78,3.51-3.76,7.55-1.18,3.4,2.17,6.51,6.95,7.55,10.85.59,2.22.45,2.08,1.97,2.66,1.53.59,5.67,1.33,8.48.89,2.72-.43,14.36-5.48,17.91-7.85,3.55-2.37,6.36-5.08,7.25-6.17"/>
      <path class="uuid-74750a96-3ae2-4cf2-b0d8-abdaa8b9f067" d="M5.04,11.62c-.25-.58-.46-.81-.61-.88-.18.19-.38.44-.47.68-.2.49-.35,1.04-.35,1.04,0,0-1.7,1.57-2.48,2.42-.24.49-.5,1.1-.53,1.53-.05.84.39.79,1.33.49.94-.3,2.44-1.02,3.4-1.68.85-.58.45-1.69.45-1.69,0,0-.1-.43-.74-1.91"/>
      <g class="uuid-c8b101a4-1c26-47cd-b0b5-c5671e9d91fe">
        <g class="uuid-ed46de40-5b30-477a-ac51-49a3498f6b98">
          <g class="uuid-2e8add4b-23d3-4cbd-b33b-b88a119530dc">
            <path class="uuid-e0492f0a-c094-4605-bfe1-3cd899359d87" d="M41.81,49.65h0c-.84,0-1.64-.44-1.68-.46l-21.75-12.21-.02-.04s-.36-.85-.95-4.82c-.58-3.89.16-8.31.4-9.09.15-.47.57-.9.91-1.24.15-.15.28-.28.35-.38.24-.34.5-.81,1.12-1.96.68-1.26,2.47-1.71,4.39-2.1,1-.2,4.73-.77,8.66-.77,2.56,0,4.65.24,6.21.72,4.6,1.42,10.09,4.87,10.15,4.9,1.21,1.02.92,1.71.72,2.17-.03.06-.05.12-.07.18-.15.44-3.37,8.78-3.51,9.13-.01.02-.8,1.84-1.14,2.57-.33.71-1.36,5.96-1.57,8.58v.06c-.2,2.56-.31,3.97-1.36,4.55-.25.14-.55.21-.88.21M18.62,36.77l21.66,12.16s.77.42,1.53.42h0c.29,0,.53-.06.74-.17.91-.5,1.01-1.85,1.2-4.31v-.06c.19-2.48,1.23-7.89,1.6-8.68.34-.73,1.12-2.54,1.13-2.56.03-.08,3.35-8.68,3.5-9.11.02-.06.05-.13.08-.2.18-.42.4-.94-.63-1.81-.04-.02-5.5-3.45-10.06-4.86-1.53-.47-3.59-.71-6.12-.71-3.91,0-7.62.57-8.61.76-1.85.37-3.57.8-4.19,1.95-.64,1.18-.89,1.63-1.15,1.99-.08.12-.22.26-.38.42-.32.32-.71.72-.83,1.12-.24.77-.96,5.12-.39,8.96.51,3.42.84,4.49.91,4.7"/>
          </g>
        </g>
      </g>
      <g class="uuid-3ce5ae75-44fb-44ce-9d8a-59b497c2e2c6">
        <g class="uuid-dd24ca3f-6339-4c6d-993f-c816a723cad9">
          <g class="uuid-b82677ba-ba41-44f4-ab61-2a4d2aa128e3">
            <path class="uuid-e0492f0a-c094-4605-bfe1-3cd899359d87" d="M84.41,53.15l-9.56-7.13.04-.19c.01-.05.31-1.29,1.11-2.78l.26.19c-.59,1.1-1.07,2.32-1.18,2.71l9.28,6.91c1.28,1.04,3.56.09,3.56.09,1.84-.53,5.12-1.6,6.3-2.31,1.31-.79,3.96-2.92,5.33-4.39,1.2-1.29,1.92-2.01,2.37-3.26l.35-1.63c.5-1.37,1.22-6.23,1.42-7l-.09-1.04c-.39-.69-2.33-1.74-3.67-1.83l-.23-.39c1.7.1,3.91,1.66,4,1.73l.3.79.31.74-.02.08c-.07.29-2.21,8.8-2.21,8.8-.46,1.26-1.14,1.93-2.42,3.3-1.4,1.51-3.74,3.38-5.08,4.19-1.25.76-4.75,2.01-6.62,2.55l-.7.2c-1.86.6-2.79-.28-2.85-.33"/>
          </g>
        </g>
      </g>
      <path class="uuid-20e9e7da-3221-4f52-9126-59ee0e0480a7" d="M88.11,59.27s1.66,1.79,6.61-.89c3.11-1.68,3.89-2.47,4.98-3.31,1.48-1.13,1.78-1.58,2.47-2.76.45-.77.49-.74.49-.74,0,0,.2,1.53-1.53,3.4-.88.96-2.96,2.57-5.38,3.95-2.02,1.15-4.34,2.07-5.72,1.87-1.13-.16-1.92-1.53-1.92-1.53"/>
      <path class="uuid-20e9e7da-3221-4f52-9126-59ee0e0480a7" d="M69.34,47.82s-1.8-2.06-.37-2.26c.4-.06,3.02-.39,5.43.15,2.4.54,5.18,1.48,8.49,5.57.75.92.29.94-.3,1.14-.69.23-3,1.2-4.69,1.13-1.68-.06-3.92-.68-5.43-2.37-1.5-1.68-3.14-3.37-3.14-3.37"/>
      <path class="uuid-20e9e7da-3221-4f52-9126-59ee0e0480a7" d="M107.62,41.27h0c-.22-.54-.4-.84-.4-.84,0,0-.84-2.47-1.85-4.28-.23.16-.45.48-.61,1.15-.11.43-.37,1.16-.39,2.54-.03,1.49-.02,5.3-.02,5.3,0,0-.07.76.52.22.59-.54,1.58-1.43,2.07-2.22.32-.51.61-1.1.69-1.87"/>
      <path class="uuid-2dae48d3-9950-4f5f-ab37-2f56cd60b5b0" d="M93.34,23.06s-2.17,3.06-6.96,5.67c-6,3.28-9.13,4.19-11.94,5.03-1.63.48-3.5.79-3.5.79,0,0-.94-.2-.49,1.09.44,1.28,2.81,6.81,4.93,7.74,2.12.94,3.89.5,5.72.1,2.27-.49,7.2-2.22,11.1-4.39,2.8-1.56,4.89-3.16,6.32-4.54,1.43-1.38,1.78-2.02,1.63-2.96-.15-.94-2.71-3.95-4.24-5.82-1.53-1.88-2.56-2.71-2.56-2.71"/>
      <path class="uuid-754c1b8f-6073-4265-8434-4ed69da0692a" d="M10.05,26.91c1.91,1.39,3.63,5.22,3.93,7.1.3,1.88-.21,3.18-1.46,3.8-1.25.62-3.98-.48-5.63-2.99-1.66-2.51-2.05-5.12-1.87-6.36.24-1.63,1.28-4.27,5.02-1.55"/>
      <path class="uuid-55497fcb-ddcd-4fba-9f91-b5aa52c41a13" d="M13.95,33.85c-.37-1.93-2.04-5.59-3.9-6.94-.29-.21-.56-.38-.82-.53-.29,0-.71,0-.99.08-2.04.65-2.07,3.51-.99,6.18,1.09,2.67,3.36,4.27,5.07,3.58.87-.36,1.42-1.24,1.62-2.36"/>
      <g class="uuid-2babf744-e7ed-4417-906a-47667b59d110">
        <g class="uuid-cef288e7-4c09-49c1-9fdb-64736f3f8eff">
          <g class="uuid-17f2cad1-e9f0-4dcc-82f0-f55ea798e3ef">
            <path class="uuid-81cc8391-a551-468b-8c8c-979126d47db5" d="M12.53,33.02c.16-.08.65-.1,1.18-.11-.11-.37-.25-.76-.42-1.16-.11-.02-.12-.08-.3-.11-.45-.08-1-.46-1.22-.73-.62-.79-.53-1.55-.53-1.55l-.11-1.41c-.33-.42-.53-.6-.89-.89-.09.83-.29,1.59-.29,1.66,0,.35-.08,1.25-.67,1.16-.32-.05-.88-.5-2.11-1.37-.16-.12-.33-.25-.47-.36-.07.26-.12.53-.14.83l2.18,1.99s.55.55.55,1.06c0,.29-.63,1.35-1.16,2.2.16.23.33.44.51.63.54-.46,1.11-.94,1.29-1.08.36-.29,1.04.19,1.21.71.07.23.38,1.02.71,1.85.17-.03.33-.06.49-.13.11-.05.21-.1.31-.16l-.51-1.81s-.13-.96.39-1.22"/>
          </g>
        </g>
      </g>
      <path class="uuid-754c1b8f-6073-4265-8434-4ed69da0692a" d="M11.85,32.99c.25-.07,1.11-.11,1.85-.11-.07-.22-.15-.45-.23-.69-.42-.08-1.05-.23-1.39-.39-.59-.27-1.43-.82-1.43-2.25,0-.19-.08-1.2-.11-2.22-.22-.23-.25-.26-.48-.42-.05-.04-.25,2.26-.26,2.34-.08.5-.33,1.05-.92.95-.32-.05-1.05-.64-2.14-1.39-.05-.03-.09-.06-.13-.09-.03.26-.05.54-.04.83l1.51,1.4s.55.55.55,1.06c0,.23-.4.96-.84,1.68.16.27.33.52.51.76.44-.42.84-.82.98-.93.36-.29.9-.33,1.2.35.11.25.58,1.41,1.02,2.51.26,0,.52-.04.77-.13l-.64-1.99s-.35-1.1.23-1.26"/>
      <path class="uuid-754c1b8f-6073-4265-8434-4ed69da0692a" d="M62.38,55.98c1.91,1.39,3.63,5.22,3.93,7.1.3,1.88-.21,3.18-1.46,3.8-1.25.62-3.98-.48-5.63-2.99-1.66-2.51-2.05-5.12-1.87-6.36.24-1.63,1.28-4.27,5.02-1.55"/>
      <path class="uuid-55497fcb-ddcd-4fba-9f91-b5aa52c41a13" d="M66.28,62.92c-.37-1.93-2.04-5.59-3.9-6.94-.29-.21-.56-.38-.82-.53-.29,0-.71,0-.99.08-2.04.65-2.07,3.51-.99,6.18,1.09,2.67,3.36,4.27,5.07,3.58.87-.36,1.42-1.24,1.62-2.36"/>
      <g class="uuid-2babf744-e7ed-4417-906a-47667b59d110">
        <g class="uuid-50d52ea3-f0e3-4c93-8c1c-78226047b58b">
          <g class="uuid-5a259a17-1af7-444f-afb8-cb92cc4b74fe">
            <path class="uuid-81cc8391-a551-468b-8c8c-979126d47db5" d="M64.86,62.09c.16-.08.65-.1,1.18-.11-.11-.37-.25-.76-.42-1.16-.11-.02-.12-.08-.3-.11-.45-.08-1-.46-1.22-.73-.62-.79-.53-1.55-.53-1.55l-.11-1.41c-.33-.42-.53-.59-.89-.89-.09.83-.29,1.59-.29,1.66,0,.35-.08,1.25-.67,1.16-.32-.05-.88-.5-2.11-1.37-.16-.11-.33-.25-.47-.36-.07.26-.12.53-.14.83l2.18,1.99s.55.54.55,1.06c0,.29-.63,1.35-1.16,2.2.16.23.33.44.51.63.54-.46,1.11-.94,1.29-1.08.36-.29,1.04.19,1.2.71.07.23.38,1.02.71,1.85.17-.03.33-.06.49-.13.11-.05.21-.1.31-.16l-.51-1.81s-.13-.96.39-1.22"/>
          </g>
        </g>
      </g>
      <path class="uuid-754c1b8f-6073-4265-8434-4ed69da0692a" d="M64.17,62.06c.25-.07,1.11-.11,1.85-.11-.07-.22-.15-.45-.23-.69-.42-.08-1.05-.23-1.4-.39-.59-.27-1.43-.82-1.43-2.25,0-.19-.07-1.2-.11-2.22-.22-.23-.25-.26-.48-.42-.05-.04-.25,2.26-.26,2.34-.08.5-.33,1.05-.92.95-.32-.05-1.05-.64-2.14-1.39-.05-.03-.09-.06-.13-.09-.03.26-.05.54-.04.83l1.51,1.4s.55.55.55,1.06c0,.24-.4.96-.84,1.68.16.27.33.52.51.76.44-.42.84-.82.98-.93.36-.29.9-.33,1.2.35.11.25.58,1.41,1.02,2.51.26,0,.52-.04.77-.13l-.64-1.99s-.35-1.1.23-1.26"/>
    </g>
  </g>
</svg>