<?xml version="1.0" encoding="UTF-8"?>
<svg id="uuid-597c06b1-e103-4f20-9981-8883fbee30ce" data-name="Calque_2" xmlns="http://www.w3.org/2000/svg" xmlns:xlink="http://www.w3.org/1999/xlink" viewBox="0 0 80.5 52.39">
  <defs>
    <style>
      .uuid-26653960-3cb3-4524-afee-3e6356598c0d {
        fill: #212821;
      }

      .uuid-5e4da8b9-4193-4bf0-ba0f-bd901b0d5548 {
        fill: #b51918;
      }

      .uuid-9e8ce1b0-918c-43d8-81d8-8b8b4f5616c6 {
        clip-path: url(#uuid-d17caec7-ba15-4d3f-88b3-144969932fb5);
      }

      .uuid-4e007481-7370-42e1-9271-dbec7d6d3675 {
        opacity: .63;
      }

      .uuid-95553804-f696-48fe-bdcc-1f2cfb21218b {
        clip-path: url(#uuid-38729249-cfc5-487e-9d62-e4de0fe7ab51);
      }

      .uuid-f85efd67-d5e3-479e-a178-56fb6a368448 {
        fill: #43524a;
      }

      .uuid-865820c0-c6ca-4f95-b9a2-95187e15f65d {
        fill: #dbeffa;
      }

      .uuid-b49e2d5a-1e16-4b54-a269-ad30a3d5b0e6 {
        opacity: .47;
      }

      .uuid-31b9964d-23c1-4556-a5fd-a2f075805977 {
        fill: #d14040;
      }

      .uuid-39299653-8391-4d79-9bca-4fc12b1d2191 {
        fill: #2b2422;
      }

      .uuid-fbaa6fa6-6c08-4dcd-8082-2702e2b036b8 {
        fill: none;
      }

      .uuid-2a43b190-aea0-4d67-b49b-5a01fb02a86d {
        clip-path: url(#uuid-81e69ad9-3f05-4ac5-a4e6-8e5986518c9c);
      }

      .uuid-7c66a093-7292-42fc-9566-8b2d1bf20941 {
        fill: #9aa09a;
      }

      .uuid-fc8f0d37-a999-49da-b45e-b73b51e7d580 {
        fill: #58625c;
      }

      .uuid-99e3fa83-858c-4abb-937f-1bad335e31bf {
        fill: #b0b4b9;
      }

      .uuid-d9d91c77-c0f7-4a3d-955c-4c674aa460e6 {
        fill: #c9cbc9;
      }

      .uuid-c437abcb-c641-48fe-b6b7-b262672e6eda {
        fill: #e74344;
      }

      .uuid-7ecb6c49-efeb-4951-9166-32b8a3c477a0 {
        fill: #73818b;
      }

      .uuid-cc479a66-f7cc-4f78-9471-f4d89679431e {
        clip-path: url(#uuid-9f9673b6-f29a-45fa-9d83-64742c195ec7);
      }

      .uuid-06606ee5-ae73-416a-b7cf-1fc9c6845805 {
        clip-path: url(#uuid-182c4358-9fc8-4472-9864-dbda06729144);
      }

      .uuid-10f1ac03-b8bb-45e0-b41e-48ed2cbd50a4 {
        fill: #009487;
      }

      .uuid-32f42c07-d230-43b0-b1a2-07e129e2c77b {
        clip-path: url(#uuid-d6d6818f-a3e3-405c-ae0f-d2f2692685d4);
      }

      .uuid-188dc489-cd13-4f33-b249-cfd60e8d758b {
        fill: #006b5e;
      }
    </style>
    <clipPath id="uuid-d17caec7-ba15-4d3f-88b3-144969932fb5">
      <rect class="uuid-fbaa6fa6-6c08-4dcd-8082-2702e2b036b8" x="56.48" y="23.47" width="22.22" height="17.05"/>
    </clipPath>
    <clipPath id="uuid-182c4358-9fc8-4472-9864-dbda06729144">
      <rect class="uuid-fbaa6fa6-6c08-4dcd-8082-2702e2b036b8" x="56.48" y="23.47" width="22.22" height="17.05"/>
    </clipPath>
    <clipPath id="uuid-81e69ad9-3f05-4ac5-a4e6-8e5986518c9c">
      <rect class="uuid-fbaa6fa6-6c08-4dcd-8082-2702e2b036b8" x="4.96" y="20.43" width="5.39" height="7"/>
    </clipPath>
    <clipPath id="uuid-d6d6818f-a3e3-405c-ae0f-d2f2692685d4">
      <rect class="uuid-fbaa6fa6-6c08-4dcd-8082-2702e2b036b8" x="4.96" y="20.43" width="5.39" height="7"/>
    </clipPath>
    <clipPath id="uuid-38729249-cfc5-487e-9d62-e4de0fe7ab51">
      <rect class="uuid-fbaa6fa6-6c08-4dcd-8082-2702e2b036b8" x="44.44" y="42.36" width="5.39" height="7"/>
    </clipPath>
    <clipPath id="uuid-9f9673b6-f29a-45fa-9d83-64742c195ec7">
      <rect class="uuid-fbaa6fa6-6c08-4dcd-8082-2702e2b036b8" x="44.44" y="42.36" width="5.39" height="7"/>
    </clipPath>
  </defs>
  <g id="uuid-5c78b169-711f-45b0-b56a-9d092cc5e705" data-name="Les_Véhicules">
    <g id="uuid-792bebc6-292b-43c1-9843-ec93adb33411" data-name="Vehic_x5F_VoitureVerte_x5F_HG">
      <path class="uuid-7ecb6c49-efeb-4951-9166-32b8a3c477a0" d="M19,14.44s-1.74.34-2.88,1.68c-.95,1.11.33,2.17.33,2.17,0,0,.61.04,1.15-.27.15-.09.84-.81.87-.87.08-.18.46-1.45.61-1.9.2-.63.24-.81-.08-.81"/>
      <path class="uuid-c437abcb-c641-48fe-b6b7-b262672e6eda" d="M15.97,15.67c-1.15,1.07-1.51,1.79-1.51,3.01,0,.86.61,1.89,1.39,1.31.81-.59,1.08-.99,1.49-1.38.34-.32.73-.68.73-1.27s.02-1,0-1.51c-.05-1.18-1.32-.89-2.1-.16"/>
      <path class="uuid-5e4da8b9-4193-4bf0-ba0f-bd901b0d5548" d="M16.55,15.96c-1.07.89-1.71,1.8-1.56,3.16.04.34.08.63.27.97.19.07.39.06.6-.1.81-.59,1.06-.9,1.47-1.28.35-.33.75-.77.76-1.64,0-.61,0-.72-.01-1.24,0-.05-.01-.1-.02-.15-.14-.56-.72-.39-1.51.27"/>
      <path class="uuid-99e3fa83-858c-4abb-937f-1bad335e31bf" d="M17.04,16.13s-.78.57-1.23,1.27c-.24.38-.38,1-.35,1.51.03.51.09.67.13.7.17.13.44-.04.9-.46.4-.35.88-.89.88-.89,0,0,.46-.41.49-1.15.01-.36,0-1.03,0-1.04,0-.51-.5-.25-.82.05"/>
      <path class="uuid-26653960-3cb3-4524-afee-3e6356598c0d" d="M12.44,26.44c-.42-1.91-.9-3.38-2.67-6.05-2.23-3.36-4.89-5.19-6.67-4.22-1.72.94-.88,4.89-.88,4.89,0,0,.12.06.96-.15.18-.05.9-.95.9-.95,1.37.98,5.39,6.72,8.64,8.25-.07-.58-.11-1.07-.27-1.76"/>
      <path class="uuid-f85efd67-d5e3-479e-a178-56fb6a368448" d="M6.7,17.29s-1.38-.64-2.63.66c-1.36,1.42-1.45,3.63-.64,6.03.82,2.41,2.3,4.14,3.75,5.09,1.45.94,2.7.69,3.43.58,1.11-.18,2.79-1.25,2.79-1.25,0,0-.89-4.96-4.11-8.78-1.44-1.71-2.6-2.33-2.6-2.33"/>
      <path class="uuid-26653960-3cb3-4524-afee-3e6356598c0d" d="M53.13,48.17c-.57-2.05-1.12-3.8-3.24-6.59-2.82-3.72-5.56-3.68-7.55-2.69-2.78,1.38-1.31,4.95-1.31,4.95,0,0,.04.23-.03.3-.09.1-.21.03-.21.04.4.25.77.21,1.05.1.94-.38,2.19-.85,2.19-.85,1.56.99,5.37,5.57,9.03,7.06-.11-.62.26-1.57.06-2.32"/>
      <path class="uuid-f85efd67-d5e3-479e-a178-56fb6a368448" d="M46,38.96s-1.69-.6-2.99.88c-.93,1.06-1.24,2.45-1.06,4.01.1.82.33,1.69.69,2.57,1.03,2.57,2.76,4.37,4.4,5.32,1.64.95,2.93.65,3.72.41,1.57-.49,3.91-2.57,3.91-2.57,0,0-1.89-4.63-5.75-8.71-2.05-2.17-2.92-1.9-2.92-1.9"/>
      <path class="uuid-10f1ac03-b8bb-45e0-b41e-48ed2cbd50a4" d="M35.52,2.36S29.38.54,26.99.17c0,0-3.33-.44-6.55.11-3.24.56-7.6,1.92-9.6,2.83-3.76,1.71-7.22,4.73-7.22,4.73,0,0-.48.41-.63.78-.15.37-.26.78-.26.78,0,0-1.45,1.34-1.97,1.93-.52.6-.97,1.56-.63,3.43.21,1.19.37,2.79.37,2.79,0,0-.22.11-.15,1.6.07,1.49.11,1.19.26,1.79.15.6,1.45,1.49,1.45,1.49,0,0,.78.74.6-.63-.24-1.78-.52-3.91.37-4.8.89-.89,3.2-.67,5.29,1.64,2.08,2.31,3.43,5.36,3.8,6.92.46,1.93.6,2.31.6,2.31,0,0,.37.37,1.19.82.82.45,26.84,15.45,26.84,15.45,0,0,.56.34.37-.56-.11-.51-.48-1.93.11-3.28.6-1.34,2.65-2.84,5.7-.89,2.57,1.64,4.91,5.24,5.69,8.19.45,1.67.34,1.57,1.49,2.01,1.15.45,4.28,1,6.4.67,2.05-.32,10.83-4.13,13.51-5.92,2.68-1.79,4.8-3.83,5.47-4.65.67-.82,1.03-1.67.89-2.53-.15-.93-.07-1.34,0-1.71s.2-1.38.07-4.02c-.11-2.31-1.04-3.94-1.04-3.94,0,0-.74-2.2-1.6-3.57-1.02-1.63-4.58-3.5-4.58-3.5,0,0-1.49-1.94-3.42-3.65-1.94-1.71-10.43-7.74-17.68-11.32-5.66-2.79-7.41-2.98-7.41-2.98,0,0-8.3-.11-9.19-.11"/>
      <path class="uuid-f85efd67-d5e3-479e-a178-56fb6a368448" d="M26.71,11.59s-.01.01-.01.01c0,0,.12-.02.01-.01"/>
      <path class="uuid-f85efd67-d5e3-479e-a178-56fb6a368448" d="M44.71,2.48s-8.3-.11-9.19-.11c0,0-.08-.02-.22-.07-.45.09-.9.09-1.4.17-1.45.22-4.63.67-10.08,3.02-5.5,2.37-9.2,5.97-10.25,7.31-.44.56.2.48.2.48,0,0,.37-.02,1.82-.33,1.33-.28,7.06-1.09,10.5-1.28.75-.04.96-.47,1.03-.47.06-.06.19-.18,1.09-.92.95-.78,3.91-2.74,7.87-4.75,2.93-1.49,7.08-2.51,9.05-2.95-.28-.07-.41-.09-.41-.09"/>
      <path class="uuid-f85efd67-d5e3-479e-a178-56fb6a368448" d="M51.23,31.33s-5.62-8.6-12.06-12.47c0,0-6.33-3.69-9.01-4.58-2.68-.89-4.21-.89-7.3-.78-3.09.11-5.25.78-6.07,1.15-.59.27-1.01,1.04-1.19,1.45-.19.41-.11.56.26.78.37.22,20.73,9.19,22.86,10.12,2.12.93,12.14,4.99,12.28,4.99s.71.26.22-.67"/>
      <path class="uuid-10f1ac03-b8bb-45e0-b41e-48ed2cbd50a4" d="M39.43,19s-.61-.46-.91.28c-.3.74-2.18,5.79-2.18,5.79,0,0-.26.63.21.99.44.34-.24.8-.24.8l-2.83-1.49-.33-.41.33-.26s.69.28,1.06-.45c.63-1.23,2.33-5.96,2.33-5.96,0,0,.11-.67-.26-.89-.61-.37-.33-.97-.33-.97,0,0,3.13,1.83,3.35,2.05.22.22-.19.52-.19.52"/>
      <path class="uuid-188dc489-cd13-4f33-b249-cfd60e8d758b" d="M79.48,39.7c.67-.82,1.03-1.67.89-2.53-.15-.93-.07-1.34,0-1.71.07-.33.17-1.17.11-3.2-.5,1-1.15,1.88-2.27,3.13-1.63,1.82-3.64,3.3-7.74,5.44-5.29,2.75-9.08,2.83-11.02,2.31-1.67-.45-4.17-2.01-5.96-4.09-1.79-2.09-3.35-3.95-6.33-5.21-2.67-1.13-39.24-19.13-42.36-20.7-1.51-.75-2.6-1.73-3.32-2.54-.29.28-.56.56-.73.76-.52.6-.97,1.56-.63,3.43.21,1.19.37,2.79.37,2.79,0,0-.22.11-.15,1.6.07,1.49.11,1.19.26,1.79.15.6,1.45,1.49,1.45,1.49,0,0,.78.74.6-.63-.24-1.78-.52-3.91.37-4.8.89-.89,3.2-.67,5.29,1.64,2.08,2.31,3.43,5.36,3.8,6.92.46,1.93.6,2.31.6,2.31,0,0,.37.37,1.19.82.82.45,26.84,15.45,26.84,15.45,0,0,.56.33.37-.56-.11-.51-.48-1.93.11-3.28.6-1.34,2.65-2.84,5.7-.89,2.57,1.64,4.91,5.24,5.69,8.19.45,1.67.34,1.57,1.49,2.01,1.15.45,4.28,1.01,6.4.67,2.05-.32,10.83-4.13,13.51-5.92,2.68-1.79,4.8-3.83,5.47-4.65"/>
      <polyline class="uuid-fbaa6fa6-6c08-4dcd-8082-2702e2b036b8" points="80.5 10.58 0 10.58 0 50.38"/>
      <polyline class="uuid-fbaa6fa6-6c08-4dcd-8082-2702e2b036b8" points="80.5 10.58 0 10.58 0 50.38"/>
      <path class="uuid-865820c0-c6ca-4f95-b9a2-95187e15f65d" d="M3.8,8.77c-.19-.44-.34-.61-.46-.66-.14.15-.28.33-.36.51-.15.37-.26.78-.26.78,0,0-1.29,1.19-1.87,1.82-.18.37-.38.83-.4,1.16-.04.63.3.6,1.01.37.71-.22,1.84-.77,2.57-1.27.64-.44.34-1.28.34-1.28,0,0-.07-.32-.56-1.44"/>
      <path class="uuid-39299653-8391-4d79-9bca-4fc12b1d2191" d="M31.55,37.46h0c-.63,0-1.24-.33-1.26-.34l-16.41-9.21-.02-.03s-.27-.64-.71-3.64c-.43-2.93.12-6.27.3-6.86.11-.36.43-.68.68-.94.11-.11.21-.21.26-.29.18-.26.38-.61.85-1.48.52-.95,1.86-1.29,3.32-1.58.75-.15,3.57-.58,6.54-.58,1.93,0,3.51.18,4.68.55,3.47,1.07,7.62,3.67,7.66,3.7.91.77.69,1.29.55,1.63-.02.05-.04.09-.05.13-.11.33-2.54,6.62-2.65,6.89,0,.02-.6,1.39-.86,1.94-.25.54-1.03,4.5-1.18,6.47v.05c-.15,1.93-.23,3-1.02,3.43-.19.1-.41.16-.67.16M14.06,27.75l16.34,9.17s.58.32,1.16.32h0c.21,0,.4-.04.56-.13.68-.38.76-1.4.91-3.25v-.04c.15-1.87.92-5.95,1.2-6.55.26-.55.85-1.92.86-1.93.02-.06,2.53-6.55,2.64-6.88.02-.05.04-.1.06-.15.13-.32.3-.71-.47-1.37-.03-.02-4.15-2.6-7.59-3.66-1.15-.36-2.71-.54-4.62-.54-2.95,0-5.75.43-6.49.58-1.4.28-2.69.6-3.16,1.47-.49.89-.67,1.23-.86,1.5-.06.09-.17.19-.29.31-.24.24-.54.54-.63.84-.18.58-.72,3.87-.29,6.76.38,2.58.63,3.39.69,3.55"/>
      <g class="uuid-b49e2d5a-1e16-4b54-a269-ad30a3d5b0e6">
        <g class="uuid-9e8ce1b0-918c-43d8-81d8-8b8b4f5616c6">
          <g class="uuid-06606ee5-ae73-416a-b7cf-1fc9c6845805">
            <path class="uuid-39299653-8391-4d79-9bca-4fc12b1d2191" d="M63.7,40.11l-7.21-5.38.04-.14s.24-.97.84-2.1l.2.14c-.44.83-.81,1.75-.89,2.05l7,5.21c.97.78,2.69.07,2.69.07,1.38-.4,3.87-1.2,4.76-1.74.99-.6,2.98-2.2,4.02-3.31.9-.97,1.45-1.51,1.79-2.46l.26-1.23c.38-1.03.92-4.7,1.07-5.28l-.07-.78c-.3-.52-1.76-1.31-2.77-1.38l-.17-.3c1.28.08,2.95,1.25,3.02,1.3l.22.6.23.56-.02.06c-.06.22-1.67,6.64-1.67,6.64-.35.95-.86,1.46-1.82,2.49-1.06,1.14-2.82,2.55-3.83,3.16-.94.57-3.59,1.52-4.99,1.92l-.53.15c-1.4.46-2.1-.21-2.15-.25"/>
          </g>
        </g>
      </g>
      <path class="uuid-10f1ac03-b8bb-45e0-b41e-48ed2cbd50a4" d="M66.49,44.73s1.25,1.35,4.99-.67c2.35-1.27,2.94-1.86,3.76-2.49,1.12-.86,1.34-1.19,1.86-2.08.34-.58.37-.56.37-.56,0,0,.15,1.15-1.15,2.57-.67.72-2.23,1.94-4.06,2.98-1.52.87-3.27,1.56-4.32,1.41-.85-.12-1.45-1.15-1.45-1.15"/>
      <path class="uuid-31b9964d-23c1-4556-a5fd-a2f075805977" d="M52.32,36.08s-1.36-1.56-.28-1.7c.3-.04,2.28-.3,4.09.11,1.81.41,3.91,1.12,6.4,4.21.56.7.22.71-.22.86-.52.17-2.27.9-3.54.86-1.27-.05-2.96-.52-4.1-1.79-1.13-1.27-2.37-2.54-2.37-2.54"/>
      <path class="uuid-31b9964d-23c1-4556-a5fd-a2f075805977" d="M79.71,28.13h0c-.17-.41-.3-.63-.3-.63,0,0-.63-1.86-1.4-3.23-.17.12-.34.36-.46.87-.08.32-.28.87-.3,1.92-.02,1.13-.02,4-.02,4,0,0-.06.58.39.17.45-.41,1.19-1.08,1.56-1.68.24-.38.46-.83.52-1.41"/>
      <path class="uuid-f85efd67-d5e3-479e-a178-56fb6a368448" d="M70.44,17.4s-1.64,2.31-5.25,4.28c-4.53,2.48-6.89,3.16-9.01,3.8-1.23.37-2.64.6-2.64.6,0,0-.71-.15-.37.82.33.97,2.12,5.14,3.72,5.84,1.6.71,2.93.38,4.32.08,1.71-.37,5.44-1.68,8.38-3.31,2.11-1.18,3.69-2.38,4.77-3.43,1.08-1.04,1.34-1.53,1.23-2.23-.11-.71-2.05-2.98-3.2-4.39-1.15-1.41-1.94-2.05-1.94-2.05"/>
      <path class="uuid-d9d91c77-c0f7-4a3d-955c-4c674aa460e6" d="M7.59,20.31c1.44,1.05,2.74,3.94,2.97,5.36.23,1.42-.15,2.4-1.1,2.86-.95.47-3-.36-4.25-2.26-1.25-1.89-1.55-3.86-1.41-4.8.18-1.23.97-3.22,3.79-1.17"/>
      <path class="uuid-fc8f0d37-a999-49da-b45e-b73b51e7d580" d="M10.53,25.55c-.28-1.45-1.54-4.22-2.94-5.24-.22-.16-.42-.29-.62-.4-.22,0-.53,0-.74.06-1.54.49-1.56,2.64-.74,4.66.83,2.01,2.54,3.22,3.83,2.7.65-.27,1.07-.93,1.22-1.78"/>
      <g class="uuid-4e007481-7370-42e1-9271-dbec7d6d3675">
        <g class="uuid-2a43b190-aea0-4d67-b49b-5a01fb02a86d">
          <g class="uuid-32f42c07-d230-43b0-b1a2-07e129e2c77b">
            <path class="uuid-7c66a093-7292-42fc-9566-8b2d1bf20941" d="M9.46,24.92c.12-.06.49-.08.89-.08-.08-.28-.19-.57-.32-.88-.08-.01-.09-.06-.22-.08-.34-.06-.76-.35-.92-.55-.47-.6-.4-1.17-.4-1.17l-.09-1.06c-.25-.32-.4-.45-.67-.67-.07.62-.22,1.2-.22,1.25,0,.27-.06.95-.5.87-.24-.04-.67-.38-1.59-1.03-.12-.09-.25-.19-.36-.27-.05.19-.09.4-.11.62l1.65,1.5s.42.41.42.8c0,.22-.47,1.02-.88,1.66.12.17.25.33.38.48.41-.35.84-.71.97-.82.27-.22.79.15.91.53.06.17.29.77.54,1.4.12-.02.25-.05.37-.1.08-.03.16-.07.24-.12l-.39-1.37s-.1-.73.29-.92"/>
          </g>
        </g>
      </g>
      <path class="uuid-d9d91c77-c0f7-4a3d-955c-4c674aa460e6" d="M8.94,24.9c.19-.05.84-.08,1.4-.08-.05-.17-.11-.34-.18-.52-.31-.06-.79-.18-1.05-.3-.44-.21-1.08-.62-1.08-1.7,0-.14-.06-.9-.09-1.68-.17-.17-.19-.19-.36-.32-.04-.03-.19,1.71-.2,1.76-.06.38-.25.79-.69.72-.24-.04-.79-.48-1.61-1.05-.04-.02-.07-.05-.1-.07-.02.2-.03.41-.03.63l1.14,1.05s.42.41.42.8c0,.18-.3.73-.63,1.27.12.2.25.39.38.57.33-.32.63-.62.74-.7.27-.22.68-.25.9.27.08.19.44,1.07.77,1.9.2,0,.4-.03.58-.1l-.49-1.5s-.26-.83.17-.95"/>
      <path class="uuid-d9d91c77-c0f7-4a3d-955c-4c674aa460e6" d="M47.07,42.24c1.44,1.05,2.74,3.94,2.97,5.36.23,1.42-.15,2.4-1.1,2.86-.95.47-3-.36-4.25-2.26-1.25-1.89-1.55-3.86-1.41-4.8.18-1.23.97-3.22,3.79-1.17"/>
      <path class="uuid-fc8f0d37-a999-49da-b45e-b73b51e7d580" d="M50.02,47.48c-.28-1.45-1.54-4.22-2.94-5.24-.22-.16-.42-.29-.62-.4-.22,0-.53,0-.74.06-1.54.49-1.56,2.65-.74,4.66.83,2.01,2.54,3.22,3.83,2.7.65-.27,1.07-.93,1.22-1.78"/>
      <g class="uuid-4e007481-7370-42e1-9271-dbec7d6d3675">
        <g class="uuid-95553804-f696-48fe-bdcc-1f2cfb21218b">
          <g class="uuid-cc479a66-f7cc-4f78-9471-f4d89679431e">
            <path class="uuid-7c66a093-7292-42fc-9566-8b2d1bf20941" d="M48.94,46.86c.12-.06.49-.08.89-.08-.09-.28-.19-.57-.32-.88-.08-.01-.09-.06-.22-.08-.34-.06-.76-.35-.92-.55-.47-.59-.4-1.17-.4-1.17l-.09-1.06c-.25-.32-.4-.45-.67-.67-.07.62-.22,1.2-.22,1.25,0,.27-.06.95-.5.87-.24-.04-.67-.38-1.59-1.03-.12-.09-.25-.19-.36-.27-.05.19-.09.4-.11.62l1.65,1.5s.42.41.42.8c0,.22-.47,1.02-.88,1.66.12.17.25.33.38.48.41-.35.84-.71.97-.82.27-.22.79.15.91.53.06.17.29.77.53,1.4.13-.02.25-.05.37-.1.08-.03.16-.07.24-.12l-.39-1.37s-.1-.73.29-.92"/>
          </g>
        </g>
      </g>
      <path class="uuid-d9d91c77-c0f7-4a3d-955c-4c674aa460e6" d="M48.43,46.83c.19-.05.84-.08,1.4-.08-.05-.17-.11-.34-.18-.52-.31-.06-.79-.18-1.05-.3-.44-.21-1.08-.62-1.08-1.7,0-.14-.06-.9-.09-1.68-.17-.17-.19-.19-.36-.32-.04-.03-.19,1.71-.2,1.76-.06.38-.25.79-.69.72-.24-.04-.79-.48-1.61-1.05-.04-.02-.07-.05-.1-.07-.03.2-.03.41-.03.63l1.14,1.05s.42.41.42.8c0,.18-.31.73-.63,1.27.12.2.25.4.38.57.33-.32.63-.62.74-.7.27-.22.68-.25.9.27.08.19.44,1.07.77,1.9.2,0,.4-.03.58-.1l-.49-1.5s-.26-.83.17-.95"/>
    </g>
  </g>
</svg>