<?xml version="1.0" encoding="UTF-8"?>
<svg id="uuid-57a55e80-0f1e-42fc-9641-bb34a3bbd1dd" data-name="Calque_2" xmlns="http://www.w3.org/2000/svg" viewBox="0 0 38.3 58.15">
  <defs>
    <style>
      .uuid-096affb1-30f8-47ed-a86c-87759d8b2098 {
        fill: #2e2b28;
      }

      .uuid-b0a71e8f-d19d-4acd-b8fb-36b916f9f911 {
        fill: #3a383b;
      }

      .uuid-b2f3416d-a4b1-48bf-aad4-997d733460fc {
        fill: #6f6e77;
      }

      .uuid-c30acf21-3fac-483a-85e6-e1dcb3dcf2b5 {
        fill: #5d5b63;
      }

      .uuid-4931a4b9-4c6a-43b5-8f78-d3c411d00796 {
        fill: #342f35;
      }

      .uuid-556fa5bc-8157-4258-9a5f-59d9c154007a {
        fill: #eb7338;
      }

      .uuid-848c4318-b039-4cd3-a771-3de9e3d7ef88 {
        fill: #ffdb03;
      }

      .uuid-2a68dd5b-5f3b-48bf-9b90-d7b82fadaed5 {
        fill: #4a494f;
      }

      .uuid-695ef4e7-0e9c-4650-ab64-c1315275d126 {
        fill: #aedcec;
      }

      .uuid-be01e2c2-9ffa-42a6-ad69-4315626dcc9a {
        fill: #fde9d4;
      }

      .uuid-29880b0f-5d5e-4e1d-8d9a-dc0c91f6573a {
        fill: #6a6273;
      }

      .uuid-237ae432-3505-451d-af9b-e58d3db1a30d {
        fill: #7e7d88;
      }
    </style>
  </defs>
  <g id="uuid-a88681f8-b485-4653-8a37-e01b81fb9d17" data-name="Les_Véhicules">
    <g id="uuid-57a944db-7e32-4ec9-b3d4-774f5576df4b" data-name="Vehicule_x5F_Trottinette_x5F_BG">
      <path class="uuid-b0a71e8f-d19d-4acd-b8fb-36b916f9f911" d="M28.04,38.35l-18.61,10.74v-.47l-1.21.16v1.39h0c-.15.49,3.53,2.19,3.78,2.46.49.28,1.36.25,1.93-.08l19.35-11.17-5.24-3.03Z"/>
      <polygon class="uuid-4931a4b9-4c6a-43b5-8f78-d3c411d00796" points="29.57 39.24 28.04 38.35 32.32 36.79 33.07 37.22 29.57 39.24"/>
      <polygon class="uuid-4931a4b9-4c6a-43b5-8f78-d3c411d00796" points="31.74 40.49 33.28 41.38 35.99 38.91 35.24 38.48 31.74 40.49"/>
      <polygon class="uuid-29880b0f-5d5e-4e1d-8d9a-dc0c91f6573a" points="29.57 37.86 28.04 36.97 32.32 35.41 33.07 35.84 29.57 37.86"/>
      <path class="uuid-237ae432-3505-451d-af9b-e58d3db1a30d" d="M33.39,32.72c1.94.04,3.77,2.1,3.68,2.08l-1.71.92-.64-.57c-.19,1.3-1,2.7-2.02,3.52l.81.26.13,1.96s-2.44-.26-3.66-2.12h0c-1.12-2.16.99-5.86,3.4-6.05h0s.01,0,.02,0"/>
      <path class="uuid-096affb1-30f8-47ed-a86c-87759d8b2098" d="M34.86,34.6c-2.4.88-4.19,7.69,0,5.94,2.4-.88,4.19-7.69,0-5.94"/>
      <polygon class="uuid-b0a71e8f-d19d-4acd-b8fb-36b916f9f911" points="33.28 40 33.28 41.38 31.54 41.4 31.32 40.42 33.28 40"/>
      <path class="uuid-848c4318-b039-4cd3-a771-3de9e3d7ef88" d="M34.97,35.52c-1.69.62-2.96,5.42,0,4.19,1.7-.62,2.96-5.42,0-4.19"/>
      <path class="uuid-237ae432-3505-451d-af9b-e58d3db1a30d" d="M33.9,39.1c1.15-.69,2.14-2.46,1.69-3.8,3.14.1-.64,6.71-2.31,4.03.19-.03.4-.1.62-.23"/>
      <path class="uuid-695ef4e7-0e9c-4650-ab64-c1315275d126" d="M12.01,51.25c-.35-.57-5.27-2.04-3.32-3.11,0,0,19.35-11.17,19.35-11.17l5.24,3.03c-1.08.18-20.4,12.89-21.27,11.25"/>
      <polygon class="uuid-29880b0f-5d5e-4e1d-8d9a-dc0c91f6573a" points="31.74 39.11 33.28 40 35.99 37.53 35.24 37.09 31.74 39.11"/>
      <path class="uuid-237ae432-3505-451d-af9b-e58d3db1a30d" d="M35.99,37.52c-1.51,2.1-9.54,6.41-11.8,7.73v-6.05l3.85-2.22h0s4.28-1.57,4.28-1.57l-.1.84-2.65,1.61,2.17,1.26,3.5-2.02.75.43Z"/>
      <polygon class="uuid-237ae432-3505-451d-af9b-e58d3db1a30d" points="22.53 40.15 22.53 46.21 20.7 47.26 20.7 41.21 22.53 40.15"/>
      <polygon class="uuid-b0a71e8f-d19d-4acd-b8fb-36b916f9f911" points="35.99 37.53 35.99 38.91 33.28 41.38 33.28 40 35.99 37.53"/>
      <path class="uuid-b0a71e8f-d19d-4acd-b8fb-36b916f9f911" d="M38.3,32.69l-.34-.02h0c-5.81-3.76-8.94,4.68-8.39,5.2l2.18,1.24s.3-6.36,6.45-6.09c.15,0,.09-.25.11-.33Z"/>
      <path class="uuid-c30acf21-3fac-483a-85e6-e1dcb3dcf2b5" d="M36.26,31.56c-6.38-.45-6.69,6.31-6.69,6.31l2.18,1.24c.61-8.84,10.26-4.9,4.51-7.55"/>
      <path class="uuid-be01e2c2-9ffa-42a6-ad69-4315626dcc9a" d="M9.74,10.44c-.1.45-.78.32-.97.62.82.67,2.13-.25,2.29-1.17.18-.58-.57-1.07-1.01-.62-.18.33-.13.8-.31,1.17"/>
      <path class="uuid-c30acf21-3fac-483a-85e6-e1dcb3dcf2b5" d="M13.93,47.31l-2.35-1.39h0c-1.15-.93-3.38.74-4.5,1.41l-2.26-3.12-1.48.85,4.3,5.89,2.69,1.55-1.21-2.4,3.42-1.98s0-.03,0-.04l1.4-.77Z"/>
      <path class="uuid-b0a71e8f-d19d-4acd-b8fb-36b916f9f911" d="M11.73,47.68l-1.97,1.19-3.54-4.87-1.48.85,5.58,7.64c.97-.56,3.89-2.24,4.9-2.83,0-2.21-1.56-3.11-3.49-1.99"/>
      <polygon class="uuid-b0a71e8f-d19d-4acd-b8fb-36b916f9f911" points="1.23 49.62 2 54.09 2.86 53.58 3.27 48.45 1.23 49.62"/>
      <path class="uuid-237ae432-3505-451d-af9b-e58d3db1a30d" d="M3.73,49.88c1.94.03,3.77,2.1,3.68,2.08l-1.71.92-.64-.57c-.2,1.3-1,2.7-2.02,3.52l.81.26.13,1.96s-2.44-.26-3.66-2.12h0c-1.12-2.16.99-5.86,3.4-6.05h0s.01,0,.02,0"/>
      <path class="uuid-096affb1-30f8-47ed-a86c-87759d8b2098" d="M5.2,51.76c-1.41.82-2.56,2.81-2.56,4.45,1.44,6.77,9.1-6.55,2.56-4.45"/>
      <path class="uuid-848c4318-b039-4cd3-a771-3de9e3d7ef88" d="M5.3,52.69c-1.69.62-2.96,5.42,0,4.19,1.7-.62,2.96-5.42,0-4.19"/>
      <path class="uuid-237ae432-3505-451d-af9b-e58d3db1a30d" d="M4.24,56.26c1.15-.69,2.14-2.46,1.69-3.8,3.14.1-.64,6.71-2.31,4.03.19-.03.4-.1.62-.23"/>
      <path class="uuid-b0a71e8f-d19d-4acd-b8fb-36b916f9f911" d="M5.83,54.37c.14.79-1.43,2.34-1.61.93-.14-.79,1.43-2.34,1.61-.93"/>
      <polygon class="uuid-b0a71e8f-d19d-4acd-b8fb-36b916f9f911" points="4.67 51.61 4.48 55.59 5.34 55.09 6.71 50.44 4.67 51.61"/>
      <polygon class="uuid-c30acf21-3fac-483a-85e6-e1dcb3dcf2b5" points="4.67 51.61 1.22 49.63 3.26 48.45 6.71 50.44 4.67 51.61"/>
      <path class="uuid-b0a71e8f-d19d-4acd-b8fb-36b916f9f911" d="M6.82,40.23l-2.53-.54-1.54,9.87h0c.01.99,2.12,1.45,2.52.54h0s1.54-9.87,1.54-9.87Z"/>
      <path class="uuid-b0a71e8f-d19d-4acd-b8fb-36b916f9f911" d="M6.33,40.71c-.81.43-3.03-.72-1.57-1.42.81-.43,3.04.72,1.57,1.42"/>
      <path class="uuid-b0a71e8f-d19d-4acd-b8fb-36b916f9f911" d="M7.3,39.96l-3.41-.72-1.1,7.36h0c.02,1.34,2.85,1.95,3.4.72h0l1.1-7.36Z"/>
      <path class="uuid-c30acf21-3fac-483a-85e6-e1dcb3dcf2b5" d="M6.65,40.61c-.74.24-1.82.01-2.41-.52-1.95-2.69,5.25-1.14,2.41.52"/>
      <path class="uuid-556fa5bc-8157-4258-9a5f-59d9c154007a" d="M11.54,21.31l-.97-1.9-.4.96c-.46-.24-1.36-1.01-1.52.01,0,0-1.55,10.13-1.55,10.13-.21.99.91,1.41,1.56,1.79l-.16,1.62,1.48-1.24h0c.24-.56,2.06-10.93,1.57-11.37"/>
      <path class="uuid-848c4318-b039-4cd3-a771-3de9e3d7ef88" d="M7.89,33.92c-.85-.66-3.32-1.31-2.95-2.83,0,0,1.97-12.87,1.97-12.87.22-1.77,2.6.62,3.27.76.43.25.7.91.61,1.48-.43.29-1.35,14.89-2.9,13.46"/>
      <path class="uuid-b0a71e8f-d19d-4acd-b8fb-36b916f9f911" d="M12.02,6.74l-2.53-.54-5.19,33.14h0c.01.99,2.12,1.45,2.52.54h0S12.02,6.74,12.02,6.74Z"/>
      <path class="uuid-b0a71e8f-d19d-4acd-b8fb-36b916f9f911" d="M11.53,7.23c-.81.43-3.03-.72-1.57-1.42.81-.43,3.04.72,1.57,1.42"/>
      <path class="uuid-c30acf21-3fac-483a-85e6-e1dcb3dcf2b5" d="M2.26.03h0C1.31-.26.22,1.6.97,2.27h0s6.65,3.84,6.65,3.84l1.29-2.24"/>
      <path class="uuid-b0a71e8f-d19d-4acd-b8fb-36b916f9f911" d="M1,.77l7.26,4.2-.66,1.14L.96,2.27h0c-.42-.32-.22-1.07.04-1.5"/>
      <path class="uuid-b0a71e8f-d19d-4acd-b8fb-36b916f9f911" d="M7.3,5.49c-.16-.9,1.63-2.66,1.83-1.06.16.9-1.63,2.66-1.83,1.06"/>
      <path class="uuid-b2f3416d-a4b1-48bf-aad4-997d733460fc" d="M8.33,6.9l1.62-2.81-.98-.56h0c-1.19-.36-2.55,1.97-1.62,2.81h0s.98.56.98.56Z"/>
      <path class="uuid-b0a71e8f-d19d-4acd-b8fb-36b916f9f911" d="M7.94,6.13c0-.73.51-1.62,1.15-1.98,2.94-.95-.5,4.99-1.15,1.98"/>
      <path class="uuid-c30acf21-3fac-483a-85e6-e1dcb3dcf2b5" d="M13.83,9.31l.99-1.72-5.12-2.95h0c-.73-.22-1.56,1.21-.99,1.72h0s5.12,2.95,5.12,2.95Z"/>
      <path class="uuid-b0a71e8f-d19d-4acd-b8fb-36b916f9f911" d="M13.59,8.84c-.12-.69,1.25-2.05,1.41-.81.12.69-1.25,2.05-1.41.81"/>
      <path class="uuid-b2f3416d-a4b1-48bf-aad4-997d733460fc" d="M13.02,9.56l1.62-2.81-.98-.56h0c-1.19-.36-2.55,1.97-1.62,2.81h0s.98.56.98.56Z"/>
      <path class="uuid-b0a71e8f-d19d-4acd-b8fb-36b916f9f911" d="M12.63,8.79c0-.73.51-1.62,1.15-1.98,2.94-.95-.5,4.99-1.15,1.98"/>
      <path class="uuid-c30acf21-3fac-483a-85e6-e1dcb3dcf2b5" d="M19.87,13.12l1.29-2.24-6.65-3.84h0c-.95-.29-2.03,1.57-1.29,2.24h0s6.65,3.84,6.65,3.84Z"/>
      <path class="uuid-2a68dd5b-5f3b-48bf-9b90-d7b82fadaed5" d="M20.5,12.03l-.63,1.09-6.65-3.84c-.41-.31-.24-1.02.01-1.45l7.27,4.2Z"/>
      <path class="uuid-b0a71e8f-d19d-4acd-b8fb-36b916f9f911" d="M19.56,12.51c-.16-.9,1.63-2.66,1.83-1.06.16.9-1.63,2.66-1.83,1.06"/>
    </g>
  </g>
</svg>