<?xml version="1.0" encoding="UTF-8"?>
<svg id="uuid-14aeab8c-b941-48ec-a93e-1e0fc68a31d0" data-name="Calque_2" xmlns="http://www.w3.org/2000/svg" viewBox="0 0 69.49 55.43">
  <defs>
    <style>
      .uuid-813083dc-6556-401f-b7b3-6d2586e2f434 {
        fill: #eae3ca;
      }

      .uuid-2670fa56-3b1e-4902-b6b0-bb2a4952cbd5 {
        fill: #5f6aaf;
      }

      .uuid-d7a440d7-e5e4-4ff9-ab8a-b33ca26c06a4 {
        fill: #221e20;
      }

      .uuid-edcbaa39-e8f3-4c01-8fd2-a0a90f96b5d5 {
        fill: #6074b6;
      }

      .uuid-1225a597-d2b0-4b49-a9ab-98e62e2af051 {
        fill: #65686b;
      }

      .uuid-ad79019a-adf8-4647-9199-eaf58b3d2eca {
        fill: #f9b300;
      }

      .uuid-68e0600c-4cd4-4612-bbef-3f12b2de0f58 {
        fill: #f29200;
      }

      .uuid-2f54a386-efd0-4413-8e84-8c59aa7ce9a3 {
        fill: #88b0de;
      }

      .uuid-03b2dc86-19e1-4c37-b62c-9ef18469101e {
        fill: #4c60a8;
      }

      .uuid-6cb4aedb-b08a-4ca2-afcf-75e65e7e619e {
        fill: #fdf4f9;
      }

      .uuid-f4ee3491-b13b-4517-80f9-64c5c39c7b6c {
        fill: #d0d3e4;
      }

      .uuid-2989f46a-8889-4da0-b6e0-069c4adb57b3 {
        fill: #4e4a49;
      }

      .uuid-399f8993-60f6-4f87-a464-03f49c053c8c {
        fill: #b25299;
      }

      .uuid-7dad0629-df89-4b46-b431-1488a07a2015 {
        fill: #a2c0e6;
      }

      .uuid-882a7d38-97ad-4cc0-bae7-4aa4f9bfa1c0 {
        fill: #605962;
      }

      .uuid-63b1cbcb-bd01-4dc1-b719-0c1a93b839dc {
        fill: #413c41;
      }

      .uuid-3308fdd2-5523-4a68-8109-d4897b84ec1a {
        fill: #43403e;
      }

      .uuid-0e06e3ba-13a9-4b3c-9656-e49acbd8c206 {
        fill: #8b8c8e;
      }

      .uuid-28a224d5-5ae8-49b4-b95b-436f368c30f5 {
        fill: #363035;
      }

      .uuid-be66cbe7-3279-440f-85e7-fe5b2b2e37f2 {
        fill: #483f4b;
      }

      .uuid-37fa767b-a046-480d-b8d9-c10b0779423b {
        fill: #554c57;
      }

      .uuid-7c081502-6880-471a-8d32-de3a9019703b {
        fill: #e8e9ec;
      }

      .uuid-7d92dbea-aea3-49fd-a17f-f844440188c1 {
        fill: #69696b;
      }

      .uuid-f213212e-4e4f-4136-bdf6-d3ca12da56da {
        fill: #b0adb0;
      }

      .uuid-02e579d2-f83b-4805-bdaf-59452450617c {
        fill: #b8b8b9;
      }

      .uuid-4984c00e-9622-4967-a7d6-8fcf2e2c8300 {
        fill: #a8c2e6;
      }

      .uuid-9043d9af-9639-4b53-90e1-a3736b458416 {
        fill: #673c33;
      }

      .uuid-de5f0cbc-27d5-4676-918a-fadc3c60dd30 {
        fill: #d3d0d3;
      }

      .uuid-b7ba19ce-a549-424c-9ffa-e40da610f962 {
        fill: #ffd800;
      }

      .uuid-6d6da07d-f3f9-4376-9d0a-92ecd3037182 {
        fill: #cececf;
      }

      .uuid-40cf0a8a-cbeb-4099-9204-de0c80e27c18 {
        fill: #3d3540;
      }

      .uuid-e95e9615-a950-4c96-a2d6-b5c57259f28e {
        fill: #959494;
      }

      .uuid-c2a26ad9-749c-4f6f-98ce-0d5308e5b1de {
        fill: #edf1fa;
      }

      .uuid-5f489154-70e2-4dde-9eec-5516f902b826 {
        fill: #8090a4;
      }

      .uuid-ea769d83-7378-4744-9c42-d9fd5252b3db {
        fill: #b2bcca;
      }

      .uuid-d63f80bd-45fa-42b7-a49c-ec7ca346eac3 {
        fill: #432822;
      }

      .uuid-49ab1b64-88fb-40d7-9122-50ee48ded325 {
        fill: #a8a6a5;
      }

      .uuid-60b0d243-5d70-4c82-9504-bf3747e1149d {
        fill: #706c6b;
      }
    </style>
  </defs>
  <g id="uuid-911b7349-ca74-44ed-b06e-e7abe60e6f74" data-name="Les_Véhicules">
    <g id="uuid-37ceaa0a-1ff7-498f-a93d-05a9efe9faf2" data-name="Vehic_x5F_Harley_x5F_BD">
      <path class="uuid-2989f46a-8889-4da0-b6e0-069c4adb57b3" d="M55.19,6.62l-1.51-.99,3.26-3.84c.06-.12.21-.2.41-.21.41-.02.81.4,1.03.75.11.17.13.33.07.45h0,0s-3.26,3.84-3.26,3.84Z"/>
      <path class="uuid-60b0d243-5d70-4c82-9504-bf3747e1149d" d="M55.13,6.17c.22.35.06.64-.35.66-.41.02-.81-.4-1.03-.75-.22-.35-.06-.64.35-.66s.81.4,1.03.75"/>
      <path class="uuid-3308fdd2-5523-4a68-8109-d4897b84ec1a" d="M55.14,30.48c.48-.09,1.27.4,1.78,0,.51-.4,1.47-.65,1.69-.65s.71.85.62,1.27c-.09.42-1.04,1.8-1.86,2.17-.82.37-2.51.51-2.59.56-.08.06-1.52.73-2.42.76-.9.03-.85-.87-.85-.87l-.65-2.34-.59-1.55,3.13-1.47.86,1.21.89.91Z"/>
      <path class="uuid-2f54a386-efd0-4413-8e84-8c59aa7ce9a3" d="M44.9,14.31c.98,1.18,1.11,14.69,1.1,15.28,0,.59-3.82,1.13-4.39.81-.57-.32-1.3-11.96-1.19-12.74.11-.78,4.48-3.35,4.48-3.35"/>
      <path class="uuid-4984c00e-9622-4967-a7d6-8fcf2e2c8300" d="M50.88,29.89c-.27-.78-2.99-6.09-4.61-9.26-.53-1.03-.95-1.85-1.15-2.26-2.15-1.09-10.02-3.2-13.61-2.52l-.03-.18c3.63-.68,11.62,1.46,13.75,2.55h.03s.01.04.01.04c.2.4.63,1.24,1.16,2.29,1.62,3.18,4.34,8.49,4.62,9.28l-.17.06Z"/>
      <path class="uuid-7dad0629-df89-4b46-b431-1488a07a2015" d="M44.66,14.27c.03-.36.06-.79.12-1.22-.27-.11-.53-.22-.8-.33-2.64-1.09-5.29-2.19-8.03-2.99-1.03-.3-2.27-.32-2.76.86-.21.51-.2,1.08-.15,1.63.01.14.03.3.1.42.11.2.33.3.54.39.51.22,1.03.41,1.56.59,3.07,1.09,6.22,2.03,9.44,2.47-.06-.61-.06-1.22-.02-1.83"/>
      <path class="uuid-7dad0629-df89-4b46-b431-1488a07a2015" d="M44.97,16.14c0,.15,0,.31,0,.48.01.77.18,1.52.26,2.28.09.82,0,1.61.11,2.42.11.93.21,1.87.28,2.81.04.55.04,1.08.05,1.62,0,.57.14,1.14.13,1.72,0,.4.07.93-.17,1.28-.14.2-.42.22-.64.24-.38.04-.77.02-1.15-.05-.18-.03-.36-.09-.49-.22-.09-.09-.14-.22-.18-.35-.27-.83-.27-1.72-.29-2.59-.05-2.14-.27-4.28-.5-6.41-.03-.28-.06-.57-.12-.85-.07-.32-.19-.63-.27-.94-.14-.52-.48-1.85.04-2.23.58-.41,1.72-.57,2.36-.27.52.24.59.61.6,1.05"/>
      <path class="uuid-7d92dbea-aea3-49fd-a17f-f844440188c1" d="M40.03,39.88s3.88-1.22,4.57-2.65c.7-1.43,4.19-7,3.68-9.57-.5-2.57-1.95-4.05-2.83-5.22-.88-1.16-2.84-2.28-2.84-2.28l-6.3.11s-5.7.05-5.34,3.81c.36,3.77,9.06,15.79,9.06,15.79"/>
      <polygon class="uuid-e95e9615-a950-4c96-a2d6-b5c57259f28e" points="54.55 25.8 53.35 25.99 59.87 41.48 61.08 41.29 54.55 25.8"/>
      <polygon class="uuid-e95e9615-a950-4c96-a2d6-b5c57259f28e" points="54.35 25.83 53.55 25.96 48.56 14.13 49.36 14 54.35 25.83"/>
      <polygon class="uuid-7d92dbea-aea3-49fd-a17f-f844440188c1" points="26.53 19.04 29.29 20.64 37.8 25.55 45.35 30.1 45.35 32.11 43.55 35.32 33.39 30.55 30.4 25.76 29.26 24.85 26.53 19.04"/>
      <path class="uuid-be66cbe7-3279-440f-85e7-fe5b2b2e37f2" d="M59.78,29.77c-5.36-3.09-9.7-.62-9.7,5.53s4.35,13.64,9.7,16.74c5.36,3.09,9.7.62,9.7-5.53s-4.35-13.64-9.7-16.74M59.78,48.5c-3.66-2.11-6.62-7.23-6.62-11.42s2.97-5.89,6.62-3.77c3.66,2.11,6.62,7.22,6.62,11.42s-2.96,5.89-6.62,3.78"/>
      <path class="uuid-d7a440d7-e5e4-4ff9-ab8a-b33ca26c06a4" d="M51.63,32.9c-1.98,1.37-4.32,4.79-2.63,10.65,1.69,5.87,8.04,9.6,12.99,8.72,4.95-.88-2.93-2.87-2.93-2.87,0,0-4.44-3.32-5.72-6.45-1.28-3.14-.58-9.32-.58-9.32l-1.14-.74Z"/>
      <path class="uuid-e95e9615-a950-4c96-a2d6-b5c57259f28e" d="M62.82,43.79c0,2.55-1.8,3.57-4.02,2.29-2.22-1.28-4.02-4.38-4.02-6.93s1.8-3.57,4.02-2.29c2.22,1.28,4.02,4.38,4.02,6.93"/>
      <path class="uuid-7d92dbea-aea3-49fd-a17f-f844440188c1" d="M61,42.75c0,1.4-.99,1.96-2.21,1.26-1.22-.7-2.21-2.41-2.21-3.81s.99-1.96,2.21-1.26c1.22.7,2.21,2.41,2.21,3.81"/>
      <path class="uuid-e95e9615-a950-4c96-a2d6-b5c57259f28e" d="M59.39,33.53c-3.66-2.11-9.16,1.07-9.16,5.26s3.05,9.43,6.71,11.54c3.66,2.11,9.07-1.19,9.07-5.39s-2.96-9.31-6.62-11.42M59.39,48.07c-3.34-1.93-6.05-6.6-6.05-10.44s2.71-5.38,6.05-3.45c3.34,1.93,6.05,6.6,6.05,10.44s-2.71,5.38-6.05,3.45"/>
      <path class="uuid-be66cbe7-3279-440f-85e7-fe5b2b2e37f2" d="M67.58,52.04c-2.19,2.21-4.58,3.01-5.84,3.27-1.26.26,2.69-5.27,2.69-6.52s-.46-6.32-2.27-8.96c-1.82-2.64-5.37-7.06-7.27-7.43-1.9-.37-8.82,1.91-6.86-.13,1.95-2.04,4.76-3.33,6.01-3.65,1.25-.32,6.71,2.89,8.04,4.48,1.33,1.58,5.25,5.7,5.5,9.35.24,3.66,0,9.59,0,9.59"/>
      <path class="uuid-d7a440d7-e5e4-4ff9-ab8a-b33ca26c06a4" d="M13.66,3.14C8.3.04,3.96,2.52,3.96,8.67s4.34,13.64,9.7,16.74c5.36,3.1,9.7.62,9.7-5.53S19.02,6.23,13.66,3.14M13.66,21.87c-3.66-2.11-6.62-7.23-6.62-11.42s2.96-5.89,6.62-3.78c3.66,2.11,6.62,7.23,6.62,11.42s-2.97,5.89-6.62,3.78"/>
      <path class="uuid-e95e9615-a950-4c96-a2d6-b5c57259f28e" d="M13.26,6.9c-3.66-2.11-9.69,1.6-9.69,5.8s3.65,9.31,7.31,11.42c3.66,2.11,9-1.59,9-5.79s-2.97-9.31-6.62-11.42M13.26,21.44c-3.34-1.93-6.05-6.6-6.05-10.44s2.71-5.38,6.05-3.45c3.34,1.93,6.05,6.6,6.05,10.44s-2.71,5.38-6.05,3.45"/>
      <path class="uuid-be66cbe7-3279-440f-85e7-fe5b2b2e37f2" d="M21.25,25.59c-2.06,2.06-5.03,3.09-5.72,3.24-.69.14,2.25-7.44,2.42-8.66s-.76-6-3.9-9.55c-3.14-3.54-9.31-5.28-10.51-4.95-1.2.33-3.64,2.72-2.32.58,1.32-2.15,5.34-3.84,6.14-4.08.81-.24,6.04.11,9.45,4.87,3.41,4.75,5.69,8.62,5.36,12.4-.33,3.79-.93,6.15-.93,6.15"/>
      <path class="uuid-03b2dc86-19e1-4c37-b62c-9ef18469101e" d="M22.39,13.18s-2.24-7.05-8.34-10.26c-6.11-3.21-6.93,1.5-9.47-.02l-.21-.15S6.31-1.85,12.88.85c6.56,2.7,9.76,10.66,9.76,10.66l.19,1.49-.44.17Z"/>
      <path class="uuid-03b2dc86-19e1-4c37-b62c-9ef18469101e" d="M.02,5.25C.94,2.36,6.48.44,7.1.26,7.35.19,8.46-.01,9.07,0c.91.02,1.5.33,2.86.82,2.28.81,5.11,2.98,6.24,4.28,1.13,1.31,4.37,6.45,4.46,6.98.09.53.24.74.2.93-.04.19-2.39,1.94-4.35,2.51-.64-1.84-4.17-7.28-5.93-8.87-1.76-1.58-8.5-3.25-8.5-3.25L.02,5.25Z"/>
      <path class="uuid-03b2dc86-19e1-4c37-b62c-9ef18469101e" d="M58.68,27.22c-.05.63-.07,1.6-1.79,1.32-1.73-.29-2.78.14-3.72,1.15-.94,1.01-.95,1.35-1.6,1.5-.65.15-1.03-.03-1.1-.21-.06-.18.37-1.83,1.72-2.91,1.35-1.08,3.75-1.06,4.67-.84s1.3.11,1.3.11l.22-.29.3.17Z"/>
      <path class="uuid-03b2dc86-19e1-4c37-b62c-9ef18469101e" d="M47.33,31.05c2.19-2.21,5.01-3.21,6.01-3.6,1-.38,2.71-.32,3.39-.15.67.17,1.6.17,1.6.17l-3.9,2.73-2.98.25-4.12.59Z"/>
      <path class="uuid-03b2dc86-19e1-4c37-b62c-9ef18469101e" d="M58.34,28.31c-1.01,1.46-4.78,2.74-4.78,2.74,0,0,.47-1.09.75-1.34.14-.13,1.36-.39,2.33-.94.96-.55,1.71-1.3,1.71-1.3l.35-.25-.35,1.09Z"/>
      <path class="uuid-edcbaa39-e8f3-4c01-8fd2-a0a90f96b5d5" d="M58.68,27.22c-.47,1.17-1.97,1.85-2.64,2.16-.67.31-1.71.35-1.71.35l-.3-.17c1.74-.29,2.6-1.02,3.18-1.42s1.17-1.09,1.17-1.09l.3.17Z"/>
      <path class="uuid-63b1cbcb-bd01-4dc1-b719-0c1a93b839dc" d="M33.71,12.2c-1.29,0-3.43-.09-4.51-.1-1.08-.02-4.66-1.86-5.65-2.66-1-.79-2.63-2.61-3.09-2.59-.46.02,2.56,4.78,3.71,5.69,1.14.9,4.11,2.59,4.51,2.8s3.22-.16,3.22-.16c0,0,3.62-.09,4.07-.45.44-.35-.95-1.79-.95-1.79l-1.29-.75Z"/>
      <path class="uuid-399f8993-60f6-4f87-a464-03f49c053c8c" d="M21.48,8.4l-7.88,4.89,7.88-4.89Z"/>
      <path class="uuid-f213212e-4e4f-4136-bdf6-d3ca12da56da" d="M12.55,11.99l.35,2.39,14.39,7.61s3.14,7.79,3.21,7.94c.06.15,13.88,7.43,13.88,7.43l4.57-9.75-.7-.77-4.7,8.47-10.16-4.77-2.99-4.79-1.14-.92-5.91-12.57,1.27-1.15-3.78-3.6-.6.6,2.59,4.89,2.65,5.28-12.93-6.3Z"/>
      <path class="uuid-7d92dbea-aea3-49fd-a17f-f844440188c1" d="M38.88,16.12c-1.27-.66-2.03-.41-2.35-.04s-.19,3.46-.19,3.46l1.26,4.44,3.73,2.15,1.81-2.71v-3.28l-.95-2.45-3.3-1.58Z"/>
      <polygon class="uuid-7d92dbea-aea3-49fd-a17f-f844440188c1" points="41.33 26.13 36.98 28.64 32.26 18.51 36.79 15.86 40.74 22.2 41.33 26.13"/>
      <path class="uuid-f4ee3491-b13b-4517-80f9-64c5c39c7b6c" d="M40.25,25.14c-.82-.55-2.57-1.41-3.27-1.53-.7-.11-.38.94-.38,1.24s1.37,3.3,2.02,4.04c.65.74,2.59,1.49,2.59,1.49,0,0,1.37-.16,1.72-.54.35-.38.57-1.13.6-1.33.03-.2-2.35-2.76-3.27-3.38"/>
      <polygon class="uuid-7d92dbea-aea3-49fd-a17f-f844440188c1" points="36.64 23.7 32.34 26.17 38.57 32.36 42.92 29.85 40.13 25.83 36.64 23.7"/>
      <polygon class="uuid-f213212e-4e4f-4136-bdf6-d3ca12da56da" points="47.62 19.56 45.36 29.92 45.2 31.83 46.37 31.63 48.73 19.65 47.62 19.56"/>
      <path class="uuid-e95e9615-a950-4c96-a2d6-b5c57259f28e" d="M34.56,26.18h0c-.83,0-19.79-7.87-20.75-8.43-1.17-.68-3.16-2.6-3.16-5.5,0-1.1.32-1.83.94-2.2,1.02-.59,2.42.13,2.82.36h0c.18.11,18.2,10.95,19.77,11.85,1.29.75,1.44,2.23,1.22,3.05-.15.54-.46.86-.84.86M12.5,10.53c-.21,0-.41.04-.57.13-.39.23-.59.76-.59,1.59,0,2.58,1.77,4.29,2.81,4.9,1.38.8,19.52,8.2,20.43,8.34.02-.03.18-.29.2-.76.01-.3-.02-1.31-.95-1.85-1.57-.9-19.47-11.67-19.78-11.86-.47-.27-1.05-.49-1.55-.49"/>
      <path class="uuid-d63f80bd-45fa-42b7-a49c-ec7ca346eac3" d="M18.07,2.34c-.4-.09-.98-.25-1.1.19-.13.44,2.59,3.37,3.14,3.88.55.5,2.37,2.44,3.38,3.22,1.02.78,4.26,2.46,4.26,2.46,0,0,2.99-.03,3.05-.13s-.66-1.21-.66-1.21l-.99-.38-2.01-.14-3.83-2.55-3.62-3.3-1.61-2.02Z"/>
      <path class="uuid-d63f80bd-45fa-42b7-a49c-ec7ca346eac3" d="M17.51,2.24c-1.15,0-4.95,2.2-4.89,2.8.06.6.87.42,2.2,1.91,1.33,1.49,6.72,6.61,8.16,6.69s3.33,1.02,3.47.82c.14-.21,2.86-2.21,4.35-2.51-.79-.96-1.79-1.23-1.79-1.23l-2.02-.27s-4.33-2.39-5.13-3.48c-.8-1.1-3.84-4.24-3.84-4.24l-.49-.49Z"/>
      <path class="uuid-e95e9615-a950-4c96-a2d6-b5c57259f28e" d="M45.2,36.33c-1.2,0-4.05-1.77-6.33-3.33l-12.59-7.27.52-.9,12.62,7.28c2.32,1.58,5.16,3.23,5.73,3.19.61-.35,2.38-4.77,2.6-6.29.19-1.3-1.15-4.1-2.3-4.83-1.29-.82-2.23-1.29-2.24-1.3l.47-.93s.99.5,2.33,1.35c1.49.94,3.02,4.16,2.78,5.85-.17,1.18-1.99,6.63-3.29,7.12-.08.03-.18.05-.29.05"/>
      <path class="uuid-03b2dc86-19e1-4c37-b62c-9ef18469101e" d="M45.74,13.34c-.82-1.98-4.03-3.64-6.8-4.14-2.19-.4-4.87-.36-7.17.42-.98.33-2.87,1.58-2.89,1.97-.11,1.91,6.07,1.8,8.65,3.05,2.57,1.25,2.13,6.9,3.36,6.73,2.5-.33,4.7-2.58,4.87-2.76.74-.76.87-3.12-.02-5.26"/>
      <polygon class="uuid-28a224d5-5ae8-49b4-b95b-436f368c30f5" points="48.25 15.7 45.02 14.77 44.61 19.3 46.79 21.17 50.44 20.98 48.25 15.7"/>
      <path class="uuid-f4ee3491-b13b-4517-80f9-64c5c39c7b6c" d="M33.2,20.89s-3.02-1.49-3.59-.83c-.57.65-.41,1.69-.41,2.24s2.1,3.14,2.89,3.53c.79.39,3.14.47,3.59-.48.45-.95-.54-3.12-1.11-3.48-.57-.37-1.37-.97-1.37-.97"/>
      <polygon class="uuid-7d92dbea-aea3-49fd-a17f-f844440188c1" points="25.29 22.53 29.75 19.95 35.57 25.52 35.34 25.71 30.99 28.22 25.29 22.53"/>
      <polygon class="uuid-0e06e3ba-13a9-4b3c-9656-e49acbd8c206" points="22.18 21.55 24.94 23.15 33.45 28.06 41 32.61 41 34.62 39.2 37.83 29.04 33.06 26.05 28.27 24.91 27.36 22.18 21.55"/>
      <path class="uuid-02e579d2-f83b-4805-bdaf-59452450617c" d="M56.62,35.13c-3.66-2.11-6.62-.42-6.62,3.78s2.97,9.31,6.62,11.42c3.66,2.11,6.62.42,6.62-3.78s-2.96-9.31-6.62-11.42M56.62,49.68c-3.34-1.93-6.05-6.6-6.05-10.44s2.71-5.38,6.05-3.45c3.34,1.93,6.05,6.6,6.05,10.44s-2.71,5.38-6.05,3.45"/>
      <path class="uuid-40cf0a8a-cbeb-4099-9204-de0c80e27c18" d="M56.22,31.83c-5.36-3.09-9.7-.62-9.7,5.53s4.34,13.64,9.7,16.74c5.36,3.09,9.7.62,9.7-5.53s-4.34-13.64-9.7-16.74M56.22,50.56c-3.66-2.11-6.62-7.23-6.62-11.42s2.97-5.89,6.62-3.78c3.66,2.11,6.62,7.22,6.62,11.42s-2.96,5.89-6.62,3.78"/>
      <path class="uuid-02e579d2-f83b-4805-bdaf-59452450617c" d="M61.23,44.71c0,2.55-1.8,3.57-4.02,2.29-2.22-1.28-4.02-4.38-4.02-6.93s1.8-3.57,4.02-2.29c2.22,1.28,4.02,4.38,4.02,6.93"/>
      <path class="uuid-0e06e3ba-13a9-4b3c-9656-e49acbd8c206" d="M59.42,43.66c0,1.4-.99,1.96-2.21,1.26-1.22-.7-2.21-2.41-2.21-3.81s.99-1.96,2.21-1.26c1.22.7,2.21,2.41,2.21,3.81"/>
      <path class="uuid-40cf0a8a-cbeb-4099-9204-de0c80e27c18" d="M9.7,5.42C4.34,2.33,0,4.8,0,10.95s4.34,13.64,9.7,16.74c5.36,3.1,9.7.62,9.7-5.53S15.06,8.52,9.7,5.42M9.7,24.15c-3.66-2.11-6.62-7.23-6.62-11.42s2.96-5.89,6.62-3.78c3.66,2.11,6.62,7.23,6.62,11.42s-2.96,5.89-6.62,3.78"/>
      <path class="uuid-2670fa56-3b1e-4902-b6b0-bb2a4952cbd5" d="M18.05,15.68s-2.24-7.05-8.34-10.26c-6.11-3.21-6.93,1.5-9.47-.02l-.21-.15S1.97.66,8.53,3.36c6.56,2.7,9.76,10.66,9.76,10.66l.19,1.49-.44.17Z"/>
      <path class="uuid-2670fa56-3b1e-4902-b6b0-bb2a4952cbd5" d="M54.34,29.73c-.05.63-.07,1.6-1.79,1.32-1.73-.29-2.78.14-3.72,1.15-.94,1.01-.95,1.35-1.6,1.5-.65.15-1.03-.03-1.1-.21-.06-.18.37-1.83,1.72-2.91,1.35-1.08,3.75-1.06,4.67-.84s1.3.11,1.3.11l.22-.29.3.17Z"/>
      <path class="uuid-882a7d38-97ad-4cc0-bae7-4aa4f9bfa1c0" d="M29.37,14.71c-1.29,0-3.43-.09-4.51-.1-1.08-.02-4.66-1.86-5.65-2.66-1-.79-2.63-2.61-3.09-2.59-.46.02,2.56,4.78,3.71,5.69,1.14.9,4.11,2.59,4.51,2.8s3.22-.16,3.22-.16c0,0,3.62-.09,4.07-.45.44-.35-.95-1.79-.95-1.79l-1.29-.75Z"/>
      <path class="uuid-de5f0cbc-27d5-4676-918a-fadc3c60dd30" d="M8.2,14.5l.35,2.39,14.39,7.61s3.14,7.79,3.21,7.94c.06.15,13.88,7.43,13.88,7.43l4.57-9.75-.7-.77-4.7,8.47-10.16-4.77-2.99-4.79-1.14-.92-5.91-12.57,1.27-1.15-3.78-3.6-.6.6,2.59,4.89,2.65,5.28-12.93-6.3Z"/>
      <path class="uuid-0e06e3ba-13a9-4b3c-9656-e49acbd8c206" d="M34.53,18.63c-1.27-.66-2.03-.41-2.35-.04s-.19,3.46-.19,3.46l1.26,4.44,3.73,2.15,1.81-2.71v-3.28l-.95-2.44-3.3-1.58Z"/>
      <path class="uuid-c2a26ad9-749c-4f6f-98ce-0d5308e5b1de" d="M35.9,27.65c-.82-.55-2.57-1.41-3.27-1.53-.7-.11-.38.94-.38,1.24s1.37,3.3,2.02,4.04c.65.74,2.59,1.49,2.59,1.49,0,0,1.37-.16,1.72-.54.35-.38.57-1.13.6-1.33.03-.2-2.35-2.76-3.27-3.38"/>
      <polygon class="uuid-37fa767b-a046-480d-b8d9-c10b0779423b" points="46.85 16.51 43.62 15.58 43.21 20.11 45.39 21.97 49.04 21.79 46.85 16.51"/>
      <polygon class="uuid-de5f0cbc-27d5-4676-918a-fadc3c60dd30" points="43.27 22.07 41.01 32.43 40.85 34.34 42.02 34.14 44.38 22.16 43.27 22.07"/>
      <path class="uuid-02e579d2-f83b-4805-bdaf-59452450617c" d="M31.4,28.01h0c-.83,0-19.79-7.87-20.75-8.43-1.17-.68-3.16-2.6-3.16-5.5,0-1.1.32-1.83.94-2.2,1.02-.59,2.42.13,2.82.36h0c.18.11,18.2,10.95,19.77,11.85,1.29.75,1.44,2.23,1.22,3.05-.15.54-.46.86-.84.86M9.34,12.35c-.21,0-.41.04-.57.13-.39.23-.59.76-.59,1.59,0,2.58,1.77,4.29,2.81,4.9,1.38.8,19.52,8.2,20.43,8.34.02-.03.18-.29.2-.76.01-.3-.02-1.31-.95-1.85-1.57-.9-19.47-11.67-19.78-11.86-.47-.27-1.05-.49-1.55-.49"/>
      <polygon class="uuid-02e579d2-f83b-4805-bdaf-59452450617c" points="50.2 28.31 49 28.5 55.53 43.99 56.73 43.8 50.2 28.31"/>
      <polygon class="uuid-02e579d2-f83b-4805-bdaf-59452450617c" points="50 28.34 49.2 28.47 44.22 16.64 45.01 16.51 50 28.34"/>
      <path class="uuid-9043d9af-9639-4b53-90e1-a3736b458416" d="M13.72,4.85c-.4-.09-.98-.25-1.1.19-.13.44,2.59,3.37,3.14,3.88.55.5,2.37,2.44,3.39,3.22,1.02.78,4.26,2.46,4.26,2.46,0,0,2.99-.03,3.05-.13s-.66-1.21-.66-1.21l-.99-.38-2.01-.14-3.83-2.55-3.62-3.3-1.61-2.02Z"/>
      <path class="uuid-02e579d2-f83b-4805-bdaf-59452450617c" d="M40.85,38.84c-1.2,0-4.05-1.77-6.33-3.33l-12.17-5.62c-.62-.29-.84-1.05-.48-1.62.32-.51.99-.68,1.51-.37l11.68,6.75c2.32,1.58,5.14,3.24,5.73,3.18.6-.35,2.38-4.77,2.6-6.29.19-1.3-1.15-4.1-2.31-4.82-1.29-.82-2.23-1.29-2.24-1.3l.46-.93s.99.5,2.33,1.34c1.49.94,3.02,4.16,2.78,5.85-.17,1.18-2,6.63-3.29,7.12-.08.03-.18.04-.29.04"/>
      <path class="uuid-2670fa56-3b1e-4902-b6b0-bb2a4952cbd5" d="M41.39,15.85c-.82-1.98-4.03-3.64-6.8-4.14-2.76-.5-5.79-1.41-5.91.49-.11,1.9,1.92,3.69,4.49,4.94,2.57,1.25,6.38,4.12,7.62,4.22,1.24.1,1.68-2.87.59-5.51"/>
      <path class="uuid-c2a26ad9-749c-4f6f-98ce-0d5308e5b1de" d="M28.85,23.4s-3.02-1.49-3.59-.83c-.57.65-.41,1.69-.41,2.24s2.1,3.14,2.89,3.53c.79.39,3.14.47,3.59-.48.45-.95-.54-3.12-1.11-3.48-.57-.37-1.37-.97-1.37-.97"/>
      <path class="uuid-6d6da07d-f3f9-4376-9d0a-92ecd3037182" d="M52.75,16.2c-1.95-1.13-4.91-1.43-6.02,1.02-1.13,2.48,1.89,4.99,2.77,4.94.88-.05,3.26-5.95,3.26-5.95"/>
      <path class="uuid-1225a597-d2b0-4b49-a9ab-98e62e2af051" d="M48.53,20.49c0,1.53,1.08,2.15,2.42,1.38,1.34-.77,2.42-2.64,2.42-4.17s-1.08-2.15-2.42-1.38c-1.34.77-2.42,2.64-2.42,4.17"/>
      <path class="uuid-49ab1b64-88fb-40d7-9122-50ee48ded325" d="M49.27,20.28c0,1.18.83,1.66,1.86,1.06,1.03-.59,1.86-2.03,1.86-3.21s-.83-1.65-1.86-1.06c-1.03.59-1.86,2.03-1.86,3.21"/>
      <path class="uuid-02e579d2-f83b-4805-bdaf-59452450617c" d="M39.45,19.41c-.49,0-.99-.06-1.47-.2l-2.87-.79c-.24-.06-.49-.04-.7.08l-.65.35-.68-1.24.65-.36c.54-.3,1.16-.37,1.76-.21l2.87.79c1.07.29,2.23.14,3.18-.41l8.93-5.15c1.31-.76,2.11-2.17,2.08-3.7l-.02-.82c-.02-.81.37-1.55,1.04-2l.47-.32.79,1.17-.47.32c-.27.18-.42.48-.41.81l.02.82c.04,2.03-1.02,3.93-2.78,4.95l-8.93,5.15c-.85.49-1.82.74-2.79.74"/>
      <path class="uuid-02e579d2-f83b-4805-bdaf-59452450617c" d="M39.54,11.23c-.72.41-1.91.43-2.65.05-.75-.39-.77-1.04-.05-1.45.72-.41,1.91-.44,2.65-.05.75.39.77,1.04.05,1.45"/>
      <path class="uuid-5f489154-70e2-4dde-9eec-5516f902b826" d="M28.91,39.39l-.83-1.42,5.04-2.91c.11-.06.25-.05.42.04.32.19.58.64.58,1,0,.18-.06.31-.17.37h0,0s-5.04,2.91-5.04,2.91Z"/>
      <path class="uuid-ea769d83-7378-4744-9c42-d9fd5252b3db" d="M29.08,39.02c0,.37-.26.52-.58.33-.32-.19-.58-.64-.58-1s.26-.52.58-.33c.32.19.58.64.58,1"/>
      <path class="uuid-2989f46a-8889-4da0-b6e0-069c4adb57b3" d="M28.63,21.52l-.41-1.65,4.75-2.28c.13-.03.29.03.42.19.27.31.43.74.3,1.13-.07.19-.18.3-.31.33h0s0,0,0,0l-4.74,2.28Z"/>
      <path class="uuid-60b0d243-5d70-4c82-9504-bf3747e1149d" d="M28.94,21.19c-.13.39-.46.45-.73.14-.27-.31-.43-.74-.3-1.13.13-.39.46-.45.73-.14.27.31.43.74.3,1.13"/>
      <path class="uuid-6d6da07d-f3f9-4376-9d0a-92ecd3037182" d="M54.76,17c-.68-.39-1.53-.4-1.74-.33-.59.21-1.08,1.33-.8,1.97.06.14.43.71,1.15.91.36.1,1.4-2.56,1.4-2.56"/>
      <path class="uuid-68e0600c-4cd4-4612-bbef-3f12b2de0f58" d="M52.95,18.85c0,.66.47.92,1.04.59.57-.33,1.04-1.13,1.04-1.79s-.47-.92-1.04-.59c-.57.33-1.04,1.13-1.04,1.79"/>
      <path class="uuid-ad79019a-adf8-4647-9199-eaf58b3d2eca" d="M53.19,18.8c0,.55.39.78.88.5.48-.28.88-.96.88-1.51s-.39-.78-.88-.5c-.48.28-.88.96-.88,1.51"/>
      <path class="uuid-b7ba19ce-a549-424c-9ffa-e40da610f962" d="M53.36,18.43c0,.26.18.36.4.23.22-.13.4-.44.4-.7s-.18-.36-.4-.23c-.22.13-.4.44-.4.7"/>
      <path class="uuid-7c081502-6880-471a-8d32-de3a9019703b" d="M48.53,20.49c0,1.53,1.08,2.15,2.42,1.38,1.34-.77,2.42-2.64,2.42-4.17s-1.08-2.15-2.42-1.38c-1.34.77-2.42,2.64-2.42,4.17"/>
      <path class="uuid-813083dc-6556-401f-b7b3-6d2586e2f434" d="M49.27,20.28c0,1.18.83,1.66,1.86,1.06,1.03-.59,1.86-2.03,1.86-3.21s-.83-1.65-1.86-1.06c-1.03.59-1.86,2.03-1.86,3.21"/>
      <path class="uuid-6cb4aedb-b08a-4ca2-afcf-75e65e7e619e" d="M49.64,19.49c0,.55.38.76.86.49.47-.27.86-.94.86-1.48s-.39-.76-.86-.49c-.47.27-.86.94-.86,1.48"/>
      <path class="uuid-6d6da07d-f3f9-4376-9d0a-92ecd3037182" d="M48.16,20.37c-.68-.39-1.53-.4-1.74-.33-.59.21-1.08,1.33-.8,1.97.06.14.43.71,1.15.91.36.1,1.4-2.56,1.4-2.56"/>
      <path class="uuid-68e0600c-4cd4-4612-bbef-3f12b2de0f58" d="M46.34,22.21c0,.66.47.92,1.04.59.57-.33,1.04-1.13,1.04-1.79s-.47-.92-1.04-.59c-.57.33-1.04,1.13-1.04,1.79"/>
      <path class="uuid-ad79019a-adf8-4647-9199-eaf58b3d2eca" d="M46.58,22.17c0,.55.39.78.88.5.48-.28.88-.96.88-1.51s-.39-.78-.88-.5c-.48.28-.88.96-.88,1.51"/>
      <path class="uuid-b7ba19ce-a549-424c-9ffa-e40da610f962" d="M46.76,21.79c0,.26.18.36.4.23.22-.13.4-.44.4-.7s-.18-.36-.4-.23c-.22.13-.4.44-.4.7"/>
    </g>
  </g>
</svg>