<?xml version="1.0" encoding="UTF-8"?>
<svg xmlns="http://www.w3.org/2000/svg" xmlns:xlink="http://www.w3.org/1999/xlink" viewBox="0 0 219.79 178.61">
  <defs>
    <style>
      .uuid-6a09acea-500c-4c8e-bb5d-e6f6d36ab73a {
        fill: #3b3735;
      }

      .uuid-b28298d7-350e-40d5-a6bb-0331bbef196c {
        fill: #383432;
      }

      .uuid-8c32ee2b-b21d-41ae-b153-ce45e8211533 {
        fill: #dfdede;
      }

      .uuid-5a18a8d6-b030-414b-aad1-8d0e49e2a388 {
        fill: #12100b;
      }

      .uuid-a05a3ce6-8048-422c-b4e3-c639f9e37f11 {
        clip-path: url(#uuid-92f6fada-18fc-4212-9cdd-977ae5327114);
      }

      .uuid-73c41936-5640-4217-85cb-39493738c120 {
        fill: #f6b69a;
      }

      .uuid-b0abf3ad-bbe5-48c4-bc74-d5c17475a25a {
        fill: #dfdad8;
      }

      .uuid-4d6cd2a6-684c-436e-baf4-092183ed985a {
        clip-path: url(#uuid-70fed713-4597-433a-b6f8-0ad28232590b);
      }

      .uuid-f2a57741-ef44-40a5-8fb9-f7342ef9378c {
        fill: #fff;
      }

      .uuid-4d4bf75b-b403-46e2-bc24-59d9c0612976 {
        fill: none;
      }

      .uuid-c877cd61-a2d8-45c2-92b7-b3728806fd3f {
        fill: #fbfbfa;
      }

      .uuid-87c13983-ae52-4bec-b72f-f5822b73b0c4 {
        fill: #4b5f5f;
      }

      .uuid-016a50a2-8431-47a1-9337-88598b81f873 {
        fill: #292623;
      }

      .uuid-e3ece045-ca8b-48be-8749-0ca65f852433 {
        isolation: isolate;
      }

      .uuid-8707de5f-cea6-4d91-b36b-1e4b9515bc98 {
        fill: #3f4f50;
      }

      .uuid-78666a1b-7651-403d-a334-4b116755aa33 {
        fill: #dac3b2;
      }

      .uuid-8a930539-e1d5-438c-bd43-08db4c67a1b4 {
        fill: #54504f;
      }

      .uuid-c371faad-0390-460d-9dab-e0be267bb878 {
        clip-path: url(#uuid-0c48604b-a824-4c57-aa60-6d22cb1c0fb2);
      }

      .uuid-ca951a82-703b-446d-bd60-de4a538fa21c {
        clip-path: url(#uuid-2f6a0171-f9c0-44fb-bb7b-980b7c7eccbc);
      }

      .uuid-1b831a96-6dd0-4d78-86bd-c505f149cb1c {
        fill: #2a415b;
      }

      .uuid-8c17f762-ce87-4c16-be8b-ece32d4508a4 {
        clip-path: url(#uuid-6981248f-8d04-40f5-9787-5d5291040a8d);
      }

      .uuid-362721ea-56a7-4db6-81fc-781cb741d7e5 {
        clip-path: url(#uuid-30b7a4eb-ff10-48fb-a940-6dbc629dfb70);
      }

      .uuid-a8aa2383-3db3-4d7c-a118-dd8dd1d60eaf {
        fill: #212c36;
      }

      .uuid-2f12fe2b-eb69-4267-8ff2-4f33b4c05827, .uuid-2ad8f70b-acd3-4b1c-8b7d-24e0db4f725b {
        mix-blend-mode: multiply;
      }

      .uuid-0741f9f4-4ce4-4509-94d9-e46081e59de6 {
        fill: #312d2b;
      }

      .uuid-2ad72ecf-d545-4e68-8e65-6f9c9a2f7f4d {
        clip-path: url(#uuid-a770916a-1693-4922-b08e-18a5637a2aab);
      }

      .uuid-52b48d9e-ca28-42f7-a423-d6c22e2c097c {
        clip-path: url(#uuid-413fcb19-cd77-4f14-b2db-c3682a2faf13);
      }

      .uuid-8ae83fc2-b0a2-468b-af58-ce63a1e9ae10 {
        fill: #edeced;
      }

      .uuid-03d01b15-8057-476b-9159-eed709522293 {
        opacity: .65;
      }

      .uuid-a34b7e4f-183f-44e1-a38e-97c7b1030260 {
        fill: #f7b900;
      }

      .uuid-2f387d86-f913-463b-b1c2-607b4b567502 {
        fill: #355d83;
      }

      .uuid-de963dab-af79-4fef-a818-b99d17195463 {
        fill: #235aa3;
      }

      .uuid-2ad8f70b-acd3-4b1c-8b7d-24e0db4f725b {
        opacity: .5;
      }
    </style>
    <clipPath id="uuid-30b7a4eb-ff10-48fb-a940-6dbc629dfb70">
      <rect class="uuid-4d4bf75b-b403-46e2-bc24-59d9c0612976" x="50.89" y="132.94" width="2.52" height="2.89"/>
    </clipPath>
    <clipPath id="uuid-70fed713-4597-433a-b6f8-0ad28232590b">
      <rect class="uuid-4d4bf75b-b403-46e2-bc24-59d9c0612976" x="50.89" y="132.94" width="2.52" height="2.89"/>
    </clipPath>
    <clipPath id="uuid-413fcb19-cd77-4f14-b2db-c3682a2faf13">
      <rect class="uuid-4d4bf75b-b403-46e2-bc24-59d9c0612976" x="46.32" y="114.87" width="17.15" height="42.14"/>
    </clipPath>
    <clipPath id="uuid-0c48604b-a824-4c57-aa60-6d22cb1c0fb2">
      <rect class="uuid-4d4bf75b-b403-46e2-bc24-59d9c0612976" x="46.32" y="114.87" width="17.15" height="42.14"/>
    </clipPath>
    <clipPath id="uuid-a770916a-1693-4922-b08e-18a5637a2aab">
      <rect class="uuid-4d4bf75b-b403-46e2-bc24-59d9c0612976" x="20.55" y="133.68" width=".59" height="19.42"/>
    </clipPath>
    <clipPath id="uuid-6981248f-8d04-40f5-9787-5d5291040a8d">
      <rect class="uuid-4d4bf75b-b403-46e2-bc24-59d9c0612976" x="20.55" y="133.68" width=".59" height="19.42"/>
    </clipPath>
    <clipPath id="uuid-92f6fada-18fc-4212-9cdd-977ae5327114">
      <rect class="uuid-4d4bf75b-b403-46e2-bc24-59d9c0612976" x="62.52" y="143.89" width=".59" height="23.98"/>
    </clipPath>
    <clipPath id="uuid-2f6a0171-f9c0-44fb-bb7b-980b7c7eccbc">
      <rect class="uuid-4d4bf75b-b403-46e2-bc24-59d9c0612976" x="62.52" y="143.89" width=".59" height="23.98"/>
    </clipPath>
  </defs>
  <g class="uuid-e3ece045-ca8b-48be-8749-0ca65f852433">
    <g id="uuid-25165fe0-d350-43e4-9465-1e6daacca576" data-name="Calque_2">
      <g id="uuid-15f9b82e-fcb5-4759-ab96-2fb109f501f1" data-name="Les_Véhicules">
        <g id="uuid-a9d9761d-fb38-4f8d-b7d3-8c8f4e91fdba" data-name="Vehic_x5F_BusBleu_x5F_BG">
          <path class="uuid-a8aa2383-3db3-4d7c-a118-dd8dd1d60eaf" d="M51.18,148.34l-6.67,3.98c-.5,2.78-1.66,6.18-3.12,9.87-1.34.28-2.57.45-2.82-.43.72-4.3,1.43-8.46,2.18-10.99,1.68-2.87,5.2-5.01,8.97-7.05l1.47,4.63Z"/>
          <path class="uuid-5a18a8d6-b030-414b-aad1-8d0e49e2a388" d="M19.22,140.95c-.11.35-.24.5-.23,1.19-.13.71-.46,1.03-1.02,1.17-1.07.26-1.08.79-2.52.91-.86.07-2.02-.33-2.25-.85-.05-.25.16-.59.44-.88,0,0,1.8-.84,1.85-.88.05-.04,1.45-.84,1.51-.85.17-.04,1-1.75.88-1.77l1.86.62-.53,1.35Z"/>
          <path class="uuid-a8aa2383-3db3-4d7c-a118-dd8dd1d60eaf" d="M57.24,144.71c.55,1,.45,2.45-.09,4.2-.69,1.28-4.36,3.67-7.57,5.89-.7,3.36-2.13,6.94-4.03,10.65-1.15.12-2.13.04-2.54-.68.67-1.54,1.58-6.17,2.56-10.41.12-.5.35-.97.68-1.37l3.5-4.38c.4-.51.49-1.19.26-1.79-.36-.94-.36-2.04-.29-3.09l7.53.99Z"/>
          <path class="uuid-1b831a96-6dd0-4d78-86bd-c505f149cb1c" d="M53.21,132.63c1.41.41,4.07,1.65,4.63,3.12.48,1.25.17,3.12.17,3.12-.55,2.26-.65,4.15-.43,5.99.04.33-.09.66-.35.87-2.07,1.61-5.8.17-7.28-1.41-.15-.16-.24-.37-.24-.6,0-1.17-.38-2.41-.92-3.68,0,0-.54-1.56-.52-2.6.02-2.58,1.17-4.81,1.17-4.81,0,0,2.35-.4,3.77,0"/>
          <path class="uuid-73c41936-5640-4217-85cb-39493738c120" d="M51.45,135.73c.12.17.25.28.42.3,1.58.23,2.58-1.68,2.26-2.67-.29-1.03-.45-1.59-.45-1.59l-2.84,1.14s0,.28.05.67c.07.67.21,1.65.56,2.15"/>
          <g class="uuid-2ad8f70b-acd3-4b1c-8b7d-24e0db4f725b">
            <g class="uuid-362721ea-56a7-4db6-81fc-781cb741d7e5">
              <g class="uuid-4d6cd2a6-684c-436e-baf4-092183ed985a">
                <path class="uuid-73c41936-5640-4217-85cb-39493738c120" d="M51.45,135.73c.16.08.33.12.5.09,1.39-.2,1.46-2.88,1.46-2.88l-2.53.63c.07.67.21,1.65.56,2.15"/>
              </g>
            </g>
          </g>
          <path class="uuid-73c41936-5640-4217-85cb-39493738c120" d="M53.52,132.31s-.14,1.32-.63,1.95c-.49.63-1.36,1.03-1.7,1.1-.34.07-.62.08-.88-.16-.26-.23-.74-2.63-.74-2.63-.13-.94-.15-1.22-.11-1.76.06-.79.37-2.57,2.65-2.58,1.1,0,1.88.69,2.15,1.62.22.74-.2,2.17-.2,2.17l-.54.29Z"/>
          <path class="uuid-5a18a8d6-b030-414b-aad1-8d0e49e2a388" d="M54.11,132.17l-.98.72-.17-.62c-.04-.3-.33-.51-.63-.45-.5.11-1.29.19-2.09-.07-.76-.25-.95-.71-.95-.71-.55-1.33,1.11-2.65,2.49-2.8,1.67-.18,2.5.84,2.64,1.82.13.89-.31,2.1-.31,2.1"/>
          <path class="uuid-73c41936-5640-4217-85cb-39493738c120" d="M53.75,131.34c.14-.09.34-.11.46,0,.07.07.09.16.09.26,0,.09-.03.18-.06.27-.05.15-.11.3-.17.45-.05.12-.12.25-.25.3-.12.05-.27.16-.35.06-.09-.1-.12-.41-.11-.55.02-.29.15-.62.39-.79"/>
          <path class="uuid-2f387d86-f913-463b-b1c2-607b4b567502" d="M57.41,139.93c-.45.91-1.67,3.06-2.51,4.52-.53.93-1.43,1.6-2.47,1.84l-5.18,1.29c-.78.17-1.5-1.33-.72-1.79l5.54-2.02,2.39-5.34s1.54-3.3,2.89-2.89c1.35.42.72,3.03.06,4.39"/>
          <path class="uuid-6a09acea-500c-4c8e-bb5d-e6f6d36ab73a" d="M39.54,147.35c-.87-1.44-1.16-2.86-.77-3.81.2-.5.57-.83,1.08-.96,1.4-.37,3.52,1.03,4.81,3.17.87,1.44,1.15,2.86.77,3.81-.2.5-.57.83-1.08.96-.15.04-.31.06-.48.06-1.37,0-3.18-1.32-4.34-3.23M40.07,143.41c-.24.06-.4.21-.5.45-.27.67,0,1.86.71,3.04,1.18,1.96,2.95,3.02,3.85,2.78.24-.06.4-.21.5-.45.27-.67,0-1.86-.71-3.03-1.07-1.78-2.62-2.82-3.58-2.82-.1,0-.19.01-.27.03"/>
          <path class="uuid-73c41936-5640-4217-85cb-39493738c120" d="M47.12,147.39c.34-.43.19-.9-.19-1.4l-.38-.06-.92-.4-1.2-.14.17.28-.44.45,1.02,1.97.98-.23.95-.48Z"/>
          <path class="uuid-73c41936-5640-4217-85cb-39493738c120" d="M45.41,148.03l-.62.14-.36.1c-.18.05-.38-.04-.45-.22l-.08-.2h-.04c-.14,0-.26-.09-.28-.22l-.02-.36h-.07c-.14-.04-.24-.15-.24-.29,0-.12.06-.23.17-.28l.1-.05-.05-.18c-.04-.16.19-.4.35-.47.42-.01.63-.05.84-.37l.75,2.39Z"/>
          <path class="uuid-73c41936-5640-4217-85cb-39493738c120" d="M40.55,143.39l-.47.65-.54.51-.23.2c-.32.27-.52-.12-.3-.36l.45-.44.28-.35c.28-.23.55-.25.82-.21"/>
          <path class="uuid-73c41936-5640-4217-85cb-39493738c120" d="M40.13,142.52l-.31-.08-.63.18-.74.58c-.15.12-.21.29-.22.48-.1.12-.14.27-.12.44-.06.2-.05.37.03.52-.09.16.03.29.11.43l.31.25.49-.09c.2-.05.19-.2.04-.26l-.17-.08.49-.71.02-.17c.01-.14-.09-.28-.23-.3,0,0-.16-.48-.16-.48.25-.39.61-.65,1.11-.73"/>
          <path class="uuid-8a930539-e1d5-438c-bd43-08db4c67a1b4" d="M58.08,134.02c-4.56,3.78-8.77,7.6-12.44,11.46l.18-.64c3.17-3.93,7.1-7.76,11.48-11.51l.77.69Z"/>
          <path class="uuid-de963dab-af79-4fef-a818-b99d17195463" d="M219.78,76.97V21.11L45.47,111.94l-.88,66.29,31.06-17.95c.43-.25.63-.72.6-1.21h0c1.29-5.2,3.96-9.52,8.39-11.4,2.01-.85,4.51-.92,5.7,1.21.49.88.66,1.93.62,2.89l81.74-47.58c.27-.16.42-.46.42-.78,0-.09,0-.18.02-.28.39-3.23,1.73-5.85,3.99-8.06,1.75-1.72,5.21-4.6,8.23-3.48,1.71.64,2.07,2.06,2.4,3.9l32.02-18.52"/>
          <path class="uuid-de963dab-af79-4fef-a818-b99d17195463" d="M63.26,139.42c0,2.99-1.26,5.84-3.47,7.85l-13.51,9.71,3.12-28.34s1.17-5.93,5.31-8.79c4.14-2.85,8.73-5.01,8.73-5.01l-.18,24.59Z"/>
          <g class="uuid-03d01b15-8057-476b-9159-eed709522293">
            <g class="uuid-52b48d9e-ca28-42f7-a423-d6c22e2c097c">
              <g class="uuid-c371faad-0390-460d-9dab-e0be267bb878">
                <path class="uuid-8707de5f-cea6-4d91-b36b-1e4b9515bc98" d="M49.44,128.67l-3.12,28.34,13.51-9.7c2.21-2.01,3.47-4.86,3.47-7.85l.18-24.59s-4.58,2.16-8.73,5.01c-4.14,2.85-5.31,8.79-5.31,8.79"/>
              </g>
            </g>
          </g>
          <path class="uuid-de963dab-af79-4fef-a818-b99d17195463" d="M39.03,148.1l1.25,29.54s2.46,1.7,4.31.59l4.66-60.05-4.66-.83-5.56,30.76Z"/>
          <path class="uuid-b0abf3ad-bbe5-48c4-bc74-d5c17475a25a" d="M10.99,97.74c-.51.61-1.74,2.92-1.74,2.92l5.87.7-1.22-6.29s-2.26,1.88-2.92,2.67"/>
          <path class="uuid-de963dab-af79-4fef-a818-b99d17195463" d="M9.25,100.66c-1.47,4.85-4.58,16.6-7.37,36.95v16.29s.78,2.52,3.33,4.08c2.55,1.57,35.07,19.65,35.07,19.65l-.39-18.23c1.17-13.97,2.81-31.74,6.4-41.12l-33.81-18.93c-1.25-.7-2.82-.07-3.23,1.3"/>
          <path class="uuid-016a50a2-8431-47a1-9337-88598b81f873" d="M9.25,100.66c-1.47,4.85-4.58,16.6-7.37,36.95v5.62c.17.06,37.21,22.22,38.14,22.22l-.12-6.03c1.17-13.97,2.81-31.74,6.4-41.12l-33.81-18.93c-1.25-.7-2.82-.07-3.23,1.3"/>
          <path class="uuid-f2a57741-ef44-40a5-8fb9-f7342ef9378c" d="M18.13,92.28c-1.44.83-2.64,1.59-3.64,2.28-2.23,1.53-2.08,4.86.28,6.18l29.82,16.61c3.67,2.1,12.16-2.39,12.16-2.39L219.08,21.64,181.59,0S24.25,88.75,18.13,92.28"/>
          <g class="uuid-2f12fe2b-eb69-4267-8ff2-4f33b4c05827">
            <g class="uuid-2ad72ecf-d545-4e68-8e65-6f9c9a2f7f4d">
              <g class="uuid-8c17f762-ce87-4c16-be8b-ece32d4508a4">
                <polygon class="uuid-78666a1b-7651-403d-a334-4b116755aa33" points="20.55 153.09 21.14 152.82 21.14 133.68 20.55 133.68 20.55 153.09"/>
              </g>
            </g>
          </g>
          <g class="uuid-2f12fe2b-eb69-4267-8ff2-4f33b4c05827">
            <g class="uuid-a05a3ce6-8048-422c-b4e3-c639f9e37f11">
              <g class="uuid-ca951a82-703b-446d-bd60-de4a538fa21c">
                <polygon class="uuid-78666a1b-7651-403d-a334-4b116755aa33" points="62.52 167.86 63.11 167.52 63.11 143.89 62.52 143.89 62.52 167.86"/>
              </g>
            </g>
          </g>
          <path class="uuid-8707de5f-cea6-4d91-b36b-1e4b9515bc98" d="M8.6,107.14c-1,4.44-3.77,17.16-5.04,26.41l-.09,5.26s.7,2.26,2.99,3.66c1.68,1.03,19.92,11.04,28.43,15.7,3.58,1.96,4.84-4.16,4.84-4.16.62-7.41,2.81-21.55,3.69-27.14.27-1.71.68-4.38,1.13-6.01l-34.06-19.51s-1.19,2.66-1.9,5.78"/>
          <path class="uuid-87c13983-ae52-4bec-b72f-f5822b73b0c4" d="M8.6,107.14c-.59,2.61-1.79,8.08-2.93,14.02,6.41-4.21,13.26-7.65,20.15-11.03l-15.32-8.77s-1.19,2.66-1.9,5.78"/>
          <path class="uuid-87c13983-ae52-4bec-b72f-f5822b73b0c4" d="M3.92,139.8c.43.78,1.22,1.87,2.54,2.68.52.32,4.54,2.56,7.44,4.16,6.1-2.33,15.43-6.89,23.58-11.04,1.67-.85,3.34-1.72,5-2.6.37-2.46.71-4.61.95-6.12.27-1.71.68-4.38,1.13-6.01l-1.47-.84c-13.19,6.36-26.59,12.38-39.17,19.78"/>
          <path class="uuid-016a50a2-8431-47a1-9337-88598b81f873" d="M8.6,107.14l35.38,19.74c.27-1.71.68-4.38,1.13-6.01l-34.61-19.51s-1.19,2.66-1.9,5.78"/>
          <path class="uuid-a34b7e4f-183f-44e1-a38e-97c7b1030260" d="M10.64,106.26l32,17.85c.14-.8.28-1.62.44-2.36l-31.69-17.86c-.24.67-.51,1.48-.75,2.37"/>
          <path class="uuid-c877cd61-a2d8-45c2-92b7-b3728806fd3f" d="M15.46,146.44l-3.6-1.98v2.42s3.25,2.15,3.96,2.29c1.55.3,3.96-1.47,3.96-1.47v-2.73c-2.93,2.15-4.32,1.47-4.32,1.47"/>
          <path class="uuid-c877cd61-a2d8-45c2-92b7-b3728806fd3f" d="M1.87,146.99v2.94s.1.81.69,1.25c.59.44,4.34,2.5,4.34,2.5v-2.57l-4.12-2.5s-.91-.59-.91-1.62"/>
          <path class="uuid-0741f9f4-4ce4-4509-94d9-e46081e59de6" d="M84.13,147.66c-4.56,2.06-9.19,9.39-7.28,12.13,1.39,2.01,3.95,2.56,3.95,2.56-.37-.52-2.35-2.39-2.34-3.12v-.11c.05-4.48,2.52-8.58,6.47-10.7l.69-.37c.49-.26,1.01-.39,1.52-.39,1.68,0,3.21,1.34,3.21,3.21,0,.63-.04.74-.04.74l.75.4c.35-3.44-2.04-6.56-6.92-4.35"/>
          <path class="uuid-b28298d7-350e-40d5-a6bb-0331bbef196c" d="M84.2,161.5c3.25-1.88,5.43-5.12,5.99-8.76.1-.61.14-1.24.14-1.87,0-1.87-1.53-3.21-3.21-3.21"/>
          <path class="uuid-b28298d7-350e-40d5-a6bb-0331bbef196c" d="M87.13,147.66c-.5,0-1.02.12-1.52.39l-.69.37c-3.94,2.12-6.42,6.22-6.46,10.7v.11c-.01.72.21,1.36.58,1.89.9,1.27,2.7,1.8,4.23.92"/>
          <path class="uuid-b28298d7-350e-40d5-a6bb-0331bbef196c" d="M58.29,134.43l-.49.28c-1.12.65-2.52-.17-2.51-1.47v-.06c.03-2.34,1.32-4.48,3.38-5.59l.36-.19c.26-.14.53-.2.79-.2.88,0,1.68.7,1.68,1.68,0,2.29-1.22,4.41-3.2,5.55"/>
          <path class="uuid-8ae83fc2-b0a2-468b-af58-ce63a1e9ae10" d="M59.82,127.2c-.26,0-.53.06-.79.2l-.36.19c-2.06,1.11-3.35,3.25-3.37,5.59v.06c-.02,1.3,1.39,2.11,2.51,1.47l.49-.28c1.98-1.14,3.2-3.26,3.2-5.55,0-.97-.8-1.68-1.67-1.68"/>
          <path class="uuid-0741f9f4-4ce4-4509-94d9-e46081e59de6" d="M180.73,92.15c-4.5,2.18-8.94,9.24-7.04,11.98,1.39,2.01,3.95,2.56,3.95,2.56-.37-.52-2.35-2.39-2.34-3.12v-.11c.05-4.48,2.52-8.58,6.47-10.7l.69-.37c.49-.26,1.01-.39,1.52-.39,1.67,0,3.18,1.32,3.21,3.16h0c.18.13.38.23.58.32-.26-2.99-1.96-5.79-7.03-3.33"/>
          <path class="uuid-b28298d7-350e-40d5-a6bb-0331bbef196c" d="M183.97,92c-.5,0-1.02.12-1.52.39l-.69.37c-3.94,2.12-6.42,6.22-6.46,10.7v.11c-.01.72.21,1.37.58,1.89.91,1.27,2.7,1.8,4.23.92l.93-.54c3.25-1.88,5.43-5.12,5.99-8.76.1-.61.14-1.24.14-1.87,0-1.87-1.53-3.21-3.21-3.21M181.14,102.77l-.49.28c-1.12.65-2.52-.17-2.51-1.47v-.06c.03-2.34,1.32-4.48,3.38-5.59l.36-.19c.26-.14.53-.2.79-.2.88,0,1.68.7,1.68,1.68,0,2.29-1.22,4.41-3.2,5.55"/>
          <path class="uuid-8ae83fc2-b0a2-468b-af58-ce63a1e9ae10" d="M182.66,95.54c-.26,0-.53.06-.79.2l-.36.19c-2.06,1.11-3.35,3.25-3.37,5.59v.06c-.02,1.3,1.39,2.11,2.51,1.47l.49-.28c1.98-1.14,3.2-3.26,3.2-5.55,0-.97-.8-1.68-1.68-1.68"/>
          <path class="uuid-b28298d7-350e-40d5-a6bb-0331bbef196c" d="M44.39,128.44l-4.77,1.76v13.53c0,.33.26.59.59.59s.59-.26.59-.59v-12.71l4-1.47c.31-.11.46-.45.35-.75-.11-.31-.45-.46-.75-.35"/>
          <path class="uuid-b28298d7-350e-40d5-a6bb-0331bbef196c" d="M41.3,133.64l-1.88-1.08c-.7-.4-1.56.11-1.56.91v12.95c0,.36.18.69.48.88l1.88,1.21c.69.45,1.61-.05,1.61-.88v-13.08c0-.38-.2-.72-.53-.91"/>
          <path class="uuid-b28298d7-350e-40d5-a6bb-0331bbef196c" d="M6.53,108.74l-4.77,1.76v13.53c0,.33.26.59.59.59s.59-.26.59-.59v-12.71l4-1.47c.31-.11.46-.45.35-.75-.11-.31-.45-.46-.75-.35"/>
          <path class="uuid-b28298d7-350e-40d5-a6bb-0331bbef196c" d="M3.45,113.95l-1.88-1.08c-.7-.4-1.56.11-1.56.91v12.95c0,.36.18.69.48.88l1.88,1.21c.69.45,1.61-.05,1.61-.88v-13.08c0-.38-.2-.72-.53-.91"/>
          <path class="uuid-016a50a2-8431-47a1-9337-88598b81f873" d="M51.7,117.34s-2.96,1.14-7.11,0c-4.15-1.14-.04.56-.04.56l-2.73,21.98-1.99,17.1.15,8.42s1.94,2.78,6.85-1.14l18.58-10.58,3.67-7.94L219.78,58.95V22.3L51.7,117.34ZM63.26,139.42c0,2.99-1.26,5.84-3.47,7.85l-13.51,9.71,3.12-28.34s1.17-5.93,5.31-8.79c4.14-2.85,8.73-5.01,8.73-5.01l-.18,24.59Z"/>
          <polygon class="uuid-8c32ee2b-b21d-41ae-b153-ce45e8211533" points="35.28 92 49.98 100.49 64.67 92 50.08 83.57 35.28 92"/>
          <polygon class="uuid-8c32ee2b-b21d-41ae-b153-ce45e8211533" points="58.11 79.33 72.8 87.82 87.5 79.33 72.9 70.9 58.11 79.33"/>
          <polygon class="uuid-8c32ee2b-b21d-41ae-b153-ce45e8211533" points="143.5 33.46 158.2 41.94 172.89 33.46 158.3 25.03 143.5 33.46"/>
          <polygon class="uuid-8c32ee2b-b21d-41ae-b153-ce45e8211533" points="166.33 20.79 181.02 29.27 195.72 20.79 181.12 12.36 166.33 20.79"/>
          <polygon class="uuid-8707de5f-cea6-4d91-b36b-1e4b9515bc98" points="67.91 141.71 213.53 57.63 213.53 28.49 67.91 112.29 67.91 141.71"/>
          <rect class="uuid-016a50a2-8431-47a1-9337-88598b81f873" x="82.21" y="101.43" width="1.17" height="32.92"/>
          <rect class="uuid-016a50a2-8431-47a1-9337-88598b81f873" x="98.48" y="92.29" width="1.18" height="32.92"/>
          <rect class="uuid-016a50a2-8431-47a1-9337-88598b81f873" x="114.75" y="83.14" width="1.18" height="32.92"/>
          <rect class="uuid-016a50a2-8431-47a1-9337-88598b81f873" x="131.01" y="74" width="1.17" height="32.92"/>
          <rect class="uuid-016a50a2-8431-47a1-9337-88598b81f873" x="147.28" y="64.85" width="1.18" height="32.92"/>
          <rect class="uuid-016a50a2-8431-47a1-9337-88598b81f873" x="163.55" y="55.71" width="1.18" height="32.92"/>
          <rect class="uuid-016a50a2-8431-47a1-9337-88598b81f873" x="212.36" y="28.27" width="1.18" height="32.92"/>
          <rect class="uuid-016a50a2-8431-47a1-9337-88598b81f873" x="196.09" y="37.41" width="1.18" height="32.92"/>
          <rect class="uuid-016a50a2-8431-47a1-9337-88598b81f873" x="179.82" y="46.56" width="1.17" height="32.92"/>
          <path class="uuid-f2a57741-ef44-40a5-8fb9-f7342ef9378c" d="M219.79,65.57v-6.64l-150.78,86.81-3.67,7.93-21.26,12.11c-1.08.62-2.41.61-3.48-.02L1.86,143.23v2.24s39.32,22.47,39.32,22.47c.72.41,1.6.41,2.32,0l176.29-102.36Z"/>
        </g>
      </g>
    </g>
  </g>
</svg>