<?xml version="1.0" encoding="UTF-8"?>
<svg id="uuid-deed53bf-2d8d-4eee-96aa-9846ab4fb7a0" data-name="Calque_2" xmlns="http://www.w3.org/2000/svg" viewBox="0 0 87.45 58.97">
  <defs>
    <style>
      .uuid-8732a6d0-090e-4143-82c0-48171e966f89 {
        fill: #383432;
      }

      .uuid-256d6c81-fa0c-4172-b53c-26223019ebff {
        fill: #eeeeef;
      }

      .uuid-9de715df-46b4-4d78-b3fa-e9d3b54489d1 {
        fill: #fff;
      }

      .uuid-8b9bda04-bae6-45f9-91b7-0b1e2cc7345a {
        fill: #5e7884;
      }

      .uuid-b4b85791-8b0a-4dc2-9e6e-8f141f81bb0e {
        fill: #767371;
      }

      .uuid-41c89811-67fb-40fd-9ba5-fbf7dd2dee67 {
        fill: #e12744;
      }

      .uuid-7d89cfcb-df6d-4efb-ab44-a87e92fb539e {
        fill: #312d2b;
      }

      .uuid-46374fdd-61a4-4317-b101-ca2930d977fb {
        fill: #e3e2e2;
      }

      .uuid-c9a9bcd8-caf5-40aa-ab1e-d2bfbad7e92a {
        fill: #6c8b99;
      }
    </style>
  </defs>
  <g id="uuid-9e7d50f3-1255-469d-a6fe-8763fa558217" data-name="Les_Véhicules">
    <g id="uuid-5d2d1402-97db-4c8a-82d3-b6d4f7ff55dc" data-name="Vehic_x5F_VoitureTourne_x5F_HG">
      <polygon class="uuid-9de715df-46b4-4d78-b3fa-e9d3b54489d1" points="5.83 36.25 19.56 44.17 21.78 42.88 8.05 34.96 5.83 36.25"/>
      <path class="uuid-7d89cfcb-df6d-4efb-ab44-a87e92fb539e" d="M51.83,46.82c4.25.79,9.79,5.67,8.95,8.52-.61,2.08-2.55,3.2-2.55,3.2.17-.55,1.29-2.66,1.1-3.29l-.04-.1c-1.21-3.88-4.31-6.83-8.08-7.7l-.66-.15c-.47-.11-.93-.09-1.34.04-1.37.41-2.27,1.96-1.78,3.58.17.55.37,1.08.61,1.59l-.48.5c-1.19-2.9-1.58-7.27,4.27-6.19"/>
      <path class="uuid-8732a6d0-090e-4143-82c0-48171e966f89" d="M47.43,50.92c.17.55.37,1.08.61,1.59,1.41,3.03,4.05,5.31,7.19,6.13l.91.24c1.48.39,2.8-.52,3.21-1.84.17-.54.18-1.16-.01-1.78l-.03-.1c-1.21-3.88-4.31-6.83-8.08-7.7l-.66-.15c-.47-.11-.93-.09-1.34.04-1.37.41-2.27,1.96-1.78,3.58M50.28,51.96c-.26-.84.21-1.65.93-1.87.22-.07.45-.08.7-.02l.35.08c1.97.45,3.59,1.99,4.22,4.02l.02.05c.35,1.12-.58,2.18-1.67,1.9l-.47-.13c-1.92-.5-3.47-2.04-4.07-4.03"/>
      <path class="uuid-256d6c81-fa0c-4172-b53c-26223019ebff" d="M51.21,50.09c.22-.07.45-.08.7-.02l.35.08c1.97.45,3.59,1.99,4.22,4.02l.02.05c.35,1.12-.58,2.18-1.67,1.89l-.47-.13c-1.92-.5-3.47-2.04-4.07-4.03-.26-.84.21-1.65.93-1.87"/>
      <path class="uuid-7d89cfcb-df6d-4efb-ab44-a87e92fb539e" d="M8.03,34.51c4.25.79,9.79,5.67,8.95,8.52-.61,2.08-2.55,3.2-2.55,3.2.17-.55,1.29-2.66,1.1-3.29l-.03-.1c-1.21-3.88-4.31-6.83-8.08-7.7l-.66-.15c-.47-.11-.93-.09-1.34.04-1.37.41-2.27,1.96-1.78,3.58.17.55.37,1.08.61,1.59l-.48.5c-1.19-2.91-1.58-7.27,4.27-6.19"/>
      <path class="uuid-8732a6d0-090e-4143-82c0-48171e966f89" d="M3.63,38.62c.17.55.37,1.08.61,1.58,1.41,3.03,4.05,5.31,7.19,6.13l.91.24c1.48.39,2.8-.52,3.21-1.84.17-.54.18-1.16-.01-1.78l-.03-.1c-1.21-3.88-4.31-6.83-8.08-7.7l-.66-.15c-.47-.11-.93-.09-1.34.04-1.37.41-2.27,1.96-1.78,3.58M6.48,39.66c-.26-.84.21-1.65.93-1.87.22-.06.45-.08.7-.02l.35.08c1.97.45,3.59,1.99,4.22,4.02l.02.05c.35,1.12-.58,2.18-1.67,1.89l-.47-.13c-1.92-.5-3.47-2.04-4.07-4.03"/>
      <path class="uuid-256d6c81-fa0c-4172-b53c-26223019ebff" d="M7.41,37.79c.22-.07.45-.08.7-.02l.35.08c1.97.45,3.59,1.99,4.22,4.02l.02.05c.35,1.12-.58,2.18-1.67,1.89l-.47-.13c-1.92-.5-3.47-2.04-4.07-4.03-.26-.84.21-1.65.93-1.87"/>
      <path class="uuid-46374fdd-61a4-4317-b101-ca2930d977fb" d="M1.06,26.79c4.42-1.36,8.89-2.51,13.51-3.03.05,0,.09-.02.14-.03,7.5,1.65,14.97,3.58,22.52,4.92,3.58.64,7.21.98,10.75,1.92,1.36.36,3.57.76,5.31,1.46.19.47.45.92.82,1.32,2.54,2.78,6.23,4.93,7.91,8.43,1.84,3.83,3.76,7.63,5.07,11.76-1.74.82-5.1,2.09-6.57,1.29,0,0-6.33-11.36-13.21-6.92,0,0-.88,1.55.26,5.09l-29.63-8.15s-3.25-7.62-8.41-9.83c-2.48-1.07-4.74-.88-6.16,1.35-.65,1.01.41,4.32.41,4.32,0,0-2.93-3.5-3.72-8.81-.19-1.24.34-3.39,1.02-5.1"/>
      <path class="uuid-7d89cfcb-df6d-4efb-ab44-a87e92fb539e" d="M71.27,46.44c4.33-4.36,9.7-11.35,13.33-16.38,1.75-2.43,1.9-4.29,1.56-5.52,2.2,3.2,1.07,5.78.32,7.62-1.82,4.47-12.77,16.74-17.4,20.09-1.83,1.32-5.15,3.71-8.57,2.59,0,0-.67-1.2-1.81-2.67.14,0,.28.02.41.02,5.06.14,8.68-2.25,12.16-5.75"/>
      <path class="uuid-7d89cfcb-df6d-4efb-ab44-a87e92fb539e" d="M65.47,6.37l8.55,7.42c.43.66.82,1.25.17,2.72-1.94,4.41-8.73,11.88-14.12,16.56-1.67,1.45-3.92,2.01-3.92,2.01l-5.58,1.16-3.51-10.64s2.61-1.21,5.54-3.44c9.4-7.14,12.86-15.8,12.86-15.8"/>
      <polygon class="uuid-7d89cfcb-df6d-4efb-ab44-a87e92fb539e" points="48.6 24.44 54.28 35.22 50.57 36.24 16.8 27.42 15.46 23.73 26.61 19.66 48.6 24.44"/>
      <path class="uuid-7d89cfcb-df6d-4efb-ab44-a87e92fb539e" d="M15.23,20.88l9.03-4.45c-.74,2.47,2.35,3.22,2.35,3.22l-6.6,3.07-3.21,4.69c-4.19-3.1-1.57-6.54-1.57-6.54"/>
      <path class="uuid-8b9bda04-bae6-45f9-91b7-0b1e2cc7345a" d="M66.02,8.19c.09-.22,7.08,5.94,7.08,5.94.16,1.6-2.48,5.4-5.63,9.19-2.13,2.56-4.48,5.11-6.35,6.98-2.34,2.33-3.75,2.49-3.75,2.49l-6.13-7.66c7.79-5.43,14.03-15.13,14.78-16.93"/>
      <path class="uuid-c9a9bcd8-caf5-40aa-ab1e-d2bfbad7e92a" d="M69.15,16.68c-.06,0-.12-.02-.18-.02.07,0,.13.02.18.02"/>
      <path class="uuid-c9a9bcd8-caf5-40aa-ab1e-d2bfbad7e92a" d="M61.85,16.19c1.35.05,2.7.12,4.04.21.67.04,1.34.09,2.01.15.51.04,2.41.3,1.25.13.96.13,1.92.26,2.87.41-1.04,1.78-2.71,4-4.55,6.22-.78.93-1.58,1.87-2.39,2.77-2.57-.15-5.13-.29-7.7-.41-1.97-.09-3.93-.17-5.9-.25l-.25-.31c3.57-2.49,6.81-5.87,9.35-8.98.42.01.84.03,1.26.04"/>
      <path class="uuid-8b9bda04-bae6-45f9-91b7-0b1e2cc7345a" d="M48.22,26.83l3.54,6.65c.4.75-1.07,1.8-1.85,1.55l-11.88-3.21,1.21-7.47,8.98,2.48Z"/>
      <polygon class="uuid-8b9bda04-bae6-45f9-91b7-0b1e2cc7345a" points="27.32 21.02 37.28 23.98 34.57 30.95 20.22 27.43 22.19 23.93 27.32 21.02"/>
      <path class="uuid-8732a6d0-090e-4143-82c0-48171e966f89" d="M17.96,21.27c1.83-.71,1.46,1.33,1.46,1.33-.43.23-3.1,1.21-3.1,1.21l.36.96c-2.05,2.65-4.58,1.86-4.1.36.69-2.17,5.38-3.86,5.38-3.86"/>
      <path class="uuid-8b9bda04-bae6-45f9-91b7-0b1e2cc7345a" d="M31.31,3.14l7.87-2.64-4.2,3.33c-2.8,2.22-4.95,5.06-7.14,7.93l-3.57,4.67-9.03,4.44s3.72-5.72,7.08-9.61c4.74-5.51,9-8.13,9-8.13"/>
      <path class="uuid-7d89cfcb-df6d-4efb-ab44-a87e92fb539e" d="M39.18.5l-.82.61-6.5,2.32c-9.23,6.17-15.8,17.21-15.8,17.21l-.82.25C23.25,8.12,31.31,3.14,31.31,3.14l7.87-2.64Z"/>
      <path class="uuid-7d89cfcb-df6d-4efb-ab44-a87e92fb539e" d="M39.18.5s-.56.44-1.67,1.33c-1.85,1.48-5.06,4.23-8.56,8.48-1.42,1.72-2.68,3.63-4.69,6.13l-.64.5s4.98-8.7,13.99-15.56l1.57-.87Z"/>
      <path class="uuid-41c89811-67fb-40fd-9ba5-fbf7dd2dee67" d="M84.34,19.94c.35.69.73,1.66,1.05,2.39l-.27.77-2.66,3.23-1.12-2.04,2.7-3.34.29-1.01Z"/>
      <path class="uuid-41c89811-67fb-40fd-9ba5-fbf7dd2dee67" d="M64.25,44.21l3.07-3.2.93,1.91-3.17,3.39c-.71.92-2.8.44-2.8.44l-.78-2.08c2.2.23,2.75-.47,2.75-.47"/>
      <polygon class="uuid-256d6c81-fa0c-4172-b53c-26223019ebff" points="79.14 31.08 72.27 38.8 71.38 35.87 78.26 27.98 79.14 31.08"/>
      <path class="uuid-9de715df-46b4-4d78-b3fa-e9d3b54489d1" d="M38.74.74C40.09-.06,42.26,0,42.26,0c0,0,9.28,1.8,12.04,2.51,2.6.66,9.37,2.95,9.37,2.95.66.17,1.27.49,1.8.95.4,1.21-.72,2.4-1.12,3.11-2.86,5.05-6.23,8.62-10.08,12.14-1.76,1.61-2.92,2.41-3.71,3.17-.76.74-2.91.12-2.91.12,0,0-17.94-4.58-21.04-5.3-3.1-.72-2.35-3.22-2.35-3.22,4.45-7.7,13.12-14.91,14.48-15.7"/>
      <path class="uuid-b4b85791-8b0a-4dc2-9e6e-8f141f81bb0e" d="M33.96,36.28c.17-1.28,1.78-3.75,1.85-3.85l.29.04c.19-.17-1.72,2.64-1.88,3.86-.15,1.13,1.24,8.97,1.4,9.9l8.76,2.36c0-.37.07-1.25.49-2.21.5-1.14,1.63-2.62,4.16-3.14.63-.13,1.03-.75.92-1.41-.28-1.61-.53-4.67.99-5.82l.3.04c-1.4,1.07-1.31,4.19-1.03,5.74.14.81-.35,1.56-1.11,1.72-4.63.96-4.46,5.08-4.45,5.26v.18s-9.25-2.5-9.25-2.5l-.02-.09c-.07-.36-1.59-8.84-1.42-10.07"/>
      <path class="uuid-b4b85791-8b0a-4dc2-9e6e-8f141f81bb0e" d="M18.22,27.8l.31.08s-1.99,2.26-1.92,4.11c.07,1.81,2.15,8.8,2.39,9.6l16.53,4.61-.06.26-16.6-4.63-.07-.02-.02-.07c-.1-.32-2.35-7.8-2.43-9.75-.07-1.96,1.79-4.1,1.87-4.2"/>
      <path class="uuid-8732a6d0-090e-4143-82c0-48171e966f89" d="M29.81,35.59l2.3.57c.26.06.48.33.49.6,0,.18-.09.32-.24.36-.07.02-.15.02-.23,0l-2.34-.59c-.26-.06-.46-.33-.45-.59,0-.26.22-.41.47-.35"/>
      <path class="uuid-8732a6d0-090e-4143-82c0-48171e966f89" d="M45.42,39.74l2.3.57c.26.06.48.33.49.6,0,.18-.09.32-.24.36-.07.02-.15.02-.23,0l-2.34-.59c-.26-.06-.46-.33-.45-.59,0-.26.22-.41.47-.35"/>
    </g>
  </g>
</svg>