<?xml version="1.0" encoding="UTF-8"?>
<svg id="uuid-52956dc9-43af-4814-9e96-fd591bf964a3" data-name="Calque_2" xmlns="http://www.w3.org/2000/svg" viewBox="0 0 69.98 70.18">
  <defs>
    <style>
      .uuid-8bb4eed0-e2d0-4667-ba98-da04b4cf60df {
        fill: #517092;
      }

      .uuid-53c52787-d113-4278-b570-a9da23db824d {
        fill: #262c37;
      }

      .uuid-eaa46a4a-a407-4c9b-a163-473b19535ff6 {
        fill: #252c35;
      }

      .uuid-3aeb116f-fd93-464a-b508-70358105978c {
        fill: #e37909;
      }

      .uuid-676892b4-ed65-4f15-a902-910da35fcc3d {
        fill: #bf321f;
      }

      .uuid-df4fab40-55a7-4157-9baa-90dc56a2d432 {
        fill: #38485d;
      }

      .uuid-a8f50b82-3e2f-4761-aa76-a10bd8e05bcf {
        fill: #f2f5f6;
      }

      .uuid-7192edad-fbe9-4f95-83e0-5540cf238627 {
        fill: #323e50;
      }

      .uuid-792430d2-56e2-45c0-83b6-583f6a399781 {
        fill: #eae9ea;
      }

      .uuid-f382eff9-d1dd-4379-a371-0d595d9c0030 {
        fill: #ffefa6;
      }

      .uuid-6b10dcff-0215-4cd3-8dec-867023fd751b {
        fill: #2e3848;
      }

      .uuid-cf6ab959-c016-4dd1-b466-c53a959efeb9 {
        fill: #e14030;
      }

      .uuid-69f3cdfa-c6f7-4378-a99b-0b98f9305cd3 {
        fill: #1d1e20;
      }

      .uuid-161ef817-117e-4774-a38e-2d3b3443c0ec {
        fill: #282e39;
      }

      .uuid-73c2ca5d-bf90-4410-b213-b9136aeb6c82 {
        fill: #4c698a;
      }

      .uuid-6bb9f30b-a25d-44f8-888f-09756e6bbb43 {
        fill: #eb6154;
      }

      .uuid-32c2a3af-3c29-4348-88a7-6fa17bc7e9a0 {
        fill: #272d37;
      }

      .uuid-9d313073-2bb0-4c4c-a292-8fe236aa658e {
        fill: #5d81a8;
      }

      .uuid-12910e07-9c09-4f4d-aa77-873713914d46 {
        fill: #f2c500;
      }
    </style>
  </defs>
  <g id="uuid-8d7ea692-d061-4e61-abb1-3174725a98c9" data-name="Les_Véhicules">
    <g id="uuid-bc6f6bde-cc56-4f6d-89cf-348d29175ef8" data-name="Vehic_x5F_Scooter_x5F_HD">
      <path class="uuid-792430d2-56e2-45c0-83b6-583f6a399781" d="M44.6,39.01s.03,0,.04-.02c.13-.06.26-.11.4-.17.06-.03.12-.05.18-.08-1.03.42-.92.38-.62.26"/>
      <polygon class="uuid-69f3cdfa-c6f7-4378-a99b-0b98f9305cd3" points="19.37 49.48 18.92 45.17 21.76 45.14 14.7 44.91 13.03 43.96 13.91 42.13 30.16 44.29 38.14 49.49 28.9 55.78 24.93 52.65 19.37 49.48"/>
      <path class="uuid-eaa46a4a-a407-4c9b-a163-473b19535ff6" d="M17.42,45.33c-1.49-.86-3.54-.74-5.81.59-4.51,2.64-8.14,9.01-8.12,14.23.01,2.61.94,4.44,2.43,5.29l7.33,4.18,11.48-20.12-7.31-4.17Z"/>
      <path class="uuid-eaa46a4a-a407-4c9b-a163-473b19535ff6" d="M60.18,20.31c-1.49-.86-3.54-.74-5.81.59-4.51,2.64-8.14,9.01-8.12,14.23.01,2.61.94,4.44,2.43,5.29l7.33,4.18,11.48-20.12-7.31-4.17Z"/>
      <path class="uuid-32c2a3af-3c29-4348-88a7-6fa17bc7e9a0" d="M52.28,18.89l.82-1.89-.04-6.38-6.94-3.66-3.79,2.5,4.81,6.7c1.81.59,3.63,1.51,5.14,2.73"/>
      <path class="uuid-df4fab40-55a7-4157-9baa-90dc56a2d432" d="M47.49,23.13l-5.41,12.16-6,3.51-6.21-3.54,1.71-5.76,2.35-1.37v-2.34s-3.76-2.89-3.76-2.89c0,0-2.59,1.51-6.23,3.64-3.64,2.13-5.6.7-5.6.7l-9.36,5.47v2.25s-2.44,1.43-2.44,1.43l.02,3.38,2.89,4.05,4.94-2.89,16.85,5.59,12.15-7.1,6.2-14.31c-.27-.78-1.11-1.45-2.1-1.99"/>
      <path class="uuid-73c2ca5d-bf90-4410-b213-b9136aeb6c82" d="M31.09,33.04l3.5-2.58,2.95-3.37-7.36-4.2s-2.59,1.51-6.23,3.64c-3.64,2.13-5.6.7-5.6.7l-9.36,5.47v2.25s16.85-2.81,16.85-2.81l5.25.9Z"/>
      <polygon class="uuid-f382eff9-d1dd-4379-a371-0d595d9c0030" points="23.2 33.48 9 34.96 6.54 36.39 6.56 39.77 9.45 43.82 14.39 40.93 25.84 33.04 23.2 33.48"/>
      <polygon class="uuid-12910e07-9c09-4f4d-aa77-873713914d46" points="53.11 16.99 53.07 10.61 46.13 6.95 43.08 8.96 50.44 13.16 49.38 21.35 42.82 36 38.29 38.83 42.12 40.16 43.39 39.42 53.11 16.99"/>
      <path class="uuid-12910e07-9c09-4f4d-aa77-873713914d46" d="M52.53,18.31c4.45-4.72,7.06-1.52,6.87.38l-1.18.69c-.66-2.08-5.11-.11-6.97,2.1l1.27-3.16Z"/>
      <polygon class="uuid-df4fab40-55a7-4157-9baa-90dc56a2d432" points="11.23 43.21 0 57.26 8.2 43.07 6.58 43.05 7.15 40.6 11.23 43.21"/>
      <polygon class="uuid-73c2ca5d-bf90-4410-b213-b9136aeb6c82" points="18.96 46.77 7.37 61.46 0 57.26 8.2 43.07 14.52 44.8 18.96 46.77"/>
      <polygon class="uuid-161ef817-117e-4774-a38e-2d3b3443c0ec" points="15.59 51.04 18.96 46.77 14.52 44.8 8.2 43.07 6.57 45.9 15.59 51.04"/>
      <polygon class="uuid-7192edad-fbe9-4f95-83e0-5540cf238627" points="18.96 46.77 7.37 61.46 15.57 47.27 13.94 47.25 14.52 44.8 18.96 46.77"/>
      <polygon class="uuid-df4fab40-55a7-4157-9baa-90dc56a2d432" points="6.58 43.05 13.94 47.25 14.52 44.8 7.15 40.6 6.58 43.05"/>
      <polygon class="uuid-12910e07-9c09-4f4d-aa77-873713914d46" points="43.85 8.54 43.8 7.51 45.58 6.47 45.57 4.03 42.88 2.5 40.86 4.09 43.08 8.96 43.85 8.54"/>
      <polygon class="uuid-df4fab40-55a7-4157-9baa-90dc56a2d432" points="43.08 8.96 40.86 4.09 40.24 5.11 42.08 8.93 43.08 8.96"/>
      <path class="uuid-df4fab40-55a7-4157-9baa-90dc56a2d432" d="M27.19,54.81c.03,5.22-3.6,11.59-8.12,14.23s-8.19.54-8.22-4.69c-.03-5.22,3.6-11.59,8.12-14.23,4.51-2.64,8.19-.54,8.22,4.69"/>
      <path class="uuid-a8f50b82-3e2f-4761-aa76-a10bd8e05bcf" d="M22.71,61.68c-5.31,7.87-11.43,4.37-7.36-4.2,5.31-7.86,11.43-4.37,7.36,4.2"/>
      <path class="uuid-df4fab40-55a7-4157-9baa-90dc56a2d432" d="M19.04,61.72c-1.02.59-1.85.12-1.86-1.06,0-1.18.82-2.62,1.83-3.21,1.02-.6,1.85-.12,1.86,1.06,0,1.18-.82,2.62-1.83,3.21"/>
      <path class="uuid-df4fab40-55a7-4157-9baa-90dc56a2d432" d="M69.98,29.8c.03,5.22-3.6,11.59-8.12,14.23s-8.19.54-8.22-4.69c-.03-5.22,3.6-11.59,8.12-14.23,4.51-2.64,8.19-.54,8.22,4.69"/>
      <path class="uuid-a8f50b82-3e2f-4761-aa76-a10bd8e05bcf" d="M65.49,36.68c-5.31,7.87-11.43,4.37-7.36-4.2,5.31-7.86,11.43-4.37,7.36,4.2"/>
      <path class="uuid-df4fab40-55a7-4157-9baa-90dc56a2d432" d="M61.82,36.71c-1.02.59-1.85.12-1.86-1.06s.82-2.62,1.83-3.21c1.02-.6,1.85-.12,1.86,1.06,0,1.18-.82,2.62-1.83,3.21"/>
      <path class="uuid-6b10dcff-0215-4cd3-8dec-867023fd751b" d="M49.7,13.65l3.79-2.5,6.94,3.66.03,6.38-9.71,22.43-12.15,7.1-16.85-5.59-4.94,2.89-2.89-4.05-.02-3.38,2.45-1.43v-2.25s9.35-5.47,9.35-5.47c0,0,1.96,1.43,5.6-.7,3.64-2.13,6.23-3.64,6.23-3.64l3.75,2.89v2.34s-2.34,1.37-2.34,1.37l-1.71,5.75,6.21,3.54,6-3.51,6.1-13.7-.02-4.03-5.82-8.11Z"/>
      <path class="uuid-df4fab40-55a7-4157-9baa-90dc56a2d432" d="M38.95,33.7l2.35-1.37v-2.34s-3.76-2.89-3.76-2.89c0,0-2.59,1.51-6.23,3.64-3.64,2.13-5.6.7-5.6.7l-9.36,5.47v2.25s16.85-2.81,16.85-2.81l5.75-2.65Z"/>
      <polygon class="uuid-12910e07-9c09-4f4d-aa77-873713914d46" points="33.19 34.99 16.36 39.16 13.91 40.59 13.92 43.97 16.82 48.02 21.76 45.13 33.21 37.24 33.19 34.99"/>
      <polygon class="uuid-676892b4-ed65-4f15-a902-910da35fcc3d" points="5.43 39.9 12.79 44.1 12.78 41.25 5.41 37.05 5.43 39.9"/>
      <polygon class="uuid-cf6ab959-c016-4dd1-b466-c53a959efeb9" points="12.79 44.1 13.92 43.44 13.91 40.59 12.78 41.25 12.79 44.1"/>
      <polygon class="uuid-6bb9f30b-a25d-44f8-888f-09756e6bbb43" points="5.41 37.05 6.54 36.39 13.91 40.59 12.78 41.25 5.41 37.05"/>
      <polygon class="uuid-f382eff9-d1dd-4379-a371-0d595d9c0030" points="65.51 20.43 60.15 17.38 58.57 23.49 60.48 23.02 65.51 20.43"/>
      <polygon class="uuid-12910e07-9c09-4f4d-aa77-873713914d46" points="60.47 21.19 60.44 14.81 53.5 11.15 50.44 13.16 56.72 20.78 56.74 25.55 50.18 40.2 45.65 43.03 49.48 44.36 50.76 43.62 60.47 21.19"/>
      <polygon class="uuid-3aeb116f-fd93-464a-b508-70358105978c" points="46.13 6.95 53.07 10.61 60.44 14.81 53.5 11.15 51.22 12.74 46.13 6.95"/>
      <path class="uuid-12910e07-9c09-4f4d-aa77-873713914d46" d="M59.9,22.51c4.45-4.72,7.06-1.52,6.87.38l-1.18.69c-.66-2.08-5.11-.11-6.97,2.1l1.27-3.16Z"/>
      <polygon class="uuid-12910e07-9c09-4f4d-aa77-873713914d46" points="51.22 12.74 51.17 11.71 52.95 10.67 52.93 8.23 50.25 6.7 48.23 8.29 50.44 13.16 51.22 12.74"/>
      <polygon class="uuid-6b10dcff-0215-4cd3-8dec-867023fd751b" points="50.44 13.16 48.23 8.29 47.6 9.31 49.44 13.13 50.44 13.16"/>
      <polygon class="uuid-7192edad-fbe9-4f95-83e0-5540cf238627" points="16.35 36.91 8.98 32.71 9 34.96 16.36 39.16 16.35 36.91"/>
      <polygon class="uuid-9d313073-2bb0-4c4c-a292-8fe236aa658e" points="18.34 27.24 25.71 31.44 16.35 36.91 8.98 32.71 18.34 27.24"/>
      <polygon class="uuid-69f3cdfa-c6f7-4378-a99b-0b98f9305cd3" points="37.71 37.84 37.23 39.45 43.45 43 49.45 39.49 55.54 25.79 55.52 21.76 49.7 13.65 42.34 9.45 48.16 17.56 48.18 21.58 42.08 35.29 37.71 37.84"/>
      <polygon class="uuid-53c52787-d113-4278-b570-a9da23db824d" points="48.16 17.56 55.52 21.76 55.54 25.79 48.18 21.59 48.16 17.56"/>
      <path class="uuid-df4fab40-55a7-4157-9baa-90dc56a2d432" d="M35.76.06c-.17-.1-.41-.08-.67.07-.52.31-.95,1.05-.94,1.65,0,.3.11.52.28.62l6.83,3.9,1.33-2.34L35.76.06Z"/>
      <path class="uuid-eaa46a4a-a407-4c9b-a163-473b19535ff6" d="M34.25,1.24c-.06.18-.11.37-.1.55,0,.3.11.51.28.61l6.83,3.9.46-.8-7.47-4.26Z"/>
      <polygon class="uuid-df4fab40-55a7-4157-9baa-90dc56a2d432" points="49.44 13.13 42.08 8.93 40.24 5.11 47.6 9.31 49.44 13.13"/>
      <polygon class="uuid-a8f50b82-3e2f-4761-aa76-a10bd8e05bcf" points="42.49 8.54 41.48 6.45 47.19 9.7 48.2 11.8 42.49 8.54"/>
      <polygon class="uuid-8bb4eed0-e2d0-4667-ba98-da04b4cf60df" points="47.6 9.31 48.23 8.29 40.86 4.09 40.24 5.11 47.6 9.31"/>
      <polygon class="uuid-f382eff9-d1dd-4379-a371-0d595d9c0030" points="50.25 6.7 42.88 2.5 40.86 4.09 48.23 8.29 50.25 6.7"/>
      <path class="uuid-eaa46a4a-a407-4c9b-a163-473b19535ff6" d="M50.58,9.13c-.1-.06-.25-.05-.41.04-.31.18-.57.63-.57.99,0,.18.06.31.17.37l3.36,1.91.8-1.4-3.36-1.91Z"/>
      <path class="uuid-df4fab40-55a7-4157-9baa-90dc56a2d432" d="M53,9.89c-.17-.1-.41-.08-.67.07-.52.31-.95,1.05-.94,1.65,0,.3.11.51.28.61l5.59,3.19,1.33-2.34-5.59-3.19Z"/>
      <path class="uuid-eaa46a4a-a407-4c9b-a163-473b19535ff6" d="M51.48,11.07c-.06.18-.11.37-.1.55,0,.3.11.51.28.61l5.59,3.19.45-.8-6.22-3.55Z"/>
      <path class="uuid-7192edad-fbe9-4f95-83e0-5540cf238627" d="M58.87,13.7c0,.61-.42,1.35-.94,1.65-.52.31-.95.06-.95-.54,0-.61.42-1.35.94-1.65.52-.31.95-.06.96.54"/>
      <path class="uuid-a8f50b82-3e2f-4761-aa76-a10bd8e05bcf" d="M58.35,14.49c-.62.91-1.33.51-.86-.49.62-.91,1.33-.51.86.49"/>
    </g>
  </g>
</svg>