<?xml version="1.0" encoding="UTF-8"?>
<svg id="uuid-47c83829-1d34-4e17-8531-a5cac736111f" data-name="Calque_2" xmlns="http://www.w3.org/2000/svg" viewBox="0 0 62.04 54.95">
  <defs>
    <style>
      .uuid-daf32956-a5cd-460e-8660-a1fc22ccd72c {
        fill: #c7c4c3;
      }

      .uuid-09fbc0b0-856c-4300-9432-5173a382ca11 {
        fill: #403c3a;
      }

      .uuid-cf40ab8c-4528-49ad-94d4-281d67db5cad {
        fill: #bfcbe1;
      }

      .uuid-72e8362d-d7fa-4686-bf27-d51b4cb8544d {
        fill: #fff;
      }

      .uuid-03d3d6b2-200d-4687-9e6f-5452089e90ae {
        fill: #878482;
      }

      .uuid-142858d1-3ac4-4772-a541-a533073cec60 {
        fill: #4e4a49;
      }

      .uuid-7d5549ee-f359-4bc6-a953-6cea21d226a1 {
        fill: #15130f;
      }

      .uuid-56397d6b-3134-4fd3-a561-9ac8a31defb6 {
        fill: #b7b3b3;
      }

      .uuid-c50acc03-4f63-4452-8469-879b2dfd6ed3 {
        fill: #ef8028;
      }

      .uuid-12d9d42e-d6b6-4913-b880-18fd0605cc22 {
        fill: #fcc84c;
      }

      .uuid-b2406e84-bd3a-4238-ade0-a455143eb742 {
        fill: #ffec74;
      }

      .uuid-1ad75abe-a891-41d8-80ca-420a6d164297 {
        fill: #f4a612;
      }

      .uuid-034211d5-c173-481d-bbac-ee07e3141ff9 {
        fill: #2c2926;
      }
    </style>
  </defs>
  <g id="uuid-68283371-6ef9-4591-9d3a-d66db747dc4a" data-name="Les_Véhicules">
    <g id="uuid-ea5111b3-f70e-42ab-b336-2cfc2997ffef" data-name="Vehic_x5F_Scooter_x5F_BD">
      <path class="uuid-034211d5-c173-481d-bbac-ee07e3141ff9" d="M7.95,14.06h0s.02-.01.02-.01c0,0-.01,0-.02.01"/>
      <path class="uuid-034211d5-c173-481d-bbac-ee07e3141ff9" d="M19.41,33.94h0s.04-.02.05-.03l-.05.03Z"/>
      <path class="uuid-7d5549ee-f359-4bc6-a953-6cea21d226a1" d="M12.61,11.36l.06-.03h0c1.46-.8,3.46-.67,5.66.6,4.49,2.58,8.12,8.88,8.12,14.05,0,2.7-.99,4.55-2.57,5.35l-4.41,2.57L8,14.03l4.56-2.64s.03-.02.05-.03"/>
      <path class="uuid-09fbc0b0-856c-4300-9432-5173a382ca11" d="M13.72,14.6c4.49,2.58,8.12,8.88,8.12,14.06s-3.63,7.28-8.12,4.7c-4.49-2.59-8.12-8.88-8.12-14.06s3.64-7.28,8.12-4.7"/>
      <path class="uuid-03d3d6b2-200d-4687-9e6f-5452089e90ae" d="M17.06,29.3c-.82.6-2.01.58-3.34-.19-2.46-1.41-4.45-4.87-4.45-7.7,0-1.53.58-2.57,1.5-2.99-.7.51-1.12,1.46-1.12,2.77,0,2.84,2,6.29,4.45,7.7,1.14.66,2.17.76,2.96.41"/>
      <path class="uuid-56397d6b-3134-4fd3-a561-9ac8a31defb6" d="M18.17,26.54c0,1.3-.42,2.25-1.11,2.76-.79.36-1.82.25-2.96-.41-2.45-1.42-4.45-4.86-4.45-7.7,0-1.31.42-2.26,1.12-2.77.79-.35,1.82-.24,2.95.41,2.46,1.42,4.45,4.86,4.45,7.7"/>
      <path class="uuid-72e8362d-d7fa-4686-bf27-d51b4cb8544d" d="M14.1,22.75c.48.28.87.95.87,1.51s-.39.78-.87.5c-.48-.28-.87-.95-.87-1.51s.39-.78.87-.5"/>
      <path class="uuid-56397d6b-3134-4fd3-a561-9ac8a31defb6" d="M22.5,3.6c-2.54-1.46-4.84-1.63-6.54-.72h-.02c-.06.05-.13.08-.19.12l-3.75,2.16,1.22,2.1c-.09.55-.14,1.14-.14,1.78,0,.81,14.77,15.31,14.77,15.31l3.83-2.21c.14-.67.22-1.42.22-2.23,0-6-4.21-13.3-9.41-16.3"/>
      <path class="uuid-03d3d6b2-200d-4687-9e6f-5452089e90ae" d="M9.47,13.73c-.14-.84-.22-1.68-.22-2.48,0-6,4.22-8.43,9.42-5.43,5.2,3,9.41,10.3,9.41,16.3,0,.81-.08,1.55-.22,2.23L9.47,13.73Z"/>
      <polygon class="uuid-b2406e84-bd3a-4238-ade0-a455143eb742" points="32.86 36.87 21.36 30.23 22.44 27.47 27.61 24.48 32.26 23.94 43.76 30.58 32.86 36.87"/>
      <path class="uuid-1ad75abe-a891-41d8-80ca-420a6d164297" d="M33,12.33c-1.23-.71-15.14-8.74-15.14-8.74,0,0-3.27-1.89-6.12-.18l-5.46,3.16,17.05,19.81,4.37,2.6,5.3-1v-2.07l-.08-.09c-.78-.92-7.06-5.56.08-13.49"/>
      <path class="uuid-12d9d42e-d6b6-4913-b880-18fd0605cc22" d="M12.56,6.65s13.9,8.03,15.14,8.74c-7.59,8.44,0,13.58,0,13.58v1.68C4.55,17.29,5.73,17.98,2.31,15.99c0-7.87,1.84-8.04,3.97-9.43,2.88-1.88,6.28.08,6.28.08"/>
      <path class="uuid-7d5549ee-f359-4bc6-a953-6cea21d226a1" d="M32.56,9.73L17.86.17c-.25-.17-.49-.21-.66-.13l-5.36,3.09,16.11,12.05,5.27-3.04c.17-.1.28-.31.28-.61v-.07c0-.6-.43-1.38-.95-1.73"/>
      <path class="uuid-09fbc0b0-856c-4300-9432-5173a382ca11" d="M11.61,3.7c0-.6.43-.81.95-.47l14.7,9.56c.52.35.95,1.12.95,1.73v.07c0,.6-.43.85-.95.55L12.56,6.65c-.52-.3-.95-1.04-.95-1.64v-1.31Z"/>
      <polygon class="uuid-12d9d42e-d6b6-4913-b880-18fd0605cc22" points="27.7 28.97 30.87 30.81 35.67 35.26 27.7 30.65 26.99 29.24 27.7 28.97"/>
      <polygon class="uuid-1ad75abe-a891-41d8-80ca-420a6d164297" points="40.97 32.19 35.66 35.26 30.87 30.81 36.17 27.75 40.97 32.19"/>
      <polygon class="uuid-b2406e84-bd3a-4238-ade0-a455143eb742" points="30.87 30.81 27.7 28.97 33 25.91 36.17 27.75 30.87 30.81"/>
      <polygon class="uuid-c50acc03-4f63-4452-8469-879b2dfd6ed3" points="33.3 38.11 44.2 31.82 53.17 22.72 52.48 21.74 42.27 29.01 36.71 33.47 33.3 38.11"/>
      <path class="uuid-56397d6b-3134-4fd3-a561-9ac8a31defb6" d="M13.25,8.94c-2.54-1.47-4.84-1.64-6.54-.73h-.02c-.07.05-.13.08-.19.12l-3.75,2.16,1.22,2.1c-.09.55-.14,1.14-.14,1.78,0,.81,14.77,15.31,14.77,15.31l3.83-2.21c.14-.68.22-1.42.22-2.23,0-6-4.22-13.3-9.41-16.3"/>
      <path class="uuid-03d3d6b2-200d-4687-9e6f-5452089e90ae" d="M.22,19.07c-.14-.84-.22-1.68-.22-2.48,0-6,4.21-8.43,9.42-5.43,5.2,3,9.41,10.3,9.41,16.3,0,.81-.08,1.55-.22,2.23L.22,19.07Z"/>
      <path class="uuid-7d5549ee-f359-4bc6-a953-6cea21d226a1" d="M46.28,13.55h0c0,.17-.11.34-.33.46-.44.26-1.17.26-1.61,0-.23-.13-.34-.31-.33-.49v-6.59s2.27,0,2.27,0v6.6h0Z"/>
      <path class="uuid-09fbc0b0-856c-4300-9432-5173a382ca11" d="M45.95,7.4c-.44.26-1.17.26-1.61,0-.45-.26-.45-.67,0-.93.44-.26,1.17-.26,1.61,0,.44.26.45.67,0,.93"/>
      <path class="uuid-7d5549ee-f359-4bc6-a953-6cea21d226a1" d="M54.76,1c0-.3-.21-.65-.46-.79-.13-.08-.25-.08-.33-.03l-3.89,2.22.65,1.13,3.82-2.2h0c.13-.02.21-.14.21-.33"/>
      <path class="uuid-142858d1-3ac4-4772-a541-a533073cec60" d="M50.88,3.23c0,.29-.2.41-.46.27-.25-.14-.46-.5-.46-.8s.21-.41.46-.26c.25.14.46.5.46.79"/>
      <path class="uuid-56397d6b-3134-4fd3-a561-9ac8a31defb6" d="M50.88,3.23c0-.29-.21-.65-.46-.79-.13-.08-.25-.08-.33-.03l-2.35,1.36.64,1.11,2.35-1.35s0,0,0,0h0c.08-.06.13-.16.13-.3"/>
      <path class="uuid-daf32956-a5cd-460e-8660-a1fc22ccd72c" d="M48.54,4.58c0,.29-.21.41-.46.27-.25-.14-.46-.5-.46-.8s.21-.41.46-.26c.25.15.46.5.46.79"/>
      <path class="uuid-1ad75abe-a891-41d8-80ca-420a6d164297" d="M47.14,2.86h0c.21-.12.51-.1.83.08.66.38,1.19,1.3,1.19,2.06,0,.4-.14.67-.38.78l-6.77,3.91-1.68-2.91,6.79-3.92s0,0,0,0"/>
      <path class="uuid-12d9d42e-d6b6-4913-b880-18fd0605cc22" d="M41.18,6.87c.66.38,1.19,1.3,1.19,2.06s-.53,1.07-1.19.69c-.66-.38-1.19-1.3-1.19-2.06s.53-1.07,1.19-.69"/>
      <path class="uuid-09fbc0b0-856c-4300-9432-5173a382ca11" d="M51.83,8.98l.16-.14-.85-.49c-.69-.37-1.61-.3-2.63.29l-3.31,1.91c-2.09,1.21-3.8,4.16-3.8,6.58v11.4l.86.5,10.04-18.18c0-.77-.18-1.39-.48-1.85"/>
      <path class="uuid-1ad75abe-a891-41d8-80ca-420a6d164297" d="M53.17,22.72l-10.9,6.29v-11.4c0-2.41,1.71-5.37,3.8-6.57l3.31-1.91c2.09-1.2,3.8-.22,3.8,2.19v11.4Z"/>
      <path class="uuid-12d9d42e-d6b6-4913-b880-18fd0605cc22" d="M46.51,5.07c-1.42,0-2.57,1.16-2.57,2.58s1.15,2.58,2.57,2.58,2.58-1.16,2.58-2.58-1.16-2.58-2.58-2.58"/>
      <path class="uuid-1ad75abe-a891-41d8-80ca-420a6d164297" d="M48.17,6.35c-1.15.66-2.07,2.26-2.07,3.59s.92,1.85,2.07,1.2c1.15-.66,2.07-2.28,2.07-3.59s-.93-1.86-2.07-1.2"/>
      <path class="uuid-b2406e84-bd3a-4238-ade0-a455143eb742" d="M47.36,5.88c-1.14.65-2.07,2.27-2.07,3.59,0,.7.25,1.18.67,1.37l.75.43c-.37-.21-.6-.68-.6-1.34,0-1.33.92-2.93,2.07-3.59.54-.31,1.03-.35,1.4-.18l-.75-.43c-.37-.22-.89-.18-1.47.15"/>
      <path class="uuid-b2406e84-bd3a-4238-ade0-a455143eb742" d="M49.3,6.68c.23.2.38.54.38.99,0,1.06-.75,2.35-1.67,2.87-.43.25-.82.29-1.11.14.3.26.76.26,1.28-.04.91-.53,1.66-1.81,1.66-2.86,0-.56-.21-.94-.54-1.1"/>
      <path class="uuid-cf40ab8c-4528-49ad-94d4-281d67db5cad" d="M48.17,6.82c-.92.52-1.66,1.81-1.66,2.87,0,.46.15.79.38.99.3.15.69.11,1.11-.14.92-.53,1.67-1.81,1.67-2.87,0-.45-.15-.8-.38-.99-.3-.14-.69-.11-1.12.14"/>
      <path class="uuid-56397d6b-3134-4fd3-a561-9ac8a31defb6" d="M41.66,8.55c0-.29-.21-.65-.46-.79-.13-.08-.25-.08-.33-.02h0s-2.12,1.23-2.12,1.23l.59,1.15,2.18-1.26s0,0,0,0h0c.08-.05.13-.15.13-.3"/>
      <path class="uuid-7d5549ee-f359-4bc6-a953-6cea21d226a1" d="M39.55,9.78c0-.29-.2-.65-.46-.79-.13-.08-.25-.08-.34-.03l-3.88,2.22.65,1.12,3.82-2.2h0c.12-.02.21-.14.21-.33"/>
      <path class="uuid-09fbc0b0-856c-4300-9432-5173a382ca11" d="M35.67,12.01c0,.29-.21.41-.46.26-.25-.14-.46-.5-.46-.79s.21-.41.46-.27c.25.15.46.5.46.8"/>
      <polygon class="uuid-09fbc0b0-856c-4300-9432-5173a382ca11" points="41.58 28.03 32.86 36.87 21.36 30.23 21.36 31.22 33.3 38.11 42.27 29.01 41.58 28.03"/>
      <path class="uuid-034211d5-c173-481d-bbac-ee07e3141ff9" d="M43.45,34.55h0s.02-.01.02-.01c0,0-.01,0-.02.01"/>
      <path class="uuid-7d5549ee-f359-4bc6-a953-6cea21d226a1" d="M48.11,31.86l.05-.03h0c1.46-.8,3.46-.66,5.66.6,4.49,2.58,8.12,8.88,8.12,14.05,0,2.7-.99,4.55-2.56,5.35l-4.41,2.57-11.48-19.88,4.56-2.64s.03-.02.05-.03"/>
      <path class="uuid-09fbc0b0-856c-4300-9432-5173a382ca11" d="M49.23,35.09c4.49,2.58,8.12,8.88,8.12,14.06s-3.63,7.28-8.12,4.7c-4.49-2.58-8.12-8.88-8.12-14.06s3.64-7.28,8.12-4.7"/>
      <path class="uuid-03d3d6b2-200d-4687-9e6f-5452089e90ae" d="M52.57,49.8c-.82.6-2.01.58-3.34-.19-2.46-1.41-4.45-4.87-4.45-7.7,0-1.53.58-2.57,1.5-2.98-.7.5-1.12,1.46-1.12,2.76,0,2.84,2,6.29,4.45,7.7,1.14.66,2.17.76,2.96.41"/>
      <path class="uuid-56397d6b-3134-4fd3-a561-9ac8a31defb6" d="M53.68,47.04c0,1.3-.42,2.25-1.11,2.76-.79.36-1.82.25-2.96-.41-2.45-1.41-4.45-4.86-4.45-7.7,0-1.31.42-2.26,1.12-2.76.78-.35,1.82-.24,2.95.41,2.46,1.42,4.45,4.86,4.45,7.7"/>
      <path class="uuid-72e8362d-d7fa-4686-bf27-d51b4cb8544d" d="M49.6,43.25c.48.28.87.95.87,1.51s-.39.78-.87.5c-.48-.28-.87-.95-.87-1.51s.39-.78.87-.5"/>
      <path class="uuid-b2406e84-bd3a-4238-ade0-a455143eb742" d="M62.04,42.59c-1.22-4.08-4.37-8.6-7.93-10.65-2.91-1.68-4.87-1.66-6.18-.9l-4.72,2.72,14.15,11.53,4.68-2.7Z"/>
      <path class="uuid-12d9d42e-d6b6-4913-b880-18fd0605cc22" d="M40.56,39.46s.32-9.75,8.87-4.82c3.56,2.06,6.7,6.57,7.93,10.65-13.2-7.62-4.53,1.25-16.8-5.83"/>
      <path class="uuid-1ad75abe-a891-41d8-80ca-420a6d164297" d="M49.81,33.13l1.69-.97c-2.07-3.82-2.85-14.88-2.85-14.88l-1.69.97s.46,7.93.46,8.32c.25,4.47,2.39,6.56,2.39,6.56"/>
      <path class="uuid-12d9d42e-d6b6-4913-b880-18fd0605cc22" d="M43.21,33.77l1.44-.83h0c1.14-.73,2.78-.9,5.16.19-2.07-3.82-2.85-14.88-2.85-14.88v8.06l-4.97,5.04.15,3.37c.3-.37.65-.69,1.07-.94"/>
    </g>
  </g>
</svg>