<?xml version="1.0" encoding="UTF-8"?>
<svg id="uuid-f725cdf5-503b-445a-a62b-44d8bac24c23" data-name="Calque_2" xmlns="http://www.w3.org/2000/svg" xmlns:xlink="http://www.w3.org/1999/xlink" viewBox="0 0 109.66 80.02">
  <defs>
    <style>
      .uuid-0c163705-7edd-4ba1-8e65-72d15823b422 {
        fill: #212821;
      }

      .uuid-13145d4e-ad6b-4f50-b936-26ddab2ca70f {
        opacity: .63;
      }

      .uuid-318b0fab-51f1-4ad1-a37f-46ae87d53276 {
        clip-path: url(#uuid-71796f2f-31c5-4608-a56f-d393af21959f);
      }

      .uuid-e6f6000a-1296-425a-b0c9-18b927f61473 {
        fill: #43524a;
      }

      .uuid-294c906a-50ae-41d3-ab12-5963aa27f6af {
        fill: #0b6b5e;
      }

      .uuid-2951b14a-460f-4657-81a2-6fe49fc401f5 {
        fill: #dbeffa;
      }

      .uuid-2ccf4427-1407-4f5a-bdff-a60d4617f98d {
        fill: #fff;
      }

      .uuid-6abb60d6-b0ea-4dd0-95ed-5cd90ef21d8b {
        fill: #2b2422;
      }

      .uuid-2d6b99c4-d65c-457a-bf76-2889c96d19d6, .uuid-040cad97-8c48-4726-a328-278acb5df934 {
        fill: none;
      }

      .uuid-15a7118a-e18c-43ff-b9d0-04f6a8131415 {
        fill: #2c3931;
      }

      .uuid-99c7fee0-d71d-45f0-88a6-fa365ab6f6c3 {
        fill: #b6cfd9;
      }

      .uuid-8f83fbe6-6784-4030-a6d7-0bd21ac53ad4 {
        clip-path: url(#uuid-4bcd12b3-affd-42b0-bd6d-e7ba82988476);
      }

      .uuid-aee86961-5f91-452d-9704-b553a5383074 {
        fill: #9aa09a;
      }

      .uuid-a19e3278-3a9e-4b43-8b26-ec495c2d953e {
        fill: #08a291;
      }

      .uuid-b33286c4-fe55-416a-818f-67c8a0eb7876 {
        fill: #58625c;
      }

      .uuid-eb5d0bd0-dc71-47d8-be1c-829b3061929a {
        clip-path: url(#uuid-1e6ff65e-f793-408c-ace6-b999f38223c0);
      }

      .uuid-907ecb9a-e147-4cde-865b-b9dfc7267ee6 {
        fill: #c9cbc9;
      }

      .uuid-040cad97-8c48-4726-a328-278acb5df934 {
        stroke: #fff;
        stroke-linecap: round;
        stroke-miterlimit: 10;
        stroke-width: 1.24px;
      }

      .uuid-f3dd64b8-6408-4fd1-82b5-266381000cb6 {
        fill: #009487;
      }

      .uuid-064bc136-7127-4f1b-9e1a-4563fb67f5fa {
        clip-path: url(#uuid-975c1f2f-90cf-4041-bcf2-190b237d3fbf);
      }

      .uuid-dccfa72f-9da5-4407-a026-e8dc66b5ba06 {
        fill: #e42826;
      }

      .uuid-b50d1956-1651-4782-a86c-b6fb48e432a2 {
        fill: #0c5d4f;
      }

      .uuid-df088566-384a-4e36-ac4a-310616e30b9f {
        fill: #006b5e;
      }
    </style>
    <clipPath id="uuid-71796f2f-31c5-4608-a56f-d393af21959f">
      <rect class="uuid-2d6b99c4-d65c-457a-bf76-2889c96d19d6" x="6.06" y="34.58" width="7.47" height="10.33"/>
    </clipPath>
    <clipPath id="uuid-975c1f2f-90cf-4041-bcf2-190b237d3fbf">
      <rect class="uuid-2d6b99c4-d65c-457a-bf76-2889c96d19d6" x="6.06" y="34.58" width="7.47" height="10.33"/>
    </clipPath>
    <clipPath id="uuid-4bcd12b3-affd-42b0-bd6d-e7ba82988476">
      <rect class="uuid-2d6b99c4-d65c-457a-bf76-2889c96d19d6" x="59.18" y="64.94" width="7.75" height="10.06"/>
    </clipPath>
    <clipPath id="uuid-1e6ff65e-f793-408c-ace6-b999f38223c0">
      <rect class="uuid-2d6b99c4-d65c-457a-bf76-2889c96d19d6" x="59.18" y="64.94" width="7.75" height="10.06"/>
    </clipPath>
  </defs>
  <g id="uuid-691f3bc9-73c4-4cff-86af-56e2b3edda64" data-name="Les_Véhicules">
    <g id="uuid-deb6d96c-3b9b-4789-a82f-1b091928385b" data-name="Vehic_x5F_VoitureRapide_x5F_BD">
      <path class="uuid-294c906a-50ae-41d3-ab12-5963aa27f6af" d="M83.06,25.62s1.39-3.03,2.5-2.77c1.11.26,1.1,2.58,1.07,3.3-.06,1.59-1.3,4.71-1.3,4.71,0,0,.62,1.5-1.65-.78-2.32-2.32-.63-4.47-.63-4.47"/>
      <path class="uuid-f3dd64b8-6408-4fd1-82b5-266381000cb6" d="M71.53,17s-11.79-7.77-19.97-11.12c-8.17-3.35-13.8-5.09-15.14-5.36-1.34-.27-4.96-1.21-9.38.4-4.42,1.61-14.35,7.06-18.36,9.58-4.15,2.61-5.09,4.09-5.9,5.43-.8,1.34-1.61,4.89-1.61,4.89,0,0-.6.6-.87,2.21-.27,1.61-.4,2.61-.27,3.68.13,1.07.54,1.47.6,2.41.13,1.78-.58,3.01,1.3,5.43.1.13,1.14.72,1.07-.62-.11-2.04.8-5.76,5.14-2.99,2.41,1.54,6.9,6.97,8.06,14.07.18,1.13,1.2,1.72,1.78,2.08,14.68,9.02,36.11,20.3,36.11,20.3,0,0,.75.48,1.27.54.67.08,4.27-2.23,4.27-2.23l10.74,8.73s.32.17.42.96c.09.72.69,2.7,1.25,3.17.42.35,1.7,1.07,4.76,1.43,1.39.16,5.83-.2,9.51-.67,4.61-.59,10.64-2.62,14.07-4.49,4.56-2.48,6.43-5.9,7.91-8.51,1.65-2.93.87-3.82.87-3.82,0,0,.51-1.42.27-2.21-.27-.87.07-2.28.2-5.16.04-.96-.76-4.3-1.74-6.03-2.28-4.02-5.29-6.77-8.91-9.31-3.62-2.55-9.51-6.83-9.51-6.83,0,0-10.45-10.18-17.95-15.94"/>
      <path class="uuid-e6f6000a-1296-425a-b0c9-18b927f61473" d="M9.47,10.02c-1.67,1.36-3.22,3.02-3.06,3.9.18.98,1.07.62,3.39-.36,2.32-.98,3.22-1.61,3.22-1.61,0,0-.18-1.25,1.07-3.3.4-.66,2.05-2.06,3.45-3.19-3.05,1.63-6.05,3.33-8.07,4.56"/>
      <path class="uuid-e6f6000a-1296-425a-b0c9-18b927f61473" d="M45.72,29.46s10.18-4.2,15.36-6.88c5.18-2.68,9.56-5.54,9.56-5.54,0,0,12.06,9.74,14.65,12.51,2.59,2.77,4.02,3.93,4.02,3.93,0,0-2.05,3.93-10.18,8.13-6.96,3.59-15.99,6.7-18.22,7.06-1.51.24-2.05.45-3.04-.71-.98-1.16-4.11-6.34-6.34-9.74-2.23-3.39-5.81-8.75-5.81-8.75"/>
      <path class="uuid-e6f6000a-1296-425a-b0c9-18b927f61473" d="M52.78,48.88s1.38.36-.36-4c-.95-2.37-5.63-10.07-8.93-14s-7.68-6.25-9.83-7.59c-2.14-1.34-2.5-1.43-6.97-3.57-4.47-2.14-9.65-2.23-11.88-2.14-2.23.09-4.2.27-4.73.45-.54.18-.89.54-.09,1.34.8.8,12.51,9.11,17.51,12.59,5,3.48,19.93,13.39,21.84,14.78,1.65,1.2,2.9,2.05,3.44,2.14"/>
      <path class="uuid-df088566-384a-4e36-ac4a-310616e30b9f" d="M109.18,62.49s.51-1.42.27-2.21c-.27-.87.07-2.27.2-5.14-.25.78-.63,1.66-1.23,2.64-2.5,4.11-4.53,6.08-8.13,8.49-4.18,2.79-14.31,4.99-19.92,4.11-3.28-.51-4.6-.72-6.8-3.76-2.01-2.78-3.01-4.52-3.01-4.52,0,0-25.11-15.3-33.86-21.01-8.75-5.72-26.26-17.15-29.48-19.65-3.21-2.5-3.66-3.66-4.02-4.55-.11-.28-.2-.71-.26-1.17-.05.08-.1.16-.14.23-.8,1.34-1.61,4.89-1.61,4.89,0,0-.6.6-.87,2.21-.27,1.61-.4,2.61-.27,3.68.13,1.07.54,1.47.6,2.41.13,1.78-.58,3.01,1.3,5.43.1.13,1.15.72,1.07-.62-.11-2.04.8-5.76,5.14-2.99,2.41,1.54,6.9,6.97,8.06,14.07.18,1.13,1.2,1.72,1.78,2.08,14.68,9.02,36.11,20.3,36.11,20.3,0,0,.85.52.97.48.62-.26-.12-1.06.02-3.15.4-6.24,5.69-4.64,8.71-1.87,4.32,3.96,5.76,8.57,6.48,10.58.22.63.52,1.62.62,2.41.09.72-.04,1.94.96,2.68.44.33,2.03,1.16,4.96,1.47,1.39.15,6.16,0,9.85-.74,4.24-.85,8.43-1.48,13.47-4.22,4.55-2.48,6.7-6.1,8.17-8.71,1.65-2.93.87-3.82.87-3.82"/>
      <polyline class="uuid-2d6b99c4-d65c-457a-bf76-2889c96d19d6" points="109.65 15.69 0 15.69 0 80.02"/>
      <polyline class="uuid-2d6b99c4-d65c-457a-bf76-2889c96d19d6" points="109.65 15.69 0 15.69 0 80.02"/>
      <path class="uuid-15a7118a-e18c-43ff-b9d0-04f6a8131415" d="M105.97,63.36s-2.92,3.13-6.1,4.82c-4.02,2.14-6.32,2.7-8.33,3.3s-3.39.65-2.99,1.18c.4.54,1.01,1.47,2.41,1.41,1.41-.07,6.63-1.47,8.78-2.81,2.14-1.34,2.08-1.27,3.75-2.95.94-.94,1.23-1.33,1.94-2.61.67-1.21,1.07-2.88.54-2.35"/>
      <path class="uuid-e6f6000a-1296-425a-b0c9-18b927f61473" d="M105.63,52.84s-3.95,4.96-8.04,7.03c-4.78,2.43-13.47,4.29-13.47,4.29l3.35,3.75s3.62-.2,7.3-1.47c3.68-1.27,5.63-2.01,7.84-4.22,2.21-2.21,4.15-5.43,4.15-5.43l-1.14-3.95Z"/>
      <path class="uuid-99c7fee0-d71d-45f0-88a6-fa365ab6f6c3" d="M97.6,59.87c-4.79,2.43-13.47,4.29-13.47,4.29l1.51,1.69c1.93-.22,5.84-.76,8.81-1.82,3.67-1.32,5.56-2.01,7.77-4.22,2.21-2.21,3.82-5.09,3.82-5.09l-.51-1.75c-.61.75-4.22,5.02-7.94,6.91"/>
      <path class="uuid-e6f6000a-1296-425a-b0c9-18b927f61473" d="M87.81,75.48s-3.82.67-6.43.87c-2.61.2-4.82-.07-5.43-.4-.6-.34-.67-.47-.2-1.21s1.41-1.34,2.28-1.47c.87-.13,5.89.2,6.9.27,1,.07,1.94.27,3.08,1.14,1.14.87,1.74,1.27,1.74,1.27l-1.94-.47Z"/>
      <path class="uuid-15a7118a-e18c-43ff-b9d0-04f6a8131415" d="M108.31,66.3c1.65-2.93.87-3.82.87-3.82,0,0,.06-.17.13-.42-.4.79-.98,1.85-1.8,3.3-2.68,4.69-5.96,7.24-12.33,9.65-3.79,1.44-16.4,3.43-19.85,2.61-1.61-.38-3.32-1.15-4.44-1.89,0,.03.01.06.01.08.09.71-.04,1.94.96,2.68.45.33,1.98,1.24,4.96,1.47,1.4.11,6.16,0,9.85-.74,4.24-.85,8.43-1.48,13.47-4.22,4.55-2.48,6.7-6.1,8.17-8.71"/>
      <path class="uuid-15a7118a-e18c-43ff-b9d0-04f6a8131415" d="M109.54,56.92l-2.16,6.97,2.03-3.8c-.13-.66,0-1.61.13-3.18"/>
      <path class="uuid-2951b14a-460f-4657-81a2-6fe49fc401f5" d="M3.44,14.93c-.25.35-.45.67-.64.99-.8,1.34-1.61,4.89-1.61,4.89,0,0-.09.09-.21.29.68.04,1.57.04,2.49-.14,1.88-.36,2.14-.54,2.41-1.07.36-.72.27-1.7-.98-3.57-.52-.77-1.03-1.18-1.46-1.39"/>
      <path class="uuid-15a7118a-e18c-43ff-b9d0-04f6a8131415" d="M48.51,46.03l1.82.02s.13-.64.16-1.12c.12-2.24.52-3.06.79-2.45.47,1.07.47.67,1.47,3.22.81,2.05.98,3.59-.2,3.22-.47-.15-1.68-1.1-1.68-1.1l-2.57-.11.21-1.67Z"/>
      <path class="uuid-b50d1956-1651-4782-a86c-b6fb48e432a2" d="M46.91,44.03s-4.99,1.84-4.99,2.98,1.57,1.14,2.28,1.28c1.57.31,5.76-.03,5.76-.03,0,0,1.24-.11-.48-2.82-1.34-2.1-2.57-1.41-2.57-1.41"/>
      <path class="uuid-a19e3278-3a9e-4b43-8b26-ec495c2d953e" d="M49.48,45.44c-1.34-2.1-2.57-1.41-2.57-1.41,0,0-3.91,1.44-4.81,2.56.29.92,1.7.75,2.39.79,1.47.1,5.11-.65,5.64-.76-.14-.33-.35-.71-.65-1.19"/>
      <path class="uuid-2951b14a-460f-4657-81a2-6fe49fc401f5" d="M71.47,62.69s-1.14-1.88.07-2.61c.38-.24,4.96.87,7.64,1.47,2.68.6,6.43,2.61,7.64,4.35,1.21,1.74,1.14,2.41.34,2.48-.8.07-5.69.67-7.57.6-1.88-.07-3.55-.54-5.23-2.41-1.67-1.88-2.88-3.89-2.88-3.89"/>
      <path class="uuid-2951b14a-460f-4657-81a2-6fe49fc401f5" d="M103.8,46.16c-.4-1.21-.74-2.14-.4-2.34.34-.2.69-.09,1.97,1.52,1.27,1.61,3.28,4.62,3.42,5.96.13,1.34.13,2.35-.47,3.62-.6,1.27-1.81,3.02-1.81,3.02,0,0-.4.67-.54-1.01-.14-1.67-.73-6.46-2.17-10.77"/>
      <path class="uuid-f3dd64b8-6408-4fd1-82b5-266381000cb6" d="M28.13,32.46c-.74-.57-.68-1.12-.57-1.84.34-2.14,1.21-5.06,1.67-6.67.33-1.12.54-1.39.67-1.71.4-1,1.51-.27,1.51-.27l-3.38-1.68s.63.43.43,1.07c-.5,1.67-.92,2.63-1.41,4.45-.48,1.82-.96,3.48-1.1,4.22-.14.67-.84.3-.84.3l3.02,2.11Z"/>
      <path class="uuid-6abb60d6-b0ea-4dd0-95ed-5cd90ef21d8b" d="M52.29,65.26h0c-.25,0-.47-.13-.48-.13-.14-.07-3.46-1.87-4-2.19-.27-.16-1.71-.97-3.7-2.08-5.57-3.11-14.88-8.33-15.55-8.92-.92-.83-2.64-5.75-3.12-7.91-1.22-5.41-.66-9.93-.4-10.72.26-.77,1.13-1.85,1.28-2.03.14-.53,2.14-8.08,2.65-9.63.28-.83.53-1.43,1.28-1.43.55,0,1.38.33,2.93,1.17,3.24,1.76,10.43,7.48,11.83,9.23,1.48,1.84,8.93,13.44,9.29,14.61.51,1.65.52,3.73.02,4.83-.16.36-.35.62-.53.88-.3.43-.57.81-.62,1.58-.09,1.23-.18,11.59-.18,11.69-.01.91-.45,1.05-.71,1.05M30.26,20.49c-.53,0-.73.37-1.03,1.24-.53,1.58-2.63,9.56-2.65,9.64l-.03.05s-.99,1.2-1.25,1.96c-.26.78-.8,5.22.41,10.58.47,2.08,2.17,6.98,3.04,7.77.64.58,10.31,5.99,15.5,8.89,1.99,1.12,3.43,1.92,3.71,2.08.53.32,3.96,2.17,3.99,2.19,0,0,.17.1.35.1.28,0,.43-.26.44-.78,0-.43.09-10.47.18-11.71.06-.84.36-1.26.67-1.71.17-.24.35-.49.5-.83.41-.9.51-2.89-.03-4.64-.35-1.15-7.78-12.68-9.24-14.52-1.39-1.74-8.53-7.42-11.75-9.17-1.49-.81-2.3-1.14-2.8-1.14"/>
      <path class="uuid-0c163705-7edd-4ba1-8e65-72d15823b422" d="M16.98,43.84c-.61-2.75-1.29-4.86-3.84-8.7-3.21-4.82-6.75-6.26-9.32-4.86-2.47,1.35-1.46,4.58-1.46,4.58,0,0,.23.57,1.44.27.26-.07,1.14-.6,1.14-.6,1.97,1.4,7.75,9.66,12.41,11.86-.1-.83-.16-1.54-.38-2.54"/>
      <path class="uuid-e6f6000a-1296-425a-b0c9-18b927f61473" d="M8.71,30.69s-1.98-.92-3.78.95c-1.96,2.04-2.09,5.21-.92,8.67,1.17,3.46,3.31,5.95,5.39,7.31,2.08,1.35,3.88,1,4.94.83,1.6-.26,3.01-2.08,3.01-2.08,0,0-.29-6.85-4.91-12.33-2.07-2.46-3.74-3.35-3.74-3.35"/>
      <path class="uuid-907ecb9a-e147-4cde-865b-b9dfc7267ee6" d="M9.99,34.63c2,1.61,3.65,5.86,3.88,7.91.23,2.05-.39,3.43-1.78,4.04-1.39.61-4.28-.74-5.95-3.54-1.66-2.81-1.95-5.66-1.68-7,.35-1.75,1.62-4.56,5.53-1.41"/>
      <path class="uuid-dccfa72f-9da5-4407-a026-e8dc66b5ba06" d="M9.74,41.44c-.58,0-1.19-.56-1.47-1.37-.34-.97-.1-1.9.54-2.13.09-.03.18-.05.28-.05.58,0,1.19.56,1.47,1.37.34.97.1,1.9-.54,2.13-.09.03-.18.05-.28.05M9.09,38.16c-.07,0-.13.01-.19.03-.49.17-.66.98-.38,1.79.28.79.93,1.32,1.41,1.16.49-.18.66-.98.38-1.79-.24-.69-.76-1.19-1.22-1.19"/>
      <path class="uuid-b33286c4-fe55-416a-818f-67c8a0eb7876" d="M13.85,42.36c-.3-2.11-1.92-6.17-3.86-7.73-.3-.24-.59-.45-.86-.62-.41-.17-.77-.14-1.12-.03-2.28.71-2.39,3.75-1.35,6.71,1.04,2.95,3.42,4.81,5.31,4.15.96-.34,1.61-1.26,1.88-2.48"/>
      <g class="uuid-13145d4e-ad6b-4f50-b936-26ddab2ca70f">
        <g class="uuid-318b0fab-51f1-4ad1-a37f-46ae87d53276">
          <g class="uuid-064bc136-7127-4f1b-9e1a-4563fb67f5fa">
            <path class="uuid-aee86961-5f91-452d-9704-b553a5383074" d="M12.47,44.58l-.63-2.26s-.13-1.01.4-1.27c.17-.09.71-.11,1.28-.11,0,0,0,0,0,0h0c-.11-.38-.24-.78-.39-1.19-.13-.03-.29-.06-.53-.1-.46-.09-1.15-.55-1.35-.85-.18-.28-.3-1.15-.3-1.15l-.25-2.1c-.14-.17-.05-.27-.19-.42-.02-.02-.04-.05-.07-.07-.15-.15-.29-.29-.45-.41-.02-.02-.04-.03-.07-.05-.07.95-.32,1.9-.32,1.98,0,.37-.08,1.31-.69,1.21-.33-.06-.91-.52-2.17-1.43-.18-.13-.37-.29-.53-.41-.04.13-.07.27-.1.41,0,0,0,0,0,0-.03.14-.05.29-.06.43h0s2.3,2.13,2.3,2.13c0,0,.57.57.57,1.1,0,.34-.77,1.62-1.35,2.54.14.22.29.42.45.61.61-.53,1.34-1.15,1.54-1.32.37-.3,1.07.2,1.24.74.09.28.49,1.33.88,2.33.09-.02.18-.04.27-.07.1-.04.19-.08.28-.12.08-.04.15-.09.23-.13"/>
          </g>
        </g>
      </g>
      <path class="uuid-907ecb9a-e147-4cde-865b-b9dfc7267ee6" d="M9.33,37.19c-.08.52-.25,1.01-.85.91-.33-.05-1.08-.66-2.2-1.46-.07-.05-.12-.09-.19-.14,0,0,0,0,0,0-.04.26-.05.54-.05.83l1.62,1.52s.57.57.57,1.11c0,.27-.5,1.16-1,1.98.14.27.3.52.46.76.52-.51,1.03-1.02,1.2-1.16.37-.3.92-.35,1.23.37.12.29.72,1.79,1.21,3.04.07,0,.19-.02.32-.04.1-.02.21-.05.31-.08.04-.01.08-.04.12-.05l-.78-2.45s-.36-1.15.24-1.32c.26-.07,1.2-.12,1.98-.11,0-.02-.02-.05-.02-.08h0c-.06-.2-.12-.41-.2-.62-.42-.08-1.39-.41-1.77-.6-.61-.28-.8-.85-.8-.85,0,0-.11-.38-.19-.91-.04-.22-.13-1.96-.28-3.02-.12-.12-.15-.1-.27-.2-.14-.11-.14-.14-.28-.24-.12.99-.37,2.72-.38,2.8"/>
      <path class="uuid-0c163705-7edd-4ba1-8e65-72d15823b422" d="M70.39,73.62c-.75-2.72-1.38-4.86-4.14-8.55-3.68-4.92-6.87-5.81-9.36-4.29-2.4,1.46-1.7,6.55-1.7,6.55,0,0,.05.3-.04.4-.12.13-.28.04-.27.05.52.33,1,.28,1.37.13,1.22-.5,2.86-1.12,2.86-1.12,2.04,1.31,7.01,7.38,11.78,9.34-.14-.83-.23-1.52-.51-2.52"/>
      <path class="uuid-e6f6000a-1296-425a-b0c9-18b927f61473" d="M61.58,60.73s-2.11-.66-3.81,1.3c-1.22,1.4-1.62,3.24-1.38,5.31.13,1.09.43,2.23.9,3.4,1.35,3.4,3.6,5.78,5.74,7.04,2.14,1.25,3.83.86,4.85.54,2.04-.65,3.07-2.18,3.07-2.18,0,0-.62-7.16-5.94-12.65-2.3-2.37-3.42-2.76-3.42-2.76"/>
      <path class="uuid-907ecb9a-e147-4cde-865b-b9dfc7267ee6" d="M62.96,64.77c2.07,1.51,3.94,5.67,4.27,7.71.33,2.04-.22,3.45-1.58,4.12-1.36.68-4.32-.52-6.11-3.24-1.8-2.72-2.23-5.56-2.03-6.9.26-1.77,1.39-4.64,5.45-1.68"/>
      <path class="uuid-dccfa72f-9da5-4407-a026-e8dc66b5ba06" d="M63,71.59c-.57,0-1.18-.53-1.49-1.3-.39-.95-.2-1.89.44-2.15.1-.04.21-.06.33-.06.57,0,1.18.53,1.49,1.29.39.95.2,1.89-.43,2.15-.1.04-.21.06-.32.06M62.27,68.34c-.08,0-.15.01-.22.04-.48.2-.62,1.01-.29,1.8.27.66.78,1.13,1.25,1.13.08,0,.15-.01.22-.04.48-.2.61-1.01.29-1.81-.27-.65-.79-1.13-1.24-1.13"/>
      <path class="uuid-b33286c4-fe55-416a-818f-67c8a0eb7876" d="M67.19,72.3c-.4-2.09-2.22-6.06-4.24-7.53-.31-.23-.61-.42-.89-.58-.32,0-.77,0-1.07.09-2.21.7-2.25,3.8-1.07,6.71,1.19,2.9,3.65,4.63,5.51,3.88.94-.39,1.54-1.34,1.76-2.57"/>
      <g class="uuid-13145d4e-ad6b-4f50-b936-26ddab2ca70f">
        <g class="uuid-8f83fbe6-6784-4030-a6d7-0bd21ac53ad4">
          <g class="uuid-eb5d0bd0-dc71-47d8-be1c-829b3061929a">
            <path class="uuid-aee86961-5f91-452d-9704-b553a5383074" d="M65.65,71.4c.18-.09.7-.11,1.28-.12-.12-.4-.27-.82-.45-1.26-.12-.02-.13-.08-.32-.12-.48-.09-1.09-.5-1.32-.79-.68-.85-.58-1.68-.58-1.68l-.12-1.52c-.36-.46-.58-.65-.96-.96-.1.9-.31,1.73-.31,1.8,0,.38-.09,1.36-.72,1.26-.35-.06-.96-.54-2.29-1.48-.18-.13-.36-.27-.52-.39-.08.28-.13.58-.15.89l2.37,2.16s.6.59.6,1.15c0,.32-.68,1.46-1.26,2.39.17.25.36.47.55.68.58-.5,1.2-1.02,1.4-1.17.39-.31,1.13.21,1.31.76.08.25.41,1.11.77,2.01.18-.03.36-.07.53-.14.12-.05.23-.11.34-.17l-.55-1.97s-.14-1.04.42-1.32"/>
          </g>
        </g>
      </g>
      <path class="uuid-907ecb9a-e147-4cde-865b-b9dfc7267ee6" d="M64.91,71.37c.27-.07,1.2-.12,2.01-.12-.07-.24-.16-.49-.25-.74-.45-.09-1.14-.25-1.51-.43-.64-.3-1.55-.89-1.55-2.45,0-.21-.08-1.3-.12-2.41-.24-.25-.27-.28-.52-.46-.05-.04-.27,2.46-.29,2.54-.09.54-.36,1.14-1,1.03-.35-.06-1.14-.69-2.32-1.51-.05-.04-.1-.07-.15-.1-.04.29-.05.59-.04.9l1.64,1.52s.6.59.6,1.15c0,.26-.44,1.04-.91,1.82.17.29.36.57.55.82.47-.46.91-.89,1.07-1.01.39-.31.97-.36,1.3.38.12.27.62,1.53,1.1,2.73.29,0,.57-.04.84-.14l-.7-2.16s-.38-1.2.25-1.37"/>
      <line class="uuid-040cad97-8c48-4726-a328-278acb5df934" x1="62.9" y1="41.48" x2="75.5" y2="55.64"/>
      <line class="uuid-040cad97-8c48-4726-a328-278acb5df934" x1="66.95" y1="41.7" x2="79.55" y2="55.87"/>
      <line class="uuid-040cad97-8c48-4726-a328-278acb5df934" x1="84.91" y1="29.71" x2="97.19" y2="44.15"/>
      <line class="uuid-040cad97-8c48-4726-a328-278acb5df934" x1="86.28" y1="27.53" x2="98.57" y2="41.97"/>
      <path class="uuid-2ccf4427-1407-4f5a-bdff-a60d4617f98d" d="M57.05,73.95l-21.38-10.12c-2.04-.97-1.9-3.98.26-4.66.18-.06.36-.09.53-.09,1.7,0,3.16,2.43,3.16,2.43,0,0,.73-2.92,3.16-2.19s3.65,1.7,3.41,4.13c0,0,4.47-2.38,5.84,2.43,0,0,1,3.43,5.51,7.32.39.34-.01.96-.48.74"/>
    </g>
  </g>
</svg>