<?xml version="1.0" encoding="UTF-8"?>
<svg id="uuid-18f24597-bc05-4231-bbd3-432da3eb1b03" data-name="Calque_2" xmlns="http://www.w3.org/2000/svg" viewBox="0 0 28.5 18.66">
  <defs>
    <style>
      .uuid-fa5eb79a-38ed-49ea-b5c0-632450b2fcd4 {
        fill: #f3d480;
      }

      .uuid-5ea9d50c-c414-4dd3-96c9-532317691ac4 {
        fill: #ce1f17;
      }

      .uuid-2caccf41-04d1-4ccf-919e-1624c1758666 {
        fill: #383431;
      }

      .uuid-37436d9a-80be-482a-967a-40acfd069725 {
        fill: #c4c1c2;
      }
    </style>
  </defs>
  <g id="uuid-367fea7e-fa5b-4d57-9efb-f98530721c40" data-name="Les_Véhicules">
    <g id="uuid-3eb141ea-ebcd-4793-b34e-688a40a0dcb7" data-name="Vehic_x5F_SkaterboardCourt_x5F_BG">
      <path class="uuid-2caccf41-04d1-4ccf-919e-1624c1758666" d="M10.15,18.6c-.97-.6-1.36-.83-1.6-.96-.25-.13-.41-.43-.41-.86,0-.84.59-1.87,1.33-2.3.36-.21.68-.23.92-.1.25.13.97.56,1.57.95.71.46-1.08,3.72-1.8,3.28"/>
      <path class="uuid-37436d9a-80be-482a-967a-40acfd069725" d="M11.04,18.48c-.73.42-1.33.08-1.33-.76,0-.84.59-1.87,1.33-2.29.73-.42,1.33-.08,1.33.76s-.6,1.88-1.32,2.3"/>
      <path class="uuid-2caccf41-04d1-4ccf-919e-1624c1758666" d="M11.04,17.44c-.23.14-.43.03-.43-.24,0-.27.19-.6.42-.73.23-.14.43-.03.43.24s-.19.6-.42.73"/>
      <path class="uuid-2caccf41-04d1-4ccf-919e-1624c1758666" d="M25.04,10.03c-.97-.6-1.36-.83-1.6-.96-.25-.13-.41-.43-.41-.86,0-.84.59-1.87,1.33-2.29.36-.21.68-.23.92-.11.25.13.97.56,1.57.95.71.46-1.08,3.72-1.8,3.28"/>
      <path class="uuid-37436d9a-80be-482a-967a-40acfd069725" d="M25.93,9.92c-.73.42-1.33.08-1.33-.76,0-.84.59-1.87,1.33-2.29.73-.42,1.33-.08,1.33.76s-.6,1.88-1.32,2.3"/>
      <path class="uuid-2caccf41-04d1-4ccf-919e-1624c1758666" d="M25.93,8.88c-.23.13-.42.03-.43-.24s.19-.6.42-.74c.24-.13.43-.02.43.24s-.19.6-.42.73"/>
      <path class="uuid-fa5eb79a-38ed-49ea-b5c0-632450b2fcd4" d="M10.77,15.33c-3.01,1.74-7.28,2.13-9.48.86-2.2-1.27-1.53-3.73,1.48-5.47L17.74,2.07c3.01-1.74,7.28-2.14,9.47-.88,2.2,1.26,1.53,3.72-1.48,5.46l-14.95,8.67Z"/>
      <path class="uuid-5ea9d50c-c414-4dd3-96c9-532317691ac4" d="M10.77,14.87c-3.01,1.74-7.28,2.14-9.48.86-2.2-1.27-1.53-3.73,1.48-5.47L17.74,1.61c3.01-1.74,7.28-2.14,9.47-.88,2.2,1.26,1.53,3.72-1.48,5.46l-14.95,8.67Z"/>
    </g>
  </g>
</svg>