<?xml version="1.0" encoding="UTF-8"?>
<svg id="uuid-fee8aa99-be4b-44d7-a76d-e9acd21bb3c3" data-name="Calque_2" xmlns="http://www.w3.org/2000/svg" viewBox="0 0 89.41 63.72">
  <defs>
    <style>
      .uuid-1c50ca35-1e22-4b51-b3a2-8b3dde18e258 {
        fill: #383432;
      }

      .uuid-2c7677b7-5430-4169-a891-23a668bdb446 {
        fill: #eeeeef;
      }

      .uuid-9e03dbd4-6b3d-4399-8a00-cef796efa8fc {
        fill: #55519d;
      }

      .uuid-a39dff50-d3ae-4a6d-a983-928e544f8f53 {
        fill: #686caf;
      }

      .uuid-1048e169-31f3-414f-8ea4-8d974bf7aadb {
        fill: #5e7884;
      }

      .uuid-1f59bfad-fc3b-4fb7-a4fa-ebe96ecaab9e {
        fill: #767371;
      }

      .uuid-5290cb4a-cf1c-42f3-ae6a-d18938c77306 {
        fill: #e12744;
      }

      .uuid-5111daf4-2edc-4114-96d6-1f109ded2e7c {
        fill: #312d2b;
      }

      .uuid-64593a6a-6629-4090-a978-1ab6c81717ad {
        fill: #6c8b99;
      }
    </style>
  </defs>
  <g id="uuid-e4f18c09-ccf0-482f-b5b4-3b764e5fe641" data-name="Les_Véhicules">
    <g id="uuid-a75bdeb2-3836-4af3-9ae4-d0e71169defd" data-name="Vehic_x5F_VoitureViolette_x5F_HD">
      <path class="uuid-5111daf4-2edc-4114-96d6-1f109ded2e7c" d="M40.96,50.07c-4.08,1.9-8.39,8.28-6.8,10.94,1.16,1.94,3.41,2.56,3.41,2.56-.31-.51-2-2.34-1.97-3.03v-.11c.21-4.23,2.57-8.02,6.15-9.88l.63-.33c.45-.23.91-.33,1.36-.31,1.49.06,2.8,1.38,2.73,3.15-.02.6-.09,1.19-.2,1.76l.62.38c.44-3.24-.31-7.75-5.93-5.13"/>
      <path class="uuid-1c50ca35-1e22-4b51-b3a2-8b3dde18e258" d="M40.62,62.89c2.95-1.66,5.02-4.65,5.65-8.07.11-.57.17-1.16.2-1.76.07-1.76-1.24-3.09-2.73-3.15"/>
      <path class="uuid-1c50ca35-1e22-4b51-b3a2-8b3dde18e258" d="M43.74,49.91c-.45-.02-.91.08-1.36.31l-.63.33c-3.58,1.86-5.94,5.65-6.14,9.88v.11c-.04.68.13,1.3.44,1.8.76,1.23,2.33,1.79,3.72,1.02l.85-.47"/>
      <path class="uuid-1c50ca35-1e22-4b51-b3a2-8b3dde18e258" d="M40.82,59.98l-.45.25c-1.02.57-2.23-.25-2.18-1.48v-.05c.11-2.21,1.34-4.19,3.21-5.16l.33-.17c.24-.12.48-.17.71-.16.78.03,1.46.72,1.42,1.64-.09,2.16-1.25,4.12-3.05,5.13"/>
      <path class="uuid-2c7677b7-5430-4169-a891-23a668bdb446" d="M42.45,53.21c-.24,0-.48.04-.71.16l-.33.17c-1.87.97-3.1,2.95-3.2,5.16v.05c-.06,1.22,1.15,2.05,2.17,1.48l.45-.25c1.8-1.01,2.97-2.96,3.05-5.13.04-.92-.64-1.61-1.42-1.64"/>
      <path class="uuid-5111daf4-2edc-4114-96d6-1f109ded2e7c" d="M81.93,26.2c-4.08,1.9-8.39,8.28-6.8,10.94,1.16,1.94,3.41,2.56,3.41,2.56-.31-.51-2-2.34-1.96-3.03v-.11c.21-4.23,2.57-8.02,6.15-9.88l.63-.33c.45-.23.91-.33,1.36-.31,1.49.06,2.8,1.38,2.73,3.15-.02.6-.09,1.18-.2,1.76l.61.38c.44-3.24-.31-7.75-5.93-5.13"/>
      <path class="uuid-1c50ca35-1e22-4b51-b3a2-8b3dde18e258" d="M84.71,26.04c-.45-.02-.91.08-1.36.31l-.63.33c-3.58,1.86-5.94,5.65-6.14,9.88v.11c-.04.68.13,1.3.44,1.8.76,1.23,2.33,1.8,3.72,1.02l.85-.48c2.95-1.66,5.02-4.64,5.65-8.07.11-.57.17-1.16.2-1.76.07-1.76-1.24-3.09-2.73-3.15M81.79,36.11l-.45.25c-1.02.57-2.23-.25-2.18-1.48v-.05c.11-2.21,1.34-4.19,3.21-5.16l.33-.17c.23-.12.47-.17.71-.16.78.03,1.46.72,1.42,1.64-.09,2.16-1.25,4.12-3.05,5.13"/>
      <path class="uuid-2c7677b7-5430-4169-a891-23a668bdb446" d="M83.41,29.34c-.24,0-.48.04-.71.16l-.33.17c-1.87.97-3.1,2.95-3.2,5.16v.05c-.06,1.22,1.15,2.05,2.17,1.48l.45-.25c1.8-1.01,2.97-2.97,3.05-5.13.04-.92-.64-1.61-1.42-1.64"/>
      <path class="uuid-a39dff50-d3ae-4a6d-a983-928e544f8f53" d="M85.47,14.9c-1.41-1.2-16.64-14.11-24.4-14.8l-12.45,1.15L12.98,18.71S2.54,26.67,2.24,27.49c-1.94,5.33-2.71,13.79-.07,16.86,2.63,3.08,22.81,15.71,22.81,15.71,0,0,6.72,2.81,9.33.37,0,0,3.42-13.12,11.51-10.44,0,0,1.29,1.33,1.07,5.2l27.76-15.97s1.28-8.53,5.92-12.12c2.22-1.72,4.56-2.13,6.57-.25.92.85.72,4.47.72,4.47,0,0,2.04-4.3,1.45-9.86-.2-1.89-2.42-5.36-3.83-6.56"/>
      <path class="uuid-9e03dbd4-6b3d-4399-8a00-cef796efa8fc" d="M86.94,16.59c-4.81-.22-9.63-.21-14.42.48-.05,0-.1,0-.15,0-7.14,3.63-14.16,7.52-21.43,10.86-3.44,1.58-7.02,2.88-10.34,4.75-1.27.72-3.4,1.69-4.98,2.86-.06.52-.22,1.04-.48,1.55-1.84,3.47-4.99,6.61-5.77,10.58-.85,4.34-1.8,8.68-2.04,13.19,1.97.37,5.7.77,6.96-.42,0,0,3.42-13.12,11.51-10.44,0,0,1.29,1.33,1.07,5.2l27.76-15.97s1.28-8.53,5.92-12.12c2.22-1.72,4.56-2.13,6.57-.25.92.85.72,4.47.72,4.47,0,0,2.04-4.3,1.45-9.86-.14-1.3-1.23-3.33-2.36-4.88"/>
      <path class="uuid-5111daf4-2edc-4114-96d6-1f109ded2e7c" d="M21.25,54.78c-5.51-3.27-12.75-8.91-17.73-13.03-2.4-1.99-3.04-3.83-3.02-5.16-1.38,3.81.43,6.11,1.67,7.77,3.01,4.03,17.26,13.55,22.81,15.71,2.19.85,6.17,2.39,9.33.37,0,0,.36-1.39,1.13-3.17-.14.04-.27.09-.41.13-5.06,1.47-9.35,0-13.77-2.62"/>
      <path class="uuid-5111daf4-2edc-4114-96d6-1f109ded2e7c" d="M16.62,12.83l-6.69,9.72c-.26.78-.5,1.48.54,2.79,3.11,3.95,11.91,9.7,18.58,13.01,2.07,1.02,4.48,1,4.48,1l5.94-.29.75-11.65s-2.95-.54-6.49-2.02c-11.36-4.75-17.11-12.57-17.11-12.57"/>
      <polygon class="uuid-5111daf4-2edc-4114-96d6-1f109ded2e7c" points="38.36 26.65 35.45 39.01 39.46 39.07 71.23 21.34 71.61 17.27 59.3 16.07 38.36 26.65"/>
      <path class="uuid-5111daf4-2edc-4114-96d6-1f109ded2e7c" d="M71.1,14.33l-10.27-2.12c1.39,2.3-1.53,3.86-1.53,3.86l7.46,1.38,4.47,3.89c3.41-4.22-.13-7.01-.13-7.01"/>
      <path class="uuid-1048e169-31f3-414f-8ea4-8d974bf7aadb" d="M16.54,14.82c-.15-.2-5.59,7.84-5.59,7.84.26,1.65,3.92,4.8,8.08,7.79,2.82,2.03,5.86,3.99,8.23,5.38,2.98,1.74,4.44,1.53,4.44,1.53l4.18-9.33c-9.28-3.44-18.11-11.59-19.34-13.21"/>
      <path class="uuid-64593a6a-6629-4090-a978-1ab6c81717ad" d="M15.61,24.2c.06-.02.12-.05.17-.07-.07.03-.12.05-.17.07"/>
      <path class="uuid-64593a6a-6629-4090-a978-1ab6c81717ad" d="M22.84,21.79c-1.35.41-2.69.83-4.02,1.27-.67.22-1.33.45-1.99.68-.51.18-2.35.93-1.22.46-.93.38-1.86.77-2.79,1.17,1.51,1.53,3.78,3.33,6.22,5.09,1.03.74,2.09,1.47,3.13,2.17,2.55-.83,5.1-1.63,7.66-2.42,1.96-.6,3.92-1.2,5.89-1.79l.17-.38c-4.25-1.58-8.41-4.14-11.78-6.61-.42.12-.84.25-1.26.37"/>
      <path class="uuid-1048e169-31f3-414f-8ea4-8d974bf7aadb" d="M39.37,28.97l-1.83,7.64c-.21.86,1.55,1.53,2.27,1.08l11.15-6.34-3.18-7.22-8.41,4.85Z"/>
      <polygon class="uuid-1048e169-31f3-414f-8ea4-8d974bf7aadb" points="58.93 17.64 49.67 23.23 54.22 29.55 67.78 22.24 64.87 19.23 58.93 17.64"/>
      <path class="uuid-1c50ca35-1e22-4b51-b3a2-8b3dde18e258" d="M68.44,15.44c-2.03-.24-1.12,1.72-1.12,1.72.5.12,3.44.41,3.44.41l-.11,1.06c2.76,2.14,5.11.68,4.23-.71-1.27-2.01-6.44-2.48-6.44-2.48"/>
      <path class="uuid-1048e169-31f3-414f-8ea4-8d974bf7aadb" d="M50.24.64L41.61.04l5.11,2.26c3.41,1.51,6.31,3.81,9.28,6.13l4.83,3.78,10.27,2.12s-5.25-4.79-9.65-7.85c-6.22-4.32-11.21-5.85-11.21-5.85"/>
      <path class="uuid-5111daf4-2edc-4114-96d6-1f109ded2e7c" d="M41.61.04l.99.4,7.17.63c10.93,3.81,20.44,13.23,20.44,13.23l.89.04C59.67,3.56,50.24.64,50.24.64L41.61.04Z"/>
      <path class="uuid-5111daf4-2edc-4114-96d6-1f109ded2e7c" d="M41.61.04s.68.29,2.03.9c2.25,1.01,6.21,2.95,10.85,6.32,1.88,1.37,3.65,2.96,6.34,4.96l.77.33s-7.3-7.47-18.19-12.04l-1.81-.47Z"/>
      <path class="uuid-5290cb4a-cf1c-42f3-ae6a-d18938c77306" d="M1.13,31.46c-.17.79-.31,1.86-.44,2.69l.47.71,3.53,2.56.6-2.35-3.6-2.67-.56-.95Z"/>
      <path class="uuid-5290cb4a-cf1c-42f3-ae6a-d18938c77306" d="M27.74,50.69l-3.93-2.43-.44,2.18,4.08,2.59c.96.75,2.94-.28,2.94-.28l.25-2.3c-2.16.81-2.89.25-2.89.25"/>
      <polygon class="uuid-2c7677b7-5430-4169-a891-23a668bdb446" points="9.29 41.34 18.24 47.34 18.37 44.14 9.37 37.98 9.29 41.34"/>
      <path class="uuid-a39dff50-d3ae-4a6d-a983-928e544f8f53" d="M42.11.16c-1.57-.44-3.75.18-3.75.18,0,0-8.89,4.25-11.49,5.68-2.44,1.35-8.68,5.43-8.68,5.43-.62.34-1.16.83-1.57,1.43-.09,1.33,1.35,2.23,1.95,2.84,4.21,4.35,8.54,7.07,13.34,9.61,2.2,1.17,3.58,1.66,4.57,2.23.96.54,2.97-.64,2.97-.64,0,0,16.91-9.31,19.84-10.85,2.94-1.54,1.53-3.86,1.53-3.86C54.32,5.61,43.69.6,42.11.16"/>
      <path class="uuid-1f59bfad-fc3b-4fb7-a4fa-ebe96ecaab9e" d="M56.23,34.76c-.5-1.24-2.78-3.31-2.87-3.4l-.28.11c-.24-.12,2.43,2.22,2.91,3.4.45,1.1,1.1,9.37,1.18,10.35l-8.22,4.68c-.1-.37-.39-1.24-1.07-2.1-.81-1.02-2.33-2.21-5.02-2.08-.67.03-1.24-.49-1.29-1.18-.14-1.7-.69-4.85-2.52-5.62l-.29.12c1.7.72,2.41,3.89,2.54,5.52.07.85.76,1.48,1.57,1.44,4.93-.24,5.83,3.96,5.86,4.14l.04.19,8.69-4.94v-.09c-.04-.38-.72-9.33-1.21-10.54"/>
      <path class="uuid-1f59bfad-fc3b-4fb7-a4fa-ebe96ecaab9e" d="M69.89,22.09l-.29.16s2.6,1.76,3.01,3.65c.4,1.85.13,9.44.1,10.31l-15.47,8.97.13.25,15.54-9.01.07-.04v-.08c.02-.35.34-8.48-.1-10.47-.44-2-2.88-3.67-2.98-3.74"/>
      <path class="uuid-1c50ca35-1e22-4b51-b3a2-8b3dde18e258" d="M60.24,32.98l-2.18,1.18c-.25.13-.4.46-.33.73.04.19.18.3.34.3.07,0,.15-.02.23-.06l2.21-1.21c.24-.13.38-.45.3-.71-.08-.26-.33-.36-.57-.23"/>
      <path class="uuid-1c50ca35-1e22-4b51-b3a2-8b3dde18e258" d="M45.58,41.26l-2.18,1.18c-.25.13-.4.46-.33.73.04.19.18.3.34.3.07,0,.15-.02.23-.06l2.21-1.21c.24-.13.38-.45.3-.71-.07-.26-.33-.36-.57-.23"/>
    </g>
  </g>
</svg>