<?xml version="1.0" encoding="UTF-8"?>
<svg id="uuid-bb06ac3f-5f55-46ec-b7fb-e6c71ab85bc0" data-name="Calque_2" xmlns="http://www.w3.org/2000/svg" viewBox="0 0 160.77 135.54">
  <defs>
    <style>
      .uuid-e3210947-d267-4abe-bc4d-e4e555aea027 {
        fill: #ffe15b;
      }

      .uuid-8f165942-6a63-4c7e-aefe-081a1b601c0a {
        fill: #ffe25c;
      }

      .uuid-52943728-4aae-4aa9-894f-15528fede5f5 {
        fill: #e37909;
      }

      .uuid-8af67993-7f4c-4bf1-a214-72a0b17b746a {
        fill: #bf321f;
      }

      .uuid-e8daf21a-0dde-4b5a-9d28-20dd85c32ca6 {
        fill: #38485d;
      }

      .uuid-9e81e0c7-ac87-4f72-b8bd-51acc30bfded {
        fill: #f2f5f6;
      }

      .uuid-0bb06dc1-78ea-4631-9557-905eb441db21 {
        fill: #323e50;
      }

      .uuid-e19b3705-8f78-457d-b8ca-bd5ae2ffdb12 {
        fill: #2e3746;
      }

      .uuid-8ea78447-baed-4f75-b02e-54b744b20f6d {
        fill: #23282f;
      }

      .uuid-cb8a12e8-1d7c-4b17-b33f-a6ef03221be7 {
        fill: #fff;
      }

      .uuid-a39a95a3-c668-4a7c-8545-70c519aa54e9 {
        fill: #267eb9;
      }

      .uuid-8d44948a-dfcf-46d6-adeb-d275e6aabb54 {
        fill: #1c6394;
      }

      .uuid-8a882e44-fbb3-42ed-8c00-4d1fe62408d9 {
        fill: #d04c16;
      }

      .uuid-92df1f43-e707-417a-8d85-5543e9e11a7f {
        fill: #1d496e;
      }

      .uuid-fcbf9cba-3329-4880-b327-1b5d18bcaf38 {
        fill: #282f3c;
      }

      .uuid-341ca405-c321-4f70-bfe4-df9601408e6c {
        fill: #4197d3;
      }

      .uuid-df68abc5-3412-41c2-bb4e-7650a0f1d05b {
        fill: #f2c500;
      }

      .uuid-cd8adfe6-0551-4115-9da7-ba010e6abced {
        fill: #f19c00;
      }

      .uuid-fe62edc5-9834-46fd-bd0f-3852f30abd1e {
        fill: #1d1f22;
      }
    </style>
  </defs>
  <g id="uuid-c7de45d6-6f6f-47a3-8197-3a843d2d6b9d" data-name="Les_Véhicules">
    <g id="uuid-57bbdee8-3f40-49a3-80f8-877502d9ed1a" data-name="Vehicule_x5F_Camion_x5F_HD">
      <polygon class="uuid-cb8a12e8-1d7c-4b17-b33f-a6ef03221be7" points="76.44 127.67 74.05 126.33 88.74 117.75 91.13 119.1 76.44 127.67"/>
      <line class="uuid-cb8a12e8-1d7c-4b17-b33f-a6ef03221be7" x1="120.66" y1="99.12" x2="123.05" y2="100.46"/>
      <polyline class="uuid-cb8a12e8-1d7c-4b17-b33f-a6ef03221be7" points="136.98 92.7 134.58 91.36 149.27 82.79"/>
      <polygon class="uuid-fe62edc5-9834-46fd-bd0f-3852f30abd1e" points="54.31 118.74 8.79 92.46 8.79 109.26 54.31 135.54 54.31 118.74"/>
      <polygon class="uuid-fcbf9cba-3329-4880-b327-1b5d18bcaf38" points="4.66 105.53 50.18 131.81 50.18 123.75 4.66 97.47 4.66 105.53"/>
      <polygon class="uuid-8f165942-6a63-4c7e-aefe-081a1b601c0a" points="152.21 26.28 106.68 0 80.29 15.24 125.81 41.52 152.21 26.28"/>
      <polygon class="uuid-341ca405-c321-4f70-bfe4-df9601408e6c" points="80.29 4.56 0 50.91 45.52 77.19 125.81 30.84 80.29 4.56"/>
      <polygon class="uuid-92df1f43-e707-417a-8d85-5543e9e11a7f" points="45.52 77.19 0 50.91 0 100.15 45.53 126.44 45.52 77.19"/>
      <polygon class="uuid-0bb06dc1-78ea-4631-9557-905eb441db21" points="3.25 91.57 3.25 88.95 42.28 111.48 42.28 114.1 3.25 91.57"/>
      <polygon class="uuid-0bb06dc1-78ea-4631-9557-905eb441db21" points="3.25 86.19 3.25 83.57 42.28 106.1 42.28 108.72 3.25 86.19"/>
      <polygon class="uuid-0bb06dc1-78ea-4631-9557-905eb441db21" points="3.25 80.81 3.25 78.19 42.28 100.72 42.28 103.34 3.25 80.81"/>
      <polygon class="uuid-0bb06dc1-78ea-4631-9557-905eb441db21" points="3.25 75.42 3.25 72.8 42.28 95.34 42.28 97.96 3.25 75.42"/>
      <polygon class="uuid-0bb06dc1-78ea-4631-9557-905eb441db21" points="3.25 70.04 3.25 67.42 42.28 89.95 42.28 92.57 3.25 70.04"/>
      <polygon class="uuid-0bb06dc1-78ea-4631-9557-905eb441db21" points="3.25 64.66 3.25 62.04 42.28 84.57 42.28 87.19 3.25 64.66"/>
      <polygon class="uuid-0bb06dc1-78ea-4631-9557-905eb441db21" points="3.25 59.28 3.25 56.66 42.28 79.19 42.28 81.81 3.25 59.28"/>
      <polygon class="uuid-e19b3705-8f78-457d-b8ca-bd5ae2ffdb12" points="157.07 59.42 54.31 118.74 54.4 130.56 157.16 71.24 157.07 59.42"/>
      <polygon class="uuid-e19b3705-8f78-457d-b8ca-bd5ae2ffdb12" points="50.18 131.81 52.96 130.21 52.96 122.15 50.18 123.75 50.18 131.81"/>
      <path class="uuid-8ea78447-baed-4f75-b02e-54b744b20f6d" d="M135.81,75.71c-1.57-1.67-4.15-1.86-7.07-.17-4.78,2.76-8.65,9.46-8.65,14.98,0,2.76.97,4.69,2.53,5.6l6.11,3.53,12.13-21.01-5.06-2.92Z"/>
      <path class="uuid-8ea78447-baed-4f75-b02e-54b744b20f6d" d="M80.05,107.9c-1.56-1.67-4.15-1.86-7.07-.17-4.78,2.76-8.65,9.46-8.65,14.98,0,2.76.97,4.69,2.53,5.6l6.11,3.53,12.13-21.01-5.06-2.92Z"/>
      <path class="uuid-e8daf21a-0dde-4b5a-9d28-20dd85c32ca6" d="M143.49,84.06c0,5.51-3.87,12.22-8.65,14.98-4.78,2.76-8.65.52-8.65-4.99s3.87-12.22,8.65-14.98c4.78-2.76,8.65-.52,8.65,4.99"/>
      <path class="uuid-9e81e0c7-ac87-4f72-b8bd-51acc30bfded" d="M138.72,91.29c-5.65,8.27-12.09,4.55-7.75-4.47,5.65-8.27,12.09-4.55,7.75,4.47"/>
      <path class="uuid-e8daf21a-0dde-4b5a-9d28-20dd85c32ca6" d="M134.85,91.31c-1.08.62-1.95.12-1.95-1.13s.88-2.76,1.95-3.38c1.08-.62,1.95-.12,1.95,1.13s-.88,2.76-1.95,3.38"/>
      <path class="uuid-e8daf21a-0dde-4b5a-9d28-20dd85c32ca6" d="M87.73,116.25c0,5.51-3.87,12.22-8.65,14.98-4.78,2.76-8.65.52-8.65-4.99,0-5.51,3.87-12.22,8.65-14.98,4.78-2.76,8.65-.52,8.65,4.99"/>
      <path class="uuid-9e81e0c7-ac87-4f72-b8bd-51acc30bfded" d="M82.96,123.48c-5.65,8.27-12.09,4.55-7.75-4.47,5.65-8.27,12.09-4.55,7.75,4.47"/>
      <path class="uuid-e8daf21a-0dde-4b5a-9d28-20dd85c32ca6" d="M79.08,123.5c-1.08.62-1.95.12-1.95-1.13s.88-2.76,1.95-3.38c1.08-.62,1.95-.12,1.95,1.13,0,1.24-.88,2.76-1.95,3.38"/>
      <path class="uuid-df68abc5-3412-41c2-bb4e-7650a0f1d05b" d="M159.47,67.05l-.51.3v-18.25l-6.75-22.82-26.4,15.24v38.31l8.57-4.95c6.18-3.57,11.2-.68,11.2,6.47h0s13.89-8.02,13.89-8.02c.72-.41,1.3-1.42,1.3-2.24v-3.28c0-.83-.58-1.16-1.3-.75"/>
      <path class="uuid-8a882e44-fbb3-42ed-8c00-4d1fe62408d9" d="M145.5,79.91c.05.46.08.94.08,1.44h0s13.89-8.02,13.89-8.02c.71-.41,1.29-1.41,1.29-2.24l-15.26,8.81Z"/>
      <path class="uuid-e3210947-d267-4abe-bc4d-e4e555aea027" d="M160.71,67.51c-.13-.58-.62-.81-1.24-.45l-.51.3v-.31l-14.96,8.63c.24.33.46.7.65,1.1l16.05-9.27Z"/>
      <path class="uuid-52943728-4aae-4aa9-894f-15528fede5f5" d="M146.06,74.47l-1.66-3.3c-1.48-2.24-4.33-2.54-7.43-.75l-7.98,4.61v-33.17l22.32-12.89,5.51,19.02-1.09,20.81-9.66,5.67ZM130.11,73.08l6.86-3.96c3.51-2.03,6.74-1.69,8.44.88l1.38,2.74,7.88-4.62,1.02-19.33-5.22-18.03-20.35,11.75v30.57Z"/>
      <polygon class="uuid-a39a95a3-c668-4a7c-8545-70c519aa54e9" points="131.68 57.1 154.98 50.53 149.68 31.99 131.68 42.38 131.68 57.1"/>
      <polygon class="uuid-e8daf21a-0dde-4b5a-9d28-20dd85c32ca6" points="131.23 71.51 131.23 65.57 134.56 63.64 134.56 69.59 131.23 71.51"/>
      <polygon class="uuid-a39a95a3-c668-4a7c-8545-70c519aa54e9" points="125.81 30.84 45.52 77.19 45.53 126.44 125.81 80.09 125.81 30.84"/>
      <path class="uuid-8d44948a-dfcf-46d6-adeb-d275e6aabb54" d="M60.27,114.43l-7.64,4.41c-2.48,1.43-4.5.27-4.5-2.6v-32.78c0-2.87,2.01-6.35,4.5-7.79l7.64-4.41c2.48-1.43,4.5-.27,4.5,2.6v32.78c0,2.87-2.01,6.35-4.5,7.79"/>
      <path class="uuid-8d44948a-dfcf-46d6-adeb-d275e6aabb54" d="M79.88,103.12l-7.64,4.41c-2.48,1.43-4.5.27-4.5-2.6v-32.78c0-2.87,2.01-6.35,4.5-7.79l7.64-4.41c2.48-1.43,4.5-.27,4.5,2.6v32.78c0,2.87-2.01,6.35-4.5,7.79"/>
      <path class="uuid-8d44948a-dfcf-46d6-adeb-d275e6aabb54" d="M99.48,91.8l-7.64,4.41c-2.48,1.43-4.5.27-4.5-2.6v-32.78c0-2.87,2.01-6.35,4.5-7.79l7.63-4.41c2.48-1.43,4.5-.27,4.5,2.6v32.78c0,2.87-2.01,6.35-4.49,7.79"/>
      <path class="uuid-8d44948a-dfcf-46d6-adeb-d275e6aabb54" d="M119.08,80.48l-7.64,4.41c-2.48,1.43-4.5.27-4.5-2.6v-32.78c0-2.87,2.01-6.35,4.5-7.79l7.64-4.41c2.48-1.43,4.5-.27,4.5,2.6v32.78c0,2.87-2.01,6.35-4.5,7.79"/>
      <polygon class="uuid-8af67993-7f4c-4bf1-a214-72a0b17b746a" points="13.74 106.74 1.65 99.76 1.66 93.58 13.75 100.56 13.74 106.74"/>
      <path class="uuid-e8daf21a-0dde-4b5a-9d28-20dd85c32ca6" d="M12.28,101.29v2.84s-8.92-5.15-8.92-5.15v-2.84s8.92,5.15,8.92,5.15ZM12.77,101.01l-.49-.28-8.92-5.15-.49-.28v3.4s0,.56,0,.56l.49.28,8.92,5.15.49.28v-.56s0-2.84,0-2.84v-.56Z"/>
      <polygon class="uuid-cd8adfe6-0551-4115-9da7-ba010e6abced" points="5.24 100.07 3.36 98.99 3.36 96.14 5.24 97.23 5.24 100.07"/>
      <polygon class="uuid-9e81e0c7-ac87-4f72-b8bd-51acc30bfded" points="7.11 101.15 5.24 100.07 5.24 97.23 7.12 98.31 7.11 101.15"/>
      <polygon class="uuid-8af67993-7f4c-4bf1-a214-72a0b17b746a" points="31.39 117.05 43.48 124.03 43.49 117.85 31.4 110.87 31.39 117.05"/>
      <path class="uuid-9e81e0c7-ac87-4f72-b8bd-51acc30bfded" d="M15.64,109.45l14.37,8.3v-6.92c0-.48-.24-.92-.66-1.15l-14.37-8.29v6.92c0,.48.24.92.66,1.15"/>
      <path class="uuid-e8daf21a-0dde-4b5a-9d28-20dd85c32ca6" d="M32.87,113.29l8.92,5.15v2.84s-8.92-5.15-8.92-5.15v-2.84ZM32.38,112.45v.56s0,2.84,0,2.84v.56s.49.28.49.28l8.92,5.15.49.28v-3.4s0-.56,0-.56l-.49-.28-8.92-5.15-.49-.28Z"/>
      <polygon class="uuid-cd8adfe6-0551-4115-9da7-ba010e6abced" points="39.9 120.2 41.78 121.28 41.78 118.44 39.91 117.36 39.9 120.2"/>
      <polygon class="uuid-9e81e0c7-ac87-4f72-b8bd-51acc30bfded" points="38.03 119.12 39.9 120.2 39.91 117.36 38.03 116.28 38.03 119.12"/>
      <path class="uuid-0bb06dc1-78ea-4631-9557-905eb441db21" d="M154.42,34.82l2.68-.21c.86-.07,1.65.49,1.87,1.33l1.47,5.6c.24.92-.33,1.86-1.26,2.06l-.95.21c-.91.2-1.81-.37-2.03-1.27l-1.42-6.01-1.22.24-.65-1.61,1.5-.34Z"/>
    </g>
  </g>
</svg>