<?xml version="1.0" encoding="UTF-8"?>
<svg id="uuid-c900220c-0ee3-4405-97d6-0e894045f975" data-name="Calque_2" xmlns="http://www.w3.org/2000/svg" viewBox="0 0 37.29 52.11">
  <defs>
    <style>
      .uuid-26ecb22c-3a93-4765-8ea7-52796fb75693 {
        fill: #fff;
      }

      .uuid-f5293532-1d9f-4d42-90a6-fe87c95ecd8f {
        fill: #eaf6fd;
      }

      .uuid-e9cebf62-a17f-43ab-b959-8fedb3b06ed7 {
        fill: #bcdbe0;
      }

      .uuid-3c7ed815-e345-4bfa-ba85-43b77255f20a {
        fill: #322527;
      }

      .uuid-0a61b1ec-203e-4984-b2e5-bc336b681ea2 {
        fill: #423134;
      }

      .uuid-33cdf05d-8e6f-4a9e-964b-b00d52b33b8c {
        fill: #4e3a3e;
      }
    </style>
  </defs>
  <g id="uuid-b4784da8-fc84-4f55-b01b-590a05e4a328" data-name="Les_Véhicules">
    <g id="uuid-90cd067f-441c-40fc-9253-65272cf6b01e" data-name="Vehic_x5F_ChaiseHandi_x5F_BG">
      <path class="uuid-f5293532-1d9f-4d42-90a6-fe87c95ecd8f" d="M18.2,4.61v8.92l-9.69,5.59c-.69.4-1.12,1.14-1.12,1.95v16.93h.98v-8.08l9.83-5.68v5.33h.98V4.61h-.98ZM18.2,23.26l-9.83,5.68v-7.46c0-.8.43-1.54,1.12-1.94l8.7-5.03v8.75Z"/>
      <path class="uuid-f5293532-1d9f-4d42-90a6-fe87c95ecd8f" d="M8.12,35.91l-2.2,1.27c-.69.4-1.12,1.14-1.12,1.95v2.37h.98v-1.96c0-.8.43-1.54,1.12-1.95l1.22-.7v-.98Z"/>
      <polygon class="uuid-f5293532-1d9f-4d42-90a6-fe87c95ecd8f" points="16.78 33.27 9.08 37.72 9.08 38.7 16.78 34.25 16.78 33.27"/>
      <path class="uuid-0a61b1ec-203e-4984-b2e5-bc336b681ea2" d="M23.89,27.51c0,3.52-2.14,7.61-4.78,9.13-1.23.71-2.34.74-3.19.21-.97-.6-1.59-1.94-1.59-3.83,0-3.52,2.14-7.6,4.78-9.13,2.64-1.52,4.78.09,4.78,3.61"/>
      <polygon class="uuid-0a61b1ec-203e-4984-b2e5-bc336b681ea2" points="17.04 37.51 15.99 36.89 16.74 36.57 17.04 37.51"/>
      <path class="uuid-0a61b1ec-203e-4984-b2e5-bc336b681ea2" d="M22.07,23.56l1.2.69s-.82.22-.84.23c-.02,0-.36-.92-.36-.92"/>
      <path class="uuid-0a61b1ec-203e-4984-b2e5-bc336b681ea2" d="M24.89,28.1c0,3.52-2.14,7.61-4.78,9.13-2.64,1.52-4.78-.09-4.78-3.61s2.14-7.6,4.78-9.13c2.64-1.52,4.78.09,4.78,3.61"/>
      <path class="uuid-f5293532-1d9f-4d42-90a6-fe87c95ecd8f" d="M21.11,30.28c0,.74-.45,1.59-1,1.91-.55.32-1-.02-1-.76s.45-1.59,1-1.91c.55-.32,1,.02,1,.76"/>
      <path class="uuid-0a61b1ec-203e-4984-b2e5-bc336b681ea2" d="M10.67,38.07c0,1.75-1.07,3.79-2.38,4.55-1.31.76-2.38-.05-2.38-1.8s1.07-3.79,2.38-4.55c1.32-.76,2.38.05,2.38,1.8"/>
      <polygon class="uuid-0a61b1ec-203e-4984-b2e5-bc336b681ea2" points="6.72 42.75 7.55 43.22 7.55 42.53 6.72 42.75"/>
      <polygon class="uuid-0a61b1ec-203e-4984-b2e5-bc336b681ea2" points="9.8 36.12 10.67 36.63 10.29 36.8 9.66 36.21 9.8 36.12"/>
      <path class="uuid-3c7ed815-e345-4bfa-ba85-43b77255f20a" d="M11.46,38.53c0,1.75-1.07,3.79-2.38,4.55-1.31.76-2.38-.05-2.38-1.8s1.07-3.79,2.38-4.55c1.32-.76,2.38.05,2.38,1.8"/>
      <path class="uuid-f5293532-1d9f-4d42-90a6-fe87c95ecd8f" d="M10.08,39.33c0,.74-.45,1.59-1,1.91-.55.32-1-.02-1-.76s.45-1.59,1-1.91c.55-.32,1,.02,1,.76"/>
      <polygon class="uuid-33cdf05d-8e6f-4a9e-964b-b00d52b33b8c" points="8.37 17.67 9.96 18.6 17.85 14.04 16.24 13.12 8.37 17.67"/>
      <polygon class="uuid-3c7ed815-e345-4bfa-ba85-43b77255f20a" points="8.37 17.67 8.37 18.65 9.96 19.57 9.96 18.6 8.37 17.67"/>
      <polygon class="uuid-0a61b1ec-203e-4984-b2e5-bc336b681ea2" points="17.85 14.04 9.96 18.6 9.96 19.57 17.85 15.01 17.85 14.04"/>
      <path class="uuid-3c7ed815-e345-4bfa-ba85-43b77255f20a" d="M20.57.09l-.99.57c-.76.44-1.39,1.52-1.39,2.41v2.38s.23.19.57.19.41-.19.41-.19v-1.96c0-.8.43-1.54,1.12-1.95l1.22-.7v-.2c0-.49-.53-.79-.95-.55"/>
      <polygon class="uuid-3c7ed815-e345-4bfa-ba85-43b77255f20a" points="7.69 29.37 7.69 30.43 20.06 37.59 20.06 36.52 7.69 29.37"/>
      <polygon class="uuid-33cdf05d-8e6f-4a9e-964b-b00d52b33b8c" points="7.69 29.37 20.06 36.52 30.6 30.39 18.2 23.26 7.69 29.37"/>
      <polygon class="uuid-f5293532-1d9f-4d42-90a6-fe87c95ecd8f" points="12.37 51.04 12.37 52.11 18.19 48.75 18.19 47.65 12.37 51.04"/>
      <polyline class="uuid-e9cebf62-a17f-43ab-b959-8fedb3b06ed7" points="0 44.95 12.37 52.11 12.37 51.04 0 43.9"/>
      <polyline class="uuid-26ecb22c-3a93-4765-8ea7-52796fb75693" points="0 43.9 12.37 51.04 18.19 47.65 5.85 40.53 0 43.9"/>
      <path class="uuid-f5293532-1d9f-4d42-90a6-fe87c95ecd8f" d="M30.6,11.46v9.19l-9.69,5.59c-.69.4-1.12,1.14-1.12,1.95v16.93h.98v-8.08l9.83-5.68v5.33h.98V11.46h-.98ZM30.6,30.39l-9.83,5.68v-7.46c0-.8.43-1.54,1.12-1.94l8.7-5.03v8.75Z"/>
      <path class="uuid-f5293532-1d9f-4d42-90a6-fe87c95ecd8f" d="M20.52,43.04l-2.2,1.27c-.69.4-1.12,1.14-1.12,1.95v2.37h.98v-1.96c0-.8.43-1.54,1.12-1.95l1.22-.7v-.98Z"/>
      <polygon class="uuid-f5293532-1d9f-4d42-90a6-fe87c95ecd8f" points="29.19 40.41 21.48 44.86 21.48 45.84 29.19 41.39 29.19 40.41"/>
      <path class="uuid-0a61b1ec-203e-4984-b2e5-bc336b681ea2" d="M36.3,34.65c0,3.52-2.14,7.61-4.78,9.13-1.23.71-2.34.74-3.19.21-.97-.6-1.59-1.94-1.59-3.83,0-3.52,2.14-7.6,4.78-9.13,2.64-1.52,4.78.09,4.78,3.61"/>
      <polygon class="uuid-0a61b1ec-203e-4984-b2e5-bc336b681ea2" points="29.44 44.64 28.39 44.03 29.14 43.71 29.44 44.64"/>
      <path class="uuid-0a61b1ec-203e-4984-b2e5-bc336b681ea2" d="M34.48,30.7l1.2.69s-.82.22-.84.23c-.02,0-.36-.92-.36-.92"/>
      <path class="uuid-3c7ed815-e345-4bfa-ba85-43b77255f20a" d="M37.29,35.23c0,3.52-2.14,7.61-4.78,9.13-2.64,1.52-4.78-.09-4.78-3.61s2.14-7.6,4.78-9.13c2.64-1.52,4.78.09,4.78,3.61"/>
      <path class="uuid-26ecb22c-3a93-4765-8ea7-52796fb75693" d="M33.51,37.41c0,.74-.45,1.59-1,1.91-.55.32-1-.02-1-.76s.45-1.59,1-1.91c.55-.32,1,.02,1,.76"/>
      <path class="uuid-0a61b1ec-203e-4984-b2e5-bc336b681ea2" d="M23.08,45.21c0,1.75-1.07,3.79-2.38,4.55-1.31.76-2.38-.05-2.38-1.8s1.07-3.79,2.38-4.55c1.32-.76,2.38.05,2.38,1.8"/>
      <polygon class="uuid-0a61b1ec-203e-4984-b2e5-bc336b681ea2" points="19.13 49.88 19.96 50.36 19.96 49.66 19.13 49.88"/>
      <polygon class="uuid-0a61b1ec-203e-4984-b2e5-bc336b681ea2" points="22.21 43.26 23.08 43.76 22.7 43.94 22.07 43.35 22.21 43.26"/>
      <path class="uuid-3c7ed815-e345-4bfa-ba85-43b77255f20a" d="M23.86,45.66c0,1.75-1.07,3.79-2.38,4.55-1.31.76-2.38-.05-2.38-1.8s1.07-3.79,2.38-4.55c1.32-.76,2.38.05,2.38,1.8"/>
      <path class="uuid-26ecb22c-3a93-4765-8ea7-52796fb75693" d="M22.48,46.46c0,.74-.45,1.59-1,1.91-.55.32-1-.02-1-.76s.45-1.59,1-1.91c.55-.32,1,.02,1,.76"/>
      <polygon class="uuid-33cdf05d-8e6f-4a9e-964b-b00d52b33b8c" points="20.77 24.81 22.37 25.73 30.25 21.18 28.64 20.25 20.77 24.81"/>
      <polygon class="uuid-3c7ed815-e345-4bfa-ba85-43b77255f20a" points="20.77 24.81 20.77 25.79 22.37 26.71 22.37 25.73 20.77 24.81"/>
      <polygon class="uuid-0a61b1ec-203e-4984-b2e5-bc336b681ea2" points="30.26 21.18 22.37 25.73 22.37 26.71 30.26 22.14 30.26 21.18"/>
      <path class="uuid-3c7ed815-e345-4bfa-ba85-43b77255f20a" d="M32.98,7.34l-.99.57c-.76.44-1.39,1.52-1.39,2.41v2.38s.23.19.57.19.41-.19.41-.19v-1.96c0-.8.43-1.54,1.12-1.95l1.22-.7v-.2c0-.49-.53-.79-.95-.55"/>
    </g>
  </g>
</svg>