<?xml version="1.0" encoding="UTF-8"?>
<svg xmlns="http://www.w3.org/2000/svg" xmlns:xlink="http://www.w3.org/1999/xlink" viewBox="0 0 92.55 76.64">
  <defs>
    <style>
      .uuid-076fdb7f-47b5-47b6-b115-8b7a0f103959 {
        fill: #d8ddee;
      }

      .uuid-35ffd0a2-9d1c-4b24-b6e6-c5104fb46b93 {
        fill: #3d2d22;
      }

      .uuid-add0836a-5392-4c36-8637-6d26446b1c75 {
        fill: #fff;
      }

      .uuid-26dc9dd7-123d-4d72-b704-72b0f8b87542 {
        mix-blend-mode: multiply;
        opacity: .71;
      }

      .uuid-f63d65c6-5e8c-4480-bce6-b1061faa2726 {
        fill: #523e2f;
      }

      .uuid-d8bfbb13-aef9-4de9-8dad-e2a1330a28da {
        fill: #2b3086;
      }

      .uuid-364ffacb-b64e-4082-bd8b-94c513297be4 {
        fill: none;
      }

      .uuid-7e096754-ca9a-46c2-8cde-62b72b8740a0 {
        fill: #b6b2b2;
      }

      .uuid-317cf0b0-3e91-4383-abbe-052387312c52 {
        fill: #ebeaeb;
      }

      .uuid-827951ce-84cf-4829-8eac-082d2f188fa6 {
        clip-path: url(#uuid-4ba0fba5-fe8d-4dd6-97ad-258113baab38);
      }

      .uuid-a8507bc6-8c11-4228-bbf9-dbb691276894 {
        fill: #e64942;
      }

      .uuid-bec4afa3-bb50-4e21-995a-bb24b0cb6b78 {
        isolation: isolate;
      }

      .uuid-a5b3d067-cc69-4ea6-9472-8d32c3c63f6f {
        fill: #7b604f;
      }

      .uuid-5b6a2cd6-b89b-4ae4-aa3c-44a5e0680d6f {
        clip-path: url(#uuid-1df51187-8e62-4de4-8914-cf6c62088c13);
      }

      .uuid-2b87d284-8313-4ef4-9635-19548d40e3d4 {
        fill: #c12421;
      }

      .uuid-dd21e913-f14c-4e12-b371-318900233771 {
        fill: #634b3b;
      }

      .uuid-e5ec0a88-482d-4f79-ac8c-358de04f5194 {
        fill: #da322d;
      }

      .uuid-04ba0d2b-92da-42ca-b9d9-aaf9374fd70c {
        fill: #d4d2d2;
      }

      .uuid-c77d525d-eea2-4122-a913-308279af4c51 {
        clip-path: url(#uuid-5e90f1ab-9059-4860-b326-fd48dcc53737);
      }

      .uuid-2e8c0c60-3fcf-410f-978d-0734f186a376 {
        fill: #ef7f55;
      }

      .uuid-a0f85457-918d-49fc-b0cb-6fab81b93c34 {
        fill: #e9edf6;
      }

      .uuid-240632c1-16d1-420e-9be0-2aed137c6ae8 {
        fill: #ea5a5b;
      }

      .uuid-eaaf9d51-7ef5-43a6-8072-f85d7173eba7 {
        fill: #e5ae00;
      }
    </style>
    <clipPath id="uuid-4ba0fba5-fe8d-4dd6-97ad-258113baab38">
      <path class="uuid-364ffacb-b64e-4082-bd8b-94c513297be4" d="M57.82,33.33l-.12,9.59.5-.3c.39-.74,1.49-2.9,1.79-3.14,3.88-3.02,12.57-4.01,12.57-4.01l-1.76-11.01c-7.03,2.51-12.98,8.87-12.98,8.87"/>
    </clipPath>
    <clipPath id="uuid-1df51187-8e62-4de4-8914-cf6c62088c13">
      <rect class="uuid-364ffacb-b64e-4082-bd8b-94c513297be4" x="61.74" y="31.25" width="2.37" height="3.28"/>
    </clipPath>
    <clipPath id="uuid-5e90f1ab-9059-4860-b326-fd48dcc53737">
      <rect class="uuid-364ffacb-b64e-4082-bd8b-94c513297be4" x="61.74" y="31.25" width="2.37" height="3.27"/>
    </clipPath>
  </defs>
  <g class="uuid-bec4afa3-bb50-4e21-995a-bb24b0cb6b78">
    <g id="uuid-2a47958c-ade2-4f4e-a69b-12f303110132" data-name="Calque_2">
      <g id="uuid-30c76803-8145-4dc5-ac38-933a2a4d35ab" data-name="Les_Véhicules">
        <g id="uuid-2f109fa8-6806-48af-ad0a-96a93901f2f5" data-name="Vehicule_x5F_VoitureOuverte_x5F_BG">
          <path class="uuid-a8507bc6-8c11-4228-bbf9-dbb691276894" d="M87.08,18.27L55.25.4c-1.09-.64-2.77-.51-5.76.36-7.12,2.06-18.26,6.17-25.22,13.51-3.71,3.91-6.53,7.41-9.55,11.87-1.74,2.57-8.6,11.13-13.03,20.64C-.36,51.17.03,56.13.03,56.13c-.03,2.35,1.32,5.23,2.59,6.22,4.63,3.64,14.87,9.82,20.98,12.15,5.3,2.03,12.46.45,16.26-1.69,0,0-1.64-.93-4.19-2.37l51.42-52.17Z"/>
          <path class="uuid-2b87d284-8313-4ef4-9635-19548d40e3d4" d="M87.3,37.94c2.7.73,3.26,3.35,3.47,5.77l-.34.67-8.41-4.92c1.63-1.03,3.3-2.05,5.27-1.52"/>
          <path class="uuid-35ffd0a2-9d1c-4b24-b6e6-c5104fb46b93" d="M86.86,43.01c0,3.76-2.29,8.13-5.12,9.75-2.82,1.63-5.11-.1-5.1-3.86,0-3.76,2.29-8.13,5.12-9.75,2.82-1.62,5.11.11,5.1,3.86"/>
          <polygon class="uuid-35ffd0a2-9d1c-4b24-b6e6-c5104fb46b93" points="78.56 53.11 81.87 55.03 88.07 40.64 84.63 38.67 78.56 53.11"/>
          <path class="uuid-f63d65c6-5e8c-4480-bce6-b1061faa2726" d="M90.18,44.93c0,3.76-2.29,8.13-5.12,9.75-2.82,1.63-5.11-.1-5.1-3.86,0-3.76,2.29-8.13,5.11-9.75,2.82-1.62,5.11.11,5.1,3.86"/>
          <path class="uuid-add0836a-5392-4c36-8637-6d26446b1c75" d="M88.74,45.76c0,2.7-1.65,5.84-3.68,7.01-2.03,1.17-3.67-.07-3.67-2.78,0-2.7,1.65-5.84,3.68-7.01,2.03-1.17,3.67.08,3.67,2.78"/>
          <path class="uuid-04ba0d2b-92da-42ca-b9d9-aaf9374fd70c" d="M87.91,49.33l-2.42-1.25-1.1,1.78,1.58,2.25s1.43-1.28,1.95-2.77"/>
          <path class="uuid-04ba0d2b-92da-42ca-b9d9-aaf9374fd70c" d="M88.69,46.55s.3-1.9-.44-2.94c-1.26,1.07-2.43,2.23-2.43,2.23l.09,1.01,2.78-.3Z"/>
          <path class="uuid-04ba0d2b-92da-42ca-b9d9-aaf9374fd70c" d="M83.59,50.09c-.16.18-1.14,2.73-1.14,2.73,0,0-.69-.39-.91-1.57-.15-.8-.14-1.25-.14-1.25l1.71-.83.48.92Z"/>
          <path class="uuid-04ba0d2b-92da-42ca-b9d9-aaf9374fd70c" d="M85.25,45.77l.89-3.19s-.62-.01-1.39.59c-.67.52-1.02.91-1.02.91l.89,2.18.62-.49Z"/>
          <path class="uuid-04ba0d2b-92da-42ca-b9d9-aaf9374fd70c" d="M83.97,46.74s-.54-.43-1.42-.96c-.22.41-.65,1.2-.8,1.91,1,.19,1.74.19,1.74.19l.48-1.14Z"/>
          <path class="uuid-f63d65c6-5e8c-4480-bce6-b1061faa2726" d="M86.51,46.79c0,1.38-.84,2.98-1.88,3.58-1.04.6-1.88-.04-1.87-1.42,0-1.38.84-2.98,1.88-3.58,1.04-.6,1.88.04,1.87,1.42"/>
          <path class="uuid-add0836a-5392-4c36-8637-6d26446b1c75" d="M85.95,47.41c0,.8-.49,1.73-1.09,2.08-.6.35-1.09-.02-1.09-.82,0-.8.49-1.73,1.09-2.08.6-.35,1.09.02,1.09.82"/>
          <path class="uuid-2b87d284-8313-4ef4-9635-19548d40e3d4" d="M49.64,59.28c2.7.73,3.26,3.35,3.48,5.77l-.34.67-8.41-4.92c1.63-1.03,3.3-2.05,5.27-1.52"/>
          <path class="uuid-35ffd0a2-9d1c-4b24-b6e6-c5104fb46b93" d="M49.21,64.36c0,3.76-2.29,8.13-5.12,9.75-2.82,1.63-5.11-.1-5.1-3.87,0-3.76,2.29-8.13,5.12-9.75,2.82-1.63,5.11.1,5.1,3.86"/>
          <polygon class="uuid-35ffd0a2-9d1c-4b24-b6e6-c5104fb46b93" points="40.9 74.45 44.21 76.37 50.41 61.98 46.97 60.01 40.9 74.45"/>
          <path class="uuid-f63d65c6-5e8c-4480-bce6-b1061faa2726" d="M52.52,66.27c0,3.76-2.29,8.13-5.12,9.75-2.82,1.63-5.11-.1-5.1-3.87,0-3.76,2.29-8.13,5.12-9.75,2.82-1.62,5.11.1,5.1,3.86"/>
          <path class="uuid-add0836a-5392-4c36-8637-6d26446b1c75" d="M51.08,67.1c0,2.7-1.65,5.84-3.68,7.01-2.03,1.17-3.67-.07-3.67-2.78,0-2.7,1.65-5.84,3.68-7.01,2.03-1.17,3.67.08,3.67,2.78"/>
          <path class="uuid-04ba0d2b-92da-42ca-b9d9-aaf9374fd70c" d="M50.25,70.67l-2.42-1.25-1.1,1.78,1.58,2.25s1.43-1.28,1.95-2.77"/>
          <path class="uuid-04ba0d2b-92da-42ca-b9d9-aaf9374fd70c" d="M51.04,67.89s.3-1.9-.44-2.94c-1.26,1.07-2.43,2.23-2.43,2.23l.09,1.01,2.78-.3Z"/>
          <path class="uuid-04ba0d2b-92da-42ca-b9d9-aaf9374fd70c" d="M45.93,71.43c-.16.18-1.14,2.73-1.14,2.73,0,0-.69-.39-.91-1.57-.15-.8-.14-1.25-.14-1.25l1.71-.83.48.92Z"/>
          <path class="uuid-04ba0d2b-92da-42ca-b9d9-aaf9374fd70c" d="M47.6,67.11l.89-3.19s-.62-.01-1.39.59c-.67.52-1.02.91-1.02.91l.89,2.18.62-.49Z"/>
          <path class="uuid-04ba0d2b-92da-42ca-b9d9-aaf9374fd70c" d="M46.32,68.08s-.54-.43-1.42-.96c-.22.41-.66,1.2-.8,1.91,1,.2,1.74.2,1.74.2l.48-1.14Z"/>
          <path class="uuid-f63d65c6-5e8c-4480-bce6-b1061faa2726" d="M48.85,68.14c0,1.38-.84,2.98-1.88,3.58-1.04.6-1.88-.04-1.87-1.42,0-1.38.84-2.98,1.88-3.58,1.04-.6,1.87.04,1.87,1.42"/>
          <path class="uuid-add0836a-5392-4c36-8637-6d26446b1c75" d="M48.29,68.75c0,.8-.49,1.73-1.09,2.08-.6.35-1.09-.02-1.09-.82,0-.8.49-1.73,1.09-2.08.6-.35,1.09.02,1.09.82"/>
          <path class="uuid-e5ec0a88-482d-4f79-ac8c-358de04f5194" d="M92.36,43.28s-.57.32-1.59.9c.13-3.63-1.93-5.48-2.7-5.5-4.33-.13-5.71,1.43-6.42,2.54-1.55,2.42-4.21,7.5-3.79,10.24-7.05,3.97-16.81,9.62-24.38,13.87-.63-5.64-3.96-6.38-4.99-5.8-3.2,1.8-5.21,2.7-7.28,6.98-.56,1.17-1.02,5.84-1.36,6.32-.41.23-.2.28-.6.47-3.93,1.85-7.77,1.93-7.77,1.93,0,0-.41-6.55,1.52-10.29,4.8-9.32,11.41-18,13.16-20.58,3.02-4.46,6.17-8.33,9.88-12.24,6.96-7.33,18.1-11.45,25.22-13.51,5.18-1.5,6.43-.83,7.5,2.36.79,2.33.7,5.67,2.32,8.22,1.5,2.35,1.25,4.35,1.41,7.5.18,3.58-.14,6.6-.14,6.6"/>
          <path class="uuid-a8507bc6-8c11-4228-bbf9-dbb691276894" d="M82.49,36.76c-2.2,4.37-5.6,9.5-13.48,15.07-5.83,4.12-16.27,9.99-16.27,9.99l.51,2.06,24.16-14.11,2.55-6.45s2.07-3.4,5.49-4.79c.25-.1,2.62-.31,4.79,1.13,1.28-1.35.29-6.37-.07-6.92-1.64.78-5.54,2.96-7.69,4.01"/>
          <path class="uuid-2b87d284-8313-4ef4-9635-19548d40e3d4" d="M72.32,34.79s1.62,2.8,1.62,7.25v11.62l.51-.28v-12.37c0-3.74-1.57-6.48-1.57-6.48l-.56.26Z"/>
          <path class="uuid-2b87d284-8313-4ef4-9635-19548d40e3d4" d="M56.93,43.59s1.62,2.8,1.62,7.25v11.62l.51-.28v-12.37c0-3.74-1.57-6.48-1.57-6.48l-.56.26Z"/>
          <path class="uuid-e5ec0a88-482d-4f79-ac8c-358de04f5194" d="M57.65,1.75l.64.36c-.19-.15-.4-.27-.64-.36"/>
          <path class="uuid-f63d65c6-5e8c-4480-bce6-b1061faa2726" d="M23.93,58.04c-.13-.03-.26-.05-.39-.09-2.9-.68-5.17-1.1-8.75-3.29-3.78-2.3-5.55-4.1-7.11-5.73-.16-.17-.31-.36-.46-.54-.09.5-.21.98-.36,1.43.07.08.13.18.21.26,1.56,1.63,3.34,3.43,7.11,5.73,3.52,2.15,5.78,2.59,8.61,3.25.34-.39.72-.74,1.14-1.03"/>
          <path class="uuid-f63d65c6-5e8c-4480-bce6-b1061faa2726" d="M6.44,51.1s-.05-.06-.07-.08c-.12.23-.24.47-.38.72.42.84.89,1.55,1.38,2.08,2.49,2.68,8.26,5.89,13.02,7.19.38.1.75.2,1.12.3.16-.34.33-.69.51-1.07.03-.05.06-.1.09-.15-2.81-.65-5.06-1.11-8.56-3.24-3.78-2.3-5.55-4.1-7.11-5.73"/>
          <path class="uuid-f63d65c6-5e8c-4480-bce6-b1061faa2726" d="M15.42,53.66c3.58,2.18,5.85,2.61,8.75,3.29.41.1.81.18,1.21.27.54-.24,1.08-.44,1.58-.58-.68-.14-1.37-.29-2.08-.46-2.9-.68-5.17-1.1-8.75-3.29-3.77-2.3-5.55-4.1-7.11-5.73-.59-.62-1.07-1.34-1.46-2.06-.02.5-.06,1.1-.12,1.74.26.38.54.75.87,1.09,1.56,1.63,3.34,3.42,7.11,5.73"/>
          <path class="uuid-dd21e913-f14c-4e12-b371-318900233771" d="M7.07,50.09c-.08-.08-.14-.17-.21-.26-.11.35-.24.69-.39.98-.03.06-.07.14-.11.2.02.03.04.06.07.08,1.56,1.63,3.34,3.42,7.11,5.73,3.5,2.13,5.76,2.59,8.56,3.24.19-.37.42-.7.68-1-2.83-.66-5.09-1.11-8.61-3.25-3.78-2.3-5.55-4.1-7.11-5.73"/>
          <path class="uuid-dd21e913-f14c-4e12-b371-318900233771" d="M14.78,54.67c3.58,2.18,5.85,2.61,8.75,3.29.13.03.26.06.39.09.46-.33.96-.6,1.46-.83-.4-.09-.8-.17-1.22-.27-2.9-.68-5.17-1.1-8.75-3.29-3.77-2.3-5.55-4.1-7.11-5.73-.32-.34-.61-.71-.87-1.09-.05.51-.13,1.04-.22,1.56.14.19.29.37.46.54,1.56,1.63,3.34,3.42,7.11,5.73"/>
          <path class="uuid-add0836a-5392-4c36-8637-6d26446b1c75" d="M28.13,56.86c-3.31,1.18-3.92,3.7-4.29,4.96,2.7.52,5.41.63,8.27-.44,1.4-1.87,2.11-3.55,2.11-3.55,0,0-2.62-.3-6.09-.97"/>
          <path class="uuid-7e096754-ca9a-46c2-8cde-62b72b8740a0" d="M28.13,56.86c-.38-.07-.77-.15-1.17-.23-1.72.49-3.96,1.52-4.94,3.59-.18.38-.35.73-.51,1.07.78.2,1.55.38,2.33.53.37-1.26.98-3.78,4.29-4.96"/>
          <path class="uuid-add0836a-5392-4c36-8637-6d26446b1c75" d="M6.86,43.56c-.46-1.18-.64-2.1-.64-2.1,0,0-1.04,1.59-2.07,3.54.21,1.94.62,3.66,1.15,5.11,1.56-2.86,1.56-6.55,1.56-6.55h0Z"/>
          <path class="uuid-04ba0d2b-92da-42ca-b9d9-aaf9374fd70c" d="M4.72,45.58c.02.84.55,1.73,1.19,1.99.64.26,1.13-.22,1.11-1.06-.02-.84-.55-1.73-1.19-1.99-.64-.26-1.13.22-1.11,1.06"/>
          <path class="uuid-317cf0b0-3e91-4383-abbe-052387312c52" d="M5.08,45.76c.01.58.38,1.19.82,1.37.44.18.78-.15.77-.73-.01-.58-.38-1.19-.82-1.37-.44-.18-.78.15-.76.73"/>
          <path class="uuid-7e096754-ca9a-46c2-8cde-62b72b8740a0" d="M6.47,50.81c.8-1.59,1.03-4.14,1.09-5.71-.29-.53-.51-1.06-.7-1.54h0s0,3.28-1.56,6.55c.21.58.44,1.13.68,1.62.18-.32.34-.64.49-.92"/>
          <path class="uuid-04ba0d2b-92da-42ca-b9d9-aaf9374fd70c" d="M26.52,59.17c.02.84.55,1.73,1.19,1.99.64.26,1.13-.22,1.11-1.06-.02-.84-.55-1.73-1.19-1.99-.64-.26-1.13.22-1.11,1.06"/>
          <path class="uuid-04ba0d2b-92da-42ca-b9d9-aaf9374fd70c" d="M29.77,59.31c.02.64.42,1.31.9,1.5.48.19.86-.17.84-.8-.02-.64-.42-1.31-.9-1.5-.48-.19-.86.17-.84.8"/>
          <path class="uuid-317cf0b0-3e91-4383-abbe-052387312c52" d="M26.88,59.34c.01.58.38,1.19.82,1.37.44.18.78-.15.77-.73-.01-.58-.38-1.19-.82-1.37-.44-.18-.78.15-.76.73"/>
          <path class="uuid-f63d65c6-5e8c-4480-bce6-b1061faa2726" d="M25.04,71.17c-3.55-.6-9.24-3.22-13.31-5.6-3.7-2.16-6.5-4.59-8.55-7.16-.53-.66-.66-1.54-.16-2.23l.77-1.08c-.31-.15-.71-.08-.93.23l-.86,1.2c-.49.69-.36,1.57.16,2.23,2.05,2.57,4.82,5.26,8.51,7.43,4.07,2.38,9.7,5.67,13.3,5.71.94,0,1.36-.29,1.51-.72-.15.02-.3.02-.45,0"/>
          <path class="uuid-dd21e913-f14c-4e12-b371-318900233771" d="M25.53,70.21l-.29-1.72c-.15-.89-.76-1.62-1.62-1.92-2.47-.85-7.83-2.83-12.37-5.45-3.53-2.04-6.13-4.65-7.25-5.87-.07-.07-.15-.12-.23-.16l-.77,1.08c-.49.69-.36,1.57.16,2.23,2.05,2.57,4.85,5,8.55,7.16,4.06,2.38,9.76,5,13.31,5.6.15.03.31.02.45,0,.1-.28.1-.62.04-.97"/>
          <polygon class="uuid-add0836a-5392-4c36-8637-6d26446b1c75" points="8.18 63.85 13.9 67.15 13.9 63.07 8.18 59.77 8.18 63.85"/>
          <path class="uuid-35ffd0a2-9d1c-4b24-b6e6-c5104fb46b93" d="M10.03,36.54s4.28,6.51,10.69,10.24c7.78,4.52,17.43,5.65,17.43,5.65.38-.62.73-1.18,1.06-1.71l-28.03-16.18c-.38.65-.76,1.31-1.16,2.01"/>
          <path class="uuid-35ffd0a2-9d1c-4b24-b6e6-c5104fb46b93" d="M48.7,29.15c-6.09-3.53-16.06-9.48-20.65-11.97-2.29-1.25-1.71-2.96-1.67-3.09-.3.29-.61.58-.9.89-.97,1.02-1.85,1.94-2.68,2.85l28.4,16.4c.86-.97,1.78-1.95,2.78-3.01.22-.23.45-.44.67-.66l.02-.04s-3.37.14-5.97-1.37"/>
          <path class="uuid-35ffd0a2-9d1c-4b24-b6e6-c5104fb46b93" d="M84.99,17.18c-.82-.46-28.24-15.88-28.24-15.88l-.64-.36c-.73-.29-1.71-.29-3.08-.04.04,0,2.14.31,4.62,1.8,2.51,1.5,20.45,11.39,22.12,12.45,1.68,1.06,1.43,2.02,1.43,2.02,1.79-.42,2.96-.47,3.79,0"/>
          <path class="uuid-f63d65c6-5e8c-4480-bce6-b1061faa2726" d="M14.8,36.61l24.42,14.1c3.09-4.93,4.33-6.44,5.49-8.15,1.61-2.38,3.09-4.33,4.68-6.23-3.22-1.8-7.84-4.45-13.7-8.03-8.11-4.94-16.35,2.75-20.88,8.31"/>
          <path class="uuid-dd21e913-f14c-4e12-b371-318900233771" d="M31.89,23.07l-9.09-5.25c-2.36,2.55-4.37,4.99-7.2,9.39-1.01,1.58-2.57,4.13-4.41,7.31l2.04,1.18,3.49,2.01c3.59-4.34,9.1-9.55,17.41-7.77,5.5,1.18,12.03,4.58,15.25,6.38.59-.7,1.19-1.4,1.82-2.1l-19.31-11.15Z"/>
          <path class="uuid-a5b3d067-cc69-4ea6-9472-8d32c3c63f6f" d="M30.34,22.18l-7.55-4.36c-2.36,2.55-4.37,4.99-7.2,9.39-1.01,1.58-2.57,4.13-4.41,7.31l2.05,1.18c1.56-2.54,7.53-11.55,17.11-13.53"/>
          <path class="uuid-f63d65c6-5e8c-4480-bce6-b1061faa2726" d="M54.67,13.88c-10.59,2.91-17.61,5.59-20.5,6.77,4.75,2.75,10.49,6.16,14.53,8.5,2.6,1.51,5.97,1.37,5.97,1.37l-.02.04c6.99-6.91,17.65-10.85,24.55-12.84.74-.21,1.41-.39,2-.53,0,0,.25-.96-1.43-2.02-.57-.36-3.02-1.74-6.1-3.46-4.87-.15-11.65.18-19.01,2.19"/>
          <path class="uuid-f63d65c6-5e8c-4480-bce6-b1061faa2726" d="M53.03.91c-.67.13-1.44.31-2.32.57-6.83,1.97-17.33,5.84-24.33,12.62-.05.13-.63,1.84,1.67,3.09,1.54.84,3.71,2.07,6.12,3.47,2.89-1.18,9.91-3.86,20.5-6.77,7.36-2.02,14.14-2.35,19.01-2.2-5.99-3.35-14.36-7.99-16.02-8.98-2.49-1.49-4.58-1.79-4.62-1.8"/>
          <path class="uuid-a5b3d067-cc69-4ea6-9472-8d32c3c63f6f" d="M53.03.91c-.67.13-1.44.31-2.32.57-6.83,1.97-17.33,5.84-24.33,12.62-.05.13-.63,1.84,1.67,3.09,1.54.84,3.71,2.07,6.12,3.47,2.89-1.18,9.91-3.86,20.5-6.77,7.36-2.02,14.14-2.35,19.01-2.2-5.99-3.35-14.36-7.99-16.02-8.98-2.49-1.49-4.58-1.79-4.62-1.8"/>
          <path class="uuid-35ffd0a2-9d1c-4b24-b6e6-c5104fb46b93" d="M65.19,26.35c-5.11,3.06-8.33,5.83-10.97,9.67-2.65,3.84-4.04,5.76-5.36,8.3-1.32,2.54-1.01,4.46,3.62,2.45,3.77-1.63,25.08-14.67,28.17-16.65,3.09-1.98,3.86-4.74,4.3-7.17.44-2.43-.22-4.63-5.08-3.04-4.25,1.39-11.11,4.31-14.67,6.44"/>
          <path class="uuid-f63d65c6-5e8c-4480-bce6-b1061faa2726" d="M56.64,34.53c-.81,1.39-3.08,4.47-4.9,7.02-1.5,2.09-3.05,4.76-2.37,5.14.89.49,5.67-1.95,7.27-3.2v-8.95Z"/>
          <path class="uuid-dd21e913-f14c-4e12-b371-318900233771" d="M57.69,33.52v9.43s7.04-4.38,9-5.38c1.93-.99,5.02-3.09,5.02-3.09v-10.43s-4.4,1.76-7.68,4.04c-3.97,2.76-6.34,5.43-6.34,5.43"/>
          <path class="uuid-f63d65c6-5e8c-4480-bce6-b1061faa2726" d="M72.87,23.61v10.1s6.01-3.47,7.45-4.3c1.43-.83,3.64-4.25,3.81-6.68.17-2.43-.84-2.36-1.76-2.43-1.16-.09-6.9,2.07-9.49,3.31"/>
          <path class="uuid-eaaf9d51-7ef5-43a6-8072-f85d7173eba7" d="M71.79,39.4c0,.75-.45,1.61-1.01,1.94-.56.32-1.01-.02-1.01-.77s.45-1.61,1.01-1.93c.56-.32,1.01.02,1.01.76"/>
          <path class="uuid-a8507bc6-8c11-4228-bbf9-dbb691276894" d="M72.14,39.82l-2.73,1.57c-.22.13-.4,0-.4-.3s.18-.64.4-.77l2.73-1.57c.22-.13.4,0,.4.3s-.18.64-.4.77"/>
          <path class="uuid-eaaf9d51-7ef5-43a6-8072-f85d7173eba7" d="M85.53,31.49c0,.75-.45,1.61-1.01,1.94-.56.32-1.01-.02-1.01-.77s.45-1.61,1.01-1.93c.56-.32,1.01.02,1.01.77"/>
          <path class="uuid-a8507bc6-8c11-4228-bbf9-dbb691276894" d="M85.87,31.9l-2.73,1.57c-.22.13-.4,0-.4-.3s.18-.64.4-.77l2.73-1.57c.22-.13.4,0,.4.3s-.18.64-.4.77"/>
          <path class="uuid-a8507bc6-8c11-4228-bbf9-dbb691276894" d="M55.91,47.11s-1.24,1.53-2.18,2.09c-.94.55-.99.95-.99,1.92s.78.93,1.59-.01c.81-.94,2.32-3.23,2.32-3.23l-.73-.77Z"/>
          <path class="uuid-a8507bc6-8c11-4228-bbf9-dbb691276894" d="M56.04,46.74c-1.13-.84-1.93-1.18-2.47-1.32-.05.22-.07.45-.08.71-.02,1.19.47,2.9,2.71,3.75.86.33,1.74.49,2.41.44-.05-1.04-.73-2.21-2.57-3.58"/>
          <path class="uuid-240632c1-16d1-420e-9be0-2aed137c6ae8" d="M59.3,48.3c-.87-1.25-2.69-2.91-4.03-3.59-1.05-.53-1.53-.07-1.7.72.54.14,1.35.48,2.47,1.32,1.84,1.36,2.52,2.54,2.57,3.58,1.07-.08,1.61-.69.69-2.03"/>
          <path class="uuid-a8507bc6-8c11-4228-bbf9-dbb691276894" d="M46.64,59.55c-4.04,2.33-7.69,8.3-7.39,13.74.19-.11.98-.23,1.4-.48,0-.05,0-.18,0-.24,0-4.46,2.72-9.65,6.07-11.57,3.35-1.93,6.06.12,6.06,4.59,0,.05,0,.09,0,.14.39-.23.79-.46,1.19-.69-.02-5.36-3.29-7.82-7.33-5.49"/>
          <path class="uuid-a8507bc6-8c11-4228-bbf9-dbb691276894" d="M84.29,38.2c-4.04,2.33-7.69,8.3-7.39,13.74.19-.11.97-.47,1.4-.71,0-.05,0,.05,0,0,0-4.46,2.72-9.65,6.07-11.57,3.35-1.93,6.06.12,6.06,4.59,0,.05,0,.09,0,.14.39-.23.79-.46,1.19-.69-.02-5.36-3.29-7.82-7.33-5.49"/>
          <path class="uuid-dd21e913-f14c-4e12-b371-318900233771" d="M68.35,36.4l4.6-.19s-.37-1.31-1.02-1.56c-.03-.01-.05-.04-.08-.05-1.3-.92-3.5,1.81-3.5,1.81"/>
          <path class="uuid-e5ec0a88-482d-4f79-ac8c-358de04f5194" d="M58.44,43.55l20.93,4.84s.85,1.02,1.11,3.59c.26,2.58-1,11.66-1,11.66l-19.83-1.72s.09-6.34,0-11.65c0-.53.82-.53.78-1.05-.08-1.22-.59-1.41-1.05-2.09-.53-.78-1-2.04-.94-3.6"/>
          <path class="uuid-35ffd0a2-9d1c-4b24-b6e6-c5104fb46b93" d="M79.5,48.66l-1.36-12.98s-9.39-1.65-18.42,4l-2.34,4.49,22.12,4.49Z"/>
          <path class="uuid-f63d65c6-5e8c-4480-bce6-b1061faa2726" d="M78.56,47.74l-1.06-11.09s-7.02-1.9-17.26,3.68l-1.4,3.16,19.73,4.24Z"/>
          <g class="uuid-827951ce-84cf-4829-8eac-082d2f188fa6">
            <path class="uuid-2e8c0c60-3fcf-410f-978d-0734f186a376" d="M53.96,49.09c-.37,0-.74-.17-.98-.5-.39-.54-.27-1.3.27-1.69l5.18-3.76c.54-.39,1.3-.27,1.69.27.39.54.27,1.3-.27,1.69l-5.17,3.76c-.22.16-.46.23-.71.23"/>
            <path class="uuid-2e8c0c60-3fcf-410f-978d-0734f186a376" d="M58.64,45.79c-.08,0-.16,0-.25-.02-.77-.13-1.28-.87-1.15-1.63l1.43-8.18c.13-.77.87-1.28,1.63-1.15.77.13,1.28.87,1.15,1.63l-1.43,8.18c-.12.69-.72,1.17-1.39,1.17"/>
            <path class="uuid-076fdb7f-47b5-47b6-b115-8b7a0f103959" d="M61.46,36.35l-1.21,6.54c-.23.47-.73.78-1.28.78-.08,0-.16,0-.24-.02-.02,0-.03,0-.05-.01-.74-.15-1.23-.83-1.1-1.54l1.21-6.54c.26-.54.88-.86,1.53-.76.77.13,1.28.82,1.15,1.55"/>
            <path class="uuid-076fdb7f-47b5-47b6-b115-8b7a0f103959" d="M58.97,43.87c-.09,0-.18,0-.28-.02-.01,0-.03,0-.05-.01-.85-.17-1.41-.96-1.26-1.77l1.21-6.57v-.03c.32-.63,1.04-.98,1.75-.86.44.07.82.31,1.07.66.23.33.32.73.25,1.12l-1.21,6.56v.02c-.27.54-.85.89-1.48.89M58.98,35.62l-1.2,6.51c-.11.61.3,1.18.94,1.3h.03c.09.02.15.03.22.03.46,0,.89-.25,1.09-.64l1.2-6.51c.05-.29-.01-.58-.18-.82-.19-.26-.47-.44-.8-.49-.53-.09-1.06.17-1.3.62"/>
            <path class="uuid-a0f85457-918d-49fc-b0cb-6fab81b93c34" d="M68.55,51.37c-.67.62-1.93.63-3.23.37-1.41-.28-2.86-.88-3.69-1.39-.19-.12-2.4-1.13-3.33-1.7-.25-.15-.35-.47-.24-.74,1.15-2.73,1.9-6.09.98-8.85-.18-.53-.34-1.07-.44-1.59v-.34.3c-.3-1.53-.08-2.95,1.64-3.96.33-.19.78-.27,1.28-.27.22,0,.46,0,.71.05,3.29.6,5.03,1.66,6.02,3.28.67,1.09,1,2.43,1.23,4.06.35,2.42.29,9.65-.94,10.78"/>
            <path class="uuid-a0f85457-918d-49fc-b0cb-6fab81b93c34" d="M58.6,37.47s0-.03,0-.04"/>
            <path class="uuid-a0f85457-918d-49fc-b0cb-6fab81b93c34" d="M65.73,35.09c-.54.6-1.31,1.47-1.78,1.99-.2.23-.57.21-.75-.04l-1.04-1.44-1.49.27c-.18.03-.35-.11-.35-.29v-.46c0-1.02.71-1.9,1.71-2.12.33-.07.68-.11,1.04-.11.98,0,1.87.28,2.49.72.48.34.54,1.03.15,1.47"/>
            <path class="uuid-a0f85457-918d-49fc-b0cb-6fab81b93c34" d="M68.55,51.37c-.67.62-1.93.63-3.23.37.04-.46.18-.92.39-1.33,1.09-1.77,1.23-2.28,1.01-4.38-.09-.83-.17-1.68.05-2.49.21-.76.7-1.5.55-2.28-.07-.35-.26-.67-.4-.99-.3-.69-.39-1.47-.25-2.21.08-.41.23-.82.53-1.11.28-.28.66-.41,1.05-.41.67,1.09,1,2.43,1.23,4.06.35,2.42.29,9.65-.94,10.78"/>
            <path class="uuid-2e8c0c60-3fcf-410f-978d-0734f186a376" d="M64.24,30.71v3.93c-.28.28-.74.46-1.26.46s-.96-.17-1.24-.44v-3.95h2.5Z"/>
            <g class="uuid-26dc9dd7-123d-4d72-b704-72b0f8b87542">
              <g class="uuid-5b6a2cd6-b89b-4ae4-aa3c-44a5e0680d6f">
                <g class="uuid-c77d525d-eea2-4122-a913-308279af4c51">
                  <path class="uuid-2e8c0c60-3fcf-410f-978d-0734f186a376" d="M61.84,34.53l.81-1.17.15-.22,1.09-1.56.22-.32h-.19s-.98.07-.98.07c-.41.42-.85.83-1.21,1.28l.1,1.93Z"/>
                </g>
              </g>
            </g>
            <path class="uuid-2e8c0c60-3fcf-410f-978d-0734f186a376" d="M64.87,30.29c-.01.15-.18.27-.36.38-.06.04-.12.08-.18.13,0,0-.01,0-.01.01-.04.03-.09.06-.12.1-.05.05-.08.1-.09.15-.04.19-.1.37-.18.55-.24.56-.65,1.03-1.13,1.33-.11.07-.22.12-.34.18-.23.11-.48.18-.73.2-.1.01-.19.01-.29.01-.61-.01-1.22-.28-1.75-.88-.28-.32-.44-.71-.52-1.12-.05-.24-.08-.5-.09-.75,0-.29,0-.58.01-.86.02-.45.04-.89.05-1.33,0-.18.01-.36.02-.54-.01-.08-.01-.17,0-.25.05-.23.21-.43.43-.54.32-.17.7-.16,1.05-.12.73.08,1.46.24,2.09.61.63.36,1.16.94,1.38,1.64.1.32.75.78.73,1.11"/>
            <path class="uuid-d8bfbb13-aef9-4de9-8dad-e2a1330a28da" d="M65.6,27.88c-.05-.67-.28-1.23-.66-1.67-.34-.39-.81-.69-1.39-.86-.36-.11-.73-.19-1.1-.17-.53.04-1.01.29-1.51.43-.52.15-1.07.18-1.58.36-.51.19-.99.59-1.05,1.13-.06.55.37,1.07.89,1.29.51.22,1.09.22,1.65.21.38,0,1.17-.17,1.51.01.52.27.33,1.06.57,1.48.07.13.22.22.36.21.34-.02.46-.51.79-.62.22-.08.49.06.59.28s.04.48-.11.67c-.15.2-.45.22-.59.38-.11.13-.07.36-.03.57.04.19.16.37.34.43,1.35.47,1.37-3.5,1.32-4.13"/>
          </g>
        </g>
      </g>
    </g>
  </g>
</svg>