<?xml version="1.0" encoding="UTF-8"?>
<svg id="uuid-79d5cd36-f241-41bc-8444-13598520a544" data-name="Calque_2" xmlns="http://www.w3.org/2000/svg" xmlns:xlink="http://www.w3.org/1999/xlink" viewBox="0 0 69.49 46.39">
  <defs>
    <style>
      .uuid-43c365e7-4c62-4570-bd6c-2713275bad8f {
        opacity: .31;
      }

      .uuid-beacae07-e900-44f0-94e8-234a52f46eda {
        fill: #536a74;
      }

      .uuid-819bc81f-254b-48a7-98b9-4ad562beff85 {
        fill: #f7ac00;
      }

      .uuid-7518472e-c5eb-4cb8-ace9-16b3d0de4716 {
        fill: #2b2422;
      }

      .uuid-b7ab1f39-a67c-44fe-8ead-fb7b060f2dd5 {
        clip-path: url(#uuid-61bb38ea-0c4d-4080-83a8-b714c2b5304f);
      }

      .uuid-3743c053-a7b2-4e75-818b-89d152cbeb30 {
        fill: none;
      }

      .uuid-e4617867-0400-41b6-be15-0ccb3f64d0f9 {
        clip-path: url(#uuid-6fe80ba8-2d84-43ad-81cb-a48c0462d156);
      }

      .uuid-525d29a3-786a-4714-8c0d-d8d09de60828 {
        fill: #1a1c1f;
      }

      .uuid-70f422f9-c535-4254-95a1-c6d310a19152 {
        fill: #b0b4b9;
      }

      .uuid-95447051-ea2f-44eb-bb62-5b11b3e60e83 {
        clip-path: url(#uuid-b443f60c-2c79-4e24-85e5-4f7680af7a26);
      }

      .uuid-a2ac01c2-821e-4a1f-8a0e-6a1593b84f8a {
        fill: #73818b;
      }

      .uuid-ac798835-e788-4a26-8c0d-28c1930e339a {
        fill: #b01917;
      }

      .uuid-3daf8d17-117a-4028-a936-8cfb160c1800 {
        fill: #d4d2d2;
      }

      .uuid-ae187268-cacc-4b2f-a02e-72e8a3ce6304 {
        fill: #576574;
      }

      .uuid-d09a2d36-59e9-4eda-aef7-b194d0db991d {
        clip-path: url(#uuid-6b47191a-12bb-40a6-ae70-9fd0a3c82b4d);
      }

      .uuid-0afa2afa-0699-48d6-8dfe-e71f055a0405 {
        clip-path: url(#uuid-0771a7b1-2242-42a9-8158-8d103334e8ab);
      }

      .uuid-50df8578-3efd-4675-b60f-088f27d8b5cb {
        clip-path: url(#uuid-c45fe156-1f26-40b4-b8a5-5a631dcc1f36);
      }
    </style>
    <clipPath id="uuid-61bb38ea-0c4d-4080-83a8-b714c2b5304f">
      <rect class="uuid-3743c053-a7b2-4e75-818b-89d152cbeb30" x="52.42" y="29.75" width="14.62" height="11.08"/>
    </clipPath>
    <clipPath id="uuid-6b47191a-12bb-40a6-ae70-9fd0a3c82b4d">
      <rect class="uuid-3743c053-a7b2-4e75-818b-89d152cbeb30" x="52.42" y="29.75" width="14.62" height="11.08"/>
    </clipPath>
    <clipPath id="uuid-b443f60c-2c79-4e24-85e5-4f7680af7a26">
      <rect class="uuid-3743c053-a7b2-4e75-818b-89d152cbeb30" x="50.67" y="33.65" width="17.91" height="9.15"/>
    </clipPath>
    <clipPath id="uuid-6fe80ba8-2d84-43ad-81cb-a48c0462d156">
      <rect class="uuid-3743c053-a7b2-4e75-818b-89d152cbeb30" x="50.67" y="33.65" width="17.91" height="9.15"/>
    </clipPath>
    <clipPath id="uuid-c45fe156-1f26-40b4-b8a5-5a631dcc1f36">
      <rect class="uuid-3743c053-a7b2-4e75-818b-89d152cbeb30" x="47.23" y="36.82" width="8.21" height=".94"/>
    </clipPath>
    <clipPath id="uuid-0771a7b1-2242-42a9-8158-8d103334e8ab">
      <rect class="uuid-3743c053-a7b2-4e75-818b-89d152cbeb30" x="47.23" y="36.82" width="8.21" height=".94"/>
    </clipPath>
  </defs>
  <g id="uuid-c38cd315-9191-4f72-9146-cb95cfbeaf1a" data-name="Les_Véhicules">
    <g id="uuid-d3a76c35-fdd5-456a-aeeb-9541afc244c7" data-name="Vehic_x5F_Taxi_x5F_HG">
      <path class="uuid-819bc81f-254b-48a7-98b9-4ad562beff85" d="M68.04,25.22s-3.92-2.99-4.32-3.37c-.02-.02-5.87-6.44-8.57-8.69-7.1-5.91-16.03-8.99-18.12-9.43-.16-.03-.24-.07-.24-.07-2.51-.6-4.22-.61-6.81-.61-.14,0-3.35-1.56-5.94-2.16-2.78-.64-7.43-1.51-11.1-.24-2.59.9-4.81,1.67-8.32,3.67C.95,6.42,0,9.52,0,10.77c0,.1.05,3.67.05,3.67,0,0,.64,4.42,5.95,8.41,3.02,2.26,27.87,16.78,27.87,16.78,0,0,8.64,3.96,11.89,5.19,3.02,1.15,6.58,1.9,10.81.06,2.3-1,6.58-3.33,10.19-5.62,1.86-1.18,2.6-2.74,2.6-5.06,0-.68.12-4.63.12-4.85.05-2.35-.37-3.36-1.45-4.15"/>
      <path class="uuid-beacae07-e900-44f0-94e8-234a52f46eda" d="M10.45,11.83c.69-.1,2.96-.88,5.34-1.1,3.8-.35,6.54.3,6.54.3,0,0,3.66-2.73,9.07-4.72,6.52-2.4,7.64-1.72,7.64-1.72-2.14-.71-5.17-1.5-10.26-1.12-2.88.21-6.86,1.5-6.89,1.5-5.1,1.57-9.54,4.75-10.64,5.52-1.5,1.05-.8,1.35-.8,1.35"/>
      <path class="uuid-beacae07-e900-44f0-94e8-234a52f46eda" d="M38,21.59s-4.99-5.08-10.71-8.28c-1.51-.85-3.34-1.59-5.5-2.2-2.48-.69-5.88-.48-7.16-.29-.1.01,5.22-.62,5.37-.55.1.05,2.79-.07,7.74,2.63,5.36,2.92,11.01,8.69,11.01,8.69h-.75Z"/>
      <path class="uuid-beacae07-e900-44f0-94e8-234a52f46eda" d="M62.22,21.09s1.12,1.07.08,2.06c-.89.84-2.53,2.19-6.03,4.06-6.38,3.42-9.66,3.82-9.66,3.82,0,0-1.07.27-2.07-.12-.36-.15-.55-.55-.55-.55-1.39-2.25-1.35-2.55-2.25-3.89-1.85-2.78-4.64-5.92-4.64-5.92,0,0,4.94-1.42,10.71-4.04,3.99-1.82,6.36-3.5,6.36-3.5,0,0,2.13,1.83,4.95,4.77,2.5,2.61,3.1,3.32,3.1,3.32"/>
      <path class="uuid-7518472e-c5eb-4cb8-ace9-16b3d0de4716" d="M69.48,29.21c0-.13,0-.26,0-.38,0-.06,0-.12,0-.18,0-.04,0-.08,0-.11-.06-1.76-.5-2.62-1.43-3.3.13.43.21,1.29-1.28,2.5-.42.34-6.52,4.87-14.46,7.57-2.51.85-5.09.65-7.49.3-3.73-.55-6.84-2.65-6.84-2.65,0,0-26.07-13.73-27.72-14.78-.4-.25-.76-1.71-3.05-3.35-2.47-1.77-5.36-1.97-5.36-1.97l-1.57-2.12s-.09-.12-.25-.32c-.02.13-.02.25-.02.35C0,10.87.05,14.44.05,14.44c0,0,.64,4.42,5.95,8.42,3.02,2.26,27.87,16.78,27.87,16.78,0,0,8.64,3.96,11.89,5.19,3.02,1.15,6.58,1.9,10.81.06,2.3-1,6.58-3.33,10.19-5.62,1.86-1.18,2.6-2.73,2.6-5.05v-.04c0-.68.12-4.75.12-4.97"/>
      <polyline class="uuid-3743c053-a7b2-4e75-818b-89d152cbeb30" points="69.49 46 69.49 10.41 0 10.41 0 46"/>
      <polyline class="uuid-3743c053-a7b2-4e75-818b-89d152cbeb30" points="69.49 46 69.49 10.41 0 10.41 0 46"/>
      <path class="uuid-ae187268-cacc-4b2f-a02e-72e8a3ce6304" d="M34.11,32.46c0,.27-.4.1-.61-.03l-.86-.53c-.33-.23-.46-.51-.49-.67-.09-.41.38-.14.58,0l.82.52c.21.13.53.38.55.59v.12Z"/>
      <path class="uuid-ae187268-cacc-4b2f-a02e-72e8a3ce6304" d="M20.16,25c0,.27-.39.1-.61-.02l-.86-.52c-.33-.23-.46-.51-.5-.67-.09-.41.38-.14.58-.01l.83.51c.21.12.54.37.55.59v.12Z"/>
      <g class="uuid-43c365e7-4c62-4570-bd6c-2713275bad8f">
        <g class="uuid-b7ab1f39-a67c-44fe-8ead-fb7b060f2dd5">
          <g class="uuid-d09a2d36-59e9-4eda-aef7-b194d0db991d">
            <path class="uuid-7518472e-c5eb-4cb8-ace9-16b3d0de4716" d="M52.9,37.62s.19-.11,1.61,1.83c.5.69,1.7,1.14,3.15.56.83-.33,7.43-3.93,7.43-3.93,0,0,1.34-.71,1.5-2.54.12-1.48.22-3.7.22-3.7l.22-.1s-.2,2.97-.2,3.61c0,1.16-.25,2.37-2.05,3.36-1.78.98-7.17,3.79-7.17,3.79,0,0-2.11.95-3.15-.45-1.27-1.72-2.06-2.62-2.06-2.62l.49.19Z"/>
          </g>
        </g>
      </g>
      <g class="uuid-43c365e7-4c62-4570-bd6c-2713275bad8f">
        <g class="uuid-95447051-ea2f-44eb-bb62-5b11b3e60e83">
          <g class="uuid-e4617867-0400-41b6-be15-0ccb3f64d0f9">
            <path class="uuid-7518472e-c5eb-4cb8-ace9-16b3d0de4716" d="M68.57,33.65s.41,1.31-3,3.45c-3.49,2.2-7.54,4.07-7.54,4.07,0,0-2.73,1.56-5.36,1.63-1.5.04-2-.31-2-.31,0,0,2.82-.12,4.62-.88,3.01-1.27,8.67-4.35,10.87-5.7,2.36-1.46,2.4-2.25,2.4-2.25"/>
          </g>
        </g>
      </g>
      <path class="uuid-ac798835-e788-4a26-8c0d-28c1930e339a" d="M54.48,40.21c-.17-.66-.38-.94-.94-1.84-.4-.65-.89-1.07-1.99-1.09-2.85-.04-4.2-.26-4.2-.26,0,0-.75.16-.4.86.16.32,1.44,2.36,2.57,2.88.7.32,1.6.56,3.07.45,1.55-.11,2.06-.3,1.87-1.01"/>
      <path class="uuid-7518472e-c5eb-4cb8-ace9-16b3d0de4716" d="M44.43,42.77c-.66-1.74-1.31-3.06-3.36-5.33-2.57-2.85-5.8-3.5-6.8-2.49-1.3,1.33-.38,4.26-.38,4.26l.19.49c1.43.73,7.59,3.76,10.86,4.75-.15-.53-.27-1.05-.51-1.69"/>
      <path class="uuid-ae187268-cacc-4b2f-a02e-72e8a3ce6304" d="M37.75,34.95s-1.39-.41-2.38.99c-1.09,1.53-.86,3.62.24,5.77,1.1,2.16,2.74,3.58,4.24,4.27,1.49.69,2.67.37,3.32.07,1.31-.61,1.78-1.59,1.78-1.59,0,0-.86-4.52-4.42-7.67-1.6-1.41-2.77-1.84-2.77-1.84"/>
      <path class="uuid-3daf8d17-117a-4028-a936-8cfb160c1800" d="M38.96,37.41c1.46.86,2.96,3.49,3.31,4.81.35,1.32.31,2.45-.55,2.98-.85.53-3.11-.23-4.47-1.91-1.36-1.68-1.92-3.66-1.93-4.56,0-.9.77-3.01,3.64-1.32"/>
      <path class="uuid-ae187268-cacc-4b2f-a02e-72e8a3ce6304" d="M38.82,40.86c.16.3.13.64-.06.74-.2.1-.48-.06-.64-.36-.16-.31-.13-.64.06-.74.19-.1.48.06.65.37"/>
      <path class="uuid-7518472e-c5eb-4cb8-ace9-16b3d0de4716" d="M6.01,22.85c.68.51,2.45,1.64,4.8,3.07.06-.97-.01-2.3-.12-2.76-.38-1.7-.4-2.61-1.98-4.98-.86-1.3-1.77-2.21-2.65-2.74-1.13-.68-2.21-.75-3.1-.27-1.52.83-.93,3.49-.93,3.49v.03c.73,1.19,1.94,2.63,3.97,4.15"/>
      <path class="uuid-ae187268-cacc-4b2f-a02e-72e8a3ce6304" d="M5.99,15.44s-1.22-.57-2.33.59c-1.21,1.26-1.29,3.22-.57,5.35.73,2.14,2.04,3.67,3.33,4.51,1.28.84,2.12.75,2.77.65.99-.16,1.61-.61,1.61-.61.02-.19.49-4.67-2.51-8.42-1.34-1.67-2.31-2.07-2.31-2.07"/>
      <path class="uuid-3daf8d17-117a-4028-a936-8cfb160c1800" d="M6.77,17.87c1.23.99,2.25,3.62,2.39,4.88.14,1.27-.24,2.12-1.1,2.49-.86.37-2.64-.45-3.67-2.19-1.03-1.73-1.07-3.48-1.04-4.32.04-.93,1-2.81,3.41-.87"/>
      <path class="uuid-ae187268-cacc-4b2f-a02e-72e8a3ce6304" d="M6.18,21.03c.11.3.04.6-.16.67-.19.07-.44-.12-.54-.43-.11-.3-.04-.6.16-.67.2-.07.44.12.55.42"/>
      <g class="uuid-43c365e7-4c62-4570-bd6c-2713275bad8f">
        <g class="uuid-50df8578-3efd-4675-b60f-088f27d8b5cb">
          <g class="uuid-0afa2afa-0699-48d6-8dfe-e71f055a0405">
            <path class="uuid-7518472e-c5eb-4cb8-ace9-16b3d0de4716" d="M47.23,37.14c-.24-.74,8.2.03,8.2.03,0,0-1.69.71-2.39.57-.12-.03-4.27-.38-4.27-.38,0,0-1.52-.15-1.55-.23"/>
          </g>
        </g>
      </g>
      <path class="uuid-7518472e-c5eb-4cb8-ace9-16b3d0de4716" d="M32.75,17.92c-4.01-3.08-8.02-4.79-10.94-5.54-2.92-.75-6.94-.35-9.42.1-2.98.54-4.95-.73-6.75-1.62-2.66-1.33-3.17-2.85-3.27-3.43-.04.05-.08.1-.11.15-.04.36-.04.94.24,1.7.97,2.62,5.16,4.99,5.91,5.44s24.92,14.16,26.72,15.13c1.8.97,6.67,4.1,7.19,3.49.52-.6-.55-4.39-2.15-7.19-1.3-2.28-3.97-5.59-7.42-8.24"/>
      <polyline class="uuid-3743c053-a7b2-4e75-818b-89d152cbeb30" points="2.24 33.43 42.45 33.43 42.45 7.42 2.24 7.42 2.24 33.43"/>
      <polyline class="uuid-3743c053-a7b2-4e75-818b-89d152cbeb30" points="2.24 33.43 42.45 33.43 42.45 7.42 2.24 7.42 2.24 33.43"/>
      <path class="uuid-beacae07-e900-44f0-94e8-234a52f46eda" d="M39.77,30.69s.1-3.26-4.05-8.04c0,0-1.92-2.07-4.32-3.72-.83-.57-2.48-1.52-3.34-1.99-.22.3-.79,1.87-1.16,3.52-.33,1.43-.52,2.92-.56,3.71l12.47,7.23s1.05.34.95-.71"/>
      <path class="uuid-beacae07-e900-44f0-94e8-234a52f46eda" d="M25.33,19.79c.41-1.76,1.01-3.11,1.27-3.6-1.06-.75-2.85-1.41-3.86-1.69-1.24-.34-3.82-.93-6.14-.56-2.15.35-3.53.85-4.06,1.42-.7.75.3,1.4.3,1.4l11.85,6.58c.2-1.2.36-2.38.64-3.56"/>
      <path class="uuid-7518472e-c5eb-4cb8-ace9-16b3d0de4716" d="M37.98,24.1c-3.05-4.17-7.24-6.75-8.82-7.72-.1-.06-.19-.12-.26-.16-.05-.03-4.72-3.24-10.08-3.24-6.02,0-7.69,3.01-7.71,3.03-.03.05-.71,1.24-.56,2.57l.06.52c.13,1.13.13,1.2.44,3.13.27,1.7.44,2.98.54,3.69h0,0s3.62,2.23,5.62,3.38c2,1.15,15.37,9.1,15.51,9.18v-.02c.02.18.03.36.04.52.05.03.1.06.16.09-.06-.77-.09-2.05.15-3.23.35-1.78,1.3-2.18,2.7-2.26.02,0,.04,0,.07,0,.82,0,2.34.73,3.04,1.12.02,0,.04.01.07.01.29,0,1.62-.77,1.84-2.32.22-1.56-.49-5.16-2.78-8.29M40.62,32.37c-.21,1.45-1.46,2.19-1.69,2.19-.73-.4-2.36-1.17-3.19-1.13-1.43.08-2.47.52-2.84,2.38-.17.86-.2,1.76-.18,2.49-.57-.34-4.43-2.64-8.19-4.86-.43-2.73-.42-6.94-.13-7.74.3-.84.95-1.84.95-1.84v-.03s.21-1.55.77-3.67c.7-2.66,1.63-4.42,1.64-4.44l-.13-.07s-.95,1.8-1.65,4.47c-.53,2.01-.74,3.5-.76,3.68-.08.13-.67,1.06-.96,1.86-.32.89-.3,5,.1,7.69-3.16-1.87-6.2-3.67-7.07-4.17-1.86-1.07-5.07-3.04-5.55-3.33-.09-.68-.27-1.99-.53-3.63-.31-1.93-.31-1.99-.44-3.12l-.06-.53c-.14-1.28.53-2.46.54-2.48.02-.03,1.65-2.96,7.57-2.96,5.31,0,9.95,3.18,10,3.21.08.05.17.1.27.17,1.57.97,5.74,3.53,8.77,7.68,2.27,3.1,2.98,6.65,2.76,8.18"/>
      <polyline class="uuid-3743c053-a7b2-4e75-818b-89d152cbeb30" points="10.53 39.07 40.8 39.07 40.8 12.98 10.53 12.98 10.53 39.07"/>
      <polyline class="uuid-3743c053-a7b2-4e75-818b-89d152cbeb30" points="10.53 39.07 40.8 39.07 40.8 12.98 10.53 12.98 10.53 39.07"/>
      <path class="uuid-a2ac01c2-821e-4a1f-8a0e-6a1593b84f8a" d="M14.6,14.38s-1.61.32-2.66,1.56c-.87,1.03.31,2.01.31,2.01,0,0,.56.03,1.06-.25.14-.08.78-.74.81-.81.07-.16.43-1.34.56-1.76.19-.58.22-.75-.08-.75"/>
      <path class="uuid-ae187268-cacc-4b2f-a02e-72e8a3ce6304" d="M12.49,16.85l1.59-.56s-1.22-.22-1.23-.19c-.23.57-.36.75-.36.75"/>
      <path class="uuid-525d29a3-786a-4714-8c0d-d8d09de60828" d="M11.77,15.21c-.79.44-1.62,1.27-1.52,2.82.05.8.72,2.03,1.45,1.5.75-.55.99-.92,1.37-1.27.32-.3.68-.62.68-1.17s.02-.92,0-1.4c-.04-1.09-1.51-.73-1.97-.47"/>
      <path class="uuid-ae187268-cacc-4b2f-a02e-72e8a3ce6304" d="M12.34,15.79c-.99.82-1.58,1.67-1.44,2.92.03.31.07.58.25.9.17.07.36.05.55-.09.75-.55.98-.83,1.36-1.19.32-.3.69-.71.7-1.52,0-.57,0-.66-.01-1.14,0-.05-.01-.09-.02-.14-.13-.51-.66-.36-1.39.25"/>
      <path class="uuid-70f422f9-c535-4254-95a1-c6d310a19152" d="M12.79,15.95s-.72.53-1.14,1.18c-.23.35-.35.92-.33,1.4.03.48.08.62.12.65.16.12.41-.04.83-.42.36-.33.81-.82.81-.82,0,0,.42-.38.45-1.06.01-.33,0-.95,0-.96,0-.47-.46-.23-.76.05"/>
      <path class="uuid-beacae07-e900-44f0-94e8-234a52f46eda" d="M54.1,13.35s-2.88-2.92-9.2-6.03c-3.7-1.82-6.41-2.71-7.02-2.83-.03,0,.65-.06.65-.06,0,0,1,.25,2.86,1,3.87,1.55,7.48,3.47,10.56,5.77,1.03.77,2.22,1.8,2.22,1.8l-.07.35Z"/>
    </g>
  </g>
</svg>