<?xml version="1.0" encoding="UTF-8"?>
<svg id="uuid-420a9cc7-1fa3-4061-a01c-51b18149c41e" data-name="Calque_2" xmlns="http://www.w3.org/2000/svg" viewBox="0 0 40.37 36.01">
  <defs>
    <style>
      .uuid-30ab1794-f4bc-4b71-99e5-917af0fa93ef {
        fill: #b4d5f1;
      }
    </style>
  </defs>
  <g id="uuid-9f19c34f-3fd7-40bf-b8db-56e5c532c007" data-name="Décors">
    <g id="uuid-a1d9df0d-0d00-439c-9ed2-bf5ee39ce602" data-name="Decour_x5F_Banc">
      <path class="uuid-30ab1794-f4bc-4b71-99e5-917af0fa93ef" d="M37.09,27.22L9.29,11.17c-.42-.24-.42-.64,0-.89.42-.24,1.12-.24,1.54,0l27.8,16.05c.42.24.42.64,0,.89-.42.24-1.12.24-1.54,0"/>
      <path class="uuid-30ab1794-f4bc-4b71-99e5-917af0fa93ef" d="M34.1,28.94L6.3,12.89c-.42-.24-.42-.64,0-.89.42-.24,1.12-.24,1.54,0l27.8,16.05c.42.24.42.64,0,.89-.42.24-1.12.24-1.54,0"/>
      <path class="uuid-30ab1794-f4bc-4b71-99e5-917af0fa93ef" d="M31.11,30.67L3.31,14.62c-.42-.24-.42-.64,0-.89.42-.24,1.12-.24,1.54,0l27.8,16.05c.42.24.42.64,0,.89-.42.24-1.12.24-1.54,0"/>
      <path class="uuid-30ab1794-f4bc-4b71-99e5-917af0fa93ef" d="M28.11,32.4L.32,16.35c-.42-.24-.42-.64,0-.89.42-.24,1.12-.24,1.54,0l27.8,16.05c.42.24.42.64,0,.89-.42.24-1.12.24-1.54,0"/>
      <path class="uuid-30ab1794-f4bc-4b71-99e5-917af0fa93ef" d="M37.09,27.22L9.29,11.17c-.42-.24-.42-.64,0-.89.42-.24,1.12-.24,1.54,0l27.8,16.05c.42.24.42.64,0,.89-.42.24-1.12.24-1.54,0"/>
      <path class="uuid-30ab1794-f4bc-4b71-99e5-917af0fa93ef" d="M34.1,28.94L6.3,12.89c-.42-.24-.42-.64,0-.89.42-.24,1.12-.24,1.54,0l27.8,16.05c.42.24.42.64,0,.89-.42.24-1.12.24-1.54,0"/>
      <path class="uuid-30ab1794-f4bc-4b71-99e5-917af0fa93ef" d="M31.11,30.67L3.31,14.62c-.42-.24-.42-.64,0-.89.42-.24,1.12-.24,1.54,0l27.8,16.05c.42.24.42.64,0,.89-.42.24-1.12.24-1.54,0"/>
      <path class="uuid-30ab1794-f4bc-4b71-99e5-917af0fa93ef" d="M39.6,16.15L11.8.1c-.42-.24-.77-.04-.77.44s.35,1.09.77,1.33l27.8,16.05c.42.24.77.05.77-.44s-.35-1.09-.77-1.33"/>
      <path class="uuid-30ab1794-f4bc-4b71-99e5-917af0fa93ef" d="M39.6,19.61L11.8,3.56c-.42-.24-.77-.04-.77.44s.35,1.09.77,1.33l27.8,16.05c.42.24.77.05.77-.44s-.35-1.09-.77-1.33"/>
      <path class="uuid-30ab1794-f4bc-4b71-99e5-917af0fa93ef" d="M39.6,23.06L11.8,7.01c-.42-.24-.77-.04-.77.44s.35,1.09.77,1.33l27.8,16.05c.42.24.77.05.77-.44s-.35-1.09-.77-1.33"/>
      <path class="uuid-30ab1794-f4bc-4b71-99e5-917af0fa93ef" d="M24.63,36.01h0c-.29,0-.52-.23-.52-.52v-5.71l1.04-.44v6.15c0,.29-.23.52-.52.52"/>
      <path class="uuid-30ab1794-f4bc-4b71-99e5-917af0fa93ef" d="M2.72,23.01h0c-.29,0-.52-.23-.52-.52v-5.71l1.04.52v5.19c0,.29-.23.52-.52.52"/>
      <path class="uuid-30ab1794-f4bc-4b71-99e5-917af0fa93ef" d="M35.9,25.85v4.03c0,.29.23.52.52.52s.52-.23.52-.52v-3.48c-.35-.18-.69-.37-1.04-.55"/>
    </g>
  </g>
</svg>