<?xml version="1.0" encoding="UTF-8"?>
<svg id="uuid-fdbc57ee-ee66-404d-bebe-26ee3a41bc25" data-name="Calque_2" xmlns="http://www.w3.org/2000/svg" viewBox="0 0 165.78 287.9">
  <defs>
    <style>
      .uuid-f0aa670b-3f91-489f-a662-31e801c30ef5 {
        fill: #5b3d3a;
      }

      .uuid-8eb4ad5f-9ec6-4e57-b84b-946ea819fb40 {
        fill: #f1e8e4;
      }

      .uuid-a3fa6d2d-f86c-4961-a6f0-c7b0e2b6b1e7 {
        fill: #d1cfcf;
      }

      .uuid-183c6270-93c0-491c-895a-16bde5049ecc {
        fill: #cdb5b3;
      }

      .uuid-f1f7b347-1990-4ef3-8dac-9d2103ea8299 {
        fill: #fff;
      }

      .uuid-7140e793-ac1c-4c29-912d-a527057a631d {
        fill: #87b6e0;
      }

      .uuid-c8e633dd-d33b-43c7-897b-2a320a94a03c {
        fill: #cdcedd;
      }

      .uuid-36585f53-7b9f-4ee6-be18-e941121b57eb {
        fill: #353239;
      }

      .uuid-22bc7f32-4f9a-40c6-a9cb-bfb6bf1a8eca {
        fill: #ad7257;
      }

      .uuid-114bb10b-21f9-4780-9c68-4ac4e1e907c9 {
        fill: #33302d;
      }

      .uuid-beca8268-15e4-4a4f-b7aa-c463af655ea3 {
        fill: #666362;
      }

      .uuid-1d808e7b-ec3d-4109-93b8-9cce97ce4d83 {
        fill: #5b5755;
      }

      .uuid-282a2778-37d9-4276-86ba-1e9eba6b09bb {
        fill: #a2c5e9;
      }

      .uuid-3ec22618-d4df-4cb5-a371-bf8157b55b6c {
        fill: #452e2b;
      }

      .uuid-6ed3299f-1984-417b-8d57-68b2d99a1bc9 {
        fill: #555161;
      }

      .uuid-e29c6854-a845-44b6-b40b-1bd2bba01cba {
        fill: #c1bebe;
      }

      .uuid-a991908e-9c63-45d4-97e5-771e08455f53 {
        fill: #764c4a;
      }
    </style>
  </defs>
  <g id="uuid-7b542c3e-60a9-469f-b16d-ccc0fcaff7cf" data-name="Décors">
    <g id="uuid-8934077d-72d5-43dd-b38b-47e2c70eb812" data-name="Decor_x5F_Bat1">
      <polygon class="uuid-beca8268-15e4-4a4f-b7aa-c463af655ea3" points="1.23 240.79 82.93 287.9 165.78 240.25 165.78 240.25 84.08 193.13 1.23 240.79"/>
      <polygon class="uuid-36585f53-7b9f-4ee6-be18-e941121b57eb" points="5.61 188.5 61.25 220.58 61.25 270.85 5.61 238.69 5.61 188.5"/>
      <polygon class="uuid-6ed3299f-1984-417b-8d57-68b2d99a1bc9" points="136.34 177.27 61.25 220.58 61.25 270.85 136.34 227.47 136.34 177.27"/>
      <polygon class="uuid-e29c6854-a845-44b6-b40b-1bd2bba01cba" points="66.1 234.15 78.76 226.83 78.76 252.7 66.1 260.01 66.1 234.15"/>
      <polygon class="uuid-a3fa6d2d-f86c-4961-a6f0-c7b0e2b6b1e7" points="77.24 228.75 77.91 228.37 77.91 252.11 67.16 258.31 67.16 257.51 77.24 251.69 77.24 228.75"/>
      <polygon class="uuid-282a2778-37d9-4276-86ba-1e9eba6b09bb" points="68.13 234 68.83 233.6 70.67 232.54 71.73 231.92 77.24 228.75 77.24 235.11 77.24 236.52 77.24 238.44 77.24 239.26 77.24 240.36 77.24 251.78 67.16 257.59 67.16 234.56 68.13 234"/>
      <polygon class="uuid-e29c6854-a845-44b6-b40b-1bd2bba01cba" points="55.75 234.15 43.09 226.83 43.09 252.7 55.75 260.01 55.75 234.15"/>
      <polygon class="uuid-a3fa6d2d-f86c-4961-a6f0-c7b0e2b6b1e7" points="44.62 228.75 43.95 228.37 43.95 252.11 54.7 258.31 54.7 257.51 44.62 251.69 44.62 228.75"/>
      <polygon class="uuid-7140e793-ac1c-4c29-912d-a527057a631d" points="50.13 231.92 51.19 232.54 53.03 233.6 53.72 234 54.7 234.56 54.7 257.59 44.62 251.78 44.62 240.36 44.62 239.26 44.62 238.44 44.62 236.52 44.62 235.11 44.62 228.75 50.13 231.92"/>
      <polygon class="uuid-e29c6854-a845-44b6-b40b-1bd2bba01cba" points="24.36 216.11 11.7 208.79 11.7 234.66 24.36 241.98 24.36 216.11"/>
      <polygon class="uuid-a3fa6d2d-f86c-4961-a6f0-c7b0e2b6b1e7" points="13.23 210.72 12.56 210.33 12.56 234.08 23.31 240.27 23.31 239.48 13.23 233.66 13.23 210.72"/>
      <polygon class="uuid-7140e793-ac1c-4c29-912d-a527057a631d" points="18.74 213.89 19.8 214.5 21.64 215.56 22.34 215.96 23.31 216.52 23.31 239.55 13.23 233.74 13.23 222.32 13.23 221.22 13.23 220.4 13.23 218.48 13.23 217.07 13.23 210.72 18.74 213.89"/>
      <polygon class="uuid-e29c6854-a845-44b6-b40b-1bd2bba01cba" points="118.63 203.64 131.29 196.32 131.29 222.19 118.63 229.5 118.63 203.64"/>
      <polygon class="uuid-a3fa6d2d-f86c-4961-a6f0-c7b0e2b6b1e7" points="129.77 198.24 130.44 197.86 130.44 221.6 119.68 227.8 119.68 227 129.77 221.18 129.77 198.24"/>
      <polygon class="uuid-282a2778-37d9-4276-86ba-1e9eba6b09bb" points="119.68 204.05 129.77 209.85 129.77 221.27 119.68 227.08 119.68 204.05"/>
      <polygon class="uuid-282a2778-37d9-4276-86ba-1e9eba6b09bb" points="121.35 203.09 129.77 207.93 129.77 208.75 120.66 203.49 121.35 203.09"/>
      <polygon class="uuid-282a2778-37d9-4276-86ba-1e9eba6b09bb" points="124.26 201.41 129.77 204.6 129.77 206.01 123.19 202.03 124.26 201.41"/>
      <polygon class="uuid-282a2778-37d9-4276-86ba-1e9eba6b09bb" points="129.77 198.24 129.77 204.6 124.26 201.42 129.77 198.24"/>
      <polygon class="uuid-282a2778-37d9-4276-86ba-1e9eba6b09bb" points="123.19 202.03 129.77 206.01 129.77 207.93 121.35 203.09 123.19 202.03"/>
      <polygon class="uuid-282a2778-37d9-4276-86ba-1e9eba6b09bb" points="120.66 203.49 129.77 208.75 129.77 209.85 119.68 204.05 120.66 203.49"/>
      <polygon class="uuid-f1f7b347-1990-4ef3-8dac-9d2103ea8299" points="87.88 225.06 112.4 210.96 112.4 241.4 87.88 255.57 87.88 225.06"/>
      <polygon class="uuid-282a2778-37d9-4276-86ba-1e9eba6b09bb" points="101.78 218.73 102.48 218.33 104.32 217.27 105.38 216.66 110.89 213.48 110.89 219.84 110.89 221.25 110.89 223.17 110.89 223.99 110.89 225.09 110.89 242.22 100.81 248.03 100.81 219.29 101.78 218.73"/>
      <polygon class="uuid-282a2778-37d9-4276-86ba-1e9eba6b09bb" points="90.36 225.39 91.06 224.99 92.9 223.92 93.96 223.31 99.47 220.14 99.47 226.5 99.47 227.91 99.47 229.82 99.47 230.65 99.47 231.75 99.47 248.88 89.39 254.68 89.39 225.95 90.36 225.39"/>
      <polygon class="uuid-6ed3299f-1984-417b-8d57-68b2d99a1bc9" points="90.71 279.3 82.91 283.82 82.91 285.32 90.71 280.79 90.71 279.3"/>
      <polygon class="uuid-36585f53-7b9f-4ee6-be18-e941121b57eb" points="75.14 279.3 82.91 283.82 82.91 285.32 75.14 280.79 75.14 279.3"/>
      <polygon class="uuid-6ed3299f-1984-417b-8d57-68b2d99a1bc9" points="75.14 279.3 82.91 283.82 90.71 279.3 82.91 274.78 75.14 279.3"/>
      <polygon class="uuid-6ed3299f-1984-417b-8d57-68b2d99a1bc9" points="160.37 238.95 152.57 243.48 152.57 244.97 160.37 240.44 160.37 238.95"/>
      <polygon class="uuid-36585f53-7b9f-4ee6-be18-e941121b57eb" points="144.79 238.95 152.57 243.48 152.57 244.97 144.79 240.44 144.79 238.95"/>
      <polygon class="uuid-6ed3299f-1984-417b-8d57-68b2d99a1bc9" points="144.79 238.95 152.57 243.48 160.37 238.95 152.57 234.43 144.79 238.95"/>
      <polygon class="uuid-6ed3299f-1984-417b-8d57-68b2d99a1bc9" points="88.38 230.15 88.38 279.41 82.93 282.56 82.93 233.29 88.38 230.15"/>
      <polygon class="uuid-36585f53-7b9f-4ee6-be18-e941121b57eb" points="77.09 229.92 82.93 233.29 82.93 282.56 77.09 279.18 77.09 229.92"/>
      <polygon class="uuid-6ed3299f-1984-417b-8d57-68b2d99a1bc9" points="158.16 189.63 158.16 238.9 152.71 242.04 152.71 192.77 158.16 189.63"/>
      <polygon class="uuid-36585f53-7b9f-4ee6-be18-e941121b57eb" points="146.87 189.4 152.71 192.77 152.71 242.04 146.87 238.67 146.87 189.4"/>
      <polygon class="uuid-6ed3299f-1984-417b-8d57-68b2d99a1bc9" points="163.13 184.47 82.76 230.82 82.76 236.4 163.13 189.97 163.13 184.47"/>
      <polygon class="uuid-36585f53-7b9f-4ee6-be18-e941121b57eb" points="0 182.68 82.76 230.82 82.76 236.4 0 188.18 0 182.68"/>
      <polygon class="uuid-36585f53-7b9f-4ee6-be18-e941121b57eb" points="0 182.68 82.76 230.83 163.13 184.47 80.11 136.35 0 182.68"/>
      <polygon class="uuid-8eb4ad5f-9ec6-4e57-b84b-946ea819fb40" points="2.17 50.79 82.74 97.67 82.74 228.32 2.17 181.43 2.17 50.79"/>
      <polygon class="uuid-183c6270-93c0-491c-895a-16bde5049ecc" points="160.87 52.6 82.74 97.6 82.74 228.32 160.87 183.24 160.87 52.6"/>
      <polygon class="uuid-a991908e-9c63-45d4-97e5-771e08455f53" points="163.13 48.12 82.76 94.47 82.76 100.05 163.13 53.62 163.13 48.12"/>
      <polygon class="uuid-1d808e7b-ec3d-4109-93b8-9cce97ce4d83" points="0 46.33 82.76 94.47 82.76 100.05 0 51.83 0 46.33"/>
      <polygon class="uuid-6ed3299f-1984-417b-8d57-68b2d99a1bc9" points="0 46.33 82.76 94.48 163.13 48.12 80.11 0 0 46.33"/>
      <polygon class="uuid-1d808e7b-ec3d-4109-93b8-9cce97ce4d83" points="9.8 49.51 4.18 46.24 80.22 2.56 158.53 47.97 152.91 51.21 80.22 9.06 9.8 49.51"/>
      <polygon class="uuid-a991908e-9c63-45d4-97e5-771e08455f53" points="9.8 49.51 80.22 9.06 152.91 51.21 82.41 91.78 9.8 49.51"/>
      <polygon class="uuid-f0aa670b-3f91-489f-a662-31e801c30ef5" points="80.22 2.56 80.22 9.06 9.8 49.51 4.18 46.24 80.22 2.56"/>
      <polygon class="uuid-f0aa670b-3f91-489f-a662-31e801c30ef5" points="43.29 47.48 30.82 54.78 22.44 50.08 35 42.71 43.29 47.48"/>
      <polygon class="uuid-22bc7f32-4f9a-40c6-a9cb-bfb6bf1a8eca" points="30.82 51.13 31.38 51.13 31.38 53.39 30.82 53.73 30.82 51.13"/>
      <polygon class="uuid-f0aa670b-3f91-489f-a662-31e801c30ef5" points="30.82 51.13 24.31 47.98 24.31 50.25 30.82 53.73 30.82 51.13"/>
      <polygon class="uuid-22bc7f32-4f9a-40c6-a9cb-bfb6bf1a8eca" points="40.88 45.36 41.45 45.36 41.45 47.63 40.88 47.97 40.88 45.36"/>
      <polygon class="uuid-f0aa670b-3f91-489f-a662-31e801c30ef5" points="40.88 45.36 34.38 42.22 34.38 44.49 40.88 47.97 40.88 45.36"/>
      <polygon class="uuid-e29c6854-a845-44b6-b40b-1bd2bba01cba" points="41.96 35.28 41.96 45.5 30.26 52.29 30.26 42.04 41.96 35.28"/>
      <polygon class="uuid-a3fa6d2d-f86c-4961-a6f0-c7b0e2b6b1e7" points="30.26 42.04 30.26 52.29 23.89 48.66 23.89 38.46 30.26 42.04"/>
      <polygon class="uuid-f1f7b347-1990-4ef3-8dac-9d2103ea8299" points="41.96 35.28 30.26 42.04 23.89 38.46 35.69 31.63 41.96 35.28"/>
      <path class="uuid-f0aa670b-3f91-489f-a662-31e801c30ef5" d="M37.19,43.97c-.05,2.06-1.35,4.23-2.91,4.85-1.55.62-2.77-.54-2.71-2.59.05-2.05,1.35-4.23,2.91-4.85,1.55-.62,2.77.54,2.71,2.59"/>
      <path class="uuid-3ec22618-d4df-4cb5-a371-bf8157b55b6c" d="M36.21,44.36c-.03,1.34-.88,2.76-1.9,3.17s-1.81-.35-1.77-1.69c.04-1.34.89-2.76,1.9-3.17s1.81.35,1.77,1.69"/>
      <polygon class="uuid-f0aa670b-3f91-489f-a662-31e801c30ef5" points="59.09 56.77 46.62 64.08 38.24 59.37 50.8 52 59.09 56.77"/>
      <polygon class="uuid-22bc7f32-4f9a-40c6-a9cb-bfb6bf1a8eca" points="46.62 60.42 47.18 60.42 47.18 62.69 46.62 63.03 46.62 60.42"/>
      <polygon class="uuid-f0aa670b-3f91-489f-a662-31e801c30ef5" points="46.62 60.42 40.11 57.27 40.11 59.54 46.62 63.03 46.62 60.42"/>
      <polygon class="uuid-22bc7f32-4f9a-40c6-a9cb-bfb6bf1a8eca" points="56.68 54.66 57.25 54.66 57.25 56.92 56.68 57.27 56.68 54.66"/>
      <polygon class="uuid-f0aa670b-3f91-489f-a662-31e801c30ef5" points="56.68 54.66 50.18 51.51 50.18 53.78 56.68 57.27 56.68 54.66"/>
      <polygon class="uuid-e29c6854-a845-44b6-b40b-1bd2bba01cba" points="57.76 44.57 57.76 54.79 46.06 61.58 46.06 51.33 57.76 44.57"/>
      <polygon class="uuid-a3fa6d2d-f86c-4961-a6f0-c7b0e2b6b1e7" points="46.06 51.33 46.06 61.58 39.69 57.95 39.69 47.75 46.06 51.33"/>
      <polygon class="uuid-f1f7b347-1990-4ef3-8dac-9d2103ea8299" points="57.76 44.57 46.06 51.33 39.69 47.75 51.49 40.92 57.76 44.57"/>
      <path class="uuid-f0aa670b-3f91-489f-a662-31e801c30ef5" d="M52.99,53.26c-.05,2.06-1.35,4.23-2.91,4.85-1.55.62-2.77-.54-2.71-2.59.05-2.05,1.35-4.23,2.9-4.85,1.55-.62,2.77.54,2.71,2.59"/>
      <path class="uuid-3ec22618-d4df-4cb5-a371-bf8157b55b6c" d="M52.01,53.65c-.04,1.34-.88,2.76-1.9,3.17-1.02.41-1.81-.35-1.77-1.69.04-1.34.89-2.76,1.9-3.17s1.81.35,1.77,1.69"/>
      <polygon class="uuid-f0aa670b-3f91-489f-a662-31e801c30ef5" points="74.81 65.76 62.34 73.06 53.96 68.35 66.53 60.99 74.81 65.76"/>
      <polygon class="uuid-22bc7f32-4f9a-40c6-a9cb-bfb6bf1a8eca" points="62.34 69.4 62.91 69.4 62.91 71.67 62.34 72.01 62.34 69.4"/>
      <polygon class="uuid-f0aa670b-3f91-489f-a662-31e801c30ef5" points="62.34 69.4 55.83 66.26 55.83 68.52 62.34 72.01 62.34 69.4"/>
      <polygon class="uuid-22bc7f32-4f9a-40c6-a9cb-bfb6bf1a8eca" points="72.41 63.64 72.97 63.64 72.97 65.91 72.41 66.25 72.41 63.64"/>
      <polygon class="uuid-f0aa670b-3f91-489f-a662-31e801c30ef5" points="72.41 63.64 65.9 60.5 65.9 62.76 72.41 66.25 72.41 63.64"/>
      <polygon class="uuid-e29c6854-a845-44b6-b40b-1bd2bba01cba" points="73.48 53.55 73.48 63.78 61.78 70.56 61.78 60.32 73.48 53.55"/>
      <polygon class="uuid-a3fa6d2d-f86c-4961-a6f0-c7b0e2b6b1e7" points="61.78 60.32 61.78 70.56 55.41 66.94 55.41 56.73 61.78 60.32"/>
      <polygon class="uuid-f1f7b347-1990-4ef3-8dac-9d2103ea8299" points="73.48 53.55 61.78 60.32 55.41 56.73 67.21 49.91 73.48 53.55"/>
      <path class="uuid-f0aa670b-3f91-489f-a662-31e801c30ef5" d="M68.71,62.24c-.05,2.06-1.35,4.23-2.91,4.85-1.55.62-2.77-.54-2.71-2.59.05-2.05,1.35-4.23,2.9-4.85,1.55-.62,2.77.54,2.71,2.59"/>
      <path class="uuid-3ec22618-d4df-4cb5-a371-bf8157b55b6c" d="M67.74,62.63c-.04,1.34-.88,2.76-1.9,3.17-1.02.41-1.81-.35-1.77-1.69.04-1.34.89-2.76,1.9-3.17s1.81.35,1.77,1.69"/>
      <polygon class="uuid-f0aa670b-3f91-489f-a662-31e801c30ef5" points="90.61 75.05 78.14 82.35 69.76 77.65 82.33 70.28 90.61 75.05"/>
      <polygon class="uuid-22bc7f32-4f9a-40c6-a9cb-bfb6bf1a8eca" points="78.14 78.7 78.71 78.7 78.71 80.96 78.14 81.31 78.14 78.7"/>
      <polygon class="uuid-f0aa670b-3f91-489f-a662-31e801c30ef5" points="78.14 78.7 71.63 75.55 71.63 77.82 78.14 81.31 78.14 78.7"/>
      <polygon class="uuid-22bc7f32-4f9a-40c6-a9cb-bfb6bf1a8eca" points="88.21 72.93 88.77 72.93 88.77 75.2 88.21 75.54 88.21 72.93"/>
      <polygon class="uuid-f0aa670b-3f91-489f-a662-31e801c30ef5" points="88.21 72.93 81.7 69.79 81.7 72.06 88.21 75.54 88.21 72.93"/>
      <polygon class="uuid-e29c6854-a845-44b6-b40b-1bd2bba01cba" points="89.28 62.85 89.28 73.07 77.58 79.86 77.58 69.61 89.28 62.85"/>
      <polygon class="uuid-a3fa6d2d-f86c-4961-a6f0-c7b0e2b6b1e7" points="77.58 69.61 77.58 79.86 71.21 76.23 71.21 66.03 77.58 69.61"/>
      <polygon class="uuid-f1f7b347-1990-4ef3-8dac-9d2103ea8299" points="89.28 62.85 77.58 69.61 71.21 66.03 83.01 59.2 89.28 62.85"/>
      <path class="uuid-f0aa670b-3f91-489f-a662-31e801c30ef5" d="M84.51,71.54c-.05,2.06-1.35,4.23-2.91,4.85-1.55.62-2.77-.54-2.71-2.59.05-2.05,1.35-4.23,2.9-4.85,1.55-.62,2.77.54,2.71,2.59"/>
      <path class="uuid-3ec22618-d4df-4cb5-a371-bf8157b55b6c" d="M83.54,71.93c-.04,1.34-.88,2.76-1.9,3.17-1.02.41-1.81-.35-1.77-1.69.04-1.34.89-2.76,1.9-3.17s1.81.35,1.77,1.69"/>
      <polygon class="uuid-1d808e7b-ec3d-4109-93b8-9cce97ce4d83" points="72.43 181.84 59.77 174.52 59.77 200.39 72.43 207.71 72.43 181.84"/>
      <polygon class="uuid-f0aa670b-3f91-489f-a662-31e801c30ef5" points="61.3 176.44 60.63 176.06 60.63 199.81 71.38 206 71.38 205.21 61.3 199.39 61.3 176.44"/>
      <polygon class="uuid-7140e793-ac1c-4c29-912d-a527057a631d" points="66.81 179.62 67.87 180.23 69.71 181.29 70.41 181.69 71.38 182.25 71.38 205.28 61.3 199.47 61.3 188.05 61.3 186.95 61.3 186.13 61.3 184.21 61.3 182.8 61.3 176.44 66.81 179.62"/>
      <polygon class="uuid-1d808e7b-ec3d-4109-93b8-9cce97ce4d83" points="53.7 171.25 27.33 156.09 27.33 181.96 53.7 197.12 53.7 171.25"/>
      <polygon class="uuid-f0aa670b-3f91-489f-a662-31e801c30ef5" points="28.95 158.15 28.28 157.77 28.28 181.51 52.65 195.41 52.65 194.62 29.04 180.99 28.95 158.15"/>
      <polygon class="uuid-7140e793-ac1c-4c29-912d-a527057a631d" points="34.44 161.35 35.5 161.96 37.34 163.02 38.04 163.42 39.01 163.98 52.65 171.93 52.65 194.62 28.93 180.95 28.93 169.78 28.93 169.54 28.93 168.68 28.93 167.86 28.93 165.94 28.93 164.53 28.93 158.17 34.44 161.35"/>
      <polygon class="uuid-1d808e7b-ec3d-4109-93b8-9cce97ce4d83" points="22.12 152.98 9.45 145.66 9.45 171.53 22.12 178.84 22.12 152.98"/>
      <polygon class="uuid-f0aa670b-3f91-489f-a662-31e801c30ef5" points="10.98 147.58 10.31 147.19 10.31 170.94 21.06 177.14 21.06 176.34 10.98 170.52 10.98 147.58"/>
      <polygon class="uuid-7140e793-ac1c-4c29-912d-a527057a631d" points="16.49 150.75 17.55 151.37 19.39 152.43 20.09 152.83 21.06 153.39 21.06 176.42 10.98 170.61 10.98 159.19 10.98 158.09 10.98 157.27 10.98 155.35 10.98 153.94 10.98 147.58 16.49 150.75"/>
      <polygon class="uuid-1d808e7b-ec3d-4109-93b8-9cce97ce4d83" points="72.43 140.56 59.77 133.24 59.77 159.11 72.43 166.43 72.43 140.56"/>
      <polygon class="uuid-f0aa670b-3f91-489f-a662-31e801c30ef5" points="61.3 135.16 60.63 134.78 60.63 158.53 71.38 164.72 71.38 163.93 61.3 158.11 61.3 135.16"/>
      <polygon class="uuid-7140e793-ac1c-4c29-912d-a527057a631d" points="66.81 138.34 67.87 138.95 69.71 140.01 70.41 140.41 71.38 140.97 71.38 164 61.3 158.19 61.3 146.77 61.3 145.67 61.3 144.85 61.3 142.93 61.3 141.52 61.3 135.16 66.81 138.34"/>
      <polygon class="uuid-1d808e7b-ec3d-4109-93b8-9cce97ce4d83" points="53.7 129.97 27.33 114.82 27.33 140.68 53.7 155.84 53.7 129.97"/>
      <polygon class="uuid-f0aa670b-3f91-489f-a662-31e801c30ef5" points="28.95 116.87 28.28 116.49 28.28 140.23 52.65 154.13 52.65 153.34 29.04 139.71 28.95 116.87"/>
      <polygon class="uuid-7140e793-ac1c-4c29-912d-a527057a631d" points="34.44 120.07 35.5 120.68 37.34 121.74 38.04 122.14 39.01 122.7 52.65 130.65 52.65 153.34 28.93 139.67 28.93 128.5 28.93 128.26 28.93 127.4 28.93 126.58 28.93 124.66 28.93 123.25 28.93 116.89 34.44 120.07"/>
      <polygon class="uuid-1d808e7b-ec3d-4109-93b8-9cce97ce4d83" points="22.12 111.7 9.45 104.38 9.45 130.25 22.12 137.56 22.12 111.7"/>
      <polygon class="uuid-f0aa670b-3f91-489f-a662-31e801c30ef5" points="10.98 106.3 10.31 105.92 10.31 129.67 21.06 135.86 21.06 135.07 10.98 129.25 10.98 106.3"/>
      <polygon class="uuid-7140e793-ac1c-4c29-912d-a527057a631d" points="16.49 109.48 17.55 110.09 19.39 111.15 20.09 111.55 21.06 112.11 21.06 135.14 10.98 129.33 10.98 117.91 10.98 116.81 10.98 115.99 10.98 114.07 10.98 112.66 10.98 106.3 16.49 109.48"/>
      <polygon class="uuid-1d808e7b-ec3d-4109-93b8-9cce97ce4d83" points="72.43 98.79 59.77 91.47 59.77 117.34 72.43 124.66 72.43 98.79"/>
      <polygon class="uuid-f0aa670b-3f91-489f-a662-31e801c30ef5" points="61.3 93.4 60.63 93.01 60.63 116.76 71.38 122.95 71.38 122.16 61.3 116.34 61.3 93.4"/>
      <polygon class="uuid-7140e793-ac1c-4c29-912d-a527057a631d" points="66.81 96.57 67.87 97.18 69.71 98.24 70.41 98.64 71.38 99.2 71.38 122.23 61.3 116.43 61.3 105 61.3 103.9 61.3 103.08 61.3 101.16 61.3 99.75 61.3 93.4 66.81 96.57"/>
      <polygon class="uuid-1d808e7b-ec3d-4109-93b8-9cce97ce4d83" points="53.7 88.2 27.33 73.05 27.33 98.91 53.7 114.07 53.7 88.2"/>
      <polygon class="uuid-f0aa670b-3f91-489f-a662-31e801c30ef5" points="28.95 75.1 28.28 74.72 28.28 98.47 52.65 112.36 52.65 111.57 29.04 97.94 28.95 75.1"/>
      <polygon class="uuid-7140e793-ac1c-4c29-912d-a527057a631d" points="34.44 78.3 35.5 78.91 37.34 79.97 38.04 80.37 39.01 80.93 52.65 88.88 52.65 111.57 28.93 97.9 28.93 86.73 28.93 86.49 28.93 85.63 28.93 84.81 28.93 82.89 28.93 81.48 28.93 75.12 34.44 78.3"/>
      <polygon class="uuid-1d808e7b-ec3d-4109-93b8-9cce97ce4d83" points="22.12 69.93 9.45 62.61 9.45 88.48 22.12 95.8 22.12 69.93"/>
      <polygon class="uuid-f0aa670b-3f91-489f-a662-31e801c30ef5" points="10.98 64.53 10.31 64.15 10.31 87.9 21.06 94.09 21.06 93.3 10.98 87.48 10.98 64.53"/>
      <polygon class="uuid-7140e793-ac1c-4c29-912d-a527057a631d" points="16.49 67.71 17.55 68.32 19.39 69.38 20.09 69.78 21.06 70.34 21.06 93.37 10.98 87.56 10.98 76.14 10.98 75.04 10.98 74.22 10.98 72.3 10.98 70.89 10.98 64.53 16.49 67.71"/>
      <polygon class="uuid-1d808e7b-ec3d-4109-93b8-9cce97ce4d83" points="114.07 172.76 126.73 165.44 126.73 180.76 114.07 188.08 114.07 172.76"/>
      <polygon class="uuid-f0aa670b-3f91-489f-a662-31e801c30ef5" points="125.21 167.37 125.87 166.98 125.87 180.18 115.12 186.37 115.12 185.58 125.21 179.86 125.21 167.37"/>
      <polygon class="uuid-282a2778-37d9-4276-86ba-1e9eba6b09bb" points="116.1 172.61 116.79 172.21 118.63 171.15 119.7 170.54 125.21 167.37 125.21 173.72 125.21 175.13 125.21 177.05 125.21 177.87 125.21 178.97 125.21 179.86 115.12 185.66 115.12 173.17 116.1 172.61"/>
      <polygon class="uuid-1d808e7b-ec3d-4109-93b8-9cce97ce4d83" points="114.07 132.12 126.73 124.81 126.73 140.12 114.07 147.44 114.07 132.12"/>
      <polygon class="uuid-f0aa670b-3f91-489f-a662-31e801c30ef5" points="125.21 126.73 125.87 126.34 125.87 139.54 115.12 145.73 115.12 144.94 125.21 139.22 125.21 126.73"/>
      <polygon class="uuid-282a2778-37d9-4276-86ba-1e9eba6b09bb" points="116.1 131.97 116.79 131.57 118.63 130.51 119.7 129.9 125.21 126.73 125.21 133.09 125.21 134.5 125.21 136.41 125.21 137.23 125.21 138.34 125.21 139.22 115.12 145.03 115.12 132.54 116.1 131.97"/>
      <polygon class="uuid-1d808e7b-ec3d-4109-93b8-9cce97ce4d83" points="114.07 90.89 126.73 83.57 126.73 98.89 114.07 106.21 114.07 90.89"/>
      <polygon class="uuid-f0aa670b-3f91-489f-a662-31e801c30ef5" points="125.21 85.49 125.87 85.11 125.87 98.31 115.12 104.5 115.12 103.71 125.21 97.98 125.21 85.49"/>
      <polygon class="uuid-282a2778-37d9-4276-86ba-1e9eba6b09bb" points="116.1 90.74 116.79 90.34 118.63 89.28 119.7 88.67 125.21 85.5 125.21 91.85 125.21 93.26 125.21 95.18 125.21 96 125.21 97.1 125.21 97.99 115.12 103.79 115.12 91.3 116.1 90.74"/>
      <polygon class="uuid-1d808e7b-ec3d-4109-93b8-9cce97ce4d83" points="106.59 173.38 106.59 203.86 93.72 211.29 93.72 180.78 106.59 173.38"/>
      <polygon class="uuid-282a2778-37d9-4276-86ba-1e9eba6b09bb" points="96.2 181.11 96.9 180.71 98.74 179.65 99.8 179.04 105.31 175.86 105.31 182.22 105.31 183.63 105.31 185.55 105.31 186.37 105.31 187.47 105.31 204.6 95.23 210.41 95.23 181.67 96.2 181.11"/>
      <polygon class="uuid-114bb10b-21f9-4780-9c68-4ac4e1e907c9" points="116.64 206.07 116.64 207.49 98 218.26 98 216.82 116.64 206.07"/>
      <polygon class="uuid-1d808e7b-ec3d-4109-93b8-9cce97ce4d83" points="90.69 212.72 98 216.82 98 218.26 90.69 214.16 90.69 212.72"/>
      <polygon class="uuid-6ed3299f-1984-417b-8d57-68b2d99a1bc9" points="90.69 212.72 98 216.82 116.64 206.07 109.32 201.98 90.69 212.72"/>
      <rect class="uuid-f1f7b347-1990-4ef3-8dac-9d2103ea8299" x="110.72" y="194.91" width="1.31" height="9.74"/>
      <path class="uuid-f1f7b347-1990-4ef3-8dac-9d2103ea8299" d="M112.04,204.63c0,.19-.3.35-.66.35s-.65-.13-.65-.33.29-.38.65-.38.66.16.66.35"/>
      <path class="uuid-c8e633dd-d33b-43c7-897b-2a320a94a03c" d="M112.05,194.91c0,.2-.3.36-.67.36s-.67-.16-.67-.36.3-.36.67-.36.67.16.67.36"/>
      <polygon class="uuid-a3fa6d2d-f86c-4961-a6f0-c7b0e2b6b1e7" points="114.2 196.83 114.2 197.91 107.49 194.03 107.49 192.95 114.2 196.83"/>
      <polygon class="uuid-f1f7b347-1990-4ef3-8dac-9d2103ea8299" points="114.14 196.79 107.49 192.95 108.53 192.35 115.17 196.19 114.14 196.79"/>
      <rect class="uuid-f1f7b347-1990-4ef3-8dac-9d2103ea8299" x="113.72" y="196.59" width="1.31" height="9.74"/>
      <path class="uuid-f1f7b347-1990-4ef3-8dac-9d2103ea8299" d="M115.03,206.31c0,.19-.3.35-.66.35s-.65-.13-.65-.33.29-.38.65-.38.66.16.66.35"/>
      <path class="uuid-c8e633dd-d33b-43c7-897b-2a320a94a03c" d="M115.05,196.59c0,.2-.3.36-.67.36s-.67-.16-.67-.36.3-.36.67-.36.67.16.67.36"/>
      <rect class="uuid-f1f7b347-1990-4ef3-8dac-9d2103ea8299" x="110.72" y="198.33" width="1.31" height="9.74"/>
      <path class="uuid-f1f7b347-1990-4ef3-8dac-9d2103ea8299" d="M112.04,208.05c0,.19-.3.35-.66.35s-.65-.13-.65-.33.29-.38.65-.38.66.16.66.35"/>
      <path class="uuid-c8e633dd-d33b-43c7-897b-2a320a94a03c" d="M112.05,198.32c0,.2-.3.36-.67.36s-.67-.16-.67-.36.3-.36.67-.36.67.16.67.36"/>
      <rect class="uuid-f1f7b347-1990-4ef3-8dac-9d2103ea8299" x="107.55" y="200.13" width="1.31" height="9.74"/>
      <path class="uuid-f1f7b347-1990-4ef3-8dac-9d2103ea8299" d="M108.87,209.85c0,.19-.3.35-.66.35s-.65-.13-.65-.33.29-.38.65-.38.66.16.66.35"/>
      <path class="uuid-c8e633dd-d33b-43c7-897b-2a320a94a03c" d="M108.88,200.13c0,.2-.3.36-.67.36s-.67-.16-.67-.36.3-.36.67-.36.67.16.67.36"/>
      <rect class="uuid-f1f7b347-1990-4ef3-8dac-9d2103ea8299" x="104.38" y="201.99" width="1.31" height="9.74"/>
      <path class="uuid-f1f7b347-1990-4ef3-8dac-9d2103ea8299" d="M105.69,211.71c0,.19-.3.35-.66.35s-.65-.13-.65-.33.29-.38.65-.38.66.16.66.35"/>
      <path class="uuid-c8e633dd-d33b-43c7-897b-2a320a94a03c" d="M105.7,201.99c0,.2-.3.36-.67.36s-.67-.16-.67-.36.3-.36.67-.36.67.16.67.36"/>
      <rect class="uuid-f1f7b347-1990-4ef3-8dac-9d2103ea8299" x="101" y="203.91" width="1.31" height="9.74"/>
      <path class="uuid-f1f7b347-1990-4ef3-8dac-9d2103ea8299" d="M102.31,213.63c0,.19-.3.35-.66.35s-.65-.13-.65-.33.29-.38.65-.38.66.16.66.35"/>
      <path class="uuid-c8e633dd-d33b-43c7-897b-2a320a94a03c" d="M102.33,203.91c0,.2-.3.36-.67.36s-.67-.16-.67-.36.3-.36.67-.36.67.16.67.36"/>
      <rect class="uuid-f1f7b347-1990-4ef3-8dac-9d2103ea8299" x="93.69" y="203.91" width="1.31" height="9.74"/>
      <path class="uuid-f1f7b347-1990-4ef3-8dac-9d2103ea8299" d="M95,213.63c0,.19-.3.35-.66.35s-.65-.13-.65-.33.29-.38.65-.38.66.16.66.35"/>
      <path class="uuid-c8e633dd-d33b-43c7-897b-2a320a94a03c" d="M95.02,203.91c0,.2-.3.36-.67.36s-.67-.16-.67-.36.3-.36.67-.36.67.16.67.36"/>
      <rect class="uuid-f1f7b347-1990-4ef3-8dac-9d2103ea8299" x="97.32" y="205.77" width="1.31" height="9.74"/>
      <path class="uuid-f1f7b347-1990-4ef3-8dac-9d2103ea8299" d="M98.63,215.49c0,.19-.3.35-.66.35s-.65-.13-.65-.33.29-.38.65-.38.66.16.66.35"/>
      <path class="uuid-c8e633dd-d33b-43c7-897b-2a320a94a03c" d="M98.65,205.77c0,.2-.3.36-.67.36s-.67-.16-.67-.36.3-.36.67-.36.67.16.67.36"/>
      <polygon class="uuid-a3fa6d2d-f86c-4961-a6f0-c7b0e2b6b1e7" points="97.98 206.13 115.17 196.19 115.17 197.28 97.98 207.22 97.98 206.13"/>
      <polygon class="uuid-f1f7b347-1990-4ef3-8dac-9d2103ea8299" points="96.95 205.53 114.14 195.6 115.17 196.19 97.98 206.13 96.95 205.53"/>
      <polygon class="uuid-a3fa6d2d-f86c-4961-a6f0-c7b0e2b6b1e7" points="97.98 206.13 97.98 207.22 91.27 203.34 91.27 202.25 97.98 206.13"/>
      <polygon class="uuid-f1f7b347-1990-4ef3-8dac-9d2103ea8299" points="97.98 206.13 91.27 202.25 92.31 201.66 99.01 205.53 97.98 206.13"/>
      <polygon class="uuid-1d808e7b-ec3d-4109-93b8-9cce97ce4d83" points="146.81 150.01 146.81 180.49 133.95 187.92 133.95 157.41 146.81 150.01"/>
      <polygon class="uuid-282a2778-37d9-4276-86ba-1e9eba6b09bb" points="136.42 157.74 137.12 157.34 138.96 156.28 140.02 155.67 145.53 152.5 145.53 158.85 145.53 160.26 145.53 162.18 145.53 163 145.53 164.1 145.53 181.23 135.45 187.04 135.45 158.3 136.42 157.74"/>
      <polygon class="uuid-114bb10b-21f9-4780-9c68-4ac4e1e907c9" points="156.86 182.7 156.86 184.12 138.22 194.89 138.22 193.45 156.86 182.7"/>
      <polygon class="uuid-1d808e7b-ec3d-4109-93b8-9cce97ce4d83" points="130.92 189.36 138.22 193.45 138.22 194.89 130.92 190.79 130.92 189.36"/>
      <polygon class="uuid-6ed3299f-1984-417b-8d57-68b2d99a1bc9" points="130.92 189.36 138.22 193.45 156.86 182.7 149.54 178.61 130.92 189.36"/>
      <rect class="uuid-f1f7b347-1990-4ef3-8dac-9d2103ea8299" x="150.95" y="171.55" width="1.31" height="9.74"/>
      <path class="uuid-f1f7b347-1990-4ef3-8dac-9d2103ea8299" d="M152.26,181.27c0,.19-.3.35-.66.35s-.65-.13-.65-.33.29-.38.65-.38.66.16.66.35"/>
      <path class="uuid-c8e633dd-d33b-43c7-897b-2a320a94a03c" d="M152.27,171.55c0,.2-.3.36-.67.36s-.67-.16-.67-.36.3-.36.67-.36.67.16.67.36"/>
      <polygon class="uuid-a3fa6d2d-f86c-4961-a6f0-c7b0e2b6b1e7" points="154.42 173.46 154.42 174.55 147.72 170.67 147.72 169.58 154.42 173.46"/>
      <polygon class="uuid-f1f7b347-1990-4ef3-8dac-9d2103ea8299" points="154.36 173.43 147.72 169.58 148.75 168.99 155.4 172.83 154.36 173.43"/>
      <rect class="uuid-f1f7b347-1990-4ef3-8dac-9d2103ea8299" x="153.94" y="173.22" width="1.31" height="9.74"/>
      <path class="uuid-f1f7b347-1990-4ef3-8dac-9d2103ea8299" d="M155.26,182.94c0,.19-.3.35-.66.35s-.65-.13-.65-.33.29-.38.65-.38.66.16.66.35"/>
      <path class="uuid-c8e633dd-d33b-43c7-897b-2a320a94a03c" d="M155.27,173.22c0,.2-.3.36-.67.36s-.67-.16-.67-.36.3-.36.67-.36.67.16.67.36"/>
      <rect class="uuid-f1f7b347-1990-4ef3-8dac-9d2103ea8299" x="150.95" y="174.96" width="1.31" height="9.74"/>
      <path class="uuid-f1f7b347-1990-4ef3-8dac-9d2103ea8299" d="M152.26,184.68c0,.19-.3.35-.66.35s-.65-.13-.65-.33.29-.38.65-.38.66.16.66.35"/>
      <path class="uuid-c8e633dd-d33b-43c7-897b-2a320a94a03c" d="M152.27,174.96c0,.2-.3.36-.67.36s-.67-.16-.67-.36.3-.36.67-.36.67.16.67.36"/>
      <rect class="uuid-f1f7b347-1990-4ef3-8dac-9d2103ea8299" x="147.78" y="176.76" width="1.31" height="9.74"/>
      <path class="uuid-f1f7b347-1990-4ef3-8dac-9d2103ea8299" d="M149.09,186.48c0,.19-.3.35-.66.35s-.65-.13-.65-.33.29-.38.65-.38.66.16.66.35"/>
      <path class="uuid-c8e633dd-d33b-43c7-897b-2a320a94a03c" d="M149.1,176.76c0,.2-.3.36-.67.36s-.67-.16-.67-.36.3-.36.67-.36.67.16.67.36"/>
      <rect class="uuid-f1f7b347-1990-4ef3-8dac-9d2103ea8299" x="144.6" y="178.62" width="1.31" height="9.74"/>
      <path class="uuid-f1f7b347-1990-4ef3-8dac-9d2103ea8299" d="M145.91,188.34c0,.19-.3.35-.66.35s-.65-.13-.65-.33.29-.38.65-.38.66.16.66.35"/>
      <path class="uuid-c8e633dd-d33b-43c7-897b-2a320a94a03c" d="M145.93,178.62c0,.2-.3.36-.67.36s-.67-.16-.67-.36.3-.36.67-.36.67.16.67.36"/>
      <rect class="uuid-f1f7b347-1990-4ef3-8dac-9d2103ea8299" x="141.22" y="180.54" width="1.31" height="9.74"/>
      <path class="uuid-f1f7b347-1990-4ef3-8dac-9d2103ea8299" d="M142.53,190.26c0,.19-.3.35-.66.35s-.65-.13-.65-.33.29-.38.65-.38.66.16.66.35"/>
      <path class="uuid-c8e633dd-d33b-43c7-897b-2a320a94a03c" d="M142.55,180.54c0,.2-.3.36-.67.36s-.67-.16-.67-.36.3-.36.67-.36.67.16.67.36"/>
      <rect class="uuid-f1f7b347-1990-4ef3-8dac-9d2103ea8299" x="133.91" y="180.54" width="1.31" height="9.74"/>
      <path class="uuid-f1f7b347-1990-4ef3-8dac-9d2103ea8299" d="M135.22,190.26c0,.19-.3.35-.66.35s-.65-.13-.65-.33.29-.38.65-.38.66.16.66.35"/>
      <path class="uuid-c8e633dd-d33b-43c7-897b-2a320a94a03c" d="M135.24,180.54c0,.2-.3.36-.67.36s-.67-.16-.67-.36.3-.36.67-.36.67.16.67.36"/>
      <rect class="uuid-f1f7b347-1990-4ef3-8dac-9d2103ea8299" x="137.54" y="182.4" width="1.31" height="9.74"/>
      <path class="uuid-f1f7b347-1990-4ef3-8dac-9d2103ea8299" d="M138.86,192.12c0,.19-.3.35-.66.35s-.65-.13-.65-.33.29-.38.65-.38.66.16.66.35"/>
      <path class="uuid-c8e633dd-d33b-43c7-897b-2a320a94a03c" d="M138.87,182.4c0,.2-.3.36-.67.36s-.67-.16-.67-.36.3-.36.67-.36.67.16.67.36"/>
      <polygon class="uuid-a3fa6d2d-f86c-4961-a6f0-c7b0e2b6b1e7" points="138.2 182.77 155.4 172.83 155.4 173.91 138.2 183.85 138.2 182.77"/>
      <polygon class="uuid-f1f7b347-1990-4ef3-8dac-9d2103ea8299" points="137.17 182.17 154.36 172.23 155.4 172.83 138.2 182.76 137.17 182.17"/>
      <polygon class="uuid-a3fa6d2d-f86c-4961-a6f0-c7b0e2b6b1e7" points="138.2 182.77 138.2 183.85 131.5 179.97 131.5 178.89 138.2 182.77"/>
      <polygon class="uuid-f1f7b347-1990-4ef3-8dac-9d2103ea8299" points="138.2 182.77 131.5 178.89 132.53 178.29 139.23 182.17 138.2 182.77"/>
      <polygon class="uuid-1d808e7b-ec3d-4109-93b8-9cce97ce4d83" points="106.59 132.38 106.59 162.86 93.72 170.29 93.72 139.78 106.59 132.38"/>
      <polygon class="uuid-282a2778-37d9-4276-86ba-1e9eba6b09bb" points="96.2 140.11 96.9 139.71 98.74 138.65 99.8 138.04 105.31 134.86 105.31 141.22 105.31 142.63 105.31 144.55 105.31 145.37 105.31 146.47 105.31 163.6 95.23 169.41 95.23 140.67 96.2 140.11"/>
      <polygon class="uuid-114bb10b-21f9-4780-9c68-4ac4e1e907c9" points="116.64 165.07 116.64 166.49 98 177.26 98 175.82 116.64 165.07"/>
      <polygon class="uuid-1d808e7b-ec3d-4109-93b8-9cce97ce4d83" points="90.69 171.72 98 175.82 98 177.26 90.69 173.16 90.69 171.72"/>
      <polygon class="uuid-6ed3299f-1984-417b-8d57-68b2d99a1bc9" points="90.69 171.72 98 175.82 116.64 165.07 109.32 160.98 90.69 171.72"/>
      <rect class="uuid-f1f7b347-1990-4ef3-8dac-9d2103ea8299" x="110.72" y="153.91" width="1.31" height="9.74"/>
      <path class="uuid-f1f7b347-1990-4ef3-8dac-9d2103ea8299" d="M112.04,163.63c0,.19-.3.35-.66.35s-.65-.13-.65-.33.29-.38.65-.38.66.16.66.35"/>
      <path class="uuid-c8e633dd-d33b-43c7-897b-2a320a94a03c" d="M112.05,153.91c0,.2-.3.36-.67.36s-.67-.16-.67-.36.3-.36.67-.36.67.16.67.36"/>
      <polygon class="uuid-a3fa6d2d-f86c-4961-a6f0-c7b0e2b6b1e7" points="114.2 155.83 114.2 156.91 107.49 153.03 107.49 151.95 114.2 155.83"/>
      <polygon class="uuid-f1f7b347-1990-4ef3-8dac-9d2103ea8299" points="114.14 155.79 107.49 151.95 108.53 151.35 115.17 155.19 114.14 155.79"/>
      <rect class="uuid-f1f7b347-1990-4ef3-8dac-9d2103ea8299" x="113.72" y="155.59" width="1.31" height="9.74"/>
      <path class="uuid-f1f7b347-1990-4ef3-8dac-9d2103ea8299" d="M115.03,165.31c0,.19-.3.35-.66.35s-.65-.13-.65-.33.29-.38.65-.38.66.16.66.35"/>
      <path class="uuid-c8e633dd-d33b-43c7-897b-2a320a94a03c" d="M115.05,155.59c0,.2-.3.36-.67.36s-.67-.16-.67-.36.3-.36.67-.36.67.16.67.36"/>
      <rect class="uuid-f1f7b347-1990-4ef3-8dac-9d2103ea8299" x="110.72" y="157.32" width="1.31" height="9.74"/>
      <path class="uuid-f1f7b347-1990-4ef3-8dac-9d2103ea8299" d="M112.04,167.04c0,.19-.3.35-.66.35s-.65-.13-.65-.33.29-.38.65-.38.66.16.66.35"/>
      <path class="uuid-c8e633dd-d33b-43c7-897b-2a320a94a03c" d="M112.05,157.32c0,.2-.3.36-.67.36s-.67-.16-.67-.36.3-.36.67-.36.67.16.67.36"/>
      <rect class="uuid-f1f7b347-1990-4ef3-8dac-9d2103ea8299" x="107.55" y="159.13" width="1.31" height="9.74"/>
      <path class="uuid-f1f7b347-1990-4ef3-8dac-9d2103ea8299" d="M108.87,168.85c0,.19-.3.35-.66.35s-.65-.13-.65-.33.29-.38.65-.38.66.16.66.35"/>
      <path class="uuid-c8e633dd-d33b-43c7-897b-2a320a94a03c" d="M108.88,159.13c0,.2-.3.36-.67.36s-.67-.16-.67-.36.3-.36.67-.36.67.16.67.36"/>
      <rect class="uuid-f1f7b347-1990-4ef3-8dac-9d2103ea8299" x="104.38" y="160.99" width="1.31" height="9.74"/>
      <path class="uuid-f1f7b347-1990-4ef3-8dac-9d2103ea8299" d="M105.69,170.71c0,.19-.3.35-.66.35s-.65-.13-.65-.33.29-.38.65-.38.66.16.66.35"/>
      <path class="uuid-c8e633dd-d33b-43c7-897b-2a320a94a03c" d="M105.7,160.99c0,.2-.3.36-.67.36s-.67-.16-.67-.36.3-.36.67-.36.67.16.67.36"/>
      <rect class="uuid-f1f7b347-1990-4ef3-8dac-9d2103ea8299" x="101" y="162.91" width="1.31" height="9.74"/>
      <path class="uuid-f1f7b347-1990-4ef3-8dac-9d2103ea8299" d="M102.31,172.63c0,.19-.3.35-.66.35s-.65-.13-.65-.33.29-.38.65-.38.66.16.66.35"/>
      <path class="uuid-c8e633dd-d33b-43c7-897b-2a320a94a03c" d="M102.33,162.91c0,.2-.3.36-.67.36s-.67-.16-.67-.36.3-.36.67-.36.67.16.67.36"/>
      <rect class="uuid-f1f7b347-1990-4ef3-8dac-9d2103ea8299" x="93.69" y="162.91" width="1.31" height="9.74"/>
      <path class="uuid-f1f7b347-1990-4ef3-8dac-9d2103ea8299" d="M95,172.63c0,.19-.3.35-.66.35s-.65-.13-.65-.33.29-.38.65-.38.66.16.66.35"/>
      <path class="uuid-c8e633dd-d33b-43c7-897b-2a320a94a03c" d="M95.02,162.91c0,.2-.3.36-.67.36s-.67-.16-.67-.36.3-.36.67-.36.67.16.67.36"/>
      <rect class="uuid-f1f7b347-1990-4ef3-8dac-9d2103ea8299" x="97.32" y="164.77" width="1.31" height="9.74"/>
      <path class="uuid-f1f7b347-1990-4ef3-8dac-9d2103ea8299" d="M98.63,174.49c0,.19-.3.35-.66.35s-.65-.13-.65-.33.29-.38.65-.38.66.16.66.35"/>
      <path class="uuid-c8e633dd-d33b-43c7-897b-2a320a94a03c" d="M98.65,164.77c0,.2-.3.36-.67.36s-.67-.16-.67-.36.3-.36.67-.36.67.16.67.36"/>
      <polygon class="uuid-a3fa6d2d-f86c-4961-a6f0-c7b0e2b6b1e7" points="97.98 165.13 115.17 155.19 115.17 156.28 97.98 166.22 97.98 165.13"/>
      <polygon class="uuid-f1f7b347-1990-4ef3-8dac-9d2103ea8299" points="96.95 164.53 114.14 154.6 115.17 155.19 97.98 165.13 96.95 164.53"/>
      <polygon class="uuid-a3fa6d2d-f86c-4961-a6f0-c7b0e2b6b1e7" points="97.98 165.13 97.98 166.22 91.27 162.34 91.27 161.25 97.98 165.13"/>
      <polygon class="uuid-f1f7b347-1990-4ef3-8dac-9d2103ea8299" points="97.98 165.13 91.27 161.25 92.31 160.66 99.01 164.53 97.98 165.13"/>
      <polygon class="uuid-1d808e7b-ec3d-4109-93b8-9cce97ce4d83" points="146.81 109.01 146.81 139.49 133.95 146.92 133.95 116.41 146.81 109.01"/>
      <polygon class="uuid-282a2778-37d9-4276-86ba-1e9eba6b09bb" points="136.42 116.74 137.12 116.34 138.96 115.28 140.02 114.67 145.53 111.5 145.53 117.85 145.53 119.26 145.53 121.18 145.53 122 145.53 123.1 145.53 140.23 135.45 146.04 135.45 117.3 136.42 116.74"/>
      <polygon class="uuid-114bb10b-21f9-4780-9c68-4ac4e1e907c9" points="156.86 141.7 156.86 143.12 138.22 153.89 138.22 152.45 156.86 141.7"/>
      <polygon class="uuid-1d808e7b-ec3d-4109-93b8-9cce97ce4d83" points="130.92 148.35 138.22 152.45 138.22 153.89 130.92 149.79 130.92 148.35"/>
      <polygon class="uuid-6ed3299f-1984-417b-8d57-68b2d99a1bc9" points="130.92 148.35 138.22 152.45 156.86 141.7 149.54 137.61 130.92 148.35"/>
      <rect class="uuid-f1f7b347-1990-4ef3-8dac-9d2103ea8299" x="150.95" y="130.55" width="1.31" height="9.74"/>
      <path class="uuid-f1f7b347-1990-4ef3-8dac-9d2103ea8299" d="M152.26,140.27c0,.19-.3.35-.66.35s-.65-.13-.65-.33.29-.38.65-.38.66.16.66.35"/>
      <path class="uuid-c8e633dd-d33b-43c7-897b-2a320a94a03c" d="M152.27,130.55c0,.2-.3.36-.67.36s-.67-.16-.67-.36.3-.36.67-.36.67.16.67.36"/>
      <polygon class="uuid-a3fa6d2d-f86c-4961-a6f0-c7b0e2b6b1e7" points="154.42 132.46 154.42 133.54 147.72 129.67 147.72 128.58 154.42 132.46"/>
      <polygon class="uuid-f1f7b347-1990-4ef3-8dac-9d2103ea8299" points="154.36 132.42 147.72 128.58 148.75 127.99 155.4 131.83 154.36 132.42"/>
      <rect class="uuid-f1f7b347-1990-4ef3-8dac-9d2103ea8299" x="153.94" y="132.22" width="1.31" height="9.74"/>
      <path class="uuid-f1f7b347-1990-4ef3-8dac-9d2103ea8299" d="M155.26,141.94c0,.19-.3.35-.66.35s-.65-.13-.65-.33.29-.38.65-.38.66.16.66.35"/>
      <path class="uuid-c8e633dd-d33b-43c7-897b-2a320a94a03c" d="M155.27,132.22c0,.2-.3.36-.67.36s-.67-.16-.67-.36.3-.36.67-.36.67.16.67.36"/>
      <rect class="uuid-f1f7b347-1990-4ef3-8dac-9d2103ea8299" x="150.95" y="133.96" width="1.31" height="9.74"/>
      <path class="uuid-f1f7b347-1990-4ef3-8dac-9d2103ea8299" d="M152.26,143.68c0,.2-.3.35-.66.35s-.65-.13-.65-.33.29-.38.65-.38.66.16.66.35"/>
      <path class="uuid-c8e633dd-d33b-43c7-897b-2a320a94a03c" d="M152.27,133.96c0,.2-.3.36-.67.36s-.67-.16-.67-.36.3-.36.67-.36.67.16.67.36"/>
      <rect class="uuid-f1f7b347-1990-4ef3-8dac-9d2103ea8299" x="147.78" y="135.76" width="1.31" height="9.74"/>
      <path class="uuid-f1f7b347-1990-4ef3-8dac-9d2103ea8299" d="M149.09,145.48c0,.19-.3.35-.66.35s-.65-.13-.65-.33.29-.38.65-.38.66.16.66.35"/>
      <path class="uuid-c8e633dd-d33b-43c7-897b-2a320a94a03c" d="M149.1,135.76c0,.2-.3.36-.67.36s-.67-.16-.67-.36.3-.36.67-.36.67.16.67.36"/>
      <rect class="uuid-f1f7b347-1990-4ef3-8dac-9d2103ea8299" x="144.6" y="137.62" width="1.31" height="9.74"/>
      <path class="uuid-f1f7b347-1990-4ef3-8dac-9d2103ea8299" d="M145.91,147.34c0,.2-.3.35-.66.35s-.65-.13-.65-.33.29-.38.65-.38.66.16.66.35"/>
      <path class="uuid-c8e633dd-d33b-43c7-897b-2a320a94a03c" d="M145.93,137.62c0,.2-.3.36-.67.36s-.67-.16-.67-.36.3-.36.67-.36.67.16.67.36"/>
      <rect class="uuid-f1f7b347-1990-4ef3-8dac-9d2103ea8299" x="141.22" y="139.54" width="1.31" height="9.74"/>
      <path class="uuid-f1f7b347-1990-4ef3-8dac-9d2103ea8299" d="M142.53,149.26c0,.19-.3.35-.66.35s-.65-.13-.65-.33.29-.38.65-.38.66.16.66.35"/>
      <path class="uuid-c8e633dd-d33b-43c7-897b-2a320a94a03c" d="M142.55,139.54c0,.2-.3.36-.67.36s-.67-.16-.67-.36.3-.36.67-.36.67.16.67.36"/>
      <rect class="uuid-f1f7b347-1990-4ef3-8dac-9d2103ea8299" x="133.91" y="139.54" width="1.31" height="9.74"/>
      <path class="uuid-f1f7b347-1990-4ef3-8dac-9d2103ea8299" d="M135.22,149.26c0,.19-.3.35-.66.35s-.65-.13-.65-.33.29-.38.65-.38.66.16.66.35"/>
      <path class="uuid-c8e633dd-d33b-43c7-897b-2a320a94a03c" d="M135.24,139.54c0,.2-.3.36-.67.36s-.67-.16-.67-.36.3-.36.67-.36.67.16.67.36"/>
      <rect class="uuid-f1f7b347-1990-4ef3-8dac-9d2103ea8299" x="137.54" y="141.4" width="1.31" height="9.74"/>
      <path class="uuid-f1f7b347-1990-4ef3-8dac-9d2103ea8299" d="M138.86,151.12c0,.19-.3.35-.66.35s-.65-.13-.65-.33.29-.38.65-.38.66.16.66.35"/>
      <path class="uuid-c8e633dd-d33b-43c7-897b-2a320a94a03c" d="M138.87,141.4c0,.2-.3.36-.67.36s-.67-.16-.67-.36.3-.36.67-.36.67.16.67.36"/>
      <polygon class="uuid-a3fa6d2d-f86c-4961-a6f0-c7b0e2b6b1e7" points="138.2 141.76 155.4 131.83 155.4 132.91 138.2 142.85 138.2 141.76"/>
      <polygon class="uuid-f1f7b347-1990-4ef3-8dac-9d2103ea8299" points="137.17 141.17 154.36 131.23 155.4 131.83 138.2 141.76 137.17 141.17"/>
      <polygon class="uuid-a3fa6d2d-f86c-4961-a6f0-c7b0e2b6b1e7" points="138.2 141.76 138.2 142.85 131.5 138.97 131.5 137.89 138.2 141.76"/>
      <polygon class="uuid-f1f7b347-1990-4ef3-8dac-9d2103ea8299" points="138.2 141.76 131.5 137.89 132.53 137.29 139.23 141.17 138.2 141.76"/>
      <polygon class="uuid-1d808e7b-ec3d-4109-93b8-9cce97ce4d83" points="106.59 91.15 106.59 121.63 93.72 129.06 93.72 98.55 106.59 91.15"/>
      <polygon class="uuid-282a2778-37d9-4276-86ba-1e9eba6b09bb" points="96.2 98.88 96.9 98.48 98.74 97.42 99.8 96.81 105.31 93.63 105.31 99.99 105.31 101.4 105.31 103.32 105.31 104.14 105.31 105.24 105.31 122.37 95.23 128.18 95.23 99.44 96.2 98.88"/>
      <polygon class="uuid-a991908e-9c63-45d4-97e5-771e08455f53" points="116.64 123.84 116.64 125.26 98 136.03 98 134.59 116.64 123.84"/>
      <polygon class="uuid-1d808e7b-ec3d-4109-93b8-9cce97ce4d83" points="90.69 130.49 98 134.59 98 136.03 90.69 131.93 90.69 130.49"/>
      <polygon class="uuid-6ed3299f-1984-417b-8d57-68b2d99a1bc9" points="90.69 130.49 98 134.59 116.64 123.84 109.32 119.75 90.69 130.49"/>
      <rect class="uuid-f1f7b347-1990-4ef3-8dac-9d2103ea8299" x="110.72" y="112.69" width="1.31" height="9.74"/>
      <path class="uuid-f1f7b347-1990-4ef3-8dac-9d2103ea8299" d="M112.04,122.41c0,.19-.3.35-.66.35s-.65-.13-.65-.33.29-.38.65-.38.66.16.66.35"/>
      <path class="uuid-c8e633dd-d33b-43c7-897b-2a320a94a03c" d="M112.05,112.69c0,.2-.3.36-.67.36s-.67-.16-.67-.36.3-.36.67-.36.67.16.67.36"/>
      <polygon class="uuid-a3fa6d2d-f86c-4961-a6f0-c7b0e2b6b1e7" points="114.2 114.6 114.2 115.68 107.49 111.81 107.49 110.72 114.2 114.6"/>
      <polygon class="uuid-f1f7b347-1990-4ef3-8dac-9d2103ea8299" points="114.14 114.56 107.49 110.72 108.53 110.13 115.17 113.97 114.14 114.56"/>
      <rect class="uuid-f1f7b347-1990-4ef3-8dac-9d2103ea8299" x="113.72" y="114.36" width="1.31" height="9.74"/>
      <path class="uuid-f1f7b347-1990-4ef3-8dac-9d2103ea8299" d="M115.03,124.08c0,.2-.3.35-.66.35s-.65-.13-.65-.33.29-.38.65-.38.66.16.66.35"/>
      <path class="uuid-c8e633dd-d33b-43c7-897b-2a320a94a03c" d="M115.05,114.36c0,.2-.3.36-.67.36s-.67-.16-.67-.36.3-.36.67-.36.67.16.67.36"/>
      <rect class="uuid-f1f7b347-1990-4ef3-8dac-9d2103ea8299" x="110.72" y="116.1" width="1.31" height="9.74"/>
      <path class="uuid-f1f7b347-1990-4ef3-8dac-9d2103ea8299" d="M112.04,125.82c0,.19-.3.35-.66.35s-.65-.13-.65-.33.29-.38.65-.38.66.16.66.35"/>
      <path class="uuid-c8e633dd-d33b-43c7-897b-2a320a94a03c" d="M112.05,116.1c0,.2-.3.36-.67.36s-.67-.16-.67-.36.3-.36.67-.36.67.16.67.36"/>
      <rect class="uuid-f1f7b347-1990-4ef3-8dac-9d2103ea8299" x="107.55" y="117.9" width="1.31" height="9.74"/>
      <path class="uuid-f1f7b347-1990-4ef3-8dac-9d2103ea8299" d="M108.87,127.62c0,.19-.3.35-.66.35s-.65-.13-.65-.33.29-.38.65-.38.66.16.66.35"/>
      <path class="uuid-c8e633dd-d33b-43c7-897b-2a320a94a03c" d="M108.88,117.9c0,.2-.3.36-.67.36s-.67-.16-.67-.36.3-.36.67-.36.67.16.67.36"/>
      <rect class="uuid-f1f7b347-1990-4ef3-8dac-9d2103ea8299" x="104.38" y="119.76" width="1.31" height="9.74"/>
      <path class="uuid-f1f7b347-1990-4ef3-8dac-9d2103ea8299" d="M105.69,129.48c0,.19-.3.35-.66.35s-.65-.13-.65-.33.29-.38.65-.38.66.16.66.35"/>
      <path class="uuid-c8e633dd-d33b-43c7-897b-2a320a94a03c" d="M105.7,119.76c0,.2-.3.36-.67.36s-.67-.16-.67-.36.3-.36.67-.36.67.16.67.36"/>
      <rect class="uuid-f1f7b347-1990-4ef3-8dac-9d2103ea8299" x="101" y="121.68" width="1.31" height="9.74"/>
      <path class="uuid-f1f7b347-1990-4ef3-8dac-9d2103ea8299" d="M102.31,131.4c0,.19-.3.35-.66.35s-.65-.13-.65-.33.29-.38.65-.38.66.16.66.35"/>
      <path class="uuid-c8e633dd-d33b-43c7-897b-2a320a94a03c" d="M102.33,121.68c0,.2-.3.36-.67.36s-.67-.16-.67-.36.3-.36.67-.36.67.16.67.36"/>
      <rect class="uuid-f1f7b347-1990-4ef3-8dac-9d2103ea8299" x="93.69" y="121.68" width="1.31" height="9.74"/>
      <path class="uuid-f1f7b347-1990-4ef3-8dac-9d2103ea8299" d="M95,131.4c0,.19-.3.35-.66.35s-.65-.13-.65-.33.29-.38.65-.38.66.16.66.35"/>
      <path class="uuid-c8e633dd-d33b-43c7-897b-2a320a94a03c" d="M95.02,121.68c0,.2-.3.36-.67.36s-.67-.16-.67-.36.3-.36.67-.36.67.16.67.36"/>
      <rect class="uuid-f1f7b347-1990-4ef3-8dac-9d2103ea8299" x="97.32" y="123.54" width="1.31" height="9.74"/>
      <path class="uuid-f1f7b347-1990-4ef3-8dac-9d2103ea8299" d="M98.63,133.26c0,.19-.3.35-.66.35s-.65-.13-.65-.33.29-.38.65-.38.66.16.66.35"/>
      <path class="uuid-c8e633dd-d33b-43c7-897b-2a320a94a03c" d="M98.65,123.54c0,.2-.3.36-.67.36s-.67-.16-.67-.36.3-.36.67-.36.67.16.67.36"/>
      <polygon class="uuid-a3fa6d2d-f86c-4961-a6f0-c7b0e2b6b1e7" points="97.98 123.9 115.17 113.97 115.17 115.05 97.98 124.99 97.98 123.9"/>
      <polygon class="uuid-f1f7b347-1990-4ef3-8dac-9d2103ea8299" points="96.95 123.31 114.14 113.37 115.17 113.97 97.98 123.9 96.95 123.31"/>
      <polygon class="uuid-a3fa6d2d-f86c-4961-a6f0-c7b0e2b6b1e7" points="97.98 123.9 97.98 124.99 91.27 121.11 91.27 120.03 97.98 123.9"/>
      <polygon class="uuid-f1f7b347-1990-4ef3-8dac-9d2103ea8299" points="97.98 123.9 91.27 120.03 92.31 119.43 99.01 123.31 97.98 123.9"/>
      <polygon class="uuid-1d808e7b-ec3d-4109-93b8-9cce97ce4d83" points="146.81 67.79 146.81 98.26 133.95 105.69 133.95 75.19 146.81 67.79"/>
      <polygon class="uuid-282a2778-37d9-4276-86ba-1e9eba6b09bb" points="136.42 75.52 137.12 75.11 138.96 74.06 140.02 73.44 145.53 70.27 145.53 76.63 145.53 78.04 145.53 79.95 145.53 80.77 145.53 81.88 145.53 99.01 135.45 104.81 135.45 76.08 136.42 75.52"/>
      <polygon class="uuid-a991908e-9c63-45d4-97e5-771e08455f53" points="156.86 100.47 156.86 101.9 138.22 112.67 138.22 111.23 156.86 100.47"/>
      <polygon class="uuid-1d808e7b-ec3d-4109-93b8-9cce97ce4d83" points="130.92 107.13 138.22 111.23 138.22 112.67 130.92 108.56 130.92 107.13"/>
      <polygon class="uuid-6ed3299f-1984-417b-8d57-68b2d99a1bc9" points="130.92 107.13 138.22 111.23 156.86 100.47 149.54 96.38 130.92 107.13"/>
      <rect class="uuid-f1f7b347-1990-4ef3-8dac-9d2103ea8299" x="150.95" y="89.32" width="1.31" height="9.74"/>
      <path class="uuid-f1f7b347-1990-4ef3-8dac-9d2103ea8299" d="M152.26,99.04c0,.19-.3.35-.66.35s-.65-.13-.65-.33.29-.38.65-.38.66.16.66.35"/>
      <path class="uuid-c8e633dd-d33b-43c7-897b-2a320a94a03c" d="M152.27,89.32c0,.2-.3.36-.67.36s-.67-.16-.67-.36.3-.36.67-.36.67.16.67.36"/>
      <polygon class="uuid-a3fa6d2d-f86c-4961-a6f0-c7b0e2b6b1e7" points="154.42 91.23 154.42 92.32 147.72 88.44 147.72 87.36 154.42 91.23"/>
      <polygon class="uuid-f1f7b347-1990-4ef3-8dac-9d2103ea8299" points="154.36 91.2 147.72 87.35 148.75 86.76 155.4 90.6 154.36 91.2"/>
      <rect class="uuid-f1f7b347-1990-4ef3-8dac-9d2103ea8299" x="153.94" y="90.99" width="1.31" height="9.74"/>
      <path class="uuid-f1f7b347-1990-4ef3-8dac-9d2103ea8299" d="M155.26,100.71c0,.19-.3.35-.66.35s-.65-.13-.65-.33.29-.38.65-.38.66.16.66.35"/>
      <path class="uuid-c8e633dd-d33b-43c7-897b-2a320a94a03c" d="M155.27,90.99c0,.2-.3.36-.67.36s-.67-.16-.67-.36.3-.36.67-.36.67.16.67.36"/>
      <rect class="uuid-f1f7b347-1990-4ef3-8dac-9d2103ea8299" x="150.95" y="92.73" width="1.31" height="9.74"/>
      <path class="uuid-f1f7b347-1990-4ef3-8dac-9d2103ea8299" d="M152.26,102.45c0,.19-.3.35-.66.35s-.65-.13-.65-.33.29-.38.65-.38.66.16.66.35"/>
      <path class="uuid-c8e633dd-d33b-43c7-897b-2a320a94a03c" d="M152.27,92.73c0,.2-.3.36-.67.36s-.67-.16-.67-.36.3-.36.67-.36.67.16.67.36"/>
      <rect class="uuid-f1f7b347-1990-4ef3-8dac-9d2103ea8299" x="147.78" y="94.53" width="1.31" height="9.74"/>
      <path class="uuid-f1f7b347-1990-4ef3-8dac-9d2103ea8299" d="M149.09,104.25c0,.19-.3.35-.66.35s-.65-.13-.65-.33.29-.38.65-.38.66.16.66.35"/>
      <path class="uuid-c8e633dd-d33b-43c7-897b-2a320a94a03c" d="M149.1,94.53c0,.2-.3.36-.67.36s-.67-.16-.67-.36.3-.36.67-.36.67.16.67.36"/>
      <rect class="uuid-f1f7b347-1990-4ef3-8dac-9d2103ea8299" x="144.6" y="96.4" width="1.31" height="9.74"/>
      <path class="uuid-f1f7b347-1990-4ef3-8dac-9d2103ea8299" d="M145.91,106.12c0,.2-.3.35-.66.35s-.65-.13-.65-.33.29-.38.65-.38.66.16.66.35"/>
      <path class="uuid-c8e633dd-d33b-43c7-897b-2a320a94a03c" d="M145.93,96.4c0,.2-.3.36-.67.36s-.67-.16-.67-.36.3-.36.67-.36.67.16.67.36"/>
      <rect class="uuid-f1f7b347-1990-4ef3-8dac-9d2103ea8299" x="141.22" y="98.31" width="1.31" height="9.74"/>
      <path class="uuid-f1f7b347-1990-4ef3-8dac-9d2103ea8299" d="M142.53,108.03c0,.19-.3.35-.66.35s-.65-.13-.65-.33.29-.38.65-.38.66.16.66.35"/>
      <path class="uuid-c8e633dd-d33b-43c7-897b-2a320a94a03c" d="M142.55,98.31c0,.2-.3.36-.67.36s-.67-.16-.67-.36.3-.36.67-.36.67.16.67.36"/>
      <rect class="uuid-f1f7b347-1990-4ef3-8dac-9d2103ea8299" x="133.91" y="98.31" width="1.31" height="9.74"/>
      <path class="uuid-f1f7b347-1990-4ef3-8dac-9d2103ea8299" d="M135.22,108.03c0,.19-.3.35-.66.35s-.65-.13-.65-.33.29-.38.65-.38.66.16.66.35"/>
      <path class="uuid-c8e633dd-d33b-43c7-897b-2a320a94a03c" d="M135.24,98.31c0,.2-.3.36-.67.36s-.67-.16-.67-.36.3-.36.67-.36.67.16.67.36"/>
      <rect class="uuid-f1f7b347-1990-4ef3-8dac-9d2103ea8299" x="137.54" y="100.18" width="1.31" height="9.74"/>
      <path class="uuid-f1f7b347-1990-4ef3-8dac-9d2103ea8299" d="M138.86,109.9c0,.19-.3.35-.66.35s-.65-.13-.65-.33.29-.38.65-.38.66.16.66.35"/>
      <path class="uuid-c8e633dd-d33b-43c7-897b-2a320a94a03c" d="M138.87,100.18c0,.2-.3.36-.67.36s-.67-.16-.67-.36.3-.36.67-.36.67.16.67.36"/>
      <polygon class="uuid-a3fa6d2d-f86c-4961-a6f0-c7b0e2b6b1e7" points="138.2 100.54 155.4 90.6 155.4 91.69 138.2 101.62 138.2 100.54"/>
      <polygon class="uuid-f1f7b347-1990-4ef3-8dac-9d2103ea8299" points="137.17 99.94 154.36 90.01 155.4 90.6 138.2 100.54 137.17 99.94"/>
      <polygon class="uuid-a3fa6d2d-f86c-4961-a6f0-c7b0e2b6b1e7" points="138.2 100.54 138.2 101.62 131.5 97.75 131.5 96.66 138.2 100.54"/>
      <polygon class="uuid-f1f7b347-1990-4ef3-8dac-9d2103ea8299" points="138.2 100.54 131.5 96.66 132.53 96.06 139.23 99.94 138.2 100.54"/>
    </g>
  </g>
</svg>