<?xml version="1.0" encoding="UTF-8"?>
<svg id="uuid-6af2482e-e9ff-4d39-978f-1d31b3eff992" data-name="Calque_2" xmlns="http://www.w3.org/2000/svg" viewBox="0 0 27.74 69.01">
  <defs>
    <style>
      .uuid-44c40532-89d4-4899-9bf2-d8f85ffaef8b {
        fill: #4bb0c1;
      }

      .uuid-217db45d-0bf6-4531-8c97-7919bd54b3bd {
        fill: #94ca9f;
      }
    </style>
  </defs>
  <g id="uuid-e53f50a3-b85a-4f15-87a8-77e7981918a3" data-name="Décors">
    <g id="uuid-1579b801-d9ca-4c0f-8d61-af68b151eeb5" data-name="Decor_x5F_Arbustre1">
      <path class="uuid-44c40532-89d4-4899-9bf2-d8f85ffaef8b" d="M9.88,10.73c1.24-1.97.62-4.44.34-7-.09-.83-.18-1.69.13-2.44.4-.96,2.05-1.98,2.99-.64.35.49.39,1.09.36,1.64-.09,1.45-.63,2.78-.47,4.27.32,3.09,3.84,5.38,5.48,8.26.84,1.48,1.17,3.14.93,4.68-.33,2.13-1.71,4.1-1.24,6.29.57,2.63,3.52,4.44,5.6,6.54,3.17,3.2,4.48,7.68,3.35,11.46-.56,1.87-1.67,3.61-1.63,5.6.04,1.76.98,3.48,1.5,5.22,1.63,5.41-1.21,11.2-6.6,13.43-2.68,1.11-5.97,1.37-8.95.35-2.98-1.03-5.54-3.45-6.05-6.17-.46-2.38.61-4.56.75-6.86.16-2.63-.94-3.89-2.7-6.13-1.52-1.93-3.09-3.96-3.53-6.2-.31-1.56-.05-3.12.42-4.58.66-2.05,1.74-3.95,3.17-5.61,1.23-1.43,2.76-2.75,3.22-4.54.55-2.15-.57-4.49-1.5-6.68-.93-2.19-1.67-4.71-.46-6.59.77-1.2,2.2-1.91,3.42-2.76.66-.46,1.14-.96,1.48-1.5"/>
      <path class="uuid-217db45d-0bf6-4531-8c97-7919bd54b3bd" d="M9.73,18.79c1.53,2.27,2.81,4.44,3.68,6.92.02,0-.05.23-.03.23.1-.66.18-1.33.24-2,.38-4.29,0-8.68-1.1-13.01-.02-.09.13-.1.15-.02,1.03,4.05,1.44,8.17,1.17,12.2-.13,2-.45,3.96-.86,5.91-.44,2.09-.89,4.19-.89,6.36,0,2.5.31,4.28.92,6.77.8-2.09,3.91-4.03,6.7-5.48.08-.04.15.09.07.13-2.78,1.44-6.06,3.68-6.53,5.44-.17.64,0,.8-.04.79.3,1.22.63,2.45.96,3.66.94,3.56,1.73,7.13,1.6,10.69-.02.52.02.31-.01.26,0,.18-.02.36-.03.54-.17,2.23-.66,4.42-1.46,6.49-.4,1.04-.88,2.04-1.43,3.01-.07.12-.31.76-.61.59-.15-.08-.08-.24.05-.27.02,0,.06,0,.07.03,0,0,.02.02.03.03,0,0,0,0,0,.01.14-.16.35-.54.38-.58.14-.24.27-.49.4-.74.22-.44.43-.88.63-1.33.37-.86.69-1.75.95-2.66.5-1.73.79-3.53.87-5.35-1.25-1.95-3.05-3.64-5.21-4.87-.09-.05,0-.16.08-.11,2.11,1.2,3.89,2.6,5.14,4.49,0-.08,0,.08,0,0,.08-3.64-.92-7.59-1.88-11.2-.93-3.49-1.81-6.71-1.83-10.24-.01-1.92.32-3.78.71-5.62.24-1.17.48-2.34.67-3.52-.88-2.6-2.13-5.12-3.73-7.5-.05-.08.08-.13.14-.05"/>
      <path class="uuid-217db45d-0bf6-4531-8c97-7919bd54b3bd" d="M20.77,55.63c-2.35,2.68-4.82,6.26-6.55,9.31-.04.07.31-1.01.35-1.08,1.74-3.05,3.71-5.63,6.06-8.31.06-.07.19.02.13.08"/>
      <path class="uuid-217db45d-0bf6-4531-8c97-7919bd54b3bd" d="M7.75,40.16c2.26,1.88,4.07,3.35,6.06,5.45.07.07.28.68.21.61-1.99-2.1-4.13-4.09-6.39-5.97-.08-.06.04-.14.11-.08"/>
      <path class="uuid-217db45d-0bf6-4531-8c97-7919bd54b3bd" d="M14.06,22.62c-.51,2.03-.26-.05-.23-.14.54-1.85,1.79-3.39,3.43-4.57.07-.05.18.06.11.11-1.63,1.17-2.84,2.74-3.31,4.6"/>
    </g>
  </g>
</svg>