<?xml version="1.0" encoding="UTF-8"?>
<svg xmlns="http://www.w3.org/2000/svg" xmlns:xlink="http://www.w3.org/1999/xlink" viewBox="0 0 242.41 213.53">
  <defs>
    <style>
      .uuid-b7a6bc98-4a3d-454a-b162-10d40c0d0627 {
        fill: #d9dbe6;
      }

      .uuid-4198fb31-0ab2-417c-82c9-a967b28ac977 {
        fill: #f6bcbc;
      }

      .uuid-64710a2b-3a1a-44bf-93cd-95e7a5b06380 {
        clip-path: url(#uuid-5f9a57ca-3f96-4ed3-96ec-91da3b7ac708);
      }

      .uuid-f808a068-08e8-4c38-835f-efb0205ec326 {
        fill: #2e1912;
      }

      .uuid-14abf30f-cc22-4fae-ad06-defdcd1004fc {
        fill: #bcbdc5;
      }

      .uuid-907db51c-da78-4960-8024-096eed61cd02 {
        fill: #fff;
      }

      .uuid-95b2cd83-9428-4b69-8a80-50f3715af5f2 {
        fill: #ecebec;
      }

      .uuid-454618a4-7050-41f1-8467-b058ee1914c8 {
        fill: #e86a6c;
      }

      .uuid-0f090210-ea2f-4754-9fae-d0becec4ca60 {
        fill: none;
      }

      .uuid-deaa48ef-5151-4d6e-9a5b-97edbc95eb86 {
        clip-path: url(#uuid-d529d293-694c-4013-b86e-0817a7909e63);
      }

      .uuid-7ead56e2-1fb1-4ba3-89fc-d7481871c233 {
        fill: #92c01f;
      }

      .uuid-5ababf2e-877d-431c-9a6f-6f752166e577 {
        fill: #e4e7f2;
      }

      .uuid-87e201eb-8cec-49d4-ad3c-307a6588582f {
        fill: #3f5569;
      }

      .uuid-8f6dd858-341d-4f71-922b-b7d9173f8647 {
        fill: #ba7b6d;
      }

      .uuid-60ce3024-a01c-4360-8d45-9848d163b786 {
        isolation: isolate;
      }

      .uuid-205d4c47-f17e-42d8-84ba-f9a4ddb8ad6c {
        fill: #f8f9fb;
      }

      .uuid-585a3a0b-7605-4549-bf85-042a0cd72ac5 {
        fill: #28388c;
      }

      .uuid-4a9c0f31-4d27-490c-a11f-49e99da6c117 {
        mix-blend-mode: multiply;
        opacity: .31;
      }

      .uuid-573ff74a-f3e3-43cb-b923-ebe740659cf9 {
        fill: #f8f8fa;
      }

      .uuid-2a5b7aa5-4bbe-4691-83a3-2e058bfc7aa0 {
        fill: #e84f0e;
      }

      .uuid-a01cc024-6586-4115-ad35-089248161e1b {
        fill: #a6cbec;
      }

      .uuid-9f6dbd4d-161e-49d9-8850-33560fa417e0 {
        fill: #749dbc;
      }

      .uuid-b8e410b4-2cdf-4a0b-871f-03d93e4b4508 {
        fill: #e4083d;
      }

      .uuid-37f55a7f-3fd0-4de3-a73f-eb1fe4b2a562 {
        clip-path: url(#uuid-112f785d-9ea2-4e55-a0ee-5d84ba98abc9);
      }

      .uuid-bb892b07-a67d-4025-82e0-2c6733058347 {
        fill: #f7f7f8;
      }

      .uuid-890e6009-5fb3-45d5-80ce-be98f2680e36 {
        fill: #4071b6;
      }

      .uuid-4bee3fcd-95bc-4a3c-aae3-3a4069fae693 {
        fill: #edeced;
      }

      .uuid-7a83af18-7843-44a1-b533-0c3cce531fe8 {
        clip-path: url(#uuid-9687b4d5-d8e8-4721-a208-3bcdfa6723cc);
      }
    </style>
    <clipPath id="uuid-5f9a57ca-3f96-4ed3-96ec-91da3b7ac708">
      <rect class="uuid-0f090210-ea2f-4754-9fae-d0becec4ca60" x="39.09" y="112.5" width="19.78" height="16.3"/>
    </clipPath>
    <clipPath id="uuid-d529d293-694c-4013-b86e-0817a7909e63">
      <rect class="uuid-0f090210-ea2f-4754-9fae-d0becec4ca60" x="39.09" y="112.5" width="19.78" height="16.3"/>
    </clipPath>
    <clipPath id="uuid-112f785d-9ea2-4e55-a0ee-5d84ba98abc9">
      <rect class="uuid-0f090210-ea2f-4754-9fae-d0becec4ca60" x="98.95" y="115.71" width="41.32" height="28.89"/>
    </clipPath>
    <clipPath id="uuid-9687b4d5-d8e8-4721-a208-3bcdfa6723cc">
      <rect class="uuid-0f090210-ea2f-4754-9fae-d0becec4ca60" x="98.95" y="115.71" width="41.32" height="28.89"/>
    </clipPath>
  </defs>
  <g class="uuid-60ce3024-a01c-4360-8d45-9848d163b786">
    <g id="uuid-021a6d3b-4079-4a06-aa4f-74242895d692" data-name="Calque_2">
      <g id="uuid-b68a9ead-08ba-487b-b5e1-589b906fd28b" data-name="Décors">
        <g id="uuid-3e5d50f6-fbde-444f-a7c8-f2ab21e6390b" data-name="Decor_x5F_Mart_x5F_BD">
          <polygon class="uuid-9f6dbd4d-161e-49d9-8850-33560fa417e0" points="183.4 54.5 183.19 77.15 198.28 86.14 198.28 63.64 183.4 54.5"/>
          <polygon class="uuid-907db51c-da78-4960-8024-096eed61cd02" points="183.48 77.13 183.48 77.16 181.77 78.42 198.28 88.35 198.28 86.14 183.48 77.13"/>
          <polygon class="uuid-4bee3fcd-95bc-4a3c-aae3-3a4069fae693" points="183.53 56.46 183.53 54.55 183.52 54.49 181.87 53.52 181.85 78.42 183.48 77.16 183.48 77.13 183.53 56.46"/>
          <polygon class="uuid-4bee3fcd-95bc-4a3c-aae3-3a4069fae693" points="200.99 66.92 201.05 65.01 201.07 64.95 199.43 63.98 199.31 88.88 200.82 87.62 200.82 87.58 200.99 66.92"/>
          <polyline class="uuid-14abf30f-cc22-4fae-ad06-defdcd1004fc" points="99.41 213.53 0 155.54 0 152.29 143.13 72.3 242.41 126.69"/>
          <polyline class="uuid-95b2cd83-9428-4b69-8a80-50f3715af5f2" points="99.41 210.28 0 152.29 143.13 69.05 242.41 126.69"/>
          <polyline class="uuid-95b2cd83-9428-4b69-8a80-50f3715af5f2" points="85.44 202.13 0 152.29 143.13 69.05 228.35 118.53"/>
          <polygon class="uuid-a01cc024-6586-4115-ad35-089248161e1b" points="31.34 83.54 31.34 79.02 84.22 109.9 84.22 114.21 84.22 118.06 84.22 175.67 31.17 144.8 31.34 83.54"/>
          <polygon class="uuid-b8e410b4-2cdf-4a0b-871f-03d93e4b4508" points="31.17 144.8 84.22 175.66 84.22 165.94 31.34 135.27 31.17 144.8"/>
          <polygon class="uuid-205d4c47-f17e-42d8-84ba-f9a4ddb8ad6c" points="84.22 175.66 206.01 105.47 205.93 39.18 84.22 109.82 84.22 175.66"/>
          <polygon class="uuid-8f6dd858-341d-4f71-922b-b7d9173f8647" points="84.22 175.66 206.01 105.47 205.91 95.8 84.22 165.94 84.22 175.66"/>
          <polygon class="uuid-454618a4-7050-41f1-8467-b058ee1914c8" points="146.34 112.56 146.34 139.94 160.09 131.98 160.09 105 146.34 112.56"/>
          <polygon class="uuid-87e201eb-8cec-49d4-ad3c-307a6588582f" points="157.59 131.5 157.59 109.23 148.84 114.04 148.84 136.35 157.59 131.5"/>
          <polygon class="uuid-454618a4-7050-41f1-8467-b058ee1914c8" points="135.11 118.8 135.11 146.4 148.86 138.48 148.86 111.23 135.11 118.8"/>
          <polygon class="uuid-87e201eb-8cec-49d4-ad3c-307a6588582f" points="146.36 137.73 146.36 115.46 137.61 120.28 137.61 142.58 146.36 137.73"/>
          <polygon class="uuid-7ead56e2-1fb1-4ba3-89fc-d7481871c233" points="31.34 79.02 153.22 8.73 205.93 39.18 84.22 109.89 31.34 79.02"/>
          <polygon class="uuid-454618a4-7050-41f1-8467-b058ee1914c8" points="64.58 123.95 43.81 112.08 43.81 131.17 64.58 143.17 64.58 123.95"/>
          <polygon class="uuid-573ff74a-f3e3-43cb-b923-ebe740659cf9" points="62.12 125.38 46.28 116.33 46.28 129.75 62.12 138.9 62.12 125.38"/>
          <polygon class="uuid-4198fb31-0ab2-417c-82c9-a967b28ac977" points="47.88 103.95 39.09 112.5 58.86 123.94 66.21 114.48 47.88 103.95"/>
          <path class="uuid-890e6009-5fb3-45d5-80ce-be98f2680e36" d="M39.09,112.5v3.2c0,1.54.82,2.96,2.15,3.73l.97.56c.8.46,1.8-.11,1.81-1.04v-3.6s-4.93-2.85-4.93-2.85Z"/>
          <path class="uuid-890e6009-5fb3-45d5-80ce-be98f2680e36" d="M44.03,115.36v3.26c0,1.54.82,2.96,2.15,3.73l.97.56c.8.46,1.8-.11,1.81-1.04v-3.66s-4.93-2.85-4.93-2.85Z"/>
          <path class="uuid-890e6009-5fb3-45d5-80ce-be98f2680e36" d="M48.99,118.2v3.26c0,1.54.82,2.96,2.15,3.73l.97.56c.8.46,1.8-.11,1.81-1.04v-3.66s-4.93-2.85-4.93-2.85Z"/>
          <path class="uuid-890e6009-5fb3-45d5-80ce-be98f2680e36" d="M53.93,121.09v3.26c0,1.54.82,2.96,2.15,3.73l.97.56c.8.46,1.8-.11,1.81-1.04v-3.66s-4.93-2.85-4.93-2.85Z"/>
          <polygon class="uuid-585a3a0b-7605-4549-bf85-042a0cd72ac5" points="58.11 128.71 66.21 123.94 66.21 114.48 58.89 123.94 58.11 128.71"/>
          <g class="uuid-4a9c0f31-4d27-490c-a11f-49e99da6c117">
            <g class="uuid-64710a2b-3a1a-44bf-93cd-95e7a5b06380">
              <g class="uuid-deaa48ef-5151-4d6e-9a5b-97edbc95eb86">
                <path class="uuid-f808a068-08e8-4c38-835f-efb0205ec326" d="M39.09,112.58v3.12c0,1.54.82,2.96,2.15,3.73l.97.56c.8.46,1.8-.11,1.81-1.04v-3.6s-4.93-2.85-4.93-2.85v.08Z"/>
                <path class="uuid-f808a068-08e8-4c38-835f-efb0205ec326" d="M44.03,118.61c0,1.54.82,2.96,2.15,3.73l.97.56c.8.46,1.8-.11,1.81-1.04v-3.66s-4.93-2.85-4.93-2.85v3.26Z"/>
                <path class="uuid-f808a068-08e8-4c38-835f-efb0205ec326" d="M53.93,121.09v-.04l-4.94-2.85v3.26c0,1.54.82,2.96,2.15,3.73l.97.56c.8.46,1.8-.11,1.81-1.04v-.37s0,0,0,0c0,1.54.82,2.96,2.15,3.73l.97.56c.8.46,1.8-.12,1.81-1.04v-3.66s-4.92-2.85-4.92-2.85Z"/>
              </g>
            </g>
          </g>
          <polygon class="uuid-5ababf2e-877d-431c-9a6f-6f752166e577" points="26.46 74.23 155.15 0 210.82 32.15 82.29 106.83 26.46 74.23"/>
          <polygon class="uuid-2a5b7aa5-4bbe-4691-83a3-2e058bfc7aa0" points="205.93 39.18 210.82 32.15 82.29 106.83 84.22 109.82 205.93 39.18"/>
          <polygon class="uuid-890e6009-5fb3-45d5-80ce-be98f2680e36" points="26.46 74.23 31.34 79.02 84.22 109.82 82.29 106.83 26.46 74.23"/>
          <polygon class="uuid-454618a4-7050-41f1-8467-b058ee1914c8" points="94.91 132.2 94.91 158.69 129.62 138.74 129.62 111.96 94.91 132.2"/>
          <polygon class="uuid-87e201eb-8cec-49d4-ad3c-307a6588582f" points="127.86 137.72 127.86 115.04 96.68 133.21 96.68 155.64 127.86 137.72"/>
          <polygon class="uuid-454618a4-7050-41f1-8467-b058ee1914c8" points="119.69 119.04 121.36 118.06 121.46 141.96 119.69 143.07 119.69 119.04"/>
          <polygon class="uuid-454618a4-7050-41f1-8467-b058ee1914c8" points="111.52 123.49 113.2 122.51 113.29 146.41 111.52 147.52 111.52 123.49"/>
          <polygon class="uuid-454618a4-7050-41f1-8467-b058ee1914c8" points="103.35 128.82 105.03 127.84 105.12 151.74 103.35 152.85 103.35 128.82"/>
          <polygon class="uuid-205d4c47-f17e-42d8-84ba-f9a4ddb8ad6c" points="129.92 103.42 140.27 115.72 119.51 127.7 109.27 115.17 129.92 103.42"/>
          <path class="uuid-4198fb31-0ab2-417c-82c9-a967b28ac977" d="M140.27,115.72v3.35c0,1.61-.86,3.09-2.25,3.9l-1.01.59c-.84.48-1.89-.12-1.89-1.09v-3.76s5.15-2.98,5.15-2.98Z"/>
          <path class="uuid-2a5b7aa5-4bbe-4691-83a3-2e058bfc7aa0" d="M135.11,118.7v3.4c0,1.61-.86,3.09-2.25,3.89l-1.01.59c-.84.48-1.89-.12-1.89-1.09v-3.82s5.15-2.98,5.15-2.98Z"/>
          <path class="uuid-4198fb31-0ab2-417c-82c9-a967b28ac977" d="M129.92,121.67v3.4c0,1.61-.86,3.09-2.25,3.89l-1.01.59c-.84.48-1.89-.12-1.89-1.09v-3.82s5.15-2.98,5.15-2.98Z"/>
          <polygon class="uuid-2a5b7aa5-4bbe-4691-83a3-2e058bfc7aa0" points="135.11 118.7 124.9 106.28 119.69 109.24 129.92 121.67 135.11 118.7"/>
          <path class="uuid-2a5b7aa5-4bbe-4691-83a3-2e058bfc7aa0" d="M124.77,124.69v3.4c0,1.61-.86,3.09-2.25,3.89l-1.02.59c-.84.48-1.89-.12-1.89-1.09v-3.82s5.15-2.98,5.15-2.98Z"/>
          <polygon class="uuid-2a5b7aa5-4bbe-4691-83a3-2e058bfc7aa0" points="124.77 124.69 114.55 112.27 109.35 115.23 119.58 127.66 124.77 124.69"/>
          <polygon class="uuid-205d4c47-f17e-42d8-84ba-f9a4ddb8ad6c" points="109.26 115.28 119.61 127.58 98.95 139.53 88.69 127.1 109.26 115.28"/>
          <path class="uuid-4198fb31-0ab2-417c-82c9-a967b28ac977" d="M119.61,127.58v3.35c0,1.61-.86,3.09-2.25,3.9l-1.02.59c-.84.48-1.89-.12-1.89-1.09v-3.76s5.15-2.98,5.15-2.98Z"/>
          <path class="uuid-2a5b7aa5-4bbe-4691-83a3-2e058bfc7aa0" d="M114.45,130.56v3.4c0,1.61-.86,3.09-2.25,3.89l-1.01.59c-.84.48-1.89-.12-1.89-1.09v-3.82s5.15-2.98,5.15-2.98Z"/>
          <path class="uuid-4198fb31-0ab2-417c-82c9-a967b28ac977" d="M109.26,133.54v3.4c0,1.61-.86,3.09-2.25,3.89l-1.01.59c-.84.48-1.89-.12-1.89-1.09v-3.82s5.15-2.98,5.15-2.98Z"/>
          <polygon class="uuid-2a5b7aa5-4bbe-4691-83a3-2e058bfc7aa0" points="114.45 130.56 104.23 118.14 99.03 121.11 109.26 133.54 114.45 130.56"/>
          <path class="uuid-2a5b7aa5-4bbe-4691-83a3-2e058bfc7aa0" d="M104.11,136.55v3.4c0,1.61-.86,3.09-2.25,3.89l-1.01.59c-.84.48-1.89-.12-1.89-1.09v-3.82s5.15-2.98,5.15-2.98Z"/>
          <polygon class="uuid-2a5b7aa5-4bbe-4691-83a3-2e058bfc7aa0" points="104.11 136.55 93.89 124.13 88.69 127.1 98.92 139.53 104.11 136.55"/>
          <polygon class="uuid-2a5b7aa5-4bbe-4691-83a3-2e058bfc7aa0" points="99.74 144.51 88.69 137.71 88.69 127.1 98.92 139.53 99.74 144.51"/>
          <g class="uuid-4a9c0f31-4d27-490c-a11f-49e99da6c117">
            <g class="uuid-37f55a7f-3fd0-4de3-a73f-eb1fe4b2a562">
              <g class="uuid-7a83af18-7843-44a1-b533-0c3cce531fe8">
                <path class="uuid-205d4c47-f17e-42d8-84ba-f9a4ddb8ad6c" d="M140.27,119.06c0,1.61-.86,3.09-2.25,3.9l-1.01.59c-.84.48-1.89-.12-1.89-1.09v-3.76s5.15-2.98,5.15-2.98v3.34Z"/>
                <path class="uuid-205d4c47-f17e-42d8-84ba-f9a4ddb8ad6c" d="M135.11,122.1c0,1.61-.86,3.09-2.25,3.9l-1.01.59c-.84.48-1.89-.12-1.89-1.09v-3.82s5.15-2.98,5.15-2.98v3.4Z"/>
                <path class="uuid-205d4c47-f17e-42d8-84ba-f9a4ddb8ad6c" d="M124.76,124.65l5.16-2.98v3.4c0,1.61-.86,3.09-2.25,3.89l-1.02.59c-.84.48-1.88-.12-1.89-1.09v-.38s0,0,0,0c0,1.61-.86,3.09-2.25,3.9l-1.01.59c-.84.48-1.89-.12-1.89-1.09v-3.82s5.14-2.97,5.14-2.97v-.04Z"/>
                <path class="uuid-205d4c47-f17e-42d8-84ba-f9a4ddb8ad6c" d="M119.61,127.67v3.26c0,1.61-.86,3.09-2.25,3.89l-1.02.59c-.84.48-1.89-.12-1.89-1.09v-3.76s5.15-2.98,5.15-2.98v.08Z"/>
                <path class="uuid-205d4c47-f17e-42d8-84ba-f9a4ddb8ad6c" d="M114.45,133.97c0,1.61-.86,3.09-2.25,3.9l-1.01.59c-.84.48-1.89-.12-1.89-1.09v-3.82s5.15-2.98,5.15-2.98v3.4Z"/>
                <path class="uuid-205d4c47-f17e-42d8-84ba-f9a4ddb8ad6c" d="M104.1,136.56v-.04l5.16-2.98v3.4c0,1.61-.86,3.09-2.25,3.9l-1.01.59c-.84.48-1.88-.12-1.89-1.09v-.38s0,0,0,0c0,1.61-.86,3.09-2.25,3.89l-1.02.59c-.84.48-1.89-.12-1.89-1.09v-3.82s5.14-2.97,5.14-2.97Z"/>
              </g>
            </g>
          </g>
          <polygon class="uuid-454618a4-7050-41f1-8467-b058ee1914c8" points="165.53 92.05 165.53 118.55 200.25 98.6 200.25 71.82 165.53 92.05"/>
          <polygon class="uuid-87e201eb-8cec-49d4-ad3c-307a6588582f" points="198.48 97.57 198.48 74.89 167.3 93.06 167.3 115.49 198.48 97.57"/>
          <polygon class="uuid-454618a4-7050-41f1-8467-b058ee1914c8" points="190.31 78.89 191.99 77.91 192.08 101.81 190.31 102.92 190.31 78.89"/>
          <polygon class="uuid-454618a4-7050-41f1-8467-b058ee1914c8" points="182.14 83.34 183.82 82.36 183.91 106.26 182.14 107.37 182.14 83.34"/>
          <polygon class="uuid-454618a4-7050-41f1-8467-b058ee1914c8" points="173.97 88.67 175.65 87.69 175.74 111.59 173.97 112.7 173.97 88.67"/>
          <polygon class="uuid-205d4c47-f17e-42d8-84ba-f9a4ddb8ad6c" points="200.54 63.27 210.89 75.57 190.13 87.56 179.89 75.02 200.54 63.27"/>
          <path class="uuid-4198fb31-0ab2-417c-82c9-a967b28ac977" d="M210.89,75.57v3.35c0,1.61-.86,3.09-2.25,3.9l-1.01.59c-.84.48-1.89-.12-1.89-1.09v-3.76s5.15-2.98,5.15-2.98Z"/>
          <path class="uuid-2a5b7aa5-4bbe-4691-83a3-2e058bfc7aa0" d="M205.73,78.55v3.4c0,1.61-.86,3.09-2.25,3.89l-1.01.59c-.84.48-1.89-.12-1.89-1.09v-3.82s5.15-2.98,5.15-2.98Z"/>
          <path class="uuid-4198fb31-0ab2-417c-82c9-a967b28ac977" d="M200.54,81.53v3.4c0,1.61-.86,3.09-2.25,3.89l-1.01.59c-.84.48-1.89-.12-1.89-1.09v-3.82s5.15-2.98,5.15-2.98Z"/>
          <polygon class="uuid-2a5b7aa5-4bbe-4691-83a3-2e058bfc7aa0" points="205.73 78.55 195.52 66.13 190.31 69.09 200.54 81.52 205.73 78.55"/>
          <path class="uuid-2a5b7aa5-4bbe-4691-83a3-2e058bfc7aa0" d="M195.39,84.54v3.4c0,1.61-.86,3.09-2.25,3.89l-1.01.59c-.84.48-1.89-.12-1.89-1.09v-3.82s5.15-2.98,5.15-2.98Z"/>
          <polygon class="uuid-2a5b7aa5-4bbe-4691-83a3-2e058bfc7aa0" points="195.39 84.54 185.18 72.12 179.97 75.08 190.2 87.52 195.39 84.54"/>
          <polygon class="uuid-205d4c47-f17e-42d8-84ba-f9a4ddb8ad6c" points="179.88 75.13 190.23 87.43 169.57 99.38 159.31 86.95 179.88 75.13"/>
          <path class="uuid-4198fb31-0ab2-417c-82c9-a967b28ac977" d="M190.23,87.43v3.35c0,1.61-.86,3.09-2.25,3.9l-1.01.59c-.84.48-1.89-.12-1.89-1.09v-3.76s5.15-2.98,5.15-2.98Z"/>
          <path class="uuid-2a5b7aa5-4bbe-4691-83a3-2e058bfc7aa0" d="M185.07,90.42v3.4c0,1.61-.86,3.09-2.25,3.89l-1.01.59c-.84.48-1.89-.12-1.89-1.09v-3.82s5.15-2.98,5.15-2.98Z"/>
          <path class="uuid-4198fb31-0ab2-417c-82c9-a967b28ac977" d="M179.88,93.39v3.4c0,1.61-.86,3.09-2.25,3.89l-1.01.59c-.84.48-1.89-.12-1.89-1.09v-3.82s5.15-2.98,5.15-2.98Z"/>
          <polygon class="uuid-2a5b7aa5-4bbe-4691-83a3-2e058bfc7aa0" points="185.07 90.42 174.86 77.99 169.65 80.96 179.88 93.39 185.07 90.42"/>
          <path class="uuid-2a5b7aa5-4bbe-4691-83a3-2e058bfc7aa0" d="M174.73,96.41v3.4c0,1.61-.86,3.09-2.25,3.89l-1.01.59c-.84.48-1.89-.12-1.89-1.09v-3.82s5.15-2.98,5.15-2.98Z"/>
          <polygon class="uuid-2a5b7aa5-4bbe-4691-83a3-2e058bfc7aa0" points="174.73 96.41 164.52 83.98 159.31 86.95 169.54 99.38 174.73 96.41"/>
          <polygon class="uuid-2a5b7aa5-4bbe-4691-83a3-2e058bfc7aa0" points="170.36 104.36 159.31 97.57 159.31 86.95 169.54 99.38 170.36 104.36"/>
          <g class="uuid-4a9c0f31-4d27-490c-a11f-49e99da6c117">
            <g>
              <path class="uuid-205d4c47-f17e-42d8-84ba-f9a4ddb8ad6c" d="M210.89,78.91c0,1.61-.86,3.09-2.25,3.9l-1.01.59c-.84.48-1.89-.12-1.89-1.09v-3.76s5.15-2.98,5.15-2.98v3.34Z"/>
              <path class="uuid-205d4c47-f17e-42d8-84ba-f9a4ddb8ad6c" d="M205.73,81.95c0,1.61-.86,3.09-2.25,3.9l-1.01.59c-.84.48-1.89-.12-1.89-1.09v-3.82s5.15-2.98,5.15-2.98v3.4Z"/>
              <path class="uuid-205d4c47-f17e-42d8-84ba-f9a4ddb8ad6c" d="M195.38,84.5l5.16-2.98v3.4c0,1.61-.86,3.09-2.25,3.89l-1.02.59c-.84.48-1.88-.12-1.89-1.09v-.38s0,0,0,0c0,1.61-.86,3.09-2.25,3.9l-1.01.59c-.84.48-1.89-.12-1.89-1.09v-3.82s5.14-2.97,5.14-2.97v-.04Z"/>
              <path class="uuid-205d4c47-f17e-42d8-84ba-f9a4ddb8ad6c" d="M190.23,87.52v3.26c0,1.61-.86,3.09-2.25,3.89l-1.01.59c-.84.48-1.89-.12-1.89-1.09v-3.76s5.15-2.98,5.15-2.98v.08Z"/>
              <path class="uuid-205d4c47-f17e-42d8-84ba-f9a4ddb8ad6c" d="M185.07,93.82c0,1.61-.86,3.09-2.25,3.9l-1.01.59c-.84.48-1.89-.12-1.89-1.09v-3.82s5.15-2.98,5.15-2.98v3.4Z"/>
              <path class="uuid-205d4c47-f17e-42d8-84ba-f9a4ddb8ad6c" d="M174.72,96.41v-.04l5.16-2.98v3.4c0,1.61-.86,3.09-2.25,3.9l-1.01.59c-.84.48-1.88-.12-1.89-1.09v-.38s0,0,0,0c0,1.61-.86,3.09-2.25,3.89l-1.02.59c-.84.48-1.89-.12-1.89-1.09v-3.82s5.14-2.97,5.14-2.97Z"/>
            </g>
          </g>
          <polygon class="uuid-14abf30f-cc22-4fae-ad06-defdcd1004fc" points="85.11 89.89 117.06 71.4 117.06 66.45 85.11 84.89 85.11 89.89"/>
          <polygon class="uuid-b7a6bc98-4a3d-454a-b162-10d40c0d0627" points="85.11 84.89 85.11 89.89 53.05 71.38 53.05 65.93 85.11 84.89"/>
          <polygon class="uuid-14abf30f-cc22-4fae-ad06-defdcd1004fc" points="146.68 54.18 178.63 35.69 178.63 30.74 146.68 49.19 146.68 54.18"/>
          <polygon class="uuid-b7a6bc98-4a3d-454a-b162-10d40c0d0627" points="146.68 48.76 146.68 54.18 114.62 35.68 114.62 30.23 146.68 48.76"/>
          <path class="uuid-2a5b7aa5-4bbe-4691-83a3-2e058bfc7aa0" d="M124.78,80.36c-1,7.6,4.63,11.58,12.58,8.89,7.95-2.69,15.2-11.03,16.2-18.62,1-7.6-4.63-11.58-12.58-8.89-7.95,2.69-15.2,11.03-16.2,18.62"/>
          <polygon class="uuid-890e6009-5fb3-45d5-80ce-be98f2680e36" points="150.71 62.39 152.35 63.65 151.85 63.85 149.6 62.13 150.71 62.39"/>
          <polygon class="uuid-890e6009-5fb3-45d5-80ce-be98f2680e36" points="127.22 88.27 129.06 89.7 130 87.78 127.22 88.27"/>
          <path class="uuid-205d4c47-f17e-42d8-84ba-f9a4ddb8ad6c" d="M126.17,81.43c-1,7.6,4.63,11.58,12.58,8.89,7.95-2.69,15.2-11.03,16.2-18.62,1-7.6-4.63-11.58-12.58-8.89-7.95,2.69-15.2,11.03-16.2,18.62"/>
          <path class="uuid-2a5b7aa5-4bbe-4691-83a3-2e058bfc7aa0" d="M135.02,85.62l9.53-5.22.85-2.86-8.86,5.09c-.74.43-1.67-.11-1.66-.97l.02-4.11c0-.34.15-.65.42-.86l10.59-8.45c.21-.17.46-.25.7-.24l1.8-3.62s.02-.06.03-.1c.1-.24.39-.36.63-.25l1.37.58c.24.1.36.39.25.63-.08.18-.25.29-.44.29-.06,0-.13-.01-.19-.04l-1-.43-1.64,3.3c.18.19.29.45.29.75v6.47c0,.4-.21.76-.56.96l-.38.22-1.32,4.18c-.04.11-.12.2-.23.26.15.14.24.39.24.72,0,.73-.43,1.58-.95,1.9-.53.32-.95-.01-.95-.74,0-.33.09-.68.23-1l-.03-.08-6.21,3.4h0c.28.06.47.37.47.85,0,.73-.43,1.58-.95,1.9-.53.32-.95-.01-.95-.74,0-.4.13-.84.34-1.21l-.06-.17-.88.48c-.34.18-.75-.06-.75-.45,0-.19.1-.36.27-.45"/>
          <polygon class="uuid-14abf30f-cc22-4fae-ad06-defdcd1004fc" points="169.84 136.27 169.9 137.91 144.47 152.32 144.47 150.87 169.84 136.27"/>
          <polygon class="uuid-b7a6bc98-4a3d-454a-b162-10d40c0d0627" points="144.47 150.87 136.14 145.92 136.14 147.67 144.47 152.32 144.47 150.87"/>
          <polygon class="uuid-bb892b07-a67d-4025-82e0-2c6733058347" points="136.14 145.92 161.36 131.37 169.84 136.27 144.47 150.87 136.14 145.92"/>
          <polygon class="uuid-14abf30f-cc22-4fae-ad06-defdcd1004fc" points="165.14 131.84 165.2 133.63 139.77 148.04 139.77 146.43 165.14 131.84"/>
          <polygon class="uuid-b7a6bc98-4a3d-454a-b162-10d40c0d0627" points="139.77 146.43 135.07 143.4 135.07 146.92 139.77 149.66 139.77 146.43"/>
          <polygon class="uuid-bb892b07-a67d-4025-82e0-2c6733058347" points="135.07 143.4 160.28 128.85 165.14 131.84 139.77 146.43 135.07 143.4"/>
          <polygon class="uuid-890e6009-5fb3-45d5-80ce-be98f2680e36" points="84.22 175.67 70.69 183.19 17.56 152.35 17.56 151 31.17 145.25 84.22 174.31 84.22 175.67"/>
          <polygon class="uuid-585a3a0b-7605-4549-bf85-042a0cd72ac5" points="31.17 145.25 54.76 157.9 70.69 181.84 70.69 183.19 17.56 152.36 17.56 151 31.17 145.25"/>
          <polygon class="uuid-4198fb31-0ab2-417c-82c9-a967b28ac977" points="84.22 174.31 70.69 181.84 17.56 151 31.17 143.9 84.22 174.31"/>
          <polygon class="uuid-890e6009-5fb3-45d5-80ce-be98f2680e36" points="47.07 145.04 47.07 152.79 40.43 156.23 40.43 148.89 47.07 145.04"/>
          <polygon class="uuid-4198fb31-0ab2-417c-82c9-a967b28ac977" points="40.43 148.89 32.79 144.45 39.49 140.67 47.07 145.04 40.43 148.89"/>
          <polygon class="uuid-585a3a0b-7605-4549-bf85-042a0cd72ac5" points="40.43 148.89 40.43 156.23 32.79 151.84 32.79 144.45 40.43 148.89"/>
          <polygon class="uuid-890e6009-5fb3-45d5-80ce-be98f2680e36" points="56.74 150.88 56.74 158.63 50.09 162.07 50.09 154.73 56.74 150.88"/>
          <polygon class="uuid-4198fb31-0ab2-417c-82c9-a967b28ac977" points="50.09 154.73 42.46 150.29 49.16 146.51 56.74 150.88 50.09 154.73"/>
          <polygon class="uuid-585a3a0b-7605-4549-bf85-042a0cd72ac5" points="50.09 154.73 50.09 162.07 42.46 157.69 42.46 150.29 50.09 154.73"/>
          <polygon class="uuid-890e6009-5fb3-45d5-80ce-be98f2680e36" points="66.7 156.48 66.7 164.23 60.05 167.67 60.05 160.33 66.7 156.48"/>
          <polygon class="uuid-4198fb31-0ab2-417c-82c9-a967b28ac977" points="60.05 160.33 52.41 155.89 59.12 152.1 66.7 156.48 60.05 160.33"/>
          <polygon class="uuid-585a3a0b-7605-4549-bf85-042a0cd72ac5" points="60.05 160.33 60.05 167.67 52.41 163.28 52.41 155.89 60.05 160.33"/>
          <polygon class="uuid-890e6009-5fb3-45d5-80ce-be98f2680e36" points="76.9 162.31 76.9 170.06 70.25 173.5 70.25 166.16 76.9 162.31"/>
          <polygon class="uuid-4198fb31-0ab2-417c-82c9-a967b28ac977" points="70.25 166.16 62.62 161.72 69.32 157.94 76.9 162.31 70.25 166.16"/>
          <polygon class="uuid-585a3a0b-7605-4549-bf85-042a0cd72ac5" points="70.25 166.16 70.25 173.5 62.62 169.11 62.62 161.72 70.25 166.16"/>
        </g>
      </g>
    </g>
  </g>
</svg>