<?xml version="1.0" encoding="UTF-8"?>
<svg id="uuid-04b6ef08-29de-4993-b2e5-bd61de22a20d" data-name="Calque_2" xmlns="http://www.w3.org/2000/svg" xmlns:xlink="http://www.w3.org/1999/xlink" viewBox="0 0 23.88 23.18">
  <defs>
    <style>
      .uuid-985f1393-2c89-4342-ba78-ead3be55be30 {
        clip-path: url(#uuid-c2b97761-8b10-42b3-8f30-a876ef8fed3a);
      }

      .uuid-3232582a-59c4-4399-8009-f77a21752002 {
        fill: #4bb0c1;
      }

      .uuid-3bb64a78-180e-498d-aa1a-641e1105cf8a {
        fill: #493a3c;
      }

      .uuid-e8a3ca87-6479-4613-a91a-9223120344c4 {
        fill: #fff;
      }

      .uuid-e4e5e324-2684-420e-9328-302cdd99a69c {
        fill: #a8b2b6;
      }

      .uuid-7587ceb5-0463-460f-bcf7-7e6b5818a8ce {
        fill: none;
      }

      .uuid-1c9088e9-c1ad-4e77-99c7-56757084a4e4 {
        clip-path: url(#uuid-5ea34e02-4fe5-4624-8895-5f1ca7554195);
      }

      .uuid-446aecff-8a4c-4da2-bcce-57dabc34e29d {
        fill: url(#uuid-6bc0d00b-6cb7-4dd6-aa40-a86e7a883c6e);
      }

      .uuid-ba33b94e-9fca-4304-b613-7baa0b3ecab9 {
        fill: url(#uuid-00022f19-2fe3-46b1-a45f-a3c02f0944a9);
      }
    </style>
    <clipPath id="uuid-5ea34e02-4fe5-4624-8895-5f1ca7554195">
      <path class="uuid-7587ceb5-0463-460f-bcf7-7e6b5818a8ce" d="M10.34,2c-.1.16-.16.33-.2.51-.71.05-1.38.41-1.78,1.06-.28.46-.36,1-.26,1.51-.33.11-.62.33-.82.66-.26.44-.26.99-.04,1.43-.02.03-.05.06-.07.1-.38.64-.3,1.48.21,2.03.72.8,1.94.76,2.63.01,1.25.79,2.91.59,3.93-.5.08.02.16.03.24.04,1.05.09,1.97-.68,2.05-1.71,1.05.09,1.97-.68,2.05-1.71.09-1.03-.69-1.94-1.74-2.03h0c.05-.6-.19-1.2-.69-1.61-.71-.57-1.71-.56-2.39-.02-.02-.02-.03-.05-.05-.07-.39-.43-.91-.63-1.43-.63-.64,0-1.28.32-1.64.93"/>
    </clipPath>
    <linearGradient id="uuid-00022f19-2fe3-46b1-a45f-a3c02f0944a9" data-name="Dégradé sans nom 60" x1="-1260.5" y1="607.95" x2="-1259.5" y2="607.95" gradientTransform="translate(-6824.8 14176.33) rotate(90) scale(11.25 -11.25)" gradientUnits="userSpaceOnUse">
      <stop offset="0" stop-color="#4bb0c1"/>
      <stop offset=".34" stop-color="#68bab3"/>
      <stop offset=".76" stop-color="#88c5a4"/>
      <stop offset="1" stop-color="#94ca9f"/>
    </linearGradient>
    <clipPath id="uuid-c2b97761-8b10-42b3-8f30-a876ef8fed3a">
      <path class="uuid-7587ceb5-0463-460f-bcf7-7e6b5818a8ce" d="M6.19,5.57c-.07-.04-.15-.07-.22-.1-.99-.35-2.08.16-2.42,1.14-.99-.35-2.07.16-2.42,1.14-.35.98.18,2.05,1.17,2.4-.2.56-.12,1.21.26,1.73.54.73,1.51.97,2.31.62.01.03.02.05.03.08.6,1.14,2.13,1.39,3.05.49.13-.13.24-.28.33-.45.7.13,1.44-.05,1.99-.58.39-.37.6-.87.63-1.39.34-.03.68-.17.96-.43.36-.36.51-.89.4-1.38.03-.03.06-.05.09-.08.53-.52.66-1.36.31-2.02-.5-.95-1.69-1.23-2.54-.67-.6-.65-1.44-.99-2.28-.99-.57,0-1.14.16-1.65.48"/>
    </clipPath>
    <linearGradient id="uuid-6bc0d00b-6cb7-4dd6-aa40-a86e7a883c6e" data-name="Dégradé sans nom 4" x1="-1262.74" y1="606.93" x2="-1261.74" y2="606.93" gradientTransform="translate(-7152.83 14899.58) rotate(90) scale(11.8 -11.8)" gradientUnits="userSpaceOnUse">
      <stop offset="0" stop-color="#b9cfed"/>
      <stop offset=".02" stop-color="#b9cfed"/>
      <stop offset=".49" stop-color="#96bee6"/>
      <stop offset=".75" stop-color="#8096cb"/>
      <stop offset="1" stop-color="#696caf"/>
    </linearGradient>
  </defs>
  <g id="uuid-2db02051-1c85-45ea-836c-e5e9bf2de764" data-name="Décors">
    <g id="uuid-d3d9cd12-577a-4918-8a16-7efe4e33cace" data-name="Decor_x5F_PotFleur">
      <polygon class="uuid-e8a3ca87-6479-4613-a91a-9223120344c4" points=".26 11.5 6.62 15.53 23.88 6.41 17.52 2.38 .26 11.5"/>
      <polygon class="uuid-3bb64a78-180e-498d-aa1a-641e1105cf8a" points="2.9 11.6 6.68 14 21.24 6.3 17.46 3.91 2.9 11.6"/>
      <polygon class="uuid-e8a3ca87-6479-4613-a91a-9223120344c4" points=".26 11.5 0 19.15 6.37 23.18 6.62 15.53 .26 11.5"/>
      <polygon class="uuid-e4e5e324-2684-420e-9328-302cdd99a69c" points="6.62 15.53 6.37 23.18 23.62 14.06 23.88 6.41 6.62 15.53"/>
      <path class="uuid-3232582a-59c4-4399-8009-f77a21752002" d="M20.95,2.33h0c.05-.59-.19-1.2-.69-1.61-.71-.57-1.71-.56-2.39-.02-.02-.02-.03-.05-.05-.07-.87-.95-2.41-.81-3.07.3-.1.16-.16.33-.2.51-.71.05-1.38.41-1.78,1.06-.28.46-.36,1-.26,1.51-.33.11-.62.33-.82.66-.26.44-.27.99-.04,1.43-.02.03-.05.06-.07.1-.38.64-.3,1.48.21,2.03.72.79,1.94.76,2.63.01,1.25.79,2.91.59,3.93-.5.08.02.16.03.24.04,1.05.09,1.97-.68,2.05-1.71,1.05.09,1.97-.68,2.05-1.71.09-1.03-.69-1.94-1.74-2.03"/>
      <g class="uuid-1c9088e9-c1ad-4e77-99c7-56757084a4e4">
        <rect class="uuid-ba33b94e-9fca-4304-b613-7baa0b3ecab9" x="7.84" y="-.37" width="9.46" height="11.91" transform="translate(6.52 17.95) rotate(-87.86)"/>
      </g>
      <g class="uuid-985f1393-2c89-4342-ba78-ead3be55be30">
        <rect class="uuid-446aecff-8a4c-4da2-bcce-57dabc34e29d" x="2.23" y="3.26" width="9.33" height="12.55" transform="translate(-2.89 16.07) rotate(-87.86)"/>
      </g>
    </g>
  </g>
</svg>