<?xml version="1.0" encoding="UTF-8"?>
<svg id="Calque_2" xmlns="http://www.w3.org/2000/svg" viewBox="0 0 45.63 51.22">
  <defs>
    <style>
      .cls-1 {
        fill: #ebeef9;
      }

      .cls-2 {
        fill: #236;
      }

      .cls-3 {
        fill: #b4d5f1;
      }

      .cls-4 {
        fill: #d8ddee;
      }

      .cls-5 {
        fill: #e75212;
      }

      .cls-6 {
        fill: #1797d5;
      }

      .cls-7 {
        fill: #f4c903;
      }
    </style>
  </defs>
  <g id="Calque_1-2" data-name="Calque_1">
    <g>
      <path class="cls-5" d="M24.43,26.99c.11.02.22-.07.24-.2.12-1.1.16-2.21.13-3.31,0-.13,0-.35-.14-.52-.09-.12-.24-.17-.38-.15-.12.02-.22.11-.26.23l.38.18s-.04.05-.05.05c.03.04.04.16.04.23.03,1.08-.01,2.17-.13,3.24-.01.13.07.24.18.26"/>
      <path class="cls-7" d="M43.7,41.73c.09-.25.21-.48.33-.67-.04-.39-.12-.77-.24-1.14-.05-.18-.12-.35-.18-.52-.64-1.56-1.39-3.05-2.2-4.54-.55-1.02-1.57-2.15-1.62-3.36-.04-.96.33-2.2.43-3.18.16-1.52.35-3.05.49-4.57-1.58.92-3.47,1.28-5.33,1.41-.09,0-.19.01-.29.02,0,2.09-.12,4.32.37,6.27.17.69.45,1.37.8,2.04.77,1.44,2.2,2.76,3.22,4.01.62.76,1.25,1.52,1.86,2.28.41.51,1.13,1.07,1.39,1.66.08.18.05.59,0,1.05,0,.07-.01.15-.02.23.32.36.64,0,.99-.99"/>
      <path class="cls-2" d="M44.03,41.06c-.13.19-.25.42-.33.67-.35.98-.66,1.34-.99.98-.08.79-.15,1.62.27,1.59.18-.01.42-.42.5-.55.51-.81.66-1.76.55-2.7"/>
      <path class="cls-7" d="M29.44,24.79c-.41,1.88-.76,3.76-1.07,5.64-.49,2.91.03,6.15-.04,9.1-.03,1.43-.09,2.86-.09,4.25,0,.12,0,.24-.01.35-.03.41-.29.9-.58,1.41h0c-.32.58-.68,1.17-.79,1.69-.05.22.22.37.39.23.81-.66,1.75-1.43,2.61-2.11.03-.07.07-.15.11-.22.12-.27.24-.54.35-.82h0c.53-1.35.91-2.78,1.19-4.24.53-2.73.45-5.13.73-7.77.99-2.07,2.09-5.31,2.56-7.09-1.74.09-3.69.09-5.36-.42"/>
      <path class="cls-2" d="M30.32,44.31c-.11.28-.22.55-.35.82-.03.08-.07.15-.11.22-.86.69-1.8,1.45-2.61,2.11-.17.14-.44,0-.39-.23.11-.52.47-1.11.79-1.69-.04.12-.07.25-.1.37.74.31,1.94-1.36,2.76-1.6"/>
      <path class="cls-7" d="M32.68,10.7c-.3-.31-.71-.52-1.18-.58-1.01-.12-1.95.55-2.16,1.55l-1.23,5.79c-.89.87-1.77,1.73-2.66,2.6-.42.41-.84.96-1.33,1.3-.54.38-1.64,1.09-1.44,1.98.1.41.56.57.94.47.22-.06.32-.18.4-.33.06-.11.12-.22.23-.32.23-.22.56-.33.84-.51,1.16-.73,2.5-1.5,3.74-2.34,1.21-.82,2.07-2.07,2.4-3.49l1.43-6.15Z"/>
      <path class="cls-7" d="M39.78,27.77s0-.02,0-.02c.02.02.02.03,0,.02"/>
      <path class="cls-7" d="M39.78,27.77s0-.02,0-.02c.02.02.02.03,0,.02"/>
      <path class="cls-1" d="M41.31,25l-.96-4.43c-.23-.98-2.32-3.72-3.83-2.78-.03.02-.06.03-.1.04-2.82.8-2.07.38-4.91-.41,0,0-.16,0-.17,0-.71,1.51-1.09,3.36-1.68,5.32,0,.02-.01.03-.02.05h0l-.82,2.23c-.18.5-.04,1.06.36,1.42.99.87,2.99,2.26,5.11,1.55.06-.26.15-.61.22-.93.11.02.21.09.26.21l.17.37c.05.12.17.2.3.21,1.21.12,4.37.15,6.03-2.58.05-.08.06-.17.04-.27"/>
      <path class="cls-6" d="M37.9,20.64c-1.31.56-2.37.52-3.77.22-.99-.21-2.89-.45-3.48-1.33-.64-.93.19-2.44-.18-3.5-.36-1.03-1.13-1.78-1.33-2.9-.14-.78-.11-1.63.24-2.35.72-1.49,2.12-1.34,3.51-1.2.89.09,1.57.22,2.44.53,1.01.36,1.98.79,2.59,1.7.99,1.49.48,3.21.85,4.86.17.77.46,1.42.56,1.99.13.78-.08,1.4-1.43,1.98"/>
      <polygon class="cls-7" points="30.74 7.74 31.87 10.63 34.55 10.13 32.96 7.11 30.74 7.74"/>
      <path class="cls-2" d="M39.5.13c-.51.17-.93.47-1.24.83-.23.28-.56.44-.92.47-.35.03-.69.12-1.02.29-.34.18-.63.41-.86.69-.21.26-.52.42-.86.44-.36.02-.72.12-1.06.29-.28.14-.52.32-.72.53-.26.27-.6.44-.97.49-.64.09-1.27.43-1.69,1.03-.95,1.34-.23,3.48,1.6,3.29.79-.08,1.32-.64,2.02-.79.69-.15,1.24.17,1.97-.21.34-.18.63-.41.86-.69.21-.26.52-.42.86-.44.36-.02.72-.12,1.06-.29.34-.18.63-.41.86-.69.21-.26.52-.42.86-.44.36-.02.72-.12,1.06-.29,1.36-.7,1.87-2.36,1.05-3.59-.6-.89-1.79-1.27-2.87-.91"/>
      <path class="cls-7" d="M30.54,5.98c-.18.16-.33.36-.42.61-.29.73-.02,1.6.64,2,.34.21.72.27,1.08.21.47-.09.9-.4,1.12-.89,0-.02.02-.04.02-.05-1.04-.29-1.92-.89-2.43-1.87"/>
      <path class="cls-7" d="M33.53,7.71c.04-.09.07-.18.07-.26.01-.1.01-.2-.01-.3-.02-.06-.08-.11-.15-.12-.6-.12-1.07.57-1.17.94-.05.19-.02.46.27.52.13.03.25,0,.36-.06.09-.03.16-.08.23-.14.05-.03.09-.07.13-.1.11-.1.15-.21.2-.33.01-.03.03-.06.04-.09,0,0,0-.02.01-.02,0-.01.01-.02.02-.04"/>
      <path class="cls-7" d="M45.6,22.67l-.35-1.29h0c-.58-2.09-1.07-4.08-2.05-6.08-.67-1.36-3.17-3.05-4.99-4.06-.26-.14-.73-.38-1.04-.39-.51-.02-.98.26-1.22.7-.78,1.49.25,2.42.61,2.67l.17.1,4.62,2.89,2.55,4.86.13.24s0,0,0,0l.05.12v.64c0,.18.18.31.35.25l.14-.05.15.27c.12.21.4.25.58.1h.01c.28-.25.39-.62.3-.97"/>
      <path class="cls-7" d="M34.93,10.3c0,.63-.93,1.14-2.08,1.14s-2.08-.51-2.08-1.14.93-1.14,2.08-1.14,2.08.51,2.08,1.14"/>
      <path class="cls-5" d="M4.44,45.72l-.21-.28,19.03-22c.12-.14.34-.13.45.02L4.44,45.72Z"/>
      <path class="cls-7" d="M3.48,48.05c.04.11.09.21.15.31.35.53,1.04.7,1.38,1.26.32.51.36,1.12.79.08.39-.93-.24-1.68-1.15-1.69-.17-.57-.43-1.11-.85-1.54-.12-.12-.27-.24-.44-.22-.09.01-.16.09-.19.17.16.52.11,1.14.29,1.65M3.5,47.43s0,.02.01.03c-.02,0-.03-.02-.05-.02h.04Z"/>
      <path class="cls-5" d="M9.58,46.22c.06.38.13.76.19,1.13.02.1.03.19,0,.29-.07.2-.31.27-.52.32-.15.03-.3.06-.44,0-.14-.05-.24-.23-.16-.36.08-.14.29-.13.4-.25.14-.16.01-.4-.1-.58-.12-.19-.22-.4-.24-.62-.02-.22.06-.47.24-.6.18-.13.47-.12.61.05.09.12.1.27.1.42,0,.14-.03.29-.06.42v-.22Z"/>
      <path class="cls-7" d="M2.86,41.64c-.12-.25-.5-.28-.72-.11-.22.17-.32.45-.4.72-.08.29-.13.58-.18.88.6-.26.72-1.13,1.31-1.43l-.02-.05Z"/>
      <path class="cls-7" d="M.34,44.43c.02.25.2.49.44.65.56.38,1.06.18,1.61-.03.76-.29.66.06.74.8.11,1.02.28,1.89,1.43,2.29.24.08.5.12.76.13.74.04,1.5-.14,2.15-.5.56-.3,1.05-1.12,1.64-1.28.42-.11,1.19.12,1.42.49.45.73-.31.84-.39,1.36-.1.65,1.04.29,1.27.17.05-.03.11-.06.14-.11.06-.09.05-.21.04-.33-.04-.39.03-.79.01-1.18-.02-.44-.39-.68-.45-1.04-.07-.36.06-.7.09-1.06.14-1.43-.94-1.99-2.22-1.84-.63.07-1.26.27-1.83.56-.63.31-1.5.72-2-.11-.17-.28-.17-.65-.37-.91l-.17.03c-.19-.59-.78-1.02-1.39-1.05-.55-.02-1.12.29-1.4.77-.24.43-.34.94-.7,1.28-.1.1-.26.19-.41.29-.05.04-.11.07-.16.11-.19.15-.26.33-.24.51"/>
      <path class="cls-7" d="M9.83,42.91c.23.03.48.05.69-.07.23-.14.33-.42.38-.68.03-.18.05-.37,0-.55-.05-.18-.17-.34-.34-.41.14-.17.42-.17.6-.06.18.12.29.33.36.54.1.33.12.7,0,1.03-.11.33-.37.61-.7.72-.33.11-.73,0-.94-.27-.03-.04-.06-.09-.05-.15.01-.07.1-.11.17-.1.07.01.14.06.2.1l-.36-.11Z"/>
      <path class="cls-4" d="M8.76,45.89s-.01.01-.02.02c0,.01.02.02.02.03,0-.02,0-.03,0-.05"/>
      <path class="cls-7" d="M7.06,47.33c-.6,1.09-.75,2.38-1.27,3.52-.04.1-.09.2-.17.26-.16.13-.39.11-.59.09-.24-.03-.54-.13-.54-.37,0-.14.12-.25.25-.29s.27-.02.41,0c-.05-.86.04-1.73.24-2.58.07-.26.15-.52.3-.74.16-.22.41-.38.67-.38.37.01.68.4.61.76l.08-.28Z"/>
      <path class="cls-3" d="M8.74,45.62s-.05.1-.08.15c.08-.07.15-.13.23-.19l-.16.05Z"/>
      <path class="cls-2" d="M3.61,45.68c.47,0,.93-.15,1.31-.43.03-.02.06-.05.09-.07.19-.11.37-.25.51-.45.27-.36.3-.85.08-1.18-.06-.09-.17-.13-.27-.1-.1.03-.17.12-.18.22-.03.51-.17.85-.43,1.1-.08.04-.17.08-.27.13-.48.2-.75.3-1.17.12-.12-.05-.27,0-.32.13-.03.07-.03.14,0,.2-.03.13.06.26.19.29.15.03.31.05.46.05"/>
      <path class="cls-5" d="M4.81,43.34c-.16-.09-.31-.19-.48-.29-.63-.39-1.31-.72-.43-1.22.74-.43.98.16,1.62.4.53.2,1.34,0,.76.84-.47.69-.95.56-1.47.27"/>
      <path class="cls-2" d="M.7,44.36c.01-.05.01-.11,0-.16-.06-.19-.23-.27-.42-.24,0,0-.02,0-.02,0-.16.03-.24.19-.25.33,0,.08,0,.17.03.25.07.19.26.31.47.22.17-.07.24-.25.2-.41M.68,44.29s0,0,0,0c0,0,0,0,0-.01,0,0,0,0,0,0"/>
    </g>
  </g>
</svg>