<?xml version="1.0" encoding="UTF-8"?>
<svg id="Calque_2" xmlns="http://www.w3.org/2000/svg" viewBox="0 0 3.65 4.19">
  <defs>
    <style>
      .cls-1 {
        fill: #e84f0e;
      }
    </style>
  </defs>
  <g id="_Éléments_Mise_en_page" data-name="Éléments_Mise_en_page">
    <g>
      <path class="cls-1" d="M0,1.17c-.01.11.06.22.16.24.85.12,1.71.16,2.57.13.1,0,.27,0,.4-.14.09-.09.14-.24.12-.38-.02-.12-.26-.06-.36-.1l.04.22s-.04-.04-.04-.05c-.03.03-.12.04-.17.04-.84.03-1.68-.01-2.51-.13-.1-.01-.19.07-.2.18"/>
      <path class="cls-1" d="M3.25.74c.01.11-.06.22-.16.24-.85.12-1.71.16-2.57.13-.1,0-.27,0-.4-.14C.03.88-.02.73,0,.59c.02-.12.26-.06.36-.1l-.04.22s.04-.04.04-.05c.03.03.12.04.17.04.84.03,1.68-.01,2.51-.13.1-.01.19.07.2.18"/>
      <path class="cls-1" d="M.09.26c-.01.11.06.22.16.24.85.12,1.71.16,2.57.13.1,0,.27,0,.4-.14.09-.09.14-.24.12-.38-.02-.12-.26-.06-.36-.1l.04.22s-.04-.04-.04-.05c-.03.03-.12.04-.17.04-.84.03-1.68-.01-2.51-.13-.1-.01-.19.07-.2.18"/>
      <path class="cls-1" d="M3.28,4.19c.11.02.22-.07.24-.2.12-1.1.16-2.21.13-3.31,0-.13,0-.35-.14-.52-.09-.12-.24-.17-.38-.15-.12.02-.22.11-.26.23l.38.18s-.04.05-.05.05c.03.04.04.16.04.23.03,1.08-.01,2.17-.13,3.24-.01.13.07.24.18.26"/>
    </g>
  </g>
</svg>