<?xml version="1.0" encoding="UTF-8"?>
<svg id="Calque_2" xmlns="http://www.w3.org/2000/svg" viewBox="0 0 5.62 11.71">
  <defs>
    <style>
      .cls-1 {
        fill: #eebca8;
      }

      .cls-2 {
        fill: #e5d6d7;
      }

      .cls-3 {
        fill: #f5efef;
      }

      .cls-4 {
        fill: #b7a9a8;
      }

      .cls-5 {
        fill: #754e4a;
      }
    </style>
  </defs>
  <g id="_Éléments_Mise_en_page" data-name="Éléments_Mise_en_page">
    <g>
      <path class="cls-1" d="M3.58,2.85c-.08-.26,0-.53,0-.53"/>
      <path class="cls-1" d="M3.58,2.33c.06-.06.1-.68.4-.79"/>
      <path class="cls-2" d="M4.36,1.11s-.65.79-.6,1.17c.05.38,0,.84.22,1.21.22.37,1.42,2.76,1.51,4.4.09,1.64.25,3.25,0,3.7s-3.23-.44-3.87-1.14C.99,9.75-.06,9.2,0,8.28.06,7.37,0,5.65.94,4.52c.94-1.13,1.88-1.2,1.87-1.96-.01-.76-.43-2.29-.26-2.51.17-.21,2.17.49,1.81,1.06"/>
      <path class="cls-5" d="M3.1,6.1s-.17.94.08,1.29c.25.35.56.65.54.96-.02.31-.34.4-.34.4,0,0,.34.56.34.85,0,.29-.94.83-2.17-.29-1.23-1.11-.11-1.62-.11-1.62,0,0-.19-.65.11-.85.31-.19.8-.1.8-.1l.76-.65Z"/>
      <path class="cls-4" d="M3.71.37c.63.24.75.74.54.74s-.5-.08-.5-.08c0,0-.04.4-.38.08-.35-.33-.04-.48-.33-.54-.29-.06-.58-.39-.49-.53.09-.14.54.09,1.17.33"/>
      <path class="cls-4" d="M3.25,1.52v1.39s-.39-1.55-.31-1.76c.08-.21.31.37.31.37"/>
      <path class="cls-4" d="M3.71,4c.04.09.06.79.33,1.09.27.31.19.83-.16.54-.36-.29-.16-1.63-.16-1.63"/>
      <path class="cls-4" d="M2.93,4.17s-.28,1.17-.72,1.33c-.44.15-.4-.33-.13-.56.27-.23.86-.77.86-.77"/>
      <path class="cls-3" d="M4.97,7.04s.34,1.64.18,2.46c-.15.83-.31,1.33-.5-.17-.19-1.5-.99-2.54-.7-2.71.29-.17.87-.47,1.01.42"/>
    </g>
  </g>
</svg>