<?xml version="1.0" encoding="UTF-8"?>
<svg xmlns="http://www.w3.org/2000/svg" xmlns:xlink="http://www.w3.org/1999/xlink" viewBox="0 0 22.12 45.85">
  <defs>
    <style>
      .cls-1 {
        fill: #363b3c;
      }

      .cls-2 {
        fill: #da8f67;
      }

      .cls-3 {
        clip-path: url(#clippath-34);
      }

      .cls-4 {
        clip-path: url(#clippath-38);
      }

      .cls-5 {
        clip-path: url(#clippath-21);
      }

      .cls-6 {
        clip-path: url(#clippath-6);
      }

      .cls-7 {
        clip-path: url(#clippath-7);
      }

      .cls-8 {
        fill: #a1c742;
      }

      .cls-9 {
        clip-path: url(#clippath-17);
      }

      .cls-10 {
        clip-path: url(#clippath-31);
      }

      .cls-11 {
        clip-path: url(#clippath-15);
      }

      .cls-12 {
        clip-path: url(#clippath-33);
      }

      .cls-13 {
        fill: url(#Dégradé_sans_nom_221-2);
      }

      .cls-14 {
        clip-path: url(#clippath-18);
      }

      .cls-15 {
        clip-path: url(#clippath-4);
      }

      .cls-16 {
        fill: #92bada;
      }

      .cls-17 {
        clip-path: url(#clippath-22);
      }

      .cls-18 {
        clip-path: url(#clippath-23);
      }

      .cls-19 {
        fill: #5b6264;
      }

      .cls-20 {
        fill: #434749;
      }

      .cls-21 {
        fill: #d2dce3;
      }

      .cls-22 {
        fill: url(#Dégradé_sans_nom_226-2);
      }

      .cls-23 {
        fill: url(#Dégradé_sans_nom_229-5);
      }

      .cls-24 {
        clip-path: url(#clippath-9);
      }

      .cls-25 {
        clip-path: url(#clippath-10);
      }

      .cls-26 {
        fill: url(#Dégradé_sans_nom_221-4);
      }

      .cls-27 {
        fill: #2a2f2f;
      }

      .cls-28 {
        fill: #b71771;
      }

      .cls-29 {
        clip-path: url(#clippath-25);
      }

      .cls-30 {
        clip-path: url(#clippath-27);
      }

      .cls-31 {
        fill: #961a50;
      }

      .cls-32 {
        fill: #302f7f;
      }

      .cls-33 {
        opacity: .1;
      }

      .cls-33, .cls-34 {
        mix-blend-mode: multiply;
      }

      .cls-35 {
        clip-path: url(#clippath-11);
      }

      .cls-36 {
        fill: none;
      }

      .cls-37 {
        fill: url(#Dégradé_sans_nom_229-3);
      }

      .cls-34 {
        opacity: .2;
      }

      .cls-38 {
        clip-path: url(#clippath-36);
      }

      .cls-39 {
        clip-path: url(#clippath-35);
      }

      .cls-40 {
        clip-path: url(#clippath-28);
      }

      .cls-41 {
        fill: #2b7531;
      }

      .cls-42 {
        clip-path: url(#clippath-1);
      }

      .cls-43 {
        fill: url(#Dégradé_sans_nom_221);
      }

      .cls-44 {
        fill: #909faa;
      }

      .cls-45 {
        fill: #b8c6cf;
      }

      .cls-46 {
        isolation: isolate;
      }

      .cls-47 {
        clip-path: url(#clippath-5);
      }

      .cls-48 {
        clip-path: url(#clippath-20);
      }

      .cls-49 {
        clip-path: url(#clippath-8);
      }

      .cls-50 {
        fill: #4b9734;
      }

      .cls-51 {
        fill: #32393c;
      }

      .cls-52 {
        fill: url(#Dégradé_sans_nom_221-3);
      }

      .cls-53 {
        fill: #acd2f0;
      }

      .cls-54 {
        clip-path: url(#clippath-3);
      }

      .cls-55 {
        clip-path: url(#clippath-26);
      }

      .cls-56 {
        fill: #7ab82c;
      }

      .cls-57 {
        clip-path: url(#clippath-12);
      }

      .cls-58 {
        clip-path: url(#clippath-14);
      }

      .cls-59 {
        fill: #74848f;
      }

      .cls-60 {
        fill: #7d7d7e;
      }

      .cls-61 {
        clip-path: url(#clippath-30);
      }

      .cls-62 {
        clip-path: url(#clippath-19);
      }

      .cls-63 {
        fill: #17233f;
      }

      .cls-64 {
        fill: #649b30;
      }

      .cls-65 {
        fill: url(#Dégradé_sans_nom_229);
      }

      .cls-66 {
        clip-path: url(#clippath-32);
      }

      .cls-67 {
        fill: url(#Dégradé_sans_nom_229-2);
      }

      .cls-68 {
        fill: #d6151a;
      }

      .cls-69 {
        fill: url(#Dégradé_sans_nom_221-5);
      }

      .cls-70 {
        fill: #5e3819;
      }

      .cls-71 {
        fill: #485256;
      }

      .cls-72 {
        fill: url(#Dégradé_sans_nom_215);
      }

      .cls-73 {
        clip-path: url(#clippath-39);
      }

      .cls-74 {
        fill: #408c35;
      }

      .cls-75 {
        fill: #606c70;
      }

      .cls-76 {
        clip-path: url(#clippath-16);
      }

      .cls-77 {
        clip-path: url(#clippath-2);
      }

      .cls-78 {
        fill: url(#Dégradé_sans_nom_225);
      }

      .cls-79 {
        clip-path: url(#clippath-29);
      }

      .cls-80 {
        fill: #e6ebf1;
      }

      .cls-81 {
        clip-path: url(#clippath-37);
      }

      .cls-82 {
        clip-path: url(#clippath-13);
      }

      .cls-83 {
        fill: #475155;
      }

      .cls-84 {
        fill: #5d6973;
      }

      .cls-85 {
        fill: #f0ac82;
      }

      .cls-86 {
        clip-path: url(#clippath-24);
      }

      .cls-87 {
        fill: #9dabb6;
      }

      .cls-88 {
        fill: url(#Dégradé_sans_nom_219);
      }

      .cls-89 {
        clip-path: url(#clippath);
      }

      .cls-90 {
        fill: url(#Dégradé_sans_nom_229-4);
      }

      .cls-91 {
        fill: url(#Dégradé_sans_nom_226);
      }
    </style>
    <clipPath id="clippath">
      <path class="cls-36" d="M19.44,26.21c-.13.05-.97.64-.76,1.29.21.65,1.5.29,1.58.26.17-.04.28-.19.28-.43,0-.39-.29-.87-.65-1.07-.1-.06-.2-.08-.29-.08-.06,0-.11.01-.16.04"/>
    </clipPath>
    <clipPath id="clippath-1">
      <rect class="cls-36" x="18.12" y="25.79" width="2.77" height="2.74" transform="translate(-10.67 12.75) rotate(-28.78)"/>
    </clipPath>
    <linearGradient id="Dégradé_sans_nom_215" data-name="Dégradé sans nom 215" x1="4382.98" y1="919.94" x2="4383.73" y2="919.94" gradientTransform="translate(2767.47 13120.29) rotate(-90) scale(2.99 -2.99)" gradientUnits="userSpaceOnUse">
      <stop offset="0" stop-color="#363b3d"/>
      <stop offset=".57" stop-color="#535f64"/>
      <stop offset="1" stop-color="#66777e"/>
    </linearGradient>
    <clipPath id="clippath-2">
      <path class="cls-36" d="M19.86,32.04c-.92.51-1.66,1.74-1.66,2.76s.74,1.43,1.66.92c.92-.51,1.66-1.74,1.66-2.76,0-.72-.37-1.14-.92-1.14-.22,0-.48.07-.74.22"/>
    </clipPath>
    <clipPath id="clippath-3">
      <rect class="cls-36" x="17.48" y="31.35" width="4.77" height="5.35" transform="translate(-11.63 10.35) rotate(-22.79)"/>
    </clipPath>
    <linearGradient id="Dégradé_sans_nom_221" data-name="Dégradé sans nom 221" x1="4080.91" y1="413.26" x2="4081.66" y2="413.26" gradientTransform="translate(2117.84 20753.01) rotate(-90) scale(5.08 -5.08)" gradientUnits="userSpaceOnUse">
      <stop offset="0" stop-color="#363b3d"/>
      <stop offset="1" stop-color="#475155"/>
    </linearGradient>
    <clipPath id="clippath-4">
      <path class="cls-36" d="M19.86,32.33c-.77.43-1.39,1.46-1.39,2.31s.62,1.2,1.39.77c.77-.43,1.4-1.46,1.4-2.31,0-.6-.31-.95-.77-.95-.19,0-.4.06-.62.18"/>
    </clipPath>
    <clipPath id="clippath-5">
      <rect class="cls-36" x="18.17" y="31.94" width="3.39" height="4.12" transform="translate(-5.58 3.94) rotate(-9.95)"/>
    </clipPath>
    <linearGradient id="Dégradé_sans_nom_221-2" data-name="Dégradé sans nom 221" x1="3787.55" y1="-1321.58" x2="3788.3" y2="-1321.58" gradientTransform="translate(5910.43 -16849.57) rotate(90) scale(4.46 -4.46)" xlink:href="#Dégradé_sans_nom_221"/>
    <clipPath id="clippath-6">
      <path class="cls-36" d="M19.86,32.56c-.66.36-1.19,1.25-1.19,1.97s.53,1.02,1.19.66c.66-.36,1.19-1.25,1.19-1.97,0-.52-.27-.81-.66-.81-.16,0-.34.05-.53.16"/>
    </clipPath>
    <clipPath id="clippath-7">
      <rect class="cls-36" x="18.15" y="32.07" width="3.42" height="3.83" transform="translate(-11.61 10.35) rotate(-22.79)"/>
    </clipPath>
    <linearGradient id="Dégradé_sans_nom_221-3" data-name="Dégradé sans nom 221" x1="4080.91" y1="413.26" x2="4081.66" y2="413.26" gradientTransform="translate(2117.88 20752.84) rotate(-90) scale(5.08 -5.08)" xlink:href="#Dégradé_sans_nom_221"/>
    <clipPath id="clippath-8">
      <path class="cls-36" d="M3.16,41.54s-.07.04-.11.07v.69c-.16.12-.3.29-.4.48l-.54-.05c-.04.09-.08.18-.11.27l.54.05c-.03.09-.04.19-.04.28s.01.17.04.23l-.54.65c.03.06.07.11.11.15l.54-.65c.1.08.24.09.4.03v.69s.07-.04.11-.06c.04-.02.07-.04.11-.07v-.69c.16-.12.3-.29.4-.48l.54.05c.04-.09.08-.18.11-.27l-.54-.05c.03-.09.04-.19.04-.28s-.01-.17-.04-.23l.54-.65c-.03-.06-.07-.11-.11-.15l-.54.65c-.1-.08-.24-.09-.4-.03v-.69s-.07.04-.11.06"/>
    </clipPath>
    <clipPath id="clippath-9">
      <rect class="cls-36" x="1.79" y="41.33" width="2.74" height="3.27" transform="translate(-6.42 .96) rotate(-8.64)"/>
    </clipPath>
    <linearGradient id="Dégradé_sans_nom_219" data-name="Dégradé sans nom 219" x1="3809.43" y1="-1300.84" x2="3810.17" y2="-1300.84" gradientTransform="translate(5930.27 -17315.74) rotate(90) scale(4.56 -4.56)" gradientUnits="userSpaceOnUse">
      <stop offset="0" stop-color="#fcfeff"/>
      <stop offset=".14" stop-color="#f3f5f6"/>
      <stop offset=".36" stop-color="#dddfe0"/>
      <stop offset=".63" stop-color="#b9babb"/>
      <stop offset=".94" stop-color="#878889"/>
      <stop offset="1" stop-color="#7d7d7e"/>
    </linearGradient>
    <clipPath id="clippath-10">
      <path class="cls-36" d="M2.04,43.77c0-.78.58-1.74,1.28-2.13.71-.39,1.28-.07,1.28.71s-.57,1.74-1.28,2.13c-.21.11-.4.17-.57.17-.42,0-.71-.32-.71-.88M3.32,41.3c-.88.49-1.59,1.67-1.59,2.64s.71,1.37,1.59.88c.88-.49,1.59-1.67,1.59-2.64,0-.69-.36-1.09-.88-1.09-.21,0-.46.07-.71.21"/>
    </clipPath>
    <clipPath id="clippath-11">
      <rect class="cls-36" x="1.73" y="41.09" width="3.18" height="4.22"/>
    </clipPath>
    <linearGradient id="Dégradé_sans_nom_221-4" data-name="Dégradé sans nom 221" x1="2870.11" y1="-488.88" x2="2870.85" y2="-488.88" gradientTransform="translate(-12253.95 -2044.38) scale(4.27 -4.27)" xlink:href="#Dégradé_sans_nom_221"/>
    <clipPath id="clippath-12">
      <path class="cls-36" d="M1.85,43.87c0-.9.66-1.99,1.47-2.45.81-.45,1.47-.09,1.47.82s-.66,2-1.47,2.45c-.24.13-.46.19-.66.19-.48,0-.82-.37-.82-1.01M3.32,41.22c-.92.51-1.66,1.74-1.66,2.76s.74,1.43,1.66.92c.92-.51,1.66-1.74,1.66-2.76,0-.72-.38-1.14-.92-1.14-.22,0-.48.07-.74.22"/>
    </clipPath>
    <clipPath id="clippath-13">
      <rect class="cls-36" x="1.19" y="40.65" width="4.26" height="5.08" transform="translate(-9.91 1.94) rotate(-13.39)"/>
    </clipPath>
    <linearGradient id="Dégradé_sans_nom_221-5" data-name="Dégradé sans nom 221" x1="3752.51" y1="-1140.25" x2="3753.25" y2="-1140.25" gradientTransform="translate(6254.46 -20531.01) rotate(90) scale(5.48 -5.48)" xlink:href="#Dégradé_sans_nom_221"/>
    <clipPath id="clippath-14">
      <rect class="cls-36" x="17.28" y="30.63" width="4.19" height="4.97"/>
    </clipPath>
    <clipPath id="clippath-15">
      <rect class="cls-36" x="17.28" y="30.63" width="4.19" height="4.97"/>
    </clipPath>
    <clipPath id="clippath-16">
      <rect class="cls-36" x="17.38" y="30.72" width="4.03" height="4.8"/>
    </clipPath>
    <clipPath id="clippath-17">
      <rect class="cls-36" x="17.38" y="30.72" width="4.03" height="4.8"/>
    </clipPath>
    <clipPath id="clippath-18">
      <rect class="cls-36" x=".78" y="39.69" width="5.35" height="3.99"/>
    </clipPath>
    <clipPath id="clippath-19">
      <rect class="cls-36" x=".78" y="39.69" width="5.35" height="3.99"/>
    </clipPath>
    <clipPath id="clippath-20">
      <rect class="cls-36" x=".9" y="39.78" width="5.14" height="3.81"/>
    </clipPath>
    <clipPath id="clippath-21">
      <rect class="cls-36" x=".9" y="39.78" width="5.14" height="3.81"/>
    </clipPath>
    <clipPath id="clippath-22">
      <rect class="cls-36" x="14.91" y="29.28" width="3.66" height="6.21"/>
    </clipPath>
    <clipPath id="clippath-23">
      <rect class="cls-36" x="14.91" y="29.28" width="3.66" height="6.21"/>
    </clipPath>
    <clipPath id="clippath-24">
      <path class="cls-36" d="M11.47,11.4c-.24.13-.43.45-.43.71,0,.13.05.22.13.27l.18.1c.08.04.18.04.3-.03.23-.13.43-.45.43-.71,0-.13-.05-.22-.13-.27l-.18-.1s-.07-.03-.11-.03c-.06,0-.12.02-.19.06"/>
    </clipPath>
    <clipPath id="clippath-25">
      <rect class="cls-36" x="10.8" y="11.19" width="1.53" height="1.48" transform="translate(-4.55 15.97) rotate(-59.98)"/>
    </clipPath>
    <linearGradient id="Dégradé_sans_nom_229" data-name="Dégradé sans nom 229" x1="5488.67" y1="-2602.74" x2="5489.41" y2="-2602.74" gradientTransform="translate(8356.12 3968.71) rotate(-180) scale(1.52 -1.52)" gradientUnits="userSpaceOnUse">
      <stop offset="0" stop-color="#475155"/>
      <stop offset="1" stop-color="#363b3d"/>
    </linearGradient>
    <clipPath id="clippath-26">
      <path class="cls-36" d="M11.68,11.66c-.18.1-.32.34-.32.53,0,.1.04.17.1.2l2.73,1.51c.06.03.14.03.23-.02.18-.1.32-.34.32-.53,0-.1-.04-.17-.09-.2l-2.73-1.51s-.05-.02-.08-.02c-.04,0-.09.01-.14.04"/>
    </clipPath>
    <clipPath id="clippath-27">
      <rect class="cls-36" x="11.2" y="10.73" width="3.7" height="4.08" transform="translate(-4.54 17.69) rotate(-60)"/>
    </clipPath>
    <linearGradient id="Dégradé_sans_nom_229-2" data-name="Dégradé sans nom 229" x1="5900.99" y1="-3161.25" x2="5901.73" y2="-3161.25" gradientTransform="translate(7183.68 3853.93) rotate(-180) scale(1.22 -1.22)" xlink:href="#Dégradé_sans_nom_229"/>
    <clipPath id="clippath-28">
      <path class="cls-36" d="M14.47,13.28c-.14.08-.26.27-.26.43,0,.08.03.13.08.16l.62.34s.11.02.18-.02c.14-.08.26-.27.26-.43,0-.08-.03-.13-.08-.16l-.62-.34s-.04-.02-.07-.02c-.03,0-.07.01-.11.03"/>
    </clipPath>
    <clipPath id="clippath-29">
      <rect class="cls-36" x="14.07" y="13.01" width="1.42" height="1.48" transform="translate(-4.51 19.67) rotate(-60.01)"/>
    </clipPath>
    <linearGradient id="Dégradé_sans_nom_226" data-name="Dégradé sans nom 226" x1="6532.2" y1="-4016.4" x2="6532.95" y2="-4016.4" gradientTransform="translate(6086.65 3746.84) rotate(-180) scale(.93 -.93)" gradientUnits="userSpaceOnUse">
      <stop offset="0" stop-color="#b8c5cf"/>
      <stop offset=".2" stop-color="#abb8c2"/>
      <stop offset=".58" stop-color="#8a97a0"/>
      <stop offset="1" stop-color="#5d6a73"/>
    </linearGradient>
    <clipPath id="clippath-30">
      <path class="cls-36" d="M14.53,13.89l-.71.57.19.74,1.45,5.67c.08.32.06.51.39.61.2.06.41.02.56-.04.15-.07.26-.17.2-.45l-1.29-5.04c-.08-.3,0-.49.22-.66l1.19-1.27-.18-.71-.74-.42-1.27.99Z"/>
    </clipPath>
    <clipPath id="clippath-31">
      <rect class="cls-36" x="12.83" y="12.67" width="4.88" height="9.09" transform="translate(-3.64 4.1) rotate(-13.69)"/>
    </clipPath>
    <linearGradient id="Dégradé_sans_nom_225" data-name="Dégradé sans nom 225" x1="1226.64" y1="-46.64" x2="1227.39" y2="-46.64" gradientTransform="translate(-1936.45 -56.97) scale(1.59 -1.59)" gradientUnits="userSpaceOnUse">
      <stop offset="0" stop-color="#2d3130"/>
      <stop offset=".09" stop-color="#454f51"/>
      <stop offset=".15" stop-color="#4f5e61"/>
      <stop offset=".27" stop-color="#73878d"/>
      <stop offset=".49" stop-color="#3b4243"/>
      <stop offset=".87" stop-color="#2b2e2e"/>
      <stop offset="1" stop-color="#2b2e2e"/>
    </linearGradient>
    <clipPath id="clippath-32">
      <path class="cls-36" d="M15.92,14.05c-.14.08-.26.27-.26.43,0,.08.03.13.08.16l2.18,1.21s.11.02.18-.02c.14-.08.26-.27.26-.43,0-.08-.03-.13-.08-.16l-2.18-1.21s-.04-.02-.07-.02c-.03,0-.07.01-.11.03"/>
    </clipPath>
    <clipPath id="clippath-33">
      <rect class="cls-36" x="15.54" y="13.31" width="2.95" height="3.26" transform="translate(-4.43 22.2) rotate(-60)"/>
    </clipPath>
    <linearGradient id="Dégradé_sans_nom_226-2" data-name="Dégradé sans nom 226" x1="6418.86" y1="-3863.8" x2="6419.61" y2="-3863.8" gradientTransform="translate(6246.51 3764.52) rotate(-180) scale(.97 -.97)" xlink:href="#Dégradé_sans_nom_226"/>
    <clipPath id="clippath-34">
      <path class="cls-36" d="M16.48,14.26c-.18.1-.32.34-.32.53,0,.1.04.17.1.2l2.73,1.51c.06.03.14.03.23-.02.18-.1.32-.34.32-.53,0-.1-.04-.17-.1-.2l-2.73-1.51s-.05-.02-.08-.02c-.04,0-.09.01-.14.04"/>
    </clipPath>
    <clipPath id="clippath-35">
      <rect class="cls-36" x="16" y="13.34" width="3.7" height="4.08" transform="translate(-4.39 23.14) rotate(-60)"/>
    </clipPath>
    <linearGradient id="Dégradé_sans_nom_229-3" data-name="Dégradé sans nom 229" x1="5900.96" y1="-3162.69" x2="5901.71" y2="-3162.69" gradientTransform="translate(7188.67 3858.44) rotate(-180) scale(1.22 -1.22)" xlink:href="#Dégradé_sans_nom_229"/>
    <clipPath id="clippath-36">
      <path class="cls-36" d="M19.17,15.64c-.24.13-.43.45-.43.71,0,.13.05.22.13.26l.18.1c.08.04.18.04.3-.03.24-.13.43-.45.43-.71,0-.13-.05-.22-.13-.26l-.18-.1s-.07-.03-.11-.03c-.06,0-.12.02-.19.06"/>
    </clipPath>
    <clipPath id="clippath-37">
      <rect class="cls-36" x="18.49" y="15.43" width="1.53" height="1.48" transform="translate(-4.38 24.75) rotate(-59.98)"/>
    </clipPath>
    <linearGradient id="Dégradé_sans_nom_229-4" data-name="Dégradé sans nom 229" x1="5488.64" y1="-2604.62" x2="5489.38" y2="-2604.62" gradientTransform="translate(8364.15 3975.91) rotate(-180) scale(1.52 -1.52)" xlink:href="#Dégradé_sans_nom_229"/>
    <clipPath id="clippath-38">
      <path class="cls-36" d="M19.44,15.74c-.23.13-.43.45-.43.71,0,.13.05.22.13.27l.18.1c.08.04.18.04.3-.03.24-.13.43-.45.43-.71,0-.13-.05-.22-.13-.26l-.18-.1s-.07-.03-.11-.03c-.06,0-.12.02-.19.06"/>
    </clipPath>
    <clipPath id="clippath-39">
      <rect class="cls-36" x="18.77" y="15.53" width="1.53" height="1.48" transform="translate(-4.32 25.05) rotate(-60)"/>
    </clipPath>
    <linearGradient id="Dégradé_sans_nom_229-5" data-name="Dégradé sans nom 229" x1="5488.65" y1="-2604.69" x2="5489.4" y2="-2604.69" gradientTransform="translate(8364.39 3976.18) rotate(-180) scale(1.52 -1.52)" xlink:href="#Dégradé_sans_nom_229"/>
  </defs>
  <g class="cls-46">
    <g id="Calque_2">
      <g id="Calque_1-2" data-name="Calque_1">
        <g>
          <g class="cls-89">
            <g class="cls-42">
              <rect class="cls-72" x="16.97" y="24.63" width="5.08" height="5.07" transform="translate(-10.67 12.75) rotate(-28.79)"/>
            </g>
          </g>
          <g>
            <path class="cls-20" d="M19.72,27.82s.05.43-.62.93l-.22-.56.33-.55.52.18Z"/>
            <path class="cls-1" d="M18.42,28.06s.82,3.18.93,3.6c.11.42.29,1.38.29,1.56,0,.25-.16.56-.39.75-.22.18-.46.21-.56.05-.19-.3-.33-.88-.48-1.47-.09-.33-.47-1.74-.73-2.68-.14-.5-.69-.5-.69-.5l1.64-1.32Z"/>
            <path class="cls-1" d="M2.71,43.21c-.25.14-.46.03-.46-.25s.18-.61.44-.75l2.36-1.3,10.9-6.15v.12l-.68,1.45-10.07,5.57-2.48,1.31Z"/>
            <path class="cls-1" d="M21.48,31.25l-.74-.41c-.41-.22-.96-.18-1.58.16-1.24.69-2.25,2.36-2.25,3.74,0,.67.24,1.14.62,1.37l.78.43c.4.21.95.16,1.56-.17,1.24-.69,2.25-2.36,2.25-3.74,0-.67-.24-1.15-.64-1.38"/>
            <path class="cls-19" d="M17.61,35.12c0-1.38,1.01-3.05,2.25-3.74,1.24-.69,2.25-.13,2.25,1.25s-1.01,3.05-2.25,3.74c-1.24.69-2.25.13-2.25-1.25"/>
            <path class="cls-20" d="M17.82,35.05c0-1.26.92-2.79,2.06-3.42,1.14-.63,2.06-.12,2.06,1.14s-.92,2.79-2.06,3.42c-1.14.63-2.06.12-2.06-1.14"/>
            <path class="cls-27" d="M18.16,34.83c0-1.04.76-2.31,1.71-2.83.94-.52,1.7-.1,1.7.94s-.76,2.31-1.7,2.83c-.94.52-1.71.1-1.71-.94"/>
          </g>
          <g class="cls-77">
            <g class="cls-54">
              <rect class="cls-43" x="15.57" y="29.64" width="8.59" height="8.76" transform="translate(-11.63 10.35) rotate(-22.78)"/>
            </g>
          </g>
          <g class="cls-15">
            <g class="cls-47">
              <rect class="cls-13" x="17.47" y="31.36" width="4.79" height="5.27" transform="translate(-5.58 3.95) rotate(-9.96)"/>
            </g>
          </g>
          <g class="cls-6">
            <g class="cls-7">
              <rect class="cls-52" x="16.79" y="30.85" width="6.15" height="6.27" transform="translate(-11.61 10.34) rotate(-22.78)"/>
            </g>
          </g>
          <g>
            <path class="cls-27" d="M19.7,35.24c.05-.02.1-.05.16-.08.05-.03.11-.06.16-.1,0-.22-.07-.36-.16-.31-.09.05-.16.26-.16.48"/>
            <path class="cls-27" d="M19.7,32.69c0,.22.07.36.16.31.09-.05.16-.26.16-.48-.05.02-.1.05-.16.08-.05.03-.11.06-.16.1"/>
            <path class="cls-27" d="M18.79,34.96c.04.09.09.16.16.21.17-.21.27-.42.23-.48-.04-.06-.22.06-.39.26"/>
            <path class="cls-27" d="M20.55,33.06c.04.06.22-.06.39-.26-.04-.09-.09-.16-.16-.21-.17.21-.27.42-.23.48"/>
            <path class="cls-27" d="M18.79,33.99c.17.01.35-.06.39-.17.04-.11-.06-.2-.23-.22-.06.13-.12.26-.16.39"/>
            <path class="cls-27" d="M20.78,34.16c.06-.13.12-.26.16-.39-.17-.01-.35.06-.39.17-.04.11.06.2.23.22"/>
            <path class="cls-1" d="M4.04,41.48c.09.14.14.34.14.57,0,.78-.58,1.74-1.28,2.13-.27.15-.51.19-.72.15.21.34.65.41,1.14.14.71-.39,1.28-1.35,1.28-2.13,0-.49-.22-.8-.57-.86"/>
            <path class="cls-60" d="M4.11,41.52l-.54.65c-.1-.08-.24-.09-.4-.03v-.69s-.07.03-.11.06c-.04.02-.07.04-.11.07v.69c-.16.12-.3.29-.4.48l-.54-.05c-.04.09-.08.18-.11.27l.54.05c-.03.09-.04.19-.04.28s.01.17.04.23l-.54.65c.03.06.07.11.11.15l.54-.65c.1.08.24.09.4.03v.69s.07-.03.11-.06c.04-.02.07-.04.11-.07v-.69c.16-.12.3-.29.4-.48l.54.05c.04-.09.08-.18.11-.27l-.54-.05c.03-.09.04-.19.04-.28s-.01-.17-.04-.23l.54-.65c-.03-.06-.07-.11-.11-.15"/>
          </g>
          <g class="cls-49">
            <g class="cls-24">
              <rect class="cls-88" x="1.3" y="40.92" width="3.72" height="4.09" transform="translate(-6.42 .96) rotate(-8.65)"/>
            </g>
          </g>
          <g>
            <path class="cls-1" d="M4.94,40.43l-.74-.41c-.41-.22-.96-.18-1.58.16-1.24.69-2.25,2.36-2.25,3.74,0,.67.24,1.14.62,1.37l.78.43c.4.21.95.16,1.56-.17,1.24-.69,2.25-2.36,2.25-3.74,0-.67-.24-1.15-.64-1.38M3.32,44.48c-.71.39-1.28.07-1.28-.71s.57-1.74,1.28-2.13c.71-.39,1.28-.07,1.28.71s-.57,1.74-1.28,2.13"/>
            <path class="cls-19" d="M3.32,40.57c-1.24.69-2.25,2.36-2.25,3.74s1.01,1.93,2.25,1.25c1.24-.69,2.25-2.36,2.25-3.74s-1.01-1.93-2.25-1.25M3.32,44.48c-.71.39-1.28.07-1.28-.71s.57-1.74,1.28-2.13c.71-.39,1.28-.07,1.28.71s-.57,1.74-1.28,2.13"/>
            <path class="cls-20" d="M3.35,40.81c-1.14.63-2.06,2.16-2.06,3.42s.92,1.77,2.06,1.14c1.14-.63,2.06-2.16,2.06-3.42s-.92-1.77-2.06-1.14M3.32,44.48c-.71.39-1.28.07-1.28-.71s.57-1.74,1.28-2.13c.71-.39,1.28-.07,1.28.71s-.57,1.74-1.28,2.13"/>
          </g>
          <g class="cls-25">
            <g class="cls-35">
              <rect class="cls-26" x="1.73" y="41.09" width="3.18" height="4.22"/>
            </g>
          </g>
          <g class="cls-57">
            <g class="cls-82">
              <rect class="cls-69" x=".05" y="39.69" width="6.55" height="7" transform="translate(-9.92 1.94) rotate(-13.4)"/>
            </g>
          </g>
          <g>
            <path class="cls-75" d="M20.69,30.24c-.43-.1-.96,0-1.53.31-1.47.81-2.66,2.78-2.66,4.41,0,.08,0,.15,0,.22,0,0,.13.23.78.43l.52-.48s0-.02,0-.03c0-1.3.95-2.88,2.13-3.53.36-.2.7-.29,1-.28l.53-.61-.78-.43Z"/>
            <g class="cls-33">
              <g class="cls-58">
                <g class="cls-11">
                  <path d="M19.94,30.98c.57-.32,1.1-.41,1.53-.31l-.53.61c-.3-.01-.64.08-1,.28-1.18.65-2.13,2.23-2.13,3.53,0,.01,0,.02,0,.03l-.52.48c0-.07,0-.15,0-.22,0-1.62,1.19-3.59,2.65-4.41"/>
                </g>
              </g>
            </g>
            <g class="cls-34">
              <g class="cls-76">
                <g class="cls-9">
                  <path d="M19.94,31.56c.36-.2.7-.29,1-.28l.46-.54h-.11c-.06-.02-.11-.02-.17-.02-.35,0-.74.11-1.14.33-1.44.8-2.61,2.74-2.61,4.33v.14l.43-.4s0-.02,0-.03c0-1.3.95-2.88,2.13-3.53"/>
                </g>
              </g>
            </g>
            <path class="cls-83" d="M3.14,43.51c-.25.14-.46.03-.46-.25s.18-.61.44-.75l2.36-1.3,10.9-6.03-.68,1.45-10.07,5.57-2.48,1.31Z"/>
            <path class="cls-1" d="M3.19,43.54c-.25.14-.46.03-.46-.25s.18-.61.44-.75l2.36-1.3,10.9-6.15v.12l-.68,1.45-10.07,5.57-2.48,1.31Z"/>
            <path class="cls-1" d="M3.2,42.76l1.45-.8c.14-.08.25-.01.25.14s-.11.34-.25.41l-1.45.8c-.14.08-.25.01-.25-.14s.11-.34.25-.41"/>
            <path class="cls-44" d="M4.65,42.48c.12-.07.22-.23.22-.37s-.1-.19-.22-.12l-1.45.8c-.12.07-.22.23-.22.37s.1.19.22.12l1.45-.8Z"/>
            <path class="cls-68" d="M4.65,42.45c.11-.06.19-.2.19-.32s-.09-.17-.19-.11l-1.45.8c-.11.06-.19.2-.19.32s.09.17.19.11l1.45-.8Z"/>
            <path class="cls-75" d="M5.29,39.84h0l-.77-.43c-.49-.26-1.16-.21-1.9.2-1.24.69-2.29,2.19-2.62,3.63,0,0,.11.31.78.43l.63-.45c.33-1.04,1.1-2.06,2-2.56,1.2-.66,2.17-.13,2.17,1.2,0,.07,0,.13,0,.2l.56-.31c0-.07,0-.13,0-.2,0-.85-.32-1.45-.84-1.71"/>
            <g class="cls-33">
              <g class="cls-14">
                <g class="cls-62">
                  <path d="M3.4,40.04c1.51-.83,2.73-.16,2.73,1.51,0,.07,0,.13,0,.2l-.56.31c0-.07,0-.13,0-.2,0-1.33-.97-1.86-2.17-1.2-.9.5-1.66,1.52-2,2.56l-.63.45c.33-1.44,1.38-2.94,2.62-3.63"/>
                </g>
              </g>
            </g>
            <g class="cls-34">
              <g class="cls-48">
                <g class="cls-5">
                  <path d="M4.62,39.78c-.36,0-.76.12-1.17.35-1.12.62-2.13,1.96-2.51,3.33l-.03.14.5-.36c.33-1.04,1.1-2.06,2-2.56,1.2-.66,2.17-.13,2.17,1.2,0,.07,0,.13,0,.2l.47-.26v-.1c0-.05,0-.1,0-.15,0-1.1-.54-1.78-1.42-1.78"/>
                </g>
              </g>
            </g>
            <path class="cls-75" d="M18.57,30.22l-.2-.95-.36-.22c-1.77,1.42-3.14,3.76-3.46,5.93v.29l.36.22,1-.55v-.29c.3-1.63,1.34-3.36,2.66-4.43"/>
            <g class="cls-34">
              <g class="cls-17">
                <g class="cls-18">
                  <path d="M18.37,29.28l.2.95c-1.32,1.07-2.36,2.8-2.67,4.43v.29s-1,.55-1,.55v-.29c.32-2.16,1.69-4.51,3.46-5.93"/>
                </g>
              </g>
            </g>
            <path class="cls-74" d="M15.69,34.47l-.45.25c.18-.88.54-1.79,1.05-2.66.33-.57.72-1.1,1.14-1.57l.13.4c-.89,1.03-1.57,2.33-1.86,3.57"/>
            <path class="cls-56" d="M15.67,34.45c.29-1.22.96-2.52,1.85-3.55l-.11-.35c-.41.46-.78.98-1.1,1.52-.49.84-.85,1.74-1.03,2.6l.39-.22Z"/>
            <path class="cls-75" d="M16.2,34.55l-1.11.61-.88-.49.44-.24c.03-.15.07-.29.11-.44l-2.06.33-8.93,4.94c.28-.01.54.04.76.16h0l.49.27.04-.02,1.04.58-1.23.66.44.24,1.37-.14,9.06-5.01.69-1.33-.22-.12Z"/>
            <polygon class="cls-83" points="15.73 36 6.67 41.01 5.31 41.15 4.87 40.9 4.87 41.33 5.31 41.57 6.67 41.43 15.73 36.42 16.42 35.09 16.42 34.67 15.73 36"/>
            <path class="cls-8" d="M16.2,34.72l-1.11.61-1.19-.66.8-.44s.01-.05.02-.08l-1.97.31-8.7,4.81c.17.02.32.07.46.14h0l.33.18.2-.11,1.36.75-1.23.66.16.09,1.28-.13,8.99-4.97.6-1.16h-.01Z"/>
            <polygon class="cls-64" points="6.91 41.01 6.91 41.16 15.63 36.33 15.63 36.19 6.91 41.01"/>
            <path class="cls-83" d="M5.29,39.84h0c.23.12.42.3.56.53l.25-.13-1.04-.58-.04.02.28.16Z"/>
            <path class="cls-83" d="M14.65,34.43l-.44.24.35.19c.02-.14.05-.29.08-.44"/>
            <path class="cls-41" d="M19.17,28.45s.82,3.18.93,3.6c.11.42.29,1.38.29,1.56,0,.25-.16.56-.39.75-.22.18-.46.21-.56.05-.19-.3-.33-.88-.48-1.47-.09-.33-.47-1.74-.73-2.68-.14-.5-.84-.38-.84-.38l1.79-1.44Z"/>
            <path class="cls-56" d="M19.33,28.53s.82,3.18.93,3.6c.11.42.29,1.38.29,1.56,0,.25-.16.56-.39.75-.22.18-.46.21-.56.05-.19-.3-.33-.88-.48-1.47-.09-.33-.47-1.74-.73-2.68-.14-.5-.84-.38-.84-.38l1.79-1.44Z"/>
            <path class="cls-50" d="M19.33,28.53l-1.79,1.44s.71-.12.84.38c.05.18.1.37.16.57l.99-1.65c-.11-.43-.19-.74-.19-.74"/>
            <polygon class="cls-56" points="17.43 21.07 17.15 20.58 16.58 20.26 15.83 20.18 15.15 20.72 14.78 21.7 16.81 29.65 17.4 30.02 18.79 29.62 19.47 29.07 17.43 21.07"/>
            <polygon class="cls-50" points="17.4 30.02 18.79 29.62 16.75 21.62 15.36 22.02 17.4 30.02"/>
            <polygon class="cls-41" points="17.4 30.02 16.81 29.65 14.78 21.7 15.36 22.02 17.4 30.02"/>
            <polygon class="cls-21" points="15.83 20.18 16.58 20.26 17.15 20.58 17.43 21.07 16.75 21.62 15.36 22.02 14.78 21.7 15.15 20.72 15.83 20.18"/>
            <polygon class="cls-87" points="17.58 21.63 17.43 21.07 16.75 21.62 16.9 22.17 17.58 21.63"/>
            <polygon class="cls-44" points="16.75 21.62 15.36 22.02 15.5 22.57 16.89 22.17 16.75 21.62"/>
            <polygon class="cls-59" points="15.5 22.57 15.36 22.02 14.78 21.7 14.92 22.25 15.5 22.57"/>
          </g>
          <g class="cls-86">
            <g class="cls-29">
              <rect class="cls-65" x="10.16" y="10.53" width="2.82" height="2.81" transform="translate(-4.55 15.98) rotate(-60)"/>
            </g>
          </g>
          <path class="cls-1" d="M12.08,11.74c0,.26-.19.58-.43.71-.12.06-.22.07-.3.03-.08-.04-.13-.13-.13-.27,0-.26.19-.58.43-.71.12-.06.22-.07.3-.03.08.04.13.13.13.27"/>
          <g class="cls-55">
            <g class="cls-30">
              <rect class="cls-67" x="9.43" y="9.13" width="7.23" height="7.28" transform="translate(-4.54 17.68) rotate(-60)"/>
            </g>
          </g>
          <path class="cls-1" d="M14.73,13.35c0,.2-.14.43-.32.53-.09.05-.17.05-.23.02-.06-.03-.1-.1-.1-.2,0-.2.14-.43.32-.53.09-.05.17-.05.23-.02.06.03.09.1.09.2"/>
          <g class="cls-40">
            <g class="cls-79">
              <rect class="cls-91" x="13.43" y="12.39" width="2.7" height="2.71" transform="translate(-4.51 19.67) rotate(-60)"/>
            </g>
          </g>
          <g class="cls-61">
            <g class="cls-10">
              <rect class="cls-78" x="10.74" y="11.55" width="9.06" height="11.33" transform="translate(-3.64 4.1) rotate(-13.7)"/>
            </g>
          </g>
          <path class="cls-83" d="M15.8,12.89l-1.99,1.57s.51.59.94.29c.43-.29,1.79-1.44,1.79-1.44l-.74-.42Z"/>
          <g class="cls-66">
            <g class="cls-12">
              <rect class="cls-22" x="14.13" y="12.03" width="5.77" height="5.82" transform="translate(-4.43 22.2) rotate(-60)"/>
            </g>
          </g>
          <g class="cls-3">
            <g class="cls-39">
              <rect class="cls-37" x="14.23" y="11.74" width="7.23" height="7.28" transform="translate(-4.39 23.14) rotate(-60)"/>
            </g>
          </g>
          <path class="cls-1" d="M19.53,15.95c0,.2-.14.43-.32.53-.09.05-.17.05-.23.02-.06-.03-.1-.1-.1-.2,0-.2.14-.43.32-.53.09-.05.17-.05.23-.02.06.03.09.1.09.2"/>
          <g class="cls-38">
            <g class="cls-81">
              <rect class="cls-90" x="17.85" y="14.76" width="2.82" height="2.81" transform="translate(-4.37 24.76) rotate(-60)"/>
            </g>
          </g>
          <g>
            <path class="cls-1" d="M19.77,15.97c0,.26-.19.58-.43.71-.12.06-.22.07-.3.03-.08-.04-.13-.13-.13-.27,0-.26.19-.58.43-.71.12-.06.22-.07.3-.03.08.04.13.13.13.27"/>
            <path class="cls-1" d="M19.92,32.35l.34,1.37c.03.13-.05.32-.18.43-.13.11-.27.09-.3-.04l-.34-1.37c-.03-.13.05-.32.18-.43.13-.11.27-.09.3.04"/>
            <path class="cls-44" d="M20.02,34.16s.04-.02.05-.04c.12-.1.19-.27.16-.39l-.34-1.37c-.02-.1-.11-.12-.21-.07-.02,0-.04.02-.05.04-.12.1-.19.27-.16.39l.34,1.37c.02.1.11.12.21.07"/>
            <path class="cls-68" d="M20.02,34.13s.03-.02.05-.03c.05-.04.09-.1.12-.16.03-.06.04-.13.02-.18l-.34-1.37c-.02-.09-.1-.11-.19-.06-.02,0-.03.02-.05.03-.05.04-.09.1-.12.16-.03.06-.04.13-.02.18l.34,1.37c.02.09.1.11.19.06"/>
            <path class="cls-71" d="M2.05,40.87h0s-.19-.02-.19-.02l-.56.31v.71c.22-.36.47-.7.75-1"/>
            <polygon class="cls-75" points=".82 40.91 1.3 41.16 1.85 40.85 2.05 40.87 1.57 40.62 1.38 40.6 .82 40.91"/>
            <polygon class="cls-51" points="1.3 41.87 .82 41.62 .82 40.91 1.3 41.16 1.3 41.87"/>
            <polygon class="cls-68" points=".86 41.59 .86 40.98 1.25 41.19 1.25 41.8 .86 41.59"/>
            <path class="cls-2" d="M18.4,16.28s-.06.18.13.29c.2.1.6.21.78.21.18,0,.63-.58.63-.69,0-.11-.97-.25-.97-.25l-.59.44Z"/>
            <path class="cls-85" d="M6.3,6.81s.83-.15.96-.77c.12-.63-.26-1.37-.4-1.94-.14-.57-.18-1.95.46-2.49.64-.55,1.52-.84,2.22-.82.7.02,1.49.29,1.79.91.3.62.41,1.16.3,1.41-.11.25-.21.4-.16.59s.1.46.02.69c-.08.24-.39,1.12-.49,1.25-.1.13-.83.24-.86.48-.04.24-.04,1.46-.04,1.64s-1.09.75-2.28.36c-1.19-.39-1.51-1.3-1.51-1.3"/>
            <path class="cls-2" d="M10.09,7.75c0-.17,0-1.39.04-1.64.03-.21.56-.32.78-.42-.15-.15-.33-.39-.36-.7-.04-.52,0-1.06,0-1.06l-1.06.09s-.63,3.25-1.72,3.88c-.08.04-.13.09-.17.13.07.03.13.05.21.08,1.19.39,2.28-.19,2.28-.36"/>
            <path class="cls-53" d="M5.33,19.1s-.21,1.25,0,1.92c.21.68.78,2.02.87,2.53.1.52.66,3.63.58,4.19-.08.56-.9,2.24-.77,3.4.13,1.15.17,5.93.17,5.93l2.61-.48s.18-6.13.37-6.92c.19-.8.66-1.9.76-2.81.1-.92.08-3.97.08-3.97l-.64-2.39-4.04-1.41Z"/>
            <path class="cls-16" d="M9.37,20.5l-4.04-1.41s-.21,1.25,0,1.92c.21.68.78,2.02.87,2.53.04.19.13.71.24,1.34.72,1.2,1.41,2.33,1.48,2.76.11.74.08,1.16-.29,3.39-.24,1.43-.97,3.03-1.46,3.99.02,1.12.03,2.04.03,2.04l2.61-.48s.18-6.13.37-6.92c.19-.8.66-1.9.76-2.81.1-.91.08-3.97.08-3.97l-.64-2.39Z"/>
            <path class="cls-45" d="M8.75,36.24s1.47-.19,1.81-.05c.34.14.54.7.36.96-.17.27-1.06.85-1.06.85,0,0-1.42.96-1.52,1.02s-.59.45-1.02.55c-.44.09-1.15-.09-1.2-.43-.05-.35,0-1,0-1l.86-1.05,1.77-.84Z"/>
            <path class="cls-80" d="M10.93,37.15c.07-.11.08-.28.04-.44-.02.11-.06.24-.14.37-.16.27-1.94,1.19-1.94,1.19,0,0-.9.58-1.26.7-.36.13-.63.05-.97-.05-.21-.05-.41-.14-.55-.2,0,.14,0,.29.02.4.05.35.77.53,1.2.43s.92-.48,1.02-.55c.1-.06,1.52-1.02,1.52-1.02,0,0,.88-.58,1.06-.85"/>
            <path class="cls-84" d="M9.59,36.31c.15.05.22.3,0,.36-.22.06-1.14.27-1.55.18-.41-.09-.47-.55-.47-.55l.47.09s1.38-.14,1.55-.09"/>
            <path class="cls-45" d="M10.71,38.2c.02.2.06.63-.26.87-.33.24-.87.58-1.29.43-.42-.15-1.08-.45-1.3-.51-.22-.06-1.33-.39-1.73-.48-.4-.09-.83-.39-.73-.69.1-.29.44-.97.68-1.3.25-.32.54-.68.65-.6.12.09.45.14.71.43.26.29.88.94,1.15,1.02.26.08.28-.65.39-.61.11.04.32.65.5.71.18.06,1.17.13,1.24.73"/>
            <path class="cls-80" d="M10.44,39.07c.19-.14.26-.34.27-.53-.2.32-.68.76-1.09.75-.46-.01-1.08-.49-1.49-.74-.41-.25-.74-.17-1.08-.27-.34-.09-.82-.38-1.21-.66-.12-.09-.21-.17-.27-.25-.08.17-.15.33-.19.44-.1.29.33.59.73.69.4.1,1.52.42,1.73.48.22.06.88.36,1.3.51s.97-.19,1.29-.43"/>
            <path class="cls-84" d="M8.96,36.76c-.06-.02-.09.22-.16.41.11.19.33.54.53.67.29.19.82.31.62-.22,0-.01-.01-.03-.02-.05-.21-.06-.4-.08-.47-.11-.18-.06-.4-.67-.5-.71"/>
            <path class="cls-63" d="M8.13,38.55c.17.11.38.25.59.38.36-.29.68-.7.87-.96-.09-.03-.19-.08-.27-.13-.12-.08-.24-.22-.34-.36-.23.36-.77.75-1.08.96.07.03.14.06.22.11"/>
            <path class="cls-53" d="M13.92,24.09c-.23-1.38-1.08-4.26-1.08-4.26l-5.53.46c.17,1.6,1.77,2.95,1.77,2.95,0,0,.43.46.59,1.13.16.67,1.27,2.95,1.27,2.95,0,0-.02.34-.64,1.02-.61.69-1.67,2.82-2.06,3.79-.39.97-1.57,3.62-1.8,3.92-.23.3.89,1.17,1.59,1.49.7.32,1,0,1.17-.22.18-.22.18-1.28.43-1.79.25-.5,1.99-3.37,2.5-4.15.51-.78,1.74-3.07,1.94-3.78.2-.71.05-2.13-.18-3.52"/>
            <path class="cls-28" d="M7,5.7s.58.35,1.64.69c1.07.35,1.78.6,1.94.9.17.3.17.74.17.74,0,0-.69-.02-.97-.11s-1.58-.09-2.29-.46c-.71-.36-1.07-.96-1.07-.96l.58-.8Z"/>
            <path class="cls-28" d="M7.44,6.69l-1.02-.25s-1.28.14-1.99.6c-.71.46-.53,2.36-.44,3.01.08.65,1.51,4.7,1.56,5.22.05.52-.43,4.3-.43,4.3,0,0,.07.71,2.09,1.37,2.02.66,5.03.71,5.91-.5,0,0-.58-2.68-.58-3.64s.07-3.2.07-3.2l-.42-4.2-1.44-1.36-3.31-1.34Z"/>
            <path class="cls-85" d="M10.62,4.2s-.38-.1-.41.44c-.03.54.14.81.29.67.15-.14.12-.84.12-1.11"/>
            <path class="cls-70" d="M11.48,1.63c.07.14.03.33-.1.63-.13.3-.11.7-.21.94-.1.24-.08.72-.17.78-.1.07-.71.02-.88.35-.17.33-.6,1.06-.81,1.3-.21.24-.83.33-1.25.22-.42-.11-.76-.23-.79-.38-.03-.15-.42-1.21-.5-1.47-.09-.26-.26-1.55.28-2.37.54-.82,2.13-1.26,3.09-1.09.96.18,1.13.61,1.37,1.09"/>
            <path class="cls-31" d="M10.58,11.25c-.02.58-.34,2.1-.11,2.96.24.86.09,1.93-.09,2.31-.16.35-1.06,2.93-.9,4.85,1.54.11,3.05-.14,3.62-.94,0,0-.58-2.68-.58-3.64s.07-3.2.07-3.2l-.28-2.77h-.74s-.99-.16-1.01.42"/>
            <path class="cls-85" d="M17.53,15.18s.55-.32.85-.36c.3-.04.34-.08.52.03.18.11.34.13.37.16.03.02.38.34.43.4.06.07.23.47.23.49s.13.26-.1.26c-.23,0-.27-.16-.39-.08-.13.08-.38.22-.62.27-.23.05-.91-.06-.91-.06l-.44.23-.63-1.19.69-.16Z"/>
            <path class="cls-28" d="M17.97,16.36s.3-.65-.41-1.2l-.85.03-2.07.24s-.16-.69-.33-1.08c-.17-.39-.37-1.09-.37-1.25,0-.16-.42-1.65-.68-2.28-.57-1.38-1.41-1.84-1.76-2.07-.35-.23-.59.18-.84.81-.24.63.06,3.03.68,4.32.62,1.29,1.8,3.64,2.08,3.83.28.19,1.31.06,1.8-.12.49-.18,2.74-1.23,2.74-1.23"/>
            <path class="cls-31" d="M18,15.79c-.46.25-1.44.77-1.94.98-.67.27-1.01.35-1.52.35-.38,0-1.07-.07-1.44.15.15.24.26.4.33.45.28.19,1.31.06,1.8-.12.49-.18,2.74-1.23,2.74-1.23,0,0,.11-.25.03-.57"/>
            <path class="cls-31" d="M10.58,7.29c-.1-.19-.42-.36-.9-.54-.04.26-.11.67-.22,1.12.14.02.25.03.32.05.28.09.97.11.97.11,0,0,0-.44-.16-.74"/>
            <polygon class="cls-1" points="9.84 5.19 10.49 5.53 10.59 5.82 10.81 5.74 10.72 5.46 11.11 3.97 10.92 3.97 10.55 5.34 9.92 4.99 9.84 5.19"/>
            <path class="cls-32" d="M7.73.23c.68-.33,3.79-.73,4.2,2.01,0,0-.12.22-.41.47-.29.25-.15,1.08-.35,1.27-.42.4-.68-.04-.86.32-.18.36-.17,1.04-.9,1.18-.73.14-1.47.31-2.46-.46,0,0-.13-.71-.38-1.29-.3-.71-.62-2.65,1.15-3.51"/>
          </g>
          <g class="cls-4">
            <g class="cls-73">
              <rect class="cls-23" x="18.13" y="14.86" width="2.82" height="2.81" transform="translate(-4.32 25.05) rotate(-60)"/>
            </g>
          </g>
          <path class="cls-1" d="M20.05,16.08c0,.26-.19.58-.43.71-.12.06-.22.07-.3.03-.08-.04-.13-.13-.13-.27,0-.26.19-.58.43-.71.12-.06.22-.07.3-.03.08.04.13.13.13.27"/>
        </g>
      </g>
    </g>
  </g>
</svg>