<?xml version="1.0" encoding="UTF-8"?>
<svg id="Calque_2" xmlns="http://www.w3.org/2000/svg" viewBox="0 0 156.34 184">
  <defs>
    <style>
      .cls-1 {
        fill: #fff;
      }
    </style>
  </defs>
  <g id="Calque_7">
    <g id="Icone_Lieux">
      <rect class="cls-1" x="117.09" y="64.34" width="39.24" height="119.66" rx=".97" ry=".97"/>
      <path class="cls-1" d="M153.85,58.55h-34.26c-.35,0-.67.19-.84.49l-1.47,2.57c-.37.64.1,1.44.84,1.44h37.21c.74,0,1.21-.8.84-1.44l-1.47-2.57c-.17-.3-.49-.49-.84-.49Z"/>
      <rect class="cls-1" x="119.02" y="51.47" width="35.38" height="5.79" rx=".97" ry=".97"/>
      <path class="cls-1" d="M152.04,43.75h-30.66c-.41,0-.77.25-.91.64l-1.63,4.5c-.23.63.24,1.29.91,1.29h33.92c.67,0,1.14-.66.91-1.29l-1.63-4.5c-.14-.38-.5-.64-.91-.64Z"/>
      <rect class="cls-1" x="120.95" y="40.53" width="31.52" height="1.93" rx=".97" ry=".97"/>
      <path class="cls-1" d="M143.94,17.37h-14.56c-.4,0-.75.24-.9.61l-7.77,19.94c-.25.63.22,1.32.9,1.32h30.1c.68,0,1.15-.68.9-1.32l-7.77-19.94c-.14-.37-.5-.61-.9-.61Z"/>
      <path class="cls-1" d="M144.76,8.36h-.02c0-.11.02-.21.02-.32,0-4.44-3.6-8.04-8.04-8.04s-8.04,3.6-8.04,8.04c0,.11.01.21.02.32h-.02v6.76c0,.53.43.97.97.97h14.15c.53,0,.97-.43.97-.97v-6.76Z"/>
      <path class="cls-1" d="M29.2,69.52h9.66c.53,0,.97.43.97.97v3.82c0,.53.43.97.97.97h31.55c.53,0,.97-.43.97-.97v-3.82c0-.53.43-.97.97-.97h9.66c.53,0,.97.43.97.97v3.82c0,.53.43.97.97.97h27.04c.93,0,1.32-1.18.58-1.74l-13.78-10.29c-.17-.12-.37-.19-.58-.19H15.95c-.2,0-.4.06-.56.18l-14.33,10.29c-.76.55-.37,1.75.56,1.75h25.66c.53,0,.97-.43.97-.97v-3.82c0-.53.43-.97.97-.97Z"/>
      <path class="cls-1" d="M84.92,77.52v83.64c0,.53-.43.97-.97.97h-9.65c-.53,0-.97-.43-.97-.97v-83.64c0-.53-.43-.97-.97-.97h-31.52c-.53,0-.97.43-.97.97v83.64c0,.53-.43.97-.97.97h-9.65c-.53,0-.97-.43-.97-.97v-83.64c0-.53-.43-.97-.97-.97H.97c-.53,0-.97.43-.97.97v101.65c0,.53.43.97.97.97h113.23c.53,0,.97-.43.97-.97v-101.65c0-.53-.43-.97-.97-.97h-28.31c-.53,0-.97.43-.97.97Z"/>
    </g>
  </g>
</svg>