<?xml version="1.0" encoding="UTF-8"?>
<svg id="Calque_2" xmlns="http://www.w3.org/2000/svg" viewBox="0 0 167.7 168.4">
  <defs>
    <style>
      .cls-1 {
        fill: #fff;
      }
    </style>
  </defs>
  <g id="Calque_7">
    <path id="Icone_Puzzle" class="cls-1" d="M149.18,81.57c7.5,0,14.18,3.49,18.52,8.92v-45.22c0-2.14-1.73-3.87-3.87-3.87h-44.08c4.87-4.34,7.95-10.66,7.95-17.7,0-13.09-10.61-23.7-23.7-23.7s-23.7,10.61-23.7,23.7c0,7.04,3.07,13.36,7.95,17.7h-43.67c-2.14,0-3.87,1.73-3.87,3.87v44.1c-4.31-4.43-10.33-7.19-17-7.19-13.09,0-23.7,10.61-23.7,23.7s10.61,23.7,23.7,23.7c6.67,0,12.69-2.76,17-7.19v42.14c0,2.14,1.73,3.87,3.87,3.87h43.71c-5.03-4.64-8.04-11.43-7.58-18.91.73-11.81,10.34-21.42,22.15-22.15,13.77-.85,25.21,10.07,25.21,23.65,0,6.89-2.94,13.08-7.63,17.41h43.4c2.14,0,3.87-1.73,3.87-3.87v-44.48c-4.34,5.44-11.02,8.92-18.52,8.92-13.09,0-23.7-10.61-23.7-23.7s10.61-23.7,23.7-23.7Z"/>
  </g>
</svg>