<?xml version="1.0" encoding="UTF-8"?>
<svg id="Calque_2" xmlns="http://www.w3.org/2000/svg" viewBox="0 0 171.52 171.51">
  <defs>
    <style>
      .cls-1 {
        fill: #fff;
      }
    </style>
  </defs>
  <g id="Calque_7">
    <path id="Icone_Paramètre" class="cls-1" d="M171.52,75.81c0-1.73-1.29-3.19-3.02-3.4l-22.81-2.73c-1.91-.23-3.51-1.54-4.14-3.36-.76-2.18-1.64-4.3-2.64-6.36-.84-1.74-.64-3.8.55-5.32l14.18-18.01c1.07-1.36.96-3.31-.27-4.54l-14.02-14.02c-1.23-1.23-3.17-1.34-4.54-.27l-18.06,14.2c-1.51,1.19-3.57,1.39-5.31.56-2.06-.99-4.18-1.87-6.37-2.62-1.83-.63-3.14-2.23-3.37-4.15l-2.71-22.77c-.21-1.72-1.67-3.02-3.4-3.02h-19.83c-1.73,0-3.19,1.3-3.4,3.02l-2.72,22.81c-.23,1.91-1.54,3.51-3.36,4.15-2.14.75-4.23,1.61-6.25,2.59-1.74.84-3.8.64-5.32-.56l-17.99-14.21c-1.36-1.07-3.31-.96-4.54.26l-14.04,13.99c-1.23,1.22-1.35,3.17-.28,4.54l14.17,18.08c1.19,1.52,1.39,3.57.55,5.31-1,2.06-1.88,4.18-2.63,6.36-.63,1.82-2.24,3.14-4.16,3.36l-22.77,2.68c-1.72.2-3.02,1.66-3.02,3.39L0,95.6c0,1.73,1.29,3.2,3.01,3.4l22.81,2.76c1.91.23,3.51,1.54,4.14,3.37.76,2.18,1.63,4.31,2.63,6.36.84,1.74.64,3.8-.56,5.32l-14.2,18c-1.07,1.36-.96,3.31.26,4.54l14,14.04c1.22,1.23,3.17,1.35,4.54.28l18.07-14.18c1.52-1.19,3.57-1.39,5.31-.55,2.06,1,4.18,1.88,6.36,2.63,1.83.63,3.14,2.24,3.37,4.15l2.69,22.77c.2,1.72,1.66,3.02,3.4,3.02l19.83.02c1.73,0,3.19-1.29,3.4-3.01l2.74-22.81c.23-1.91,1.54-3.51,3.36-4.14,2.18-.76,4.3-1.64,6.36-2.63,1.74-.84,3.8-.64,5.32.56l18,14.19c1.36,1.07,3.31.96,4.54-.27l14.03-14.01c1.23-1.22,1.34-3.17.27-4.54l-14.19-18.06c-1.19-1.52-1.39-3.57-.55-5.31.99-2.06,1.87-4.18,2.63-6.36.63-1.83,2.23-3.14,4.15-3.37l22.77-2.7c1.72-.2,3.02-1.66,3.02-3.4v-19.83ZM85.76,117.93c-17.77,0-32.18-14.41-32.18-32.18s14.41-32.18,32.18-32.18,32.18,14.41,32.18,32.18-14.41,32.18-32.18,32.18Z"/>
  </g>
</svg>